<?xml version="1.0" encoding="UTF-8" standalone="no"?>
<!DOCTYPE svg PUBLIC "-//W3C//DTD SVG 1.1//EN"
 "http://www.w3.org/Graphics/SVG/1.1/DTD/svg11.dtd">
<!-- Generated by graphviz version 2.43.0 (0)
 -->
<!-- Title: /home/runner/work/doxygen/doxygen/src/groupdef.h Pages: 1 -->
<svg width="837pt" height="423pt"
 viewBox="0.00 0.00 837.00 423.00" xmlns="http://www.w3.org/2000/svg" xmlns:xlink="http://www.w3.org/1999/xlink">
<g id="graph0" class="graph" transform="scale(1 1) rotate(0) translate(4 419)">
<title>/home/runner/work/doxygen/doxygen/src/groupdef.h</title>
<!-- Node1 -->
<g id="node1" class="node">
<title>Node1</title>
<g id="a_node1"><a xlink:title=" ">
<polygon fill="#999999" stroke="#666666" points="369,-415 215,-415 215,-385 369,-385 369,-415"/>
<text text-anchor="start" x="223" y="-403" font-family="Helvetica,sans-Serif" font-size="10.00">/home/runner/work/doxygen</text>
<text text-anchor="middle" x="292" y="-392" font-family="Helvetica,sans-Serif" font-size="10.00">/doxygen/src/groupdef.h</text>
</a>
</g>
</g>
<!-- Node2 -->
<g id="node2" class="node">
<title>Node2</title>
<g id="a_node2"><a xlink:title=" ">
<polygon fill="#e0e0e0" stroke="#999999" points="143,-129 85,-129 85,-110 143,-110 143,-129"/>
<text text-anchor="middle" x="114" y="-117" font-family="Helvetica,sans-Serif" font-size="10.00">memory</text>
</a>
</g>
</g>
<!-- Node1&#45;&gt;Node2 -->
<g id="edge1" class="edge">
<title>Node1&#45;&gt;Node2</title>
<path fill="none" stroke="#63b8ff" d="M216.04,-384.99C129.52,-366.82 0,-331.87 0,-285.5 0,-285.5 0,-285.5 0,-228.5 0,-182.47 49.58,-150.18 83.35,-133.53"/>
<polygon fill="#63b8ff" stroke="#63b8ff" points="85.28,-136.49 92.82,-129.05 82.29,-130.16 85.28,-136.49"/>
</g>
<!-- Node3 -->
<g id="node3" class="node">
<title>Node3</title>
<g id="a_node3"><a xlink:href="../../df/da1/definition_8h.html" target="_top" xlink:title=" ">
<polygon fill="white" stroke="#666666" points="389.5,-294 318.5,-294 318.5,-275 389.5,-275 389.5,-294"/>
<text text-anchor="middle" x="354" y="-282" font-family="Helvetica,sans-Serif" font-size="10.00">definition.h</text>
</a>
</g>
</g>
<!-- Node1&#45;&gt;Node3 -->
<g id="edge2" class="edge">
<title>Node1&#45;&gt;Node3</title>
<path fill="none" stroke="#63b8ff" d="M299.85,-384.63C311.21,-363.84 332.18,-325.44 344.43,-303.02"/>
<polygon fill="#63b8ff" stroke="#63b8ff" points="347.51,-304.68 349.23,-294.23 341.37,-301.33 347.51,-304.68"/>
</g>
<!-- Node18 -->
<g id="node18" class="node">
<title>Node18</title>
<g id="a_node18"><a xlink:href="../../da/de1/linkedmap_8h.html" target="_top" xlink:title=" ">
<polygon fill="white" stroke="#666666" points="409.5,-184 332.5,-184 332.5,-165 409.5,-165 409.5,-184"/>
<text text-anchor="middle" x="371" y="-172" font-family="Helvetica,sans-Serif" font-size="10.00">linkedmap.h</text>
</a>
</g>
</g>
<!-- Node1&#45;&gt;Node18 -->
<g id="edge46" class="edge">
<title>Node1&#45;&gt;Node18</title>
<path fill="none" stroke="#63b8ff" d="M351.23,-384.93C374.32,-377.22 399.79,-365.73 419,-349 440.16,-330.58 440.01,-320.22 450,-294 461.86,-262.86 479.64,-248.26 462,-220 452.35,-204.54 435.59,-194.3 419.07,-187.59"/>
<polygon fill="#63b8ff" stroke="#63b8ff" points="420.02,-184.21 409.42,-184.04 417.6,-190.78 420.02,-184.21"/>
</g>
<!-- Node19 -->
<g id="node19" class="node">
<title>Node19</title>
<g id="a_node19"><a xlink:href="../../d6/d15/dirdef_8h.html" target="_top" xlink:title=" ">
<polygon fill="white" stroke="#666666" points="409.5,-349 356.5,-349 356.5,-330 409.5,-330 409.5,-349"/>
<text text-anchor="middle" x="383" y="-337" font-family="Helvetica,sans-Serif" font-size="10.00">dirdef.h</text>
</a>
</g>
</g>
<!-- Node1&#45;&gt;Node19 -->
<g id="edge30" class="edge">
<title>Node1&#45;&gt;Node19</title>
<path fill="none" stroke="#63b8ff" d="M314.03,-384.84C328.27,-375.68 346.73,-363.82 360.97,-354.66"/>
<polygon fill="#63b8ff" stroke="#63b8ff" points="363.11,-357.45 369.63,-349.09 359.33,-351.56 363.11,-357.45"/>
</g>
<!-- Node21 -->
<g id="node21" class="node">
<title>Node21</title>
<g id="a_node21"><a xlink:href="../../db/d51/layout_8h.html" target="_top" xlink:title=" ">
<polygon fill="white" stroke="#666666" points="114,-294 58,-294 58,-275 114,-275 114,-294"/>
<text text-anchor="middle" x="86" y="-282" font-family="Helvetica,sans-Serif" font-size="10.00">layout.h</text>
</a>
</g>
</g>
<!-- Node1&#45;&gt;Node21 -->
<g id="edge36" class="edge">
<title>Node1&#45;&gt;Node21</title>
<path fill="none" stroke="#63b8ff" d="M266.33,-384.85C226.46,-362.89 150.15,-320.85 110.81,-299.17"/>
<polygon fill="#63b8ff" stroke="#63b8ff" points="112.1,-295.88 101.65,-294.12 108.72,-302.02 112.1,-295.88"/>
</g>
<!-- Node22 -->
<g id="node22" class="node">
<title>Node22</title>
<g id="a_node22"><a xlink:href="../../d9/d11/membergroup_8h.html" target="_top" xlink:title=" ">
<polygon fill="white" stroke="#666666" points="300.5,-294 205.5,-294 205.5,-275 300.5,-275 300.5,-294"/>
<text text-anchor="middle" x="253" y="-282" font-family="Helvetica,sans-Serif" font-size="10.00">membergroup.h</text>
</a>
</g>
</g>
<!-- Node1&#45;&gt;Node22 -->
<g id="edge40" class="edge">
<title>Node1&#45;&gt;Node22</title>
<path fill="none" stroke="#63b8ff" d="M287.06,-384.63C280.01,-364.12 267.08,-326.47 259.33,-303.93"/>
<polygon fill="#63b8ff" stroke="#63b8ff" points="262.56,-302.55 256,-294.23 255.94,-304.82 262.56,-302.55"/>
</g>
<!-- Node4 -->
<g id="node4" class="node">
<title>Node4</title>
<g id="a_node4"><a xlink:title=" ">
<polygon fill="#e0e0e0" stroke="#999999" points="217.5,-129 170.5,-129 170.5,-110 217.5,-110 217.5,-129"/>
<text text-anchor="middle" x="194" y="-117" font-family="Helvetica,sans-Serif" font-size="10.00">vector</text>
</a>
</g>
</g>
<!-- Node3&#45;&gt;Node4 -->
<g id="edge3" class="edge">
<title>Node3&#45;&gt;Node4</title>
<path fill="none" stroke="#63b8ff" d="M318.3,-275.65C295.76,-269.11 267.34,-257.76 248,-239 240.27,-231.5 214.15,-169.56 201.28,-138.35"/>
<polygon fill="#63b8ff" stroke="#63b8ff" points="204.51,-136.98 197.48,-129.06 198.03,-139.64 204.51,-136.98"/>
</g>
<!-- Node5 -->
<g id="node5" class="node">
<title>Node5</title>
<g id="a_node5"><a xlink:href="../../d9/d49/types_8h.html" target="_top" xlink:title="This file contains a number of basic enums and types.">
<polygon fill="white" stroke="#666666" points="380.5,-239 327.5,-239 327.5,-220 380.5,-220 380.5,-239"/>
<text text-anchor="middle" x="354" y="-227" font-family="Helvetica,sans-Serif" font-size="10.00">types.h</text>
</a>
</g>
</g>
<!-- Node3&#45;&gt;Node5 -->
<g id="edge4" class="edge">
<title>Node3&#45;&gt;Node5</title>
<path fill="none" stroke="#63b8ff" d="M354,-274.75C354,-267.8 354,-257.85 354,-249.13"/>
<polygon fill="#63b8ff" stroke="#63b8ff" points="357.5,-249.09 354,-239.09 350.5,-249.09 357.5,-249.09"/>
</g>
<!-- Node16 -->
<g id="node16" class="node">
<title>Node16</title>
<g id="a_node16"><a xlink:href="../../d1/d02/reflist_8h.html" target="_top" xlink:title=" ">
<polygon fill="white" stroke="#666666" points="309.5,-239 256.5,-239 256.5,-220 309.5,-220 309.5,-239"/>
<text text-anchor="middle" x="283" y="-227" font-family="Helvetica,sans-Serif" font-size="10.00">reflist.h</text>
</a>
</g>
</g>
<!-- Node3&#45;&gt;Node16 -->
<g id="edge17" class="edge">
<title>Node3&#45;&gt;Node16</title>
<path fill="none" stroke="#63b8ff" d="M342.59,-274.98C331.89,-267 315.66,-254.88 302.84,-245.31"/>
<polygon fill="#63b8ff" stroke="#63b8ff" points="304.72,-242.35 294.61,-239.17 300.53,-247.96 304.72,-242.35"/>
</g>
<!-- Node6 -->
<g id="node6" class="node">
<title>Node6</title>
<g id="a_node6"><a xlink:href="../../d7/d5c/qcstring_8h.html" target="_top" xlink:title=" ">
<polygon fill="white" stroke="#666666" points="567.5,-129 502.5,-129 502.5,-110 567.5,-110 567.5,-129"/>
<text text-anchor="middle" x="535" y="-117" font-family="Helvetica,sans-Serif" font-size="10.00">qcstring.h</text>
</a>
</g>
</g>
<!-- Node5&#45;&gt;Node6 -->
<g id="edge5" class="edge">
<title>Node5&#45;&gt;Node6</title>
<path fill="none" stroke="#63b8ff" d="M380.68,-221.9C415.05,-213.05 472.45,-196.94 490,-184 506.1,-172.13 518.63,-152.75 526.33,-138.52"/>
<polygon fill="#63b8ff" stroke="#63b8ff" points="529.64,-139.74 531.07,-129.24 523.41,-136.56 529.64,-139.74"/>
</g>
<!-- Node7 -->
<g id="node7" class="node">
<title>Node7</title>
<g id="a_node7"><a xlink:title=" ">
<polygon fill="#e0e0e0" stroke="#999999" points="743,-19 699,-19 699,0 743,0 743,-19"/>
<text text-anchor="middle" x="721" y="-7" font-family="Helvetica,sans-Serif" font-size="10.00">string</text>
</a>
</g>
</g>
<!-- Node6&#45;&gt;Node7 -->
<g id="edge6" class="edge">
<title>Node6&#45;&gt;Node7</title>
<path fill="none" stroke="#63b8ff" d="M567.81,-118.78C605.21,-117.3 665.82,-109.1 702,-74 713.99,-62.37 718.49,-43.5 720.14,-29.35"/>
<polygon fill="#63b8ff" stroke="#63b8ff" points="723.64,-29.49 720.94,-19.24 716.66,-28.94 723.64,-29.49"/>
</g>
<!-- Node8 -->
<g id="node8" class="node">
<title>Node8</title>
<g id="a_node8"><a xlink:title=" ">
<polygon fill="#e0e0e0" stroke="#999999" points="418,-74 354,-74 354,-55 418,-55 418,-74"/>
<text text-anchor="middle" x="386" y="-62" font-family="Helvetica,sans-Serif" font-size="10.00">algorithm</text>
</a>
</g>
</g>
<!-- Node6&#45;&gt;Node8 -->
<g id="edge7" class="edge">
<title>Node6&#45;&gt;Node8</title>
<path fill="none" stroke="#63b8ff" d="M511.06,-109.98C486.44,-101.23 447.88,-87.51 420.08,-77.62"/>
<polygon fill="#63b8ff" stroke="#63b8ff" points="420.97,-74.22 410.38,-74.17 418.62,-80.82 420.97,-74.22"/>
</g>
<!-- Node9 -->
<g id="node9" class="node">
<title>Node9</title>
<g id="a_node9"><a xlink:title=" ">
<polygon fill="#e0e0e0" stroke="#999999" points="335.5,-74 286.5,-74 286.5,-55 335.5,-55 335.5,-74"/>
<text text-anchor="middle" x="311" y="-62" font-family="Helvetica,sans-Serif" font-size="10.00">cctype</text>
</a>
</g>
</g>
<!-- Node6&#45;&gt;Node9 -->
<g id="edge8" class="edge">
<title>Node6&#45;&gt;Node9</title>
<path fill="none" stroke="#63b8ff" d="M502.35,-111.01C466.4,-102.73 406.62,-88.85 345.35,-74.05"/>
<polygon fill="#63b8ff" stroke="#63b8ff" points="346.05,-70.62 335.5,-71.67 344.4,-77.43 346.05,-70.62"/>
</g>
<!-- Node10 -->
<g id="node10" class="node">
<title>Node10</title>
<g id="a_node10"><a xlink:title=" ">
<polygon fill="#e0e0e0" stroke="#999999" points="486,-74 436,-74 436,-55 486,-55 486,-74"/>
<text text-anchor="middle" x="461" y="-62" font-family="Helvetica,sans-Serif" font-size="10.00">cstring</text>
</a>
</g>
</g>
<!-- Node6&#45;&gt;Node10 -->
<g id="edge9" class="edge">
<title>Node6&#45;&gt;Node10</title>
<path fill="none" stroke="#63b8ff" d="M523.11,-109.98C511.85,-101.92 494.71,-89.65 481.29,-80.03"/>
<polygon fill="#63b8ff" stroke="#63b8ff" points="483.27,-77.15 473.11,-74.17 479.2,-82.84 483.27,-77.15"/>
</g>
<!-- Node11 -->
<g id="node11" class="node">
<title>Node11</title>
<g id="a_node11"><a xlink:title=" ">
<polygon fill="#e0e0e0" stroke="#999999" points="550,-74 504,-74 504,-55 550,-55 550,-74"/>
<text text-anchor="middle" x="527" y="-62" font-family="Helvetica,sans-Serif" font-size="10.00">cstdio</text>
</a>
</g>
</g>
<!-- Node6&#45;&gt;Node11 -->
<g id="edge10" class="edge">
<title>Node6&#45;&gt;Node11</title>
<path fill="none" stroke="#63b8ff" d="M533.68,-109.75C532.63,-102.8 531.13,-92.85 529.81,-84.13"/>
<polygon fill="#63b8ff" stroke="#63b8ff" points="533.25,-83.45 528.3,-74.09 526.33,-84.5 533.25,-83.45"/>
</g>
<!-- Node12 -->
<g id="node12" class="node">
<title>Node12</title>
<g id="a_node12"><a xlink:title=" ">
<polygon fill="#e0e0e0" stroke="#999999" points="617.5,-74 568.5,-74 568.5,-55 617.5,-55 617.5,-74"/>
<text text-anchor="middle" x="593" y="-62" font-family="Helvetica,sans-Serif" font-size="10.00">cstdlib</text>
</a>
</g>
</g>
<!-- Node6&#45;&gt;Node12 -->
<g id="edge11" class="edge">
<title>Node6&#45;&gt;Node12</title>
<path fill="none" stroke="#63b8ff" d="M544.32,-109.98C552.81,-102.23 565.56,-90.58 575.88,-81.14"/>
<polygon fill="#63b8ff" stroke="#63b8ff" points="578.49,-83.5 583.51,-74.17 573.77,-78.33 578.49,-83.5"/>
</g>
<!-- Node13 -->
<g id="node13" class="node">
<title>Node13</title>
<g id="a_node13"><a xlink:title=" ">
<polygon fill="#e0e0e0" stroke="#999999" points="829,-19 779,-19 779,0 829,0 829,-19"/>
<text text-anchor="middle" x="804" y="-7" font-family="Helvetica,sans-Serif" font-size="10.00">cstdint</text>
</a>
</g>
</g>
<!-- Node6&#45;&gt;Node13 -->
<g id="edge12" class="edge">
<title>Node6&#45;&gt;Node13</title>
<path fill="none" stroke="#63b8ff" d="M567.71,-118.14C632.61,-116.65 774.03,-109.33 804,-74 814.35,-61.79 812.96,-43.01 809.82,-29.03"/>
<polygon fill="#63b8ff" stroke="#63b8ff" points="813.11,-27.8 807.11,-19.07 806.36,-29.64 813.11,-27.8"/>
</g>
<!-- Node14 -->
<g id="node14" class="node">
<title>Node14</title>
<g id="a_node14"><a xlink:title=" ">
<polygon fill="#e0e0e0" stroke="#999999" points="692.5,-74 635.5,-74 635.5,-55 692.5,-55 692.5,-74"/>
<text text-anchor="middle" x="664" y="-62" font-family="Helvetica,sans-Serif" font-size="10.00">ostream</text>
</a>
</g>
</g>
<!-- Node6&#45;&gt;Node14 -->
<g id="edge13" class="edge">
<title>Node6&#45;&gt;Node14</title>
<path fill="none" stroke="#63b8ff" d="M555.73,-109.98C576.76,-101.34 609.55,-87.87 633.54,-78.02"/>
<polygon fill="#63b8ff" stroke="#63b8ff" points="634.98,-81.21 642.9,-74.17 632.32,-74.73 634.98,-81.21"/>
</g>
<!-- Node15 -->
<g id="node15" class="node">
<title>Node15</title>
<g id="a_node15"><a xlink:href="../../db/d7c/utf8_8h.html" target="_top" xlink:title="Various UTF8 related helper functions.">
<polygon fill="white" stroke="#666666" points="794.5,-74 749.5,-74 749.5,-55 794.5,-55 794.5,-74"/>
<text text-anchor="middle" x="772" y="-62" font-family="Helvetica,sans-Serif" font-size="10.00">utf8.h</text>
</a>
</g>
</g>
<!-- Node6&#45;&gt;Node15 -->
<g id="edge14" class="edge">
<title>Node6&#45;&gt;Node15</title>
<path fill="none" stroke="#63b8ff" d="M567.58,-111.32C607.18,-102.58 676.02,-87.34 735,-74 736.45,-73.67 737.92,-73.34 739.42,-73"/>
<polygon fill="#63b8ff" stroke="#63b8ff" points="740.34,-76.38 749.31,-70.74 738.78,-69.55 740.34,-76.38"/>
</g>
<!-- Node15&#45;&gt;Node7 -->
<g id="edge16" class="edge">
<title>Node15&#45;&gt;Node7</title>
<path fill="none" stroke="#63b8ff" d="M763.58,-54.75C756.23,-47.11 745.37,-35.82 736.46,-26.56"/>
<polygon fill="#63b8ff" stroke="#63b8ff" points="738.72,-23.87 729.26,-19.09 733.68,-28.72 738.72,-23.87"/>
</g>
<!-- Node15&#45;&gt;Node13 -->
<g id="edge15" class="edge">
<title>Node15&#45;&gt;Node13</title>
<path fill="none" stroke="#63b8ff" d="M777.28,-54.75C781.71,-47.42 788.16,-36.73 793.62,-27.7"/>
<polygon fill="#63b8ff" stroke="#63b8ff" points="796.64,-29.46 798.81,-19.09 790.65,-25.84 796.64,-29.46"/>
</g>
<!-- Node16&#45;&gt;Node2 -->
<g id="edge20" class="edge">
<title>Node16&#45;&gt;Node2</title>
<path fill="none" stroke="#63b8ff" d="M269.46,-219.84C240.41,-201.28 171.88,-157.49 136.3,-134.75"/>
<polygon fill="#63b8ff" stroke="#63b8ff" points="137.92,-131.63 127.61,-129.2 134.15,-137.53 137.92,-131.63"/>
</g>
<!-- Node16&#45;&gt;Node4 -->
<g id="edge18" class="edge">
<title>Node16&#45;&gt;Node4</title>
<path fill="none" stroke="#63b8ff" d="M285.11,-219.89C287.79,-206.87 290.84,-181.91 280,-165 268.23,-146.65 246.31,-135.47 227.55,-128.91"/>
<polygon fill="#63b8ff" stroke="#63b8ff" points="228.41,-125.51 217.82,-125.8 226.28,-132.17 228.41,-125.51"/>
</g>
<!-- Node16&#45;&gt;Node6 -->
<g id="edge21" class="edge">
<title>Node16&#45;&gt;Node6</title>
<path fill="none" stroke="#63b8ff" d="M309.81,-221.84C347.77,-212.23 415.09,-194.49 438,-184 467.07,-170.68 497.41,-149.44 516.25,-135.24"/>
<polygon fill="#63b8ff" stroke="#63b8ff" points="518.48,-137.94 524.29,-129.08 514.22,-132.39 518.48,-137.94"/>
</g>
<!-- Node17 -->
<g id="node17" class="node">
<title>Node17</title>
<g id="a_node17"><a xlink:title=" ">
<polygon fill="#e0e0e0" stroke="#999999" points="484.5,-129 391.5,-129 391.5,-110 484.5,-110 484.5,-129"/>
<text text-anchor="middle" x="438" y="-117" font-family="Helvetica,sans-Serif" font-size="10.00">unordered_map</text>
</a>
</g>
</g>
<!-- Node16&#45;&gt;Node17 -->
<g id="edge19" class="edge">
<title>Node16&#45;&gt;Node17</title>
<path fill="none" stroke="#63b8ff" d="M309.78,-221.18C347.13,-210.75 411.2,-192.01 419,-184 430.66,-172.04 435.21,-153.22 436.96,-139.17"/>
<polygon fill="#63b8ff" stroke="#63b8ff" points="440.45,-139.42 437.84,-129.15 433.48,-138.8 440.45,-139.42"/>
</g>
<!-- Node16&#45;&gt;Node18 -->
<g id="edge22" class="edge">
<title>Node16&#45;&gt;Node18</title>
<path fill="none" stroke="#63b8ff" d="M297.14,-219.98C310.79,-211.77 331.69,-199.18 347.78,-189.49"/>
<polygon fill="#63b8ff" stroke="#63b8ff" points="349.84,-192.33 356.6,-184.17 346.23,-186.33 349.84,-192.33"/>
</g>
<!-- Node18&#45;&gt;Node2 -->
<g id="edge25" class="edge">
<title>Node18&#45;&gt;Node2</title>
<path fill="none" stroke="#63b8ff" d="M332.25,-165.51C283.81,-155.52 201.39,-138.52 152.89,-128.52"/>
<polygon fill="#63b8ff" stroke="#63b8ff" points="153.58,-125.09 143.08,-126.5 152.16,-131.94 153.58,-125.09"/>
</g>
<!-- Node18&#45;&gt;Node4 -->
<g id="edge24" class="edge">
<title>Node18&#45;&gt;Node4</title>
<path fill="none" stroke="#63b8ff" d="M342.56,-164.98C311.12,-155.57 260.54,-140.42 227.28,-130.46"/>
<polygon fill="#63b8ff" stroke="#63b8ff" points="228.14,-127.07 217.55,-127.55 226.13,-133.77 228.14,-127.07"/>
</g>
<!-- Node18&#45;&gt;Node6 -->
<g id="edge29" class="edge">
<title>Node18&#45;&gt;Node6</title>
<path fill="none" stroke="#63b8ff" d="M397.35,-164.98C424.76,-156.13 467.89,-142.19 498.56,-132.28"/>
<polygon fill="#63b8ff" stroke="#63b8ff" points="500,-135.49 508.44,-129.08 497.85,-128.83 500,-135.49"/>
</g>
<!-- Node18&#45;&gt;Node7 -->
<g id="edge26" class="edge">
<title>Node18&#45;&gt;Node7</title>
<path fill="none" stroke="#63b8ff" d="M355.34,-164.99C320.57,-145.06 242.65,-94.08 278,-55 305.49,-24.61 591.39,-14.03 688.74,-11.3"/>
<polygon fill="#63b8ff" stroke="#63b8ff" points="688.97,-14.79 698.87,-11.02 688.78,-7.8 688.97,-14.79"/>
</g>
<!-- Node18&#45;&gt;Node8 -->
<g id="edge27" class="edge">
<title>Node18&#45;&gt;Node8</title>
<path fill="none" stroke="#63b8ff" d="M372.23,-164.66C374.66,-147.17 380.12,-107.8 383.39,-84.27"/>
<polygon fill="#63b8ff" stroke="#63b8ff" points="386.89,-84.54 384.8,-74.16 379.95,-83.58 386.89,-84.54"/>
</g>
<!-- Node18&#45;&gt;Node9 -->
<g id="edge28" class="edge">
<title>Node18&#45;&gt;Node9</title>
<path fill="none" stroke="#63b8ff" d="M366.09,-164.66C356.2,-146.85 333.7,-106.37 320.73,-83.01"/>
<polygon fill="#63b8ff" stroke="#63b8ff" points="323.73,-81.2 315.81,-74.16 317.61,-84.6 323.73,-81.2"/>
</g>
<!-- Node18&#45;&gt;Node17 -->
<g id="edge23" class="edge">
<title>Node18&#45;&gt;Node17</title>
<path fill="none" stroke="#63b8ff" d="M381.76,-164.98C391.77,-157.07 406.89,-145.11 418.93,-135.58"/>
<polygon fill="#63b8ff" stroke="#63b8ff" points="421.37,-138.12 427.04,-129.17 417.03,-132.63 421.37,-138.12"/>
</g>
<!-- Node19&#45;&gt;Node3 -->
<g id="edge35" class="edge">
<title>Node19&#45;&gt;Node3</title>
<path fill="none" stroke="#63b8ff" d="M378.21,-329.75C374.24,-322.49 368.47,-311.95 363.57,-302.98"/>
<polygon fill="#63b8ff" stroke="#63b8ff" points="366.57,-301.18 358.7,-294.09 360.43,-304.54 366.57,-301.18"/>
</g>
<!-- Node19&#45;&gt;Node4 -->
<g id="edge31" class="edge">
<title>Node19&#45;&gt;Node4</title>
<path fill="none" stroke="#63b8ff" d="M356.5,-336.08C309.86,-331.22 216.15,-318.58 196,-294 159.29,-249.23 176.58,-173.89 187.47,-139.12"/>
<polygon fill="#63b8ff" stroke="#63b8ff" points="190.89,-139.93 190.71,-129.34 184.24,-137.73 190.89,-139.93"/>
</g>
<!-- Node19&#45;&gt;Node6 -->
<g id="edge33" class="edge">
<title>Node19&#45;&gt;Node6</title>
<path fill="none" stroke="#63b8ff" d="M400.3,-329.95C414.87,-322.11 435.59,-309.39 450,-294 493.86,-247.14 519.65,-173.38 529.87,-139.13"/>
<polygon fill="#63b8ff" stroke="#63b8ff" points="533.35,-139.7 532.74,-129.13 526.62,-137.77 533.35,-139.7"/>
</g>
<!-- Node19&#45;&gt;Node18 -->
<g id="edge34" class="edge">
<title>Node19&#45;&gt;Node18</title>
<path fill="none" stroke="#63b8ff" d="M394.04,-329.78C417.64,-310.04 469.06,-260.49 446,-220 437.7,-205.43 422.55,-195.14 408.02,-188.15"/>
<polygon fill="#63b8ff" stroke="#63b8ff" points="409.21,-184.85 398.65,-184.02 406.39,-191.25 409.21,-184.85"/>
</g>
<!-- Node20 -->
<g id="node20" class="node">
<title>Node20</title>
<g id="a_node20"><a xlink:title=" ">
<polygon fill="#e0e0e0" stroke="#999999" points="437,-239 399,-239 399,-220 437,-220 437,-239"/>
<text text-anchor="middle" x="418" y="-227" font-family="Helvetica,sans-Serif" font-size="10.00">map</text>
</a>
</g>
</g>
<!-- Node19&#45;&gt;Node20 -->
<g id="edge32" class="edge">
<title>Node19&#45;&gt;Node20</title>
<path fill="none" stroke="#63b8ff" d="M386.33,-329.68C389.67,-320.74 394.89,-306.48 399,-294 403.95,-278.95 409.07,-261.72 412.75,-249.01"/>
<polygon fill="#63b8ff" stroke="#63b8ff" points="416.18,-249.75 415.57,-239.17 409.45,-247.82 416.18,-249.75"/>
</g>
<!-- Node21&#45;&gt;Node2 -->
<g id="edge37" class="edge">
<title>Node21&#45;&gt;Node2</title>
<path fill="none" stroke="#63b8ff" d="M79.63,-274.84C73.74,-266.25 65.39,-252.45 62,-239 53.95,-207.11 48.25,-194.87 62,-165 67.75,-152.52 78.91,-142.24 89.42,-134.71"/>
<polygon fill="#63b8ff" stroke="#63b8ff" points="91.57,-137.49 97.97,-129.05 87.7,-131.65 91.57,-137.49"/>
</g>
<!-- Node21&#45;&gt;Node4 -->
<g id="edge38" class="edge">
<title>Node21&#45;&gt;Node4</title>
<path fill="none" stroke="#63b8ff" d="M88.27,-274.71C93.94,-253.95 110.3,-200.95 138,-165 147.09,-153.2 159.95,-142.69 171.06,-134.85"/>
<polygon fill="#63b8ff" stroke="#63b8ff" points="173.16,-137.66 179.49,-129.16 169.24,-131.86 173.16,-137.66"/>
</g>
<!-- Node21&#45;&gt;Node5 -->
<g id="edge39" class="edge">
<title>Node21&#45;&gt;Node5</title>
<path fill="none" stroke="#63b8ff" d="M114.07,-278.6C156.13,-271.16 238.25,-256.26 317.17,-239.32"/>
<polygon fill="#63b8ff" stroke="#63b8ff" points="318.24,-242.67 327.28,-237.13 316.76,-235.83 318.24,-242.67"/>
</g>
<!-- Node22&#45;&gt;Node2 -->
<g id="edge43" class="edge">
<title>Node22&#45;&gt;Node2</title>
<path fill="none" stroke="#63b8ff" d="M242.35,-274.82C232.05,-266.2 216.26,-252.39 204,-239 173.04,-205.19 141.76,-161.32 125.48,-137.58"/>
<polygon fill="#63b8ff" stroke="#63b8ff" points="128.34,-135.56 119.82,-129.26 122.55,-139.49 128.34,-135.56"/>
</g>
<!-- Node22&#45;&gt;Node4 -->
<g id="edge41" class="edge">
<title>Node22&#45;&gt;Node4</title>
<path fill="none" stroke="#63b8ff" d="M242.59,-274.74C233.52,-266.49 220.79,-253.29 214,-239 198.46,-206.28 194.8,-163.45 194.05,-139.26"/>
<polygon fill="#63b8ff" stroke="#63b8ff" points="197.55,-138.95 193.88,-129.01 190.55,-139.07 197.55,-138.95"/>
</g>
<!-- Node22&#45;&gt;Node5 -->
<g id="edge44" class="edge">
<title>Node22&#45;&gt;Node5</title>
<path fill="none" stroke="#63b8ff" d="M269.23,-274.98C285.18,-266.61 309.78,-253.7 328.38,-243.95"/>
<polygon fill="#63b8ff" stroke="#63b8ff" points="330.25,-246.92 337.48,-239.17 327,-240.72 330.25,-246.92"/>
</g>
<!-- Node22&#45;&gt;Node16 -->
<g id="edge45" class="edge">
<title>Node22&#45;&gt;Node16</title>
<path fill="none" stroke="#63b8ff" d="M257.95,-274.75C262.06,-267.49 268.03,-256.95 273.1,-247.98"/>
<polygon fill="#63b8ff" stroke="#63b8ff" points="276.26,-249.52 278.14,-239.09 270.17,-246.07 276.26,-249.52"/>
</g>
<!-- Node22&#45;&gt;Node20 -->
<g id="edge42" class="edge">
<title>Node22&#45;&gt;Node20</title>
<path fill="none" stroke="#63b8ff" d="M279.51,-274.98C309.47,-265.36 358.07,-249.75 389.01,-239.81"/>
<polygon fill="#63b8ff" stroke="#63b8ff" points="390.32,-243.07 398.77,-236.68 388.18,-236.4 390.32,-243.07"/>
</g>
</g>
</svg>
