<?xml version="1.0" encoding="UTF-8" standalone="no"?>
<!DOCTYPE svg PUBLIC "-//W3C//DTD SVG 1.1//EN"
 "http://www.w3.org/Graphics/SVG/1.1/DTD/svg11.dtd">
<!-- Generated by graphviz version 2.43.0 (0)
 -->
<!-- Title: /home/runner/work/doxygen/doxygen/src/docbookvisitor.h Pages: 1 -->
<svg width="1143pt" height="368pt"
 viewBox="0.00 0.00 1143.00 368.00" xmlns="http://www.w3.org/2000/svg" xmlns:xlink="http://www.w3.org/1999/xlink">
<g id="graph0" class="graph" transform="scale(1 1) rotate(0) translate(4 364)">
<title>/home/runner/work/doxygen/doxygen/src/docbookvisitor.h</title>
<!-- Node1 -->
<g id="node1" class="node">
<title>Node1</title>
<g id="a_node1"><a xlink:title=" ">
<polygon fill="#999999" stroke="#666666" points="640,-360 478,-360 478,-330 640,-330 640,-360"/>
<text text-anchor="start" x="486" y="-348" font-family="Helvetica,sans-Serif" font-size="10.00">/home/runner/work/doxygen</text>
<text text-anchor="middle" x="559" y="-337" font-family="Helvetica,sans-Serif" font-size="10.00">/doxygen/src/docbookvisitor.h</text>
</a>
</g>
</g>
<!-- Node2 -->
<g id="node2" class="node">
<title>Node2</title>
<g id="a_node2"><a xlink:title=" ">
<polygon fill="#e0e0e0" stroke="#999999" points="184,-294 124,-294 124,-275 184,-275 184,-294"/>
<text text-anchor="middle" x="154" y="-282" font-family="Helvetica,sans-Serif" font-size="10.00">iostream</text>
</a>
</g>
</g>
<!-- Node1&#45;&gt;Node2 -->
<g id="edge1" class="edge">
<title>Node1&#45;&gt;Node2</title>
<path fill="none" stroke="#63b8ff" d="M477.81,-334.01C404.52,-324.69 293.82,-309.88 198,-294 196.75,-293.79 195.48,-293.58 194.19,-293.36"/>
<polygon fill="#63b8ff" stroke="#63b8ff" points="194.72,-289.89 184.26,-291.56 193.48,-296.78 194.72,-289.89"/>
</g>
<!-- Node3 -->
<g id="node3" class="node">
<title>Node3</title>
<g id="a_node3"><a xlink:href="../../d5/d75/containers_8h.html" target="_top" xlink:title=" ">
<polygon fill="white" stroke="#666666" points="221.5,-184 144.5,-184 144.5,-165 221.5,-165 221.5,-184"/>
<text text-anchor="middle" x="183" y="-172" font-family="Helvetica,sans-Serif" font-size="10.00">containers.h</text>
</a>
</g>
</g>
<!-- Node1&#45;&gt;Node3 -->
<g id="edge2" class="edge">
<title>Node1&#45;&gt;Node3</title>
<path fill="none" stroke="#63b8ff" d="M520.07,-329.91C468.69,-310.94 375.77,-275.36 299,-239 265.99,-223.37 229.21,-202.64 206.1,-189.19"/>
<polygon fill="#63b8ff" stroke="#63b8ff" points="207.76,-186.11 197.36,-184.08 204.23,-192.15 207.76,-186.11"/>
</g>
<!-- Node11 -->
<g id="node11" class="node">
<title>Node11</title>
<g id="a_node11"><a xlink:href="../../d2/d3c/docvisitor_8h.html" target="_top" xlink:title=" ">
<polygon fill="white" stroke="#666666" points="811.5,-239 738.5,-239 738.5,-220 811.5,-220 811.5,-239"/>
<text text-anchor="middle" x="775" y="-227" font-family="Helvetica,sans-Serif" font-size="10.00">docvisitor.h</text>
</a>
</g>
</g>
<!-- Node1&#45;&gt;Node11 -->
<g id="edge10" class="edge">
<title>Node1&#45;&gt;Node11</title>
<path fill="none" stroke="#63b8ff" d="M585.92,-329.85C627.9,-307.79 708.41,-265.49 749.5,-243.9"/>
<polygon fill="#63b8ff" stroke="#63b8ff" points="751.36,-246.87 758.59,-239.12 748.11,-240.68 751.36,-246.87"/>
</g>
<!-- Node13 -->
<g id="node13" class="node">
<title>Node13</title>
<g id="a_node13"><a xlink:href="../../d7/d5c/qcstring_8h.html" target="_top" xlink:title=" ">
<polygon fill="white" stroke="#666666" points="889.5,-129 824.5,-129 824.5,-110 889.5,-110 889.5,-129"/>
<text text-anchor="middle" x="857" y="-117" font-family="Helvetica,sans-Serif" font-size="10.00">qcstring.h</text>
</a>
</g>
</g>
<!-- Node1&#45;&gt;Node13 -->
<g id="edge59" class="edge">
<title>Node1&#45;&gt;Node13</title>
<path fill="none" stroke="#63b8ff" d="M635.45,-329.94C756.33,-305.82 981.94,-252.48 1021,-184 1048.06,-136.56 957.24,-124.41 900.06,-121.4"/>
<polygon fill="#63b8ff" stroke="#63b8ff" points="899.96,-117.89 889.81,-120.94 899.64,-124.89 899.96,-117.89"/>
</g>
<!-- Node22 -->
<g id="node22" class="node">
<title>Node22</title>
<g id="a_node22"><a xlink:href="../../de/d2b/docnode_8h.html" target="_top" xlink:title=" ">
<polygon fill="white" stroke="#666666" points="592.5,-294 525.5,-294 525.5,-275 592.5,-275 592.5,-294"/>
<text text-anchor="middle" x="559" y="-282" font-family="Helvetica,sans-Serif" font-size="10.00">docnode.h</text>
</a>
</g>
</g>
<!-- Node1&#45;&gt;Node22 -->
<g id="edge24" class="edge">
<title>Node1&#45;&gt;Node22</title>
<path fill="none" stroke="#63b8ff" d="M559,-329.84C559,-322.21 559,-312.7 559,-304.45"/>
<polygon fill="#63b8ff" stroke="#63b8ff" points="562.5,-304.27 559,-294.27 555.5,-304.27 562.5,-304.27"/>
</g>
<!-- Node4 -->
<g id="node4" class="node">
<title>Node4</title>
<g id="a_node4"><a xlink:title=" ">
<polygon fill="#e0e0e0" stroke="#999999" points="357.5,-129 310.5,-129 310.5,-110 357.5,-110 357.5,-129"/>
<text text-anchor="middle" x="334" y="-117" font-family="Helvetica,sans-Serif" font-size="10.00">vector</text>
</a>
</g>
</g>
<!-- Node3&#45;&gt;Node4 -->
<g id="edge3" class="edge">
<title>Node3&#45;&gt;Node4</title>
<path fill="none" stroke="#63b8ff" d="M207.26,-164.98C232.62,-156.09 272.57,-142.06 300.83,-132.14"/>
<polygon fill="#63b8ff" stroke="#63b8ff" points="302.02,-135.43 310.3,-128.82 299.7,-128.83 302.02,-135.43"/>
</g>
<!-- Node5 -->
<g id="node5" class="node">
<title>Node5</title>
<g id="a_node5"><a xlink:title=" ">
<polygon fill="#e0e0e0" stroke="#999999" points="995,-19 951,-19 951,0 995,0 995,-19"/>
<text text-anchor="middle" x="973" y="-7" font-family="Helvetica,sans-Serif" font-size="10.00">string</text>
</a>
</g>
</g>
<!-- Node3&#45;&gt;Node5 -->
<g id="edge4" class="edge">
<title>Node3&#45;&gt;Node5</title>
<path fill="none" stroke="#63b8ff" d="M198.55,-164.81C228.1,-148.35 290.41,-113.89 301,-110 411.06,-69.59 443.23,-73.51 559,-55 700.27,-32.41 870.55,-18.15 940.55,-12.84"/>
<polygon fill="#63b8ff" stroke="#63b8ff" points="941.19,-16.31 950.9,-12.07 940.67,-9.33 941.19,-16.31"/>
</g>
<!-- Node6 -->
<g id="node6" class="node">
<title>Node6</title>
<g id="a_node6"><a xlink:title=" ">
<polygon fill="#e0e0e0" stroke="#999999" points="32,-129 0,-129 0,-110 32,-110 32,-129"/>
<text text-anchor="middle" x="16" y="-117" font-family="Helvetica,sans-Serif" font-size="10.00">set</text>
</a>
</g>
</g>
<!-- Node3&#45;&gt;Node6 -->
<g id="edge5" class="edge">
<title>Node3&#45;&gt;Node6</title>
<path fill="none" stroke="#63b8ff" d="M155.18,-165C128.41,-156.77 86.57,-143.79 41.73,-129.18"/>
<polygon fill="#63b8ff" stroke="#63b8ff" points="42.71,-125.82 32.12,-126.04 40.54,-132.48 42.71,-125.82"/>
</g>
<!-- Node7 -->
<g id="node7" class="node">
<title>Node7</title>
<g id="a_node7"><a xlink:title=" ">
<polygon fill="#e0e0e0" stroke="#999999" points="88,-129 50,-129 50,-110 88,-110 88,-129"/>
<text text-anchor="middle" x="69" y="-117" font-family="Helvetica,sans-Serif" font-size="10.00">map</text>
</a>
</g>
</g>
<!-- Node3&#45;&gt;Node7 -->
<g id="edge6" class="edge">
<title>Node3&#45;&gt;Node7</title>
<path fill="none" stroke="#63b8ff" d="M164.68,-164.98C146.34,-156.46 117.89,-143.23 96.77,-133.41"/>
<polygon fill="#63b8ff" stroke="#63b8ff" points="98.19,-130.21 87.65,-129.17 95.24,-136.56 98.19,-130.21"/>
</g>
<!-- Node8 -->
<g id="node8" class="node">
<title>Node8</title>
<g id="a_node8"><a xlink:title=" ">
<polygon fill="#e0e0e0" stroke="#999999" points="192,-129 106,-129 106,-110 192,-110 192,-129"/>
<text text-anchor="middle" x="149" y="-117" font-family="Helvetica,sans-Serif" font-size="10.00">unordered_set</text>
</a>
</g>
</g>
<!-- Node3&#45;&gt;Node8 -->
<g id="edge7" class="edge">
<title>Node3&#45;&gt;Node8</title>
<path fill="none" stroke="#63b8ff" d="M177.39,-164.75C172.68,-157.42 165.83,-146.73 160.03,-137.7"/>
<polygon fill="#63b8ff" stroke="#63b8ff" points="162.86,-135.62 154.51,-129.09 156.96,-139.4 162.86,-135.62"/>
</g>
<!-- Node9 -->
<g id="node9" class="node">
<title>Node9</title>
<g id="a_node9"><a xlink:title=" ">
<polygon fill="#e0e0e0" stroke="#999999" points="805.5,-129 712.5,-129 712.5,-110 805.5,-110 805.5,-129"/>
<text text-anchor="middle" x="759" y="-117" font-family="Helvetica,sans-Serif" font-size="10.00">unordered_map</text>
</a>
</g>
</g>
<!-- Node3&#45;&gt;Node9 -->
<g id="edge8" class="edge">
<title>Node3&#45;&gt;Node9</title>
<path fill="none" stroke="#63b8ff" d="M221.52,-169.63C236.36,-168.15 253.47,-166.47 269,-165 425.8,-150.13 610.94,-133.59 702.24,-125.51"/>
<polygon fill="#63b8ff" stroke="#63b8ff" points="702.72,-128.98 712.37,-124.61 702.1,-122.01 702.72,-128.98"/>
</g>
<!-- Node10 -->
<g id="node10" class="node">
<title>Node10</title>
<g id="a_node10"><a xlink:title=" ">
<polygon fill="#e0e0e0" stroke="#999999" points="253.5,-129 210.5,-129 210.5,-110 253.5,-110 253.5,-129"/>
<text text-anchor="middle" x="232" y="-117" font-family="Helvetica,sans-Serif" font-size="10.00">stack</text>
</a>
</g>
</g>
<!-- Node3&#45;&gt;Node10 -->
<g id="edge9" class="edge">
<title>Node3&#45;&gt;Node10</title>
<path fill="none" stroke="#63b8ff" d="M191.09,-164.75C198.16,-157.11 208.59,-145.82 217.15,-136.56"/>
<polygon fill="#63b8ff" stroke="#63b8ff" points="219.84,-138.81 224.06,-129.09 214.7,-134.06 219.84,-138.81"/>
</g>
<!-- Node12 -->
<g id="node12" class="node">
<title>Node12</title>
<g id="a_node12"><a xlink:title=" ">
<polygon fill="#e0e0e0" stroke="#999999" points="521,-129 463,-129 463,-110 521,-110 521,-129"/>
<text text-anchor="middle" x="492" y="-117" font-family="Helvetica,sans-Serif" font-size="10.00">memory</text>
</a>
</g>
</g>
<!-- Node11&#45;&gt;Node12 -->
<g id="edge11" class="edge">
<title>Node11&#45;&gt;Node12</title>
<path fill="none" stroke="#63b8ff" d="M745.28,-219.97C717.83,-211.77 676.11,-198.52 641,-184 623.55,-176.78 620.22,-172.74 603,-165 577.05,-153.34 547.08,-141.41 524.83,-132.84"/>
<polygon fill="#63b8ff" stroke="#63b8ff" points="525.78,-129.46 515.19,-129.16 523.28,-136 525.78,-129.46"/>
</g>
<!-- Node11&#45;&gt;Node13 -->
<g id="edge12" class="edge">
<title>Node11&#45;&gt;Node13</title>
<path fill="none" stroke="#63b8ff" d="M798.19,-219.94C814.19,-212.8 834.57,-201.03 846,-184 854.87,-170.79 857.28,-152.67 857.67,-139.16"/>
<polygon fill="#63b8ff" stroke="#63b8ff" points="861.17,-139.09 857.62,-129.11 854.17,-139.13 861.17,-139.09"/>
</g>
<!-- Node13&#45;&gt;Node5 -->
<g id="edge13" class="edge">
<title>Node13&#45;&gt;Node5</title>
<path fill="none" stroke="#63b8ff" d="M889.76,-117.43C949.37,-114.73 1071.87,-105.4 1098,-74 1126.39,-39.89 1050.96,-22.16 1005.17,-14.78"/>
<polygon fill="#63b8ff" stroke="#63b8ff" points="1005.49,-11.29 995.08,-13.24 1004.44,-18.21 1005.49,-11.29"/>
</g>
<!-- Node14 -->
<g id="node14" class="node">
<title>Node14</title>
<g id="a_node14"><a xlink:title=" ">
<polygon fill="#e0e0e0" stroke="#999999" points="712,-74 648,-74 648,-55 712,-55 712,-74"/>
<text text-anchor="middle" x="680" y="-62" font-family="Helvetica,sans-Serif" font-size="10.00">algorithm</text>
</a>
</g>
</g>
<!-- Node13&#45;&gt;Node14 -->
<g id="edge14" class="edge">
<title>Node13&#45;&gt;Node14</title>
<path fill="none" stroke="#63b8ff" d="M828.56,-109.98C798.72,-101.05 751.62,-86.94 718.47,-77.02"/>
<polygon fill="#63b8ff" stroke="#63b8ff" points="719.24,-73.6 708.66,-74.08 717.24,-80.3 719.24,-73.6"/>
</g>
<!-- Node15 -->
<g id="node15" class="node">
<title>Node15</title>
<g id="a_node15"><a xlink:title=" ">
<polygon fill="#e0e0e0" stroke="#999999" points="629.5,-74 580.5,-74 580.5,-55 629.5,-55 629.5,-74"/>
<text text-anchor="middle" x="605" y="-62" font-family="Helvetica,sans-Serif" font-size="10.00">cctype</text>
</a>
</g>
</g>
<!-- Node13&#45;&gt;Node15 -->
<g id="edge15" class="edge">
<title>Node13&#45;&gt;Node15</title>
<path fill="none" stroke="#63b8ff" d="M824.17,-111.84C772.4,-101.33 674.75,-81.48 640.08,-74.08"/>
<polygon fill="#63b8ff" stroke="#63b8ff" points="640.37,-70.56 629.85,-71.85 638.87,-77.4 640.37,-70.56"/>
</g>
<!-- Node16 -->
<g id="node16" class="node">
<title>Node16</title>
<g id="a_node16"><a xlink:title=" ">
<polygon fill="#e0e0e0" stroke="#999999" points="882,-74 832,-74 832,-55 882,-55 882,-74"/>
<text text-anchor="middle" x="857" y="-62" font-family="Helvetica,sans-Serif" font-size="10.00">cstring</text>
</a>
</g>
</g>
<!-- Node13&#45;&gt;Node16 -->
<g id="edge16" class="edge">
<title>Node13&#45;&gt;Node16</title>
<path fill="none" stroke="#63b8ff" d="M857,-109.75C857,-102.8 857,-92.85 857,-84.13"/>
<polygon fill="#63b8ff" stroke="#63b8ff" points="860.5,-84.09 857,-74.09 853.5,-84.09 860.5,-84.09"/>
</g>
<!-- Node17 -->
<g id="node17" class="node">
<title>Node17</title>
<g id="a_node17"><a xlink:title=" ">
<polygon fill="#e0e0e0" stroke="#999999" points="946,-74 900,-74 900,-55 946,-55 946,-74"/>
<text text-anchor="middle" x="923" y="-62" font-family="Helvetica,sans-Serif" font-size="10.00">cstdio</text>
</a>
</g>
</g>
<!-- Node13&#45;&gt;Node17 -->
<g id="edge17" class="edge">
<title>Node13&#45;&gt;Node17</title>
<path fill="none" stroke="#63b8ff" d="M867.6,-109.98C877.46,-102.07 892.35,-90.11 904.22,-80.58"/>
<polygon fill="#63b8ff" stroke="#63b8ff" points="906.6,-83.16 912.2,-74.17 902.21,-77.7 906.6,-83.16"/>
</g>
<!-- Node18 -->
<g id="node18" class="node">
<title>Node18</title>
<g id="a_node18"><a xlink:title=" ">
<polygon fill="#e0e0e0" stroke="#999999" points="1013.5,-74 964.5,-74 964.5,-55 1013.5,-55 1013.5,-74"/>
<text text-anchor="middle" x="989" y="-62" font-family="Helvetica,sans-Serif" font-size="10.00">cstdlib</text>
</a>
</g>
</g>
<!-- Node13&#45;&gt;Node18 -->
<g id="edge18" class="edge">
<title>Node13&#45;&gt;Node18</title>
<path fill="none" stroke="#63b8ff" d="M878.21,-109.98C899.73,-101.34 933.28,-87.87 957.83,-78.02"/>
<polygon fill="#63b8ff" stroke="#63b8ff" points="959.43,-81.14 967.41,-74.17 956.82,-74.65 959.43,-81.14"/>
</g>
<!-- Node19 -->
<g id="node19" class="node">
<title>Node19</title>
<g id="a_node19"><a xlink:title=" ">
<polygon fill="#e0e0e0" stroke="#999999" points="790,-19 740,-19 740,0 790,0 790,-19"/>
<text text-anchor="middle" x="765" y="-7" font-family="Helvetica,sans-Serif" font-size="10.00">cstdint</text>
</a>
</g>
</g>
<!-- Node13&#45;&gt;Node19 -->
<g id="edge19" class="edge">
<title>Node13&#45;&gt;Node19</title>
<path fill="none" stroke="#63b8ff" d="M830.17,-109.85C804.34,-100.92 768.05,-86.55 760,-74 751.43,-60.63 754.04,-42.28 758,-28.74"/>
<polygon fill="#63b8ff" stroke="#63b8ff" points="761.37,-29.7 761.26,-19.1 754.74,-27.45 761.37,-29.7"/>
</g>
<!-- Node20 -->
<g id="node20" class="node">
<title>Node20</title>
<g id="a_node20"><a xlink:title=" ">
<polygon fill="#e0e0e0" stroke="#999999" points="1088.5,-74 1031.5,-74 1031.5,-55 1088.5,-55 1088.5,-74"/>
<text text-anchor="middle" x="1060" y="-62" font-family="Helvetica,sans-Serif" font-size="10.00">ostream</text>
</a>
</g>
</g>
<!-- Node13&#45;&gt;Node20 -->
<g id="edge20" class="edge">
<title>Node13&#45;&gt;Node20</title>
<path fill="none" stroke="#63b8ff" d="M889.62,-109.98C925.62,-100.58 983.53,-85.46 1021.68,-75.5"/>
<polygon fill="#63b8ff" stroke="#63b8ff" points="1022.61,-78.88 1031.4,-72.97 1020.84,-72.11 1022.61,-78.88"/>
</g>
<!-- Node21 -->
<g id="node21" class="node">
<title>Node21</title>
<g id="a_node21"><a xlink:href="../../db/d7c/utf8_8h.html" target="_top" xlink:title="Various UTF8 related helper functions.">
<polygon fill="white" stroke="#666666" points="813.5,-74 768.5,-74 768.5,-55 813.5,-55 813.5,-74"/>
<text text-anchor="middle" x="791" y="-62" font-family="Helvetica,sans-Serif" font-size="10.00">utf8.h</text>
</a>
</g>
</g>
<!-- Node13&#45;&gt;Node21 -->
<g id="edge21" class="edge">
<title>Node13&#45;&gt;Node21</title>
<path fill="none" stroke="#63b8ff" d="M846.4,-109.98C836.54,-102.07 821.65,-90.11 809.78,-80.58"/>
<polygon fill="#63b8ff" stroke="#63b8ff" points="811.79,-77.7 801.8,-74.17 807.4,-83.16 811.79,-77.7"/>
</g>
<!-- Node21&#45;&gt;Node5 -->
<g id="edge23" class="edge">
<title>Node21&#45;&gt;Node5</title>
<path fill="none" stroke="#63b8ff" d="M813.68,-56.89C845.82,-47.54 904.76,-30.37 941.23,-19.75"/>
<polygon fill="#63b8ff" stroke="#63b8ff" points="942.26,-23.1 950.89,-16.94 940.31,-16.38 942.26,-23.1"/>
</g>
<!-- Node21&#45;&gt;Node19 -->
<g id="edge22" class="edge">
<title>Node21&#45;&gt;Node19</title>
<path fill="none" stroke="#63b8ff" d="M786.71,-54.75C783.19,-47.57 778.09,-37.18 773.72,-28.27"/>
<polygon fill="#63b8ff" stroke="#63b8ff" points="776.76,-26.53 769.21,-19.09 770.48,-29.61 776.76,-26.53"/>
</g>
<!-- Node22&#45;&gt;Node4 -->
<g id="edge26" class="edge">
<title>Node22&#45;&gt;Node4</title>
<path fill="none" stroke="#63b8ff" d="M525.22,-280.77C482.09,-276.34 405.86,-265.24 346,-239 307.48,-222.12 288.24,-221.39 269,-184 258.26,-163.13 281.95,-145.08 303.68,-133.61"/>
<polygon fill="#63b8ff" stroke="#63b8ff" points="305.36,-136.68 312.77,-129.11 302.25,-130.41 305.36,-136.68"/>
</g>
<!-- Node22&#45;&gt;Node11 -->
<g id="edge30" class="edge">
<title>Node22&#45;&gt;Node11</title>
<path fill="none" stroke="#63b8ff" d="M592.75,-275.22C629.72,-266.15 689.19,-251.55 730.08,-241.52"/>
<polygon fill="#63b8ff" stroke="#63b8ff" points="731.18,-244.86 740.06,-239.07 729.51,-238.06 731.18,-244.86"/>
</g>
<!-- Node22&#45;&gt;Node12 -->
<g id="edge27" class="edge">
<title>Node22&#45;&gt;Node12</title>
<path fill="none" stroke="#63b8ff" d="M525.5,-278.57C484.71,-271.8 419.47,-258.24 405,-239 385.23,-212.71 387.84,-193.06 405,-165 415.53,-147.78 435.06,-136.96 452.96,-130.3"/>
<polygon fill="#63b8ff" stroke="#63b8ff" points="454.31,-133.54 462.66,-127.02 452.07,-126.91 454.31,-133.54"/>
</g>
<!-- Node22&#45;&gt;Node13 -->
<g id="edge29" class="edge">
<title>Node22&#45;&gt;Node13</title>
<path fill="none" stroke="#63b8ff" d="M580.78,-274.96C620,-259.2 704.64,-223.55 771,-184 795.71,-169.27 822.02,-149.11 838.94,-135.48"/>
<polygon fill="#63b8ff" stroke="#63b8ff" points="841.33,-138.05 846.87,-129.02 836.91,-132.62 841.33,-138.05"/>
</g>
<!-- Node23 -->
<g id="node23" class="node">
<title>Node23</title>
<g id="a_node23"><a xlink:title=" ">
<polygon fill="#e0e0e0" stroke="#999999" points="464,-184 414,-184 414,-165 464,-165 464,-184"/>
<text text-anchor="middle" x="439" y="-172" font-family="Helvetica,sans-Serif" font-size="10.00">stdio.h</text>
</a>
</g>
</g>
<!-- Node22&#45;&gt;Node23 -->
<g id="edge25" class="edge">
<title>Node22&#45;&gt;Node23</title>
<path fill="none" stroke="#63b8ff" d="M549.18,-274.66C528.77,-256.3 481.57,-213.81 456.07,-190.87"/>
<polygon fill="#63b8ff" stroke="#63b8ff" points="458.39,-188.25 448.62,-184.16 453.71,-193.45 458.39,-188.25"/>
</g>
<!-- Node24 -->
<g id="node24" class="node">
<title>Node24</title>
<g id="a_node24"><a xlink:title=" ">
<polygon fill="#e0e0e0" stroke="#999999" points="465.5,-239 414.5,-239 414.5,-220 465.5,-220 465.5,-239"/>
<text text-anchor="middle" x="440" y="-227" font-family="Helvetica,sans-Serif" font-size="10.00">variant</text>
</a>
</g>
</g>
<!-- Node22&#45;&gt;Node24 -->
<g id="edge28" class="edge">
<title>Node22&#45;&gt;Node24</title>
<path fill="none" stroke="#63b8ff" d="M539.88,-274.98C520.65,-266.42 490.77,-253.11 468.69,-243.28"/>
<polygon fill="#63b8ff" stroke="#63b8ff" points="470.03,-240.04 459.47,-239.17 467.18,-246.44 470.03,-240.04"/>
</g>
<!-- Node25 -->
<g id="node25" class="node">
<title>Node25</title>
<g id="a_node25"><a xlink:href="../../de/d9c/docparser_8h.html" target="_top" xlink:title=" ">
<polygon fill="white" stroke="#666666" points="595.5,-239 522.5,-239 522.5,-220 595.5,-220 595.5,-239"/>
<text text-anchor="middle" x="559" y="-227" font-family="Helvetica,sans-Serif" font-size="10.00">docparser.h</text>
</a>
</g>
</g>
<!-- Node22&#45;&gt;Node25 -->
<g id="edge31" class="edge">
<title>Node22&#45;&gt;Node25</title>
<path fill="none" stroke="#63b8ff" d="M559,-274.75C559,-267.8 559,-257.85 559,-249.13"/>
<polygon fill="#63b8ff" stroke="#63b8ff" points="562.5,-249.09 559,-239.09 555.5,-249.09 562.5,-249.09"/>
</g>
<!-- Node26 -->
<g id="node26" class="node">
<title>Node26</title>
<g id="a_node26"><a xlink:href="../../d7/d50/growvector_8h.html" target="_top" xlink:title=" ">
<polygon fill="white" stroke="#666666" points="358,-184 278,-184 278,-165 358,-165 358,-184"/>
<text text-anchor="middle" x="318" y="-172" font-family="Helvetica,sans-Serif" font-size="10.00">growvector.h</text>
</a>
</g>
</g>
<!-- Node22&#45;&gt;Node26 -->
<g id="edge46" class="edge">
<title>Node22&#45;&gt;Node26</title>
<path fill="none" stroke="#63b8ff" d="M525.2,-281.76C485.79,-278.37 419.94,-268.38 372,-239 353.38,-227.59 337.94,-207.56 328.41,-193.04"/>
<polygon fill="#63b8ff" stroke="#63b8ff" points="331.3,-191.06 323.02,-184.44 325.37,-194.77 331.3,-191.06"/>
</g>
<!-- Node28 -->
<g id="node28" class="node">
<title>Node28</title>
<g id="a_node28"><a xlink:href="../../d0/d73/htmlattrib_8h.html" target="_top" xlink:title=" ">
<polygon fill="white" stroke="#666666" points="594,-184 520,-184 520,-165 594,-165 594,-184"/>
<text text-anchor="middle" x="557" y="-172" font-family="Helvetica,sans-Serif" font-size="10.00">htmlattrib.h</text>
</a>
</g>
</g>
<!-- Node22&#45;&gt;Node28 -->
<g id="edge39" class="edge">
<title>Node22&#45;&gt;Node28</title>
<path fill="none" stroke="#63b8ff" d="M572.47,-274.97C588.89,-263.42 613.35,-241.72 604,-220 598.85,-208.03 588.71,-197.76 579.17,-190.12"/>
<polygon fill="#63b8ff" stroke="#63b8ff" points="581.19,-187.26 571.07,-184.11 577.01,-192.88 581.19,-187.26"/>
</g>
<!-- Node29 -->
<g id="node29" class="node">
<title>Node29</title>
<g id="a_node29"><a xlink:href="../../db/dc6/htmlentity_8h.html" target="_top" xlink:title=" ">
<polygon fill="white" stroke="#666666" points="1011.5,-184 936.5,-184 936.5,-165 1011.5,-165 1011.5,-184"/>
<text text-anchor="middle" x="974" y="-172" font-family="Helvetica,sans-Serif" font-size="10.00">htmlentity.h</text>
</a>
</g>
</g>
<!-- Node22&#45;&gt;Node29 -->
<g id="edge42" class="edge">
<title>Node22&#45;&gt;Node29</title>
<path fill="none" stroke="#63b8ff" d="M592.7,-281.55C667.57,-276.83 845.4,-263.35 900,-239 924.26,-228.18 946.59,-206.76 960.23,-191.81"/>
<polygon fill="#63b8ff" stroke="#63b8ff" points="962.89,-194.09 966.88,-184.27 957.64,-189.46 962.89,-194.09"/>
</g>
<!-- Node30 -->
<g id="node30" class="node">
<title>Node30</title>
<g id="a_node30"><a xlink:href="../../d1/d2a/section_8h.html" target="_top" xlink:title=" ">
<polygon fill="white" stroke="#666666" points="890.5,-239 829.5,-239 829.5,-220 890.5,-220 890.5,-239"/>
<text text-anchor="middle" x="860" y="-227" font-family="Helvetica,sans-Serif" font-size="10.00">section.h</text>
</a>
</g>
</g>
<!-- Node22&#45;&gt;Node30 -->
<g id="edge47" class="edge">
<title>Node22&#45;&gt;Node30</title>
<path fill="none" stroke="#63b8ff" d="M592.59,-278.31C640.67,-270.76 732.13,-255.99 819.31,-239.26"/>
<polygon fill="#63b8ff" stroke="#63b8ff" points="820.22,-242.65 829.37,-237.32 818.89,-235.78 820.22,-242.65"/>
</g>
<!-- Node25&#45;&gt;Node12 -->
<g id="edge33" class="edge">
<title>Node25&#45;&gt;Node12</title>
<path fill="none" stroke="#63b8ff" d="M546.19,-219.69C535.34,-211.6 520.13,-198.66 511,-184 502.45,-170.26 497.56,-152.46 494.89,-139.2"/>
<polygon fill="#63b8ff" stroke="#63b8ff" points="498.33,-138.55 493.13,-129.32 491.43,-139.78 498.33,-138.55"/>
</g>
<!-- Node25&#45;&gt;Node13 -->
<g id="edge34" class="edge">
<title>Node25&#45;&gt;Node13</title>
<path fill="none" stroke="#63b8ff" d="M595.58,-222.05C632.13,-214.98 689.56,-202.18 737,-184 772.6,-170.36 811.11,-148.62 834.64,-134.45"/>
<polygon fill="#63b8ff" stroke="#63b8ff" points="836.76,-137.26 843.47,-129.06 833.11,-131.28 836.76,-137.26"/>
</g>
<!-- Node25&#45;&gt;Node23 -->
<g id="edge32" class="edge">
<title>Node25&#45;&gt;Node23</title>
<path fill="none" stroke="#63b8ff" d="M539.72,-219.98C520.33,-211.42 490.19,-198.11 467.93,-188.28"/>
<polygon fill="#63b8ff" stroke="#63b8ff" points="469.19,-185.01 458.63,-184.17 466.36,-191.41 469.19,-185.01"/>
</g>
<!-- Node25&#45;&gt;Node26 -->
<g id="edge35" class="edge">
<title>Node25&#45;&gt;Node26</title>
<path fill="none" stroke="#63b8ff" d="M522.4,-220.45C480.9,-211.32 413.04,-196.4 367,-186.28"/>
<polygon fill="#63b8ff" stroke="#63b8ff" points="367.47,-182.8 356.95,-184.07 365.96,-189.63 367.47,-182.8"/>
</g>
<!-- Node26&#45;&gt;Node4 -->
<g id="edge36" class="edge">
<title>Node26&#45;&gt;Node4</title>
<path fill="none" stroke="#63b8ff" d="M320.64,-164.75C322.76,-157.72 325.81,-147.62 328.46,-138.84"/>
<polygon fill="#63b8ff" stroke="#63b8ff" points="331.87,-139.67 331.41,-129.09 325.17,-137.65 331.87,-139.67"/>
</g>
<!-- Node26&#45;&gt;Node12 -->
<g id="edge37" class="edge">
<title>Node26&#45;&gt;Node12</title>
<path fill="none" stroke="#63b8ff" d="M345.96,-164.98C375.3,-156.05 421.6,-141.94 454.19,-132.02"/>
<polygon fill="#63b8ff" stroke="#63b8ff" points="455.28,-135.34 463.82,-129.08 453.24,-128.65 455.28,-135.34"/>
</g>
<!-- Node27 -->
<g id="node27" class="node">
<title>Node27</title>
<g id="a_node27"><a xlink:title=" ">
<polygon fill="#e0e0e0" stroke="#999999" points="428.5,-129 375.5,-129 375.5,-110 428.5,-110 428.5,-129"/>
<text text-anchor="middle" x="402" y="-117" font-family="Helvetica,sans-Serif" font-size="10.00">iterator</text>
</a>
</g>
</g>
<!-- Node26&#45;&gt;Node27 -->
<g id="edge38" class="edge">
<title>Node26&#45;&gt;Node27</title>
<path fill="none" stroke="#63b8ff" d="M331.5,-164.98C344.4,-156.84 364.1,-144.41 379.4,-134.76"/>
<polygon fill="#63b8ff" stroke="#63b8ff" points="381.67,-137.47 388.26,-129.17 377.93,-131.55 381.67,-137.47"/>
</g>
<!-- Node28&#45;&gt;Node4 -->
<g id="edge40" class="edge">
<title>Node28&#45;&gt;Node4</title>
<path fill="none" stroke="#63b8ff" d="M519.95,-165.22C483.44,-156.99 425.83,-143.78 367.49,-129.32"/>
<polygon fill="#63b8ff" stroke="#63b8ff" points="368.29,-125.91 357.74,-126.89 366.6,-132.71 368.29,-125.91"/>
</g>
<!-- Node28&#45;&gt;Node13 -->
<g id="edge41" class="edge">
<title>Node28&#45;&gt;Node13</title>
<path fill="none" stroke="#63b8ff" d="M594.23,-167.43C642.52,-159.47 729.64,-144.86 814.4,-129.06"/>
<polygon fill="#63b8ff" stroke="#63b8ff" points="815.27,-132.46 824.46,-127.18 813.99,-125.58 815.27,-132.46"/>
</g>
<!-- Node29&#45;&gt;Node5 -->
<g id="edge44" class="edge">
<title>Node29&#45;&gt;Node5</title>
<path fill="none" stroke="#63b8ff" d="M1000.88,-164.95C1051.3,-147.49 1151.82,-105.12 1115,-55 1089.95,-20.9 1038.83,-12.22 1005.26,-10.39"/>
<polygon fill="#63b8ff" stroke="#63b8ff" points="1005.15,-6.88 995.03,-10.01 1004.89,-13.88 1005.15,-6.88"/>
</g>
<!-- Node29&#45;&gt;Node9 -->
<g id="edge43" class="edge">
<title>Node29&#45;&gt;Node9</title>
<path fill="none" stroke="#63b8ff" d="M939.46,-164.98C902.58,-155.89 844.01,-141.46 803.66,-131.51"/>
<polygon fill="#63b8ff" stroke="#63b8ff" points="804.36,-128.08 793.81,-129.08 802.69,-134.87 804.36,-128.08"/>
</g>
<!-- Node29&#45;&gt;Node13 -->
<g id="edge45" class="edge">
<title>Node29&#45;&gt;Node13</title>
<path fill="none" stroke="#63b8ff" d="M955.2,-164.98C936.38,-156.46 907.18,-143.23 885.5,-133.41"/>
<polygon fill="#63b8ff" stroke="#63b8ff" points="886.69,-130.11 876.14,-129.17 883.8,-136.48 886.69,-130.11"/>
</g>
<!-- Node30&#45;&gt;Node5 -->
<g id="edge48" class="edge">
<title>Node30&#45;&gt;Node5</title>
<path fill="none" stroke="#63b8ff" d="M890.6,-222.89C923.7,-216.18 977.56,-203.36 1021,-184 1084.44,-155.72 1117.3,-141.88 1132,-74 1133.79,-65.75 1137.1,-61.73 1132,-55 1116.71,-34.84 1046.89,-21.32 1005.03,-14.87"/>
<polygon fill="#63b8ff" stroke="#63b8ff" points="1005.44,-11.4 995.04,-13.39 1004.41,-18.32 1005.44,-11.4"/>
</g>
<!-- Node30&#45;&gt;Node9 -->
<g id="edge49" class="edge">
<title>Node30&#45;&gt;Node9</title>
<path fill="none" stroke="#63b8ff" d="M851.73,-219.66C834.71,-201.46 795.52,-159.55 773.93,-136.47"/>
<polygon fill="#63b8ff" stroke="#63b8ff" points="776.48,-134.07 767.1,-129.16 771.37,-138.85 776.48,-134.07"/>
</g>
<!-- Node30&#45;&gt;Node13 -->
<g id="edge50" class="edge">
<title>Node30&#45;&gt;Node13</title>
<path fill="none" stroke="#63b8ff" d="M867.2,-219.62C876.15,-207.5 889.59,-184.98 884,-165 881.24,-155.12 875.61,-145.25 870.21,-137.32"/>
<polygon fill="#63b8ff" stroke="#63b8ff" points="872.87,-135.04 864.15,-129.03 867.22,-139.17 872.87,-135.04"/>
</g>
<!-- Node31 -->
<g id="node31" class="node">
<title>Node31</title>
<g id="a_node31"><a xlink:href="../../da/de1/linkedmap_8h.html" target="_top" xlink:title=" ">
<polygon fill="white" stroke="#666666" points="727.5,-184 650.5,-184 650.5,-165 727.5,-165 727.5,-184"/>
<text text-anchor="middle" x="689" y="-172" font-family="Helvetica,sans-Serif" font-size="10.00">linkedmap.h</text>
</a>
</g>
</g>
<!-- Node30&#45;&gt;Node31 -->
<g id="edge51" class="edge">
<title>Node30&#45;&gt;Node31</title>
<path fill="none" stroke="#63b8ff" d="M832.53,-219.98C803.82,-211.09 758.58,-197.07 726.58,-187.15"/>
<polygon fill="#63b8ff" stroke="#63b8ff" points="727.28,-183.7 716.69,-184.08 725.2,-190.39 727.28,-183.7"/>
</g>
<!-- Node31&#45;&gt;Node4 -->
<g id="edge53" class="edge">
<title>Node31&#45;&gt;Node4</title>
<path fill="none" stroke="#63b8ff" d="M650.46,-169.74C591.48,-163.64 475.16,-150.3 367.72,-129.14"/>
<polygon fill="#63b8ff" stroke="#63b8ff" points="368.18,-125.67 357.69,-127.14 366.81,-132.53 368.18,-125.67"/>
</g>
<!-- Node31&#45;&gt;Node5 -->
<g id="edge55" class="edge">
<title>Node31&#45;&gt;Node5</title>
<path fill="none" stroke="#63b8ff" d="M668.32,-164.89C625.14,-145.77 532.46,-98.04 571,-55 595.56,-27.58 849.61,-15.22 940.71,-11.65"/>
<polygon fill="#63b8ff" stroke="#63b8ff" points="940.89,-15.15 950.74,-11.27 940.62,-8.15 940.89,-15.15"/>
</g>
<!-- Node31&#45;&gt;Node9 -->
<g id="edge52" class="edge">
<title>Node31&#45;&gt;Node9</title>
<path fill="none" stroke="#63b8ff" d="M700.25,-164.98C710.8,-157 726.8,-144.88 739.44,-135.31"/>
<polygon fill="#63b8ff" stroke="#63b8ff" points="741.69,-138 747.55,-129.17 737.46,-132.42 741.69,-138"/>
</g>
<!-- Node31&#45;&gt;Node12 -->
<g id="edge54" class="edge">
<title>Node31&#45;&gt;Node12</title>
<path fill="none" stroke="#63b8ff" d="M657.35,-164.98C622.95,-155.73 567.96,-140.94 530.94,-130.98"/>
<polygon fill="#63b8ff" stroke="#63b8ff" points="531.57,-127.52 521.01,-128.3 529.75,-134.28 531.57,-127.52"/>
</g>
<!-- Node31&#45;&gt;Node13 -->
<g id="edge58" class="edge">
<title>Node31&#45;&gt;Node13</title>
<path fill="none" stroke="#63b8ff" d="M715.99,-164.98C744.2,-156.09 788.64,-142.07 820.08,-132.15"/>
<polygon fill="#63b8ff" stroke="#63b8ff" points="821.31,-135.43 829.8,-129.08 819.21,-128.75 821.31,-135.43"/>
</g>
<!-- Node31&#45;&gt;Node14 -->
<g id="edge56" class="edge">
<title>Node31&#45;&gt;Node14</title>
<path fill="none" stroke="#63b8ff" d="M688.26,-164.66C686.81,-147.17 683.53,-107.8 681.56,-84.27"/>
<polygon fill="#63b8ff" stroke="#63b8ff" points="685.04,-83.83 680.72,-74.16 678.06,-84.41 685.04,-83.83"/>
</g>
<!-- Node31&#45;&gt;Node15 -->
<g id="edge57" class="edge">
<title>Node31&#45;&gt;Node15</title>
<path fill="none" stroke="#63b8ff" d="M682.13,-164.66C668.09,-146.61 635.94,-105.28 617.89,-82.08"/>
<polygon fill="#63b8ff" stroke="#63b8ff" points="620.64,-79.9 611.73,-74.16 615.11,-84.2 620.64,-79.9"/>
</g>
</g>
</svg>
