<?xml version="1.0" encoding="UTF-8" standalone="no"?>
<!DOCTYPE svg PUBLIC "-//W3C//DTD SVG 1.1//EN"
 "http://www.w3.org/Graphics/SVG/1.1/DTD/svg11.dtd">
<!-- Generated by graphviz version 2.43.0 (0)
 -->
<!-- Title: CodeOutputInterface Pages: 1 -->
<svg width="305pt" height="286pt"
 viewBox="0.00 0.00 305.00 286.00" xmlns="http://www.w3.org/2000/svg" xmlns:xlink="http://www.w3.org/1999/xlink">
<g id="graph0" class="graph" transform="scale(1 1) rotate(0) translate(4 282)">
<title>CodeOutputInterface</title>
<!-- Node1 -->
<g id="node1" class="node">
<title>Node1</title>
<g id="a_node1"><a xlink:title="Output interface for code parser.">
<polygon fill="#999999" stroke="#666666" points="118,-148 0,-148 0,-129 118,-129 118,-148"/>
<text text-anchor="middle" x="59" y="-136" font-family="Helvetica,sans-Serif" font-size="10.00">CodeOutputInterface</text>
</a>
</g>
</g>
<!-- Node2 -->
<g id="node2" class="node">
<title>Node2</title>
<g id="a_node2"><a xlink:href="../../dd/d8a/class_dev_null_code_doc_interface.html" target="_top" xlink:title="Class implementing CodeOutputInterface by throwing away everything.">
<polygon fill="white" stroke="#666666" points="297,-278 154,-278 154,-259 297,-259 297,-278"/>
<text text-anchor="middle" x="225.5" y="-266" font-family="Helvetica,sans-Serif" font-size="10.00">DevNullCodeDocInterface</text>
</a>
</g>
</g>
<!-- Node1&#45;&gt;Node2 -->
<g id="edge1" class="edge">
<title>Node1&#45;&gt;Node2</title>
<path fill="none" stroke="#63b8ff" d="M70.35,-156.89C85.43,-181.98 115.87,-226.52 154,-250.5 159.45,-253.93 165.53,-256.71 171.77,-258.96"/>
<polygon fill="#63b8ff" stroke="#63b8ff" points="73.24,-154.9 65.17,-148.03 67.19,-158.43 73.24,-154.9"/>
</g>
<!-- Node3 -->
<g id="node3" class="node">
<title>Node3</title>
<g id="a_node3"><a xlink:href="../../d7/d80/class_docbook_code_generator.html" target="_top" xlink:title=" ">
<polygon fill="white" stroke="#666666" points="292,-241 159,-241 159,-222 292,-222 292,-241"/>
<text text-anchor="middle" x="225.5" y="-229" font-family="Helvetica,sans-Serif" font-size="10.00">DocbookCodeGenerator</text>
</a>
</g>
</g>
<!-- Node1&#45;&gt;Node3 -->
<g id="edge2" class="edge">
<title>Node1&#45;&gt;Node3</title>
<path fill="none" stroke="#63b8ff" d="M76.41,-155.26C94.06,-172.35 123.69,-198.42 154,-213.5 160.79,-216.88 168.26,-219.66 175.74,-221.94"/>
<polygon fill="#63b8ff" stroke="#63b8ff" points="78.76,-152.66 69.19,-148.12 73.84,-157.64 78.76,-152.66"/>
</g>
<!-- Node4 -->
<g id="node4" class="node">
<title>Node4</title>
<g id="a_node4"><a xlink:href="../../da/db6/class_html_code_generator.html" target="_top" xlink:title="Generator for HTML code fragments.">
<polygon fill="white" stroke="#666666" points="282.5,-204 168.5,-204 168.5,-185 282.5,-185 282.5,-204"/>
<text text-anchor="middle" x="225.5" y="-192" font-family="Helvetica,sans-Serif" font-size="10.00">HtmlCodeGenerator</text>
</a>
</g>
</g>
<!-- Node1&#45;&gt;Node4 -->
<g id="edge3" class="edge">
<title>Node1&#45;&gt;Node4</title>
<path fill="none" stroke="#63b8ff" d="M90.59,-152.08C108.78,-159.85 132.45,-169.43 154,-176.5 163.36,-179.57 173.56,-182.44 183.22,-184.95"/>
<polygon fill="#63b8ff" stroke="#63b8ff" points="91.92,-148.84 81.35,-148.09 89.14,-155.27 91.92,-148.84"/>
</g>
<!-- Node5 -->
<g id="node5" class="node">
<title>Node5</title>
<g id="a_node5"><a xlink:href="../../d0/d37/class_latex_code_generator.html" target="_top" xlink:title="Generator for LaTeX code fragments.">
<polygon fill="white" stroke="#666666" points="284,-167 167,-167 167,-148 284,-148 284,-167"/>
<text text-anchor="middle" x="225.5" y="-155" font-family="Helvetica,sans-Serif" font-size="10.00">LatexCodeGenerator</text>
</a>
</g>
</g>
<!-- Node1&#45;&gt;Node5 -->
<g id="edge4" class="edge">
<title>Node1&#45;&gt;Node5</title>
<path fill="none" stroke="#63b8ff" d="M128.54,-146.42C141.26,-147.89 154.43,-149.41 166.78,-150.83"/>
<polygon fill="#63b8ff" stroke="#63b8ff" points="128.8,-142.92 118.46,-145.25 127.99,-149.88 128.8,-142.92"/>
</g>
<!-- Node6 -->
<g id="node6" class="node">
<title>Node6</title>
<g id="a_node6"><a xlink:href="../../db/d92/class_man_code_generator.html" target="_top" xlink:title="Generator for Man page code fragments.">
<polygon fill="white" stroke="#666666" points="281,-130 170,-130 170,-111 281,-111 281,-130"/>
<text text-anchor="middle" x="225.5" y="-118" font-family="Helvetica,sans-Serif" font-size="10.00">ManCodeGenerator</text>
</a>
</g>
</g>
<!-- Node1&#45;&gt;Node6 -->
<g id="edge5" class="edge">
<title>Node1&#45;&gt;Node6</title>
<path fill="none" stroke="#63b8ff" d="M128.8,-130.97C142.48,-129.47 156.67,-127.92 169.8,-126.48"/>
<polygon fill="#63b8ff" stroke="#63b8ff" points="128.02,-127.54 118.46,-132.1 128.78,-134.49 128.02,-127.54"/>
</g>
<!-- Node7 -->
<g id="node7" class="node">
<title>Node7</title>
<g id="a_node7"><a xlink:href="../../db/d8e/class_output_code_list.html" target="_top" xlink:title=" ">
<polygon fill="white" stroke="#666666" points="271.5,-93 179.5,-93 179.5,-74 271.5,-74 271.5,-93"/>
<text text-anchor="middle" x="225.5" y="-81" font-family="Helvetica,sans-Serif" font-size="10.00">OutputCodeList</text>
</a>
</g>
</g>
<!-- Node1&#45;&gt;Node7 -->
<g id="edge6" class="edge">
<title>Node1&#45;&gt;Node7</title>
<path fill="none" stroke="#63b8ff" d="M92.39,-125.15C110.37,-117.98 133.25,-109.25 154,-102.5 164.37,-99.13 175.72,-95.88 186.24,-93.05"/>
<polygon fill="#63b8ff" stroke="#63b8ff" points="90.91,-121.98 82.94,-128.96 93.53,-128.47 90.91,-121.98"/>
</g>
<!-- Node8 -->
<g id="node8" class="node">
<title>Node8</title>
<g id="a_node8"><a xlink:href="../../d2/df7/class_r_t_f_code_generator.html" target="_top" xlink:title="Generator for RTF code fragments.">
<polygon fill="white" stroke="#666666" points="279.5,-56 171.5,-56 171.5,-37 279.5,-37 279.5,-56"/>
<text text-anchor="middle" x="225.5" y="-44" font-family="Helvetica,sans-Serif" font-size="10.00">RTFCodeGenerator</text>
</a>
</g>
</g>
<!-- Node1&#45;&gt;Node8 -->
<g id="edge7" class="edge">
<title>Node1&#45;&gt;Node8</title>
<path fill="none" stroke="#63b8ff" d="M76.82,-122.02C94.61,-105.47 124.16,-80.35 154,-65.5 161.6,-61.72 170.06,-58.61 178.39,-56.09"/>
<polygon fill="#63b8ff" stroke="#63b8ff" points="74.36,-119.53 69.52,-128.95 79.18,-124.6 74.36,-119.53"/>
</g>
<!-- Node9 -->
<g id="node9" class="node">
<title>Node9</title>
<g id="a_node9"><a xlink:href="../../dd/d66/class_x_m_l_code_generator.html" target="_top" xlink:title=" ">
<polygon fill="white" stroke="#666666" points="281,-19 170,-19 170,0 281,0 281,-19"/>
<text text-anchor="middle" x="225.5" y="-7" font-family="Helvetica,sans-Serif" font-size="10.00">XMLCodeGenerator</text>
</a>
</g>
</g>
<!-- Node1&#45;&gt;Node9 -->
<g id="edge8" class="edge">
<title>Node1&#45;&gt;Node9</title>
<path fill="none" stroke="#63b8ff" d="M70.7,-120.14C86.02,-95.53 116.5,-52.19 154,-28.5 160.11,-24.64 166.99,-21.56 174,-19.1"/>
<polygon fill="#63b8ff" stroke="#63b8ff" points="67.61,-118.5 65.43,-128.86 73.6,-122.12 67.61,-118.5"/>
</g>
</g>
</svg>
