<?xml version="1.0" encoding="UTF-8" standalone="no"?>
<!DOCTYPE svg PUBLIC "-//W3C//DTD SVG 1.1//EN"
 "http://www.w3.org/Graphics/SVG/1.1/DTD/svg11.dtd">
<!-- Generated by graphviz version 2.43.0 (0)
 -->
<!-- Title: /home/runner/work/doxygen/doxygen/src/condparser.cpp Pages: 1 -->
<svg width="541pt" height="258pt"
 viewBox="0.00 0.00 541.00 258.00" xmlns="http://www.w3.org/2000/svg" xmlns:xlink="http://www.w3.org/1999/xlink">
<g id="graph0" class="graph" transform="scale(1 1) rotate(0) translate(4 254)">
<title>/home/runner/work/doxygen/doxygen/src/condparser.cpp</title>
<!-- Node1 -->
<g id="node1" class="node">
<title>Node1</title>
<g id="a_node1"><a xlink:title=" ">
<polygon fill="#999999" stroke="#666666" points="381.5,-250 226.5,-250 226.5,-220 381.5,-220 381.5,-250"/>
<text text-anchor="start" x="234.5" y="-238" font-family="Helvetica,sans-Serif" font-size="10.00">/home/runner/work/doxygen</text>
<text text-anchor="middle" x="304" y="-227" font-family="Helvetica,sans-Serif" font-size="10.00">/doxygen/src/condparser.cpp</text>
</a>
</g>
</g>
<!-- Node2 -->
<g id="node2" class="node">
<title>Node2</title>
<g id="a_node2"><a xlink:title=" ">
<polygon fill="#e0e0e0" stroke="#999999" points="64,-74 0,-74 0,-55 64,-55 64,-74"/>
<text text-anchor="middle" x="32" y="-62" font-family="Helvetica,sans-Serif" font-size="10.00">algorithm</text>
</a>
</g>
</g>
<!-- Node1&#45;&gt;Node2 -->
<g id="edge1" class="edge">
<title>Node1&#45;&gt;Node2</title>
<path fill="none" stroke="#63b8ff" d="M275.3,-219.89C256.23,-210.27 230.78,-196.97 209,-184 150.63,-149.23 84.87,-103.33 52.4,-80.19"/>
<polygon fill="#63b8ff" stroke="#63b8ff" points="54.33,-77.26 44.16,-74.29 50.25,-82.96 54.33,-77.26"/>
</g>
<!-- Node3 -->
<g id="node3" class="node">
<title>Node3</title>
<g id="a_node3"><a xlink:href="../../d7/d6f/condparser_8h.html" target="_top" xlink:title=" ">
<polygon fill="white" stroke="#666666" points="297.5,-184 218.5,-184 218.5,-165 297.5,-165 297.5,-184"/>
<text text-anchor="middle" x="258" y="-172" font-family="Helvetica,sans-Serif" font-size="10.00">condparser.h</text>
</a>
</g>
</g>
<!-- Node1&#45;&gt;Node3 -->
<g id="edge2" class="edge">
<title>Node1&#45;&gt;Node3</title>
<path fill="none" stroke="#63b8ff" d="M292.86,-219.84C286.32,-211.52 278.02,-200.96 271.16,-192.23"/>
<polygon fill="#63b8ff" stroke="#63b8ff" points="273.83,-189.96 264.89,-184.27 268.32,-194.29 273.83,-189.96"/>
</g>
<!-- Node13 -->
<g id="node13" class="node">
<title>Node13</title>
<g id="a_node13"><a xlink:href="../../db/d16/config_8h.html" target="_top" xlink:title=" ">
<polygon fill="white" stroke="#666666" points="463.5,-184 408.5,-184 408.5,-165 463.5,-165 463.5,-184"/>
<text text-anchor="middle" x="436" y="-172" font-family="Helvetica,sans-Serif" font-size="10.00">config.h</text>
</a>
</g>
</g>
<!-- Node1&#45;&gt;Node13 -->
<g id="edge15" class="edge">
<title>Node1&#45;&gt;Node13</title>
<path fill="none" stroke="#63b8ff" d="M335.62,-219.99C357.35,-210.36 385.97,-197.67 407.09,-188.31"/>
<polygon fill="#63b8ff" stroke="#63b8ff" points="408.78,-191.39 416.51,-184.14 405.95,-184.99 408.78,-191.39"/>
</g>
<!-- Node15 -->
<g id="node15" class="node">
<title>Node15</title>
<g id="a_node15"><a xlink:href="../../d2/d0d/message_8h.html" target="_top" xlink:title=" ">
<polygon fill="white" stroke="#666666" points="386,-184 316,-184 316,-165 386,-165 386,-184"/>
<text text-anchor="middle" x="351" y="-172" font-family="Helvetica,sans-Serif" font-size="10.00">message.h</text>
</a>
</g>
</g>
<!-- Node1&#45;&gt;Node15 -->
<g id="edge17" class="edge">
<title>Node1&#45;&gt;Node15</title>
<path fill="none" stroke="#63b8ff" d="M315.38,-219.84C322.06,-211.52 330.55,-200.96 337.56,-192.23"/>
<polygon fill="#63b8ff" stroke="#63b8ff" points="340.42,-194.25 343.96,-184.27 334.97,-189.87 340.42,-194.25"/>
</g>
<!-- Node4 -->
<g id="node4" class="node">
<title>Node4</title>
<g id="a_node4"><a xlink:href="../../d7/d5c/qcstring_8h.html" target="_top" xlink:title=" ">
<polygon fill="white" stroke="#666666" points="306.5,-129 241.5,-129 241.5,-110 306.5,-110 306.5,-129"/>
<text text-anchor="middle" x="274" y="-117" font-family="Helvetica,sans-Serif" font-size="10.00">qcstring.h</text>
</a>
</g>
</g>
<!-- Node3&#45;&gt;Node4 -->
<g id="edge3" class="edge">
<title>Node3&#45;&gt;Node4</title>
<path fill="none" stroke="#63b8ff" d="M260.64,-164.75C262.76,-157.72 265.81,-147.62 268.46,-138.84"/>
<polygon fill="#63b8ff" stroke="#63b8ff" points="271.87,-139.67 271.41,-129.09 265.17,-137.65 271.87,-139.67"/>
</g>
<!-- Node4&#45;&gt;Node2 -->
<g id="edge5" class="edge">
<title>Node4&#45;&gt;Node2</title>
<path fill="none" stroke="#63b8ff" d="M241.36,-111.35C198.09,-101.88 121.67,-85.14 74.1,-74.72"/>
<polygon fill="#63b8ff" stroke="#63b8ff" points="74.64,-71.26 64.12,-72.53 73.14,-78.09 74.64,-71.26"/>
</g>
<!-- Node5 -->
<g id="node5" class="node">
<title>Node5</title>
<g id="a_node5"><a xlink:title=" ">
<polygon fill="#e0e0e0" stroke="#999999" points="533,-19 489,-19 489,0 533,0 533,-19"/>
<text text-anchor="middle" x="511" y="-7" font-family="Helvetica,sans-Serif" font-size="10.00">string</text>
</a>
</g>
</g>
<!-- Node4&#45;&gt;Node5 -->
<g id="edge4" class="edge">
<title>Node4&#45;&gt;Node5</title>
<path fill="none" stroke="#63b8ff" d="M306.54,-111.84C309.74,-111.21 312.93,-110.58 316,-110 360.79,-101.48 488.72,-108.96 518,-74 528.44,-61.53 524.63,-42.52 519.46,-28.54"/>
<polygon fill="#63b8ff" stroke="#63b8ff" points="522.56,-26.89 515.46,-19.03 516.11,-29.61 522.56,-26.89"/>
</g>
<!-- Node6 -->
<g id="node6" class="node">
<title>Node6</title>
<g id="a_node6"><a xlink:title=" ">
<polygon fill="#e0e0e0" stroke="#999999" points="131.5,-74 82.5,-74 82.5,-55 131.5,-55 131.5,-74"/>
<text text-anchor="middle" x="107" y="-62" font-family="Helvetica,sans-Serif" font-size="10.00">cctype</text>
</a>
</g>
</g>
<!-- Node4&#45;&gt;Node6 -->
<g id="edge6" class="edge">
<title>Node4&#45;&gt;Node6</title>
<path fill="none" stroke="#63b8ff" d="M247.17,-109.98C218.38,-100.85 172.58,-86.31 141.22,-76.36"/>
<polygon fill="#63b8ff" stroke="#63b8ff" points="142.18,-72.99 131.59,-73.3 140.06,-79.66 142.18,-72.99"/>
</g>
<!-- Node7 -->
<g id="node7" class="node">
<title>Node7</title>
<g id="a_node7"><a xlink:title=" ">
<polygon fill="#e0e0e0" stroke="#999999" points="200,-74 150,-74 150,-55 200,-55 200,-74"/>
<text text-anchor="middle" x="175" y="-62" font-family="Helvetica,sans-Serif" font-size="10.00">cstring</text>
</a>
</g>
</g>
<!-- Node4&#45;&gt;Node7 -->
<g id="edge7" class="edge">
<title>Node4&#45;&gt;Node7</title>
<path fill="none" stroke="#63b8ff" d="M258.09,-109.98C242.45,-101.61 218.34,-88.7 200.12,-78.95"/>
<polygon fill="#63b8ff" stroke="#63b8ff" points="201.66,-75.8 191.2,-74.17 198.36,-81.98 201.66,-75.8"/>
</g>
<!-- Node8 -->
<g id="node8" class="node">
<title>Node8</title>
<g id="a_node8"><a xlink:title=" ">
<polygon fill="#e0e0e0" stroke="#999999" points="264,-74 218,-74 218,-55 264,-55 264,-74"/>
<text text-anchor="middle" x="241" y="-62" font-family="Helvetica,sans-Serif" font-size="10.00">cstdio</text>
</a>
</g>
</g>
<!-- Node4&#45;&gt;Node8 -->
<g id="edge8" class="edge">
<title>Node4&#45;&gt;Node8</title>
<path fill="none" stroke="#63b8ff" d="M268.55,-109.75C263.99,-102.42 257.33,-91.73 251.71,-82.7"/>
<polygon fill="#63b8ff" stroke="#63b8ff" points="254.6,-80.73 246.35,-74.09 248.66,-84.43 254.6,-80.73"/>
</g>
<!-- Node9 -->
<g id="node9" class="node">
<title>Node9</title>
<g id="a_node9"><a xlink:title=" ">
<polygon fill="#e0e0e0" stroke="#999999" points="331.5,-74 282.5,-74 282.5,-55 331.5,-55 331.5,-74"/>
<text text-anchor="middle" x="307" y="-62" font-family="Helvetica,sans-Serif" font-size="10.00">cstdlib</text>
</a>
</g>
</g>
<!-- Node4&#45;&gt;Node9 -->
<g id="edge9" class="edge">
<title>Node4&#45;&gt;Node9</title>
<path fill="none" stroke="#63b8ff" d="M279.45,-109.75C284.01,-102.42 290.67,-91.73 296.29,-82.7"/>
<polygon fill="#63b8ff" stroke="#63b8ff" points="299.34,-84.43 301.65,-74.09 293.4,-80.73 299.34,-84.43"/>
</g>
<!-- Node10 -->
<g id="node10" class="node">
<title>Node10</title>
<g id="a_node10"><a xlink:title=" ">
<polygon fill="#e0e0e0" stroke="#999999" points="441,-19 391,-19 391,0 441,0 441,-19"/>
<text text-anchor="middle" x="416" y="-7" font-family="Helvetica,sans-Serif" font-size="10.00">cstdint</text>
</a>
</g>
</g>
<!-- Node4&#45;&gt;Node10 -->
<g id="edge10" class="edge">
<title>Node4&#45;&gt;Node10</title>
<path fill="none" stroke="#63b8ff" d="M287.68,-109.86C301.23,-101.17 322.44,-87.2 340,-74 360.87,-58.31 383.73,-38.89 398.87,-25.68"/>
<polygon fill="#63b8ff" stroke="#63b8ff" points="401.22,-28.28 406.42,-19.05 396.6,-23.02 401.22,-28.28"/>
</g>
<!-- Node11 -->
<g id="node11" class="node">
<title>Node11</title>
<g id="a_node11"><a xlink:title=" ">
<polygon fill="#e0e0e0" stroke="#999999" points="445.5,-74 388.5,-74 388.5,-55 445.5,-55 445.5,-74"/>
<text text-anchor="middle" x="417" y="-62" font-family="Helvetica,sans-Serif" font-size="10.00">ostream</text>
</a>
</g>
</g>
<!-- Node4&#45;&gt;Node11 -->
<g id="edge11" class="edge">
<title>Node4&#45;&gt;Node11</title>
<path fill="none" stroke="#63b8ff" d="M296.98,-109.98C320.5,-101.27 357.29,-87.63 383.94,-77.75"/>
<polygon fill="#63b8ff" stroke="#63b8ff" points="385.45,-80.93 393.61,-74.17 383.01,-74.36 385.45,-80.93"/>
</g>
<!-- Node12 -->
<g id="node12" class="node">
<title>Node12</title>
<g id="a_node12"><a xlink:href="../../db/d7c/utf8_8h.html" target="_top" xlink:title="Various UTF8 related helper functions.">
<polygon fill="white" stroke="#666666" points="508.5,-74 463.5,-74 463.5,-55 508.5,-55 508.5,-74"/>
<text text-anchor="middle" x="486" y="-62" font-family="Helvetica,sans-Serif" font-size="10.00">utf8.h</text>
</a>
</g>
</g>
<!-- Node4&#45;&gt;Node12 -->
<g id="edge12" class="edge">
<title>Node4&#45;&gt;Node12</title>
<path fill="none" stroke="#63b8ff" d="M306.76,-110.72C341.09,-102.51 396.81,-89.01 453.49,-74.35"/>
<polygon fill="#63b8ff" stroke="#63b8ff" points="454.53,-77.69 463.33,-71.79 452.77,-70.92 454.53,-77.69"/>
</g>
<!-- Node12&#45;&gt;Node5 -->
<g id="edge14" class="edge">
<title>Node12&#45;&gt;Node5</title>
<path fill="none" stroke="#63b8ff" d="M490.13,-54.75C493.51,-47.57 498.42,-37.18 502.62,-28.27"/>
<polygon fill="#63b8ff" stroke="#63b8ff" points="505.85,-29.63 506.95,-19.09 499.52,-26.64 505.85,-29.63"/>
</g>
<!-- Node12&#45;&gt;Node10 -->
<g id="edge13" class="edge">
<title>Node12&#45;&gt;Node10</title>
<path fill="none" stroke="#63b8ff" d="M474.75,-54.98C464.2,-47 448.2,-34.88 435.56,-25.31"/>
<polygon fill="#63b8ff" stroke="#63b8ff" points="437.54,-22.42 427.45,-19.17 433.31,-28 437.54,-22.42"/>
</g>
<!-- Node14 -->
<g id="node14" class="node">
<title>Node14</title>
<g id="a_node14"><a xlink:title=" ">
<polygon fill="#e0e0e0" stroke="#999999" points="482.5,-129 395.5,-129 395.5,-110 482.5,-110 482.5,-129"/>
<text text-anchor="middle" x="439" y="-117" font-family="Helvetica,sans-Serif" font-size="10.00">configvalues.h</text>
</a>
</g>
</g>
<!-- Node13&#45;&gt;Node14 -->
<g id="edge16" class="edge">
<title>Node13&#45;&gt;Node14</title>
<path fill="none" stroke="#63b8ff" d="M436.5,-164.75C436.89,-157.8 437.45,-147.85 437.95,-139.13"/>
<polygon fill="#63b8ff" stroke="#63b8ff" points="441.44,-139.27 438.51,-129.09 434.45,-138.88 441.44,-139.27"/>
</g>
<!-- Node15&#45;&gt;Node4 -->
<g id="edge19" class="edge">
<title>Node15&#45;&gt;Node4</title>
<path fill="none" stroke="#63b8ff" d="M338.63,-164.98C326.91,-156.92 309.08,-144.65 295.11,-135.03"/>
<polygon fill="#63b8ff" stroke="#63b8ff" points="296.82,-131.96 286.6,-129.17 292.85,-137.72 296.82,-131.96"/>
</g>
<!-- Node16 -->
<g id="node16" class="node">
<title>Node16</title>
<g id="a_node16"><a xlink:title=" ">
<polygon fill="#e0e0e0" stroke="#999999" points="377.5,-129 324.5,-129 324.5,-110 377.5,-110 377.5,-129"/>
<text text-anchor="middle" x="351" y="-117" font-family="Helvetica,sans-Serif" font-size="10.00">cstdarg</text>
</a>
</g>
</g>
<!-- Node15&#45;&gt;Node16 -->
<g id="edge18" class="edge">
<title>Node15&#45;&gt;Node16</title>
<path fill="none" stroke="#63b8ff" d="M351,-164.75C351,-157.8 351,-147.85 351,-139.13"/>
<polygon fill="#63b8ff" stroke="#63b8ff" points="354.5,-139.09 351,-129.09 347.5,-139.09 354.5,-139.09"/>
</g>
</g>
</svg>
