<?xml version="1.0" encoding="UTF-8" standalone="no"?>
<!DOCTYPE svg PUBLIC "-//W3C//DTD SVG 1.1//EN"
 "http://www.w3.org/Graphics/SVG/1.1/DTD/svg11.dtd">
<!-- Generated by graphviz version 2.43.0 (0)
 -->
<!-- Title: TranslatorAdapter_1_9_6 Pages: 1 -->
<svg width="189pt" height="205pt"
 viewBox="0.00 0.00 188.50 205.00" xmlns="http://www.w3.org/2000/svg" xmlns:xlink="http://www.w3.org/1999/xlink">
<g id="graph0" class="graph" transform="scale(1 1) rotate(0) translate(4 201)">
<title>TranslatorAdapter_1_9_6</title>
<!-- Node1 -->
<g id="node1" class="node">
<title>Node1</title>
<g id="a_node1"><a xlink:title=" ">
<polygon fill="#999999" stroke="#666666" points="137,-19 0,-19 0,0 137,0 137,-19"/>
<text text-anchor="middle" x="68.5" y="-7" font-family="Helvetica,sans-Serif" font-size="10.00">TranslatorAdapter_1_9_6</text>
</a>
</g>
</g>
<!-- Node2 -->
<g id="node2" class="node">
<title>Node2</title>
<g id="a_node2"><a xlink:href="../../db/d6c/class_translator_adapter_base.html" target="_top" xlink:title="Base of the translator adapter tree.">
<polygon fill="white" stroke="#666666" points="132,-75 5,-75 5,-56 132,-56 132,-75"/>
<text text-anchor="middle" x="68.5" y="-63" font-family="Helvetica,sans-Serif" font-size="10.00">TranslatorAdapterBase</text>
</a>
</g>
</g>
<!-- Node2&#45;&gt;Node1 -->
<g id="edge1" class="edge">
<title>Node2&#45;&gt;Node1</title>
<path fill="none" stroke="#63b8ff" d="M68.5,-45.3C68.5,-36.41 68.5,-26.28 68.5,-19.25"/>
<polygon fill="#63b8ff" stroke="#63b8ff" points="65,-45.58 68.5,-55.58 72,-45.58 65,-45.58"/>
</g>
<!-- Node3 -->
<g id="node3" class="node">
<title>Node3</title>
<g id="a_node3"><a xlink:href="../../d8/dfb/class_translator.html" target="_top" xlink:title="Abstract base class for all translatable text fragments.">
<polygon fill="white" stroke="#666666" points="97,-197 32,-197 32,-178 97,-178 97,-197"/>
<text text-anchor="middle" x="64.5" y="-185" font-family="Helvetica,sans-Serif" font-size="10.00">Translator</text>
</a>
</g>
</g>
<!-- Node3&#45;&gt;Node2 -->
<g id="edge2" class="edge">
<title>Node3&#45;&gt;Node2</title>
<path fill="none" stroke="#63b8ff" d="M65.13,-167.65C66.01,-141.22 67.57,-94.26 68.21,-75.05"/>
<polygon fill="#63b8ff" stroke="#63b8ff" points="61.62,-167.76 64.79,-177.87 68.62,-167.99 61.62,-167.76"/>
</g>
<!-- Node4 -->
<g id="node4" class="node">
<title>Node4</title>
<g id="a_node4"><a xlink:href="../../d6/d78/class_translator_english.html" target="_top" xlink:title=" ">
<polygon fill="white" stroke="#666666" points="180.5,-141 80.5,-141 80.5,-122 180.5,-122 180.5,-141"/>
<text text-anchor="middle" x="130.5" y="-129" font-family="Helvetica,sans-Serif" font-size="10.00">TranslatorEnglish</text>
</a>
</g>
</g>
<!-- Node3&#45;&gt;Node4 -->
<g id="edge4" class="edge">
<title>Node3&#45;&gt;Node4</title>
<path fill="none" stroke="#63b8ff" d="M83.05,-171.32C94.88,-161.65 109.79,-149.45 119.7,-141.33"/>
<polygon fill="#63b8ff" stroke="#63b8ff" points="80.63,-168.78 75.1,-177.82 85.06,-174.2 80.63,-168.78"/>
</g>
<!-- Node4&#45;&gt;Node2 -->
<g id="edge3" class="edge">
<title>Node4&#45;&gt;Node2</title>
<path fill="none" stroke="#9a32cd" stroke-dasharray="5,2" d="M114.98,-114.48C103.01,-102.12 86.9,-85.49 77.13,-75.41"/>
<polygon fill="#9a32cd" stroke="#9a32cd" points="112.67,-117.12 122.14,-121.87 117.69,-112.25 112.67,-117.12"/>
<text text-anchor="middle" x="122" y="-96" font-family="Helvetica,sans-Serif" font-size="10.00" fill="grey"> english</text>
</g>
</g>
</svg>
