<?xml version="1.0" encoding="UTF-8" standalone="no"?>
<!DOCTYPE svg PUBLIC "-//W3C//DTD SVG 1.1//EN"
 "http://www.w3.org/Graphics/SVG/1.1/DTD/svg11.dtd">
<!-- Generated by graphviz version 2.43.0 (0)
 -->
<!-- Title: /home/runner/work/doxygen/doxygen/src/regex.cpp Pages: 1 -->
<svg width="532pt" height="148pt"
 viewBox="0.00 0.00 532.00 148.00" xmlns="http://www.w3.org/2000/svg" xmlns:xlink="http://www.w3.org/1999/xlink">
<g id="graph0" class="graph" transform="scale(1 1) rotate(0) translate(4 144)">
<title>/home/runner/work/doxygen/doxygen/src/regex.cpp</title>
<!-- Node1 -->
<g id="node1" class="node">
<title>Node1</title>
<g id="a_node1"><a xlink:title=" ">
<polygon fill="#999999" stroke="#666666" points="390,-140 236,-140 236,-110 390,-110 390,-140"/>
<text text-anchor="start" x="244" y="-128" font-family="Helvetica,sans-Serif" font-size="10.00">/home/runner/work/doxygen</text>
<text text-anchor="middle" x="313" y="-117" font-family="Helvetica,sans-Serif" font-size="10.00">/doxygen/src/regex.cpp</text>
</a>
</g>
</g>
<!-- Node2 -->
<g id="node2" class="node">
<title>Node2</title>
<g id="a_node2"><a xlink:href="../../d1/d21/regex_8h.html" target="_top" xlink:title=" ">
<polygon fill="white" stroke="#666666" points="191.5,-74 138.5,-74 138.5,-55 191.5,-55 191.5,-74"/>
<text text-anchor="middle" x="165" y="-62" font-family="Helvetica,sans-Serif" font-size="10.00">regex.h</text>
</a>
</g>
</g>
<!-- Node1&#45;&gt;Node2 -->
<g id="edge1" class="edge">
<title>Node1&#45;&gt;Node2</title>
<path fill="none" stroke="#63b8ff" d="M277.55,-109.99C252.86,-100.23 220.22,-87.33 196.45,-77.93"/>
<polygon fill="#63b8ff" stroke="#63b8ff" points="197.44,-74.56 186.86,-74.14 194.87,-81.07 197.44,-74.56"/>
</g>
<!-- Node5 -->
<g id="node5" class="node">
<title>Node5</title>
<g id="a_node5"><a xlink:title=" ">
<polygon fill="#e0e0e0" stroke="#999999" points="256.5,-19 209.5,-19 209.5,0 256.5,0 256.5,-19"/>
<text text-anchor="middle" x="233" y="-7" font-family="Helvetica,sans-Serif" font-size="10.00">vector</text>
</a>
</g>
</g>
<!-- Node1&#45;&gt;Node5 -->
<g id="edge7" class="edge">
<title>Node1&#45;&gt;Node5</title>
<path fill="none" stroke="#63b8ff" d="M284.78,-109.89C270.67,-101.39 254.6,-89.25 245,-74 236.59,-60.63 233.8,-42.77 232.99,-29.39"/>
<polygon fill="#63b8ff" stroke="#63b8ff" points="236.48,-28.92 232.7,-19.02 229.48,-29.11 236.48,-28.92"/>
</g>
<!-- Node7 -->
<g id="node7" class="node">
<title>Node7</title>
<g id="a_node7"><a xlink:title=" ">
<polygon fill="#e0e0e0" stroke="#999999" points="304,-74 254,-74 254,-55 304,-55 304,-74"/>
<text text-anchor="middle" x="279" y="-62" font-family="Helvetica,sans-Serif" font-size="10.00">cstdint</text>
</a>
</g>
</g>
<!-- Node1&#45;&gt;Node7 -->
<g id="edge6" class="edge">
<title>Node1&#45;&gt;Node7</title>
<path fill="none" stroke="#63b8ff" d="M304.77,-109.84C300.09,-101.78 294.18,-91.62 289.2,-83.06"/>
<polygon fill="#63b8ff" stroke="#63b8ff" points="292.15,-81.15 284.09,-74.27 286.09,-84.67 292.15,-81.15"/>
</g>
<!-- Node8 -->
<g id="node8" class="node">
<title>Node8</title>
<g id="a_node8"><a xlink:title=" ">
<polygon fill="#e0e0e0" stroke="#999999" points="371.5,-74 322.5,-74 322.5,-55 371.5,-55 371.5,-74"/>
<text text-anchor="middle" x="347" y="-62" font-family="Helvetica,sans-Serif" font-size="10.00">cctype</text>
</a>
</g>
</g>
<!-- Node1&#45;&gt;Node8 -->
<g id="edge8" class="edge">
<title>Node1&#45;&gt;Node8</title>
<path fill="none" stroke="#63b8ff" d="M321.23,-109.84C325.91,-101.78 331.82,-91.62 336.8,-83.06"/>
<polygon fill="#63b8ff" stroke="#63b8ff" points="339.91,-84.67 341.91,-74.27 333.85,-81.15 339.91,-84.67"/>
</g>
<!-- Node9 -->
<g id="node9" class="node">
<title>Node9</title>
<g id="a_node9"><a xlink:title=" ">
<polygon fill="#e0e0e0" stroke="#999999" points="442,-74 390,-74 390,-55 442,-55 442,-74"/>
<text text-anchor="middle" x="416" y="-62" font-family="Helvetica,sans-Serif" font-size="10.00">cassert</text>
</a>
</g>
</g>
<!-- Node1&#45;&gt;Node9 -->
<g id="edge9" class="edge">
<title>Node1&#45;&gt;Node9</title>
<path fill="none" stroke="#63b8ff" d="M337.67,-109.99C354.09,-100.66 375.55,-88.47 391.86,-79.21"/>
<polygon fill="#63b8ff" stroke="#63b8ff" points="393.82,-82.12 400.79,-74.14 390.37,-76.03 393.82,-82.12"/>
</g>
<!-- Node10 -->
<g id="node10" class="node">
<title>Node10</title>
<g id="a_node10"><a xlink:title=" ">
<polygon fill="#e0e0e0" stroke="#999999" points="524,-74 460,-74 460,-55 524,-55 524,-74"/>
<text text-anchor="middle" x="492" y="-62" font-family="Helvetica,sans-Serif" font-size="10.00">algorithm</text>
</a>
</g>
</g>
<!-- Node1&#45;&gt;Node10 -->
<g id="edge10" class="edge">
<title>Node1&#45;&gt;Node10</title>
<path fill="none" stroke="#63b8ff" d="M355.87,-109.99C386.5,-99.98 427.23,-86.67 456.13,-77.22"/>
<polygon fill="#63b8ff" stroke="#63b8ff" points="457.41,-80.49 465.83,-74.05 455.23,-73.83 457.41,-80.49"/>
</g>
<!-- Node3 -->
<g id="node3" class="node">
<title>Node3</title>
<g id="a_node3"><a xlink:title=" ">
<polygon fill="#e0e0e0" stroke="#999999" points="58,-19 0,-19 0,0 58,0 58,-19"/>
<text text-anchor="middle" x="29" y="-7" font-family="Helvetica,sans-Serif" font-size="10.00">memory</text>
</a>
</g>
</g>
<!-- Node2&#45;&gt;Node3 -->
<g id="edge2" class="edge">
<title>Node2&#45;&gt;Node3</title>
<path fill="none" stroke="#63b8ff" d="M143.15,-54.98C120.88,-46.3 86.1,-32.75 60.78,-22.88"/>
<polygon fill="#63b8ff" stroke="#63b8ff" points="61.84,-19.54 51.25,-19.17 59.29,-26.06 61.84,-19.54"/>
</g>
<!-- Node4 -->
<g id="node4" class="node">
<title>Node4</title>
<g id="a_node4"><a xlink:title=" ">
<polygon fill="#e0e0e0" stroke="#999999" points="120,-19 76,-19 76,0 120,0 120,-19"/>
<text text-anchor="middle" x="98" y="-7" font-family="Helvetica,sans-Serif" font-size="10.00">string</text>
</a>
</g>
</g>
<!-- Node2&#45;&gt;Node4 -->
<g id="edge3" class="edge">
<title>Node2&#45;&gt;Node4</title>
<path fill="none" stroke="#63b8ff" d="M154.24,-54.98C144.23,-47.07 129.11,-35.11 117.07,-25.58"/>
<polygon fill="#63b8ff" stroke="#63b8ff" points="118.97,-22.63 108.96,-19.17 114.63,-28.12 118.97,-22.63"/>
</g>
<!-- Node2&#45;&gt;Node5 -->
<g id="edge4" class="edge">
<title>Node2&#45;&gt;Node5</title>
<path fill="none" stroke="#63b8ff" d="M175.93,-54.98C186.08,-47.07 201.42,-35.11 213.65,-25.58"/>
<polygon fill="#63b8ff" stroke="#63b8ff" points="216.14,-28.08 221.88,-19.17 211.84,-22.56 216.14,-28.08"/>
</g>
<!-- Node6 -->
<g id="node6" class="node">
<title>Node6</title>
<g id="a_node6"><a xlink:title=" ">
<polygon fill="#e0e0e0" stroke="#999999" points="191.5,-19 138.5,-19 138.5,0 191.5,0 191.5,-19"/>
<text text-anchor="middle" x="165" y="-7" font-family="Helvetica,sans-Serif" font-size="10.00">iterator</text>
</a>
</g>
</g>
<!-- Node2&#45;&gt;Node6 -->
<g id="edge5" class="edge">
<title>Node2&#45;&gt;Node6</title>
<path fill="none" stroke="#63b8ff" d="M165,-54.75C165,-47.8 165,-37.85 165,-29.13"/>
<polygon fill="#63b8ff" stroke="#63b8ff" points="168.5,-29.09 165,-19.09 161.5,-29.09 168.5,-29.09"/>
</g>
</g>
</svg>
