<?xml version="1.0" encoding="UTF-8" standalone="no"?>
<!DOCTYPE svg PUBLIC "-//W3C//DTD SVG 1.1//EN"
 "http://www.w3.org/Graphics/SVG/1.1/DTD/svg11.dtd">
<!-- Generated by graphviz version 2.43.0 (0)
 -->
<!-- Title: codeYY_state Pages: 1 -->
<svg width="671pt" height="563pt"
 viewBox="0.00 0.00 671.00 562.50" xmlns="http://www.w3.org/2000/svg" xmlns:xlink="http://www.w3.org/1999/xlink">
<g id="graph0" class="graph" transform="scale(1 1) rotate(0) translate(4 558.5)">
<title>codeYY_state</title>
<!-- Node1 -->
<g id="node1" class="node">
<title>Node1</title>
<g id="a_node1"><a xlink:title=" ">
<polygon fill="#999999" stroke="#666666" points="663,-199 581,-199 581,-180 663,-180 663,-199"/>
<text text-anchor="middle" x="622" y="-187" font-family="Helvetica,sans-Serif" font-size="10.00">codeYY_state</text>
</a>
</g>
</g>
<!-- Node2 -->
<g id="node2" class="node">
<title>Node2</title>
<g id="a_node2"><a xlink:href="../../d5/d9c/class_code_output_interface.html" target="_top" xlink:title="Output interface for code parser.">
<polygon fill="white" stroke="#666666" points="463,-547 345,-547 345,-528 463,-528 463,-547"/>
<text text-anchor="middle" x="404" y="-535" font-family="Helvetica,sans-Serif" font-size="10.00">CodeOutputInterface</text>
</a>
</g>
</g>
<!-- Node2&#45;&gt;Node1 -->
<g id="edge1" class="edge">
<title>Node2&#45;&gt;Node1</title>
<path fill="none" stroke="#9a32cd" stroke-dasharray="5,2" d="M473.75,-543.98C504.87,-543.08 539.79,-536.11 563,-513.5 609.46,-468.25 619.13,-248.5 620.72,-199.29"/>
<polygon fill="#9a32cd" stroke="#9a32cd" points="473.34,-540.49 463.37,-544.07 473.4,-547.49 473.34,-540.49"/>
<text text-anchor="middle" x="522" y="-546.5" font-family="Helvetica,sans-Serif" font-size="10.00" fill="grey"> code</text>
</g>
<!-- Node3 -->
<g id="node3" class="node">
<title>Node3</title>
<g id="a_node3"><a xlink:href="../../d9/d45/class_q_c_string.html" target="_top" xlink:title="This is an alternative implementation of QCString.">
<polygon fill="white" stroke="#666666" points="207.5,-373 148.5,-373 148.5,-354 207.5,-354 207.5,-373"/>
<text text-anchor="middle" x="178" y="-361" font-family="Helvetica,sans-Serif" font-size="10.00">QCString</text>
</a>
</g>
</g>
<!-- Node3&#45;&gt;Node1 -->
<g id="edge2" class="edge">
<title>Node3&#45;&gt;Node1</title>
<path fill="none" stroke="#9a32cd" stroke-dasharray="5,2" d="M217.8,-371.02C247.9,-375.55 290.5,-379.12 327,-371.5 334,-370.04 557.41,-272.97 563,-268.5 587.98,-248.52 607.55,-215.28 616.19,-199.03"/>
<polygon fill="#9a32cd" stroke="#9a32cd" points="218.13,-367.52 207.7,-369.39 217.02,-374.44 218.13,-367.52"/>
<text text-anchor="middle" x="404" y="-476.5" font-family="Helvetica,sans-Serif" font-size="10.00" fill="grey"> args</text>
<text text-anchor="middle" x="404" y="-465.5" font-family="Helvetica,sans-Serif" font-size="10.00" fill="grey">classScope</text>
<text text-anchor="middle" x="404" y="-454.5" font-family="Helvetica,sans-Serif" font-size="10.00" fill="grey">curClassName</text>
<text text-anchor="middle" x="404" y="-443.5" font-family="Helvetica,sans-Serif" font-size="10.00" fill="grey">delimiter</text>
<text text-anchor="middle" x="404" y="-432.5" font-family="Helvetica,sans-Serif" font-size="10.00" fill="grey">exampleFile</text>
<text text-anchor="middle" x="404" y="-421.5" font-family="Helvetica,sans-Serif" font-size="10.00" fill="grey">exampleName</text>
<text text-anchor="middle" x="404" y="-410.5" font-family="Helvetica,sans-Serif" font-size="10.00" fill="grey">fileName</text>
<text text-anchor="middle" x="404" y="-399.5" font-family="Helvetica,sans-Serif" font-size="10.00" fill="grey">name</text>
<text text-anchor="middle" x="404" y="-388.5" font-family="Helvetica,sans-Serif" font-size="10.00" fill="grey">parmName</text>
<text text-anchor="middle" x="404" y="-377.5" font-family="Helvetica,sans-Serif" font-size="10.00" fill="grey">parmType</text>
<text text-anchor="middle" x="404" y="-366.5" font-family="Helvetica,sans-Serif" font-size="10.00" fill="grey">...</text>
</g>
<!-- Node8 -->
<g id="node8" class="node">
<title>Node8</title>
<g id="a_node8"><a xlink:href="../../d8/d10/struct_obj_c_call_ctx.html" target="_top" xlink:title=" ">
<polygon fill="white" stroke="#666666" points="441.5,-279 366.5,-279 366.5,-260 441.5,-260 441.5,-279"/>
<text text-anchor="middle" x="404" y="-267" font-family="Helvetica,sans-Serif" font-size="10.00">ObjCCallCtx</text>
</a>
</g>
</g>
<!-- Node3&#45;&gt;Node8 -->
<g id="edge10" class="edge">
<title>Node3&#45;&gt;Node8</title>
<path fill="none" stroke="#9a32cd" stroke-dasharray="5,2" d="M207.35,-349.45C215.52,-345.65 224.53,-341.7 233,-338.5 273.77,-323.08 286.72,-327.16 327,-310.5 348.75,-301.51 372.41,-288.12 387.45,-279.12"/>
<polygon fill="#9a32cd" stroke="#9a32cd" points="205.74,-346.33 198.21,-353.79 208.74,-352.66 205.74,-346.33"/>
<text text-anchor="middle" x="280" y="-363.5" font-family="Helvetica,sans-Serif" font-size="10.00" fill="grey"> format</text>
<text text-anchor="middle" x="280" y="-352.5" font-family="Helvetica,sans-Serif" font-size="10.00" fill="grey">methodName</text>
<text text-anchor="middle" x="280" y="-341.5" font-family="Helvetica,sans-Serif" font-size="10.00" fill="grey">objectTypeOrName</text>
</g>
<!-- Node4 -->
<g id="node4" class="node">
<title>Node4</title>
<g id="a_node4"><a xlink:href="../../de/db0/class_file_def.html" target="_top" xlink:title="A model of a file symbol.">
<polygon fill="white" stroke="#666666" points="203.5,-191 152.5,-191 152.5,-172 203.5,-172 203.5,-191"/>
<text text-anchor="middle" x="178" y="-179" font-family="Helvetica,sans-Serif" font-size="10.00">FileDef</text>
</a>
</g>
</g>
<!-- Node4&#45;&gt;Node1 -->
<g id="edge3" class="edge">
<title>Node4&#45;&gt;Node1</title>
<path fill="none" stroke="#9a32cd" stroke-dasharray="5,2" d="M214.05,-180.76C220.36,-180.65 226.87,-180.56 233,-180.5 335.22,-179.55 360.82,-177.59 463,-180.5 503.1,-181.64 548.85,-184.41 580.76,-186.58"/>
<polygon fill="#9a32cd" stroke="#9a32cd" points="213.66,-177.26 203.73,-180.95 213.79,-184.26 213.66,-177.26"/>
<text text-anchor="middle" x="404" y="-183.5" font-family="Helvetica,sans-Serif" font-size="10.00" fill="grey"> sourceFileDef</text>
</g>
<!-- Node5 -->
<g id="node5" class="node">
<title>Node5</title>
<g id="a_node5"><a xlink:href="../../d0/d46/class_definition_mutable.html" target="_top" xlink:title=" ">
<polygon fill="white" stroke="#666666" points="104,-191 0,-191 0,-172 104,-172 104,-191"/>
<text text-anchor="middle" x="52" y="-179" font-family="Helvetica,sans-Serif" font-size="10.00">DefinitionMutable</text>
</a>
</g>
</g>
<!-- Node5&#45;&gt;Node4 -->
<g id="edge4" class="edge">
<title>Node5&#45;&gt;Node4</title>
<path fill="none" stroke="#63b8ff" d="M114.41,-181.5C127.88,-181.5 141.39,-181.5 152.4,-181.5"/>
<polygon fill="#63b8ff" stroke="#63b8ff" points="114.15,-178 104.15,-181.5 114.15,-185 114.15,-178"/>
</g>
<!-- Node6 -->
<g id="node6" class="node">
<title>Node6</title>
<g id="a_node6"><a xlink:href="../../d5/dcc/class_definition.html" target="_top" xlink:title="The common base class of all entity definitions found in the sources.">
<polygon fill="white" stroke="#666666" points="84,-291 20,-291 20,-272 84,-272 84,-291"/>
<text text-anchor="middle" x="52" y="-279" font-family="Helvetica,sans-Serif" font-size="10.00">Definition</text>
</a>
</g>
</g>
<!-- Node6&#45;&gt;Node1 -->
<g id="edge6" class="edge">
<title>Node6&#45;&gt;Node1</title>
<path fill="none" stroke="#9a32cd" stroke-dasharray="5,2" d="M65.38,-299.58C81.01,-321.39 109.67,-358.14 141,-382.5 259.62,-474.72 333.94,-562.44 463,-485.5 575.08,-418.68 611.99,-242.17 619.46,-199.09"/>
<polygon fill="#9a32cd" stroke="#9a32cd" points="68.12,-297.4 59.51,-291.23 62.4,-301.42 68.12,-297.4"/>
<text text-anchor="middle" x="280" y="-521.5" font-family="Helvetica,sans-Serif" font-size="10.00" fill="grey"> currentDefinition</text>
<text text-anchor="middle" x="280" y="-510.5" font-family="Helvetica,sans-Serif" font-size="10.00" fill="grey">searchCtx</text>
</g>
<!-- Node6&#45;&gt;Node4 -->
<g id="edge5" class="edge">
<title>Node6&#45;&gt;Node4</title>
<path fill="none" stroke="#63b8ff" d="M71.3,-264.98C88.8,-249.4 116.13,-225.66 141,-206.5 147.87,-201.21 155.76,-195.67 162.4,-191.16"/>
<polygon fill="#63b8ff" stroke="#63b8ff" points="68.67,-262.63 63.55,-271.91 73.34,-267.85 68.67,-262.63"/>
</g>
<!-- Node7 -->
<g id="node7" class="node">
<title>Node7</title>
<g id="a_node7"><a xlink:href="../../da/d09/class_member_def.html" target="_top" xlink:title="A model of a class/file/namespace member symbol.">
<polygon fill="white" stroke="#666666" points="215,-234 141,-234 141,-215 215,-215 215,-234"/>
<text text-anchor="middle" x="178" y="-222" font-family="Helvetica,sans-Serif" font-size="10.00">MemberDef</text>
</a>
</g>
</g>
<!-- Node6&#45;&gt;Node7 -->
<g id="edge8" class="edge">
<title>Node6&#45;&gt;Node7</title>
<path fill="none" stroke="#63b8ff" d="M82.93,-267.74C105.58,-257.33 136.13,-243.29 156.18,-234.07"/>
<polygon fill="#63b8ff" stroke="#63b8ff" points="81.38,-264.6 73.75,-271.96 84.3,-270.96 81.38,-264.6"/>
</g>
<!-- Node10 -->
<g id="node10" class="node">
<title>Node10</title>
<g id="a_node10"><a xlink:href="../../d1/dcf/class_class_def.html" target="_top" xlink:title="A abstract class representing of a compound symbol.">
<polygon fill="white" stroke="#666666" points="208,-314 148,-314 148,-295 208,-295 208,-314"/>
<text text-anchor="middle" x="178" y="-302" font-family="Helvetica,sans-Serif" font-size="10.00">ClassDef</text>
</a>
</g>
</g>
<!-- Node6&#45;&gt;Node10 -->
<g id="edge13" class="edge">
<title>Node6&#45;&gt;Node10</title>
<path fill="none" stroke="#63b8ff" d="M94.28,-289.16C111.83,-292.41 131.88,-296.13 147.85,-299.09"/>
<polygon fill="#63b8ff" stroke="#63b8ff" points="94.76,-285.69 84.29,-287.3 93.48,-292.57 94.76,-285.69"/>
</g>
<!-- Node7&#45;&gt;Node1 -->
<g id="edge7" class="edge">
<title>Node7&#45;&gt;Node1</title>
<path fill="none" stroke="#9a32cd" stroke-dasharray="5,2" d="M225.16,-221.84C297.34,-217.53 441.24,-208.28 563,-196.5 568.75,-195.94 574.82,-195.29 580.78,-194.6"/>
<polygon fill="#9a32cd" stroke="#9a32cd" points="224.82,-218.36 215.05,-222.44 225.24,-225.34 224.82,-218.36"/>
<text text-anchor="middle" x="404" y="-216.5" font-family="Helvetica,sans-Serif" font-size="10.00" fill="grey"> currentMemberDef</text>
</g>
<!-- Node7&#45;&gt;Node8 -->
<g id="edge14" class="edge">
<title>Node7&#45;&gt;Node8</title>
<path fill="none" stroke="#9a32cd" stroke-dasharray="5,2" d="M225.01,-226.95C254.47,-229.21 293.35,-233.49 327,-241.5 345.74,-245.96 366.19,-253.67 381.15,-259.87"/>
<polygon fill="#9a32cd" stroke="#9a32cd" points="225.23,-223.46 215,-226.23 224.72,-230.44 225.23,-223.46"/>
<text text-anchor="middle" x="280" y="-255.5" font-family="Helvetica,sans-Serif" font-size="10.00" fill="grey"> method</text>
<text text-anchor="middle" x="280" y="-244.5" font-family="Helvetica,sans-Serif" font-size="10.00" fill="grey">objectVar</text>
</g>
<!-- Node8&#45;&gt;Node1 -->
<g id="edge9" class="edge">
<title>Node8&#45;&gt;Node1</title>
<path fill="none" stroke="#9a32cd" stroke-dasharray="5,2" d="M451.61,-261.21C483.8,-254.51 527.1,-243.53 563,-227.5 579.93,-219.94 597.48,-207.73 608.78,-199.19"/>
<polygon fill="#9a32cd" stroke="#9a32cd" points="450.68,-257.82 441.57,-263.23 452.07,-264.69 450.68,-257.82"/>
<text text-anchor="middle" x="522" y="-256.5" font-family="Helvetica,sans-Serif" font-size="10.00" fill="grey"> currentCtx</text>
</g>
<!-- Node9 -->
<g id="node9" class="node">
<title>Node9</title>
<g id="a_node9"><a xlink:href="../../d3/d30/class_text_stream.html" target="_top" xlink:title="Text streaming class that buffers data.">
<polygon fill="white" stroke="#666666" points="214,-277 142,-277 142,-258 214,-258 214,-277"/>
<text text-anchor="middle" x="178" y="-265" font-family="Helvetica,sans-Serif" font-size="10.00">TextStream</text>
</a>
</g>
</g>
<!-- Node9&#45;&gt;Node8 -->
<g id="edge11" class="edge">
<title>Node9&#45;&gt;Node8</title>
<path fill="none" stroke="#9a32cd" stroke-dasharray="5,2" d="M224.67,-267.91C266.44,-268.28 327.46,-268.83 366.18,-269.17"/>
<polygon fill="#9a32cd" stroke="#9a32cd" points="224.52,-264.41 214.49,-267.82 224.46,-271.41 224.52,-264.41"/>
<text text-anchor="middle" x="280" y="-271.5" font-family="Helvetica,sans-Serif" font-size="10.00" fill="grey"> comment</text>
</g>
<!-- Node10&#45;&gt;Node8 -->
<g id="edge12" class="edge">
<title>Node10&#45;&gt;Node8</title>
<path fill="none" stroke="#9a32cd" stroke-dasharray="5,2" d="M218.22,-298.43C248.05,-293.81 290.12,-287.28 327,-281.5 339.8,-279.49 353.81,-277.29 366.28,-275.32"/>
<polygon fill="#9a32cd" stroke="#9a32cd" points="217.55,-294.99 208.21,-299.98 218.63,-301.91 217.55,-294.99"/>
<text text-anchor="middle" x="280" y="-298.5" font-family="Helvetica,sans-Serif" font-size="10.00" fill="grey"> objectType</text>
</g>
<!-- Node11 -->
<g id="node11" class="node">
<title>Node11</title>
<g id="a_node11"><a xlink:href="../../d4/df2/class_variable_context.html" target="_top" xlink:title=" ">
<polygon fill="white" stroke="#666666" points="451.5,-130 356.5,-130 356.5,-111 451.5,-111 451.5,-130"/>
<text text-anchor="middle" x="404" y="-118" font-family="Helvetica,sans-Serif" font-size="10.00">VariableContext</text>
</a>
</g>
</g>
<!-- Node11&#45;&gt;Node1 -->
<g id="edge15" class="edge">
<title>Node11&#45;&gt;Node1</title>
<path fill="none" stroke="#9a32cd" stroke-dasharray="5,2" d="M461.96,-120.5C492.96,-122.34 531.33,-127.67 563,-141.5 583.36,-150.39 602.26,-168.64 612.66,-179.9"/>
<polygon fill="#9a32cd" stroke="#9a32cd" points="461.91,-116.99 451.75,-120 461.57,-123.98 461.91,-116.99"/>
<text text-anchor="middle" x="522" y="-144.5" font-family="Helvetica,sans-Serif" font-size="10.00" fill="grey"> theVarContext</text>
</g>
<!-- Node12 -->
<g id="node12" class="node">
<title>Node12</title>
<g id="a_node12"><a xlink:href="../../de/da0/class_call_context.html" target="_top" xlink:title="Represents the call context.">
<polygon fill="white" stroke="#666666" points="441,-93 367,-93 367,-74 441,-74 441,-93"/>
<text text-anchor="middle" x="404" y="-81" font-family="Helvetica,sans-Serif" font-size="10.00">CallContext</text>
</a>
</g>
</g>
<!-- Node12&#45;&gt;Node1 -->
<g id="edge16" class="edge">
<title>Node12&#45;&gt;Node1</title>
<path fill="none" stroke="#9a32cd" stroke-dasharray="5,2" d="M451.71,-80.83C485.05,-81.07 529.68,-85.95 563,-106.5 591.73,-124.22 609.99,-162.05 617.32,-179.85"/>
<polygon fill="#9a32cd" stroke="#9a32cd" points="451.29,-77.33 441.32,-80.9 451.34,-84.33 451.29,-77.33"/>
<text text-anchor="middle" x="522" y="-109.5" font-family="Helvetica,sans-Serif" font-size="10.00" fill="grey"> theCallContext</text>
</g>
<!-- Node13 -->
<g id="node13" class="node">
<title>Node13</title>
<g id="a_node13"><a xlink:href="../../da/d0c/class_symbol_resolver.html" target="_top" xlink:title="Helper class to find a class definition or check if A symbol is accessible in a given scope.">
<polygon fill="white" stroke="#666666" points="452,-56 356,-56 356,-37 452,-37 452,-56"/>
<text text-anchor="middle" x="404" y="-44" font-family="Helvetica,sans-Serif" font-size="10.00">SymbolResolver</text>
</a>
</g>
</g>
<!-- Node13&#45;&gt;Node1 -->
<g id="edge17" class="edge">
<title>Node13&#45;&gt;Node1</title>
<path fill="none" stroke="#9a32cd" stroke-dasharray="5,2" d="M462.42,-40.9C494.78,-40.7 534.33,-45.68 563,-66.5 601.97,-94.8 615.66,-156.1 619.62,-179.84"/>
<polygon fill="#9a32cd" stroke="#9a32cd" points="462.11,-37.41 452.19,-41.14 462.27,-44.41 462.11,-37.41"/>
<text text-anchor="middle" x="522" y="-69.5" font-family="Helvetica,sans-Serif" font-size="10.00" fill="grey"> symbolResolver</text>
</g>
<!-- Node14 -->
<g id="node14" class="node">
<title>Node14</title>
<g id="a_node14"><a xlink:href="../../d5/dae/class_tooltip_manager.html" target="_top" xlink:title="Class that manages the tooltips for a source file.">
<polygon fill="white" stroke="#666666" points="450,-19 358,-19 358,0 450,0 450,-19"/>
<text text-anchor="middle" x="404" y="-7" font-family="Helvetica,sans-Serif" font-size="10.00">TooltipManager</text>
</a>
</g>
</g>
<!-- Node14&#45;&gt;Node1 -->
<g id="edge18" class="edge">
<title>Node14&#45;&gt;Node1</title>
<path fill="none" stroke="#9a32cd" stroke-dasharray="5,2" d="M460.28,-1.72C493.39,-0.13 534.44,-3.96 563,-26.5 612.75,-65.76 619.89,-151.03 620.87,-179.8"/>
<polygon fill="#9a32cd" stroke="#9a32cd" points="460.04,1.77 450.29,-2.37 460.49,-5.21 460.04,1.77"/>
<text text-anchor="middle" x="522" y="-29.5" font-family="Helvetica,sans-Serif" font-size="10.00" fill="grey"> tooltipManager</text>
</g>
</g>
</svg>
