<?xml version="1.0" encoding="UTF-8" standalone="no"?>
<!DOCTYPE svg PUBLIC "-//W3C//DTD SVG 1.1//EN"
 "http://www.w3.org/Graphics/SVG/1.1/DTD/svg11.dtd">
<!-- Generated by graphviz version 2.43.0 (0)
 -->
<!-- Title: DotGfxHierarchyTable Pages: 1 -->
<svg width="323pt" height="259pt"
 viewBox="0.00 0.00 322.50 259.00" xmlns="http://www.w3.org/2000/svg" xmlns:xlink="http://www.w3.org/1999/xlink">
<g id="graph0" class="graph" transform="scale(1 1) rotate(0) translate(4 255)">
<title>DotGfxHierarchyTable</title>
<!-- Node1 -->
<g id="node1" class="node">
<title>Node1</title>
<g id="a_node1"><a xlink:title="Represents a graphical class hierarchy.">
<polygon fill="#999999" stroke="#666666" points="214.5,-19 90.5,-19 90.5,0 214.5,0 214.5,-19"/>
<text text-anchor="middle" x="152.5" y="-7" font-family="Helvetica,sans-Serif" font-size="10.00">DotGfxHierarchyTable</text>
</a>
</g>
</g>
<!-- Node2 -->
<g id="node2" class="node">
<title>Node2</title>
<g id="a_node2"><a xlink:href="../../d0/d32/class_dot_graph.html" target="_top" xlink:title="A dot graph.">
<polygon fill="white" stroke="#666666" points="101,-85 38,-85 38,-66 101,-66 101,-85"/>
<text text-anchor="middle" x="69.5" y="-73" font-family="Helvetica,sans-Serif" font-size="10.00">DotGraph</text>
</a>
</g>
</g>
<!-- Node2&#45;&gt;Node1 -->
<g id="edge1" class="edge">
<title>Node2&#45;&gt;Node1</title>
<path fill="none" stroke="#63b8ff" d="M88.97,-59.49C105.22,-46.96 127.81,-29.54 141.22,-19.2"/>
<polygon fill="#63b8ff" stroke="#63b8ff" points="86.48,-56.99 80.69,-65.87 90.75,-62.53 86.48,-56.99"/>
</g>
<!-- Node3 -->
<g id="node3" class="node">
<title>Node3</title>
<g id="a_node3"><a xlink:href="../../d2/dc2/class_dir.html" target="_top" xlink:title="Class representing a directory in the file system.">
<polygon fill="white" stroke="#666666" points="31,-195 0,-195 0,-176 31,-176 31,-195"/>
<text text-anchor="middle" x="15.5" y="-183" font-family="Helvetica,sans-Serif" font-size="10.00">Dir</text>
</a>
</g>
</g>
<!-- Node3&#45;&gt;Node2 -->
<g id="edge2" class="edge">
<title>Node3&#45;&gt;Node2</title>
<path fill="none" stroke="#9a32cd" stroke-dasharray="5,2" d="M10.57,-165.95C7.01,-148.36 4.67,-121.88 16.5,-103 21.63,-94.81 30.14,-89.06 38.86,-85.06"/>
<polygon fill="#9a32cd" stroke="#9a32cd" points="7.2,-166.9 12.89,-175.84 14.01,-165.3 7.2,-166.9"/>
<text text-anchor="middle" x="32" y="-128" font-family="Helvetica,sans-Serif" font-size="10.00" fill="grey"> m_dir</text>
</g>
<!-- Node4 -->
<g id="node4" class="node">
<title>Node4</title>
<g id="a_node4"><a xlink:href="../../d9/d45/class_q_c_string.html" target="_top" xlink:title="This is an alternative implementation of QCString.">
<polygon fill="white" stroke="#666666" points="182,-195 123,-195 123,-176 182,-176 182,-195"/>
<text text-anchor="middle" x="152.5" y="-183" font-family="Helvetica,sans-Serif" font-size="10.00">QCString</text>
</a>
</g>
</g>
<!-- Node4&#45;&gt;Node1 -->
<g id="edge4" class="edge">
<title>Node4&#45;&gt;Node1</title>
<path fill="none" stroke="#9a32cd" stroke-dasharray="5,2" d="M152.5,-165.56C152.5,-128.12 152.5,-45.95 152.5,-19.14"/>
<polygon fill="#9a32cd" stroke="#9a32cd" points="149,-165.63 152.5,-175.63 156,-165.63 149,-165.63"/>
<text text-anchor="middle" x="175.5" y="-73" font-family="Helvetica,sans-Serif" font-size="10.00" fill="grey"> m_prefix</text>
</g>
<!-- Node4&#45;&gt;Node2 -->
<g id="edge3" class="edge">
<title>Node4&#45;&gt;Node2</title>
<path fill="none" stroke="#9a32cd" stroke-dasharray="5,2" d="M112.75,-181.47C97,-178.09 80.33,-171.34 70.5,-158 54.38,-136.13 61.88,-101.22 66.63,-85.13"/>
<polygon fill="#9a32cd" stroke="#9a32cd" points="112.44,-184.97 122.89,-183.23 113.64,-178.07 112.44,-184.97"/>
<text text-anchor="middle" x="104.5" y="-150" font-family="Helvetica,sans-Serif" font-size="10.00" fill="grey"> m_absPath</text>
<text text-anchor="middle" x="104.5" y="-139" font-family="Helvetica,sans-Serif" font-size="10.00" fill="grey">m_baseName</text>
<text text-anchor="middle" x="104.5" y="-128" font-family="Helvetica,sans-Serif" font-size="10.00" fill="grey">m_fileName</text>
<text text-anchor="middle" x="104.5" y="-117" font-family="Helvetica,sans-Serif" font-size="10.00" fill="grey">m_relPath</text>
<text text-anchor="middle" x="104.5" y="-106" font-family="Helvetica,sans-Serif" font-size="10.00" fill="grey">m_theGraph</text>
</g>
<!-- Node5 -->
<g id="node5" class="node">
<title>Node5</title>
<g id="a_node5"><a xlink:href="../../dd/d7e/class_dot_node.html" target="_top" xlink:title="A node in a dot graph.">
<polygon fill="white" stroke="#666666" points="276,-85 217,-85 217,-66 276,-66 276,-85"/>
<text text-anchor="middle" x="246.5" y="-73" font-family="Helvetica,sans-Serif" font-size="10.00">DotNode</text>
</a>
</g>
</g>
<!-- Node4&#45;&gt;Node5 -->
<g id="edge6" class="edge">
<title>Node4&#45;&gt;Node5</title>
<path fill="none" stroke="#9a32cd" stroke-dasharray="5,2" d="M161.08,-166.75C171.42,-145.86 188.63,-112.78 198.5,-103 206.07,-95.5 216.21,-89.49 225.21,-85.1"/>
<polygon fill="#9a32cd" stroke="#9a32cd" points="157.87,-165.35 156.62,-175.87 164.16,-168.43 157.87,-165.35"/>
<text text-anchor="middle" x="222" y="-139" font-family="Helvetica,sans-Serif" font-size="10.00" fill="grey"> m_label</text>
<text text-anchor="middle" x="222" y="-128" font-family="Helvetica,sans-Serif" font-size="10.00" fill="grey">m_tooltip</text>
<text text-anchor="middle" x="222" y="-117" font-family="Helvetica,sans-Serif" font-size="10.00" fill="grey">m_url</text>
</g>
<!-- Node5&#45;&gt;Node1 -->
<g id="edge5" class="edge">
<title>Node5&#45;&gt;Node1</title>
<path fill="none" stroke="#9a32cd" stroke-dasharray="5,2" d="M225.47,-60.18C207,-47.61 180.74,-29.73 165.28,-19.2"/>
<polygon fill="#9a32cd" stroke="#9a32cd" points="223.59,-63.13 233.82,-65.87 227.53,-57.35 223.59,-63.13"/>
<text text-anchor="middle" x="260" y="-40" font-family="Helvetica,sans-Serif" font-size="10.00" fill="grey"> m_rootSubgraphNode</text>
</g>
<!-- Node6 -->
<g id="node6" class="node">
<title>Node6</title>
<g id="a_node6"><a xlink:href="../../d1/dcf/class_class_def.html" target="_top" xlink:title="A abstract class representing of a compound symbol.">
<polygon fill="white" stroke="#666666" points="285.5,-195 225.5,-195 225.5,-176 285.5,-176 285.5,-195"/>
<text text-anchor="middle" x="255.5" y="-183" font-family="Helvetica,sans-Serif" font-size="10.00">ClassDef</text>
</a>
</g>
</g>
<!-- Node6&#45;&gt;Node5 -->
<g id="edge7" class="edge">
<title>Node6&#45;&gt;Node5</title>
<path fill="none" stroke="#9a32cd" stroke-dasharray="5,2" d="M253.92,-165.48C251.95,-141.84 248.67,-102.5 247.22,-85.16"/>
<polygon fill="#9a32cd" stroke="#9a32cd" points="250.45,-165.99 254.76,-175.66 257.42,-165.41 250.45,-165.99"/>
<text text-anchor="middle" x="284" y="-128" font-family="Helvetica,sans-Serif" font-size="10.00" fill="grey"> m_classDef</text>
</g>
<!-- Node7 -->
<g id="node7" class="node">
<title>Node7</title>
<g id="a_node7"><a xlink:href="../../d5/dcc/class_definition.html" target="_top" xlink:title="The common base class of all entity definitions found in the sources.">
<polygon fill="white" stroke="#666666" points="287.5,-251 223.5,-251 223.5,-232 287.5,-232 287.5,-251"/>
<text text-anchor="middle" x="255.5" y="-239" font-family="Helvetica,sans-Serif" font-size="10.00">Definition</text>
</a>
</g>
</g>
<!-- Node7&#45;&gt;Node6 -->
<g id="edge8" class="edge">
<title>Node7&#45;&gt;Node6</title>
<path fill="none" stroke="#63b8ff" d="M255.5,-221.3C255.5,-212.41 255.5,-202.28 255.5,-195.25"/>
<polygon fill="#63b8ff" stroke="#63b8ff" points="252,-221.58 255.5,-231.58 259,-221.58 252,-221.58"/>
</g>
</g>
</svg>
