<?xml version="1.0" encoding="UTF-8" standalone="no"?>
<!DOCTYPE svg PUBLIC "-//W3C//DTD SVG 1.1//EN"
 "http://www.w3.org/Graphics/SVG/1.1/DTD/svg11.dtd">
<!-- Generated by graphviz version 2.43.0 (0)
 -->
<!-- Title: RTFCodeGenerator Pages: 1 -->
<svg width="324pt" height="93pt"
 viewBox="0.00 0.00 324.00 93.00" xmlns="http://www.w3.org/2000/svg" xmlns:xlink="http://www.w3.org/1999/xlink">
<g id="graph0" class="graph" transform="scale(1 1) rotate(0) translate(4 89)">
<title>RTFCodeGenerator</title>
<!-- Node1 -->
<g id="node1" class="node">
<title>Node1</title>
<g id="a_node1"><a xlink:title="Generator for RTF code fragments.">
<polygon fill="#999999" stroke="#666666" points="226,-19 118,-19 118,0 226,0 226,-19"/>
<text text-anchor="middle" x="172" y="-7" font-family="Helvetica,sans-Serif" font-size="10.00">RTFCodeGenerator</text>
</a>
</g>
</g>
<!-- Node2 -->
<g id="node2" class="node">
<title>Node2</title>
<g id="a_node2"><a xlink:href="../../d5/d9c/class_code_output_interface.html" target="_top" xlink:title="Output interface for code parser.">
<polygon fill="white" stroke="#666666" points="118,-85 0,-85 0,-66 118,-66 118,-85"/>
<text text-anchor="middle" x="59" y="-73" font-family="Helvetica,sans-Serif" font-size="10.00">CodeOutputInterface</text>
</a>
</g>
</g>
<!-- Node2&#45;&gt;Node1 -->
<g id="edge1" class="edge">
<title>Node2&#45;&gt;Node1</title>
<path fill="none" stroke="#63b8ff" d="M83.09,-60.86C105.33,-48.26 137.71,-29.92 156.64,-19.2"/>
<polygon fill="#63b8ff" stroke="#63b8ff" points="81.22,-57.89 74.24,-65.87 84.67,-63.99 81.22,-57.89"/>
</g>
<!-- Node3 -->
<g id="node3" class="node">
<title>Node3</title>
<g id="a_node3"><a xlink:href="../../d3/d30/class_text_stream.html" target="_top" xlink:title="Text streaming class that buffers data.">
<polygon fill="white" stroke="#666666" points="208,-85 136,-85 136,-66 208,-66 208,-85"/>
<text text-anchor="middle" x="172" y="-73" font-family="Helvetica,sans-Serif" font-size="10.00">TextStream</text>
</a>
</g>
</g>
<!-- Node3&#45;&gt;Node1 -->
<g id="edge2" class="edge">
<title>Node3&#45;&gt;Node1</title>
<path fill="none" stroke="#9a32cd" stroke-dasharray="5,2" d="M172,-55.58C172,-43.63 172,-28.72 172,-19.41"/>
<polygon fill="#9a32cd" stroke="#9a32cd" points="168.5,-55.87 172,-65.87 175.5,-55.87 168.5,-55.87"/>
<text text-anchor="middle" x="183" y="-40" font-family="Helvetica,sans-Serif" font-size="10.00" fill="grey"> m_t</text>
</g>
<!-- Node4 -->
<g id="node4" class="node">
<title>Node4</title>
<g id="a_node4"><a xlink:href="../../d9/d45/class_q_c_string.html" target="_top" xlink:title="This is an alternative implementation of QCString.">
<polygon fill="white" stroke="#666666" points="285.5,-85 226.5,-85 226.5,-66 285.5,-66 285.5,-85"/>
<text text-anchor="middle" x="256" y="-73" font-family="Helvetica,sans-Serif" font-size="10.00">QCString</text>
</a>
</g>
</g>
<!-- Node4&#45;&gt;Node1 -->
<g id="edge3" class="edge">
<title>Node4&#45;&gt;Node1</title>
<path fill="none" stroke="#9a32cd" stroke-dasharray="5,2" d="M236.3,-59.49C219.85,-46.96 196.99,-29.54 183.42,-19.2"/>
<polygon fill="#9a32cd" stroke="#9a32cd" points="234.6,-62.59 244.67,-65.87 238.84,-57.02 234.6,-62.59"/>
<text text-anchor="middle" x="267.5" y="-40" font-family="Helvetica,sans-Serif" font-size="10.00" fill="grey"> m_sourceFileName</text>
</g>
</g>
</svg>
