<?xml version="1.0" encoding="UTF-8" standalone="no"?>
<!DOCTYPE svg PUBLIC "-//W3C//DTD SVG 1.1//EN"
 "http://www.w3.org/Graphics/SVG/1.1/DTD/svg11.dtd">
<!-- Generated by graphviz version 2.43.0 (0)
 -->
<!-- Title: /home/runner/work/doxygen/doxygen/src/dot.h Pages: 1 -->
<svg width="4441pt" height="104pt"
 viewBox="0.00 0.00 4441.00 104.00" xmlns="http://www.w3.org/2000/svg" xmlns:xlink="http://www.w3.org/1999/xlink">
<g id="graph0" class="graph" transform="scale(1 1) rotate(0) translate(4 100)">
<title>/home/runner/work/doxygen/doxygen/src/dot.h</title>
<!-- Node1 -->
<g id="node1" class="node">
<title>Node1</title>
<g id="a_node1"><a xlink:title=" ">
<polygon fill="#999999" stroke="#666666" points="2287,-96 2133,-96 2133,-66 2287,-66 2287,-96"/>
<text text-anchor="start" x="2141" y="-84" font-family="Helvetica,sans-Serif" font-size="10.00">/home/runner/work/doxygen</text>
<text text-anchor="middle" x="2210" y="-73" font-family="Helvetica,sans-Serif" font-size="10.00">/doxygen/src/dot.h</text>
</a>
</g>
</g>
<!-- Node2 -->
<g id="node2" class="node">
<title>Node2</title>
<g id="a_node2"><a xlink:href="../../de/d89/classdef_8cpp.html" target="_top" xlink:title=" ">
<polygon fill="white" stroke="#666666" points="154,-30 0,-30 0,0 154,0 154,-30"/>
<text text-anchor="start" x="8" y="-18" font-family="Helvetica,sans-Serif" font-size="10.00">/home/runner/work/doxygen</text>
<text text-anchor="middle" x="77" y="-7" font-family="Helvetica,sans-Serif" font-size="10.00">/doxygen/src/classdef.cpp</text>
</a>
</g>
</g>
<!-- Node1&#45;&gt;Node2 -->
<g id="edge1" class="edge">
<title>Node1&#45;&gt;Node2</title>
<path fill="none" stroke="#63b8ff" d="M2122.87,-79.46C1783.86,-77.12 552.29,-66.27 163,-30 160.14,-29.73 157.23,-29.43 154.29,-29.09"/>
<polygon fill="#63b8ff" stroke="#63b8ff" points="2122.86,-82.96 2132.88,-79.53 2122.91,-75.96 2122.86,-82.96"/>
</g>
<!-- Node3 -->
<g id="node3" class="node">
<title>Node3</title>
<g id="a_node3"><a xlink:href="../../db/d12/context_8cpp.html" target="_top" xlink:title=" ">
<polygon fill="white" stroke="#666666" points="326,-30 172,-30 172,0 326,0 326,-30"/>
<text text-anchor="start" x="180" y="-18" font-family="Helvetica,sans-Serif" font-size="10.00">/home/runner/work/doxygen</text>
<text text-anchor="middle" x="249" y="-7" font-family="Helvetica,sans-Serif" font-size="10.00">/doxygen/src/context.cpp</text>
</a>
</g>
</g>
<!-- Node1&#45;&gt;Node3 -->
<g id="edge2" class="edge">
<title>Node1&#45;&gt;Node3</title>
<path fill="none" stroke="#63b8ff" d="M2122.81,-79.24C1802.18,-76.18 688.79,-63.36 335,-30 332.14,-29.73 329.23,-29.42 326.29,-29.09"/>
<polygon fill="#63b8ff" stroke="#63b8ff" points="2122.94,-82.74 2132.97,-79.33 2123.01,-75.74 2122.94,-82.74"/>
</g>
<!-- Node4 -->
<g id="node4" class="node">
<title>Node4</title>
<g id="a_node4"><a xlink:href="../../d3/d17/defgen_8cpp.html" target="_top" xlink:title=" ">
<polygon fill="white" stroke="#666666" points="498,-30 344,-30 344,0 498,0 498,-30"/>
<text text-anchor="start" x="352" y="-18" font-family="Helvetica,sans-Serif" font-size="10.00">/home/runner/work/doxygen</text>
<text text-anchor="middle" x="421" y="-7" font-family="Helvetica,sans-Serif" font-size="10.00">/doxygen/src/defgen.cpp</text>
</a>
</g>
</g>
<!-- Node1&#45;&gt;Node4 -->
<g id="edge3" class="edge">
<title>Node1&#45;&gt;Node4</title>
<path fill="none" stroke="#63b8ff" d="M2122.34,-78.96C1820.48,-75.13 825.27,-60.44 507,-30 504.14,-29.73 501.23,-29.42 498.29,-29.08"/>
<polygon fill="#63b8ff" stroke="#63b8ff" points="2122.73,-82.46 2132.78,-79.09 2122.82,-75.46 2122.73,-82.46"/>
</g>
<!-- Node5 -->
<g id="node5" class="node">
<title>Node5</title>
<g id="a_node5"><a xlink:href="../../d8/d52/dirdef_8cpp.html" target="_top" xlink:title=" ">
<polygon fill="white" stroke="#666666" points="670,-30 516,-30 516,0 670,0 670,-30"/>
<text text-anchor="start" x="524" y="-18" font-family="Helvetica,sans-Serif" font-size="10.00">/home/runner/work/doxygen</text>
<text text-anchor="middle" x="593" y="-7" font-family="Helvetica,sans-Serif" font-size="10.00">/doxygen/src/dirdef.cpp</text>
</a>
</g>
</g>
<!-- Node1&#45;&gt;Node5 -->
<g id="edge4" class="edge">
<title>Node1&#45;&gt;Node5</title>
<path fill="none" stroke="#63b8ff" d="M2122.69,-78.63C1841.62,-73.98 962.19,-57.56 679,-30 676.14,-29.72 673.23,-29.41 670.29,-29.06"/>
<polygon fill="#63b8ff" stroke="#63b8ff" points="2122.78,-82.13 2132.83,-78.8 2122.89,-75.13 2122.78,-82.13"/>
</g>
<!-- Node6 -->
<g id="node6" class="node">
<title>Node6</title>
<g id="a_node6"><a xlink:href="../../d8/d29/docbookgen_8cpp.html" target="_top" xlink:title=" ">
<polygon fill="white" stroke="#666666" points="849.5,-30 688.5,-30 688.5,0 849.5,0 849.5,-30"/>
<text text-anchor="start" x="696.5" y="-18" font-family="Helvetica,sans-Serif" font-size="10.00">/home/runner/work/doxygen</text>
<text text-anchor="middle" x="769" y="-7" font-family="Helvetica,sans-Serif" font-size="10.00">/doxygen/src/docbookgen.cpp</text>
</a>
</g>
</g>
<!-- Node1&#45;&gt;Node6 -->
<g id="edge5" class="edge">
<title>Node1&#45;&gt;Node6</title>
<path fill="none" stroke="#63b8ff" d="M2122.51,-80.36C1907.01,-80.48 1333.57,-76.03 858,-30 855.35,-29.74 852.67,-29.46 849.95,-29.15"/>
<polygon fill="#63b8ff" stroke="#63b8ff" points="2122.81,-83.86 2132.81,-80.36 2122.8,-76.86 2122.81,-83.86"/>
</g>
<!-- Node7 -->
<g id="node7" class="node">
<title>Node7</title>
<g id="a_node7"><a xlink:href="../../dc/d05/docbookvisitor_8cpp.html" target="_top" xlink:title=" ">
<polygon fill="white" stroke="#666666" points="1040.5,-30 867.5,-30 867.5,0 1040.5,0 1040.5,-30"/>
<text text-anchor="start" x="875.5" y="-18" font-family="Helvetica,sans-Serif" font-size="10.00">/home/runner/work/doxygen</text>
<text text-anchor="middle" x="954" y="-7" font-family="Helvetica,sans-Serif" font-size="10.00">/doxygen/src/docbookvisitor.cpp</text>
</a>
</g>
</g>
<!-- Node1&#45;&gt;Node7 -->
<g id="edge6" class="edge">
<title>Node1&#45;&gt;Node7</title>
<path fill="none" stroke="#63b8ff" d="M2122.67,-79.27C1929.09,-76.98 1449.49,-67.64 1050,-30 1046.9,-29.71 1043.74,-29.38 1040.56,-29.04"/>
<polygon fill="#63b8ff" stroke="#63b8ff" points="2122.74,-82.77 2132.78,-79.38 2122.82,-75.77 2122.74,-82.77"/>
</g>
<!-- Node8 -->
<g id="node8" class="node">
<title>Node8</title>
<g id="a_node8"><a xlink:href="../../de/daa/dot_8cpp.html" target="_top" xlink:title=" ">
<polygon fill="white" stroke="#666666" points="1213,-30 1059,-30 1059,0 1213,0 1213,-30"/>
<text text-anchor="start" x="1067" y="-18" font-family="Helvetica,sans-Serif" font-size="10.00">/home/runner/work/doxygen</text>
<text text-anchor="middle" x="1136" y="-7" font-family="Helvetica,sans-Serif" font-size="10.00">/doxygen/src/dot.cpp</text>
</a>
</g>
</g>
<!-- Node1&#45;&gt;Node8 -->
<g id="edge7" class="edge">
<title>Node1&#45;&gt;Node8</title>
<path fill="none" stroke="#63b8ff" d="M2122.87,-78.83C1950.41,-75.8 1553.55,-65.27 1222,-30 1219.14,-29.7 1216.23,-29.36 1213.3,-29"/>
<polygon fill="#63b8ff" stroke="#63b8ff" points="2122.85,-82.33 2132.91,-79 2122.97,-75.33 2122.85,-82.33"/>
</g>
<!-- Node9 -->
<g id="node9" class="node">
<title>Node9</title>
<g id="a_node9"><a xlink:href="../../d9/d92/dotfilepatcher_8cpp.html" target="_top" xlink:title=" ">
<polygon fill="white" stroke="#666666" points="1400.5,-30 1231.5,-30 1231.5,0 1400.5,0 1400.5,-30"/>
<text text-anchor="start" x="1239.5" y="-18" font-family="Helvetica,sans-Serif" font-size="10.00">/home/runner/work/doxygen</text>
<text text-anchor="middle" x="1316" y="-7" font-family="Helvetica,sans-Serif" font-size="10.00">/doxygen/src/dotfilepatcher.cpp</text>
</a>
</g>
</g>
<!-- Node1&#45;&gt;Node9 -->
<g id="edge8" class="edge">
<title>Node1&#45;&gt;Node9</title>
<path fill="none" stroke="#63b8ff" d="M2122.54,-76.98C1975.21,-71.35 1668.3,-57.26 1410,-30 1406.88,-29.67 1403.71,-29.31 1400.51,-28.93"/>
<polygon fill="#63b8ff" stroke="#63b8ff" points="2122.74,-80.49 2132.87,-77.37 2123.01,-73.5 2122.74,-80.49"/>
</g>
<!-- Node10 -->
<g id="node10" class="node">
<title>Node10</title>
<g id="a_node10"><a xlink:href="../../de/d45/dotgraph_8cpp.html" target="_top" xlink:title=" ">
<polygon fill="white" stroke="#666666" points="1573,-30 1419,-30 1419,0 1573,0 1573,-30"/>
<text text-anchor="start" x="1427" y="-18" font-family="Helvetica,sans-Serif" font-size="10.00">/home/runner/work/doxygen</text>
<text text-anchor="middle" x="1496" y="-7" font-family="Helvetica,sans-Serif" font-size="10.00">/doxygen/src/dotgraph.cpp</text>
</a>
</g>
</g>
<!-- Node1&#45;&gt;Node10 -->
<g id="edge9" class="edge">
<title>Node1&#45;&gt;Node10</title>
<path fill="none" stroke="#63b8ff" d="M2122.95,-75.33C2001.51,-68.3 1774.48,-53.29 1582,-30 1579.15,-29.65 1576.24,-29.28 1573.31,-28.89"/>
<polygon fill="#63b8ff" stroke="#63b8ff" points="2122.76,-78.82 2132.94,-75.9 2123.16,-71.84 2122.76,-78.82"/>
</g>
<!-- Node11 -->
<g id="node11" class="node">
<title>Node11</title>
<g id="a_node11"><a xlink:href="../../d4/d33/dotlegendgraph_8cpp.html" target="_top" xlink:title=" ">
<polygon fill="white" stroke="#666666" points="1770.5,-30 1591.5,-30 1591.5,0 1770.5,0 1770.5,-30"/>
<text text-anchor="start" x="1599.5" y="-18" font-family="Helvetica,sans-Serif" font-size="10.00">/home/runner/work/doxygen</text>
<text text-anchor="middle" x="1681" y="-7" font-family="Helvetica,sans-Serif" font-size="10.00">/doxygen/src/dotlegendgraph.cpp</text>
</a>
</g>
</g>
<!-- Node1&#45;&gt;Node11 -->
<g id="edge10" class="edge">
<title>Node1&#45;&gt;Node11</title>
<path fill="none" stroke="#63b8ff" d="M2122.55,-70.47C2035.61,-60.85 1898.49,-45.26 1780,-30 1776.9,-29.6 1773.75,-29.19 1770.57,-28.77"/>
<polygon fill="#63b8ff" stroke="#63b8ff" points="2122.32,-73.97 2132.64,-71.59 2123.09,-67.01 2122.32,-73.97"/>
</g>
<!-- Node12 -->
<g id="node12" class="node">
<title>Node12</title>
<g id="a_node12"><a xlink:href="../../d1/dfe/dotrunner_8cpp.html" target="_top" xlink:title=" ">
<polygon fill="white" stroke="#666666" points="1943,-30 1789,-30 1789,0 1943,0 1943,-30"/>
<text text-anchor="start" x="1797" y="-18" font-family="Helvetica,sans-Serif" font-size="10.00">/home/runner/work/doxygen</text>
<text text-anchor="middle" x="1866" y="-7" font-family="Helvetica,sans-Serif" font-size="10.00">/doxygen/src/dotrunner.cpp</text>
</a>
</g>
</g>
<!-- Node1&#45;&gt;Node12 -->
<g id="edge11" class="edge">
<title>Node1&#45;&gt;Node12</title>
<path fill="none" stroke="#63b8ff" d="M2124.57,-64.11C2068.33,-53.64 1995.38,-40.07 1941.32,-30.01"/>
<polygon fill="#63b8ff" stroke="#63b8ff" points="2124.04,-67.57 2134.51,-65.95 2125.32,-60.68 2124.04,-67.57"/>
</g>
<!-- Node13 -->
<g id="node13" class="node">
<title>Node13</title>
<g id="a_node13"><a xlink:href="../../dc/d98/doxygen_8cpp.html" target="_top" xlink:title=" ">
<polygon fill="white" stroke="#666666" points="2115,-30 1961,-30 1961,0 2115,0 2115,-30"/>
<text text-anchor="start" x="1969" y="-18" font-family="Helvetica,sans-Serif" font-size="10.00">/home/runner/work/doxygen</text>
<text text-anchor="middle" x="2038" y="-7" font-family="Helvetica,sans-Serif" font-size="10.00">/doxygen/src/doxygen.cpp</text>
</a>
</g>
</g>
<!-- Node1&#45;&gt;Node13 -->
<g id="edge12" class="edge">
<title>Node1&#45;&gt;Node13</title>
<path fill="none" stroke="#63b8ff" d="M2162.85,-62.46C2135.41,-52.25 2101.29,-39.55 2075.66,-30.01"/>
<polygon fill="#63b8ff" stroke="#63b8ff" points="2161.66,-65.75 2172.25,-65.95 2164.1,-59.19 2161.66,-65.75"/>
</g>
<!-- Node14 -->
<g id="node14" class="node">
<title>Node14</title>
<g id="a_node14"><a xlink:href="../../d6/ddc/filedef_8cpp.html" target="_top" xlink:title=" ">
<polygon fill="white" stroke="#666666" points="2287,-30 2133,-30 2133,0 2287,0 2287,-30"/>
<text text-anchor="start" x="2141" y="-18" font-family="Helvetica,sans-Serif" font-size="10.00">/home/runner/work/doxygen</text>
<text text-anchor="middle" x="2210" y="-7" font-family="Helvetica,sans-Serif" font-size="10.00">/doxygen/src/filedef.cpp</text>
</a>
</g>
</g>
<!-- Node1&#45;&gt;Node14 -->
<g id="edge13" class="edge">
<title>Node1&#45;&gt;Node14</title>
<path fill="none" stroke="#63b8ff" d="M2210,-55.54C2210,-46.96 2210,-37.61 2210,-30.16"/>
<polygon fill="#63b8ff" stroke="#63b8ff" points="2206.5,-55.8 2210,-65.8 2213.5,-55.8 2206.5,-55.8"/>
</g>
<!-- Node15 -->
<g id="node15" class="node">
<title>Node15</title>
<g id="a_node15"><a xlink:href="../../d6/d42/groupdef_8cpp.html" target="_top" xlink:title=" ">
<polygon fill="white" stroke="#666666" points="2459,-30 2305,-30 2305,0 2459,0 2459,-30"/>
<text text-anchor="start" x="2313" y="-18" font-family="Helvetica,sans-Serif" font-size="10.00">/home/runner/work/doxygen</text>
<text text-anchor="middle" x="2382" y="-7" font-family="Helvetica,sans-Serif" font-size="10.00">/doxygen/src/groupdef.cpp</text>
</a>
</g>
</g>
<!-- Node1&#45;&gt;Node15 -->
<g id="edge14" class="edge">
<title>Node1&#45;&gt;Node15</title>
<path fill="none" stroke="#63b8ff" d="M2257.15,-62.46C2284.59,-52.25 2318.71,-39.55 2344.34,-30.01"/>
<polygon fill="#63b8ff" stroke="#63b8ff" points="2255.9,-59.19 2247.75,-65.95 2258.34,-65.75 2255.9,-59.19"/>
</g>
<!-- Node16 -->
<g id="node16" class="node">
<title>Node16</title>
<g id="a_node16"><a xlink:href="../../da/db0/htmldocvisitor_8cpp.html" target="_top" xlink:title=" ">
<polygon fill="white" stroke="#666666" points="2649,-30 2477,-30 2477,0 2649,0 2649,-30"/>
<text text-anchor="start" x="2485" y="-18" font-family="Helvetica,sans-Serif" font-size="10.00">/home/runner/work/doxygen</text>
<text text-anchor="middle" x="2563" y="-7" font-family="Helvetica,sans-Serif" font-size="10.00">/doxygen/src/htmldocvisitor.cpp</text>
</a>
</g>
</g>
<!-- Node1&#45;&gt;Node16 -->
<g id="edge15" class="edge">
<title>Node1&#45;&gt;Node16</title>
<path fill="none" stroke="#63b8ff" d="M2296.87,-64.25C2354.63,-53.78 2429.81,-40.15 2485.52,-30.05"/>
<polygon fill="#63b8ff" stroke="#63b8ff" points="2296.25,-60.81 2287.03,-66.03 2297.5,-67.69 2296.25,-60.81"/>
</g>
<!-- Node17 -->
<g id="node17" class="node">
<title>Node17</title>
<g id="a_node17"><a xlink:href="../../d8/d6e/htmlgen_8cpp.html" target="_top" xlink:title=" ">
<polygon fill="white" stroke="#666666" points="2821,-30 2667,-30 2667,0 2821,0 2821,-30"/>
<text text-anchor="start" x="2675" y="-18" font-family="Helvetica,sans-Serif" font-size="10.00">/home/runner/work/doxygen</text>
<text text-anchor="middle" x="2744" y="-7" font-family="Helvetica,sans-Serif" font-size="10.00">/doxygen/src/htmlgen.cpp</text>
</a>
</g>
</g>
<!-- Node1&#45;&gt;Node17 -->
<g id="edge16" class="edge">
<title>Node1&#45;&gt;Node17</title>
<path fill="none" stroke="#63b8ff" d="M2297.24,-71.57C2387.65,-62.53 2532.95,-47.15 2658,-30 2660.85,-29.61 2663.75,-29.2 2666.67,-28.78"/>
<polygon fill="#63b8ff" stroke="#63b8ff" points="2296.64,-68.11 2287.04,-72.59 2297.34,-75.08 2296.64,-68.11"/>
</g>
<!-- Node18 -->
<g id="node18" class="node">
<title>Node18</title>
<g id="a_node18"><a xlink:href="../../db/d14/index_8cpp.html" target="_top" xlink:title="This file contains functions for the various index pages.">
<polygon fill="white" stroke="#666666" points="2993,-30 2839,-30 2839,0 2993,0 2993,-30"/>
<text text-anchor="start" x="2847" y="-18" font-family="Helvetica,sans-Serif" font-size="10.00">/home/runner/work/doxygen</text>
<text text-anchor="middle" x="2916" y="-7" font-family="Helvetica,sans-Serif" font-size="10.00">/doxygen/src/index.cpp</text>
</a>
</g>
</g>
<!-- Node1&#45;&gt;Node18 -->
<g id="edge17" class="edge">
<title>Node1&#45;&gt;Node18</title>
<path fill="none" stroke="#63b8ff" d="M2297.29,-75.19C2417.51,-68.06 2640.68,-53.01 2830,-30 2832.85,-29.65 2835.76,-29.28 2838.69,-28.89"/>
<polygon fill="#63b8ff" stroke="#63b8ff" points="2296.82,-71.71 2287.04,-75.8 2297.23,-78.7 2296.82,-71.71"/>
</g>
<!-- Node19 -->
<g id="node19" class="node">
<title>Node19</title>
<g id="a_node19"><a xlink:href="../../d1/d4e/latexdocvisitor_8cpp.html" target="_top" xlink:title=" ">
<polygon fill="white" stroke="#666666" points="3185,-30 3011,-30 3011,0 3185,0 3185,-30"/>
<text text-anchor="start" x="3019" y="-18" font-family="Helvetica,sans-Serif" font-size="10.00">/home/runner/work/doxygen</text>
<text text-anchor="middle" x="3098" y="-7" font-family="Helvetica,sans-Serif" font-size="10.00">/doxygen/src/latexdocvisitor.cpp</text>
</a>
</g>
</g>
<!-- Node1&#45;&gt;Node19 -->
<g id="edge18" class="edge">
<title>Node1&#45;&gt;Node19</title>
<path fill="none" stroke="#63b8ff" d="M2297.44,-76.82C2443.61,-70.98 2746.74,-56.63 3002,-30 3004.93,-29.69 3007.91,-29.36 3010.92,-29.02"/>
<polygon fill="#63b8ff" stroke="#63b8ff" points="2297.04,-73.33 2287.19,-77.22 2297.32,-80.33 2297.04,-73.33"/>
</g>
<!-- Node20 -->
<g id="node20" class="node">
<title>Node20</title>
<g id="a_node20"><a xlink:href="../../d4/d42/latexgen_8cpp.html" target="_top" xlink:title=" ">
<polygon fill="white" stroke="#666666" points="3357,-30 3203,-30 3203,0 3357,0 3357,-30"/>
<text text-anchor="start" x="3211" y="-18" font-family="Helvetica,sans-Serif" font-size="10.00">/home/runner/work/doxygen</text>
<text text-anchor="middle" x="3280" y="-7" font-family="Helvetica,sans-Serif" font-size="10.00">/doxygen/src/latexgen.cpp</text>
</a>
</g>
</g>
<!-- Node1&#45;&gt;Node20 -->
<g id="edge19" class="edge">
<title>Node1&#45;&gt;Node20</title>
<path fill="none" stroke="#63b8ff" d="M2297.1,-78.81C2469.03,-75.73 2864,-65.14 3194,-30 3196.86,-29.7 3199.77,-29.36 3202.7,-29"/>
<polygon fill="#63b8ff" stroke="#63b8ff" points="2297.03,-75.31 2287.09,-78.98 2297.15,-82.3 2297.03,-75.31"/>
</g>
<!-- Node21 -->
<g id="node21" class="node">
<title>Node21</title>
<g id="a_node21"><a xlink:href="../../d8/dde/mandocvisitor_8cpp.html" target="_top" xlink:title=" ">
<polygon fill="white" stroke="#666666" points="3546.5,-30 3375.5,-30 3375.5,0 3546.5,0 3546.5,-30"/>
<text text-anchor="start" x="3383.5" y="-18" font-family="Helvetica,sans-Serif" font-size="10.00">/home/runner/work/doxygen</text>
<text text-anchor="middle" x="3461" y="-7" font-family="Helvetica,sans-Serif" font-size="10.00">/doxygen/src/mandocvisitor.cpp</text>
</a>
</g>
</g>
<!-- Node1&#45;&gt;Node21 -->
<g id="edge20" class="edge">
<title>Node1&#45;&gt;Node21</title>
<path fill="none" stroke="#63b8ff" d="M2297.39,-79.29C2490.54,-77.05 2968.16,-67.82 3366,-30 3369.07,-29.71 3372.19,-29.39 3375.34,-29.04"/>
<polygon fill="#63b8ff" stroke="#63b8ff" points="2297.26,-75.79 2287.3,-79.41 2297.34,-82.79 2297.26,-75.79"/>
</g>
<!-- Node22 -->
<g id="node22" class="node">
<title>Node22</title>
<g id="a_node22"><a xlink:href="../../d0/d72/memberdef_8cpp.html" target="_top" xlink:title=" ">
<polygon fill="white" stroke="#666666" points="3723,-30 3565,-30 3565,0 3723,0 3723,-30"/>
<text text-anchor="start" x="3573" y="-18" font-family="Helvetica,sans-Serif" font-size="10.00">/home/runner/work/doxygen</text>
<text text-anchor="middle" x="3644" y="-7" font-family="Helvetica,sans-Serif" font-size="10.00">/doxygen/src/memberdef.cpp</text>
</a>
</g>
</g>
<!-- Node1&#45;&gt;Node22 -->
<g id="edge21" class="edge">
<title>Node1&#45;&gt;Node22</title>
<path fill="none" stroke="#63b8ff" d="M2297.5,-80.4C2512.35,-80.58 3082.87,-76.25 3556,-30 3558.93,-29.71 3561.9,-29.39 3564.9,-29.04"/>
<polygon fill="#63b8ff" stroke="#63b8ff" points="2297.24,-76.9 2287.23,-80.38 2297.23,-83.9 2297.24,-76.9"/>
</g>
<!-- Node23 -->
<g id="node23" class="node">
<title>Node23</title>
<g id="a_node23"><a xlink:href="../../de/d9a/rtfdocvisitor_8cpp.html" target="_top" xlink:title=" ">
<polygon fill="white" stroke="#666666" points="3902.5,-30 3741.5,-30 3741.5,0 3902.5,0 3902.5,-30"/>
<text text-anchor="start" x="3749.5" y="-18" font-family="Helvetica,sans-Serif" font-size="10.00">/home/runner/work/doxygen</text>
<text text-anchor="middle" x="3822" y="-7" font-family="Helvetica,sans-Serif" font-size="10.00">/doxygen/src/rtfdocvisitor.cpp</text>
</a>
</g>
</g>
<!-- Node1&#45;&gt;Node23 -->
<g id="edge22" class="edge">
<title>Node1&#45;&gt;Node23</title>
<path fill="none" stroke="#63b8ff" d="M2297.28,-78.53C2577.19,-73.59 3450.54,-56.42 3732,-30 3734.99,-29.72 3738.03,-29.4 3741.1,-29.06"/>
<polygon fill="#63b8ff" stroke="#63b8ff" points="2297.11,-75.03 2287.17,-78.71 2297.23,-82.03 2297.11,-75.03"/>
</g>
<!-- Node24 -->
<g id="node24" class="node">
<title>Node24</title>
<g id="a_node24"><a xlink:href="../../d0/d9c/rtfgen_8cpp.html" target="_top" xlink:title=" ">
<polygon fill="white" stroke="#666666" points="4075,-30 3921,-30 3921,0 4075,0 4075,-30"/>
<text text-anchor="start" x="3929" y="-18" font-family="Helvetica,sans-Serif" font-size="10.00">/home/runner/work/doxygen</text>
<text text-anchor="middle" x="3998" y="-7" font-family="Helvetica,sans-Serif" font-size="10.00">/doxygen/src/rtfgen.cpp</text>
</a>
</g>
</g>
<!-- Node1&#45;&gt;Node24 -->
<g id="edge23" class="edge">
<title>Node1&#45;&gt;Node24</title>
<path fill="none" stroke="#63b8ff" d="M2297.61,-78.96C2599.29,-75.12 3593.91,-60.43 3912,-30 3914.86,-29.73 3917.77,-29.42 3920.71,-29.08"/>
<polygon fill="#63b8ff" stroke="#63b8ff" points="2297.13,-75.46 2287.18,-79.09 2297.22,-82.46 2297.13,-75.46"/>
</g>
<!-- Node25 -->
<g id="node25" class="node">
<title>Node25</title>
<g id="a_node25"><a xlink:href="../../dd/db6/xmldocvisitor_8cpp.html" target="_top" xlink:title=" ">
<polygon fill="white" stroke="#666666" points="4261,-30 4093,-30 4093,0 4261,0 4261,-30"/>
<text text-anchor="start" x="4101" y="-18" font-family="Helvetica,sans-Serif" font-size="10.00">/home/runner/work/doxygen</text>
<text text-anchor="middle" x="4177" y="-7" font-family="Helvetica,sans-Serif" font-size="10.00">/doxygen/src/xmldocvisitor.cpp</text>
</a>
</g>
</g>
<!-- Node1&#45;&gt;Node25 -->
<g id="edge24" class="edge">
<title>Node1&#45;&gt;Node25</title>
<path fill="none" stroke="#63b8ff" d="M2297.4,-79.09C2618.17,-75.54 3730.31,-61.22 4084,-30 4086.93,-29.74 4089.9,-29.45 4092.91,-29.13"/>
<polygon fill="#63b8ff" stroke="#63b8ff" points="2297.2,-75.6 2287.23,-79.21 2297.27,-82.59 2297.2,-75.6"/>
</g>
<!-- Node26 -->
<g id="node26" class="node">
<title>Node26</title>
<g id="a_node26"><a xlink:href="../../d0/dc3/xmlgen_8cpp.html" target="_top" xlink:title=" ">
<polygon fill="white" stroke="#666666" points="4433,-30 4279,-30 4279,0 4433,0 4433,-30"/>
<text text-anchor="start" x="4287" y="-18" font-family="Helvetica,sans-Serif" font-size="10.00">/home/runner/work/doxygen</text>
<text text-anchor="middle" x="4356" y="-7" font-family="Helvetica,sans-Serif" font-size="10.00">/doxygen/src/xmlgen.cpp</text>
</a>
</g>
</g>
<!-- Node1&#45;&gt;Node26 -->
<g id="edge25" class="edge">
<title>Node1&#45;&gt;Node26</title>
<path fill="none" stroke="#63b8ff" d="M2297.1,-79.48C2637.45,-77.19 3878.02,-66.49 4270,-30 4272.86,-29.73 4275.77,-29.43 4278.71,-29.1"/>
<polygon fill="#63b8ff" stroke="#63b8ff" points="2297.03,-75.98 2287.06,-79.55 2297.08,-82.98 2297.03,-75.98"/>
</g>
</g>
</svg>
