<?xml version="1.0" encoding="UTF-8" standalone="no"?>
<!DOCTYPE svg PUBLIC "-//W3C//DTD SVG 1.1//EN"
 "http://www.w3.org/Graphics/SVG/1.1/DTD/svg11.dtd">
<!-- Generated by graphviz version 2.43.0 (0)
 -->
<!-- Title: TemplateNodeTabbing Pages: 1 -->
<svg width="267pt" height="216pt"
 viewBox="0.00 0.00 266.50 216.00" xmlns="http://www.w3.org/2000/svg" xmlns:xlink="http://www.w3.org/1999/xlink">
<g id="graph0" class="graph" transform="scale(1 1) rotate(0) translate(4 212)">
<title>TemplateNodeTabbing</title>
<!-- Node1 -->
<g id="node1" class="node">
<title>Node1</title>
<g id="a_node1"><a xlink:title="Class representing an &#39;tabbing&#39; tag in a template.">
<polygon fill="#999999" stroke="#666666" points="136,-19 11,-19 11,0 136,0 136,-19"/>
<text text-anchor="middle" x="73.5" y="-7" font-family="Helvetica,sans-Serif" font-size="10.00">TemplateNodeTabbing</text>
</a>
</g>
</g>
<!-- Node2 -->
<g id="node2" class="node">
<title>Node2</title>
<g id="a_node2"><a xlink:href="../../d8/d78/class_template_node_creator.html" target="_top" xlink:title=" ">
<polygon fill="white" stroke="#666666" points="147,-86 0,-86 0,-56 147,-56 147,-86"/>
<text text-anchor="start" x="8" y="-74" font-family="Helvetica,sans-Serif" font-size="10.00">TemplateNodeCreator</text>
<text text-anchor="middle" x="73.5" y="-63" font-family="Helvetica,sans-Serif" font-size="10.00">&lt; TemplateNodeTabbing &gt;</text>
</a>
</g>
</g>
<!-- Node2&#45;&gt;Node1 -->
<g id="edge1" class="edge">
<title>Node2&#45;&gt;Node1</title>
<path fill="none" stroke="#63b8ff" d="M73.5,-45.79C73.5,-36.36 73.5,-26.15 73.5,-19.16"/>
<polygon fill="#63b8ff" stroke="#63b8ff" points="70,-45.9 73.5,-55.9 77,-45.9 70,-45.9"/>
</g>
<!-- Node3 -->
<g id="node3" class="node">
<title>Node3</title>
<g id="a_node3"><a xlink:href="../../d6/d53/class_template_node.html" target="_top" xlink:title="Base class of all nodes in a template&#39;s AST.">
<polygon fill="white" stroke="#666666" points="113,-208 26,-208 26,-189 113,-189 113,-208"/>
<text text-anchor="middle" x="69.5" y="-196" font-family="Helvetica,sans-Serif" font-size="10.00">TemplateNode</text>
</a>
</g>
</g>
<!-- Node3&#45;&gt;Node2 -->
<g id="edge2" class="edge">
<title>Node3&#45;&gt;Node2</title>
<path fill="none" stroke="#63b8ff" d="M70.1,-178.76C70.9,-153.48 72.32,-109.02 73.05,-86.27"/>
<polygon fill="#63b8ff" stroke="#63b8ff" points="66.6,-178.77 69.77,-188.87 73.59,-178.99 66.6,-178.77"/>
</g>
<!-- Node4 -->
<g id="node4" class="node">
<title>Node4</title>
<g id="a_node4"><a xlink:href="../../d8/d78/class_template_node_creator.html" target="_top" xlink:title="Helper class for creating template AST tag nodes and returning the template for a given node.">
<polygon fill="white" stroke="#666666" points="237.5,-152 85.5,-152 85.5,-133 237.5,-133 237.5,-152"/>
<text text-anchor="middle" x="161.5" y="-140" font-family="Helvetica,sans-Serif" font-size="10.00">TemplateNodeCreator&lt; T &gt;</text>
</a>
</g>
</g>
<!-- Node3&#45;&gt;Node4 -->
<g id="edge4" class="edge">
<title>Node3&#45;&gt;Node4</title>
<path fill="none" stroke="#63b8ff" d="M93.05,-183.68C109.98,-173.74 132.28,-160.65 146.76,-152.15"/>
<polygon fill="#63b8ff" stroke="#63b8ff" points="91.13,-180.74 84.28,-188.82 94.68,-186.78 91.13,-180.74"/>
</g>
<!-- Node4&#45;&gt;Node2 -->
<g id="edge3" class="edge">
<title>Node4&#45;&gt;Node2</title>
<path fill="none" stroke="orange" stroke-dasharray="5,2" d="M142.56,-126.54C127.4,-114.57 106.28,-97.89 91.4,-86.14"/>
<polygon fill="orange" stroke="orange" points="140.69,-129.53 150.71,-132.98 145.03,-124.03 140.69,-129.53"/>
<text text-anchor="middle" x="191.5" y="-107" font-family="Helvetica,sans-Serif" font-size="10.00" fill="grey"> &lt; TemplateNodeTabbing &gt;</text>
</g>
</g>
</svg>
