<?xml version="1.0" encoding="UTF-8" standalone="no"?>
<!DOCTYPE svg PUBLIC "-//W3C//DTD SVG 1.1//EN"
 "http://www.w3.org/Graphics/SVG/1.1/DTD/svg11.dtd">
<!-- Generated by graphviz version 2.43.0 (0)
 -->
<!-- Title: DocDiaFile Pages: 1 -->
<svg width="127pt" height="192pt"
 viewBox="0.00 0.00 127.00 192.00" xmlns="http://www.w3.org/2000/svg" xmlns:xlink="http://www.w3.org/1999/xlink">
<g id="graph0" class="graph" transform="scale(1 1) rotate(0) translate(4 188)">
<title>DocDiaFile</title>
<!-- Node1 -->
<g id="node1" class="node">
<title>Node1</title>
<g id="a_node1"><a xlink:title="Node representing a dia file.">
<polygon fill="#999999" stroke="#666666" points="94,-19 25,-19 25,0 94,0 94,-19"/>
<text text-anchor="middle" x="59.5" y="-7" font-family="Helvetica,sans-Serif" font-size="10.00">DocDiaFile</text>
</a>
</g>
</g>
<!-- Node2 -->
<g id="node2" class="node">
<title>Node2</title>
<g id="a_node2"><a xlink:href="../../d3/d7c/class_doc_diagram_file_base.html" target="_top" xlink:title=" ">
<polygon fill="white" stroke="#666666" points="119,-74 0,-74 0,-55 119,-55 119,-74"/>
<text text-anchor="middle" x="59.5" y="-62" font-family="Helvetica,sans-Serif" font-size="10.00">DocDiagramFileBase</text>
</a>
</g>
</g>
<!-- Node2&#45;&gt;Node1 -->
<g id="edge1" class="edge">
<title>Node2&#45;&gt;Node1</title>
<path fill="none" stroke="#63b8ff" d="M59.5,-44.66C59.5,-35.93 59.5,-25.99 59.5,-19.09"/>
<polygon fill="#63b8ff" stroke="#63b8ff" points="56,-44.75 59.5,-54.75 63,-44.75 56,-44.75"/>
</g>
<!-- Node3 -->
<g id="node3" class="node">
<title>Node3</title>
<g id="a_node3"><a xlink:href="../../da/dfc/class_doc_compound_node.html" target="_top" xlink:title="Base class for nodes with children.">
<polygon fill="white" stroke="#666666" points="116,-129 3,-129 3,-110 116,-110 116,-129"/>
<text text-anchor="middle" x="59.5" y="-117" font-family="Helvetica,sans-Serif" font-size="10.00">DocCompoundNode</text>
</a>
</g>
</g>
<!-- Node3&#45;&gt;Node2 -->
<g id="edge2" class="edge">
<title>Node3&#45;&gt;Node2</title>
<path fill="none" stroke="#63b8ff" d="M59.5,-99.66C59.5,-90.93 59.5,-80.99 59.5,-74.09"/>
<polygon fill="#63b8ff" stroke="#63b8ff" points="56,-99.75 59.5,-109.75 63,-99.75 56,-99.75"/>
</g>
<!-- Node4 -->
<g id="node4" class="node">
<title>Node4</title>
<g id="a_node4"><a xlink:href="../../d9/d0e/class_doc_node.html" target="_top" xlink:title="Abstract node interface with type information.">
<polygon fill="white" stroke="#666666" points="90,-184 29,-184 29,-165 90,-165 90,-184"/>
<text text-anchor="middle" x="59.5" y="-172" font-family="Helvetica,sans-Serif" font-size="10.00">DocNode</text>
</a>
</g>
</g>
<!-- Node4&#45;&gt;Node3 -->
<g id="edge3" class="edge">
<title>Node4&#45;&gt;Node3</title>
<path fill="none" stroke="#63b8ff" d="M59.5,-154.66C59.5,-145.93 59.5,-135.99 59.5,-129.09"/>
<polygon fill="#63b8ff" stroke="#63b8ff" points="56,-154.75 59.5,-164.75 63,-154.75 56,-154.75"/>
</g>
</g>
</svg>
