<?xml version="1.0" encoding="UTF-8" standalone="no"?>
<!DOCTYPE svg PUBLIC "-//W3C//DTD SVG 1.1//EN"
 "http://www.w3.org/Graphics/SVG/1.1/DTD/svg11.dtd">
<!-- Generated by graphviz version 2.43.0 (0)
 -->
<!-- Title: /home/runner/work/doxygen/doxygen/src/dotclassgraph.h Pages: 1 -->
<!--zoomable 423 -->
<svg id="main" version="1.1" xmlns="http://www.w3.org/2000/svg" xmlns:xlink="http://www.w3.org/1999/xlink" xml:space="preserve" onload="init(evt)">
<style type="text/css"><![CDATA[
.edge:hover path { stroke: red; }
.edge:hover polygon { stroke: red; fill: red; }
]]></style>
<script type="text/javascript"><![CDATA[
var edges = document.getElementsByTagName('g');
if (edges && edges.length) {
  for (var i=0;i<edges.length;i++) {
    if (edges[i].id.substr(0,4)=='edge') {
      edges[i].setAttribute('class','edge');
    }
  }
}
]]></script>
        <defs>
                <circle id="rim" cx="0" cy="0" r="7"/>
                <circle id="rim2" cx="0" cy="0" r="3.5"/>
                <g id="zoomPlus">
                        <use xlink:href="#rim" fill="#404040">
                                <set attributeName="fill" to="#808080" begin="zoomplus.mouseover" end="zoomplus.mouseout"/>
                        </use>
                        <path d="M-4,0h8M0,-4v8" fill="none" stroke="white" stroke-width="1.5" pointer-events="none"/>
                </g>
                <g id="zoomMin">
                        <use xlink:href="#rim" fill="#404040">
                                <set attributeName="fill" to="#808080" begin="zoomminus.mouseover" end="zoomminus.mouseout"/>
                        </use>
                        <path d="M-4,0h8" fill="none" stroke="white" stroke-width="1.5" pointer-events="none"/>
                </g>
                <g id="dirArrow">
                        <path fill="none" stroke="white" stroke-width="1.5" d="M0,-3.0v7 M-2.5,-0.5L0,-3.0L2.5,-0.5"/>
                </g>
               <g id="resetDef">
                       <use xlink:href="#rim2" fill="#404040">
                               <set attributeName="fill" to="#808080" begin="reset.mouseover" end="reset.mouseout"/>
                       </use>
               </g>
        </defs>

<script type="text/javascript">
var viewWidth = 1171;
var viewHeight = 423;
var sectionId = 'dynsection-0';
</script>
<script xlink:href="../../svgpan.js"/>
<svg id="graph" class="graph">
<g id="viewport">
<title>/home/runner/work/doxygen/doxygen/src/dotclassgraph.h</title>
<!-- Node1 -->
<g id="node1" class="node">
<title>Node1</title>
<g id="a_node1"><a xlink:title=" ">
<polygon fill="#999999" stroke="#666666" points="1010.5,-415 851.5,-415 851.5,-385 1010.5,-385 1010.5,-415"/>
<text text-anchor="start" x="859.5" y="-403" font-family="Helvetica,sans-Serif" font-size="10.00">/home/runner/work/doxygen</text>
<text text-anchor="middle" x="931" y="-392" font-family="Helvetica,sans-Serif" font-size="10.00">/doxygen/src/dotclassgraph.h</text>
</a>
</g>
</g>
<!-- Node2 -->
<g id="node2" class="node">
<title>Node2</title>
<g id="a_node2"><a xlink:title=" ">
<polygon fill="#e0e0e0" stroke="#999999" points="997,-129 939,-129 939,-110 997,-110 997,-129"/>
<text text-anchor="middle" x="968" y="-117" font-family="Helvetica,sans-Serif" font-size="10.00">memory</text>
</a>
</g>
</g>
<!-- Node1&#45;&gt;Node2 -->
<g id="edge1" class="edge">
<title>Node1&#45;&gt;Node2</title>
<path fill="none" stroke="#63b8ff" d="M929.21,-384.76C926.78,-364.6 922.55,-326.56 921,-294 920.6,-285.57 919.76,-283.35 921,-275 928.57,-224.1 949.45,-166.76 960.66,-138.39"/>
<polygon fill="#63b8ff" stroke="#63b8ff" points="963.95,-139.59 964.43,-129 957.45,-136.98 963.95,-139.59"/>
</g>
<!-- Node3 -->
<g id="node3" class="node">
<title>Node3</title>
<g id="a_node3"><a xlink:href="../../d1/da6/classdef_8h.html" target="_top" xlink:title=" ">
<polygon fill="white" stroke="#666666" points="624.5,-349 559.5,-349 559.5,-330 624.5,-330 624.5,-349"/>
<text text-anchor="middle" x="592" y="-337" font-family="Helvetica,sans-Serif" font-size="10.00">classdef.h</text>
</a>
</g>
</g>
<!-- Node1&#45;&gt;Node3 -->
<g id="edge2" class="edge">
<title>Node1&#45;&gt;Node3</title>
<path fill="none" stroke="#63b8ff" d="M851.09,-385.21C783.42,-373.53 689,-357.24 634.82,-347.89"/>
<polygon fill="#63b8ff" stroke="#63b8ff" points="635.31,-344.42 624.86,-346.17 634.12,-351.32 635.31,-344.42"/>
</g>
<!-- Node27 -->
<g id="node27" class="node">
<title>Node27</title>
<g id="a_node27"><a xlink:href="../../d8/d3b/dotnode_8h.html" target="_top" xlink:title=" ">
<polygon fill="white" stroke="#666666" points="994.5,-294 929.5,-294 929.5,-275 994.5,-275 994.5,-294"/>
<text text-anchor="middle" x="962" y="-282" font-family="Helvetica,sans-Serif" font-size="10.00">dotnode.h</text>
</a>
</g>
</g>
<!-- Node1&#45;&gt;Node27 -->
<g id="edge50" class="edge">
<title>Node1&#45;&gt;Node27</title>
<path fill="none" stroke="#63b8ff" d="M934.93,-384.63C940.53,-364.12 950.81,-326.47 956.96,-303.93"/>
<polygon fill="#63b8ff" stroke="#63b8ff" points="960.36,-304.8 959.62,-294.23 953.6,-302.95 960.36,-304.8"/>
</g>
<!-- Node30 -->
<g id="node30" class="node">
<title>Node30</title>
<g id="a_node30"><a xlink:href="../../d0/daa/dotgraph_8h.html" target="_top" xlink:title=" ">
<polygon fill="white" stroke="#666666" points="1101.5,-239 1032.5,-239 1032.5,-220 1101.5,-220 1101.5,-239"/>
<text text-anchor="middle" x="1067" y="-227" font-family="Helvetica,sans-Serif" font-size="10.00">dotgraph.h</text>
</a>
</g>
</g>
<!-- Node1&#45;&gt;Node30 -->
<g id="edge65" class="edge">
<title>Node1&#45;&gt;Node30</title>
<path fill="none" stroke="#63b8ff" d="M942.36,-384.92C967.33,-353.99 1026.86,-280.23 1053.6,-247.1"/>
<polygon fill="#63b8ff" stroke="#63b8ff" points="1056.38,-249.23 1059.93,-239.25 1050.93,-244.84 1056.38,-249.23"/>
</g>
<!-- Node4 -->
<g id="node4" class="node">
<title>Node4</title>
<g id="a_node4"><a xlink:title=" ">
<polygon fill="#e0e0e0" stroke="#999999" points="475.5,-129 428.5,-129 428.5,-110 475.5,-110 475.5,-129"/>
<text text-anchor="middle" x="452" y="-117" font-family="Helvetica,sans-Serif" font-size="10.00">vector</text>
</a>
</g>
</g>
<!-- Node3&#45;&gt;Node4 -->
<g id="edge3" class="edge">
<title>Node3&#45;&gt;Node4</title>
<path fill="none" stroke="#63b8ff" d="M561.49,-329.96C522.53,-317.26 456.62,-289.3 427,-239 410.3,-210.65 416.14,-196.69 425,-165 427.76,-155.12 433.39,-145.25 438.79,-137.32"/>
<polygon fill="#63b8ff" stroke="#63b8ff" points="441.78,-139.17 444.85,-129.03 436.13,-135.04 441.78,-139.17"/>
</g>
<!-- Node5 -->
<g id="node5" class="node">
<title>Node5</title>
<g id="a_node5"><a xlink:title=" ">
<polygon fill="#e0e0e0" stroke="#999999" points="32,-184 0,-184 0,-165 32,-165 32,-184"/>
<text text-anchor="middle" x="16" y="-172" font-family="Helvetica,sans-Serif" font-size="10.00">set</text>
</a>
</g>
</g>
<!-- Node3&#45;&gt;Node5 -->
<g id="edge4" class="edge">
<title>Node3&#45;&gt;Node5</title>
<path fill="none" stroke="#63b8ff" d="M559.36,-336.61C501.68,-332.67 378.35,-321.53 278,-294 216.71,-277.18 203.91,-265.18 146,-239 109.27,-222.39 67.5,-201.65 41.44,-188.49"/>
<polygon fill="#63b8ff" stroke="#63b8ff" points="42.77,-185.24 32.27,-183.83 39.61,-191.48 42.77,-185.24"/>
</g>
<!-- Node6 -->
<g id="node6" class="node">
<title>Node6</title>
<g id="a_node6"><a xlink:href="../../d5/d75/containers_8h.html" target="_top" xlink:title=" ">
<polygon fill="white" stroke="#666666" points="232.5,-239 155.5,-239 155.5,-220 232.5,-220 232.5,-239"/>
<text text-anchor="middle" x="194" y="-227" font-family="Helvetica,sans-Serif" font-size="10.00">containers.h</text>
</a>
</g>
</g>
<!-- Node3&#45;&gt;Node6 -->
<g id="edge5" class="edge">
<title>Node3&#45;&gt;Node6</title>
<path fill="none" stroke="#63b8ff" d="M559.37,-336.03C508.51,-331.51 407.68,-319.9 326,-294 286.23,-281.39 243.23,-258.87 217.47,-244.31"/>
<polygon fill="#63b8ff" stroke="#63b8ff" points="218.9,-241.1 208.48,-239.16 215.42,-247.17 218.9,-241.1"/>
</g>
<!-- Node12 -->
<g id="node12" class="node">
<title>Node12</title>
<g id="a_node12"><a xlink:href="../../df/da1/definition_8h.html" target="_top" xlink:title=" ">
<polygon fill="white" stroke="#666666" points="627.5,-294 556.5,-294 556.5,-275 627.5,-275 627.5,-294"/>
<text text-anchor="middle" x="592" y="-282" font-family="Helvetica,sans-Serif" font-size="10.00">definition.h</text>
</a>
</g>
</g>
<!-- Node3&#45;&gt;Node12 -->
<g id="edge13" class="edge">
<title>Node3&#45;&gt;Node12</title>
<path fill="none" stroke="#63b8ff" d="M592,-329.75C592,-322.8 592,-312.85 592,-304.13"/>
<polygon fill="#63b8ff" stroke="#63b8ff" points="595.5,-304.09 592,-294.09 588.5,-304.09 595.5,-304.09"/>
</g>
<!-- Node25 -->
<g id="node25" class="node">
<title>Node25</title>
<g id="a_node25"><a xlink:href="../../df/d9b/arguments_8h.html" target="_top" xlink:title=" ">
<polygon fill="white" stroke="#666666" points="770,-184 692,-184 692,-165 770,-165 770,-184"/>
<text text-anchor="middle" x="731" y="-172" font-family="Helvetica,sans-Serif" font-size="10.00">arguments.h</text>
</a>
</g>
</g>
<!-- Node3&#45;&gt;Node25 -->
<g id="edge41" class="edge">
<title>Node3&#45;&gt;Node25</title>
<path fill="none" stroke="#63b8ff" d="M601.29,-329.94C610.62,-321.2 625.27,-307.09 637,-294 653.45,-275.65 696.3,-220.51 718.01,-192.39"/>
<polygon fill="#63b8ff" stroke="#63b8ff" points="720.92,-194.35 724.25,-184.29 715.37,-190.08 720.92,-194.35"/>
</g>
<!-- Node26 -->
<g id="node26" class="node">
<title>Node26</title>
<g id="a_node26"><a xlink:href="../../d9/d11/membergroup_8h.html" target="_top" xlink:title=" ">
<polygon fill="white" stroke="#666666" points="779.5,-294 684.5,-294 684.5,-275 779.5,-275 779.5,-294"/>
<text text-anchor="middle" x="732" y="-282" font-family="Helvetica,sans-Serif" font-size="10.00">membergroup.h</text>
</a>
</g>
</g>
<!-- Node3&#45;&gt;Node26 -->
<g id="edge44" class="edge">
<title>Node3&#45;&gt;Node26</title>
<path fill="none" stroke="#63b8ff" d="M614.49,-329.98C637.52,-321.27 673.54,-307.63 699.63,-297.75"/>
<polygon fill="#63b8ff" stroke="#63b8ff" points="700.98,-300.98 709.1,-294.17 698.51,-294.44 700.98,-300.98"/>
</g>
<!-- Node6&#45;&gt;Node4 -->
<g id="edge6" class="edge">
<title>Node6&#45;&gt;Node4</title>
<path fill="none" stroke="#63b8ff" d="M210.41,-219.89C235.11,-207.1 283.5,-182.67 326,-165 357.02,-152.11 393.25,-139.56 418.88,-131.1"/>
<polygon fill="#63b8ff" stroke="#63b8ff" points="420.08,-134.39 428.49,-127.95 417.9,-127.74 420.08,-134.39"/>
</g>
<!-- Node6&#45;&gt;Node5 -->
<g id="edge8" class="edge">
<title>Node6&#45;&gt;Node5</title>
<path fill="none" stroke="#63b8ff" d="M165.4,-219.98C131.35,-209.85 74.96,-193.06 42.07,-183.26"/>
<polygon fill="#63b8ff" stroke="#63b8ff" points="42.85,-179.84 32.27,-180.34 40.85,-186.55 42.85,-179.84"/>
</g>
<!-- Node7 -->
<g id="node7" class="node">
<title>Node7</title>
<g id="a_node7"><a xlink:title=" ">
<polygon fill="#e0e0e0" stroke="#999999" points="906,-19 862,-19 862,0 906,0 906,-19"/>
<text text-anchor="middle" x="884" y="-7" font-family="Helvetica,sans-Serif" font-size="10.00">string</text>
</a>
</g>
</g>
<!-- Node6&#45;&gt;Node7 -->
<g id="edge7" class="edge">
<title>Node6&#45;&gt;Node7</title>
<path fill="none" stroke="#63b8ff" d="M164.41,-219.97C132.97,-209.39 90.19,-189.69 109,-165 201.37,-43.72 717.4,-16.58 851.92,-11.52"/>
<polygon fill="#63b8ff" stroke="#63b8ff" points="852.13,-15.02 862,-11.16 851.88,-8.02 852.13,-15.02"/>
</g>
<!-- Node8 -->
<g id="node8" class="node">
<title>Node8</title>
<g id="a_node8"><a xlink:title=" ">
<polygon fill="#e0e0e0" stroke="#999999" points="902,-184 864,-184 864,-165 902,-165 902,-184"/>
<text text-anchor="middle" x="883" y="-172" font-family="Helvetica,sans-Serif" font-size="10.00">map</text>
</a>
</g>
</g>
<!-- Node6&#45;&gt;Node8 -->
<g id="edge9" class="edge">
<title>Node6&#45;&gt;Node8</title>
<path fill="none" stroke="#63b8ff" d="M232.68,-225.63C326.41,-218.67 573.13,-200.24 779,-184 804.22,-182.01 832.88,-179.66 853.71,-177.94"/>
<polygon fill="#63b8ff" stroke="#63b8ff" points="854.16,-181.41 863.83,-177.1 853.58,-174.44 854.16,-181.41"/>
</g>
<!-- Node9 -->
<g id="node9" class="node">
<title>Node9</title>
<g id="a_node9"><a xlink:title=" ">
<polygon fill="#e0e0e0" stroke="#999999" points="274,-184 188,-184 188,-165 274,-165 274,-184"/>
<text text-anchor="middle" x="231" y="-172" font-family="Helvetica,sans-Serif" font-size="10.00">unordered_set</text>
</a>
</g>
</g>
<!-- Node6&#45;&gt;Node9 -->
<g id="edge10" class="edge">
<title>Node6&#45;&gt;Node9</title>
<path fill="none" stroke="#63b8ff" d="M200.11,-219.75C205.28,-212.34 212.85,-201.5 219.19,-192.41"/>
<polygon fill="#63b8ff" stroke="#63b8ff" points="222.15,-194.29 225,-184.09 216.41,-190.29 222.15,-194.29"/>
</g>
<!-- Node10 -->
<g id="node10" class="node">
<title>Node10</title>
<g id="a_node10"><a xlink:title=" ">
<polygon fill="#e0e0e0" stroke="#999999" points="410.5,-129 317.5,-129 317.5,-110 410.5,-110 410.5,-129"/>
<text text-anchor="middle" x="364" y="-117" font-family="Helvetica,sans-Serif" font-size="10.00">unordered_map</text>
</a>
</g>
</g>
<!-- Node6&#45;&gt;Node10 -->
<g id="edge11" class="edge">
<title>Node6&#45;&gt;Node10</title>
<path fill="none" stroke="#63b8ff" d="M168.65,-219.96C139.46,-208.79 97.83,-187.93 117,-165 140.77,-136.56 242.06,-126.27 307.32,-122.56"/>
<polygon fill="#63b8ff" stroke="#63b8ff" points="307.66,-126.05 317.46,-122.02 307.29,-119.06 307.66,-126.05"/>
</g>
<!-- Node11 -->
<g id="node11" class="node">
<title>Node11</title>
<g id="a_node11"><a xlink:title=" ">
<polygon fill="#e0e0e0" stroke="#999999" points="169.5,-184 126.5,-184 126.5,-165 169.5,-165 169.5,-184"/>
<text text-anchor="middle" x="148" y="-172" font-family="Helvetica,sans-Serif" font-size="10.00">stack</text>
</a>
</g>
</g>
<!-- Node6&#45;&gt;Node11 -->
<g id="edge12" class="edge">
<title>Node6&#45;&gt;Node11</title>
<path fill="none" stroke="#63b8ff" d="M186.4,-219.75C179.84,-212.18 170.18,-201.05 162.19,-191.84"/>
<polygon fill="#63b8ff" stroke="#63b8ff" points="164.65,-189.35 155.45,-184.09 159.37,-193.94 164.65,-189.35"/>
</g>
<!-- Node12&#45;&gt;Node4 -->
<g id="edge14" class="edge">
<title>Node12&#45;&gt;Node4</title>
<path fill="none" stroke="#63b8ff" d="M556.45,-278.08C516.08,-271.11 453.97,-257.65 440,-239 417.87,-209.46 432.43,-163.5 443.28,-138.38"/>
<polygon fill="#63b8ff" stroke="#63b8ff" points="446.6,-139.55 447.59,-129 440.23,-136.63 446.6,-139.55"/>
</g>
<!-- Node13 -->
<g id="node13" class="node">
<title>Node13</title>
<g id="a_node13"><a xlink:href="../../d9/d49/types_8h.html" target="_top" xlink:title="This file contains a number of basic enums and types.">
<polygon fill="white" stroke="#666666" points="758.5,-239 705.5,-239 705.5,-220 758.5,-220 758.5,-239"/>
<text text-anchor="middle" x="732" y="-227" font-family="Helvetica,sans-Serif" font-size="10.00">types.h</text>
</a>
</g>
</g>
<!-- Node12&#45;&gt;Node13 -->
<g id="edge15" class="edge">
<title>Node12&#45;&gt;Node13</title>
<path fill="none" stroke="#63b8ff" d="M614.49,-274.98C637.52,-266.27 673.54,-252.63 699.63,-242.75"/>
<polygon fill="#63b8ff" stroke="#63b8ff" points="700.98,-245.98 709.1,-239.17 698.51,-239.44 700.98,-245.98"/>
</g>
<!-- Node23 -->
<g id="node23" class="node">
<title>Node23</title>
<g id="a_node23"><a xlink:href="../../d1/d02/reflist_8h.html" target="_top" xlink:title=" ">
<polygon fill="white" stroke="#666666" points="623.5,-239 570.5,-239 570.5,-220 623.5,-220 623.5,-239"/>
<text text-anchor="middle" x="597" y="-227" font-family="Helvetica,sans-Serif" font-size="10.00">reflist.h</text>
</a>
</g>
</g>
<!-- Node12&#45;&gt;Node23 -->
<g id="edge28" class="edge">
<title>Node12&#45;&gt;Node23</title>
<path fill="none" stroke="#63b8ff" d="M592.83,-274.75C593.48,-267.8 594.42,-257.85 595.24,-249.13"/>
<polygon fill="#63b8ff" stroke="#63b8ff" points="598.73,-249.37 596.19,-239.09 591.77,-248.72 598.73,-249.37"/>
</g>
<!-- Node14 -->
<g id="node14" class="node">
<title>Node14</title>
<g id="a_node14"><a xlink:href="../../d7/d5c/qcstring_8h.html" target="_top" xlink:title=" ">
<polygon fill="white" stroke="#666666" points="805.5,-129 740.5,-129 740.5,-110 805.5,-110 805.5,-129"/>
<text text-anchor="middle" x="773" y="-117" font-family="Helvetica,sans-Serif" font-size="10.00">qcstring.h</text>
</a>
</g>
</g>
<!-- Node13&#45;&gt;Node14 -->
<g id="edge16" class="edge">
<title>Node13&#45;&gt;Node14</title>
<path fill="none" stroke="#63b8ff" d="M746.07,-219.89C757.35,-212.1 772.34,-199.48 779,-184 785.16,-169.7 782.74,-151.95 779.31,-138.85"/>
<polygon fill="#63b8ff" stroke="#63b8ff" points="782.61,-137.68 776.36,-129.13 775.91,-139.71 782.61,-137.68"/>
</g>
<!-- Node14&#45;&gt;Node7 -->
<g id="edge17" class="edge">
<title>Node14&#45;&gt;Node7</title>
<path fill="none" stroke="#63b8ff" d="M753.06,-109.9C728.89,-98.26 693.33,-76.47 710,-55 727.25,-32.78 806.63,-19.77 851.99,-14.03"/>
<polygon fill="#63b8ff" stroke="#63b8ff" points="852.42,-17.51 861.92,-12.82 851.57,-10.56 852.42,-17.51"/>
</g>
<!-- Node15 -->
<g id="node15" class="node">
<title>Node15</title>
<g id="a_node15"><a xlink:title=" ">
<polygon fill="#e0e0e0" stroke="#999999" points="594,-74 530,-74 530,-55 594,-55 594,-74"/>
<text text-anchor="middle" x="562" y="-62" font-family="Helvetica,sans-Serif" font-size="10.00">algorithm</text>
</a>
</g>
</g>
<!-- Node14&#45;&gt;Node15 -->
<g id="edge18" class="edge">
<title>Node14&#45;&gt;Node15</title>
<path fill="none" stroke="#63b8ff" d="M740.49,-110.33C703.83,-101.13 644.11,-86.12 603.96,-76.04"/>
<polygon fill="#63b8ff" stroke="#63b8ff" points="604.75,-72.63 594.2,-73.59 603.04,-79.42 604.75,-72.63"/>
</g>
<!-- Node16 -->
<g id="node16" class="node">
<title>Node16</title>
<g id="a_node16"><a xlink:title=" ">
<polygon fill="#e0e0e0" stroke="#999999" points="661.5,-74 612.5,-74 612.5,-55 661.5,-55 661.5,-74"/>
<text text-anchor="middle" x="637" y="-62" font-family="Helvetica,sans-Serif" font-size="10.00">cctype</text>
</a>
</g>
</g>
<!-- Node14&#45;&gt;Node16 -->
<g id="edge19" class="edge">
<title>Node14&#45;&gt;Node16</title>
<path fill="none" stroke="#63b8ff" d="M751.15,-109.98C728.88,-101.3 694.1,-87.75 668.78,-77.88"/>
<polygon fill="#63b8ff" stroke="#63b8ff" points="669.84,-74.54 659.25,-74.17 667.29,-81.06 669.84,-74.54"/>
</g>
<!-- Node17 -->
<g id="node17" class="node">
<title>Node17</title>
<g id="a_node17"><a xlink:title=" ">
<polygon fill="#e0e0e0" stroke="#999999" points="844,-74 794,-74 794,-55 844,-55 844,-74"/>
<text text-anchor="middle" x="819" y="-62" font-family="Helvetica,sans-Serif" font-size="10.00">cstring</text>
</a>
</g>
</g>
<!-- Node14&#45;&gt;Node17 -->
<g id="edge20" class="edge">
<title>Node14&#45;&gt;Node17</title>
<path fill="none" stroke="#63b8ff" d="M780.6,-109.75C787.16,-102.18 796.82,-91.05 804.81,-81.84"/>
<polygon fill="#63b8ff" stroke="#63b8ff" points="807.63,-83.94 811.55,-74.09 802.35,-79.35 807.63,-83.94"/>
</g>
<!-- Node18 -->
<g id="node18" class="node">
<title>Node18</title>
<g id="a_node18"><a xlink:title=" ">
<polygon fill="#e0e0e0" stroke="#999999" points="908,-74 862,-74 862,-55 908,-55 908,-74"/>
<text text-anchor="middle" x="885" y="-62" font-family="Helvetica,sans-Serif" font-size="10.00">cstdio</text>
</a>
</g>
</g>
<!-- Node14&#45;&gt;Node18 -->
<g id="edge21" class="edge">
<title>Node14&#45;&gt;Node18</title>
<path fill="none" stroke="#63b8ff" d="M790.99,-109.98C808.93,-101.5 836.72,-88.35 857.43,-78.54"/>
<polygon fill="#63b8ff" stroke="#63b8ff" points="859.14,-81.61 866.68,-74.17 856.14,-75.28 859.14,-81.61"/>
</g>
<!-- Node19 -->
<g id="node19" class="node">
<title>Node19</title>
<g id="a_node19"><a xlink:title=" ">
<polygon fill="#e0e0e0" stroke="#999999" points="975.5,-74 926.5,-74 926.5,-55 975.5,-55 975.5,-74"/>
<text text-anchor="middle" x="951" y="-62" font-family="Helvetica,sans-Serif" font-size="10.00">cstdlib</text>
</a>
</g>
</g>
<!-- Node14&#45;&gt;Node19 -->
<g id="edge22" class="edge">
<title>Node14&#45;&gt;Node19</title>
<path fill="none" stroke="#63b8ff" d="M801.6,-109.98C832.95,-100.65 883.23,-85.68 916.68,-75.72"/>
<polygon fill="#63b8ff" stroke="#63b8ff" points="917.9,-79.01 926.48,-72.8 915.9,-72.3 917.9,-79.01"/>
</g>
<!-- Node20 -->
<g id="node20" class="node">
<title>Node20</title>
<g id="a_node20"><a xlink:title=" ">
<polygon fill="#e0e0e0" stroke="#999999" points="1104,-19 1054,-19 1054,0 1104,0 1104,-19"/>
<text text-anchor="middle" x="1079" y="-7" font-family="Helvetica,sans-Serif" font-size="10.00">cstdint</text>
</a>
</g>
</g>
<!-- Node14&#45;&gt;Node20 -->
<g id="edge23" class="edge">
<title>Node14&#45;&gt;Node20</title>
<path fill="none" stroke="#63b8ff" d="M805.95,-116.91C870.4,-113.21 1010.14,-102.11 1048,-74 1062.6,-63.16 1070.69,-43.59 1074.91,-29.03"/>
<polygon fill="#63b8ff" stroke="#63b8ff" points="1078.36,-29.65 1077.42,-19.1 1071.57,-27.93 1078.36,-29.65"/>
</g>
<!-- Node21 -->
<g id="node21" class="node">
<title>Node21</title>
<g id="a_node21"><a xlink:title=" ">
<polygon fill="#e0e0e0" stroke="#999999" points="775.5,-74 718.5,-74 718.5,-55 775.5,-55 775.5,-74"/>
<text text-anchor="middle" x="747" y="-62" font-family="Helvetica,sans-Serif" font-size="10.00">ostream</text>
</a>
</g>
</g>
<!-- Node14&#45;&gt;Node21 -->
<g id="edge24" class="edge">
<title>Node14&#45;&gt;Node21</title>
<path fill="none" stroke="#63b8ff" d="M768.71,-109.75C765.19,-102.57 760.09,-92.18 755.72,-83.27"/>
<polygon fill="#63b8ff" stroke="#63b8ff" points="758.76,-81.53 751.21,-74.09 752.48,-84.61 758.76,-81.53"/>
</g>
<!-- Node22 -->
<g id="node22" class="node">
<title>Node22</title>
<g id="a_node22"><a xlink:href="../../db/d7c/utf8_8h.html" target="_top" xlink:title="Various UTF8 related helper functions.">
<polygon fill="white" stroke="#666666" points="1038.5,-74 993.5,-74 993.5,-55 1038.5,-55 1038.5,-74"/>
<text text-anchor="middle" x="1016" y="-62" font-family="Helvetica,sans-Serif" font-size="10.00">utf8.h</text>
</a>
</g>
</g>
<!-- Node14&#45;&gt;Node22 -->
<g id="edge25" class="edge">
<title>Node14&#45;&gt;Node22</title>
<path fill="none" stroke="#63b8ff" d="M805.82,-112.25C845.65,-104.53 915.05,-90.63 983.3,-74.31"/>
<polygon fill="#63b8ff" stroke="#63b8ff" points="984.45,-77.63 993.35,-71.88 982.81,-70.82 984.45,-77.63"/>
</g>
<!-- Node22&#45;&gt;Node7 -->
<g id="edge27" class="edge">
<title>Node22&#45;&gt;Node7</title>
<path fill="none" stroke="#63b8ff" d="M994.79,-54.98C973.27,-46.34 939.72,-32.87 915.17,-23.02"/>
<polygon fill="#63b8ff" stroke="#63b8ff" points="916.18,-19.65 905.59,-19.17 913.57,-26.14 916.18,-19.65"/>
</g>
<!-- Node22&#45;&gt;Node20 -->
<g id="edge26" class="edge">
<title>Node22&#45;&gt;Node20</title>
<path fill="none" stroke="#63b8ff" d="M1026.12,-54.98C1035.44,-47.15 1049.47,-35.34 1060.74,-25.86"/>
<polygon fill="#63b8ff" stroke="#63b8ff" points="1063.29,-28.29 1068.69,-19.17 1058.79,-22.93 1063.29,-28.29"/>
</g>
<!-- Node23&#45;&gt;Node2 -->
<g id="edge31" class="edge">
<title>Node23&#45;&gt;Node2</title>
<path fill="none" stroke="#63b8ff" d="M623.71,-222.71C659.35,-214.82 724.32,-199.84 779,-184 834.16,-168.02 897.2,-146.08 934.74,-132.62"/>
<polygon fill="#63b8ff" stroke="#63b8ff" points="936.41,-135.74 944.63,-129.06 934.03,-129.16 936.41,-135.74"/>
</g>
<!-- Node23&#45;&gt;Node4 -->
<g id="edge29" class="edge">
<title>Node23&#45;&gt;Node4</title>
<path fill="none" stroke="#63b8ff" d="M578.1,-219.98C561.08,-211.89 535.79,-198.79 516,-184 497.11,-169.88 478.27,-150.37 465.98,-136.72"/>
<polygon fill="#63b8ff" stroke="#63b8ff" points="468.47,-134.25 459.23,-129.07 463.23,-138.89 468.47,-134.25"/>
</g>
<!-- Node23&#45;&gt;Node10 -->
<g id="edge30" class="edge">
<title>Node23&#45;&gt;Node10</title>
<path fill="none" stroke="#63b8ff" d="M575.3,-219.88C553.74,-211.2 519.84,-197.25 491,-184 455.25,-167.58 414.71,-146.95 389.25,-133.74"/>
<polygon fill="#63b8ff" stroke="#63b8ff" points="390.76,-130.58 380.27,-129.07 387.53,-136.79 390.76,-130.58"/>
</g>
<!-- Node23&#45;&gt;Node14 -->
<g id="edge32" class="edge">
<title>Node23&#45;&gt;Node14</title>
<path fill="none" stroke="#63b8ff" d="M607.43,-219.85C623.2,-206.99 654.32,-182.49 683,-165 702.59,-153.05 725.83,-141.63 743.78,-133.35"/>
<polygon fill="#63b8ff" stroke="#63b8ff" points="745.5,-136.41 753.16,-129.08 742.61,-130.04 745.5,-136.41"/>
</g>
<!-- Node24 -->
<g id="node24" class="node">
<title>Node24</title>
<g id="a_node24"><a xlink:href="../../da/de1/linkedmap_8h.html" target="_top" xlink:title=" ">
<polygon fill="white" stroke="#666666" points="635.5,-184 558.5,-184 558.5,-165 635.5,-165 635.5,-184"/>
<text text-anchor="middle" x="597" y="-172" font-family="Helvetica,sans-Serif" font-size="10.00">linkedmap.h</text>
</a>
</g>
</g>
<!-- Node23&#45;&gt;Node24 -->
<g id="edge33" class="edge">
<title>Node23&#45;&gt;Node24</title>
<path fill="none" stroke="#63b8ff" d="M597,-219.75C597,-212.8 597,-202.85 597,-194.13"/>
<polygon fill="#63b8ff" stroke="#63b8ff" points="600.5,-194.09 597,-184.09 593.5,-194.09 600.5,-194.09"/>
</g>
<!-- Node24&#45;&gt;Node2 -->
<g id="edge36" class="edge">
<title>Node24&#45;&gt;Node2</title>
<path fill="none" stroke="#63b8ff" d="M635.65,-167.98C706.76,-157.82 857.57,-136.28 928.96,-126.08"/>
<polygon fill="#63b8ff" stroke="#63b8ff" points="929.5,-129.54 938.9,-124.66 928.51,-122.61 929.5,-129.54"/>
</g>
<!-- Node24&#45;&gt;Node4 -->
<g id="edge35" class="edge">
<title>Node24&#45;&gt;Node4</title>
<path fill="none" stroke="#63b8ff" d="M573.7,-164.98C549.75,-156.23 512.22,-142.51 485.17,-132.62"/>
<polygon fill="#63b8ff" stroke="#63b8ff" points="486.31,-129.32 475.72,-129.17 483.91,-135.89 486.31,-129.32"/>
</g>
<!-- Node24&#45;&gt;Node7 -->
<g id="edge37" class="edge">
<title>Node24&#45;&gt;Node7</title>
<path fill="none" stroke="#63b8ff" d="M583.91,-164.84C554.52,-144.38 488.28,-91.97 521,-55 542.79,-30.38 766.98,-16.47 851.76,-12.05"/>
<polygon fill="#63b8ff" stroke="#63b8ff" points="852.04,-15.54 861.85,-11.54 851.68,-8.55 852.04,-15.54"/>
</g>
<!-- Node24&#45;&gt;Node10 -->
<g id="edge34" class="edge">
<title>Node24&#45;&gt;Node10</title>
<path fill="none" stroke="#63b8ff" d="M559.56,-164.98C519.35,-155.84 455.32,-141.27 411.56,-131.32"/>
<polygon fill="#63b8ff" stroke="#63b8ff" points="412.26,-127.89 401.73,-129.08 410.7,-134.71 412.26,-127.89"/>
</g>
<!-- Node24&#45;&gt;Node14 -->
<g id="edge40" class="edge">
<title>Node24&#45;&gt;Node14</title>
<path fill="none" stroke="#63b8ff" d="M625.28,-164.98C654.95,-156.05 701.79,-141.94 734.75,-132.02"/>
<polygon fill="#63b8ff" stroke="#63b8ff" points="735.93,-135.32 744.5,-129.08 733.92,-128.61 735.93,-135.32"/>
</g>
<!-- Node24&#45;&gt;Node15 -->
<g id="edge38" class="edge">
<title>Node24&#45;&gt;Node15</title>
<path fill="none" stroke="#63b8ff" d="M594.14,-164.66C588.44,-147.09 575.59,-107.45 567.98,-83.95"/>
<polygon fill="#63b8ff" stroke="#63b8ff" points="571.22,-82.59 564.81,-74.16 564.56,-84.75 571.22,-82.59"/>
</g>
<!-- Node24&#45;&gt;Node16 -->
<g id="edge39" class="edge">
<title>Node24&#45;&gt;Node16</title>
<path fill="none" stroke="#63b8ff" d="M600.27,-164.66C606.81,-147.01 621.6,-107.09 630.28,-83.64"/>
<polygon fill="#63b8ff" stroke="#63b8ff" points="633.6,-84.75 633.79,-74.16 627.04,-82.32 633.6,-84.75"/>
</g>
<!-- Node25&#45;&gt;Node4 -->
<g id="edge42" class="edge">
<title>Node25&#45;&gt;Node4</title>
<path fill="none" stroke="#63b8ff" d="M691.91,-166.07C636.91,-155.63 537.62,-136.76 485.7,-126.9"/>
<polygon fill="#63b8ff" stroke="#63b8ff" points="486.15,-123.42 475.67,-125 484.84,-130.3 486.15,-123.42"/>
</g>
<!-- Node25&#45;&gt;Node14 -->
<g id="edge43" class="edge">
<title>Node25&#45;&gt;Node14</title>
<path fill="none" stroke="#63b8ff" d="M737.94,-164.75C743.87,-157.26 752.57,-146.28 759.82,-137.13"/>
<polygon fill="#63b8ff" stroke="#63b8ff" points="762.73,-139.1 766.19,-129.09 757.24,-134.75 762.73,-139.1"/>
</g>
<!-- Node26&#45;&gt;Node2 -->
<g id="edge47" class="edge">
<title>Node26&#45;&gt;Node2</title>
<path fill="none" stroke="#63b8ff" d="M752.12,-274.99C786.7,-259.8 858.74,-225.68 911,-184 928.29,-170.21 944.8,-150.91 955.56,-137.21"/>
<polygon fill="#63b8ff" stroke="#63b8ff" points="958.44,-139.2 961.75,-129.14 952.89,-134.94 958.44,-139.2"/>
</g>
<!-- Node26&#45;&gt;Node4 -->
<g id="edge45" class="edge">
<title>Node26&#45;&gt;Node4</title>
<path fill="none" stroke="#63b8ff" d="M684.38,-276.34C649.26,-269.82 601,-258.21 562,-239 526.19,-221.37 517.66,-213.71 491,-184 478.61,-170.19 467.86,-151.92 460.8,-138.52"/>
<polygon fill="#63b8ff" stroke="#63b8ff" points="463.81,-136.71 456.16,-129.38 457.57,-139.88 463.81,-136.71"/>
</g>
<!-- Node26&#45;&gt;Node8 -->
<g id="edge46" class="edge">
<title>Node26&#45;&gt;Node8</title>
<path fill="none" stroke="#63b8ff" d="M741.92,-274.87C756.59,-262.25 785.14,-238.28 811,-220 826.65,-208.94 845.04,-197.6 859.32,-189.13"/>
<polygon fill="#63b8ff" stroke="#63b8ff" points="861.19,-192.1 868.04,-184.02 857.64,-186.06 861.19,-192.1"/>
</g>
<!-- Node26&#45;&gt;Node13 -->
<g id="edge48" class="edge">
<title>Node26&#45;&gt;Node13</title>
<path fill="none" stroke="#63b8ff" d="M732,-274.75C732,-267.8 732,-257.85 732,-249.13"/>
<polygon fill="#63b8ff" stroke="#63b8ff" points="735.5,-249.09 732,-239.09 728.5,-249.09 735.5,-249.09"/>
</g>
<!-- Node26&#45;&gt;Node23 -->
<g id="edge49" class="edge">
<title>Node26&#45;&gt;Node23</title>
<path fill="none" stroke="#63b8ff" d="M710.31,-274.98C688.2,-266.3 653.68,-252.75 628.55,-242.88"/>
<polygon fill="#63b8ff" stroke="#63b8ff" points="629.67,-239.57 619.08,-239.17 627.11,-246.08 629.67,-239.57"/>
</g>
<!-- Node27&#45;&gt;Node4 -->
<g id="edge51" class="edge">
<title>Node27&#45;&gt;Node4</title>
<path fill="none" stroke="#63b8ff" d="M939.63,-274.93C903.85,-261.52 831.34,-235.5 768,-220 672.61,-196.66 641.58,-219.45 550,-184 533.91,-177.77 495.88,-151.74 472.2,-135"/>
<polygon fill="#63b8ff" stroke="#63b8ff" points="474.09,-132.05 463.91,-129.1 470.03,-137.75 474.09,-132.05"/>
</g>
<!-- Node27&#45;&gt;Node8 -->
<g id="edge52" class="edge">
<title>Node27&#45;&gt;Node8</title>
<path fill="none" stroke="#63b8ff" d="M955.54,-274.66C942.39,-256.69 912.36,-215.64 895.35,-192.38"/>
<polygon fill="#63b8ff" stroke="#63b8ff" points="898.06,-190.16 889.33,-184.16 892.41,-194.3 898.06,-190.16"/>
</g>
<!-- Node27&#45;&gt;Node13 -->
<g id="edge55" class="edge">
<title>Node27&#45;&gt;Node13</title>
<path fill="none" stroke="#63b8ff" d="M929.05,-275.91C886.52,-266.11 812.77,-249.11 768.57,-238.93"/>
<polygon fill="#63b8ff" stroke="#63b8ff" points="769.33,-235.51 758.8,-236.68 767.76,-242.33 769.33,-235.51"/>
</g>
<!-- Node28 -->
<g id="node28" class="node">
<title>Node28</title>
<g id="a_node28"><a xlink:title=" ">
<polygon fill="#e0e0e0" stroke="#999999" points="1014.5,-239 967.5,-239 967.5,-220 1014.5,-220 1014.5,-239"/>
<text text-anchor="middle" x="991" y="-227" font-family="Helvetica,sans-Serif" font-size="10.00">deque</text>
</a>
</g>
</g>
<!-- Node27&#45;&gt;Node28 -->
<g id="edge53" class="edge">
<title>Node27&#45;&gt;Node28</title>
<path fill="none" stroke="#63b8ff" d="M966.79,-274.75C970.76,-267.49 976.53,-256.95 981.43,-247.98"/>
<polygon fill="#63b8ff" stroke="#63b8ff" points="984.57,-249.54 986.3,-239.09 978.43,-246.18 984.57,-249.54"/>
</g>
<!-- Node29 -->
<g id="node29" class="node">
<title>Node29</title>
<g id="a_node29"><a xlink:title=" ">
<polygon fill="#e0e0e0" stroke="#999999" points="1163,-184 1103,-184 1103,-165 1163,-165 1163,-184"/>
<text text-anchor="middle" x="1133" y="-172" font-family="Helvetica,sans-Serif" font-size="10.00">iostream</text>
</a>
</g>
</g>
<!-- Node27&#45;&gt;Node29 -->
<g id="edge54" class="edge">
<title>Node27&#45;&gt;Node29</title>
<path fill="none" stroke="#63b8ff" d="M994.74,-282.14C1028.14,-279.03 1079.41,-269.25 1111,-239 1123.23,-227.28 1128.67,-208.43 1131.08,-194.31"/>
<polygon fill="#63b8ff" stroke="#63b8ff" points="1134.57,-194.6 1132.44,-184.22 1127.63,-193.66 1134.57,-194.6"/>
</g>
<!-- Node27&#45;&gt;Node30 -->
<g id="edge56" class="edge">
<title>Node27&#45;&gt;Node30</title>
<path fill="none" stroke="#63b8ff" d="M978.87,-274.98C995.61,-266.54 1021.5,-253.47 1040.89,-243.68"/>
<polygon fill="#63b8ff" stroke="#63b8ff" points="1042.47,-246.8 1049.82,-239.17 1039.32,-240.55 1042.47,-246.8"/>
</g>
<!-- Node30&#45;&gt;Node8 -->
<g id="edge58" class="edge">
<title>Node30&#45;&gt;Node8</title>
<path fill="none" stroke="#63b8ff" d="M1037.44,-219.98C1002.91,-210.04 946.18,-193.7 911.93,-183.83"/>
<polygon fill="#63b8ff" stroke="#63b8ff" points="912.65,-180.4 902.07,-180.99 910.71,-187.12 912.65,-180.4"/>
</g>
<!-- Node30&#45;&gt;Node14 -->
<g id="edge59" class="edge">
<title>Node30&#45;&gt;Node14</title>
<path fill="none" stroke="#63b8ff" d="M1046.99,-219.8C1017.49,-207.09 960.46,-183.01 911,-165 877.61,-152.84 839.08,-140.56 811.24,-131.99"/>
<polygon fill="#63b8ff" stroke="#63b8ff" points="812.08,-128.59 801.49,-129.01 810.03,-135.28 812.08,-128.59"/>
</g>
<!-- Node30&#45;&gt;Node29 -->
<g id="edge57" class="edge">
<title>Node30&#45;&gt;Node29</title>
<path fill="none" stroke="#63b8ff" d="M1077.6,-219.98C1087.46,-212.07 1102.35,-200.11 1114.22,-190.58"/>
<polygon fill="#63b8ff" stroke="#63b8ff" points="1116.6,-193.16 1122.2,-184.17 1112.21,-187.7 1116.6,-193.16"/>
</g>
<!-- Node31 -->
<g id="node31" class="node">
<title>Node31</title>
<g id="a_node31"><a xlink:href="../../df/d9c/dir_8h.html" target="_top" xlink:title=" ">
<polygon fill="white" stroke="#666666" points="1085,-184 1047,-184 1047,-165 1085,-165 1085,-184"/>
<text text-anchor="middle" x="1066" y="-172" font-family="Helvetica,sans-Serif" font-size="10.00">dir.h</text>
</a>
</g>
</g>
<!-- Node30&#45;&gt;Node31 -->
<g id="edge60" class="edge">
<title>Node30&#45;&gt;Node31</title>
<path fill="none" stroke="#63b8ff" d="M1066.83,-219.75C1066.7,-212.8 1066.52,-202.85 1066.35,-194.13"/>
<polygon fill="#63b8ff" stroke="#63b8ff" points="1069.85,-194.02 1066.16,-184.09 1062.85,-194.15 1069.85,-194.02"/>
</g>
<!-- Node31&#45;&gt;Node2 -->
<g id="edge62" class="edge">
<title>Node31&#45;&gt;Node2</title>
<path fill="none" stroke="#63b8ff" d="M1050.25,-164.98C1034.77,-156.61 1010.91,-143.7 992.86,-133.95"/>
<polygon fill="#63b8ff" stroke="#63b8ff" points="994.49,-130.85 984.03,-129.17 991.16,-137.01 994.49,-130.85"/>
</g>
<!-- Node31&#45;&gt;Node7 -->
<g id="edge61" class="edge">
<title>Node31&#45;&gt;Node7</title>
<path fill="none" stroke="#63b8ff" d="M1067.57,-164.74C1070.91,-143.12 1076.25,-86.68 1048,-55 1030.59,-35.47 958.57,-21.64 915.98,-14.99"/>
<polygon fill="#63b8ff" stroke="#63b8ff" points="916.5,-11.53 906.09,-13.49 915.45,-18.45 916.5,-11.53"/>
</g>
<!-- Node32 -->
<g id="node32" class="node">
<title>Node32</title>
<g id="a_node32"><a xlink:href="../../df/d45/fileinfo_8h.html" target="_top" xlink:title=" ">
<polygon fill="white" stroke="#666666" points="1154.5,-129 1095.5,-129 1095.5,-110 1154.5,-110 1154.5,-129"/>
<text text-anchor="middle" x="1125" y="-117" font-family="Helvetica,sans-Serif" font-size="10.00">fileinfo.h</text>
</a>
</g>
</g>
<!-- Node31&#45;&gt;Node32 -->
<g id="edge63" class="edge">
<title>Node31&#45;&gt;Node32</title>
<path fill="none" stroke="#63b8ff" d="M1075.48,-164.98C1084.2,-157.15 1097.34,-145.34 1107.9,-135.86"/>
<polygon fill="#63b8ff" stroke="#63b8ff" points="1110.25,-138.46 1115.35,-129.17 1105.57,-133.25 1110.25,-138.46"/>
</g>
<!-- Node32&#45;&gt;Node7 -->
<g id="edge64" class="edge">
<title>Node32&#45;&gt;Node7</title>
<path fill="none" stroke="#63b8ff" d="M1121.57,-109.98C1115.54,-96.15 1101.68,-68.95 1081,-55 1030.46,-20.91 957.7,-12.6 916.22,-10.77"/>
<polygon fill="#63b8ff" stroke="#63b8ff" points="916.24,-7.27 906.13,-10.43 916.01,-14.27 916.24,-7.27"/>
</g>
</g>
</svg>
        <g id="navigator" transform="translate(0 0)" fill="#404254">
                <rect fill="#f2f5e9" fill-opacity="0.5" stroke="#606060" stroke-width=".5" x="0" y="0" width="60" height="60"/>
                <use id="zoomplus" xlink:href="#zoomPlus" x="17" y="9" onmousedown="handleZoom(evt,'in')"/>
                <use id="zoomminus" xlink:href="#zoomMin" x="42" y="9" onmousedown="handleZoom(evt,'out')"/>
                <use id="reset" xlink:href="#resetDef" x="30" y="36" onmousedown="handleReset()"/>
                <g id="arrowUp" xlink:href="#dirArrow" transform="translate(30 24)" onmousedown="handlePan(0,-1)">
                  <use xlink:href="#rim" fill="#404040">
                        <set attributeName="fill" to="#808080" begin="arrowUp.mouseover" end="arrowUp.mouseout"/>
                  </use>
                  <path fill="none" stroke="white" stroke-width="1.5" d="M0,-3.0v7 M-2.5,-0.5L0,-3.0L2.5,-0.5"/>
                </g>
                <g id="arrowRight" xlink:href="#dirArrow" transform="rotate(90) translate(36 -43)" onmousedown="handlePan(1,0)">
                  <use xlink:href="#rim" fill="#404040">
                        <set attributeName="fill" to="#808080" begin="arrowRight.mouseover" end="arrowRight.mouseout"/>
                  </use>
                  <path fill="none" stroke="white" stroke-width="1.5" d="M0,-3.0v7 M-2.5,-0.5L0,-3.0L2.5,-0.5"/>
                </g>
                <g id="arrowDown" xlink:href="#dirArrow" transform="rotate(180) translate(-30 -48)" onmousedown="handlePan(0,1)">
                  <use xlink:href="#rim" fill="#404040">
                        <set attributeName="fill" to="#808080" begin="arrowDown.mouseover" end="arrowDown.mouseout"/>
                  </use>
                  <path fill="none" stroke="white" stroke-width="1.5" d="M0,-3.0v7 M-2.5,-0.5L0,-3.0L2.5,-0.5"/>
                </g>
                <g id="arrowLeft" xlink:href="#dirArrow" transform="rotate(270) translate(-36 17)" onmousedown="handlePan(-1,0)">
                  <use xlink:href="#rim" fill="#404040">
                        <set attributeName="fill" to="#808080" begin="arrowLeft.mouseover" end="arrowLeft.mouseout"/>
                  </use>
                  <path fill="none" stroke="white" stroke-width="1.5" d="M0,-3.0v7 M-2.5,-0.5L0,-3.0L2.5,-0.5"/>
                </g>
        </g>
        <svg viewBox="0 0 15 15" width="100%" height="30px" preserveAspectRatio="xMaxYMin meet">
         <g id="arrow_out" transform="scale(0.3 0.3)">
          <a xlink:href="dotclassgraph_8h__incl_org.svg" target="_base">
           <rect id="button" ry="5" rx="5" y="6" x="6" height="38" width="38"
                fill="#f2f5e9" fill-opacity="0.5" stroke="#606060" stroke-width="1.0"/>
           <path id="arrow"
             d="M 11.500037,31.436501 C 11.940474,20.09759 22.043105,11.32322 32.158766,21.979434 L 37.068811,17.246167 C 37.068811,17.246167 37.088388,32 37.088388,32 L 22.160133,31.978069 C 22.160133,31.978069 26.997745,27.140456 26.997745,27.140456 C 18.528582,18.264221 13.291696,25.230495 11.500037,31.436501 z"
             style="fill:#404040;"/>
          </a>
         </g>
        </svg>
</svg>
