<?xml version="1.0" encoding="UTF-8" standalone="no"?>
<!DOCTYPE svg PUBLIC "-//W3C//DTD SVG 1.1//EN"
 "http://www.w3.org/Graphics/SVG/1.1/DTD/svg11.dtd">
<!-- Generated by graphviz version 2.43.0 (0)
 -->
<!-- Title: FileDefImpl Pages: 1 -->
<svg width="1854pt" height="528pt"
 viewBox="0.00 0.00 1854.00 527.84" xmlns="http://www.w3.org/2000/svg" xmlns:xlink="http://www.w3.org/1999/xlink">
<g id="graph0" class="graph" transform="scale(1 1) rotate(0) translate(4 523.84)">
<title>FileDefImpl</title>
<!-- Node1 -->
<g id="node1" class="node">
<title>Node1</title>
<g id="a_node1"><a xlink:title=" ">
<polygon fill="#999999" stroke="#666666" points="1846,-216.34 1773,-216.34 1773,-197.34 1846,-197.34 1846,-216.34"/>
<text text-anchor="middle" x="1809.5" y="-204.34" font-family="Helvetica,sans-Serif" font-size="10.00">FileDefImpl</text>
</a>
</g>
</g>
<!-- Node2 -->
<g id="node2" class="node">
<title>Node2</title>
<g id="a_node2"><a xlink:href="../../dd/d10/class_definition_mixin.html" target="_top" xlink:title=" ">
<polygon fill="white" stroke="#666666" points="1643,-417.34 1495,-417.34 1495,-398.34 1643,-398.34 1643,-417.34"/>
<text text-anchor="middle" x="1569" y="-405.34" font-family="Helvetica,sans-Serif" font-size="10.00">DefinitionMixin&lt; FileDef &gt;</text>
</a>
</g>
</g>
<!-- Node2&#45;&gt;Node1 -->
<g id="edge1" class="edge">
<title>Node2&#45;&gt;Node1</title>
<path fill="none" stroke="#63b8ff" d="M1653.4,-405.93C1688.53,-401.06 1727.54,-389.73 1755,-364.84 1800.06,-324 1807.19,-243.84 1808.3,-216.36"/>
<polygon fill="#63b8ff" stroke="#63b8ff" points="1652.63,-402.5 1643.13,-407.19 1653.48,-409.44 1652.63,-402.5"/>
</g>
<!-- Node3 -->
<g id="node3" class="node">
<title>Node3</title>
<g id="a_node3"><a xlink:href="../../de/db0/class_file_def.html" target="_top" xlink:title="A model of a file symbol.">
<polygon fill="white" stroke="#666666" points="239.5,-429.34 188.5,-429.34 188.5,-410.34 239.5,-410.34 239.5,-429.34"/>
<text text-anchor="middle" x="214" y="-417.34" font-family="Helvetica,sans-Serif" font-size="10.00">FileDef</text>
</a>
</g>
</g>
<!-- Node3&#45;&gt;Node2 -->
<g id="edge2" class="edge">
<title>Node3&#45;&gt;Node2</title>
<path fill="none" stroke="#63b8ff" d="M249.36,-431.54C289.89,-444.27 359.53,-462.84 421,-462.84 421,-462.84 421,-462.84 1194.5,-462.84 1317.88,-462.84 1461.77,-433.1 1529.29,-417.36"/>
<polygon fill="#63b8ff" stroke="#63b8ff" points="250.29,-428.16 239.7,-428.44 248.16,-434.83 250.29,-428.16"/>
</g>
<!-- Node14 -->
<g id="node14" class="node">
<title>Node14</title>
<g id="a_node14"><a xlink:href="../../db/dab/struct_body_info.html" target="_top" xlink:title="Data associated with description found in the body.">
<polygon fill="white" stroke="#666666" points="452,-397.34 392,-397.34 392,-378.34 452,-378.34 452,-397.34"/>
<text text-anchor="middle" x="422" y="-385.34" font-family="Helvetica,sans-Serif" font-size="10.00">BodyInfo</text>
</a>
</g>
</g>
<!-- Node3&#45;&gt;Node14 -->
<g id="edge16" class="edge">
<title>Node3&#45;&gt;Node14</title>
<path fill="none" stroke="#9a32cd" stroke-dasharray="5,2" d="M249.92,-414.42C289.81,-408.22 354.39,-398.19 391.75,-392.39"/>
<polygon fill="#9a32cd" stroke="#9a32cd" points="249.19,-410.99 239.85,-415.98 250.27,-417.91 249.19,-410.99"/>
<text text-anchor="middle" x="332.5" y="-407.84" font-family="Helvetica,sans-Serif" font-size="10.00" fill="grey"> fileDef</text>
</g>
<!-- Node4 -->
<g id="node4" class="node">
<title>Node4</title>
<g id="a_node4"><a xlink:href="../../d0/d46/class_definition_mutable.html" target="_top" xlink:title=" ">
<polygon fill="white" stroke="#666666" points="104,-462.34 0,-462.34 0,-443.34 104,-443.34 104,-462.34"/>
<text text-anchor="middle" x="52" y="-450.34" font-family="Helvetica,sans-Serif" font-size="10.00">DefinitionMutable</text>
</a>
</g>
</g>
<!-- Node4&#45;&gt;Node3 -->
<g id="edge3" class="edge">
<title>Node4&#45;&gt;Node3</title>
<path fill="none" stroke="#63b8ff" d="M109.38,-441.21C136.3,-435.66 167.15,-429.3 188.13,-424.97"/>
<polygon fill="#63b8ff" stroke="#63b8ff" points="108.37,-437.85 99.28,-443.3 109.78,-444.7 108.37,-437.85"/>
</g>
<!-- Node23 -->
<g id="node23" class="node">
<title>Node23</title>
<g id="a_node23"><a xlink:href="../../d4/dd4/class_dir_def.html" target="_top" xlink:title="A model of a directory symbol.">
<polygon fill="white" stroke="#666666" points="238,-475.34 190,-475.34 190,-456.34 238,-456.34 238,-475.34"/>
<text text-anchor="middle" x="214" y="-463.34" font-family="Helvetica,sans-Serif" font-size="10.00">DirDef</text>
</a>
</g>
</g>
<!-- Node4&#45;&gt;Node23 -->
<g id="edge30" class="edge">
<title>Node4&#45;&gt;Node23</title>
<path fill="none" stroke="#63b8ff" d="M114.37,-457.83C140.69,-459.97 169.87,-462.34 189.61,-463.94"/>
<polygon fill="#63b8ff" stroke="#63b8ff" points="114.32,-454.31 104.06,-456.99 113.75,-461.29 114.32,-454.31"/>
</g>
<!-- Node5 -->
<g id="node5" class="node">
<title>Node5</title>
<g id="a_node5"><a xlink:href="../../d5/dcc/class_definition.html" target="_top" xlink:title="The common base class of all entity definitions found in the sources.">
<polygon fill="white" stroke="#666666" points="84,-400.34 20,-400.34 20,-381.34 84,-381.34 84,-400.34"/>
<text text-anchor="middle" x="52" y="-388.34" font-family="Helvetica,sans-Serif" font-size="10.00">Definition</text>
</a>
</g>
</g>
<!-- Node5&#45;&gt;Node3 -->
<g id="edge4" class="edge">
<title>Node5&#45;&gt;Node3</title>
<path fill="none" stroke="#63b8ff" d="M94.34,-398.33C124.14,-403.74 163.37,-410.85 188.4,-415.38"/>
<polygon fill="#63b8ff" stroke="#63b8ff" points="94.69,-394.84 84.23,-396.5 93.44,-401.73 94.69,-394.84"/>
</g>
<!-- Node7 -->
<g id="node7" class="node">
<title>Node7</title>
<g id="a_node7"><a xlink:href="../../dd/d50/class_definition_impl_1_1_i_m_p_l.html" target="_top" xlink:title="Private data associated with a Symbol DefinitionImpl object.">
<polygon fill="white" stroke="#666666" points="732,-324.34 617,-324.34 617,-305.34 732,-305.34 732,-324.34"/>
<text text-anchor="middle" x="674.5" y="-312.34" font-family="Helvetica,sans-Serif" font-size="10.00">DefinitionImpl::IMPL</text>
</a>
</g>
</g>
<!-- Node5&#45;&gt;Node7 -->
<g id="edge7" class="edge">
<title>Node5&#45;&gt;Node7</title>
<path fill="none" stroke="#9a32cd" stroke-dasharray="5,2" d="M94.4,-387.18C185.75,-378.86 411.38,-357.08 599,-328.84 607.59,-327.55 616.7,-325.99 625.5,-324.39"/>
<polygon fill="#9a32cd" stroke="#9a32cd" points="93.84,-383.71 84.19,-388.1 94.47,-390.69 93.84,-383.71"/>
<text text-anchor="middle" x="332.5" y="-379.84" font-family="Helvetica,sans-Serif" font-size="10.00" fill="grey"> def</text>
<text text-anchor="middle" x="332.5" y="-368.84" font-family="Helvetica,sans-Serif" font-size="10.00" fill="grey">outerScope</text>
</g>
<!-- Node5&#45;&gt;Node23 -->
<g id="edge31" class="edge">
<title>Node5&#45;&gt;Node23</title>
<path fill="none" stroke="#63b8ff" d="M77.79,-405.59C95.17,-415.61 119.1,-428.82 141,-438.84 157.02,-446.17 175.67,-453.12 189.97,-458.13"/>
<polygon fill="#63b8ff" stroke="#63b8ff" points="79.27,-402.4 68.87,-400.38 75.75,-408.44 79.27,-402.4"/>
</g>
<!-- Node6 -->
<g id="node6" class="node">
<title>Node6</title>
<g id="a_node6"><a xlink:href="../../d3/ddf/class_definition_impl.html" target="_top" xlink:title=" ">
<polygon fill="white" stroke="#666666" points="919.5,-395.34 833.5,-395.34 833.5,-376.34 919.5,-376.34 919.5,-395.34"/>
<text text-anchor="middle" x="876.5" y="-383.34" font-family="Helvetica,sans-Serif" font-size="10.00">DefinitionImpl</text>
</a>
</g>
</g>
<!-- Node6&#45;&gt;Node2 -->
<g id="edge5" class="edge">
<title>Node6&#45;&gt;Node2</title>
<path fill="none" stroke="#9a32cd" stroke-dasharray="5,2" d="M929.53,-393.39C940.56,-394.75 952.15,-396 963,-396.84 1154.41,-411.72 1380.85,-410.96 1494.76,-409.31"/>
<polygon fill="#9a32cd" stroke="#9a32cd" points="929.96,-389.91 919.6,-392.11 929.07,-396.86 929.96,-389.91"/>
<text text-anchor="middle" x="1193.5" y="-411.84" font-family="Helvetica,sans-Serif" font-size="10.00" fill="grey"> m_impl</text>
</g>
<!-- Node16 -->
<g id="node16" class="node">
<title>Node16</title>
<g id="a_node16"><a xlink:href="../../dd/d10/class_definition_mixin.html" target="_top" xlink:title=" ">
<polygon fill="white" stroke="#666666" points="1262,-383.34 1125,-383.34 1125,-364.34 1262,-364.34 1262,-383.34"/>
<text text-anchor="middle" x="1193.5" y="-371.34" font-family="Helvetica,sans-Serif" font-size="10.00">DefinitionMixin&lt; Base &gt;</text>
</a>
</g>
</g>
<!-- Node6&#45;&gt;Node16 -->
<g id="edge21" class="edge">
<title>Node6&#45;&gt;Node16</title>
<path fill="none" stroke="#9a32cd" stroke-dasharray="5,2" d="M929.94,-383.84C983.41,-381.81 1066.59,-378.64 1124.97,-376.41"/>
<polygon fill="#9a32cd" stroke="#9a32cd" points="929.51,-380.36 919.66,-384.24 929.78,-387.35 929.51,-380.36"/>
<text text-anchor="middle" x="1028" y="-384.84" font-family="Helvetica,sans-Serif" font-size="10.00" fill="grey"> m_impl</text>
</g>
<!-- Node7&#45;&gt;Node6 -->
<g id="edge6" class="edge">
<title>Node7&#45;&gt;Node6</title>
<path fill="none" stroke="#9a32cd" stroke-dasharray="5,2" d="M706.42,-328.44C733.03,-339.84 772.61,-356.09 808,-367.84 817.09,-370.86 827,-373.73 836.36,-376.26"/>
<polygon fill="#9a32cd" stroke="#9a32cd" points="707.81,-325.22 697.24,-324.47 705.03,-331.65 707.81,-325.22"/>
<text text-anchor="middle" x="770" y="-363.84" font-family="Helvetica,sans-Serif" font-size="10.00" fill="grey"> m_impl</text>
</g>
<!-- Node8 -->
<g id="node8" class="node">
<title>Node8</title>
<g id="a_node8"><a xlink:href="../../d1/df9/class_section_refs.html" target="_top" xlink:title="class that represents a list of constant references to sections.">
<polygon fill="white" stroke="#666666" points="459,-321.34 385,-321.34 385,-302.34 459,-302.34 459,-321.34"/>
<text text-anchor="middle" x="422" y="-309.34" font-family="Helvetica,sans-Serif" font-size="10.00">SectionRefs</text>
</a>
</g>
</g>
<!-- Node8&#45;&gt;Node7 -->
<g id="edge8" class="edge">
<title>Node8&#45;&gt;Node7</title>
<path fill="none" stroke="#9a32cd" stroke-dasharray="5,2" d="M469.31,-312.4C511.01,-312.9 572.41,-313.63 616.99,-314.17"/>
<polygon fill="#9a32cd" stroke="#9a32cd" points="469.2,-308.9 459.16,-312.28 469.11,-315.89 469.2,-308.9"/>
<text text-anchor="middle" x="541.5" y="-316.84" font-family="Helvetica,sans-Serif" font-size="10.00" fill="grey"> sectionRefs</text>
</g>
<!-- Node9 -->
<g id="node9" class="node">
<title>Node9</title>
<g id="a_node9"><a xlink:href="../../d3/d3b/class_group_list.html" target="_top" xlink:title=" ">
<polygon fill="white" stroke="#666666" points="453.5,-284.34 390.5,-284.34 390.5,-265.34 453.5,-265.34 453.5,-284.34"/>
<text text-anchor="middle" x="422" y="-272.34" font-family="Helvetica,sans-Serif" font-size="10.00">GroupList</text>
</a>
</g>
</g>
<!-- Node9&#45;&gt;Node7 -->
<g id="edge9" class="edge">
<title>Node9&#45;&gt;Node7</title>
<path fill="none" stroke="#9a32cd" stroke-dasharray="5,2" d="M463.75,-278.62C499.55,-282.25 552.96,-288.43 599,-296.84 611.7,-299.16 625.47,-302.31 637.68,-305.32"/>
<polygon fill="#9a32cd" stroke="#9a32cd" points="463.98,-275.13 453.68,-277.62 463.29,-282.09 463.98,-275.13"/>
<text text-anchor="middle" x="541.5" y="-299.84" font-family="Helvetica,sans-Serif" font-size="10.00" fill="grey"> partOfGroups</text>
</g>
<!-- Node10 -->
<g id="node10" class="node">
<title>Node10</title>
<g id="a_node10"><a xlink:title=" ">
<polygon fill="white" stroke="#666666" points="287,-284.34 141,-284.34 141,-265.34 287,-265.34 287,-284.34"/>
<text text-anchor="middle" x="214" y="-272.34" font-family="Helvetica,sans-Serif" font-size="10.00">std::vector&lt; GroupDef * &gt;</text>
</a>
</g>
</g>
<!-- Node10&#45;&gt;Node9 -->
<g id="edge10" class="edge">
<title>Node10&#45;&gt;Node9</title>
<path fill="none" stroke="#63b8ff" d="M297.13,-274.84C329.96,-274.84 365.74,-274.84 390.37,-274.84"/>
<polygon fill="#63b8ff" stroke="#63b8ff" points="297.05,-271.34 287.05,-274.84 297.05,-278.34 297.05,-271.34"/>
</g>
<!-- Node11 -->
<g id="node11" class="node">
<title>Node11</title>
<g id="a_node11"><a xlink:href="../../d7/dd5/struct_doc_info.html" target="_top" xlink:title="Data associated with a detailed description.">
<polygon fill="white" stroke="#666666" points="449,-247.34 395,-247.34 395,-228.34 449,-228.34 449,-247.34"/>
<text text-anchor="middle" x="422" y="-235.34" font-family="Helvetica,sans-Serif" font-size="10.00">DocInfo</text>
</a>
</g>
</g>
<!-- Node11&#45;&gt;Node7 -->
<g id="edge11" class="edge">
<title>Node11&#45;&gt;Node7</title>
<path fill="none" stroke="#9a32cd" stroke-dasharray="5,2" d="M459.37,-235.4C496,-234.29 553.47,-236.28 599,-254.84 626.68,-266.13 652.27,-291.21 665.02,-305.1"/>
<polygon fill="#9a32cd" stroke="#9a32cd" points="459.02,-231.91 449.16,-235.81 459.29,-238.91 459.02,-231.91"/>
<text text-anchor="middle" x="541.5" y="-268.84" font-family="Helvetica,sans-Serif" font-size="10.00" fill="grey"> details</text>
<text text-anchor="middle" x="541.5" y="-257.84" font-family="Helvetica,sans-Serif" font-size="10.00" fill="grey">inbodyDocs</text>
</g>
<!-- Node12 -->
<g id="node12" class="node">
<title>Node12</title>
<g id="a_node12"><a xlink:href="../../d9/d45/class_q_c_string.html" target="_top" xlink:title="This is an alternative implementation of QCString.">
<polygon fill="white" stroke="#666666" points="243.5,-74.34 184.5,-74.34 184.5,-55.34 243.5,-55.34 243.5,-74.34"/>
<text text-anchor="middle" x="214" y="-62.34" font-family="Helvetica,sans-Serif" font-size="10.00">QCString</text>
</a>
</g>
</g>
<!-- Node12&#45;&gt;Node1 -->
<g id="edge28" class="edge">
<title>Node12&#45;&gt;Node1</title>
<path fill="none" stroke="#9a32cd" stroke-dasharray="5,2" d="M243.21,-51.09C282.21,-33.38 355.24,-4.84 421,-4.84 421,-4.84 421,-4.84 1570,-4.84 1653.52,-4.84 1692.23,17.25 1755,-37.84 1803.8,-80.68 1808.5,-167.71 1808.65,-196.98"/>
<polygon fill="#9a32cd" stroke="#9a32cd" points="241.66,-47.95 234.06,-55.33 244.6,-54.3 241.66,-47.95"/>
<text text-anchor="middle" x="876.5" y="-84.84" font-family="Helvetica,sans-Serif" font-size="10.00" fill="grey"> m_docname</text>
<text text-anchor="middle" x="876.5" y="-73.84" font-family="Helvetica,sans-Serif" font-size="10.00" fill="grey">m_fileName</text>
<text text-anchor="middle" x="876.5" y="-62.84" font-family="Helvetica,sans-Serif" font-size="10.00" fill="grey">m_filePath</text>
<text text-anchor="middle" x="876.5" y="-51.84" font-family="Helvetica,sans-Serif" font-size="10.00" fill="grey">m_fileVersion</text>
<text text-anchor="middle" x="876.5" y="-40.84" font-family="Helvetica,sans-Serif" font-size="10.00" fill="grey">m_inclByDepFileName</text>
<text text-anchor="middle" x="876.5" y="-29.84" font-family="Helvetica,sans-Serif" font-size="10.00" fill="grey">m_inclDepFileName</text>
<text text-anchor="middle" x="876.5" y="-18.84" font-family="Helvetica,sans-Serif" font-size="10.00" fill="grey">m_outputDiskName</text>
<text text-anchor="middle" x="876.5" y="-7.84" font-family="Helvetica,sans-Serif" font-size="10.00" fill="grey">m_path</text>
</g>
<!-- Node12&#45;&gt;Node7 -->
<g id="edge17" class="edge">
<title>Node12&#45;&gt;Node7</title>
<path fill="none" stroke="#9a32cd" stroke-dasharray="5,2" d="M253.82,-69.44C321.91,-77.61 456.6,-94.21 466,-98.84 567.67,-148.98 646.65,-270.36 667.86,-305.29"/>
<polygon fill="#9a32cd" stroke="#9a32cd" points="254.23,-65.97 243.88,-68.26 253.4,-72.92 254.23,-65.97"/>
<text text-anchor="middle" x="422" y="-211.84" font-family="Helvetica,sans-Serif" font-size="10.00" fill="grey"> briefSignatures</text>
<text text-anchor="middle" x="422" y="-200.84" font-family="Helvetica,sans-Serif" font-size="10.00" fill="grey">defFileExt</text>
<text text-anchor="middle" x="422" y="-189.84" font-family="Helvetica,sans-Serif" font-size="10.00" fill="grey">defFileName</text>
<text text-anchor="middle" x="422" y="-178.84" font-family="Helvetica,sans-Serif" font-size="10.00" fill="grey">docSignatures</text>
<text text-anchor="middle" x="422" y="-167.84" font-family="Helvetica,sans-Serif" font-size="10.00" fill="grey">id</text>
<text text-anchor="middle" x="422" y="-156.84" font-family="Helvetica,sans-Serif" font-size="10.00" fill="grey">localName</text>
<text text-anchor="middle" x="422" y="-145.84" font-family="Helvetica,sans-Serif" font-size="10.00" fill="grey">name</text>
<text text-anchor="middle" x="422" y="-134.84" font-family="Helvetica,sans-Serif" font-size="10.00" fill="grey">qualifiedName</text>
<text text-anchor="middle" x="422" y="-123.84" font-family="Helvetica,sans-Serif" font-size="10.00" fill="grey">ref</text>
<text text-anchor="middle" x="422" y="-112.84" font-family="Helvetica,sans-Serif" font-size="10.00" fill="grey">symbolName</text>
<text text-anchor="middle" x="422" y="-101.84" font-family="Helvetica,sans-Serif" font-size="10.00" fill="grey">...</text>
</g>
<!-- Node12&#45;&gt;Node11 -->
<g id="edge12" class="edge">
<title>Node12&#45;&gt;Node11</title>
<path fill="none" stroke="#9a32cd" stroke-dasharray="5,2" d="M230.89,-81.73C258.84,-110.9 319.45,-171.61 378,-213.84 385.35,-219.14 393.99,-224.17 401.58,-228.24"/>
<polygon fill="#9a32cd" stroke="#9a32cd" points="233.32,-79.22 223.89,-74.39 228.25,-84.04 233.32,-79.22"/>
<text text-anchor="middle" x="332.5" y="-212.84" font-family="Helvetica,sans-Serif" font-size="10.00" fill="grey"> doc</text>
<text text-anchor="middle" x="332.5" y="-201.84" font-family="Helvetica,sans-Serif" font-size="10.00" fill="grey">file</text>
</g>
<!-- Node13 -->
<g id="node13" class="node">
<title>Node13</title>
<g id="a_node13"><a xlink:href="../../d0/da7/struct_brief_info.html" target="_top" xlink:title="Data associated with a brief description.">
<polygon fill="white" stroke="#666666" points="451.5,-52.34 392.5,-52.34 392.5,-33.34 451.5,-33.34 451.5,-52.34"/>
<text text-anchor="middle" x="422" y="-40.34" font-family="Helvetica,sans-Serif" font-size="10.00">BriefInfo</text>
</a>
</g>
</g>
<!-- Node12&#45;&gt;Node13 -->
<g id="edge14" class="edge">
<title>Node12&#45;&gt;Node13</title>
<path fill="none" stroke="#9a32cd" stroke-dasharray="5,2" d="M253.73,-52.68C269.47,-48.34 287.94,-43.99 305,-41.84 329.25,-38.79 335.56,-41.64 360,-41.84 370.59,-41.93 382.22,-42.1 392.45,-42.28"/>
<polygon fill="#9a32cd" stroke="#9a32cd" points="252.48,-49.4 243.83,-55.51 254.4,-56.13 252.48,-49.4"/>
<text text-anchor="middle" x="332.5" y="-66.84" font-family="Helvetica,sans-Serif" font-size="10.00" fill="grey"> doc</text>
<text text-anchor="middle" x="332.5" y="-55.84" font-family="Helvetica,sans-Serif" font-size="10.00" fill="grey">file</text>
<text text-anchor="middle" x="332.5" y="-44.84" font-family="Helvetica,sans-Serif" font-size="10.00" fill="grey">tooltip</text>
</g>
<!-- Node13&#45;&gt;Node7 -->
<g id="edge13" class="edge">
<title>Node13&#45;&gt;Node7</title>
<path fill="none" stroke="#9a32cd" stroke-dasharray="5,2" d="M461.66,-36.22C500.86,-31.83 560.99,-31.79 599,-63.84 675.45,-128.3 675.52,-267.34 674.03,-305.17"/>
<polygon fill="#9a32cd" stroke="#9a32cd" points="461.17,-32.76 451.69,-37.48 462.05,-39.7 461.17,-32.76"/>
<text text-anchor="middle" x="541.5" y="-66.84" font-family="Helvetica,sans-Serif" font-size="10.00" fill="grey"> brief</text>
</g>
<!-- Node14&#45;&gt;Node7 -->
<g id="edge15" class="edge">
<title>Node14&#45;&gt;Node7</title>
<path fill="none" stroke="#9a32cd" stroke-dasharray="5,2" d="M462.54,-387.42C499.03,-385.89 554.19,-380.64 599,-363.84 623.64,-354.6 648.41,-336.03 662.27,-324.59"/>
<polygon fill="#9a32cd" stroke="#9a32cd" points="462.18,-383.93 452.31,-387.78 462.42,-390.93 462.18,-383.93"/>
<text text-anchor="middle" x="541.5" y="-388.84" font-family="Helvetica,sans-Serif" font-size="10.00" fill="grey"> body</text>
</g>
<!-- Node15 -->
<g id="node15" class="node">
<title>Node15</title>
<g id="a_node15"><a xlink:href="../../d1/d7d/class_member_vector.html" target="_top" xlink:title="A vector of MemberDef object.">
<polygon fill="white" stroke="#666666" points="466,-434.34 378,-434.34 378,-415.34 466,-415.34 466,-434.34"/>
<text text-anchor="middle" x="422" y="-422.34" font-family="Helvetica,sans-Serif" font-size="10.00">MemberVector</text>
</a>
</g>
</g>
<!-- Node15&#45;&gt;Node7 -->
<g id="edge18" class="edge">
<title>Node15&#45;&gt;Node7</title>
<path fill="none" stroke="#9a32cd" stroke-dasharray="5,2" d="M476.48,-421.69C520.34,-418.36 578.41,-411.99 599,-400.84 632.53,-382.69 657.85,-343.03 668.28,-324.61"/>
<polygon fill="#9a32cd" stroke="#9a32cd" points="475.96,-418.22 466.24,-422.44 476.47,-425.2 475.96,-418.22"/>
<text text-anchor="middle" x="541.5" y="-433.84" font-family="Helvetica,sans-Serif" font-size="10.00" fill="grey"> referencedByMembers</text>
<text text-anchor="middle" x="541.5" y="-422.84" font-family="Helvetica,sans-Serif" font-size="10.00" fill="grey">referencesMembers</text>
</g>
<!-- Node16&#45;&gt;Node2 -->
<g id="edge19" class="edge">
<title>Node16&#45;&gt;Node2</title>
<path fill="none" stroke="orange" stroke-dasharray="5,2" d="M1272.25,-378.2C1329.06,-381.73 1407.93,-387.35 1477,-394.84 1486.2,-395.84 1495.91,-397.05 1505.41,-398.33"/>
<polygon fill="orange" stroke="orange" points="1272.45,-374.71 1262.26,-377.59 1272.02,-381.69 1272.45,-374.71"/>
<text text-anchor="middle" x="1385.5" y="-397.84" font-family="Helvetica,sans-Serif" font-size="10.00" fill="grey"> &lt; FileDef &gt;</text>
</g>
<!-- Node17 -->
<g id="node17" class="node">
<title>Node17</title>
<g id="a_node17"><a xlink:title=" ">
<polygon fill="white" stroke="#666666" points="897,-358.34 856,-358.34 856,-339.34 897,-339.34 897,-358.34"/>
<text text-anchor="middle" x="876.5" y="-346.34" font-family="Helvetica,sans-Serif" font-size="10.00">Base</text>
</a>
</g>
</g>
<!-- Node17&#45;&gt;Node16 -->
<g id="edge20" class="edge">
<title>Node17&#45;&gt;Node16</title>
<path fill="none" stroke="#63b8ff" d="M907.25,-351.2C956.8,-355.14 1057.43,-363.12 1124.92,-368.48"/>
<polygon fill="#63b8ff" stroke="#63b8ff" points="907.45,-347.71 897.2,-350.41 906.9,-354.69 907.45,-347.71"/>
</g>
<!-- Node18 -->
<g id="node18" class="node">
<title>Node18</title>
<g id="a_node18"><a xlink:href="../../d5/d53/class_include_info_list.html" target="_top" xlink:title=" ">
<polygon fill="white" stroke="#666666" points="1613,-346.34 1525,-346.34 1525,-327.34 1613,-327.34 1613,-346.34"/>
<text text-anchor="middle" x="1569" y="-334.34" font-family="Helvetica,sans-Serif" font-size="10.00">IncludeInfoList</text>
</a>
</g>
</g>
<!-- Node18&#45;&gt;Node1 -->
<g id="edge22" class="edge">
<title>Node18&#45;&gt;Node1</title>
<path fill="none" stroke="#9a32cd" stroke-dasharray="5,2" d="M1623.4,-341.42C1663.16,-342.09 1716.92,-336.93 1755,-309.84 1787.67,-286.6 1801.88,-237.25 1806.58,-216.43"/>
<polygon fill="#9a32cd" stroke="#9a32cd" points="1623.46,-337.92 1613.36,-341.12 1623.25,-344.92 1623.46,-337.92"/>
<text text-anchor="middle" x="1708" y="-352.84" font-family="Helvetica,sans-Serif" font-size="10.00" fill="grey"> m_includeList</text>
<text text-anchor="middle" x="1708" y="-341.84" font-family="Helvetica,sans-Serif" font-size="10.00" fill="grey">m_includedByList</text>
</g>
<!-- Node19 -->
<g id="node19" class="node">
<title>Node19</title>
<g id="a_node19"><a xlink:title=" ">
<polygon fill="white" stroke="#666666" points="1266,-346.34 1121,-346.34 1121,-327.34 1266,-327.34 1266,-346.34"/>
<text text-anchor="middle" x="1193.5" y="-334.34" font-family="Helvetica,sans-Serif" font-size="10.00">std::vector&lt; IncludeInfo &gt;</text>
</a>
</g>
</g>
<!-- Node19&#45;&gt;Node18 -->
<g id="edge23" class="edge">
<title>Node19&#45;&gt;Node18</title>
<path fill="none" stroke="#63b8ff" d="M1276.17,-336.84C1352.77,-336.84 1464.32,-336.84 1524.92,-336.84"/>
<polygon fill="#63b8ff" stroke="#63b8ff" points="1276.07,-333.34 1266.07,-336.84 1276.07,-340.34 1276.07,-333.34"/>
</g>
<!-- Node20 -->
<g id="node20" class="node">
<title>Node20</title>
<g id="a_node20"><a xlink:href="../../d2/db7/class_linked_ref_map.html" target="_top" xlink:title=" ">
<polygon fill="white" stroke="#666666" points="1477,-265.34 1294,-265.34 1294,-246.34 1477,-246.34 1477,-265.34"/>
<text text-anchor="middle" x="1385.5" y="-253.34" font-family="Helvetica,sans-Serif" font-size="10.00">LinkedRefMap&lt; NamespaceDef &gt;</text>
</a>
</g>
</g>
<!-- Node20&#45;&gt;Node1 -->
<g id="edge24" class="edge">
<title>Node20&#45;&gt;Node1</title>
<path fill="none" stroke="#9a32cd" stroke-dasharray="5,2" d="M1487.46,-262.31C1579.41,-266.84 1707.8,-269.34 1755,-251.84 1774.12,-244.75 1791.18,-227.59 1800.66,-216.63"/>
<polygon fill="#9a32cd" stroke="#9a32cd" points="1487.45,-258.81 1477.28,-261.8 1487.09,-265.8 1487.45,-258.81"/>
<text text-anchor="middle" x="1569" y="-267.84" font-family="Helvetica,sans-Serif" font-size="10.00" fill="grey"> m_usingDirList</text>
</g>
<!-- Node21 -->
<g id="node21" class="node">
<title>Node21</title>
<g id="a_node21"><a xlink:href="../../d2/db7/class_linked_ref_map.html" target="_top" xlink:title="Container class representing a vector of objects with keys.">
<polygon fill="white" stroke="#666666" points="945,-247.84 808,-247.84 808,-217.84 945,-217.84 945,-247.84"/>
<text text-anchor="start" x="816" y="-235.84" font-family="Helvetica,sans-Serif" font-size="10.00">LinkedRefMap&lt; T, Hash,</text>
<text text-anchor="middle" x="876.5" y="-224.84" font-family="Helvetica,sans-Serif" font-size="10.00"> KeyEqual, Map &gt;</text>
</a>
</g>
</g>
<!-- Node21&#45;&gt;Node20 -->
<g id="edge25" class="edge">
<title>Node21&#45;&gt;Node20</title>
<path fill="none" stroke="orange" stroke-dasharray="5,2" d="M955.08,-236.36C1046.27,-240.5 1197.35,-247.35 1293.85,-251.73"/>
<polygon fill="orange" stroke="orange" points="955.24,-232.87 945.09,-235.91 954.92,-239.86 955.24,-232.87"/>
<text text-anchor="middle" x="1028" y="-244.84" font-family="Helvetica,sans-Serif" font-size="10.00" fill="grey"> &lt; NamespaceDef &gt;</text>
</g>
<!-- Node22 -->
<g id="node22" class="node">
<title>Node22</title>
<g id="a_node22"><a xlink:href="../../d2/db7/class_linked_ref_map.html" target="_top" xlink:title=" ">
<polygon fill="white" stroke="#666666" points="1269.5,-222.34 1117.5,-222.34 1117.5,-203.34 1269.5,-203.34 1269.5,-222.34"/>
<text text-anchor="middle" x="1193.5" y="-210.34" font-family="Helvetica,sans-Serif" font-size="10.00">LinkedRefMap&lt; ClassDef &gt;</text>
</a>
</g>
</g>
<!-- Node21&#45;&gt;Node22 -->
<g id="edge27" class="edge">
<title>Node21&#45;&gt;Node22</title>
<path fill="none" stroke="orange" stroke-dasharray="5,2" d="M955.22,-218.69C957.84,-218.38 960.44,-218.09 963,-217.84 1014.36,-212.81 1072.49,-211.59 1117.39,-211.61"/>
<polygon fill="orange" stroke="orange" points="954.51,-215.25 945.04,-220.02 955.41,-222.19 954.51,-215.25"/>
<text text-anchor="middle" x="1028" y="-220.84" font-family="Helvetica,sans-Serif" font-size="10.00" fill="grey"> &lt; ClassDef &gt;</text>
</g>
<!-- Node29 -->
<g id="node29" class="node">
<title>Node29</title>
<g id="a_node29"><a xlink:href="../../d2/db7/class_linked_ref_map.html" target="_top" xlink:title=" ">
<polygon fill="white" stroke="#666666" points="1255,-308.84 1132,-308.84 1132,-278.84 1255,-278.84 1255,-308.84"/>
<text text-anchor="start" x="1140" y="-296.84" font-family="Helvetica,sans-Serif" font-size="10.00">LinkedRefMap&lt; const</text>
<text text-anchor="middle" x="1193.5" y="-285.84" font-family="Helvetica,sans-Serif" font-size="10.00"> NamespaceDef &gt;</text>
</a>
</g>
</g>
<!-- Node21&#45;&gt;Node29 -->
<g id="edge38" class="edge">
<title>Node21&#45;&gt;Node29</title>
<path fill="none" stroke="orange" stroke-dasharray="5,2" d="M920.44,-251.8C933.85,-257.06 948.84,-262.3 963,-265.84 1019.27,-279.9 1085.14,-287.01 1131.84,-290.54"/>
<polygon fill="orange" stroke="orange" points="921.58,-248.48 910.99,-247.98 918.95,-254.97 921.58,-248.48"/>
<text text-anchor="middle" x="1028" y="-289.84" font-family="Helvetica,sans-Serif" font-size="10.00" fill="grey"> &lt; const NamespaceDef &gt;</text>
</g>
<!-- Node32 -->
<g id="node32" class="node">
<title>Node32</title>
<g id="a_node32"><a xlink:href="../../d2/db7/class_linked_ref_map.html" target="_top" xlink:title=" ">
<polygon fill="white" stroke="#666666" points="1276,-58.34 1111,-58.34 1111,-39.34 1276,-39.34 1276,-58.34"/>
<text text-anchor="middle" x="1193.5" y="-46.34" font-family="Helvetica,sans-Serif" font-size="10.00">LinkedRefMap&lt; ConceptDef &gt;</text>
</a>
</g>
</g>
<!-- Node21&#45;&gt;Node32 -->
<g id="edge43" class="edge">
<title>Node21&#45;&gt;Node32</title>
<path fill="none" stroke="orange" stroke-dasharray="5,2" d="M901.63,-210.89C941.95,-175.41 1026.91,-105.61 1111,-67.84 1119.48,-64.03 1128.82,-60.94 1138.05,-58.45"/>
<polygon fill="orange" stroke="orange" points="899.1,-208.46 893.94,-217.72 903.75,-213.69 899.1,-208.46"/>
<text text-anchor="middle" x="1028" y="-159.84" font-family="Helvetica,sans-Serif" font-size="10.00" fill="grey"> &lt; ConceptDef &gt;</text>
</g>
<!-- Node22&#45;&gt;Node1 -->
<g id="edge26" class="edge">
<title>Node22&#45;&gt;Node1</title>
<path fill="none" stroke="#9a32cd" stroke-dasharray="5,2" d="M1268.37,-202.02C1357.28,-190.38 1511.08,-174.72 1643,-183.84 1688,-186.95 1739.4,-194.77 1772.81,-200.43"/>
<polygon fill="#9a32cd" stroke="#9a32cd" points="1267.84,-198.56 1258.39,-203.34 1268.76,-205.49 1267.84,-198.56"/>
<text text-anchor="middle" x="1569" y="-186.84" font-family="Helvetica,sans-Serif" font-size="10.00" fill="grey"> m_usingDeclList</text>
</g>
<!-- Node30 -->
<g id="node30" class="node">
<title>Node30</title>
<g id="a_node30"><a xlink:href="../../da/d08/class_class_linked_ref_map.html" target="_top" xlink:title=" ">
<polygon fill="white" stroke="#666666" points="1625,-222.34 1513,-222.34 1513,-203.34 1625,-203.34 1625,-222.34"/>
<text text-anchor="middle" x="1569" y="-210.34" font-family="Helvetica,sans-Serif" font-size="10.00">ClassLinkedRefMap</text>
</a>
</g>
</g>
<!-- Node22&#45;&gt;Node30 -->
<g id="edge40" class="edge">
<title>Node22&#45;&gt;Node30</title>
<path fill="none" stroke="#63b8ff" d="M1279.98,-212.84C1351.57,-212.84 1451.62,-212.84 1512.99,-212.84"/>
<polygon fill="#63b8ff" stroke="#63b8ff" points="1279.63,-209.34 1269.63,-212.84 1279.63,-216.34 1279.63,-209.34"/>
</g>
<!-- Node23&#45;&gt;Node1 -->
<g id="edge29" class="edge">
<title>Node23&#45;&gt;Node1</title>
<path fill="none" stroke="#9a32cd" stroke-dasharray="5,2" d="M247.71,-477.02C287.98,-489.76 358.69,-508.84 421,-508.84 421,-508.84 421,-508.84 1570,-508.84 1665.89,-508.84 1696.84,-474.07 1755,-397.84 1799.28,-339.8 1806.91,-246.9 1808.23,-216.69"/>
<polygon fill="#9a32cd" stroke="#9a32cd" points="248.74,-473.67 238.15,-473.93 246.59,-480.33 248.74,-473.67"/>
<text text-anchor="middle" x="876.5" y="-511.84" font-family="Helvetica,sans-Serif" font-size="10.00" fill="grey"> m_dir</text>
</g>
<!-- Node24 -->
<g id="node24" class="node">
<title>Node24</title>
<g id="a_node24"><a xlink:href="../../dd/d5a/class_member_lists.html" target="_top" xlink:title=" ">
<polygon fill="white" stroke="#666666" points="1609,-137.34 1529,-137.34 1529,-118.34 1609,-118.34 1609,-137.34"/>
<text text-anchor="middle" x="1569" y="-125.34" font-family="Helvetica,sans-Serif" font-size="10.00">MemberLists</text>
</a>
</g>
</g>
<!-- Node24&#45;&gt;Node1 -->
<g id="edge32" class="edge">
<title>Node24&#45;&gt;Node1</title>
<path fill="none" stroke="#9a32cd" stroke-dasharray="5,2" d="M1619.11,-124.33C1658.01,-123.62 1712.66,-127.37 1755,-148.84 1776.75,-159.87 1794.12,-183.6 1802.68,-197.04"/>
<polygon fill="#9a32cd" stroke="#9a32cd" points="1618.97,-120.83 1609.08,-124.62 1619.17,-127.83 1618.97,-120.83"/>
<text text-anchor="middle" x="1708" y="-151.84" font-family="Helvetica,sans-Serif" font-size="10.00" fill="grey"> m_memberLists</text>
</g>
<!-- Node25 -->
<g id="node25" class="node">
<title>Node25</title>
<g id="a_node25"><a xlink:title=" ">
<polygon fill="white" stroke="#666666" points="1260.5,-154.84 1126.5,-154.84 1126.5,-124.84 1260.5,-124.84 1260.5,-154.84"/>
<text text-anchor="start" x="1134.5" y="-142.84" font-family="Helvetica,sans-Serif" font-size="10.00">std::vector&lt; std::unique</text>
<text text-anchor="middle" x="1193.5" y="-131.84" font-family="Helvetica,sans-Serif" font-size="10.00">_ptr&lt; MemberList &gt; &gt;</text>
</a>
</g>
</g>
<!-- Node25&#45;&gt;Node24 -->
<g id="edge33" class="edge">
<title>Node25&#45;&gt;Node24</title>
<path fill="none" stroke="#63b8ff" d="M1271.14,-137.38C1349.48,-134.86 1468.03,-131.05 1528.9,-129.1"/>
<polygon fill="#63b8ff" stroke="#63b8ff" points="1270.73,-133.89 1260.84,-137.71 1270.95,-140.89 1270.73,-133.89"/>
</g>
<!-- Node26 -->
<g id="node26" class="node">
<title>Node26</title>
<g id="a_node26"><a xlink:href="../../df/d11/class_member_group_list.html" target="_top" xlink:title=" ">
<polygon fill="white" stroke="#666666" points="1621,-100.34 1517,-100.34 1517,-81.34 1621,-81.34 1621,-100.34"/>
<text text-anchor="middle" x="1569" y="-88.34" font-family="Helvetica,sans-Serif" font-size="10.00">MemberGroupList</text>
</a>
</g>
</g>
<!-- Node26&#45;&gt;Node1 -->
<g id="edge34" class="edge">
<title>Node26&#45;&gt;Node1</title>
<path fill="none" stroke="#9a32cd" stroke-dasharray="5,2" d="M1631.4,-83.41C1669.91,-81.88 1718.91,-85.96 1755,-109.84 1786.6,-130.75 1801.25,-176.92 1806.32,-197.09"/>
<polygon fill="#9a32cd" stroke="#9a32cd" points="1631.14,-79.92 1621.34,-83.94 1631.51,-86.91 1631.14,-79.92"/>
<text text-anchor="middle" x="1708" y="-112.84" font-family="Helvetica,sans-Serif" font-size="10.00" fill="grey"> m_memberGroups</text>
</g>
<!-- Node27 -->
<g id="node27" class="node">
<title>Node27</title>
<g id="a_node27"><a xlink:title=" ">
<polygon fill="white" stroke="#666666" points="1263,-106.84 1124,-106.84 1124,-76.84 1263,-76.84 1263,-106.84"/>
<text text-anchor="start" x="1132" y="-94.84" font-family="Helvetica,sans-Serif" font-size="10.00">std::vector&lt; std::unique</text>
<text text-anchor="middle" x="1193.5" y="-83.84" font-family="Helvetica,sans-Serif" font-size="10.00">_ptr&lt; MemberGroup &gt; &gt;</text>
</a>
</g>
</g>
<!-- Node27&#45;&gt;Node26 -->
<g id="edge35" class="edge">
<title>Node27&#45;&gt;Node26</title>
<path fill="none" stroke="#63b8ff" d="M1273.12,-91.63C1346.49,-91.44 1453.81,-91.15 1516.73,-90.98"/>
<polygon fill="#63b8ff" stroke="#63b8ff" points="1273,-88.13 1263.01,-91.66 1273.02,-95.13 1273,-88.13"/>
</g>
<!-- Node28 -->
<g id="node28" class="node">
<title>Node28</title>
<g id="a_node28"><a xlink:href="../../da/df0/class_namespace_linked_ref_map.html" target="_top" xlink:title=" ">
<polygon fill="white" stroke="#666666" points="1640.5,-309.34 1497.5,-309.34 1497.5,-290.34 1640.5,-290.34 1640.5,-309.34"/>
<text text-anchor="middle" x="1569" y="-297.34" font-family="Helvetica,sans-Serif" font-size="10.00">NamespaceLinkedRefMap</text>
</a>
</g>
</g>
<!-- Node28&#45;&gt;Node1 -->
<g id="edge36" class="edge">
<title>Node28&#45;&gt;Node1</title>
<path fill="none" stroke="#9a32cd" stroke-dasharray="5,2" d="M1650.9,-296.45C1692.17,-293.49 1737.32,-288.01 1755,-277.84 1780.02,-263.46 1797.04,-232.2 1804.39,-216.4"/>
<polygon fill="#9a32cd" stroke="#9a32cd" points="1650.53,-292.96 1640.79,-297.13 1651,-299.95 1650.53,-292.96"/>
<text text-anchor="middle" x="1708" y="-297.84" font-family="Helvetica,sans-Serif" font-size="10.00" fill="grey"> m_namespaces</text>
</g>
<!-- Node29&#45;&gt;Node28 -->
<g id="edge37" class="edge">
<title>Node29&#45;&gt;Node28</title>
<path fill="none" stroke="#63b8ff" d="M1265.73,-294.99C1332.25,-296.05 1430.96,-297.64 1497.31,-298.71"/>
<polygon fill="#63b8ff" stroke="#63b8ff" points="1265.4,-291.48 1255.34,-294.82 1265.28,-298.48 1265.4,-291.48"/>
</g>
<!-- Node30&#45;&gt;Node1 -->
<g id="edge39" class="edge">
<title>Node30&#45;&gt;Node1</title>
<path fill="none" stroke="#9a32cd" stroke-dasharray="5,2" d="M1635.36,-208.87C1643.98,-208.46 1652.7,-208.1 1661,-207.84 1699.14,-206.67 1742.85,-206.52 1772.72,-206.6"/>
<polygon fill="#9a32cd" stroke="#9a32cd" points="1635.13,-205.38 1625.32,-209.38 1635.49,-212.37 1635.13,-205.38"/>
<text text-anchor="middle" x="1708" y="-243.84" font-family="Helvetica,sans-Serif" font-size="10.00" fill="grey"> m_classes</text>
<text text-anchor="middle" x="1708" y="-232.84" font-family="Helvetica,sans-Serif" font-size="10.00" fill="grey">m_exceptions</text>
<text text-anchor="middle" x="1708" y="-221.84" font-family="Helvetica,sans-Serif" font-size="10.00" fill="grey">m_interfaces</text>
<text text-anchor="middle" x="1708" y="-210.84" font-family="Helvetica,sans-Serif" font-size="10.00" fill="grey">m_structs</text>
</g>
<!-- Node31 -->
<g id="node31" class="node">
<title>Node31</title>
<g id="a_node31"><a xlink:href="../../d4/daa/class_concept_linked_ref_map.html" target="_top" xlink:title=" ">
<polygon fill="white" stroke="#666666" points="1631.5,-60.34 1506.5,-60.34 1506.5,-41.34 1631.5,-41.34 1631.5,-60.34"/>
<text text-anchor="middle" x="1569" y="-48.34" font-family="Helvetica,sans-Serif" font-size="10.00">ConceptLinkedRefMap</text>
</a>
</g>
</g>
<!-- Node31&#45;&gt;Node1 -->
<g id="edge41" class="edge">
<title>Node31&#45;&gt;Node1</title>
<path fill="none" stroke="#9a32cd" stroke-dasharray="5,2" d="M1641.95,-40.96C1679.15,-39.73 1723.27,-44.78 1755,-68.84 1797.38,-100.99 1806.2,-171.38 1808.03,-197.14"/>
<polygon fill="#9a32cd" stroke="#9a32cd" points="1641.48,-37.48 1631.66,-41.46 1641.82,-44.47 1641.48,-37.48"/>
<text text-anchor="middle" x="1708" y="-71.84" font-family="Helvetica,sans-Serif" font-size="10.00" fill="grey"> m_concepts</text>
</g>
<!-- Node32&#45;&gt;Node31 -->
<g id="edge42" class="edge">
<title>Node32&#45;&gt;Node31</title>
<path fill="none" stroke="#63b8ff" d="M1286.36,-49.33C1354.83,-49.7 1446.47,-50.19 1506.35,-50.51"/>
<polygon fill="#63b8ff" stroke="#63b8ff" points="1286.02,-45.83 1276,-49.28 1285.99,-52.83 1286.02,-45.83"/>
</g>
</g>
</svg>
