<?xml version="1.0" encoding="UTF-8" standalone="no"?>
<!DOCTYPE svg PUBLIC "-//W3C//DTD SVG 1.1//EN"
 "http://www.w3.org/Graphics/SVG/1.1/DTD/svg11.dtd">
<!-- Generated by graphviz version 2.43.0 (0)
 -->
<!-- Title: OutputList Pages: 1 -->
<svg width="383pt" height="149pt"
 viewBox="0.00 0.00 383.00 149.00" xmlns="http://www.w3.org/2000/svg" xmlns:xlink="http://www.w3.org/1999/xlink">
<g id="graph0" class="graph" transform="scale(1 1) rotate(0) translate(4 145)">
<title>OutputList</title>
<!-- Node1 -->
<g id="node1" class="node">
<title>Node1</title>
<g id="a_node1"><a xlink:title="Class representing a list of output generators that are written to in parallel.">
<polygon fill="#999999" stroke="#666666" points="236.5,-19 169.5,-19 169.5,0 236.5,0 236.5,-19"/>
<text text-anchor="middle" x="203" y="-7" font-family="Helvetica,sans-Serif" font-size="10.00">OutputList</text>
</a>
</g>
</g>
<!-- Node2 -->
<g id="node2" class="node">
<title>Node2</title>
<g id="a_node2"><a xlink:href="../../df/d27/class_base_output_doc_interface.html" target="_top" xlink:title="Base Interface used for generating output outside of the comment blocks.">
<polygon fill="white" stroke="#666666" points="136,-85 0,-85 0,-66 136,-66 136,-85"/>
<text text-anchor="middle" x="68" y="-73" font-family="Helvetica,sans-Serif" font-size="10.00">BaseOutputDocInterface</text>
</a>
</g>
</g>
<!-- Node2&#45;&gt;Node1 -->
<g id="edge1" class="edge">
<title>Node2&#45;&gt;Node1</title>
<path fill="none" stroke="#63b8ff" d="M95.36,-61.53C121.97,-48.92 161.63,-30.11 184.65,-19.2"/>
<polygon fill="#63b8ff" stroke="#63b8ff" points="93.74,-58.42 86.21,-65.87 96.74,-64.75 93.74,-58.42"/>
</g>
<!-- Node3 -->
<g id="node3" class="node">
<title>Node3</title>
<g id="a_node3"><a xlink:href="../../d2/dc1/class_s_i_data_collection.html" target="_top" xlink:title=" ">
<polygon fill="white" stroke="#666666" points="252,-85 154,-85 154,-66 252,-66 252,-85"/>
<text text-anchor="middle" x="203" y="-73" font-family="Helvetica,sans-Serif" font-size="10.00">SIDataCollection</text>
</a>
</g>
</g>
<!-- Node3&#45;&gt;Node1 -->
<g id="edge2" class="edge">
<title>Node3&#45;&gt;Node1</title>
<path fill="none" stroke="#9a32cd" stroke-dasharray="5,2" d="M203,-55.58C203,-43.63 203,-28.72 203,-19.41"/>
<polygon fill="#9a32cd" stroke="#9a32cd" points="199.5,-55.87 203,-65.87 206.5,-55.87 199.5,-55.87"/>
<text text-anchor="middle" x="240" y="-40" font-family="Helvetica,sans-Serif" font-size="10.00" fill="grey"> m_searchData</text>
</g>
<!-- Node4 -->
<g id="node4" class="node">
<title>Node4</title>
<g id="a_node4"><a xlink:href="../../db/d8e/class_output_code_list.html" target="_top" xlink:title=" ">
<polygon fill="white" stroke="#666666" points="362,-85 270,-85 270,-66 362,-66 362,-85"/>
<text text-anchor="middle" x="316" y="-73" font-family="Helvetica,sans-Serif" font-size="10.00">OutputCodeList</text>
</a>
</g>
</g>
<!-- Node4&#45;&gt;Node1 -->
<g id="edge3" class="edge">
<title>Node4&#45;&gt;Node1</title>
<path fill="none" stroke="#9a32cd" stroke-dasharray="5,2" d="M303.67,-57.96C297.54,-50.69 289.6,-42.56 281,-37 267.55,-28.31 250.93,-22.15 236.5,-17.97"/>
<polygon fill="#9a32cd" stroke="#9a32cd" points="301.01,-60.24 309.97,-65.9 306.5,-55.89 301.01,-60.24"/>
<text text-anchor="middle" x="333.5" y="-40" font-family="Helvetica,sans-Serif" font-size="10.00" fill="grey"> m_codeGenList</text>
</g>
<!-- Node5 -->
<g id="node5" class="node">
<title>Node5</title>
<g id="a_node5"><a xlink:href="../../d5/d9c/class_code_output_interface.html" target="_top" xlink:title="Output interface for code parser.">
<polygon fill="white" stroke="#666666" points="375,-141 257,-141 257,-122 375,-122 375,-141"/>
<text text-anchor="middle" x="316" y="-129" font-family="Helvetica,sans-Serif" font-size="10.00">CodeOutputInterface</text>
</a>
</g>
</g>
<!-- Node5&#45;&gt;Node4 -->
<g id="edge4" class="edge">
<title>Node5&#45;&gt;Node4</title>
<path fill="none" stroke="#63b8ff" d="M316,-111.3C316,-102.41 316,-92.28 316,-85.25"/>
<polygon fill="#63b8ff" stroke="#63b8ff" points="312.5,-111.58 316,-121.58 319.5,-111.58 312.5,-111.58"/>
</g>
</g>
</svg>
