<?xml version="1.0" encoding="UTF-8" standalone="no"?>
<!DOCTYPE svg PUBLIC "-//W3C//DTD SVG 1.1//EN"
 "http://www.w3.org/Graphics/SVG/1.1/DTD/svg11.dtd">
<!-- Generated by graphviz version 2.43.0 (0)
 -->
<!-- Title: /home/runner/work/doxygen/doxygen/src/namespacedef.h Pages: 1 -->
<!--zoomable 588 -->
<svg id="main" version="1.1" xmlns="http://www.w3.org/2000/svg" xmlns:xlink="http://www.w3.org/1999/xlink" xml:space="preserve" onload="init(evt)">
<style type="text/css"><![CDATA[
.edge:hover path { stroke: red; }
.edge:hover polygon { stroke: red; fill: red; }
]]></style>
<script type="text/javascript"><![CDATA[
var edges = document.getElementsByTagName('g');
if (edges && edges.length) {
  for (var i=0;i<edges.length;i++) {
    if (edges[i].id.substr(0,4)=='edge') {
      edges[i].setAttribute('class','edge');
    }
  }
}
]]></script>
        <defs>
                <circle id="rim" cx="0" cy="0" r="7"/>
                <circle id="rim2" cx="0" cy="0" r="3.5"/>
                <g id="zoomPlus">
                        <use xlink:href="#rim" fill="#404040">
                                <set attributeName="fill" to="#808080" begin="zoomplus.mouseover" end="zoomplus.mouseout"/>
                        </use>
                        <path d="M-4,0h8M0,-4v8" fill="none" stroke="white" stroke-width="1.5" pointer-events="none"/>
                </g>
                <g id="zoomMin">
                        <use xlink:href="#rim" fill="#404040">
                                <set attributeName="fill" to="#808080" begin="zoomminus.mouseover" end="zoomminus.mouseout"/>
                        </use>
                        <path d="M-4,0h8" fill="none" stroke="white" stroke-width="1.5" pointer-events="none"/>
                </g>
                <g id="dirArrow">
                        <path fill="none" stroke="white" stroke-width="1.5" d="M0,-3.0v7 M-2.5,-0.5L0,-3.0L2.5,-0.5"/>
                </g>
               <g id="resetDef">
                       <use xlink:href="#rim2" fill="#404040">
                               <set attributeName="fill" to="#808080" begin="reset.mouseover" end="reset.mouseout"/>
                       </use>
               </g>
        </defs>

<script type="text/javascript">
var viewWidth = 983;
var viewHeight = 588;
var sectionId = 'dynsection-0';
</script>
<script xlink:href="../../svgpan.js"/>
<svg id="graph" class="graph">
<g id="viewport">
<title>/home/runner/work/doxygen/doxygen/src/namespacedef.h</title>
<!-- Node1 -->
<g id="node1" class="node">
<title>Node1</title>
<g id="a_node1"><a xlink:title=" ">
<polygon fill="#999999" stroke="#666666" points="354,-580 192,-580 192,-550 354,-550 354,-580"/>
<text text-anchor="start" x="200" y="-568" font-family="Helvetica,sans-Serif" font-size="10.00">/home/runner/work/doxygen</text>
<text text-anchor="middle" x="273" y="-557" font-family="Helvetica,sans-Serif" font-size="10.00">/doxygen/src/namespacedef.h</text>
</a>
</g>
</g>
<!-- Node2 -->
<g id="node2" class="node">
<title>Node2</title>
<g id="a_node2"><a xlink:title=" ">
<polygon fill="#e0e0e0" stroke="#999999" points="98,-239 66,-239 66,-220 98,-220 98,-239"/>
<text text-anchor="middle" x="82" y="-227" font-family="Helvetica,sans-Serif" font-size="10.00">set</text>
</a>
</g>
</g>
<!-- Node1&#45;&gt;Node2 -->
<g id="edge1" class="edge">
<title>Node1&#45;&gt;Node2</title>
<path fill="none" stroke="#63b8ff" d="M196.14,-549.96C143.06,-535.31 82,-506.33 82,-450.5 82,-450.5 82,-450.5 82,-338.5 82,-307.19 82,-270.77 82,-249.23"/>
<polygon fill="#63b8ff" stroke="#63b8ff" points="85.5,-249.18 82,-239.18 78.5,-249.18 85.5,-249.18"/>
</g>
<!-- Node3 -->
<g id="node3" class="node">
<title>Node3</title>
<g id="a_node3"><a xlink:href="../../df/da1/definition_8h.html" target="_top" xlink:title=" ">
<polygon fill="white" stroke="#666666" points="543.5,-294 472.5,-294 472.5,-275 543.5,-275 543.5,-294"/>
<text text-anchor="middle" x="508" y="-282" font-family="Helvetica,sans-Serif" font-size="10.00">definition.h</text>
</a>
</g>
</g>
<!-- Node1&#45;&gt;Node3 -->
<g id="edge2" class="edge">
<title>Node1&#45;&gt;Node3</title>
<path fill="none" stroke="#63b8ff" d="M354.1,-552.87C412.85,-539.71 482,-511.3 482,-450.5 482,-450.5 482,-450.5 482,-393.5 482,-361.15 493.17,-324.82 500.86,-303.62"/>
<polygon fill="#63b8ff" stroke="#63b8ff" points="504.23,-304.6 504.49,-294.01 497.68,-302.13 504.23,-304.6"/>
</g>
<!-- Node19 -->
<g id="node19" class="node">
<title>Node19</title>
<g id="a_node19"><a xlink:href="../../da/de1/linkedmap_8h.html" target="_top" xlink:title=" ">
<polygon fill="white" stroke="#666666" points="301.5,-184 224.5,-184 224.5,-165 301.5,-165 301.5,-184"/>
<text text-anchor="middle" x="263" y="-172" font-family="Helvetica,sans-Serif" font-size="10.00">linkedmap.h</text>
</a>
</g>
</g>
<!-- Node1&#45;&gt;Node19 -->
<g id="edge68" class="edge">
<title>Node1&#45;&gt;Node19</title>
<path fill="none" stroke="#63b8ff" d="M191.83,-563.12C111.36,-557.44 0,-534.42 0,-450.5 0,-450.5 0,-450.5 0,-283.5 0,-191.93 138.13,-176.36 214.18,-174.73"/>
<polygon fill="#63b8ff" stroke="#63b8ff" points="214.53,-178.22 224.48,-174.58 214.43,-171.22 214.53,-178.22"/>
</g>
<!-- Node20 -->
<g id="node20" class="node">
<title>Node20</title>
<g id="a_node20"><a xlink:href="../../d4/d3a/filedef_8h.html" target="_top" xlink:title=" ">
<polygon fill="white" stroke="#666666" points="301,-514 245,-514 245,-495 301,-495 301,-514"/>
<text text-anchor="middle" x="273" y="-502" font-family="Helvetica,sans-Serif" font-size="10.00">filedef.h</text>
</a>
</g>
</g>
<!-- Node1&#45;&gt;Node20 -->
<g id="edge30" class="edge">
<title>Node1&#45;&gt;Node20</title>
<path fill="none" stroke="#63b8ff" d="M273,-549.84C273,-542.21 273,-532.7 273,-524.45"/>
<polygon fill="#63b8ff" stroke="#63b8ff" points="276.5,-524.27 273,-514.27 269.5,-524.27 276.5,-524.27"/>
</g>
<!-- Node30 -->
<g id="node30" class="node">
<title>Node30</title>
<g id="a_node30"><a xlink:href="../../d9/d11/membergroup_8h.html" target="_top" xlink:title=" ">
<polygon fill="white" stroke="#666666" points="788.5,-294 693.5,-294 693.5,-275 788.5,-275 788.5,-294"/>
<text text-anchor="middle" x="741" y="-282" font-family="Helvetica,sans-Serif" font-size="10.00">membergroup.h</text>
</a>
</g>
</g>
<!-- Node1&#45;&gt;Node30 -->
<g id="edge69" class="edge">
<title>Node1&#45;&gt;Node30</title>
<path fill="none" stroke="#63b8ff" d="M354,-564.67C512.65,-563.8 849,-550.19 849,-450.5 849,-450.5 849,-450.5 849,-393.5 849,-348.37 801.26,-315.51 769.26,-298.55"/>
<polygon fill="#63b8ff" stroke="#63b8ff" points="770.81,-295.41 760.31,-294 767.64,-301.65 770.81,-295.41"/>
</g>
<!-- Node4 -->
<g id="node4" class="node">
<title>Node4</title>
<g id="a_node4"><a xlink:title=" ">
<polygon fill="#e0e0e0" stroke="#999999" points="694.5,-129 647.5,-129 647.5,-110 694.5,-110 694.5,-129"/>
<text text-anchor="middle" x="671" y="-117" font-family="Helvetica,sans-Serif" font-size="10.00">vector</text>
</a>
</g>
</g>
<!-- Node3&#45;&gt;Node4 -->
<g id="edge3" class="edge">
<title>Node3&#45;&gt;Node4</title>
<path fill="none" stroke="#63b8ff" d="M509.35,-274.99C510.73,-266.05 512.81,-251.57 514,-239 514.77,-230.8 512.88,-171.45 518,-165 546.21,-129.46 601.08,-121.19 636.87,-119.84"/>
<polygon fill="#63b8ff" stroke="#63b8ff" points="637.39,-123.33 647.31,-119.62 637.24,-116.33 637.39,-123.33"/>
</g>
<!-- Node5 -->
<g id="node5" class="node">
<title>Node5</title>
<g id="a_node5"><a xlink:href="../../d9/d49/types_8h.html" target="_top" xlink:title="This file contains a number of basic enums and types.">
<polygon fill="white" stroke="#666666" points="505.5,-239 452.5,-239 452.5,-220 505.5,-220 505.5,-239"/>
<text text-anchor="middle" x="479" y="-227" font-family="Helvetica,sans-Serif" font-size="10.00">types.h</text>
</a>
</g>
</g>
<!-- Node3&#45;&gt;Node5 -->
<g id="edge4" class="edge">
<title>Node3&#45;&gt;Node5</title>
<path fill="none" stroke="#63b8ff" d="M503.21,-274.75C499.24,-267.49 493.47,-256.95 488.57,-247.98"/>
<polygon fill="#63b8ff" stroke="#63b8ff" points="491.57,-246.18 483.7,-239.09 485.43,-249.54 491.57,-246.18"/>
</g>
<!-- Node16 -->
<g id="node16" class="node">
<title>Node16</title>
<g id="a_node16"><a xlink:href="../../d1/d02/reflist_8h.html" target="_top" xlink:title=" ">
<polygon fill="white" stroke="#666666" points="691.5,-239 638.5,-239 638.5,-220 691.5,-220 691.5,-239"/>
<text text-anchor="middle" x="665" y="-227" font-family="Helvetica,sans-Serif" font-size="10.00">reflist.h</text>
</a>
</g>
</g>
<!-- Node3&#45;&gt;Node16 -->
<g id="edge17" class="edge">
<title>Node3&#45;&gt;Node16</title>
<path fill="none" stroke="#63b8ff" d="M533.22,-274.98C559.36,-266.16 600.4,-252.31 629.73,-242.41"/>
<polygon fill="#63b8ff" stroke="#63b8ff" points="631.22,-245.6 639.58,-239.08 628.98,-238.96 631.22,-245.6"/>
</g>
<!-- Node6 -->
<g id="node6" class="node">
<title>Node6</title>
<g id="a_node6"><a xlink:href="../../d7/d5c/qcstring_8h.html" target="_top" xlink:title=" ">
<polygon fill="white" stroke="#666666" points="540.5,-129 475.5,-129 475.5,-110 540.5,-110 540.5,-129"/>
<text text-anchor="middle" x="508" y="-117" font-family="Helvetica,sans-Serif" font-size="10.00">qcstring.h</text>
</a>
</g>
</g>
<!-- Node5&#45;&gt;Node6 -->
<g id="edge5" class="edge">
<title>Node5&#45;&gt;Node6</title>
<path fill="none" stroke="#63b8ff" d="M469.13,-219.86C456.4,-207.64 437.04,-184.59 447,-165 453.77,-151.68 466.6,-141.41 478.75,-134.1"/>
<polygon fill="#63b8ff" stroke="#63b8ff" points="480.75,-136.99 487.8,-129.09 477.36,-130.87 480.75,-136.99"/>
</g>
<!-- Node7 -->
<g id="node7" class="node">
<title>Node7</title>
<g id="a_node7"><a xlink:title=" ">
<polygon fill="#e0e0e0" stroke="#999999" points="307,-19 263,-19 263,0 307,0 307,-19"/>
<text text-anchor="middle" x="285" y="-7" font-family="Helvetica,sans-Serif" font-size="10.00">string</text>
</a>
</g>
</g>
<!-- Node6&#45;&gt;Node7 -->
<g id="edge6" class="edge">
<title>Node6&#45;&gt;Node7</title>
<path fill="none" stroke="#63b8ff" d="M484.45,-109.97C461.92,-101.58 427.15,-88.02 398,-74 365.88,-58.56 330.25,-37.92 307.75,-24.42"/>
<polygon fill="#63b8ff" stroke="#63b8ff" points="309.33,-21.29 298.96,-19.11 305.71,-27.28 309.33,-21.29"/>
</g>
<!-- Node8 -->
<g id="node8" class="node">
<title>Node8</title>
<g id="a_node8"><a xlink:title=" ">
<polygon fill="#e0e0e0" stroke="#999999" points="351,-74 287,-74 287,-55 351,-55 351,-74"/>
<text text-anchor="middle" x="319" y="-62" font-family="Helvetica,sans-Serif" font-size="10.00">algorithm</text>
</a>
</g>
</g>
<!-- Node6&#45;&gt;Node8 -->
<g id="edge7" class="edge">
<title>Node6&#45;&gt;Node8</title>
<path fill="none" stroke="#63b8ff" d="M477.63,-109.98C445.63,-101.01 395.04,-86.82 359.62,-76.89"/>
<polygon fill="#63b8ff" stroke="#63b8ff" points="360.18,-73.41 349.6,-74.08 358.29,-80.15 360.18,-73.41"/>
</g>
<!-- Node9 -->
<g id="node9" class="node">
<title>Node9</title>
<g id="a_node9"><a xlink:title=" ">
<polygon fill="#e0e0e0" stroke="#999999" points="268.5,-74 219.5,-74 219.5,-55 268.5,-55 268.5,-74"/>
<text text-anchor="middle" x="244" y="-62" font-family="Helvetica,sans-Serif" font-size="10.00">cctype</text>
</a>
</g>
</g>
<!-- Node6&#45;&gt;Node9 -->
<g id="edge8" class="edge">
<title>Node6&#45;&gt;Node9</title>
<path fill="none" stroke="#63b8ff" d="M475.13,-112.72C432.31,-105.06 354.91,-90.78 279.05,-74.13"/>
<polygon fill="#63b8ff" stroke="#63b8ff" points="279.37,-70.62 268.85,-71.88 277.85,-77.45 279.37,-70.62"/>
</g>
<!-- Node10 -->
<g id="node10" class="node">
<title>Node10</title>
<g id="a_node10"><a xlink:title=" ">
<polygon fill="#e0e0e0" stroke="#999999" points="533,-74 483,-74 483,-55 533,-55 533,-74"/>
<text text-anchor="middle" x="508" y="-62" font-family="Helvetica,sans-Serif" font-size="10.00">cstring</text>
</a>
</g>
</g>
<!-- Node6&#45;&gt;Node10 -->
<g id="edge9" class="edge">
<title>Node6&#45;&gt;Node10</title>
<path fill="none" stroke="#63b8ff" d="M508,-109.75C508,-102.8 508,-92.85 508,-84.13"/>
<polygon fill="#63b8ff" stroke="#63b8ff" points="511.5,-84.09 508,-74.09 504.5,-84.09 511.5,-84.09"/>
</g>
<!-- Node11 -->
<g id="node11" class="node">
<title>Node11</title>
<g id="a_node11"><a xlink:title=" ">
<polygon fill="#e0e0e0" stroke="#999999" points="597,-74 551,-74 551,-55 597,-55 597,-74"/>
<text text-anchor="middle" x="574" y="-62" font-family="Helvetica,sans-Serif" font-size="10.00">cstdio</text>
</a>
</g>
</g>
<!-- Node6&#45;&gt;Node11 -->
<g id="edge10" class="edge">
<title>Node6&#45;&gt;Node11</title>
<path fill="none" stroke="#63b8ff" d="M518.6,-109.98C528.46,-102.07 543.35,-90.11 555.22,-80.58"/>
<polygon fill="#63b8ff" stroke="#63b8ff" points="557.6,-83.16 563.2,-74.17 553.21,-77.7 557.6,-83.16"/>
</g>
<!-- Node12 -->
<g id="node12" class="node">
<title>Node12</title>
<g id="a_node12"><a xlink:title=" ">
<polygon fill="#e0e0e0" stroke="#999999" points="664.5,-74 615.5,-74 615.5,-55 664.5,-55 664.5,-74"/>
<text text-anchor="middle" x="640" y="-62" font-family="Helvetica,sans-Serif" font-size="10.00">cstdlib</text>
</a>
</g>
</g>
<!-- Node6&#45;&gt;Node12 -->
<g id="edge11" class="edge">
<title>Node6&#45;&gt;Node12</title>
<path fill="none" stroke="#63b8ff" d="M529.21,-109.98C550.73,-101.34 584.28,-87.87 608.83,-78.02"/>
<polygon fill="#63b8ff" stroke="#63b8ff" points="610.43,-81.14 618.41,-74.17 607.82,-74.65 610.43,-81.14"/>
</g>
<!-- Node13 -->
<g id="node13" class="node">
<title>Node13</title>
<g id="a_node13"><a xlink:title=" ">
<polygon fill="#e0e0e0" stroke="#999999" points="755,-19 705,-19 705,0 755,0 755,-19"/>
<text text-anchor="middle" x="730" y="-7" font-family="Helvetica,sans-Serif" font-size="10.00">cstdint</text>
</a>
</g>
</g>
<!-- Node6&#45;&gt;Node13 -->
<g id="edge12" class="edge">
<title>Node6&#45;&gt;Node13</title>
<path fill="none" stroke="#63b8ff" d="M540.93,-117.07C598.24,-113.82 712.53,-103.69 737,-74 747.34,-61.45 743.54,-42.45 738.41,-28.5"/>
<polygon fill="#63b8ff" stroke="#63b8ff" points="741.52,-26.88 734.43,-19.01 735.07,-29.58 741.52,-26.88"/>
</g>
<!-- Node14 -->
<g id="node14" class="node">
<title>Node14</title>
<g id="a_node14"><a xlink:title=" ">
<polygon fill="#e0e0e0" stroke="#999999" points="464.5,-74 407.5,-74 407.5,-55 464.5,-55 464.5,-74"/>
<text text-anchor="middle" x="436" y="-62" font-family="Helvetica,sans-Serif" font-size="10.00">ostream</text>
</a>
</g>
</g>
<!-- Node6&#45;&gt;Node14 -->
<g id="edge13" class="edge">
<title>Node6&#45;&gt;Node14</title>
<path fill="none" stroke="#63b8ff" d="M496.43,-109.98C485.58,-102 469.12,-89.88 456.12,-80.31"/>
<polygon fill="#63b8ff" stroke="#63b8ff" points="457.91,-77.28 447.78,-74.17 453.76,-82.92 457.91,-77.28"/>
</g>
<!-- Node15 -->
<g id="node15" class="node">
<title>Node15</title>
<g id="a_node15"><a xlink:href="../../db/d7c/utf8_8h.html" target="_top" xlink:title="Various UTF8 related helper functions.">
<polygon fill="white" stroke="#666666" points="727.5,-74 682.5,-74 682.5,-55 727.5,-55 727.5,-74"/>
<text text-anchor="middle" x="705" y="-62" font-family="Helvetica,sans-Serif" font-size="10.00">utf8.h</text>
</a>
</g>
</g>
<!-- Node6&#45;&gt;Node15 -->
<g id="edge14" class="edge">
<title>Node6&#45;&gt;Node15</title>
<path fill="none" stroke="#63b8ff" d="M540.15,-109.94C571.57,-101.56 621.04,-88.33 672.37,-74.43"/>
<polygon fill="#63b8ff" stroke="#63b8ff" points="673.58,-77.73 682.32,-71.74 671.75,-70.97 673.58,-77.73"/>
</g>
<!-- Node15&#45;&gt;Node7 -->
<g id="edge16" class="edge">
<title>Node15&#45;&gt;Node7</title>
<path fill="none" stroke="#63b8ff" d="M682.41,-56.87C679.59,-56.18 676.74,-55.53 674,-55 543.13,-29.73 384.52,-17.06 317.44,-12.52"/>
<polygon fill="#63b8ff" stroke="#63b8ff" points="317.32,-9 307.11,-11.83 316.86,-15.99 317.32,-9"/>
</g>
<!-- Node15&#45;&gt;Node13 -->
<g id="edge15" class="edge">
<title>Node15&#45;&gt;Node13</title>
<path fill="none" stroke="#63b8ff" d="M709.13,-54.75C712.51,-47.57 717.42,-37.18 721.62,-28.27"/>
<polygon fill="#63b8ff" stroke="#63b8ff" points="724.85,-29.63 725.95,-19.09 718.52,-26.64 724.85,-29.63"/>
</g>
<!-- Node16&#45;&gt;Node4 -->
<g id="edge18" class="edge">
<title>Node16&#45;&gt;Node4</title>
<path fill="none" stroke="#63b8ff" d="M665.49,-219.66C666.46,-202.17 668.65,-162.8 669.96,-139.27"/>
<polygon fill="#63b8ff" stroke="#63b8ff" points="673.46,-139.34 670.52,-129.16 666.47,-138.95 673.46,-139.34"/>
</g>
<!-- Node16&#45;&gt;Node6 -->
<g id="edge21" class="edge">
<title>Node16&#45;&gt;Node6</title>
<path fill="none" stroke="#63b8ff" d="M660.1,-219.97C652.03,-206.61 634.78,-180.66 614,-165 594.6,-150.38 569.68,-139.6 548.88,-132.32"/>
<polygon fill="#63b8ff" stroke="#63b8ff" points="549.94,-128.98 539.35,-129.12 547.71,-135.62 549.94,-128.98"/>
</g>
<!-- Node17 -->
<g id="node17" class="node">
<title>Node17</title>
<g id="a_node17"><a xlink:title=" ">
<polygon fill="#e0e0e0" stroke="#999999" points="403.5,-129 310.5,-129 310.5,-110 403.5,-110 403.5,-129"/>
<text text-anchor="middle" x="357" y="-117" font-family="Helvetica,sans-Serif" font-size="10.00">unordered_map</text>
</a>
</g>
</g>
<!-- Node16&#45;&gt;Node17 -->
<g id="edge19" class="edge">
<title>Node16&#45;&gt;Node17</title>
<path fill="none" stroke="#63b8ff" d="M638.23,-221.11C608.61,-212.76 559.55,-198.46 518,-184 471.45,-167.8 418.45,-146.29 386.38,-132.93"/>
<polygon fill="#63b8ff" stroke="#63b8ff" points="387.71,-129.69 377.13,-129.06 385.01,-136.15 387.71,-129.69"/>
</g>
<!-- Node18 -->
<g id="node18" class="node">
<title>Node18</title>
<g id="a_node18"><a xlink:title=" ">
<polygon fill="#e0e0e0" stroke="#999999" points="833,-129 775,-129 775,-110 833,-110 833,-129"/>
<text text-anchor="middle" x="804" y="-117" font-family="Helvetica,sans-Serif" font-size="10.00">memory</text>
</a>
</g>
</g>
<!-- Node16&#45;&gt;Node18 -->
<g id="edge20" class="edge">
<title>Node16&#45;&gt;Node18</title>
<path fill="none" stroke="#63b8ff" d="M676.37,-219.66C700.11,-201.22 755.16,-158.45 784.6,-135.57"/>
<polygon fill="#63b8ff" stroke="#63b8ff" points="787.11,-138.06 792.86,-129.16 782.81,-132.53 787.11,-138.06"/>
</g>
<!-- Node16&#45;&gt;Node19 -->
<g id="edge22" class="edge">
<title>Node16&#45;&gt;Node19</title>
<path fill="none" stroke="#63b8ff" d="M638.31,-224.98C571.67,-216.19 397.17,-193.19 311.65,-181.91"/>
<polygon fill="#63b8ff" stroke="#63b8ff" points="312.05,-178.44 301.68,-180.6 311.14,-185.38 312.05,-178.44"/>
</g>
<!-- Node19&#45;&gt;Node4 -->
<g id="edge24" class="edge">
<title>Node19&#45;&gt;Node4</title>
<path fill="none" stroke="#63b8ff" d="M301.75,-168.47C381.19,-158.15 561.35,-134.74 636.78,-124.94"/>
<polygon fill="#63b8ff" stroke="#63b8ff" points="637.66,-128.36 647.13,-123.6 636.76,-121.42 637.66,-128.36"/>
</g>
<!-- Node19&#45;&gt;Node6 -->
<g id="edge29" class="edge">
<title>Node19&#45;&gt;Node6</title>
<path fill="none" stroke="#63b8ff" d="M301.55,-165.16C346.03,-155.54 418.95,-139.76 465.16,-129.77"/>
<polygon fill="#63b8ff" stroke="#63b8ff" points="466.13,-133.14 475.16,-127.6 464.65,-126.3 466.13,-133.14"/>
</g>
<!-- Node19&#45;&gt;Node7 -->
<g id="edge26" class="edge">
<title>Node19&#45;&gt;Node7</title>
<path fill="none" stroke="#63b8ff" d="M253.61,-164.89C233.04,-144.97 187.58,-94.36 210,-55 219.31,-38.66 237.24,-27.7 253.24,-20.74"/>
<polygon fill="#63b8ff" stroke="#63b8ff" points="254.85,-23.87 262.85,-16.92 252.27,-17.36 254.85,-23.87"/>
</g>
<!-- Node19&#45;&gt;Node8 -->
<g id="edge27" class="edge">
<title>Node19&#45;&gt;Node8</title>
<path fill="none" stroke="#63b8ff" d="M267.58,-164.66C276.78,-146.93 297.62,-106.73 309.76,-83.32"/>
<polygon fill="#63b8ff" stroke="#63b8ff" points="313.01,-84.65 314.51,-74.16 306.8,-81.42 313.01,-84.65"/>
</g>
<!-- Node19&#45;&gt;Node9 -->
<g id="edge28" class="edge">
<title>Node19&#45;&gt;Node9</title>
<path fill="none" stroke="#63b8ff" d="M261.45,-164.66C258.37,-147.17 251.44,-107.8 247.3,-84.27"/>
<polygon fill="#63b8ff" stroke="#63b8ff" points="250.7,-83.4 245.52,-74.16 243.81,-84.61 250.7,-83.4"/>
</g>
<!-- Node19&#45;&gt;Node17 -->
<g id="edge23" class="edge">
<title>Node19&#45;&gt;Node17</title>
<path fill="none" stroke="#63b8ff" d="M278.1,-164.98C292.82,-156.69 315.42,-143.94 332.67,-134.22"/>
<polygon fill="#63b8ff" stroke="#63b8ff" points="334.63,-137.13 341.62,-129.17 331.19,-131.03 334.63,-137.13"/>
</g>
<!-- Node19&#45;&gt;Node18 -->
<g id="edge25" class="edge">
<title>Node19&#45;&gt;Node18</title>
<path fill="none" stroke="#63b8ff" d="M301.91,-169.69C401.59,-159.92 665.3,-134.09 765.04,-124.32"/>
<polygon fill="#63b8ff" stroke="#63b8ff" points="765.39,-127.8 775,-123.34 764.7,-120.83 765.39,-127.8"/>
</g>
<!-- Node20&#45;&gt;Node2 -->
<g id="edge31" class="edge">
<title>Node20&#45;&gt;Node2</title>
<path fill="none" stroke="#63b8ff" d="M251.64,-495C218.38,-480.19 158,-446.31 158,-395.5 158,-395.5 158,-395.5 158,-338.5 158,-299.47 124.39,-264.58 101.87,-245.6"/>
<polygon fill="#63b8ff" stroke="#63b8ff" points="103.85,-242.7 93.88,-239.12 99.44,-248.14 103.85,-242.7"/>
</g>
<!-- Node20&#45;&gt;Node3 -->
<g id="edge32" class="edge">
<title>Node20&#45;&gt;Node3</title>
<path fill="none" stroke="#63b8ff" d="M282.21,-494.95C317.6,-462.13 445.1,-343.85 491.21,-301.08"/>
<polygon fill="#63b8ff" stroke="#63b8ff" points="493.65,-303.59 498.6,-294.22 488.88,-298.46 493.65,-303.59"/>
</g>
<!-- Node21 -->
<g id="node21" class="node">
<title>Node21</title>
<g id="a_node21"><a xlink:href="../../dd/d78/memberlist_8h.html" target="_top" xlink:title=" ">
<polygon fill="white" stroke="#666666" points="686,-459 604,-459 604,-440 686,-440 686,-459"/>
<text text-anchor="middle" x="645" y="-447" font-family="Helvetica,sans-Serif" font-size="10.00">memberlist.h</text>
</a>
</g>
</g>
<!-- Node20&#45;&gt;Node21 -->
<g id="edge33" class="edge">
<title>Node20&#45;&gt;Node21</title>
<path fill="none" stroke="#63b8ff" d="M301.27,-499.47C363.66,-490.58 513.92,-469.18 593.52,-457.83"/>
<polygon fill="#63b8ff" stroke="#63b8ff" points="594.39,-461.25 603.8,-456.37 593.4,-454.32 594.39,-461.25"/>
</g>
<!-- Node26 -->
<g id="node26" class="node">
<title>Node26</title>
<g id="a_node26"><a xlink:href="../../d5/d75/containers_8h.html" target="_top" xlink:title=" ">
<polygon fill="white" stroke="#666666" points="301.5,-294 224.5,-294 224.5,-275 301.5,-275 301.5,-294"/>
<text text-anchor="middle" x="263" y="-282" font-family="Helvetica,sans-Serif" font-size="10.00">containers.h</text>
</a>
</g>
</g>
<!-- Node20&#45;&gt;Node26 -->
<g id="edge67" class="edge">
<title>Node20&#45;&gt;Node26</title>
<path fill="none" stroke="#63b8ff" d="M272.61,-494.95C271.14,-462.95 265.94,-349.68 263.87,-304.4"/>
<polygon fill="#63b8ff" stroke="#63b8ff" points="267.35,-304.05 263.4,-294.22 260.36,-304.37 267.35,-304.05"/>
</g>
<!-- Node21&#45;&gt;Node4 -->
<g id="edge34" class="edge">
<title>Node21&#45;&gt;Node4</title>
<path fill="none" stroke="#63b8ff" d="M686.01,-441.51C763.79,-427.09 925,-391.1 925,-340.5 925,-340.5 925,-340.5 925,-283.5 925,-180.09 774.02,-139.24 704.87,-125.96"/>
<polygon fill="#63b8ff" stroke="#63b8ff" points="705.36,-122.49 694.9,-124.13 704.1,-129.38 705.36,-122.49"/>
</g>
<!-- Node21&#45;&gt;Node5 -->
<g id="edge65" class="edge">
<title>Node21&#45;&gt;Node5</title>
<path fill="none" stroke="#63b8ff" d="M625.02,-439.99C592.63,-425.38 528.17,-392.83 487,-349 462.7,-323.13 448.92,-309.56 457,-275 459.2,-265.57 463.71,-255.85 468.07,-247.91"/>
<polygon fill="#63b8ff" stroke="#63b8ff" points="471.12,-249.64 473.16,-239.24 465.08,-246.09 471.12,-249.64"/>
</g>
<!-- Node21&#45;&gt;Node8 -->
<g id="edge35" class="edge">
<title>Node21&#45;&gt;Node8</title>
<path fill="none" stroke="#63b8ff" d="M686.13,-443.83C774.59,-432.63 975,-400.63 975,-340.5 975,-340.5 975,-340.5 975,-173.5 975,-108 905.25,-127.04 842,-110 650.84,-58.5 595.11,-92.59 398,-74 386.1,-72.88 373.21,-71.54 361.36,-70.27"/>
<polygon fill="#63b8ff" stroke="#63b8ff" points="361.59,-66.77 351.27,-69.17 360.83,-73.73 361.59,-66.77"/>
</g>
<!-- Node21&#45;&gt;Node19 -->
<g id="edge64" class="edge">
<title>Node21&#45;&gt;Node19</title>
<path fill="none" stroke="#63b8ff" d="M603.82,-449.28C490.99,-448.86 177.33,-429.93 57,-239 52.5,-231.86 51.7,-226.57 57,-220 76.37,-195.99 159.61,-184.3 214.17,-179.12"/>
<polygon fill="#63b8ff" stroke="#63b8ff" points="214.69,-182.59 224.33,-178.2 214.06,-175.62 214.69,-182.59"/>
</g>
<!-- Node22 -->
<g id="node22" class="node">
<title>Node22</title>
<g id="a_node22"><a xlink:href="../../d4/d46/memberdef_8h.html" target="_top" xlink:title=" ">
<polygon fill="white" stroke="#666666" points="686,-404 604,-404 604,-385 686,-385 686,-404"/>
<text text-anchor="middle" x="645" y="-392" font-family="Helvetica,sans-Serif" font-size="10.00">memberdef.h</text>
</a>
</g>
</g>
<!-- Node21&#45;&gt;Node22 -->
<g id="edge36" class="edge">
<title>Node21&#45;&gt;Node22</title>
<path fill="none" stroke="#63b8ff" d="M645,-439.75C645,-432.8 645,-422.85 645,-414.13"/>
<polygon fill="#63b8ff" stroke="#63b8ff" points="648.5,-414.09 645,-404.09 641.5,-414.09 648.5,-414.09"/>
</g>
<!-- Node21&#45;&gt;Node30 -->
<g id="edge66" class="edge">
<title>Node21&#45;&gt;Node30</title>
<path fill="none" stroke="#63b8ff" d="M661.14,-439.82C686.59,-425.07 735.1,-392.47 754,-349 760.37,-334.34 755.67,-316.4 750.23,-303.34"/>
<polygon fill="#63b8ff" stroke="#63b8ff" points="753.29,-301.64 745.89,-294.06 746.95,-304.6 753.29,-301.64"/>
</g>
<!-- Node22&#45;&gt;Node3 -->
<g id="edge41" class="edge">
<title>Node22&#45;&gt;Node3</title>
<path fill="none" stroke="#63b8ff" d="M608.39,-384.86C586.4,-378.13 559.08,-366.86 540,-349 526.79,-336.63 518.21,-317.6 513.3,-303.59"/>
<polygon fill="#63b8ff" stroke="#63b8ff" points="516.62,-302.51 510.23,-294.06 509.96,-304.65 516.62,-302.51"/>
</g>
<!-- Node22&#45;&gt;Node4 -->
<g id="edge37" class="edge">
<title>Node22&#45;&gt;Node4</title>
<path fill="none" stroke="#63b8ff" d="M677.74,-384.92C700.63,-377.83 731.08,-366.13 754,-349 779.07,-330.26 787.64,-323.54 798,-294 815.79,-243.29 777.1,-204.43 741,-165 729.23,-152.14 712.94,-141.49 699.03,-133.84"/>
<polygon fill="#63b8ff" stroke="#63b8ff" points="700.35,-130.58 689.87,-129.03 697.1,-136.78 700.35,-130.58"/>
</g>
<!-- Node22&#45;&gt;Node5 -->
<g id="edge40" class="edge">
<title>Node22&#45;&gt;Node5</title>
<path fill="none" stroke="#63b8ff" d="M603.74,-386.01C557.81,-375.06 486.89,-349.58 463,-294 456.63,-279.18 462.23,-261.29 468.49,-248.28"/>
<polygon fill="#63b8ff" stroke="#63b8ff" points="471.6,-249.89 473.22,-239.41 465.43,-246.59 471.6,-249.89"/>
</g>
<!-- Node22&#45;&gt;Node18 -->
<g id="edge38" class="edge">
<title>Node22&#45;&gt;Node18</title>
<path fill="none" stroke="#63b8ff" d="M686.24,-387.31C714.67,-381.35 752.03,-370.03 779,-349 801.85,-331.18 805.9,-321.82 814,-294 829.92,-239.32 816.93,-170.96 809,-138.81"/>
<polygon fill="#63b8ff" stroke="#63b8ff" points="812.37,-137.83 806.47,-129.03 805.59,-139.59 812.37,-137.83"/>
</g>
<!-- Node23 -->
<g id="node23" class="node">
<title>Node23</title>
<g id="a_node23"><a xlink:title=" ">
<polygon fill="#e0e0e0" stroke="#999999" points="745,-349 673,-349 673,-330 745,-330 745,-349"/>
<text text-anchor="middle" x="709" y="-337" font-family="Helvetica,sans-Serif" font-size="10.00">sys/types.h</text>
</a>
</g>
</g>
<!-- Node22&#45;&gt;Node23 -->
<g id="edge39" class="edge">
<title>Node22&#45;&gt;Node23</title>
<path fill="none" stroke="#63b8ff" d="M655.28,-384.98C664.84,-377.07 679.28,-365.11 690.78,-355.58"/>
<polygon fill="#63b8ff" stroke="#63b8ff" points="693.06,-358.24 698.53,-349.17 688.6,-352.85 693.06,-358.24"/>
</g>
<!-- Node24 -->
<g id="node24" class="node">
<title>Node24</title>
<g id="a_node24"><a xlink:href="../../df/d9b/arguments_8h.html" target="_top" xlink:title=" ">
<polygon fill="white" stroke="#666666" points="605,-184 527,-184 527,-165 605,-165 605,-184"/>
<text text-anchor="middle" x="566" y="-172" font-family="Helvetica,sans-Serif" font-size="10.00">arguments.h</text>
</a>
</g>
</g>
<!-- Node22&#45;&gt;Node24 -->
<g id="edge42" class="edge">
<title>Node22&#45;&gt;Node24</title>
<path fill="none" stroke="#63b8ff" d="M642.1,-384.78C633.59,-359.28 607.78,-282.69 584,-220 580.71,-211.33 576.88,-201.79 573.6,-193.78"/>
<polygon fill="#63b8ff" stroke="#63b8ff" points="576.75,-192.23 569.7,-184.32 570.28,-194.9 576.75,-192.23"/>
</g>
<!-- Node25 -->
<g id="node25" class="node">
<title>Node25</title>
<g id="a_node25"><a xlink:href="../../d1/da6/classdef_8h.html" target="_top" xlink:title=" ">
<polygon fill="white" stroke="#666666" points="613.5,-349 548.5,-349 548.5,-330 613.5,-330 613.5,-349"/>
<text text-anchor="middle" x="581" y="-337" font-family="Helvetica,sans-Serif" font-size="10.00">classdef.h</text>
</a>
</g>
</g>
<!-- Node22&#45;&gt;Node25 -->
<g id="edge45" class="edge">
<title>Node22&#45;&gt;Node25</title>
<path fill="none" stroke="#63b8ff" d="M634.72,-384.98C625.16,-377.07 610.72,-365.11 599.22,-355.58"/>
<polygon fill="#63b8ff" stroke="#63b8ff" points="601.4,-352.85 591.47,-349.17 596.94,-358.24 601.4,-352.85"/>
</g>
<!-- Node24&#45;&gt;Node4 -->
<g id="edge43" class="edge">
<title>Node24&#45;&gt;Node4</title>
<path fill="none" stroke="#63b8ff" d="M582.87,-164.98C599.61,-156.54 625.5,-143.47 644.89,-133.68"/>
<polygon fill="#63b8ff" stroke="#63b8ff" points="646.47,-136.8 653.82,-129.17 643.32,-130.55 646.47,-136.8"/>
</g>
<!-- Node24&#45;&gt;Node6 -->
<g id="edge44" class="edge">
<title>Node24&#45;&gt;Node6</title>
<path fill="none" stroke="#63b8ff" d="M556.68,-164.98C548.19,-157.23 535.44,-145.58 525.12,-136.14"/>
<polygon fill="#63b8ff" stroke="#63b8ff" points="527.23,-133.33 517.49,-129.17 522.51,-138.5 527.23,-133.33"/>
</g>
<!-- Node25&#45;&gt;Node2 -->
<g id="edge47" class="edge">
<title>Node25&#45;&gt;Node2</title>
<path fill="none" stroke="#63b8ff" d="M548.48,-338.05C483.71,-336.4 334.54,-328.79 215,-294 203.94,-290.78 142.63,-260.67 107.24,-243.1"/>
<polygon fill="#63b8ff" stroke="#63b8ff" points="108.52,-239.82 98.01,-238.5 105.4,-246.09 108.52,-239.82"/>
</g>
<!-- Node25&#45;&gt;Node3 -->
<g id="edge56" class="edge">
<title>Node25&#45;&gt;Node3</title>
<path fill="none" stroke="#63b8ff" d="M569.27,-329.98C558.27,-322 541.58,-309.88 528.4,-300.31"/>
<polygon fill="#63b8ff" stroke="#63b8ff" points="530.09,-297.21 519.94,-294.17 525.98,-302.88 530.09,-297.21"/>
</g>
<!-- Node25&#45;&gt;Node4 -->
<g id="edge46" class="edge">
<title>Node25&#45;&gt;Node4</title>
<path fill="none" stroke="#63b8ff" d="M599.57,-329.78C627.67,-315.41 679.94,-283.82 701,-239 716.94,-205.07 696.6,-161.54 682.45,-137.81"/>
<polygon fill="#63b8ff" stroke="#63b8ff" points="685.34,-135.83 677.07,-129.21 679.41,-139.55 685.34,-135.83"/>
</g>
<!-- Node25&#45;&gt;Node24 -->
<g id="edge57" class="edge">
<title>Node25&#45;&gt;Node24</title>
<path fill="none" stroke="#63b8ff" d="M580.19,-329.74C577.85,-304.31 571.02,-230.08 567.77,-194.69"/>
<polygon fill="#63b8ff" stroke="#63b8ff" points="571.21,-193.94 566.81,-184.31 564.24,-194.59 571.21,-193.94"/>
</g>
<!-- Node25&#45;&gt;Node26 -->
<g id="edge48" class="edge">
<title>Node25&#45;&gt;Node26</title>
<path fill="none" stroke="#63b8ff" d="M548.46,-333.08C492.42,-323.74 377.38,-304.56 311.73,-293.62"/>
<polygon fill="#63b8ff" stroke="#63b8ff" points="312.08,-290.13 301.64,-291.94 310.93,-297.04 312.08,-290.13"/>
</g>
<!-- Node25&#45;&gt;Node30 -->
<g id="edge58" class="edge">
<title>Node25&#45;&gt;Node30</title>
<path fill="none" stroke="#63b8ff" d="M606.71,-329.98C633.45,-321.13 675.53,-307.19 705.45,-297.28"/>
<polygon fill="#63b8ff" stroke="#63b8ff" points="706.7,-300.55 715.09,-294.08 704.5,-293.9 706.7,-300.55"/>
</g>
<!-- Node26&#45;&gt;Node2 -->
<g id="edge51" class="edge">
<title>Node26&#45;&gt;Node2</title>
<path fill="none" stroke="#63b8ff" d="M233.92,-274.98C199.11,-264.79 141.36,-247.88 107.98,-238.11"/>
<polygon fill="#63b8ff" stroke="#63b8ff" points="108.65,-234.66 98.07,-235.2 106.68,-241.37 108.65,-234.66"/>
</g>
<!-- Node26&#45;&gt;Node4 -->
<g id="edge49" class="edge">
<title>Node26&#45;&gt;Node4</title>
<path fill="none" stroke="#63b8ff" d="M278.91,-274.99C302.37,-262.53 347.71,-238.75 387,-220 441.41,-194.03 454.25,-185.35 511,-165 553.86,-149.63 604.72,-136.29 637.41,-128.32"/>
<polygon fill="#63b8ff" stroke="#63b8ff" points="638.44,-131.67 647.35,-125.93 636.8,-124.87 638.44,-131.67"/>
</g>
<!-- Node26&#45;&gt;Node7 -->
<g id="edge50" class="edge">
<title>Node26&#45;&gt;Node7</title>
<path fill="none" stroke="#63b8ff" d="M224.31,-278C198.52,-272.38 165.68,-261.18 145,-239 124.91,-217.45 126,-204.96 126,-175.5 126,-175.5 126,-175.5 126,-118.5 126,-57.69 206.56,-28.73 252.99,-17.09"/>
<polygon fill="#63b8ff" stroke="#63b8ff" points="253.97,-20.45 262.89,-14.74 252.35,-13.64 253.97,-20.45"/>
</g>
<!-- Node26&#45;&gt;Node17 -->
<g id="edge54" class="edge">
<title>Node26&#45;&gt;Node17</title>
<path fill="none" stroke="#63b8ff" d="M275.1,-274.83C285.79,-266.64 301.17,-253.48 311,-239 332.72,-207.02 346.26,-163.32 352.64,-138.92"/>
<polygon fill="#63b8ff" stroke="#63b8ff" points="356.04,-139.72 355.07,-129.17 349.25,-138.03 356.04,-139.72"/>
</g>
<!-- Node27 -->
<g id="node27" class="node">
<title>Node27</title>
<g id="a_node27"><a xlink:title=" ">
<polygon fill="#e0e0e0" stroke="#999999" points="434,-239 396,-239 396,-220 434,-220 434,-239"/>
<text text-anchor="middle" x="415" y="-227" font-family="Helvetica,sans-Serif" font-size="10.00">map</text>
</a>
</g>
</g>
<!-- Node26&#45;&gt;Node27 -->
<g id="edge52" class="edge">
<title>Node26&#45;&gt;Node27</title>
<path fill="none" stroke="#63b8ff" d="M287.42,-274.98C314.33,-265.6 357.57,-250.53 386.13,-240.57"/>
<polygon fill="#63b8ff" stroke="#63b8ff" points="387.64,-243.75 395.93,-237.15 385.34,-237.14 387.64,-243.75"/>
</g>
<!-- Node28 -->
<g id="node28" class="node">
<title>Node28</title>
<g id="a_node28"><a xlink:title=" ">
<polygon fill="#e0e0e0" stroke="#999999" points="302,-239 216,-239 216,-220 302,-220 302,-239"/>
<text text-anchor="middle" x="259" y="-227" font-family="Helvetica,sans-Serif" font-size="10.00">unordered_set</text>
</a>
</g>
</g>
<!-- Node26&#45;&gt;Node28 -->
<g id="edge53" class="edge">
<title>Node26&#45;&gt;Node28</title>
<path fill="none" stroke="#63b8ff" d="M262.34,-274.75C261.82,-267.8 261.06,-257.85 260.41,-249.13"/>
<polygon fill="#63b8ff" stroke="#63b8ff" points="263.89,-248.8 259.65,-239.09 256.91,-249.32 263.89,-248.8"/>
</g>
<!-- Node29 -->
<g id="node29" class="node">
<title>Node29</title>
<g id="a_node29"><a xlink:title=" ">
<polygon fill="#e0e0e0" stroke="#999999" points="197.5,-239 154.5,-239 154.5,-220 197.5,-220 197.5,-239"/>
<text text-anchor="middle" x="176" y="-227" font-family="Helvetica,sans-Serif" font-size="10.00">stack</text>
</a>
</g>
</g>
<!-- Node26&#45;&gt;Node29 -->
<g id="edge55" class="edge">
<title>Node26&#45;&gt;Node29</title>
<path fill="none" stroke="#63b8ff" d="M249.02,-274.98C235.53,-266.77 214.87,-254.18 198.96,-244.49"/>
<polygon fill="#63b8ff" stroke="#63b8ff" points="200.59,-241.38 190.23,-239.17 196.95,-247.36 200.59,-241.38"/>
</g>
<!-- Node30&#45;&gt;Node4 -->
<g id="edge59" class="edge">
<title>Node30&#45;&gt;Node4</title>
<path fill="none" stroke="#63b8ff" d="M741.77,-274.75C743.17,-254.08 744.26,-201.26 723,-165 715.96,-152.99 704.47,-142.65 694.08,-134.97"/>
<polygon fill="#63b8ff" stroke="#63b8ff" points="695.94,-132 685.73,-129.16 691.94,-137.74 695.94,-132"/>
</g>
<!-- Node30&#45;&gt;Node5 -->
<g id="edge62" class="edge">
<title>Node30&#45;&gt;Node5</title>
<path fill="none" stroke="#63b8ff" d="M698.91,-274.98C648.23,-264.73 563.96,-247.69 515.79,-237.94"/>
<polygon fill="#63b8ff" stroke="#63b8ff" points="516.29,-234.47 505.79,-235.92 514.9,-241.33 516.29,-234.47"/>
</g>
<!-- Node30&#45;&gt;Node16 -->
<g id="edge63" class="edge">
<title>Node30&#45;&gt;Node16</title>
<path fill="none" stroke="#63b8ff" d="M728.79,-274.98C717.22,-266.92 699.62,-254.65 685.84,-245.03"/>
<polygon fill="#63b8ff" stroke="#63b8ff" points="687.64,-242.02 677.43,-239.17 683.63,-247.76 687.64,-242.02"/>
</g>
<!-- Node30&#45;&gt;Node18 -->
<g id="edge61" class="edge">
<title>Node30&#45;&gt;Node18</title>
<path fill="none" stroke="#63b8ff" d="M748.16,-274.9C761.3,-258.48 788.85,-221.03 799,-184 802.98,-169.47 804.14,-152.41 804.36,-139.64"/>
<polygon fill="#63b8ff" stroke="#63b8ff" points="807.86,-139.3 804.34,-129.31 800.86,-139.31 807.86,-139.3"/>
</g>
<!-- Node30&#45;&gt;Node27 -->
<g id="edge60" class="edge">
<title>Node30&#45;&gt;Node27</title>
<path fill="none" stroke="#63b8ff" d="M693.38,-278.57C636.24,-272.17 537.44,-259.58 444.07,-238.95"/>
<polygon fill="#63b8ff" stroke="#63b8ff" points="444.7,-235.5 434.18,-236.73 443.17,-242.33 444.7,-235.5"/>
</g>
</g>
</svg>
        <g id="navigator" transform="translate(0 0)" fill="#404254">
                <rect fill="#f2f5e9" fill-opacity="0.5" stroke="#606060" stroke-width=".5" x="0" y="0" width="60" height="60"/>
                <use id="zoomplus" xlink:href="#zoomPlus" x="17" y="9" onmousedown="handleZoom(evt,'in')"/>
                <use id="zoomminus" xlink:href="#zoomMin" x="42" y="9" onmousedown="handleZoom(evt,'out')"/>
                <use id="reset" xlink:href="#resetDef" x="30" y="36" onmousedown="handleReset()"/>
                <g id="arrowUp" xlink:href="#dirArrow" transform="translate(30 24)" onmousedown="handlePan(0,-1)">
                  <use xlink:href="#rim" fill="#404040">
                        <set attributeName="fill" to="#808080" begin="arrowUp.mouseover" end="arrowUp.mouseout"/>
                  </use>
                  <path fill="none" stroke="white" stroke-width="1.5" d="M0,-3.0v7 M-2.5,-0.5L0,-3.0L2.5,-0.5"/>
                </g>
                <g id="arrowRight" xlink:href="#dirArrow" transform="rotate(90) translate(36 -43)" onmousedown="handlePan(1,0)">
                  <use xlink:href="#rim" fill="#404040">
                        <set attributeName="fill" to="#808080" begin="arrowRight.mouseover" end="arrowRight.mouseout"/>
                  </use>
                  <path fill="none" stroke="white" stroke-width="1.5" d="M0,-3.0v7 M-2.5,-0.5L0,-3.0L2.5,-0.5"/>
                </g>
                <g id="arrowDown" xlink:href="#dirArrow" transform="rotate(180) translate(-30 -48)" onmousedown="handlePan(0,1)">
                  <use xlink:href="#rim" fill="#404040">
                        <set attributeName="fill" to="#808080" begin="arrowDown.mouseover" end="arrowDown.mouseout"/>
                  </use>
                  <path fill="none" stroke="white" stroke-width="1.5" d="M0,-3.0v7 M-2.5,-0.5L0,-3.0L2.5,-0.5"/>
                </g>
                <g id="arrowLeft" xlink:href="#dirArrow" transform="rotate(270) translate(-36 17)" onmousedown="handlePan(-1,0)">
                  <use xlink:href="#rim" fill="#404040">
                        <set attributeName="fill" to="#808080" begin="arrowLeft.mouseover" end="arrowLeft.mouseout"/>
                  </use>
                  <path fill="none" stroke="white" stroke-width="1.5" d="M0,-3.0v7 M-2.5,-0.5L0,-3.0L2.5,-0.5"/>
                </g>
        </g>
        <svg viewBox="0 0 15 15" width="100%" height="30px" preserveAspectRatio="xMaxYMin meet">
         <g id="arrow_out" transform="scale(0.3 0.3)">
          <a xlink:href="namespacedef_8h__incl_org.svg" target="_base">
           <rect id="button" ry="5" rx="5" y="6" x="6" height="38" width="38"
                fill="#f2f5e9" fill-opacity="0.5" stroke="#606060" stroke-width="1.0"/>
           <path id="arrow"
             d="M 11.500037,31.436501 C 11.940474,20.09759 22.043105,11.32322 32.158766,21.979434 L 37.068811,17.246167 C 37.068811,17.246167 37.088388,32 37.088388,32 L 22.160133,31.978069 C 22.160133,31.978069 26.997745,27.140456 26.997745,27.140456 C 18.528582,18.264221 13.291696,25.230495 11.500037,31.436501 z"
             style="fill:#404040;"/>
          </a>
         </g>
        </svg>
</svg>
