<?xml version="1.0" encoding="UTF-8" standalone="no"?>
<!DOCTYPE svg PUBLIC "-//W3C//DTD SVG 1.1//EN"
 "http://www.w3.org/Graphics/SVG/1.1/DTD/svg11.dtd">
<!-- Generated by graphviz version 2.43.0 (0)
 -->
<!-- Title: /home/runner/work/doxygen/doxygen/src/configimpl.h Pages: 1 -->
<!--zoomable 203 -->
<svg id="main" version="1.1" xmlns="http://www.w3.org/2000/svg" xmlns:xlink="http://www.w3.org/1999/xlink" xml:space="preserve" onload="init(evt)">
<style type="text/css"><![CDATA[
.edge:hover path { stroke: red; }
.edge:hover polygon { stroke: red; fill: red; }
]]></style>
<script type="text/javascript"><![CDATA[
var edges = document.getElementsByTagName('g');
if (edges && edges.length) {
  for (var i=0;i<edges.length;i++) {
    if (edges[i].id.substr(0,4)=='edge') {
      edges[i].setAttribute('class','edge');
    }
  }
}
]]></script>
        <defs>
                <circle id="rim" cx="0" cy="0" r="7"/>
                <circle id="rim2" cx="0" cy="0" r="3.5"/>
                <g id="zoomPlus">
                        <use xlink:href="#rim" fill="#404040">
                                <set attributeName="fill" to="#808080" begin="zoomplus.mouseover" end="zoomplus.mouseout"/>
                        </use>
                        <path d="M-4,0h8M0,-4v8" fill="none" stroke="white" stroke-width="1.5" pointer-events="none"/>
                </g>
                <g id="zoomMin">
                        <use xlink:href="#rim" fill="#404040">
                                <set attributeName="fill" to="#808080" begin="zoomminus.mouseover" end="zoomminus.mouseout"/>
                        </use>
                        <path d="M-4,0h8" fill="none" stroke="white" stroke-width="1.5" pointer-events="none"/>
                </g>
                <g id="dirArrow">
                        <path fill="none" stroke="white" stroke-width="1.5" d="M0,-3.0v7 M-2.5,-0.5L0,-3.0L2.5,-0.5"/>
                </g>
               <g id="resetDef">
                       <use xlink:href="#rim2" fill="#404040">
                               <set attributeName="fill" to="#808080" begin="reset.mouseover" end="reset.mouseout"/>
                       </use>
               </g>
        </defs>

<script type="text/javascript">
var viewWidth = 1166;
var viewHeight = 203;
var sectionId = 'dynsection-0';
</script>
<script xlink:href="../../svgpan.js"/>
<svg id="graph" class="graph">
<g id="viewport">
<title>/home/runner/work/doxygen/doxygen/src/configimpl.h</title>
<!-- Node1 -->
<g id="node1" class="node">
<title>Node1</title>
<g id="a_node1"><a xlink:title=" ">
<polygon fill="#999999" stroke="#666666" points="260.25,-195 106.25,-195 106.25,-165 260.25,-165 260.25,-195"/>
<text text-anchor="start" x="114.25" y="-183" font-family="Helvetica,sans-Serif" font-size="10.00">/home/runner/work/doxygen</text>
<text text-anchor="middle" x="183.25" y="-172" font-family="Helvetica,sans-Serif" font-size="10.00">/doxygen/src/configimpl.h</text>
</a>
</g>
</g>
<!-- Node2 -->
<g id="node2" class="node">
<title>Node2</title>
<g id="a_node2"><a xlink:title=" ">
<polygon fill="#e0e0e0" stroke="#999999" points="67.75,-74 20.75,-74 20.75,-55 67.75,-55 67.75,-74"/>
<text text-anchor="middle" x="44.25" y="-62" font-family="Helvetica,sans-Serif" font-size="10.00">vector</text>
</a>
</g>
</g>
<!-- Node1&#45;&gt;Node2 -->
<g id="edge1" class="edge">
<title>Node1&#45;&gt;Node2</title>
<path fill="none" stroke="#63b8ff" d="M155.31,-164.97C138.51,-155.88 117.17,-143.11 100.25,-129 83.39,-114.94 67.15,-95.69 56.54,-82.07"/>
<polygon fill="#63b8ff" stroke="#63b8ff" points="59.27,-79.89 50.43,-74.06 53.71,-84.13 59.27,-79.89"/>
</g>
<!-- Node3 -->
<g id="node3" class="node">
<title>Node3</title>
<g id="a_node3"><a xlink:title=" ">
<polygon fill="#e0e0e0" stroke="#999999" points="178.75,-74 85.75,-74 85.75,-55 178.75,-55 178.75,-74"/>
<text text-anchor="middle" x="132.25" y="-62" font-family="Helvetica,sans-Serif" font-size="10.00">unordered_map</text>
</a>
</g>
</g>
<!-- Node1&#45;&gt;Node3 -->
<g id="edge2" class="edge">
<title>Node1&#45;&gt;Node3</title>
<path fill="none" stroke="#63b8ff" d="M147.72,-164.96C132.36,-156.9 115.94,-145.13 107.25,-129 99.02,-113.75 108.36,-95.2 117.87,-82.1"/>
<polygon fill="#63b8ff" stroke="#63b8ff" points="120.81,-84.02 124.27,-74 115.32,-79.68 120.81,-84.02"/>
</g>
<!-- Node4 -->
<g id="node4" class="node">
<title>Node4</title>
<g id="a_node4"><a xlink:title=" ">
<polygon fill="#e0e0e0" stroke="#999999" points="414.25,-19 370.25,-19 370.25,0 414.25,0 414.25,-19"/>
<text text-anchor="middle" x="392.25" y="-7" font-family="Helvetica,sans-Serif" font-size="10.00">string</text>
</a>
</g>
</g>
<!-- Node1&#45;&gt;Node4 -->
<g id="edge3" class="edge">
<title>Node1&#45;&gt;Node4</title>
<path fill="none" stroke="#63b8ff" d="M132.39,-164.94C67.29,-144.55 -32.19,-103.81 11.25,-55 34.3,-29.09 272.11,-15.88 359.91,-11.86"/>
<polygon fill="#63b8ff" stroke="#63b8ff" points="360.25,-15.35 370.09,-11.4 359.94,-8.36 360.25,-15.35"/>
</g>
<!-- Node5 -->
<g id="node5" class="node">
<title>Node5</title>
<g id="a_node5"><a xlink:title=" ">
<polygon fill="#e0e0e0" stroke="#999999" points="174.25,-129 116.25,-129 116.25,-110 174.25,-110 174.25,-129"/>
<text text-anchor="middle" x="145.25" y="-117" font-family="Helvetica,sans-Serif" font-size="10.00">memory</text>
</a>
</g>
</g>
<!-- Node1&#45;&gt;Node5 -->
<g id="edge4" class="edge">
<title>Node1&#45;&gt;Node5</title>
<path fill="none" stroke="#63b8ff" d="M174.05,-164.84C168.76,-156.69 162.07,-146.4 156.47,-137.78"/>
<polygon fill="#63b8ff" stroke="#63b8ff" points="159.32,-135.75 150.94,-129.27 153.45,-139.56 159.32,-135.75"/>
</g>
<!-- Node6 -->
<g id="node6" class="node">
<title>Node6</title>
<g id="a_node6"><a xlink:title=" ">
<polygon fill="#e0e0e0" stroke="#999999" points="252.25,-129 192.25,-129 192.25,-110 252.25,-110 252.25,-129"/>
<text text-anchor="middle" x="222.25" y="-117" font-family="Helvetica,sans-Serif" font-size="10.00">iostream</text>
</a>
</g>
</g>
<!-- Node1&#45;&gt;Node6 -->
<g id="edge5" class="edge">
<title>Node1&#45;&gt;Node6</title>
<path fill="none" stroke="#63b8ff" d="M192.69,-164.84C198.12,-156.69 204.98,-146.4 210.73,-137.78"/>
<polygon fill="#63b8ff" stroke="#63b8ff" points="213.77,-139.53 216.4,-129.27 207.94,-135.65 213.77,-139.53"/>
</g>
<!-- Node7 -->
<g id="node7" class="node">
<title>Node7</title>
<g id="a_node7"><a xlink:href="../../d5/d75/containers_8h.html" target="_top" xlink:title=" ">
<polygon fill="white" stroke="#666666" points="347.75,-129 270.75,-129 270.75,-110 347.75,-110 347.75,-129"/>
<text text-anchor="middle" x="309.25" y="-117" font-family="Helvetica,sans-Serif" font-size="10.00">containers.h</text>
</a>
</g>
</g>
<!-- Node1&#45;&gt;Node7 -->
<g id="edge6" class="edge">
<title>Node1&#45;&gt;Node7</title>
<path fill="none" stroke="#63b8ff" d="M213.43,-164.99C234.07,-155.4 261.25,-142.79 281.38,-133.44"/>
<polygon fill="#63b8ff" stroke="#63b8ff" points="283.04,-136.52 290.64,-129.14 280.1,-130.18 283.04,-136.52"/>
</g>
<!-- Node12 -->
<g id="node12" class="node">
<title>Node12</title>
<g id="a_node12"><a xlink:href="../../d7/d5c/qcstring_8h.html" target="_top" xlink:title=" ">
<polygon fill="white" stroke="#666666" points="784.75,-129 719.75,-129 719.75,-110 784.75,-110 784.75,-129"/>
<text text-anchor="middle" x="752.25" y="-117" font-family="Helvetica,sans-Serif" font-size="10.00">qcstring.h</text>
</a>
</g>
</g>
<!-- Node1&#45;&gt;Node12 -->
<g id="edge14" class="edge">
<title>Node1&#45;&gt;Node12</title>
<path fill="none" stroke="#63b8ff" d="M260.28,-171.08C381.72,-158.59 613.69,-134.75 709.36,-124.91"/>
<polygon fill="#63b8ff" stroke="#63b8ff" points="709.94,-128.37 719.53,-123.86 709.23,-121.4 709.94,-128.37"/>
</g>
<!-- Node21 -->
<g id="node21" class="node">
<title>Node21</title>
<g id="a_node21"><a xlink:href="../../db/d16/config_8h.html" target="_top" xlink:title=" ">
<polygon fill="white" stroke="#666666" points="1015.75,-129 960.75,-129 960.75,-110 1015.75,-110 1015.75,-129"/>
<text text-anchor="middle" x="988.25" y="-117" font-family="Helvetica,sans-Serif" font-size="10.00">config.h</text>
</a>
</g>
</g>
<!-- Node1&#45;&gt;Node21 -->
<g id="edge26" class="edge">
<title>Node1&#45;&gt;Node21</title>
<path fill="none" stroke="#63b8ff" d="M260.43,-173.39C429.25,-161.12 826.13,-132.28 950.38,-123.25"/>
<polygon fill="#63b8ff" stroke="#63b8ff" points="950.81,-126.73 960.53,-122.51 950.3,-119.75 950.81,-126.73"/>
</g>
<!-- Node7&#45;&gt;Node2 -->
<g id="edge7" class="edge">
<title>Node7&#45;&gt;Node2</title>
<path fill="none" stroke="#63b8ff" d="M270.33,-111.41C217.86,-101.8 126.24,-84.82 77.88,-74.22"/>
<polygon fill="#63b8ff" stroke="#63b8ff" points="78.49,-70.77 67.97,-72 76.96,-77.6 78.49,-70.77"/>
</g>
<!-- Node7&#45;&gt;Node3 -->
<g id="edge12" class="edge">
<title>Node7&#45;&gt;Node3</title>
<path fill="none" stroke="#63b8ff" d="M280.81,-109.98C250.96,-101.05 203.86,-86.94 170.71,-77.02"/>
<polygon fill="#63b8ff" stroke="#63b8ff" points="171.49,-73.6 160.91,-74.08 169.48,-80.3 171.49,-73.6"/>
</g>
<!-- Node7&#45;&gt;Node4 -->
<g id="edge8" class="edge">
<title>Node7&#45;&gt;Node4</title>
<path fill="none" stroke="#63b8ff" d="M301.52,-109.66C291.24,-96.79 275.65,-72.51 287.25,-55 303.32,-30.74 335.55,-19.66 360.09,-14.64"/>
<polygon fill="#63b8ff" stroke="#63b8ff" points="360.85,-18.05 370.07,-12.83 359.6,-11.17 360.85,-18.05"/>
</g>
<!-- Node8 -->
<g id="node8" class="node">
<title>Node8</title>
<g id="a_node8"><a xlink:title=" ">
<polygon fill="#e0e0e0" stroke="#999999" points="328.25,-74 296.25,-74 296.25,-55 328.25,-55 328.25,-74"/>
<text text-anchor="middle" x="312.25" y="-62" font-family="Helvetica,sans-Serif" font-size="10.00">set</text>
</a>
</g>
</g>
<!-- Node7&#45;&gt;Node8 -->
<g id="edge9" class="edge">
<title>Node7&#45;&gt;Node8</title>
<path fill="none" stroke="#63b8ff" d="M309.74,-109.75C310.14,-102.8 310.7,-92.85 311.19,-84.13"/>
<polygon fill="#63b8ff" stroke="#63b8ff" points="314.69,-84.27 311.76,-74.09 307.7,-83.88 314.69,-84.27"/>
</g>
<!-- Node9 -->
<g id="node9" class="node">
<title>Node9</title>
<g id="a_node9"><a xlink:title=" ">
<polygon fill="#e0e0e0" stroke="#999999" points="384.25,-74 346.25,-74 346.25,-55 384.25,-55 384.25,-74"/>
<text text-anchor="middle" x="365.25" y="-62" font-family="Helvetica,sans-Serif" font-size="10.00">map</text>
</a>
</g>
</g>
<!-- Node7&#45;&gt;Node9 -->
<g id="edge10" class="edge">
<title>Node7&#45;&gt;Node9</title>
<path fill="none" stroke="#63b8ff" d="M318.24,-109.98C326.44,-102.23 338.75,-90.58 348.72,-81.14"/>
<polygon fill="#63b8ff" stroke="#63b8ff" points="351.23,-83.59 356.09,-74.17 346.42,-78.5 351.23,-83.59"/>
</g>
<!-- Node10 -->
<g id="node10" class="node">
<title>Node10</title>
<g id="a_node10"><a xlink:title=" ">
<polygon fill="#e0e0e0" stroke="#999999" points="488.25,-74 402.25,-74 402.25,-55 488.25,-55 488.25,-74"/>
<text text-anchor="middle" x="445.25" y="-62" font-family="Helvetica,sans-Serif" font-size="10.00">unordered_set</text>
</a>
</g>
</g>
<!-- Node7&#45;&gt;Node10 -->
<g id="edge11" class="edge">
<title>Node7&#45;&gt;Node10</title>
<path fill="none" stroke="#63b8ff" d="M331.1,-109.98C353.37,-101.3 388.15,-87.75 413.47,-77.88"/>
<polygon fill="#63b8ff" stroke="#63b8ff" points="414.95,-81.06 423,-74.17 412.41,-74.54 414.95,-81.06"/>
</g>
<!-- Node11 -->
<g id="node11" class="node">
<title>Node11</title>
<g id="a_node11"><a xlink:title=" ">
<polygon fill="#e0e0e0" stroke="#999999" points="239.75,-74 196.75,-74 196.75,-55 239.75,-55 239.75,-74"/>
<text text-anchor="middle" x="218.25" y="-62" font-family="Helvetica,sans-Serif" font-size="10.00">stack</text>
</a>
</g>
</g>
<!-- Node7&#45;&gt;Node11 -->
<g id="edge13" class="edge">
<title>Node7&#45;&gt;Node11</title>
<path fill="none" stroke="#63b8ff" d="M294.63,-109.98C280.38,-101.69 258.5,-88.94 241.8,-79.22"/>
<polygon fill="#63b8ff" stroke="#63b8ff" points="243.54,-76.18 233.13,-74.17 240.01,-82.23 243.54,-76.18"/>
</g>
<!-- Node12&#45;&gt;Node4 -->
<g id="edge15" class="edge">
<title>Node12&#45;&gt;Node4</title>
<path fill="none" stroke="#63b8ff" d="M719.55,-114.51C676.45,-108.64 598.67,-95.93 535.25,-74 517.4,-67.83 514.39,-62.91 497.25,-55 472.57,-43.62 444.17,-31.65 423.13,-22.99"/>
<polygon fill="#63b8ff" stroke="#63b8ff" points="424.32,-19.69 413.74,-19.15 421.66,-26.17 424.32,-19.69"/>
</g>
<!-- Node13 -->
<g id="node13" class="node">
<title>Node13</title>
<g id="a_node13"><a xlink:title=" ">
<polygon fill="#e0e0e0" stroke="#999999" points="608.25,-74 544.25,-74 544.25,-55 608.25,-55 608.25,-74"/>
<text text-anchor="middle" x="576.25" y="-62" font-family="Helvetica,sans-Serif" font-size="10.00">algorithm</text>
</a>
</g>
</g>
<!-- Node12&#45;&gt;Node13 -->
<g id="edge16" class="edge">
<title>Node12&#45;&gt;Node13</title>
<path fill="none" stroke="#63b8ff" d="M723.97,-109.98C694.29,-101.05 647.46,-86.94 614.5,-77.02"/>
<polygon fill="#63b8ff" stroke="#63b8ff" points="615.33,-73.61 604.75,-74.08 613.31,-80.32 615.33,-73.61"/>
</g>
<!-- Node14 -->
<g id="node14" class="node">
<title>Node14</title>
<g id="a_node14"><a xlink:title=" ">
<polygon fill="#e0e0e0" stroke="#999999" points="675.75,-74 626.75,-74 626.75,-55 675.75,-55 675.75,-74"/>
<text text-anchor="middle" x="651.25" y="-62" font-family="Helvetica,sans-Serif" font-size="10.00">cctype</text>
</a>
</g>
</g>
<!-- Node12&#45;&gt;Node14 -->
<g id="edge17" class="edge">
<title>Node12&#45;&gt;Node14</title>
<path fill="none" stroke="#63b8ff" d="M736.02,-109.98C720.06,-101.61 695.47,-88.7 676.87,-78.95"/>
<polygon fill="#63b8ff" stroke="#63b8ff" points="678.25,-75.72 667.77,-74.17 675,-81.92 678.25,-75.72"/>
</g>
<!-- Node15 -->
<g id="node15" class="node">
<title>Node15</title>
<g id="a_node15"><a xlink:title=" ">
<polygon fill="#e0e0e0" stroke="#999999" points="744.25,-74 694.25,-74 694.25,-55 744.25,-55 744.25,-74"/>
<text text-anchor="middle" x="719.25" y="-62" font-family="Helvetica,sans-Serif" font-size="10.00">cstring</text>
</a>
</g>
</g>
<!-- Node12&#45;&gt;Node15 -->
<g id="edge18" class="edge">
<title>Node12&#45;&gt;Node15</title>
<path fill="none" stroke="#63b8ff" d="M746.8,-109.75C742.23,-102.42 735.58,-91.73 729.95,-82.7"/>
<polygon fill="#63b8ff" stroke="#63b8ff" points="732.85,-80.73 724.59,-74.09 726.91,-84.43 732.85,-80.73"/>
</g>
<!-- Node16 -->
<g id="node16" class="node">
<title>Node16</title>
<g id="a_node16"><a xlink:title=" ">
<polygon fill="#e0e0e0" stroke="#999999" points="808.25,-74 762.25,-74 762.25,-55 808.25,-55 808.25,-74"/>
<text text-anchor="middle" x="785.25" y="-62" font-family="Helvetica,sans-Serif" font-size="10.00">cstdio</text>
</a>
</g>
</g>
<!-- Node12&#45;&gt;Node16 -->
<g id="edge19" class="edge">
<title>Node12&#45;&gt;Node16</title>
<path fill="none" stroke="#63b8ff" d="M757.7,-109.75C762.26,-102.42 768.92,-91.73 774.54,-82.7"/>
<polygon fill="#63b8ff" stroke="#63b8ff" points="777.58,-84.43 779.9,-74.09 771.64,-80.73 777.58,-84.43"/>
</g>
<!-- Node17 -->
<g id="node17" class="node">
<title>Node17</title>
<g id="a_node17"><a xlink:title=" ">
<polygon fill="#e0e0e0" stroke="#999999" points="875.75,-74 826.75,-74 826.75,-55 875.75,-55 875.75,-74"/>
<text text-anchor="middle" x="851.25" y="-62" font-family="Helvetica,sans-Serif" font-size="10.00">cstdlib</text>
</a>
</g>
</g>
<!-- Node12&#45;&gt;Node17 -->
<g id="edge20" class="edge">
<title>Node12&#45;&gt;Node17</title>
<path fill="none" stroke="#63b8ff" d="M768.15,-109.98C783.79,-101.61 807.9,-88.7 826.13,-78.95"/>
<polygon fill="#63b8ff" stroke="#63b8ff" points="827.89,-81.98 835.05,-74.17 824.58,-75.8 827.89,-81.98"/>
</g>
<!-- Node18 -->
<g id="node18" class="node">
<title>Node18</title>
<g id="a_node18"><a xlink:title=" ">
<polygon fill="#e0e0e0" stroke="#999999" points="1004.25,-19 954.25,-19 954.25,0 1004.25,0 1004.25,-19"/>
<text text-anchor="middle" x="979.25" y="-7" font-family="Helvetica,sans-Serif" font-size="10.00">cstdint</text>
</a>
</g>
</g>
<!-- Node12&#45;&gt;Node18 -->
<g id="edge21" class="edge">
<title>Node12&#45;&gt;Node18</title>
<path fill="none" stroke="#63b8ff" d="M784.94,-118.18C850.21,-116.78 993,-109.62 1023.25,-74 1036.68,-58.19 1017.81,-38.3 1000.78,-25.03"/>
<polygon fill="#63b8ff" stroke="#63b8ff" points="1002.84,-22.21 992.71,-19.1 998.69,-27.85 1002.84,-22.21"/>
</g>
<!-- Node19 -->
<g id="node19" class="node">
<title>Node19</title>
<g id="a_node19"><a xlink:title=" ">
<polygon fill="#e0e0e0" stroke="#999999" points="1013.75,-74 956.75,-74 956.75,-55 1013.75,-55 1013.75,-74"/>
<text text-anchor="middle" x="985.25" y="-62" font-family="Helvetica,sans-Serif" font-size="10.00">ostream</text>
</a>
</g>
</g>
<!-- Node12&#45;&gt;Node19 -->
<g id="edge22" class="edge">
<title>Node12&#45;&gt;Node19</title>
<path fill="none" stroke="#63b8ff" d="M784.85,-111.12C821.78,-102.76 884.02,-88.66 946.53,-74.39"/>
<polygon fill="#63b8ff" stroke="#63b8ff" points="947.6,-77.74 956.57,-72.1 946.04,-70.91 947.6,-77.74"/>
</g>
<!-- Node20 -->
<g id="node20" class="node">
<title>Node20</title>
<g id="a_node20"><a xlink:href="../../db/d7c/utf8_8h.html" target="_top" xlink:title="Various UTF8 related helper functions.">
<polygon fill="white" stroke="#666666" points="938.75,-74 893.75,-74 893.75,-55 938.75,-55 938.75,-74"/>
<text text-anchor="middle" x="916.25" y="-62" font-family="Helvetica,sans-Serif" font-size="10.00">utf8.h</text>
</a>
</g>
</g>
<!-- Node12&#45;&gt;Node20 -->
<g id="edge23" class="edge">
<title>Node12&#45;&gt;Node20</title>
<path fill="none" stroke="#63b8ff" d="M778.6,-109.98C807.23,-100.73 853.01,-85.94 883.83,-75.98"/>
<polygon fill="#63b8ff" stroke="#63b8ff" points="885.22,-79.21 893.66,-72.8 883.07,-72.54 885.22,-79.21"/>
</g>
<!-- Node20&#45;&gt;Node4 -->
<g id="edge25" class="edge">
<title>Node20&#45;&gt;Node4</title>
<path fill="none" stroke="#63b8ff" d="M893.67,-56.81C890.85,-56.12 887.99,-55.5 885.25,-55 713.61,-23.98 504.26,-14.17 424.87,-11.44"/>
<polygon fill="#63b8ff" stroke="#63b8ff" points="424.66,-7.94 414.55,-11.1 424.43,-14.93 424.66,-7.94"/>
</g>
<!-- Node20&#45;&gt;Node18 -->
<g id="edge24" class="edge">
<title>Node20&#45;&gt;Node18</title>
<path fill="none" stroke="#63b8ff" d="M926.37,-54.98C935.68,-47.15 949.72,-35.34 960.99,-25.86"/>
<polygon fill="#63b8ff" stroke="#63b8ff" points="963.54,-28.29 968.94,-19.17 959.04,-22.93 963.54,-28.29"/>
</g>
<!-- Node22 -->
<g id="node22" class="node">
<title>Node22</title>
<g id="a_node22"><a xlink:title=" ">
<polygon fill="#e0e0e0" stroke="#999999" points="1157.75,-74 1070.75,-74 1070.75,-55 1157.75,-55 1157.75,-74"/>
<text text-anchor="middle" x="1114.25" y="-62" font-family="Helvetica,sans-Serif" font-size="10.00">configvalues.h</text>
</a>
</g>
</g>
<!-- Node21&#45;&gt;Node22 -->
<g id="edge27" class="edge">
<title>Node21&#45;&gt;Node22</title>
<path fill="none" stroke="#63b8ff" d="M1008.49,-109.98C1028.94,-101.38 1060.78,-87.99 1084.18,-78.15"/>
<polygon fill="#63b8ff" stroke="#63b8ff" points="1085.77,-81.27 1093.63,-74.17 1083.06,-74.82 1085.77,-81.27"/>
</g>
</g>
</svg>
        <g id="navigator" transform="translate(0 0)" fill="#404254">
                <rect fill="#f2f5e9" fill-opacity="0.5" stroke="#606060" stroke-width=".5" x="0" y="0" width="60" height="60"/>
                <use id="zoomplus" xlink:href="#zoomPlus" x="17" y="9" onmousedown="handleZoom(evt,'in')"/>
                <use id="zoomminus" xlink:href="#zoomMin" x="42" y="9" onmousedown="handleZoom(evt,'out')"/>
                <use id="reset" xlink:href="#resetDef" x="30" y="36" onmousedown="handleReset()"/>
                <g id="arrowUp" xlink:href="#dirArrow" transform="translate(30 24)" onmousedown="handlePan(0,-1)">
                  <use xlink:href="#rim" fill="#404040">
                        <set attributeName="fill" to="#808080" begin="arrowUp.mouseover" end="arrowUp.mouseout"/>
                  </use>
                  <path fill="none" stroke="white" stroke-width="1.5" d="M0,-3.0v7 M-2.5,-0.5L0,-3.0L2.5,-0.5"/>
                </g>
                <g id="arrowRight" xlink:href="#dirArrow" transform="rotate(90) translate(36 -43)" onmousedown="handlePan(1,0)">
                  <use xlink:href="#rim" fill="#404040">
                        <set attributeName="fill" to="#808080" begin="arrowRight.mouseover" end="arrowRight.mouseout"/>
                  </use>
                  <path fill="none" stroke="white" stroke-width="1.5" d="M0,-3.0v7 M-2.5,-0.5L0,-3.0L2.5,-0.5"/>
                </g>
                <g id="arrowDown" xlink:href="#dirArrow" transform="rotate(180) translate(-30 -48)" onmousedown="handlePan(0,1)">
                  <use xlink:href="#rim" fill="#404040">
                        <set attributeName="fill" to="#808080" begin="arrowDown.mouseover" end="arrowDown.mouseout"/>
                  </use>
                  <path fill="none" stroke="white" stroke-width="1.5" d="M0,-3.0v7 M-2.5,-0.5L0,-3.0L2.5,-0.5"/>
                </g>
                <g id="arrowLeft" xlink:href="#dirArrow" transform="rotate(270) translate(-36 17)" onmousedown="handlePan(-1,0)">
                  <use xlink:href="#rim" fill="#404040">
                        <set attributeName="fill" to="#808080" begin="arrowLeft.mouseover" end="arrowLeft.mouseout"/>
                  </use>
                  <path fill="none" stroke="white" stroke-width="1.5" d="M0,-3.0v7 M-2.5,-0.5L0,-3.0L2.5,-0.5"/>
                </g>
        </g>
        <svg viewBox="0 0 15 15" width="100%" height="30px" preserveAspectRatio="xMaxYMin meet">
         <g id="arrow_out" transform="scale(0.3 0.3)">
          <a xlink:href="configimpl_8h__incl_org.svg" target="_base">
           <rect id="button" ry="5" rx="5" y="6" x="6" height="38" width="38"
                fill="#f2f5e9" fill-opacity="0.5" stroke="#606060" stroke-width="1.0"/>
           <path id="arrow"
             d="M 11.500037,31.436501 C 11.940474,20.09759 22.043105,11.32322 32.158766,21.979434 L 37.068811,17.246167 C 37.068811,17.246167 37.088388,32 37.088388,32 L 22.160133,31.978069 C 22.160133,31.978069 26.997745,27.140456 26.997745,27.140456 C 18.528582,18.264221 13.291696,25.230495 11.500037,31.436501 z"
             style="fill:#404040;"/>
          </a>
         </g>
        </svg>
</svg>
