<?xml version="1.0" encoding="UTF-8" standalone="no"?>
<!DOCTYPE svg PUBLIC "-//W3C//DTD SVG 1.1//EN"
 "http://www.w3.org/Graphics/SVG/1.1/DTD/svg11.dtd">
<!-- Generated by graphviz version 2.43.0 (0)
 -->
<!-- Title: DocParamSect Pages: 1 -->
<!--zoomable 398 -->
<svg id="main" version="1.1" xmlns="http://www.w3.org/2000/svg" xmlns:xlink="http://www.w3.org/1999/xlink" xml:space="preserve" onload="init(evt)">
<style type="text/css"><![CDATA[
.edge:hover path { stroke: red; }
.edge:hover polygon { stroke: red; fill: red; }
]]></style>
<script type="text/javascript"><![CDATA[
var edges = document.getElementsByTagName('g');
if (edges && edges.length) {
  for (var i=0;i<edges.length;i++) {
    if (edges[i].id.substr(0,4)=='edge') {
      edges[i].setAttribute('class','edge');
    }
  }
}
]]></script>
        <defs>
                <circle id="rim" cx="0" cy="0" r="7"/>
                <circle id="rim2" cx="0" cy="0" r="3.5"/>
                <g id="zoomPlus">
                        <use xlink:href="#rim" fill="#404040">
                                <set attributeName="fill" to="#808080" begin="zoomplus.mouseover" end="zoomplus.mouseout"/>
                        </use>
                        <path d="M-4,0h8M0,-4v8" fill="none" stroke="white" stroke-width="1.5" pointer-events="none"/>
                </g>
                <g id="zoomMin">
                        <use xlink:href="#rim" fill="#404040">
                                <set attributeName="fill" to="#808080" begin="zoomminus.mouseover" end="zoomminus.mouseout"/>
                        </use>
                        <path d="M-4,0h8" fill="none" stroke="white" stroke-width="1.5" pointer-events="none"/>
                </g>
                <g id="dirArrow">
                        <path fill="none" stroke="white" stroke-width="1.5" d="M0,-3.0v7 M-2.5,-0.5L0,-3.0L2.5,-0.5"/>
                </g>
               <g id="resetDef">
                       <use xlink:href="#rim2" fill="#404040">
                               <set attributeName="fill" to="#808080" begin="reset.mouseover" end="reset.mouseout"/>
                       </use>
               </g>
        </defs>

<script type="text/javascript">
var viewWidth = 1683;
var viewHeight = 398;
var sectionId = 'dynsection-1';
</script>
<script xlink:href="../../svgpan.js"/>
<svg id="graph" class="graph">
<g id="viewport">
<title>DocParamSect</title>
<!-- Node1 -->
<g id="node1" class="node">
<title>Node1</title>
<g id="a_node1"><a xlink:title="Node representing a parameter section.">
<polygon fill="#999999" stroke="#666666" points="1675,-175.5 1588,-175.5 1588,-156.5 1675,-156.5 1675,-175.5"/>
<text text-anchor="middle" x="1631.5" y="-163.5" font-family="Helvetica,sans-Serif" font-size="10.00">DocParamSect</text>
</a>
</g>
</g>
<!-- Node2 -->
<g id="node2" class="node">
<title>Node2</title>
<g id="a_node2"><a xlink:href="../../da/dfc/class_doc_compound_node.html" target="_top" xlink:title="Base class for nodes with children.">
<polygon fill="white" stroke="#666666" points="1551,-175.5 1438,-175.5 1438,-156.5 1551,-156.5 1551,-175.5"/>
<text text-anchor="middle" x="1494.5" y="-163.5" font-family="Helvetica,sans-Serif" font-size="10.00">DocCompoundNode</text>
</a>
</g>
</g>
<!-- Node2&#45;&gt;Node1 -->
<g id="edge1" class="edge">
<title>Node2&#45;&gt;Node1</title>
<path fill="none" stroke="#63b8ff" d="M1561.28,-166C1570.27,-166 1579.3,-166 1587.73,-166"/>
<polygon fill="#63b8ff" stroke="#63b8ff" points="1561.19,-162.5 1551.19,-166 1561.19,-169.5 1561.19,-162.5"/>
</g>
<!-- Node3 -->
<g id="node3" class="node">
<title>Node3</title>
<g id="a_node3"><a xlink:href="../../d9/d0e/class_doc_node.html" target="_top" xlink:title="Abstract node interface with type information.">
<polygon fill="white" stroke="#666666" points="1335.5,-194.5 1274.5,-194.5 1274.5,-175.5 1335.5,-175.5 1335.5,-194.5"/>
<text text-anchor="middle" x="1305" y="-182.5" font-family="Helvetica,sans-Serif" font-size="10.00">DocNode</text>
</a>
</g>
</g>
<!-- Node3&#45;&gt;Node2 -->
<g id="edge2" class="edge">
<title>Node3&#45;&gt;Node2</title>
<path fill="none" stroke="#63b8ff" d="M1345.87,-180.96C1372.65,-178.25 1408.31,-174.63 1437.87,-171.64"/>
<polygon fill="#63b8ff" stroke="#63b8ff" points="1345.31,-177.5 1335.71,-181.99 1346.01,-184.46 1345.31,-177.5"/>
</g>
<!-- Node4 -->
<g id="node4" class="node">
<title>Node4</title>
<g id="a_node4"><a xlink:href="../../da/d02/class_doc_parser.html" target="_top" xlink:title=" ">
<polygon fill="white" stroke="#666666" points="1126.5,-212.5 1061.5,-212.5 1061.5,-193.5 1126.5,-193.5 1126.5,-212.5"/>
<text text-anchor="middle" x="1094" y="-200.5" font-family="Helvetica,sans-Serif" font-size="10.00">DocParser</text>
</a>
</g>
</g>
<!-- Node4&#45;&gt;Node3 -->
<g id="edge3" class="edge">
<title>Node4&#45;&gt;Node3</title>
<path fill="none" stroke="#9a32cd" stroke-dasharray="5,2" d="M1136.89,-199.39C1177.6,-195.89 1238.39,-190.65 1274.33,-187.56"/>
<polygon fill="#9a32cd" stroke="#9a32cd" points="1136.41,-195.92 1126.74,-200.27 1137.01,-202.9 1136.41,-195.92"/>
<text text-anchor="middle" x="1223.5" y="-197" font-family="Helvetica,sans-Serif" font-size="10.00" fill="grey"> m_parser</text>
</g>
<!-- Node5 -->
<g id="node5" class="node">
<title>Node5</title>
<g id="a_node5"><a xlink:href="../../de/dad/class_i_doc_parser.html" target="_top" xlink:title="opaque parser interface">
<polygon fill="white" stroke="#666666" points="848,-286.5 780,-286.5 780,-267.5 848,-267.5 848,-286.5"/>
<text text-anchor="middle" x="814" y="-274.5" font-family="Helvetica,sans-Serif" font-size="10.00">IDocParser</text>
</a>
</g>
</g>
<!-- Node5&#45;&gt;Node4 -->
<g id="edge4" class="edge">
<title>Node5&#45;&gt;Node4</title>
<path fill="none" stroke="#63b8ff" d="M858.21,-271.53C893.77,-266.44 945.24,-257.72 989,-245 1018.92,-236.3 1052.06,-222.07 1072.72,-212.62"/>
<polygon fill="#63b8ff" stroke="#63b8ff" points="857.59,-268.08 848.17,-272.93 858.56,-275.02 857.59,-268.08"/>
</g>
<!-- Node6 -->
<g id="node6" class="node">
<title>Node6</title>
<g id="a_node6"><a xlink:href="../../d8/d7d/struct_doc_parser_context.html" target="_top" xlink:title="Parser&#39;s context to store all global variables.">
<polygon fill="white" stroke="#666666" points="866,-249.5 762,-249.5 762,-230.5 866,-230.5 866,-249.5"/>
<text text-anchor="middle" x="814" y="-237.5" font-family="Helvetica,sans-Serif" font-size="10.00">DocParserContext</text>
</a>
</g>
</g>
<!-- Node6&#45;&gt;Node4 -->
<g id="edge5" class="edge">
<title>Node6&#45;&gt;Node4</title>
<path fill="none" stroke="#9a32cd" stroke-dasharray="5,2" d="M876.08,-231.96C909.45,-227.56 951.5,-222 989,-217 1013.2,-213.77 1040.56,-210.09 1061.14,-207.31"/>
<polygon fill="#9a32cd" stroke="#9a32cd" points="875.47,-228.51 866.02,-233.29 876.39,-235.45 875.47,-228.51"/>
<text text-anchor="middle" x="936.5" y="-233" font-family="Helvetica,sans-Serif" font-size="10.00" fill="grey"> context</text>
</g>
<!-- Node7 -->
<g id="node7" class="node">
<title>Node7</title>
<g id="a_node7"><a xlink:href="../../d5/dcc/class_definition.html" target="_top" xlink:title="The common base class of all entity definitions found in the sources.">
<polygon fill="white" stroke="#666666" points="294.5,-382.5 230.5,-382.5 230.5,-363.5 294.5,-363.5 294.5,-382.5"/>
<text text-anchor="middle" x="262.5" y="-370.5" font-family="Helvetica,sans-Serif" font-size="10.00">Definition</text>
</a>
</g>
</g>
<!-- Node7&#45;&gt;Node6 -->
<g id="edge6" class="edge">
<title>Node7&#45;&gt;Node6</title>
<path fill="none" stroke="#9a32cd" stroke-dasharray="5,2" d="M305.16,-376.88C375.62,-382.36 522.41,-389.13 643,-364 689.95,-354.22 711.78,-361.52 744,-326 764.72,-303.16 741.25,-281.8 762,-259 765.56,-255.09 770,-251.98 774.77,-249.5"/>
<polygon fill="#9a32cd" stroke="#9a32cd" points="305.18,-373.37 294.93,-376.05 304.61,-380.35 305.18,-373.37"/>
<text text-anchor="middle" x="583.5" y="-382" font-family="Helvetica,sans-Serif" font-size="10.00" fill="grey"> scope</text>
</g>
<!-- Node13 -->
<g id="node13" class="node">
<title>Node13</title>
<g id="a_node13"><a xlink:href="../../da/d09/class_member_def.html" target="_top" xlink:title="A model of a class/file/namespace member symbol.">
<polygon fill="white" stroke="#666666" points="620.5,-354.5 546.5,-354.5 546.5,-335.5 620.5,-335.5 620.5,-354.5"/>
<text text-anchor="middle" x="583.5" y="-342.5" font-family="Helvetica,sans-Serif" font-size="10.00">MemberDef</text>
</a>
</g>
</g>
<!-- Node7&#45;&gt;Node13 -->
<g id="edge13" class="edge">
<title>Node7&#45;&gt;Node13</title>
<path fill="none" stroke="#63b8ff" d="M304.63,-369.39C367.53,-363.87 486.58,-353.42 546.35,-348.17"/>
<polygon fill="#63b8ff" stroke="#63b8ff" points="304.32,-365.9 294.67,-370.26 304.94,-372.88 304.32,-365.9"/>
</g>
<!-- Node8 -->
<g id="node8" class="node">
<title>Node8</title>
<g id="a_node8"><a xlink:href="../../d9/d45/class_q_c_string.html" target="_top" xlink:title="This is an alternative implementation of QCString.">
<polygon fill="white" stroke="#666666" points="292,-203.5 233,-203.5 233,-184.5 292,-184.5 292,-203.5"/>
<text text-anchor="middle" x="262.5" y="-191.5" font-family="Helvetica,sans-Serif" font-size="10.00">QCString</text>
</a>
</g>
</g>
<!-- Node8&#45;&gt;Node6 -->
<g id="edge7" class="edge">
<title>Node8&#45;&gt;Node6</title>
<path fill="none" stroke="#9a32cd" stroke-dasharray="5,2" d="M296.54,-207.07C315.88,-214.07 340.95,-222.05 364,-226 506.4,-250.4 677.83,-246.82 761.7,-242.97"/>
<polygon fill="#9a32cd" stroke="#9a32cd" points="297.59,-203.73 287,-203.53 295.15,-210.29 297.59,-203.73"/>
<text text-anchor="middle" x="583.5" y="-314" font-family="Helvetica,sans-Serif" font-size="10.00" fill="grey"> context</text>
<text text-anchor="middle" x="583.5" y="-303" font-family="Helvetica,sans-Serif" font-size="10.00" fill="grey">exampleName</text>
<text text-anchor="middle" x="583.5" y="-292" font-family="Helvetica,sans-Serif" font-size="10.00" fill="grey">fileName</text>
<text text-anchor="middle" x="583.5" y="-281" font-family="Helvetica,sans-Serif" font-size="10.00" fill="grey">includeFileName</text>
<text text-anchor="middle" x="583.5" y="-270" font-family="Helvetica,sans-Serif" font-size="10.00" fill="grey">includeFileText</text>
<text text-anchor="middle" x="583.5" y="-259" font-family="Helvetica,sans-Serif" font-size="10.00" fill="grey">relPath</text>
<text text-anchor="middle" x="583.5" y="-248" font-family="Helvetica,sans-Serif" font-size="10.00" fill="grey">searchUrl</text>
</g>
<!-- Node14 -->
<g id="node14" class="node">
<title>Node14</title>
<g id="a_node14"><a xlink:href="../../d6/df4/struct_token_info.html" target="_top" xlink:title="Data associated with a token used by the comment block parser.">
<polygon fill="white" stroke="#666666" points="615,-146.5 552,-146.5 552,-127.5 615,-127.5 615,-146.5"/>
<text text-anchor="middle" x="583.5" y="-134.5" font-family="Helvetica,sans-Serif" font-size="10.00">TokenInfo</text>
</a>
</g>
</g>
<!-- Node8&#45;&gt;Node14 -->
<g id="edge15" class="edge">
<title>Node8&#45;&gt;Node14</title>
<path fill="none" stroke="#9a32cd" stroke-dasharray="5,2" d="M284.28,-178.27C303.71,-164.61 334.14,-145.83 364,-138 429.13,-120.92 508.99,-127.04 551.84,-132.41"/>
<polygon fill="#9a32cd" stroke="#9a32cd" points="281.98,-175.62 275.92,-184.31 286.08,-181.29 281.98,-175.62"/>
<text text-anchor="middle" x="435" y="-218" font-family="Helvetica,sans-Serif" font-size="10.00" fill="grey"> attribsStr</text>
<text text-anchor="middle" x="435" y="-207" font-family="Helvetica,sans-Serif" font-size="10.00" fill="grey">chars</text>
<text text-anchor="middle" x="435" y="-196" font-family="Helvetica,sans-Serif" font-size="10.00" fill="grey">name</text>
<text text-anchor="middle" x="435" y="-185" font-family="Helvetica,sans-Serif" font-size="10.00" fill="grey">sectionId</text>
<text text-anchor="middle" x="435" y="-174" font-family="Helvetica,sans-Serif" font-size="10.00" fill="grey">simpleSectName</text>
<text text-anchor="middle" x="435" y="-163" font-family="Helvetica,sans-Serif" font-size="10.00" fill="grey">simpleSectText</text>
<text text-anchor="middle" x="435" y="-152" font-family="Helvetica,sans-Serif" font-size="10.00" fill="grey">text</text>
<text text-anchor="middle" x="435" y="-141" font-family="Helvetica,sans-Serif" font-size="10.00" fill="grey">verb</text>
</g>
<!-- Node9 -->
<g id="node9" class="node">
<title>Node9</title>
<g id="a_node9"><a xlink:href="../../d9/d82/class_iterable_stack.html" target="_top" xlink:title=" ">
<polygon fill="white" stroke="#666666" points="643,-78 524,-78 524,-48 643,-48 643,-78"/>
<text text-anchor="start" x="532" y="-66" font-family="Helvetica,sans-Serif" font-size="10.00">IterableStack&lt; const</text>
<text text-anchor="middle" x="583.5" y="-55" font-family="Helvetica,sans-Serif" font-size="10.00"> DocNodeVariant * &gt;</text>
</a>
</g>
</g>
<!-- Node9&#45;&gt;Node6 -->
<g id="edge8" class="edge">
<title>Node9&#45;&gt;Node6</title>
<path fill="none" stroke="#9a32cd" stroke-dasharray="5,2" d="M642.85,-81.8C677.12,-95.72 718.56,-118.05 744,-151 763.89,-176.77 740.05,-197.96 762,-222 765.1,-225.4 768.88,-228.15 772.97,-230.39"/>
<polygon fill="#9a32cd" stroke="#9a32cd" points="643.98,-78.48 633.39,-78.09 641.43,-85 643.98,-78.48"/>
<text text-anchor="middle" x="702.5" y="-165" font-family="Helvetica,sans-Serif" font-size="10.00" fill="grey"> initialStyleStack</text>
<text text-anchor="middle" x="702.5" y="-154" font-family="Helvetica,sans-Serif" font-size="10.00" fill="grey">styleStack</text>
</g>
<!-- Node10 -->
<g id="node10" class="node">
<title>Node10</title>
<g id="a_node10"><a xlink:title=" ">
<polygon fill="white" stroke="#666666" points="346,-83.5 179,-83.5 179,-42.5 346,-42.5 346,-83.5"/>
<text text-anchor="start" x="187" y="-71.5" font-family="Helvetica,sans-Serif" font-size="10.00">std::stack&lt; const DocNode</text>
<text text-anchor="start" x="187" y="-60.5" font-family="Helvetica,sans-Serif" font-size="10.00">Variant * , std::deque</text>
<text text-anchor="middle" x="262.5" y="-49.5" font-family="Helvetica,sans-Serif" font-size="10.00">&lt;const DocNodeVariant * &gt; &#160;&gt;</text>
</a>
</g>
</g>
<!-- Node10&#45;&gt;Node9 -->
<g id="edge9" class="edge">
<title>Node10&#45;&gt;Node9</title>
<path fill="none" stroke="#63b8ff" d="M356.36,-63C410.48,-63 477.08,-63 523.94,-63"/>
<polygon fill="#63b8ff" stroke="#63b8ff" points="356.07,-59.5 346.07,-63 356.07,-66.5 356.07,-59.5"/>
</g>
<!-- Node11 -->
<g id="node11" class="node">
<title>Node11</title>
<g id="a_node11"><a xlink:href="../../d9/d82/class_iterable_stack.html" target="_top" xlink:title=" ">
<polygon fill="white" stroke="#666666" points="344,-24.5 181,-24.5 181,-5.5 344,-5.5 344,-24.5"/>
<text text-anchor="middle" x="262.5" y="-12.5" font-family="Helvetica,sans-Serif" font-size="10.00">IterableStack&lt; T, Container &gt;</text>
</a>
</g>
</g>
<!-- Node11&#45;&gt;Node9 -->
<g id="edge10" class="edge">
<title>Node11&#45;&gt;Node9</title>
<path fill="none" stroke="orange" stroke-dasharray="5,2" d="M351.98,-25.78C398.01,-31.71 455.14,-39.56 506,-48 511.74,-48.95 517.71,-50.01 523.67,-51.11"/>
<polygon fill="orange" stroke="orange" points="352.4,-22.31 342.03,-24.51 351.51,-29.25 352.4,-22.31"/>
<text text-anchor="middle" x="435" y="-51" font-family="Helvetica,sans-Serif" font-size="10.00" fill="grey"> &lt; const DocNodeVariant * &gt;</text>
</g>
<!-- Node12 -->
<g id="node12" class="node">
<title>Node12</title>
<g id="a_node12"><a xlink:title=" ">
<polygon fill="white" stroke="#666666" points="122,-30 20,-30 20,0 122,0 122,-30"/>
<text text-anchor="start" x="28" y="-18" font-family="Helvetica,sans-Serif" font-size="10.00">std::stack&lt; T, std</text>
<text text-anchor="middle" x="71" y="-7" font-family="Helvetica,sans-Serif" font-size="10.00">::deque&lt; T &gt; &gt;</text>
</a>
</g>
</g>
<!-- Node12&#45;&gt;Node11 -->
<g id="edge11" class="edge">
<title>Node12&#45;&gt;Node11</title>
<path fill="none" stroke="#63b8ff" d="M132.67,-15C148.02,-15 164.74,-15 180.91,-15"/>
<polygon fill="#63b8ff" stroke="#63b8ff" points="132.29,-11.5 122.29,-15 132.28,-18.5 132.29,-11.5"/>
</g>
<!-- Node13&#45;&gt;Node6 -->
<g id="edge12" class="edge">
<title>Node13&#45;&gt;Node6</title>
<path fill="none" stroke="#9a32cd" stroke-dasharray="5,2" d="M618.69,-331.58C626.73,-328.26 635.21,-324.62 643,-321 697.09,-295.88 707.51,-283.23 762,-259 769.51,-255.66 777.81,-252.4 785.49,-249.54"/>
<polygon fill="#9a32cd" stroke="#9a32cd" points="617.14,-328.44 609.19,-335.45 619.77,-334.92 617.14,-328.44"/>
<text text-anchor="middle" x="702.5" y="-314" font-family="Helvetica,sans-Serif" font-size="10.00" fill="grey"> memberDef</text>
</g>
<!-- Node14&#45;&gt;Node6 -->
<g id="edge14" class="edge">
<title>Node14&#45;&gt;Node6</title>
<path fill="none" stroke="#9a32cd" stroke-dasharray="5,2" d="M611.85,-151.23C646.36,-168.92 707.76,-199.52 762,-222 769.11,-224.95 776.9,-227.85 784.2,-230.44"/>
<polygon fill="#9a32cd" stroke="#9a32cd" points="613.35,-148.07 602.86,-146.6 610.15,-154.29 613.35,-148.07"/>
<text text-anchor="middle" x="702.5" y="-216" font-family="Helvetica,sans-Serif" font-size="10.00" fill="grey"> token</text>
</g>
<!-- Node15 -->
<g id="node15" class="node">
<title>Node15</title>
<g id="a_node15"><a xlink:href="../../db/d4d/class_html_attrib_list.html" target="_top" xlink:title="Class representing a list of HTML attributes.">
<polygon fill="white" stroke="#666666" points="305,-120.5 220,-120.5 220,-101.5 305,-101.5 305,-120.5"/>
<text text-anchor="middle" x="262.5" y="-108.5" font-family="Helvetica,sans-Serif" font-size="10.00">HtmlAttribList</text>
</a>
</g>
</g>
<!-- Node15&#45;&gt;Node14 -->
<g id="edge16" class="edge">
<title>Node15&#45;&gt;Node14</title>
<path fill="none" stroke="#9a32cd" stroke-dasharray="5,2" d="M315.34,-102.65C364.86,-96.28 441.31,-90.64 506,-104 527.67,-108.48 550.77,-119.39 565.84,-127.45"/>
<polygon fill="#9a32cd" stroke="#9a32cd" points="314.64,-99.21 305.2,-104.01 315.58,-106.15 314.64,-99.21"/>
<text text-anchor="middle" x="435" y="-107" font-family="Helvetica,sans-Serif" font-size="10.00" fill="grey"> attribs</text>
</g>
<!-- Node16 -->
<g id="node16" class="node">
<title>Node16</title>
<g id="a_node16"><a xlink:title=" ">
<polygon fill="white" stroke="#666666" points="142,-120.5 0,-120.5 0,-101.5 142,-101.5 142,-120.5"/>
<text text-anchor="middle" x="71" y="-108.5" font-family="Helvetica,sans-Serif" font-size="10.00">std::vector&lt; HtmlAttrib &gt;</text>
</a>
</g>
</g>
<!-- Node16&#45;&gt;Node15 -->
<g id="edge17" class="edge">
<title>Node16&#45;&gt;Node15</title>
<path fill="none" stroke="#63b8ff" d="M152.25,-111C175.51,-111 199.96,-111 219.82,-111"/>
<polygon fill="#63b8ff" stroke="#63b8ff" points="152.02,-107.5 142.02,-111 152.02,-114.5 152.02,-107.5"/>
</g>
<!-- Node17 -->
<g id="node17" class="node">
<title>Node17</title>
<g id="a_node17"><a xlink:href="../../d1/d7f/class_doc_tokenizer.html" target="_top" xlink:title=" ">
<polygon fill="white" stroke="#666666" points="854.5,-212.5 773.5,-212.5 773.5,-193.5 854.5,-193.5 854.5,-212.5"/>
<text text-anchor="middle" x="814" y="-200.5" font-family="Helvetica,sans-Serif" font-size="10.00">DocTokenizer</text>
</a>
</g>
</g>
<!-- Node17&#45;&gt;Node4 -->
<g id="edge18" class="edge">
<title>Node17&#45;&gt;Node4</title>
<path fill="none" stroke="#9a32cd" stroke-dasharray="5,2" d="M864.75,-203C921.73,-203 1013.36,-203 1061.36,-203"/>
<polygon fill="#9a32cd" stroke="#9a32cd" points="864.54,-199.5 854.54,-203 864.54,-206.5 864.54,-199.5"/>
<text text-anchor="middle" x="936.5" y="-206" font-family="Helvetica,sans-Serif" font-size="10.00" fill="grey"> tokenizer</text>
</g>
<!-- Node18 -->
<g id="node18" class="node">
<title>Node18</title>
<g id="a_node18"><a xlink:href="../../d2/dc1/class_s_i_data_collection.html" target="_top" xlink:title=" ">
<polygon fill="white" stroke="#666666" points="863,-175.5 765,-175.5 765,-156.5 863,-156.5 863,-175.5"/>
<text text-anchor="middle" x="814" y="-163.5" font-family="Helvetica,sans-Serif" font-size="10.00">SIDataCollection</text>
</a>
</g>
</g>
<!-- Node18&#45;&gt;Node4 -->
<g id="edge19" class="edge">
<title>Node18&#45;&gt;Node4</title>
<path fill="none" stroke="#9a32cd" stroke-dasharray="5,2" d="M873.21,-173.1C907.03,-177.29 950.44,-182.78 989,-188 1013.22,-191.28 1040.58,-195.23 1061.16,-198.26"/>
<polygon fill="#9a32cd" stroke="#9a32cd" points="873.39,-169.6 863.04,-171.84 872.53,-176.54 873.39,-169.6"/>
<text text-anchor="middle" x="936.5" y="-191" font-family="Helvetica,sans-Serif" font-size="10.00" fill="grey"> searchData</text>
</g>
<!-- Node19 -->
<g id="node19" class="node">
<title>Node19</title>
<g id="a_node19"><a xlink:href="../../d9/dd3/struct_doc_node_list.html" target="_top" xlink:title=" ">
<polygon fill="white" stroke="#666666" points="1344,-157.5 1266,-157.5 1266,-138.5 1344,-138.5 1344,-157.5"/>
<text text-anchor="middle" x="1305" y="-145.5" font-family="Helvetica,sans-Serif" font-size="10.00">DocNodeList</text>
</a>
</g>
</g>
<!-- Node19&#45;&gt;Node2 -->
<g id="edge20" class="edge">
<title>Node19&#45;&gt;Node2</title>
<path fill="none" stroke="#9a32cd" stroke-dasharray="5,2" d="M1354.02,-151.33C1374.39,-152.86 1398.37,-154.82 1420,-157 1425.76,-157.58 1431.76,-158.23 1437.75,-158.92"/>
<polygon fill="#9a32cd" stroke="#9a32cd" points="1354.27,-147.84 1344.04,-150.59 1353.75,-154.82 1354.27,-147.84"/>
<text text-anchor="middle" x="1391" y="-160" font-family="Helvetica,sans-Serif" font-size="10.00" fill="grey"> m_children</text>
</g>
<!-- Node20 -->
<g id="node20" class="node">
<title>Node20</title>
<g id="a_node20"><a xlink:href="../../d0/d08/class_grow_vector.html" target="_top" xlink:title=" ">
<polygon fill="white" stroke="#666666" points="1181,-157.5 1007,-157.5 1007,-138.5 1181,-138.5 1181,-157.5"/>
<text text-anchor="middle" x="1094" y="-145.5" font-family="Helvetica,sans-Serif" font-size="10.00">GrowVector&lt; DocNodeVariant &gt;</text>
</a>
</g>
</g>
<!-- Node20&#45;&gt;Node19 -->
<g id="edge21" class="edge">
<title>Node20&#45;&gt;Node19</title>
<path fill="none" stroke="#63b8ff" d="M1191.29,-148C1217.7,-148 1244.82,-148 1265.84,-148"/>
<polygon fill="#63b8ff" stroke="#63b8ff" points="1191.21,-144.5 1181.21,-148 1191.21,-151.5 1191.21,-144.5"/>
</g>
<!-- Node21 -->
<g id="node21" class="node">
<title>Node21</title>
<g id="a_node21"><a xlink:href="../../d0/d08/class_grow_vector.html" target="_top" xlink:title="std::vector like container optimised for pushing elements to the back.">
<polygon fill="white" stroke="#666666" points="864.5,-138.5 763.5,-138.5 763.5,-119.5 864.5,-119.5 864.5,-138.5"/>
<text text-anchor="middle" x="814" y="-126.5" font-family="Helvetica,sans-Serif" font-size="10.00">GrowVector&lt; T &gt;</text>
</a>
</g>
</g>
<!-- Node21&#45;&gt;Node20 -->
<g id="edge22" class="edge">
<title>Node21&#45;&gt;Node20</title>
<path fill="none" stroke="orange" stroke-dasharray="5,2" d="M874.71,-128.6C908.34,-128.82 951.07,-129.84 989,-133 1004.18,-134.26 1020.52,-136.3 1035.65,-138.47"/>
<polygon fill="orange" stroke="orange" points="874.6,-125.1 864.58,-128.56 874.57,-132.1 874.6,-125.1"/>
<text text-anchor="middle" x="936.5" y="-136" font-family="Helvetica,sans-Serif" font-size="10.00" fill="grey"> &lt; DocNodeVariant &gt;</text>
</g>
</g>
</svg>
        <g id="navigator" transform="translate(0 0)" fill="#404254">
                <rect fill="#f2f5e9" fill-opacity="0.5" stroke="#606060" stroke-width=".5" x="0" y="0" width="60" height="60"/>
                <use id="zoomplus" xlink:href="#zoomPlus" x="17" y="9" onmousedown="handleZoom(evt,'in')"/>
                <use id="zoomminus" xlink:href="#zoomMin" x="42" y="9" onmousedown="handleZoom(evt,'out')"/>
                <use id="reset" xlink:href="#resetDef" x="30" y="36" onmousedown="handleReset()"/>
                <g id="arrowUp" xlink:href="#dirArrow" transform="translate(30 24)" onmousedown="handlePan(0,-1)">
                  <use xlink:href="#rim" fill="#404040">
                        <set attributeName="fill" to="#808080" begin="arrowUp.mouseover" end="arrowUp.mouseout"/>
                  </use>
                  <path fill="none" stroke="white" stroke-width="1.5" d="M0,-3.0v7 M-2.5,-0.5L0,-3.0L2.5,-0.5"/>
                </g>
                <g id="arrowRight" xlink:href="#dirArrow" transform="rotate(90) translate(36 -43)" onmousedown="handlePan(1,0)">
                  <use xlink:href="#rim" fill="#404040">
                        <set attributeName="fill" to="#808080" begin="arrowRight.mouseover" end="arrowRight.mouseout"/>
                  </use>
                  <path fill="none" stroke="white" stroke-width="1.5" d="M0,-3.0v7 M-2.5,-0.5L0,-3.0L2.5,-0.5"/>
                </g>
                <g id="arrowDown" xlink:href="#dirArrow" transform="rotate(180) translate(-30 -48)" onmousedown="handlePan(0,1)">
                  <use xlink:href="#rim" fill="#404040">
                        <set attributeName="fill" to="#808080" begin="arrowDown.mouseover" end="arrowDown.mouseout"/>
                  </use>
                  <path fill="none" stroke="white" stroke-width="1.5" d="M0,-3.0v7 M-2.5,-0.5L0,-3.0L2.5,-0.5"/>
                </g>
                <g id="arrowLeft" xlink:href="#dirArrow" transform="rotate(270) translate(-36 17)" onmousedown="handlePan(-1,0)">
                  <use xlink:href="#rim" fill="#404040">
                        <set attributeName="fill" to="#808080" begin="arrowLeft.mouseover" end="arrowLeft.mouseout"/>
                  </use>
                  <path fill="none" stroke="white" stroke-width="1.5" d="M0,-3.0v7 M-2.5,-0.5L0,-3.0L2.5,-0.5"/>
                </g>
        </g>
        <svg viewBox="0 0 15 15" width="100%" height="30px" preserveAspectRatio="xMaxYMin meet">
         <g id="arrow_out" transform="scale(0.3 0.3)">
          <a xlink:href="class_doc_param_sect__coll__graph_org.svg" target="_base">
           <rect id="button" ry="5" rx="5" y="6" x="6" height="38" width="38"
                fill="#f2f5e9" fill-opacity="0.5" stroke="#606060" stroke-width="1.0"/>
           <path id="arrow"
             d="M 11.500037,31.436501 C 11.940474,20.09759 22.043105,11.32322 32.158766,21.979434 L 37.068811,17.246167 C 37.068811,17.246167 37.088388,32 37.088388,32 L 22.160133,31.978069 C 22.160133,31.978069 26.997745,27.140456 26.997745,27.140456 C 18.528582,18.264221 13.291696,25.230495 11.500037,31.436501 z"
             style="fill:#404040;"/>
          </a>
         </g>
        </svg>
</svg>
