<?xml version="1.0" encoding="UTF-8" standalone="no"?>
<!DOCTYPE svg PUBLIC "-//W3C//DTD SVG 1.1//EN"
 "http://www.w3.org/Graphics/SVG/1.1/DTD/svg11.dtd">
<!-- Generated by graphviz version 2.43.0 (0)
 -->
<!-- Title: GenericNodeListContext Pages: 1 -->
<!--zoomable 937 -->
<svg id="main" version="1.1" xmlns="http://www.w3.org/2000/svg" xmlns:xlink="http://www.w3.org/1999/xlink" xml:space="preserve" onload="init(evt)">
<style type="text/css"><![CDATA[
.edge:hover path { stroke: red; }
.edge:hover polygon { stroke: red; fill: red; }
]]></style>
<script type="text/javascript"><![CDATA[
var edges = document.getElementsByTagName('g');
if (edges && edges.length) {
  for (var i=0;i<edges.length;i++) {
    if (edges[i].id.substr(0,4)=='edge') {
      edges[i].setAttribute('class','edge');
    }
  }
}
]]></script>
        <defs>
                <circle id="rim" cx="0" cy="0" r="7"/>
                <circle id="rim2" cx="0" cy="0" r="3.5"/>
                <g id="zoomPlus">
                        <use xlink:href="#rim" fill="#404040">
                                <set attributeName="fill" to="#808080" begin="zoomplus.mouseover" end="zoomplus.mouseout"/>
                        </use>
                        <path d="M-4,0h8M0,-4v8" fill="none" stroke="white" stroke-width="1.5" pointer-events="none"/>
                </g>
                <g id="zoomMin">
                        <use xlink:href="#rim" fill="#404040">
                                <set attributeName="fill" to="#808080" begin="zoomminus.mouseover" end="zoomminus.mouseout"/>
                        </use>
                        <path d="M-4,0h8" fill="none" stroke="white" stroke-width="1.5" pointer-events="none"/>
                </g>
                <g id="dirArrow">
                        <path fill="none" stroke="white" stroke-width="1.5" d="M0,-3.0v7 M-2.5,-0.5L0,-3.0L2.5,-0.5"/>
                </g>
               <g id="resetDef">
                       <use xlink:href="#rim2" fill="#404040">
                               <set attributeName="fill" to="#808080" begin="reset.mouseover" end="reset.mouseout"/>
                       </use>
               </g>
        </defs>

<script type="text/javascript">
var viewWidth = 485;
var viewHeight = 937;
var sectionId = 'dynsection-0';
</script>
<script xlink:href="../../svgpan.js"/>
<svg id="graph" class="graph">
<g id="viewport">
<title>GenericNodeListContext</title>
<!-- Node1 -->
<g id="node1" class="node">
<title>Node1</title>
<g id="a_node1"><a xlink:title="standard template list implementation">
<polygon fill="#999999" stroke="#666666" points="266,-473 131,-473 131,-454 266,-454 266,-473"/>
<text text-anchor="middle" x="198.5" y="-461" font-family="Helvetica,sans-Serif" font-size="10.00">GenericNodeListContext</text>
</a>
</g>
</g>
<!-- Node3 -->
<g id="node3" class="node">
<title>Node3</title>
<g id="a_node3"><a xlink:href="../../d6/db0/class_all_members_list_context_1_1_private.html" target="_top" xlink:title=" ">
<polygon fill="white" stroke="#666666" points="455,-928.5 324,-928.5 324,-898.5 455,-898.5 455,-928.5"/>
<text text-anchor="start" x="332" y="-916.5" font-family="Helvetica,sans-Serif" font-size="10.00">AllMembersListContext</text>
<text text-anchor="middle" x="389.5" y="-905.5" font-family="Helvetica,sans-Serif" font-size="10.00">::Private</text>
</a>
</g>
</g>
<!-- Node1&#45;&gt;Node3 -->
<g id="edge2" class="edge">
<title>Node1&#45;&gt;Node3</title>
<path fill="none" stroke="#63b8ff" d="M201.59,-483.12C210.04,-558.65 243.94,-829.4 302,-889.5 308.06,-895.78 315.61,-900.46 323.71,-903.94"/>
<polygon fill="#63b8ff" stroke="#63b8ff" points="205.06,-482.65 200.5,-473.09 198.1,-483.41 205.06,-482.65"/>
</g>
<!-- Node4 -->
<g id="node4" class="node">
<title>Node4</title>
<g id="a_node4"><a xlink:href="../../d7/dc4/class_argument_list_context_1_1_private.html" target="_top" xlink:title=" ">
<polygon fill="white" stroke="#666666" points="449.5,-880.5 329.5,-880.5 329.5,-850.5 449.5,-850.5 449.5,-880.5"/>
<text text-anchor="start" x="337.5" y="-868.5" font-family="Helvetica,sans-Serif" font-size="10.00">ArgumentListContext</text>
<text text-anchor="middle" x="389.5" y="-857.5" font-family="Helvetica,sans-Serif" font-size="10.00">::Private</text>
</a>
</g>
</g>
<!-- Node1&#45;&gt;Node4 -->
<g id="edge3" class="edge">
<title>Node1&#45;&gt;Node4</title>
<path fill="none" stroke="#63b8ff" d="M202.23,-483.12C212.37,-553.1 249.89,-789.09 302,-841.5 309.47,-849.02 319.08,-854.23 329.16,-857.84"/>
<polygon fill="#63b8ff" stroke="#63b8ff" points="205.67,-482.44 200.8,-473.03 198.74,-483.43 205.67,-482.44"/>
</g>
<!-- Node5 -->
<g id="node5" class="node">
<title>Node5</title>
<g id="a_node5"><a xlink:href="../../d4/d4e/class_class_list_context_1_1_private.html" target="_top" xlink:title=" ">
<polygon fill="white" stroke="#666666" points="459,-832 320,-832 320,-813 459,-813 459,-832"/>
<text text-anchor="middle" x="389.5" y="-820" font-family="Helvetica,sans-Serif" font-size="10.00">ClassListContext::Private</text>
</a>
</g>
</g>
<!-- Node1&#45;&gt;Node5 -->
<g id="edge4" class="edge">
<title>Node1&#45;&gt;Node5</title>
<path fill="none" stroke="#63b8ff" d="M199.04,-483.18C198.82,-541.55 206.59,-715.13 302,-803.5 307.19,-808.31 313.31,-812 319.85,-814.82"/>
<polygon fill="#63b8ff" stroke="#63b8ff" points="202.54,-483.15 199.17,-473.1 195.54,-483.06 202.54,-483.15"/>
</g>
<!-- Node6 -->
<g id="node6" class="node">
<title>Node6</title>
<g id="a_node6"><a xlink:href="../../d3/d67/class_concept_list_context_1_1_private.html" target="_top" xlink:title=" ">
<polygon fill="white" stroke="#666666" points="445.5,-794.5 333.5,-794.5 333.5,-764.5 445.5,-764.5 445.5,-794.5"/>
<text text-anchor="start" x="341.5" y="-782.5" font-family="Helvetica,sans-Serif" font-size="10.00">ConceptListContext</text>
<text text-anchor="middle" x="389.5" y="-771.5" font-family="Helvetica,sans-Serif" font-size="10.00">::Private</text>
</a>
</g>
</g>
<!-- Node1&#45;&gt;Node6 -->
<g id="edge5" class="edge">
<title>Node1&#45;&gt;Node6</title>
<path fill="none" stroke="#63b8ff" d="M200.41,-483.28C203.92,-535.75 220.84,-679.6 302,-755.5 310.65,-763.59 321.79,-768.99 333.17,-772.59"/>
<polygon fill="#63b8ff" stroke="#63b8ff" points="203.9,-483.06 199.83,-473.27 196.91,-483.46 203.9,-483.06"/>
</g>
<!-- Node7 -->
<g id="node7" class="node">
<title>Node7</title>
<g id="a_node7"><a xlink:href="../../d7/d7d/class_dir_list_context_1_1_private.html" target="_top" xlink:title=" ">
<polygon fill="white" stroke="#666666" points="453,-746 326,-746 326,-727 453,-727 453,-746"/>
<text text-anchor="middle" x="389.5" y="-734" font-family="Helvetica,sans-Serif" font-size="10.00">DirListContext::Private</text>
</a>
</g>
</g>
<!-- Node1&#45;&gt;Node7 -->
<g id="edge6" class="edge">
<title>Node1&#45;&gt;Node7</title>
<path fill="none" stroke="#63b8ff" d="M201.33,-483.16C206.88,-531.17 228.03,-654.98 302,-717.5 308.93,-723.36 317.26,-727.52 325.97,-730.47"/>
<polygon fill="#63b8ff" stroke="#63b8ff" points="204.8,-482.73 200.27,-473.15 197.84,-483.46 204.8,-482.73"/>
</g>
<!-- Node8 -->
<g id="node8" class="node">
<title>Node8</title>
<g id="a_node8"><a xlink:href="../../da/d6f/class_example_list_context_1_1_private.html" target="_top" xlink:title=" ">
<polygon fill="white" stroke="#666666" points="447,-708.5 332,-708.5 332,-678.5 447,-678.5 447,-708.5"/>
<text text-anchor="start" x="340" y="-696.5" font-family="Helvetica,sans-Serif" font-size="10.00">ExampleListContext</text>
<text text-anchor="middle" x="389.5" y="-685.5" font-family="Helvetica,sans-Serif" font-size="10.00">::Private</text>
</a>
</g>
</g>
<!-- Node1&#45;&gt;Node8 -->
<g id="edge7" class="edge">
<title>Node1&#45;&gt;Node8</title>
<path fill="none" stroke="#63b8ff" d="M203.66,-483.34C213.34,-524.48 241.32,-619.43 302,-669.5 310.53,-676.54 320.99,-681.52 331.64,-685.05"/>
<polygon fill="#63b8ff" stroke="#63b8ff" points="207.05,-482.45 201.45,-473.45 200.22,-483.98 207.05,-482.45"/>
</g>
<!-- Node9 -->
<g id="node9" class="node">
<title>Node9</title>
<g id="a_node9"><a xlink:href="../../d1/d6e/class_file_list_context_1_1_private.html" target="_top" xlink:title=" ">
<polygon fill="white" stroke="#666666" points="454.5,-660 324.5,-660 324.5,-641 454.5,-641 454.5,-660"/>
<text text-anchor="middle" x="389.5" y="-648" font-family="Helvetica,sans-Serif" font-size="10.00">FileListContext::Private</text>
</a>
</g>
</g>
<!-- Node1&#45;&gt;Node9 -->
<g id="edge8" class="edge">
<title>Node1&#45;&gt;Node9</title>
<path fill="none" stroke="#63b8ff" d="M205.65,-483.04C217.89,-518.57 248.81,-593.56 302,-631.5 308.63,-636.23 316.23,-639.82 324.1,-642.53"/>
<polygon fill="#63b8ff" stroke="#63b8ff" points="208.91,-481.76 202.45,-473.37 202.27,-483.96 208.91,-481.76"/>
</g>
<!-- Node10 -->
<g id="node10" class="node">
<title>Node10</title>
<g id="a_node10"><a xlink:href="../../dc/d85/class_include_info_list_context_1_1_private.html" target="_top" xlink:title=" ">
<polygon fill="white" stroke="#666666" points="452.5,-622.5 326.5,-622.5 326.5,-592.5 452.5,-592.5 452.5,-622.5"/>
<text text-anchor="start" x="334.5" y="-610.5" font-family="Helvetica,sans-Serif" font-size="10.00">IncludeInfoListContext</text>
<text text-anchor="middle" x="389.5" y="-599.5" font-family="Helvetica,sans-Serif" font-size="10.00">::Private</text>
</a>
</g>
</g>
<!-- Node1&#45;&gt;Node10 -->
<g id="edge9" class="edge">
<title>Node1&#45;&gt;Node10</title>
<path fill="none" stroke="#63b8ff" d="M210.27,-481.98C226.66,-508.49 260.43,-557.01 302,-583.5 309.36,-588.19 317.64,-591.98 326.08,-595.03"/>
<polygon fill="#63b8ff" stroke="#63b8ff" points="213.19,-480.05 205.03,-473.3 207.19,-483.67 213.19,-480.05"/>
</g>
<!-- Node11 -->
<g id="node11" class="node">
<title>Node11</title>
<g id="a_node11"><a xlink:href="../../d3/dfa/class_inheritance_list_context_1_1_private.html" target="_top" xlink:title=" ">
<polygon fill="white" stroke="#666666" points="453,-574.5 326,-574.5 326,-544.5 453,-544.5 453,-574.5"/>
<text text-anchor="start" x="334" y="-562.5" font-family="Helvetica,sans-Serif" font-size="10.00">InheritanceListContext</text>
<text text-anchor="middle" x="389.5" y="-551.5" font-family="Helvetica,sans-Serif" font-size="10.00">::Private</text>
</a>
</g>
</g>
<!-- Node1&#45;&gt;Node11 -->
<g id="edge10" class="edge">
<title>Node1&#45;&gt;Node11</title>
<path fill="none" stroke="#63b8ff" d="M218.24,-479.66C237.9,-495.87 270.32,-520.53 302,-535.5 309.47,-539.03 317.55,-542.13 325.67,-544.82"/>
<polygon fill="#63b8ff" stroke="#63b8ff" points="220.3,-476.82 210.39,-473.08 215.8,-482.18 220.3,-476.82"/>
</g>
<!-- Node12 -->
<g id="node12" class="node">
<title>Node12</title>
<g id="a_node12"><a xlink:href="../../d0/de8/class_inherited_member_info_list_context_1_1_private.html" target="_top" xlink:title=" ">
<polygon fill="white" stroke="#666666" points="477,-526.5 302,-526.5 302,-496.5 477,-496.5 477,-526.5"/>
<text text-anchor="start" x="310" y="-514.5" font-family="Helvetica,sans-Serif" font-size="10.00">InheritedMemberInfoListContext</text>
<text text-anchor="middle" x="389.5" y="-503.5" font-family="Helvetica,sans-Serif" font-size="10.00">::Private</text>
</a>
</g>
</g>
<!-- Node1&#45;&gt;Node12 -->
<g id="edge11" class="edge">
<title>Node1&#45;&gt;Node12</title>
<path fill="none" stroke="#63b8ff" d="M247.22,-475.62C272.11,-481.94 302.79,-489.73 329.19,-496.44"/>
<polygon fill="#63b8ff" stroke="#63b8ff" points="247.85,-472.17 237.29,-473.1 246.12,-478.95 247.85,-472.17"/>
</g>
<!-- Node13 -->
<g id="node13" class="node">
<title>Node13</title>
<g id="a_node13"><a xlink:href="../../d3/d09/class_member_group_list_context_1_1_private.html" target="_top" xlink:title=" ">
<polygon fill="white" stroke="#666666" points="460.5,-478.5 318.5,-478.5 318.5,-448.5 460.5,-448.5 460.5,-478.5"/>
<text text-anchor="start" x="326.5" y="-466.5" font-family="Helvetica,sans-Serif" font-size="10.00">MemberGroupListContext</text>
<text text-anchor="middle" x="389.5" y="-455.5" font-family="Helvetica,sans-Serif" font-size="10.00">::Private</text>
</a>
</g>
</g>
<!-- Node1&#45;&gt;Node13 -->
<g id="edge12" class="edge">
<title>Node1&#45;&gt;Node13</title>
<path fill="none" stroke="#63b8ff" d="M276.17,-463.5C290.1,-463.5 304.57,-463.5 318.3,-463.5"/>
<polygon fill="#63b8ff" stroke="#63b8ff" points="276.13,-460 266.13,-463.5 276.13,-467 276.13,-460"/>
</g>
<!-- Node14 -->
<g id="node14" class="node">
<title>Node14</title>
<g id="a_node14"><a xlink:href="../../df/db1/class_member_list_context_1_1_private.html" target="_top" xlink:title=" ">
<polygon fill="white" stroke="#666666" points="449,-430.5 330,-430.5 330,-400.5 449,-400.5 449,-430.5"/>
<text text-anchor="start" x="338" y="-418.5" font-family="Helvetica,sans-Serif" font-size="10.00">MemberListContext::</text>
<text text-anchor="middle" x="389.5" y="-407.5" font-family="Helvetica,sans-Serif" font-size="10.00">Private</text>
</a>
</g>
</g>
<!-- Node1&#45;&gt;Node14 -->
<g id="edge13" class="edge">
<title>Node1&#45;&gt;Node14</title>
<path fill="none" stroke="#63b8ff" d="M247.31,-451.36C272.41,-444.98 303.39,-437.12 329.93,-430.38"/>
<polygon fill="#63b8ff" stroke="#63b8ff" points="246.12,-448.05 237.29,-453.9 247.85,-454.83 246.12,-448.05"/>
</g>
<!-- Node15 -->
<g id="node15" class="node">
<title>Node15</title>
<g id="a_node15"><a xlink:href="../../da/d0c/class_module_list_context_1_1_private.html" target="_top" xlink:title=" ">
<polygon fill="white" stroke="#666666" points="446.5,-382.5 332.5,-382.5 332.5,-352.5 446.5,-352.5 446.5,-382.5"/>
<text text-anchor="start" x="340.5" y="-370.5" font-family="Helvetica,sans-Serif" font-size="10.00">ModuleListContext::</text>
<text text-anchor="middle" x="389.5" y="-359.5" font-family="Helvetica,sans-Serif" font-size="10.00">Private</text>
</a>
</g>
</g>
<!-- Node1&#45;&gt;Node15 -->
<g id="edge14" class="edge">
<title>Node1&#45;&gt;Node15</title>
<path fill="none" stroke="#63b8ff" d="M218.24,-447.34C237.9,-431.13 270.32,-406.47 302,-391.5 311.44,-387.04 321.86,-383.27 332.11,-380.13"/>
<polygon fill="#63b8ff" stroke="#63b8ff" points="215.8,-444.82 210.39,-453.92 220.3,-450.18 215.8,-444.82"/>
</g>
<!-- Node16 -->
<g id="node16" class="node">
<title>Node16</title>
<g id="a_node16"><a xlink:href="../../d1/d49/class_namespace_list_context_1_1_private.html" target="_top" xlink:title=" ">
<polygon fill="white" stroke="#666666" points="454.5,-334.5 324.5,-334.5 324.5,-304.5 454.5,-304.5 454.5,-334.5"/>
<text text-anchor="start" x="332.5" y="-322.5" font-family="Helvetica,sans-Serif" font-size="10.00">NamespaceListContext</text>
<text text-anchor="middle" x="389.5" y="-311.5" font-family="Helvetica,sans-Serif" font-size="10.00">::Private</text>
</a>
</g>
</g>
<!-- Node1&#45;&gt;Node16 -->
<g id="edge15" class="edge">
<title>Node1&#45;&gt;Node16</title>
<path fill="none" stroke="#63b8ff" d="M210.27,-445.02C226.66,-418.51 260.43,-369.99 302,-343.5 308.83,-339.15 316.46,-335.57 324.28,-332.64"/>
<polygon fill="#63b8ff" stroke="#63b8ff" points="207.19,-443.33 205.03,-453.7 213.19,-446.95 207.19,-443.33"/>
</g>
<!-- Node17 -->
<g id="node17" class="node">
<title>Node17</title>
<g id="a_node17"><a xlink:href="../../d7/db8/class_nesting_context_1_1_private.html" target="_top" xlink:title=" ">
<polygon fill="white" stroke="#666666" points="456,-286 323,-286 323,-267 456,-267 456,-286"/>
<text text-anchor="middle" x="389.5" y="-274" font-family="Helvetica,sans-Serif" font-size="10.00">NestingContext::Private</text>
</a>
</g>
</g>
<!-- Node1&#45;&gt;Node17 -->
<g id="edge16" class="edge">
<title>Node1&#45;&gt;Node17</title>
<path fill="none" stroke="#63b8ff" d="M205.65,-443.96C217.89,-408.43 248.81,-333.44 302,-295.5 308.26,-291.04 315.37,-287.59 322.77,-284.94"/>
<polygon fill="#63b8ff" stroke="#63b8ff" points="202.27,-443.04 202.45,-453.63 208.91,-445.24 202.27,-443.04"/>
</g>
<!-- Node18 -->
<g id="node18" class="node">
<title>Node18</title>
<g id="a_node18"><a xlink:href="../../dc/d0a/class_page_list_context_1_1_private.html" target="_top" xlink:title=" ">
<polygon fill="white" stroke="#666666" points="457.5,-249 321.5,-249 321.5,-230 457.5,-230 457.5,-249"/>
<text text-anchor="middle" x="389.5" y="-237" font-family="Helvetica,sans-Serif" font-size="10.00">PageListContext::Private</text>
</a>
</g>
</g>
<!-- Node1&#45;&gt;Node18 -->
<g id="edge17" class="edge">
<title>Node1&#45;&gt;Node18</title>
<path fill="none" stroke="#63b8ff" d="M203.28,-443.92C212.35,-402.49 239.42,-305.78 302,-257.5 307.71,-253.1 314.24,-249.7 321.09,-247.1"/>
<polygon fill="#63b8ff" stroke="#63b8ff" points="199.82,-443.34 201.22,-453.84 206.68,-444.76 199.82,-443.34"/>
</g>
<!-- Node19 -->
<g id="node19" class="node">
<title>Node19</title>
<g id="a_node19"><a xlink:href="../../d7/d01/class_search_indices_context_1_1_private.html" target="_top" xlink:title=" ">
<polygon fill="white" stroke="#666666" points="450.5,-211.5 328.5,-211.5 328.5,-181.5 450.5,-181.5 450.5,-211.5"/>
<text text-anchor="start" x="336.5" y="-199.5" font-family="Helvetica,sans-Serif" font-size="10.00">SearchIndicesContext</text>
<text text-anchor="middle" x="389.5" y="-188.5" font-family="Helvetica,sans-Serif" font-size="10.00">::Private</text>
</a>
</g>
</g>
<!-- Node1&#45;&gt;Node19 -->
<g id="edge18" class="edge">
<title>Node1&#45;&gt;Node19</title>
<path fill="none" stroke="#63b8ff" d="M202,-443.7C208.9,-397.43 232.57,-281.53 302,-220.5 309.49,-213.91 318.64,-209.12 328.16,-205.64"/>
<polygon fill="#63b8ff" stroke="#63b8ff" points="198.49,-443.5 200.58,-453.89 205.42,-444.46 198.49,-443.5"/>
</g>
<!-- Node20 -->
<g id="node20" class="node">
<title>Node20</title>
<g id="a_node20"><a xlink:href="../../d4/d0d/class_symbol_group_list_context_1_1_private.html" target="_top" xlink:title=" ">
<polygon fill="white" stroke="#666666" points="458.5,-163.5 320.5,-163.5 320.5,-133.5 458.5,-133.5 458.5,-163.5"/>
<text text-anchor="start" x="328.5" y="-151.5" font-family="Helvetica,sans-Serif" font-size="10.00">SymbolGroupListContext</text>
<text text-anchor="middle" x="389.5" y="-140.5" font-family="Helvetica,sans-Serif" font-size="10.00">::Private</text>
</a>
</g>
</g>
<!-- Node1&#45;&gt;Node20 -->
<g id="edge19" class="edge">
<title>Node1&#45;&gt;Node20</title>
<path fill="none" stroke="#63b8ff" d="M200.45,-443.45C204.07,-390.89 221.22,-247.97 302,-172.5 307.35,-167.5 313.66,-163.53 320.38,-160.37"/>
<polygon fill="#63b8ff" stroke="#63b8ff" points="196.94,-443.57 199.85,-453.76 203.93,-443.98 196.94,-443.57"/>
</g>
<!-- Node21 -->
<g id="node21" class="node">
<title>Node21</title>
<g id="a_node21"><a xlink:href="../../d6/d8b/class_symbol_indices_context_1_1_private.html" target="_top" xlink:title=" ">
<polygon fill="white" stroke="#666666" points="452.5,-115.5 326.5,-115.5 326.5,-85.5 452.5,-85.5 452.5,-115.5"/>
<text text-anchor="start" x="334.5" y="-103.5" font-family="Helvetica,sans-Serif" font-size="10.00">SymbolIndicesContext</text>
<text text-anchor="middle" x="389.5" y="-92.5" font-family="Helvetica,sans-Serif" font-size="10.00">::Private</text>
</a>
</g>
</g>
<!-- Node1&#45;&gt;Node21 -->
<g id="edge20" class="edge">
<title>Node1&#45;&gt;Node21</title>
<path fill="none" stroke="#63b8ff" d="M199.29,-443.73C199.8,-385.81 209.45,-214.95 302,-124.5 308.8,-117.86 317.27,-113.01 326.23,-109.5"/>
<polygon fill="#63b8ff" stroke="#63b8ff" points="195.79,-443.75 199.29,-453.75 202.79,-443.75 195.79,-443.75"/>
</g>
<!-- Node22 -->
<g id="node22" class="node">
<title>Node22</title>
<g id="a_node22"><a xlink:href="../../da/d36/class_symbol_list_context_1_1_private.html" target="_top" xlink:title=" ">
<polygon fill="white" stroke="#666666" points="447,-67.5 332,-67.5 332,-37.5 447,-37.5 447,-67.5"/>
<text text-anchor="start" x="340" y="-55.5" font-family="Helvetica,sans-Serif" font-size="10.00">SymbolListContext::</text>
<text text-anchor="middle" x="389.5" y="-44.5" font-family="Helvetica,sans-Serif" font-size="10.00">Private</text>
</a>
</g>
</g>
<!-- Node1&#45;&gt;Node22 -->
<g id="edge21" class="edge">
<title>Node1&#45;&gt;Node22</title>
<path fill="none" stroke="#63b8ff" d="M202.17,-443.42C212.07,-371.79 248.89,-130.23 302,-76.5 310.11,-68.3 320.75,-62.83 331.8,-59.21"/>
<polygon fill="#63b8ff" stroke="#63b8ff" points="198.64,-443.36 200.77,-453.74 205.58,-444.3 198.64,-443.36"/>
</g>
<!-- Node23 -->
<g id="node23" class="node">
<title>Node23</title>
<g id="a_node23"><a xlink:href="../../db/da0/class_used_files_context_1_1_private.html" target="_top" xlink:title=" ">
<polygon fill="white" stroke="#666666" points="461,-19 318,-19 318,0 461,0 461,-19"/>
<text text-anchor="middle" x="389.5" y="-7" font-family="Helvetica,sans-Serif" font-size="10.00">UsedFilesContext::Private</text>
</a>
</g>
</g>
<!-- Node1&#45;&gt;Node23 -->
<g id="edge22" class="edge">
<title>Node1&#45;&gt;Node23</title>
<path fill="none" stroke="#63b8ff" d="M201.43,-443.37C209.28,-365.9 241.27,-88.31 302,-28.5 306.6,-23.97 312.02,-20.41 317.87,-17.63"/>
<polygon fill="#63b8ff" stroke="#63b8ff" points="197.92,-443.37 200.41,-453.66 204.88,-444.06 197.92,-443.37"/>
</g>
<!-- Node2 -->
<g id="node2" class="node">
<title>Node2</title>
<g id="a_node2"><a xlink:href="../../d6/d88/class_template_list_intf.html" target="_top" xlink:title="Abstract read&#45;only interface for a context value of type list.">
<polygon fill="white" stroke="#666666" points="95,-473 0,-473 0,-454 95,-454 95,-473"/>
<text text-anchor="middle" x="47.5" y="-461" font-family="Helvetica,sans-Serif" font-size="10.00">TemplateListIntf</text>
</a>
</g>
</g>
<!-- Node2&#45;&gt;Node1 -->
<g id="edge1" class="edge">
<title>Node2&#45;&gt;Node1</title>
<path fill="none" stroke="#63b8ff" d="M105.5,-463.5C113.75,-463.5 122.31,-463.5 130.74,-463.5"/>
<polygon fill="#63b8ff" stroke="#63b8ff" points="105.24,-460 95.24,-463.5 105.24,-467 105.24,-460"/>
</g>
</g>
</svg>
        <g id="navigator" transform="translate(0 0)" fill="#404254">
                <rect fill="#f2f5e9" fill-opacity="0.5" stroke="#606060" stroke-width=".5" x="0" y="0" width="60" height="60"/>
                <use id="zoomplus" xlink:href="#zoomPlus" x="17" y="9" onmousedown="handleZoom(evt,'in')"/>
                <use id="zoomminus" xlink:href="#zoomMin" x="42" y="9" onmousedown="handleZoom(evt,'out')"/>
                <use id="reset" xlink:href="#resetDef" x="30" y="36" onmousedown="handleReset()"/>
                <g id="arrowUp" xlink:href="#dirArrow" transform="translate(30 24)" onmousedown="handlePan(0,-1)">
                  <use xlink:href="#rim" fill="#404040">
                        <set attributeName="fill" to="#808080" begin="arrowUp.mouseover" end="arrowUp.mouseout"/>
                  </use>
                  <path fill="none" stroke="white" stroke-width="1.5" d="M0,-3.0v7 M-2.5,-0.5L0,-3.0L2.5,-0.5"/>
                </g>
                <g id="arrowRight" xlink:href="#dirArrow" transform="rotate(90) translate(36 -43)" onmousedown="handlePan(1,0)">
                  <use xlink:href="#rim" fill="#404040">
                        <set attributeName="fill" to="#808080" begin="arrowRight.mouseover" end="arrowRight.mouseout"/>
                  </use>
                  <path fill="none" stroke="white" stroke-width="1.5" d="M0,-3.0v7 M-2.5,-0.5L0,-3.0L2.5,-0.5"/>
                </g>
                <g id="arrowDown" xlink:href="#dirArrow" transform="rotate(180) translate(-30 -48)" onmousedown="handlePan(0,1)">
                  <use xlink:href="#rim" fill="#404040">
                        <set attributeName="fill" to="#808080" begin="arrowDown.mouseover" end="arrowDown.mouseout"/>
                  </use>
                  <path fill="none" stroke="white" stroke-width="1.5" d="M0,-3.0v7 M-2.5,-0.5L0,-3.0L2.5,-0.5"/>
                </g>
                <g id="arrowLeft" xlink:href="#dirArrow" transform="rotate(270) translate(-36 17)" onmousedown="handlePan(-1,0)">
                  <use xlink:href="#rim" fill="#404040">
                        <set attributeName="fill" to="#808080" begin="arrowLeft.mouseover" end="arrowLeft.mouseout"/>
                  </use>
                  <path fill="none" stroke="white" stroke-width="1.5" d="M0,-3.0v7 M-2.5,-0.5L0,-3.0L2.5,-0.5"/>
                </g>
        </g>
        <svg viewBox="0 0 15 15" width="100%" height="30px" preserveAspectRatio="xMaxYMin meet">
         <g id="arrow_out" transform="scale(0.3 0.3)">
          <a xlink:href="class_generic_node_list_context__inherit__graph_org.svg" target="_base">
           <rect id="button" ry="5" rx="5" y="6" x="6" height="38" width="38"
                fill="#f2f5e9" fill-opacity="0.5" stroke="#606060" stroke-width="1.0"/>
           <path id="arrow"
             d="M 11.500037,31.436501 C 11.940474,20.09759 22.043105,11.32322 32.158766,21.979434 L 37.068811,17.246167 C 37.068811,17.246167 37.088388,32 37.088388,32 L 22.160133,31.978069 C 22.160133,31.978069 26.997745,27.140456 26.997745,27.140456 C 18.528582,18.264221 13.291696,25.230495 11.500037,31.436501 z"
             style="fill:#404040;"/>
          </a>
         </g>
        </svg>
</svg>
