<?xml version="1.0" encoding="UTF-8" standalone="no"?>
<!DOCTYPE svg PUBLIC "-//W3C//DTD SVG 1.1//EN"
 "http://www.w3.org/Graphics/SVG/1.1/DTD/svg11.dtd">
<!-- Generated by graphviz version 2.43.0 (0)
 -->
<!-- Title: MemberDef Pages: 1 -->
<svg width="306pt" height="269pt"
 viewBox="0.00 0.00 306.00 269.00" xmlns="http://www.w3.org/2000/svg" xmlns:xlink="http://www.w3.org/1999/xlink">
<g id="graph0" class="graph" transform="scale(1 1) rotate(0) translate(4 265)">
<title>MemberDef</title>
<!-- Node1 -->
<g id="node1" class="node">
<title>Node1</title>
<g id="a_node1"><a xlink:title="A model of a class/file/namespace member symbol.">
<polygon fill="#999999" stroke="#666666" points="175,-206 101,-206 101,-187 175,-187 175,-206"/>
<text text-anchor="middle" x="138" y="-194" font-family="Helvetica,sans-Serif" font-size="10.00">MemberDef</text>
</a>
</g>
</g>
<!-- Node3 -->
<g id="node3" class="node">
<title>Node3</title>
<g id="a_node3"><a xlink:href="../../d8/d83/class_definition_alias_mixin.html" target="_top" xlink:title=" ">
<polygon fill="white" stroke="#666666" points="129.5,-151 14.5,-151 14.5,-121 129.5,-121 129.5,-151"/>
<text text-anchor="start" x="22.5" y="-139" font-family="Helvetica,sans-Serif" font-size="10.00">DefinitionAliasMixin</text>
<text text-anchor="middle" x="72" y="-128" font-family="Helvetica,sans-Serif" font-size="10.00">&lt; MemberDef &gt;</text>
</a>
</g>
</g>
<!-- Node1&#45;&gt;Node3 -->
<g id="edge2" class="edge">
<title>Node1&#45;&gt;Node3</title>
<path fill="none" stroke="#63b8ff" d="M120.78,-180.23C110.62,-171.23 97.85,-159.91 87.92,-151.11"/>
<polygon fill="#63b8ff" stroke="#63b8ff" points="118.46,-182.85 128.26,-186.87 123.1,-177.62 118.46,-182.85"/>
</g>
<!-- Node5 -->
<g id="node5" class="node">
<title>Node5</title>
<g id="a_node5"><a xlink:href="../../dd/d4b/class_member_def_mutable.html" target="_top" xlink:title=" ">
<polygon fill="white" stroke="#666666" points="268,-145.5 154,-145.5 154,-126.5 268,-126.5 268,-145.5"/>
<text text-anchor="middle" x="211" y="-133.5" font-family="Helvetica,sans-Serif" font-size="10.00">MemberDefMutable</text>
</a>
</g>
</g>
<!-- Node1&#45;&gt;Node5 -->
<g id="edge4" class="edge">
<title>Node1&#45;&gt;Node5</title>
<path fill="none" stroke="#63b8ff" d="M156.67,-180.54C170.46,-169.49 188.74,-154.84 200.18,-145.67"/>
<polygon fill="#63b8ff" stroke="#63b8ff" points="154.39,-177.88 148.77,-186.87 158.76,-183.35 154.39,-177.88"/>
</g>
<!-- Node2 -->
<g id="node2" class="node">
<title>Node2</title>
<g id="a_node2"><a xlink:href="../../d5/dcc/class_definition.html" target="_top" xlink:title="The common base class of all entity definitions found in the sources.">
<polygon fill="white" stroke="#666666" points="170,-261 106,-261 106,-242 170,-242 170,-261"/>
<text text-anchor="middle" x="138" y="-249" font-family="Helvetica,sans-Serif" font-size="10.00">Definition</text>
</a>
</g>
</g>
<!-- Node2&#45;&gt;Node1 -->
<g id="edge1" class="edge">
<title>Node2&#45;&gt;Node1</title>
<path fill="none" stroke="#63b8ff" d="M138,-231.66C138,-222.93 138,-212.99 138,-206.09"/>
<polygon fill="#63b8ff" stroke="#63b8ff" points="134.5,-231.75 138,-241.75 141.5,-231.75 134.5,-231.75"/>
</g>
<!-- Node4 -->
<g id="node4" class="node">
<title>Node4</title>
<g id="a_node4"><a xlink:href="../../d7/d70/class_member_def_alias_impl.html" target="_top" xlink:title=" ">
<polygon fill="white" stroke="#666666" points="120,-79.5 0,-79.5 0,-60.5 120,-60.5 120,-79.5"/>
<text text-anchor="middle" x="60" y="-67.5" font-family="Helvetica,sans-Serif" font-size="10.00">MemberDefAliasImpl</text>
</a>
</g>
</g>
<!-- Node3&#45;&gt;Node4 -->
<g id="edge3" class="edge">
<title>Node3&#45;&gt;Node4</title>
<path fill="none" stroke="#63b8ff" d="M67.49,-110.94C65.45,-100.06 63.16,-87.86 61.66,-79.84"/>
<polygon fill="#63b8ff" stroke="#63b8ff" points="64.05,-111.61 69.34,-120.8 70.93,-110.32 64.05,-111.61"/>
</g>
<!-- Node6 -->
<g id="node6" class="node">
<title>Node6</title>
<g id="a_node6"><a xlink:href="../../dd/d10/class_definition_mixin.html" target="_top" xlink:title=" ">
<polygon fill="white" stroke="#666666" points="298,-85 138,-85 138,-55 298,-55 298,-85"/>
<text text-anchor="start" x="146" y="-73" font-family="Helvetica,sans-Serif" font-size="10.00">DefinitionMixin&lt; MemberDef</text>
<text text-anchor="middle" x="218" y="-62" font-family="Helvetica,sans-Serif" font-size="10.00">Mutable &gt;</text>
</a>
</g>
</g>
<!-- Node5&#45;&gt;Node6 -->
<g id="edge5" class="edge">
<title>Node5&#45;&gt;Node6</title>
<path fill="none" stroke="#63b8ff" d="M213.04,-116.35C214.12,-106.47 215.43,-94.51 216.43,-85.36"/>
<polygon fill="#63b8ff" stroke="#63b8ff" points="209.55,-116.05 211.94,-126.37 216.51,-116.81 209.55,-116.05"/>
</g>
<!-- Node7 -->
<g id="node7" class="node">
<title>Node7</title>
<g id="a_node7"><a xlink:href="../../d7/d7e/class_member_def_impl.html" target="_top" xlink:title=" ">
<polygon fill="white" stroke="#666666" points="266,-19 170,-19 170,0 266,0 266,-19"/>
<text text-anchor="middle" x="218" y="-7" font-family="Helvetica,sans-Serif" font-size="10.00">MemberDefImpl</text>
</a>
</g>
</g>
<!-- Node6&#45;&gt;Node7 -->
<g id="edge6" class="edge">
<title>Node6&#45;&gt;Node7</title>
<path fill="none" stroke="#63b8ff" d="M218,-44.75C218,-35.72 218,-26.03 218,-19.27"/>
<polygon fill="#63b8ff" stroke="#63b8ff" points="214.5,-44.84 218,-54.84 221.5,-44.84 214.5,-44.84"/>
</g>
</g>
</svg>
