<?xml version="1.0" encoding="UTF-8" standalone="no"?>
<!DOCTYPE svg PUBLIC "-//W3C//DTD SVG 1.1//EN"
 "http://www.w3.org/Graphics/SVG/1.1/DTD/svg11.dtd">
<!-- Generated by graphviz version 2.43.0 (0)
 -->
<!-- Title: /home/runner/work/doxygen/doxygen/src/dotcallgraph.h Pages: 1 -->
<svg width="1209pt" height="478pt"
 viewBox="0.00 0.00 1208.51 478.00" xmlns="http://www.w3.org/2000/svg" xmlns:xlink="http://www.w3.org/1999/xlink">
<g id="graph0" class="graph" transform="scale(1 1) rotate(0) translate(4 474)">
<title>/home/runner/work/doxygen/doxygen/src/dotcallgraph.h</title>
<!-- Node1 -->
<g id="node1" class="node">
<title>Node1</title>
<g id="a_node1"><a xlink:title=" ">
<polygon fill="#999999" stroke="#666666" points="246.51,-470 92.51,-470 92.51,-440 246.51,-440 246.51,-470"/>
<text text-anchor="start" x="100.51" y="-458" font-family="Helvetica,sans-Serif" font-size="10.00">/home/runner/work/doxygen</text>
<text text-anchor="middle" x="169.51" y="-447" font-family="Helvetica,sans-Serif" font-size="10.00">/doxygen/src/dotcallgraph.h</text>
</a>
</g>
</g>
<!-- Node2 -->
<g id="node2" class="node">
<title>Node2</title>
<g id="a_node2"><a xlink:title=" ">
<polygon fill="#e0e0e0" stroke="#999999" points="326.51,-129 268.51,-129 268.51,-110 326.51,-110 326.51,-129"/>
<text text-anchor="middle" x="297.51" y="-117" font-family="Helvetica,sans-Serif" font-size="10.00">memory</text>
</a>
</g>
</g>
<!-- Node1&#45;&gt;Node2 -->
<g id="edge1" class="edge">
<title>Node1&#45;&gt;Node2</title>
<path fill="none" stroke="#63b8ff" d="M143.76,-439.85C113.84,-421.3 68.51,-385.74 68.51,-340.5 68.51,-340.5 68.51,-340.5 68.51,-228.5 68.51,-145.64 192.68,-126.25 258.15,-121.78"/>
<polygon fill="#63b8ff" stroke="#63b8ff" points="258.73,-125.26 268.51,-121.17 258.32,-118.27 258.73,-125.26"/>
</g>
<!-- Node3 -->
<g id="node3" class="node">
<title>Node3</title>
<g id="a_node3"><a xlink:href="../../d8/d3b/dotnode_8h.html" target="_top" xlink:title=" ">
<polygon fill="white" stroke="#666666" points="279.01,-294 214.01,-294 214.01,-275 279.01,-275 279.01,-294"/>
<text text-anchor="middle" x="246.51" y="-282" font-family="Helvetica,sans-Serif" font-size="10.00">dotnode.h</text>
</a>
</g>
</g>
<!-- Node1&#45;&gt;Node3 -->
<g id="edge2" class="edge">
<title>Node1&#45;&gt;Node3</title>
<path fill="none" stroke="#63b8ff" d="M175.94,-439.92C189.9,-409.39 222.93,-337.1 238.34,-303.39"/>
<polygon fill="#63b8ff" stroke="#63b8ff" points="241.54,-304.8 242.51,-294.25 235.17,-301.9 241.54,-304.8"/>
</g>
<!-- Node19 -->
<g id="node19" class="node">
<title>Node19</title>
<g id="a_node19"><a xlink:href="../../d0/daa/dotgraph_8h.html" target="_top" xlink:title=" ">
<polygon fill="white" stroke="#666666" points="166.01,-239 97.01,-239 97.01,-220 166.01,-220 166.01,-239"/>
<text text-anchor="middle" x="131.51" y="-227" font-family="Helvetica,sans-Serif" font-size="10.00">dotgraph.h</text>
</a>
</g>
</g>
<!-- Node1&#45;&gt;Node19 -->
<g id="edge29" class="edge">
<title>Node1&#45;&gt;Node19</title>
<path fill="none" stroke="#63b8ff" d="M167.08,-439.68C160.46,-400.76 142.15,-293.07 134.71,-249.33"/>
<polygon fill="#63b8ff" stroke="#63b8ff" points="138.12,-248.5 133,-239.23 131.22,-249.68 138.12,-248.5"/>
</g>
<!-- Node22 -->
<g id="node22" class="node">
<title>Node22</title>
<g id="a_node22"><a xlink:href="../../d4/d46/memberdef_8h.html" target="_top" xlink:title=" ">
<polygon fill="white" stroke="#666666" points="559.51,-404 477.51,-404 477.51,-385 559.51,-385 559.51,-404"/>
<text text-anchor="middle" x="518.51" y="-392" font-family="Helvetica,sans-Serif" font-size="10.00">memberdef.h</text>
</a>
</g>
</g>
<!-- Node1&#45;&gt;Node22 -->
<g id="edge30" class="edge">
<title>Node1&#45;&gt;Node22</title>
<path fill="none" stroke="#63b8ff" d="M246.53,-441.09C313.57,-429.85 408.86,-413.88 467.03,-404.13"/>
<polygon fill="#63b8ff" stroke="#63b8ff" points="467.81,-407.55 477.1,-402.44 466.66,-400.64 467.81,-407.55"/>
</g>
<!-- Node4 -->
<g id="node4" class="node">
<title>Node4</title>
<g id="a_node4"><a xlink:title=" ">
<polygon fill="#e0e0e0" stroke="#999999" points="820.01,-129 773.01,-129 773.01,-110 820.01,-110 820.01,-129"/>
<text text-anchor="middle" x="796.51" y="-117" font-family="Helvetica,sans-Serif" font-size="10.00">vector</text>
</a>
</g>
</g>
<!-- Node3&#45;&gt;Node4 -->
<g id="edge3" class="edge">
<title>Node3&#45;&gt;Node4</title>
<path fill="none" stroke="#63b8ff" d="M279.22,-282.95C339.49,-281.09 471.5,-273.11 576.51,-239 654.87,-213.55 738.04,-160.65 775.76,-135.03"/>
<polygon fill="#63b8ff" stroke="#63b8ff" points="778.08,-137.68 784.34,-129.14 774.12,-131.91 778.08,-137.68"/>
</g>
<!-- Node5 -->
<g id="node5" class="node">
<title>Node5</title>
<g id="a_node5"><a xlink:title=" ">
<polygon fill="#e0e0e0" stroke="#999999" points="252.51,-184 214.51,-184 214.51,-165 252.51,-165 252.51,-184"/>
<text text-anchor="middle" x="233.51" y="-172" font-family="Helvetica,sans-Serif" font-size="10.00">map</text>
</a>
</g>
</g>
<!-- Node3&#45;&gt;Node5 -->
<g id="edge4" class="edge">
<title>Node3&#45;&gt;Node5</title>
<path fill="none" stroke="#63b8ff" d="M256.67,-274.67C269.25,-262.6 288.05,-240.13 279.51,-220 274.53,-208.25 264.76,-198.09 255.5,-190.45"/>
<polygon fill="#63b8ff" stroke="#63b8ff" points="257.36,-187.47 247.29,-184.18 253.11,-193.03 257.36,-187.47"/>
</g>
<!-- Node6 -->
<g id="node6" class="node">
<title>Node6</title>
<g id="a_node6"><a xlink:title=" ">
<polygon fill="#e0e0e0" stroke="#999999" points="270.01,-239 223.01,-239 223.01,-220 270.01,-220 270.01,-239"/>
<text text-anchor="middle" x="246.51" y="-227" font-family="Helvetica,sans-Serif" font-size="10.00">deque</text>
</a>
</g>
</g>
<!-- Node3&#45;&gt;Node6 -->
<g id="edge5" class="edge">
<title>Node3&#45;&gt;Node6</title>
<path fill="none" stroke="#63b8ff" d="M246.51,-274.75C246.51,-267.8 246.51,-257.85 246.51,-249.13"/>
<polygon fill="#63b8ff" stroke="#63b8ff" points="250.01,-249.09 246.51,-239.09 243.01,-249.09 250.01,-249.09"/>
</g>
<!-- Node7 -->
<g id="node7" class="node">
<title>Node7</title>
<g id="a_node7"><a xlink:title=" ">
<polygon fill="#e0e0e0" stroke="#999999" points="196.51,-184 136.51,-184 136.51,-165 196.51,-165 196.51,-184"/>
<text text-anchor="middle" x="166.51" y="-172" font-family="Helvetica,sans-Serif" font-size="10.00">iostream</text>
</a>
</g>
</g>
<!-- Node3&#45;&gt;Node7 -->
<g id="edge6" class="edge">
<title>Node3&#45;&gt;Node7</title>
<path fill="none" stroke="#63b8ff" d="M239.97,-274.66C226.66,-256.69 196.25,-215.64 179.02,-192.38"/>
<polygon fill="#63b8ff" stroke="#63b8ff" points="181.69,-190.11 172.93,-184.16 176.07,-194.28 181.69,-190.11"/>
</g>
<!-- Node8 -->
<g id="node8" class="node">
<title>Node8</title>
<g id="a_node8"><a xlink:href="../../d9/d49/types_8h.html" target="_top" xlink:title="This file contains a number of basic enums and types.">
<polygon fill="white" stroke="#666666" points="419.01,-239 366.01,-239 366.01,-220 419.01,-220 419.01,-239"/>
<text text-anchor="middle" x="392.51" y="-227" font-family="Helvetica,sans-Serif" font-size="10.00">types.h</text>
</a>
</g>
</g>
<!-- Node3&#45;&gt;Node8 -->
<g id="edge7" class="edge">
<title>Node3&#45;&gt;Node8</title>
<path fill="none" stroke="#63b8ff" d="M269.97,-274.98C294.09,-266.23 331.88,-252.51 359.11,-242.62"/>
<polygon fill="#63b8ff" stroke="#63b8ff" points="360.42,-245.87 368.63,-239.17 358.03,-239.29 360.42,-245.87"/>
</g>
<!-- Node3&#45;&gt;Node19 -->
<g id="edge20" class="edge">
<title>Node3&#45;&gt;Node19</title>
<path fill="none" stroke="#63b8ff" d="M228.04,-274.98C209.54,-266.46 180.83,-253.23 159.53,-243.41"/>
<polygon fill="#63b8ff" stroke="#63b8ff" points="160.87,-240.18 150.32,-239.17 157.94,-246.53 160.87,-240.18"/>
</g>
<!-- Node9 -->
<g id="node9" class="node">
<title>Node9</title>
<g id="a_node9"><a xlink:href="../../d7/d5c/qcstring_8h.html" target="_top" xlink:title=" ">
<polygon fill="white" stroke="#666666" points="427.01,-129 362.01,-129 362.01,-110 427.01,-110 427.01,-129"/>
<text text-anchor="middle" x="394.51" y="-117" font-family="Helvetica,sans-Serif" font-size="10.00">qcstring.h</text>
</a>
</g>
</g>
<!-- Node8&#45;&gt;Node9 -->
<g id="edge8" class="edge">
<title>Node8&#45;&gt;Node9</title>
<path fill="none" stroke="#63b8ff" d="M392.68,-219.66C393,-202.17 393.73,-162.8 394.16,-139.27"/>
<polygon fill="#63b8ff" stroke="#63b8ff" points="397.67,-139.22 394.35,-129.16 390.67,-139.09 397.67,-139.22"/>
</g>
<!-- Node10 -->
<g id="node10" class="node">
<title>Node10</title>
<g id="a_node10"><a xlink:title=" ">
<polygon fill="#e0e0e0" stroke="#999999" points="346.51,-19 302.51,-19 302.51,0 346.51,0 346.51,-19"/>
<text text-anchor="middle" x="324.51" y="-7" font-family="Helvetica,sans-Serif" font-size="10.00">string</text>
</a>
</g>
</g>
<!-- Node9&#45;&gt;Node10 -->
<g id="edge9" class="edge">
<title>Node9&#45;&gt;Node10</title>
<path fill="none" stroke="#63b8ff" d="M361.81,-114.41C337.07,-109.4 304.7,-98.35 288.51,-74 278.07,-58.3 291.93,-39.4 305.37,-26.32"/>
<polygon fill="#63b8ff" stroke="#63b8ff" points="307.99,-28.67 313.04,-19.36 303.28,-23.48 307.99,-28.67"/>
</g>
<!-- Node11 -->
<g id="node11" class="node">
<title>Node11</title>
<g id="a_node11"><a xlink:title=" ">
<polygon fill="#e0e0e0" stroke="#999999" points="537.51,-74 473.51,-74 473.51,-55 537.51,-55 537.51,-74"/>
<text text-anchor="middle" x="505.51" y="-62" font-family="Helvetica,sans-Serif" font-size="10.00">algorithm</text>
</a>
</g>
</g>
<!-- Node9&#45;&gt;Node11 -->
<g id="edge10" class="edge">
<title>Node9&#45;&gt;Node11</title>
<path fill="none" stroke="#63b8ff" d="M412.35,-109.98C430.12,-101.5 457.66,-88.35 478.19,-78.54"/>
<polygon fill="#63b8ff" stroke="#63b8ff" points="479.84,-81.64 487.35,-74.17 476.82,-75.32 479.84,-81.64"/>
</g>
<!-- Node12 -->
<g id="node12" class="node">
<title>Node12</title>
<g id="a_node12"><a xlink:title=" ">
<polygon fill="#e0e0e0" stroke="#999999" points="605.01,-74 556.01,-74 556.01,-55 605.01,-55 605.01,-74"/>
<text text-anchor="middle" x="580.51" y="-62" font-family="Helvetica,sans-Serif" font-size="10.00">cctype</text>
</a>
</g>
</g>
<!-- Node9&#45;&gt;Node12 -->
<g id="edge11" class="edge">
<title>Node9&#45;&gt;Node12</title>
<path fill="none" stroke="#63b8ff" d="M424.4,-109.98C457.58,-100.53 511.05,-85.29 545.99,-75.34"/>
<polygon fill="#63b8ff" stroke="#63b8ff" points="547.1,-78.66 555.76,-72.55 545.18,-71.93 547.1,-78.66"/>
</g>
<!-- Node13 -->
<g id="node13" class="node">
<title>Node13</title>
<g id="a_node13"><a xlink:title=" ">
<polygon fill="#e0e0e0" stroke="#999999" points="108.51,-74 58.51,-74 58.51,-55 108.51,-55 108.51,-74"/>
<text text-anchor="middle" x="83.51" y="-62" font-family="Helvetica,sans-Serif" font-size="10.00">cstring</text>
</a>
</g>
</g>
<!-- Node9&#45;&gt;Node13 -->
<g id="edge12" class="edge">
<title>Node9&#45;&gt;Node13</title>
<path fill="none" stroke="#63b8ff" d="M361.78,-113.6C302.56,-104.69 178.88,-85.79 118.81,-74.08"/>
<polygon fill="#63b8ff" stroke="#63b8ff" points="119.2,-70.59 108.71,-72.05 117.82,-77.45 119.2,-70.59"/>
</g>
<!-- Node14 -->
<g id="node14" class="node">
<title>Node14</title>
<g id="a_node14"><a xlink:title=" ">
<polygon fill="#e0e0e0" stroke="#999999" points="172.51,-74 126.51,-74 126.51,-55 172.51,-55 172.51,-74"/>
<text text-anchor="middle" x="149.51" y="-62" font-family="Helvetica,sans-Serif" font-size="10.00">cstdio</text>
</a>
</g>
</g>
<!-- Node9&#45;&gt;Node14 -->
<g id="edge13" class="edge">
<title>Node9&#45;&gt;Node14</title>
<path fill="none" stroke="#63b8ff" d="M361.72,-112.1C319.98,-103.83 245.68,-88.76 182.51,-74 182.41,-73.98 182.31,-73.95 182.21,-73.93"/>
<polygon fill="#63b8ff" stroke="#63b8ff" points="183.1,-70.54 172.56,-71.58 181.45,-77.35 183.1,-70.54"/>
</g>
<!-- Node15 -->
<g id="node15" class="node">
<title>Node15</title>
<g id="a_node15"><a xlink:title=" ">
<polygon fill="#e0e0e0" stroke="#999999" points="240.01,-74 191.01,-74 191.01,-55 240.01,-55 240.01,-74"/>
<text text-anchor="middle" x="215.51" y="-62" font-family="Helvetica,sans-Serif" font-size="10.00">cstdlib</text>
</a>
</g>
</g>
<!-- Node9&#45;&gt;Node15 -->
<g id="edge14" class="edge">
<title>Node9&#45;&gt;Node15</title>
<path fill="none" stroke="#63b8ff" d="M365.75,-109.98C334.23,-100.65 283.66,-85.68 250.02,-75.72"/>
<polygon fill="#63b8ff" stroke="#63b8ff" points="250.75,-72.28 240.17,-72.8 248.76,-79 250.75,-72.28"/>
</g>
<!-- Node16 -->
<g id="node16" class="node">
<title>Node16</title>
<g id="a_node16"><a xlink:title=" ">
<polygon fill="#e0e0e0" stroke="#999999" points="444.51,-19 394.51,-19 394.51,0 444.51,0 444.51,-19"/>
<text text-anchor="middle" x="419.51" y="-7" font-family="Helvetica,sans-Serif" font-size="10.00">cstdint</text>
</a>
</g>
</g>
<!-- Node9&#45;&gt;Node16 -->
<g id="edge15" class="edge">
<title>Node9&#45;&gt;Node16</title>
<path fill="none" stroke="#63b8ff" d="M403.26,-109.9C411.07,-101.56 421.96,-88.13 426.51,-74 431.19,-59.47 428.82,-42.2 425.62,-29.34"/>
<polygon fill="#63b8ff" stroke="#63b8ff" points="428.87,-28.01 422.75,-19.36 422.15,-29.94 428.87,-28.01"/>
</g>
<!-- Node17 -->
<g id="node17" class="node">
<title>Node17</title>
<g id="a_node17"><a xlink:title=" ">
<polygon fill="#e0e0e0" stroke="#999999" points="354.01,-74 297.01,-74 297.01,-55 354.01,-55 354.01,-74"/>
<text text-anchor="middle" x="325.51" y="-62" font-family="Helvetica,sans-Serif" font-size="10.00">ostream</text>
</a>
</g>
</g>
<!-- Node9&#45;&gt;Node17 -->
<g id="edge16" class="edge">
<title>Node9&#45;&gt;Node17</title>
<path fill="none" stroke="#63b8ff" d="M383.43,-109.98C373.03,-102 357.25,-89.88 344.79,-80.31"/>
<polygon fill="#63b8ff" stroke="#63b8ff" points="346.86,-77.49 336.8,-74.17 342.6,-83.04 346.86,-77.49"/>
</g>
<!-- Node18 -->
<g id="node18" class="node">
<title>Node18</title>
<g id="a_node18"><a xlink:href="../../db/d7c/utf8_8h.html" target="_top" xlink:title="Various UTF8 related helper functions.">
<polygon fill="white" stroke="#666666" points="417.01,-74 372.01,-74 372.01,-55 417.01,-55 417.01,-74"/>
<text text-anchor="middle" x="394.51" y="-62" font-family="Helvetica,sans-Serif" font-size="10.00">utf8.h</text>
</a>
</g>
</g>
<!-- Node9&#45;&gt;Node18 -->
<g id="edge17" class="edge">
<title>Node9&#45;&gt;Node18</title>
<path fill="none" stroke="#63b8ff" d="M394.51,-109.75C394.51,-102.8 394.51,-92.85 394.51,-84.13"/>
<polygon fill="#63b8ff" stroke="#63b8ff" points="398.01,-84.09 394.51,-74.09 391.01,-84.09 398.01,-84.09"/>
</g>
<!-- Node18&#45;&gt;Node10 -->
<g id="edge19" class="edge">
<title>Node18&#45;&gt;Node10</title>
<path fill="none" stroke="#63b8ff" d="M383.27,-54.98C372.71,-47 356.71,-34.88 344.07,-25.31"/>
<polygon fill="#63b8ff" stroke="#63b8ff" points="346.05,-22.42 335.96,-19.17 341.82,-28 346.05,-22.42"/>
</g>
<!-- Node18&#45;&gt;Node16 -->
<g id="edge18" class="edge">
<title>Node18&#45;&gt;Node16</title>
<path fill="none" stroke="#63b8ff" d="M398.64,-54.75C402.03,-47.57 406.93,-37.18 411.13,-28.27"/>
<polygon fill="#63b8ff" stroke="#63b8ff" points="414.36,-29.63 415.46,-19.09 408.03,-26.64 414.36,-29.63"/>
</g>
<!-- Node19&#45;&gt;Node5 -->
<g id="edge22" class="edge">
<title>Node19&#45;&gt;Node5</title>
<path fill="none" stroke="#63b8ff" d="M147.9,-219.98C164.09,-211.57 189.08,-198.59 207.89,-188.81"/>
<polygon fill="#63b8ff" stroke="#63b8ff" points="209.57,-191.89 216.83,-184.17 206.34,-185.68 209.57,-191.89"/>
</g>
<!-- Node19&#45;&gt;Node7 -->
<g id="edge21" class="edge">
<title>Node19&#45;&gt;Node7</title>
<path fill="none" stroke="#63b8ff" d="M137.29,-219.75C142.13,-212.42 149.19,-201.73 155.16,-192.7"/>
<polygon fill="#63b8ff" stroke="#63b8ff" points="158.25,-194.36 160.84,-184.09 152.41,-190.5 158.25,-194.36"/>
</g>
<!-- Node19&#45;&gt;Node9 -->
<g id="edge23" class="edge">
<title>Node19&#45;&gt;Node9</title>
<path fill="none" stroke="#63b8ff" d="M127.62,-219.94C122.19,-206.53 114.37,-180.51 127.51,-165 131.13,-160.73 277.27,-138.16 351.77,-126.9"/>
<polygon fill="#63b8ff" stroke="#63b8ff" points="352.42,-130.35 361.79,-125.39 351.38,-123.42 352.42,-130.35"/>
</g>
<!-- Node20 -->
<g id="node20" class="node">
<title>Node20</title>
<g id="a_node20"><a xlink:href="../../df/d9c/dir_8h.html" target="_top" xlink:title=" ">
<polygon fill="white" stroke="#666666" points="40.51,-184 2.51,-184 2.51,-165 40.51,-165 40.51,-184"/>
<text text-anchor="middle" x="21.51" y="-172" font-family="Helvetica,sans-Serif" font-size="10.00">dir.h</text>
</a>
</g>
</g>
<!-- Node19&#45;&gt;Node20 -->
<g id="edge24" class="edge">
<title>Node19&#45;&gt;Node20</title>
<path fill="none" stroke="#63b8ff" d="M113.84,-219.98C96.22,-211.5 68.93,-198.35 48.59,-188.54"/>
<polygon fill="#63b8ff" stroke="#63b8ff" points="50.04,-185.36 39.51,-184.17 47,-191.66 50.04,-185.36"/>
</g>
<!-- Node20&#45;&gt;Node2 -->
<g id="edge26" class="edge">
<title>Node20&#45;&gt;Node2</title>
<path fill="none" stroke="#63b8ff" d="M40.65,-168.32C45.18,-167.17 50.01,-165.99 54.51,-165 125.92,-149.28 210,-134.76 258.19,-126.82"/>
<polygon fill="#63b8ff" stroke="#63b8ff" points="258.9,-130.25 268.2,-125.18 257.77,-123.34 258.9,-130.25"/>
</g>
<!-- Node20&#45;&gt;Node10 -->
<g id="edge25" class="edge">
<title>Node20&#45;&gt;Node10</title>
<path fill="none" stroke="#63b8ff" d="M16.64,-164.98C11.95,-156.26 5.21,-142.17 2.51,-129 -4.7,-93.72 5.62,-75.08 35.51,-55 77.02,-27.11 225.83,-15.79 292.18,-12.06"/>
<polygon fill="#63b8ff" stroke="#63b8ff" points="292.67,-15.54 302.46,-11.5 292.29,-8.55 292.67,-15.54"/>
</g>
<!-- Node21 -->
<g id="node21" class="node">
<title>Node21</title>
<g id="a_node21"><a xlink:href="../../df/d45/fileinfo_8h.html" target="_top" xlink:title=" ">
<polygon fill="white" stroke="#666666" points="70.01,-129 11.01,-129 11.01,-110 70.01,-110 70.01,-129"/>
<text text-anchor="middle" x="40.51" y="-117" font-family="Helvetica,sans-Serif" font-size="10.00">fileinfo.h</text>
</a>
</g>
</g>
<!-- Node20&#45;&gt;Node21 -->
<g id="edge27" class="edge">
<title>Node20&#45;&gt;Node21</title>
<path fill="none" stroke="#63b8ff" d="M24.65,-164.75C27.19,-157.65 30.87,-147.4 34.04,-138.56"/>
<polygon fill="#63b8ff" stroke="#63b8ff" points="37.35,-139.68 37.43,-129.09 30.76,-137.32 37.35,-139.68"/>
</g>
<!-- Node21&#45;&gt;Node10 -->
<g id="edge28" class="edge">
<title>Node21&#45;&gt;Node10</title>
<path fill="none" stroke="#63b8ff" d="M38.84,-109.73C36.79,-96.03 35.17,-69.63 49.51,-55 82.79,-21.06 227.08,-13.01 292.3,-11.09"/>
<polygon fill="#63b8ff" stroke="#63b8ff" points="292.52,-14.59 302.42,-10.83 292.34,-7.59 292.52,-14.59"/>
</g>
<!-- Node22&#45;&gt;Node2 -->
<g id="edge32" class="edge">
<title>Node22&#45;&gt;Node2</title>
<path fill="none" stroke="#63b8ff" d="M477.29,-393.33C440.41,-390.91 387.37,-381.44 355.51,-349 297.86,-290.3 294.99,-182.88 296.41,-139.46"/>
<polygon fill="#63b8ff" stroke="#63b8ff" points="299.91,-139.58 296.86,-129.43 292.92,-139.27 299.91,-139.58"/>
</g>
<!-- Node22&#45;&gt;Node4 -->
<g id="edge31" class="edge">
<title>Node22&#45;&gt;Node4</title>
<path fill="none" stroke="#63b8ff" d="M559.64,-391.36C707.09,-383.14 1200.51,-350.76 1200.51,-285.5 1200.51,-285.5 1200.51,-285.5 1200.51,-228.5 1200.51,-182.41 1161,-182.87 1118.51,-165 1019.87,-123.51 890.7,-119.07 830.34,-119.56"/>
<polygon fill="#63b8ff" stroke="#63b8ff" points="830.19,-116.06 820.24,-119.69 830.28,-123.06 830.19,-116.06"/>
</g>
<!-- Node22&#45;&gt;Node8 -->
<g id="edge34" class="edge">
<title>Node22&#45;&gt;Node8</title>
<path fill="none" stroke="#63b8ff" d="M511.74,-384.74C491.65,-358.76 432.19,-281.83 405.61,-247.44"/>
<polygon fill="#63b8ff" stroke="#63b8ff" points="408.2,-245.08 399.32,-239.31 402.67,-249.36 408.2,-245.08"/>
</g>
<!-- Node23 -->
<g id="node23" class="node">
<title>Node23</title>
<g id="a_node23"><a xlink:title=" ">
<polygon fill="#e0e0e0" stroke="#999999" points="436.51,-349 364.51,-349 364.51,-330 436.51,-330 436.51,-349"/>
<text text-anchor="middle" x="400.51" y="-337" font-family="Helvetica,sans-Serif" font-size="10.00">sys/types.h</text>
</a>
</g>
</g>
<!-- Node22&#45;&gt;Node23 -->
<g id="edge33" class="edge">
<title>Node22&#45;&gt;Node23</title>
<path fill="none" stroke="#63b8ff" d="M499.55,-384.98C480.49,-376.42 450.85,-363.11 428.96,-353.28"/>
<polygon fill="#63b8ff" stroke="#63b8ff" points="430.37,-350.07 419.82,-349.17 427.5,-356.46 430.37,-350.07"/>
</g>
<!-- Node24 -->
<g id="node24" class="node">
<title>Node24</title>
<g id="a_node24"><a xlink:href="../../df/da1/definition_8h.html" target="_top" xlink:title=" ">
<polygon fill="white" stroke="#666666" points="677.01,-294 606.01,-294 606.01,-275 677.01,-275 677.01,-294"/>
<text text-anchor="middle" x="641.51" y="-282" font-family="Helvetica,sans-Serif" font-size="10.00">definition.h</text>
</a>
</g>
</g>
<!-- Node22&#45;&gt;Node24 -->
<g id="edge35" class="edge">
<title>Node22&#45;&gt;Node24</title>
<path fill="none" stroke="#63b8ff" d="M528.58,-384.66C549.49,-366.3 597.88,-323.81 624.01,-300.87"/>
<polygon fill="#63b8ff" stroke="#63b8ff" points="626.45,-303.39 631.65,-294.16 621.83,-298.13 626.45,-303.39"/>
</g>
<!-- Node28 -->
<g id="node28" class="node">
<title>Node28</title>
<g id="a_node28"><a xlink:href="../../df/d9b/arguments_8h.html" target="_top" xlink:title=" ">
<polygon fill="white" stroke="#666666" points="804.51,-294 726.51,-294 726.51,-275 804.51,-275 804.51,-294"/>
<text text-anchor="middle" x="765.51" y="-282" font-family="Helvetica,sans-Serif" font-size="10.00">arguments.h</text>
</a>
</g>
</g>
<!-- Node22&#45;&gt;Node28 -->
<g id="edge51" class="edge">
<title>Node22&#45;&gt;Node28</title>
<path fill="none" stroke="#63b8ff" d="M538.31,-384.84C581.77,-365.84 685.72,-320.39 736.54,-298.17"/>
<polygon fill="#63b8ff" stroke="#63b8ff" points="738.2,-301.26 745.97,-294.05 735.4,-294.85 738.2,-301.26"/>
</g>
<!-- Node29 -->
<g id="node29" class="node">
<title>Node29</title>
<g id="a_node29"><a xlink:href="../../d1/da6/classdef_8h.html" target="_top" xlink:title=" ">
<polygon fill="white" stroke="#666666" points="798.01,-349 733.01,-349 733.01,-330 798.01,-330 798.01,-349"/>
<text text-anchor="middle" x="765.51" y="-337" font-family="Helvetica,sans-Serif" font-size="10.00">classdef.h</text>
</a>
</g>
</g>
<!-- Node22&#45;&gt;Node29 -->
<g id="edge54" class="edge">
<title>Node22&#45;&gt;Node29</title>
<path fill="none" stroke="#63b8ff" d="M558.2,-384.98C603.2,-375.33 676.33,-359.64 722.62,-349.7"/>
<polygon fill="#63b8ff" stroke="#63b8ff" points="723.6,-353.07 732.64,-347.55 722.13,-346.23 723.6,-353.07"/>
</g>
<!-- Node24&#45;&gt;Node4 -->
<g id="edge36" class="edge">
<title>Node24&#45;&gt;Node4</title>
<path fill="none" stroke="#63b8ff" d="M669.69,-274.87C689.2,-267.76 714.75,-256.05 732.51,-239 740.54,-231.29 772.05,-169.45 787.66,-138.3"/>
<polygon fill="#63b8ff" stroke="#63b8ff" points="790.95,-139.55 792.28,-129.04 784.68,-136.42 790.95,-139.55"/>
</g>
<!-- Node24&#45;&gt;Node8 -->
<g id="edge37" class="edge">
<title>Node24&#45;&gt;Node8</title>
<path fill="none" stroke="#63b8ff" d="M605.84,-275.91C558.86,-265.91 476.66,-248.41 429.19,-238.31"/>
<polygon fill="#63b8ff" stroke="#63b8ff" points="429.84,-234.87 419.33,-236.21 428.38,-241.71 429.84,-234.87"/>
</g>
<!-- Node25 -->
<g id="node25" class="node">
<title>Node25</title>
<g id="a_node25"><a xlink:href="../../d1/d02/reflist_8h.html" target="_top" xlink:title=" ">
<polygon fill="white" stroke="#666666" points="567.01,-239 514.01,-239 514.01,-220 567.01,-220 567.01,-239"/>
<text text-anchor="middle" x="540.51" y="-227" font-family="Helvetica,sans-Serif" font-size="10.00">reflist.h</text>
</a>
</g>
</g>
<!-- Node24&#45;&gt;Node25 -->
<g id="edge38" class="edge">
<title>Node24&#45;&gt;Node25</title>
<path fill="none" stroke="#63b8ff" d="M625.28,-274.98C609.33,-266.61 584.73,-253.7 566.14,-243.95"/>
<polygon fill="#63b8ff" stroke="#63b8ff" points="567.52,-240.72 557.03,-239.17 564.26,-246.92 567.52,-240.72"/>
</g>
<!-- Node25&#45;&gt;Node2 -->
<g id="edge41" class="edge">
<title>Node25&#45;&gt;Node2</title>
<path fill="none" stroke="#63b8ff" d="M518.65,-219.98C496.54,-211.27 461.44,-197.19 431.51,-184 393.75,-167.36 350.73,-146.66 323.85,-133.51"/>
<polygon fill="#63b8ff" stroke="#63b8ff" points="325.24,-130.29 314.72,-129.03 322.15,-136.57 325.24,-130.29"/>
</g>
<!-- Node25&#45;&gt;Node4 -->
<g id="edge39" class="edge">
<title>Node25&#45;&gt;Node4</title>
<path fill="none" stroke="#63b8ff" d="M557.32,-219.99C590.99,-202.96 663.74,-166.17 666.51,-165 698.68,-151.46 736.54,-138.86 763.08,-130.55"/>
<polygon fill="#63b8ff" stroke="#63b8ff" points="764.15,-133.89 772.66,-127.58 762.08,-127.2 764.15,-133.89"/>
</g>
<!-- Node25&#45;&gt;Node9 -->
<g id="edge42" class="edge">
<title>Node25&#45;&gt;Node9</title>
<path fill="none" stroke="#63b8ff" d="M520.13,-219.87C502.45,-211.9 476.6,-199.03 456.51,-184 437.92,-170.09 419.73,-150.55 407.91,-136.83"/>
<polygon fill="#63b8ff" stroke="#63b8ff" points="410.55,-134.53 401.43,-129.14 405.2,-139.04 410.55,-134.53"/>
</g>
<!-- Node26 -->
<g id="node26" class="node">
<title>Node26</title>
<g id="a_node26"><a xlink:title=" ">
<polygon fill="#e0e0e0" stroke="#999999" points="755.01,-129 662.01,-129 662.01,-110 755.01,-110 755.01,-129"/>
<text text-anchor="middle" x="708.51" y="-117" font-family="Helvetica,sans-Serif" font-size="10.00">unordered_map</text>
</a>
</g>
</g>
<!-- Node25&#45;&gt;Node26 -->
<g id="edge40" class="edge">
<title>Node25&#45;&gt;Node26</title>
<path fill="none" stroke="#63b8ff" d="M551.61,-219.84C568.01,-207.2 599.89,-183.2 628.51,-165 646.06,-153.84 666.57,-142.47 682.43,-134.01"/>
<polygon fill="#63b8ff" stroke="#63b8ff" points="684.42,-136.91 691.63,-129.15 681.16,-130.72 684.42,-136.91"/>
</g>
<!-- Node27 -->
<g id="node27" class="node">
<title>Node27</title>
<g id="a_node27"><a xlink:href="../../da/de1/linkedmap_8h.html" target="_top" xlink:title=" ">
<polygon fill="white" stroke="#666666" points="576.01,-184 499.01,-184 499.01,-165 576.01,-165 576.01,-184"/>
<text text-anchor="middle" x="537.51" y="-172" font-family="Helvetica,sans-Serif" font-size="10.00">linkedmap.h</text>
</a>
</g>
</g>
<!-- Node25&#45;&gt;Node27 -->
<g id="edge43" class="edge">
<title>Node25&#45;&gt;Node27</title>
<path fill="none" stroke="#63b8ff" d="M540.02,-219.75C539.62,-212.8 539.06,-202.85 538.57,-194.13"/>
<polygon fill="#63b8ff" stroke="#63b8ff" points="542.06,-193.88 538,-184.09 535.07,-194.27 542.06,-193.88"/>
</g>
<!-- Node27&#45;&gt;Node2 -->
<g id="edge46" class="edge">
<title>Node27&#45;&gt;Node2</title>
<path fill="none" stroke="#63b8ff" d="M498.95,-164.98C454.33,-155.13 381.26,-138.99 336.47,-129.1"/>
<polygon fill="#63b8ff" stroke="#63b8ff" points="337.06,-125.65 326.54,-126.91 335.55,-132.48 337.06,-125.65"/>
</g>
<!-- Node27&#45;&gt;Node4 -->
<g id="edge45" class="edge">
<title>Node27&#45;&gt;Node4</title>
<path fill="none" stroke="#63b8ff" d="M576.24,-166.71C619.52,-158.95 691.9,-145.44 762.8,-129.28"/>
<polygon fill="#63b8ff" stroke="#63b8ff" points="763.83,-132.64 772.79,-126.99 762.26,-125.82 763.83,-132.64"/>
</g>
<!-- Node27&#45;&gt;Node9 -->
<g id="edge50" class="edge">
<title>Node27&#45;&gt;Node9</title>
<path fill="none" stroke="#63b8ff" d="M514.54,-164.98C491.01,-156.27 454.23,-142.63 427.57,-132.75"/>
<polygon fill="#63b8ff" stroke="#63b8ff" points="428.5,-129.36 417.91,-129.17 426.07,-135.93 428.5,-129.36"/>
</g>
<!-- Node27&#45;&gt;Node10 -->
<g id="edge47" class="edge">
<title>Node27&#45;&gt;Node10</title>
<path fill="none" stroke="#63b8ff" d="M550.65,-164.93C580.19,-144.65 646.79,-92.61 614.51,-55 612.41,-52.55 432.11,-26.12 356.9,-15.19"/>
<polygon fill="#63b8ff" stroke="#63b8ff" points="356.99,-11.67 346.6,-13.7 355.99,-18.6 356.99,-11.67"/>
</g>
<!-- Node27&#45;&gt;Node11 -->
<g id="edge48" class="edge">
<title>Node27&#45;&gt;Node11</title>
<path fill="none" stroke="#63b8ff" d="M534.89,-164.66C529.69,-147.09 517.94,-107.45 510.98,-83.95"/>
<polygon fill="#63b8ff" stroke="#63b8ff" points="514.27,-82.75 508.08,-74.16 507.56,-84.74 514.27,-82.75"/>
</g>
<!-- Node27&#45;&gt;Node12 -->
<g id="edge49" class="edge">
<title>Node27&#45;&gt;Node12</title>
<path fill="none" stroke="#63b8ff" d="M541.03,-164.66C548.06,-147.01 563.95,-107.09 573.29,-83.64"/>
<polygon fill="#63b8ff" stroke="#63b8ff" points="576.62,-84.74 577.06,-74.16 570.11,-82.15 576.62,-84.74"/>
</g>
<!-- Node27&#45;&gt;Node26 -->
<g id="edge44" class="edge">
<title>Node27&#45;&gt;Node26</title>
<path fill="none" stroke="#63b8ff" d="M564.99,-164.98C593.7,-156.09 638.93,-142.07 670.93,-132.15"/>
<polygon fill="#63b8ff" stroke="#63b8ff" points="672.31,-135.39 680.82,-129.08 670.23,-128.7 672.31,-135.39"/>
</g>
<!-- Node28&#45;&gt;Node4 -->
<g id="edge52" class="edge">
<title>Node28&#45;&gt;Node4</title>
<path fill="none" stroke="#63b8ff" d="M804.62,-277.43C882.59,-264.4 1052.67,-231.1 1084.51,-184 1089.24,-177 1090.01,-171.41 1084.51,-165 1052.16,-127.27 899.81,-121.24 830.72,-120.48"/>
<polygon fill="#63b8ff" stroke="#63b8ff" points="830.41,-116.98 820.38,-120.4 830.35,-123.98 830.41,-116.98"/>
</g>
<!-- Node28&#45;&gt;Node9 -->
<g id="edge53" class="edge">
<title>Node28&#45;&gt;Node9</title>
<path fill="none" stroke="#63b8ff" d="M739.2,-274.87C679.63,-255.19 536.1,-206.92 490.51,-184 462.31,-169.82 432.35,-148.96 413.55,-135.06"/>
<polygon fill="#63b8ff" stroke="#63b8ff" points="415.61,-132.23 405.51,-129.04 411.41,-137.84 415.61,-132.23"/>
</g>
<!-- Node29&#45;&gt;Node4 -->
<g id="edge55" class="edge">
<title>Node29&#45;&gt;Node4</title>
<path fill="none" stroke="#63b8ff" d="M798.32,-334.37C898.86,-320.49 1190.5,-270.32 1099.51,-165 1065.05,-125.1 902.14,-120.32 830.48,-120.18"/>
<polygon fill="#63b8ff" stroke="#63b8ff" points="830.19,-116.68 820.19,-120.2 830.2,-123.68 830.19,-116.68"/>
</g>
<!-- Node29&#45;&gt;Node24 -->
<g id="edge65" class="edge">
<title>Node29&#45;&gt;Node24</title>
<path fill="none" stroke="#63b8ff" d="M745.59,-329.98C725.46,-321.38 694.13,-307.99 671.1,-298.15"/>
<polygon fill="#63b8ff" stroke="#63b8ff" points="672.37,-294.88 661.8,-294.17 669.62,-301.32 672.37,-294.88"/>
</g>
<!-- Node29&#45;&gt;Node28 -->
<g id="edge66" class="edge">
<title>Node29&#45;&gt;Node28</title>
<path fill="none" stroke="#63b8ff" d="M765.51,-329.75C765.51,-322.8 765.51,-312.85 765.51,-304.13"/>
<polygon fill="#63b8ff" stroke="#63b8ff" points="769.01,-304.09 765.51,-294.09 762.01,-304.09 769.01,-304.09"/>
</g>
<!-- Node30 -->
<g id="node30" class="node">
<title>Node30</title>
<g id="a_node30"><a xlink:title=" ">
<polygon fill="#e0e0e0" stroke="#999999" points="816.51,-184 784.51,-184 784.51,-165 816.51,-165 816.51,-184"/>
<text text-anchor="middle" x="800.51" y="-172" font-family="Helvetica,sans-Serif" font-size="10.00">set</text>
</a>
</g>
</g>
<!-- Node29&#45;&gt;Node30 -->
<g id="edge56" class="edge">
<title>Node29&#45;&gt;Node30</title>
<path fill="none" stroke="#63b8ff" d="M779.88,-329.96C791.38,-322.21 806.69,-309.62 813.51,-294 827.94,-260.94 816.7,-217.96 808.05,-193.9"/>
<polygon fill="#63b8ff" stroke="#63b8ff" points="811.21,-192.36 804.36,-184.28 804.67,-194.87 811.21,-192.36"/>
</g>
<!-- Node31 -->
<g id="node31" class="node">
<title>Node31</title>
<g id="a_node31"><a xlink:href="../../d5/d75/containers_8h.html" target="_top" xlink:title=" ">
<polygon fill="white" stroke="#666666" points="938.01,-239 861.01,-239 861.01,-220 938.01,-220 938.01,-239"/>
<text text-anchor="middle" x="899.51" y="-227" font-family="Helvetica,sans-Serif" font-size="10.00">containers.h</text>
</a>
</g>
</g>
<!-- Node29&#45;&gt;Node31 -->
<g id="edge57" class="edge">
<title>Node29&#45;&gt;Node31</title>
<path fill="none" stroke="#63b8ff" d="M785.77,-329.95C802.99,-322.12 827.81,-309.4 846.51,-294 862.9,-280.5 878.04,-261.41 887.91,-247.69"/>
<polygon fill="#63b8ff" stroke="#63b8ff" points="890.99,-249.39 893.84,-239.19 885.25,-245.38 890.99,-249.39"/>
</g>
<!-- Node34 -->
<g id="node34" class="node">
<title>Node34</title>
<g id="a_node34"><a xlink:href="../../d9/d11/membergroup_8h.html" target="_top" xlink:title=" ">
<polygon fill="white" stroke="#666666" points="588.01,-294 493.01,-294 493.01,-275 588.01,-275 588.01,-294"/>
<text text-anchor="middle" x="540.51" y="-282" font-family="Helvetica,sans-Serif" font-size="10.00">membergroup.h</text>
</a>
</g>
</g>
<!-- Node29&#45;&gt;Node34 -->
<g id="edge67" class="edge">
<title>Node29&#45;&gt;Node34</title>
<path fill="none" stroke="#63b8ff" d="M732.8,-330.79C694.24,-321.71 629.92,-306.56 586.39,-296.31"/>
<polygon fill="#63b8ff" stroke="#63b8ff" points="587.16,-292.89 576.62,-294.01 585.55,-299.71 587.16,-292.89"/>
</g>
<!-- Node31&#45;&gt;Node4 -->
<g id="edge58" class="edge">
<title>Node31&#45;&gt;Node4</title>
<path fill="none" stroke="#63b8ff" d="M938.26,-226.8C998.79,-222.77 1105.15,-209.33 1067.51,-165 1037.47,-129.63 896.42,-122.32 830.56,-120.85"/>
<polygon fill="#63b8ff" stroke="#63b8ff" points="830.35,-117.34 820.29,-120.65 830.22,-124.34 830.35,-117.34"/>
</g>
<!-- Node31&#45;&gt;Node5 -->
<g id="edge61" class="edge">
<title>Node31&#45;&gt;Node5</title>
<path fill="none" stroke="#63b8ff" d="M860.83,-225.42C739.78,-215.79 369.95,-186.36 262.85,-177.84"/>
<polygon fill="#63b8ff" stroke="#63b8ff" points="263.02,-174.34 252.77,-177.03 262.46,-181.32 263.02,-174.34"/>
</g>
<!-- Node31&#45;&gt;Node10 -->
<g id="edge59" class="edge">
<title>Node31&#45;&gt;Node10</title>
<path fill="none" stroke="#63b8ff" d="M896.91,-219.82C889.88,-197.87 868.37,-139.83 829.51,-110 757.41,-54.64 721.46,-73.76 632.51,-55 619.1,-52.17 433.37,-25.86 356.98,-15.08"/>
<polygon fill="#63b8ff" stroke="#63b8ff" points="357.34,-11.59 346.95,-13.66 356.37,-18.52 357.34,-11.59"/>
</g>
<!-- Node31&#45;&gt;Node26 -->
<g id="edge63" class="edge">
<title>Node31&#45;&gt;Node26</title>
<path fill="none" stroke="#63b8ff" d="M891.18,-219.6C878.23,-206.2 852,-180.74 825.51,-165 801.65,-150.81 772.46,-139.7 749.21,-132.13"/>
<polygon fill="#63b8ff" stroke="#63b8ff" points="750.24,-128.79 739.65,-129.11 748.13,-135.46 750.24,-128.79"/>
</g>
<!-- Node31&#45;&gt;Node30 -->
<g id="edge60" class="edge">
<title>Node31&#45;&gt;Node30</title>
<path fill="none" stroke="#63b8ff" d="M883.61,-219.98C867.97,-211.61 843.86,-198.7 825.63,-188.95"/>
<polygon fill="#63b8ff" stroke="#63b8ff" points="827.18,-185.8 816.71,-184.17 823.87,-191.98 827.18,-185.8"/>
</g>
<!-- Node32 -->
<g id="node32" class="node">
<title>Node32</title>
<g id="a_node32"><a xlink:title=" ">
<polygon fill="#e0e0e0" stroke="#999999" points="996.51,-184 910.51,-184 910.51,-165 996.51,-165 996.51,-184"/>
<text text-anchor="middle" x="953.51" y="-172" font-family="Helvetica,sans-Serif" font-size="10.00">unordered_set</text>
</a>
</g>
</g>
<!-- Node31&#45;&gt;Node32 -->
<g id="edge62" class="edge">
<title>Node31&#45;&gt;Node32</title>
<path fill="none" stroke="#63b8ff" d="M908.43,-219.75C916.29,-212.03 927.94,-200.6 937.43,-191.28"/>
<polygon fill="#63b8ff" stroke="#63b8ff" points="940.08,-193.59 944.76,-184.09 935.17,-188.6 940.08,-193.59"/>
</g>
<!-- Node33 -->
<g id="node33" class="node">
<title>Node33</title>
<g id="a_node33"><a xlink:title=" ">
<polygon fill="#e0e0e0" stroke="#999999" points="1058.01,-184 1015.01,-184 1015.01,-165 1058.01,-165 1058.01,-184"/>
<text text-anchor="middle" x="1036.51" y="-172" font-family="Helvetica,sans-Serif" font-size="10.00">stack</text>
</a>
</g>
</g>
<!-- Node31&#45;&gt;Node33 -->
<g id="edge64" class="edge">
<title>Node31&#45;&gt;Node33</title>
<path fill="none" stroke="#63b8ff" d="M921.52,-219.98C944.23,-211.2 979.83,-197.43 1005.41,-187.53"/>
<polygon fill="#63b8ff" stroke="#63b8ff" points="1006.94,-190.69 1015.01,-183.82 1004.42,-184.16 1006.94,-190.69"/>
</g>
<!-- Node34&#45;&gt;Node2 -->
<g id="edge70" class="edge">
<title>Node34&#45;&gt;Node2</title>
<path fill="none" stroke="#63b8ff" d="M531.32,-274.93C517.11,-261.97 488.61,-237.07 461.51,-220 430.23,-200.29 418.35,-202.81 386.51,-184 361.32,-169.12 334.2,-149.14 316.61,-135.59"/>
<polygon fill="#63b8ff" stroke="#63b8ff" points="318.38,-132.54 308.34,-129.16 314.08,-138.06 318.38,-132.54"/>
</g>
<!-- Node34&#45;&gt;Node4 -->
<g id="edge68" class="edge">
<title>Node34&#45;&gt;Node4</title>
<path fill="none" stroke="#63b8ff" d="M579.16,-275C618.21,-265.94 675.42,-251.25 694.51,-239 705.53,-231.93 757.89,-168.2 783,-137.23"/>
<polygon fill="#63b8ff" stroke="#63b8ff" points="786.01,-139.08 789.58,-129.11 780.57,-134.68 786.01,-139.08"/>
</g>
<!-- Node34&#45;&gt;Node5 -->
<g id="edge69" class="edge">
<title>Node34&#45;&gt;Node5</title>
<path fill="none" stroke="#63b8ff" d="M528.02,-274.79C507.94,-261.17 466.86,-234.88 428.51,-220 371.84,-198.02 301.5,-185.29 262.68,-179.44"/>
<polygon fill="#63b8ff" stroke="#63b8ff" points="263,-175.95 252.6,-177.97 261.99,-182.88 263,-175.95"/>
</g>
<!-- Node34&#45;&gt;Node8 -->
<g id="edge71" class="edge">
<title>Node34&#45;&gt;Node8</title>
<path fill="none" stroke="#63b8ff" d="M516.73,-274.98C492.28,-266.23 453.98,-252.51 426.37,-242.62"/>
<polygon fill="#63b8ff" stroke="#63b8ff" points="427.32,-239.25 416.72,-239.17 424.96,-245.84 427.32,-239.25"/>
</g>
<!-- Node34&#45;&gt;Node25 -->
<g id="edge72" class="edge">
<title>Node34&#45;&gt;Node25</title>
<path fill="none" stroke="#63b8ff" d="M540.51,-274.75C540.51,-267.8 540.51,-257.85 540.51,-249.13"/>
<polygon fill="#63b8ff" stroke="#63b8ff" points="544.01,-249.09 540.51,-239.09 537.01,-249.09 544.01,-249.09"/>
</g>
</g>
</svg>
