<?xml version="1.0" encoding="UTF-8" standalone="no"?>
<!DOCTYPE svg PUBLIC "-//W3C//DTD SVG 1.1//EN"
 "http://www.w3.org/Graphics/SVG/1.1/DTD/svg11.dtd">
<!-- Generated by graphviz version 2.43.0 (0)
 -->
<!-- Title: /home/runner/work/doxygen/doxygen/src/searchindex.h Pages: 1 -->
<svg width="1123pt" height="203pt"
 viewBox="0.00 0.00 1122.69 203.00" xmlns="http://www.w3.org/2000/svg" xmlns:xlink="http://www.w3.org/1999/xlink">
<g id="graph0" class="graph" transform="scale(1 1) rotate(0) translate(4 199)">
<title>/home/runner/work/doxygen/doxygen/src/searchindex.h</title>
<!-- Node1 -->
<g id="node1" class="node">
<title>Node1</title>
<g id="a_node1"><a xlink:title="Web server based search engine.">
<polygon fill="#999999" stroke="#666666" points="582.19,-195 428.19,-195 428.19,-165 582.19,-165 582.19,-195"/>
<text text-anchor="start" x="436.19" y="-183" font-family="Helvetica,sans-Serif" font-size="10.00">/home/runner/work/doxygen</text>
<text text-anchor="middle" x="505.19" y="-172" font-family="Helvetica,sans-Serif" font-size="10.00">/doxygen/src/searchindex.h</text>
</a>
</g>
</g>
<!-- Node2 -->
<g id="node2" class="node">
<title>Node2</title>
<g id="a_node2"><a xlink:title=" ">
<polygon fill="#e0e0e0" stroke="#999999" points="144.19,-129 86.19,-129 86.19,-110 144.19,-110 144.19,-129"/>
<text text-anchor="middle" x="115.19" y="-117" font-family="Helvetica,sans-Serif" font-size="10.00">memory</text>
</a>
</g>
</g>
<!-- Node1&#45;&gt;Node2 -->
<g id="edge1" class="edge">
<title>Node1&#45;&gt;Node2</title>
<path fill="none" stroke="#63b8ff" d="M428,-169.82C358.8,-161.18 254.3,-147.12 154.55,-129.13"/>
<polygon fill="#63b8ff" stroke="#63b8ff" points="155.06,-125.67 144.6,-127.32 153.81,-132.55 155.06,-125.67"/>
</g>
<!-- Node3 -->
<g id="node3" class="node">
<title>Node3</title>
<g id="a_node3"><a xlink:title=" ">
<polygon fill="#e0e0e0" stroke="#999999" points="209.69,-129 162.69,-129 162.69,-110 209.69,-110 209.69,-129"/>
<text text-anchor="middle" x="186.19" y="-117" font-family="Helvetica,sans-Serif" font-size="10.00">vector</text>
</a>
</g>
</g>
<!-- Node1&#45;&gt;Node3 -->
<g id="edge2" class="edge">
<title>Node1&#45;&gt;Node3</title>
<path fill="none" stroke="#63b8ff" d="M428.09,-167.22C372.71,-158.36 296.11,-145.31 219.72,-128.97"/>
<polygon fill="#63b8ff" stroke="#63b8ff" points="220.44,-125.54 209.93,-126.85 218.96,-132.38 220.44,-125.54"/>
</g>
<!-- Node4 -->
<g id="node4" class="node">
<title>Node4</title>
<g id="a_node4"><a xlink:title=" ">
<polygon fill="#e0e0e0" stroke="#999999" points="266.19,-129 228.19,-129 228.19,-110 266.19,-110 266.19,-129"/>
<text text-anchor="middle" x="247.19" y="-117" font-family="Helvetica,sans-Serif" font-size="10.00">map</text>
</a>
</g>
</g>
<!-- Node1&#45;&gt;Node4 -->
<g id="edge3" class="edge">
<title>Node1&#45;&gt;Node4</title>
<path fill="none" stroke="#63b8ff" d="M433.61,-164.99C390.44,-156.18 334.19,-144.06 276.12,-129.09"/>
<polygon fill="#63b8ff" stroke="#63b8ff" points="276.97,-125.69 266.41,-126.56 275.2,-132.46 276.97,-125.69"/>
</g>
<!-- Node5 -->
<g id="node5" class="node">
<title>Node5</title>
<g id="a_node5"><a xlink:title=" ">
<polygon fill="#e0e0e0" stroke="#999999" points="377.69,-129 284.69,-129 284.69,-110 377.69,-110 377.69,-129"/>
<text text-anchor="middle" x="331.19" y="-117" font-family="Helvetica,sans-Serif" font-size="10.00">unordered_map</text>
</a>
</g>
</g>
<!-- Node1&#45;&gt;Node5 -->
<g id="edge4" class="edge">
<title>Node1&#45;&gt;Node5</title>
<path fill="none" stroke="#63b8ff" d="M463.51,-164.99C433.87,-155.02 394.49,-141.78 366.42,-132.35"/>
<polygon fill="#63b8ff" stroke="#63b8ff" points="367.22,-128.92 356.63,-129.05 364.99,-135.56 367.22,-128.92"/>
</g>
<!-- Node6 -->
<g id="node6" class="node">
<title>Node6</title>
<g id="a_node6"><a xlink:title=" ">
<polygon fill="#e0e0e0" stroke="#999999" points="553.19,-19 509.19,-19 509.19,0 553.19,0 553.19,-19"/>
<text text-anchor="middle" x="531.19" y="-7" font-family="Helvetica,sans-Serif" font-size="10.00">string</text>
</a>
</g>
</g>
<!-- Node1&#45;&gt;Node6 -->
<g id="edge5" class="edge">
<title>Node1&#45;&gt;Node6</title>
<path fill="none" stroke="#63b8ff" d="M507.36,-164.92C512.03,-134.65 523.03,-63.35 528.29,-29.27"/>
<polygon fill="#63b8ff" stroke="#63b8ff" points="531.77,-29.67 529.84,-19.25 524.85,-28.6 531.77,-29.67"/>
</g>
<!-- Node7 -->
<g id="node7" class="node">
<title>Node7</title>
<g id="a_node7"><a xlink:title=" ">
<polygon fill="#e0e0e0" stroke="#999999" points="1029.19,-129 987.19,-129 987.19,-110 1029.19,-110 1029.19,-129"/>
<text text-anchor="middle" x="1008.19" y="-117" font-family="Helvetica,sans-Serif" font-size="10.00">array</text>
</a>
</g>
</g>
<!-- Node1&#45;&gt;Node7 -->
<g id="edge6" class="edge">
<title>Node1&#45;&gt;Node7</title>
<path fill="none" stroke="#63b8ff" d="M582.38,-174.9C674.4,-169.1 832.83,-156.24 977.07,-128.9"/>
<polygon fill="#63b8ff" stroke="#63b8ff" points="977.83,-132.32 986.99,-126.99 976.51,-125.44 977.83,-132.32"/>
</g>
<!-- Node8 -->
<g id="node8" class="node">
<title>Node8</title>
<g id="a_node8"><a xlink:title=" ">
<polygon fill="#e0e0e0" stroke="#999999" points="870.69,-74 819.69,-74 819.69,-55 870.69,-55 870.69,-74"/>
<text text-anchor="middle" x="845.19" y="-62" font-family="Helvetica,sans-Serif" font-size="10.00">variant</text>
</a>
</g>
</g>
<!-- Node1&#45;&gt;Node8 -->
<g id="edge7" class="edge">
<title>Node1&#45;&gt;Node8</title>
<path fill="none" stroke="#63b8ff" d="M582.42,-173.1C634.7,-166.93 704.33,-154.39 761.19,-129 787.62,-117.19 813.5,-95.69 829.39,-81"/>
<polygon fill="#63b8ff" stroke="#63b8ff" points="831.89,-83.46 836.74,-74.04 827.08,-78.38 831.89,-83.46"/>
</g>
<!-- Node9 -->
<g id="node9" class="node">
<title>Node9</title>
<g id="a_node9"><a xlink:href="../../d7/d5c/qcstring_8h.html" target="_top" xlink:title=" ">
<polygon fill="white" stroke="#666666" points="460.69,-129 395.69,-129 395.69,-110 460.69,-110 460.69,-129"/>
<text text-anchor="middle" x="428.19" y="-117" font-family="Helvetica,sans-Serif" font-size="10.00">qcstring.h</text>
</a>
</g>
</g>
<!-- Node1&#45;&gt;Node9 -->
<g id="edge8" class="edge">
<title>Node1&#45;&gt;Node9</title>
<path fill="none" stroke="#63b8ff" d="M486.55,-164.84C474.8,-155.91 459.65,-144.41 447.74,-135.35"/>
<polygon fill="#63b8ff" stroke="#63b8ff" points="449.8,-132.53 439.72,-129.27 445.57,-138.1 449.8,-132.53"/>
</g>
<!-- Node18 -->
<g id="node18" class="node">
<title>Node18</title>
<g id="a_node18"><a xlink:href="../../dd/d72/growbuf_8h.html" target="_top" xlink:title=" ">
<polygon fill="white" stroke="#666666" points="968.69,-129 903.69,-129 903.69,-110 968.69,-110 968.69,-129"/>
<text text-anchor="middle" x="936.19" y="-117" font-family="Helvetica,sans-Serif" font-size="10.00">growbuf.h</text>
</a>
</g>
</g>
<!-- Node1&#45;&gt;Node18 -->
<g id="edge20" class="edge">
<title>Node1&#45;&gt;Node18</title>
<path fill="none" stroke="#63b8ff" d="M582.24,-168.54C673.17,-156.2 821.12,-136.12 893.53,-126.29"/>
<polygon fill="#63b8ff" stroke="#63b8ff" points="894.21,-129.73 903.65,-124.92 893.27,-122.79 894.21,-129.73"/>
</g>
<!-- Node22 -->
<g id="node22" class="node">
<title>Node22</title>
<g id="a_node22"><a xlink:href="../../da/d73/dispatcher_8h.html" target="_top" xlink:title=" ">
<polygon fill="white" stroke="#666666" points="752.19,-129 676.19,-129 676.19,-110 752.19,-110 752.19,-129"/>
<text text-anchor="middle" x="714.19" y="-117" font-family="Helvetica,sans-Serif" font-size="10.00">dispatcher.h</text>
</a>
</g>
</g>
<!-- Node1&#45;&gt;Node22 -->
<g id="edge25" class="edge">
<title>Node1&#45;&gt;Node22</title>
<path fill="none" stroke="#63b8ff" d="M555.25,-164.99C591.47,-154.85 639.81,-141.32 673.63,-131.85"/>
<polygon fill="#63b8ff" stroke="#63b8ff" points="674.94,-135.12 683.63,-129.05 673.05,-128.38 674.94,-135.12"/>
</g>
<!-- Node9&#45;&gt;Node6 -->
<g id="edge9" class="edge">
<title>Node9&#45;&gt;Node6</title>
<path fill="none" stroke="#63b8ff" d="M444.02,-109.99C457.88,-102.01 477.97,-89.05 492.19,-74 505.07,-60.36 515.87,-41.8 522.82,-28.26"/>
<polygon fill="#63b8ff" stroke="#63b8ff" points="526.07,-29.58 527.35,-19.06 519.79,-26.49 526.07,-29.58"/>
</g>
<!-- Node10 -->
<g id="node10" class="node">
<title>Node10</title>
<g id="a_node10"><a xlink:title=" ">
<polygon fill="#e0e0e0" stroke="#999999" points="153.19,-74 89.19,-74 89.19,-55 153.19,-55 153.19,-74"/>
<text text-anchor="middle" x="121.19" y="-62" font-family="Helvetica,sans-Serif" font-size="10.00">algorithm</text>
</a>
</g>
</g>
<!-- Node9&#45;&gt;Node10 -->
<g id="edge10" class="edge">
<title>Node9&#45;&gt;Node10</title>
<path fill="none" stroke="#63b8ff" d="M395.65,-111.78C392.46,-111.16 389.26,-110.56 386.19,-110 290.07,-92.56 263.03,-92.24 163.27,-74.13"/>
<polygon fill="#63b8ff" stroke="#63b8ff" points="163.86,-70.68 153.39,-72.32 162.59,-77.56 163.86,-70.68"/>
</g>
<!-- Node11 -->
<g id="node11" class="node">
<title>Node11</title>
<g id="a_node11"><a xlink:title=" ">
<polygon fill="#e0e0e0" stroke="#999999" points="220.69,-74 171.69,-74 171.69,-55 220.69,-55 220.69,-74"/>
<text text-anchor="middle" x="196.19" y="-62" font-family="Helvetica,sans-Serif" font-size="10.00">cctype</text>
</a>
</g>
</g>
<!-- Node9&#45;&gt;Node11 -->
<g id="edge11" class="edge">
<title>Node9&#45;&gt;Node11</title>
<path fill="none" stroke="#63b8ff" d="M395.55,-111.42C358.17,-103.25 294.86,-89.24 230.9,-74.13"/>
<polygon fill="#63b8ff" stroke="#63b8ff" points="231.59,-70.69 221.05,-71.79 229.97,-77.5 231.59,-70.69"/>
</g>
<!-- Node12 -->
<g id="node12" class="node">
<title>Node12</title>
<g id="a_node12"><a xlink:title=" ">
<polygon fill="#e0e0e0" stroke="#999999" points="289.19,-74 239.19,-74 239.19,-55 289.19,-55 289.19,-74"/>
<text text-anchor="middle" x="264.19" y="-62" font-family="Helvetica,sans-Serif" font-size="10.00">cstring</text>
</a>
</g>
</g>
<!-- Node9&#45;&gt;Node12 -->
<g id="edge12" class="edge">
<title>Node9&#45;&gt;Node12</title>
<path fill="none" stroke="#63b8ff" d="M401.84,-109.98C374.02,-100.99 330.01,-86.77 299.27,-76.84"/>
<polygon fill="#63b8ff" stroke="#63b8ff" points="299.98,-73.39 289.39,-73.65 297.83,-80.05 299.98,-73.39"/>
</g>
<!-- Node13 -->
<g id="node13" class="node">
<title>Node13</title>
<g id="a_node13"><a xlink:title=" ">
<polygon fill="#e0e0e0" stroke="#999999" points="353.19,-74 307.19,-74 307.19,-55 353.19,-55 353.19,-74"/>
<text text-anchor="middle" x="330.19" y="-62" font-family="Helvetica,sans-Serif" font-size="10.00">cstdio</text>
</a>
</g>
</g>
<!-- Node9&#45;&gt;Node13 -->
<g id="edge13" class="edge">
<title>Node9&#45;&gt;Node13</title>
<path fill="none" stroke="#63b8ff" d="M412.44,-109.98C396.96,-101.61 373.09,-88.7 355.05,-78.95"/>
<polygon fill="#63b8ff" stroke="#63b8ff" points="356.68,-75.85 346.22,-74.17 353.35,-82.01 356.68,-75.85"/>
</g>
<!-- Node14 -->
<g id="node14" class="node">
<title>Node14</title>
<g id="a_node14"><a xlink:title=" ">
<polygon fill="#e0e0e0" stroke="#999999" points="420.69,-74 371.69,-74 371.69,-55 420.69,-55 420.69,-74"/>
<text text-anchor="middle" x="396.19" y="-62" font-family="Helvetica,sans-Serif" font-size="10.00">cstdlib</text>
</a>
</g>
</g>
<!-- Node9&#45;&gt;Node14 -->
<g id="edge14" class="edge">
<title>Node9&#45;&gt;Node14</title>
<path fill="none" stroke="#63b8ff" d="M422.9,-109.75C418.48,-102.42 412.02,-91.73 406.57,-82.7"/>
<polygon fill="#63b8ff" stroke="#63b8ff" points="409.54,-80.84 401.37,-74.09 403.54,-84.46 409.54,-80.84"/>
</g>
<!-- Node15 -->
<g id="node15" class="node">
<title>Node15</title>
<g id="a_node15"><a xlink:title=" ">
<polygon fill="#e0e0e0" stroke="#999999" points="260.19,-19 210.19,-19 210.19,0 260.19,0 260.19,-19"/>
<text text-anchor="middle" x="235.19" y="-7" font-family="Helvetica,sans-Serif" font-size="10.00">cstdint</text>
</a>
</g>
</g>
<!-- Node9&#45;&gt;Node15 -->
<g id="edge15" class="edge">
<title>Node9&#45;&gt;Node15</title>
<path fill="none" stroke="#63b8ff" d="M395.23,-111.49C392.18,-110.94 389.13,-110.44 386.19,-110 344.01,-103.76 32.88,-105.53 4.19,-74 -1.5,-67.76 -1.19,-61.51 4.19,-55 28.54,-25.5 140.96,-15.35 199.51,-12.02"/>
<polygon fill="#63b8ff" stroke="#63b8ff" points="199.98,-15.5 209.78,-11.48 199.61,-8.51 199.98,-15.5"/>
</g>
<!-- Node16 -->
<g id="node16" class="node">
<title>Node16</title>
<g id="a_node16"><a xlink:title=" ">
<polygon fill="#e0e0e0" stroke="#999999" points="70.69,-74 13.69,-74 13.69,-55 70.69,-55 70.69,-74"/>
<text text-anchor="middle" x="42.19" y="-62" font-family="Helvetica,sans-Serif" font-size="10.00">ostream</text>
</a>
</g>
</g>
<!-- Node9&#45;&gt;Node16 -->
<g id="edge16" class="edge">
<title>Node9&#45;&gt;Node16</title>
<path fill="none" stroke="#63b8ff" d="M395.68,-111.64C392.48,-111.05 389.27,-110.49 386.19,-110 254.13,-88.91 216.91,-96.59 80.74,-73.91"/>
<polygon fill="#63b8ff" stroke="#63b8ff" points="81.2,-70.44 70.76,-72.22 80.03,-77.34 81.2,-70.44"/>
</g>
<!-- Node17 -->
<g id="node17" class="node">
<title>Node17</title>
<g id="a_node17"><a xlink:href="../../db/d7c/utf8_8h.html" target="_top" xlink:title="Various UTF8 related helper functions.">
<polygon fill="white" stroke="#666666" points="483.69,-74 438.69,-74 438.69,-55 483.69,-55 483.69,-74"/>
<text text-anchor="middle" x="461.19" y="-62" font-family="Helvetica,sans-Serif" font-size="10.00">utf8.h</text>
</a>
</g>
</g>
<!-- Node9&#45;&gt;Node17 -->
<g id="edge17" class="edge">
<title>Node9&#45;&gt;Node17</title>
<path fill="none" stroke="#63b8ff" d="M433.64,-109.75C438.2,-102.42 444.85,-91.73 450.48,-82.7"/>
<polygon fill="#63b8ff" stroke="#63b8ff" points="453.52,-84.43 455.84,-74.09 447.58,-80.73 453.52,-84.43"/>
</g>
<!-- Node17&#45;&gt;Node6 -->
<g id="edge19" class="edge">
<title>Node17&#45;&gt;Node6</title>
<path fill="none" stroke="#63b8ff" d="M472.43,-54.98C482.98,-47 498.99,-34.88 511.63,-25.31"/>
<polygon fill="#63b8ff" stroke="#63b8ff" points="513.88,-28 519.73,-19.17 509.65,-22.42 513.88,-28"/>
</g>
<!-- Node17&#45;&gt;Node15 -->
<g id="edge18" class="edge">
<title>Node17&#45;&gt;Node15</title>
<path fill="none" stroke="#63b8ff" d="M438.49,-57.37C435.37,-56.55 432.2,-55.75 429.19,-55 373.76,-41.29 309.06,-26.74 270.15,-18.14"/>
<polygon fill="#63b8ff" stroke="#63b8ff" points="270.88,-14.72 260.36,-15.99 269.38,-21.56 270.88,-14.72"/>
</g>
<!-- Node18&#45;&gt;Node6 -->
<g id="edge24" class="edge">
<title>Node18&#45;&gt;Node6</title>
<path fill="none" stroke="#63b8ff" d="M940.77,-109.86C947.24,-96.35 956.82,-70.19 943.19,-55 917.93,-26.87 656.43,-14.93 563.63,-11.56"/>
<polygon fill="#63b8ff" stroke="#63b8ff" points="563.55,-8.06 553.43,-11.2 563.3,-15.05 563.55,-8.06"/>
</g>
<!-- Node19 -->
<g id="node19" class="node">
<title>Node19</title>
<g id="a_node19"><a xlink:title=" ">
<polygon fill="#e0e0e0" stroke="#999999" points="933.69,-74 888.69,-74 888.69,-55 933.69,-55 933.69,-74"/>
<text text-anchor="middle" x="911.19" y="-62" font-family="Helvetica,sans-Serif" font-size="10.00">utility</text>
</a>
</g>
</g>
<!-- Node18&#45;&gt;Node19 -->
<g id="edge21" class="edge">
<title>Node18&#45;&gt;Node19</title>
<path fill="none" stroke="#63b8ff" d="M932.06,-109.75C928.67,-102.57 923.77,-92.18 919.57,-83.27"/>
<polygon fill="#63b8ff" stroke="#63b8ff" points="922.67,-81.64 915.24,-74.09 916.34,-84.63 922.67,-81.64"/>
</g>
<!-- Node20 -->
<g id="node20" class="node">
<title>Node20</title>
<g id="a_node20"><a xlink:title=" ">
<polygon fill="#e0e0e0" stroke="#999999" points="1043.69,-74 990.69,-74 990.69,-55 1043.69,-55 1043.69,-74"/>
<text text-anchor="middle" x="1017.19" y="-62" font-family="Helvetica,sans-Serif" font-size="10.00">stdlib.h</text>
</a>
</g>
</g>
<!-- Node18&#45;&gt;Node20 -->
<g id="edge22" class="edge">
<title>Node18&#45;&gt;Node20</title>
<path fill="none" stroke="#63b8ff" d="M949.2,-109.98C961.64,-101.84 980.64,-89.41 995.39,-79.76"/>
<polygon fill="#63b8ff" stroke="#63b8ff" points="997.48,-82.57 1003.94,-74.17 993.65,-76.72 997.48,-82.57"/>
</g>
<!-- Node21 -->
<g id="node21" class="node">
<title>Node21</title>
<g id="a_node21"><a xlink:title=" ">
<polygon fill="#e0e0e0" stroke="#999999" points="1114.69,-74 1061.69,-74 1061.69,-55 1114.69,-55 1114.69,-74"/>
<text text-anchor="middle" x="1088.19" y="-62" font-family="Helvetica,sans-Serif" font-size="10.00">string.h</text>
</a>
</g>
</g>
<!-- Node18&#45;&gt;Node21 -->
<g id="edge23" class="edge">
<title>Node18&#45;&gt;Node21</title>
<path fill="none" stroke="#63b8ff" d="M960.61,-109.98C985.91,-101.16 1025.64,-87.31 1054.04,-77.41"/>
<polygon fill="#63b8ff" stroke="#63b8ff" points="1055.28,-80.68 1063.57,-74.08 1052.98,-74.07 1055.28,-80.68"/>
</g>
<!-- Node22&#45;&gt;Node8 -->
<g id="edge29" class="edge">
<title>Node22&#45;&gt;Node8</title>
<path fill="none" stroke="#63b8ff" d="M735.23,-109.98C756.59,-101.34 789.89,-87.87 814.25,-78.02"/>
<polygon fill="#63b8ff" stroke="#63b8ff" points="815.8,-81.17 823.76,-74.17 813.17,-74.68 815.8,-81.17"/>
</g>
<!-- Node22&#45;&gt;Node19 -->
<g id="edge27" class="edge">
<title>Node22&#45;&gt;Node19</title>
<path fill="none" stroke="#63b8ff" d="M746.33,-109.94C777.76,-101.56 827.23,-88.33 878.56,-74.43"/>
<polygon fill="#63b8ff" stroke="#63b8ff" points="879.77,-77.73 888.5,-71.74 877.94,-70.97 879.77,-77.73"/>
</g>
<!-- Node23 -->
<g id="node23" class="node">
<title>Node23</title>
<g id="a_node23"><a xlink:title=" ">
<polygon fill="#e0e0e0" stroke="#999999" points="718.69,-74 665.69,-74 665.69,-55 718.69,-55 718.69,-74"/>
<text text-anchor="middle" x="692.19" y="-62" font-family="Helvetica,sans-Serif" font-size="10.00">cstddef</text>
</a>
</g>
</g>
<!-- Node22&#45;&gt;Node23 -->
<g id="edge26" class="edge">
<title>Node22&#45;&gt;Node23</title>
<path fill="none" stroke="#63b8ff" d="M710.55,-109.75C707.61,-102.65 703.35,-92.4 699.68,-83.56"/>
<polygon fill="#63b8ff" stroke="#63b8ff" points="702.82,-81.98 695.75,-74.09 696.35,-84.67 702.82,-81.98"/>
</g>
<!-- Node24 -->
<g id="node24" class="node">
<title>Node24</title>
<g id="a_node24"><a xlink:title=" ">
<polygon fill="#e0e0e0" stroke="#999999" points="801.69,-74 736.69,-74 736.69,-55 801.69,-55 801.69,-74"/>
<text text-anchor="middle" x="769.19" y="-62" font-family="Helvetica,sans-Serif" font-size="10.00">functional</text>
</a>
</g>
</g>
<!-- Node22&#45;&gt;Node24 -->
<g id="edge28" class="edge">
<title>Node22&#45;&gt;Node24</title>
<path fill="none" stroke="#63b8ff" d="M723.27,-109.75C731.28,-102.03 743.14,-90.6 752.81,-81.28"/>
<polygon fill="#63b8ff" stroke="#63b8ff" points="755.5,-83.55 760.27,-74.09 750.64,-78.51 755.5,-83.55"/>
</g>
<!-- Node25 -->
<g id="node25" class="node">
<title>Node25</title>
<g id="a_node25"><a xlink:title=" ">
<polygon fill="#e0e0e0" stroke="#999999" points="647.69,-74 578.69,-74 578.69,-55 647.69,-55 647.69,-74"/>
<text text-anchor="middle" x="613.19" y="-62" font-family="Helvetica,sans-Serif" font-size="10.00">type_traits</text>
</a>
</g>
</g>
<!-- Node22&#45;&gt;Node25 -->
<g id="edge30" class="edge">
<title>Node22&#45;&gt;Node25</title>
<path fill="none" stroke="#63b8ff" d="M697.96,-109.98C682,-101.61 657.41,-88.7 638.81,-78.95"/>
<polygon fill="#63b8ff" stroke="#63b8ff" points="640.19,-75.72 629.71,-74.17 636.94,-81.92 640.19,-75.72"/>
</g>
</g>
</svg>
