<?xml version="1.0" encoding="UTF-8" standalone="no"?>
<!DOCTYPE svg PUBLIC "-//W3C//DTD SVG 1.1//EN"
 "http://www.w3.org/Graphics/SVG/1.1/DTD/svg11.dtd">
<!-- Generated by graphviz version 2.43.0 (0)
 -->
<!-- Title: Graphical Class Hierarchy Pages: 1 -->
<svg width="422pt" height="175pt"
 viewBox="0.00 0.00 422.00 175.00" xmlns="http://www.w3.org/2000/svg" xmlns:xlink="http://www.w3.org/1999/xlink">
<g id="graph0" class="graph" transform="scale(1 1) rotate(0) translate(4 171)">
<title>Graphical Class Hierarchy</title>
<!-- Node0 -->
<g id="node1" class="node">
<title>Node0</title>
<g id="a_node1"><a xlink:href="df/d27/class_base_output_doc_interface.html" target="_top" xlink:title="Base Interface used for generating output outside of the comment blocks.">
<polygon fill="white" stroke="#666666" points="136,-74 0,-74 0,-55 136,-55 136,-74"/>
<text text-anchor="middle" x="68" y="-62" font-family="Helvetica,sans-Serif" font-size="10.00">BaseOutputDocInterface</text>
</a>
</g>
</g>
<!-- Node1 -->
<g id="node2" class="node">
<title>Node1</title>
<g id="a_node2"><a xlink:href="d3/d8e/class_output_generator.html" target="_top" xlink:title="Abstract output generator.">
<polygon fill="white" stroke="#666666" points="270,-93 172,-93 172,-74 270,-74 270,-93"/>
<text text-anchor="middle" x="221" y="-81" font-family="Helvetica,sans-Serif" font-size="10.00">OutputGenerator</text>
</a>
</g>
</g>
<!-- Node0&#45;&gt;Node1 -->
<g id="edge1" class="edge">
<title>Node0&#45;&gt;Node1</title>
<path fill="none" stroke="#63b8ff" d="M146.25,-74.22C154.9,-75.31 163.52,-76.39 171.66,-77.42"/>
<polygon fill="#63b8ff" stroke="#63b8ff" points="146.47,-70.72 136.11,-72.94 145.59,-77.67 146.47,-70.72"/>
</g>
<!-- Node7 -->
<g id="node8" class="node">
<title>Node7</title>
<g id="a_node8"><a xlink:href="df/dc8/class_output_list.html" target="_top" xlink:title="Class representing a list of output generators that are written to in parallel.">
<polygon fill="white" stroke="#666666" points="254.5,-56 187.5,-56 187.5,-37 254.5,-37 254.5,-56"/>
<text text-anchor="middle" x="221" y="-44" font-family="Helvetica,sans-Serif" font-size="10.00">OutputList</text>
</a>
</g>
</g>
<!-- Node0&#45;&gt;Node7 -->
<g id="edge7" class="edge">
<title>Node0&#45;&gt;Node7</title>
<path fill="none" stroke="#63b8ff" d="M146.16,-55.3C160.7,-53.57 175.16,-51.84 187.38,-50.39"/>
<polygon fill="#63b8ff" stroke="#63b8ff" points="145.63,-51.84 136.11,-56.5 146.45,-58.79 145.63,-51.84"/>
</g>
<!-- Node2 -->
<g id="node3" class="node">
<title>Node2</title>
<g id="a_node3"><a xlink:href="d1/d72/class_docbook_generator.html" target="_top" xlink:title=" ">
<polygon fill="white" stroke="#666666" points="414,-167 306,-167 306,-148 414,-148 414,-167"/>
<text text-anchor="middle" x="360" y="-155" font-family="Helvetica,sans-Serif" font-size="10.00">DocbookGenerator</text>
</a>
</g>
</g>
<!-- Node1&#45;&gt;Node2 -->
<g id="edge2" class="edge">
<title>Node1&#45;&gt;Node2</title>
<path fill="none" stroke="#63b8ff" d="M242.49,-99.38C258.96,-111.58 283.05,-128.19 306,-139.5 312.45,-142.68 319.6,-145.52 326.51,-147.96"/>
<polygon fill="#63b8ff" stroke="#63b8ff" points="244.28,-96.34 234.19,-93.12 240.07,-101.93 244.28,-96.34"/>
</g>
<!-- Node3 -->
<g id="node4" class="node">
<title>Node3</title>
<g id="a_node4"><a xlink:href="d7/d41/class_html_generator.html" target="_top" xlink:title="Generator for HTML output.">
<polygon fill="white" stroke="#666666" points="404.5,-130 315.5,-130 315.5,-111 404.5,-111 404.5,-130"/>
<text text-anchor="middle" x="360" y="-118" font-family="Helvetica,sans-Serif" font-size="10.00">HtmlGenerator</text>
</a>
</g>
</g>
<!-- Node1&#45;&gt;Node3 -->
<g id="edge3" class="edge">
<title>Node1&#45;&gt;Node3</title>
<path fill="none" stroke="#63b8ff" d="M267.13,-95.69C285.4,-100.62 306.19,-106.24 323.36,-110.88"/>
<polygon fill="#63b8ff" stroke="#63b8ff" points="267.85,-92.26 257.28,-93.03 266.02,-99.01 267.85,-92.26"/>
</g>
<!-- Node4 -->
<g id="node5" class="node">
<title>Node4</title>
<g id="a_node5"><a xlink:href="d3/d77/class_latex_generator.html" target="_top" xlink:title="Generator for LaTeX output.">
<polygon fill="white" stroke="#666666" points="406,-93 314,-93 314,-74 406,-74 406,-93"/>
<text text-anchor="middle" x="360" y="-81" font-family="Helvetica,sans-Serif" font-size="10.00">LatexGenerator</text>
</a>
</g>
</g>
<!-- Node1&#45;&gt;Node4 -->
<g id="edge4" class="edge">
<title>Node1&#45;&gt;Node4</title>
<path fill="none" stroke="#63b8ff" d="M280.44,-83.5C291.63,-83.5 303.19,-83.5 313.89,-83.5"/>
<polygon fill="#63b8ff" stroke="#63b8ff" points="280.3,-80 270.3,-83.5 280.3,-87 280.3,-80"/>
</g>
<!-- Node5 -->
<g id="node6" class="node">
<title>Node5</title>
<g id="a_node6"><a xlink:href="de/da5/class_man_generator.html" target="_top" xlink:title="Generator for Man page output.">
<polygon fill="white" stroke="#666666" points="403,-56 317,-56 317,-37 403,-37 403,-56"/>
<text text-anchor="middle" x="360" y="-44" font-family="Helvetica,sans-Serif" font-size="10.00">ManGenerator</text>
</a>
</g>
</g>
<!-- Node1&#45;&gt;Node5 -->
<g id="edge5" class="edge">
<title>Node1&#45;&gt;Node5</title>
<path fill="none" stroke="#63b8ff" d="M267.13,-71.31C285.4,-66.38 306.19,-60.76 323.36,-56.12"/>
<polygon fill="#63b8ff" stroke="#63b8ff" points="266.02,-67.99 257.28,-73.97 267.85,-74.74 266.02,-67.99"/>
</g>
<!-- Node6 -->
<g id="node7" class="node">
<title>Node6</title>
<g id="a_node7"><a xlink:href="d0/da4/class_r_t_f_generator.html" target="_top" xlink:title="Generator for RTF output.">
<polygon fill="white" stroke="#666666" points="401.5,-19 318.5,-19 318.5,0 401.5,0 401.5,-19"/>
<text text-anchor="middle" x="360" y="-7" font-family="Helvetica,sans-Serif" font-size="10.00">RTFGenerator</text>
</a>
</g>
</g>
<!-- Node1&#45;&gt;Node6 -->
<g id="edge6" class="edge">
<title>Node1&#45;&gt;Node6</title>
<path fill="none" stroke="#63b8ff" d="M262.75,-69.7C265.27,-68.4 267.7,-67 270,-65.5 289.21,-52.95 286.7,-40.91 306,-28.5 311.84,-24.75 318.51,-21.61 325.11,-19.04"/>
<polygon fill="#63b8ff" stroke="#63b8ff" points="261.06,-66.63 253.44,-73.99 263.99,-72.99 261.06,-66.63"/>
</g>
</g>
</svg>
