<?xml version="1.0" encoding="UTF-8" standalone="no"?>
<!DOCTYPE svg PUBLIC "-//W3C//DTD SVG 1.1//EN"
 "http://www.w3.org/Graphics/SVG/1.1/DTD/svg11.dtd">
<!-- Generated by graphviz version 2.43.0 (0)
 -->
<!-- Title: Graphical Class Hierarchy Pages: 1 -->
<svg width="274pt" height="138pt"
 viewBox="0.00 0.00 274.00 138.00" xmlns="http://www.w3.org/2000/svg" xmlns:xlink="http://www.w3.org/1999/xlink">
<g id="graph0" class="graph" transform="scale(1 1) rotate(0) translate(4 134)">
<title>Graphical Class Hierarchy</title>
<!-- Node0 -->
<g id="node1" class="node">
<title>Node0</title>
<g id="a_node1"><a xlink:href="d0/dcf/class_text_generator_intf.html" target="_top" xlink:title="Abstract interface for a hyperlinked text fragment.">
<polygon fill="white" stroke="#666666" points="102,-74 0,-74 0,-55 102,-55 102,-74"/>
<text text-anchor="middle" x="51" y="-62" font-family="Helvetica,sans-Serif" font-size="10.00">TextGeneratorIntf</text>
</a>
</g>
</g>
<!-- Node1 -->
<g id="node2" class="node">
<title>Node1</title>
<g id="a_node2"><a xlink:href="d7/d8a/class_text_generator_html.html" target="_top" xlink:title=" ">
<polygon fill="white" stroke="#666666" points="257,-130 147,-130 147,-111 257,-111 257,-130"/>
<text text-anchor="middle" x="202" y="-118" font-family="Helvetica,sans-Serif" font-size="10.00">TextGeneratorHtml</text>
</a>
</g>
</g>
<!-- Node0&#45;&gt;Node1 -->
<g id="edge1" class="edge">
<title>Node0&#45;&gt;Node1</title>
<path fill="none" stroke="#63b8ff" d="M80.63,-78.34C97.17,-86.03 118.5,-95.44 138,-102.5 146.45,-105.56 155.68,-108.44 164.41,-110.97"/>
<polygon fill="#63b8ff" stroke="#63b8ff" points="82.03,-75.13 71.5,-74.04 79.05,-81.46 82.03,-75.13"/>
</g>
<!-- Node2 -->
<g id="node3" class="node">
<title>Node2</title>
<g id="a_node3"><a xlink:href="d7/d67/class_text_generator_latex.html" target="_top" xlink:title=" ">
<polygon fill="white" stroke="#666666" points="258.5,-93 145.5,-93 145.5,-74 258.5,-74 258.5,-93"/>
<text text-anchor="middle" x="202" y="-81" font-family="Helvetica,sans-Serif" font-size="10.00">TextGeneratorLatex</text>
</a>
</g>
</g>
<!-- Node0&#45;&gt;Node2 -->
<g id="edge2" class="edge">
<title>Node0&#45;&gt;Node2</title>
<path fill="none" stroke="#63b8ff" d="M112.02,-72.15C123.07,-73.56 134.56,-75.03 145.46,-76.42"/>
<polygon fill="#63b8ff" stroke="#63b8ff" points="112.39,-68.67 102.03,-70.88 111.51,-75.62 112.39,-68.67"/>
</g>
<!-- Node3 -->
<g id="node4" class="node">
<title>Node3</title>
<g id="a_node4"><a xlink:href="db/d2b/class_text_generator_o_l_impl.html" target="_top" xlink:title="Implements TextGeneratorIntf for an OutputDocInterface stream.">
<polygon fill="white" stroke="#666666" points="262,-56 142,-56 142,-37 262,-37 262,-56"/>
<text text-anchor="middle" x="202" y="-44" font-family="Helvetica,sans-Serif" font-size="10.00">TextGeneratorOLImpl</text>
</a>
</g>
</g>
<!-- Node0&#45;&gt;Node3 -->
<g id="edge3" class="edge">
<title>Node0&#45;&gt;Node3</title>
<path fill="none" stroke="#63b8ff" d="M112.09,-57.24C121.89,-56.06 132.04,-54.83 141.82,-53.65"/>
<polygon fill="#63b8ff" stroke="#63b8ff" points="111.54,-53.78 102.03,-58.46 112.38,-60.73 111.54,-53.78"/>
</g>
<!-- Node4 -->
<g id="node5" class="node">
<title>Node4</title>
<g id="a_node5"><a xlink:href="db/d9f/class_text_generator_x_m_l_impl.html" target="_top" xlink:title="Implements TextGeneratorIntf for an XML stream.">
<polygon fill="white" stroke="#666666" points="266,-19 138,-19 138,0 266,0 266,-19"/>
<text text-anchor="middle" x="202" y="-7" font-family="Helvetica,sans-Serif" font-size="10.00">TextGeneratorXMLImpl</text>
</a>
</g>
</g>
<!-- Node0&#45;&gt;Node4 -->
<g id="edge4" class="edge">
<title>Node0&#45;&gt;Node4</title>
<path fill="none" stroke="#63b8ff" d="M82.85,-50.67C99.1,-43.62 119.46,-35.16 138,-28.5 147.35,-25.14 157.63,-21.87 167.11,-19.02"/>
<polygon fill="#63b8ff" stroke="#63b8ff" points="81.07,-47.63 73.32,-54.85 83.88,-54.04 81.07,-47.63"/>
</g>
</g>
</svg>
