<?xml version="1.0" encoding="UTF-8" standalone="no"?>
<!DOCTYPE svg PUBLIC "-//W3C//DTD SVG 1.1//EN"
 "http://www.w3.org/Graphics/SVG/1.1/DTD/svg11.dtd">
<!-- Generated by graphviz version 2.43.0 (0)
 -->
<!-- Title: Graphical Class Hierarchy Pages: 1 -->
<svg width="336pt" height="1507pt"
 viewBox="0.00 0.00 336.00 1507.00" xmlns="http://www.w3.org/2000/svg" xmlns:xlink="http://www.w3.org/1999/xlink">
<g id="graph0" class="graph" transform="scale(1 1) rotate(0) translate(4 1503)">
<title>Graphical Class Hierarchy</title>
<!-- Node0 -->
<g id="node1" class="node">
<title>Node0</title>
<g id="a_node1"><a xlink:href="d9/de8/class_template_struct_intf.html" target="_top" xlink:title="Abstract interface for a context value of type struct.">
<polygon fill="white" stroke="#666666" points="107,-759 0,-759 0,-740 107,-740 107,-759"/>
<text text-anchor="middle" x="53.5" y="-747" font-family="Helvetica,sans-Serif" font-size="10.00">TemplateStructIntf</text>
</a>
</g>
</g>
<!-- Node1 -->
<g id="node2" class="node">
<title>Node1</title>
<g id="a_node2"><a xlink:href="d4/d24/class_argument_context.html" target="_top" xlink:title=" ">
<polygon fill="white" stroke="#666666" points="287,-1499 184,-1499 184,-1480 287,-1480 287,-1499"/>
<text text-anchor="middle" x="235.5" y="-1487" font-family="Helvetica,sans-Serif" font-size="10.00">ArgumentContext</text>
</a>
</g>
</g>
<!-- Node0&#45;&gt;Node1 -->
<g id="edge1" class="edge">
<title>Node0&#45;&gt;Node1</title>
<path fill="none" stroke="#63b8ff" d="M55.55,-769.22C61.62,-879.68 93.62,-1418.42 143,-1471.5 153.48,-1482.76 168.78,-1488.14 183.88,-1490.46"/>
<polygon fill="#63b8ff" stroke="#63b8ff" points="59.04,-768.94 55.01,-759.15 52.05,-769.32 59.04,-768.94"/>
</g>
<!-- Node2 -->
<g id="node3" class="node">
<title>Node2</title>
<g id="a_node3"><a xlink:href="dc/d38/class_class_context.html" target="_top" xlink:title=" ">
<polygon fill="white" stroke="#666666" points="276,-1462 195,-1462 195,-1443 276,-1443 276,-1462"/>
<text text-anchor="middle" x="235.5" y="-1450" font-family="Helvetica,sans-Serif" font-size="10.00">ClassContext</text>
</a>
</g>
</g>
<!-- Node0&#45;&gt;Node2 -->
<g id="edge2" class="edge">
<title>Node0&#45;&gt;Node2</title>
<path fill="none" stroke="#63b8ff" d="M54.09,-769.08C52.36,-870.45 49.68,-1334.83 143,-1434.5 156.06,-1448.45 176.52,-1453.36 194.78,-1454.6"/>
<polygon fill="#63b8ff" stroke="#63b8ff" points="57.59,-769.08 54.28,-759.02 50.59,-768.95 57.59,-769.08"/>
</g>
<!-- Node3 -->
<g id="node4" class="node">
<title>Node3</title>
<g id="a_node4"><a xlink:href="de/d04/class_class_hierarchy_context.html" target="_top" xlink:title=" ">
<polygon fill="white" stroke="#666666" points="299.5,-1425 171.5,-1425 171.5,-1406 299.5,-1406 299.5,-1425"/>
<text text-anchor="middle" x="235.5" y="-1413" font-family="Helvetica,sans-Serif" font-size="10.00">ClassHierarchyContext</text>
</a>
</g>
</g>
<!-- Node0&#45;&gt;Node3 -->
<g id="edge3" class="edge">
<title>Node0&#45;&gt;Node3</title>
<path fill="none" stroke="#63b8ff" d="M54.24,-769.56C53.39,-868.56 54.76,-1303.94 143,-1397.5 150.55,-1405.51 160.55,-1410.53 171.16,-1413.59"/>
<polygon fill="#63b8ff" stroke="#63b8ff" points="57.74,-769.47 54.35,-759.43 50.74,-769.39 57.74,-769.47"/>
</g>
<!-- Node4 -->
<g id="node5" class="node">
<title>Node4</title>
<g id="a_node5"><a xlink:href="dc/dfb/class_class_index_context.html" target="_top" xlink:title=" ">
<polygon fill="white" stroke="#666666" points="289.5,-1388 181.5,-1388 181.5,-1369 289.5,-1369 289.5,-1388"/>
<text text-anchor="middle" x="235.5" y="-1376" font-family="Helvetica,sans-Serif" font-size="10.00">ClassIndexContext</text>
</a>
</g>
</g>
<!-- Node0&#45;&gt;Node4 -->
<g id="edge4" class="edge">
<title>Node0&#45;&gt;Node4</title>
<path fill="none" stroke="#63b8ff" d="M54.42,-769.61C54.49,-865.22 59.69,-1272.89 143,-1360.5 152.93,-1370.94 167.01,-1376.3 181.16,-1378.85"/>
<polygon fill="#63b8ff" stroke="#63b8ff" points="57.92,-769.32 54.44,-759.32 50.92,-769.31 57.92,-769.32"/>
</g>
<!-- Node5 -->
<g id="node6" class="node">
<title>Node5</title>
<g id="a_node6"><a xlink:href="dc/da3/class_class_inheritance_node_context.html" target="_top" xlink:title=" ">
<polygon fill="white" stroke="#666666" points="316,-1351 155,-1351 155,-1332 316,-1332 316,-1351"/>
<text text-anchor="middle" x="235.5" y="-1339" font-family="Helvetica,sans-Serif" font-size="10.00">ClassInheritanceNodeContext</text>
</a>
</g>
</g>
<!-- Node0&#45;&gt;Node5 -->
<g id="edge5" class="edge">
<title>Node0&#45;&gt;Node5</title>
<path fill="none" stroke="#63b8ff" d="M54.63,-769.26C55.62,-860.68 64.5,-1241.7 143,-1323.5 146.47,-1327.12 150.45,-1330.13 154.75,-1332.62"/>
<polygon fill="#63b8ff" stroke="#63b8ff" points="58.12,-769.13 54.54,-759.16 51.12,-769.19 58.12,-769.13"/>
</g>
<!-- Node6 -->
<g id="node7" class="node">
<title>Node6</title>
<g id="a_node7"><a xlink:href="d1/d32/class_class_members_index_context.html" target="_top" xlink:title=" ">
<polygon fill="white" stroke="#666666" points="312.5,-1314 158.5,-1314 158.5,-1295 312.5,-1295 312.5,-1314"/>
<text text-anchor="middle" x="235.5" y="-1302" font-family="Helvetica,sans-Serif" font-size="10.00">ClassMembersIndexContext</text>
</a>
</g>
</g>
<!-- Node0&#45;&gt;Node6 -->
<g id="edge6" class="edge">
<title>Node0&#45;&gt;Node6</title>
<path fill="none" stroke="#63b8ff" d="M54.86,-769.64C56.89,-858.05 69.51,-1210.7 143,-1286.5 147.4,-1291.03 152.57,-1294.6 158.2,-1297.4"/>
<polygon fill="#63b8ff" stroke="#63b8ff" points="58.36,-769.31 54.65,-759.38 51.36,-769.45 58.36,-769.31"/>
</g>
<!-- Node7 -->
<g id="node8" class="node">
<title>Node7</title>
<g id="a_node8"><a xlink:href="dc/d6f/class_class_tree_context.html" target="_top" xlink:title=" ">
<polygon fill="white" stroke="#666666" points="286,-1277 185,-1277 185,-1258 286,-1258 286,-1277"/>
<text text-anchor="middle" x="235.5" y="-1265" font-family="Helvetica,sans-Serif" font-size="10.00">ClassTreeContext</text>
</a>
</g>
</g>
<!-- Node0&#45;&gt;Node7 -->
<g id="edge7" class="edge">
<title>Node0&#45;&gt;Node7</title>
<path fill="none" stroke="#63b8ff" d="M55.12,-769.31C58.17,-853.38 74.31,-1179.48 143,-1249.5 153.88,-1260.59 169.47,-1265.9 184.71,-1268.2"/>
<polygon fill="#63b8ff" stroke="#63b8ff" points="58.61,-768.98 54.77,-759.11 51.62,-769.22 58.61,-768.98"/>
</g>
<!-- Node8 -->
<g id="node9" class="node">
<title>Node8</title>
<g id="a_node9"><a xlink:href="d9/da3/class_concept_context.html" target="_top" xlink:title=" ">
<polygon fill="white" stroke="#666666" points="283,-1240 188,-1240 188,-1221 283,-1221 283,-1240"/>
<text text-anchor="middle" x="235.5" y="-1228" font-family="Helvetica,sans-Serif" font-size="10.00">ConceptContext</text>
</a>
</g>
</g>
<!-- Node0&#45;&gt;Node8 -->
<g id="edge8" class="edge">
<title>Node0&#45;&gt;Node8</title>
<path fill="none" stroke="#63b8ff" d="M55.43,-769.37C59.59,-849.58 79.19,-1148.35 143,-1212.5 154.65,-1224.21 171.54,-1229.44 187.65,-1231.51"/>
<polygon fill="#63b8ff" stroke="#63b8ff" points="58.91,-768.98 54.92,-759.17 51.92,-769.33 58.91,-768.98"/>
</g>
<!-- Node9 -->
<g id="node10" class="node">
<title>Node9</title>
<g id="a_node10"><a xlink:href="d8/d4c/class_concept_tree_context.html" target="_top" xlink:title=" ">
<polygon fill="white" stroke="#666666" points="293,-1203 178,-1203 178,-1184 293,-1184 293,-1203"/>
<text text-anchor="middle" x="235.5" y="-1191" font-family="Helvetica,sans-Serif" font-size="10.00">ConceptTreeContext</text>
</a>
</g>
</g>
<!-- Node0&#45;&gt;Node9 -->
<g id="edge9" class="edge">
<title>Node0&#45;&gt;Node9</title>
<path fill="none" stroke="#63b8ff" d="M55.77,-769.23C61.09,-845.14 84.01,-1117.13 143,-1175.5 152.32,-1184.72 164.91,-1189.91 177.75,-1192.7"/>
<polygon fill="#63b8ff" stroke="#63b8ff" points="59.26,-768.88 55.09,-759.14 52.27,-769.35 59.26,-768.88"/>
</g>
<!-- Node10 -->
<g id="node11" class="node">
<title>Node10</title>
<g id="a_node11"><a xlink:href="d0/dd1/class_config_context.html" target="_top" xlink:title=" ">
<polygon fill="white" stroke="#666666" points="278.5,-1166 192.5,-1166 192.5,-1147 278.5,-1147 278.5,-1166"/>
<text text-anchor="middle" x="235.5" y="-1154" font-family="Helvetica,sans-Serif" font-size="10.00">ConfigContext</text>
</a>
</g>
</g>
<!-- Node0&#45;&gt;Node10 -->
<g id="edge10" class="edge">
<title>Node0&#45;&gt;Node10</title>
<path fill="none" stroke="#63b8ff" d="M56.2,-769.32C62.77,-841.09 88.87,-1085.94 143,-1138.5 155.89,-1151.02 174.81,-1156.07 192.1,-1157.77"/>
<polygon fill="#63b8ff" stroke="#63b8ff" points="59.66,-768.66 55.28,-759.01 52.68,-769.28 59.66,-768.66"/>
</g>
<!-- Node11 -->
<g id="node12" class="node">
<title>Node11</title>
<g id="a_node12"><a xlink:href="d5/dca/class_dir_context.html" target="_top" xlink:title=" ">
<polygon fill="white" stroke="#666666" points="270,-1129 201,-1129 201,-1110 270,-1110 270,-1129"/>
<text text-anchor="middle" x="235.5" y="-1117" font-family="Helvetica,sans-Serif" font-size="10.00">DirContext</text>
</a>
</g>
</g>
<!-- Node0&#45;&gt;Node11 -->
<g id="edge11" class="edge">
<title>Node0&#45;&gt;Node11</title>
<path fill="none" stroke="#63b8ff" d="M56.69,-769.16C64.57,-836.26 93.64,-1054.65 143,-1101.5 158.26,-1115.99 181.62,-1120.41 200.92,-1121.24"/>
<polygon fill="#63b8ff" stroke="#63b8ff" points="60.15,-768.63 55.54,-759.1 53.2,-769.43 60.15,-768.63"/>
</g>
<!-- Node12 -->
<g id="node13" class="node">
<title>Node12</title>
<g id="a_node13"><a xlink:href="de/d68/class_doxygen_context.html" target="_top" xlink:title=" ">
<polygon fill="white" stroke="#666666" points="284.5,-1092 186.5,-1092 186.5,-1073 284.5,-1073 284.5,-1092"/>
<text text-anchor="middle" x="235.5" y="-1080" font-family="Helvetica,sans-Serif" font-size="10.00">DoxygenContext</text>
</a>
</g>
</g>
<!-- Node0&#45;&gt;Node12 -->
<g id="edge12" class="edge">
<title>Node0&#45;&gt;Node12</title>
<path fill="none" stroke="#63b8ff" d="M57.3,-769.09C66.59,-831.39 98.41,-1023.32 143,-1064.5 154.66,-1075.26 170.8,-1080.42 186.28,-1082.69"/>
<polygon fill="#63b8ff" stroke="#63b8ff" points="60.74,-768.42 55.83,-759.03 53.81,-769.43 60.74,-768.42"/>
</g>
<!-- Node13 -->
<g id="node14" class="node">
<title>Node13</title>
<g id="a_node14"><a xlink:href="d5/d67/class_example_tree_context.html" target="_top" xlink:title=" ">
<polygon fill="white" stroke="#666666" points="294.5,-1055 176.5,-1055 176.5,-1036 294.5,-1036 294.5,-1055"/>
<text text-anchor="middle" x="235.5" y="-1043" font-family="Helvetica,sans-Serif" font-size="10.00">ExampleTreeContext</text>
</a>
</g>
</g>
<!-- Node0&#45;&gt;Node13 -->
<g id="edge13" class="edge">
<title>Node0&#45;&gt;Node13</title>
<path fill="none" stroke="#63b8ff" d="M54.4,-769.28C55.29,-820.46 65.17,-958.07 143,-1027.5 152.3,-1035.8 164.29,-1040.73 176.5,-1043.58"/>
<polygon fill="#63b8ff" stroke="#63b8ff" points="57.9,-769.19 54.33,-759.22 50.9,-769.24 57.9,-769.19"/>
</g>
<!-- Node14 -->
<g id="node15" class="node">
<title>Node14</title>
<g id="a_node15"><a xlink:href="d3/db7/class_file_context.html" target="_top" xlink:title=" ">
<polygon fill="white" stroke="#666666" points="271.5,-1018 199.5,-1018 199.5,-999 271.5,-999 271.5,-1018"/>
<text text-anchor="middle" x="235.5" y="-1006" font-family="Helvetica,sans-Serif" font-size="10.00">FileContext</text>
</a>
</g>
</g>
<!-- Node0&#45;&gt;Node14 -->
<g id="edge14" class="edge">
<title>Node0&#45;&gt;Node14</title>
<path fill="none" stroke="#63b8ff" d="M55.52,-769.42C59.02,-815.91 74.56,-932.08 143,-990.5 158.39,-1003.64 180.57,-1008.24 199.23,-1009.5"/>
<polygon fill="#63b8ff" stroke="#63b8ff" points="58.99,-768.93 54.86,-759.18 52.01,-769.38 58.99,-768.93"/>
</g>
<!-- Node15 -->
<g id="node16" class="node">
<title>Node15</title>
<g id="a_node16"><a xlink:href="d6/dfa/class_file_tree_context.html" target="_top" xlink:title=" ">
<polygon fill="white" stroke="#666666" points="281.5,-981 189.5,-981 189.5,-962 281.5,-962 281.5,-981"/>
<text text-anchor="middle" x="235.5" y="-969" font-family="Helvetica,sans-Serif" font-size="10.00">FileTreeContext</text>
</a>
</g>
</g>
<!-- Node0&#45;&gt;Node15 -->
<g id="edge15" class="edge">
<title>Node0&#45;&gt;Node15</title>
<path fill="none" stroke="#63b8ff" d="M56.95,-769.14C63.2,-810.29 83.63,-905.7 143,-953.5 155.99,-963.96 173.34,-968.91 189.44,-971.1"/>
<polygon fill="#63b8ff" stroke="#63b8ff" points="60.4,-768.48 55.55,-759.05 53.46,-769.44 60.4,-768.48"/>
</g>
<!-- Node16 -->
<g id="node17" class="node">
<title>Node16</title>
<g id="a_node17"><a xlink:href="da/dba/class_globals_index_context.html" target="_top" xlink:title=" ">
<polygon fill="white" stroke="#666666" points="295,-944 176,-944 176,-925 295,-925 295,-944"/>
<text text-anchor="middle" x="235.5" y="-932" font-family="Helvetica,sans-Serif" font-size="10.00">GlobalsIndexContext</text>
</a>
</g>
</g>
<!-- Node0&#45;&gt;Node16 -->
<g id="edge16" class="edge">
<title>Node0&#45;&gt;Node16</title>
<path fill="none" stroke="#63b8ff" d="M59.08,-769.44C68.34,-805.03 92.85,-879.25 143,-916.5 152.49,-923.55 164,-928.04 175.62,-930.86"/>
<polygon fill="#63b8ff" stroke="#63b8ff" points="62.38,-768.21 56.59,-759.34 55.58,-769.89 62.38,-768.21"/>
</g>
<!-- Node17 -->
<g id="node18" class="node">
<title>Node17</title>
<g id="a_node18"><a xlink:href="d2/dfe/class_include_info_context.html" target="_top" xlink:title=" ">
<polygon fill="white" stroke="#666666" points="290,-907 181,-907 181,-888 290,-888 290,-907"/>
<text text-anchor="middle" x="235.5" y="-895" font-family="Helvetica,sans-Serif" font-size="10.00">IncludeInfoContext</text>
</a>
</g>
</g>
<!-- Node0&#45;&gt;Node17 -->
<g id="edge17" class="edge">
<title>Node0&#45;&gt;Node17</title>
<path fill="none" stroke="#63b8ff" d="M61.9,-768.67C74.12,-797.62 101.4,-852.03 143,-879.5 154.21,-886.91 167.77,-891.4 180.98,-894.09"/>
<polygon fill="#63b8ff" stroke="#63b8ff" points="65.08,-767.2 58.08,-759.25 58.59,-769.83 65.08,-767.2"/>
</g>
<!-- Node18 -->
<g id="node19" class="node">
<title>Node18</title>
<g id="a_node19"><a xlink:href="d2/d30/class_inheritance_graph_context.html" target="_top" xlink:title=" ">
<polygon fill="white" stroke="#666666" points="305,-870 166,-870 166,-851 305,-851 305,-870"/>
<text text-anchor="middle" x="235.5" y="-858" font-family="Helvetica,sans-Serif" font-size="10.00">InheritanceGraphContext</text>
</a>
</g>
</g>
<!-- Node0&#45;&gt;Node18 -->
<g id="edge18" class="edge">
<title>Node0&#45;&gt;Node18</title>
<path fill="none" stroke="#63b8ff" d="M66.34,-767.52C81.45,-788.98 109.67,-824.19 143,-842.5 150.1,-846.4 157.91,-849.46 165.89,-851.86"/>
<polygon fill="#63b8ff" stroke="#63b8ff" points="69.23,-765.54 60.69,-759.26 63.45,-769.49 69.23,-765.54"/>
</g>
<!-- Node19 -->
<g id="node20" class="node">
<title>Node19</title>
<g id="a_node20"><a xlink:href="d6/d29/class_inheritance_node_context.html" target="_top" xlink:title=" ">
<polygon fill="white" stroke="#666666" points="303,-833 168,-833 168,-814 303,-814 303,-833"/>
<text text-anchor="middle" x="235.5" y="-821" font-family="Helvetica,sans-Serif" font-size="10.00">InheritanceNodeContext</text>
</a>
</g>
</g>
<!-- Node0&#45;&gt;Node19 -->
<g id="edge19" class="edge">
<title>Node0&#45;&gt;Node19</title>
<path fill="none" stroke="#63b8ff" d="M74.47,-765.19C91.68,-777.94 117.69,-795.41 143,-805.5 151.57,-808.92 160.86,-811.7 170.13,-813.97"/>
<polygon fill="#63b8ff" stroke="#63b8ff" points="76.4,-762.27 66.32,-759.02 72.17,-767.85 76.4,-762.27"/>
</g>
<!-- Node20 -->
<g id="node21" class="node">
<title>Node20</title>
<g id="a_node21"><a xlink:href="d7/dd6/class_inherited_member_info_context.html" target="_top" xlink:title=" ">
<polygon fill="white" stroke="#666666" points="314.5,-796 156.5,-796 156.5,-777 314.5,-777 314.5,-796"/>
<text text-anchor="middle" x="235.5" y="-784" font-family="Helvetica,sans-Serif" font-size="10.00">InheritedMemberInfoContext</text>
</a>
</g>
</g>
<!-- Node0&#45;&gt;Node20 -->
<g id="edge20" class="edge">
<title>Node0&#45;&gt;Node20</title>
<path fill="none" stroke="#63b8ff" d="M108.07,-761.16C119.58,-763.62 131.69,-766.17 143,-768.5 156.64,-771.31 171.44,-774.26 185.08,-776.94"/>
<polygon fill="#63b8ff" stroke="#63b8ff" points="108.64,-757.7 98.13,-759.02 107.18,-764.54 108.64,-757.7"/>
</g>
<!-- Node21 -->
<g id="node22" class="node">
<title>Node21</title>
<g id="a_node22"><a xlink:href="d5/d43/class_member_context.html" target="_top" xlink:title=" ">
<polygon fill="white" stroke="#666666" points="283,-759 188,-759 188,-740 283,-740 283,-759"/>
<text text-anchor="middle" x="235.5" y="-747" font-family="Helvetica,sans-Serif" font-size="10.00">MemberContext</text>
</a>
</g>
</g>
<!-- Node0&#45;&gt;Node21 -->
<g id="edge21" class="edge">
<title>Node0&#45;&gt;Node21</title>
<path fill="none" stroke="#63b8ff" d="M117.14,-749.5C140.32,-749.5 166.18,-749.5 187.71,-749.5"/>
<polygon fill="#63b8ff" stroke="#63b8ff" points="117.05,-746 107.05,-749.5 117.05,-753 117.05,-746"/>
</g>
<!-- Node22 -->
<g id="node23" class="node">
<title>Node22</title>
<g id="a_node23"><a xlink:href="d1/d7e/class_member_group_info_context.html" target="_top" xlink:title=" ">
<polygon fill="white" stroke="#666666" points="307,-722 164,-722 164,-703 307,-703 307,-722"/>
<text text-anchor="middle" x="235.5" y="-710" font-family="Helvetica,sans-Serif" font-size="10.00">MemberGroupInfoContext</text>
</a>
</g>
</g>
<!-- Node0&#45;&gt;Node22 -->
<g id="edge22" class="edge">
<title>Node0&#45;&gt;Node22</title>
<path fill="none" stroke="#63b8ff" d="M110.85,-737.92C135.66,-732.82 164.44,-726.9 187.99,-722.06"/>
<polygon fill="#63b8ff" stroke="#63b8ff" points="109.94,-734.53 100.85,-739.97 111.35,-741.39 109.94,-734.53"/>
</g>
<!-- Node23 -->
<g id="node24" class="node">
<title>Node23</title>
<g id="a_node24"><a xlink:href="d4/d22/class_member_info_context.html" target="_top" xlink:title=" ">
<polygon fill="white" stroke="#666666" points="292.5,-685 178.5,-685 178.5,-666 292.5,-666 292.5,-685"/>
<text text-anchor="middle" x="235.5" y="-673" font-family="Helvetica,sans-Serif" font-size="10.00">MemberInfoContext</text>
</a>
</g>
</g>
<!-- Node0&#45;&gt;Node23 -->
<g id="edge23" class="edge">
<title>Node0&#45;&gt;Node23</title>
<path fill="none" stroke="#63b8ff" d="M74.83,-733.96C92.09,-721.5 117.97,-704.51 143,-694.5 154.15,-690.04 166.5,-686.57 178.42,-683.9"/>
<polygon fill="#63b8ff" stroke="#63b8ff" points="72.62,-731.24 66.64,-740 76.77,-736.88 72.62,-731.24"/>
</g>
<!-- Node24 -->
<g id="node25" class="node">
<title>Node24</title>
<g id="a_node25"><a xlink:href="d8/df1/class_member_list_info_context.html" target="_top" xlink:title=" ">
<polygon fill="white" stroke="#666666" points="301,-648 170,-648 170,-629 301,-629 301,-648"/>
<text text-anchor="middle" x="235.5" y="-636" font-family="Helvetica,sans-Serif" font-size="10.00">MemberListInfoContext</text>
</a>
</g>
</g>
<!-- Node0&#45;&gt;Node24 -->
<g id="edge24" class="edge">
<title>Node0&#45;&gt;Node24</title>
<path fill="none" stroke="#63b8ff" d="M66.62,-731.45C81.86,-710.26 110.05,-675.71 143,-657.5 151.24,-652.95 160.44,-649.49 169.74,-646.85"/>
<polygon fill="#63b8ff" stroke="#63b8ff" points="63.59,-729.68 60.74,-739.88 69.33,-733.68 63.59,-729.68"/>
</g>
<!-- Node25 -->
<g id="node26" class="node">
<title>Node25</title>
<g id="a_node26"><a xlink:href="d2/d73/class_module_context.html" target="_top" xlink:title=" ">
<polygon fill="white" stroke="#666666" points="281,-611 190,-611 190,-592 281,-592 281,-611"/>
<text text-anchor="middle" x="235.5" y="-599" font-family="Helvetica,sans-Serif" font-size="10.00">ModuleContext</text>
</a>
</g>
</g>
<!-- Node0&#45;&gt;Node25 -->
<g id="edge25" class="edge">
<title>Node0&#45;&gt;Node25</title>
<path fill="none" stroke="#63b8ff" d="M61.98,-730.53C74.3,-701.87 101.72,-647.97 143,-620.5 156.78,-611.33 174.1,-606.45 189.96,-603.9"/>
<polygon fill="#63b8ff" stroke="#63b8ff" points="58.71,-729.27 58.12,-739.85 65.18,-731.95 58.71,-729.27"/>
</g>
<!-- Node26 -->
<g id="node27" class="node">
<title>Node26</title>
<g id="a_node27"><a xlink:href="dc/d32/class_module_node_context.html" target="_top" xlink:title=" ">
<polygon fill="white" stroke="#666666" points="293.5,-574 177.5,-574 177.5,-555 293.5,-555 293.5,-574"/>
<text text-anchor="middle" x="235.5" y="-562" font-family="Helvetica,sans-Serif" font-size="10.00">ModuleNodeContext</text>
</a>
</g>
</g>
<!-- Node0&#45;&gt;Node26 -->
<g id="edge26" class="edge">
<title>Node0&#45;&gt;Node26</title>
<path fill="none" stroke="#63b8ff" d="M59.15,-729.73C68.54,-694.43 93.23,-620.78 143,-583.5 152.87,-576.11 164.94,-571.43 177.04,-568.51"/>
<polygon fill="#63b8ff" stroke="#63b8ff" points="55.68,-729.19 56.63,-739.75 62.47,-730.9 55.68,-729.19"/>
</g>
<!-- Node27 -->
<g id="node28" class="node">
<title>Node27</title>
<g id="a_node28"><a xlink:href="d3/d7a/class_module_tree_context.html" target="_top" xlink:title=" ">
<polygon fill="white" stroke="#666666" points="291,-537 180,-537 180,-518 291,-518 291,-537"/>
<text text-anchor="middle" x="235.5" y="-525" font-family="Helvetica,sans-Serif" font-size="10.00">ModuleTreeContext</text>
</a>
</g>
</g>
<!-- Node0&#45;&gt;Node27 -->
<g id="edge27" class="edge">
<title>Node0&#45;&gt;Node27</title>
<path fill="none" stroke="#63b8ff" d="M57.11,-729.43C63.6,-688.27 84.35,-594.14 143,-546.5 153.45,-538.01 166.75,-533.03 179.94,-530.17"/>
<polygon fill="#63b8ff" stroke="#63b8ff" points="53.62,-729.16 55.65,-739.56 60.55,-730.16 53.62,-729.16"/>
</g>
<!-- Node28 -->
<g id="node29" class="node">
<title>Node28</title>
<g id="a_node29"><a xlink:href="de/d00/class_namespace_context.html" target="_top" xlink:title=" ">
<polygon fill="white" stroke="#666666" points="292,-500 179,-500 179,-481 292,-481 292,-500"/>
<text text-anchor="middle" x="235.5" y="-488" font-family="Helvetica,sans-Serif" font-size="10.00">NamespaceContext</text>
</a>
</g>
</g>
<!-- Node0&#45;&gt;Node28 -->
<g id="edge28" class="edge">
<title>Node0&#45;&gt;Node28</title>
<path fill="none" stroke="#63b8ff" d="M55.59,-729.71C59.24,-683.5 75.07,-568.02 143,-509.5 152.96,-500.92 165.77,-495.87 178.64,-492.97"/>
<polygon fill="#63b8ff" stroke="#63b8ff" points="52.08,-729.67 54.89,-739.89 59.06,-730.15 52.08,-729.67"/>
</g>
<!-- Node29 -->
<g id="node30" class="node">
<title>Node29</title>
<g id="a_node30"><a xlink:href="d2/d4a/class_namespace_members_index_context.html" target="_top" xlink:title=" ">
<polygon fill="white" stroke="#666666" points="328,-463 143,-463 143,-444 328,-444 328,-463"/>
<text text-anchor="middle" x="235.5" y="-451" font-family="Helvetica,sans-Serif" font-size="10.00">NamespaceMembersIndexContext</text>
</a>
</g>
</g>
<!-- Node0&#45;&gt;Node29 -->
<g id="edge29" class="edge">
<title>Node0&#45;&gt;Node29</title>
<path fill="none" stroke="#63b8ff" d="M54.47,-729.84C55.51,-678.95 65.75,-542.07 143,-472.5 147.22,-468.7 152,-465.58 157.1,-463.04"/>
<polygon fill="#63b8ff" stroke="#63b8ff" points="50.97,-729.8 54.36,-739.84 57.97,-729.88 50.97,-729.8"/>
</g>
<!-- Node30 -->
<g id="node31" class="node">
<title>Node30</title>
<g id="a_node31"><a xlink:href="d8/dd0/class_namespace_tree_context.html" target="_top" xlink:title=" ">
<polygon fill="white" stroke="#666666" points="302,-426 169,-426 169,-407 302,-407 302,-426"/>
<text text-anchor="middle" x="235.5" y="-414" font-family="Helvetica,sans-Serif" font-size="10.00">NamespaceTreeContext</text>
</a>
</g>
</g>
<!-- Node0&#45;&gt;Node30 -->
<g id="edge30" class="edge">
<title>Node0&#45;&gt;Node30</title>
<path fill="none" stroke="#63b8ff" d="M57.39,-729.58C66.84,-667.1 98.83,-476.68 143,-435.5 150.24,-428.75 159.22,-424.14 168.71,-421.03"/>
<polygon fill="#63b8ff" stroke="#63b8ff" points="53.89,-729.29 55.89,-739.69 60.82,-730.32 53.89,-729.29"/>
</g>
<!-- Node31 -->
<g id="node32" class="node">
<title>Node31</title>
<g id="a_node32"><a xlink:href="df/d82/class_nav_path_elem_context.html" target="_top" xlink:title=" ">
<polygon fill="white" stroke="#666666" points="295.5,-389 175.5,-389 175.5,-370 295.5,-370 295.5,-389"/>
<text text-anchor="middle" x="235.5" y="-377" font-family="Helvetica,sans-Serif" font-size="10.00">NavPathElemContext</text>
</a>
</g>
</g>
<!-- Node0&#45;&gt;Node31 -->
<g id="edge31" class="edge">
<title>Node0&#45;&gt;Node31</title>
<path fill="none" stroke="#63b8ff" d="M56.72,-729.91C64.68,-663.07 94,-445.47 143,-398.5 151.78,-390.08 163.27,-384.96 175.13,-381.94"/>
<polygon fill="#63b8ff" stroke="#63b8ff" points="53.23,-729.6 55.55,-739.94 60.18,-730.41 53.23,-729.6"/>
</g>
<!-- Node32 -->
<g id="node33" class="node">
<title>Node32</title>
<g id="a_node33"><a xlink:href="db/dc9/class_nesting_node_context.html" target="_top" xlink:title=" ">
<polygon fill="white" stroke="#666666" points="294.5,-352 176.5,-352 176.5,-333 294.5,-333 294.5,-352"/>
<text text-anchor="middle" x="235.5" y="-340" font-family="Helvetica,sans-Serif" font-size="10.00">NestingNodeContext</text>
</a>
</g>
</g>
<!-- Node0&#45;&gt;Node32 -->
<g id="edge32" class="edge">
<title>Node0&#45;&gt;Node32</title>
<path fill="none" stroke="#63b8ff" d="M56.27,-729.28C63.01,-657.17 89.38,-414.08 143,-361.5 152.04,-352.64 164.06,-347.41 176.41,-344.43"/>
<polygon fill="#63b8ff" stroke="#63b8ff" points="52.75,-729.4 55.33,-739.67 59.72,-730.03 52.75,-729.4"/>
</g>
<!-- Node33 -->
<g id="node34" class="node">
<title>Node33</title>
<g id="a_node34"><a xlink:href="db/dc8/class_page_context.html" target="_top" xlink:title=" ">
<polygon fill="white" stroke="#666666" points="274.5,-315 196.5,-315 196.5,-296 274.5,-296 274.5,-315"/>
<text text-anchor="middle" x="235.5" y="-303" font-family="Helvetica,sans-Serif" font-size="10.00">PageContext</text>
</a>
</g>
</g>
<!-- Node0&#45;&gt;Node33 -->
<g id="edge33" class="edge">
<title>Node0&#45;&gt;Node33</title>
<path fill="none" stroke="#63b8ff" d="M55.8,-729.84C61.21,-654.17 84.44,-383.03 143,-324.5 156.77,-310.74 177.74,-305.7 196.13,-304.24"/>
<polygon fill="#63b8ff" stroke="#63b8ff" points="52.3,-729.68 55.11,-739.89 59.29,-730.16 52.3,-729.68"/>
</g>
<!-- Node34 -->
<g id="node35" class="node">
<title>Node34</title>
<g id="a_node35"><a xlink:href="d7/dea/class_page_tree_context.html" target="_top" xlink:title=" ">
<polygon fill="white" stroke="#666666" points="284.5,-278 186.5,-278 186.5,-259 284.5,-259 284.5,-278"/>
<text text-anchor="middle" x="235.5" y="-266" font-family="Helvetica,sans-Serif" font-size="10.00">PageTreeContext</text>
</a>
</g>
</g>
<!-- Node0&#45;&gt;Node34 -->
<g id="edge34" class="edge">
<title>Node0&#45;&gt;Node34</title>
<path fill="none" stroke="#63b8ff" d="M55.45,-729.7C59.71,-649.73 79.65,-351.84 143,-287.5 154.27,-276.05 170.51,-270.62 186.18,-268.26"/>
<polygon fill="#63b8ff" stroke="#63b8ff" points="51.95,-729.69 54.94,-739.86 58.94,-730.05 51.95,-729.69"/>
</g>
<!-- Node35 -->
<g id="node36" class="node">
<title>Node35</title>
<g id="a_node36"><a xlink:href="da/ddb/class_search_index_context.html" target="_top" xlink:title=" ">
<polygon fill="white" stroke="#666666" points="293,-241 178,-241 178,-222 293,-222 293,-241"/>
<text text-anchor="middle" x="235.5" y="-229" font-family="Helvetica,sans-Serif" font-size="10.00">SearchIndexContext</text>
</a>
</g>
</g>
<!-- Node0&#45;&gt;Node35 -->
<g id="edge35" class="edge">
<title>Node0&#45;&gt;Node35</title>
<path fill="none" stroke="#63b8ff" d="M55.15,-729.75C58.29,-645.92 74.79,-320.73 143,-250.5 152.27,-240.96 164.99,-235.58 178,-232.67"/>
<polygon fill="#63b8ff" stroke="#63b8ff" points="51.64,-729.8 54.79,-739.92 58.64,-730.05 51.64,-729.8"/>
</g>
<!-- Node36 -->
<g id="node37" class="node">
<title>Node36</title>
<g id="a_node37"><a xlink:href="d0/d4b/class_symbol_context.html" target="_top" xlink:title=" ">
<polygon fill="white" stroke="#666666" points="281.5,-204 189.5,-204 189.5,-185 281.5,-185 281.5,-204"/>
<text text-anchor="middle" x="235.5" y="-192" font-family="Helvetica,sans-Serif" font-size="10.00">SymbolContext</text>
</a>
</g>
</g>
<!-- Node0&#45;&gt;Node36 -->
<g id="edge36" class="edge">
<title>Node0&#45;&gt;Node36</title>
<path fill="none" stroke="#63b8ff" d="M54.89,-729.41C57.02,-641.25 70.03,-289.53 143,-213.5 154.91,-201.09 172.64,-195.7 189.34,-193.65"/>
<polygon fill="#63b8ff" stroke="#63b8ff" points="51.38,-729.57 54.66,-739.65 58.38,-729.73 51.38,-729.57"/>
</g>
<!-- Node37 -->
<g id="node38" class="node">
<title>Node37</title>
<g id="a_node38"><a xlink:href="d7/d10/class_symbol_group_context.html" target="_top" xlink:title=" ">
<polygon fill="white" stroke="#666666" points="296,-167 175,-167 175,-148 296,-148 296,-167"/>
<text text-anchor="middle" x="235.5" y="-155" font-family="Helvetica,sans-Serif" font-size="10.00">SymbolGroupContext</text>
</a>
</g>
</g>
<!-- Node0&#45;&gt;Node37 -->
<g id="edge37" class="edge">
<title>Node0&#45;&gt;Node37</title>
<path fill="none" stroke="#63b8ff" d="M54.65,-729.8C55.76,-638.62 65.06,-258.57 143,-176.5 151.49,-167.56 163.01,-162.25 175,-159.21"/>
<polygon fill="#63b8ff" stroke="#63b8ff" points="51.15,-729.83 54.55,-739.86 58.15,-729.9 51.15,-729.83"/>
</g>
<!-- Node38 -->
<g id="node39" class="node">
<title>Node38</title>
<g id="a_node39"><a xlink:href="d3/db8/class_symbol_index_context.html" target="_top" xlink:title=" ">
<polygon fill="white" stroke="#666666" points="295,-130 176,-130 176,-111 295,-111 295,-130"/>
<text text-anchor="middle" x="235.5" y="-118" font-family="Helvetica,sans-Serif" font-size="10.00">SymbolIndexContext</text>
</a>
</g>
</g>
<!-- Node0&#45;&gt;Node38 -->
<g id="edge38" class="edge">
<title>Node0&#45;&gt;Node38</title>
<path fill="none" stroke="#63b8ff" d="M54.45,-729.44C54.62,-634.07 60.28,-227.4 143,-139.5 151.67,-130.28 163.56,-124.92 175.89,-121.92"/>
<polygon fill="#63b8ff" stroke="#63b8ff" points="50.95,-729.71 54.45,-739.71 57.95,-729.71 50.95,-729.71"/>
</g>
<!-- Node39 -->
<g id="node40" class="node">
<title>Node39</title>
<g id="a_node40"><a xlink:href="d6/d73/class_template_immutable_struct.html" target="_top" xlink:title="Default implementation of an immutable context value of type struct.">
<polygon fill="white" stroke="#666666" points="307,-93 164,-93 164,-74 307,-74 307,-93"/>
<text text-anchor="middle" x="235.5" y="-81" font-family="Helvetica,sans-Serif" font-size="10.00">TemplateImmutableStruct</text>
</a>
</g>
</g>
<!-- Node0&#45;&gt;Node39 -->
<g id="edge39" class="edge">
<title>Node0&#45;&gt;Node39</title>
<path fill="none" stroke="#63b8ff" d="M54.26,-729.48C53.53,-630.73 55.38,-196.37 143,-102.5 148.76,-96.33 155.95,-91.89 163.76,-88.72"/>
<polygon fill="#63b8ff" stroke="#63b8ff" points="50.77,-729.63 54.36,-739.6 57.77,-729.56 50.77,-729.63"/>
</g>
<!-- Node40 -->
<g id="node41" class="node">
<title>Node40</title>
<g id="a_node41"><a xlink:href="d8/d4b/class_template_struct.html" target="_top" xlink:title="Default implementation of a context value of type struct.">
<polygon fill="white" stroke="#666666" points="280.5,-56 190.5,-56 190.5,-37 280.5,-37 280.5,-56"/>
<text text-anchor="middle" x="235.5" y="-44" font-family="Helvetica,sans-Serif" font-size="10.00">TemplateStruct</text>
</a>
</g>
</g>
<!-- Node0&#45;&gt;Node40 -->
<g id="edge40" class="edge">
<title>Node0&#45;&gt;Node40</title>
<path fill="none" stroke="#63b8ff" d="M54.1,-729.32C52.49,-626.88 50.53,-165.29 143,-65.5 154.91,-52.65 173.06,-47.26 190.06,-45.32"/>
<polygon fill="#63b8ff" stroke="#63b8ff" points="50.6,-729.59 54.28,-739.53 57.6,-729.47 50.6,-729.59"/>
</g>
<!-- Node41 -->
<g id="node42" class="node">
<title>Node41</title>
<g id="a_node42"><a xlink:href="d2/dbb/class_translate_context.html" target="_top" xlink:title=" ">
<polygon fill="white" stroke="#666666" points="285,-19 186,-19 186,0 285,0 285,-19"/>
<text text-anchor="middle" x="235.5" y="-7" font-family="Helvetica,sans-Serif" font-size="10.00">TranslateContext</text>
</a>
</g>
</g>
<!-- Node0&#45;&gt;Node41 -->
<g id="edge41" class="edge">
<title>Node0&#45;&gt;Node41</title>
<path fill="none" stroke="#63b8ff" d="M55.56,-729.81C61.69,-619.56 93.97,-81.76 143,-28.5 153.88,-16.68 170.03,-11.16 185.74,-8.84"/>
<polygon fill="#63b8ff" stroke="#63b8ff" points="52.06,-729.69 55.01,-739.87 59.05,-730.08 52.06,-729.69"/>
</g>
</g>
</svg>
