<?xml version="1.0" encoding="UTF-8" standalone="no"?>
<!DOCTYPE svg PUBLIC "-//W3C//DTD SVG 1.1//EN"
 "http://www.w3.org/Graphics/SVG/1.1/DTD/svg11.dtd">
<!-- Generated by graphviz version 2.43.0 (0)
 -->
<!-- Title: Graphical Class Hierarchy Pages: 1 -->
<svg width="222pt" height="76pt"
 viewBox="0.00 0.00 222.00 75.50" xmlns="http://www.w3.org/2000/svg" xmlns:xlink="http://www.w3.org/1999/xlink">
<g id="graph0" class="graph" transform="scale(1 1) rotate(0) translate(4 71.5)">
<title>Graphical Class Hierarchy</title>
<!-- Node0 -->
<g id="node1" class="node">
<title>Node0</title>
<g id="a_node1"><a xlink:title=" ">
<polygon fill="#e0e0e0" stroke="#999999" points="41,-40 0,-40 0,-21 41,-21 41,-40"/>
<text text-anchor="middle" x="20.5" y="-28" font-family="Helvetica,sans-Serif" font-size="10.00">Base</text>
</a>
</g>
</g>
<!-- Node1 -->
<g id="node2" class="node">
<title>Node1</title>
<g id="a_node2"><a xlink:href="d8/d83/class_definition_alias_mixin.html" target="_top" xlink:title=" ">
<polygon fill="white" stroke="#666666" points="203,-67.5 88,-67.5 88,-37.5 203,-37.5 203,-67.5"/>
<text text-anchor="start" x="96" y="-55.5" font-family="Helvetica,sans-Serif" font-size="10.00">DefinitionAliasMixin</text>
<text text-anchor="middle" x="145.5" y="-44.5" font-family="Helvetica,sans-Serif" font-size="10.00">&lt; Base &gt;</text>
</a>
</g>
</g>
<!-- Node0&#45;&gt;Node1 -->
<g id="edge1" class="edge">
<title>Node0&#45;&gt;Node1</title>
<path fill="none" stroke="#63b8ff" d="M51.21,-35.81C62.26,-37.79 75.2,-40.11 87.87,-42.37"/>
<polygon fill="#63b8ff" stroke="#63b8ff" points="51.72,-32.35 41.26,-34.03 50.49,-39.24 51.72,-32.35"/>
</g>
<!-- Node2 -->
<g id="node3" class="node">
<title>Node2</title>
<g id="a_node3"><a xlink:href="dd/d10/class_definition_mixin.html" target="_top" xlink:title=" ">
<polygon fill="white" stroke="#666666" points="214,-19 77,-19 77,0 214,0 214,-19"/>
<text text-anchor="middle" x="145.5" y="-7" font-family="Helvetica,sans-Serif" font-size="10.00">DefinitionMixin&lt; Base &gt;</text>
</a>
</g>
</g>
<!-- Node0&#45;&gt;Node2 -->
<g id="edge2" class="edge">
<title>Node0&#45;&gt;Node2</title>
<path fill="none" stroke="#63b8ff" d="M51.38,-25.4C62.63,-23.48 75.82,-21.23 88.67,-19.03"/>
<polygon fill="#63b8ff" stroke="#63b8ff" points="50.53,-21.99 41.26,-27.13 51.71,-28.89 50.53,-21.99"/>
</g>
</g>
</svg>
