<?xml version="1.0" encoding="UTF-8" standalone="no"?>
<!DOCTYPE svg PUBLIC "-//W3C//DTD SVG 1.1//EN"
 "http://www.w3.org/Graphics/SVG/1.1/DTD/svg11.dtd">
<!-- Generated by graphviz version 2.43.0 (0)
 -->
<!-- Title: DocIndexEntry Pages: 1 -->
<svg width="1305pt" height="490pt"
 viewBox="0.00 0.00 1305.00 489.50" xmlns="http://www.w3.org/2000/svg" xmlns:xlink="http://www.w3.org/1999/xlink">
<g id="graph0" class="graph" transform="scale(1 1) rotate(0) translate(4 485.5)">
<title>DocIndexEntry</title>
<!-- Node1 -->
<g id="node1" class="node">
<title>Node1</title>
<g id="a_node1"><a xlink:title="Node representing an entry in the index.">
<polygon fill="#999999" stroke="#666666" points="1297,-411 1209,-411 1209,-392 1297,-392 1297,-411"/>
<text text-anchor="middle" x="1253" y="-399" font-family="Helvetica,sans-Serif" font-size="10.00">DocIndexEntry</text>
</a>
</g>
</g>
<!-- Node2 -->
<g id="node2" class="node">
<title>Node2</title>
<g id="a_node2"><a xlink:href="../../d9/d0e/class_doc_node.html" target="_top" xlink:title="Abstract node interface with type information.">
<polygon fill="white" stroke="#666666" points="1172,-335 1111,-335 1111,-316 1172,-316 1172,-335"/>
<text text-anchor="middle" x="1141.5" y="-323" font-family="Helvetica,sans-Serif" font-size="10.00">DocNode</text>
</a>
</g>
</g>
<!-- Node2&#45;&gt;Node1 -->
<g id="edge1" class="edge">
<title>Node2&#45;&gt;Node1</title>
<path fill="none" stroke="#63b8ff" d="M1165.28,-340.89C1173.42,-346.41 1182.64,-352.71 1191,-358.5 1207.4,-369.86 1226.15,-383.11 1238.48,-391.87"/>
<polygon fill="#63b8ff" stroke="#63b8ff" points="1167.22,-337.97 1156.97,-335.26 1163.29,-343.76 1167.22,-337.97"/>
</g>
<!-- Node3 -->
<g id="node3" class="node">
<title>Node3</title>
<g id="a_node3"><a xlink:href="../../da/d02/class_doc_parser.html" target="_top" xlink:title=" ">
<polygon fill="white" stroke="#666666" points="1026,-307 961,-307 961,-288 1026,-288 1026,-307"/>
<text text-anchor="middle" x="993.5" y="-295" font-family="Helvetica,sans-Serif" font-size="10.00">DocParser</text>
</a>
</g>
</g>
<!-- Node3&#45;&gt;Node2 -->
<g id="edge2" class="edge">
<title>Node3&#45;&gt;Node2</title>
<path fill="none" stroke="#9a32cd" stroke-dasharray="5,2" d="M1036.03,-305.47C1059.91,-310.04 1089.34,-315.69 1110.87,-319.82"/>
<polygon fill="#9a32cd" stroke="#9a32cd" points="1036.66,-302.02 1026.18,-303.58 1035.34,-308.9 1036.66,-302.02"/>
<text text-anchor="middle" x="1068.5" y="-318.5" font-family="Helvetica,sans-Serif" font-size="10.00" fill="grey"> m_parser</text>
</g>
<!-- Node4 -->
<g id="node4" class="node">
<title>Node4</title>
<g id="a_node4"><a xlink:href="../../de/dad/class_i_doc_parser.html" target="_top" xlink:title="opaque parser interface">
<polygon fill="white" stroke="#666666" points="848,-270 780,-270 780,-251 848,-251 848,-270"/>
<text text-anchor="middle" x="814" y="-258" font-family="Helvetica,sans-Serif" font-size="10.00">IDocParser</text>
</a>
</g>
</g>
<!-- Node4&#45;&gt;Node3 -->
<g id="edge3" class="edge">
<title>Node4&#45;&gt;Node3</title>
<path fill="none" stroke="#63b8ff" d="M858.26,-269.52C889.93,-276.12 932.18,-284.93 960.76,-290.88"/>
<polygon fill="#63b8ff" stroke="#63b8ff" points="858.89,-266.07 848.39,-267.46 857.46,-272.93 858.89,-266.07"/>
</g>
<!-- Node5 -->
<g id="node5" class="node">
<title>Node5</title>
<g id="a_node5"><a xlink:href="../../d8/d7d/struct_doc_parser_context.html" target="_top" xlink:title="Parser&#39;s context to store all global variables.">
<polygon fill="white" stroke="#666666" points="866,-233 762,-233 762,-214 866,-214 866,-233"/>
<text text-anchor="middle" x="814" y="-221" font-family="Helvetica,sans-Serif" font-size="10.00">DocParserContext</text>
</a>
</g>
</g>
<!-- Node5&#45;&gt;Node3 -->
<g id="edge4" class="edge">
<title>Node5&#45;&gt;Node3</title>
<path fill="none" stroke="#9a32cd" stroke-dasharray="5,2" d="M872.83,-235.5C895.41,-241.38 921.08,-249.6 943,-260.5 957.6,-267.76 972.31,-279.45 981.86,-287.74"/>
<polygon fill="#9a32cd" stroke="#9a32cd" points="873.58,-232.08 863.03,-233.04 871.88,-238.87 873.58,-232.08"/>
<text text-anchor="middle" x="913.5" y="-263.5" font-family="Helvetica,sans-Serif" font-size="10.00" fill="grey"> context</text>
</g>
<!-- Node6 -->
<g id="node6" class="node">
<title>Node6</title>
<g id="a_node6"><a xlink:href="../../d5/dcc/class_definition.html" target="_top" xlink:title="The common base class of all entity definitions found in the sources.">
<polygon fill="white" stroke="#666666" points="294.5,-442 230.5,-442 230.5,-423 294.5,-423 294.5,-442"/>
<text text-anchor="middle" x="262.5" y="-430" font-family="Helvetica,sans-Serif" font-size="10.00">Definition</text>
</a>
</g>
</g>
<!-- Node6&#45;&gt;Node1 -->
<g id="edge20" class="edge">
<title>Node6&#45;&gt;Node1</title>
<path fill="none" stroke="#9a32cd" stroke-dasharray="5,2" d="M304.52,-440.54C365.08,-451.7 482.06,-470.5 582.5,-470.5 582.5,-470.5 582.5,-470.5 1142.5,-470.5 1186.54,-470.5 1227.33,-430.05 1244.03,-411.09"/>
<polygon fill="#9a32cd" stroke="#9a32cd" points="305.07,-437.08 294.6,-438.69 303.78,-443.97 305.07,-437.08"/>
<text text-anchor="middle" x="913.5" y="-473.5" font-family="Helvetica,sans-Serif" font-size="10.00" fill="grey"> m_scope</text>
</g>
<!-- Node6&#45;&gt;Node5 -->
<g id="edge5" class="edge">
<title>Node6&#45;&gt;Node5</title>
<path fill="none" stroke="#9a32cd" stroke-dasharray="5,2" d="M304.6,-423.29C375.57,-406.61 524.87,-368.09 643,-314.5 699.51,-288.87 705.99,-268.2 762,-241.5 768.53,-238.39 775.74,-235.52 782.64,-233.03"/>
<polygon fill="#9a32cd" stroke="#9a32cd" points="303.65,-419.92 294.7,-425.59 305.24,-426.73 303.65,-419.92"/>
<text text-anchor="middle" x="583.5" y="-363.5" font-family="Helvetica,sans-Serif" font-size="10.00" fill="grey"> scope</text>
</g>
<!-- Node12 -->
<g id="node12" class="node">
<title>Node12</title>
<g id="a_node12"><a xlink:href="../../da/d09/class_member_def.html" target="_top" xlink:title="A model of a class/file/namespace member symbol.">
<polygon fill="white" stroke="#666666" points="620.5,-442 546.5,-442 546.5,-423 620.5,-423 620.5,-442"/>
<text text-anchor="middle" x="583.5" y="-430" font-family="Helvetica,sans-Serif" font-size="10.00">MemberDef</text>
</a>
</g>
</g>
<!-- Node6&#45;&gt;Node12 -->
<g id="edge12" class="edge">
<title>Node6&#45;&gt;Node12</title>
<path fill="none" stroke="#63b8ff" d="M305.02,-432.5C368.02,-432.5 486.7,-432.5 546.35,-432.5"/>
<polygon fill="#63b8ff" stroke="#63b8ff" points="304.67,-429 294.67,-432.5 304.67,-436 304.67,-429"/>
</g>
<!-- Node7 -->
<g id="node7" class="node">
<title>Node7</title>
<g id="a_node7"><a xlink:href="../../d9/d45/class_q_c_string.html" target="_top" xlink:title="This is an alternative implementation of QCString.">
<polygon fill="white" stroke="#666666" points="292,-252 233,-252 233,-233 292,-233 292,-252"/>
<text text-anchor="middle" x="262.5" y="-240" font-family="Helvetica,sans-Serif" font-size="10.00">QCString</text>
</a>
</g>
</g>
<!-- Node7&#45;&gt;Node1 -->
<g id="edge19" class="edge">
<title>Node7&#45;&gt;Node1</title>
<path fill="none" stroke="#9a32cd" stroke-dasharray="5,2" d="M296.11,-255.84C380.2,-289.01 611.88,-372.5 813,-372.5 813,-372.5 813,-372.5 1142.5,-372.5 1173.38,-372.5 1207.56,-383.41 1229.39,-391.84"/>
<polygon fill="#9a32cd" stroke="#9a32cd" points="297.19,-252.51 286.6,-252.06 294.6,-259.01 297.19,-252.51"/>
<text text-anchor="middle" x="913.5" y="-375.5" font-family="Helvetica,sans-Serif" font-size="10.00" fill="grey"> m_entry</text>
</g>
<!-- Node7&#45;&gt;Node5 -->
<g id="edge6" class="edge">
<title>Node7&#45;&gt;Node5</title>
<path fill="none" stroke="#9a32cd" stroke-dasharray="5,2" d="M302.53,-241.15C399.78,-237.79 652.83,-229.04 761.83,-225.27"/>
<polygon fill="#9a32cd" stroke="#9a32cd" points="302.14,-237.66 292.27,-241.51 302.38,-244.66 302.14,-237.66"/>
<text text-anchor="middle" x="583.5" y="-302.5" font-family="Helvetica,sans-Serif" font-size="10.00" fill="grey"> context</text>
<text text-anchor="middle" x="583.5" y="-291.5" font-family="Helvetica,sans-Serif" font-size="10.00" fill="grey">exampleName</text>
<text text-anchor="middle" x="583.5" y="-280.5" font-family="Helvetica,sans-Serif" font-size="10.00" fill="grey">fileName</text>
<text text-anchor="middle" x="583.5" y="-269.5" font-family="Helvetica,sans-Serif" font-size="10.00" fill="grey">includeFileName</text>
<text text-anchor="middle" x="583.5" y="-258.5" font-family="Helvetica,sans-Serif" font-size="10.00" fill="grey">includeFileText</text>
<text text-anchor="middle" x="583.5" y="-247.5" font-family="Helvetica,sans-Serif" font-size="10.00" fill="grey">relPath</text>
<text text-anchor="middle" x="583.5" y="-236.5" font-family="Helvetica,sans-Serif" font-size="10.00" fill="grey">searchUrl</text>
</g>
<!-- Node13 -->
<g id="node13" class="node">
<title>Node13</title>
<g id="a_node13"><a xlink:href="../../d6/df4/struct_token_info.html" target="_top" xlink:title="Data associated with a token used by the comment block parser.">
<polygon fill="white" stroke="#666666" points="615,-149 552,-149 552,-130 615,-130 615,-149"/>
<text text-anchor="middle" x="583.5" y="-137" font-family="Helvetica,sans-Serif" font-size="10.00">TokenInfo</text>
</a>
</g>
</g>
<!-- Node7&#45;&gt;Node13 -->
<g id="edge14" class="edge">
<title>Node7&#45;&gt;Node13</title>
<path fill="none" stroke="#9a32cd" stroke-dasharray="5,2" d="M274.84,-224.05C291.09,-199.59 323.55,-157.54 364,-140.5 426.4,-114.21 508.01,-124.1 551.71,-132.49"/>
<polygon fill="#9a32cd" stroke="#9a32cd" points="271.71,-222.46 269.25,-232.76 277.59,-226.24 271.71,-222.46"/>
<text text-anchor="middle" x="435" y="-220.5" font-family="Helvetica,sans-Serif" font-size="10.00" fill="grey"> attribsStr</text>
<text text-anchor="middle" x="435" y="-209.5" font-family="Helvetica,sans-Serif" font-size="10.00" fill="grey">chars</text>
<text text-anchor="middle" x="435" y="-198.5" font-family="Helvetica,sans-Serif" font-size="10.00" fill="grey">name</text>
<text text-anchor="middle" x="435" y="-187.5" font-family="Helvetica,sans-Serif" font-size="10.00" fill="grey">sectionId</text>
<text text-anchor="middle" x="435" y="-176.5" font-family="Helvetica,sans-Serif" font-size="10.00" fill="grey">simpleSectName</text>
<text text-anchor="middle" x="435" y="-165.5" font-family="Helvetica,sans-Serif" font-size="10.00" fill="grey">simpleSectText</text>
<text text-anchor="middle" x="435" y="-154.5" font-family="Helvetica,sans-Serif" font-size="10.00" fill="grey">text</text>
<text text-anchor="middle" x="435" y="-143.5" font-family="Helvetica,sans-Serif" font-size="10.00" fill="grey">verb</text>
</g>
<!-- Node8 -->
<g id="node8" class="node">
<title>Node8</title>
<g id="a_node8"><a xlink:href="../../d9/d82/class_iterable_stack.html" target="_top" xlink:title=" ">
<polygon fill="white" stroke="#666666" points="643,-83.5 524,-83.5 524,-53.5 643,-53.5 643,-83.5"/>
<text text-anchor="start" x="532" y="-71.5" font-family="Helvetica,sans-Serif" font-size="10.00">IterableStack&lt; const</text>
<text text-anchor="middle" x="583.5" y="-60.5" font-family="Helvetica,sans-Serif" font-size="10.00"> DocNodeVariant * &gt;</text>
</a>
</g>
</g>
<!-- Node8&#45;&gt;Node5 -->
<g id="edge7" class="edge">
<title>Node8&#45;&gt;Node5</title>
<path fill="none" stroke="#9a32cd" stroke-dasharray="5,2" d="M638.23,-87.19C670.73,-100.04 711.95,-119.17 744,-143.5 771.46,-164.35 795.8,-197.72 806.79,-213.98"/>
<polygon fill="#9a32cd" stroke="#9a32cd" points="639.46,-83.92 628.87,-83.57 636.94,-90.45 639.46,-83.92"/>
<text text-anchor="middle" x="702.5" y="-157.5" font-family="Helvetica,sans-Serif" font-size="10.00" fill="grey"> initialStyleStack</text>
<text text-anchor="middle" x="702.5" y="-146.5" font-family="Helvetica,sans-Serif" font-size="10.00" fill="grey">styleStack</text>
</g>
<!-- Node9 -->
<g id="node9" class="node">
<title>Node9</title>
<g id="a_node9"><a xlink:title=" ">
<polygon fill="white" stroke="#666666" points="346,-41 179,-41 179,0 346,0 346,-41"/>
<text text-anchor="start" x="187" y="-29" font-family="Helvetica,sans-Serif" font-size="10.00">std::stack&lt; const DocNode</text>
<text text-anchor="start" x="187" y="-18" font-family="Helvetica,sans-Serif" font-size="10.00">Variant * , std::deque</text>
<text text-anchor="middle" x="262.5" y="-7" font-family="Helvetica,sans-Serif" font-size="10.00">&lt;const DocNodeVariant * &gt; &#160;&gt;</text>
</a>
</g>
</g>
<!-- Node9&#45;&gt;Node8 -->
<g id="edge8" class="edge">
<title>Node9&#45;&gt;Node8</title>
<path fill="none" stroke="#63b8ff" d="M356.03,-34.42C410.21,-42.57 476.98,-52.62 523.94,-59.69"/>
<polygon fill="#63b8ff" stroke="#63b8ff" points="356.47,-30.95 346.07,-32.92 355.43,-37.87 356.47,-30.95"/>
</g>
<!-- Node10 -->
<g id="node10" class="node">
<title>Node10</title>
<g id="a_node10"><a xlink:href="../../d9/d82/class_iterable_stack.html" target="_top" xlink:title=" ">
<polygon fill="white" stroke="#666666" points="344,-78 181,-78 181,-59 344,-59 344,-78"/>
<text text-anchor="middle" x="262.5" y="-66" font-family="Helvetica,sans-Serif" font-size="10.00">IterableStack&lt; T, Container &gt;</text>
</a>
</g>
</g>
<!-- Node10&#45;&gt;Node8 -->
<g id="edge9" class="edge">
<title>Node10&#45;&gt;Node8</title>
<path fill="none" stroke="orange" stroke-dasharray="5,2" d="M354.41,-68.5C408.83,-68.5 476.41,-68.5 523.83,-68.5"/>
<polygon fill="orange" stroke="orange" points="354.41,-65 344.41,-68.5 354.41,-72 354.41,-65"/>
<text text-anchor="middle" x="435" y="-71.5" font-family="Helvetica,sans-Serif" font-size="10.00" fill="grey"> &lt; const DocNodeVariant * &gt;</text>
</g>
<!-- Node11 -->
<g id="node11" class="node">
<title>Node11</title>
<g id="a_node11"><a xlink:title=" ">
<polygon fill="white" stroke="#666666" points="122,-82.5 20,-82.5 20,-52.5 122,-52.5 122,-82.5"/>
<text text-anchor="start" x="28" y="-70.5" font-family="Helvetica,sans-Serif" font-size="10.00">std::stack&lt; T, std</text>
<text text-anchor="middle" x="71" y="-59.5" font-family="Helvetica,sans-Serif" font-size="10.00">::deque&lt; T &gt; &gt;</text>
</a>
</g>
</g>
<!-- Node11&#45;&gt;Node10 -->
<g id="edge10" class="edge">
<title>Node11&#45;&gt;Node10</title>
<path fill="none" stroke="#63b8ff" d="M132.67,-67.82C148.02,-67.9 164.74,-67.99 180.91,-68.07"/>
<polygon fill="#63b8ff" stroke="#63b8ff" points="132.3,-64.32 122.29,-67.77 132.27,-71.32 132.3,-64.32"/>
</g>
<!-- Node12&#45;&gt;Node1 -->
<g id="edge21" class="edge">
<title>Node12&#45;&gt;Node1</title>
<path fill="none" stroke="#9a32cd" stroke-dasharray="5,2" d="M630.8,-432.18C676.96,-431.89 749.88,-431.5 813,-431.5 813,-431.5 813,-431.5 1142.5,-431.5 1173.84,-431.5 1208.49,-419.93 1230.25,-411.16"/>
<polygon fill="#9a32cd" stroke="#9a32cd" points="630.49,-428.68 620.51,-432.25 630.54,-435.68 630.49,-428.68"/>
<text text-anchor="middle" x="993.5" y="-434.5" font-family="Helvetica,sans-Serif" font-size="10.00" fill="grey"> m_member</text>
</g>
<!-- Node12&#45;&gt;Node5 -->
<g id="edge11" class="edge">
<title>Node12&#45;&gt;Node5</title>
<path fill="none" stroke="#9a32cd" stroke-dasharray="5,2" d="M619.02,-419.21C663.47,-401.79 736.01,-372.19 744,-361.5 776.3,-318.31 727.66,-283.09 762,-241.5 764.75,-238.17 768.16,-235.45 771.9,-233.24"/>
<polygon fill="#9a32cd" stroke="#9a32cd" points="617.5,-416.05 609.46,-422.94 620.04,-422.57 617.5,-416.05"/>
<text text-anchor="middle" x="702.5" y="-403.5" font-family="Helvetica,sans-Serif" font-size="10.00" fill="grey"> memberDef</text>
</g>
<!-- Node13&#45;&gt;Node5 -->
<g id="edge13" class="edge">
<title>Node13&#45;&gt;Node5</title>
<path fill="none" stroke="#9a32cd" stroke-dasharray="5,2" d="M620.34,-152.68C666.67,-169.71 746.22,-198.95 787.09,-213.98"/>
<polygon fill="#9a32cd" stroke="#9a32cd" points="621.31,-149.3 610.71,-149.14 618.89,-155.87 621.31,-149.3"/>
<text text-anchor="middle" x="702.5" y="-199.5" font-family="Helvetica,sans-Serif" font-size="10.00" fill="grey"> token</text>
</g>
<!-- Node14 -->
<g id="node14" class="node">
<title>Node14</title>
<g id="a_node14"><a xlink:href="../../db/d4d/class_html_attrib_list.html" target="_top" xlink:title="Class representing a list of HTML attributes.">
<polygon fill="white" stroke="#666666" points="305,-118 220,-118 220,-99 305,-99 305,-118"/>
<text text-anchor="middle" x="262.5" y="-106" font-family="Helvetica,sans-Serif" font-size="10.00">HtmlAttribList</text>
</a>
</g>
</g>
<!-- Node14&#45;&gt;Node13 -->
<g id="edge15" class="edge">
<title>Node14&#45;&gt;Node13</title>
<path fill="none" stroke="#9a32cd" stroke-dasharray="5,2" d="M315.35,-101.82C364.88,-96.91 441.33,-93.15 506,-106.5 527.67,-110.98 550.77,-121.89 565.84,-129.95"/>
<polygon fill="#9a32cd" stroke="#9a32cd" points="314.79,-98.36 305.21,-102.88 315.52,-105.32 314.79,-98.36"/>
<text text-anchor="middle" x="435" y="-109.5" font-family="Helvetica,sans-Serif" font-size="10.00" fill="grey"> attribs</text>
</g>
<!-- Node15 -->
<g id="node15" class="node">
<title>Node15</title>
<g id="a_node15"><a xlink:title=" ">
<polygon fill="white" stroke="#666666" points="142,-120 0,-120 0,-101 142,-101 142,-120"/>
<text text-anchor="middle" x="71" y="-108" font-family="Helvetica,sans-Serif" font-size="10.00">std::vector&lt; HtmlAttrib &gt;</text>
</a>
</g>
</g>
<!-- Node15&#45;&gt;Node14 -->
<g id="edge16" class="edge">
<title>Node15&#45;&gt;Node14</title>
<path fill="none" stroke="#63b8ff" d="M152.25,-109.65C175.51,-109.41 199.96,-109.15 219.82,-108.94"/>
<polygon fill="#63b8ff" stroke="#63b8ff" points="151.99,-106.16 142.02,-109.76 152.06,-113.16 151.99,-106.16"/>
</g>
<!-- Node16 -->
<g id="node16" class="node">
<title>Node16</title>
<g id="a_node16"><a xlink:href="../../d1/d7f/class_doc_tokenizer.html" target="_top" xlink:title=" ">
<polygon fill="white" stroke="#666666" points="854.5,-344 773.5,-344 773.5,-325 854.5,-325 854.5,-344"/>
<text text-anchor="middle" x="814" y="-332" font-family="Helvetica,sans-Serif" font-size="10.00">DocTokenizer</text>
</a>
</g>
</g>
<!-- Node16&#45;&gt;Node3 -->
<g id="edge17" class="edge">
<title>Node16&#45;&gt;Node3</title>
<path fill="none" stroke="#9a32cd" stroke-dasharray="5,2" d="M864.64,-327.44C888.48,-323.67 917.37,-318.56 943,-312.5 949.55,-310.95 956.52,-309.02 963.09,-307.07"/>
<polygon fill="#9a32cd" stroke="#9a32cd" points="864.1,-323.98 854.75,-328.97 865.17,-330.9 864.1,-323.98"/>
<text text-anchor="middle" x="913.5" y="-326.5" font-family="Helvetica,sans-Serif" font-size="10.00" fill="grey"> tokenizer</text>
</g>
<!-- Node17 -->
<g id="node17" class="node">
<title>Node17</title>
<g id="a_node17"><a xlink:href="../../d2/dc1/class_s_i_data_collection.html" target="_top" xlink:title=" ">
<polygon fill="white" stroke="#666666" points="863,-307 765,-307 765,-288 863,-288 863,-307"/>
<text text-anchor="middle" x="814" y="-295" font-family="Helvetica,sans-Serif" font-size="10.00">SIDataCollection</text>
</a>
</g>
</g>
<!-- Node17&#45;&gt;Node3 -->
<g id="edge18" class="edge">
<title>Node17&#45;&gt;Node3</title>
<path fill="none" stroke="#9a32cd" stroke-dasharray="5,2" d="M873.14,-297.5C902.36,-297.5 936.64,-297.5 960.94,-297.5"/>
<polygon fill="#9a32cd" stroke="#9a32cd" points="873.03,-294 863.03,-297.5 873.03,-301 873.03,-294"/>
<text text-anchor="middle" x="913.5" y="-300.5" font-family="Helvetica,sans-Serif" font-size="10.00" fill="grey"> searchData</text>
</g>
</g>
</svg>
