<?xml version="1.0" encoding="UTF-8" standalone="no"?>
<!DOCTYPE svg PUBLIC "-//W3C//DTD SVG 1.1//EN"
 "http://www.w3.org/Graphics/SVG/1.1/DTD/svg11.dtd">
<!-- Generated by graphviz version 2.43.0 (0)
 -->
<!-- Title: Translator Pages: 1 -->
<svg width="3054pt" height="797pt"
 viewBox="0.00 0.00 3053.50 797.00" xmlns="http://www.w3.org/2000/svg" xmlns:xlink="http://www.w3.org/1999/xlink">
<g id="graph0" class="graph" transform="scale(1 1) rotate(0) translate(4 793)">
<title>Translator</title>
<!-- Node1 -->
<g id="node1" class="node">
<title>Node1</title>
<g id="a_node1"><a xlink:title="Abstract base class for all translatable text fragments.">
<polygon fill="#999999" stroke="#666666" points="2822,-789 2757,-789 2757,-770 2822,-770 2822,-789"/>
<text text-anchor="middle" x="2789.5" y="-777" font-family="Helvetica,sans-Serif" font-size="10.00">Translator</text>
</a>
</g>
</g>
<!-- Node2 -->
<g id="node2" class="node">
<title>Node2</title>
<g id="a_node2"><a xlink:href="../../db/d6c/class_translator_adapter_base.html" target="_top" xlink:title="Base of the translator adapter tree.">
<polygon fill="white" stroke="#666666" points="2725,-734 2598,-734 2598,-715 2725,-715 2725,-734"/>
<text text-anchor="middle" x="2661.5" y="-722" font-family="Helvetica,sans-Serif" font-size="10.00">TranslatorAdapterBase</text>
</a>
</g>
</g>
<!-- Node1&#45;&gt;Node2 -->
<g id="edge1" class="edge">
<title>Node1&#45;&gt;Node2</title>
<path fill="none" stroke="#63b8ff" d="M2759.38,-766.03C2735.71,-756.23 2703.35,-742.83 2682.44,-734.17"/>
<polygon fill="#63b8ff" stroke="#63b8ff" points="2758.36,-769.39 2768.93,-769.98 2761.03,-762.93 2758.36,-769.39"/>
</g>
<!-- Node55 -->
<g id="node55" class="node">
<title>Node55</title>
<g id="a_node55"><a xlink:href="../../d9/d1b/class_translator_dutch.html" target="_top" xlink:title=" ">
<polygon fill="white" stroke="#666666" points="2836,-734 2743,-734 2743,-715 2836,-715 2836,-734"/>
<text text-anchor="middle" x="2789.5" y="-722" font-family="Helvetica,sans-Serif" font-size="10.00">TranslatorDutch</text>
</a>
</g>
</g>
<!-- Node1&#45;&gt;Node55 -->
<g id="edge54" class="edge">
<title>Node1&#45;&gt;Node55</title>
<path fill="none" stroke="#63b8ff" d="M2789.5,-759.66C2789.5,-750.93 2789.5,-740.99 2789.5,-734.09"/>
<polygon fill="#63b8ff" stroke="#63b8ff" points="2786,-759.75 2789.5,-769.75 2793,-759.75 2786,-759.75"/>
</g>
<!-- Node56 -->
<g id="node56" class="node">
<title>Node56</title>
<g id="a_node56"><a xlink:href="../../d6/d78/class_translator_english.html" target="_top" xlink:title=" ">
<polygon fill="white" stroke="#666666" points="2954.5,-734 2854.5,-734 2854.5,-715 2954.5,-715 2954.5,-734"/>
<text text-anchor="middle" x="2904.5" y="-722" font-family="Helvetica,sans-Serif" font-size="10.00">TranslatorEnglish</text>
</a>
</g>
</g>
<!-- Node1&#45;&gt;Node56 -->
<g id="edge55" class="edge">
<title>Node1&#45;&gt;Node56</title>
<path fill="none" stroke="#63b8ff" d="M2817.13,-765.77C2838.34,-755.99 2867.06,-742.75 2885.69,-734.17"/>
<polygon fill="#63b8ff" stroke="#63b8ff" points="2815.59,-762.62 2807.98,-769.98 2818.52,-768.98 2815.59,-762.62"/>
</g>
<!-- Node3 -->
<g id="node3" class="node">
<title>Node3</title>
<g id="a_node3"><a xlink:href="../../db/d71/class_translator_adapter__1__9__6.html" target="_top" xlink:title=" ">
<polygon fill="white" stroke="#666666" points="2730,-679 2593,-679 2593,-660 2730,-660 2730,-679"/>
<text text-anchor="middle" x="2661.5" y="-667" font-family="Helvetica,sans-Serif" font-size="10.00">TranslatorAdapter_1_9_6</text>
</a>
</g>
</g>
<!-- Node2&#45;&gt;Node3 -->
<g id="edge2" class="edge">
<title>Node2&#45;&gt;Node3</title>
<path fill="none" stroke="#63b8ff" d="M2661.5,-704.66C2661.5,-695.93 2661.5,-685.99 2661.5,-679.09"/>
<polygon fill="#63b8ff" stroke="#63b8ff" points="2658,-704.75 2661.5,-714.75 2665,-704.75 2658,-704.75"/>
</g>
<!-- Node4 -->
<g id="node4" class="node">
<title>Node4</title>
<g id="a_node4"><a xlink:href="../../dd/dba/class_translator_adapter__1__9__5.html" target="_top" xlink:title=" ">
<polygon fill="white" stroke="#666666" points="2409,-624 2272,-624 2272,-605 2409,-605 2409,-624"/>
<text text-anchor="middle" x="2340.5" y="-612" font-family="Helvetica,sans-Serif" font-size="10.00">TranslatorAdapter_1_9_5</text>
</a>
</g>
</g>
<!-- Node3&#45;&gt;Node4 -->
<g id="edge3" class="edge">
<title>Node3&#45;&gt;Node4</title>
<path fill="none" stroke="#63b8ff" d="M2599.78,-658.31C2539.5,-648.36 2448.81,-633.38 2392.21,-624.04"/>
<polygon fill="#63b8ff" stroke="#63b8ff" points="2599.49,-661.81 2609.93,-659.98 2600.63,-654.9 2599.49,-661.81"/>
</g>
<!-- Node50 -->
<g id="node50" class="node">
<title>Node50</title>
<g id="a_node50"><a xlink:href="../../d2/d4c/class_translator_brazilian.html" target="_top" xlink:title=" ">
<polygon fill="white" stroke="#666666" points="2534,-624 2427,-624 2427,-605 2534,-605 2534,-624"/>
<text text-anchor="middle" x="2480.5" y="-612" font-family="Helvetica,sans-Serif" font-size="10.00">TranslatorBrazilian</text>
</a>
</g>
</g>
<!-- Node3&#45;&gt;Node50 -->
<g id="edge49" class="edge">
<title>Node3&#45;&gt;Node50</title>
<path fill="none" stroke="#63b8ff" d="M2622.42,-657.06C2588.59,-647.15 2540.42,-633.04 2509.81,-624.08"/>
<polygon fill="#63b8ff" stroke="#63b8ff" points="2621.84,-660.53 2632.42,-659.98 2623.81,-653.82 2621.84,-660.53"/>
</g>
<!-- Node51 -->
<g id="node51" class="node">
<title>Node51</title>
<g id="a_node51"><a xlink:href="../../dd/d8a/class_translator_czech.html" target="_top" xlink:title=" ">
<polygon fill="white" stroke="#666666" points="2646.5,-624 2552.5,-624 2552.5,-605 2646.5,-605 2646.5,-624"/>
<text text-anchor="middle" x="2599.5" y="-612" font-family="Helvetica,sans-Serif" font-size="10.00">TranslatorCzech</text>
</a>
</g>
</g>
<!-- Node3&#45;&gt;Node51 -->
<g id="edge50" class="edge">
<title>Node3&#45;&gt;Node51</title>
<path fill="none" stroke="#63b8ff" d="M2643.75,-653.32C2632.69,-643.87 2618.87,-632.06 2609.64,-624.17"/>
<polygon fill="#63b8ff" stroke="#63b8ff" points="2641.66,-656.15 2651.54,-659.98 2646.21,-650.83 2641.66,-656.15"/>
</g>
<!-- Node52 -->
<g id="node52" class="node">
<title>Node52</title>
<g id="a_node52"><a xlink:href="../../dc/df2/class_translator_portuguese.html" target="_top" xlink:title=" ">
<polygon fill="white" stroke="#666666" points="2784,-624 2665,-624 2665,-605 2784,-605 2784,-624"/>
<text text-anchor="middle" x="2724.5" y="-612" font-family="Helvetica,sans-Serif" font-size="10.00">TranslatorPortuguese</text>
</a>
</g>
</g>
<!-- Node3&#45;&gt;Node52 -->
<g id="edge51" class="edge">
<title>Node3&#45;&gt;Node52</title>
<path fill="none" stroke="#63b8ff" d="M2679.54,-653.32C2690.77,-643.87 2704.82,-632.06 2714.19,-624.17"/>
<polygon fill="#63b8ff" stroke="#63b8ff" points="2677.02,-650.87 2671.62,-659.98 2681.53,-656.23 2677.02,-650.87"/>
</g>
<!-- Node53 -->
<g id="node53" class="node">
<title>Node53</title>
<g id="a_node53"><a xlink:href="../../dc/d44/class_translator_spanish.html" target="_top" xlink:title=" ">
<polygon fill="white" stroke="#666666" points="2905,-624 2802,-624 2802,-605 2905,-605 2905,-624"/>
<text text-anchor="middle" x="2853.5" y="-612" font-family="Helvetica,sans-Serif" font-size="10.00">TranslatorSpanish</text>
</a>
</g>
</g>
<!-- Node3&#45;&gt;Node53 -->
<g id="edge52" class="edge">
<title>Node3&#45;&gt;Node53</title>
<path fill="none" stroke="#63b8ff" d="M2702.03,-657.31C2737.96,-647.39 2789.66,-633.12 2822.41,-624.08"/>
<polygon fill="#63b8ff" stroke="#63b8ff" points="2701.06,-653.95 2692.35,-659.98 2702.92,-660.7 2701.06,-653.95"/>
</g>
<!-- Node54 -->
<g id="node54" class="node">
<title>Node54</title>
<g id="a_node54"><a xlink:href="../../d5/d5c/class_translator_swedish.html" target="_top" xlink:title=" ">
<polygon fill="white" stroke="#666666" points="3028,-624 2923,-624 2923,-605 3028,-605 3028,-624"/>
<text text-anchor="middle" x="2975.5" y="-612" font-family="Helvetica,sans-Serif" font-size="10.00">TranslatorSwedish</text>
</a>
</g>
</g>
<!-- Node3&#45;&gt;Node54 -->
<g id="edge53" class="edge">
<title>Node3&#45;&gt;Node54</title>
<path fill="none" stroke="#63b8ff" d="M2721.87,-658.31C2780.84,-648.36 2869.55,-633.38 2924.92,-624.04"/>
<polygon fill="#63b8ff" stroke="#63b8ff" points="2721.23,-654.87 2711.95,-659.98 2722.39,-661.77 2721.23,-654.87"/>
</g>
<!-- Node5 -->
<g id="node5" class="node">
<title>Node5</title>
<g id="a_node5"><a xlink:href="../../d0/d33/class_translator_adapter__1__9__4.html" target="_top" xlink:title=" ">
<polygon fill="white" stroke="#666666" points="2342,-569 2205,-569 2205,-550 2342,-550 2342,-569"/>
<text text-anchor="middle" x="2273.5" y="-557" font-family="Helvetica,sans-Serif" font-size="10.00">TranslatorAdapter_1_9_4</text>
</a>
</g>
</g>
<!-- Node4&#45;&gt;Node5 -->
<g id="edge4" class="edge">
<title>Node4&#45;&gt;Node5</title>
<path fill="none" stroke="#63b8ff" d="M2321.67,-598.6C2309.66,-589.11 2294.53,-577.13 2284.46,-569.17"/>
<polygon fill="#63b8ff" stroke="#63b8ff" points="2319.72,-601.53 2329.74,-604.98 2324.06,-596.04 2319.72,-601.53"/>
</g>
<!-- Node49 -->
<g id="node49" class="node">
<title>Node49</title>
<g id="a_node49"><a xlink:href="../../da/d1a/class_translator_french.html" target="_top" xlink:title=" ">
<polygon fill="white" stroke="#666666" points="2457,-569 2360,-569 2360,-550 2457,-550 2457,-569"/>
<text text-anchor="middle" x="2408.5" y="-557" font-family="Helvetica,sans-Serif" font-size="10.00">TranslatorFrench</text>
</a>
</g>
</g>
<!-- Node4&#45;&gt;Node49 -->
<g id="edge48" class="edge">
<title>Node4&#45;&gt;Node49</title>
<path fill="none" stroke="#63b8ff" d="M2359.62,-598.6C2371.8,-589.11 2387.16,-577.13 2397.38,-569.17"/>
<polygon fill="#63b8ff" stroke="#63b8ff" points="2357.16,-596.08 2351.43,-604.98 2361.46,-601.6 2357.16,-596.08"/>
</g>
<!-- Node6 -->
<g id="node6" class="node">
<title>Node6</title>
<g id="a_node6"><a xlink:href="../../d3/d2e/class_translator_adapter__1__9__2.html" target="_top" xlink:title=" ">
<polygon fill="white" stroke="#666666" points="2074,-514 1937,-514 1937,-495 2074,-495 2074,-514"/>
<text text-anchor="middle" x="2005.5" y="-502" font-family="Helvetica,sans-Serif" font-size="10.00">TranslatorAdapter_1_9_2</text>
</a>
</g>
</g>
<!-- Node5&#45;&gt;Node6 -->
<g id="edge5" class="edge">
<title>Node5&#45;&gt;Node6</title>
<path fill="none" stroke="#63b8ff" d="M2220.42,-548C2170.18,-538.07 2095.68,-523.33 2048.9,-514.08"/>
<polygon fill="#63b8ff" stroke="#63b8ff" points="2219.95,-551.48 2230.44,-549.98 2221.31,-544.61 2219.95,-551.48"/>
</g>
<!-- Node45 -->
<g id="node45" class="node">
<title>Node45</title>
<g id="a_node45"><a xlink:href="../../da/dbb/class_translator_bulgarian.html" target="_top" xlink:title=" ">
<polygon fill="white" stroke="#666666" points="2203,-514 2092,-514 2092,-495 2203,-495 2203,-514"/>
<text text-anchor="middle" x="2147.5" y="-502" font-family="Helvetica,sans-Serif" font-size="10.00">TranslatorBulgarian</text>
</a>
</g>
</g>
<!-- Node5&#45;&gt;Node45 -->
<g id="edge44" class="edge">
<title>Node5&#45;&gt;Node45</title>
<path fill="none" stroke="#63b8ff" d="M2243.85,-546.03C2220.55,-536.23 2188.7,-522.83 2168.11,-514.17"/>
<polygon fill="#63b8ff" stroke="#63b8ff" points="2242.68,-549.33 2253.26,-549.98 2245.4,-542.88 2242.68,-549.33"/>
</g>
<!-- Node46 -->
<g id="node46" class="node">
<title>Node46</title>
<g id="a_node46"><a xlink:href="../../d6/db6/class_translator_chinese.html" target="_top" xlink:title=" ">
<polygon fill="white" stroke="#666666" points="2325.5,-514 2221.5,-514 2221.5,-495 2325.5,-495 2325.5,-514"/>
<text text-anchor="middle" x="2273.5" y="-502" font-family="Helvetica,sans-Serif" font-size="10.00">TranslatorChinese</text>
</a>
</g>
</g>
<!-- Node5&#45;&gt;Node46 -->
<g id="edge45" class="edge">
<title>Node5&#45;&gt;Node46</title>
<path fill="none" stroke="#63b8ff" d="M2273.5,-539.66C2273.5,-530.93 2273.5,-520.99 2273.5,-514.09"/>
<polygon fill="#63b8ff" stroke="#63b8ff" points="2270,-539.75 2273.5,-549.75 2277,-539.75 2270,-539.75"/>
</g>
<!-- Node47 -->
<g id="node47" class="node">
<title>Node47</title>
<g id="a_node47"><a xlink:href="../../df/d75/class_translator_greek.html" target="_top" xlink:title=" ">
<polygon fill="white" stroke="#666666" points="2437.5,-514 2343.5,-514 2343.5,-495 2437.5,-495 2437.5,-514"/>
<text text-anchor="middle" x="2390.5" y="-502" font-family="Helvetica,sans-Serif" font-size="10.00">TranslatorGreek</text>
</a>
</g>
</g>
<!-- Node5&#45;&gt;Node47 -->
<g id="edge46" class="edge">
<title>Node5&#45;&gt;Node47</title>
<path fill="none" stroke="#63b8ff" d="M2301.61,-545.77C2323.19,-535.99 2352.41,-522.75 2371.36,-514.17"/>
<polygon fill="#63b8ff" stroke="#63b8ff" points="2299.96,-542.67 2292.3,-549.98 2302.85,-549.05 2299.96,-542.67"/>
</g>
<!-- Node48 -->
<g id="node48" class="node">
<title>Node48</title>
<g id="a_node48"><a xlink:href="../../d1/d8a/class_translator_hindi.html" target="_top" xlink:title=" ">
<polygon fill="white" stroke="#666666" points="2545.5,-514 2455.5,-514 2455.5,-495 2545.5,-495 2545.5,-514"/>
<text text-anchor="middle" x="2500.5" y="-502" font-family="Helvetica,sans-Serif" font-size="10.00">TranslatorHindi</text>
</a>
</g>
</g>
<!-- Node5&#45;&gt;Node48 -->
<g id="edge47" class="edge">
<title>Node5&#45;&gt;Node48</title>
<path fill="none" stroke="#63b8ff" d="M2319.8,-547.69C2362.33,-537.76 2424.53,-523.24 2463.74,-514.08"/>
<polygon fill="#63b8ff" stroke="#63b8ff" points="2318.91,-544.3 2309.97,-549.98 2320.51,-551.12 2318.91,-544.3"/>
</g>
<!-- Node7 -->
<g id="node7" class="node">
<title>Node7</title>
<g id="a_node7"><a xlink:href="../../de/dde/class_translator_adapter__1__8__19.html" target="_top" xlink:title=" ">
<polygon fill="white" stroke="#666666" points="2077,-459 1934,-459 1934,-440 2077,-440 2077,-459"/>
<text text-anchor="middle" x="2005.5" y="-447" font-family="Helvetica,sans-Serif" font-size="10.00">TranslatorAdapter_1_8_19</text>
</a>
</g>
</g>
<!-- Node6&#45;&gt;Node7 -->
<g id="edge6" class="edge">
<title>Node6&#45;&gt;Node7</title>
<path fill="none" stroke="#63b8ff" d="M2005.5,-484.66C2005.5,-475.93 2005.5,-465.99 2005.5,-459.09"/>
<polygon fill="#63b8ff" stroke="#63b8ff" points="2002,-484.75 2005.5,-494.75 2009,-484.75 2002,-484.75"/>
</g>
<!-- Node8 -->
<g id="node8" class="node">
<title>Node8</title>
<g id="a_node8"><a xlink:href="../../d4/d2e/class_translator_adapter__1__8__15.html" target="_top" xlink:title=" ">
<polygon fill="white" stroke="#666666" points="2077,-404 1934,-404 1934,-385 2077,-385 2077,-404"/>
<text text-anchor="middle" x="2005.5" y="-392" font-family="Helvetica,sans-Serif" font-size="10.00">TranslatorAdapter_1_8_15</text>
</a>
</g>
</g>
<!-- Node7&#45;&gt;Node8 -->
<g id="edge7" class="edge">
<title>Node7&#45;&gt;Node8</title>
<path fill="none" stroke="#63b8ff" d="M2005.5,-429.66C2005.5,-420.93 2005.5,-410.99 2005.5,-404.09"/>
<polygon fill="#63b8ff" stroke="#63b8ff" points="2002,-429.75 2005.5,-439.75 2009,-429.75 2002,-429.75"/>
</g>
<!-- Node9 -->
<g id="node9" class="node">
<title>Node9</title>
<g id="a_node9"><a xlink:href="../../de/d2f/class_translator_adapter__1__8__4.html" target="_top" xlink:title=" ">
<polygon fill="white" stroke="#666666" points="1452,-349 1315,-349 1315,-330 1452,-330 1452,-349"/>
<text text-anchor="middle" x="1383.5" y="-337" font-family="Helvetica,sans-Serif" font-size="10.00">TranslatorAdapter_1_8_4</text>
</a>
</g>
</g>
<!-- Node8&#45;&gt;Node9 -->
<g id="edge8" class="edge">
<title>Node8&#45;&gt;Node9</title>
<path fill="none" stroke="#63b8ff" d="M1923.69,-387.5C1817.19,-379.53 1625.31,-364.62 1461.5,-349 1458.52,-348.72 1455.47,-348.42 1452.39,-348.11"/>
<polygon fill="#63b8ff" stroke="#63b8ff" points="1923.49,-390.99 1933.72,-388.25 1924.01,-384.01 1923.49,-390.99"/>
</g>
<!-- Node36 -->
<g id="node36" class="node">
<title>Node36</title>
<g id="a_node36"><a xlink:href="../../dd/df6/class_translator_chinesetraditional.html" target="_top" xlink:title=" ">
<polygon fill="white" stroke="#666666" points="1624.5,-349 1470.5,-349 1470.5,-330 1624.5,-330 1624.5,-349"/>
<text text-anchor="middle" x="1547.5" y="-337" font-family="Helvetica,sans-Serif" font-size="10.00">TranslatorChinesetraditional</text>
</a>
</g>
</g>
<!-- Node8&#45;&gt;Node36 -->
<g id="edge35" class="edge">
<title>Node8&#45;&gt;Node36</title>
<path fill="none" stroke="#63b8ff" d="M1923.97,-384.07C1838.08,-374.13 1704.03,-358.61 1621.21,-349.03"/>
<polygon fill="#63b8ff" stroke="#63b8ff" points="1923.6,-387.55 1933.94,-385.22 1924.41,-380.59 1923.6,-387.55"/>
</g>
<!-- Node37 -->
<g id="node37" class="node">
<title>Node37</title>
<g id="a_node37"><a xlink:href="../../d6/d07/class_translator_german.html" target="_top" xlink:title=" ">
<polygon fill="white" stroke="#666666" points="1746.5,-349 1642.5,-349 1642.5,-330 1746.5,-330 1746.5,-349"/>
<text text-anchor="middle" x="1694.5" y="-337" font-family="Helvetica,sans-Serif" font-size="10.00">TranslatorGerman</text>
</a>
</g>
</g>
<!-- Node8&#45;&gt;Node37 -->
<g id="edge36" class="edge">
<title>Node8&#45;&gt;Node37</title>
<path fill="none" stroke="#63b8ff" d="M1945.34,-383.25C1886.94,-373.3 1799.32,-358.36 1744.6,-349.04"/>
<polygon fill="#63b8ff" stroke="#63b8ff" points="1945.09,-386.75 1955.53,-384.98 1946.26,-379.85 1945.09,-386.75"/>
</g>
<!-- Node38 -->
<g id="node38" class="node">
<title>Node38</title>
<g id="a_node38"><a xlink:href="../../db/d5f/class_translator_hungarian.html" target="_top" xlink:title=" ">
<polygon fill="white" stroke="#666666" points="1880,-349 1765,-349 1765,-330 1880,-330 1880,-349"/>
<text text-anchor="middle" x="1822.5" y="-337" font-family="Helvetica,sans-Serif" font-size="10.00">TranslatorHungarian</text>
</a>
</g>
</g>
<!-- Node8&#45;&gt;Node38 -->
<g id="edge37" class="edge">
<title>Node8&#45;&gt;Node38</title>
<path fill="none" stroke="#63b8ff" d="M1966.43,-382.18C1932.2,-372.27 1883.21,-358.08 1852.13,-349.08"/>
<polygon fill="#63b8ff" stroke="#63b8ff" points="1965.52,-385.56 1976.1,-384.98 1967.47,-378.84 1965.52,-385.56"/>
</g>
<!-- Node39 -->
<g id="node39" class="node">
<title>Node39</title>
<g id="a_node39"><a xlink:href="../../d2/df8/class_translator_italian.html" target="_top" xlink:title=" ">
<polygon fill="white" stroke="#666666" points="1993,-349 1898,-349 1898,-330 1993,-330 1993,-349"/>
<text text-anchor="middle" x="1945.5" y="-337" font-family="Helvetica,sans-Serif" font-size="10.00">TranslatorItalian</text>
</a>
</g>
</g>
<!-- Node8&#45;&gt;Node39 -->
<g id="edge38" class="edge">
<title>Node8&#45;&gt;Node39</title>
<path fill="none" stroke="#63b8ff" d="M1988.32,-378.32C1977.62,-368.87 1964.24,-357.06 1955.32,-349.17"/>
<polygon fill="#63b8ff" stroke="#63b8ff" points="1986.05,-380.99 1995.86,-384.98 1990.68,-375.74 1986.05,-380.99"/>
</g>
<!-- Node40 -->
<g id="node40" class="node">
<title>Node40</title>
<g id="a_node40"><a xlink:href="../../d1/d6a/class_translator_japanese.html" target="_top" xlink:title=" ">
<polygon fill="white" stroke="#666666" points="2120,-349 2011,-349 2011,-330 2120,-330 2120,-349"/>
<text text-anchor="middle" x="2065.5" y="-337" font-family="Helvetica,sans-Serif" font-size="10.00">TranslatorJapanese</text>
</a>
</g>
</g>
<!-- Node8&#45;&gt;Node40 -->
<g id="edge39" class="edge">
<title>Node8&#45;&gt;Node40</title>
<path fill="none" stroke="#63b8ff" d="M2022.68,-378.32C2033.38,-368.87 2046.76,-357.06 2055.68,-349.17"/>
<polygon fill="#63b8ff" stroke="#63b8ff" points="2020.32,-375.74 2015.14,-384.98 2024.95,-380.99 2020.32,-375.74"/>
</g>
<!-- Node41 -->
<g id="node41" class="node">
<title>Node41</title>
<g id="a_node41"><a xlink:href="../../db/dcc/class_translator_korean.html" target="_top" xlink:title=" ">
<polygon fill="white" stroke="#666666" points="2236.5,-349 2138.5,-349 2138.5,-330 2236.5,-330 2236.5,-349"/>
<text text-anchor="middle" x="2187.5" y="-337" font-family="Helvetica,sans-Serif" font-size="10.00">TranslatorKorean</text>
</a>
</g>
</g>
<!-- Node8&#45;&gt;Node41 -->
<g id="edge40" class="edge">
<title>Node8&#45;&gt;Node41</title>
<path fill="none" stroke="#63b8ff" d="M2044.36,-382.18C2078.4,-372.27 2127.12,-358.08 2158.03,-349.08"/>
<polygon fill="#63b8ff" stroke="#63b8ff" points="2043.36,-378.83 2034.74,-384.98 2045.32,-385.55 2043.36,-378.83"/>
</g>
<!-- Node42 -->
<g id="node42" class="node">
<title>Node42</title>
<g id="a_node42"><a xlink:href="../../da/d32/class_translator_romanian.html" target="_top" xlink:title=" ">
<polygon fill="white" stroke="#666666" points="2368.5,-349 2254.5,-349 2254.5,-330 2368.5,-330 2368.5,-349"/>
<text text-anchor="middle" x="2311.5" y="-337" font-family="Helvetica,sans-Serif" font-size="10.00">TranslatorRomanian</text>
</a>
</g>
</g>
<!-- Node8&#45;&gt;Node42 -->
<g id="edge41" class="edge">
<title>Node8&#45;&gt;Node42</title>
<path fill="none" stroke="#63b8ff" d="M2064.69,-383.25C2122.15,-373.3 2208.36,-358.36 2262.2,-349.04"/>
<polygon fill="#63b8ff" stroke="#63b8ff" points="2063.92,-379.83 2054.66,-384.98 2065.11,-386.73 2063.92,-379.83"/>
</g>
<!-- Node43 -->
<g id="node43" class="node">
<title>Node43</title>
<g id="a_node43"><a xlink:href="../../d0/dab/class_translator_russian.html" target="_top" xlink:title=" ">
<polygon fill="white" stroke="#666666" points="2490,-349 2387,-349 2387,-330 2490,-330 2490,-349"/>
<text text-anchor="middle" x="2438.5" y="-337" font-family="Helvetica,sans-Serif" font-size="10.00">TranslatorRussian</text>
</a>
</g>
</g>
<!-- Node8&#45;&gt;Node43 -->
<g id="edge42" class="edge">
<title>Node8&#45;&gt;Node43</title>
<path fill="none" stroke="#63b8ff" d="M2087.59,-384.14C2163,-375.44 2277.85,-361.9 2377.5,-349 2380.58,-348.6 2383.74,-348.18 2386.92,-347.76"/>
<polygon fill="#63b8ff" stroke="#63b8ff" points="2086.75,-380.72 2077.21,-385.34 2087.55,-387.67 2086.75,-380.72"/>
</g>
<!-- Node44 -->
<g id="node44" class="node">
<title>Node44</title>
<g id="a_node44"><a xlink:href="../../d2/d53/class_translator_slovak.html" target="_top" xlink:title=" ">
<polygon fill="white" stroke="#666666" points="2606.5,-349 2508.5,-349 2508.5,-330 2606.5,-330 2606.5,-349"/>
<text text-anchor="middle" x="2557.5" y="-337" font-family="Helvetica,sans-Serif" font-size="10.00">TranslatorSlovak</text>
</a>
</g>
</g>
<!-- Node8&#45;&gt;Node44 -->
<g id="edge43" class="edge">
<title>Node8&#45;&gt;Node44</title>
<path fill="none" stroke="#63b8ff" d="M2087.18,-387.46C2185.08,-379.92 2354.03,-365.92 2498.5,-349 2501.69,-348.63 2504.97,-348.22 2508.27,-347.79"/>
<polygon fill="#63b8ff" stroke="#63b8ff" points="2086.76,-383.98 2077.06,-388.24 2087.3,-390.96 2086.76,-383.98"/>
</g>
<!-- Node10 -->
<g id="node10" class="node">
<title>Node10</title>
<g id="a_node10"><a xlink:href="../../d2/d75/class_translator_adapter__1__8__2.html" target="_top" xlink:title=" ">
<polygon fill="white" stroke="#666666" points="1247,-294 1110,-294 1110,-275 1247,-275 1247,-294"/>
<text text-anchor="middle" x="1178.5" y="-282" font-family="Helvetica,sans-Serif" font-size="10.00">TranslatorAdapter_1_8_2</text>
</a>
</g>
</g>
<!-- Node9&#45;&gt;Node10 -->
<g id="edge9" class="edge">
<title>Node9&#45;&gt;Node10</title>
<path fill="none" stroke="#63b8ff" d="M1340.71,-327.44C1302.33,-317.52 1246.81,-303.16 1211.69,-294.08"/>
<polygon fill="#63b8ff" stroke="#63b8ff" points="1340.01,-330.87 1350.56,-329.98 1341.76,-324.09 1340.01,-330.87"/>
</g>
<!-- Node33 -->
<g id="node33" class="node">
<title>Node33</title>
<g id="a_node33"><a xlink:href="../../d2/d07/class_translator_esperanto.html" target="_top" xlink:title=" ">
<polygon fill="white" stroke="#666666" points="1378,-294 1265,-294 1265,-275 1378,-275 1378,-294"/>
<text text-anchor="middle" x="1321.5" y="-282" font-family="Helvetica,sans-Serif" font-size="10.00">TranslatorEsperanto</text>
</a>
</g>
</g>
<!-- Node9&#45;&gt;Node33 -->
<g id="edge32" class="edge">
<title>Node9&#45;&gt;Node33</title>
<path fill="none" stroke="#63b8ff" d="M1365.75,-323.32C1354.69,-313.87 1340.87,-302.06 1331.64,-294.17"/>
<polygon fill="#63b8ff" stroke="#63b8ff" points="1363.66,-326.15 1373.54,-329.98 1368.21,-320.83 1363.66,-326.15"/>
</g>
<!-- Node34 -->
<g id="node34" class="node">
<title>Node34</title>
<g id="a_node34"><a xlink:href="../../d8/d83/class_translator_latvian.html" target="_top" xlink:title=" ">
<polygon fill="white" stroke="#666666" points="1497,-294 1396,-294 1396,-275 1497,-275 1497,-294"/>
<text text-anchor="middle" x="1446.5" y="-282" font-family="Helvetica,sans-Serif" font-size="10.00">TranslatorLatvian</text>
</a>
</g>
</g>
<!-- Node9&#45;&gt;Node34 -->
<g id="edge33" class="edge">
<title>Node9&#45;&gt;Node34</title>
<path fill="none" stroke="#63b8ff" d="M1401.54,-323.32C1412.77,-313.87 1426.82,-302.06 1436.19,-294.17"/>
<polygon fill="#63b8ff" stroke="#63b8ff" points="1399.02,-320.87 1393.62,-329.98 1403.53,-326.23 1399.02,-320.87"/>
</g>
<!-- Node35 -->
<g id="node35" class="node">
<title>Node35</title>
<g id="a_node35"><a xlink:href="../../d1/d56/class_translator_ukrainian.html" target="_top" xlink:title=" ">
<polygon fill="white" stroke="#666666" points="1627.5,-294 1515.5,-294 1515.5,-275 1627.5,-275 1627.5,-294"/>
<text text-anchor="middle" x="1571.5" y="-282" font-family="Helvetica,sans-Serif" font-size="10.00">TranslatorUkrainian</text>
</a>
</g>
</g>
<!-- Node9&#45;&gt;Node35 -->
<g id="edge34" class="edge">
<title>Node9&#45;&gt;Node35</title>
<path fill="none" stroke="#63b8ff" d="M1423.64,-327.18C1458.8,-317.27 1509.13,-303.08 1541.06,-294.08"/>
<polygon fill="#63b8ff" stroke="#63b8ff" points="1422.38,-323.9 1413.71,-329.98 1424.28,-330.64 1422.38,-323.9"/>
</g>
<!-- Node11 -->
<g id="node11" class="node">
<title>Node11</title>
<g id="a_node11"><a xlink:href="../../de/d49/class_translator_adapter__1__8__0.html" target="_top" xlink:title="Adapter class for languages that only contain translations up to version 1.8.0.">
<polygon fill="white" stroke="#666666" points="1107,-239 970,-239 970,-220 1107,-220 1107,-239"/>
<text text-anchor="middle" x="1038.5" y="-227" font-family="Helvetica,sans-Serif" font-size="10.00">TranslatorAdapter_1_8_0</text>
</a>
</g>
</g>
<!-- Node10&#45;&gt;Node11 -->
<g id="edge10" class="edge">
<title>Node10&#45;&gt;Node11</title>
<path fill="none" stroke="#63b8ff" d="M1146.59,-271.42C1120.62,-261.59 1084.58,-247.95 1061.4,-239.17"/>
<polygon fill="#63b8ff" stroke="#63b8ff" points="1145.42,-274.72 1156.01,-274.98 1147.89,-268.17 1145.42,-274.72"/>
</g>
<!-- Node31 -->
<g id="node31" class="node">
<title>Node31</title>
<g id="a_node31"><a xlink:href="../../d9/d82/class_translator_croatian.html" target="_top" xlink:title=" ">
<polygon fill="white" stroke="#666666" points="1231.5,-239 1125.5,-239 1125.5,-220 1231.5,-220 1231.5,-239"/>
<text text-anchor="middle" x="1178.5" y="-227" font-family="Helvetica,sans-Serif" font-size="10.00">TranslatorCroatian</text>
</a>
</g>
</g>
<!-- Node10&#45;&gt;Node31 -->
<g id="edge30" class="edge">
<title>Node10&#45;&gt;Node31</title>
<path fill="none" stroke="#63b8ff" d="M1178.5,-264.66C1178.5,-255.93 1178.5,-245.99 1178.5,-239.09"/>
<polygon fill="#63b8ff" stroke="#63b8ff" points="1175,-264.75 1178.5,-274.75 1182,-264.75 1175,-264.75"/>
</g>
<!-- Node32 -->
<g id="node32" class="node">
<title>Node32</title>
<g id="a_node32"><a xlink:href="../../de/d82/class_translator_polish.html" target="_top" xlink:title=" ">
<polygon fill="white" stroke="#666666" points="1343.5,-239 1249.5,-239 1249.5,-220 1343.5,-220 1343.5,-239"/>
<text text-anchor="middle" x="1296.5" y="-227" font-family="Helvetica,sans-Serif" font-size="10.00">TranslatorPolish</text>
</a>
</g>
</g>
<!-- Node10&#45;&gt;Node32 -->
<g id="edge31" class="edge">
<title>Node10&#45;&gt;Node32</title>
<path fill="none" stroke="#63b8ff" d="M1206.85,-270.77C1228.62,-260.99 1258.09,-247.75 1277.2,-239.17"/>
<polygon fill="#63b8ff" stroke="#63b8ff" points="1205.15,-267.69 1197.46,-274.98 1208.01,-274.08 1205.15,-267.69"/>
</g>
<!-- Node12 -->
<g id="node12" class="node">
<title>Node12</title>
<g id="a_node12"><a xlink:href="../../da/d24/class_translator_adapter__1__7__5.html" target="_top" xlink:title="Adapter class for languages that only contain translations up to version 1.7.5.">
<polygon fill="white" stroke="#666666" points="839,-184 702,-184 702,-165 839,-165 839,-184"/>
<text text-anchor="middle" x="770.5" y="-172" font-family="Helvetica,sans-Serif" font-size="10.00">TranslatorAdapter_1_7_5</text>
</a>
</g>
</g>
<!-- Node11&#45;&gt;Node12 -->
<g id="edge11" class="edge">
<title>Node11&#45;&gt;Node12</title>
<path fill="none" stroke="#63b8ff" d="M985.42,-218C935.18,-208.07 860.68,-193.33 813.9,-184.08"/>
<polygon fill="#63b8ff" stroke="#63b8ff" points="984.95,-221.48 995.44,-219.98 986.31,-214.61 984.95,-221.48"/>
</g>
<!-- Node27 -->
<g id="node27" class="node">
<title>Node27</title>
<g id="a_node27"><a xlink:href="../../da/db8/class_translator_armenian.html" target="_top" xlink:title=" ">
<polygon fill="white" stroke="#666666" points="969.5,-184 857.5,-184 857.5,-165 969.5,-165 969.5,-184"/>
<text text-anchor="middle" x="913.5" y="-172" font-family="Helvetica,sans-Serif" font-size="10.00">TranslatorArmenian</text>
</a>
</g>
</g>
<!-- Node11&#45;&gt;Node27 -->
<g id="edge26" class="edge">
<title>Node11&#45;&gt;Node27</title>
<path fill="none" stroke="#63b8ff" d="M1009.09,-216.03C985.97,-206.23 954.37,-192.83 933.95,-184.17"/>
<polygon fill="#63b8ff" stroke="#63b8ff" points="1007.84,-219.3 1018.42,-219.98 1010.58,-212.86 1007.84,-219.3"/>
</g>
<!-- Node28 -->
<g id="node28" class="node">
<title>Node28</title>
<g id="a_node28"><a xlink:href="../../d9/dc1/class_translator_catalan.html" target="_top" xlink:title=" ">
<polygon fill="white" stroke="#666666" points="1089.5,-184 987.5,-184 987.5,-165 1089.5,-165 1089.5,-184"/>
<text text-anchor="middle" x="1038.5" y="-172" font-family="Helvetica,sans-Serif" font-size="10.00">TranslatorCatalan</text>
</a>
</g>
</g>
<!-- Node11&#45;&gt;Node28 -->
<g id="edge27" class="edge">
<title>Node11&#45;&gt;Node28</title>
<path fill="none" stroke="#63b8ff" d="M1038.5,-209.66C1038.5,-200.93 1038.5,-190.99 1038.5,-184.09"/>
<polygon fill="#63b8ff" stroke="#63b8ff" points="1035,-209.75 1038.5,-219.75 1042,-209.75 1035,-209.75"/>
</g>
<!-- Node29 -->
<g id="node29" class="node">
<title>Node29</title>
<g id="a_node29"><a xlink:href="../../d7/d21/class_translator_danish.html" target="_top" xlink:title=" ">
<polygon fill="white" stroke="#666666" points="1205.5,-184 1107.5,-184 1107.5,-165 1205.5,-165 1205.5,-184"/>
<text text-anchor="middle" x="1156.5" y="-172" font-family="Helvetica,sans-Serif" font-size="10.00">TranslatorDanish</text>
</a>
</g>
</g>
<!-- Node11&#45;&gt;Node29 -->
<g id="edge28" class="edge">
<title>Node11&#45;&gt;Node29</title>
<path fill="none" stroke="#63b8ff" d="M1066.85,-215.77C1088.62,-205.99 1118.09,-192.75 1137.2,-184.17"/>
<polygon fill="#63b8ff" stroke="#63b8ff" points="1065.15,-212.69 1057.46,-219.98 1068.01,-219.08 1065.15,-212.69"/>
</g>
<!-- Node30 -->
<g id="node30" class="node">
<title>Node30</title>
<g id="a_node30"><a xlink:href="../../df/dc8/class_translator_indonesian.html" target="_top" xlink:title=" ">
<polygon fill="white" stroke="#666666" points="1341.5,-184 1223.5,-184 1223.5,-165 1341.5,-165 1341.5,-184"/>
<text text-anchor="middle" x="1282.5" y="-172" font-family="Helvetica,sans-Serif" font-size="10.00">TranslatorIndonesian</text>
</a>
</g>
</g>
<!-- Node11&#45;&gt;Node30 -->
<g id="edge29" class="edge">
<title>Node11&#45;&gt;Node30</title>
<path fill="none" stroke="#63b8ff" d="M1087.69,-217.82C1133.42,-207.88 1200.66,-193.28 1242.99,-184.08"/>
<polygon fill="#63b8ff" stroke="#63b8ff" points="1086.73,-214.44 1077.7,-219.98 1088.22,-221.28 1086.73,-214.44"/>
</g>
<!-- Node13 -->
<g id="node13" class="node">
<title>Node13</title>
<g id="a_node13"><a xlink:href="../../d3/da1/class_translator_adapter__1__6__0.html" target="_top" xlink:title="Adapter class for languages that only contain translations up to version 1.6.0.">
<polygon fill="white" stroke="#666666" points="702,-129 565,-129 565,-110 702,-110 702,-129"/>
<text text-anchor="middle" x="633.5" y="-117" font-family="Helvetica,sans-Serif" font-size="10.00">TranslatorAdapter_1_6_0</text>
</a>
</g>
</g>
<!-- Node12&#45;&gt;Node13 -->
<g id="edge12" class="edge">
<title>Node12&#45;&gt;Node13</title>
<path fill="none" stroke="#63b8ff" d="M738.94,-161.29C713.55,-151.47 678.5,-137.91 655.91,-129.17"/>
<polygon fill="#63b8ff" stroke="#63b8ff" points="737.9,-164.64 748.49,-164.98 740.42,-158.11 737.9,-164.64"/>
</g>
<!-- Node25 -->
<g id="node25" class="node">
<title>Node25</title>
<g id="a_node25"><a xlink:href="../../d5/d43/class_translator_persian.html" target="_top" xlink:title=" ">
<polygon fill="white" stroke="#666666" points="821,-129 720,-129 720,-110 821,-110 821,-129"/>
<text text-anchor="middle" x="770.5" y="-117" font-family="Helvetica,sans-Serif" font-size="10.00">TranslatorPersian</text>
</a>
</g>
</g>
<!-- Node12&#45;&gt;Node25 -->
<g id="edge24" class="edge">
<title>Node12&#45;&gt;Node25</title>
<path fill="none" stroke="#63b8ff" d="M770.5,-154.66C770.5,-145.93 770.5,-135.99 770.5,-129.09"/>
<polygon fill="#63b8ff" stroke="#63b8ff" points="767,-154.75 770.5,-164.75 774,-154.75 767,-154.75"/>
</g>
<!-- Node26 -->
<g id="node26" class="node">
<title>Node26</title>
<g id="a_node26"><a xlink:href="../../dd/d80/class_translator_turkish.html" target="_top" xlink:title=" ">
<polygon fill="white" stroke="#666666" points="938,-129 839,-129 839,-110 938,-110 938,-129"/>
<text text-anchor="middle" x="888.5" y="-117" font-family="Helvetica,sans-Serif" font-size="10.00">TranslatorTurkish</text>
</a>
</g>
</g>
<!-- Node12&#45;&gt;Node26 -->
<g id="edge25" class="edge">
<title>Node12&#45;&gt;Node26</title>
<path fill="none" stroke="#63b8ff" d="M798.85,-160.77C820.62,-150.99 850.09,-137.75 869.2,-129.17"/>
<polygon fill="#63b8ff" stroke="#63b8ff" points="797.15,-157.69 789.46,-164.98 800.01,-164.08 797.15,-157.69"/>
</g>
<!-- Node14 -->
<g id="node14" class="node">
<title>Node14</title>
<g id="a_node14"><a xlink:href="../../d4/d2b/class_translator_adapter__1__4__6.html" target="_top" xlink:title="Adapter class for languages that only contain translations up to version 1.4.6.">
<polygon fill="white" stroke="#666666" points="307,-74 170,-74 170,-55 307,-55 307,-74"/>
<text text-anchor="middle" x="238.5" y="-62" font-family="Helvetica,sans-Serif" font-size="10.00">TranslatorAdapter_1_4_6</text>
</a>
</g>
</g>
<!-- Node13&#45;&gt;Node14 -->
<g id="edge13" class="edge">
<title>Node13&#45;&gt;Node14</title>
<path fill="none" stroke="#63b8ff" d="M559.84,-108.62C485.69,-98.67 372.5,-83.48 302.13,-74.04"/>
<polygon fill="#63b8ff" stroke="#63b8ff" points="559.66,-112.12 570.04,-109.98 560.59,-105.19 559.66,-112.12"/>
</g>
<!-- Node19 -->
<g id="node19" class="node">
<title>Node19</title>
<g id="a_node19"><a xlink:href="../../d3/d65/class_translator_afrikaans.html" target="_top" xlink:title=" ">
<polygon fill="white" stroke="#666666" points="435.5,-74 325.5,-74 325.5,-55 435.5,-55 435.5,-74"/>
<text text-anchor="middle" x="380.5" y="-62" font-family="Helvetica,sans-Serif" font-size="10.00">TranslatorAfrikaans</text>
</a>
</g>
</g>
<!-- Node13&#45;&gt;Node19 -->
<g id="edge18" class="edge">
<title>Node13&#45;&gt;Node19</title>
<path fill="none" stroke="#63b8ff" d="M582.8,-107.88C535.38,-97.94 465.45,-83.3 421.47,-74.08"/>
<polygon fill="#63b8ff" stroke="#63b8ff" points="582.35,-111.36 592.85,-109.98 583.78,-104.51 582.35,-111.36"/>
</g>
<!-- Node20 -->
<g id="node20" class="node">
<title>Node20</title>
<g id="a_node20"><a xlink:href="../../de/df7/class_translator_finnish.html" target="_top" xlink:title=" ">
<polygon fill="white" stroke="#666666" points="553,-74 454,-74 454,-55 553,-55 553,-74"/>
<text text-anchor="middle" x="503.5" y="-62" font-family="Helvetica,sans-Serif" font-size="10.00">TranslatorFinnish</text>
</a>
</g>
</g>
<!-- Node13&#45;&gt;Node20 -->
<g id="edge19" class="edge">
<title>Node13&#45;&gt;Node20</title>
<path fill="none" stroke="#63b8ff" d="M603.23,-106.16C579.16,-96.35 546.1,-82.87 524.77,-74.17"/>
<polygon fill="#63b8ff" stroke="#63b8ff" points="602.03,-109.45 612.61,-109.98 604.67,-102.97 602.03,-109.45"/>
</g>
<!-- Node21 -->
<g id="node21" class="node">
<title>Node21</title>
<g id="a_node21"><a xlink:href="../../d9/ddf/class_translator_macedonian.html" target="_top" xlink:title=" ">
<polygon fill="white" stroke="#666666" points="695.5,-74 571.5,-74 571.5,-55 695.5,-55 695.5,-74"/>
<text text-anchor="middle" x="633.5" y="-62" font-family="Helvetica,sans-Serif" font-size="10.00">TranslatorMacedonian</text>
</a>
</g>
</g>
<!-- Node13&#45;&gt;Node21 -->
<g id="edge20" class="edge">
<title>Node13&#45;&gt;Node21</title>
<path fill="none" stroke="#63b8ff" d="M633.5,-99.66C633.5,-90.93 633.5,-80.99 633.5,-74.09"/>
<polygon fill="#63b8ff" stroke="#63b8ff" points="630,-99.75 633.5,-109.75 637,-99.75 630,-99.75"/>
</g>
<!-- Node22 -->
<g id="node22" class="node">
<title>Node22</title>
<g id="a_node22"><a xlink:href="../../d5/d0a/class_translator_serbian.html" target="_top" xlink:title=" ">
<polygon fill="white" stroke="#666666" points="815,-74 714,-74 714,-55 815,-55 815,-74"/>
<text text-anchor="middle" x="764.5" y="-62" font-family="Helvetica,sans-Serif" font-size="10.00">TranslatorSerbian</text>
</a>
</g>
</g>
<!-- Node13&#45;&gt;Node22 -->
<g id="edge21" class="edge">
<title>Node13&#45;&gt;Node22</title>
<path fill="none" stroke="#63b8ff" d="M664,-106.16C688.25,-96.35 721.57,-82.87 743.07,-74.17"/>
<polygon fill="#63b8ff" stroke="#63b8ff" points="662.5,-102.99 654.55,-109.98 665.13,-109.48 662.5,-102.99"/>
</g>
<!-- Node23 -->
<g id="node23" class="node">
<title>Node23</title>
<g id="a_node23"><a xlink:href="../../dc/d03/class_translator_serbian_cyrillic.html" target="_top" xlink:title=" ">
<polygon fill="white" stroke="#666666" points="968,-74 833,-74 833,-55 968,-55 968,-74"/>
<text text-anchor="middle" x="900.5" y="-62" font-family="Helvetica,sans-Serif" font-size="10.00">TranslatorSerbianCyrillic</text>
</a>
</g>
</g>
<!-- Node13&#45;&gt;Node23 -->
<g id="edge22" class="edge">
<title>Node13&#45;&gt;Node23</title>
<path fill="none" stroke="#63b8ff" d="M686.38,-108C736.43,-98.07 810.66,-83.33 857.27,-74.08"/>
<polygon fill="#63b8ff" stroke="#63b8ff" points="685.53,-104.6 676.4,-109.98 686.89,-111.47 685.53,-104.6"/>
</g>
<!-- Node24 -->
<g id="node24" class="node">
<title>Node24</title>
<g id="a_node24"><a xlink:href="../../df/d20/class_translator_vietnamese.html" target="_top" xlink:title=" ">
<polygon fill="white" stroke="#666666" points="1109,-74 986,-74 986,-55 1109,-55 1109,-74"/>
<text text-anchor="middle" x="1047.5" y="-62" font-family="Helvetica,sans-Serif" font-size="10.00">TranslatorVietnamese</text>
</a>
</g>
</g>
<!-- Node13&#45;&gt;Node24 -->
<g id="edge23" class="edge">
<title>Node13&#45;&gt;Node24</title>
<path fill="none" stroke="#63b8ff" d="M709.97,-108.71C789.48,-98.53 912.37,-82.8 985.88,-73.39"/>
<polygon fill="#63b8ff" stroke="#63b8ff" points="709.49,-105.24 700.02,-109.98 710.38,-112.19 709.49,-105.24"/>
</g>
<!-- Node15 -->
<g id="node15" class="node">
<title>Node15</title>
<g id="a_node15"><a xlink:href="../../d3/de9/class_translator_arabic.html" target="_top" xlink:title=" ">
<polygon fill="white" stroke="#666666" points="95,-19 0,-19 0,0 95,0 95,-19"/>
<text text-anchor="middle" x="47.5" y="-7" font-family="Helvetica,sans-Serif" font-size="10.00">TranslatorArabic</text>
</a>
</g>
</g>
<!-- Node14&#45;&gt;Node15 -->
<g id="edge14" class="edge">
<title>Node14&#45;&gt;Node15</title>
<path fill="none" stroke="#63b8ff" d="M197.72,-52.18C162,-42.27 110.87,-28.08 78.43,-19.08"/>
<polygon fill="#63b8ff" stroke="#63b8ff" points="197.24,-55.68 207.81,-54.98 199.11,-48.94 197.24,-55.68"/>
</g>
<!-- Node16 -->
<g id="node16" class="node">
<title>Node16</title>
<g id="a_node16"><a xlink:href="../../dc/d53/class_translator_lithuanian.html" target="_top" xlink:title=" ">
<polygon fill="white" stroke="#666666" points="229.5,-19 113.5,-19 113.5,0 229.5,0 229.5,-19"/>
<text text-anchor="middle" x="171.5" y="-7" font-family="Helvetica,sans-Serif" font-size="10.00">TranslatorLithuanian</text>
</a>
</g>
</g>
<!-- Node14&#45;&gt;Node16 -->
<g id="edge15" class="edge">
<title>Node14&#45;&gt;Node16</title>
<path fill="none" stroke="#63b8ff" d="M219.67,-48.6C207.66,-39.11 192.53,-27.13 182.46,-19.17"/>
<polygon fill="#63b8ff" stroke="#63b8ff" points="217.72,-51.53 227.74,-54.98 222.06,-46.04 217.72,-51.53"/>
</g>
<!-- Node17 -->
<g id="node17" class="node">
<title>Node17</title>
<g id="a_node17"><a xlink:href="../../dd/d38/class_translator_norwegian.html" target="_top" xlink:title=" ">
<polygon fill="white" stroke="#666666" points="365,-19 248,-19 248,0 365,0 365,-19"/>
<text text-anchor="middle" x="306.5" y="-7" font-family="Helvetica,sans-Serif" font-size="10.00">TranslatorNorwegian</text>
</a>
</g>
</g>
<!-- Node14&#45;&gt;Node17 -->
<g id="edge16" class="edge">
<title>Node14&#45;&gt;Node17</title>
<path fill="none" stroke="#63b8ff" d="M257.62,-48.6C269.8,-39.11 285.16,-27.13 295.38,-19.17"/>
<polygon fill="#63b8ff" stroke="#63b8ff" points="255.16,-46.08 249.43,-54.98 259.46,-51.6 255.16,-46.08"/>
</g>
<!-- Node18 -->
<g id="node18" class="node">
<title>Node18</title>
<g id="a_node18"><a xlink:href="../../dd/d0b/class_translator_slovene.html" target="_top" xlink:title=" ">
<polygon fill="white" stroke="#666666" points="487.5,-19 383.5,-19 383.5,0 487.5,0 487.5,-19"/>
<text text-anchor="middle" x="435.5" y="-7" font-family="Helvetica,sans-Serif" font-size="10.00">TranslatorSlovene</text>
</a>
</g>
</g>
<!-- Node14&#45;&gt;Node18 -->
<g id="edge17" class="edge">
<title>Node14&#45;&gt;Node18</title>
<path fill="none" stroke="#63b8ff" d="M280.09,-52.31C316.95,-42.39 370,-28.12 403.6,-19.08"/>
<polygon fill="#63b8ff" stroke="#63b8ff" points="278.9,-49.01 270.15,-54.98 280.72,-55.77 278.9,-49.01"/>
</g>
<!-- Node57 -->
<g id="node57" class="node">
<title>Node57</title>
<g id="a_node57"><a xlink:href="../../d0/d16/class_translator_japanese_en.html" target="_top" xlink:title=" ">
<polygon fill="white" stroke="#666666" points="2917,-679 2796,-679 2796,-660 2917,-660 2917,-679"/>
<text text-anchor="middle" x="2856.5" y="-667" font-family="Helvetica,sans-Serif" font-size="10.00">TranslatorJapaneseEn</text>
</a>
</g>
</g>
<!-- Node56&#45;&gt;Node57 -->
<g id="edge56" class="edge">
<title>Node56&#45;&gt;Node57</title>
<path fill="none" stroke="#63b8ff" d="M2889.77,-707.24C2881.36,-697.95 2871.15,-686.68 2864.28,-679.09"/>
<polygon fill="#63b8ff" stroke="#63b8ff" points="2887.27,-709.69 2896.57,-714.75 2892.46,-704.99 2887.27,-709.69"/>
</g>
<!-- Node58 -->
<g id="node58" class="node">
<title>Node58</title>
<g id="a_node58"><a xlink:href="../../d0/d3a/class_translator_korean_en.html" target="_top" xlink:title=" ">
<polygon fill="white" stroke="#666666" points="3045.5,-679 2935.5,-679 2935.5,-660 3045.5,-660 3045.5,-679"/>
<text text-anchor="middle" x="2990.5" y="-667" font-family="Helvetica,sans-Serif" font-size="10.00">TranslatorKoreanEn</text>
</a>
</g>
</g>
<!-- Node56&#45;&gt;Node58 -->
<g id="edge57" class="edge">
<title>Node56&#45;&gt;Node58</title>
<path fill="none" stroke="#63b8ff" d="M2926.9,-709.7C2942.57,-700.04 2963.01,-687.44 2976.43,-679.17"/>
<polygon fill="#63b8ff" stroke="#63b8ff" points="2924.99,-706.76 2918.32,-714.98 2928.67,-712.72 2924.99,-706.76"/>
</g>
</g>
</svg>
