<?xml version="1.0" encoding="UTF-8" standalone="no"?>
<!DOCTYPE svg PUBLIC "-//W3C//DTD SVG 1.1//EN"
 "http://www.w3.org/Graphics/SVG/1.1/DTD/svg11.dtd">
<!-- Generated by graphviz version 2.43.0 (0)
 -->
<!-- Title: CallContext::Ctx Pages: 1 -->
<svg width="253pt" height="162pt"
 viewBox="0.00 0.00 252.50 162.00" xmlns="http://www.w3.org/2000/svg" xmlns:xlink="http://www.w3.org/1999/xlink">
<g id="graph0" class="graph" transform="scale(1 1) rotate(0) translate(4 158)">
<title>CallContext::Ctx</title>
<!-- Node1 -->
<g id="node1" class="node">
<title>Node1</title>
<g id="a_node1"><a xlink:title=" ">
<polygon fill="#999999" stroke="#666666" points="96,-19 0,-19 0,0 96,0 96,-19"/>
<text text-anchor="middle" x="48" y="-7" font-family="Helvetica,sans-Serif" font-size="10.00">CallContext::Ctx</text>
</a>
</g>
</g>
<!-- Node2 -->
<g id="node2" class="node">
<title>Node2</title>
<g id="a_node2"><a xlink:href="../../d9/d45/class_q_c_string.html" target="_top" xlink:title="This is an alternative implementation of QCString.">
<polygon fill="white" stroke="#666666" points="73.5,-154 14.5,-154 14.5,-135 73.5,-135 73.5,-154"/>
<text text-anchor="middle" x="44" y="-142" font-family="Helvetica,sans-Serif" font-size="10.00">QCString</text>
</a>
</g>
</g>
<!-- Node2&#45;&gt;Node1 -->
<g id="edge1" class="edge">
<title>Node2&#45;&gt;Node1</title>
<path fill="none" stroke="#9a32cd" stroke-dasharray="5,2" d="M42.22,-124.91C40.98,-109.2 39.74,-86.11 41,-66 42.05,-49.33 44.85,-30.01 46.57,-19.12"/>
<polygon fill="#9a32cd" stroke="#9a32cd" points="38.74,-125.24 43.1,-134.89 45.71,-124.62 38.74,-125.24"/>
<text text-anchor="middle" x="56.5" y="-80" font-family="Helvetica,sans-Serif" font-size="10.00" fill="grey"> name</text>
<text text-anchor="middle" x="56.5" y="-69" font-family="Helvetica,sans-Serif" font-size="10.00" fill="grey">type</text>
</g>
<!-- Node3 -->
<g id="node3" class="node">
<title>Node3</title>
<g id="a_node3"><a xlink:href="../../de/ddb/class_scoped_type_variant.html" target="_top" xlink:title=" ">
<polygon fill="white" stroke="#666666" points="190.5,-86.5 81.5,-86.5 81.5,-67.5 190.5,-67.5 190.5,-86.5"/>
<text text-anchor="middle" x="136" y="-74.5" font-family="Helvetica,sans-Serif" font-size="10.00">ScopedTypeVariant</text>
</a>
</g>
</g>
<!-- Node2&#45;&gt;Node3 -->
<g id="edge3" class="edge">
<title>Node2&#45;&gt;Node3</title>
<path fill="none" stroke="#9a32cd" stroke-dasharray="5,2" d="M59.95,-127.76C67.52,-120.7 76.88,-112.5 86,-106 96.2,-98.72 108.48,-91.82 118.31,-86.7"/>
<polygon fill="#9a32cd" stroke="#9a32cd" points="57.34,-125.41 52.54,-134.86 62.18,-130.47 57.34,-125.41"/>
<text text-anchor="middle" x="109" y="-109" font-family="Helvetica,sans-Serif" font-size="10.00" fill="grey"> m_name</text>
</g>
<!-- Node3&#45;&gt;Node1 -->
<g id="edge2" class="edge">
<title>Node3&#45;&gt;Node1</title>
<path fill="none" stroke="#9a32cd" stroke-dasharray="5,2" d="M116.13,-61.21C98.67,-48.21 73.87,-29.76 59.51,-19.07"/>
<polygon fill="#9a32cd" stroke="#9a32cd" points="114.38,-64.27 124.5,-67.44 118.56,-58.66 114.38,-64.27"/>
<text text-anchor="middle" x="107.5" y="-40" font-family="Helvetica,sans-Serif" font-size="10.00" fill="grey"> stv</text>
</g>
<!-- Node4 -->
<g id="node4" class="node">
<title>Node4</title>
<g id="a_node4"><a xlink:href="../../d5/dcc/class_definition.html" target="_top" xlink:title="The common base class of all entity definitions found in the sources.">
<polygon fill="white" stroke="#666666" points="167,-154 103,-154 103,-135 167,-135 167,-154"/>
<text text-anchor="middle" x="135" y="-142" font-family="Helvetica,sans-Serif" font-size="10.00">Definition</text>
</a>
</g>
</g>
<!-- Node4&#45;&gt;Node3 -->
<g id="edge4" class="edge">
<title>Node4&#45;&gt;Node3</title>
<path fill="none" stroke="#9a32cd" stroke-dasharray="5,2" d="M135.29,-124.68C135.48,-112.21 135.72,-96.42 135.87,-86.77"/>
<polygon fill="#9a32cd" stroke="#9a32cd" points="131.78,-124.88 135.13,-134.94 138.78,-124.99 131.78,-124.88"/>
<text text-anchor="middle" x="161.5" y="-109" font-family="Helvetica,sans-Serif" font-size="10.00" fill="grey"> globalDef</text>
</g>
<!-- Node5 -->
<g id="node5" class="node">
<title>Node5</title>
<g id="a_node5"><a xlink:href="../../dc/db8/class_local_def.html" target="_top" xlink:title="Class representing a local class definition found while generating syntax highlighted code.">
<polygon fill="white" stroke="#666666" points="244.5,-154 185.5,-154 185.5,-135 244.5,-135 244.5,-154"/>
<text text-anchor="middle" x="215" y="-142" font-family="Helvetica,sans-Serif" font-size="10.00">LocalDef</text>
</a>
</g>
</g>
<!-- Node5&#45;&gt;Node3 -->
<g id="edge5" class="edge">
<title>Node5&#45;&gt;Node3</title>
<path fill="none" stroke="#9a32cd" stroke-dasharray="5,2" d="M206.21,-125.66C202.25,-118.9 197.08,-111.51 191,-106 181.87,-97.73 169.84,-91.24 159.37,-86.6"/>
<polygon fill="#9a32cd" stroke="#9a32cd" points="203.31,-127.67 211.12,-134.83 209.48,-124.36 203.31,-127.67"/>
<text text-anchor="middle" x="222" y="-109" font-family="Helvetica,sans-Serif" font-size="10.00" fill="grey"> localDef</text>
</g>
</g>
</svg>
