<?xml version="1.0" encoding="UTF-8" standalone="no"?>
<!DOCTYPE svg PUBLIC "-//W3C//DTD SVG 1.1//EN"
 "http://www.w3.org/Graphics/SVG/1.1/DTD/svg11.dtd">
<!-- Generated by graphviz version 2.43.0 (0)
 -->
<!-- Title: /home/runner/work/doxygen/doxygen/src/scopedtypevariant.h Pages: 1 -->
<!--zoomable 368 -->
<svg id="main" version="1.1" xmlns="http://www.w3.org/2000/svg" xmlns:xlink="http://www.w3.org/1999/xlink" xml:space="preserve" onload="init(evt)">
<style type="text/css"><![CDATA[
.edge:hover path { stroke: red; }
.edge:hover polygon { stroke: red; fill: red; }
]]></style>
<script type="text/javascript"><![CDATA[
var edges = document.getElementsByTagName('g');
if (edges && edges.length) {
  for (var i=0;i<edges.length;i++) {
    if (edges[i].id.substr(0,4)=='edge') {
      edges[i].setAttribute('class','edge');
    }
  }
}
]]></script>
        <defs>
                <circle id="rim" cx="0" cy="0" r="7"/>
                <circle id="rim2" cx="0" cy="0" r="3.5"/>
                <g id="zoomPlus">
                        <use xlink:href="#rim" fill="#404040">
                                <set attributeName="fill" to="#808080" begin="zoomplus.mouseover" end="zoomplus.mouseout"/>
                        </use>
                        <path d="M-4,0h8M0,-4v8" fill="none" stroke="white" stroke-width="1.5" pointer-events="none"/>
                </g>
                <g id="zoomMin">
                        <use xlink:href="#rim" fill="#404040">
                                <set attributeName="fill" to="#808080" begin="zoomminus.mouseover" end="zoomminus.mouseout"/>
                        </use>
                        <path d="M-4,0h8" fill="none" stroke="white" stroke-width="1.5" pointer-events="none"/>
                </g>
                <g id="dirArrow">
                        <path fill="none" stroke="white" stroke-width="1.5" d="M0,-3.0v7 M-2.5,-0.5L0,-3.0L2.5,-0.5"/>
                </g>
               <g id="resetDef">
                       <use xlink:href="#rim2" fill="#404040">
                               <set attributeName="fill" to="#808080" begin="reset.mouseover" end="reset.mouseout"/>
                       </use>
               </g>
        </defs>

<script type="text/javascript">
var viewWidth = 735;
var viewHeight = 368;
var sectionId = 'dynsection-0';
</script>
<script xlink:href="../../svgpan.js"/>
<svg id="graph" class="graph">
<g id="viewport">
<title>/home/runner/work/doxygen/doxygen/src/scopedtypevariant.h</title>
<!-- Node1 -->
<g id="node1" class="node">
<title>Node1</title>
<g id="a_node1"><a xlink:title=" ">
<polygon fill="#999999" stroke="#666666" points="494,-360 312,-360 312,-330 494,-330 494,-360"/>
<text text-anchor="start" x="320" y="-348" font-family="Helvetica,sans-Serif" font-size="10.00">/home/runner/work/doxygen</text>
<text text-anchor="middle" x="403" y="-337" font-family="Helvetica,sans-Serif" font-size="10.00">/doxygen/src/scopedtypevariant.h</text>
</a>
</g>
</g>
<!-- Node2 -->
<g id="node2" class="node">
<title>Node2</title>
<g id="a_node2"><a xlink:title=" ">
<polygon fill="#e0e0e0" stroke="#999999" points="293.5,-294 248.5,-294 248.5,-275 293.5,-275 293.5,-294"/>
<text text-anchor="middle" x="271" y="-282" font-family="Helvetica,sans-Serif" font-size="10.00">utility</text>
</a>
</g>
</g>
<!-- Node1&#45;&gt;Node2 -->
<g id="edge1" class="edge">
<title>Node1&#45;&gt;Node2</title>
<path fill="none" stroke="#63b8ff" d="M371.38,-329.99C349.65,-320.36 321.03,-307.67 299.91,-298.31"/>
<polygon fill="#63b8ff" stroke="#63b8ff" points="301.05,-294.99 290.49,-294.14 298.22,-301.39 301.05,-294.99"/>
</g>
<!-- Node3 -->
<g id="node3" class="node">
<title>Node3</title>
<g id="a_node3"><a xlink:title=" ">
<polygon fill="#e0e0e0" stroke="#999999" points="726.5,-129 679.5,-129 679.5,-110 726.5,-110 726.5,-129"/>
<text text-anchor="middle" x="703" y="-117" font-family="Helvetica,sans-Serif" font-size="10.00">vector</text>
</a>
</g>
</g>
<!-- Node1&#45;&gt;Node3 -->
<g id="edge2" class="edge">
<title>Node1&#45;&gt;Node3</title>
<path fill="none" stroke="#63b8ff" d="M435.58,-329.87C487.9,-305.94 591.69,-253.2 660,-184 673.7,-170.12 685.8,-151.34 693.64,-137.81"/>
<polygon fill="#63b8ff" stroke="#63b8ff" points="696.73,-139.46 698.57,-129.03 690.62,-136.04 696.73,-139.46"/>
</g>
<!-- Node4 -->
<g id="node4" class="node">
<title>Node4</title>
<g id="a_node4"><a xlink:href="../../d7/d5c/qcstring_8h.html" target="_top" xlink:title=" ">
<polygon fill="white" stroke="#666666" points="359.5,-129 294.5,-129 294.5,-110 359.5,-110 359.5,-129"/>
<text text-anchor="middle" x="327" y="-117" font-family="Helvetica,sans-Serif" font-size="10.00">qcstring.h</text>
</a>
</g>
</g>
<!-- Node1&#45;&gt;Node4 -->
<g id="edge3" class="edge">
<title>Node1&#45;&gt;Node4</title>
<path fill="none" stroke="#63b8ff" d="M396.6,-329.7C384.42,-302.03 357.63,-239.04 341,-184 336.51,-169.12 332.8,-151.88 330.33,-139.12"/>
<polygon fill="#63b8ff" stroke="#63b8ff" points="333.76,-138.43 328.49,-129.24 326.88,-139.71 333.76,-138.43"/>
</g>
<!-- Node14 -->
<g id="node14" class="node">
<title>Node14</title>
<g id="a_node14"><a xlink:href="../../df/da1/definition_8h.html" target="_top" xlink:title=" ">
<polygon fill="white" stroke="#666666" points="493.5,-294 422.5,-294 422.5,-275 493.5,-275 493.5,-294"/>
<text text-anchor="middle" x="458" y="-282" font-family="Helvetica,sans-Serif" font-size="10.00">definition.h</text>
</a>
</g>
</g>
<!-- Node1&#45;&gt;Node14 -->
<g id="edge15" class="edge">
<title>Node1&#45;&gt;Node14</title>
<path fill="none" stroke="#63b8ff" d="M416.31,-329.84C424.3,-321.35 434.48,-310.52 442.78,-301.69"/>
<polygon fill="#63b8ff" stroke="#63b8ff" points="445.46,-303.95 449.76,-294.27 440.36,-299.15 445.46,-303.95"/>
</g>
<!-- Node5 -->
<g id="node5" class="node">
<title>Node5</title>
<g id="a_node5"><a xlink:title=" ">
<polygon fill="#e0e0e0" stroke="#999999" points="344,-19 300,-19 300,0 344,0 344,-19"/>
<text text-anchor="middle" x="322" y="-7" font-family="Helvetica,sans-Serif" font-size="10.00">string</text>
</a>
</g>
</g>
<!-- Node4&#45;&gt;Node5 -->
<g id="edge4" class="edge">
<title>Node4&#45;&gt;Node5</title>
<path fill="none" stroke="#63b8ff" d="M320.9,-109.8C315.25,-101.17 307.25,-87.35 304,-74 300.2,-58.36 305.99,-40.77 311.99,-28.07"/>
<polygon fill="#63b8ff" stroke="#63b8ff" points="315.16,-29.56 316.66,-19.07 308.95,-26.33 315.16,-29.56"/>
</g>
<!-- Node6 -->
<g id="node6" class="node">
<title>Node6</title>
<g id="a_node6"><a xlink:title=" ">
<polygon fill="#e0e0e0" stroke="#999999" points="547,-74 483,-74 483,-55 547,-55 547,-74"/>
<text text-anchor="middle" x="515" y="-62" font-family="Helvetica,sans-Serif" font-size="10.00">algorithm</text>
</a>
</g>
</g>
<!-- Node4&#45;&gt;Node6 -->
<g id="edge5" class="edge">
<title>Node4&#45;&gt;Node6</title>
<path fill="none" stroke="#63b8ff" d="M357.21,-109.98C389.04,-101.01 439.36,-86.82 474.6,-76.89"/>
<polygon fill="#63b8ff" stroke="#63b8ff" points="475.88,-80.16 484.56,-74.08 473.98,-73.43 475.88,-80.16"/>
</g>
<!-- Node7 -->
<g id="node7" class="node">
<title>Node7</title>
<g id="a_node7"><a xlink:title=" ">
<polygon fill="#e0e0e0" stroke="#999999" points="464.5,-74 415.5,-74 415.5,-55 464.5,-55 464.5,-74"/>
<text text-anchor="middle" x="440" y="-62" font-family="Helvetica,sans-Serif" font-size="10.00">cctype</text>
</a>
</g>
</g>
<!-- Node4&#45;&gt;Node7 -->
<g id="edge6" class="edge">
<title>Node4&#45;&gt;Node7</title>
<path fill="none" stroke="#63b8ff" d="M345.16,-109.98C363.25,-101.5 391.28,-88.35 412.19,-78.54"/>
<polygon fill="#63b8ff" stroke="#63b8ff" points="413.95,-81.59 421.51,-74.17 410.97,-75.25 413.95,-81.59"/>
</g>
<!-- Node8 -->
<g id="node8" class="node">
<title>Node8</title>
<g id="a_node8"><a xlink:title=" ">
<polygon fill="#e0e0e0" stroke="#999999" points="50,-74 0,-74 0,-55 50,-55 50,-74"/>
<text text-anchor="middle" x="25" y="-62" font-family="Helvetica,sans-Serif" font-size="10.00">cstring</text>
</a>
</g>
</g>
<!-- Node4&#45;&gt;Node8 -->
<g id="edge7" class="edge">
<title>Node4&#45;&gt;Node8</title>
<path fill="none" stroke="#63b8ff" d="M294.25,-113.93C245.38,-106.92 150.27,-92.56 60.04,-74.08"/>
<polygon fill="#63b8ff" stroke="#63b8ff" points="60.7,-70.64 50.2,-72.04 59.28,-77.49 60.7,-70.64"/>
</g>
<!-- Node9 -->
<g id="node9" class="node">
<title>Node9</title>
<g id="a_node9"><a xlink:title=" ">
<polygon fill="#e0e0e0" stroke="#999999" points="114,-74 68,-74 68,-55 114,-55 114,-74"/>
<text text-anchor="middle" x="91" y="-62" font-family="Helvetica,sans-Serif" font-size="10.00">cstdio</text>
</a>
</g>
</g>
<!-- Node4&#45;&gt;Node9 -->
<g id="edge8" class="edge">
<title>Node4&#45;&gt;Node9</title>
<path fill="none" stroke="#63b8ff" d="M294.39,-111.86C255.92,-103.92 189.82,-89.95 123.78,-74.1"/>
<polygon fill="#63b8ff" stroke="#63b8ff" points="124.58,-70.7 114.04,-71.75 122.94,-77.5 124.58,-70.7"/>
</g>
<!-- Node10 -->
<g id="node10" class="node">
<title>Node10</title>
<g id="a_node10"><a xlink:title=" ">
<polygon fill="#e0e0e0" stroke="#999999" points="181.5,-74 132.5,-74 132.5,-55 181.5,-55 181.5,-74"/>
<text text-anchor="middle" x="157" y="-62" font-family="Helvetica,sans-Serif" font-size="10.00">cstdlib</text>
</a>
</g>
</g>
<!-- Node4&#45;&gt;Node10 -->
<g id="edge9" class="edge">
<title>Node4&#45;&gt;Node10</title>
<path fill="none" stroke="#63b8ff" d="M299.69,-109.98C270.3,-100.82 223.49,-86.23 191.56,-76.27"/>
<polygon fill="#63b8ff" stroke="#63b8ff" points="192.35,-72.85 181.76,-73.22 190.26,-79.54 192.35,-72.85"/>
</g>
<!-- Node11 -->
<g id="node11" class="node">
<title>Node11</title>
<g id="a_node11"><a xlink:title=" ">
<polygon fill="#e0e0e0" stroke="#999999" points="412,-19 362,-19 362,0 412,0 412,-19"/>
<text text-anchor="middle" x="387" y="-7" font-family="Helvetica,sans-Serif" font-size="10.00">cstdint</text>
</a>
</g>
</g>
<!-- Node4&#45;&gt;Node11 -->
<g id="edge10" class="edge">
<title>Node4&#45;&gt;Node11</title>
<path fill="none" stroke="#63b8ff" d="M336.86,-109.88C345.87,-101.52 358.97,-88.07 367,-74 375.06,-59.88 380.3,-42.12 383.38,-28.97"/>
<polygon fill="#63b8ff" stroke="#63b8ff" points="386.81,-29.7 385.49,-19.19 379.96,-28.23 386.81,-29.7"/>
</g>
<!-- Node12 -->
<g id="node12" class="node">
<title>Node12</title>
<g id="a_node12"><a xlink:title=" ">
<polygon fill="#e0e0e0" stroke="#999999" points="256.5,-74 199.5,-74 199.5,-55 256.5,-55 256.5,-74"/>
<text text-anchor="middle" x="228" y="-62" font-family="Helvetica,sans-Serif" font-size="10.00">ostream</text>
</a>
</g>
</g>
<!-- Node4&#45;&gt;Node12 -->
<g id="edge11" class="edge">
<title>Node4&#45;&gt;Node12</title>
<path fill="none" stroke="#63b8ff" d="M311.09,-109.98C295.45,-101.61 271.34,-88.7 253.12,-78.95"/>
<polygon fill="#63b8ff" stroke="#63b8ff" points="254.66,-75.8 244.2,-74.17 251.36,-81.98 254.66,-75.8"/>
</g>
<!-- Node13 -->
<g id="node13" class="node">
<title>Node13</title>
<g id="a_node13"><a xlink:href="../../db/d7c/utf8_8h.html" target="_top" xlink:title="Various UTF8 related helper functions.">
<polygon fill="white" stroke="#666666" points="358.5,-74 313.5,-74 313.5,-55 358.5,-55 358.5,-74"/>
<text text-anchor="middle" x="336" y="-62" font-family="Helvetica,sans-Serif" font-size="10.00">utf8.h</text>
</a>
</g>
</g>
<!-- Node4&#45;&gt;Node13 -->
<g id="edge12" class="edge">
<title>Node4&#45;&gt;Node13</title>
<path fill="none" stroke="#63b8ff" d="M328.49,-109.75C329.67,-102.8 331.36,-92.85 332.84,-84.13"/>
<polygon fill="#63b8ff" stroke="#63b8ff" points="336.32,-84.53 334.54,-74.09 329.42,-83.36 336.32,-84.53"/>
</g>
<!-- Node13&#45;&gt;Node5 -->
<g id="edge14" class="edge">
<title>Node13&#45;&gt;Node5</title>
<path fill="none" stroke="#63b8ff" d="M333.69,-54.75C331.83,-47.72 329.16,-37.62 326.85,-28.84"/>
<polygon fill="#63b8ff" stroke="#63b8ff" points="330.21,-27.86 324.27,-19.09 323.44,-29.65 330.21,-27.86"/>
</g>
<!-- Node13&#45;&gt;Node11 -->
<g id="edge13" class="edge">
<title>Node13&#45;&gt;Node11</title>
<path fill="none" stroke="#63b8ff" d="M344.42,-54.75C351.77,-47.11 362.63,-35.82 371.54,-26.56"/>
<polygon fill="#63b8ff" stroke="#63b8ff" points="374.32,-28.72 378.74,-19.09 369.28,-23.87 374.32,-28.72"/>
</g>
<!-- Node14&#45;&gt;Node3 -->
<g id="edge16" class="edge">
<title>Node14&#45;&gt;Node3</title>
<path fill="none" stroke="#63b8ff" d="M477.15,-274.93C510.81,-259.4 582.06,-224.45 635,-184 654.13,-169.38 674.04,-150.26 687.33,-136.83"/>
<polygon fill="#63b8ff" stroke="#63b8ff" points="690.21,-138.9 694.69,-129.3 685.2,-134.01 690.21,-138.9"/>
</g>
<!-- Node15 -->
<g id="node15" class="node">
<title>Node15</title>
<g id="a_node15"><a xlink:href="../../d9/d49/types_8h.html" target="_top" xlink:title="This file contains a number of basic enums and types.">
<polygon fill="white" stroke="#666666" points="403.5,-184 350.5,-184 350.5,-165 403.5,-165 403.5,-184"/>
<text text-anchor="middle" x="377" y="-172" font-family="Helvetica,sans-Serif" font-size="10.00">types.h</text>
</a>
</g>
</g>
<!-- Node14&#45;&gt;Node15 -->
<g id="edge17" class="edge">
<title>Node14&#45;&gt;Node15</title>
<path fill="none" stroke="#63b8ff" d="M451.37,-274.66C437.9,-256.69 407.11,-215.64 389.66,-192.38"/>
<polygon fill="#63b8ff" stroke="#63b8ff" points="392.29,-190.06 383.49,-184.16 386.69,-194.26 392.29,-190.06"/>
</g>
<!-- Node16 -->
<g id="node16" class="node">
<title>Node16</title>
<g id="a_node16"><a xlink:href="../../d1/d02/reflist_8h.html" target="_top" xlink:title=" ">
<polygon fill="white" stroke="#666666" points="537.5,-239 484.5,-239 484.5,-220 537.5,-220 537.5,-239"/>
<text text-anchor="middle" x="511" y="-227" font-family="Helvetica,sans-Serif" font-size="10.00">reflist.h</text>
</a>
</g>
</g>
<!-- Node14&#45;&gt;Node16 -->
<g id="edge19" class="edge">
<title>Node14&#45;&gt;Node16</title>
<path fill="none" stroke="#63b8ff" d="M466.75,-274.75C474.47,-267.03 485.9,-255.6 495.22,-246.28"/>
<polygon fill="#63b8ff" stroke="#63b8ff" points="497.81,-248.64 502.41,-239.09 492.86,-243.69 497.81,-248.64"/>
</g>
<!-- Node15&#45;&gt;Node4 -->
<g id="edge18" class="edge">
<title>Node15&#45;&gt;Node4</title>
<path fill="none" stroke="#63b8ff" d="M368.74,-164.75C361.54,-157.11 350.89,-145.82 342.15,-136.56"/>
<polygon fill="#63b8ff" stroke="#63b8ff" points="344.51,-133.96 335.1,-129.09 339.42,-138.76 344.51,-133.96"/>
</g>
<!-- Node16&#45;&gt;Node3 -->
<g id="edge20" class="edge">
<title>Node16&#45;&gt;Node3</title>
<path fill="none" stroke="#63b8ff" d="M531.67,-219.99C551.42,-211.61 581.82,-198.06 607,-184 634.26,-168.78 664.01,-148.48 683.05,-134.98"/>
<polygon fill="#63b8ff" stroke="#63b8ff" points="685.14,-137.78 691.24,-129.12 681.07,-132.09 685.14,-137.78"/>
</g>
<!-- Node16&#45;&gt;Node4 -->
<g id="edge23" class="edge">
<title>Node16&#45;&gt;Node4</title>
<path fill="none" stroke="#63b8ff" d="M498.41,-219.92C479.81,-207.36 443.78,-183.46 412,-165 392.86,-153.88 370.68,-142.31 353.78,-133.76"/>
<polygon fill="#63b8ff" stroke="#63b8ff" points="355.01,-130.46 344.5,-129.09 351.86,-136.71 355.01,-130.46"/>
</g>
<!-- Node17 -->
<g id="node17" class="node">
<title>Node17</title>
<g id="a_node17"><a xlink:title=" ">
<polygon fill="#e0e0e0" stroke="#999999" points="470.5,-129 377.5,-129 377.5,-110 470.5,-110 470.5,-129"/>
<text text-anchor="middle" x="424" y="-117" font-family="Helvetica,sans-Serif" font-size="10.00">unordered_map</text>
</a>
</g>
</g>
<!-- Node16&#45;&gt;Node17 -->
<g id="edge21" class="edge">
<title>Node16&#45;&gt;Node17</title>
<path fill="none" stroke="#63b8ff" d="M503.88,-219.66C489.34,-201.61 456.04,-160.28 437.35,-137.08"/>
<polygon fill="#63b8ff" stroke="#63b8ff" points="439.97,-134.75 430.97,-129.16 434.52,-139.14 439.97,-134.75"/>
</g>
<!-- Node18 -->
<g id="node18" class="node">
<title>Node18</title>
<g id="a_node18"><a xlink:title=" ">
<polygon fill="#e0e0e0" stroke="#999999" points="661,-129 603,-129 603,-110 661,-110 661,-129"/>
<text text-anchor="middle" x="632" y="-117" font-family="Helvetica,sans-Serif" font-size="10.00">memory</text>
</a>
</g>
</g>
<!-- Node16&#45;&gt;Node18 -->
<g id="edge22" class="edge">
<title>Node16&#45;&gt;Node18</title>
<path fill="none" stroke="#63b8ff" d="M529.07,-219.93C544.67,-211.99 567.27,-199.14 584,-184 599.01,-170.42 612.55,-151.6 621.4,-137.97"/>
<polygon fill="#63b8ff" stroke="#63b8ff" points="624.6,-139.45 626.96,-129.12 618.68,-135.72 624.6,-139.45"/>
</g>
<!-- Node19 -->
<g id="node19" class="node">
<title>Node19</title>
<g id="a_node19"><a xlink:href="../../da/de1/linkedmap_8h.html" target="_top" xlink:title=" ">
<polygon fill="white" stroke="#666666" points="575.5,-184 498.5,-184 498.5,-165 575.5,-165 575.5,-184"/>
<text text-anchor="middle" x="537" y="-172" font-family="Helvetica,sans-Serif" font-size="10.00">linkedmap.h</text>
</a>
</g>
</g>
<!-- Node16&#45;&gt;Node19 -->
<g id="edge24" class="edge">
<title>Node16&#45;&gt;Node19</title>
<path fill="none" stroke="#63b8ff" d="M515.29,-219.75C518.81,-212.57 523.91,-202.18 528.28,-193.27"/>
<polygon fill="#63b8ff" stroke="#63b8ff" points="531.52,-194.61 532.79,-184.09 525.24,-191.53 531.52,-194.61"/>
</g>
<!-- Node19&#45;&gt;Node3 -->
<g id="edge26" class="edge">
<title>Node19&#45;&gt;Node3</title>
<path fill="none" stroke="#63b8ff" d="M563.67,-164.98C592.53,-155.77 638.6,-141.06 669.79,-131.1"/>
<polygon fill="#63b8ff" stroke="#63b8ff" points="670.89,-134.43 679.35,-128.05 668.76,-127.76 670.89,-134.43"/>
</g>
<!-- Node19&#45;&gt;Node4 -->
<g id="edge31" class="edge">
<title>Node19&#45;&gt;Node4</title>
<path fill="none" stroke="#63b8ff" d="M503.26,-164.98C466.89,-155.81 408.92,-141.18 369.47,-131.22"/>
<polygon fill="#63b8ff" stroke="#63b8ff" points="370.17,-127.79 359.62,-128.73 368.46,-134.57 370.17,-127.79"/>
</g>
<!-- Node19&#45;&gt;Node5 -->
<g id="edge28" class="edge">
<title>Node19&#45;&gt;Node5</title>
<path fill="none" stroke="#63b8ff" d="M542.41,-164.85C555.03,-143.48 583.31,-87.57 556,-55 528.29,-21.95 412.46,-28.14 354.42,-18.81"/>
<polygon fill="#63b8ff" stroke="#63b8ff" points="354.77,-15.32 344.29,-16.88 353.45,-22.19 354.77,-15.32"/>
</g>
<!-- Node19&#45;&gt;Node6 -->
<g id="edge29" class="edge">
<title>Node19&#45;&gt;Node6</title>
<path fill="none" stroke="#63b8ff" d="M535.2,-164.66C531.64,-147.17 523.62,-107.8 518.82,-84.27"/>
<polygon fill="#63b8ff" stroke="#63b8ff" points="522.19,-83.26 516.76,-74.16 515.33,-84.66 522.19,-83.26"/>
</g>
<!-- Node19&#45;&gt;Node7 -->
<g id="edge30" class="edge">
<title>Node19&#45;&gt;Node7</title>
<path fill="none" stroke="#63b8ff" d="M529.06,-164.66C512.78,-146.54 475.4,-104.91 454.61,-81.77"/>
<polygon fill="#63b8ff" stroke="#63b8ff" points="457.06,-79.26 447.78,-74.16 451.85,-83.94 457.06,-79.26"/>
</g>
<!-- Node19&#45;&gt;Node17 -->
<g id="edge25" class="edge">
<title>Node19&#45;&gt;Node17</title>
<path fill="none" stroke="#63b8ff" d="M518.84,-164.98C500.75,-156.5 472.72,-143.35 451.81,-133.54"/>
<polygon fill="#63b8ff" stroke="#63b8ff" points="453.03,-130.25 442.49,-129.17 450.05,-136.59 453.03,-130.25"/>
</g>
<!-- Node19&#45;&gt;Node18 -->
<g id="edge27" class="edge">
<title>Node19&#45;&gt;Node18</title>
<path fill="none" stroke="#63b8ff" d="M552.26,-164.98C567.13,-156.69 589.98,-143.94 607.42,-134.22"/>
<polygon fill="#63b8ff" stroke="#63b8ff" points="609.43,-137.1 616.46,-129.17 606.02,-130.99 609.43,-137.1"/>
</g>
</g>
</svg>
        <g id="navigator" transform="translate(0 0)" fill="#404254">
                <rect fill="#f2f5e9" fill-opacity="0.5" stroke="#606060" stroke-width=".5" x="0" y="0" width="60" height="60"/>
                <use id="zoomplus" xlink:href="#zoomPlus" x="17" y="9" onmousedown="handleZoom(evt,'in')"/>
                <use id="zoomminus" xlink:href="#zoomMin" x="42" y="9" onmousedown="handleZoom(evt,'out')"/>
                <use id="reset" xlink:href="#resetDef" x="30" y="36" onmousedown="handleReset()"/>
                <g id="arrowUp" xlink:href="#dirArrow" transform="translate(30 24)" onmousedown="handlePan(0,-1)">
                  <use xlink:href="#rim" fill="#404040">
                        <set attributeName="fill" to="#808080" begin="arrowUp.mouseover" end="arrowUp.mouseout"/>
                  </use>
                  <path fill="none" stroke="white" stroke-width="1.5" d="M0,-3.0v7 M-2.5,-0.5L0,-3.0L2.5,-0.5"/>
                </g>
                <g id="arrowRight" xlink:href="#dirArrow" transform="rotate(90) translate(36 -43)" onmousedown="handlePan(1,0)">
                  <use xlink:href="#rim" fill="#404040">
                        <set attributeName="fill" to="#808080" begin="arrowRight.mouseover" end="arrowRight.mouseout"/>
                  </use>
                  <path fill="none" stroke="white" stroke-width="1.5" d="M0,-3.0v7 M-2.5,-0.5L0,-3.0L2.5,-0.5"/>
                </g>
                <g id="arrowDown" xlink:href="#dirArrow" transform="rotate(180) translate(-30 -48)" onmousedown="handlePan(0,1)">
                  <use xlink:href="#rim" fill="#404040">
                        <set attributeName="fill" to="#808080" begin="arrowDown.mouseover" end="arrowDown.mouseout"/>
                  </use>
                  <path fill="none" stroke="white" stroke-width="1.5" d="M0,-3.0v7 M-2.5,-0.5L0,-3.0L2.5,-0.5"/>
                </g>
                <g id="arrowLeft" xlink:href="#dirArrow" transform="rotate(270) translate(-36 17)" onmousedown="handlePan(-1,0)">
                  <use xlink:href="#rim" fill="#404040">
                        <set attributeName="fill" to="#808080" begin="arrowLeft.mouseover" end="arrowLeft.mouseout"/>
                  </use>
                  <path fill="none" stroke="white" stroke-width="1.5" d="M0,-3.0v7 M-2.5,-0.5L0,-3.0L2.5,-0.5"/>
                </g>
        </g>
        <svg viewBox="0 0 15 15" width="100%" height="30px" preserveAspectRatio="xMaxYMin meet">
         <g id="arrow_out" transform="scale(0.3 0.3)">
          <a xlink:href="scopedtypevariant_8h__incl_org.svg" target="_base">
           <rect id="button" ry="5" rx="5" y="6" x="6" height="38" width="38"
                fill="#f2f5e9" fill-opacity="0.5" stroke="#606060" stroke-width="1.0"/>
           <path id="arrow"
             d="M 11.500037,31.436501 C 11.940474,20.09759 22.043105,11.32322 32.158766,21.979434 L 37.068811,17.246167 C 37.068811,17.246167 37.088388,32 37.088388,32 L 22.160133,31.978069 C 22.160133,31.978069 26.997745,27.140456 26.997745,27.140456 C 18.528582,18.264221 13.291696,25.230495 11.500037,31.436501 z"
             style="fill:#404040;"/>
          </a>
         </g>
        </svg>
</svg>
