<?xml version="1.0" encoding="UTF-8" standalone="no"?>
<!DOCTYPE svg PUBLIC "-//W3C//DTD SVG 1.1//EN"
 "http://www.w3.org/Graphics/SVG/1.1/DTD/svg11.dtd">
<!-- Generated by graphviz version 2.43.0 (0)
 -->
<!-- Title: /home/runner/work/doxygen/doxygen/src/printdocvisitor.h Pages: 1 -->
<!--zoomable 258 -->
<svg id="main" version="1.1" xmlns="http://www.w3.org/2000/svg" xmlns:xlink="http://www.w3.org/1999/xlink" xml:space="preserve" onload="init(evt)">
<style type="text/css"><![CDATA[
.edge:hover path { stroke: red; }
.edge:hover polygon { stroke: red; fill: red; }
]]></style>
<script type="text/javascript"><![CDATA[
var edges = document.getElementsByTagName('g');
if (edges && edges.length) {
  for (var i=0;i<edges.length;i++) {
    if (edges[i].id.substr(0,4)=='edge') {
      edges[i].setAttribute('class','edge');
    }
  }
}
]]></script>
        <defs>
                <circle id="rim" cx="0" cy="0" r="7"/>
                <circle id="rim2" cx="0" cy="0" r="3.5"/>
                <g id="zoomPlus">
                        <use xlink:href="#rim" fill="#404040">
                                <set attributeName="fill" to="#808080" begin="zoomplus.mouseover" end="zoomplus.mouseout"/>
                        </use>
                        <path d="M-4,0h8M0,-4v8" fill="none" stroke="white" stroke-width="1.5" pointer-events="none"/>
                </g>
                <g id="zoomMin">
                        <use xlink:href="#rim" fill="#404040">
                                <set attributeName="fill" to="#808080" begin="zoomminus.mouseover" end="zoomminus.mouseout"/>
                        </use>
                        <path d="M-4,0h8" fill="none" stroke="white" stroke-width="1.5" pointer-events="none"/>
                </g>
                <g id="dirArrow">
                        <path fill="none" stroke="white" stroke-width="1.5" d="M0,-3.0v7 M-2.5,-0.5L0,-3.0L2.5,-0.5"/>
                </g>
               <g id="resetDef">
                       <use xlink:href="#rim2" fill="#404040">
                               <set attributeName="fill" to="#808080" begin="reset.mouseover" end="reset.mouseout"/>
                       </use>
               </g>
        </defs>

<script type="text/javascript">
var viewWidth = 662;
var viewHeight = 258;
var sectionId = 'dynsection-0';
</script>
<script xlink:href="../../svgpan.js"/>
<svg id="graph" class="graph">
<g id="viewport">
<title>/home/runner/work/doxygen/doxygen/src/printdocvisitor.h</title>
<!-- Node1 -->
<g id="node1" class="node">
<title>Node1</title>
<g id="a_node1"><a xlink:title=" ">
<polygon fill="#999999" stroke="#666666" points="520.62,-250 359.62,-250 359.62,-220 520.62,-220 520.62,-250"/>
<text text-anchor="start" x="367.62" y="-238" font-family="Helvetica,sans-Serif" font-size="10.00">/home/runner/work/doxygen</text>
<text text-anchor="middle" x="440.12" y="-227" font-family="Helvetica,sans-Serif" font-size="10.00">/doxygen/src/printdocvisitor.h</text>
</a>
</g>
</g>
<!-- Node2 -->
<g id="node2" class="node">
<title>Node2</title>
<g id="a_node2"><a xlink:href="../../db/dc6/htmlentity_8h.html" target="_top" xlink:title=" ">
<polygon fill="white" stroke="#666666" points="477.62,-184 402.62,-184 402.62,-165 477.62,-165 477.62,-184"/>
<text text-anchor="middle" x="440.12" y="-172" font-family="Helvetica,sans-Serif" font-size="10.00">htmlentity.h</text>
</a>
</g>
</g>
<!-- Node1&#45;&gt;Node2 -->
<g id="edge1" class="edge">
<title>Node1&#45;&gt;Node2</title>
<path fill="none" stroke="#63b8ff" d="M440.12,-219.84C440.12,-212.21 440.12,-202.7 440.12,-194.45"/>
<polygon fill="#63b8ff" stroke="#63b8ff" points="443.62,-194.27 440.12,-184.27 436.62,-194.27 443.62,-194.27"/>
</g>
<!-- Node14 -->
<g id="node14" class="node">
<title>Node14</title>
<g id="a_node14"><a xlink:href="../../d6/dd3/emoji_8h.html" target="_top" xlink:title=" ">
<polygon fill="white" stroke="#666666" points="614.62,-184 561.62,-184 561.62,-165 614.62,-165 614.62,-184"/>
<text text-anchor="middle" x="588.12" y="-172" font-family="Helvetica,sans-Serif" font-size="10.00">emoji.h</text>
</a>
</g>
</g>
<!-- Node1&#45;&gt;Node14 -->
<g id="edge16" class="edge">
<title>Node1&#45;&gt;Node14</title>
<path fill="none" stroke="#63b8ff" d="M475.57,-219.99C500.26,-210.23 532.9,-197.33 556.67,-187.93"/>
<polygon fill="#63b8ff" stroke="#63b8ff" points="558.25,-191.07 566.26,-184.14 555.68,-184.56 558.25,-191.07"/>
</g>
<!-- Node16 -->
<g id="node16" class="node">
<title>Node16</title>
<g id="a_node16"><a xlink:href="../../d2/d0d/message_8h.html" target="_top" xlink:title=" ">
<polygon fill="white" stroke="#666666" points="344.12,-184 274.12,-184 274.12,-165 344.12,-165 344.12,-184"/>
<text text-anchor="middle" x="309.12" y="-172" font-family="Helvetica,sans-Serif" font-size="10.00">message.h</text>
</a>
</g>
</g>
<!-- Node1&#45;&gt;Node16 -->
<g id="edge19" class="edge">
<title>Node1&#45;&gt;Node16</title>
<path fill="none" stroke="#63b8ff" d="M408.74,-219.99C387.18,-210.36 358.77,-197.67 337.81,-188.31"/>
<polygon fill="#63b8ff" stroke="#63b8ff" points="339.02,-185.02 328.47,-184.14 336.17,-191.41 339.02,-185.02"/>
</g>
<!-- Node3 -->
<g id="node3" class="node">
<title>Node3</title>
<g id="a_node3"><a xlink:title=" ">
<polygon fill="#e0e0e0" stroke="#999999" points="486.62,-129 393.62,-129 393.62,-110 486.62,-110 486.62,-129"/>
<text text-anchor="middle" x="440.12" y="-117" font-family="Helvetica,sans-Serif" font-size="10.00">unordered_map</text>
</a>
</g>
</g>
<!-- Node2&#45;&gt;Node3 -->
<g id="edge2" class="edge">
<title>Node2&#45;&gt;Node3</title>
<path fill="none" stroke="#63b8ff" d="M440.12,-164.75C440.12,-157.8 440.12,-147.85 440.12,-139.13"/>
<polygon fill="#63b8ff" stroke="#63b8ff" points="443.62,-139.09 440.12,-129.09 436.62,-139.09 443.62,-139.09"/>
</g>
<!-- Node4 -->
<g id="node4" class="node">
<title>Node4</title>
<g id="a_node4"><a xlink:title=" ">
<polygon fill="#e0e0e0" stroke="#999999" points="553.12,-19 509.12,-19 509.12,0 553.12,0 553.12,-19"/>
<text text-anchor="middle" x="531.12" y="-7" font-family="Helvetica,sans-Serif" font-size="10.00">string</text>
</a>
</g>
</g>
<!-- Node2&#45;&gt;Node4 -->
<g id="edge3" class="edge">
<title>Node2&#45;&gt;Node4</title>
<path fill="none" stroke="#63b8ff" d="M454.61,-164.96C466.92,-157.04 484.28,-144.2 495.12,-129 517,-98.33 525.8,-54.12 529.17,-29.28"/>
<polygon fill="#63b8ff" stroke="#63b8ff" points="532.67,-29.41 530.39,-19.07 525.72,-28.58 532.67,-29.41"/>
</g>
<!-- Node5 -->
<g id="node5" class="node">
<title>Node5</title>
<g id="a_node5"><a xlink:href="../../d7/d5c/qcstring_8h.html" target="_top" xlink:title=" ">
<polygon fill="white" stroke="#666666" points="341.62,-129 276.62,-129 276.62,-110 341.62,-110 341.62,-129"/>
<text text-anchor="middle" x="309.12" y="-117" font-family="Helvetica,sans-Serif" font-size="10.00">qcstring.h</text>
</a>
</g>
</g>
<!-- Node2&#45;&gt;Node5 -->
<g id="edge4" class="edge">
<title>Node2&#45;&gt;Node5</title>
<path fill="none" stroke="#63b8ff" d="M419.07,-164.98C397.71,-156.34 364.42,-142.87 340.06,-133.02"/>
<polygon fill="#63b8ff" stroke="#63b8ff" points="341.13,-129.68 330.55,-129.17 338.51,-136.17 341.13,-129.68"/>
</g>
<!-- Node5&#45;&gt;Node4 -->
<g id="edge5" class="edge">
<title>Node5&#45;&gt;Node4</title>
<path fill="none" stroke="#63b8ff" d="M341.64,-113.64C387.52,-106.28 468.33,-91.32 492.12,-74 507.61,-62.73 518.22,-43.25 524.43,-28.83"/>
<polygon fill="#63b8ff" stroke="#63b8ff" points="527.73,-30 528.17,-19.42 521.22,-27.42 527.73,-30"/>
</g>
<!-- Node6 -->
<g id="node6" class="node">
<title>Node6</title>
<g id="a_node6"><a xlink:title=" ">
<polygon fill="#e0e0e0" stroke="#999999" points="420.12,-74 356.12,-74 356.12,-55 420.12,-55 420.12,-74"/>
<text text-anchor="middle" x="388.12" y="-62" font-family="Helvetica,sans-Serif" font-size="10.00">algorithm</text>
</a>
</g>
</g>
<!-- Node5&#45;&gt;Node6 -->
<g id="edge6" class="edge">
<title>Node5&#45;&gt;Node6</title>
<path fill="none" stroke="#63b8ff" d="M321.81,-109.98C333.95,-101.84 352.48,-89.41 366.87,-79.76"/>
<polygon fill="#63b8ff" stroke="#63b8ff" points="368.84,-82.65 375.2,-74.17 364.94,-76.84 368.84,-82.65"/>
</g>
<!-- Node7 -->
<g id="node7" class="node">
<title>Node7</title>
<g id="a_node7"><a xlink:title=" ">
<polygon fill="#e0e0e0" stroke="#999999" points="62.62,-74 13.62,-74 13.62,-55 62.62,-55 62.62,-74"/>
<text text-anchor="middle" x="38.12" y="-62" font-family="Helvetica,sans-Serif" font-size="10.00">cctype</text>
</a>
</g>
</g>
<!-- Node5&#45;&gt;Node7 -->
<g id="edge7" class="edge">
<title>Node5&#45;&gt;Node7</title>
<path fill="none" stroke="#63b8ff" d="M276.57,-111.86C273.38,-111.22 270.19,-110.59 267.12,-110 183.64,-93.85 159.9,-92.76 72.75,-74.02"/>
<polygon fill="#63b8ff" stroke="#63b8ff" points="73.47,-70.6 62.96,-71.9 71.99,-77.44 73.47,-70.6"/>
</g>
<!-- Node8 -->
<g id="node8" class="node">
<title>Node8</title>
<g id="a_node8"><a xlink:title=" ">
<polygon fill="#e0e0e0" stroke="#999999" points="131.12,-74 81.12,-74 81.12,-55 131.12,-55 131.12,-74"/>
<text text-anchor="middle" x="106.12" y="-62" font-family="Helvetica,sans-Serif" font-size="10.00">cstring</text>
</a>
</g>
</g>
<!-- Node5&#45;&gt;Node8 -->
<g id="edge8" class="edge">
<title>Node5&#45;&gt;Node8</title>
<path fill="none" stroke="#63b8ff" d="M276.5,-109.98C239.52,-100.33 179.44,-84.64 141.39,-74.71"/>
<polygon fill="#63b8ff" stroke="#63b8ff" points="141.84,-71.21 131.28,-72.07 140.07,-77.98 141.84,-71.21"/>
</g>
<!-- Node9 -->
<g id="node9" class="node">
<title>Node9</title>
<g id="a_node9"><a xlink:title=" ">
<polygon fill="#e0e0e0" stroke="#999999" points="195.12,-74 149.12,-74 149.12,-55 195.12,-55 195.12,-74"/>
<text text-anchor="middle" x="172.12" y="-62" font-family="Helvetica,sans-Serif" font-size="10.00">cstdio</text>
</a>
</g>
</g>
<!-- Node5&#45;&gt;Node9 -->
<g id="edge9" class="edge">
<title>Node5&#45;&gt;Node9</title>
<path fill="none" stroke="#63b8ff" d="M287.11,-109.98C264.67,-101.3 229.64,-87.75 204.13,-77.88"/>
<polygon fill="#63b8ff" stroke="#63b8ff" points="205.12,-74.51 194.53,-74.17 202.6,-81.04 205.12,-74.51"/>
</g>
<!-- Node10 -->
<g id="node10" class="node">
<title>Node10</title>
<g id="a_node10"><a xlink:title=" ">
<polygon fill="#e0e0e0" stroke="#999999" points="262.62,-74 213.62,-74 213.62,-55 262.62,-55 262.62,-74"/>
<text text-anchor="middle" x="238.12" y="-62" font-family="Helvetica,sans-Serif" font-size="10.00">cstdlib</text>
</a>
</g>
</g>
<!-- Node5&#45;&gt;Node10 -->
<g id="edge10" class="edge">
<title>Node5&#45;&gt;Node10</title>
<path fill="none" stroke="#63b8ff" d="M297.71,-109.98C287.01,-102 270.78,-89.88 257.96,-80.31"/>
<polygon fill="#63b8ff" stroke="#63b8ff" points="259.84,-77.35 249.73,-74.17 255.65,-82.96 259.84,-77.35"/>
</g>
<!-- Node11 -->
<g id="node11" class="node">
<title>Node11</title>
<g id="a_node11"><a xlink:title=" ">
<polygon fill="#e0e0e0" stroke="#999999" points="260.12,-19 210.12,-19 210.12,0 260.12,0 260.12,-19"/>
<text text-anchor="middle" x="235.12" y="-7" font-family="Helvetica,sans-Serif" font-size="10.00">cstdint</text>
</a>
</g>
</g>
<!-- Node5&#45;&gt;Node11 -->
<g id="edge11" class="edge">
<title>Node5&#45;&gt;Node11</title>
<path fill="none" stroke="#63b8ff" d="M276.6,-111.71C273.4,-111.1 270.2,-110.52 267.12,-110 208.96,-100.14 42.9,-118.45 4.12,-74 -1.43,-67.64 -1.26,-61.51 4.12,-55 28.48,-25.5 140.89,-15.35 199.44,-12.02"/>
<polygon fill="#63b8ff" stroke="#63b8ff" points="199.91,-15.5 209.71,-11.48 199.54,-8.51 199.91,-15.5"/>
</g>
<!-- Node12 -->
<g id="node12" class="node">
<title>Node12</title>
<g id="a_node12"><a xlink:title=" ">
<polygon fill="#e0e0e0" stroke="#999999" points="337.62,-74 280.62,-74 280.62,-55 337.62,-55 337.62,-74"/>
<text text-anchor="middle" x="309.12" y="-62" font-family="Helvetica,sans-Serif" font-size="10.00">ostream</text>
</a>
</g>
</g>
<!-- Node5&#45;&gt;Node12 -->
<g id="edge12" class="edge">
<title>Node5&#45;&gt;Node12</title>
<path fill="none" stroke="#63b8ff" d="M309.12,-109.75C309.12,-102.8 309.12,-92.85 309.12,-84.13"/>
<polygon fill="#63b8ff" stroke="#63b8ff" points="312.62,-84.09 309.12,-74.09 305.62,-84.09 312.62,-84.09"/>
</g>
<!-- Node13 -->
<g id="node13" class="node">
<title>Node13</title>
<g id="a_node13"><a xlink:href="../../db/d7c/utf8_8h.html" target="_top" xlink:title="Various UTF8 related helper functions.">
<polygon fill="white" stroke="#666666" points="483.62,-74 438.62,-74 438.62,-55 483.62,-55 483.62,-74"/>
<text text-anchor="middle" x="461.12" y="-62" font-family="Helvetica,sans-Serif" font-size="10.00">utf8.h</text>
</a>
</g>
</g>
<!-- Node5&#45;&gt;Node13 -->
<g id="edge13" class="edge">
<title>Node5&#45;&gt;Node13</title>
<path fill="none" stroke="#63b8ff" d="M333.54,-109.98C359.37,-100.98 400.23,-86.73 428.73,-76.79"/>
<polygon fill="#63b8ff" stroke="#63b8ff" points="429.96,-80.07 438.25,-73.47 427.66,-73.46 429.96,-80.07"/>
</g>
<!-- Node13&#45;&gt;Node4 -->
<g id="edge15" class="edge">
<title>Node13&#45;&gt;Node4</title>
<path fill="none" stroke="#63b8ff" d="M472.37,-54.98C482.92,-47 498.92,-34.88 511.56,-25.31"/>
<polygon fill="#63b8ff" stroke="#63b8ff" points="513.81,-28 519.67,-19.17 509.58,-22.42 513.81,-28"/>
</g>
<!-- Node13&#45;&gt;Node11 -->
<g id="edge14" class="edge">
<title>Node13&#45;&gt;Node11</title>
<path fill="none" stroke="#63b8ff" d="M438.42,-57.37C435.3,-56.55 432.13,-55.75 429.12,-55 373.69,-41.29 309,-26.74 270.09,-18.14"/>
<polygon fill="#63b8ff" stroke="#63b8ff" points="270.82,-14.72 260.3,-15.99 269.31,-21.56 270.82,-14.72"/>
</g>
<!-- Node14&#45;&gt;Node4 -->
<g id="edge18" class="edge">
<title>Node14&#45;&gt;Node4</title>
<path fill="none" stroke="#63b8ff" d="M587.65,-164.78C586.29,-144.61 581.28,-93.54 564.12,-55 559.64,-44.93 552.56,-34.97 546.1,-27.02"/>
<polygon fill="#63b8ff" stroke="#63b8ff" points="548.65,-24.62 539.5,-19.29 543.33,-29.17 548.65,-24.62"/>
</g>
<!-- Node15 -->
<g id="node15" class="node">
<title>Node15</title>
<g id="a_node15"><a xlink:title=" ">
<polygon fill="#e0e0e0" stroke="#999999" points="654.12,-129 616.12,-129 616.12,-110 654.12,-110 654.12,-129"/>
<text text-anchor="middle" x="635.12" y="-117" font-family="Helvetica,sans-Serif" font-size="10.00">map</text>
</a>
</g>
</g>
<!-- Node14&#45;&gt;Node15 -->
<g id="edge17" class="edge">
<title>Node14&#45;&gt;Node15</title>
<path fill="none" stroke="#63b8ff" d="M595.88,-164.75C602.59,-157.18 612.46,-146.05 620.63,-136.84"/>
<polygon fill="#63b8ff" stroke="#63b8ff" points="623.49,-138.89 627.5,-129.09 618.25,-134.25 623.49,-138.89"/>
</g>
<!-- Node16&#45;&gt;Node5 -->
<g id="edge21" class="edge">
<title>Node16&#45;&gt;Node5</title>
<path fill="none" stroke="#63b8ff" d="M309.12,-164.75C309.12,-157.8 309.12,-147.85 309.12,-139.13"/>
<polygon fill="#63b8ff" stroke="#63b8ff" points="312.62,-139.09 309.12,-129.09 305.62,-139.09 312.62,-139.09"/>
</g>
<!-- Node17 -->
<g id="node17" class="node">
<title>Node17</title>
<g id="a_node17"><a xlink:title=" ">
<polygon fill="#e0e0e0" stroke="#999999" points="258.62,-129 205.62,-129 205.62,-110 258.62,-110 258.62,-129"/>
<text text-anchor="middle" x="232.12" y="-117" font-family="Helvetica,sans-Serif" font-size="10.00">cstdarg</text>
</a>
</g>
</g>
<!-- Node16&#45;&gt;Node17 -->
<g id="edge20" class="edge">
<title>Node16&#45;&gt;Node17</title>
<path fill="none" stroke="#63b8ff" d="M296.75,-164.98C285.03,-156.92 267.2,-144.65 253.23,-135.03"/>
<polygon fill="#63b8ff" stroke="#63b8ff" points="254.94,-131.96 244.72,-129.17 250.97,-137.72 254.94,-131.96"/>
</g>
</g>
</svg>
        <g id="navigator" transform="translate(0 0)" fill="#404254">
                <rect fill="#f2f5e9" fill-opacity="0.5" stroke="#606060" stroke-width=".5" x="0" y="0" width="60" height="60"/>
                <use id="zoomplus" xlink:href="#zoomPlus" x="17" y="9" onmousedown="handleZoom(evt,'in')"/>
                <use id="zoomminus" xlink:href="#zoomMin" x="42" y="9" onmousedown="handleZoom(evt,'out')"/>
                <use id="reset" xlink:href="#resetDef" x="30" y="36" onmousedown="handleReset()"/>
                <g id="arrowUp" xlink:href="#dirArrow" transform="translate(30 24)" onmousedown="handlePan(0,-1)">
                  <use xlink:href="#rim" fill="#404040">
                        <set attributeName="fill" to="#808080" begin="arrowUp.mouseover" end="arrowUp.mouseout"/>
                  </use>
                  <path fill="none" stroke="white" stroke-width="1.5" d="M0,-3.0v7 M-2.5,-0.5L0,-3.0L2.5,-0.5"/>
                </g>
                <g id="arrowRight" xlink:href="#dirArrow" transform="rotate(90) translate(36 -43)" onmousedown="handlePan(1,0)">
                  <use xlink:href="#rim" fill="#404040">
                        <set attributeName="fill" to="#808080" begin="arrowRight.mouseover" end="arrowRight.mouseout"/>
                  </use>
                  <path fill="none" stroke="white" stroke-width="1.5" d="M0,-3.0v7 M-2.5,-0.5L0,-3.0L2.5,-0.5"/>
                </g>
                <g id="arrowDown" xlink:href="#dirArrow" transform="rotate(180) translate(-30 -48)" onmousedown="handlePan(0,1)">
                  <use xlink:href="#rim" fill="#404040">
                        <set attributeName="fill" to="#808080" begin="arrowDown.mouseover" end="arrowDown.mouseout"/>
                  </use>
                  <path fill="none" stroke="white" stroke-width="1.5" d="M0,-3.0v7 M-2.5,-0.5L0,-3.0L2.5,-0.5"/>
                </g>
                <g id="arrowLeft" xlink:href="#dirArrow" transform="rotate(270) translate(-36 17)" onmousedown="handlePan(-1,0)">
                  <use xlink:href="#rim" fill="#404040">
                        <set attributeName="fill" to="#808080" begin="arrowLeft.mouseover" end="arrowLeft.mouseout"/>
                  </use>
                  <path fill="none" stroke="white" stroke-width="1.5" d="M0,-3.0v7 M-2.5,-0.5L0,-3.0L2.5,-0.5"/>
                </g>
        </g>
        <svg viewBox="0 0 15 15" width="100%" height="30px" preserveAspectRatio="xMaxYMin meet">
         <g id="arrow_out" transform="scale(0.3 0.3)">
          <a xlink:href="printdocvisitor_8h__incl_org.svg" target="_base">
           <rect id="button" ry="5" rx="5" y="6" x="6" height="38" width="38"
                fill="#f2f5e9" fill-opacity="0.5" stroke="#606060" stroke-width="1.0"/>
           <path id="arrow"
             d="M 11.500037,31.436501 C 11.940474,20.09759 22.043105,11.32322 32.158766,21.979434 L 37.068811,17.246167 C 37.068811,17.246167 37.088388,32 37.088388,32 L 22.160133,31.978069 C 22.160133,31.978069 26.997745,27.140456 26.997745,27.140456 C 18.528582,18.264221 13.291696,25.230495 11.500037,31.436501 z"
             style="fill:#404040;"/>
          </a>
         </g>
        </svg>
</svg>
