<?xml version="1.0" encoding="UTF-8" standalone="no"?>
<!DOCTYPE svg PUBLIC "-//W3C//DTD SVG 1.1//EN"
 "http://www.w3.org/Graphics/SVG/1.1/DTD/svg11.dtd">
<!-- Generated by graphviz version 2.43.0 (0)
 -->
<!-- Title: /home/runner/work/doxygen/doxygen/src/memberdef.h Pages: 1 -->
<!--zoomable 423 -->
<svg id="main" version="1.1" xmlns="http://www.w3.org/2000/svg" xmlns:xlink="http://www.w3.org/1999/xlink" xml:space="preserve" onload="init(evt)">
<style type="text/css"><![CDATA[
.edge:hover path { stroke: red; }
.edge:hover polygon { stroke: red; fill: red; }
]]></style>
<script type="text/javascript"><![CDATA[
var edges = document.getElementsByTagName('g');
if (edges && edges.length) {
  for (var i=0;i<edges.length;i++) {
    if (edges[i].id.substr(0,4)=='edge') {
      edges[i].setAttribute('class','edge');
    }
  }
}
]]></script>
        <defs>
                <circle id="rim" cx="0" cy="0" r="7"/>
                <circle id="rim2" cx="0" cy="0" r="3.5"/>
                <g id="zoomPlus">
                        <use xlink:href="#rim" fill="#404040">
                                <set attributeName="fill" to="#808080" begin="zoomplus.mouseover" end="zoomplus.mouseout"/>
                        </use>
                        <path d="M-4,0h8M0,-4v8" fill="none" stroke="white" stroke-width="1.5" pointer-events="none"/>
                </g>
                <g id="zoomMin">
                        <use xlink:href="#rim" fill="#404040">
                                <set attributeName="fill" to="#808080" begin="zoomminus.mouseover" end="zoomminus.mouseout"/>
                        </use>
                        <path d="M-4,0h8" fill="none" stroke="white" stroke-width="1.5" pointer-events="none"/>
                </g>
                <g id="dirArrow">
                        <path fill="none" stroke="white" stroke-width="1.5" d="M0,-3.0v7 M-2.5,-0.5L0,-3.0L2.5,-0.5"/>
                </g>
               <g id="resetDef">
                       <use xlink:href="#rim2" fill="#404040">
                               <set attributeName="fill" to="#808080" begin="reset.mouseover" end="reset.mouseout"/>
                       </use>
               </g>
        </defs>

<script type="text/javascript">
var viewWidth = 987;
var viewHeight = 423;
var sectionId = 'dynsection-0';
</script>
<script xlink:href="../../svgpan.js"/>
<svg id="graph" class="graph">
<g id="viewport">
<title>/home/runner/work/doxygen/doxygen/src/memberdef.h</title>
<!-- Node1 -->
<g id="node1" class="node">
<title>Node1</title>
<g id="a_node1"><a xlink:title=" ">
<polygon fill="#999999" stroke="#666666" points="754,-415 600,-415 600,-385 754,-385 754,-415"/>
<text text-anchor="start" x="608" y="-403" font-family="Helvetica,sans-Serif" font-size="10.00">/home/runner/work/doxygen</text>
<text text-anchor="middle" x="677" y="-392" font-family="Helvetica,sans-Serif" font-size="10.00">/doxygen/src/memberdef.h</text>
</a>
</g>
</g>
<!-- Node2 -->
<g id="node2" class="node">
<title>Node2</title>
<g id="a_node2"><a xlink:title=" ">
<polygon fill="#e0e0e0" stroke="#999999" points="438.5,-129 391.5,-129 391.5,-110 438.5,-110 438.5,-129"/>
<text text-anchor="middle" x="415" y="-117" font-family="Helvetica,sans-Serif" font-size="10.00">vector</text>
</a>
</g>
</g>
<!-- Node1&#45;&gt;Node2 -->
<g id="edge1" class="edge">
<title>Node1&#45;&gt;Node2</title>
<path fill="none" stroke="#63b8ff" d="M600,-394.06C422.56,-381.65 0,-345.76 0,-285.5 0,-285.5 0,-285.5 0,-228.5 0,-149.84 282.73,-127.45 381.46,-122.03"/>
<polygon fill="#63b8ff" stroke="#63b8ff" points="381.7,-125.53 391.5,-121.51 381.33,-118.54 381.7,-125.53"/>
</g>
<!-- Node3 -->
<g id="node3" class="node">
<title>Node3</title>
<g id="a_node3"><a xlink:title=" ">
<polygon fill="#e0e0e0" stroke="#999999" points="882,-129 824,-129 824,-110 882,-110 882,-129"/>
<text text-anchor="middle" x="853" y="-117" font-family="Helvetica,sans-Serif" font-size="10.00">memory</text>
</a>
</g>
</g>
<!-- Node1&#45;&gt;Node3 -->
<g id="edge2" class="edge">
<title>Node1&#45;&gt;Node3</title>
<path fill="none" stroke="#63b8ff" d="M754.23,-387.3C811.26,-373.76 879,-345.14 879,-285.5 879,-285.5 879,-285.5 879,-228.5 879,-196.15 867.83,-159.82 860.14,-138.62"/>
<polygon fill="#63b8ff" stroke="#63b8ff" points="863.32,-137.13 856.51,-129.01 856.77,-139.6 863.32,-137.13"/>
</g>
<!-- Node4 -->
<g id="node4" class="node">
<title>Node4</title>
<g id="a_node4"><a xlink:title=" ">
<polygon fill="#e0e0e0" stroke="#999999" points="979,-349 907,-349 907,-330 979,-330 979,-349"/>
<text text-anchor="middle" x="943" y="-337" font-family="Helvetica,sans-Serif" font-size="10.00">sys/types.h</text>
</a>
</g>
</g>
<!-- Node1&#45;&gt;Node4 -->
<g id="edge3" class="edge">
<title>Node1&#45;&gt;Node4</title>
<path fill="none" stroke="#63b8ff" d="M740.71,-384.99C788.81,-374.41 853.67,-360.15 896.85,-350.65"/>
<polygon fill="#63b8ff" stroke="#63b8ff" points="897.78,-354.03 906.79,-348.46 896.27,-347.19 897.78,-354.03"/>
</g>
<!-- Node5 -->
<g id="node5" class="node">
<title>Node5</title>
<g id="a_node5"><a xlink:href="../../d9/d49/types_8h.html" target="_top" xlink:title="This file contains a number of basic enums and types.">
<polygon fill="white" stroke="#666666" points="767.5,-239 714.5,-239 714.5,-220 767.5,-220 767.5,-239"/>
<text text-anchor="middle" x="741" y="-227" font-family="Helvetica,sans-Serif" font-size="10.00">types.h</text>
</a>
</g>
</g>
<!-- Node1&#45;&gt;Node5 -->
<g id="edge4" class="edge">
<title>Node1&#45;&gt;Node5</title>
<path fill="none" stroke="#63b8ff" d="M683.64,-384.94C692.91,-364.99 709.97,-327.19 722,-294 727.4,-279.11 732.49,-261.87 736.04,-249.11"/>
<polygon fill="#63b8ff" stroke="#63b8ff" points="739.48,-249.8 738.73,-239.23 732.72,-247.96 739.48,-249.8"/>
</g>
<!-- Node16 -->
<g id="node16" class="node">
<title>Node16</title>
<g id="a_node16"><a xlink:href="../../df/da1/definition_8h.html" target="_top" xlink:title=" ">
<polygon fill="white" stroke="#666666" points="712.5,-294 641.5,-294 641.5,-275 712.5,-275 712.5,-294"/>
<text text-anchor="middle" x="677" y="-282" font-family="Helvetica,sans-Serif" font-size="10.00">definition.h</text>
</a>
</g>
</g>
<!-- Node1&#45;&gt;Node16 -->
<g id="edge17" class="edge">
<title>Node1&#45;&gt;Node16</title>
<path fill="none" stroke="#63b8ff" d="M677,-384.63C677,-364.21 677,-326.81 677,-304.24"/>
<polygon fill="#63b8ff" stroke="#63b8ff" points="680.5,-304.23 677,-294.23 673.5,-304.23 680.5,-304.23"/>
</g>
<!-- Node20 -->
<g id="node20" class="node">
<title>Node20</title>
<g id="a_node20"><a xlink:href="../../df/d9b/arguments_8h.html" target="_top" xlink:title=" ">
<polygon fill="white" stroke="#666666" points="451,-184 373,-184 373,-165 451,-165 451,-184"/>
<text text-anchor="middle" x="412" y="-172" font-family="Helvetica,sans-Serif" font-size="10.00">arguments.h</text>
</a>
</g>
</g>
<!-- Node1&#45;&gt;Node20 -->
<g id="edge33" class="edge">
<title>Node1&#45;&gt;Node20</title>
<path fill="none" stroke="#63b8ff" d="M650.62,-384.87C617.72,-366.52 560.75,-332.29 519,-294 488,-265.57 488.61,-250.83 460,-220 450.55,-209.82 439.19,-199.22 429.89,-190.92"/>
<polygon fill="#63b8ff" stroke="#63b8ff" points="432.17,-188.26 422.35,-184.29 427.54,-193.52 432.17,-188.26"/>
</g>
<!-- Node21 -->
<g id="node21" class="node">
<title>Node21</title>
<g id="a_node21"><a xlink:href="../../d1/da6/classdef_8h.html" target="_top" xlink:title=" ">
<polygon fill="white" stroke="#666666" points="471.5,-349 406.5,-349 406.5,-330 471.5,-330 471.5,-349"/>
<text text-anchor="middle" x="439" y="-337" font-family="Helvetica,sans-Serif" font-size="10.00">classdef.h</text>
</a>
</g>
</g>
<!-- Node1&#45;&gt;Node21 -->
<g id="edge36" class="edge">
<title>Node1&#45;&gt;Node21</title>
<path fill="none" stroke="#63b8ff" d="M619.99,-384.99C577.45,-374.53 520.24,-360.47 481.62,-350.98"/>
<polygon fill="#63b8ff" stroke="#63b8ff" points="482.28,-347.53 471.74,-348.55 480.61,-354.33 482.28,-347.53"/>
</g>
<!-- Node6 -->
<g id="node6" class="node">
<title>Node6</title>
<g id="a_node6"><a xlink:href="../../d7/d5c/qcstring_8h.html" target="_top" xlink:title=" ">
<polygon fill="white" stroke="#666666" points="637.5,-129 572.5,-129 572.5,-110 637.5,-110 637.5,-129"/>
<text text-anchor="middle" x="605" y="-117" font-family="Helvetica,sans-Serif" font-size="10.00">qcstring.h</text>
</a>
</g>
</g>
<!-- Node5&#45;&gt;Node6 -->
<g id="edge5" class="edge">
<title>Node5&#45;&gt;Node6</title>
<path fill="none" stroke="#63b8ff" d="M729.87,-219.66C706.64,-201.22 652.78,-158.45 623.98,-135.57"/>
<polygon fill="#63b8ff" stroke="#63b8ff" points="625.91,-132.64 615.9,-129.16 621.56,-138.12 625.91,-132.64"/>
</g>
<!-- Node7 -->
<g id="node7" class="node">
<title>Node7</title>
<g id="a_node7"><a xlink:title=" ">
<polygon fill="#e0e0e0" stroke="#999999" points="546,-19 502,-19 502,0 546,0 546,-19"/>
<text text-anchor="middle" x="524" y="-7" font-family="Helvetica,sans-Serif" font-size="10.00">string</text>
</a>
</g>
</g>
<!-- Node6&#45;&gt;Node7 -->
<g id="edge6" class="edge">
<title>Node6&#45;&gt;Node7</title>
<path fill="none" stroke="#63b8ff" d="M574.46,-109.96C556.71,-103.27 535.78,-92 525,-74 516.95,-60.55 517.53,-42.45 519.64,-29.02"/>
<polygon fill="#63b8ff" stroke="#63b8ff" points="523.11,-29.52 521.62,-19.03 516.24,-28.16 523.11,-29.52"/>
</g>
<!-- Node8 -->
<g id="node8" class="node">
<title>Node8</title>
<g id="a_node8"><a xlink:title=" ">
<polygon fill="#e0e0e0" stroke="#999999" points="768,-74 704,-74 704,-55 768,-55 768,-74"/>
<text text-anchor="middle" x="736" y="-62" font-family="Helvetica,sans-Serif" font-size="10.00">algorithm</text>
</a>
</g>
</g>
<!-- Node6&#45;&gt;Node8 -->
<g id="edge7" class="edge">
<title>Node6&#45;&gt;Node8</title>
<path fill="none" stroke="#63b8ff" d="M626.05,-109.98C647.41,-101.34 680.7,-87.87 705.06,-78.02"/>
<polygon fill="#63b8ff" stroke="#63b8ff" points="706.61,-81.17 714.57,-74.17 703.99,-74.68 706.61,-81.17"/>
</g>
<!-- Node9 -->
<g id="node9" class="node">
<title>Node9</title>
<g id="a_node9"><a xlink:title=" ">
<polygon fill="#e0e0e0" stroke="#999999" points="685.5,-74 636.5,-74 636.5,-55 685.5,-55 685.5,-74"/>
<text text-anchor="middle" x="661" y="-62" font-family="Helvetica,sans-Serif" font-size="10.00">cctype</text>
</a>
</g>
</g>
<!-- Node6&#45;&gt;Node9 -->
<g id="edge8" class="edge">
<title>Node6&#45;&gt;Node9</title>
<path fill="none" stroke="#63b8ff" d="M614,-109.98C622.19,-102.23 634.51,-90.58 644.47,-81.14"/>
<polygon fill="#63b8ff" stroke="#63b8ff" points="646.98,-83.59 651.84,-74.17 642.17,-78.5 646.98,-83.59"/>
</g>
<!-- Node10 -->
<g id="node10" class="node">
<title>Node10</title>
<g id="a_node10"><a xlink:title=" ">
<polygon fill="#e0e0e0" stroke="#999999" points="271,-74 221,-74 221,-55 271,-55 271,-74"/>
<text text-anchor="middle" x="246" y="-62" font-family="Helvetica,sans-Serif" font-size="10.00">cstring</text>
</a>
</g>
</g>
<!-- Node6&#45;&gt;Node10 -->
<g id="edge9" class="edge">
<title>Node6&#45;&gt;Node10</title>
<path fill="none" stroke="#63b8ff" d="M572.48,-111.67C569.29,-111.08 566.08,-110.51 563,-110 441.07,-89.93 406.36,-97.03 281.15,-74.01"/>
<polygon fill="#63b8ff" stroke="#63b8ff" points="281.65,-70.54 271.18,-72.15 280.37,-77.42 281.65,-70.54"/>
</g>
<!-- Node11 -->
<g id="node11" class="node">
<title>Node11</title>
<g id="a_node11"><a xlink:title=" ">
<polygon fill="#e0e0e0" stroke="#999999" points="335,-74 289,-74 289,-55 335,-55 335,-74"/>
<text text-anchor="middle" x="312" y="-62" font-family="Helvetica,sans-Serif" font-size="10.00">cstdio</text>
</a>
</g>
</g>
<!-- Node6&#45;&gt;Node11 -->
<g id="edge10" class="edge">
<title>Node6&#45;&gt;Node11</title>
<path fill="none" stroke="#63b8ff" d="M572.46,-111.79C569.27,-111.17 566.07,-110.56 563,-110 469.1,-92.79 442.17,-94.55 344.96,-74.02"/>
<polygon fill="#63b8ff" stroke="#63b8ff" points="345.52,-70.56 335.01,-71.9 344.06,-77.41 345.52,-70.56"/>
</g>
<!-- Node12 -->
<g id="node12" class="node">
<title>Node12</title>
<g id="a_node12"><a xlink:title=" ">
<polygon fill="#e0e0e0" stroke="#999999" points="402.5,-74 353.5,-74 353.5,-55 402.5,-55 402.5,-74"/>
<text text-anchor="middle" x="378" y="-62" font-family="Helvetica,sans-Serif" font-size="10.00">cstdlib</text>
</a>
</g>
</g>
<!-- Node6&#45;&gt;Node12 -->
<g id="edge11" class="edge">
<title>Node6&#45;&gt;Node12</title>
<path fill="none" stroke="#63b8ff" d="M572.33,-111.28C535.68,-103.13 474.22,-89.27 412.72,-74.37"/>
<polygon fill="#63b8ff" stroke="#63b8ff" points="413.39,-70.94 402.85,-71.98 411.74,-77.74 413.39,-70.94"/>
</g>
<!-- Node13 -->
<g id="node13" class="node">
<title>Node13</title>
<g id="a_node13"><a xlink:title=" ">
<polygon fill="#e0e0e0" stroke="#999999" points="623,-19 573,-19 573,0 623,0 623,-19"/>
<text text-anchor="middle" x="598" y="-7" font-family="Helvetica,sans-Serif" font-size="10.00">cstdint</text>
</a>
</g>
</g>
<!-- Node6&#45;&gt;Node13 -->
<g id="edge12" class="edge">
<title>Node6&#45;&gt;Node13</title>
<path fill="none" stroke="#63b8ff" d="M604.43,-109.66C603.29,-92.17 600.74,-52.8 599.22,-29.27"/>
<polygon fill="#63b8ff" stroke="#63b8ff" points="602.7,-28.91 598.56,-19.16 595.72,-29.36 602.7,-28.91"/>
</g>
<!-- Node14 -->
<g id="node14" class="node">
<title>Node14</title>
<g id="a_node14"><a xlink:title=" ">
<polygon fill="#e0e0e0" stroke="#999999" points="477.5,-74 420.5,-74 420.5,-55 477.5,-55 477.5,-74"/>
<text text-anchor="middle" x="449" y="-62" font-family="Helvetica,sans-Serif" font-size="10.00">ostream</text>
</a>
</g>
</g>
<!-- Node6&#45;&gt;Node14 -->
<g id="edge13" class="edge">
<title>Node6&#45;&gt;Node14</title>
<path fill="none" stroke="#63b8ff" d="M579.94,-109.98C553.97,-101.16 513.19,-87.31 484.04,-77.41"/>
<polygon fill="#63b8ff" stroke="#63b8ff" points="484.85,-73.99 474.26,-74.08 482.6,-80.61 484.85,-73.99"/>
</g>
<!-- Node15 -->
<g id="node15" class="node">
<title>Node15</title>
<g id="a_node15"><a xlink:href="../../db/d7c/utf8_8h.html" target="_top" xlink:title="Various UTF8 related helper functions.">
<polygon fill="white" stroke="#666666" points="579.5,-74 534.5,-74 534.5,-55 579.5,-55 579.5,-74"/>
<text text-anchor="middle" x="557" y="-62" font-family="Helvetica,sans-Serif" font-size="10.00">utf8.h</text>
</a>
</g>
</g>
<!-- Node6&#45;&gt;Node15 -->
<g id="edge14" class="edge">
<title>Node6&#45;&gt;Node15</title>
<path fill="none" stroke="#63b8ff" d="M597.07,-109.75C590.15,-102.11 579.93,-90.82 571.55,-81.56"/>
<polygon fill="#63b8ff" stroke="#63b8ff" points="574.09,-79.15 564.78,-74.09 568.9,-83.85 574.09,-79.15"/>
</g>
<!-- Node15&#45;&gt;Node7 -->
<g id="edge16" class="edge">
<title>Node15&#45;&gt;Node7</title>
<path fill="none" stroke="#63b8ff" d="M551.55,-54.75C546.99,-47.42 540.33,-36.73 534.71,-27.7"/>
<polygon fill="#63b8ff" stroke="#63b8ff" points="537.6,-25.73 529.35,-19.09 531.66,-29.43 537.6,-25.73"/>
</g>
<!-- Node15&#45;&gt;Node13 -->
<g id="edge15" class="edge">
<title>Node15&#45;&gt;Node13</title>
<path fill="none" stroke="#63b8ff" d="M563.77,-54.75C569.56,-47.26 578.06,-36.28 585.14,-27.13"/>
<polygon fill="#63b8ff" stroke="#63b8ff" points="588.01,-29.14 591.36,-19.09 582.47,-24.86 588.01,-29.14"/>
</g>
<!-- Node16&#45;&gt;Node2 -->
<g id="edge18" class="edge">
<title>Node16&#45;&gt;Node2</title>
<path fill="none" stroke="#63b8ff" d="M660.1,-274.9C643.35,-266.24 617.05,-252.3 595,-239 544.22,-208.38 533.58,-197.51 484,-165 468.41,-154.78 450.73,-143.38 437.18,-134.68"/>
<polygon fill="#63b8ff" stroke="#63b8ff" points="438.83,-131.59 428.53,-129.14 435.06,-137.48 438.83,-131.59"/>
</g>
<!-- Node16&#45;&gt;Node5 -->
<g id="edge19" class="edge">
<title>Node16&#45;&gt;Node5</title>
<path fill="none" stroke="#63b8ff" d="M687.28,-274.98C696.84,-267.07 711.28,-255.11 722.78,-245.58"/>
<polygon fill="#63b8ff" stroke="#63b8ff" points="725.06,-248.24 730.53,-239.17 720.6,-242.85 725.06,-248.24"/>
</g>
<!-- Node17 -->
<g id="node17" class="node">
<title>Node17</title>
<g id="a_node17"><a xlink:href="../../d1/d02/reflist_8h.html" target="_top" xlink:title=" ">
<polygon fill="white" stroke="#666666" points="657.5,-239 604.5,-239 604.5,-220 657.5,-220 657.5,-239"/>
<text text-anchor="middle" x="631" y="-227" font-family="Helvetica,sans-Serif" font-size="10.00">reflist.h</text>
</a>
</g>
</g>
<!-- Node16&#45;&gt;Node17 -->
<g id="edge20" class="edge">
<title>Node16&#45;&gt;Node17</title>
<path fill="none" stroke="#63b8ff" d="M669.4,-274.75C662.84,-267.18 653.18,-256.05 645.19,-246.84"/>
<polygon fill="#63b8ff" stroke="#63b8ff" points="647.65,-244.35 638.45,-239.09 642.37,-248.94 647.65,-244.35"/>
</g>
<!-- Node17&#45;&gt;Node2 -->
<g id="edge21" class="edge">
<title>Node17&#45;&gt;Node2</title>
<path fill="none" stroke="#63b8ff" d="M619.15,-219.87C600.87,-206.82 564.44,-181.82 531,-165 504.02,-151.43 471.86,-139.39 448.25,-131.27"/>
<polygon fill="#63b8ff" stroke="#63b8ff" points="449.29,-127.93 438.7,-128.04 447.05,-134.56 449.29,-127.93"/>
</g>
<!-- Node17&#45;&gt;Node3 -->
<g id="edge23" class="edge">
<title>Node17&#45;&gt;Node3</title>
<path fill="none" stroke="#63b8ff" d="M657.71,-222.3C695.48,-213.26 762.31,-196.23 784,-184 805.81,-171.7 826.32,-151.26 839.22,-136.9"/>
<polygon fill="#63b8ff" stroke="#63b8ff" points="841.95,-139.09 845.89,-129.25 836.68,-134.49 841.95,-139.09"/>
</g>
<!-- Node17&#45;&gt;Node6 -->
<g id="edge24" class="edge">
<title>Node17&#45;&gt;Node6</title>
<path fill="none" stroke="#63b8ff" d="M628.87,-219.66C624.64,-202.09 615.1,-162.45 609.44,-138.95"/>
<polygon fill="#63b8ff" stroke="#63b8ff" points="612.83,-138.06 607.08,-129.16 606.02,-139.7 612.83,-138.06"/>
</g>
<!-- Node18 -->
<g id="node18" class="node">
<title>Node18</title>
<g id="a_node18"><a xlink:title=" ">
<polygon fill="#e0e0e0" stroke="#999999" points="554.5,-129 461.5,-129 461.5,-110 554.5,-110 554.5,-129"/>
<text text-anchor="middle" x="508" y="-117" font-family="Helvetica,sans-Serif" font-size="10.00">unordered_map</text>
</a>
</g>
</g>
<!-- Node17&#45;&gt;Node18 -->
<g id="edge22" class="edge">
<title>Node17&#45;&gt;Node18</title>
<path fill="none" stroke="#63b8ff" d="M623.39,-219.83C612.1,-207.17 589.96,-183.16 569,-165 556.52,-154.19 541.57,-143.25 529.58,-134.92"/>
<polygon fill="#63b8ff" stroke="#63b8ff" points="531.32,-131.87 521.09,-129.11 527.36,-137.65 531.32,-131.87"/>
</g>
<!-- Node19 -->
<g id="node19" class="node">
<title>Node19</title>
<g id="a_node19"><a xlink:href="../../da/de1/linkedmap_8h.html" target="_top" xlink:title=" ">
<polygon fill="white" stroke="#666666" points="774.5,-184 697.5,-184 697.5,-165 774.5,-165 774.5,-184"/>
<text text-anchor="middle" x="736" y="-172" font-family="Helvetica,sans-Serif" font-size="10.00">linkedmap.h</text>
</a>
</g>
</g>
<!-- Node17&#45;&gt;Node19 -->
<g id="edge25" class="edge">
<title>Node17&#45;&gt;Node19</title>
<path fill="none" stroke="#63b8ff" d="M647.87,-219.98C664.61,-211.54 690.5,-198.47 709.89,-188.68"/>
<polygon fill="#63b8ff" stroke="#63b8ff" points="711.47,-191.8 718.82,-184.17 708.32,-185.55 711.47,-191.8"/>
</g>
<!-- Node19&#45;&gt;Node2 -->
<g id="edge27" class="edge">
<title>Node19&#45;&gt;Node2</title>
<path fill="none" stroke="#63b8ff" d="M697.26,-168.31C642.46,-160.77 539.23,-145.83 452,-129 450.93,-128.79 449.85,-128.58 448.75,-128.36"/>
<polygon fill="#63b8ff" stroke="#63b8ff" points="449.34,-124.9 438.83,-126.23 447.88,-131.75 449.34,-124.9"/>
</g>
<!-- Node19&#45;&gt;Node3 -->
<g id="edge28" class="edge">
<title>Node19&#45;&gt;Node3</title>
<path fill="none" stroke="#63b8ff" d="M754.8,-164.98C773.62,-156.46 802.82,-143.23 824.5,-133.41"/>
<polygon fill="#63b8ff" stroke="#63b8ff" points="826.2,-136.48 833.86,-129.17 823.31,-130.11 826.2,-136.48"/>
</g>
<!-- Node19&#45;&gt;Node6 -->
<g id="edge32" class="edge">
<title>Node19&#45;&gt;Node6</title>
<path fill="none" stroke="#63b8ff" d="M714.95,-164.98C693.59,-156.34 660.3,-142.87 635.94,-133.02"/>
<polygon fill="#63b8ff" stroke="#63b8ff" points="637.01,-129.68 626.43,-129.17 634.39,-136.17 637.01,-129.68"/>
</g>
<!-- Node19&#45;&gt;Node7 -->
<g id="edge29" class="edge">
<title>Node19&#45;&gt;Node7</title>
<path fill="none" stroke="#63b8ff" d="M744.21,-164.71C763.03,-143.49 805.53,-88.75 777,-55 746.01,-18.34 611.16,-27.99 564,-19 561.5,-18.52 558.91,-18.01 556.31,-17.49"/>
<polygon fill="#63b8ff" stroke="#63b8ff" points="556.89,-14.03 546.39,-15.43 555.47,-20.89 556.89,-14.03"/>
</g>
<!-- Node19&#45;&gt;Node8 -->
<g id="edge30" class="edge">
<title>Node19&#45;&gt;Node8</title>
<path fill="none" stroke="#63b8ff" d="M736,-164.66C736,-147.17 736,-107.8 736,-84.27"/>
<polygon fill="#63b8ff" stroke="#63b8ff" points="739.5,-84.16 736,-74.16 732.5,-84.16 739.5,-84.16"/>
</g>
<!-- Node19&#45;&gt;Node9 -->
<g id="edge31" class="edge">
<title>Node19&#45;&gt;Node9</title>
<path fill="none" stroke="#63b8ff" d="M729.86,-164.66C717.38,-146.69 688.88,-105.64 672.72,-82.38"/>
<polygon fill="#63b8ff" stroke="#63b8ff" points="675.59,-80.38 667.01,-74.16 669.84,-84.37 675.59,-80.38"/>
</g>
<!-- Node19&#45;&gt;Node18 -->
<g id="edge26" class="edge">
<title>Node19&#45;&gt;Node18</title>
<path fill="none" stroke="#63b8ff" d="M699.37,-164.98C660.09,-155.86 597.63,-141.33 554.81,-131.38"/>
<polygon fill="#63b8ff" stroke="#63b8ff" points="555.45,-127.94 544.92,-129.08 553.87,-134.76 555.45,-127.94"/>
</g>
<!-- Node20&#45;&gt;Node2 -->
<g id="edge34" class="edge">
<title>Node20&#45;&gt;Node2</title>
<path fill="none" stroke="#63b8ff" d="M412.5,-164.75C412.89,-157.8 413.45,-147.85 413.95,-139.13"/>
<polygon fill="#63b8ff" stroke="#63b8ff" points="417.44,-139.27 414.51,-129.09 410.45,-138.88 417.44,-139.27"/>
</g>
<!-- Node20&#45;&gt;Node6 -->
<g id="edge35" class="edge">
<title>Node20&#45;&gt;Node6</title>
<path fill="none" stroke="#63b8ff" d="M443.01,-164.98C475.83,-155.97 527.8,-141.7 563.99,-131.76"/>
<polygon fill="#63b8ff" stroke="#63b8ff" points="565.03,-135.11 573.75,-129.08 563.18,-128.36 565.03,-135.11"/>
</g>
<!-- Node21&#45;&gt;Node2 -->
<g id="edge37" class="edge">
<title>Node21&#45;&gt;Node2</title>
<path fill="none" stroke="#63b8ff" d="M406.4,-334.24C327.73,-323.21 131.32,-290.89 95,-239 23.53,-136.9 285.6,-122.58 381.3,-120.72"/>
<polygon fill="#63b8ff" stroke="#63b8ff" points="381.4,-124.22 391.34,-120.56 381.29,-117.22 381.4,-124.22"/>
</g>
<!-- Node21&#45;&gt;Node16 -->
<g id="edge47" class="edge">
<title>Node21&#45;&gt;Node16</title>
<path fill="none" stroke="#63b8ff" d="M471.59,-331.24C512.99,-322.02 584.64,-306.07 631.43,-295.65"/>
<polygon fill="#63b8ff" stroke="#63b8ff" points="632.31,-299.04 641.31,-293.45 630.79,-292.21 632.31,-299.04"/>
</g>
<!-- Node21&#45;&gt;Node20 -->
<g id="edge48" class="edge">
<title>Node21&#45;&gt;Node20</title>
<path fill="none" stroke="#63b8ff" d="M441.19,-329.91C445.86,-310.01 455.39,-259.48 443,-220 439.77,-209.71 433.22,-199.72 426.97,-191.82"/>
<polygon fill="#63b8ff" stroke="#63b8ff" points="429.61,-189.52 420.48,-184.15 424.27,-194.04 429.61,-189.52"/>
</g>
<!-- Node22 -->
<g id="node22" class="node">
<title>Node22</title>
<g id="a_node22"><a xlink:title=" ">
<polygon fill="#e0e0e0" stroke="#999999" points="378,-239 346,-239 346,-220 378,-220 378,-239"/>
<text text-anchor="middle" x="362" y="-227" font-family="Helvetica,sans-Serif" font-size="10.00">set</text>
</a>
</g>
</g>
<!-- Node21&#45;&gt;Node22 -->
<g id="edge38" class="edge">
<title>Node21&#45;&gt;Node22</title>
<path fill="none" stroke="#63b8ff" d="M432.7,-329.66C419.89,-311.69 390.62,-270.64 374.04,-247.38"/>
<polygon fill="#63b8ff" stroke="#63b8ff" points="376.83,-245.27 368.17,-239.16 371.13,-249.33 376.83,-245.27"/>
</g>
<!-- Node23 -->
<g id="node23" class="node">
<title>Node23</title>
<g id="a_node23"><a xlink:href="../../d5/d75/containers_8h.html" target="_top" xlink:title=" ">
<polygon fill="white" stroke="#666666" points="332.5,-294 255.5,-294 255.5,-275 332.5,-275 332.5,-294"/>
<text text-anchor="middle" x="294" y="-282" font-family="Helvetica,sans-Serif" font-size="10.00">containers.h</text>
</a>
</g>
</g>
<!-- Node21&#45;&gt;Node23 -->
<g id="edge39" class="edge">
<title>Node21&#45;&gt;Node23</title>
<path fill="none" stroke="#63b8ff" d="M415.7,-329.98C391.75,-321.23 354.22,-307.51 327.17,-297.62"/>
<polygon fill="#63b8ff" stroke="#63b8ff" points="328.31,-294.32 317.72,-294.17 325.91,-300.89 328.31,-294.32"/>
</g>
<!-- Node27 -->
<g id="node27" class="node">
<title>Node27</title>
<g id="a_node27"><a xlink:href="../../d9/d11/membergroup_8h.html" target="_top" xlink:title=" ">
<polygon fill="white" stroke="#666666" points="623.5,-294 528.5,-294 528.5,-275 623.5,-275 623.5,-294"/>
<text text-anchor="middle" x="576" y="-282" font-family="Helvetica,sans-Serif" font-size="10.00">membergroup.h</text>
</a>
</g>
</g>
<!-- Node21&#45;&gt;Node27 -->
<g id="edge49" class="edge">
<title>Node21&#45;&gt;Node27</title>
<path fill="none" stroke="#63b8ff" d="M461.01,-329.98C483.45,-321.3 518.48,-307.75 543.99,-297.88"/>
<polygon fill="#63b8ff" stroke="#63b8ff" points="545.52,-301.04 553.59,-294.17 543,-294.51 545.52,-301.04"/>
</g>
<!-- Node23&#45;&gt;Node2 -->
<g id="edge40" class="edge">
<title>Node23&#45;&gt;Node2</title>
<path fill="none" stroke="#63b8ff" d="M255.45,-275.15C220.83,-265.67 177.87,-247.82 195,-220 235.1,-154.84 329.85,-132.02 380.94,-124.28"/>
<polygon fill="#63b8ff" stroke="#63b8ff" points="381.73,-127.71 391.14,-122.85 380.75,-120.77 381.73,-127.71"/>
</g>
<!-- Node23&#45;&gt;Node7 -->
<g id="edge41" class="edge">
<title>Node23&#45;&gt;Node7</title>
<path fill="none" stroke="#63b8ff" d="M255.39,-279.5C204.28,-273.45 117.92,-260.36 95,-239 73.45,-218.92 76,-204.96 76,-175.5 76,-175.5 76,-175.5 76,-118.5 76,-32.92 388.85,-14.95 491.68,-11.36"/>
<polygon fill="#63b8ff" stroke="#63b8ff" points="491.9,-14.85 501.78,-11.03 491.67,-7.86 491.9,-14.85"/>
</g>
<!-- Node23&#45;&gt;Node18 -->
<g id="edge45" class="edge">
<title>Node23&#45;&gt;Node18</title>
<path fill="none" stroke="#63b8ff" d="M296.65,-274.88C303.8,-253.08 325.56,-195.36 364,-165 389.07,-145.2 422.99,-134.16 451.61,-128.03"/>
<polygon fill="#63b8ff" stroke="#63b8ff" points="452.36,-131.45 461.48,-126.07 450.99,-124.59 452.36,-131.45"/>
</g>
<!-- Node23&#45;&gt;Node22 -->
<g id="edge42" class="edge">
<title>Node23&#45;&gt;Node22</title>
<path fill="none" stroke="#63b8ff" d="M304.93,-274.98C315.08,-267.07 330.42,-255.11 342.65,-245.58"/>
<polygon fill="#63b8ff" stroke="#63b8ff" points="345.14,-248.08 350.88,-239.17 340.84,-242.56 345.14,-248.08"/>
</g>
<!-- Node24 -->
<g id="node24" class="node">
<title>Node24</title>
<g id="a_node24"><a xlink:title=" ">
<polygon fill="#e0e0e0" stroke="#999999" points="434,-239 396,-239 396,-220 434,-220 434,-239"/>
<text text-anchor="middle" x="415" y="-227" font-family="Helvetica,sans-Serif" font-size="10.00">map</text>
</a>
</g>
</g>
<!-- Node23&#45;&gt;Node24 -->
<g id="edge43" class="edge">
<title>Node23&#45;&gt;Node24</title>
<path fill="none" stroke="#63b8ff" d="M313.44,-274.98C333.11,-266.37 363.74,-252.95 386.22,-243.1"/>
<polygon fill="#63b8ff" stroke="#63b8ff" points="387.85,-246.21 395.61,-238.99 385.04,-239.8 387.85,-246.21"/>
</g>
<!-- Node25 -->
<g id="node25" class="node">
<title>Node25</title>
<g id="a_node25"><a xlink:title=" ">
<polygon fill="#e0e0e0" stroke="#999999" points="290,-239 204,-239 204,-220 290,-220 290,-239"/>
<text text-anchor="middle" x="247" y="-227" font-family="Helvetica,sans-Serif" font-size="10.00">unordered_set</text>
</a>
</g>
</g>
<!-- Node23&#45;&gt;Node25 -->
<g id="edge44" class="edge">
<title>Node23&#45;&gt;Node25</title>
<path fill="none" stroke="#63b8ff" d="M286.24,-274.75C279.53,-267.18 269.66,-256.05 261.49,-246.84"/>
<polygon fill="#63b8ff" stroke="#63b8ff" points="263.87,-244.25 254.62,-239.09 258.63,-248.89 263.87,-244.25"/>
</g>
<!-- Node26 -->
<g id="node26" class="node">
<title>Node26</title>
<g id="a_node26"><a xlink:title=" ">
<polygon fill="#e0e0e0" stroke="#999999" points="147.5,-239 104.5,-239 104.5,-220 147.5,-220 147.5,-239"/>
<text text-anchor="middle" x="126" y="-227" font-family="Helvetica,sans-Serif" font-size="10.00">stack</text>
</a>
</g>
</g>
<!-- Node23&#45;&gt;Node26 -->
<g id="edge46" class="edge">
<title>Node23&#45;&gt;Node26</title>
<path fill="none" stroke="#63b8ff" d="M267.01,-274.98C237.04,-265.53 188.76,-250.3 157.2,-240.34"/>
<polygon fill="#63b8ff" stroke="#63b8ff" points="158.17,-236.98 147.58,-237.31 156.07,-243.66 158.17,-236.98"/>
</g>
<!-- Node27&#45;&gt;Node2 -->
<g id="edge50" class="edge">
<title>Node27&#45;&gt;Node2</title>
<path fill="none" stroke="#63b8ff" d="M567.61,-274.82C548.58,-255.17 500.64,-205.79 460,-165 450.5,-155.47 439.79,-144.87 431.2,-136.4"/>
<polygon fill="#63b8ff" stroke="#63b8ff" points="433.59,-133.84 424,-129.33 428.68,-138.83 433.59,-133.84"/>
</g>
<!-- Node27&#45;&gt;Node3 -->
<g id="edge52" class="edge">
<title>Node27&#45;&gt;Node3</title>
<path fill="none" stroke="#63b8ff" d="M593.2,-274.95C625.89,-258.73 694.75,-224.67 706,-220 751.17,-201.23 771.19,-213.77 810,-184 825.64,-172 837.57,-152.64 844.85,-138.45"/>
<polygon fill="#63b8ff" stroke="#63b8ff" points="848.12,-139.73 849.32,-129.2 841.82,-136.69 848.12,-139.73"/>
</g>
<!-- Node27&#45;&gt;Node5 -->
<g id="edge53" class="edge">
<title>Node27&#45;&gt;Node5</title>
<path fill="none" stroke="#63b8ff" d="M602.51,-274.98C630.21,-266.09 673.86,-252.07 704.74,-242.15"/>
<polygon fill="#63b8ff" stroke="#63b8ff" points="705.83,-245.47 714.28,-239.08 703.69,-238.81 705.83,-245.47"/>
</g>
<!-- Node27&#45;&gt;Node17 -->
<g id="edge54" class="edge">
<title>Node27&#45;&gt;Node17</title>
<path fill="none" stroke="#63b8ff" d="M585.08,-274.75C593.09,-267.03 604.96,-255.6 614.62,-246.28"/>
<polygon fill="#63b8ff" stroke="#63b8ff" points="617.31,-248.55 622.09,-239.09 612.46,-243.51 617.31,-248.55"/>
</g>
<!-- Node27&#45;&gt;Node24 -->
<g id="edge51" class="edge">
<title>Node27&#45;&gt;Node24</title>
<path fill="none" stroke="#63b8ff" d="M550.13,-274.98C521.06,-265.42 474,-249.92 443.79,-239.98"/>
<polygon fill="#63b8ff" stroke="#63b8ff" points="444.83,-236.63 434.24,-236.83 442.64,-243.28 444.83,-236.63"/>
</g>
</g>
</svg>
        <g id="navigator" transform="translate(0 0)" fill="#404254">
                <rect fill="#f2f5e9" fill-opacity="0.5" stroke="#606060" stroke-width=".5" x="0" y="0" width="60" height="60"/>
                <use id="zoomplus" xlink:href="#zoomPlus" x="17" y="9" onmousedown="handleZoom(evt,'in')"/>
                <use id="zoomminus" xlink:href="#zoomMin" x="42" y="9" onmousedown="handleZoom(evt,'out')"/>
                <use id="reset" xlink:href="#resetDef" x="30" y="36" onmousedown="handleReset()"/>
                <g id="arrowUp" xlink:href="#dirArrow" transform="translate(30 24)" onmousedown="handlePan(0,-1)">
                  <use xlink:href="#rim" fill="#404040">
                        <set attributeName="fill" to="#808080" begin="arrowUp.mouseover" end="arrowUp.mouseout"/>
                  </use>
                  <path fill="none" stroke="white" stroke-width="1.5" d="M0,-3.0v7 M-2.5,-0.5L0,-3.0L2.5,-0.5"/>
                </g>
                <g id="arrowRight" xlink:href="#dirArrow" transform="rotate(90) translate(36 -43)" onmousedown="handlePan(1,0)">
                  <use xlink:href="#rim" fill="#404040">
                        <set attributeName="fill" to="#808080" begin="arrowRight.mouseover" end="arrowRight.mouseout"/>
                  </use>
                  <path fill="none" stroke="white" stroke-width="1.5" d="M0,-3.0v7 M-2.5,-0.5L0,-3.0L2.5,-0.5"/>
                </g>
                <g id="arrowDown" xlink:href="#dirArrow" transform="rotate(180) translate(-30 -48)" onmousedown="handlePan(0,1)">
                  <use xlink:href="#rim" fill="#404040">
                        <set attributeName="fill" to="#808080" begin="arrowDown.mouseover" end="arrowDown.mouseout"/>
                  </use>
                  <path fill="none" stroke="white" stroke-width="1.5" d="M0,-3.0v7 M-2.5,-0.5L0,-3.0L2.5,-0.5"/>
                </g>
                <g id="arrowLeft" xlink:href="#dirArrow" transform="rotate(270) translate(-36 17)" onmousedown="handlePan(-1,0)">
                  <use xlink:href="#rim" fill="#404040">
                        <set attributeName="fill" to="#808080" begin="arrowLeft.mouseover" end="arrowLeft.mouseout"/>
                  </use>
                  <path fill="none" stroke="white" stroke-width="1.5" d="M0,-3.0v7 M-2.5,-0.5L0,-3.0L2.5,-0.5"/>
                </g>
        </g>
        <svg viewBox="0 0 15 15" width="100%" height="30px" preserveAspectRatio="xMaxYMin meet">
         <g id="arrow_out" transform="scale(0.3 0.3)">
          <a xlink:href="memberdef_8h__incl_org.svg" target="_base">
           <rect id="button" ry="5" rx="5" y="6" x="6" height="38" width="38"
                fill="#f2f5e9" fill-opacity="0.5" stroke="#606060" stroke-width="1.0"/>
           <path id="arrow"
             d="M 11.500037,31.436501 C 11.940474,20.09759 22.043105,11.32322 32.158766,21.979434 L 37.068811,17.246167 C 37.068811,17.246167 37.088388,32 37.088388,32 L 22.160133,31.978069 C 22.160133,31.978069 26.997745,27.140456 26.997745,27.140456 C 18.528582,18.264221 13.291696,25.230495 11.500037,31.436501 z"
             style="fill:#404040;"/>
          </a>
         </g>
        </svg>
</svg>
