<?xml version="1.0" encoding="UTF-8" standalone="no"?>
<!DOCTYPE svg PUBLIC "-//W3C//DTD SVG 1.1//EN"
 "http://www.w3.org/Graphics/SVG/1.1/DTD/svg11.dtd">
<!-- Generated by graphviz version 2.43.0 (0)
 -->
<!-- Title: DirDefImpl Pages: 1 -->
<svg width="1514pt" height="629pt"
 viewBox="0.00 0.00 1514.00 629.00" xmlns="http://www.w3.org/2000/svg" xmlns:xlink="http://www.w3.org/1999/xlink">
<g id="graph0" class="graph" transform="scale(1 1) rotate(0) translate(4 625)">
<title>DirDefImpl</title>
<!-- Node1 -->
<g id="node1" class="node">
<title>Node1</title>
<g id="a_node1"><a xlink:title=" ">
<polygon fill="#999999" stroke="#666666" points="1506,-115.5 1436,-115.5 1436,-96.5 1506,-96.5 1506,-115.5"/>
<text text-anchor="middle" x="1471" y="-103.5" font-family="Helvetica,sans-Serif" font-size="10.00">DirDefImpl</text>
</a>
</g>
</g>
<!-- Node2 -->
<g id="node2" class="node">
<title>Node2</title>
<g id="a_node2"><a xlink:href="../../dd/d10/class_definition_mixin.html" target="_top" xlink:title=" ">
<polygon fill="white" stroke="#666666" points="1346,-410.5 1201,-410.5 1201,-391.5 1346,-391.5 1346,-410.5"/>
<text text-anchor="middle" x="1273.5" y="-398.5" font-family="Helvetica,sans-Serif" font-size="10.00">DefinitionMixin&lt; DirDef &gt;</text>
</a>
</g>
</g>
<!-- Node2&#45;&gt;Node1 -->
<g id="edge1" class="edge">
<title>Node2&#45;&gt;Node1</title>
<path fill="none" stroke="#63b8ff" d="M1286.71,-382.58C1324.04,-326.25 1435.83,-157.56 1463.67,-115.55"/>
<polygon fill="#63b8ff" stroke="#63b8ff" points="1283.61,-380.92 1281,-391.18 1289.45,-384.78 1283.61,-380.92"/>
</g>
<!-- Node3 -->
<g id="node3" class="node">
<title>Node3</title>
<g id="a_node3"><a xlink:href="../../d4/dd4/class_dir_def.html" target="_top" xlink:title="A model of a directory symbol.">
<polygon fill="white" stroke="#666666" points="356.5,-581.5 308.5,-581.5 308.5,-562.5 356.5,-562.5 356.5,-581.5"/>
<text text-anchor="middle" x="332.5" y="-569.5" font-family="Helvetica,sans-Serif" font-size="10.00">DirDef</text>
</a>
</g>
</g>
<!-- Node3&#45;&gt;Node1 -->
<g id="edge29" class="edge">
<title>Node3&#45;&gt;Node1</title>
<path fill="none" stroke="#9a32cd" stroke-dasharray="5,2" d="M366.4,-581.86C406.95,-593.12 478.15,-610 540.5,-610 540.5,-610 540.5,-610 1274.5,-610 1384.78,-610 1457.33,-185.3 1468.5,-115.62"/>
<polygon fill="#9a32cd" stroke="#9a32cd" points="367.1,-578.42 356.53,-579.06 365.2,-585.15 367.1,-578.42"/>
<text text-anchor="middle" x="851" y="-613" font-family="Helvetica,sans-Serif" font-size="10.00" fill="grey"> m_parent</text>
</g>
<!-- Node3&#45;&gt;Node2 -->
<g id="edge2" class="edge">
<title>Node3&#45;&gt;Node2</title>
<path fill="none" stroke="#63b8ff" d="M366.98,-569.91C407.9,-567.54 479.26,-564 540.5,-564 540.5,-564 540.5,-564 1039.5,-564 1147.12,-564 1240.41,-445.8 1265.74,-410.71"/>
<polygon fill="#63b8ff" stroke="#63b8ff" points="366.55,-566.43 356.77,-570.51 366.96,-573.42 366.55,-566.43"/>
</g>
<!-- Node4 -->
<g id="node4" class="node">
<title>Node4</title>
<g id="a_node4"><a xlink:href="../../d0/d46/class_definition_mutable.html" target="_top" xlink:title=" ">
<polygon fill="white" stroke="#666666" points="104,-576.5 0,-576.5 0,-557.5 104,-557.5 104,-576.5"/>
<text text-anchor="middle" x="52" y="-564.5" font-family="Helvetica,sans-Serif" font-size="10.00">DefinitionMutable</text>
</a>
</g>
</g>
<!-- Node4&#45;&gt;Node3 -->
<g id="edge3" class="edge">
<title>Node4&#45;&gt;Node3</title>
<path fill="none" stroke="#63b8ff" d="M114.38,-568.1C175.5,-569.2 266.13,-570.83 308.32,-571.58"/>
<polygon fill="#63b8ff" stroke="#63b8ff" points="114.14,-564.6 104.08,-567.92 114.02,-571.6 114.14,-564.6"/>
</g>
<!-- Node15 -->
<g id="node15" class="node">
<title>Node15</title>
<g id="a_node15"><a xlink:href="../../de/db0/class_file_def.html" target="_top" xlink:title="A model of a file symbol.">
<polygon fill="white" stroke="#666666" points="239.5,-501.5 188.5,-501.5 188.5,-482.5 239.5,-482.5 239.5,-501.5"/>
<text text-anchor="middle" x="214" y="-489.5" font-family="Helvetica,sans-Serif" font-size="10.00">FileDef</text>
</a>
</g>
</g>
<!-- Node4&#45;&gt;Node15 -->
<g id="edge17" class="edge">
<title>Node4&#45;&gt;Node15</title>
<path fill="none" stroke="#63b8ff" d="M82.89,-552.99C114.86,-538 164.69,-514.65 192.49,-501.61"/>
<polygon fill="#63b8ff" stroke="#63b8ff" points="81.16,-549.94 73.59,-557.35 84.13,-556.27 81.16,-549.94"/>
</g>
<!-- Node5 -->
<g id="node5" class="node">
<title>Node5</title>
<g id="a_node5"><a xlink:href="../../d5/dcc/class_definition.html" target="_top" xlink:title="The common base class of all entity definitions found in the sources.">
<polygon fill="white" stroke="#666666" points="84,-501.5 20,-501.5 20,-482.5 84,-482.5 84,-501.5"/>
<text text-anchor="middle" x="52" y="-489.5" font-family="Helvetica,sans-Serif" font-size="10.00">Definition</text>
</a>
</g>
</g>
<!-- Node5&#45;&gt;Node3 -->
<g id="edge4" class="edge">
<title>Node5&#45;&gt;Node3</title>
<path fill="none" stroke="#63b8ff" d="M93.91,-503.75C153.16,-520.77 260.91,-551.72 308.2,-565.31"/>
<polygon fill="#63b8ff" stroke="#63b8ff" points="94.71,-500.34 84.14,-500.94 92.78,-507.07 94.71,-500.34"/>
</g>
<!-- Node7 -->
<g id="node7" class="node">
<title>Node7</title>
<g id="a_node7"><a xlink:href="../../dd/d50/class_definition_impl_1_1_i_m_p_l.html" target="_top" xlink:title="Private data associated with a Symbol DefinitionImpl object.">
<polygon fill="white" stroke="#666666" points="732,-403.5 617,-403.5 617,-384.5 732,-384.5 732,-403.5"/>
<text text-anchor="middle" x="674.5" y="-391.5" font-family="Helvetica,sans-Serif" font-size="10.00">DefinitionImpl::IMPL</text>
</a>
</g>
</g>
<!-- Node5&#45;&gt;Node7 -->
<g id="edge7" class="edge">
<title>Node5&#45;&gt;Node7</title>
<path fill="none" stroke="#9a32cd" stroke-dasharray="5,2" d="M94.08,-482.81C108.82,-479.72 125.61,-476.44 141,-474 343.33,-441.89 399.83,-469.96 599,-422 617.54,-417.54 637.74,-409.75 652.42,-403.52"/>
<polygon fill="#9a32cd" stroke="#9a32cd" points="93.29,-479.4 84.24,-484.91 94.75,-486.25 93.29,-479.4"/>
<text text-anchor="middle" x="332.5" y="-470" font-family="Helvetica,sans-Serif" font-size="10.00" fill="grey"> def</text>
<text text-anchor="middle" x="332.5" y="-459" font-family="Helvetica,sans-Serif" font-size="10.00" fill="grey">outerScope</text>
</g>
<!-- Node5&#45;&gt;Node15 -->
<g id="edge18" class="edge">
<title>Node5&#45;&gt;Node15</title>
<path fill="none" stroke="#63b8ff" d="M94.34,-492C124.14,-492 163.37,-492 188.4,-492"/>
<polygon fill="#63b8ff" stroke="#63b8ff" points="94.23,-488.5 84.23,-492 94.23,-495.5 94.23,-488.5"/>
</g>
<!-- Node6 -->
<g id="node6" class="node">
<title>Node6</title>
<g id="a_node6"><a xlink:href="../../d3/ddf/class_definition_impl.html" target="_top" xlink:title=" ">
<polygon fill="white" stroke="#666666" points="894,-403.5 808,-403.5 808,-384.5 894,-384.5 894,-403.5"/>
<text text-anchor="middle" x="851" y="-391.5" font-family="Helvetica,sans-Serif" font-size="10.00">DefinitionImpl</text>
</a>
</g>
</g>
<!-- Node6&#45;&gt;Node2 -->
<g id="edge5" class="edge">
<title>Node6&#45;&gt;Node2</title>
<path fill="none" stroke="#9a32cd" stroke-dasharray="5,2" d="M904.15,-393.46C924.67,-393.28 948.44,-393.09 970,-393 1030.89,-392.74 1046.13,-391.53 1107,-393 1137.77,-393.74 1171.73,-395.26 1200.84,-396.78"/>
<polygon fill="#9a32cd" stroke="#9a32cd" points="904.02,-389.96 894.05,-393.56 904.08,-396.96 904.02,-389.96"/>
<text text-anchor="middle" x="1038.5" y="-396" font-family="Helvetica,sans-Serif" font-size="10.00" fill="grey"> m_impl</text>
</g>
<!-- Node17 -->
<g id="node17" class="node">
<title>Node17</title>
<g id="a_node17"><a xlink:href="../../dd/d10/class_definition_mixin.html" target="_top" xlink:title=" ">
<polygon fill="white" stroke="#666666" points="1107,-431.5 970,-431.5 970,-412.5 1107,-412.5 1107,-431.5"/>
<text text-anchor="middle" x="1038.5" y="-419.5" font-family="Helvetica,sans-Serif" font-size="10.00">DefinitionMixin&lt; Base &gt;</text>
</a>
</g>
</g>
<!-- Node6&#45;&gt;Node17 -->
<g id="edge23" class="edge">
<title>Node6&#45;&gt;Node17</title>
<path fill="none" stroke="#9a32cd" stroke-dasharray="5,2" d="M904.16,-401.87C925.99,-405.17 951.56,-409.03 974.44,-412.48"/>
<polygon fill="#9a32cd" stroke="#9a32cd" points="904.5,-398.39 894.09,-400.35 903.46,-405.31 904.5,-398.39"/>
<text text-anchor="middle" x="932" y="-411" font-family="Helvetica,sans-Serif" font-size="10.00" fill="grey"> m_impl</text>
</g>
<!-- Node7&#45;&gt;Node6 -->
<g id="edge6" class="edge">
<title>Node7&#45;&gt;Node6</title>
<path fill="none" stroke="#9a32cd" stroke-dasharray="5,2" d="M742.42,-394C764.37,-394 788.13,-394 807.73,-394"/>
<polygon fill="#9a32cd" stroke="#9a32cd" points="742.16,-390.5 732.16,-394 742.16,-397.5 742.16,-390.5"/>
<text text-anchor="middle" x="770" y="-397" font-family="Helvetica,sans-Serif" font-size="10.00" fill="grey"> m_impl</text>
</g>
<!-- Node8 -->
<g id="node8" class="node">
<title>Node8</title>
<g id="a_node8"><a xlink:href="../../d1/df9/class_section_refs.html" target="_top" xlink:title="class that represents a list of constant references to sections.">
<polygon fill="white" stroke="#666666" points="459,-535.5 385,-535.5 385,-516.5 459,-516.5 459,-535.5"/>
<text text-anchor="middle" x="422" y="-523.5" font-family="Helvetica,sans-Serif" font-size="10.00">SectionRefs</text>
</a>
</g>
</g>
<!-- Node8&#45;&gt;Node7 -->
<g id="edge8" class="edge">
<title>Node8&#45;&gt;Node7</title>
<path fill="none" stroke="#9a32cd" stroke-dasharray="5,2" d="M469.39,-530.26C507.01,-531.48 560,-527.9 599,-504 638.53,-479.77 661.91,-425.78 670.13,-403.7"/>
<polygon fill="#9a32cd" stroke="#9a32cd" points="469.36,-526.76 459.21,-529.81 469.04,-533.75 469.36,-526.76"/>
<text text-anchor="middle" x="541.5" y="-533" font-family="Helvetica,sans-Serif" font-size="10.00" fill="grey"> sectionRefs</text>
</g>
<!-- Node9 -->
<g id="node9" class="node">
<title>Node9</title>
<g id="a_node9"><a xlink:href="../../d3/d3b/class_group_list.html" target="_top" xlink:title=" ">
<polygon fill="white" stroke="#666666" points="453.5,-422.5 390.5,-422.5 390.5,-403.5 453.5,-403.5 453.5,-422.5"/>
<text text-anchor="middle" x="422" y="-410.5" font-family="Helvetica,sans-Serif" font-size="10.00">GroupList</text>
</a>
</g>
</g>
<!-- Node9&#45;&gt;Node7 -->
<g id="edge9" class="edge">
<title>Node9&#45;&gt;Node7</title>
<path fill="none" stroke="#9a32cd" stroke-dasharray="5,2" d="M463.76,-409.91C505.34,-406.75 570.19,-401.84 616.78,-398.3"/>
<polygon fill="#9a32cd" stroke="#9a32cd" points="463.42,-406.42 453.72,-410.67 463.95,-413.4 463.42,-406.42"/>
<text text-anchor="middle" x="541.5" y="-410" font-family="Helvetica,sans-Serif" font-size="10.00" fill="grey"> partOfGroups</text>
</g>
<!-- Node10 -->
<g id="node10" class="node">
<title>Node10</title>
<g id="a_node10"><a xlink:title=" ">
<polygon fill="white" stroke="#666666" points="287,-422.5 141,-422.5 141,-403.5 287,-403.5 287,-422.5"/>
<text text-anchor="middle" x="214" y="-410.5" font-family="Helvetica,sans-Serif" font-size="10.00">std::vector&lt; GroupDef * &gt;</text>
</a>
</g>
</g>
<!-- Node10&#45;&gt;Node9 -->
<g id="edge10" class="edge">
<title>Node10&#45;&gt;Node9</title>
<path fill="none" stroke="#63b8ff" d="M297.13,-413C329.96,-413 365.74,-413 390.37,-413"/>
<polygon fill="#63b8ff" stroke="#63b8ff" points="297.05,-409.5 287.05,-413 297.05,-416.5 297.05,-409.5"/>
</g>
<!-- Node11 -->
<g id="node11" class="node">
<title>Node11</title>
<g id="a_node11"><a xlink:href="../../d7/dd5/struct_doc_info.html" target="_top" xlink:title="Data associated with a detailed description.">
<polygon fill="white" stroke="#666666" points="449,-385.5 395,-385.5 395,-366.5 449,-366.5 449,-385.5"/>
<text text-anchor="middle" x="422" y="-373.5" font-family="Helvetica,sans-Serif" font-size="10.00">DocInfo</text>
</a>
</g>
</g>
<!-- Node11&#45;&gt;Node7 -->
<g id="edge11" class="edge">
<title>Node11&#45;&gt;Node7</title>
<path fill="none" stroke="#9a32cd" stroke-dasharray="5,2" d="M459.51,-372.12C495.24,-369.09 551.13,-366.38 599,-373 615.11,-375.23 632.63,-380.04 646.63,-384.5"/>
<polygon fill="#9a32cd" stroke="#9a32cd" points="458.74,-368.67 449.09,-373.06 459.37,-375.65 458.74,-368.67"/>
<text text-anchor="middle" x="541.5" y="-387" font-family="Helvetica,sans-Serif" font-size="10.00" fill="grey"> details</text>
<text text-anchor="middle" x="541.5" y="-376" font-family="Helvetica,sans-Serif" font-size="10.00" fill="grey">inbodyDocs</text>
</g>
<!-- Node12 -->
<g id="node12" class="node">
<title>Node12</title>
<g id="a_node12"><a xlink:href="../../d9/d45/class_q_c_string.html" target="_top" xlink:title="This is an alternative implementation of QCString.">
<polygon fill="white" stroke="#666666" points="243.5,-204.5 184.5,-204.5 184.5,-185.5 243.5,-185.5 243.5,-204.5"/>
<text text-anchor="middle" x="214" y="-192.5" font-family="Helvetica,sans-Serif" font-size="10.00">QCString</text>
</a>
</g>
</g>
<!-- Node12&#45;&gt;Node1 -->
<g id="edge26" class="edge">
<title>Node12&#45;&gt;Node1</title>
<path fill="none" stroke="#9a32cd" stroke-dasharray="5,2" d="M235.34,-179.52C270.94,-154.03 347.73,-106 421,-106 421,-106 421,-106 1274.5,-106 1331.01,-106 1396.71,-106 1435.74,-106"/>
<polygon fill="#9a32cd" stroke="#9a32cd" points="233.21,-176.75 227.21,-185.48 237.35,-182.4 233.21,-176.75"/>
<text text-anchor="middle" x="851" y="-131" font-family="Helvetica,sans-Serif" font-size="10.00" fill="grey"> m_diskName</text>
<text text-anchor="middle" x="851" y="-120" font-family="Helvetica,sans-Serif" font-size="10.00" fill="grey">m_dispName</text>
<text text-anchor="middle" x="851" y="-109" font-family="Helvetica,sans-Serif" font-size="10.00" fill="grey">m_shortName</text>
</g>
<!-- Node12&#45;&gt;Node7 -->
<g id="edge19" class="edge">
<title>Node12&#45;&gt;Node7</title>
<path fill="none" stroke="#9a32cd" stroke-dasharray="5,2" d="M253.76,-200.99C321.77,-211.57 456.33,-232.83 466,-237 553.13,-274.53 636.94,-356.14 664.25,-384.25"/>
<polygon fill="#9a32cd" stroke="#9a32cd" points="254.26,-197.52 243.84,-199.45 253.19,-204.44 254.26,-197.52"/>
<text text-anchor="middle" x="422" y="-350" font-family="Helvetica,sans-Serif" font-size="10.00" fill="grey"> briefSignatures</text>
<text text-anchor="middle" x="422" y="-339" font-family="Helvetica,sans-Serif" font-size="10.00" fill="grey">defFileExt</text>
<text text-anchor="middle" x="422" y="-328" font-family="Helvetica,sans-Serif" font-size="10.00" fill="grey">defFileName</text>
<text text-anchor="middle" x="422" y="-317" font-family="Helvetica,sans-Serif" font-size="10.00" fill="grey">docSignatures</text>
<text text-anchor="middle" x="422" y="-306" font-family="Helvetica,sans-Serif" font-size="10.00" fill="grey">id</text>
<text text-anchor="middle" x="422" y="-295" font-family="Helvetica,sans-Serif" font-size="10.00" fill="grey">localName</text>
<text text-anchor="middle" x="422" y="-284" font-family="Helvetica,sans-Serif" font-size="10.00" fill="grey">name</text>
<text text-anchor="middle" x="422" y="-273" font-family="Helvetica,sans-Serif" font-size="10.00" fill="grey">qualifiedName</text>
<text text-anchor="middle" x="422" y="-262" font-family="Helvetica,sans-Serif" font-size="10.00" fill="grey">ref</text>
<text text-anchor="middle" x="422" y="-251" font-family="Helvetica,sans-Serif" font-size="10.00" fill="grey">symbolName</text>
<text text-anchor="middle" x="422" y="-240" font-family="Helvetica,sans-Serif" font-size="10.00" fill="grey">...</text>
</g>
<!-- Node12&#45;&gt;Node11 -->
<g id="edge12" class="edge">
<title>Node12&#45;&gt;Node11</title>
<path fill="none" stroke="#9a32cd" stroke-dasharray="5,2" d="M230.3,-212.44C257.79,-243.14 318.28,-307.73 378,-352 385.28,-357.4 393.9,-362.44 401.51,-366.49"/>
<polygon fill="#9a32cd" stroke="#9a32cd" points="232.71,-209.88 223.45,-204.73 227.47,-214.53 232.71,-209.88"/>
<text text-anchor="middle" x="332.5" y="-350" font-family="Helvetica,sans-Serif" font-size="10.00" fill="grey"> doc</text>
<text text-anchor="middle" x="332.5" y="-339" font-family="Helvetica,sans-Serif" font-size="10.00" fill="grey">file</text>
</g>
<!-- Node13 -->
<g id="node13" class="node">
<title>Node13</title>
<g id="a_node13"><a xlink:href="../../d0/da7/struct_brief_info.html" target="_top" xlink:title="Data associated with a brief description.">
<polygon fill="white" stroke="#666666" points="451.5,-153.5 392.5,-153.5 392.5,-134.5 451.5,-134.5 451.5,-153.5"/>
<text text-anchor="middle" x="422" y="-141.5" font-family="Helvetica,sans-Serif" font-size="10.00">BriefInfo</text>
</a>
</g>
</g>
<!-- Node12&#45;&gt;Node13 -->
<g id="edge14" class="edge">
<title>Node12&#45;&gt;Node13</title>
<path fill="none" stroke="#9a32cd" stroke-dasharray="5,2" d="M253.38,-185.5C293.65,-175.53 356.05,-160.08 392.27,-151.11"/>
<polygon fill="#9a32cd" stroke="#9a32cd" points="252.51,-182.11 243.64,-187.91 254.19,-188.9 252.51,-182.11"/>
<text text-anchor="middle" x="332.5" y="-197" font-family="Helvetica,sans-Serif" font-size="10.00" fill="grey"> doc</text>
<text text-anchor="middle" x="332.5" y="-186" font-family="Helvetica,sans-Serif" font-size="10.00" fill="grey">file</text>
<text text-anchor="middle" x="332.5" y="-175" font-family="Helvetica,sans-Serif" font-size="10.00" fill="grey">tooltip</text>
</g>
<!-- Node13&#45;&gt;Node7 -->
<g id="edge13" class="edge">
<title>Node13&#45;&gt;Node7</title>
<path fill="none" stroke="#9a32cd" stroke-dasharray="5,2" d="M461.56,-134.05C500.41,-126.47 560.04,-121.83 599,-152 675.3,-211.07 675.53,-346.76 674.04,-384.25"/>
<polygon fill="#9a32cd" stroke="#9a32cd" points="460.74,-130.64 451.67,-136.13 462.18,-137.49 460.74,-130.64"/>
<text text-anchor="middle" x="541.5" y="-155" font-family="Helvetica,sans-Serif" font-size="10.00" fill="grey"> brief</text>
</g>
<!-- Node14 -->
<g id="node14" class="node">
<title>Node14</title>
<g id="a_node14"><a xlink:href="../../db/dab/struct_body_info.html" target="_top" xlink:title="Data associated with description found in the body.">
<polygon fill="white" stroke="#666666" points="452,-498.5 392,-498.5 392,-479.5 452,-479.5 452,-498.5"/>
<text text-anchor="middle" x="422" y="-486.5" font-family="Helvetica,sans-Serif" font-size="10.00">BodyInfo</text>
</a>
</g>
</g>
<!-- Node14&#45;&gt;Node7 -->
<g id="edge15" class="edge">
<title>Node14&#45;&gt;Node7</title>
<path fill="none" stroke="#9a32cd" stroke-dasharray="5,2" d="M462.68,-490.42C499.71,-490.21 555.62,-485.87 599,-465 629.11,-450.51 654.98,-419.31 666.74,-403.54"/>
<polygon fill="#9a32cd" stroke="#9a32cd" points="462.31,-486.92 452.29,-490.38 462.27,-493.92 462.31,-486.92"/>
<text text-anchor="middle" x="541.5" y="-492" font-family="Helvetica,sans-Serif" font-size="10.00" fill="grey"> body</text>
</g>
<!-- Node15&#45;&gt;Node14 -->
<g id="edge16" class="edge">
<title>Node15&#45;&gt;Node14</title>
<path fill="none" stroke="#9a32cd" stroke-dasharray="5,2" d="M249.92,-491.49C289.81,-490.91 354.39,-489.97 391.75,-489.43"/>
<polygon fill="#9a32cd" stroke="#9a32cd" points="249.8,-487.99 239.85,-491.64 249.9,-494.99 249.8,-487.99"/>
<text text-anchor="middle" x="332.5" y="-493" font-family="Helvetica,sans-Serif" font-size="10.00" fill="grey"> fileDef</text>
</g>
<!-- Node16 -->
<g id="node16" class="node">
<title>Node16</title>
<g id="a_node16"><a xlink:href="../../d1/d7d/class_member_vector.html" target="_top" xlink:title="A vector of MemberDef object.">
<polygon fill="white" stroke="#666666" points="466,-190.5 378,-190.5 378,-171.5 466,-171.5 466,-190.5"/>
<text text-anchor="middle" x="422" y="-178.5" font-family="Helvetica,sans-Serif" font-size="10.00">MemberVector</text>
</a>
</g>
</g>
<!-- Node16&#45;&gt;Node7 -->
<g id="edge20" class="edge">
<title>Node16&#45;&gt;Node7</title>
<path fill="none" stroke="#9a32cd" stroke-dasharray="5,2" d="M474.65,-169.94C512.68,-164.87 563.72,-164.84 599,-191 664.14,-239.29 672.39,-350.61 673.38,-384.22"/>
<polygon fill="#9a32cd" stroke="#9a32cd" points="473.66,-166.55 464.29,-171.49 474.69,-173.48 473.66,-166.55"/>
<text text-anchor="middle" x="541.5" y="-205" font-family="Helvetica,sans-Serif" font-size="10.00" fill="grey"> referencedByMembers</text>
<text text-anchor="middle" x="541.5" y="-194" font-family="Helvetica,sans-Serif" font-size="10.00" fill="grey">referencesMembers</text>
</g>
<!-- Node17&#45;&gt;Node2 -->
<g id="edge21" class="edge">
<title>Node17&#45;&gt;Node2</title>
<path fill="none" stroke="orange" stroke-dasharray="5,2" d="M1117.39,-414.98C1144.39,-412.55 1174.51,-409.83 1200.97,-407.45"/>
<polygon fill="orange" stroke="orange" points="1116.85,-411.51 1107.21,-415.9 1117.48,-418.49 1116.85,-411.51"/>
<text text-anchor="middle" x="1154" y="-416" font-family="Helvetica,sans-Serif" font-size="10.00" fill="grey"> &lt; DirDef &gt;</text>
</g>
<!-- Node18 -->
<g id="node18" class="node">
<title>Node18</title>
<g id="a_node18"><a xlink:title=" ">
<polygon fill="white" stroke="#666666" points="871.5,-451.5 830.5,-451.5 830.5,-432.5 871.5,-432.5 871.5,-451.5"/>
<text text-anchor="middle" x="851" y="-439.5" font-family="Helvetica,sans-Serif" font-size="10.00">Base</text>
</a>
</g>
</g>
<!-- Node18&#45;&gt;Node17 -->
<g id="edge22" class="edge">
<title>Node18&#45;&gt;Node17</title>
<path fill="none" stroke="#63b8ff" d="M881.61,-438.81C905.32,-436.25 939.52,-432.56 969.85,-429.29"/>
<polygon fill="#63b8ff" stroke="#63b8ff" points="881.07,-435.35 871.5,-439.9 881.82,-442.31 881.07,-435.35"/>
</g>
<!-- Node19 -->
<g id="node19" class="node">
<title>Node19</title>
<g id="a_node19"><a xlink:href="../../dc/d2a/class_dir_list.html" target="_top" xlink:title="A list of directories.">
<polygon fill="white" stroke="#666666" points="1297.5,-75.5 1249.5,-75.5 1249.5,-56.5 1297.5,-56.5 1297.5,-75.5"/>
<text text-anchor="middle" x="1273.5" y="-63.5" font-family="Helvetica,sans-Serif" font-size="10.00">DirList</text>
</a>
</g>
</g>
<!-- Node19&#45;&gt;Node1 -->
<g id="edge24" class="edge">
<title>Node19&#45;&gt;Node1</title>
<path fill="none" stroke="#9a32cd" stroke-dasharray="5,2" d="M1307.74,-66.26C1337.22,-67.24 1381.19,-70.57 1418,-81 1430.53,-84.55 1443.74,-90.94 1453.71,-96.37"/>
<polygon fill="#9a32cd" stroke="#9a32cd" points="1307.66,-62.76 1297.57,-66 1307.48,-69.76 1307.66,-62.76"/>
<text text-anchor="middle" x="1391" y="-84" font-family="Helvetica,sans-Serif" font-size="10.00" fill="grey"> m_subdirs</text>
</g>
<!-- Node20 -->
<g id="node20" class="node">
<title>Node20</title>
<g id="a_node20"><a xlink:title=" ">
<polygon fill="white" stroke="#666666" points="1091.5,-78 985.5,-78 985.5,-48 1091.5,-48 1091.5,-78"/>
<text text-anchor="start" x="993.5" y="-66" font-family="Helvetica,sans-Serif" font-size="10.00">std::vector&lt; const</text>
<text text-anchor="middle" x="1038.5" y="-55" font-family="Helvetica,sans-Serif" font-size="10.00"> DirDef * &gt;</text>
</a>
</g>
</g>
<!-- Node20&#45;&gt;Node19 -->
<g id="edge25" class="edge">
<title>Node20&#45;&gt;Node19</title>
<path fill="none" stroke="#63b8ff" d="M1101.91,-63.8C1150.54,-64.43 1215.34,-65.26 1249.37,-65.7"/>
<polygon fill="#63b8ff" stroke="#63b8ff" points="1101.83,-60.3 1091.79,-63.67 1101.74,-67.3 1101.83,-60.3"/>
</g>
<!-- Node21 -->
<g id="node21" class="node">
<title>Node21</title>
<g id="a_node21"><a xlink:href="../../d0/d18/class_file_list.html" target="_top" xlink:title=" ">
<polygon fill="white" stroke="#666666" points="1299,-30.5 1248,-30.5 1248,-11.5 1299,-11.5 1299,-30.5"/>
<text text-anchor="middle" x="1273.5" y="-18.5" font-family="Helvetica,sans-Serif" font-size="10.00">FileList</text>
</a>
</g>
</g>
<!-- Node21&#45;&gt;Node1 -->
<g id="edge27" class="edge">
<title>Node21&#45;&gt;Node1</title>
<path fill="none" stroke="#9a32cd" stroke-dasharray="5,2" d="M1309.09,-24.3C1339.36,-28.35 1383.72,-37.16 1418,-56 1436.66,-66.25 1453.47,-84.94 1462.65,-96.33"/>
<polygon fill="#9a32cd" stroke="#9a32cd" points="1309.36,-20.81 1299.01,-23.06 1308.5,-27.75 1309.36,-20.81"/>
<text text-anchor="middle" x="1391" y="-59" font-family="Helvetica,sans-Serif" font-size="10.00" fill="grey"> m_fileList</text>
</g>
<!-- Node22 -->
<g id="node22" class="node">
<title>Node22</title>
<g id="a_node22"><a xlink:title=" ">
<polygon fill="white" stroke="#666666" points="1091.5,-30 985.5,-30 985.5,0 1091.5,0 1091.5,-30"/>
<text text-anchor="start" x="993.5" y="-18" font-family="Helvetica,sans-Serif" font-size="10.00">std::vector&lt; const</text>
<text text-anchor="middle" x="1038.5" y="-7" font-family="Helvetica,sans-Serif" font-size="10.00"> FileDef * &gt;</text>
</a>
</g>
</g>
<!-- Node22&#45;&gt;Node21 -->
<g id="edge28" class="edge">
<title>Node22&#45;&gt;Node21</title>
<path fill="none" stroke="#63b8ff" d="M1102.07,-16.61C1149.97,-17.84 1213.5,-19.48 1247.87,-20.37"/>
<polygon fill="#63b8ff" stroke="#63b8ff" points="1101.88,-13.11 1091.79,-16.35 1101.7,-20.1 1101.88,-13.11"/>
</g>
</g>
</svg>
