<?xml version="1.0" encoding="UTF-8" standalone="no"?>
<!DOCTYPE svg PUBLIC "-//W3C//DTD SVG 1.1//EN"
 "http://www.w3.org/Graphics/SVG/1.1/DTD/svg11.dtd">
<!-- Generated by graphviz version 2.43.0 (0)
 -->
<!-- Title: /home/runner/work/doxygen/doxygen/src/vhdldocgen.h Pages: 1 -->
<svg width="999pt" height="368pt"
 viewBox="0.00 0.00 999.04 368.00" xmlns="http://www.w3.org/2000/svg" xmlns:xlink="http://www.w3.org/1999/xlink">
<g id="graph0" class="graph" transform="scale(1 1) rotate(0) translate(4 364)">
<title>/home/runner/work/doxygen/doxygen/src/vhdldocgen.h</title>
<!-- Node1 -->
<g id="node1" class="node">
<title>Node1</title>
<g id="a_node1"><a xlink:title=" ">
<polygon fill="#999999" stroke="#666666" points="268,-360 114,-360 114,-330 268,-330 268,-360"/>
<text text-anchor="start" x="122" y="-348" font-family="Helvetica,sans-Serif" font-size="10.00">/home/runner/work/doxygen</text>
<text text-anchor="middle" x="191" y="-337" font-family="Helvetica,sans-Serif" font-size="10.00">/doxygen/src/vhdldocgen.h</text>
</a>
</g>
</g>
<!-- Node2 -->
<g id="node2" class="node">
<title>Node2</title>
<g id="a_node2"><a xlink:href="../../d7/d5c/qcstring_8h.html" target="_top" xlink:title=" ">
<polygon fill="white" stroke="#666666" points="287.5,-129 222.5,-129 222.5,-110 287.5,-110 287.5,-129"/>
<text text-anchor="middle" x="255" y="-117" font-family="Helvetica,sans-Serif" font-size="10.00">qcstring.h</text>
</a>
</g>
</g>
<!-- Node1&#45;&gt;Node2 -->
<g id="edge1" class="edge">
<title>Node1&#45;&gt;Node2</title>
<path fill="none" stroke="#63b8ff" d="M188.84,-329.97C185.74,-306.72 181.38,-258.87 191,-220 199.17,-186.98 223.56,-155.03 239.76,-136.6"/>
<polygon fill="#63b8ff" stroke="#63b8ff" points="242.42,-138.88 246.54,-129.12 237.23,-134.18 242.42,-138.88"/>
</g>
<!-- Node12 -->
<g id="node12" class="node">
<title>Node12</title>
<g id="a_node12"><a xlink:href="../../db/d51/layout_8h.html" target="_top" xlink:title=" ">
<polygon fill="white" stroke="#666666" points="256,-239 200,-239 200,-220 256,-220 256,-239"/>
<text text-anchor="middle" x="228" y="-227" font-family="Helvetica,sans-Serif" font-size="10.00">layout.h</text>
</a>
</g>
</g>
<!-- Node1&#45;&gt;Node12 -->
<g id="edge13" class="edge">
<title>Node1&#45;&gt;Node12</title>
<path fill="none" stroke="#63b8ff" d="M195.69,-329.63C202.37,-309.12 214.65,-271.47 221.99,-248.93"/>
<polygon fill="#63b8ff" stroke="#63b8ff" points="225.38,-249.82 225.15,-239.23 218.73,-247.65 225.38,-249.82"/>
</g>
<!-- Node16 -->
<g id="node16" class="node">
<title>Node16</title>
<g id="a_node16"><a xlink:href="../../df/d9b/arguments_8h.html" target="_top" xlink:title=" ">
<polygon fill="white" stroke="#666666" points="97,-239 19,-239 19,-220 97,-220 97,-239"/>
<text text-anchor="middle" x="58" y="-227" font-family="Helvetica,sans-Serif" font-size="10.00">arguments.h</text>
</a>
</g>
</g>
<!-- Node1&#45;&gt;Node16 -->
<g id="edge18" class="edge">
<title>Node1&#45;&gt;Node16</title>
<path fill="none" stroke="#63b8ff" d="M174.42,-329.85C149.4,-308.5 102.15,-268.17 76.2,-246.03"/>
<polygon fill="#63b8ff" stroke="#63b8ff" points="78.16,-243.1 68.28,-239.27 73.61,-248.42 78.16,-243.1"/>
</g>
<!-- Node17 -->
<g id="node17" class="node">
<title>Node17</title>
<g id="a_node17"><a xlink:href="../../d1/dc6/entry_8h.html" target="_top" xlink:title=" ">
<polygon fill="white" stroke="#666666" points="344,-294 294,-294 294,-275 344,-275 344,-294"/>
<text text-anchor="middle" x="319" y="-282" font-family="Helvetica,sans-Serif" font-size="10.00">entry.h</text>
</a>
</g>
</g>
<!-- Node1&#45;&gt;Node17 -->
<g id="edge21" class="edge">
<title>Node1&#45;&gt;Node17</title>
<path fill="none" stroke="#63b8ff" d="M221.66,-329.99C242.73,-320.36 270.49,-307.67 290.97,-298.31"/>
<polygon fill="#63b8ff" stroke="#63b8ff" points="292.46,-301.48 300.1,-294.14 289.55,-295.11 292.46,-301.48"/>
</g>
<!-- Node3 -->
<g id="node3" class="node">
<title>Node3</title>
<g id="a_node3"><a xlink:title=" ">
<polygon fill="#e0e0e0" stroke="#999999" points="446,-19 402,-19 402,0 446,0 446,-19"/>
<text text-anchor="middle" x="424" y="-7" font-family="Helvetica,sans-Serif" font-size="10.00">string</text>
</a>
</g>
</g>
<!-- Node2&#45;&gt;Node3 -->
<g id="edge2" class="edge">
<title>Node2&#45;&gt;Node3</title>
<path fill="none" stroke="#63b8ff" d="M265.93,-109.79C282.1,-97.07 313.55,-72.99 342,-55 360.08,-43.57 381.33,-32.09 397.67,-23.65"/>
<polygon fill="#63b8ff" stroke="#63b8ff" points="399.35,-26.72 406.66,-19.06 396.16,-20.49 399.35,-26.72"/>
</g>
<!-- Node4 -->
<g id="node4" class="node">
<title>Node4</title>
<g id="a_node4"><a xlink:title=" ">
<polygon fill="#e0e0e0" stroke="#999999" points="415,-74 351,-74 351,-55 415,-55 415,-74"/>
<text text-anchor="middle" x="383" y="-62" font-family="Helvetica,sans-Serif" font-size="10.00">algorithm</text>
</a>
</g>
</g>
<!-- Node2&#45;&gt;Node4 -->
<g id="edge3" class="edge">
<title>Node2&#45;&gt;Node4</title>
<path fill="none" stroke="#63b8ff" d="M275.57,-109.98C296.43,-101.34 328.97,-87.87 352.77,-78.02"/>
<polygon fill="#63b8ff" stroke="#63b8ff" points="354.16,-81.23 362.06,-74.17 351.48,-74.76 354.16,-81.23"/>
</g>
<!-- Node5 -->
<g id="node5" class="node">
<title>Node5</title>
<g id="a_node5"><a xlink:title=" ">
<polygon fill="#e0e0e0" stroke="#999999" points="482.5,-74 433.5,-74 433.5,-55 482.5,-55 482.5,-74"/>
<text text-anchor="middle" x="458" y="-62" font-family="Helvetica,sans-Serif" font-size="10.00">cctype</text>
</a>
</g>
</g>
<!-- Node2&#45;&gt;Node5 -->
<g id="edge4" class="edge">
<title>Node2&#45;&gt;Node5</title>
<path fill="none" stroke="#63b8ff" d="M287.62,-109.98C324.8,-100.28 385.35,-84.47 423.36,-74.54"/>
<polygon fill="#63b8ff" stroke="#63b8ff" points="424.65,-77.82 433.45,-71.91 422.89,-71.05 424.65,-77.82"/>
</g>
<!-- Node6 -->
<g id="node6" class="node">
<title>Node6</title>
<g id="a_node6"><a xlink:title=" ">
<polygon fill="#e0e0e0" stroke="#999999" points="50,-74 0,-74 0,-55 50,-55 50,-74"/>
<text text-anchor="middle" x="25" y="-62" font-family="Helvetica,sans-Serif" font-size="10.00">cstring</text>
</a>
</g>
</g>
<!-- Node2&#45;&gt;Node6 -->
<g id="edge5" class="edge">
<title>Node2&#45;&gt;Node6</title>
<path fill="none" stroke="#63b8ff" d="M222.35,-111.31C185.38,-103.13 123.1,-89.19 60.31,-74.27"/>
<polygon fill="#63b8ff" stroke="#63b8ff" points="60.78,-70.79 50.24,-71.87 59.15,-77.6 60.78,-70.79"/>
</g>
<!-- Node7 -->
<g id="node7" class="node">
<title>Node7</title>
<g id="a_node7"><a xlink:title=" ">
<polygon fill="#e0e0e0" stroke="#999999" points="647,-74 601,-74 601,-55 647,-55 647,-74"/>
<text text-anchor="middle" x="624" y="-62" font-family="Helvetica,sans-Serif" font-size="10.00">cstdio</text>
</a>
</g>
</g>
<!-- Node2&#45;&gt;Node7 -->
<g id="edge6" class="edge">
<title>Node2&#45;&gt;Node7</title>
<path fill="none" stroke="#63b8ff" d="M287.63,-111.52C290.46,-110.98 293.28,-110.47 296,-110 403.18,-91.64 531.12,-76.11 590.57,-69.26"/>
<polygon fill="#63b8ff" stroke="#63b8ff" points="591.31,-72.69 600.85,-68.08 590.52,-65.74 591.31,-72.69"/>
</g>
<!-- Node8 -->
<g id="node8" class="node">
<title>Node8</title>
<g id="a_node8"><a xlink:title=" ">
<polygon fill="#e0e0e0" stroke="#999999" points="117.5,-74 68.5,-74 68.5,-55 117.5,-55 117.5,-74"/>
<text text-anchor="middle" x="93" y="-62" font-family="Helvetica,sans-Serif" font-size="10.00">cstdlib</text>
</a>
</g>
</g>
<!-- Node2&#45;&gt;Node8 -->
<g id="edge7" class="edge">
<title>Node2&#45;&gt;Node8</title>
<path fill="none" stroke="#63b8ff" d="M228.97,-109.98C201.41,-100.97 157.77,-86.69 127.39,-76.75"/>
<polygon fill="#63b8ff" stroke="#63b8ff" points="128.23,-73.34 117.64,-73.56 126.05,-80 128.23,-73.34"/>
</g>
<!-- Node9 -->
<g id="node9" class="node">
<title>Node9</title>
<g id="a_node9"><a xlink:title=" ">
<polygon fill="#e0e0e0" stroke="#999999" points="297,-19 247,-19 247,0 297,0 297,-19"/>
<text text-anchor="middle" x="272" y="-7" font-family="Helvetica,sans-Serif" font-size="10.00">cstdint</text>
</a>
</g>
</g>
<!-- Node2&#45;&gt;Node9 -->
<g id="edge8" class="edge">
<title>Node2&#45;&gt;Node9</title>
<path fill="none" stroke="#63b8ff" d="M222.33,-110.08C189.94,-100.04 147.49,-81.25 165,-55 180.83,-31.28 211.93,-20.18 236.54,-15"/>
<polygon fill="#63b8ff" stroke="#63b8ff" points="237.44,-18.4 246.63,-13.13 236.16,-11.51 237.44,-18.4"/>
</g>
<!-- Node10 -->
<g id="node10" class="node">
<title>Node10</title>
<g id="a_node10"><a xlink:title=" ">
<polygon fill="#e0e0e0" stroke="#999999" points="231.5,-74 174.5,-74 174.5,-55 231.5,-55 231.5,-74"/>
<text text-anchor="middle" x="203" y="-62" font-family="Helvetica,sans-Serif" font-size="10.00">ostream</text>
</a>
</g>
</g>
<!-- Node2&#45;&gt;Node10 -->
<g id="edge9" class="edge">
<title>Node2&#45;&gt;Node10</title>
<path fill="none" stroke="#63b8ff" d="M246.41,-109.75C238.84,-102.03 227.62,-90.6 218.49,-81.28"/>
<polygon fill="#63b8ff" stroke="#63b8ff" points="220.93,-78.78 211.43,-74.09 215.93,-83.68 220.93,-78.78"/>
</g>
<!-- Node11 -->
<g id="node11" class="node">
<title>Node11</title>
<g id="a_node11"><a xlink:href="../../db/d7c/utf8_8h.html" target="_top" xlink:title="Various UTF8 related helper functions.">
<polygon fill="white" stroke="#666666" points="294.5,-74 249.5,-74 249.5,-55 294.5,-55 294.5,-74"/>
<text text-anchor="middle" x="272" y="-62" font-family="Helvetica,sans-Serif" font-size="10.00">utf8.h</text>
</a>
</g>
</g>
<!-- Node2&#45;&gt;Node11 -->
<g id="edge10" class="edge">
<title>Node2&#45;&gt;Node11</title>
<path fill="none" stroke="#63b8ff" d="M257.81,-109.75C260.06,-102.72 263.3,-92.62 266.12,-83.84"/>
<polygon fill="#63b8ff" stroke="#63b8ff" points="269.52,-84.68 269.25,-74.09 262.86,-82.54 269.52,-84.68"/>
</g>
<!-- Node11&#45;&gt;Node3 -->
<g id="edge12" class="edge">
<title>Node11&#45;&gt;Node3</title>
<path fill="none" stroke="#63b8ff" d="M294.76,-55.57C320.54,-46.58 362.75,-31.86 391.87,-21.7"/>
<polygon fill="#63b8ff" stroke="#63b8ff" points="393.29,-24.91 401.58,-18.32 390.99,-18.3 393.29,-24.91"/>
</g>
<!-- Node11&#45;&gt;Node9 -->
<g id="edge11" class="edge">
<title>Node11&#45;&gt;Node9</title>
<path fill="none" stroke="#63b8ff" d="M272,-54.75C272,-47.8 272,-37.85 272,-29.13"/>
<polygon fill="#63b8ff" stroke="#63b8ff" points="275.5,-29.09 272,-19.09 268.5,-29.09 275.5,-29.09"/>
</g>
<!-- Node13 -->
<g id="node13" class="node">
<title>Node13</title>
<g id="a_node13"><a xlink:title=" ">
<polygon fill="#e0e0e0" stroke="#999999" points="589,-129 531,-129 531,-110 589,-110 589,-129"/>
<text text-anchor="middle" x="560" y="-117" font-family="Helvetica,sans-Serif" font-size="10.00">memory</text>
</a>
</g>
</g>
<!-- Node12&#45;&gt;Node13 -->
<g id="edge14" class="edge">
<title>Node12&#45;&gt;Node13</title>
<path fill="none" stroke="#63b8ff" d="M256.43,-226.26C317.65,-221.05 459.82,-206.81 502,-184 522.04,-173.16 538.79,-152.69 549.06,-137.91"/>
<polygon fill="#63b8ff" stroke="#63b8ff" points="552.24,-139.45 554.84,-129.18 546.4,-135.59 552.24,-139.45"/>
</g>
<!-- Node14 -->
<g id="node14" class="node">
<title>Node14</title>
<g id="a_node14"><a xlink:title=" ">
<polygon fill="#e0e0e0" stroke="#999999" points="204.5,-129 157.5,-129 157.5,-110 204.5,-110 204.5,-129"/>
<text text-anchor="middle" x="181" y="-117" font-family="Helvetica,sans-Serif" font-size="10.00">vector</text>
</a>
</g>
</g>
<!-- Node12&#45;&gt;Node14 -->
<g id="edge15" class="edge">
<title>Node12&#45;&gt;Node14</title>
<path fill="none" stroke="#63b8ff" d="M224.15,-219.66C216.47,-202.01 199.1,-162.09 188.89,-138.64"/>
<polygon fill="#63b8ff" stroke="#63b8ff" points="191.97,-136.93 184.77,-129.16 185.55,-139.72 191.97,-136.93"/>
</g>
<!-- Node15 -->
<g id="node15" class="node">
<title>Node15</title>
<g id="a_node15"><a xlink:href="../../d9/d49/types_8h.html" target="_top" xlink:title="This file contains a number of basic enums and types.">
<polygon fill="white" stroke="#666666" points="282.5,-184 229.5,-184 229.5,-165 282.5,-165 282.5,-184"/>
<text text-anchor="middle" x="256" y="-172" font-family="Helvetica,sans-Serif" font-size="10.00">types.h</text>
</a>
</g>
</g>
<!-- Node12&#45;&gt;Node15 -->
<g id="edge16" class="edge">
<title>Node12&#45;&gt;Node15</title>
<path fill="none" stroke="#63b8ff" d="M232.62,-219.75C236.46,-212.49 242.02,-201.95 246.76,-192.98"/>
<polygon fill="#63b8ff" stroke="#63b8ff" points="249.89,-194.57 251.46,-184.09 243.7,-191.3 249.89,-194.57"/>
</g>
<!-- Node15&#45;&gt;Node2 -->
<g id="edge17" class="edge">
<title>Node15&#45;&gt;Node2</title>
<path fill="none" stroke="#63b8ff" d="M255.83,-164.75C255.7,-157.8 255.52,-147.85 255.35,-139.13"/>
<polygon fill="#63b8ff" stroke="#63b8ff" points="258.85,-139.02 255.16,-129.09 251.85,-139.15 258.85,-139.02"/>
</g>
<!-- Node16&#45;&gt;Node2 -->
<g id="edge20" class="edge">
<title>Node16&#45;&gt;Node2</title>
<path fill="none" stroke="#63b8ff" d="M68.72,-219.89C85.25,-206.87 118.29,-181.91 149,-165 172.24,-152.2 199.93,-140.69 221.18,-132.59"/>
<polygon fill="#63b8ff" stroke="#63b8ff" points="222.61,-135.79 230.75,-129 220.16,-129.24 222.61,-135.79"/>
</g>
<!-- Node16&#45;&gt;Node14 -->
<g id="edge19" class="edge">
<title>Node16&#45;&gt;Node14</title>
<path fill="none" stroke="#63b8ff" d="M57.68,-219.58C57.69,-206.17 59.62,-180.69 73,-165 91.76,-142.99 123.14,-131.69 147.26,-126"/>
<polygon fill="#63b8ff" stroke="#63b8ff" points="148.04,-129.41 157.09,-123.89 146.58,-122.57 148.04,-129.41"/>
</g>
<!-- Node17&#45;&gt;Node13 -->
<g id="edge23" class="edge">
<title>Node17&#45;&gt;Node13</title>
<path fill="none" stroke="#63b8ff" d="M344.17,-281.22C393.89,-275.24 504.25,-254.31 555,-184 564.2,-171.25 564.72,-153.07 563.37,-139.43"/>
<polygon fill="#63b8ff" stroke="#63b8ff" points="566.8,-138.67 561.94,-129.26 559.87,-139.65 566.8,-138.67"/>
</g>
<!-- Node17&#45;&gt;Node14 -->
<g id="edge22" class="edge">
<title>Node17&#45;&gt;Node14</title>
<path fill="none" stroke="#63b8ff" d="M293.94,-282.53C264.21,-279.9 215.6,-270.68 191,-239 168.6,-210.15 172.38,-164.59 176.86,-139.18"/>
<polygon fill="#63b8ff" stroke="#63b8ff" points="180.35,-139.55 178.87,-129.06 173.49,-138.19 180.35,-139.55"/>
</g>
<!-- Node17&#45;&gt;Node15 -->
<g id="edge25" class="edge">
<title>Node17&#45;&gt;Node15</title>
<path fill="none" stroke="#63b8ff" d="M313.84,-274.66C303.46,-256.85 279.84,-216.37 266.21,-193.01"/>
<polygon fill="#63b8ff" stroke="#63b8ff" points="269.11,-191.03 261.05,-184.16 263.07,-194.56 269.11,-191.03"/>
</g>
<!-- Node17&#45;&gt;Node16 -->
<g id="edge26" class="edge">
<title>Node17&#45;&gt;Node16</title>
<path fill="none" stroke="#63b8ff" d="M293.97,-278.42C251.09,-269.71 162.83,-251.79 107.24,-240.5"/>
<polygon fill="#63b8ff" stroke="#63b8ff" points="107.76,-237.03 97.26,-238.47 106.37,-243.89 107.76,-237.03"/>
</g>
<!-- Node18 -->
<g id="node18" class="node">
<title>Node18</title>
<g id="a_node18"><a xlink:title=" ">
<polygon fill="#e0e0e0" stroke="#999999" points="663,-129 607,-129 607,-110 663,-110 663,-129"/>
<text text-anchor="middle" x="635" y="-117" font-family="Helvetica,sans-Serif" font-size="10.00">sstream</text>
</a>
</g>
</g>
<!-- Node17&#45;&gt;Node18 -->
<g id="edge24" class="edge">
<title>Node17&#45;&gt;Node18</title>
<path fill="none" stroke="#63b8ff" d="M344.17,-282.39C383.57,-279.69 461.17,-270.48 518,-239 564.38,-213.31 604.35,-163.62 623.29,-137.5"/>
<polygon fill="#63b8ff" stroke="#63b8ff" points="626.16,-139.5 629.09,-129.32 620.45,-135.45 626.16,-139.5"/>
</g>
<!-- Node19 -->
<g id="node19" class="node">
<title>Node19</title>
<g id="a_node19"><a xlink:href="../../d1/d02/reflist_8h.html" target="_top" xlink:title=" ">
<polygon fill="white" stroke="#666666" points="394.5,-239 341.5,-239 341.5,-220 394.5,-220 394.5,-239"/>
<text text-anchor="middle" x="368" y="-227" font-family="Helvetica,sans-Serif" font-size="10.00">reflist.h</text>
</a>
</g>
</g>
<!-- Node17&#45;&gt;Node19 -->
<g id="edge27" class="edge">
<title>Node17&#45;&gt;Node19</title>
<path fill="none" stroke="#63b8ff" d="M327.09,-274.75C334.16,-267.11 344.59,-255.82 353.15,-246.56"/>
<polygon fill="#63b8ff" stroke="#63b8ff" points="355.84,-248.81 360.06,-239.09 350.7,-244.06 355.84,-248.81"/>
</g>
<!-- Node22 -->
<g id="node22" class="node">
<title>Node22</title>
<g id="a_node22"><a xlink:href="../../d4/d7d/textstream_8h.html" target="_top" xlink:title=" ">
<polygon fill="white" stroke="#666666" points="769,-184 689,-184 689,-165 769,-165 769,-184"/>
<text text-anchor="middle" x="729" y="-172" font-family="Helvetica,sans-Serif" font-size="10.00">textstream.h</text>
</a>
</g>
</g>
<!-- Node17&#45;&gt;Node22 -->
<g id="edge40" class="edge">
<title>Node17&#45;&gt;Node22</title>
<path fill="none" stroke="#63b8ff" d="M344.1,-281.84C411.28,-277.14 593.81,-262.49 649,-239 674.61,-228.1 698.88,-206.7 713.84,-191.77"/>
<polygon fill="#63b8ff" stroke="#63b8ff" points="716.68,-193.86 721.13,-184.25 711.66,-188.99 716.68,-193.86"/>
</g>
<!-- Node19&#45;&gt;Node2 -->
<g id="edge31" class="edge">
<title>Node19&#45;&gt;Node2</title>
<path fill="none" stroke="#63b8ff" d="M363.66,-219.88C356.78,-206.86 342.38,-181.88 325,-165 312.24,-152.61 295.5,-141.82 281.59,-133.96"/>
<polygon fill="#63b8ff" stroke="#63b8ff" points="282.95,-130.72 272.5,-129.01 279.61,-136.87 282.95,-130.72"/>
</g>
<!-- Node19&#45;&gt;Node13 -->
<g id="edge30" class="edge">
<title>Node19&#45;&gt;Node13</title>
<path fill="none" stroke="#63b8ff" d="M394.57,-228.5C430.7,-227.08 495.36,-219.34 535,-184 547.84,-172.55 554.16,-153.67 557.22,-139.46"/>
<polygon fill="#63b8ff" stroke="#63b8ff" points="560.72,-139.76 559.04,-129.3 553.83,-138.53 560.72,-139.76"/>
</g>
<!-- Node19&#45;&gt;Node14 -->
<g id="edge28" class="edge">
<title>Node19&#45;&gt;Node14</title>
<path fill="none" stroke="#63b8ff" d="M359.21,-219.69C345.58,-206.42 318.1,-181.13 291,-165 266.75,-150.56 236.94,-138.83 214.48,-131.05"/>
<polygon fill="#63b8ff" stroke="#63b8ff" points="215.32,-127.63 204.72,-127.75 213.08,-134.27 215.32,-127.63"/>
</g>
<!-- Node20 -->
<g id="node20" class="node">
<title>Node20</title>
<g id="a_node20"><a xlink:title=" ">
<polygon fill="#e0e0e0" stroke="#999999" points="398.5,-129 305.5,-129 305.5,-110 398.5,-110 398.5,-129"/>
<text text-anchor="middle" x="352" y="-117" font-family="Helvetica,sans-Serif" font-size="10.00">unordered_map</text>
</a>
</g>
</g>
<!-- Node19&#45;&gt;Node20 -->
<g id="edge29" class="edge">
<title>Node19&#45;&gt;Node20</title>
<path fill="none" stroke="#63b8ff" d="M367.77,-219.82C367.33,-207.54 366.14,-184.43 363,-165 361.6,-156.36 359.37,-146.93 357.29,-138.98"/>
<polygon fill="#63b8ff" stroke="#63b8ff" points="360.65,-137.99 354.62,-129.28 353.9,-139.85 360.65,-137.99"/>
</g>
<!-- Node21 -->
<g id="node21" class="node">
<title>Node21</title>
<g id="a_node21"><a xlink:href="../../da/de1/linkedmap_8h.html" target="_top" xlink:title=" ">
<polygon fill="white" stroke="#666666" points="492.5,-184 415.5,-184 415.5,-165 492.5,-165 492.5,-184"/>
<text text-anchor="middle" x="454" y="-172" font-family="Helvetica,sans-Serif" font-size="10.00">linkedmap.h</text>
</a>
</g>
</g>
<!-- Node19&#45;&gt;Node21 -->
<g id="edge32" class="edge">
<title>Node19&#45;&gt;Node21</title>
<path fill="none" stroke="#63b8ff" d="M381.82,-219.98C395.15,-211.77 415.58,-199.18 431.31,-189.49"/>
<polygon fill="#63b8ff" stroke="#63b8ff" points="433.25,-192.4 439.93,-184.17 429.58,-186.44 433.25,-192.4"/>
</g>
<!-- Node21&#45;&gt;Node2 -->
<g id="edge39" class="edge">
<title>Node21&#45;&gt;Node2</title>
<path fill="none" stroke="#63b8ff" d="M422.03,-164.98C388.18,-155.97 334.6,-141.7 297.29,-131.76"/>
<polygon fill="#63b8ff" stroke="#63b8ff" points="297.79,-128.27 287.22,-129.08 295.99,-135.04 297.79,-128.27"/>
</g>
<!-- Node21&#45;&gt;Node3 -->
<g id="edge36" class="edge">
<title>Node21&#45;&gt;Node3</title>
<path fill="none" stroke="#63b8ff" d="M461.37,-164.73C477.45,-144.47 512.65,-93.2 492,-55 484.15,-40.48 469.27,-29.94 455.43,-22.77"/>
<polygon fill="#63b8ff" stroke="#63b8ff" points="456.64,-19.47 446.11,-18.34 453.64,-25.79 456.64,-19.47"/>
</g>
<!-- Node21&#45;&gt;Node4 -->
<g id="edge37" class="edge">
<title>Node21&#45;&gt;Node4</title>
<path fill="none" stroke="#63b8ff" d="M448.19,-164.66C436.43,-146.77 409.63,-106 394.3,-82.69"/>
<polygon fill="#63b8ff" stroke="#63b8ff" points="397.11,-80.59 388.69,-74.16 391.26,-84.44 397.11,-80.59"/>
</g>
<!-- Node21&#45;&gt;Node5 -->
<g id="edge38" class="edge">
<title>Node21&#45;&gt;Node5</title>
<path fill="none" stroke="#63b8ff" d="M454.33,-164.66C454.98,-147.17 456.43,-107.8 457.3,-84.27"/>
<polygon fill="#63b8ff" stroke="#63b8ff" points="460.81,-84.28 457.68,-74.16 453.81,-84.02 460.81,-84.28"/>
</g>
<!-- Node21&#45;&gt;Node13 -->
<g id="edge35" class="edge">
<title>Node21&#45;&gt;Node13</title>
<path fill="none" stroke="#63b8ff" d="M471.03,-164.98C487.93,-156.54 514.06,-143.47 533.64,-133.68"/>
<polygon fill="#63b8ff" stroke="#63b8ff" points="535.28,-136.77 542.66,-129.17 532.15,-130.51 535.28,-136.77"/>
</g>
<!-- Node21&#45;&gt;Node14 -->
<g id="edge34" class="edge">
<title>Node21&#45;&gt;Node14</title>
<path fill="none" stroke="#63b8ff" d="M415.41,-167.32C369.63,-159.77 290.79,-146.13 214.49,-129.21"/>
<polygon fill="#63b8ff" stroke="#63b8ff" points="215.24,-125.79 204.72,-127.02 213.71,-132.62 215.24,-125.79"/>
</g>
<!-- Node21&#45;&gt;Node20 -->
<g id="edge33" class="edge">
<title>Node21&#45;&gt;Node20</title>
<path fill="none" stroke="#63b8ff" d="M437.61,-164.98C421.43,-156.57 396.43,-143.59 377.62,-133.81"/>
<polygon fill="#63b8ff" stroke="#63b8ff" points="379.17,-130.68 368.69,-129.17 375.95,-136.89 379.17,-130.68"/>
</g>
<!-- Node22&#45;&gt;Node2 -->
<g id="edge48" class="edge">
<title>Node22&#45;&gt;Node2</title>
<path fill="none" stroke="#63b8ff" d="M688.83,-170.75C613.87,-165.31 447.46,-151.85 297.9,-129.15"/>
<polygon fill="#63b8ff" stroke="#63b8ff" points="298.03,-125.63 287.62,-127.58 296.97,-132.55 298.03,-125.63"/>
</g>
<!-- Node22&#45;&gt;Node3 -->
<g id="edge41" class="edge">
<title>Node22&#45;&gt;Node3</title>
<path fill="none" stroke="#63b8ff" d="M769.16,-172.63C834.58,-170.27 959.62,-161.5 987,-129 992.44,-122.54 992.27,-116.6 987,-110 920.11,-26.35 565.88,-13.02 456.32,-10.9"/>
<polygon fill="#63b8ff" stroke="#63b8ff" points="456.27,-7.4 446.21,-10.73 456.15,-14.4 456.27,-7.4"/>
</g>
<!-- Node22&#45;&gt;Node7 -->
<g id="edge45" class="edge">
<title>Node22&#45;&gt;Node7</title>
<path fill="none" stroke="#63b8ff" d="M721.5,-164.64C710.83,-152.15 690.5,-128.8 672,-110 662.14,-99.98 650.59,-89.25 641.3,-80.83"/>
<polygon fill="#63b8ff" stroke="#63b8ff" points="643.59,-78.19 633.81,-74.11 638.91,-83.4 643.59,-78.19"/>
</g>
<!-- Node22&#45;&gt;Node9 -->
<g id="edge44" class="edge">
<title>Node22&#45;&gt;Node9</title>
<path fill="none" stroke="#63b8ff" d="M726.71,-164.97C720.14,-142.34 698.88,-80.75 656,-55 626.42,-37.24 396.58,-19.3 307.3,-12.93"/>
<polygon fill="#63b8ff" stroke="#63b8ff" points="307.35,-9.42 297.13,-12.21 306.86,-16.4 307.35,-9.42"/>
</g>
<!-- Node22&#45;&gt;Node18 -->
<g id="edge43" class="edge">
<title>Node22&#45;&gt;Node18</title>
<path fill="none" stroke="#63b8ff" d="M713.9,-164.98C699.18,-156.69 676.58,-143.94 659.33,-134.22"/>
<polygon fill="#63b8ff" stroke="#63b8ff" points="660.81,-131.03 650.38,-129.17 657.37,-137.13 660.81,-131.03"/>
</g>
<!-- Node23 -->
<g id="node23" class="node">
<title>Node23</title>
<g id="a_node23"><a xlink:title=" ">
<polygon fill="#e0e0e0" stroke="#999999" points="817,-129 757,-129 757,-110 817,-110 817,-129"/>
<text text-anchor="middle" x="787" y="-117" font-family="Helvetica,sans-Serif" font-size="10.00">iostream</text>
</a>
</g>
</g>
<!-- Node22&#45;&gt;Node23 -->
<g id="edge42" class="edge">
<title>Node22&#45;&gt;Node23</title>
<path fill="none" stroke="#63b8ff" d="M738.32,-164.98C746.81,-157.23 759.56,-145.58 769.88,-136.14"/>
<polygon fill="#63b8ff" stroke="#63b8ff" points="772.49,-138.5 777.51,-129.17 767.77,-133.33 772.49,-138.5"/>
</g>
<!-- Node24 -->
<g id="node24" class="node">
<title>Node24</title>
<g id="a_node24"><a xlink:title=" ">
<polygon fill="#e0e0e0" stroke="#999999" points="890.5,-129 835.5,-129 835.5,-110 890.5,-110 890.5,-129"/>
<text text-anchor="middle" x="863" y="-117" font-family="Helvetica,sans-Serif" font-size="10.00">fstream</text>
</a>
</g>
</g>
<!-- Node22&#45;&gt;Node24 -->
<g id="edge46" class="edge">
<title>Node22&#45;&gt;Node24</title>
<path fill="none" stroke="#63b8ff" d="M750.53,-164.98C772.47,-156.3 806.74,-142.75 831.69,-132.88"/>
<polygon fill="#63b8ff" stroke="#63b8ff" points="833.07,-136.1 841.08,-129.17 830.49,-129.59 833.07,-136.1"/>
</g>
<!-- Node25 -->
<g id="node25" class="node">
<title>Node25</title>
<g id="a_node25"><a xlink:title=" ">
<polygon fill="#e0e0e0" stroke="#999999" points="977.5,-129 908.5,-129 908.5,-110 977.5,-110 977.5,-129"/>
<text text-anchor="middle" x="943" y="-117" font-family="Helvetica,sans-Serif" font-size="10.00">type_traits</text>
</a>
</g>
</g>
<!-- Node22&#45;&gt;Node25 -->
<g id="edge47" class="edge">
<title>Node22&#45;&gt;Node25</title>
<path fill="none" stroke="#63b8ff" d="M763.38,-164.98C800.09,-155.89 858.38,-141.46 898.55,-131.51"/>
<polygon fill="#63b8ff" stroke="#63b8ff" points="899.48,-134.88 908.35,-129.08 897.8,-128.09 899.48,-134.88"/>
</g>
</g>
</svg>
