<?xml version="1.0" encoding="UTF-8" standalone="no"?>
<!DOCTYPE svg PUBLIC "-//W3C//DTD SVG 1.1//EN"
 "http://www.w3.org/Graphics/SVG/1.1/DTD/svg11.dtd">
<!-- Generated by graphviz version 2.43.0 (0)
 -->
<!-- Title: pycodeYY_state Pages: 1 -->
<svg width="493pt" height="429pt"
 viewBox="0.00 0.00 493.00 428.50" xmlns="http://www.w3.org/2000/svg" xmlns:xlink="http://www.w3.org/1999/xlink">
<g id="graph0" class="graph" transform="scale(1 1) rotate(0) translate(4 424.5)">
<title>pycodeYY_state</title>
<!-- Node1 -->
<g id="node1" class="node">
<title>Node1</title>
<g id="a_node1"><a xlink:title=" ">
<polygon fill="#999999" stroke="#666666" points="485,-167 391,-167 391,-148 485,-148 485,-167"/>
<text text-anchor="middle" x="438" y="-155" font-family="Helvetica,sans-Serif" font-size="10.00">pycodeYY_state</text>
</a>
</g>
</g>
<!-- Node2 -->
<g id="node2" class="node">
<title>Node2</title>
<g id="a_node2"><a xlink:href="../../d9/d45/class_q_c_string.html" target="_top" xlink:title="This is an alternative implementation of QCString.">
<polygon fill="white" stroke="#666666" points="229.5,-337 170.5,-337 170.5,-318 229.5,-318 229.5,-337"/>
<text text-anchor="middle" x="200" y="-325" font-family="Helvetica,sans-Serif" font-size="10.00">QCString</text>
</a>
</g>
</g>
<!-- Node2&#45;&gt;Node1 -->
<g id="edge1" class="edge">
<title>Node2&#45;&gt;Node1</title>
<path fill="none" stroke="#9a32cd" stroke-dasharray="5,2" d="M239.87,-332.52C277.64,-335.24 334.76,-333.37 373,-304.5 419.43,-269.45 432.71,-193.65 436.02,-167"/>
<polygon fill="#9a32cd" stroke="#9a32cd" points="240.02,-329.02 229.76,-331.65 239.42,-336 240.02,-329.02"/>
<text text-anchor="middle" x="325" y="-412.5" font-family="Helvetica,sans-Serif" font-size="10.00" fill="grey"> classScope</text>
<text text-anchor="middle" x="325" y="-401.5" font-family="Helvetica,sans-Serif" font-size="10.00" fill="grey">curClassName</text>
<text text-anchor="middle" x="325" y="-390.5" font-family="Helvetica,sans-Serif" font-size="10.00" fill="grey">docBlock</text>
<text text-anchor="middle" x="325" y="-379.5" font-family="Helvetica,sans-Serif" font-size="10.00" fill="grey">exampleName</text>
<text text-anchor="middle" x="325" y="-368.5" font-family="Helvetica,sans-Serif" font-size="10.00" fill="grey">fileName</text>
<text text-anchor="middle" x="325" y="-357.5" font-family="Helvetica,sans-Serif" font-size="10.00" fill="grey">name</text>
<text text-anchor="middle" x="325" y="-346.5" font-family="Helvetica,sans-Serif" font-size="10.00" fill="grey">realScope</text>
<text text-anchor="middle" x="325" y="-335.5" font-family="Helvetica,sans-Serif" font-size="10.00" fill="grey">type</text>
</g>
<!-- Node3 -->
<g id="node3" class="node">
<title>Node3</title>
<g id="a_node3"><a xlink:href="../../d5/d9c/class_code_output_interface.html" target="_top" xlink:title="Output interface for code parser.">
<polygon fill="white" stroke="#666666" points="259,-300 141,-300 141,-281 259,-281 259,-300"/>
<text text-anchor="middle" x="200" y="-288" font-family="Helvetica,sans-Serif" font-size="10.00">CodeOutputInterface</text>
</a>
</g>
</g>
<!-- Node3&#45;&gt;Node1 -->
<g id="edge2" class="edge">
<title>Node3&#45;&gt;Node1</title>
<path fill="none" stroke="#9a32cd" stroke-dasharray="5,2" d="M269.46,-291.33C303.12,-288.72 342.83,-280.86 373,-260.5 407.72,-237.06 427.14,-187.82 434.06,-167.06"/>
<polygon fill="#9a32cd" stroke="#9a32cd" points="268.98,-287.85 259.22,-291.98 269.43,-294.84 268.98,-287.85"/>
<text text-anchor="middle" x="325" y="-292.5" font-family="Helvetica,sans-Serif" font-size="10.00" fill="grey"> code</text>
</g>
<!-- Node4 -->
<g id="node4" class="node">
<title>Node4</title>
<g id="a_node4"><a xlink:href="../../d5/dcc/class_definition.html" target="_top" xlink:title="The common base class of all entity definitions found in the sources.">
<polygon fill="white" stroke="#666666" points="84,-213 20,-213 20,-194 84,-194 84,-213"/>
<text text-anchor="middle" x="52" y="-201" font-family="Helvetica,sans-Serif" font-size="10.00">Definition</text>
</a>
</g>
</g>
<!-- Node4&#45;&gt;Node1 -->
<g id="edge3" class="edge">
<title>Node4&#45;&gt;Node1</title>
<path fill="none" stroke="#9a32cd" stroke-dasharray="5,2" d="M94.09,-201.28C155.21,-197.58 273.56,-188.89 373,-172.5 381.78,-171.05 391.16,-169.09 399.94,-167.07"/>
<polygon fill="#9a32cd" stroke="#9a32cd" points="93.85,-197.79 84.07,-201.87 94.26,-204.78 93.85,-197.79"/>
<text text-anchor="middle" x="200" y="-211.5" font-family="Helvetica,sans-Serif" font-size="10.00" fill="grey"> currentDefinition</text>
<text text-anchor="middle" x="200" y="-200.5" font-family="Helvetica,sans-Serif" font-size="10.00" fill="grey">searchCtx</text>
</g>
<!-- Node5 -->
<g id="node5" class="node">
<title>Node5</title>
<g id="a_node5"><a xlink:href="../../de/db0/class_file_def.html" target="_top" xlink:title="A model of a file symbol.">
<polygon fill="white" stroke="#666666" points="225.5,-167 174.5,-167 174.5,-148 225.5,-148 225.5,-167"/>
<text text-anchor="middle" x="200" y="-155" font-family="Helvetica,sans-Serif" font-size="10.00">FileDef</text>
</a>
</g>
</g>
<!-- Node4&#45;&gt;Node5 -->
<g id="edge6" class="edge">
<title>Node4&#45;&gt;Node5</title>
<path fill="none" stroke="#63b8ff" d="M92.81,-190.96C118.77,-182.78 151.84,-172.36 174.12,-165.34"/>
<polygon fill="#63b8ff" stroke="#63b8ff" points="91.74,-187.63 83.25,-193.97 93.84,-194.3 91.74,-187.63"/>
</g>
<!-- Node7 -->
<g id="node7" class="node">
<title>Node7</title>
<g id="a_node7"><a xlink:href="../../da/d09/class_member_def.html" target="_top" xlink:title="A model of a class/file/namespace member symbol.">
<polygon fill="white" stroke="#666666" points="237,-263 163,-263 163,-244 237,-244 237,-263"/>
<text text-anchor="middle" x="200" y="-251" font-family="Helvetica,sans-Serif" font-size="10.00">MemberDef</text>
</a>
</g>
</g>
<!-- Node4&#45;&gt;Node7 -->
<g id="edge8" class="edge">
<title>Node4&#45;&gt;Node7</title>
<path fill="none" stroke="#63b8ff" d="M90.35,-216.29C115.41,-224.87 147.9,-236 170.8,-243.84"/>
<polygon fill="#63b8ff" stroke="#63b8ff" points="91.4,-212.95 80.81,-213.02 89.13,-219.57 91.4,-212.95"/>
</g>
<!-- Node5&#45;&gt;Node1 -->
<g id="edge4" class="edge">
<title>Node5&#45;&gt;Node1</title>
<path fill="none" stroke="#9a32cd" stroke-dasharray="5,2" d="M235.88,-157.5C276.93,-157.5 345.26,-157.5 390.72,-157.5"/>
<polygon fill="#9a32cd" stroke="#9a32cd" points="235.81,-154 225.81,-157.5 235.81,-161 235.81,-154"/>
<text text-anchor="middle" x="325" y="-160.5" font-family="Helvetica,sans-Serif" font-size="10.00" fill="grey"> sourceFileDef</text>
</g>
<!-- Node6 -->
<g id="node6" class="node">
<title>Node6</title>
<g id="a_node6"><a xlink:href="../../d0/d46/class_definition_mutable.html" target="_top" xlink:title=" ">
<polygon fill="white" stroke="#666666" points="104,-163 0,-163 0,-144 104,-144 104,-163"/>
<text text-anchor="middle" x="52" y="-151" font-family="Helvetica,sans-Serif" font-size="10.00">DefinitionMutable</text>
</a>
</g>
</g>
<!-- Node6&#45;&gt;Node5 -->
<g id="edge5" class="edge">
<title>Node6&#45;&gt;Node5</title>
<path fill="none" stroke="#63b8ff" d="M114.3,-155.18C135.43,-155.76 157.9,-156.37 174.38,-156.83"/>
<polygon fill="#63b8ff" stroke="#63b8ff" points="114.16,-151.67 104.06,-154.9 113.96,-158.67 114.16,-151.67"/>
</g>
<!-- Node7&#45;&gt;Node1 -->
<g id="edge7" class="edge">
<title>Node7&#45;&gt;Node1</title>
<path fill="none" stroke="#9a32cd" stroke-dasharray="5,2" d="M247.37,-250.63C283.36,-246.83 333.59,-238.01 373,-217.5 397.05,-204.99 418.6,-180.87 429.49,-167.33"/>
<polygon fill="#9a32cd" stroke="#9a32cd" points="246.77,-247.17 237.15,-251.61 247.44,-254.14 246.77,-247.17"/>
<text text-anchor="middle" x="325" y="-248.5" font-family="Helvetica,sans-Serif" font-size="10.00" fill="grey"> currentMemberDef</text>
</g>
<!-- Node8 -->
<g id="node8" class="node">
<title>Node8</title>
<g id="a_node8"><a xlink:href="../../d4/df2/class_variable_context.html" target="_top" xlink:title=" ">
<polygon fill="white" stroke="#666666" points="247.5,-130 152.5,-130 152.5,-111 247.5,-111 247.5,-130"/>
<text text-anchor="middle" x="200" y="-118" font-family="Helvetica,sans-Serif" font-size="10.00">VariableContext</text>
</a>
</g>
</g>
<!-- Node8&#45;&gt;Node1 -->
<g id="edge9" class="edge">
<title>Node8&#45;&gt;Node1</title>
<path fill="none" stroke="#9a32cd" stroke-dasharray="5,2" d="M257.67,-126.26C291.31,-130.05 334.74,-135.59 373,-142.5 381.54,-144.04 390.64,-145.99 399.23,-147.97"/>
<polygon fill="#9a32cd" stroke="#9a32cd" points="257.88,-122.76 247.55,-125.14 257.11,-129.72 257.88,-122.76"/>
<text text-anchor="middle" x="325" y="-145.5" font-family="Helvetica,sans-Serif" font-size="10.00" fill="grey"> theVarContext</text>
</g>
<!-- Node9 -->
<g id="node9" class="node">
<title>Node9</title>
<g id="a_node9"><a xlink:href="../../de/da0/class_call_context.html" target="_top" xlink:title="Represents the call context.">
<polygon fill="white" stroke="#666666" points="237,-93 163,-93 163,-74 237,-74 237,-93"/>
<text text-anchor="middle" x="200" y="-81" font-family="Helvetica,sans-Serif" font-size="10.00">CallContext</text>
</a>
</g>
</g>
<!-- Node9&#45;&gt;Node1 -->
<g id="edge10" class="edge">
<title>Node9&#45;&gt;Node1</title>
<path fill="none" stroke="#9a32cd" stroke-dasharray="5,2" d="M247.23,-86.18C282.73,-89.5 332.39,-96.92 373,-113.5 393.47,-121.86 413.98,-137.56 426.08,-147.77"/>
<polygon fill="#9a32cd" stroke="#9a32cd" points="247.41,-82.69 237.15,-85.31 246.81,-89.66 247.41,-82.69"/>
<text text-anchor="middle" x="325" y="-116.5" font-family="Helvetica,sans-Serif" font-size="10.00" fill="grey"> theCallContext</text>
</g>
<!-- Node10 -->
<g id="node10" class="node">
<title>Node10</title>
<g id="a_node10"><a xlink:href="../../da/d0c/class_symbol_resolver.html" target="_top" xlink:title="Helper class to find a class definition or check if A symbol is accessible in a given scope.">
<polygon fill="white" stroke="#666666" points="248,-56 152,-56 152,-37 248,-37 248,-56"/>
<text text-anchor="middle" x="200" y="-44" font-family="Helvetica,sans-Serif" font-size="10.00">SymbolResolver</text>
</a>
</g>
</g>
<!-- Node10&#45;&gt;Node1 -->
<g id="edge11" class="edge">
<title>Node10&#45;&gt;Node1</title>
<path fill="none" stroke="#9a32cd" stroke-dasharray="5,2" d="M258.48,-45.43C293.75,-47.2 338.59,-53.98 373,-74.5 403.01,-92.39 424,-130.13 432.63,-147.89"/>
<polygon fill="#9a32cd" stroke="#9a32cd" points="258.47,-41.93 248.34,-45.05 258.2,-48.92 258.47,-41.93"/>
<text text-anchor="middle" x="325" y="-77.5" font-family="Helvetica,sans-Serif" font-size="10.00" fill="grey"> symbolResolver</text>
</g>
<!-- Node11 -->
<g id="node11" class="node">
<title>Node11</title>
<g id="a_node11"><a xlink:href="../../d5/dae/class_tooltip_manager.html" target="_top" xlink:title="Class that manages the tooltips for a source file.">
<polygon fill="white" stroke="#666666" points="246,-19 154,-19 154,0 246,0 246,-19"/>
<text text-anchor="middle" x="200" y="-7" font-family="Helvetica,sans-Serif" font-size="10.00">TooltipManager</text>
</a>
</g>
</g>
<!-- Node11&#45;&gt;Node1 -->
<g id="edge12" class="edge">
<title>Node11&#45;&gt;Node1</title>
<path fill="none" stroke="#9a32cd" stroke-dasharray="5,2" d="M256.47,-3.93C292.73,-3.14 339.41,-7.82 373,-31.5 414.11,-60.48 430.42,-123.84 435.29,-147.94"/>
<polygon fill="#9a32cd" stroke="#9a32cd" points="255.93,-0.45 246.06,-4.31 256.18,-7.44 255.93,-0.45"/>
<text text-anchor="middle" x="325" y="-34.5" font-family="Helvetica,sans-Serif" font-size="10.00" fill="grey"> tooltipManager</text>
</g>
</g>
</svg>
