<?xml version="1.0" encoding="UTF-8" standalone="no"?>
<!DOCTYPE svg PUBLIC "-//W3C//DTD SVG 1.1//EN"
 "http://www.w3.org/Graphics/SVG/1.1/DTD/svg11.dtd">
<!-- Generated by graphviz version 2.43.0 (0)
 -->
<!-- Title: DocDiagramFileBase Pages: 1 -->
<svg width="256pt" height="192pt"
 viewBox="0.00 0.00 255.50 192.00" xmlns="http://www.w3.org/2000/svg" xmlns:xlink="http://www.w3.org/1999/xlink">
<g id="graph0" class="graph" transform="scale(1 1) rotate(0) translate(4 188)">
<title>DocDiagramFileBase</title>
<!-- Node1 -->
<g id="node1" class="node">
<title>Node1</title>
<g id="a_node1"><a xlink:title=" ">
<polygon fill="#999999" stroke="#666666" points="182,-74 63,-74 63,-55 182,-55 182,-74"/>
<text text-anchor="middle" x="122.5" y="-62" font-family="Helvetica,sans-Serif" font-size="10.00">DocDiagramFileBase</text>
</a>
</g>
</g>
<!-- Node4 -->
<g id="node4" class="node">
<title>Node4</title>
<g id="a_node4"><a xlink:href="../../d6/ddb/class_doc_dia_file.html" target="_top" xlink:title="Node representing a dia file.">
<polygon fill="white" stroke="#666666" points="69,-19 0,-19 0,0 69,0 69,-19"/>
<text text-anchor="middle" x="34.5" y="-7" font-family="Helvetica,sans-Serif" font-size="10.00">DocDiaFile</text>
</a>
</g>
</g>
<!-- Node1&#45;&gt;Node4 -->
<g id="edge3" class="edge">
<title>Node1&#45;&gt;Node4</title>
<path fill="none" stroke="#63b8ff" d="M99.58,-49.7C83.55,-40.04 62.63,-27.44 48.9,-19.17"/>
<polygon fill="#63b8ff" stroke="#63b8ff" points="97.99,-52.82 108.36,-54.98 101.6,-46.83 97.99,-52.82"/>
</g>
<!-- Node5 -->
<g id="node5" class="node">
<title>Node5</title>
<g id="a_node5"><a xlink:href="../../df/d37/class_doc_dot_file.html" target="_top" xlink:title="Node representing a dot file.">
<polygon fill="white" stroke="#666666" points="157.5,-19 87.5,-19 87.5,0 157.5,0 157.5,-19"/>
<text text-anchor="middle" x="122.5" y="-7" font-family="Helvetica,sans-Serif" font-size="10.00">DocDotFile</text>
</a>
</g>
</g>
<!-- Node1&#45;&gt;Node5 -->
<g id="edge4" class="edge">
<title>Node1&#45;&gt;Node5</title>
<path fill="none" stroke="#63b8ff" d="M122.5,-44.66C122.5,-35.93 122.5,-25.99 122.5,-19.09"/>
<polygon fill="#63b8ff" stroke="#63b8ff" points="119,-44.75 122.5,-54.75 126,-44.75 119,-44.75"/>
</g>
<!-- Node6 -->
<g id="node6" class="node">
<title>Node6</title>
<g id="a_node6"><a xlink:href="../../d3/d7d/class_doc_msc_file.html" target="_top" xlink:title="Node representing a msc file.">
<polygon fill="white" stroke="#666666" points="247.5,-19 175.5,-19 175.5,0 247.5,0 247.5,-19"/>
<text text-anchor="middle" x="211.5" y="-7" font-family="Helvetica,sans-Serif" font-size="10.00">DocMscFile</text>
</a>
</g>
</g>
<!-- Node1&#45;&gt;Node6 -->
<g id="edge5" class="edge">
<title>Node1&#45;&gt;Node6</title>
<path fill="none" stroke="#63b8ff" d="M145.68,-49.7C161.89,-40.04 183.05,-27.44 196.94,-19.17"/>
<polygon fill="#63b8ff" stroke="#63b8ff" points="143.6,-46.86 136.8,-54.98 147.18,-52.88 143.6,-46.86"/>
</g>
<!-- Node2 -->
<g id="node2" class="node">
<title>Node2</title>
<g id="a_node2"><a xlink:href="../../da/dfc/class_doc_compound_node.html" target="_top" xlink:title="Base class for nodes with children.">
<polygon fill="white" stroke="#666666" points="179,-129 66,-129 66,-110 179,-110 179,-129"/>
<text text-anchor="middle" x="122.5" y="-117" font-family="Helvetica,sans-Serif" font-size="10.00">DocCompoundNode</text>
</a>
</g>
</g>
<!-- Node2&#45;&gt;Node1 -->
<g id="edge1" class="edge">
<title>Node2&#45;&gt;Node1</title>
<path fill="none" stroke="#63b8ff" d="M122.5,-99.66C122.5,-90.93 122.5,-80.99 122.5,-74.09"/>
<polygon fill="#63b8ff" stroke="#63b8ff" points="119,-99.75 122.5,-109.75 126,-99.75 119,-99.75"/>
</g>
<!-- Node3 -->
<g id="node3" class="node">
<title>Node3</title>
<g id="a_node3"><a xlink:href="../../d9/d0e/class_doc_node.html" target="_top" xlink:title="Abstract node interface with type information.">
<polygon fill="white" stroke="#666666" points="153,-184 92,-184 92,-165 153,-165 153,-184"/>
<text text-anchor="middle" x="122.5" y="-172" font-family="Helvetica,sans-Serif" font-size="10.00">DocNode</text>
</a>
</g>
</g>
<!-- Node3&#45;&gt;Node2 -->
<g id="edge2" class="edge">
<title>Node3&#45;&gt;Node2</title>
<path fill="none" stroke="#63b8ff" d="M122.5,-154.66C122.5,-145.93 122.5,-135.99 122.5,-129.09"/>
<polygon fill="#63b8ff" stroke="#63b8ff" points="119,-154.75 122.5,-164.75 126,-154.75 119,-154.75"/>
</g>
</g>
</svg>
