<?xml version="1.0" encoding="UTF-8" standalone="no"?>
<!DOCTYPE svg PUBLIC "-//W3C//DTD SVG 1.1//EN"
 "http://www.w3.org/Graphics/SVG/1.1/DTD/svg11.dtd">
<!-- Generated by graphviz version 2.43.0 (0)
 -->
<!-- Title: /home/runner/work/doxygen/doxygen/src/constexp.l Pages: 1 -->
<svg width="731pt" height="258pt"
 viewBox="0.00 0.00 731.00 258.00" xmlns="http://www.w3.org/2000/svg" xmlns:xlink="http://www.w3.org/1999/xlink">
<g id="graph0" class="graph" transform="scale(1 1) rotate(0) translate(4 254)">
<title>/home/runner/work/doxygen/doxygen/src/constexp.l</title>
<!-- Node1 -->
<g id="node1" class="node">
<title>Node1</title>
<g id="a_node1"><a xlink:title=" ">
<polygon fill="#999999" stroke="#666666" points="320.5,-250 166.5,-250 166.5,-220 320.5,-220 320.5,-250"/>
<text text-anchor="start" x="174.5" y="-238" font-family="Helvetica,sans-Serif" font-size="10.00">/home/runner/work/doxygen</text>
<text text-anchor="middle" x="243.5" y="-227" font-family="Helvetica,sans-Serif" font-size="10.00">/doxygen/src/constexp.l</text>
</a>
</g>
</g>
<!-- Node2 -->
<g id="node2" class="node">
<title>Node2</title>
<g id="a_node2"><a xlink:title=" ">
<polygon fill="#e0e0e0" stroke="#999999" points="53,-184 0,-184 0,-165 53,-165 53,-184"/>
<text text-anchor="middle" x="26.5" y="-172" font-family="Helvetica,sans-Serif" font-size="10.00">stdint.h</text>
</a>
</g>
</g>
<!-- Node1&#45;&gt;Node2 -->
<g id="edge1" class="edge">
<title>Node1&#45;&gt;Node2</title>
<path fill="none" stroke="#63b8ff" d="M191.52,-219.99C151.81,-209.28 98.08,-194.8 62.87,-185.3"/>
<polygon fill="#63b8ff" stroke="#63b8ff" points="63.58,-181.87 53.02,-182.65 61.76,-188.63 63.58,-181.87"/>
</g>
<!-- Node3 -->
<g id="node3" class="node">
<title>Node3</title>
<g id="a_node3"><a xlink:href="../../da/d12/constexp__p_8h.html" target="_top" xlink:title="Private interface between Parser (constexp.y) and Lexer (constexp.l)">
<polygon fill="white" stroke="#666666" points="152,-184 71,-184 71,-165 152,-165 152,-184"/>
<text text-anchor="middle" x="111.5" y="-172" font-family="Helvetica,sans-Serif" font-size="10.00">constexp_p.h</text>
</a>
</g>
</g>
<!-- Node1&#45;&gt;Node3 -->
<g id="edge2" class="edge">
<title>Node1&#45;&gt;Node3</title>
<path fill="none" stroke="#63b8ff" d="M211.88,-219.99C190.15,-210.36 161.53,-197.67 140.41,-188.31"/>
<polygon fill="#63b8ff" stroke="#63b8ff" points="141.55,-184.99 130.99,-184.14 138.72,-191.39 141.55,-184.99"/>
</g>
<!-- Node5 -->
<g id="node5" class="node">
<title>Node5</title>
<g id="a_node5"><a xlink:href="../../d6/dcc/cppvalue_8h.html" target="_top" xlink:title=" ">
<polygon fill="white" stroke="#666666" points="146.5,-129 76.5,-129 76.5,-110 146.5,-110 146.5,-129"/>
<text text-anchor="middle" x="111.5" y="-117" font-family="Helvetica,sans-Serif" font-size="10.00">cppvalue.h</text>
</a>
</g>
</g>
<!-- Node1&#45;&gt;Node5 -->
<g id="edge10" class="edge">
<title>Node1&#45;&gt;Node5</title>
<path fill="none" stroke="#63b8ff" d="M227.05,-219.85C202.21,-198.5 155.31,-158.17 129.56,-136.03"/>
<polygon fill="#63b8ff" stroke="#63b8ff" points="131.56,-133.14 121.7,-129.27 127,-138.44 131.56,-133.14"/>
</g>
<!-- Node7 -->
<g id="node7" class="node">
<title>Node7</title>
<g id="a_node7"><a xlink:href="../../d6/dd8/constexp_8h.html" target="_top" xlink:title=" ">
<polygon fill="white" stroke="#666666" points="278.5,-184 208.5,-184 208.5,-165 278.5,-165 278.5,-184"/>
<text text-anchor="middle" x="243.5" y="-172" font-family="Helvetica,sans-Serif" font-size="10.00">constexp.h</text>
</a>
</g>
</g>
<!-- Node1&#45;&gt;Node7 -->
<g id="edge7" class="edge">
<title>Node1&#45;&gt;Node7</title>
<path fill="none" stroke="#63b8ff" d="M243.5,-219.84C243.5,-212.21 243.5,-202.7 243.5,-194.45"/>
<polygon fill="#63b8ff" stroke="#63b8ff" points="247,-194.27 243.5,-184.27 240,-194.27 247,-194.27"/>
</g>
<!-- Node9 -->
<g id="node9" class="node">
<title>Node9</title>
<g id="a_node9"><a xlink:title=" ">
<polygon fill="#e0e0e0" stroke="#999999" points="466,-184 385,-184 385,-165 466,-165 466,-184"/>
<text text-anchor="middle" x="425.5" y="-172" font-family="Helvetica,sans-Serif" font-size="10.00">ce_parse.hpp</text>
</a>
</g>
</g>
<!-- Node1&#45;&gt;Node9 -->
<g id="edge11" class="edge">
<title>Node1&#45;&gt;Node9</title>
<path fill="none" stroke="#63b8ff" d="M287.09,-219.99C318.23,-209.98 359.64,-196.67 389.03,-187.22"/>
<polygon fill="#63b8ff" stroke="#63b8ff" points="390.44,-190.45 398.89,-184.05 388.3,-183.78 390.44,-190.45"/>
</g>
<!-- Node10 -->
<g id="node10" class="node">
<title>Node10</title>
<g id="a_node10"><a xlink:href="../../d2/d0d/message_8h.html" target="_top" xlink:title=" ">
<polygon fill="white" stroke="#666666" points="366.5,-184 296.5,-184 296.5,-165 366.5,-165 366.5,-184"/>
<text text-anchor="middle" x="331.5" y="-172" font-family="Helvetica,sans-Serif" font-size="10.00">message.h</text>
</a>
</g>
</g>
<!-- Node1&#45;&gt;Node10 -->
<g id="edge12" class="edge">
<title>Node1&#45;&gt;Node10</title>
<path fill="none" stroke="#63b8ff" d="M264.8,-219.84C278.57,-210.68 296.43,-198.82 310.2,-189.66"/>
<polygon fill="#63b8ff" stroke="#63b8ff" points="312.18,-192.55 318.57,-184.09 308.31,-186.72 312.18,-192.55"/>
</g>
<!-- Node20 -->
<g id="node20" class="node">
<title>Node20</title>
<g id="a_node20"><a xlink:href="../../d6/da5/doxygen__lex_8h.html" target="_top" xlink:title=" ">
<polygon fill="white" stroke="#666666" points="572.5,-184 484.5,-184 484.5,-165 572.5,-165 572.5,-184"/>
<text text-anchor="middle" x="528.5" y="-172" font-family="Helvetica,sans-Serif" font-size="10.00">doxygen_lex.h</text>
</a>
</g>
</g>
<!-- Node1&#45;&gt;Node20 -->
<g id="edge26" class="edge">
<title>Node1&#45;&gt;Node20</title>
<path fill="none" stroke="#63b8ff" d="M311.76,-219.99C362.55,-209.56 430.78,-195.56 477.02,-186.07"/>
<polygon fill="#63b8ff" stroke="#63b8ff" points="477.74,-189.49 486.83,-184.05 476.33,-182.64 477.74,-189.49"/>
</g>
<!-- Node4 -->
<g id="node4" class="node">
<title>Node4</title>
<g id="a_node4"><a xlink:title=" ">
<polygon fill="#e0e0e0" stroke="#999999" points="235.5,-19 191.5,-19 191.5,0 235.5,0 235.5,-19"/>
<text text-anchor="middle" x="213.5" y="-7" font-family="Helvetica,sans-Serif" font-size="10.00">string</text>
</a>
</g>
</g>
<!-- Node3&#45;&gt;Node4 -->
<g id="edge3" class="edge">
<title>Node3&#45;&gt;Node4</title>
<path fill="none" stroke="#63b8ff" d="M98.29,-164.84C82.51,-153.31 59.19,-131.81 67.5,-110 86.06,-61.26 144.36,-33.38 181.43,-20.14"/>
<polygon fill="#63b8ff" stroke="#63b8ff" points="182.94,-23.33 191.28,-16.79 180.68,-16.7 182.94,-23.33"/>
</g>
<!-- Node3&#45;&gt;Node5 -->
<g id="edge4" class="edge">
<title>Node3&#45;&gt;Node5</title>
<path fill="none" stroke="#63b8ff" d="M111.5,-164.75C111.5,-157.8 111.5,-147.85 111.5,-139.13"/>
<polygon fill="#63b8ff" stroke="#63b8ff" points="115,-139.09 111.5,-129.09 108,-139.09 115,-139.09"/>
</g>
<!-- Node5&#45;&gt;Node4 -->
<g id="edge6" class="edge">
<title>Node5&#45;&gt;Node4</title>
<path fill="none" stroke="#63b8ff" d="M112.02,-109.72C113.24,-96.47 117.25,-71.22 130.5,-55 143.64,-38.91 164.18,-27.83 181.54,-20.75"/>
<polygon fill="#63b8ff" stroke="#63b8ff" points="183.21,-23.86 191.32,-17.03 180.73,-17.31 183.21,-23.86"/>
</g>
<!-- Node6 -->
<g id="node6" class="node">
<title>Node6</title>
<g id="a_node6"><a xlink:title=" ">
<polygon fill="#e0e0e0" stroke="#999999" points="185.5,-74 139.5,-74 139.5,-55 185.5,-55 185.5,-74"/>
<text text-anchor="middle" x="162.5" y="-62" font-family="Helvetica,sans-Serif" font-size="10.00">cstdio</text>
</a>
</g>
</g>
<!-- Node5&#45;&gt;Node6 -->
<g id="edge5" class="edge">
<title>Node5&#45;&gt;Node6</title>
<path fill="none" stroke="#63b8ff" d="M119.92,-109.75C127.27,-102.11 138.13,-90.82 147.04,-81.56"/>
<polygon fill="#63b8ff" stroke="#63b8ff" points="149.82,-83.72 154.24,-74.09 144.78,-78.87 149.82,-83.72"/>
</g>
<!-- Node7&#45;&gt;Node4 -->
<g id="edge8" class="edge">
<title>Node7&#45;&gt;Node4</title>
<path fill="none" stroke="#63b8ff" d="M241.89,-164.74C237.19,-139.2 223.43,-64.43 216.95,-29.23"/>
<polygon fill="#63b8ff" stroke="#63b8ff" points="220.37,-28.51 215.12,-19.31 213.49,-29.78 220.37,-28.51"/>
</g>
<!-- Node8 -->
<g id="node8" class="node">
<title>Node8</title>
<g id="a_node8"><a xlink:title=" ">
<polygon fill="#e0e0e0" stroke="#999999" points="222.5,-129 164.5,-129 164.5,-110 222.5,-110 222.5,-129"/>
<text text-anchor="middle" x="193.5" y="-117" font-family="Helvetica,sans-Serif" font-size="10.00">memory</text>
</a>
</g>
</g>
<!-- Node7&#45;&gt;Node8 -->
<g id="edge9" class="edge">
<title>Node7&#45;&gt;Node8</title>
<path fill="none" stroke="#63b8ff" d="M235.24,-164.75C228.04,-157.11 217.39,-145.82 208.65,-136.56"/>
<polygon fill="#63b8ff" stroke="#63b8ff" points="211.01,-133.96 201.6,-129.09 205.92,-138.76 211.01,-133.96"/>
</g>
<!-- Node11 -->
<g id="node11" class="node">
<title>Node11</title>
<g id="a_node11"><a xlink:title=" ">
<polygon fill="#e0e0e0" stroke="#999999" points="476,-129 423,-129 423,-110 476,-110 476,-129"/>
<text text-anchor="middle" x="449.5" y="-117" font-family="Helvetica,sans-Serif" font-size="10.00">cstdarg</text>
</a>
</g>
</g>
<!-- Node10&#45;&gt;Node11 -->
<g id="edge13" class="edge">
<title>Node10&#45;&gt;Node11</title>
<path fill="none" stroke="#63b8ff" d="M350.46,-164.98C369.53,-156.42 399.16,-143.11 421.05,-133.28"/>
<polygon fill="#63b8ff" stroke="#63b8ff" points="422.51,-136.46 430.2,-129.17 419.64,-130.07 422.51,-136.46"/>
</g>
<!-- Node12 -->
<g id="node12" class="node">
<title>Node12</title>
<g id="a_node12"><a xlink:href="../../d7/d5c/qcstring_8h.html" target="_top" xlink:title=" ">
<polygon fill="white" stroke="#666666" points="405,-129 340,-129 340,-110 405,-110 405,-129"/>
<text text-anchor="middle" x="372.5" y="-117" font-family="Helvetica,sans-Serif" font-size="10.00">qcstring.h</text>
</a>
</g>
</g>
<!-- Node10&#45;&gt;Node12 -->
<g id="edge14" class="edge">
<title>Node10&#45;&gt;Node12</title>
<path fill="none" stroke="#63b8ff" d="M338.27,-164.75C344.06,-157.26 352.56,-146.28 359.64,-137.13"/>
<polygon fill="#63b8ff" stroke="#63b8ff" points="362.51,-139.14 365.86,-129.09 356.97,-134.86 362.51,-139.14"/>
</g>
<!-- Node12&#45;&gt;Node4 -->
<g id="edge15" class="edge">
<title>Node12&#45;&gt;Node4</title>
<path fill="none" stroke="#63b8ff" d="M344.41,-109.91C322.92,-102.5 293.21,-90.4 270.5,-74 252.57,-61.05 236.17,-41.61 225.61,-27.65"/>
<polygon fill="#63b8ff" stroke="#63b8ff" points="228.29,-25.39 219.56,-19.39 222.64,-29.53 228.29,-25.39"/>
</g>
<!-- Node12&#45;&gt;Node6 -->
<g id="edge19" class="edge">
<title>Node12&#45;&gt;Node6</title>
<path fill="none" stroke="#63b8ff" d="M339.69,-110.22C300.4,-100.3 234.98,-83.79 195.58,-73.85"/>
<polygon fill="#63b8ff" stroke="#63b8ff" points="196.23,-70.4 185.68,-71.35 194.51,-77.19 196.23,-70.4"/>
</g>
<!-- Node13 -->
<g id="node13" class="node">
<title>Node13</title>
<g id="a_node13"><a xlink:title=" ">
<polygon fill="#e0e0e0" stroke="#999999" points="655.5,-74 591.5,-74 591.5,-55 655.5,-55 655.5,-74"/>
<text text-anchor="middle" x="623.5" y="-62" font-family="Helvetica,sans-Serif" font-size="10.00">algorithm</text>
</a>
</g>
</g>
<!-- Node12&#45;&gt;Node13 -->
<g id="edge16" class="edge">
<title>Node12&#45;&gt;Node13</title>
<path fill="none" stroke="#63b8ff" d="M405.06,-111.63C450.23,-102.09 531.95,-84.83 581.61,-74.34"/>
<polygon fill="#63b8ff" stroke="#63b8ff" points="582.34,-77.77 591.4,-72.28 580.89,-70.92 582.34,-77.77"/>
</g>
<!-- Node14 -->
<g id="node14" class="node">
<title>Node14</title>
<g id="a_node14"><a xlink:title=" ">
<polygon fill="#e0e0e0" stroke="#999999" points="723,-74 674,-74 674,-55 723,-55 723,-74"/>
<text text-anchor="middle" x="698.5" y="-62" font-family="Helvetica,sans-Serif" font-size="10.00">cctype</text>
</a>
</g>
</g>
<!-- Node12&#45;&gt;Node14 -->
<g id="edge17" class="edge">
<title>Node12&#45;&gt;Node14</title>
<path fill="none" stroke="#63b8ff" d="M405.03,-111.73C408.22,-111.12 411.42,-110.53 414.5,-110 521.98,-91.4 552.63,-95.39 663.76,-73.95"/>
<polygon fill="#63b8ff" stroke="#63b8ff" points="664.54,-77.37 673.68,-72.01 663.2,-70.5 664.54,-77.37"/>
</g>
<!-- Node15 -->
<g id="node15" class="node">
<title>Node15</title>
<g id="a_node15"><a xlink:title=" ">
<polygon fill="#e0e0e0" stroke="#999999" points="329.5,-74 279.5,-74 279.5,-55 329.5,-55 329.5,-74"/>
<text text-anchor="middle" x="304.5" y="-62" font-family="Helvetica,sans-Serif" font-size="10.00">cstring</text>
</a>
</g>
</g>
<!-- Node12&#45;&gt;Node15 -->
<g id="edge18" class="edge">
<title>Node12&#45;&gt;Node15</title>
<path fill="none" stroke="#63b8ff" d="M361.57,-109.98C351.42,-102.07 336.08,-90.11 323.85,-80.58"/>
<polygon fill="#63b8ff" stroke="#63b8ff" points="325.66,-77.56 315.62,-74.17 321.36,-83.08 325.66,-77.56"/>
</g>
<!-- Node16 -->
<g id="node16" class="node">
<title>Node16</title>
<g id="a_node16"><a xlink:title=" ">
<polygon fill="#e0e0e0" stroke="#999999" points="397,-74 348,-74 348,-55 397,-55 397,-74"/>
<text text-anchor="middle" x="372.5" y="-62" font-family="Helvetica,sans-Serif" font-size="10.00">cstdlib</text>
</a>
</g>
</g>
<!-- Node12&#45;&gt;Node16 -->
<g id="edge20" class="edge">
<title>Node12&#45;&gt;Node16</title>
<path fill="none" stroke="#63b8ff" d="M372.5,-109.75C372.5,-102.8 372.5,-92.85 372.5,-84.13"/>
<polygon fill="#63b8ff" stroke="#63b8ff" points="376,-84.09 372.5,-74.09 369,-84.09 376,-84.09"/>
</g>
<!-- Node17 -->
<g id="node17" class="node">
<title>Node17</title>
<g id="a_node17"><a xlink:title=" ">
<polygon fill="#e0e0e0" stroke="#999999" points="562.5,-19 512.5,-19 512.5,0 562.5,0 562.5,-19"/>
<text text-anchor="middle" x="537.5" y="-7" font-family="Helvetica,sans-Serif" font-size="10.00">cstdint</text>
</a>
</g>
</g>
<!-- Node12&#45;&gt;Node17 -->
<g id="edge21" class="edge">
<title>Node12&#45;&gt;Node17</title>
<path fill="none" stroke="#63b8ff" d="M405.03,-111.16C453.67,-100.03 540.17,-79.59 544.5,-74 554.35,-61.28 550.79,-42.59 545.86,-28.78"/>
<polygon fill="#63b8ff" stroke="#63b8ff" points="549.03,-27.29 542.01,-19.35 542.55,-29.93 549.03,-27.29"/>
</g>
<!-- Node18 -->
<g id="node18" class="node">
<title>Node18</title>
<g id="a_node18"><a xlink:title=" ">
<polygon fill="#e0e0e0" stroke="#999999" points="472,-74 415,-74 415,-55 472,-55 472,-74"/>
<text text-anchor="middle" x="443.5" y="-62" font-family="Helvetica,sans-Serif" font-size="10.00">ostream</text>
</a>
</g>
</g>
<!-- Node12&#45;&gt;Node18 -->
<g id="edge22" class="edge">
<title>Node12&#45;&gt;Node18</title>
<path fill="none" stroke="#63b8ff" d="M383.91,-109.98C394.61,-102 410.84,-89.88 423.66,-80.31"/>
<polygon fill="#63b8ff" stroke="#63b8ff" points="425.97,-82.96 431.89,-74.17 421.78,-77.35 425.97,-82.96"/>
</g>
<!-- Node19 -->
<g id="node19" class="node">
<title>Node19</title>
<g id="a_node19"><a xlink:href="../../db/d7c/utf8_8h.html" target="_top" xlink:title="Various UTF8 related helper functions.">
<polygon fill="white" stroke="#666666" points="535,-74 490,-74 490,-55 535,-55 535,-74"/>
<text text-anchor="middle" x="512.5" y="-62" font-family="Helvetica,sans-Serif" font-size="10.00">utf8.h</text>
</a>
</g>
</g>
<!-- Node12&#45;&gt;Node19 -->
<g id="edge23" class="edge">
<title>Node12&#45;&gt;Node19</title>
<path fill="none" stroke="#63b8ff" d="M394.99,-109.98C418.02,-101.27 454.04,-87.63 480.13,-77.75"/>
<polygon fill="#63b8ff" stroke="#63b8ff" points="481.48,-80.98 489.6,-74.17 479.01,-74.44 481.48,-80.98"/>
</g>
<!-- Node19&#45;&gt;Node4 -->
<g id="edge25" class="edge">
<title>Node19&#45;&gt;Node4</title>
<path fill="none" stroke="#63b8ff" d="M489.88,-57.01C487.07,-56.29 484.23,-55.6 481.5,-55 396.99,-36.45 295.97,-21.63 245.51,-14.73"/>
<polygon fill="#63b8ff" stroke="#63b8ff" points="245.91,-11.25 235.53,-13.37 244.97,-18.19 245.91,-11.25"/>
</g>
<!-- Node19&#45;&gt;Node17 -->
<g id="edge24" class="edge">
<title>Node19&#45;&gt;Node17</title>
<path fill="none" stroke="#63b8ff" d="M516.63,-54.75C520.01,-47.57 524.92,-37.18 529.12,-28.27"/>
<polygon fill="#63b8ff" stroke="#63b8ff" points="532.35,-29.63 533.45,-19.09 526.02,-26.64 532.35,-29.63"/>
</g>
</g>
</svg>
