<?xml version="1.0" encoding="UTF-8" standalone="no"?>
<!DOCTYPE svg PUBLIC "-//W3C//DTD SVG 1.1//EN"
 "http://www.w3.org/Graphics/SVG/1.1/DTD/svg11.dtd">
<!-- Generated by graphviz version 2.43.0 (0)
 -->
<!-- Title: TextGeneratorIntf Pages: 1 -->
<svg width="534pt" height="82pt"
 viewBox="0.00 0.00 534.00 82.00" xmlns="http://www.w3.org/2000/svg" xmlns:xlink="http://www.w3.org/1999/xlink">
<g id="graph0" class="graph" transform="scale(1 1) rotate(0) translate(4 78)">
<title>TextGeneratorIntf</title>
<!-- Node1 -->
<g id="node1" class="node">
<title>Node1</title>
<g id="a_node1"><a xlink:title="Abstract interface for a hyperlinked text fragment.">
<polygon fill="#999999" stroke="#666666" points="303,-74 201,-74 201,-55 303,-55 303,-74"/>
<text text-anchor="middle" x="252" y="-62" font-family="Helvetica,sans-Serif" font-size="10.00">TextGeneratorIntf</text>
</a>
</g>
</g>
<!-- Node2 -->
<g id="node2" class="node">
<title>Node2</title>
<g id="a_node2"><a xlink:href="../../d7/d8a/class_text_generator_html.html" target="_top" xlink:title=" ">
<polygon fill="white" stroke="#666666" points="110,-19 0,-19 0,0 110,0 110,-19"/>
<text text-anchor="middle" x="55" y="-7" font-family="Helvetica,sans-Serif" font-size="10.00">TextGeneratorHtml</text>
</a>
</g>
</g>
<!-- Node1&#45;&gt;Node2 -->
<g id="edge1" class="edge">
<title>Node1&#45;&gt;Node2</title>
<path fill="none" stroke="#63b8ff" d="M210.41,-52.31C173.55,-42.39 120.5,-28.12 86.9,-19.08"/>
<polygon fill="#63b8ff" stroke="#63b8ff" points="209.78,-55.77 220.35,-54.98 211.6,-49.01 209.78,-55.77"/>
</g>
<!-- Node3 -->
<g id="node3" class="node">
<title>Node3</title>
<g id="a_node3"><a xlink:href="../../d7/d67/class_text_generator_latex.html" target="_top" xlink:title=" ">
<polygon fill="white" stroke="#666666" points="241.5,-19 128.5,-19 128.5,0 241.5,0 241.5,-19"/>
<text text-anchor="middle" x="185" y="-7" font-family="Helvetica,sans-Serif" font-size="10.00">TextGeneratorLatex</text>
</a>
</g>
</g>
<!-- Node1&#45;&gt;Node3 -->
<g id="edge2" class="edge">
<title>Node1&#45;&gt;Node3</title>
<path fill="none" stroke="#63b8ff" d="M233.17,-48.6C221.16,-39.11 206.03,-27.13 195.96,-19.17"/>
<polygon fill="#63b8ff" stroke="#63b8ff" points="231.22,-51.53 241.24,-54.98 235.56,-46.04 231.22,-51.53"/>
</g>
<!-- Node4 -->
<g id="node4" class="node">
<title>Node4</title>
<g id="a_node4"><a xlink:href="../../db/d2b/class_text_generator_o_l_impl.html" target="_top" xlink:title="Implements TextGeneratorIntf for an OutputDocInterface stream.">
<polygon fill="white" stroke="#666666" points="380,-19 260,-19 260,0 380,0 380,-19"/>
<text text-anchor="middle" x="320" y="-7" font-family="Helvetica,sans-Serif" font-size="10.00">TextGeneratorOLImpl</text>
</a>
</g>
</g>
<!-- Node1&#45;&gt;Node4 -->
<g id="edge3" class="edge">
<title>Node1&#45;&gt;Node4</title>
<path fill="none" stroke="#63b8ff" d="M271.12,-48.6C283.3,-39.11 298.66,-27.13 308.88,-19.17"/>
<polygon fill="#63b8ff" stroke="#63b8ff" points="268.66,-46.08 262.93,-54.98 272.96,-51.6 268.66,-46.08"/>
</g>
<!-- Node5 -->
<g id="node5" class="node">
<title>Node5</title>
<g id="a_node5"><a xlink:href="../../db/d9f/class_text_generator_x_m_l_impl.html" target="_top" xlink:title="Implements TextGeneratorIntf for an XML stream.">
<polygon fill="white" stroke="#666666" points="526,-19 398,-19 398,0 526,0 526,-19"/>
<text text-anchor="middle" x="462" y="-7" font-family="Helvetica,sans-Serif" font-size="10.00">TextGeneratorXMLImpl</text>
</a>
</g>
</g>
<!-- Node1&#45;&gt;Node5 -->
<g id="edge4" class="edge">
<title>Node1&#45;&gt;Node5</title>
<path fill="none" stroke="#63b8ff" d="M295.58,-52.5C334.9,-42.58 391.95,-28.18 428,-19.08"/>
<polygon fill="#63b8ff" stroke="#63b8ff" points="294.58,-49.14 285.74,-54.98 296.29,-55.93 294.58,-49.14"/>
</g>
</g>
</svg>
