<?xml version="1.0" encoding="UTF-8" standalone="no"?>
<!DOCTYPE svg PUBLIC "-//W3C//DTD SVG 1.1//EN"
 "http://www.w3.org/Graphics/SVG/1.1/DTD/svg11.dtd">
<!-- Generated by graphviz version 2.43.0 (0)
 -->
<!-- Title: /home/runner/work/doxygen/doxygen/src/vhdldocgen.h Pages: 1 -->
<svg width="3640pt" height="379pt"
 viewBox="0.00 0.00 3640.00 379.00" xmlns="http://www.w3.org/2000/svg" xmlns:xlink="http://www.w3.org/1999/xlink">
<g id="graph0" class="graph" transform="scale(1 1) rotate(0) translate(4 375)">
<title>/home/runner/work/doxygen/doxygen/src/vhdldocgen.h</title>
<!-- Node1 -->
<g id="node1" class="node">
<title>Node1</title>
<g id="a_node1"><a xlink:title=" ">
<polygon fill="#999999" stroke="#666666" points="1694,-371 1540,-371 1540,-341 1694,-341 1694,-371"/>
<text text-anchor="start" x="1548" y="-359" font-family="Helvetica,sans-Serif" font-size="10.00">/home/runner/work/doxygen</text>
<text text-anchor="middle" x="1617" y="-348" font-family="Helvetica,sans-Serif" font-size="10.00">/doxygen/src/vhdldocgen.h</text>
</a>
</g>
</g>
<!-- Node2 -->
<g id="node2" class="node">
<title>Node2</title>
<g id="a_node2"><a xlink:href="../../de/d89/classdef_8cpp.html" target="_top" xlink:title=" ">
<polygon fill="white" stroke="#666666" points="154,-305 0,-305 0,-275 154,-275 154,-305"/>
<text text-anchor="start" x="8" y="-293" font-family="Helvetica,sans-Serif" font-size="10.00">/home/runner/work/doxygen</text>
<text text-anchor="middle" x="77" y="-282" font-family="Helvetica,sans-Serif" font-size="10.00">/doxygen/src/classdef.cpp</text>
</a>
</g>
</g>
<!-- Node1&#45;&gt;Node2 -->
<g id="edge1" class="edge">
<title>Node1&#45;&gt;Node2</title>
<path fill="none" stroke="#63b8ff" d="M1529.47,-353.45C1257.67,-348.41 430.41,-331.26 163,-305 160.14,-304.72 157.23,-304.4 154.29,-304.06"/>
<polygon fill="#63b8ff" stroke="#63b8ff" points="1529.62,-356.95 1539.68,-353.64 1529.74,-349.95 1529.62,-356.95"/>
</g>
<!-- Node3 -->
<g id="node3" class="node">
<title>Node3</title>
<g id="a_node3"><a xlink:href="../../d6/d10/classlist_8cpp.html" target="_top" xlink:title=" ">
<polygon fill="white" stroke="#666666" points="326,-305 172,-305 172,-275 326,-275 326,-305"/>
<text text-anchor="start" x="180" y="-293" font-family="Helvetica,sans-Serif" font-size="10.00">/home/runner/work/doxygen</text>
<text text-anchor="middle" x="249" y="-282" font-family="Helvetica,sans-Serif" font-size="10.00">/doxygen/src/classlist.cpp</text>
</a>
</g>
</g>
<!-- Node1&#45;&gt;Node3 -->
<g id="edge2" class="edge">
<title>Node1&#45;&gt;Node3</title>
<path fill="none" stroke="#63b8ff" d="M1529.59,-355.27C1321.88,-355.11 782.6,-349.99 335,-305 332.14,-304.71 329.23,-304.39 326.3,-304.04"/>
<polygon fill="#63b8ff" stroke="#63b8ff" points="1529.82,-358.77 1539.82,-355.27 1529.82,-351.77 1529.82,-358.77"/>
</g>
<!-- Node4 -->
<g id="node4" class="node">
<title>Node4</title>
<g id="a_node4"><a xlink:href="../../db/d12/context_8cpp.html" target="_top" xlink:title=" ">
<polygon fill="white" stroke="#666666" points="498,-305 344,-305 344,-275 498,-275 498,-305"/>
<text text-anchor="start" x="352" y="-293" font-family="Helvetica,sans-Serif" font-size="10.00">/home/runner/work/doxygen</text>
<text text-anchor="middle" x="421" y="-282" font-family="Helvetica,sans-Serif" font-size="10.00">/doxygen/src/context.cpp</text>
</a>
</g>
</g>
<!-- Node1&#45;&gt;Node4 -->
<g id="edge3" class="edge">
<title>Node1&#45;&gt;Node4</title>
<path fill="none" stroke="#63b8ff" d="M1529.64,-354.52C1341.95,-352.72 886.41,-344.29 507,-305 504.14,-304.7 501.23,-304.37 498.3,-304.02"/>
<polygon fill="#63b8ff" stroke="#63b8ff" points="1529.7,-358.02 1539.73,-354.61 1529.76,-351.02 1529.7,-358.02"/>
</g>
<!-- Node5 -->
<g id="node5" class="node">
<title>Node5</title>
<g id="a_node5"><a xlink:href="../../d3/dea/definition_8cpp.html" target="_top" xlink:title=" ">
<polygon fill="white" stroke="#666666" points="670,-305 516,-305 516,-275 670,-275 670,-305"/>
<text text-anchor="start" x="524" y="-293" font-family="Helvetica,sans-Serif" font-size="10.00">/home/runner/work/doxygen</text>
<text text-anchor="middle" x="593" y="-282" font-family="Helvetica,sans-Serif" font-size="10.00">/doxygen/src/definition.cpp</text>
</a>
</g>
</g>
<!-- Node1&#45;&gt;Node5 -->
<g id="edge4" class="edge">
<title>Node1&#45;&gt;Node5</title>
<path fill="none" stroke="#63b8ff" d="M1529.71,-353.5C1363.63,-349.93 990.87,-338.6 679,-305 676.14,-304.69 673.24,-304.35 670.3,-303.99"/>
<polygon fill="#63b8ff" stroke="#63b8ff" points="1529.8,-357 1539.87,-353.71 1529.94,-350 1529.8,-357"/>
</g>
<!-- Node6 -->
<g id="node6" class="node">
<title>Node6</title>
<g id="a_node6"><a xlink:href="../../d0/d2b/docnode_8cpp.html" target="_top" xlink:title=" ">
<polygon fill="white" stroke="#666666" points="842,-305 688,-305 688,-275 842,-275 842,-305"/>
<text text-anchor="start" x="696" y="-293" font-family="Helvetica,sans-Serif" font-size="10.00">/home/runner/work/doxygen</text>
<text text-anchor="middle" x="765" y="-282" font-family="Helvetica,sans-Serif" font-size="10.00">/doxygen/src/docnode.cpp</text>
</a>
</g>
</g>
<!-- Node1&#45;&gt;Node6 -->
<g id="edge5" class="edge">
<title>Node1&#45;&gt;Node6</title>
<path fill="none" stroke="#63b8ff" d="M1529.44,-352.03C1386.9,-346.57 1095.96,-332.87 851,-305 848.14,-304.68 845.24,-304.32 842.31,-303.94"/>
<polygon fill="#63b8ff" stroke="#63b8ff" points="1529.73,-355.54 1539.86,-352.42 1530,-348.54 1529.73,-355.54"/>
</g>
<!-- Node7 -->
<g id="node7" class="node">
<title>Node7</title>
<g id="a_node7"><a xlink:href="../../d4/d09/dotgfxhierarchytable_8cpp.html" target="_top" xlink:title=" ">
<polygon fill="white" stroke="#666666" points="1064,-305 860,-305 860,-275 1064,-275 1064,-305"/>
<text text-anchor="start" x="868" y="-293" font-family="Helvetica,sans-Serif" font-size="10.00">/home/runner/work/doxygen</text>
<text text-anchor="middle" x="962" y="-282" font-family="Helvetica,sans-Serif" font-size="10.00">/doxygen/src/dotgfxhierarchytable.cpp</text>
</a>
</g>
</g>
<!-- Node1&#45;&gt;Node7 -->
<g id="edge6" class="edge">
<title>Node1&#45;&gt;Node7</title>
<path fill="none" stroke="#63b8ff" d="M1529.65,-347.64C1422.99,-338.49 1237.1,-321.98 1078,-305 1073.46,-304.52 1068.82,-304.01 1064.14,-303.49"/>
<polygon fill="#63b8ff" stroke="#63b8ff" points="1529.46,-351.14 1539.73,-348.51 1530.06,-344.17 1529.46,-351.14"/>
</g>
<!-- Node8 -->
<g id="node8" class="node">
<title>Node8</title>
<g id="a_node8"><a xlink:href="../../dc/d98/doxygen_8cpp.html" target="_top" xlink:title=" ">
<polygon fill="white" stroke="#666666" points="918,-239 764,-239 764,-209 918,-209 918,-239"/>
<text text-anchor="start" x="772" y="-227" font-family="Helvetica,sans-Serif" font-size="10.00">/home/runner/work/doxygen</text>
<text text-anchor="middle" x="841" y="-216" font-family="Helvetica,sans-Serif" font-size="10.00">/doxygen/src/doxygen.cpp</text>
</a>
</g>
</g>
<!-- Node1&#45;&gt;Node8 -->
<g id="edge7" class="edge">
<title>Node1&#45;&gt;Node8</title>
<path fill="none" stroke="#63b8ff" d="M1529.55,-352.27C1405.36,-347.39 1184.76,-334.75 1111,-305 1091.04,-296.95 1092.47,-284.17 1073,-275 1045.88,-262.22 974.65,-247.82 918.2,-237.76"/>
<polygon fill="#63b8ff" stroke="#63b8ff" points="1529.67,-355.78 1539.79,-352.66 1529.94,-348.78 1529.67,-355.78"/>
</g>
<!-- Node9 -->
<g id="node9" class="node">
<title>Node9</title>
<g id="a_node9"><a xlink:href="../../d6/ddc/filedef_8cpp.html" target="_top" xlink:title=" ">
<polygon fill="white" stroke="#666666" points="1522,-305 1368,-305 1368,-275 1522,-275 1522,-305"/>
<text text-anchor="start" x="1376" y="-293" font-family="Helvetica,sans-Serif" font-size="10.00">/home/runner/work/doxygen</text>
<text text-anchor="middle" x="1445" y="-282" font-family="Helvetica,sans-Serif" font-size="10.00">/doxygen/src/filedef.cpp</text>
</a>
</g>
</g>
<!-- Node1&#45;&gt;Node9 -->
<g id="edge8" class="edge">
<title>Node1&#45;&gt;Node9</title>
<path fill="none" stroke="#63b8ff" d="M1569.85,-337.46C1542.41,-327.25 1508.29,-314.55 1482.66,-305.01"/>
<polygon fill="#63b8ff" stroke="#63b8ff" points="1568.66,-340.75 1579.25,-340.95 1571.1,-334.19 1568.66,-340.75"/>
</g>
<!-- Node10 -->
<g id="node10" class="node">
<title>Node10</title>
<g id="a_node10"><a xlink:href="../../d6/d42/groupdef_8cpp.html" target="_top" xlink:title=" ">
<polygon fill="white" stroke="#666666" points="1694,-305 1540,-305 1540,-275 1694,-275 1694,-305"/>
<text text-anchor="start" x="1548" y="-293" font-family="Helvetica,sans-Serif" font-size="10.00">/home/runner/work/doxygen</text>
<text text-anchor="middle" x="1617" y="-282" font-family="Helvetica,sans-Serif" font-size="10.00">/doxygen/src/groupdef.cpp</text>
</a>
</g>
</g>
<!-- Node1&#45;&gt;Node10 -->
<g id="edge9" class="edge">
<title>Node1&#45;&gt;Node10</title>
<path fill="none" stroke="#63b8ff" d="M1617,-330.54C1617,-321.96 1617,-312.61 1617,-305.16"/>
<polygon fill="#63b8ff" stroke="#63b8ff" points="1613.5,-330.8 1617,-340.8 1620.5,-330.8 1613.5,-330.8"/>
</g>
<!-- Node11 -->
<g id="node11" class="node">
<title>Node11</title>
<g id="a_node11"><a xlink:href="../../da/db0/htmldocvisitor_8cpp.html" target="_top" xlink:title=" ">
<polygon fill="white" stroke="#666666" points="1884,-305 1712,-305 1712,-275 1884,-275 1884,-305"/>
<text text-anchor="start" x="1720" y="-293" font-family="Helvetica,sans-Serif" font-size="10.00">/home/runner/work/doxygen</text>
<text text-anchor="middle" x="1798" y="-282" font-family="Helvetica,sans-Serif" font-size="10.00">/doxygen/src/htmldocvisitor.cpp</text>
</a>
</g>
</g>
<!-- Node1&#45;&gt;Node11 -->
<g id="edge10" class="edge">
<title>Node1&#45;&gt;Node11</title>
<path fill="none" stroke="#63b8ff" d="M1666.24,-337.59C1695.18,-327.36 1731.28,-314.59 1758.37,-305.01"/>
<polygon fill="#63b8ff" stroke="#63b8ff" points="1664.98,-334.32 1656.72,-340.95 1667.32,-340.92 1664.98,-334.32"/>
</g>
<!-- Node12 -->
<g id="node12" class="node">
<title>Node12</title>
<g id="a_node12"><a xlink:href="../../d8/d6e/htmlgen_8cpp.html" target="_top" xlink:title=" ">
<polygon fill="white" stroke="#666666" points="2056,-305 1902,-305 1902,-275 2056,-275 2056,-305"/>
<text text-anchor="start" x="1910" y="-293" font-family="Helvetica,sans-Serif" font-size="10.00">/home/runner/work/doxygen</text>
<text text-anchor="middle" x="1979" y="-282" font-family="Helvetica,sans-Serif" font-size="10.00">/doxygen/src/htmlgen.cpp</text>
</a>
</g>
</g>
<!-- Node1&#45;&gt;Node12 -->
<g id="edge11" class="edge">
<title>Node1&#45;&gt;Node12</title>
<path fill="none" stroke="#63b8ff" d="M1704.1,-339.6C1764.39,-328.94 1843.91,-314.88 1901.9,-304.63"/>
<polygon fill="#63b8ff" stroke="#63b8ff" points="1703.45,-336.16 1694.21,-341.35 1704.67,-343.05 1703.45,-336.16"/>
</g>
<!-- Node13 -->
<g id="node13" class="node">
<title>Node13</title>
<g id="a_node13"><a xlink:href="../../db/d14/index_8cpp.html" target="_top" xlink:title="This file contains functions for the various index pages.">
<polygon fill="white" stroke="#666666" points="2228,-305 2074,-305 2074,-275 2228,-275 2228,-305"/>
<text text-anchor="start" x="2082" y="-293" font-family="Helvetica,sans-Serif" font-size="10.00">/home/runner/work/doxygen</text>
<text text-anchor="middle" x="2151" y="-282" font-family="Helvetica,sans-Serif" font-size="10.00">/doxygen/src/index.cpp</text>
</a>
</g>
</g>
<!-- Node1&#45;&gt;Node13 -->
<g id="edge12" class="edge">
<title>Node1&#45;&gt;Node13</title>
<path fill="none" stroke="#63b8ff" d="M1704.24,-346.57C1794.65,-337.53 1939.95,-322.15 2065,-305 2067.85,-304.61 2070.75,-304.2 2073.67,-303.78"/>
<polygon fill="#63b8ff" stroke="#63b8ff" points="1703.64,-343.11 1694.04,-347.59 1704.34,-350.08 1703.64,-343.11"/>
</g>
<!-- Node14 -->
<g id="node14" class="node">
<title>Node14</title>
<g id="a_node14"><a xlink:href="../../d2/d48/language_8cpp.html" target="_top" xlink:title=" ">
<polygon fill="white" stroke="#666666" points="2400,-305 2246,-305 2246,-275 2400,-275 2400,-305"/>
<text text-anchor="start" x="2254" y="-293" font-family="Helvetica,sans-Serif" font-size="10.00">/home/runner/work/doxygen</text>
<text text-anchor="middle" x="2323" y="-282" font-family="Helvetica,sans-Serif" font-size="10.00">/doxygen/src/language.cpp</text>
</a>
</g>
</g>
<!-- Node1&#45;&gt;Node14 -->
<g id="edge13" class="edge">
<title>Node1&#45;&gt;Node14</title>
<path fill="none" stroke="#63b8ff" d="M1704.29,-350.19C1824.51,-343.06 2047.68,-328.01 2237,-305 2239.85,-304.65 2242.76,-304.28 2245.69,-303.89"/>
<polygon fill="#63b8ff" stroke="#63b8ff" points="1703.82,-346.71 1694.04,-350.8 1704.23,-353.7 1703.82,-346.71"/>
</g>
<!-- Node15 -->
<g id="node15" class="node">
<title>Node15</title>
<g id="a_node15"><a xlink:href="../../db/d16/layout_8cpp.html" target="_top" xlink:title=" ">
<polygon fill="white" stroke="#666666" points="2572,-305 2418,-305 2418,-275 2572,-275 2572,-305"/>
<text text-anchor="start" x="2426" y="-293" font-family="Helvetica,sans-Serif" font-size="10.00">/home/runner/work/doxygen</text>
<text text-anchor="middle" x="2495" y="-282" font-family="Helvetica,sans-Serif" font-size="10.00">/doxygen/src/layout.cpp</text>
</a>
</g>
</g>
<!-- Node1&#45;&gt;Node15 -->
<g id="edge14" class="edge">
<title>Node1&#45;&gt;Node15</title>
<path fill="none" stroke="#63b8ff" d="M1704.49,-352.29C1850.74,-347.13 2153.97,-333.74 2409,-305 2411.86,-304.68 2414.76,-304.33 2417.69,-303.95"/>
<polygon fill="#63b8ff" stroke="#63b8ff" points="1704.1,-348.8 1694.23,-352.65 1704.35,-355.8 1704.1,-348.8"/>
</g>
<!-- Node16 -->
<g id="node16" class="node">
<title>Node16</title>
<g id="a_node16"><a xlink:href="../../d0/d72/memberdef_8cpp.html" target="_top" xlink:title=" ">
<polygon fill="white" stroke="#666666" points="2748,-305 2590,-305 2590,-275 2748,-275 2748,-305"/>
<text text-anchor="start" x="2598" y="-293" font-family="Helvetica,sans-Serif" font-size="10.00">/home/runner/work/doxygen</text>
<text text-anchor="middle" x="2669" y="-282" font-family="Helvetica,sans-Serif" font-size="10.00">/doxygen/src/memberdef.cpp</text>
</a>
</g>
</g>
<!-- Node1&#45;&gt;Node16 -->
<g id="edge15" class="edge">
<title>Node1&#45;&gt;Node16</title>
<path fill="none" stroke="#63b8ff" d="M1704.18,-353.57C1873.57,-350.11 2258.83,-338.89 2581,-305 2583.92,-304.69 2586.9,-304.35 2589.9,-303.99"/>
<polygon fill="#63b8ff" stroke="#63b8ff" points="1703.99,-350.07 1694.07,-353.77 1704.13,-357.07 1703.99,-350.07"/>
</g>
<!-- Node17 -->
<g id="node17" class="node">
<title>Node17</title>
<g id="a_node17"><a xlink:href="../../d0/d14/memberlist_8cpp.html" target="_top" xlink:title=" ">
<polygon fill="white" stroke="#666666" points="2924,-305 2766,-305 2766,-275 2924,-275 2924,-305"/>
<text text-anchor="start" x="2774" y="-293" font-family="Helvetica,sans-Serif" font-size="10.00">/home/runner/work/doxygen</text>
<text text-anchor="middle" x="2845" y="-282" font-family="Helvetica,sans-Serif" font-size="10.00">/doxygen/src/memberlist.cpp</text>
</a>
</g>
</g>
<!-- Node1&#45;&gt;Node17 -->
<g id="edge16" class="edge">
<title>Node1&#45;&gt;Node17</title>
<path fill="none" stroke="#63b8ff" d="M1704.56,-354.55C1895.97,-352.84 2365.81,-344.57 2757,-305 2759.92,-304.7 2762.9,-304.38 2765.9,-304.02"/>
<polygon fill="#63b8ff" stroke="#63b8ff" points="1704.25,-351.06 1694.28,-354.64 1704.31,-358.06 1704.25,-351.06"/>
</g>
<!-- Node18 -->
<g id="node18" class="node">
<title>Node18</title>
<g id="a_node18"><a xlink:href="../../d7/d1c/namespacedef_8cpp.html" target="_top" xlink:title=" ">
<polygon fill="white" stroke="#666666" points="3115.5,-305 2942.5,-305 2942.5,-275 3115.5,-275 3115.5,-305"/>
<text text-anchor="start" x="2950.5" y="-293" font-family="Helvetica,sans-Serif" font-size="10.00">/home/runner/work/doxygen</text>
<text text-anchor="middle" x="3029" y="-282" font-family="Helvetica,sans-Serif" font-size="10.00">/doxygen/src/namespacedef.cpp</text>
</a>
</g>
</g>
<!-- Node1&#45;&gt;Node18 -->
<g id="edge17" class="edge">
<title>Node1&#45;&gt;Node18</title>
<path fill="none" stroke="#63b8ff" d="M1704.43,-354.9C1915.87,-353.96 2471.53,-347.29 2933,-305 2936.1,-304.72 2939.26,-304.4 2942.44,-304.06"/>
<polygon fill="#63b8ff" stroke="#63b8ff" points="1704.3,-351.4 1694.32,-354.94 1704.33,-358.4 1704.3,-351.4"/>
</g>
<!-- Node19 -->
<g id="node19" class="node">
<title>Node19</title>
<g id="a_node19"><a xlink:href="../../db/dd8/outputlist_8cpp.html" target="_top" xlink:title=" ">
<polygon fill="white" stroke="#666666" points="3288,-305 3134,-305 3134,-275 3288,-275 3288,-305"/>
<text text-anchor="start" x="3142" y="-293" font-family="Helvetica,sans-Serif" font-size="10.00">/home/runner/work/doxygen</text>
<text text-anchor="middle" x="3211" y="-282" font-family="Helvetica,sans-Serif" font-size="10.00">/doxygen/src/outputlist.cpp</text>
</a>
</g>
</g>
<!-- Node1&#45;&gt;Node19 -->
<g id="edge18" class="edge">
<title>Node1&#45;&gt;Node19</title>
<path fill="none" stroke="#63b8ff" d="M1704.44,-353.58C1982.84,-348.81 2846.55,-332.17 3125,-305 3127.86,-304.72 3130.77,-304.41 3133.71,-304.06"/>
<polygon fill="#63b8ff" stroke="#63b8ff" points="1704.33,-350.08 1694.39,-353.75 1704.45,-357.08 1704.33,-350.08"/>
</g>
<!-- Node20 -->
<g id="node20" class="node">
<title>Node20</title>
<g id="a_node20"><a xlink:href="../../d0/d9c/rtfgen_8cpp.html" target="_top" xlink:title=" ">
<polygon fill="white" stroke="#666666" points="3460,-305 3306,-305 3306,-275 3460,-275 3460,-305"/>
<text text-anchor="start" x="3314" y="-293" font-family="Helvetica,sans-Serif" font-size="10.00">/home/runner/work/doxygen</text>
<text text-anchor="middle" x="3383" y="-282" font-family="Helvetica,sans-Serif" font-size="10.00">/doxygen/src/rtfgen.cpp</text>
</a>
</g>
</g>
<!-- Node1&#45;&gt;Node20 -->
<g id="edge19" class="edge">
<title>Node1&#45;&gt;Node20</title>
<path fill="none" stroke="#63b8ff" d="M1704.5,-353.92C2003.5,-349.98 2983.39,-335.06 3297,-305 3299.86,-304.73 3302.77,-304.42 3305.71,-304.07"/>
<polygon fill="#63b8ff" stroke="#63b8ff" points="1704.11,-350.42 1694.16,-354.05 1704.2,-357.42 1704.11,-350.42"/>
</g>
<!-- Node21 -->
<g id="node21" class="node">
<title>Node21</title>
<g id="a_node21"><a xlink:href="../../d5/d6a/vhdlcode_8l.html" target="_top" xlink:title=" ">
<polygon fill="white" stroke="#666666" points="3632,-305 3478,-305 3478,-275 3632,-275 3632,-305"/>
<text text-anchor="start" x="3486" y="-293" font-family="Helvetica,sans-Serif" font-size="10.00">/home/runner/work/doxygen</text>
<text text-anchor="middle" x="3555" y="-282" font-family="Helvetica,sans-Serif" font-size="10.00">/doxygen/src/vhdlcode.l</text>
</a>
</g>
</g>
<!-- Node1&#45;&gt;Node21 -->
<g id="edge20" class="edge">
<title>Node1&#45;&gt;Node21</title>
<path fill="none" stroke="#63b8ff" d="M1704.2,-354.2C2022.31,-351.05 3119.95,-337.97 3469,-305 3471.86,-304.73 3474.77,-304.42 3477.71,-304.09"/>
<polygon fill="#63b8ff" stroke="#63b8ff" points="1704.08,-350.7 1694.11,-354.3 1704.15,-357.7 1704.08,-350.7"/>
</g>
<!-- Node22 -->
<g id="node22" class="node">
<title>Node22</title>
<g id="a_node22"><a xlink:href="../../de/dea/vhdldocgen_8cpp.html" target="_top" xlink:title=" ">
<polygon fill="white" stroke="#666666" points="1364,-173 1206,-173 1206,-143 1364,-143 1364,-173"/>
<text text-anchor="start" x="1214" y="-161" font-family="Helvetica,sans-Serif" font-size="10.00">/home/runner/work/doxygen</text>
<text text-anchor="middle" x="1285" y="-150" font-family="Helvetica,sans-Serif" font-size="10.00">/doxygen/src/vhdldocgen.cpp</text>
</a>
</g>
</g>
<!-- Node1&#45;&gt;Node22 -->
<g id="edge21" class="edge">
<title>Node1&#45;&gt;Node22</title>
<path fill="none" stroke="#63b8ff" d="M1529.54,-350.13C1454.99,-344.19 1355.36,-331.47 1326,-305 1287.48,-270.27 1283.96,-202.54 1284.39,-173.16"/>
<polygon fill="#63b8ff" stroke="#63b8ff" points="1529.65,-353.65 1539.88,-350.92 1530.18,-346.67 1529.65,-353.65"/>
</g>
<!-- Node23 -->
<g id="node23" class="node">
<title>Node23</title>
<g id="a_node23"><a xlink:href="../../d1/d86/vhdljjparser_8cpp.html" target="_top" xlink:title=" ">
<polygon fill="white" stroke="#666666" points="1233.5,-30 1074.5,-30 1074.5,0 1233.5,0 1233.5,-30"/>
<text text-anchor="start" x="1082.5" y="-18" font-family="Helvetica,sans-Serif" font-size="10.00">/home/runner/work/doxygen</text>
<text text-anchor="middle" x="1154" y="-7" font-family="Helvetica,sans-Serif" font-size="10.00">/doxygen/src/vhdljjparser.cpp</text>
</a>
</g>
</g>
<!-- Node1&#45;&gt;Node23 -->
<g id="edge22" class="edge">
<title>Node1&#45;&gt;Node23</title>
<path fill="none" stroke="#63b8ff" d="M1529.65,-349.74C1463.52,-343.71 1380.5,-331.07 1359,-305 1313.02,-249.25 1385.95,-214.1 1373,-143 1366.45,-107.02 1371.15,-90.49 1344,-66 1313.99,-38.93 1271.05,-26.2 1233.58,-20.35"/>
<polygon fill="#63b8ff" stroke="#63b8ff" points="1529.43,-353.23 1539.69,-350.61 1530.04,-346.26 1529.43,-353.23"/>
</g>
<!-- Node24 -->
<g id="node24" class="node">
<title>Node24</title>
<g id="a_node24"><a xlink:href="../../d2/d55/vhdljjparser_8h.html" target="_top" xlink:title=" ">
<polygon fill="white" stroke="#666666" points="1274,-305 1120,-305 1120,-275 1274,-275 1274,-305"/>
<text text-anchor="start" x="1128" y="-293" font-family="Helvetica,sans-Serif" font-size="10.00">/home/runner/work/doxygen</text>
<text text-anchor="middle" x="1197" y="-282" font-family="Helvetica,sans-Serif" font-size="10.00">/doxygen/src/vhdljjparser.h</text>
</a>
</g>
</g>
<!-- Node1&#45;&gt;Node24 -->
<g id="edge23" class="edge">
<title>Node1&#45;&gt;Node24</title>
<path fill="none" stroke="#63b8ff" d="M1529.89,-341.81C1463.57,-331.75 1370.03,-317.54 1288,-305 1283.58,-304.32 1279.03,-303.63 1274.44,-302.92"/>
<polygon fill="#63b8ff" stroke="#63b8ff" points="1529.47,-345.28 1539.88,-343.32 1530.52,-338.36 1529.47,-345.28"/>
</g>
<!-- Node24&#45;&gt;Node8 -->
<g id="edge24" class="edge">
<title>Node24&#45;&gt;Node8</title>
<path fill="none" stroke="#63b8ff" d="M1109.76,-273.32C1051.11,-262.77 974.51,-249 918.1,-238.86"/>
<polygon fill="#63b8ff" stroke="#63b8ff" points="1109.29,-276.79 1119.75,-275.11 1110.53,-269.9 1109.29,-276.79"/>
</g>
<!-- Node24&#45;&gt;Node22 -->
<g id="edge25" class="edge">
<title>Node24&#45;&gt;Node22</title>
<path fill="none" stroke="#63b8ff" d="M1212.26,-266.45C1230.43,-239.61 1260.23,-195.6 1275.43,-173.14"/>
<polygon fill="#63b8ff" stroke="#63b8ff" points="1209.29,-264.6 1206.59,-274.84 1215.09,-268.52 1209.29,-264.6"/>
</g>
<!-- Node24&#45;&gt;Node23 -->
<g id="edge26" class="edge">
<title>Node24&#45;&gt;Node23</title>
<path fill="none" stroke="#63b8ff" d="M1111.11,-272.75C1072.12,-263.88 1031.5,-252.06 1017,-239 970.15,-196.8 976.76,-168.95 965,-107 961.6,-89.1 953.88,-80.44 965,-66 978.74,-48.15 1029.05,-35.37 1074.31,-27.2"/>
<polygon fill="#63b8ff" stroke="#63b8ff" points="1110.45,-276.19 1120.97,-274.94 1111.97,-269.36 1110.45,-276.19"/>
</g>
<!-- Node25 -->
<g id="node25" class="node">
<title>Node25</title>
<g id="a_node25"><a xlink:href="../../d5/df9/_vhdl_parser_8h.html" target="_top" xlink:title=" ">
<polygon fill="white" stroke="#666666" points="1205.5,-239 1026.5,-239 1026.5,-209 1205.5,-209 1205.5,-239"/>
<text text-anchor="start" x="1034.5" y="-227" font-family="Helvetica,sans-Serif" font-size="10.00">/home/runner/work/doxygen</text>
<text text-anchor="middle" x="1116" y="-216" font-family="Helvetica,sans-Serif" font-size="10.00">/doxygen/vhdlparser/VhdlParser.h</text>
</a>
</g>
</g>
<!-- Node24&#45;&gt;Node25 -->
<g id="edge27" class="edge">
<title>Node24&#45;&gt;Node25</title>
<path fill="none" stroke="#63b8ff" d="M1171.03,-268.48C1158.92,-258.91 1144.82,-247.77 1133.93,-239.16"/>
<polygon fill="#63b8ff" stroke="#63b8ff" points="1169.01,-271.34 1179.02,-274.8 1173.35,-265.85 1169.01,-271.34"/>
</g>
<!-- Node25&#45;&gt;Node22 -->
<g id="edge28" class="edge">
<title>Node25&#45;&gt;Node22</title>
<path fill="none" stroke="#63b8ff" d="M1162.68,-205.32C1189.58,-195.14 1222.92,-182.51 1248,-173.01"/>
<polygon fill="#63b8ff" stroke="#63b8ff" points="1161.2,-202.14 1153.09,-208.95 1163.68,-208.69 1161.2,-202.14"/>
</g>
<!-- Node26 -->
<g id="node26" class="node">
<title>Node26</title>
<g id="a_node26"><a xlink:href="../../d2/dc3/_vhdl_parser_error_handler_8hpp.html" target="_top" xlink:title=" ">
<polygon fill="white" stroke="#666666" points="1145.5,-107 974.5,-107 974.5,-66 1145.5,-66 1145.5,-107"/>
<text text-anchor="start" x="982.5" y="-95" font-family="Helvetica,sans-Serif" font-size="10.00">/home/runner/work/doxygen</text>
<text text-anchor="start" x="982.5" y="-84" font-family="Helvetica,sans-Serif" font-size="10.00">/doxygen/vhdlparser/VhdlParser</text>
<text text-anchor="middle" x="1060" y="-73" font-family="Helvetica,sans-Serif" font-size="10.00">ErrorHandler.hpp</text>
</a>
</g>
</g>
<!-- Node25&#45;&gt;Node26 -->
<g id="edge29" class="edge">
<title>Node25&#45;&gt;Node26</title>
<path fill="none" stroke="#63b8ff" d="M1042.39,-204.94C1026.85,-197.62 1012.34,-187.35 1003,-173 988.21,-150.27 1011.07,-124.39 1032.1,-107.12"/>
<polygon fill="#63b8ff" stroke="#63b8ff" points="1041.06,-208.18 1051.63,-208.93 1043.83,-201.75 1041.06,-208.18"/>
</g>
<!-- Node27 -->
<g id="node27" class="node">
<title>Node27</title>
<g id="a_node27"><a xlink:href="../../d9/d48/vhdlstring_8h.html" target="_top" xlink:title=" ">
<polygon fill="white" stroke="#666666" points="1188.5,-173 1011.5,-173 1011.5,-143 1188.5,-143 1188.5,-173"/>
<text text-anchor="start" x="1019.5" y="-161" font-family="Helvetica,sans-Serif" font-size="10.00">/home/runner/work/doxygen</text>
<text text-anchor="middle" x="1100" y="-150" font-family="Helvetica,sans-Serif" font-size="10.00">/doxygen/vhdlparser/vhdlstring.h</text>
</a>
</g>
</g>
<!-- Node25&#45;&gt;Node27 -->
<g id="edge31" class="edge">
<title>Node25&#45;&gt;Node27</title>
<path fill="none" stroke="#63b8ff" d="M1109.96,-198.83C1107.79,-190.17 1105.42,-180.7 1103.54,-173.16"/>
<polygon fill="#63b8ff" stroke="#63b8ff" points="1106.63,-199.94 1112.45,-208.8 1113.42,-198.25 1106.63,-199.94"/>
</g>
<!-- Node26&#45;&gt;Node23 -->
<g id="edge30" class="edge">
<title>Node26&#45;&gt;Node23</title>
<path fill="none" stroke="#63b8ff" d="M1094.67,-59.87C1108.27,-49.81 1123.36,-38.66 1134.91,-30.11"/>
<polygon fill="#63b8ff" stroke="#63b8ff" points="1092.39,-57.2 1086.43,-65.96 1096.56,-62.82 1092.39,-57.2"/>
</g>
<!-- Node27&#45;&gt;Node26 -->
<g id="edge32" class="edge">
<title>Node27&#45;&gt;Node26</title>
<path fill="none" stroke="#63b8ff" d="M1086.78,-134.03C1081.76,-125.31 1076.09,-115.46 1071.27,-107.07"/>
<polygon fill="#63b8ff" stroke="#63b8ff" points="1083.88,-136.01 1091.91,-142.94 1089.95,-132.52 1083.88,-136.01"/>
</g>
<!-- Node28 -->
<g id="node28" class="node">
<title>Node28</title>
<g id="a_node28"><a xlink:href="../../d7/dad/_vhdl_parser_token_manager_8h.html" target="_top" xlink:title=" ">
<polygon fill="white" stroke="#666666" points="1334.5,-107 1163.5,-107 1163.5,-66 1334.5,-66 1334.5,-107"/>
<text text-anchor="start" x="1171.5" y="-95" font-family="Helvetica,sans-Serif" font-size="10.00">/home/runner/work/doxygen</text>
<text text-anchor="start" x="1171.5" y="-84" font-family="Helvetica,sans-Serif" font-size="10.00">/doxygen/vhdlparser/VhdlParser</text>
<text text-anchor="middle" x="1249" y="-73" font-family="Helvetica,sans-Serif" font-size="10.00">TokenManager.h</text>
</a>
</g>
</g>
<!-- Node27&#45;&gt;Node28 -->
<g id="edge33" class="edge">
<title>Node27&#45;&gt;Node28</title>
<path fill="none" stroke="#63b8ff" d="M1139.36,-138.64C1160.21,-128.92 1185.81,-116.97 1207.04,-107.07"/>
<polygon fill="#63b8ff" stroke="#63b8ff" points="1137.74,-135.54 1130.15,-142.94 1140.69,-141.88 1137.74,-135.54"/>
</g>
<!-- Node28&#45;&gt;Node23 -->
<g id="edge34" class="edge">
<title>Node28&#45;&gt;Node23</title>
<path fill="none" stroke="#63b8ff" d="M1213.96,-59.87C1200.22,-49.81 1184.97,-38.66 1173.29,-30.11"/>
<polygon fill="#63b8ff" stroke="#63b8ff" points="1212.15,-62.88 1222.28,-65.96 1216.28,-57.23 1212.15,-62.88"/>
</g>
</g>
</svg>
