<?xml version="1.0" encoding="UTF-8" standalone="no"?>
<!DOCTYPE svg PUBLIC "-//W3C//DTD SVG 1.1//EN"
 "http://www.w3.org/Graphics/SVG/1.1/DTD/svg11.dtd">
<!-- Generated by graphviz version 2.43.0 (0)
 -->
<!-- Title: DocSection Pages: 1 -->
<svg width="1667pt" height="384pt"
 viewBox="0.00 0.00 1667.00 384.00" xmlns="http://www.w3.org/2000/svg" xmlns:xlink="http://www.w3.org/1999/xlink">
<g id="graph0" class="graph" transform="scale(1 1) rotate(0) translate(4 380)">
<title>DocSection</title>
<!-- Node1 -->
<g id="node1" class="node">
<title>Node1</title>
<g id="a_node1"><a xlink:title="Node representing a normal section.">
<polygon fill="#999999" stroke="#666666" points="1659,-58.5 1588,-58.5 1588,-39.5 1659,-39.5 1659,-58.5"/>
<text text-anchor="middle" x="1623.5" y="-46.5" font-family="Helvetica,sans-Serif" font-size="10.00">DocSection</text>
</a>
</g>
</g>
<!-- Node2 -->
<g id="node2" class="node">
<title>Node2</title>
<g id="a_node2"><a xlink:href="../../da/dfc/class_doc_compound_node.html" target="_top" xlink:title="Base class for nodes with children.">
<polygon fill="white" stroke="#666666" points="1551,-180.5 1438,-180.5 1438,-161.5 1551,-161.5 1551,-180.5"/>
<text text-anchor="middle" x="1494.5" y="-168.5" font-family="Helvetica,sans-Serif" font-size="10.00">DocCompoundNode</text>
</a>
</g>
</g>
<!-- Node2&#45;&gt;Node1 -->
<g id="edge1" class="edge">
<title>Node2&#45;&gt;Node1</title>
<path fill="none" stroke="#63b8ff" d="M1512.68,-154.49C1539.64,-128.6 1591.02,-79.24 1612.58,-58.53"/>
<polygon fill="#63b8ff" stroke="#63b8ff" points="1510.25,-151.98 1505.47,-161.43 1515.1,-157.02 1510.25,-151.98"/>
</g>
<!-- Node3 -->
<g id="node3" class="node">
<title>Node3</title>
<g id="a_node3"><a xlink:href="../../d9/d0e/class_doc_node.html" target="_top" xlink:title="Abstract node interface with type information.">
<polygon fill="white" stroke="#666666" points="1335.5,-180.5 1274.5,-180.5 1274.5,-161.5 1335.5,-161.5 1335.5,-180.5"/>
<text text-anchor="middle" x="1305" y="-168.5" font-family="Helvetica,sans-Serif" font-size="10.00">DocNode</text>
</a>
</g>
</g>
<!-- Node3&#45;&gt;Node2 -->
<g id="edge2" class="edge">
<title>Node3&#45;&gt;Node2</title>
<path fill="none" stroke="#63b8ff" d="M1345.87,-171C1372.65,-171 1408.31,-171 1437.87,-171"/>
<polygon fill="#63b8ff" stroke="#63b8ff" points="1345.71,-167.5 1335.71,-171 1345.71,-174.5 1345.71,-167.5"/>
</g>
<!-- Node4 -->
<g id="node4" class="node">
<title>Node4</title>
<g id="a_node4"><a xlink:href="../../da/d02/class_doc_parser.html" target="_top" xlink:title=" ">
<polygon fill="white" stroke="#666666" points="1126.5,-180.5 1061.5,-180.5 1061.5,-161.5 1126.5,-161.5 1126.5,-180.5"/>
<text text-anchor="middle" x="1094" y="-168.5" font-family="Helvetica,sans-Serif" font-size="10.00">DocParser</text>
</a>
</g>
</g>
<!-- Node4&#45;&gt;Node3 -->
<g id="edge3" class="edge">
<title>Node4&#45;&gt;Node3</title>
<path fill="none" stroke="#9a32cd" stroke-dasharray="5,2" d="M1136.89,-171C1177.6,-171 1238.39,-171 1274.33,-171"/>
<polygon fill="#9a32cd" stroke="#9a32cd" points="1136.74,-167.5 1126.74,-171 1136.74,-174.5 1136.74,-167.5"/>
<text text-anchor="middle" x="1223.5" y="-174" font-family="Helvetica,sans-Serif" font-size="10.00" fill="grey"> m_parser</text>
</g>
<!-- Node5 -->
<g id="node5" class="node">
<title>Node5</title>
<g id="a_node5"><a xlink:href="../../de/dad/class_i_doc_parser.html" target="_top" xlink:title="opaque parser interface">
<polygon fill="white" stroke="#666666" points="848,-236.5 780,-236.5 780,-217.5 848,-217.5 848,-236.5"/>
<text text-anchor="middle" x="814" y="-224.5" font-family="Helvetica,sans-Serif" font-size="10.00">IDocParser</text>
</a>
</g>
</g>
<!-- Node5&#45;&gt;Node4 -->
<g id="edge4" class="edge">
<title>Node5&#45;&gt;Node4</title>
<path fill="none" stroke="#63b8ff" d="M858.24,-221.73C893.6,-217.08 944.81,-209.56 989,-200 1013.92,-194.61 1041.71,-186.76 1062.29,-180.59"/>
<polygon fill="#63b8ff" stroke="#63b8ff" points="857.72,-218.27 848.25,-223.03 858.61,-225.21 857.72,-218.27"/>
</g>
<!-- Node6 -->
<g id="node6" class="node">
<title>Node6</title>
<g id="a_node6"><a xlink:href="../../d8/d7d/struct_doc_parser_context.html" target="_top" xlink:title="Parser&#39;s context to store all global variables.">
<polygon fill="white" stroke="#666666" points="866,-199.5 762,-199.5 762,-180.5 866,-180.5 866,-199.5"/>
<text text-anchor="middle" x="814" y="-187.5" font-family="Helvetica,sans-Serif" font-size="10.00">DocParserContext</text>
</a>
</g>
</g>
<!-- Node6&#45;&gt;Node4 -->
<g id="edge5" class="edge">
<title>Node6&#45;&gt;Node4</title>
<path fill="none" stroke="#9a32cd" stroke-dasharray="5,2" d="M876.32,-185.81C933.53,-181.9 1016.6,-176.22 1061.44,-173.16"/>
<polygon fill="#9a32cd" stroke="#9a32cd" points="876.05,-182.32 866.31,-186.49 876.53,-189.3 876.05,-182.32"/>
<text text-anchor="middle" x="936.5" y="-188" font-family="Helvetica,sans-Serif" font-size="10.00" fill="grey"> context</text>
</g>
<!-- Node7 -->
<g id="node7" class="node">
<title>Node7</title>
<g id="a_node7"><a xlink:href="../../d5/dcc/class_definition.html" target="_top" xlink:title="The common base class of all entity definitions found in the sources.">
<polygon fill="white" stroke="#666666" points="294.5,-330.5 230.5,-330.5 230.5,-311.5 294.5,-311.5 294.5,-330.5"/>
<text text-anchor="middle" x="262.5" y="-318.5" font-family="Helvetica,sans-Serif" font-size="10.00">Definition</text>
</a>
</g>
</g>
<!-- Node7&#45;&gt;Node6 -->
<g id="edge6" class="edge">
<title>Node7&#45;&gt;Node6</title>
<path fill="none" stroke="#9a32cd" stroke-dasharray="5,2" d="M303.01,-333.38C394.38,-359.3 621.79,-407.79 744,-292 771.72,-265.74 736.79,-236.67 762,-208 764.98,-204.62 768.63,-201.87 772.6,-199.64"/>
<polygon fill="#9a32cd" stroke="#9a32cd" points="303.9,-330 293.32,-330.57 301.95,-336.72 303.9,-330"/>
<text text-anchor="middle" x="583.5" y="-368" font-family="Helvetica,sans-Serif" font-size="10.00" fill="grey"> scope</text>
</g>
<!-- Node13 -->
<g id="node13" class="node">
<title>Node13</title>
<g id="a_node13"><a xlink:href="../../da/d09/class_member_def.html" target="_top" xlink:title="A model of a class/file/namespace member symbol.">
<polygon fill="white" stroke="#666666" points="620.5,-298.5 546.5,-298.5 546.5,-279.5 620.5,-279.5 620.5,-298.5"/>
<text text-anchor="middle" x="583.5" y="-286.5" font-family="Helvetica,sans-Serif" font-size="10.00">MemberDef</text>
</a>
</g>
</g>
<!-- Node7&#45;&gt;Node13 -->
<g id="edge13" class="edge">
<title>Node7&#45;&gt;Node13</title>
<path fill="none" stroke="#63b8ff" d="M304.63,-316.87C367.53,-310.56 486.58,-298.62 546.35,-292.63"/>
<polygon fill="#63b8ff" stroke="#63b8ff" points="304.27,-313.39 294.67,-317.87 304.97,-320.36 304.27,-313.39"/>
</g>
<!-- Node8 -->
<g id="node8" class="node">
<title>Node8</title>
<g id="a_node8"><a xlink:href="../../d9/d45/class_q_c_string.html" target="_top" xlink:title="This is an alternative implementation of QCString.">
<polygon fill="white" stroke="#666666" points="292,-42.5 233,-42.5 233,-23.5 292,-23.5 292,-42.5"/>
<text text-anchor="middle" x="262.5" y="-30.5" font-family="Helvetica,sans-Serif" font-size="10.00">QCString</text>
</a>
</g>
</g>
<!-- Node8&#45;&gt;Node1 -->
<g id="edge23" class="edge">
<title>Node8&#45;&gt;Node1</title>
<path fill="none" stroke="#9a32cd" stroke-dasharray="5,2" d="M302.28,-25.04C320.88,-21.48 343.52,-17.53 364,-15 460.61,-3.07 485.16,0 582.5,0 582.5,0 582.5,0 1495.5,0 1538.75,0 1585.06,-25.04 1607.96,-39.32"/>
<polygon fill="#9a32cd" stroke="#9a32cd" points="301.55,-21.62 292.4,-26.96 302.88,-28.49 301.55,-21.62"/>
<text text-anchor="middle" x="1094" y="-36" font-family="Helvetica,sans-Serif" font-size="10.00" fill="grey"> m_anchor</text>
<text text-anchor="middle" x="1094" y="-25" font-family="Helvetica,sans-Serif" font-size="10.00" fill="grey">m_file</text>
<text text-anchor="middle" x="1094" y="-14" font-family="Helvetica,sans-Serif" font-size="10.00" fill="grey">m_id</text>
<text text-anchor="middle" x="1094" y="-3" font-family="Helvetica,sans-Serif" font-size="10.00" fill="grey">m_title</text>
</g>
<!-- Node8&#45;&gt;Node6 -->
<g id="edge7" class="edge">
<title>Node8&#45;&gt;Node6</title>
<path fill="none" stroke="#9a32cd" stroke-dasharray="5,2" d="M277.14,-50.6C294.67,-71.74 327.26,-106.32 364,-122 478.43,-170.85 520.38,-123.89 643,-145 692.95,-153.6 749.6,-169.97 783.26,-180.41"/>
<polygon fill="#9a32cd" stroke="#9a32cd" points="279.78,-48.3 270.78,-42.71 274.33,-52.69 279.78,-48.3"/>
<text text-anchor="middle" x="583.5" y="-214" font-family="Helvetica,sans-Serif" font-size="10.00" fill="grey"> context</text>
<text text-anchor="middle" x="583.5" y="-203" font-family="Helvetica,sans-Serif" font-size="10.00" fill="grey">exampleName</text>
<text text-anchor="middle" x="583.5" y="-192" font-family="Helvetica,sans-Serif" font-size="10.00" fill="grey">fileName</text>
<text text-anchor="middle" x="583.5" y="-181" font-family="Helvetica,sans-Serif" font-size="10.00" fill="grey">includeFileName</text>
<text text-anchor="middle" x="583.5" y="-170" font-family="Helvetica,sans-Serif" font-size="10.00" fill="grey">includeFileText</text>
<text text-anchor="middle" x="583.5" y="-159" font-family="Helvetica,sans-Serif" font-size="10.00" fill="grey">relPath</text>
<text text-anchor="middle" x="583.5" y="-148" font-family="Helvetica,sans-Serif" font-size="10.00" fill="grey">searchUrl</text>
</g>
<!-- Node14 -->
<g id="node14" class="node">
<title>Node14</title>
<g id="a_node14"><a xlink:href="../../d6/df4/struct_token_info.html" target="_top" xlink:title="Data associated with a token used by the comment block parser.">
<polygon fill="white" stroke="#666666" points="615,-99.5 552,-99.5 552,-80.5 615,-80.5 615,-99.5"/>
<text text-anchor="middle" x="583.5" y="-87.5" font-family="Helvetica,sans-Serif" font-size="10.00">TokenInfo</text>
</a>
</g>
</g>
<!-- Node8&#45;&gt;Node14 -->
<g id="edge15" class="edge">
<title>Node8&#45;&gt;Node14</title>
<path fill="none" stroke="#9a32cd" stroke-dasharray="5,2" d="M302.18,-25.98C351.04,-18.72 437.08,-11.31 506,-34 533.83,-43.16 559.94,-66.66 573.27,-80.12"/>
<polygon fill="#9a32cd" stroke="#9a32cd" points="301.38,-22.57 292.04,-27.57 302.46,-29.48 301.38,-22.57"/>
<text text-anchor="middle" x="435" y="-114" font-family="Helvetica,sans-Serif" font-size="10.00" fill="grey"> attribsStr</text>
<text text-anchor="middle" x="435" y="-103" font-family="Helvetica,sans-Serif" font-size="10.00" fill="grey">chars</text>
<text text-anchor="middle" x="435" y="-92" font-family="Helvetica,sans-Serif" font-size="10.00" fill="grey">name</text>
<text text-anchor="middle" x="435" y="-81" font-family="Helvetica,sans-Serif" font-size="10.00" fill="grey">sectionId</text>
<text text-anchor="middle" x="435" y="-70" font-family="Helvetica,sans-Serif" font-size="10.00" fill="grey">simpleSectName</text>
<text text-anchor="middle" x="435" y="-59" font-family="Helvetica,sans-Serif" font-size="10.00" fill="grey">simpleSectText</text>
<text text-anchor="middle" x="435" y="-48" font-family="Helvetica,sans-Serif" font-size="10.00" fill="grey">text</text>
<text text-anchor="middle" x="435" y="-37" font-family="Helvetica,sans-Serif" font-size="10.00" fill="grey">verb</text>
</g>
<!-- Node9 -->
<g id="node9" class="node">
<title>Node9</title>
<g id="a_node9"><a xlink:href="../../d9/d82/class_iterable_stack.html" target="_top" xlink:title=" ">
<polygon fill="white" stroke="#666666" points="643,-261 524,-261 524,-231 643,-231 643,-261"/>
<text text-anchor="start" x="532" y="-249" font-family="Helvetica,sans-Serif" font-size="10.00">IterableStack&lt; const</text>
<text text-anchor="middle" x="583.5" y="-238" font-family="Helvetica,sans-Serif" font-size="10.00"> DocNodeVariant * &gt;</text>
</a>
</g>
</g>
<!-- Node9&#45;&gt;Node6 -->
<g id="edge8" class="edge">
<title>Node9&#45;&gt;Node6</title>
<path fill="none" stroke="#9a32cd" stroke-dasharray="5,2" d="M631.33,-227.45C641.04,-224 651.28,-220.65 661,-218 694.13,-208.95 732.13,-201.95 761.85,-197.22"/>
<polygon fill="#9a32cd" stroke="#9a32cd" points="630.03,-224.19 621.83,-230.9 632.43,-230.77 630.03,-224.19"/>
<text text-anchor="middle" x="702.5" y="-232" font-family="Helvetica,sans-Serif" font-size="10.00" fill="grey"> initialStyleStack</text>
<text text-anchor="middle" x="702.5" y="-221" font-family="Helvetica,sans-Serif" font-size="10.00" fill="grey">styleStack</text>
</g>
<!-- Node10 -->
<g id="node10" class="node">
<title>Node10</title>
<g id="a_node10"><a xlink:title=" ">
<polygon fill="white" stroke="#666666" points="346,-241.5 179,-241.5 179,-200.5 346,-200.5 346,-241.5"/>
<text text-anchor="start" x="187" y="-229.5" font-family="Helvetica,sans-Serif" font-size="10.00">std::stack&lt; const DocNode</text>
<text text-anchor="start" x="187" y="-218.5" font-family="Helvetica,sans-Serif" font-size="10.00">Variant * , std::deque</text>
<text text-anchor="middle" x="262.5" y="-207.5" font-family="Helvetica,sans-Serif" font-size="10.00">&lt;const DocNodeVariant * &gt; &#160;&gt;</text>
</a>
</g>
</g>
<!-- Node10&#45;&gt;Node9 -->
<g id="edge9" class="edge">
<title>Node10&#45;&gt;Node9</title>
<path fill="none" stroke="#63b8ff" d="M356.36,-228.28C410.48,-232.52 477.08,-237.74 523.94,-241.41"/>
<polygon fill="#63b8ff" stroke="#63b8ff" points="356.31,-224.76 346.07,-227.47 355.76,-231.74 356.31,-224.76"/>
</g>
<!-- Node11 -->
<g id="node11" class="node">
<title>Node11</title>
<g id="a_node11"><a xlink:href="../../d9/d82/class_iterable_stack.html" target="_top" xlink:title=" ">
<polygon fill="white" stroke="#666666" points="344,-278.5 181,-278.5 181,-259.5 344,-259.5 344,-278.5"/>
<text text-anchor="middle" x="262.5" y="-266.5" font-family="Helvetica,sans-Serif" font-size="10.00">IterableStack&lt; T, Container &gt;</text>
</a>
</g>
</g>
<!-- Node11&#45;&gt;Node9 -->
<g id="edge10" class="edge">
<title>Node11&#45;&gt;Node9</title>
<path fill="none" stroke="orange" stroke-dasharray="5,2" d="M354.41,-262.45C408.83,-258.52 476.41,-253.65 523.83,-250.23"/>
<polygon fill="orange" stroke="orange" points="354.13,-258.96 344.41,-263.17 354.64,-265.94 354.13,-258.96"/>
<text text-anchor="middle" x="435" y="-264" font-family="Helvetica,sans-Serif" font-size="10.00" fill="grey"> &lt; const DocNodeVariant * &gt;</text>
</g>
<!-- Node12 -->
<g id="node12" class="node">
<title>Node12</title>
<g id="a_node12"><a xlink:title=" ">
<polygon fill="white" stroke="#666666" points="122,-284 20,-284 20,-254 122,-254 122,-284"/>
<text text-anchor="start" x="28" y="-272" font-family="Helvetica,sans-Serif" font-size="10.00">std::stack&lt; T, std</text>
<text text-anchor="middle" x="71" y="-261" font-family="Helvetica,sans-Serif" font-size="10.00">::deque&lt; T &gt; &gt;</text>
</a>
</g>
</g>
<!-- Node12&#45;&gt;Node11 -->
<g id="edge11" class="edge">
<title>Node12&#45;&gt;Node11</title>
<path fill="none" stroke="#63b8ff" d="M132.67,-269C148.02,-269 164.74,-269 180.91,-269"/>
<polygon fill="#63b8ff" stroke="#63b8ff" points="132.29,-265.5 122.29,-269 132.28,-272.5 132.29,-265.5"/>
</g>
<!-- Node13&#45;&gt;Node6 -->
<g id="edge12" class="edge">
<title>Node13&#45;&gt;Node6</title>
<path fill="none" stroke="#9a32cd" stroke-dasharray="5,2" d="M630.98,-284.06C665.34,-278.34 711.6,-266.11 744,-240 756.71,-229.76 749.51,-218.5 762,-208 766.03,-204.62 770.73,-201.85 775.62,-199.6"/>
<polygon fill="#9a32cd" stroke="#9a32cd" points="630.08,-280.65 620.73,-285.63 631.14,-287.57 630.08,-280.65"/>
<text text-anchor="middle" x="702.5" y="-280" font-family="Helvetica,sans-Serif" font-size="10.00" fill="grey"> memberDef</text>
</g>
<!-- Node14&#45;&gt;Node6 -->
<g id="edge14" class="edge">
<title>Node14&#45;&gt;Node6</title>
<path fill="none" stroke="#9a32cd" stroke-dasharray="5,2" d="M625.13,-84.03C660.6,-81.2 711.38,-83.24 744,-111 765.2,-129.04 742.97,-150.68 762,-171 765.62,-174.86 770.09,-177.94 774.88,-180.4"/>
<polygon fill="#9a32cd" stroke="#9a32cd" points="624.72,-80.56 615.1,-84.99 625.39,-87.52 624.72,-80.56"/>
<text text-anchor="middle" x="702.5" y="-114" font-family="Helvetica,sans-Serif" font-size="10.00" fill="grey"> token</text>
</g>
<!-- Node15 -->
<g id="node15" class="node">
<title>Node15</title>
<g id="a_node15"><a xlink:href="../../db/d4d/class_html_attrib_list.html" target="_top" xlink:title="Class representing a list of HTML attributes.">
<polygon fill="white" stroke="#666666" points="305,-178.5 220,-178.5 220,-159.5 305,-159.5 305,-178.5"/>
<text text-anchor="middle" x="262.5" y="-166.5" font-family="Helvetica,sans-Serif" font-size="10.00">HtmlAttribList</text>
</a>
</g>
</g>
<!-- Node15&#45;&gt;Node14 -->
<g id="edge16" class="edge">
<title>Node15&#45;&gt;Node14</title>
<path fill="none" stroke="#9a32cd" stroke-dasharray="5,2" d="M315.24,-165.99C365.52,-161.66 443.26,-151.18 506,-126 514.92,-122.42 515.51,-118.51 524,-114 534.18,-108.59 545.85,-103.58 556.07,-99.55"/>
<polygon fill="#9a32cd" stroke="#9a32cd" points="314.94,-162.51 305.25,-166.8 315.5,-169.48 314.94,-162.51"/>
<text text-anchor="middle" x="435" y="-164" font-family="Helvetica,sans-Serif" font-size="10.00" fill="grey"> attribs</text>
</g>
<!-- Node16 -->
<g id="node16" class="node">
<title>Node16</title>
<g id="a_node16"><a xlink:title=" ">
<polygon fill="white" stroke="#666666" points="142,-178.5 0,-178.5 0,-159.5 142,-159.5 142,-178.5"/>
<text text-anchor="middle" x="71" y="-166.5" font-family="Helvetica,sans-Serif" font-size="10.00">std::vector&lt; HtmlAttrib &gt;</text>
</a>
</g>
</g>
<!-- Node16&#45;&gt;Node15 -->
<g id="edge17" class="edge">
<title>Node16&#45;&gt;Node15</title>
<path fill="none" stroke="#63b8ff" d="M152.25,-169C175.51,-169 199.96,-169 219.82,-169"/>
<polygon fill="#63b8ff" stroke="#63b8ff" points="152.02,-165.5 142.02,-169 152.02,-172.5 152.02,-165.5"/>
</g>
<!-- Node17 -->
<g id="node17" class="node">
<title>Node17</title>
<g id="a_node17"><a xlink:href="../../d1/d7f/class_doc_tokenizer.html" target="_top" xlink:title=" ">
<polygon fill="white" stroke="#666666" points="854.5,-162.5 773.5,-162.5 773.5,-143.5 854.5,-143.5 854.5,-162.5"/>
<text text-anchor="middle" x="814" y="-150.5" font-family="Helvetica,sans-Serif" font-size="10.00">DocTokenizer</text>
</a>
</g>
</g>
<!-- Node17&#45;&gt;Node4 -->
<g id="edge18" class="edge">
<title>Node17&#45;&gt;Node4</title>
<path fill="none" stroke="#9a32cd" stroke-dasharray="5,2" d="M865.18,-152.2C899.99,-152.05 947.38,-152.65 989,-156 1013.37,-157.96 1040.72,-161.98 1061.26,-165.36"/>
<polygon fill="#9a32cd" stroke="#9a32cd" points="864.78,-148.7 854.81,-152.26 864.83,-155.7 864.78,-148.7"/>
<text text-anchor="middle" x="936.5" y="-159" font-family="Helvetica,sans-Serif" font-size="10.00" fill="grey"> tokenizer</text>
</g>
<!-- Node18 -->
<g id="node18" class="node">
<title>Node18</title>
<g id="a_node18"><a xlink:href="../../d2/dc1/class_s_i_data_collection.html" target="_top" xlink:title=" ">
<polygon fill="white" stroke="#666666" points="863,-125.5 765,-125.5 765,-106.5 863,-106.5 863,-125.5"/>
<text text-anchor="middle" x="814" y="-113.5" font-family="Helvetica,sans-Serif" font-size="10.00">SIDataCollection</text>
</a>
</g>
</g>
<!-- Node18&#45;&gt;Node4 -->
<g id="edge19" class="edge">
<title>Node18&#45;&gt;Node4</title>
<path fill="none" stroke="#9a32cd" stroke-dasharray="5,2" d="M873.27,-120.7C907.28,-124.11 950.87,-129.61 989,-138 1016.2,-143.98 1046.45,-153.98 1067.28,-161.4"/>
<polygon fill="#9a32cd" stroke="#9a32cd" points="873.32,-117.19 863.03,-119.71 872.65,-124.16 873.32,-117.19"/>
<text text-anchor="middle" x="936.5" y="-141" font-family="Helvetica,sans-Serif" font-size="10.00" fill="grey"> searchData</text>
</g>
<!-- Node19 -->
<g id="node19" class="node">
<title>Node19</title>
<g id="a_node19"><a xlink:href="../../d9/dd3/struct_doc_node_list.html" target="_top" xlink:title=" ">
<polygon fill="white" stroke="#666666" points="1344,-231.5 1266,-231.5 1266,-212.5 1344,-212.5 1344,-231.5"/>
<text text-anchor="middle" x="1305" y="-219.5" font-family="Helvetica,sans-Serif" font-size="10.00">DocNodeList</text>
</a>
</g>
</g>
<!-- Node19&#45;&gt;Node2 -->
<g id="edge20" class="edge">
<title>Node19&#45;&gt;Node2</title>
<path fill="none" stroke="#9a32cd" stroke-dasharray="5,2" d="M1351.11,-209.73C1384.04,-200.77 1428.06,-188.8 1458.39,-180.55"/>
<polygon fill="#9a32cd" stroke="#9a32cd" points="1350,-206.41 1341.27,-212.41 1351.84,-213.16 1350,-206.41"/>
<text text-anchor="middle" x="1391" y="-209" font-family="Helvetica,sans-Serif" font-size="10.00" fill="grey"> m_children</text>
</g>
<!-- Node20 -->
<g id="node20" class="node">
<title>Node20</title>
<g id="a_node20"><a xlink:href="../../d0/d08/class_grow_vector.html" target="_top" xlink:title=" ">
<polygon fill="white" stroke="#666666" points="1181,-266.5 1007,-266.5 1007,-247.5 1181,-247.5 1181,-266.5"/>
<text text-anchor="middle" x="1094" y="-254.5" font-family="Helvetica,sans-Serif" font-size="10.00">GrowVector&lt; DocNodeVariant &gt;</text>
</a>
</g>
</g>
<!-- Node20&#45;&gt;Node19 -->
<g id="edge21" class="edge">
<title>Node20&#45;&gt;Node19</title>
<path fill="none" stroke="#63b8ff" d="M1161.83,-245.81C1196.25,-240.04 1236.97,-233.22 1265.99,-228.37"/>
<polygon fill="#63b8ff" stroke="#63b8ff" points="1161.12,-242.38 1151.83,-247.48 1162.27,-249.28 1161.12,-242.38"/>
</g>
<!-- Node21 -->
<g id="node21" class="node">
<title>Node21</title>
<g id="a_node21"><a xlink:href="../../d0/d08/class_grow_vector.html" target="_top" xlink:title="std::vector like container optimised for pushing elements to the back.">
<polygon fill="white" stroke="#666666" points="864.5,-273.5 763.5,-273.5 763.5,-254.5 864.5,-254.5 864.5,-273.5"/>
<text text-anchor="middle" x="814" y="-261.5" font-family="Helvetica,sans-Serif" font-size="10.00">GrowVector&lt; T &gt;</text>
</a>
</g>
</g>
<!-- Node21&#45;&gt;Node20 -->
<g id="edge22" class="edge">
<title>Node21&#45;&gt;Node20</title>
<path fill="none" stroke="orange" stroke-dasharray="5,2" d="M874.73,-262.5C913.27,-261.53 964.03,-260.25 1006.9,-259.17"/>
<polygon fill="orange" stroke="orange" points="874.61,-259 864.7,-262.75 874.79,-266 874.61,-259"/>
<text text-anchor="middle" x="936.5" y="-265" font-family="Helvetica,sans-Serif" font-size="10.00" fill="grey"> &lt; DocNodeVariant &gt;</text>
</g>
</g>
</svg>
