<?xml version="1.0" encoding="UTF-8" standalone="no"?>
<!DOCTYPE svg PUBLIC "-//W3C//DTD SVG 1.1//EN"
 "http://www.w3.org/Graphics/SVG/1.1/DTD/svg11.dtd">
<!-- Generated by graphviz version 2.43.0 (0)
 -->
<!-- Title: /home/runner/work/doxygen/doxygen/src/htmlentity.h Pages: 1 -->
<svg width="3207pt" height="236pt"
 viewBox="0.00 0.00 3206.50 236.00" xmlns="http://www.w3.org/2000/svg" xmlns:xlink="http://www.w3.org/1999/xlink">
<g id="graph0" class="graph" transform="scale(1 1) rotate(0) translate(4 232)">
<title>/home/runner/work/doxygen/doxygen/src/htmlentity.h</title>
<!-- Node1 -->
<g id="node1" class="node">
<title>Node1</title>
<g id="a_node1"><a xlink:title=" ">
<polygon fill="#999999" stroke="#666666" points="1764.5,-228 1610.5,-228 1610.5,-198 1764.5,-198 1764.5,-228"/>
<text text-anchor="start" x="1618.5" y="-216" font-family="Helvetica,sans-Serif" font-size="10.00">/home/runner/work/doxygen</text>
<text text-anchor="middle" x="1687.5" y="-205" font-family="Helvetica,sans-Serif" font-size="10.00">/doxygen/src/htmlentity.h</text>
</a>
</g>
</g>
<!-- Node2 -->
<g id="node2" class="node">
<title>Node2</title>
<g id="a_node2"><a xlink:href="../../dc/d05/docbookvisitor_8cpp.html" target="_top" xlink:title=" ">
<polygon fill="white" stroke="#666666" points="173,-30 0,-30 0,0 173,0 173,-30"/>
<text text-anchor="start" x="8" y="-18" font-family="Helvetica,sans-Serif" font-size="10.00">/home/runner/work/doxygen</text>
<text text-anchor="middle" x="86.5" y="-7" font-family="Helvetica,sans-Serif" font-size="10.00">/doxygen/src/docbookvisitor.cpp</text>
</a>
</g>
</g>
<!-- Node1&#45;&gt;Node2 -->
<g id="edge1" class="edge">
<title>Node1&#45;&gt;Node2</title>
<path fill="none" stroke="#63b8ff" d="M1600.37,-212.38C1407.83,-212.3 931.84,-207.11 536.5,-162 377.05,-143.81 326.57,-164.62 181.5,-96 147.39,-79.86 115.52,-48.41 98.77,-30.11"/>
<polygon fill="#63b8ff" stroke="#63b8ff" points="1600.43,-215.88 1610.43,-212.38 1600.43,-208.88 1600.43,-215.88"/>
</g>
<!-- Node3 -->
<g id="node3" class="node">
<title>Node3</title>
<g id="a_node3"><a xlink:href="../../d0/d2b/docnode_8cpp.html" target="_top" xlink:title=" ">
<polygon fill="white" stroke="#666666" points="524.5,-30 370.5,-30 370.5,0 524.5,0 524.5,-30"/>
<text text-anchor="start" x="378.5" y="-18" font-family="Helvetica,sans-Serif" font-size="10.00">/home/runner/work/doxygen</text>
<text text-anchor="middle" x="447.5" y="-7" font-family="Helvetica,sans-Serif" font-size="10.00">/doxygen/src/docnode.cpp</text>
</a>
</g>
</g>
<!-- Node1&#45;&gt;Node3 -->
<g id="edge2" class="edge">
<title>Node1&#45;&gt;Node3</title>
<path fill="none" stroke="#63b8ff" d="M1600.4,-210.8C1389.43,-207.38 855.56,-195.59 680.5,-162 591.47,-144.92 555.75,-155.66 487.5,-96 467.27,-78.32 456.12,-48 451.01,-30.2"/>
<polygon fill="#63b8ff" stroke="#63b8ff" points="1600.45,-214.3 1610.5,-210.96 1600.56,-207.3 1600.45,-214.3"/>
</g>
<!-- Node4 -->
<g id="node4" class="node">
<title>Node4</title>
<g id="a_node4"><a xlink:href="../../de/d2b/docnode_8h.html" target="_top" xlink:title=" ">
<polygon fill="white" stroke="#666666" points="1550.5,-162 1396.5,-162 1396.5,-132 1550.5,-132 1550.5,-162"/>
<text text-anchor="start" x="1404.5" y="-150" font-family="Helvetica,sans-Serif" font-size="10.00">/home/runner/work/doxygen</text>
<text text-anchor="middle" x="1473.5" y="-139" font-family="Helvetica,sans-Serif" font-size="10.00">/doxygen/src/docnode.h</text>
</a>
</g>
</g>
<!-- Node1&#45;&gt;Node4 -->
<g id="edge3" class="edge">
<title>Node1&#45;&gt;Node4</title>
<path fill="none" stroke="#63b8ff" d="M1630.62,-194.99C1596.19,-184.69 1552.8,-171.72 1520.35,-162.01"/>
<polygon fill="#63b8ff" stroke="#63b8ff" points="1629.95,-198.44 1640.54,-197.95 1631.96,-191.74 1629.95,-198.44"/>
</g>
<!-- Node13 -->
<g id="node13" class="node">
<title>Node13</title>
<g id="a_node13"><a xlink:href="../../da/db0/htmldocvisitor_8cpp.html" target="_top" xlink:title=" ">
<polygon fill="white" stroke="#666666" points="1954.5,-30 1782.5,-30 1782.5,0 1954.5,0 1954.5,-30"/>
<text text-anchor="start" x="1790.5" y="-18" font-family="Helvetica,sans-Serif" font-size="10.00">/home/runner/work/doxygen</text>
<text text-anchor="middle" x="1868.5" y="-7" font-family="Helvetica,sans-Serif" font-size="10.00">/doxygen/src/htmldocvisitor.cpp</text>
</a>
</g>
</g>
<!-- Node1&#45;&gt;Node13 -->
<g id="edge38" class="edge">
<title>Node1&#45;&gt;Node13</title>
<path fill="none" stroke="#63b8ff" d="M1707.38,-190.47C1744.63,-150.14 1824,-64.19 1855.36,-30.23"/>
<polygon fill="#63b8ff" stroke="#63b8ff" points="1704.73,-188.18 1700.52,-197.9 1709.87,-192.93 1704.73,-188.18"/>
</g>
<!-- Node16 -->
<g id="node16" class="node">
<title>Node16</title>
<g id="a_node16"><a xlink:href="../../d1/d4e/latexdocvisitor_8cpp.html" target="_top" xlink:title=" ">
<polygon fill="white" stroke="#666666" points="888.5,-30 714.5,-30 714.5,0 888.5,0 888.5,-30"/>
<text text-anchor="start" x="722.5" y="-18" font-family="Helvetica,sans-Serif" font-size="10.00">/home/runner/work/doxygen</text>
<text text-anchor="middle" x="801.5" y="-7" font-family="Helvetica,sans-Serif" font-size="10.00">/doxygen/src/latexdocvisitor.cpp</text>
</a>
</g>
</g>
<!-- Node1&#45;&gt;Node16 -->
<g id="edge40" class="edge">
<title>Node1&#45;&gt;Node16</title>
<path fill="none" stroke="#63b8ff" d="M1600.15,-210.87C1454.76,-206.37 1156.04,-185.86 922.5,-96 881.37,-80.17 839.93,-48.6 817.82,-30.21"/>
<polygon fill="#63b8ff" stroke="#63b8ff" points="1600.25,-214.38 1610.35,-211.17 1600.45,-207.38 1600.25,-214.38"/>
</g>
<!-- Node18 -->
<g id="node18" class="node">
<title>Node18</title>
<g id="a_node18"><a xlink:href="../../df/d2d/util_8cpp.html" target="_top" xlink:title=" ">
<polygon fill="white" stroke="#666666" points="1232.5,-30 1078.5,-30 1078.5,0 1232.5,0 1232.5,-30"/>
<text text-anchor="start" x="1086.5" y="-18" font-family="Helvetica,sans-Serif" font-size="10.00">/home/runner/work/doxygen</text>
<text text-anchor="middle" x="1155.5" y="-7" font-family="Helvetica,sans-Serif" font-size="10.00">/doxygen/src/util.cpp</text>
</a>
</g>
</g>
<!-- Node1&#45;&gt;Node18 -->
<g id="edge47" class="edge">
<title>Node1&#45;&gt;Node18</title>
<path fill="none" stroke="#63b8ff" d="M1600.17,-205.47C1524.32,-198.37 1421.46,-184.86 1387.5,-162 1345.95,-134.04 1368.35,-96.33 1328.5,-66 1311.52,-53.08 1263.46,-39.72 1222.3,-30.07"/>
<polygon fill="#63b8ff" stroke="#63b8ff" points="1599.93,-208.96 1610.21,-206.39 1600.57,-201.99 1599.93,-208.96"/>
</g>
<!-- Node20 -->
<g id="node20" class="node">
<title>Node20</title>
<g id="a_node20"><a xlink:href="../../d8/dde/mandocvisitor_8cpp.html" target="_top" xlink:title=" ">
<polygon fill="white" stroke="#666666" points="2316,-30 2145,-30 2145,0 2316,0 2316,-30"/>
<text text-anchor="start" x="2153" y="-18" font-family="Helvetica,sans-Serif" font-size="10.00">/home/runner/work/doxygen</text>
<text text-anchor="middle" x="2230.5" y="-7" font-family="Helvetica,sans-Serif" font-size="10.00">/doxygen/src/mandocvisitor.cpp</text>
</a>
</g>
</g>
<!-- Node1&#45;&gt;Node20 -->
<g id="edge41" class="edge">
<title>Node1&#45;&gt;Node20</title>
<path fill="none" stroke="#63b8ff" d="M1717.96,-192.21C1731.68,-183.16 1748.02,-172.2 1762.5,-162 1820.92,-120.83 1825.48,-93.38 1891.5,-66 1891.5,-66 2044.53,-43.43 2144.96,-28.62"/>
<polygon fill="#63b8ff" stroke="#63b8ff" points="1715.8,-189.44 1709.36,-197.85 1719.64,-195.29 1715.8,-189.44"/>
</g>
<!-- Node23 -->
<g id="node23" class="node">
<title>Node23</title>
<g id="a_node23"><a xlink:href="../../de/dd0/perlmodgen_8cpp.html" target="_top" xlink:title=" ">
<polygon fill="white" stroke="#666666" points="2412,-96 2251,-96 2251,-66 2412,-66 2412,-96"/>
<text text-anchor="start" x="2259" y="-84" font-family="Helvetica,sans-Serif" font-size="10.00">/home/runner/work/doxygen</text>
<text text-anchor="middle" x="2331.5" y="-73" font-family="Helvetica,sans-Serif" font-size="10.00">/doxygen/src/perlmodgen.cpp</text>
</a>
</g>
</g>
<!-- Node1&#45;&gt;Node23 -->
<g id="edge42" class="edge">
<title>Node1&#45;&gt;Node23</title>
<path fill="none" stroke="#63b8ff" d="M1767.09,-195.93C1894.25,-170.26 2141.14,-120.43 2261.77,-96.08"/>
<polygon fill="#63b8ff" stroke="#63b8ff" points="1766.14,-192.55 1757.03,-197.96 1767.53,-199.42 1766.14,-192.55"/>
</g>
<!-- Node25 -->
<g id="node25" class="node">
<title>Node25</title>
<g id="a_node25"><a xlink:href="../../de/d9a/rtfdocvisitor_8cpp.html" target="_top" xlink:title=" ">
<polygon fill="white" stroke="#666666" points="2668,-30 2507,-30 2507,0 2668,0 2668,-30"/>
<text text-anchor="start" x="2515" y="-18" font-family="Helvetica,sans-Serif" font-size="10.00">/home/runner/work/doxygen</text>
<text text-anchor="middle" x="2587.5" y="-7" font-family="Helvetica,sans-Serif" font-size="10.00">/doxygen/src/rtfdocvisitor.cpp</text>
</a>
</g>
</g>
<!-- Node1&#45;&gt;Node25 -->
<g id="edge45" class="edge">
<title>Node1&#45;&gt;Node25</title>
<path fill="none" stroke="#63b8ff" d="M1774.86,-206.59C1914.23,-196.11 2194.25,-167.41 2420.5,-96 2474,-79.11 2532.16,-48.08 2563.77,-30.03"/>
<polygon fill="#63b8ff" stroke="#63b8ff" points="1774.38,-203.12 1764.66,-207.34 1774.89,-210.1 1774.38,-203.12"/>
</g>
<!-- Node28 -->
<g id="node28" class="node">
<title>Node28</title>
<g id="a_node28"><a xlink:href="../../d3/da6/textdocvisitor_8cpp.html" target="_top" xlink:title=" ">
<polygon fill="white" stroke="#666666" points="1592,-30 1423,-30 1423,0 1592,0 1592,-30"/>
<text text-anchor="start" x="1431" y="-18" font-family="Helvetica,sans-Serif" font-size="10.00">/home/runner/work/doxygen</text>
<text text-anchor="middle" x="1507.5" y="-7" font-family="Helvetica,sans-Serif" font-size="10.00">/doxygen/src/textdocvisitor.cpp</text>
</a>
</g>
</g>
<!-- Node1&#45;&gt;Node28 -->
<g id="edge46" class="edge">
<title>Node1&#45;&gt;Node28</title>
<path fill="none" stroke="#63b8ff" d="M1669.3,-190.09C1644.97,-161.07 1600.18,-108.6 1559.5,-66 1547.56,-53.5 1533.39,-39.95 1522.85,-30.11"/>
<polygon fill="#63b8ff" stroke="#63b8ff" points="1666.78,-192.54 1675.88,-197.96 1672.15,-188.05 1666.78,-192.54"/>
</g>
<!-- Node30 -->
<g id="node30" class="node">
<title>Node30</title>
<g id="a_node30"><a xlink:href="../../dd/db6/xmldocvisitor_8cpp.html" target="_top" xlink:title=" ">
<polygon fill="white" stroke="#666666" points="3026.5,-30 2858.5,-30 2858.5,0 3026.5,0 3026.5,-30"/>
<text text-anchor="start" x="2866.5" y="-18" font-family="Helvetica,sans-Serif" font-size="10.00">/home/runner/work/doxygen</text>
<text text-anchor="middle" x="2942.5" y="-7" font-family="Helvetica,sans-Serif" font-size="10.00">/doxygen/src/xmldocvisitor.cpp</text>
</a>
</g>
</g>
<!-- Node1&#45;&gt;Node30 -->
<g id="edge48" class="edge">
<title>Node1&#45;&gt;Node30</title>
<path fill="none" stroke="#63b8ff" d="M1774.86,-207.68C1948.1,-197.8 2346.64,-168.57 2673.5,-96 2755.79,-77.73 2849.7,-47.62 2901.96,-30.01"/>
<polygon fill="#63b8ff" stroke="#63b8ff" points="1774.57,-204.19 1764.78,-208.24 1774.96,-211.18 1774.57,-204.19"/>
</g>
<!-- Node31 -->
<g id="node31" class="node">
<title>Node31</title>
<g id="a_node31"><a xlink:href="../../d0/dc3/xmlgen_8cpp.html" target="_top" xlink:title=" ">
<polygon fill="white" stroke="#666666" points="3198.5,-30 3044.5,-30 3044.5,0 3198.5,0 3198.5,-30"/>
<text text-anchor="start" x="3052.5" y="-18" font-family="Helvetica,sans-Serif" font-size="10.00">/home/runner/work/doxygen</text>
<text text-anchor="middle" x="3121.5" y="-7" font-family="Helvetica,sans-Serif" font-size="10.00">/doxygen/src/xmlgen.cpp</text>
</a>
</g>
</g>
<!-- Node1&#45;&gt;Node31 -->
<g id="edge49" class="edge">
<title>Node1&#45;&gt;Node31</title>
<path fill="none" stroke="#63b8ff" d="M1774.86,-209.78C2029.48,-202.43 2767.13,-174.73 2993.5,-96 3037.06,-80.85 3081.23,-48.72 3104.57,-30.12"/>
<polygon fill="#63b8ff" stroke="#63b8ff" points="1774.45,-206.29 1764.56,-210.07 1774.65,-213.28 1774.45,-206.29"/>
</g>
<!-- Node32 -->
<g id="node32" class="node">
<title>Node32</title>
<g id="a_node32"><a xlink:href="../../d2/db2/htmlentity_8cpp.html" target="_top" xlink:title=" ">
<polygon fill="white" stroke="#666666" points="3195.5,-162 3041.5,-162 3041.5,-132 3195.5,-132 3195.5,-162"/>
<text text-anchor="start" x="3049.5" y="-150" font-family="Helvetica,sans-Serif" font-size="10.00">/home/runner/work/doxygen</text>
<text text-anchor="middle" x="3118.5" y="-139" font-family="Helvetica,sans-Serif" font-size="10.00">/doxygen/src/htmlentity.cpp</text>
</a>
</g>
</g>
<!-- Node1&#45;&gt;Node32 -->
<g id="edge39" class="edge">
<title>Node1&#45;&gt;Node32</title>
<path fill="none" stroke="#63b8ff" d="M1774.98,-212.22C1989.15,-212.01 2556.64,-206.85 3027.5,-162 3031.96,-161.58 3036.52,-161.08 3041.13,-160.52"/>
<polygon fill="#63b8ff" stroke="#63b8ff" points="1774.74,-208.72 1764.75,-212.23 1774.75,-215.72 1774.74,-208.72"/>
</g>
<!-- Node33 -->
<g id="node33" class="node">
<title>Node33</title>
<g id="a_node33"><a xlink:href="../../db/d73/printdocvisitor_8h.html" target="_top" xlink:title=" ">
<polygon fill="white" stroke="#666666" points="851,-162 690,-162 690,-132 851,-132 851,-162"/>
<text text-anchor="start" x="698" y="-150" font-family="Helvetica,sans-Serif" font-size="10.00">/home/runner/work/doxygen</text>
<text text-anchor="middle" x="770.5" y="-139" font-family="Helvetica,sans-Serif" font-size="10.00">/doxygen/src/printdocvisitor.h</text>
</a>
</g>
</g>
<!-- Node1&#45;&gt;Node33 -->
<g id="edge43" class="edge">
<title>Node1&#45;&gt;Node33</title>
<path fill="none" stroke="#63b8ff" d="M1600.2,-208.99C1450.27,-203.31 1134.32,-189.06 868.5,-162 862.86,-161.43 857.04,-160.77 851.19,-160.05"/>
<polygon fill="#63b8ff" stroke="#63b8ff" points="1600.14,-212.49 1610.27,-209.37 1600.4,-205.5 1600.14,-212.49"/>
</g>
<!-- Node4&#45;&gt;Node3 -->
<g id="edge7" class="edge">
<title>Node4&#45;&gt;Node3</title>
<path fill="none" stroke="#63b8ff" d="M1386.01,-144.74C1167.64,-141.11 610.65,-128.73 533.5,-96 500.27,-81.9 471.88,-49.06 457.52,-30.13"/>
<polygon fill="#63b8ff" stroke="#63b8ff" points="1386.09,-148.24 1396.14,-144.9 1386.2,-141.24 1386.09,-148.24"/>
</g>
<!-- Node5 -->
<g id="node5" class="node">
<title>Node5</title>
<g id="a_node5"><a xlink:href="../../de/dcd/docbookvisitor_8h.html" target="_top" xlink:title=" ">
<polygon fill="white" stroke="#666666" points="352.5,-96 190.5,-96 190.5,-66 352.5,-66 352.5,-96"/>
<text text-anchor="start" x="198.5" y="-84" font-family="Helvetica,sans-Serif" font-size="10.00">/home/runner/work/doxygen</text>
<text text-anchor="middle" x="271.5" y="-73" font-family="Helvetica,sans-Serif" font-size="10.00">/doxygen/src/docbookvisitor.h</text>
</a>
</g>
</g>
<!-- Node4&#45;&gt;Node5 -->
<g id="edge4" class="edge">
<title>Node4&#45;&gt;Node5</title>
<path fill="none" stroke="#63b8ff" d="M1386.08,-141.89C1214.78,-133.77 822.9,-114.79 493.5,-96 446.85,-93.34 394.7,-90.07 352.68,-87.35"/>
<polygon fill="#63b8ff" stroke="#63b8ff" points="1386.15,-145.4 1396.3,-142.38 1386.48,-138.41 1386.15,-145.4"/>
</g>
<!-- Node7 -->
<g id="node7" class="node">
<title>Node7</title>
<g id="a_node7"><a xlink:href="../../df/dc9/docparser__p_8h.html" target="_top" xlink:title="Private header shared between docparser.cpp and docnode.cpp.">
<polygon fill="white" stroke="#666666" points="696.5,-96 542.5,-96 542.5,-66 696.5,-66 696.5,-96"/>
<text text-anchor="start" x="550.5" y="-84" font-family="Helvetica,sans-Serif" font-size="10.00">/home/runner/work/doxygen</text>
<text text-anchor="middle" x="619.5" y="-73" font-family="Helvetica,sans-Serif" font-size="10.00">/doxygen/src/docparser_p.h</text>
</a>
</g>
</g>
<!-- Node4&#45;&gt;Node7 -->
<g id="edge8" class="edge">
<title>Node4&#45;&gt;Node7</title>
<path fill="none" stroke="#63b8ff" d="M1386.2,-139.46C1218.89,-126.92 855.6,-99.69 696.62,-87.78"/>
<polygon fill="#63b8ff" stroke="#63b8ff" points="1385.97,-142.95 1396.21,-140.21 1386.5,-135.97 1385.97,-142.95"/>
</g>
<!-- Node9 -->
<g id="node9" class="node">
<title>Node9</title>
<g id="a_node9"><a xlink:href="../../d9/d92/dotfilepatcher_8cpp.html" target="_top" xlink:title=" ">
<polygon fill="white" stroke="#666666" points="1101,-96 932,-96 932,-66 1101,-66 1101,-96"/>
<text text-anchor="start" x="940" y="-84" font-family="Helvetica,sans-Serif" font-size="10.00">/home/runner/work/doxygen</text>
<text text-anchor="middle" x="1016.5" y="-73" font-family="Helvetica,sans-Serif" font-size="10.00">/doxygen/src/dotfilepatcher.cpp</text>
</a>
</g>
</g>
<!-- Node4&#45;&gt;Node9 -->
<g id="edge11" class="edge">
<title>Node4&#45;&gt;Node9</title>
<path fill="none" stroke="#63b8ff" d="M1386.42,-133.96C1313.72,-123.88 1207.34,-109.1 1114.5,-96 1110.16,-95.39 1105.71,-94.76 1101.22,-94.12"/>
<polygon fill="#63b8ff" stroke="#63b8ff" points="1386.07,-137.44 1396.46,-135.35 1387.03,-130.51 1386.07,-137.44"/>
</g>
<!-- Node10 -->
<g id="node10" class="node">
<title>Node10</title>
<g id="a_node10"><a xlink:href="../../d0/d71/htmldocvisitor_8h.html" target="_top" xlink:title=" ">
<polygon fill="white" stroke="#666666" points="1768,-96 1607,-96 1607,-66 1768,-66 1768,-96"/>
<text text-anchor="start" x="1615" y="-84" font-family="Helvetica,sans-Serif" font-size="10.00">/home/runner/work/doxygen</text>
<text text-anchor="middle" x="1687.5" y="-73" font-family="Helvetica,sans-Serif" font-size="10.00">/doxygen/src/htmldocvisitor.h</text>
</a>
</g>
</g>
<!-- Node4&#45;&gt;Node10 -->
<g id="edge12" class="edge">
<title>Node4&#45;&gt;Node10</title>
<path fill="none" stroke="#63b8ff" d="M1530.38,-128.99C1564.81,-118.69 1608.2,-105.72 1640.65,-96.01"/>
<polygon fill="#63b8ff" stroke="#63b8ff" points="1529.04,-125.74 1520.46,-131.95 1531.05,-132.44 1529.04,-125.74"/>
</g>
<!-- Node14 -->
<g id="node14" class="node">
<title>Node14</title>
<g id="a_node14"><a xlink:href="../../d8/d6e/htmlgen_8cpp.html" target="_top" xlink:title=" ">
<polygon fill="white" stroke="#666666" points="2126.5,-30 1972.5,-30 1972.5,0 2126.5,0 2126.5,-30"/>
<text text-anchor="start" x="1980.5" y="-18" font-family="Helvetica,sans-Serif" font-size="10.00">/home/runner/work/doxygen</text>
<text text-anchor="middle" x="2049.5" y="-7" font-family="Helvetica,sans-Serif" font-size="10.00">/doxygen/src/htmlgen.cpp</text>
</a>
</g>
</g>
<!-- Node4&#45;&gt;Node14 -->
<g id="edge17" class="edge">
<title>Node4&#45;&gt;Node14</title>
<path fill="none" stroke="#63b8ff" d="M1560.59,-136.03C1621.64,-127.97 1704.82,-114.85 1776.5,-96 1814.03,-86.13 1821.47,-77.59 1858.5,-66 1902.01,-52.38 1951.86,-39.42 1989.72,-30.1"/>
<polygon fill="#63b8ff" stroke="#63b8ff" points="1560.07,-132.56 1550.61,-137.33 1560.97,-139.51 1560.07,-132.56"/>
</g>
<!-- Node15 -->
<g id="node15" class="node">
<title>Node15</title>
<g id="a_node15"><a xlink:href="../../d8/d99/latexdocvisitor_8h.html" target="_top" xlink:title=" ">
<polygon fill="white" stroke="#666666" points="1320,-96 1157,-96 1157,-66 1320,-66 1320,-96"/>
<text text-anchor="start" x="1165" y="-84" font-family="Helvetica,sans-Serif" font-size="10.00">/home/runner/work/doxygen</text>
<text text-anchor="middle" x="1238.5" y="-73" font-family="Helvetica,sans-Serif" font-size="10.00">/doxygen/src/latexdocvisitor.h</text>
</a>
</g>
</g>
<!-- Node4&#45;&gt;Node15 -->
<g id="edge18" class="edge">
<title>Node4&#45;&gt;Node15</title>
<path fill="none" stroke="#63b8ff" d="M1412.01,-129.25C1374.04,-118.91 1325.89,-105.8 1289.95,-96.01"/>
<polygon fill="#63b8ff" stroke="#63b8ff" points="1411.36,-132.7 1421.93,-131.95 1413.2,-125.95 1411.36,-132.7"/>
</g>
<!-- Node17 -->
<g id="node17" class="node">
<title>Node17</title>
<g id="a_node17"><a xlink:href="../../d4/d42/latexgen_8cpp.html" target="_top" xlink:title=" ">
<polygon fill="white" stroke="#666666" points="1060.5,-30 906.5,-30 906.5,0 1060.5,0 1060.5,-30"/>
<text text-anchor="start" x="914.5" y="-18" font-family="Helvetica,sans-Serif" font-size="10.00">/home/runner/work/doxygen</text>
<text text-anchor="middle" x="983.5" y="-7" font-family="Helvetica,sans-Serif" font-size="10.00">/doxygen/src/latexgen.cpp</text>
</a>
</g>
</g>
<!-- Node4&#45;&gt;Node17 -->
<g id="edge23" class="edge">
<title>Node4&#45;&gt;Node17</title>
<path fill="none" stroke="#63b8ff" d="M1386.13,-144.65C1318.49,-140.8 1223.79,-129.18 1147.5,-96 1127.77,-87.42 1128.14,-76.75 1109.5,-66 1083.71,-51.13 1052.64,-38.75 1027.81,-30.02"/>
<polygon fill="#63b8ff" stroke="#63b8ff" points="1386.16,-148.16 1396.33,-145.18 1386.52,-141.17 1386.16,-148.16"/>
</g>
<!-- Node19 -->
<g id="node19" class="node">
<title>Node19</title>
<g id="a_node19"><a xlink:href="../../d6/d6e/mandocvisitor_8h.html" target="_top" xlink:title=" ">
<polygon fill="white" stroke="#666666" points="2060.5,-96 1900.5,-96 1900.5,-66 2060.5,-66 2060.5,-96"/>
<text text-anchor="start" x="1908.5" y="-84" font-family="Helvetica,sans-Serif" font-size="10.00">/home/runner/work/doxygen</text>
<text text-anchor="middle" x="1980.5" y="-73" font-family="Helvetica,sans-Serif" font-size="10.00">/doxygen/src/mandocvisitor.h</text>
</a>
</g>
</g>
<!-- Node4&#45;&gt;Node19 -->
<g id="edge24" class="edge">
<title>Node4&#45;&gt;Node19</title>
<path fill="none" stroke="#63b8ff" d="M1560.7,-134.99C1656.09,-122.95 1807.71,-103.81 1900.26,-92.13"/>
<polygon fill="#63b8ff" stroke="#63b8ff" points="1559.99,-131.55 1550.5,-136.28 1560.86,-138.5 1559.99,-131.55"/>
</g>
<!-- Node22 -->
<g id="node22" class="node">
<title>Node22</title>
<g id="a_node22"><a xlink:href="../../db/d33/msc_8cpp.html" target="_top" xlink:title=" ">
<polygon fill="white" stroke="#666666" points="2232.5,-96 2078.5,-96 2078.5,-66 2232.5,-66 2232.5,-96"/>
<text text-anchor="start" x="2086.5" y="-84" font-family="Helvetica,sans-Serif" font-size="10.00">/home/runner/work/doxygen</text>
<text text-anchor="middle" x="2155.5" y="-73" font-family="Helvetica,sans-Serif" font-size="10.00">/doxygen/src/msc.cpp</text>
</a>
</g>
</g>
<!-- Node4&#45;&gt;Node22 -->
<g id="edge27" class="edge">
<title>Node4&#45;&gt;Node22</title>
<path fill="none" stroke="#63b8ff" d="M1561.12,-140.79C1677.52,-133.37 1889.43,-118.18 2069.5,-96 2072.35,-95.65 2075.26,-95.27 2078.19,-94.88"/>
<polygon fill="#63b8ff" stroke="#63b8ff" points="1560.61,-137.31 1550.85,-141.44 1561.05,-144.3 1560.61,-137.31"/>
</g>
<!-- Node4&#45;&gt;Node23 -->
<g id="edge28" class="edge">
<title>Node4&#45;&gt;Node23</title>
<path fill="none" stroke="#63b8ff" d="M1560.56,-142.87C1703.18,-137.16 1995.39,-123.1 2241.5,-96 2244.49,-95.67 2247.53,-95.31 2250.59,-94.93"/>
<polygon fill="#63b8ff" stroke="#63b8ff" points="1560.4,-139.37 1550.55,-143.26 1560.68,-146.36 1560.4,-139.37"/>
</g>
<!-- Node24 -->
<g id="node24" class="node">
<title>Node24</title>
<g id="a_node24"><a xlink:href="../../d1/da7/rtfdocvisitor_8h.html" target="_top" xlink:title=" ">
<polygon fill="white" stroke="#666666" points="2664.5,-96 2510.5,-96 2510.5,-66 2664.5,-66 2664.5,-96"/>
<text text-anchor="start" x="2518.5" y="-84" font-family="Helvetica,sans-Serif" font-size="10.00">/home/runner/work/doxygen</text>
<text text-anchor="middle" x="2587.5" y="-73" font-family="Helvetica,sans-Serif" font-size="10.00">/doxygen/src/rtfdocvisitor.h</text>
</a>
</g>
</g>
<!-- Node4&#45;&gt;Node24 -->
<g id="edge29" class="edge">
<title>Node4&#45;&gt;Node24</title>
<path fill="none" stroke="#63b8ff" d="M1560.79,-142.29C1727.81,-135 2104.15,-117.61 2420.5,-96 2449.82,-94 2482,-91.4 2510.21,-88.98"/>
<polygon fill="#63b8ff" stroke="#63b8ff" points="1560.41,-138.81 1550.58,-142.74 1560.72,-145.8 1560.41,-138.81"/>
</g>
<!-- Node27 -->
<g id="node27" class="node">
<title>Node27</title>
<g id="a_node27"><a xlink:href="../../dd/d66/textdocvisitor_8h.html" target="_top" xlink:title=" ">
<polygon fill="white" stroke="#666666" points="1550.5,-96 1392.5,-96 1392.5,-66 1550.5,-66 1550.5,-96"/>
<text text-anchor="start" x="1400.5" y="-84" font-family="Helvetica,sans-Serif" font-size="10.00">/home/runner/work/doxygen</text>
<text text-anchor="middle" x="1471.5" y="-73" font-family="Helvetica,sans-Serif" font-size="10.00">/doxygen/src/textdocvisitor.h</text>
</a>
</g>
</g>
<!-- Node4&#45;&gt;Node27 -->
<g id="edge32" class="edge">
<title>Node4&#45;&gt;Node27</title>
<path fill="none" stroke="#63b8ff" d="M1472.74,-121.54C1472.47,-112.96 1472.18,-103.61 1471.94,-96.16"/>
<polygon fill="#63b8ff" stroke="#63b8ff" points="1469.25,-121.91 1473.06,-131.8 1476.24,-121.69 1469.25,-121.91"/>
</g>
<!-- Node29 -->
<g id="node29" class="node">
<title>Node29</title>
<g id="a_node29"><a xlink:href="../../df/d2b/xmldocvisitor_8h.html" target="_top" xlink:title=" ">
<polygon fill="white" stroke="#666666" points="2985,-96 2828,-96 2828,-66 2985,-66 2985,-96"/>
<text text-anchor="start" x="2836" y="-84" font-family="Helvetica,sans-Serif" font-size="10.00">/home/runner/work/doxygen</text>
<text text-anchor="middle" x="2906.5" y="-73" font-family="Helvetica,sans-Serif" font-size="10.00">/doxygen/src/xmldocvisitor.h</text>
</a>
</g>
</g>
<!-- Node4&#45;&gt;Node29 -->
<g id="edge35" class="edge">
<title>Node4&#45;&gt;Node29</title>
<path fill="none" stroke="#63b8ff" d="M1560.79,-142.91C1758.75,-135.79 2256.96,-117.19 2673.5,-96 2724.9,-93.39 2782.64,-89.92 2827.79,-87.09"/>
<polygon fill="#63b8ff" stroke="#63b8ff" points="1560.6,-139.42 1550.74,-143.27 1560.86,-146.41 1560.6,-139.42"/>
</g>
<!-- Node5&#45;&gt;Node2 -->
<g id="edge6" class="edge">
<title>Node5&#45;&gt;Node2</title>
<path fill="none" stroke="#63b8ff" d="M221.17,-62.59C191.6,-52.36 154.7,-39.59 127,-30.01"/>
<polygon fill="#63b8ff" stroke="#63b8ff" points="220.31,-65.99 230.9,-65.95 222.59,-59.38 220.31,-65.99"/>
</g>
<!-- Node6 -->
<g id="node6" class="node">
<title>Node6</title>
<g id="a_node6"><a xlink:href="../../d8/d29/docbookgen_8cpp.html" target="_top" xlink:title=" ">
<polygon fill="white" stroke="#666666" points="352,-30 191,-30 191,0 352,0 352,-30"/>
<text text-anchor="start" x="199" y="-18" font-family="Helvetica,sans-Serif" font-size="10.00">/home/runner/work/doxygen</text>
<text text-anchor="middle" x="271.5" y="-7" font-family="Helvetica,sans-Serif" font-size="10.00">/doxygen/src/docbookgen.cpp</text>
</a>
</g>
</g>
<!-- Node5&#45;&gt;Node6 -->
<g id="edge5" class="edge">
<title>Node5&#45;&gt;Node6</title>
<path fill="none" stroke="#63b8ff" d="M271.5,-55.54C271.5,-46.96 271.5,-37.61 271.5,-30.16"/>
<polygon fill="#63b8ff" stroke="#63b8ff" points="268,-55.8 271.5,-65.8 275,-55.8 268,-55.8"/>
</g>
<!-- Node7&#45;&gt;Node3 -->
<g id="edge9" class="edge">
<title>Node7&#45;&gt;Node3</title>
<path fill="none" stroke="#63b8ff" d="M572.35,-62.46C544.91,-52.25 510.79,-39.55 485.16,-30.01"/>
<polygon fill="#63b8ff" stroke="#63b8ff" points="571.16,-65.75 581.75,-65.95 573.6,-59.19 571.16,-65.75"/>
</g>
<!-- Node8 -->
<g id="node8" class="node">
<title>Node8</title>
<g id="a_node8"><a xlink:href="../../da/d17/docparser_8cpp.html" target="_top" xlink:title=" ">
<polygon fill="white" stroke="#666666" points="696.5,-30 542.5,-30 542.5,0 696.5,0 696.5,-30"/>
<text text-anchor="start" x="550.5" y="-18" font-family="Helvetica,sans-Serif" font-size="10.00">/home/runner/work/doxygen</text>
<text text-anchor="middle" x="619.5" y="-7" font-family="Helvetica,sans-Serif" font-size="10.00">/doxygen/src/docparser.cpp</text>
</a>
</g>
</g>
<!-- Node7&#45;&gt;Node8 -->
<g id="edge10" class="edge">
<title>Node7&#45;&gt;Node8</title>
<path fill="none" stroke="#63b8ff" d="M619.5,-55.54C619.5,-46.96 619.5,-37.61 619.5,-30.16"/>
<polygon fill="#63b8ff" stroke="#63b8ff" points="616,-55.8 619.5,-65.8 623,-55.8 616,-55.8"/>
</g>
<!-- Node11 -->
<g id="node11" class="node">
<title>Node11</title>
<g id="a_node11"><a xlink:href="../../db/d12/context_8cpp.html" target="_top" xlink:title=" ">
<polygon fill="white" stroke="#666666" points="1404.5,-30 1250.5,-30 1250.5,0 1404.5,0 1404.5,-30"/>
<text text-anchor="start" x="1258.5" y="-18" font-family="Helvetica,sans-Serif" font-size="10.00">/home/runner/work/doxygen</text>
<text text-anchor="middle" x="1327.5" y="-7" font-family="Helvetica,sans-Serif" font-size="10.00">/doxygen/src/context.cpp</text>
</a>
</g>
</g>
<!-- Node10&#45;&gt;Node11 -->
<g id="edge13" class="edge">
<title>Node10&#45;&gt;Node11</title>
<path fill="none" stroke="#63b8ff" d="M1598.37,-64.15C1538.94,-53.59 1461.59,-39.84 1404.77,-29.74"/>
<polygon fill="#63b8ff" stroke="#63b8ff" points="1598.04,-67.65 1608.5,-65.95 1599.26,-60.76 1598.04,-67.65"/>
</g>
<!-- Node12 -->
<g id="node12" class="node">
<title>Node12</title>
<g id="a_node12"><a xlink:href="../../db/d41/ftvhelp_8cpp.html" target="_top" xlink:title=" ">
<polygon fill="white" stroke="#666666" points="1764.5,-30 1610.5,-30 1610.5,0 1764.5,0 1764.5,-30"/>
<text text-anchor="start" x="1618.5" y="-18" font-family="Helvetica,sans-Serif" font-size="10.00">/home/runner/work/doxygen</text>
<text text-anchor="middle" x="1687.5" y="-7" font-family="Helvetica,sans-Serif" font-size="10.00">/doxygen/src/ftvhelp.cpp</text>
</a>
</g>
</g>
<!-- Node10&#45;&gt;Node12 -->
<g id="edge14" class="edge">
<title>Node10&#45;&gt;Node12</title>
<path fill="none" stroke="#63b8ff" d="M1687.5,-55.54C1687.5,-46.96 1687.5,-37.61 1687.5,-30.16"/>
<polygon fill="#63b8ff" stroke="#63b8ff" points="1684,-55.8 1687.5,-65.8 1691,-55.8 1684,-55.8"/>
</g>
<!-- Node10&#45;&gt;Node13 -->
<g id="edge15" class="edge">
<title>Node10&#45;&gt;Node13</title>
<path fill="none" stroke="#63b8ff" d="M1736.74,-62.59C1765.68,-52.36 1801.78,-39.59 1828.87,-30.01"/>
<polygon fill="#63b8ff" stroke="#63b8ff" points="1735.48,-59.32 1727.22,-65.95 1737.82,-65.92 1735.48,-59.32"/>
</g>
<!-- Node10&#45;&gt;Node14 -->
<g id="edge16" class="edge">
<title>Node10&#45;&gt;Node14</title>
<path fill="none" stroke="#63b8ff" d="M1776.79,-64.21C1836.81,-53.6 1915.12,-39.76 1972.42,-29.63"/>
<polygon fill="#63b8ff" stroke="#63b8ff" points="1776.18,-60.77 1766.94,-65.95 1777.4,-67.66 1776.18,-60.77"/>
</g>
<!-- Node15&#45;&gt;Node11 -->
<g id="edge19" class="edge">
<title>Node15&#45;&gt;Node11</title>
<path fill="none" stroke="#63b8ff" d="M1266.66,-59.75C1280.04,-50.13 1295.72,-38.86 1307.8,-30.16"/>
<polygon fill="#63b8ff" stroke="#63b8ff" points="1264.33,-57.12 1258.25,-65.8 1268.41,-62.8 1264.33,-57.12"/>
</g>
<!-- Node15&#45;&gt;Node16 -->
<g id="edge20" class="edge">
<title>Node15&#45;&gt;Node16</title>
<path fill="none" stroke="#63b8ff" d="M1146.78,-66.57C1070.78,-55.44 963.51,-39.73 888.78,-28.78"/>
<polygon fill="#63b8ff" stroke="#63b8ff" points="1146.41,-70.05 1156.82,-68.04 1147.43,-63.12 1146.41,-70.05"/>
</g>
<!-- Node15&#45;&gt;Node17 -->
<g id="edge21" class="edge">
<title>Node15&#45;&gt;Node17</title>
<path fill="none" stroke="#63b8ff" d="M1172.83,-63.52C1131.47,-53.14 1078.66,-39.88 1039.33,-30.01"/>
<polygon fill="#63b8ff" stroke="#63b8ff" points="1171.99,-66.92 1182.54,-65.95 1173.69,-60.13 1171.99,-66.92"/>
</g>
<!-- Node15&#45;&gt;Node18 -->
<g id="edge22" class="edge">
<title>Node15&#45;&gt;Node18</title>
<path fill="none" stroke="#63b8ff" d="M1211.89,-59.48C1199.48,-49.91 1185.03,-38.77 1173.87,-30.16"/>
<polygon fill="#63b8ff" stroke="#63b8ff" points="1210.02,-62.46 1220.08,-65.8 1214.3,-56.92 1210.02,-62.46"/>
</g>
<!-- Node19&#45;&gt;Node20 -->
<g id="edge25" class="edge">
<title>Node19&#45;&gt;Node20</title>
<path fill="none" stroke="#63b8ff" d="M2045.14,-63.45C2085.65,-53.08 2137.29,-39.86 2175.76,-30.01"/>
<polygon fill="#63b8ff" stroke="#63b8ff" points="2044.18,-60.08 2035.36,-65.95 2045.92,-66.87 2044.18,-60.08"/>
</g>
<!-- Node21 -->
<g id="node21" class="node">
<title>Node21</title>
<g id="a_node21"><a xlink:href="../../d7/de7/mangen_8cpp.html" target="_top" xlink:title=" ">
<polygon fill="white" stroke="#666666" points="2488.5,-30 2334.5,-30 2334.5,0 2488.5,0 2488.5,-30"/>
<text text-anchor="start" x="2342.5" y="-18" font-family="Helvetica,sans-Serif" font-size="10.00">/home/runner/work/doxygen</text>
<text text-anchor="middle" x="2411.5" y="-7" font-family="Helvetica,sans-Serif" font-size="10.00">/doxygen/src/mangen.cpp</text>
</a>
</g>
</g>
<!-- Node19&#45;&gt;Node21 -->
<g id="edge26" class="edge">
<title>Node19&#45;&gt;Node21</title>
<path fill="none" stroke="#63b8ff" d="M2070.7,-65.84C2184.39,-48.98 2214.53,-46.61 2324.5,-30 2327.68,-29.52 2330.92,-29.02 2334.19,-28.52"/>
<polygon fill="#63b8ff" stroke="#63b8ff" points="2069.92,-62.41 2060.54,-67.35 2070.95,-69.34 2069.92,-62.41"/>
</g>
<!-- Node24&#45;&gt;Node25 -->
<g id="edge30" class="edge">
<title>Node24&#45;&gt;Node25</title>
<path fill="none" stroke="#63b8ff" d="M2587.5,-55.54C2587.5,-46.96 2587.5,-37.61 2587.5,-30.16"/>
<polygon fill="#63b8ff" stroke="#63b8ff" points="2584,-55.8 2587.5,-65.8 2591,-55.8 2584,-55.8"/>
</g>
<!-- Node26 -->
<g id="node26" class="node">
<title>Node26</title>
<g id="a_node26"><a xlink:href="../../d0/d9c/rtfgen_8cpp.html" target="_top" xlink:title=" ">
<polygon fill="white" stroke="#666666" points="2840.5,-30 2686.5,-30 2686.5,0 2840.5,0 2840.5,-30"/>
<text text-anchor="start" x="2694.5" y="-18" font-family="Helvetica,sans-Serif" font-size="10.00">/home/runner/work/doxygen</text>
<text text-anchor="middle" x="2763.5" y="-7" font-family="Helvetica,sans-Serif" font-size="10.00">/doxygen/src/rtfgen.cpp</text>
</a>
</g>
</g>
<!-- Node24&#45;&gt;Node26 -->
<g id="edge31" class="edge">
<title>Node24&#45;&gt;Node26</title>
<path fill="none" stroke="#63b8ff" d="M2635.74,-62.46C2663.82,-52.25 2698.74,-39.55 2724.97,-30.01"/>
<polygon fill="#63b8ff" stroke="#63b8ff" points="2634.33,-59.25 2626.12,-65.95 2636.72,-65.83 2634.33,-59.25"/>
</g>
<!-- Node27&#45;&gt;Node18 -->
<g id="edge34" class="edge">
<title>Node27&#45;&gt;Node18</title>
<path fill="none" stroke="#63b8ff" d="M1392.06,-63.91C1340.53,-53.47 1274.04,-40.01 1224.69,-30.01"/>
<polygon fill="#63b8ff" stroke="#63b8ff" points="1391.66,-67.4 1402.15,-65.95 1393.05,-60.54 1391.66,-67.4"/>
</g>
<!-- Node27&#45;&gt;Node28 -->
<g id="edge33" class="edge">
<title>Node27&#45;&gt;Node28</title>
<path fill="none" stroke="#63b8ff" d="M1484.46,-56.96C1489.5,-48 1495.11,-38.03 1499.53,-30.16"/>
<polygon fill="#63b8ff" stroke="#63b8ff" points="1481.34,-55.36 1479.49,-65.8 1487.44,-58.8 1481.34,-55.36"/>
</g>
<!-- Node29&#45;&gt;Node30 -->
<g id="edge36" class="edge">
<title>Node29&#45;&gt;Node30</title>
<path fill="none" stroke="#63b8ff" d="M2919.46,-56.96C2924.5,-48 2930.11,-38.03 2934.53,-30.16"/>
<polygon fill="#63b8ff" stroke="#63b8ff" points="2916.34,-55.36 2914.49,-65.8 2922.44,-58.8 2916.34,-55.36"/>
</g>
<!-- Node29&#45;&gt;Node31 -->
<g id="edge37" class="edge">
<title>Node29&#45;&gt;Node31</title>
<path fill="none" stroke="#63b8ff" d="M2963.65,-62.99C2998.24,-52.69 3041.83,-39.72 3074.43,-30.01"/>
<polygon fill="#63b8ff" stroke="#63b8ff" points="2962.27,-59.75 2953.68,-65.95 2964.27,-66.46 2962.27,-59.75"/>
</g>
<!-- Node33&#45;&gt;Node8 -->
<g id="edge44" class="edge">
<title>Node33&#45;&gt;Node8</title>
<path fill="none" stroke="#63b8ff" d="M755.71,-123.65C743.61,-106.49 725.3,-82.94 705.5,-66 688.57,-51.52 666.86,-38.94 649.5,-30.02"/>
<polygon fill="#63b8ff" stroke="#63b8ff" points="752.89,-125.73 761.45,-131.98 758.66,-121.76 752.89,-125.73"/>
</g>
</g>
</svg>
