<?xml version="1.0" encoding="UTF-8" standalone="no"?>
<!DOCTYPE svg PUBLIC "-//W3C//DTD SVG 1.1//EN"
 "http://www.w3.org/Graphics/SVG/1.1/DTD/svg11.dtd">
<!-- Generated by graphviz version 2.43.0 (0)
 -->
<!-- Title: DotGroupCollaboration::Edge Pages: 1 -->
<svg width="167pt" height="259pt"
 viewBox="0.00 0.00 166.50 259.00" xmlns="http://www.w3.org/2000/svg" xmlns:xlink="http://www.w3.org/1999/xlink">
<g id="graph0" class="graph" transform="scale(1 1) rotate(0) translate(4 255)">
<title>DotGroupCollaboration::Edge</title>
<!-- Node1 -->
<g id="node1" class="node">
<title>Node1</title>
<g id="a_node1"><a xlink:title=" ">
<polygon fill="#999999" stroke="#666666" points="128.5,-30 0.5,-30 0.5,0 128.5,0 128.5,-30"/>
<text text-anchor="start" x="8.5" y="-18" font-family="Helvetica,sans-Serif" font-size="10.00">DotGroupCollaboration</text>
<text text-anchor="middle" x="64.5" y="-7" font-family="Helvetica,sans-Serif" font-size="10.00">::Edge</text>
</a>
</g>
</g>
<!-- Node2 -->
<g id="node2" class="node">
<title>Node2</title>
<g id="a_node2"><a xlink:href="../../dd/d7e/class_dot_node.html" target="_top" xlink:title="A node in a dot graph.">
<polygon fill="white" stroke="#666666" points="94,-107 35,-107 35,-88 94,-88 94,-107"/>
<text text-anchor="middle" x="64.5" y="-95" font-family="Helvetica,sans-Serif" font-size="10.00">DotNode</text>
</a>
</g>
</g>
<!-- Node2&#45;&gt;Node1 -->
<g id="edge1" class="edge">
<title>Node2&#45;&gt;Node1</title>
<path fill="none" stroke="#9a32cd" stroke-dasharray="5,2" d="M64.5,-77.6C64.5,-63.1 64.5,-43.4 64.5,-30.22"/>
<polygon fill="#9a32cd" stroke="#9a32cd" points="61,-77.89 64.5,-87.89 68,-77.89 61,-77.89"/>
<text text-anchor="middle" x="83" y="-62" font-family="Helvetica,sans-Serif" font-size="10.00" fill="grey"> pNEnd</text>
<text text-anchor="middle" x="83" y="-51" font-family="Helvetica,sans-Serif" font-size="10.00" fill="grey">pNStart</text>
</g>
<!-- Node3 -->
<g id="node3" class="node">
<title>Node3</title>
<g id="a_node3"><a xlink:href="../../d9/d45/class_q_c_string.html" target="_top" xlink:title="This is an alternative implementation of QCString.">
<polygon fill="white" stroke="#666666" points="59,-195 0,-195 0,-176 59,-176 59,-195"/>
<text text-anchor="middle" x="29.5" y="-183" font-family="Helvetica,sans-Serif" font-size="10.00">QCString</text>
</a>
</g>
</g>
<!-- Node3&#45;&gt;Node2 -->
<g id="edge2" class="edge">
<title>Node3&#45;&gt;Node2</title>
<path fill="none" stroke="#9a32cd" stroke-dasharray="5,2" d="M27.58,-165.54C27.17,-153.34 28.22,-137.49 34.5,-125 38.12,-117.8 44.62,-111.68 50.64,-107.14"/>
<polygon fill="#9a32cd" stroke="#9a32cd" points="24.12,-166.15 28.3,-175.89 31.1,-165.67 24.12,-166.15"/>
<text text-anchor="middle" x="58" y="-150" font-family="Helvetica,sans-Serif" font-size="10.00" fill="grey"> m_label</text>
<text text-anchor="middle" x="58" y="-139" font-family="Helvetica,sans-Serif" font-size="10.00" fill="grey">m_tooltip</text>
<text text-anchor="middle" x="58" y="-128" font-family="Helvetica,sans-Serif" font-size="10.00" fill="grey">m_url</text>
</g>
<!-- Node4 -->
<g id="node4" class="node">
<title>Node4</title>
<g id="a_node4"><a xlink:href="../../d1/dcf/class_class_def.html" target="_top" xlink:title="A abstract class representing of a compound symbol.">
<polygon fill="white" stroke="#666666" points="137.5,-195 77.5,-195 77.5,-176 137.5,-176 137.5,-195"/>
<text text-anchor="middle" x="107.5" y="-183" font-family="Helvetica,sans-Serif" font-size="10.00">ClassDef</text>
</a>
</g>
</g>
<!-- Node4&#45;&gt;Node2 -->
<g id="edge3" class="edge">
<title>Node4&#45;&gt;Node2</title>
<path fill="none" stroke="#9a32cd" stroke-dasharray="5,2" d="M100.5,-166.48C95.63,-154.5 88.74,-138.53 81.5,-125 78.2,-118.83 73.95,-112.21 70.53,-107.12"/>
<polygon fill="#9a32cd" stroke="#9a32cd" points="97.27,-167.83 104.21,-175.83 103.77,-165.24 97.27,-167.83"/>
<text text-anchor="middle" x="128" y="-139" font-family="Helvetica,sans-Serif" font-size="10.00" fill="grey"> m_classDef</text>
</g>
<!-- Node5 -->
<g id="node5" class="node">
<title>Node5</title>
<g id="a_node5"><a xlink:href="../../d5/dcc/class_definition.html" target="_top" xlink:title="The common base class of all entity definitions found in the sources.">
<polygon fill="white" stroke="#666666" points="139.5,-251 75.5,-251 75.5,-232 139.5,-232 139.5,-251"/>
<text text-anchor="middle" x="107.5" y="-239" font-family="Helvetica,sans-Serif" font-size="10.00">Definition</text>
</a>
</g>
</g>
<!-- Node5&#45;&gt;Node4 -->
<g id="edge4" class="edge">
<title>Node5&#45;&gt;Node4</title>
<path fill="none" stroke="#63b8ff" d="M107.5,-221.3C107.5,-212.41 107.5,-202.28 107.5,-195.25"/>
<polygon fill="#63b8ff" stroke="#63b8ff" points="104,-221.58 107.5,-231.58 111,-221.58 104,-221.58"/>
</g>
</g>
</svg>
