<?xml version="1.0" encoding="UTF-8" standalone="no"?>
<!DOCTYPE svg PUBLIC "-//W3C//DTD SVG 1.1//EN"
 "http://www.w3.org/Graphics/SVG/1.1/DTD/svg11.dtd">
<!-- Generated by graphviz version 2.43.0 (0)
 -->
<!-- Title: ConstExpressionParser::Private Pages: 1 -->
<svg width="163pt" height="170pt"
 viewBox="0.00 0.00 163.00 170.00" xmlns="http://www.w3.org/2000/svg" xmlns:xlink="http://www.w3.org/1999/xlink">
<g id="graph0" class="graph" transform="scale(1 1) rotate(0) translate(4 166)">
<title>ConstExpressionParser::Private</title>
<!-- Node1 -->
<g id="node1" class="node">
<title>Node1</title>
<g id="a_node1"><a xlink:title=" ">
<polygon fill="#999999" stroke="#666666" points="128,-30 0,-30 0,0 128,0 128,-30"/>
<text text-anchor="start" x="8" y="-18" font-family="Helvetica,sans-Serif" font-size="10.00">ConstExpressionParser</text>
<text text-anchor="middle" x="64" y="-7" font-family="Helvetica,sans-Serif" font-size="10.00">::Private</text>
</a>
</g>
</g>
<!-- Node2 -->
<g id="node2" class="node">
<title>Node2</title>
<g id="a_node2"><a xlink:href="../../d3/d1e/structconstexp_y_y__state.html" target="_top" xlink:title=" ">
<polygon fill="white" stroke="#666666" points="115.5,-96 12.5,-96 12.5,-77 115.5,-77 115.5,-96"/>
<text text-anchor="middle" x="64" y="-84" font-family="Helvetica,sans-Serif" font-size="10.00">constexpYY_state</text>
</a>
</g>
</g>
<!-- Node2&#45;&gt;Node1 -->
<g id="edge1" class="edge">
<title>Node2&#45;&gt;Node1</title>
<path fill="none" stroke="#9a32cd" stroke-dasharray="5,2" d="M64,-66.71C64,-55.19 64,-40.68 64,-30.14"/>
<polygon fill="#9a32cd" stroke="#9a32cd" points="60.5,-66.98 64,-76.98 67.5,-66.98 60.5,-66.98"/>
<text text-anchor="middle" x="109.5" y="-51" font-family="Helvetica,sans-Serif" font-size="10.00" fill="grey"> constexpYY_extra</text>
</g>
<!-- Node3 -->
<g id="node3" class="node">
<title>Node3</title>
<g id="a_node3"><a xlink:href="../../d2/d75/class_c_p_p_value.html" target="_top" xlink:title="A class representing a C&#45;preprocessor value.">
<polygon fill="white" stroke="#666666" points="95,-162 33,-162 33,-143 95,-143 95,-162"/>
<text text-anchor="middle" x="64" y="-150" font-family="Helvetica,sans-Serif" font-size="10.00">CPPValue</text>
</a>
</g>
</g>
<!-- Node3&#45;&gt;Node2 -->
<g id="edge2" class="edge">
<title>Node3&#45;&gt;Node2</title>
<path fill="none" stroke="#9a32cd" stroke-dasharray="5,2" d="M64,-132.58C64,-120.63 64,-105.72 64,-96.41"/>
<polygon fill="#9a32cd" stroke="#9a32cd" points="60.5,-132.87 64,-142.87 67.5,-132.87 60.5,-132.87"/>
<text text-anchor="middle" x="93" y="-117" font-family="Helvetica,sans-Serif" font-size="10.00" fill="grey"> resultValue</text>
</g>
</g>
</svg>
