<?xml version="1.0" encoding="UTF-8" standalone="no"?>
<!DOCTYPE svg PUBLIC "-//W3C//DTD SVG 1.1//EN"
 "http://www.w3.org/Graphics/SVG/1.1/DTD/svg11.dtd">
<!-- Generated by graphviz version 2.43.0 (0)
 -->
<!-- Title: /home/runner/work/doxygen/doxygen/src/docvisitor.h Pages: 1 -->
<!--zoomable 236 -->
<svg id="main" version="1.1" xmlns="http://www.w3.org/2000/svg" xmlns:xlink="http://www.w3.org/1999/xlink" xml:space="preserve" onload="init(evt)">
<style type="text/css"><![CDATA[
.edge:hover path { stroke: red; }
.edge:hover polygon { stroke: red; fill: red; }
]]></style>
<script type="text/javascript"><![CDATA[
var edges = document.getElementsByTagName('g');
if (edges && edges.length) {
  for (var i=0;i<edges.length;i++) {
    if (edges[i].id.substr(0,4)=='edge') {
      edges[i].setAttribute('class','edge');
    }
  }
}
]]></script>
        <defs>
                <circle id="rim" cx="0" cy="0" r="7"/>
                <circle id="rim2" cx="0" cy="0" r="3.5"/>
                <g id="zoomPlus">
                        <use xlink:href="#rim" fill="#404040">
                                <set attributeName="fill" to="#808080" begin="zoomplus.mouseover" end="zoomplus.mouseout"/>
                        </use>
                        <path d="M-4,0h8M0,-4v8" fill="none" stroke="white" stroke-width="1.5" pointer-events="none"/>
                </g>
                <g id="zoomMin">
                        <use xlink:href="#rim" fill="#404040">
                                <set attributeName="fill" to="#808080" begin="zoomminus.mouseover" end="zoomminus.mouseout"/>
                        </use>
                        <path d="M-4,0h8" fill="none" stroke="white" stroke-width="1.5" pointer-events="none"/>
                </g>
                <g id="dirArrow">
                        <path fill="none" stroke="white" stroke-width="1.5" d="M0,-3.0v7 M-2.5,-0.5L0,-3.0L2.5,-0.5"/>
                </g>
               <g id="resetDef">
                       <use xlink:href="#rim2" fill="#404040">
                               <set attributeName="fill" to="#808080" begin="reset.mouseover" end="reset.mouseout"/>
                       </use>
               </g>
        </defs>

<script type="text/javascript">
var viewWidth = 3206;
var viewHeight = 236;
var sectionId = 'dynsection-1';
</script>
<script xlink:href="../../svgpan.js"/>
<svg id="graph" class="graph">
<g id="viewport">
<title>/home/runner/work/doxygen/doxygen/src/docvisitor.h</title>
<!-- Node1 -->
<g id="node1" class="node">
<title>Node1</title>
<g id="a_node1"><a xlink:title=" ">
<polygon fill="#999999" stroke="#666666" points="2066.5,-228 1912.5,-228 1912.5,-198 2066.5,-198 2066.5,-228"/>
<text text-anchor="start" x="1920.5" y="-216" font-family="Helvetica,sans-Serif" font-size="10.00">/home/runner/work/doxygen</text>
<text text-anchor="middle" x="1989.5" y="-205" font-family="Helvetica,sans-Serif" font-size="10.00">/doxygen/src/docvisitor.h</text>
</a>
</g>
</g>
<!-- Node2 -->
<g id="node2" class="node">
<title>Node2</title>
<g id="a_node2"><a xlink:href="../../de/dcd/docbookvisitor_8h.html" target="_top" xlink:title=" ">
<polygon fill="white" stroke="#666666" points="580.5,-96 418.5,-96 418.5,-66 580.5,-66 580.5,-96"/>
<text text-anchor="start" x="426.5" y="-84" font-family="Helvetica,sans-Serif" font-size="10.00">/home/runner/work/doxygen</text>
<text text-anchor="middle" x="499.5" y="-73" font-family="Helvetica,sans-Serif" font-size="10.00">/doxygen/src/docbookvisitor.h</text>
</a>
</g>
</g>
<!-- Node1&#45;&gt;Node2 -->
<g id="edge1" class="edge">
<title>Node1&#45;&gt;Node2</title>
<path fill="none" stroke="#63b8ff" d="M1902.4,-207.75C1758.58,-200.42 1462.51,-184.06 1212.5,-162 982.95,-141.75 712.82,-108.99 580.64,-92.37"/>
<polygon fill="#63b8ff" stroke="#63b8ff" points="1902.32,-211.25 1912.48,-208.26 1902.67,-204.26 1902.32,-211.25"/>
</g>
<!-- Node5 -->
<g id="node5" class="node">
<title>Node5</title>
<g id="a_node5"><a xlink:href="../../de/d2b/docnode_8h.html" target="_top" xlink:title=" ">
<polygon fill="white" stroke="#666666" points="1751.5,-162 1597.5,-162 1597.5,-132 1751.5,-132 1751.5,-162"/>
<text text-anchor="start" x="1605.5" y="-150" font-family="Helvetica,sans-Serif" font-size="10.00">/home/runner/work/doxygen</text>
<text text-anchor="middle" x="1674.5" y="-139" font-family="Helvetica,sans-Serif" font-size="10.00">/doxygen/src/docnode.h</text>
</a>
</g>
</g>
<!-- Node1&#45;&gt;Node5 -->
<g id="edge4" class="edge">
<title>Node1&#45;&gt;Node5</title>
<path fill="none" stroke="#63b8ff" d="M1910.31,-195.91C1858.94,-185.47 1792.67,-172.01 1743.47,-162.01"/>
<polygon fill="#63b8ff" stroke="#63b8ff" points="1909.88,-199.39 1920.37,-197.95 1911.27,-192.53 1909.88,-199.39"/>
</g>
<!-- Node10 -->
<g id="node10" class="node">
<title>Node10</title>
<g id="a_node10"><a xlink:href="../../d0/d71/htmldocvisitor_8h.html" target="_top" xlink:title=" ">
<polygon fill="white" stroke="#666666" points="942,-96 781,-96 781,-66 942,-66 942,-96"/>
<text text-anchor="start" x="789" y="-84" font-family="Helvetica,sans-Serif" font-size="10.00">/home/runner/work/doxygen</text>
<text text-anchor="middle" x="861.5" y="-73" font-family="Helvetica,sans-Serif" font-size="10.00">/doxygen/src/htmldocvisitor.h</text>
</a>
</g>
</g>
<!-- Node1&#45;&gt;Node10 -->
<g id="edge38" class="edge">
<title>Node1&#45;&gt;Node10</title>
<path fill="none" stroke="#63b8ff" d="M1902.01,-205.34C1793.22,-196.77 1601.9,-180.73 1438.5,-162 1260.91,-141.64 1053.5,-111.26 942.1,-94.4"/>
<polygon fill="#63b8ff" stroke="#63b8ff" points="1902.03,-208.86 1912.27,-206.15 1902.58,-201.88 1902.03,-208.86"/>
</g>
<!-- Node15 -->
<g id="node15" class="node">
<title>Node15</title>
<g id="a_node15"><a xlink:href="../../d8/d99/latexdocvisitor_8h.html" target="_top" xlink:title=" ">
<polygon fill="white" stroke="#666666" points="1317,-96 1154,-96 1154,-66 1317,-66 1317,-96"/>
<text text-anchor="start" x="1162" y="-84" font-family="Helvetica,sans-Serif" font-size="10.00">/home/runner/work/doxygen</text>
<text text-anchor="middle" x="1235.5" y="-73" font-family="Helvetica,sans-Serif" font-size="10.00">/doxygen/src/latexdocvisitor.h</text>
</a>
</g>
</g>
<!-- Node1&#45;&gt;Node15 -->
<g id="edge39" class="edge">
<title>Node1&#45;&gt;Node15</title>
<path fill="none" stroke="#63b8ff" d="M1902.08,-203.61C1820.59,-195.2 1695.86,-180.81 1588.5,-162 1481.73,-143.29 1358.57,-113.47 1289.59,-96.01"/>
<polygon fill="#63b8ff" stroke="#63b8ff" points="1901.98,-207.12 1912.29,-204.66 1902.7,-200.16 1901.98,-207.12"/>
</g>
<!-- Node19 -->
<g id="node19" class="node">
<title>Node19</title>
<g id="a_node19"><a xlink:href="../../d6/d6e/mandocvisitor_8h.html" target="_top" xlink:title=" ">
<polygon fill="white" stroke="#666666" points="2457.5,-96 2297.5,-96 2297.5,-66 2457.5,-66 2457.5,-96"/>
<text text-anchor="start" x="2305.5" y="-84" font-family="Helvetica,sans-Serif" font-size="10.00">/home/runner/work/doxygen</text>
<text text-anchor="middle" x="2377.5" y="-73" font-family="Helvetica,sans-Serif" font-size="10.00">/doxygen/src/mandocvisitor.h</text>
</a>
</g>
</g>
<!-- Node1&#45;&gt;Node19 -->
<g id="edge40" class="edge">
<title>Node1&#45;&gt;Node19</title>
<path fill="none" stroke="#63b8ff" d="M2001.1,-188.71C2011.62,-170.19 2028.92,-145.26 2051.5,-132 2143.36,-78.04 2183.21,-112.28 2288.5,-96 2291.44,-95.55 2294.43,-95.08 2297.45,-94.61"/>
<polygon fill="#63b8ff" stroke="#63b8ff" points="1997.91,-187.26 1996.23,-197.72 2004.07,-190.59 1997.91,-187.26"/>
</g>
<!-- Node24 -->
<g id="node24" class="node">
<title>Node24</title>
<g id="a_node24"><a xlink:href="../../d1/da7/rtfdocvisitor_8h.html" target="_top" xlink:title=" ">
<polygon fill="white" stroke="#666666" points="2646.5,-96 2492.5,-96 2492.5,-66 2646.5,-66 2646.5,-96"/>
<text text-anchor="start" x="2500.5" y="-84" font-family="Helvetica,sans-Serif" font-size="10.00">/home/runner/work/doxygen</text>
<text text-anchor="middle" x="2569.5" y="-73" font-family="Helvetica,sans-Serif" font-size="10.00">/doxygen/src/rtfdocvisitor.h</text>
</a>
</g>
</g>
<!-- Node1&#45;&gt;Node24 -->
<g id="edge41" class="edge">
<title>Node1&#45;&gt;Node24</title>
<path fill="none" stroke="#63b8ff" d="M2014.65,-191.29C2042.82,-168.18 2085.14,-133.77 2089.5,-132 2245.5,-68.79 2299.3,-115.34 2466.5,-96 2474.93,-95.03 2483.73,-93.94 2492.49,-92.81"/>
<polygon fill="#63b8ff" stroke="#63b8ff" points="2012.27,-188.71 2006.77,-197.76 2016.72,-194.12 2012.27,-188.71"/>
</g>
<!-- Node27 -->
<g id="node27" class="node">
<title>Node27</title>
<g id="a_node27"><a xlink:href="../../dd/d66/textdocvisitor_8h.html" target="_top" xlink:title=" ">
<polygon fill="white" stroke="#666666" points="2279.5,-96 2121.5,-96 2121.5,-66 2279.5,-66 2279.5,-96"/>
<text text-anchor="start" x="2129.5" y="-84" font-family="Helvetica,sans-Serif" font-size="10.00">/home/runner/work/doxygen</text>
<text text-anchor="middle" x="2200.5" y="-73" font-family="Helvetica,sans-Serif" font-size="10.00">/doxygen/src/textdocvisitor.h</text>
</a>
</g>
</g>
<!-- Node1&#45;&gt;Node27 -->
<g id="edge42" class="edge">
<title>Node1&#45;&gt;Node27</title>
<path fill="none" stroke="#63b8ff" d="M1990.69,-187.54C1992.85,-169.8 1998.59,-146.47 2013.5,-132 2029.27,-116.7 2077.71,-103.99 2121.34,-95.21"/>
<polygon fill="#63b8ff" stroke="#63b8ff" points="1987.18,-187.46 1989.75,-197.73 1994.15,-188.09 1987.18,-187.46"/>
</g>
<!-- Node29 -->
<g id="node29" class="node">
<title>Node29</title>
<g id="a_node29"><a xlink:href="../../df/d2b/xmldocvisitor_8h.html" target="_top" xlink:title=" ">
<polygon fill="white" stroke="#666666" points="2921,-96 2764,-96 2764,-66 2921,-66 2921,-96"/>
<text text-anchor="start" x="2772" y="-84" font-family="Helvetica,sans-Serif" font-size="10.00">/home/runner/work/doxygen</text>
<text text-anchor="middle" x="2842.5" y="-73" font-family="Helvetica,sans-Serif" font-size="10.00">/doxygen/src/xmldocvisitor.h</text>
</a>
</g>
</g>
<!-- Node1&#45;&gt;Node29 -->
<g id="edge43" class="edge">
<title>Node1&#45;&gt;Node29</title>
<path fill="none" stroke="#63b8ff" d="M2029.14,-193.19C2046.55,-184.41 2066.96,-173.4 2084.5,-162 2102.54,-150.27 2102.42,-139.74 2122.5,-132 2233.27,-89.31 2537.09,-104.43 2655.5,-96 2691.06,-93.47 2730.41,-90.54 2763.81,-88.02"/>
<polygon fill="#63b8ff" stroke="#63b8ff" points="2027.22,-190.23 2019.82,-197.82 2030.34,-196.5 2027.22,-190.23"/>
</g>
<!-- Node32 -->
<g id="node32" class="node">
<title>Node32</title>
<g id="a_node32"><a xlink:href="../../da/d39/docvisitor_8cpp.html" target="_top" xlink:title=" ">
<polygon fill="white" stroke="#666666" points="2285.5,-162 2131.5,-162 2131.5,-132 2285.5,-132 2285.5,-162"/>
<text text-anchor="start" x="2139.5" y="-150" font-family="Helvetica,sans-Serif" font-size="10.00">/home/runner/work/doxygen</text>
<text text-anchor="middle" x="2208.5" y="-139" font-family="Helvetica,sans-Serif" font-size="10.00">/doxygen/src/docvisitor.cpp</text>
</a>
</g>
</g>
<!-- Node1&#45;&gt;Node32 -->
<g id="edge37" class="edge">
<title>Node1&#45;&gt;Node32</title>
<path fill="none" stroke="#63b8ff" d="M2047.26,-195.12C2082.57,-184.8 2127.2,-171.76 2160.55,-162.01"/>
<polygon fill="#63b8ff" stroke="#63b8ff" points="2046.18,-191.79 2037.56,-197.95 2048.14,-198.51 2046.18,-191.79"/>
</g>
<!-- Node3 -->
<g id="node3" class="node">
<title>Node3</title>
<g id="a_node3"><a xlink:href="../../d8/d29/docbookgen_8cpp.html" target="_top" xlink:title=" ">
<polygon fill="white" stroke="#666666" points="161,-30 0,-30 0,0 161,0 161,-30"/>
<text text-anchor="start" x="8" y="-18" font-family="Helvetica,sans-Serif" font-size="10.00">/home/runner/work/doxygen</text>
<text text-anchor="middle" x="80.5" y="-7" font-family="Helvetica,sans-Serif" font-size="10.00">/doxygen/src/docbookgen.cpp</text>
</a>
</g>
</g>
<!-- Node2&#45;&gt;Node3 -->
<g id="edge2" class="edge">
<title>Node2&#45;&gt;Node3</title>
<path fill="none" stroke="#63b8ff" d="M408.45,-66.35C342.17,-56.37 250.25,-42.47 169.5,-30 166.72,-29.57 163.89,-29.13 161.03,-28.69"/>
<polygon fill="#63b8ff" stroke="#63b8ff" points="408.04,-69.82 418.45,-67.85 409.08,-62.9 408.04,-69.82"/>
</g>
<!-- Node4 -->
<g id="node4" class="node">
<title>Node4</title>
<g id="a_node4"><a xlink:href="../../dc/d05/docbookvisitor_8cpp.html" target="_top" xlink:title=" ">
<polygon fill="white" stroke="#666666" points="352,-30 179,-30 179,0 352,0 352,-30"/>
<text text-anchor="start" x="187" y="-18" font-family="Helvetica,sans-Serif" font-size="10.00">/home/runner/work/doxygen</text>
<text text-anchor="middle" x="265.5" y="-7" font-family="Helvetica,sans-Serif" font-size="10.00">/doxygen/src/docbookvisitor.cpp</text>
</a>
</g>
</g>
<!-- Node2&#45;&gt;Node4 -->
<g id="edge3" class="edge">
<title>Node2&#45;&gt;Node4</title>
<path fill="none" stroke="#63b8ff" d="M438.27,-63.25C400.47,-52.91 352.52,-39.8 316.73,-30.01"/>
<polygon fill="#63b8ff" stroke="#63b8ff" points="437.58,-66.69 448.15,-65.95 439.43,-59.94 437.58,-66.69"/>
</g>
<!-- Node5&#45;&gt;Node2 -->
<g id="edge5" class="edge">
<title>Node5&#45;&gt;Node2</title>
<path fill="none" stroke="#63b8ff" d="M1587.21,-141.25C1367.48,-129.28 793.85,-98.03 580.76,-86.43"/>
<polygon fill="#63b8ff" stroke="#63b8ff" points="1587.23,-144.75 1597.4,-141.8 1587.61,-137.76 1587.23,-144.75"/>
</g>
<!-- Node6 -->
<g id="node6" class="node">
<title>Node6</title>
<g id="a_node6"><a xlink:href="../../d0/d2b/docnode_8cpp.html" target="_top" xlink:title=" ">
<polygon fill="white" stroke="#666666" points="1766.5,-30 1612.5,-30 1612.5,0 1766.5,0 1766.5,-30"/>
<text text-anchor="start" x="1620.5" y="-18" font-family="Helvetica,sans-Serif" font-size="10.00">/home/runner/work/doxygen</text>
<text text-anchor="middle" x="1689.5" y="-7" font-family="Helvetica,sans-Serif" font-size="10.00">/doxygen/src/docnode.cpp</text>
</a>
</g>
</g>
<!-- Node5&#45;&gt;Node6 -->
<g id="edge6" class="edge">
<title>Node5&#45;&gt;Node6</title>
<path fill="none" stroke="#63b8ff" d="M1622.8,-127.25C1609.25,-119.71 1596.27,-109.51 1588.5,-96 1581.85,-84.44 1581.47,-77.33 1588.5,-66 1599.03,-49.04 1617.2,-37.66 1635.25,-30.1"/>
<polygon fill="#63b8ff" stroke="#63b8ff" points="1621.24,-130.38 1631.73,-131.83 1624.43,-124.15 1621.24,-130.38"/>
</g>
<!-- Node7 -->
<g id="node7" class="node">
<title>Node7</title>
<g id="a_node7"><a xlink:href="../../df/dc9/docparser__p_8h.html" target="_top" xlink:title="Private header shared between docparser.cpp and docnode.cpp.">
<polygon fill="white" stroke="#666666" points="1751.5,-96 1597.5,-96 1597.5,-66 1751.5,-66 1751.5,-96"/>
<text text-anchor="start" x="1605.5" y="-84" font-family="Helvetica,sans-Serif" font-size="10.00">/home/runner/work/doxygen</text>
<text text-anchor="middle" x="1674.5" y="-73" font-family="Helvetica,sans-Serif" font-size="10.00">/doxygen/src/docparser_p.h</text>
</a>
</g>
</g>
<!-- Node5&#45;&gt;Node7 -->
<g id="edge7" class="edge">
<title>Node5&#45;&gt;Node7</title>
<path fill="none" stroke="#63b8ff" d="M1674.5,-121.54C1674.5,-112.96 1674.5,-103.61 1674.5,-96.16"/>
<polygon fill="#63b8ff" stroke="#63b8ff" points="1671,-121.8 1674.5,-131.8 1678,-121.8 1671,-121.8"/>
</g>
<!-- Node9 -->
<g id="node9" class="node">
<title>Node9</title>
<g id="a_node9"><a xlink:href="../../d9/d92/dotfilepatcher_8cpp.html" target="_top" xlink:title=" ">
<polygon fill="white" stroke="#666666" points="1542,-96 1373,-96 1373,-66 1542,-66 1542,-96"/>
<text text-anchor="start" x="1381" y="-84" font-family="Helvetica,sans-Serif" font-size="10.00">/home/runner/work/doxygen</text>
<text text-anchor="middle" x="1457.5" y="-73" font-family="Helvetica,sans-Serif" font-size="10.00">/doxygen/src/dotfilepatcher.cpp</text>
</a>
</g>
</g>
<!-- Node5&#45;&gt;Node9 -->
<g id="edge10" class="edge">
<title>Node5&#45;&gt;Node9</title>
<path fill="none" stroke="#63b8ff" d="M1617.27,-129.12C1582.28,-118.8 1538.06,-105.76 1505.01,-96.01"/>
<polygon fill="#63b8ff" stroke="#63b8ff" points="1616.3,-132.48 1626.88,-131.95 1618.28,-125.77 1616.3,-132.48"/>
</g>
<!-- Node5&#45;&gt;Node10 -->
<g id="edge11" class="edge">
<title>Node5&#45;&gt;Node10</title>
<path fill="none" stroke="#63b8ff" d="M1587.09,-139.12C1428.49,-126.63 1095.55,-100.42 942.1,-88.34"/>
<polygon fill="#63b8ff" stroke="#63b8ff" points="1587.04,-142.63 1597.28,-139.92 1587.59,-135.65 1587.04,-142.63"/>
</g>
<!-- Node14 -->
<g id="node14" class="node">
<title>Node14</title>
<g id="a_node14"><a xlink:href="../../d8/d6e/htmlgen_8cpp.html" target="_top" xlink:title=" ">
<polygon fill="white" stroke="#666666" points="886.5,-30 732.5,-30 732.5,0 886.5,0 886.5,-30"/>
<text text-anchor="start" x="740.5" y="-18" font-family="Helvetica,sans-Serif" font-size="10.00">/home/runner/work/doxygen</text>
<text text-anchor="middle" x="809.5" y="-7" font-family="Helvetica,sans-Serif" font-size="10.00">/doxygen/src/htmlgen.cpp</text>
</a>
</g>
</g>
<!-- Node5&#45;&gt;Node14 -->
<g id="edge16" class="edge">
<title>Node5&#45;&gt;Node14</title>
<path fill="none" stroke="#63b8ff" d="M1586.99,-141.52C1481.51,-135.24 1299.14,-121.63 1144.5,-96 1041.71,-78.96 923.64,-48.06 858.72,-30.05"/>
<polygon fill="#63b8ff" stroke="#63b8ff" points="1587.08,-145.03 1597.26,-142.12 1587.49,-138.04 1587.08,-145.03"/>
</g>
<!-- Node5&#45;&gt;Node15 -->
<g id="edge17" class="edge">
<title>Node5&#45;&gt;Node15</title>
<path fill="none" stroke="#63b8ff" d="M1586.92,-133.23C1508.32,-121.77 1393.85,-105.08 1317.13,-93.9"/>
<polygon fill="#63b8ff" stroke="#63b8ff" points="1586.88,-136.76 1597.28,-134.74 1587.89,-129.84 1586.88,-136.76"/>
</g>
<!-- Node17 -->
<g id="node17" class="node">
<title>Node17</title>
<g id="a_node17"><a xlink:href="../../d4/d42/latexgen_8cpp.html" target="_top" xlink:title=" ">
<polygon fill="white" stroke="#666666" points="1422.5,-30 1268.5,-30 1268.5,0 1422.5,0 1422.5,-30"/>
<text text-anchor="start" x="1276.5" y="-18" font-family="Helvetica,sans-Serif" font-size="10.00">/home/runner/work/doxygen</text>
<text text-anchor="middle" x="1345.5" y="-7" font-family="Helvetica,sans-Serif" font-size="10.00">/doxygen/src/latexgen.cpp</text>
</a>
</g>
</g>
<!-- Node5&#45;&gt;Node17 -->
<g id="edge22" class="edge">
<title>Node5&#45;&gt;Node17</title>
<path fill="none" stroke="#63b8ff" d="M1587.23,-142.68C1506.73,-137.77 1395.07,-125.68 1363.5,-96 1345.45,-79.03 1343.62,-48.17 1344.3,-30.14"/>
<polygon fill="#63b8ff" stroke="#63b8ff" points="1587.19,-146.18 1597.38,-143.27 1587.6,-139.2 1587.19,-146.18"/>
</g>
<!-- Node5&#45;&gt;Node19 -->
<g id="edge23" class="edge">
<title>Node5&#45;&gt;Node19</title>
<path fill="none" stroke="#63b8ff" d="M1761.91,-140.95C1881.18,-133.58 2101.47,-118.29 2288.5,-96 2291.45,-95.65 2294.45,-95.27 2297.49,-94.88"/>
<polygon fill="#63b8ff" stroke="#63b8ff" points="1761.51,-137.46 1751.74,-141.57 1761.94,-144.45 1761.51,-137.46"/>
</g>
<!-- Node22 -->
<g id="node22" class="node">
<title>Node22</title>
<g id="a_node22"><a xlink:href="../../db/d33/msc_8cpp.html" target="_top" xlink:title=" ">
<polygon fill="white" stroke="#666666" points="1923.5,-96 1769.5,-96 1769.5,-66 1923.5,-66 1923.5,-96"/>
<text text-anchor="start" x="1777.5" y="-84" font-family="Helvetica,sans-Serif" font-size="10.00">/home/runner/work/doxygen</text>
<text text-anchor="middle" x="1846.5" y="-73" font-family="Helvetica,sans-Serif" font-size="10.00">/doxygen/src/msc.cpp</text>
</a>
</g>
</g>
<!-- Node5&#45;&gt;Node22 -->
<g id="edge26" class="edge">
<title>Node5&#45;&gt;Node22</title>
<path fill="none" stroke="#63b8ff" d="M1721.65,-128.46C1749.09,-118.25 1783.21,-105.55 1808.84,-96.01"/>
<polygon fill="#63b8ff" stroke="#63b8ff" points="1720.4,-125.19 1712.25,-131.95 1722.84,-131.75 1720.4,-125.19"/>
</g>
<!-- Node23 -->
<g id="node23" class="node">
<title>Node23</title>
<g id="a_node23"><a xlink:href="../../de/dd0/perlmodgen_8cpp.html" target="_top" xlink:title=" ">
<polygon fill="white" stroke="#666666" points="2103,-96 1942,-96 1942,-66 2103,-66 2103,-96"/>
<text text-anchor="start" x="1950" y="-84" font-family="Helvetica,sans-Serif" font-size="10.00">/home/runner/work/doxygen</text>
<text text-anchor="middle" x="2022.5" y="-73" font-family="Helvetica,sans-Serif" font-size="10.00">/doxygen/src/perlmodgen.cpp</text>
</a>
</g>
</g>
<!-- Node5&#45;&gt;Node23 -->
<g id="edge27" class="edge">
<title>Node5&#45;&gt;Node23</title>
<path fill="none" stroke="#63b8ff" d="M1760.93,-130.11C1817.82,-119.64 1891.61,-106.07 1946.31,-96.01"/>
<polygon fill="#63b8ff" stroke="#63b8ff" points="1760.07,-126.7 1750.87,-131.95 1761.34,-133.59 1760.07,-126.7"/>
</g>
<!-- Node5&#45;&gt;Node24 -->
<g id="edge28" class="edge">
<title>Node5&#45;&gt;Node24</title>
<path fill="none" stroke="#63b8ff" d="M1761.91,-142.54C1908.05,-136.3 2211.11,-121.38 2466.5,-96 2474.85,-95.17 2483.57,-94.18 2492.24,-93.11"/>
<polygon fill="#63b8ff" stroke="#63b8ff" points="1761.5,-139.06 1751.66,-142.98 1761.8,-146.05 1761.5,-139.06"/>
</g>
<!-- Node5&#45;&gt;Node27 -->
<g id="edge31" class="edge">
<title>Node5&#45;&gt;Node27</title>
<path fill="none" stroke="#63b8ff" d="M1761.56,-137.13C1849.85,-127.88 1990.37,-112.45 2111.5,-96 2114.75,-95.56 2118.07,-95.09 2121.43,-94.62"/>
<polygon fill="#63b8ff" stroke="#63b8ff" points="1761.17,-133.65 1751.59,-138.17 1761.9,-140.61 1761.17,-133.65"/>
</g>
<!-- Node5&#45;&gt;Node29 -->
<g id="edge34" class="edge">
<title>Node5&#45;&gt;Node29</title>
<path fill="none" stroke="#63b8ff" d="M1762.03,-142.24C1933.54,-134.71 2325.88,-116.74 2655.5,-96 2691.08,-93.76 2730.43,-90.88 2763.83,-88.31"/>
<polygon fill="#63b8ff" stroke="#63b8ff" points="1761.63,-138.75 1751.8,-142.69 1761.94,-145.75 1761.63,-138.75"/>
</g>
<!-- Node7&#45;&gt;Node6 -->
<g id="edge8" class="edge">
<title>Node7&#45;&gt;Node6</title>
<path fill="none" stroke="#63b8ff" d="M1680.17,-55.83C1682.19,-47.17 1684.41,-37.7 1686.18,-30.16"/>
<polygon fill="#63b8ff" stroke="#63b8ff" points="1676.7,-55.26 1677.83,-65.8 1683.52,-56.86 1676.7,-55.26"/>
</g>
<!-- Node8 -->
<g id="node8" class="node">
<title>Node8</title>
<g id="a_node8"><a xlink:href="../../da/d17/docparser_8cpp.html" target="_top" xlink:title=" ">
<polygon fill="white" stroke="#666666" points="1938.5,-30 1784.5,-30 1784.5,0 1938.5,0 1938.5,-30"/>
<text text-anchor="start" x="1792.5" y="-18" font-family="Helvetica,sans-Serif" font-size="10.00">/home/runner/work/doxygen</text>
<text text-anchor="middle" x="1861.5" y="-7" font-family="Helvetica,sans-Serif" font-size="10.00">/doxygen/src/docparser.cpp</text>
</a>
</g>
</g>
<!-- Node7&#45;&gt;Node8 -->
<g id="edge9" class="edge">
<title>Node7&#45;&gt;Node8</title>
<path fill="none" stroke="#63b8ff" d="M1725.37,-62.59C1755.27,-52.36 1792.57,-39.59 1820.56,-30.01"/>
<polygon fill="#63b8ff" stroke="#63b8ff" points="1723.87,-59.41 1715.54,-65.95 1726.13,-66.03 1723.87,-59.41"/>
</g>
<!-- Node11 -->
<g id="node11" class="node">
<title>Node11</title>
<g id="a_node11"><a xlink:href="../../db/d12/context_8cpp.html" target="_top" xlink:title=" ">
<polygon fill="white" stroke="#666666" points="1058.5,-30 904.5,-30 904.5,0 1058.5,0 1058.5,-30"/>
<text text-anchor="start" x="912.5" y="-18" font-family="Helvetica,sans-Serif" font-size="10.00">/home/runner/work/doxygen</text>
<text text-anchor="middle" x="981.5" y="-7" font-family="Helvetica,sans-Serif" font-size="10.00">/doxygen/src/context.cpp</text>
</a>
</g>
</g>
<!-- Node10&#45;&gt;Node11 -->
<g id="edge12" class="edge">
<title>Node10&#45;&gt;Node11</title>
<path fill="none" stroke="#63b8ff" d="M896.67,-61.24C915.4,-51.25 938.05,-39.18 955.23,-30.01"/>
<polygon fill="#63b8ff" stroke="#63b8ff" points="895.01,-58.16 887.83,-65.95 898.31,-64.34 895.01,-58.16"/>
</g>
<!-- Node12 -->
<g id="node12" class="node">
<title>Node12</title>
<g id="a_node12"><a xlink:href="../../db/d41/ftvhelp_8cpp.html" target="_top" xlink:title=" ">
<polygon fill="white" stroke="#666666" points="524.5,-30 370.5,-30 370.5,0 524.5,0 524.5,-30"/>
<text text-anchor="start" x="378.5" y="-18" font-family="Helvetica,sans-Serif" font-size="10.00">/home/runner/work/doxygen</text>
<text text-anchor="middle" x="447.5" y="-7" font-family="Helvetica,sans-Serif" font-size="10.00">/doxygen/src/ftvhelp.cpp</text>
</a>
</g>
</g>
<!-- Node10&#45;&gt;Node12 -->
<g id="edge13" class="edge">
<title>Node10&#45;&gt;Node12</title>
<path fill="none" stroke="#63b8ff" d="M770.98,-66.45C705.1,-56.53 613.74,-42.65 533.5,-30 530.66,-29.55 527.77,-29.09 524.85,-28.63"/>
<polygon fill="#63b8ff" stroke="#63b8ff" points="770.52,-69.92 780.92,-67.95 771.56,-63 770.52,-69.92"/>
</g>
<!-- Node13 -->
<g id="node13" class="node">
<title>Node13</title>
<g id="a_node13"><a xlink:href="../../da/db0/htmldocvisitor_8cpp.html" target="_top" xlink:title=" ">
<polygon fill="white" stroke="#666666" points="714.5,-30 542.5,-30 542.5,0 714.5,0 714.5,-30"/>
<text text-anchor="start" x="550.5" y="-18" font-family="Helvetica,sans-Serif" font-size="10.00">/home/runner/work/doxygen</text>
<text text-anchor="middle" x="628.5" y="-7" font-family="Helvetica,sans-Serif" font-size="10.00">/doxygen/src/htmldocvisitor.cpp</text>
</a>
</g>
</g>
<!-- Node10&#45;&gt;Node13 -->
<g id="edge14" class="edge">
<title>Node10&#45;&gt;Node13</title>
<path fill="none" stroke="#63b8ff" d="M800.53,-63.25C762.89,-52.91 715.15,-39.8 679.51,-30.01"/>
<polygon fill="#63b8ff" stroke="#63b8ff" points="799.8,-66.68 810.37,-65.95 801.65,-59.93 799.8,-66.68"/>
</g>
<!-- Node10&#45;&gt;Node14 -->
<g id="edge15" class="edge">
<title>Node10&#45;&gt;Node14</title>
<path fill="none" stroke="#63b8ff" d="M843.47,-57.81C836.02,-48.64 827.6,-38.28 821.01,-30.16"/>
<polygon fill="#63b8ff" stroke="#63b8ff" points="840.94,-60.24 849.96,-65.8 846.37,-55.83 840.94,-60.24"/>
</g>
<!-- Node15&#45;&gt;Node11 -->
<g id="edge18" class="edge">
<title>Node15&#45;&gt;Node11</title>
<path fill="none" stroke="#63b8ff" d="M1169.82,-63.45C1128.67,-53.08 1076.21,-39.86 1037.11,-30.01"/>
<polygon fill="#63b8ff" stroke="#63b8ff" points="1169.21,-66.91 1179.76,-65.95 1170.92,-60.12 1169.21,-66.91"/>
</g>
<!-- Node16 -->
<g id="node16" class="node">
<title>Node16</title>
<g id="a_node16"><a xlink:href="../../d1/d4e/latexdocvisitor_8cpp.html" target="_top" xlink:title=" ">
<polygon fill="white" stroke="#666666" points="1250.5,-30 1076.5,-30 1076.5,0 1250.5,0 1250.5,-30"/>
<text text-anchor="start" x="1084.5" y="-18" font-family="Helvetica,sans-Serif" font-size="10.00">/home/runner/work/doxygen</text>
<text text-anchor="middle" x="1163.5" y="-7" font-family="Helvetica,sans-Serif" font-size="10.00">/doxygen/src/latexdocvisitor.cpp</text>
</a>
</g>
</g>
<!-- Node15&#45;&gt;Node16 -->
<g id="edge19" class="edge">
<title>Node15&#45;&gt;Node16</title>
<path fill="none" stroke="#63b8ff" d="M1211.79,-58.92C1201.17,-49.49 1188.93,-38.61 1179.43,-30.16"/>
<polygon fill="#63b8ff" stroke="#63b8ff" points="1209.72,-61.77 1219.52,-65.8 1214.37,-56.54 1209.72,-61.77"/>
</g>
<!-- Node15&#45;&gt;Node17 -->
<g id="edge20" class="edge">
<title>Node15&#45;&gt;Node17</title>
<path fill="none" stroke="#63b8ff" d="M1268.68,-60.69C1285.66,-50.82 1305.95,-39.01 1321.42,-30.01"/>
<polygon fill="#63b8ff" stroke="#63b8ff" points="1266.52,-57.9 1259.64,-65.95 1270.04,-63.95 1266.52,-57.9"/>
</g>
<!-- Node18 -->
<g id="node18" class="node">
<title>Node18</title>
<g id="a_node18"><a xlink:href="../../df/d2d/util_8cpp.html" target="_top" xlink:title=" ">
<polygon fill="white" stroke="#666666" points="1594.5,-30 1440.5,-30 1440.5,0 1594.5,0 1594.5,-30"/>
<text text-anchor="start" x="1448.5" y="-18" font-family="Helvetica,sans-Serif" font-size="10.00">/home/runner/work/doxygen</text>
<text text-anchor="middle" x="1517.5" y="-7" font-family="Helvetica,sans-Serif" font-size="10.00">/doxygen/src/util.cpp</text>
</a>
</g>
</g>
<!-- Node15&#45;&gt;Node18 -->
<g id="edge21" class="edge">
<title>Node15&#45;&gt;Node18</title>
<path fill="none" stroke="#63b8ff" d="M1307.26,-63.71C1353.12,-53.31 1411.99,-39.95 1455.76,-30.01"/>
<polygon fill="#63b8ff" stroke="#63b8ff" points="1306.36,-60.33 1297.39,-65.95 1307.91,-67.15 1306.36,-60.33"/>
</g>
<!-- Node20 -->
<g id="node20" class="node">
<title>Node20</title>
<g id="a_node20"><a xlink:href="../../d8/dde/mandocvisitor_8cpp.html" target="_top" xlink:title=" ">
<polygon fill="white" stroke="#666666" points="2315,-30 2144,-30 2144,0 2315,0 2315,-30"/>
<text text-anchor="start" x="2152" y="-18" font-family="Helvetica,sans-Serif" font-size="10.00">/home/runner/work/doxygen</text>
<text text-anchor="middle" x="2229.5" y="-7" font-family="Helvetica,sans-Serif" font-size="10.00">/doxygen/src/mandocvisitor.cpp</text>
</a>
</g>
</g>
<!-- Node19&#45;&gt;Node20 -->
<g id="edge24" class="edge">
<title>Node19&#45;&gt;Node20</title>
<path fill="none" stroke="#63b8ff" d="M2335.69,-61.92C2312.3,-51.8 2283.58,-39.38 2261.9,-30.01"/>
<polygon fill="#63b8ff" stroke="#63b8ff" points="2334.45,-65.2 2345.02,-65.95 2337.23,-58.77 2334.45,-65.2"/>
</g>
<!-- Node21 -->
<g id="node21" class="node">
<title>Node21</title>
<g id="a_node21"><a xlink:href="../../d7/de7/mangen_8cpp.html" target="_top" xlink:title=" ">
<polygon fill="white" stroke="#666666" points="2487.5,-30 2333.5,-30 2333.5,0 2487.5,0 2487.5,-30"/>
<text text-anchor="start" x="2341.5" y="-18" font-family="Helvetica,sans-Serif" font-size="10.00">/home/runner/work/doxygen</text>
<text text-anchor="middle" x="2410.5" y="-7" font-family="Helvetica,sans-Serif" font-size="10.00">/doxygen/src/mangen.cpp</text>
</a>
</g>
</g>
<!-- Node19&#45;&gt;Node21 -->
<g id="edge25" class="edge">
<title>Node19&#45;&gt;Node21</title>
<path fill="none" stroke="#63b8ff" d="M2389.52,-56.68C2394.11,-47.79 2399.18,-37.95 2403.2,-30.16"/>
<polygon fill="#63b8ff" stroke="#63b8ff" points="2386.3,-55.3 2384.82,-65.8 2392.52,-58.51 2386.3,-55.3"/>
</g>
<!-- Node25 -->
<g id="node25" class="node">
<title>Node25</title>
<g id="a_node25"><a xlink:href="../../de/d9a/rtfdocvisitor_8cpp.html" target="_top" xlink:title=" ">
<polygon fill="white" stroke="#666666" points="2667,-30 2506,-30 2506,0 2667,0 2667,-30"/>
<text text-anchor="start" x="2514" y="-18" font-family="Helvetica,sans-Serif" font-size="10.00">/home/runner/work/doxygen</text>
<text text-anchor="middle" x="2586.5" y="-7" font-family="Helvetica,sans-Serif" font-size="10.00">/doxygen/src/rtfdocvisitor.cpp</text>
</a>
</g>
</g>
<!-- Node24&#45;&gt;Node25 -->
<g id="edge29" class="edge">
<title>Node24&#45;&gt;Node25</title>
<path fill="none" stroke="#63b8ff" d="M2575.85,-56.11C2578.17,-47.38 2580.71,-37.78 2582.74,-30.16"/>
<polygon fill="#63b8ff" stroke="#63b8ff" points="2572.46,-55.23 2573.27,-65.8 2579.22,-57.03 2572.46,-55.23"/>
</g>
<!-- Node26 -->
<g id="node26" class="node">
<title>Node26</title>
<g id="a_node26"><a xlink:href="../../d0/d9c/rtfgen_8cpp.html" target="_top" xlink:title=" ">
<polygon fill="white" stroke="#666666" points="2839.5,-30 2685.5,-30 2685.5,0 2839.5,0 2839.5,-30"/>
<text text-anchor="start" x="2693.5" y="-18" font-family="Helvetica,sans-Serif" font-size="10.00">/home/runner/work/doxygen</text>
<text text-anchor="middle" x="2762.5" y="-7" font-family="Helvetica,sans-Serif" font-size="10.00">/doxygen/src/rtfgen.cpp</text>
</a>
</g>
</g>
<!-- Node24&#45;&gt;Node26 -->
<g id="edge30" class="edge">
<title>Node24&#45;&gt;Node26</title>
<path fill="none" stroke="#63b8ff" d="M2621.6,-62.72C2652.52,-52.47 2691.23,-39.63 2720.24,-30.01"/>
<polygon fill="#63b8ff" stroke="#63b8ff" points="2620.24,-59.49 2611.85,-65.95 2622.45,-66.13 2620.24,-59.49"/>
</g>
<!-- Node27&#45;&gt;Node18 -->
<g id="edge33" class="edge">
<title>Node27&#45;&gt;Node18</title>
<path fill="none" stroke="#63b8ff" d="M2111.81,-66.03C2111.7,-66.02 2111.6,-66.01 2111.5,-66 1886.61,-40.39 1828.32,-56.21 1603.5,-30 1600.65,-29.67 1597.74,-29.31 1594.81,-28.92"/>
<polygon fill="#63b8ff" stroke="#63b8ff" points="2111.1,-69.47 2121.45,-67.21 2111.94,-62.53 2111.1,-69.47"/>
</g>
<!-- Node28 -->
<g id="node28" class="node">
<title>Node28</title>
<g id="a_node28"><a xlink:href="../../d3/da6/textdocvisitor_8cpp.html" target="_top" xlink:title=" ">
<polygon fill="white" stroke="#666666" points="2126,-30 1957,-30 1957,0 2126,0 2126,-30"/>
<text text-anchor="start" x="1965" y="-18" font-family="Helvetica,sans-Serif" font-size="10.00">/home/runner/work/doxygen</text>
<text text-anchor="middle" x="2041.5" y="-7" font-family="Helvetica,sans-Serif" font-size="10.00">/doxygen/src/textdocvisitor.cpp</text>
</a>
</g>
</g>
<!-- Node27&#45;&gt;Node28 -->
<g id="edge32" class="edge">
<title>Node27&#45;&gt;Node28</title>
<path fill="none" stroke="#63b8ff" d="M2156.25,-62.19C2131,-52.02 2099.8,-39.47 2076.31,-30.01"/>
<polygon fill="#63b8ff" stroke="#63b8ff" points="2155.02,-65.47 2165.61,-65.95 2157.64,-58.97 2155.02,-65.47"/>
</g>
<!-- Node30 -->
<g id="node30" class="node">
<title>Node30</title>
<g id="a_node30"><a xlink:href="../../dd/db6/xmldocvisitor_8cpp.html" target="_top" xlink:title=" ">
<polygon fill="white" stroke="#666666" points="3025.5,-30 2857.5,-30 2857.5,0 3025.5,0 3025.5,-30"/>
<text text-anchor="start" x="2865.5" y="-18" font-family="Helvetica,sans-Serif" font-size="10.00">/home/runner/work/doxygen</text>
<text text-anchor="middle" x="2941.5" y="-7" font-family="Helvetica,sans-Serif" font-size="10.00">/doxygen/src/xmldocvisitor.cpp</text>
</a>
</g>
</g>
<!-- Node29&#45;&gt;Node30 -->
<g id="edge35" class="edge">
<title>Node29&#45;&gt;Node30</title>
<path fill="none" stroke="#63b8ff" d="M2872.97,-60.3C2888.04,-50.56 2905.89,-39.02 2919.59,-30.16"/>
<polygon fill="#63b8ff" stroke="#63b8ff" points="2870.97,-57.43 2864.47,-65.8 2874.77,-63.31 2870.97,-57.43"/>
</g>
<!-- Node31 -->
<g id="node31" class="node">
<title>Node31</title>
<g id="a_node31"><a xlink:href="../../d0/dc3/xmlgen_8cpp.html" target="_top" xlink:title=" ">
<polygon fill="white" stroke="#666666" points="3197.5,-30 3043.5,-30 3043.5,0 3197.5,0 3197.5,-30"/>
<text text-anchor="start" x="3051.5" y="-18" font-family="Helvetica,sans-Serif" font-size="10.00">/home/runner/work/doxygen</text>
<text text-anchor="middle" x="3120.5" y="-7" font-family="Helvetica,sans-Serif" font-size="10.00">/doxygen/src/xmlgen.cpp</text>
</a>
</g>
</g>
<!-- Node29&#45;&gt;Node31 -->
<g id="edge36" class="edge">
<title>Node29&#45;&gt;Node31</title>
<path fill="none" stroke="#63b8ff" d="M2913.53,-63.65C2958.7,-53.25 3016.57,-39.93 3059.63,-30.01"/>
<polygon fill="#63b8ff" stroke="#63b8ff" points="2912.47,-60.3 2903.51,-65.95 2914.04,-67.12 2912.47,-60.3"/>
</g>
</g>
</svg>
        <g id="navigator" transform="translate(0 0)" fill="#404254">
                <rect fill="#f2f5e9" fill-opacity="0.5" stroke="#606060" stroke-width=".5" x="0" y="0" width="60" height="60"/>
                <use id="zoomplus" xlink:href="#zoomPlus" x="17" y="9" onmousedown="handleZoom(evt,'in')"/>
                <use id="zoomminus" xlink:href="#zoomMin" x="42" y="9" onmousedown="handleZoom(evt,'out')"/>
                <use id="reset" xlink:href="#resetDef" x="30" y="36" onmousedown="handleReset()"/>
                <g id="arrowUp" xlink:href="#dirArrow" transform="translate(30 24)" onmousedown="handlePan(0,-1)">
                  <use xlink:href="#rim" fill="#404040">
                        <set attributeName="fill" to="#808080" begin="arrowUp.mouseover" end="arrowUp.mouseout"/>
                  </use>
                  <path fill="none" stroke="white" stroke-width="1.5" d="M0,-3.0v7 M-2.5,-0.5L0,-3.0L2.5,-0.5"/>
                </g>
                <g id="arrowRight" xlink:href="#dirArrow" transform="rotate(90) translate(36 -43)" onmousedown="handlePan(1,0)">
                  <use xlink:href="#rim" fill="#404040">
                        <set attributeName="fill" to="#808080" begin="arrowRight.mouseover" end="arrowRight.mouseout"/>
                  </use>
                  <path fill="none" stroke="white" stroke-width="1.5" d="M0,-3.0v7 M-2.5,-0.5L0,-3.0L2.5,-0.5"/>
                </g>
                <g id="arrowDown" xlink:href="#dirArrow" transform="rotate(180) translate(-30 -48)" onmousedown="handlePan(0,1)">
                  <use xlink:href="#rim" fill="#404040">
                        <set attributeName="fill" to="#808080" begin="arrowDown.mouseover" end="arrowDown.mouseout"/>
                  </use>
                  <path fill="none" stroke="white" stroke-width="1.5" d="M0,-3.0v7 M-2.5,-0.5L0,-3.0L2.5,-0.5"/>
                </g>
                <g id="arrowLeft" xlink:href="#dirArrow" transform="rotate(270) translate(-36 17)" onmousedown="handlePan(-1,0)">
                  <use xlink:href="#rim" fill="#404040">
                        <set attributeName="fill" to="#808080" begin="arrowLeft.mouseover" end="arrowLeft.mouseout"/>
                  </use>
                  <path fill="none" stroke="white" stroke-width="1.5" d="M0,-3.0v7 M-2.5,-0.5L0,-3.0L2.5,-0.5"/>
                </g>
        </g>
        <svg viewBox="0 0 15 15" width="100%" height="30px" preserveAspectRatio="xMaxYMin meet">
         <g id="arrow_out" transform="scale(0.3 0.3)">
          <a xlink:href="docvisitor_8h__dep__incl_org.svg" target="_base">
           <rect id="button" ry="5" rx="5" y="6" x="6" height="38" width="38"
                fill="#f2f5e9" fill-opacity="0.5" stroke="#606060" stroke-width="1.0"/>
           <path id="arrow"
             d="M 11.500037,31.436501 C 11.940474,20.09759 22.043105,11.32322 32.158766,21.979434 L 37.068811,17.246167 C 37.068811,17.246167 37.088388,32 37.088388,32 L 22.160133,31.978069 C 22.160133,31.978069 26.997745,27.140456 26.997745,27.140456 C 18.528582,18.264221 13.291696,25.230495 11.500037,31.436501 z"
             style="fill:#404040;"/>
          </a>
         </g>
        </svg>
</svg>
