<?xml version="1.0" encoding="UTF-8" standalone="no"?>
<!DOCTYPE svg PUBLIC "-//W3C//DTD SVG 1.1//EN"
 "http://www.w3.org/Graphics/SVG/1.1/DTD/svg11.dtd">
<!-- Generated by graphviz version 2.43.0 (0)
 -->
<!-- Title: /home/runner/work/doxygen/doxygen/src/searchindex_js.h Pages: 1 -->
<svg width="546pt" height="203pt"
 viewBox="0.00 0.00 545.64 203.00" xmlns="http://www.w3.org/2000/svg" xmlns:xlink="http://www.w3.org/1999/xlink">
<g id="graph0" class="graph" transform="scale(1 1) rotate(0) translate(4 199)">
<title>/home/runner/work/doxygen/doxygen/src/searchindex_js.h</title>
<!-- Node1 -->
<g id="node1" class="node">
<title>Node1</title>
<g id="a_node1"><a xlink:title="Javascript based search engine.">
<polygon fill="#999999" stroke="#666666" points="338.64,-195 174.64,-195 174.64,-165 338.64,-165 338.64,-195"/>
<text text-anchor="start" x="182.64" y="-183" font-family="Helvetica,sans-Serif" font-size="10.00">/home/runner/work/doxygen</text>
<text text-anchor="middle" x="256.64" y="-172" font-family="Helvetica,sans-Serif" font-size="10.00">/doxygen/src/searchindex_js.h</text>
</a>
</g>
</g>
<!-- Node2 -->
<g id="node2" class="node">
<title>Node2</title>
<g id="a_node2"><a xlink:title=" ">
<polygon fill="#e0e0e0" stroke="#999999" points="118.64,-129 76.64,-129 76.64,-110 118.64,-110 118.64,-129"/>
<text text-anchor="middle" x="97.64" y="-117" font-family="Helvetica,sans-Serif" font-size="10.00">array</text>
</a>
</g>
</g>
<!-- Node1&#45;&gt;Node2 -->
<g id="edge1" class="edge">
<title>Node1&#45;&gt;Node2</title>
<path fill="none" stroke="#63b8ff" d="M218.55,-164.99C190.98,-154.84 154.18,-141.3 128.44,-131.84"/>
<polygon fill="#63b8ff" stroke="#63b8ff" points="129.42,-128.47 118.83,-128.3 127.01,-135.04 129.42,-128.47"/>
</g>
<!-- Node3 -->
<g id="node3" class="node">
<title>Node3</title>
<g id="a_node3"><a xlink:title=" ">
<polygon fill="#e0e0e0" stroke="#999999" points="184.14,-129 137.14,-129 137.14,-110 184.14,-110 184.14,-129"/>
<text text-anchor="middle" x="160.64" y="-117" font-family="Helvetica,sans-Serif" font-size="10.00">vector</text>
</a>
</g>
</g>
<!-- Node1&#45;&gt;Node3 -->
<g id="edge2" class="edge">
<title>Node1&#45;&gt;Node3</title>
<path fill="none" stroke="#63b8ff" d="M233.4,-164.84C218.23,-155.6 198.53,-143.59 183.45,-134.4"/>
<polygon fill="#63b8ff" stroke="#63b8ff" points="185.1,-131.31 174.74,-129.09 181.46,-137.29 185.1,-131.31"/>
</g>
<!-- Node4 -->
<g id="node4" class="node">
<title>Node4</title>
<g id="a_node4"><a xlink:title=" ">
<polygon fill="#e0e0e0" stroke="#999999" points="240.64,-129 202.64,-129 202.64,-110 240.64,-110 240.64,-129"/>
<text text-anchor="middle" x="221.64" y="-117" font-family="Helvetica,sans-Serif" font-size="10.00">map</text>
</a>
</g>
</g>
<!-- Node1&#45;&gt;Node4 -->
<g id="edge3" class="edge">
<title>Node1&#45;&gt;Node4</title>
<path fill="none" stroke="#63b8ff" d="M248.16,-164.84C243.34,-156.78 237.26,-146.62 232.14,-138.06"/>
<polygon fill="#63b8ff" stroke="#63b8ff" points="235.02,-136.05 226.88,-129.27 229.01,-139.64 235.02,-136.05"/>
</g>
<!-- Node5 -->
<g id="node5" class="node">
<title>Node5</title>
<g id="a_node5"><a xlink:title=" ">
<polygon fill="#e0e0e0" stroke="#999999" points="537.64,-19 493.64,-19 493.64,0 537.64,0 537.64,-19"/>
<text text-anchor="middle" x="515.64" y="-7" font-family="Helvetica,sans-Serif" font-size="10.00">string</text>
</a>
</g>
</g>
<!-- Node1&#45;&gt;Node5 -->
<g id="edge4" class="edge">
<title>Node1&#45;&gt;Node5</title>
<path fill="none" stroke="#63b8ff" d="M338.79,-171.37C400.25,-160.71 479.65,-135.16 515.64,-74 523.59,-60.49 522.7,-42.4 520.35,-28.98"/>
<polygon fill="#63b8ff" stroke="#63b8ff" points="523.73,-28.05 518.19,-19.02 516.89,-29.53 523.73,-28.05"/>
</g>
<!-- Node6 -->
<g id="node6" class="node">
<title>Node6</title>
<g id="a_node6"><a xlink:title=" ">
<polygon fill="#e0e0e0" stroke="#999999" points="407.14,-129 342.14,-129 342.14,-110 407.14,-110 407.14,-129"/>
<text text-anchor="middle" x="374.64" y="-117" font-family="Helvetica,sans-Serif" font-size="10.00">functional</text>
</a>
</g>
</g>
<!-- Node1&#45;&gt;Node6 -->
<g id="edge5" class="edge">
<title>Node1&#45;&gt;Node6</title>
<path fill="none" stroke="#63b8ff" d="M284.9,-164.99C304.06,-155.49 329.22,-143.02 348.02,-133.69"/>
<polygon fill="#63b8ff" stroke="#63b8ff" points="349.81,-136.72 357.21,-129.14 346.7,-130.45 349.81,-136.72"/>
</g>
<!-- Node7 -->
<g id="node7" class="node">
<title>Node7</title>
<g id="a_node7"><a xlink:href="../../d7/d5c/qcstring_8h.html" target="_top" xlink:title=" ">
<polygon fill="white" stroke="#666666" points="324.14,-129 259.14,-129 259.14,-110 324.14,-110 324.14,-129"/>
<text text-anchor="middle" x="291.64" y="-117" font-family="Helvetica,sans-Serif" font-size="10.00">qcstring.h</text>
</a>
</g>
</g>
<!-- Node1&#45;&gt;Node7 -->
<g id="edge6" class="edge">
<title>Node1&#45;&gt;Node7</title>
<path fill="none" stroke="#63b8ff" d="M265.11,-164.84C269.93,-156.78 276.01,-146.62 281.13,-138.06"/>
<polygon fill="#63b8ff" stroke="#63b8ff" points="284.26,-139.64 286.39,-129.27 278.25,-136.05 284.26,-139.64"/>
</g>
<!-- Node7&#45;&gt;Node5 -->
<g id="edge7" class="edge">
<title>Node7&#45;&gt;Node5</title>
<path fill="none" stroke="#63b8ff" d="M324.4,-111.83C381.49,-100.15 493.45,-76.95 496.64,-74 508.9,-62.65 513.36,-43.75 514.93,-29.51"/>
<polygon fill="#63b8ff" stroke="#63b8ff" points="518.44,-29.55 515.66,-19.33 511.45,-29.05 518.44,-29.55"/>
</g>
<!-- Node8 -->
<g id="node8" class="node">
<title>Node8</title>
<g id="a_node8"><a xlink:title=" ">
<polygon fill="#e0e0e0" stroke="#999999" points="81.64,-74 17.64,-74 17.64,-55 81.64,-55 81.64,-74"/>
<text text-anchor="middle" x="49.64" y="-62" font-family="Helvetica,sans-Serif" font-size="10.00">algorithm</text>
</a>
</g>
</g>
<!-- Node7&#45;&gt;Node8 -->
<g id="edge8" class="edge">
<title>Node7&#45;&gt;Node8</title>
<path fill="none" stroke="#63b8ff" d="M259,-111.35C215.73,-101.88 139.31,-85.14 91.74,-74.72"/>
<polygon fill="#63b8ff" stroke="#63b8ff" points="92.27,-71.26 81.76,-72.53 90.78,-78.09 92.27,-71.26"/>
</g>
<!-- Node9 -->
<g id="node9" class="node">
<title>Node9</title>
<g id="a_node9"><a xlink:title=" ">
<polygon fill="#e0e0e0" stroke="#999999" points="149.14,-74 100.14,-74 100.14,-55 149.14,-55 149.14,-74"/>
<text text-anchor="middle" x="124.64" y="-62" font-family="Helvetica,sans-Serif" font-size="10.00">cctype</text>
</a>
</g>
</g>
<!-- Node7&#45;&gt;Node9 -->
<g id="edge9" class="edge">
<title>Node7&#45;&gt;Node9</title>
<path fill="none" stroke="#63b8ff" d="M264.81,-109.98C236.02,-100.85 190.22,-86.31 158.86,-76.36"/>
<polygon fill="#63b8ff" stroke="#63b8ff" points="159.81,-72.99 149.22,-73.3 157.7,-79.66 159.81,-72.99"/>
</g>
<!-- Node10 -->
<g id="node10" class="node">
<title>Node10</title>
<g id="a_node10"><a xlink:title=" ">
<polygon fill="#e0e0e0" stroke="#999999" points="217.64,-74 167.64,-74 167.64,-55 217.64,-55 217.64,-74"/>
<text text-anchor="middle" x="192.64" y="-62" font-family="Helvetica,sans-Serif" font-size="10.00">cstring</text>
</a>
</g>
</g>
<!-- Node7&#45;&gt;Node10 -->
<g id="edge10" class="edge">
<title>Node7&#45;&gt;Node10</title>
<path fill="none" stroke="#63b8ff" d="M275.73,-109.98C260.09,-101.61 235.98,-88.7 217.75,-78.95"/>
<polygon fill="#63b8ff" stroke="#63b8ff" points="219.3,-75.8 208.83,-74.17 216,-81.98 219.3,-75.8"/>
</g>
<!-- Node11 -->
<g id="node11" class="node">
<title>Node11</title>
<g id="a_node11"><a xlink:title=" ">
<polygon fill="#e0e0e0" stroke="#999999" points="281.64,-74 235.64,-74 235.64,-55 281.64,-55 281.64,-74"/>
<text text-anchor="middle" x="258.64" y="-62" font-family="Helvetica,sans-Serif" font-size="10.00">cstdio</text>
</a>
</g>
</g>
<!-- Node7&#45;&gt;Node11 -->
<g id="edge11" class="edge">
<title>Node7&#45;&gt;Node11</title>
<path fill="none" stroke="#63b8ff" d="M286.19,-109.75C281.62,-102.42 274.97,-91.73 269.34,-82.7"/>
<polygon fill="#63b8ff" stroke="#63b8ff" points="272.24,-80.73 263.98,-74.09 266.3,-84.43 272.24,-80.73"/>
</g>
<!-- Node12 -->
<g id="node12" class="node">
<title>Node12</title>
<g id="a_node12"><a xlink:title=" ">
<polygon fill="#e0e0e0" stroke="#999999" points="349.14,-74 300.14,-74 300.14,-55 349.14,-55 349.14,-74"/>
<text text-anchor="middle" x="324.64" y="-62" font-family="Helvetica,sans-Serif" font-size="10.00">cstdlib</text>
</a>
</g>
</g>
<!-- Node7&#45;&gt;Node12 -->
<g id="edge12" class="edge">
<title>Node7&#45;&gt;Node12</title>
<path fill="none" stroke="#63b8ff" d="M297.09,-109.75C301.65,-102.42 308.3,-91.73 313.93,-82.7"/>
<polygon fill="#63b8ff" stroke="#63b8ff" points="316.97,-84.43 319.29,-74.09 311.03,-80.73 316.97,-84.43"/>
</g>
<!-- Node13 -->
<g id="node13" class="node">
<title>Node13</title>
<g id="a_node13"><a xlink:title=" ">
<polygon fill="#e0e0e0" stroke="#999999" points="214.64,-19 164.64,-19 164.64,0 214.64,0 214.64,-19"/>
<text text-anchor="middle" x="189.64" y="-7" font-family="Helvetica,sans-Serif" font-size="10.00">cstdint</text>
</a>
</g>
</g>
<!-- Node7&#45;&gt;Node13 -->
<g id="edge13" class="edge">
<title>Node7&#45;&gt;Node13</title>
<path fill="none" stroke="#63b8ff" d="M259.11,-111.75C255.91,-111.13 252.71,-110.54 249.64,-110 196.3,-100.63 43.98,-115.02 8.64,-74 -33.27,-25.37 90.56,-13.97 154.29,-11.31"/>
<polygon fill="#63b8ff" stroke="#63b8ff" points="154.48,-14.8 164.34,-10.94 154.22,-7.81 154.48,-14.8"/>
</g>
<!-- Node14 -->
<g id="node14" class="node">
<title>Node14</title>
<g id="a_node14"><a xlink:title=" ">
<polygon fill="#e0e0e0" stroke="#999999" points="487.14,-74 430.14,-74 430.14,-55 487.14,-55 487.14,-74"/>
<text text-anchor="middle" x="458.64" y="-62" font-family="Helvetica,sans-Serif" font-size="10.00">ostream</text>
</a>
</g>
</g>
<!-- Node7&#45;&gt;Node14 -->
<g id="edge14" class="edge">
<title>Node7&#45;&gt;Node14</title>
<path fill="none" stroke="#63b8ff" d="M318.47,-109.98C346.51,-101.09 390.68,-87.07 421.94,-77.15"/>
<polygon fill="#63b8ff" stroke="#63b8ff" points="423.12,-80.44 431.59,-74.08 421,-73.77 423.12,-80.44"/>
</g>
<!-- Node15 -->
<g id="node15" class="node">
<title>Node15</title>
<g id="a_node15"><a xlink:href="../../db/d7c/utf8_8h.html" target="_top" xlink:title="Various UTF8 related helper functions.">
<polygon fill="white" stroke="#666666" points="412.14,-74 367.14,-74 367.14,-55 412.14,-55 412.14,-74"/>
<text text-anchor="middle" x="389.64" y="-62" font-family="Helvetica,sans-Serif" font-size="10.00">utf8.h</text>
</a>
</g>
</g>
<!-- Node7&#45;&gt;Node15 -->
<g id="edge15" class="edge">
<title>Node7&#45;&gt;Node15</title>
<path fill="none" stroke="#63b8ff" d="M307.38,-109.98C322.86,-101.61 346.73,-88.7 364.77,-78.95"/>
<polygon fill="#63b8ff" stroke="#63b8ff" points="366.47,-82.01 373.6,-74.17 363.14,-75.85 366.47,-82.01"/>
</g>
<!-- Node15&#45;&gt;Node5 -->
<g id="edge17" class="edge">
<title>Node15&#45;&gt;Node5</title>
<path fill="none" stroke="#63b8ff" d="M409.88,-54.98C430.33,-46.38 462.17,-32.99 485.57,-23.15"/>
<polygon fill="#63b8ff" stroke="#63b8ff" points="487.16,-26.27 495.02,-19.17 484.45,-19.82 487.16,-26.27"/>
</g>
<!-- Node15&#45;&gt;Node13 -->
<g id="edge16" class="edge">
<title>Node15&#45;&gt;Node13</title>
<path fill="none" stroke="#63b8ff" d="M366.96,-57.25C364.16,-56.49 361.33,-55.72 358.64,-55 312.43,-42.58 259.03,-28.58 224.82,-19.65"/>
<polygon fill="#63b8ff" stroke="#63b8ff" points="225.41,-16.19 214.85,-17.05 223.65,-22.96 225.41,-16.19"/>
</g>
</g>
</svg>
