<?xml version="1.0" encoding="UTF-8" standalone="no"?>
<!DOCTYPE svg PUBLIC "-//W3C//DTD SVG 1.1//EN"
 "http://www.w3.org/Graphics/SVG/1.1/DTD/svg11.dtd">
<!-- Generated by graphviz version 2.43.0 (0)
 -->
<!-- Title: DocLinkedWord Pages: 1 -->
<!--zoomable 339 -->
<svg id="main" version="1.1" xmlns="http://www.w3.org/2000/svg" xmlns:xlink="http://www.w3.org/1999/xlink" xml:space="preserve" onload="init(evt)">
<style type="text/css"><![CDATA[
.edge:hover path { stroke: red; }
.edge:hover polygon { stroke: red; fill: red; }
]]></style>
<script type="text/javascript"><![CDATA[
var edges = document.getElementsByTagName('g');
if (edges && edges.length) {
  for (var i=0;i<edges.length;i++) {
    if (edges[i].id.substr(0,4)=='edge') {
      edges[i].setAttribute('class','edge');
    }
  }
}
]]></script>
        <defs>
                <circle id="rim" cx="0" cy="0" r="7"/>
                <circle id="rim2" cx="0" cy="0" r="3.5"/>
                <g id="zoomPlus">
                        <use xlink:href="#rim" fill="#404040">
                                <set attributeName="fill" to="#808080" begin="zoomplus.mouseover" end="zoomplus.mouseout"/>
                        </use>
                        <path d="M-4,0h8M0,-4v8" fill="none" stroke="white" stroke-width="1.5" pointer-events="none"/>
                </g>
                <g id="zoomMin">
                        <use xlink:href="#rim" fill="#404040">
                                <set attributeName="fill" to="#808080" begin="zoomminus.mouseover" end="zoomminus.mouseout"/>
                        </use>
                        <path d="M-4,0h8" fill="none" stroke="white" stroke-width="1.5" pointer-events="none"/>
                </g>
                <g id="dirArrow">
                        <path fill="none" stroke="white" stroke-width="1.5" d="M0,-3.0v7 M-2.5,-0.5L0,-3.0L2.5,-0.5"/>
                </g>
               <g id="resetDef">
                       <use xlink:href="#rim2" fill="#404040">
                               <set attributeName="fill" to="#808080" begin="reset.mouseover" end="reset.mouseout"/>
                       </use>
               </g>
        </defs>

<script type="text/javascript">
var viewWidth = 1309;
var viewHeight = 339;
var sectionId = 'dynsection-1';
</script>
<script xlink:href="../../svgpan.js"/>
<svg id="graph" class="graph">
<g id="viewport">
<title>DocLinkedWord</title>
<!-- Node1 -->
<g id="node1" class="node">
<title>Node1</title>
<g id="a_node1"><a xlink:title="Node representing a word that can be linked to something.">
<polygon fill="#999999" stroke="#666666" points="1301,-35.5 1209,-35.5 1209,-16.5 1301,-16.5 1301,-35.5"/>
<text text-anchor="middle" x="1255" y="-23.5" font-family="Helvetica,sans-Serif" font-size="10.00">DocLinkedWord</text>
</a>
</g>
</g>
<!-- Node2 -->
<g id="node2" class="node">
<title>Node2</title>
<g id="a_node2"><a xlink:href="../../d9/d0e/class_doc_node.html" target="_top" xlink:title="Abstract node interface with type information.">
<polygon fill="white" stroke="#666666" points="1172,-90.5 1111,-90.5 1111,-71.5 1172,-71.5 1172,-90.5"/>
<text text-anchor="middle" x="1141.5" y="-78.5" font-family="Helvetica,sans-Serif" font-size="10.00">DocNode</text>
</a>
</g>
</g>
<!-- Node2&#45;&gt;Node1 -->
<g id="edge1" class="edge">
<title>Node2&#45;&gt;Node1</title>
<path fill="none" stroke="#63b8ff" d="M1171.12,-66.88C1190.97,-57.09 1216.9,-44.3 1234.43,-35.66"/>
<polygon fill="#63b8ff" stroke="#63b8ff" points="1169.34,-63.86 1161.92,-71.42 1172.44,-70.13 1169.34,-63.86"/>
</g>
<!-- Node3 -->
<g id="node3" class="node">
<title>Node3</title>
<g id="a_node3"><a xlink:href="../../da/d02/class_doc_parser.html" target="_top" xlink:title=" ">
<polygon fill="white" stroke="#666666" points="1026,-133.5 961,-133.5 961,-114.5 1026,-114.5 1026,-133.5"/>
<text text-anchor="middle" x="993.5" y="-121.5" font-family="Helvetica,sans-Serif" font-size="10.00">DocParser</text>
</a>
</g>
</g>
<!-- Node3&#45;&gt;Node2 -->
<g id="edge2" class="edge">
<title>Node3&#45;&gt;Node2</title>
<path fill="none" stroke="#9a32cd" stroke-dasharray="5,2" d="M1036.03,-111.77C1059.91,-104.74 1089.34,-96.07 1110.87,-89.73"/>
<polygon fill="#9a32cd" stroke="#9a32cd" points="1034.78,-108.49 1026.18,-114.67 1036.76,-115.2 1034.78,-108.49"/>
<text text-anchor="middle" x="1068.5" y="-111" font-family="Helvetica,sans-Serif" font-size="10.00" fill="grey"> m_parser</text>
</g>
<!-- Node4 -->
<g id="node4" class="node">
<title>Node4</title>
<g id="a_node4"><a xlink:href="../../de/dad/class_i_doc_parser.html" target="_top" xlink:title="opaque parser interface">
<polygon fill="white" stroke="#666666" points="848,-96.5 780,-96.5 780,-77.5 848,-77.5 848,-96.5"/>
<text text-anchor="middle" x="814" y="-84.5" font-family="Helvetica,sans-Serif" font-size="10.00">IDocParser</text>
</a>
</g>
</g>
<!-- Node4&#45;&gt;Node3 -->
<g id="edge3" class="edge">
<title>Node4&#45;&gt;Node3</title>
<path fill="none" stroke="#63b8ff" d="M858.26,-96.02C889.93,-102.62 932.18,-111.43 960.76,-117.38"/>
<polygon fill="#63b8ff" stroke="#63b8ff" points="858.89,-92.57 848.39,-93.96 857.46,-99.43 858.89,-92.57"/>
</g>
<!-- Node5 -->
<g id="node5" class="node">
<title>Node5</title>
<g id="a_node5"><a xlink:href="../../d8/d7d/struct_doc_parser_context.html" target="_top" xlink:title="Parser&#39;s context to store all global variables.">
<polygon fill="white" stroke="#666666" points="866,-220.5 762,-220.5 762,-201.5 866,-201.5 866,-220.5"/>
<text text-anchor="middle" x="814" y="-208.5" font-family="Helvetica,sans-Serif" font-size="10.00">DocParserContext</text>
</a>
</g>
</g>
<!-- Node5&#45;&gt;Node3 -->
<g id="edge4" class="edge">
<title>Node5&#45;&gt;Node3</title>
<path fill="none" stroke="#9a32cd" stroke-dasharray="5,2" d="M861.42,-198.58C886.5,-190.84 917.47,-179.56 943,-165 958.31,-156.26 973.58,-142.69 983.02,-133.58"/>
<polygon fill="#9a32cd" stroke="#9a32cd" points="860.35,-195.25 851.77,-201.48 862.36,-201.96 860.35,-195.25"/>
<text text-anchor="middle" x="913.5" y="-193" font-family="Helvetica,sans-Serif" font-size="10.00" fill="grey"> context</text>
</g>
<!-- Node6 -->
<g id="node6" class="node">
<title>Node6</title>
<g id="a_node6"><a xlink:href="../../d5/dcc/class_definition.html" target="_top" xlink:title="The common base class of all entity definitions found in the sources.">
<polygon fill="white" stroke="#666666" points="294.5,-330.5 230.5,-330.5 230.5,-311.5 294.5,-311.5 294.5,-330.5"/>
<text text-anchor="middle" x="262.5" y="-318.5" font-family="Helvetica,sans-Serif" font-size="10.00">Definition</text>
</a>
</g>
</g>
<!-- Node6&#45;&gt;Node5 -->
<g id="edge5" class="edge">
<title>Node6&#45;&gt;Node5</title>
<path fill="none" stroke="#9a32cd" stroke-dasharray="5,2" d="M304.92,-322.93C375.03,-325.45 521.33,-327.48 643,-308 688.77,-300.67 703.91,-305.27 744,-282 771.35,-266.13 795.03,-236.39 806.19,-220.92"/>
<polygon fill="#9a32cd" stroke="#9a32cd" points="304.87,-319.42 294.74,-322.54 304.6,-326.42 304.87,-319.42"/>
<text text-anchor="middle" x="583.5" y="-323" font-family="Helvetica,sans-Serif" font-size="10.00" fill="grey"> scope</text>
</g>
<!-- Node12 -->
<g id="node12" class="node">
<title>Node12</title>
<g id="a_node12"><a xlink:href="../../da/d09/class_member_def.html" target="_top" xlink:title="A model of a class/file/namespace member symbol.">
<polygon fill="white" stroke="#666666" points="620.5,-298.5 546.5,-298.5 546.5,-279.5 620.5,-279.5 620.5,-298.5"/>
<text text-anchor="middle" x="583.5" y="-286.5" font-family="Helvetica,sans-Serif" font-size="10.00">MemberDef</text>
</a>
</g>
</g>
<!-- Node6&#45;&gt;Node12 -->
<g id="edge12" class="edge">
<title>Node6&#45;&gt;Node12</title>
<path fill="none" stroke="#63b8ff" d="M304.63,-316.87C367.53,-310.56 486.58,-298.62 546.35,-292.63"/>
<polygon fill="#63b8ff" stroke="#63b8ff" points="304.27,-313.39 294.67,-317.87 304.97,-320.36 304.27,-313.39"/>
</g>
<!-- Node7 -->
<g id="node7" class="node">
<title>Node7</title>
<g id="a_node7"><a xlink:href="../../d9/d45/class_q_c_string.html" target="_top" xlink:title="This is an alternative implementation of QCString.">
<polygon fill="white" stroke="#666666" points="292,-42.5 233,-42.5 233,-23.5 292,-23.5 292,-42.5"/>
<text text-anchor="middle" x="262.5" y="-30.5" font-family="Helvetica,sans-Serif" font-size="10.00">QCString</text>
</a>
</g>
</g>
<!-- Node7&#45;&gt;Node1 -->
<g id="edge19" class="edge">
<title>Node7&#45;&gt;Node1</title>
<path fill="none" stroke="#9a32cd" stroke-dasharray="5,2" d="M302.28,-25.04C320.88,-21.48 343.52,-17.53 364,-15 460.61,-3.07 485.16,0 582.5,0 582.5,0 582.5,0 1142.5,0 1172.51,0 1205.91,-9.05 1228.26,-16.47"/>
<polygon fill="#9a32cd" stroke="#9a32cd" points="301.55,-21.62 292.4,-26.96 302.88,-28.49 301.55,-21.62"/>
<text text-anchor="middle" x="913.5" y="-58" font-family="Helvetica,sans-Serif" font-size="10.00" fill="grey"> m_anchor</text>
<text text-anchor="middle" x="913.5" y="-47" font-family="Helvetica,sans-Serif" font-size="10.00" fill="grey">m_file</text>
<text text-anchor="middle" x="913.5" y="-36" font-family="Helvetica,sans-Serif" font-size="10.00" fill="grey">m_ref</text>
<text text-anchor="middle" x="913.5" y="-25" font-family="Helvetica,sans-Serif" font-size="10.00" fill="grey">m_relPath</text>
<text text-anchor="middle" x="913.5" y="-14" font-family="Helvetica,sans-Serif" font-size="10.00" fill="grey">m_tooltip</text>
<text text-anchor="middle" x="913.5" y="-3" font-family="Helvetica,sans-Serif" font-size="10.00" fill="grey">m_word</text>
</g>
<!-- Node7&#45;&gt;Node5 -->
<g id="edge6" class="edge">
<title>Node7&#45;&gt;Node5</title>
<path fill="none" stroke="#9a32cd" stroke-dasharray="5,2" d="M277.14,-50.6C294.67,-71.74 327.26,-106.32 364,-122 478.43,-170.85 521.75,-117.08 643,-145 699.77,-158.07 762.76,-186.45 793.69,-201.38"/>
<polygon fill="#9a32cd" stroke="#9a32cd" points="279.78,-48.3 270.78,-42.71 274.33,-52.69 279.78,-48.3"/>
<text text-anchor="middle" x="583.5" y="-214" font-family="Helvetica,sans-Serif" font-size="10.00" fill="grey"> context</text>
<text text-anchor="middle" x="583.5" y="-203" font-family="Helvetica,sans-Serif" font-size="10.00" fill="grey">exampleName</text>
<text text-anchor="middle" x="583.5" y="-192" font-family="Helvetica,sans-Serif" font-size="10.00" fill="grey">fileName</text>
<text text-anchor="middle" x="583.5" y="-181" font-family="Helvetica,sans-Serif" font-size="10.00" fill="grey">includeFileName</text>
<text text-anchor="middle" x="583.5" y="-170" font-family="Helvetica,sans-Serif" font-size="10.00" fill="grey">includeFileText</text>
<text text-anchor="middle" x="583.5" y="-159" font-family="Helvetica,sans-Serif" font-size="10.00" fill="grey">relPath</text>
<text text-anchor="middle" x="583.5" y="-148" font-family="Helvetica,sans-Serif" font-size="10.00" fill="grey">searchUrl</text>
</g>
<!-- Node13 -->
<g id="node13" class="node">
<title>Node13</title>
<g id="a_node13"><a xlink:href="../../d6/df4/struct_token_info.html" target="_top" xlink:title="Data associated with a token used by the comment block parser.">
<polygon fill="white" stroke="#666666" points="615,-99.5 552,-99.5 552,-80.5 615,-80.5 615,-99.5"/>
<text text-anchor="middle" x="583.5" y="-87.5" font-family="Helvetica,sans-Serif" font-size="10.00">TokenInfo</text>
</a>
</g>
</g>
<!-- Node7&#45;&gt;Node13 -->
<g id="edge14" class="edge">
<title>Node7&#45;&gt;Node13</title>
<path fill="none" stroke="#9a32cd" stroke-dasharray="5,2" d="M302.18,-25.98C351.04,-18.72 437.08,-11.31 506,-34 533.83,-43.16 559.94,-66.66 573.27,-80.12"/>
<polygon fill="#9a32cd" stroke="#9a32cd" points="301.38,-22.57 292.04,-27.57 302.46,-29.48 301.38,-22.57"/>
<text text-anchor="middle" x="435" y="-114" font-family="Helvetica,sans-Serif" font-size="10.00" fill="grey"> attribsStr</text>
<text text-anchor="middle" x="435" y="-103" font-family="Helvetica,sans-Serif" font-size="10.00" fill="grey">chars</text>
<text text-anchor="middle" x="435" y="-92" font-family="Helvetica,sans-Serif" font-size="10.00" fill="grey">name</text>
<text text-anchor="middle" x="435" y="-81" font-family="Helvetica,sans-Serif" font-size="10.00" fill="grey">sectionId</text>
<text text-anchor="middle" x="435" y="-70" font-family="Helvetica,sans-Serif" font-size="10.00" fill="grey">simpleSectName</text>
<text text-anchor="middle" x="435" y="-59" font-family="Helvetica,sans-Serif" font-size="10.00" fill="grey">simpleSectText</text>
<text text-anchor="middle" x="435" y="-48" font-family="Helvetica,sans-Serif" font-size="10.00" fill="grey">text</text>
<text text-anchor="middle" x="435" y="-37" font-family="Helvetica,sans-Serif" font-size="10.00" fill="grey">verb</text>
</g>
<!-- Node8 -->
<g id="node8" class="node">
<title>Node8</title>
<g id="a_node8"><a xlink:href="../../d9/d82/class_iterable_stack.html" target="_top" xlink:title=" ">
<polygon fill="white" stroke="#666666" points="643,-261 524,-261 524,-231 643,-231 643,-261"/>
<text text-anchor="start" x="532" y="-249" font-family="Helvetica,sans-Serif" font-size="10.00">IterableStack&lt; const</text>
<text text-anchor="middle" x="583.5" y="-238" font-family="Helvetica,sans-Serif" font-size="10.00"> DocNodeVariant * &gt;</text>
</a>
</g>
</g>
<!-- Node8&#45;&gt;Node5 -->
<g id="edge7" class="edge">
<title>Node8&#45;&gt;Node5</title>
<path fill="none" stroke="#9a32cd" stroke-dasharray="5,2" d="M629.91,-227.58C640,-224.16 650.74,-221.04 661,-219 694.18,-212.41 732.18,-210.41 761.88,-210.06"/>
<polygon fill="#9a32cd" stroke="#9a32cd" points="628.74,-224.28 620.48,-230.91 631.07,-230.88 628.74,-224.28"/>
<text text-anchor="middle" x="702.5" y="-233" font-family="Helvetica,sans-Serif" font-size="10.00" fill="grey"> initialStyleStack</text>
<text text-anchor="middle" x="702.5" y="-222" font-family="Helvetica,sans-Serif" font-size="10.00" fill="grey">styleStack</text>
</g>
<!-- Node9 -->
<g id="node9" class="node">
<title>Node9</title>
<g id="a_node9"><a xlink:title=" ">
<polygon fill="white" stroke="#666666" points="346,-241.5 179,-241.5 179,-200.5 346,-200.5 346,-241.5"/>
<text text-anchor="start" x="187" y="-229.5" font-family="Helvetica,sans-Serif" font-size="10.00">std::stack&lt; const DocNode</text>
<text text-anchor="start" x="187" y="-218.5" font-family="Helvetica,sans-Serif" font-size="10.00">Variant * , std::deque</text>
<text text-anchor="middle" x="262.5" y="-207.5" font-family="Helvetica,sans-Serif" font-size="10.00">&lt;const DocNodeVariant * &gt; &#160;&gt;</text>
</a>
</g>
</g>
<!-- Node9&#45;&gt;Node8 -->
<g id="edge8" class="edge">
<title>Node9&#45;&gt;Node8</title>
<path fill="none" stroke="#63b8ff" d="M356.36,-228.28C410.48,-232.52 477.08,-237.74 523.94,-241.41"/>
<polygon fill="#63b8ff" stroke="#63b8ff" points="356.31,-224.76 346.07,-227.47 355.76,-231.74 356.31,-224.76"/>
</g>
<!-- Node10 -->
<g id="node10" class="node">
<title>Node10</title>
<g id="a_node10"><a xlink:href="../../d9/d82/class_iterable_stack.html" target="_top" xlink:title=" ">
<polygon fill="white" stroke="#666666" points="344,-278.5 181,-278.5 181,-259.5 344,-259.5 344,-278.5"/>
<text text-anchor="middle" x="262.5" y="-266.5" font-family="Helvetica,sans-Serif" font-size="10.00">IterableStack&lt; T, Container &gt;</text>
</a>
</g>
</g>
<!-- Node10&#45;&gt;Node8 -->
<g id="edge9" class="edge">
<title>Node10&#45;&gt;Node8</title>
<path fill="none" stroke="orange" stroke-dasharray="5,2" d="M354.41,-262.45C408.83,-258.52 476.41,-253.65 523.83,-250.23"/>
<polygon fill="orange" stroke="orange" points="354.13,-258.96 344.41,-263.17 354.64,-265.94 354.13,-258.96"/>
<text text-anchor="middle" x="435" y="-264" font-family="Helvetica,sans-Serif" font-size="10.00" fill="grey"> &lt; const DocNodeVariant * &gt;</text>
</g>
<!-- Node11 -->
<g id="node11" class="node">
<title>Node11</title>
<g id="a_node11"><a xlink:title=" ">
<polygon fill="white" stroke="#666666" points="122,-284 20,-284 20,-254 122,-254 122,-284"/>
<text text-anchor="start" x="28" y="-272" font-family="Helvetica,sans-Serif" font-size="10.00">std::stack&lt; T, std</text>
<text text-anchor="middle" x="71" y="-261" font-family="Helvetica,sans-Serif" font-size="10.00">::deque&lt; T &gt; &gt;</text>
</a>
</g>
</g>
<!-- Node11&#45;&gt;Node10 -->
<g id="edge10" class="edge">
<title>Node11&#45;&gt;Node10</title>
<path fill="none" stroke="#63b8ff" d="M132.67,-269C148.02,-269 164.74,-269 180.91,-269"/>
<polygon fill="#63b8ff" stroke="#63b8ff" points="132.29,-265.5 122.29,-269 132.28,-272.5 132.29,-265.5"/>
</g>
<!-- Node12&#45;&gt;Node5 -->
<g id="edge11" class="edge">
<title>Node12&#45;&gt;Node5</title>
<path fill="none" stroke="#9a32cd" stroke-dasharray="5,2" d="M630.69,-276.66C662.79,-267.7 706.39,-254.78 744,-241 760.68,-234.89 779.11,-226.8 792.73,-220.57"/>
<polygon fill="#9a32cd" stroke="#9a32cd" points="629.39,-273.38 620.69,-279.42 631.26,-280.13 629.39,-273.38"/>
<text text-anchor="middle" x="702.5" y="-270" font-family="Helvetica,sans-Serif" font-size="10.00" fill="grey"> memberDef</text>
</g>
<!-- Node13&#45;&gt;Node5 -->
<g id="edge13" class="edge">
<title>Node13&#45;&gt;Node5</title>
<path fill="none" stroke="#9a32cd" stroke-dasharray="5,2" d="M625.37,-83.75C661.01,-80.73 711.89,-82.65 744,-111 767.76,-131.98 743.08,-154.58 762,-180 768.93,-189.31 779.56,-196.41 789.32,-201.45"/>
<polygon fill="#9a32cd" stroke="#9a32cd" points="624.9,-80.28 615.3,-84.77 625.6,-87.24 624.9,-80.28"/>
<text text-anchor="middle" x="702.5" y="-114" font-family="Helvetica,sans-Serif" font-size="10.00" fill="grey"> token</text>
</g>
<!-- Node14 -->
<g id="node14" class="node">
<title>Node14</title>
<g id="a_node14"><a xlink:href="../../db/d4d/class_html_attrib_list.html" target="_top" xlink:title="Class representing a list of HTML attributes.">
<polygon fill="white" stroke="#666666" points="305,-178.5 220,-178.5 220,-159.5 305,-159.5 305,-178.5"/>
<text text-anchor="middle" x="262.5" y="-166.5" font-family="Helvetica,sans-Serif" font-size="10.00">HtmlAttribList</text>
</a>
</g>
</g>
<!-- Node14&#45;&gt;Node13 -->
<g id="edge15" class="edge">
<title>Node14&#45;&gt;Node13</title>
<path fill="none" stroke="#9a32cd" stroke-dasharray="5,2" d="M315.24,-165.99C365.52,-161.66 443.26,-151.18 506,-126 514.92,-122.42 515.51,-118.51 524,-114 534.18,-108.59 545.85,-103.58 556.07,-99.55"/>
<polygon fill="#9a32cd" stroke="#9a32cd" points="314.94,-162.51 305.25,-166.8 315.5,-169.48 314.94,-162.51"/>
<text text-anchor="middle" x="435" y="-163" font-family="Helvetica,sans-Serif" font-size="10.00" fill="grey"> attribs</text>
</g>
<!-- Node15 -->
<g id="node15" class="node">
<title>Node15</title>
<g id="a_node15"><a xlink:title=" ">
<polygon fill="white" stroke="#666666" points="142,-178.5 0,-178.5 0,-159.5 142,-159.5 142,-178.5"/>
<text text-anchor="middle" x="71" y="-166.5" font-family="Helvetica,sans-Serif" font-size="10.00">std::vector&lt; HtmlAttrib &gt;</text>
</a>
</g>
</g>
<!-- Node15&#45;&gt;Node14 -->
<g id="edge16" class="edge">
<title>Node15&#45;&gt;Node14</title>
<path fill="none" stroke="#63b8ff" d="M152.25,-169C175.51,-169 199.96,-169 219.82,-169"/>
<polygon fill="#63b8ff" stroke="#63b8ff" points="152.02,-165.5 142.02,-169 152.02,-172.5 152.02,-165.5"/>
</g>
<!-- Node16 -->
<g id="node16" class="node">
<title>Node16</title>
<g id="a_node16"><a xlink:href="../../d1/d7f/class_doc_tokenizer.html" target="_top" xlink:title=" ">
<polygon fill="white" stroke="#666666" points="854.5,-170.5 773.5,-170.5 773.5,-151.5 854.5,-151.5 854.5,-170.5"/>
<text text-anchor="middle" x="814" y="-158.5" font-family="Helvetica,sans-Serif" font-size="10.00">DocTokenizer</text>
</a>
</g>
</g>
<!-- Node16&#45;&gt;Node3 -->
<g id="edge17" class="edge">
<title>Node16&#45;&gt;Node3</title>
<path fill="none" stroke="#9a32cd" stroke-dasharray="5,2" d="M864.64,-153.94C888.48,-150.17 917.37,-145.06 943,-139 949.55,-137.45 956.52,-135.52 963.09,-133.57"/>
<polygon fill="#9a32cd" stroke="#9a32cd" points="864.1,-150.48 854.75,-155.47 865.17,-157.4 864.1,-150.48"/>
<text text-anchor="middle" x="913.5" y="-153" font-family="Helvetica,sans-Serif" font-size="10.00" fill="grey"> tokenizer</text>
</g>
<!-- Node17 -->
<g id="node17" class="node">
<title>Node17</title>
<g id="a_node17"><a xlink:href="../../d2/dc1/class_s_i_data_collection.html" target="_top" xlink:title=" ">
<polygon fill="white" stroke="#666666" points="863,-133.5 765,-133.5 765,-114.5 863,-114.5 863,-133.5"/>
<text text-anchor="middle" x="814" y="-121.5" font-family="Helvetica,sans-Serif" font-size="10.00">SIDataCollection</text>
</a>
</g>
</g>
<!-- Node17&#45;&gt;Node3 -->
<g id="edge18" class="edge">
<title>Node17&#45;&gt;Node3</title>
<path fill="none" stroke="#9a32cd" stroke-dasharray="5,2" d="M873.14,-124C902.36,-124 936.64,-124 960.94,-124"/>
<polygon fill="#9a32cd" stroke="#9a32cd" points="873.03,-120.5 863.03,-124 873.03,-127.5 873.03,-120.5"/>
<text text-anchor="middle" x="913.5" y="-127" font-family="Helvetica,sans-Serif" font-size="10.00" fill="grey"> searchData</text>
</g>
</g>
</svg>
        <g id="navigator" transform="translate(0 0)" fill="#404254">
                <rect fill="#f2f5e9" fill-opacity="0.5" stroke="#606060" stroke-width=".5" x="0" y="0" width="60" height="60"/>
                <use id="zoomplus" xlink:href="#zoomPlus" x="17" y="9" onmousedown="handleZoom(evt,'in')"/>
                <use id="zoomminus" xlink:href="#zoomMin" x="42" y="9" onmousedown="handleZoom(evt,'out')"/>
                <use id="reset" xlink:href="#resetDef" x="30" y="36" onmousedown="handleReset()"/>
                <g id="arrowUp" xlink:href="#dirArrow" transform="translate(30 24)" onmousedown="handlePan(0,-1)">
                  <use xlink:href="#rim" fill="#404040">
                        <set attributeName="fill" to="#808080" begin="arrowUp.mouseover" end="arrowUp.mouseout"/>
                  </use>
                  <path fill="none" stroke="white" stroke-width="1.5" d="M0,-3.0v7 M-2.5,-0.5L0,-3.0L2.5,-0.5"/>
                </g>
                <g id="arrowRight" xlink:href="#dirArrow" transform="rotate(90) translate(36 -43)" onmousedown="handlePan(1,0)">
                  <use xlink:href="#rim" fill="#404040">
                        <set attributeName="fill" to="#808080" begin="arrowRight.mouseover" end="arrowRight.mouseout"/>
                  </use>
                  <path fill="none" stroke="white" stroke-width="1.5" d="M0,-3.0v7 M-2.5,-0.5L0,-3.0L2.5,-0.5"/>
                </g>
                <g id="arrowDown" xlink:href="#dirArrow" transform="rotate(180) translate(-30 -48)" onmousedown="handlePan(0,1)">
                  <use xlink:href="#rim" fill="#404040">
                        <set attributeName="fill" to="#808080" begin="arrowDown.mouseover" end="arrowDown.mouseout"/>
                  </use>
                  <path fill="none" stroke="white" stroke-width="1.5" d="M0,-3.0v7 M-2.5,-0.5L0,-3.0L2.5,-0.5"/>
                </g>
                <g id="arrowLeft" xlink:href="#dirArrow" transform="rotate(270) translate(-36 17)" onmousedown="handlePan(-1,0)">
                  <use xlink:href="#rim" fill="#404040">
                        <set attributeName="fill" to="#808080" begin="arrowLeft.mouseover" end="arrowLeft.mouseout"/>
                  </use>
                  <path fill="none" stroke="white" stroke-width="1.5" d="M0,-3.0v7 M-2.5,-0.5L0,-3.0L2.5,-0.5"/>
                </g>
        </g>
        <svg viewBox="0 0 15 15" width="100%" height="30px" preserveAspectRatio="xMaxYMin meet">
         <g id="arrow_out" transform="scale(0.3 0.3)">
          <a xlink:href="class_doc_linked_word__coll__graph_org.svg" target="_base">
           <rect id="button" ry="5" rx="5" y="6" x="6" height="38" width="38"
                fill="#f2f5e9" fill-opacity="0.5" stroke="#606060" stroke-width="1.0"/>
           <path id="arrow"
             d="M 11.500037,31.436501 C 11.940474,20.09759 22.043105,11.32322 32.158766,21.979434 L 37.068811,17.246167 C 37.068811,17.246167 37.088388,32 37.088388,32 L 22.160133,31.978069 C 22.160133,31.978069 26.997745,27.140456 26.997745,27.140456 C 18.528582,18.264221 13.291696,25.230495 11.500037,31.436501 z"
             style="fill:#404040;"/>
          </a>
         </g>
        </svg>
</svg>
