<?xml version="1.0" encoding="UTF-8" standalone="no"?>
<!DOCTYPE svg PUBLIC "-//W3C//DTD SVG 1.1//EN"
 "http://www.w3.org/Graphics/SVG/1.1/DTD/svg11.dtd">
<!-- Generated by graphviz version 2.43.0 (0)
 -->
<!-- Title: /home/runner/work/doxygen/doxygen/src/fortranscanner.h Pages: 1 -->
<svg width="510pt" height="104pt"
 viewBox="0.00 0.00 510.00 104.00" xmlns="http://www.w3.org/2000/svg" xmlns:xlink="http://www.w3.org/1999/xlink">
<g id="graph0" class="graph" transform="scale(1 1) rotate(0) translate(4 100)">
<title>/home/runner/work/doxygen/doxygen/src/fortranscanner.h</title>
<!-- Node1 -->
<g id="node1" class="node">
<title>Node1</title>
<g id="a_node1"><a xlink:title=" ">
<polygon fill="#999999" stroke="#666666" points="329.5,-96 168.5,-96 168.5,-66 329.5,-66 329.5,-96"/>
<text text-anchor="start" x="176.5" y="-84" font-family="Helvetica,sans-Serif" font-size="10.00">/home/runner/work/doxygen</text>
<text text-anchor="middle" x="249" y="-73" font-family="Helvetica,sans-Serif" font-size="10.00">/doxygen/src/fortranscanner.h</text>
</a>
</g>
</g>
<!-- Node2 -->
<g id="node2" class="node">
<title>Node2</title>
<g id="a_node2"><a xlink:href="../../dc/d98/doxygen_8cpp.html" target="_top" xlink:title=" ">
<polygon fill="white" stroke="#666666" points="154,-30 0,-30 0,0 154,0 154,-30"/>
<text text-anchor="start" x="8" y="-18" font-family="Helvetica,sans-Serif" font-size="10.00">/home/runner/work/doxygen</text>
<text text-anchor="middle" x="77" y="-7" font-family="Helvetica,sans-Serif" font-size="10.00">/doxygen/src/doxygen.cpp</text>
</a>
</g>
</g>
<!-- Node1&#45;&gt;Node2 -->
<g id="edge1" class="edge">
<title>Node1&#45;&gt;Node2</title>
<path fill="none" stroke="#63b8ff" d="M201.85,-62.46C174.41,-52.25 140.29,-39.55 114.66,-30.01"/>
<polygon fill="#63b8ff" stroke="#63b8ff" points="200.66,-65.75 211.25,-65.95 203.1,-59.19 200.66,-65.75"/>
</g>
<!-- Node3 -->
<g id="node3" class="node">
<title>Node3</title>
<g id="a_node3"><a xlink:href="../../d9/d5b/fortrancode_8l.html" target="_top" xlink:title=" ">
<polygon fill="white" stroke="#666666" points="326,-30 172,-30 172,0 326,0 326,-30"/>
<text text-anchor="start" x="180" y="-18" font-family="Helvetica,sans-Serif" font-size="10.00">/home/runner/work/doxygen</text>
<text text-anchor="middle" x="249" y="-7" font-family="Helvetica,sans-Serif" font-size="10.00">/doxygen/src/fortrancode.l</text>
</a>
</g>
</g>
<!-- Node1&#45;&gt;Node3 -->
<g id="edge2" class="edge">
<title>Node1&#45;&gt;Node3</title>
<path fill="none" stroke="#63b8ff" d="M249,-55.54C249,-46.96 249,-37.61 249,-30.16"/>
<polygon fill="#63b8ff" stroke="#63b8ff" points="245.5,-55.8 249,-65.8 252.5,-55.8 245.5,-55.8"/>
</g>
<!-- Node4 -->
<g id="node4" class="node">
<title>Node4</title>
<g id="a_node4"><a xlink:href="../../dd/d00/fortranscanner_8l.html" target="_top" xlink:title=" ">
<polygon fill="white" stroke="#666666" points="502,-30 344,-30 344,0 502,0 502,-30"/>
<text text-anchor="start" x="352" y="-18" font-family="Helvetica,sans-Serif" font-size="10.00">/home/runner/work/doxygen</text>
<text text-anchor="middle" x="423" y="-7" font-family="Helvetica,sans-Serif" font-size="10.00">/doxygen/src/fortranscanner.l</text>
</a>
</g>
</g>
<!-- Node1&#45;&gt;Node4 -->
<g id="edge3" class="edge">
<title>Node1&#45;&gt;Node4</title>
<path fill="none" stroke="#63b8ff" d="M296.7,-62.46C324.46,-52.25 358.97,-39.55 384.9,-30.01"/>
<polygon fill="#63b8ff" stroke="#63b8ff" points="295.36,-59.22 287.19,-65.95 297.78,-65.79 295.36,-59.22"/>
</g>
</g>
</svg>
