<?xml version="1.0" encoding="UTF-8" standalone="no"?>
<!DOCTYPE svg PUBLIC "-//W3C//DTD SVG 1.1//EN"
 "http://www.w3.org/Graphics/SVG/1.1/DTD/svg11.dtd">
<!-- Generated by graphviz version 2.43.0 (0)
 -->
<!-- Title: /home/runner/work/doxygen/doxygen/src/dotattributes.h Pages: 1 -->
<svg width="899pt" height="203pt"
 viewBox="0.00 0.00 899.00 203.00" xmlns="http://www.w3.org/2000/svg" xmlns:xlink="http://www.w3.org/1999/xlink">
<g id="graph0" class="graph" transform="scale(1 1) rotate(0) translate(4 199)">
<title>/home/runner/work/doxygen/doxygen/src/dotattributes.h</title>
<!-- Node1 -->
<g id="node1" class="node">
<title>Node1</title>
<g id="a_node1"><a xlink:title=" ">
<polygon fill="#999999" stroke="#666666" points="203,-195 49,-195 49,-165 203,-165 203,-195"/>
<text text-anchor="start" x="57" y="-183" font-family="Helvetica,sans-Serif" font-size="10.00">/home/runner/work/doxygen</text>
<text text-anchor="middle" x="126" y="-172" font-family="Helvetica,sans-Serif" font-size="10.00">/doxygen/src/dotattributes.h</text>
</a>
</g>
</g>
<!-- Node2 -->
<g id="node2" class="node">
<title>Node2</title>
<g id="a_node2"><a xlink:title=" ">
<polygon fill="#e0e0e0" stroke="#999999" points="38,-129 0,-129 0,-110 38,-110 38,-129"/>
<text text-anchor="middle" x="19" y="-117" font-family="Helvetica,sans-Serif" font-size="10.00">map</text>
</a>
</g>
</g>
<!-- Node1&#45;&gt;Node2 -->
<g id="edge1" class="edge">
<title>Node1&#45;&gt;Node2</title>
<path fill="none" stroke="#63b8ff" d="M100.37,-164.99C83.16,-155.58 60.6,-143.24 43.6,-133.95"/>
<polygon fill="#63b8ff" stroke="#63b8ff" points="45.25,-130.87 34.8,-129.14 41.9,-137.01 45.25,-130.87"/>
</g>
<!-- Node3 -->
<g id="node3" class="node">
<title>Node3</title>
<g id="a_node3"><a xlink:title=" ">
<polygon fill="#e0e0e0" stroke="#999999" points="358,-19 314,-19 314,0 358,0 358,-19"/>
<text text-anchor="middle" x="336" y="-7" font-family="Helvetica,sans-Serif" font-size="10.00">string</text>
</a>
</g>
</g>
<!-- Node1&#45;&gt;Node3 -->
<g id="edge2" class="edge">
<title>Node1&#45;&gt;Node3</title>
<path fill="none" stroke="#63b8ff" d="M113.39,-164.71C92.94,-139.78 57.47,-87.84 85,-55 112.56,-22.13 242.32,-13.52 303.68,-11.28"/>
<polygon fill="#63b8ff" stroke="#63b8ff" points="304.08,-14.77 313.96,-10.94 303.85,-7.77 304.08,-14.77"/>
</g>
<!-- Node4 -->
<g id="node4" class="node">
<title>Node4</title>
<g id="a_node4"><a xlink:href="../../d1/d21/regex_8h.html" target="_top" xlink:title=" ">
<polygon fill="white" stroke="#666666" points="212.5,-129 159.5,-129 159.5,-110 212.5,-110 212.5,-129"/>
<text text-anchor="middle" x="186" y="-117" font-family="Helvetica,sans-Serif" font-size="10.00">regex.h</text>
</a>
</g>
</g>
<!-- Node1&#45;&gt;Node4 -->
<g id="edge3" class="edge">
<title>Node1&#45;&gt;Node4</title>
<path fill="none" stroke="#63b8ff" d="M140.52,-164.84C149.32,-156.26 160.57,-145.3 169.67,-136.42"/>
<polygon fill="#63b8ff" stroke="#63b8ff" points="172.29,-138.75 177.01,-129.27 167.41,-133.74 172.29,-138.75"/>
</g>
<!-- Node8 -->
<g id="node8" class="node">
<title>Node8</title>
<g id="a_node8"><a xlink:href="../../d7/d5c/qcstring_8h.html" target="_top" xlink:title=" ">
<polygon fill="white" stroke="#666666" points="605.5,-129 540.5,-129 540.5,-110 605.5,-110 605.5,-129"/>
<text text-anchor="middle" x="573" y="-117" font-family="Helvetica,sans-Serif" font-size="10.00">qcstring.h</text>
</a>
</g>
</g>
<!-- Node1&#45;&gt;Node8 -->
<g id="edge8" class="edge">
<title>Node1&#45;&gt;Node8</title>
<path fill="none" stroke="#63b8ff" d="M203.1,-168.91C297.79,-156.52 455.1,-135.93 530.35,-126.08"/>
<polygon fill="#63b8ff" stroke="#63b8ff" points="530.94,-129.53 540.4,-124.77 530.04,-122.59 530.94,-129.53"/>
</g>
<!-- Node4&#45;&gt;Node3 -->
<g id="edge5" class="edge">
<title>Node4&#45;&gt;Node3</title>
<path fill="none" stroke="#63b8ff" d="M212.54,-113.12C236.99,-107.05 273.14,-95.15 298,-74 312.35,-61.79 322.73,-42.74 328.98,-28.69"/>
<polygon fill="#63b8ff" stroke="#63b8ff" points="332.35,-29.69 332.95,-19.11 325.88,-27.01 332.35,-29.69"/>
</g>
<!-- Node5 -->
<g id="node5" class="node">
<title>Node5</title>
<g id="a_node5"><a xlink:title=" ">
<polygon fill="#e0e0e0" stroke="#999999" points="289,-74 231,-74 231,-55 289,-55 289,-74"/>
<text text-anchor="middle" x="260" y="-62" font-family="Helvetica,sans-Serif" font-size="10.00">memory</text>
</a>
</g>
</g>
<!-- Node4&#45;&gt;Node5 -->
<g id="edge4" class="edge">
<title>Node4&#45;&gt;Node5</title>
<path fill="none" stroke="#63b8ff" d="M197.89,-109.98C209.15,-101.92 226.29,-89.65 239.71,-80.03"/>
<polygon fill="#63b8ff" stroke="#63b8ff" points="241.8,-82.84 247.89,-74.17 237.73,-77.15 241.8,-82.84"/>
</g>
<!-- Node6 -->
<g id="node6" class="node">
<title>Node6</title>
<g id="a_node6"><a xlink:title=" ">
<polygon fill="#e0e0e0" stroke="#999999" points="141.5,-74 94.5,-74 94.5,-55 141.5,-55 141.5,-74"/>
<text text-anchor="middle" x="118" y="-62" font-family="Helvetica,sans-Serif" font-size="10.00">vector</text>
</a>
</g>
</g>
<!-- Node4&#45;&gt;Node6 -->
<g id="edge6" class="edge">
<title>Node4&#45;&gt;Node6</title>
<path fill="none" stroke="#63b8ff" d="M175.07,-109.98C164.92,-102.07 149.58,-90.11 137.35,-80.58"/>
<polygon fill="#63b8ff" stroke="#63b8ff" points="139.16,-77.56 129.12,-74.17 134.86,-83.08 139.16,-77.56"/>
</g>
<!-- Node7 -->
<g id="node7" class="node">
<title>Node7</title>
<g id="a_node7"><a xlink:title=" ">
<polygon fill="#e0e0e0" stroke="#999999" points="212.5,-74 159.5,-74 159.5,-55 212.5,-55 212.5,-74"/>
<text text-anchor="middle" x="186" y="-62" font-family="Helvetica,sans-Serif" font-size="10.00">iterator</text>
</a>
</g>
</g>
<!-- Node4&#45;&gt;Node7 -->
<g id="edge7" class="edge">
<title>Node4&#45;&gt;Node7</title>
<path fill="none" stroke="#63b8ff" d="M186,-109.75C186,-102.8 186,-92.85 186,-84.13"/>
<polygon fill="#63b8ff" stroke="#63b8ff" points="189.5,-84.09 186,-74.09 182.5,-84.09 189.5,-84.09"/>
</g>
<!-- Node8&#45;&gt;Node3 -->
<g id="edge9" class="edge">
<title>Node8&#45;&gt;Node3</title>
<path fill="none" stroke="#63b8ff" d="M540.2,-118.83C497.92,-117.67 423.93,-110.08 374,-74 358.41,-62.74 348.06,-42.94 342.15,-28.43"/>
<polygon fill="#63b8ff" stroke="#63b8ff" points="345.41,-27.15 338.63,-19.01 338.85,-29.6 345.41,-27.15"/>
</g>
<!-- Node9 -->
<g id="node9" class="node">
<title>Node9</title>
<g id="a_node9"><a xlink:title=" ">
<polygon fill="#e0e0e0" stroke="#999999" points="691,-74 627,-74 627,-55 691,-55 691,-74"/>
<text text-anchor="middle" x="659" y="-62" font-family="Helvetica,sans-Serif" font-size="10.00">algorithm</text>
</a>
</g>
</g>
<!-- Node8&#45;&gt;Node9 -->
<g id="edge10" class="edge">
<title>Node8&#45;&gt;Node9</title>
<path fill="none" stroke="#63b8ff" d="M586.82,-109.98C600.15,-101.77 620.58,-89.18 636.31,-79.49"/>
<polygon fill="#63b8ff" stroke="#63b8ff" points="638.25,-82.4 644.93,-74.17 634.58,-76.44 638.25,-82.4"/>
</g>
<!-- Node10 -->
<g id="node10" class="node">
<title>Node10</title>
<g id="a_node10"><a xlink:title=" ">
<polygon fill="#e0e0e0" stroke="#999999" points="758.5,-74 709.5,-74 709.5,-55 758.5,-55 758.5,-74"/>
<text text-anchor="middle" x="734" y="-62" font-family="Helvetica,sans-Serif" font-size="10.00">cctype</text>
</a>
</g>
</g>
<!-- Node8&#45;&gt;Node10 -->
<g id="edge11" class="edge">
<title>Node8&#45;&gt;Node10</title>
<path fill="none" stroke="#63b8ff" d="M598.87,-109.98C626.18,-100.99 669.38,-86.77 699.56,-76.84"/>
<polygon fill="#63b8ff" stroke="#63b8ff" points="700.85,-80.1 709.25,-73.65 698.66,-73.45 700.85,-80.1"/>
</g>
<!-- Node11 -->
<g id="node11" class="node">
<title>Node11</title>
<g id="a_node11"><a xlink:title=" ">
<polygon fill="#e0e0e0" stroke="#999999" points="827,-74 777,-74 777,-55 827,-55 827,-74"/>
<text text-anchor="middle" x="802" y="-62" font-family="Helvetica,sans-Serif" font-size="10.00">cstring</text>
</a>
</g>
</g>
<!-- Node8&#45;&gt;Node11 -->
<g id="edge12" class="edge">
<title>Node8&#45;&gt;Node11</title>
<path fill="none" stroke="#63b8ff" d="M605.83,-111.23C642.65,-103.02 704.41,-89.11 766.76,-74.26"/>
<polygon fill="#63b8ff" stroke="#63b8ff" points="767.85,-77.6 776.76,-71.87 766.22,-70.79 767.85,-77.6"/>
</g>
<!-- Node12 -->
<g id="node12" class="node">
<title>Node12</title>
<g id="a_node12"><a xlink:title=" ">
<polygon fill="#e0e0e0" stroke="#999999" points="891,-74 845,-74 845,-55 891,-55 891,-74"/>
<text text-anchor="middle" x="868" y="-62" font-family="Helvetica,sans-Serif" font-size="10.00">cstdio</text>
</a>
</g>
</g>
<!-- Node8&#45;&gt;Node12 -->
<g id="edge13" class="edge">
<title>Node8&#45;&gt;Node12</title>
<path fill="none" stroke="#63b8ff" d="M605.58,-113.97C653.65,-107.08 746.6,-92.94 835.06,-74.03"/>
<polygon fill="#63b8ff" stroke="#63b8ff" points="835.95,-77.42 844.99,-71.88 834.48,-70.58 835.95,-77.42"/>
</g>
<!-- Node13 -->
<g id="node13" class="node">
<title>Node13</title>
<g id="a_node13"><a xlink:title=" ">
<polygon fill="#e0e0e0" stroke="#999999" points="432.5,-74 383.5,-74 383.5,-55 432.5,-55 432.5,-74"/>
<text text-anchor="middle" x="408" y="-62" font-family="Helvetica,sans-Serif" font-size="10.00">cstdlib</text>
</a>
</g>
</g>
<!-- Node8&#45;&gt;Node13 -->
<g id="edge14" class="edge">
<title>Node8&#45;&gt;Node13</title>
<path fill="none" stroke="#63b8ff" d="M546.49,-109.98C518.13,-100.88 473.06,-86.4 442.08,-76.45"/>
<polygon fill="#63b8ff" stroke="#63b8ff" points="443.15,-73.11 432.56,-73.39 441.01,-79.78 443.15,-73.11"/>
</g>
<!-- Node14 -->
<g id="node14" class="node">
<title>Node14</title>
<g id="a_node14"><a xlink:title=" ">
<polygon fill="#e0e0e0" stroke="#999999" points="598,-19 548,-19 548,0 598,0 598,-19"/>
<text text-anchor="middle" x="573" y="-7" font-family="Helvetica,sans-Serif" font-size="10.00">cstdint</text>
</a>
</g>
</g>
<!-- Node8&#45;&gt;Node14 -->
<g id="edge15" class="edge">
<title>Node8&#45;&gt;Node14</title>
<path fill="none" stroke="#63b8ff" d="M574.98,-109.89C577.55,-97.69 581.54,-74.68 580,-55 579.34,-46.52 577.97,-37.22 576.63,-29.32"/>
<polygon fill="#63b8ff" stroke="#63b8ff" points="580.04,-28.53 574.8,-19.32 573.15,-29.78 580.04,-28.53"/>
</g>
<!-- Node15 -->
<g id="node15" class="node">
<title>Node15</title>
<g id="a_node15"><a xlink:title=" ">
<polygon fill="#e0e0e0" stroke="#999999" points="507.5,-74 450.5,-74 450.5,-55 507.5,-55 507.5,-74"/>
<text text-anchor="middle" x="479" y="-62" font-family="Helvetica,sans-Serif" font-size="10.00">ostream</text>
</a>
</g>
</g>
<!-- Node8&#45;&gt;Node15 -->
<g id="edge16" class="edge">
<title>Node8&#45;&gt;Node15</title>
<path fill="none" stroke="#63b8ff" d="M557.9,-109.98C543.18,-101.69 520.58,-88.94 503.33,-79.22"/>
<polygon fill="#63b8ff" stroke="#63b8ff" points="504.81,-76.03 494.38,-74.17 501.37,-82.13 504.81,-76.03"/>
</g>
<!-- Node16 -->
<g id="node16" class="node">
<title>Node16</title>
<g id="a_node16"><a xlink:href="../../db/d7c/utf8_8h.html" target="_top" xlink:title="Various UTF8 related helper functions.">
<polygon fill="white" stroke="#666666" points="570.5,-74 525.5,-74 525.5,-55 570.5,-55 570.5,-74"/>
<text text-anchor="middle" x="548" y="-62" font-family="Helvetica,sans-Serif" font-size="10.00">utf8.h</text>
</a>
</g>
</g>
<!-- Node8&#45;&gt;Node16 -->
<g id="edge17" class="edge">
<title>Node8&#45;&gt;Node16</title>
<path fill="none" stroke="#63b8ff" d="M568.87,-109.75C565.49,-102.57 560.58,-92.18 556.38,-83.27"/>
<polygon fill="#63b8ff" stroke="#63b8ff" points="559.48,-81.64 552.05,-74.09 553.15,-84.63 559.48,-81.64"/>
</g>
<!-- Node16&#45;&gt;Node3 -->
<g id="edge19" class="edge">
<title>Node16&#45;&gt;Node3</title>
<path fill="none" stroke="#63b8ff" d="M525.33,-57.21C522.53,-56.45 519.7,-55.7 517,-55 464.98,-41.48 404.26,-26.77 368.04,-18.11"/>
<polygon fill="#63b8ff" stroke="#63b8ff" points="368.6,-14.64 358.06,-15.72 366.97,-21.45 368.6,-14.64"/>
</g>
<!-- Node16&#45;&gt;Node14 -->
<g id="edge18" class="edge">
<title>Node16&#45;&gt;Node14</title>
<path fill="none" stroke="#63b8ff" d="M552.13,-54.75C555.51,-47.57 560.42,-37.18 564.62,-28.27"/>
<polygon fill="#63b8ff" stroke="#63b8ff" points="567.85,-29.63 568.95,-19.09 561.52,-26.64 567.85,-29.63"/>
</g>
</g>
</svg>
