<?xml version="1.0" encoding="UTF-8" standalone="no"?>
<!DOCTYPE svg PUBLIC "-//W3C//DTD SVG 1.1//EN"
 "http://www.w3.org/Graphics/SVG/1.1/DTD/svg11.dtd">
<!-- Generated by graphviz version 2.43.0 (0)
 -->
<!-- Title: Doxygen Pages: 1 -->
<svg width="1032pt" height="694pt"
 viewBox="0.00 0.00 1032.00 694.31" xmlns="http://www.w3.org/2000/svg" xmlns:xlink="http://www.w3.org/1999/xlink">
<g id="graph0" class="graph" transform="scale(1 1) rotate(0) translate(4 690.31)">
<title>Doxygen</title>
<!-- Node1 -->
<g id="node1" class="node">
<title>Node1</title>
<g id="a_node1"><a xlink:title="This class serves as a namespace for global variables used by doxygen.">
<polygon fill="#999999" stroke="#666666" points="1024,-317.81 964,-317.81 964,-298.81 1024,-298.81 1024,-317.81"/>
<text text-anchor="middle" x="994" y="-305.81" font-family="Helvetica,sans-Serif" font-size="10.00">Doxygen</text>
</a>
</g>
</g>
<!-- Node2 -->
<g id="node2" class="node">
<title>Node2</title>
<g id="a_node2"><a xlink:href="../../d0/d10/class_class_linked_map.html" target="_top" xlink:title=" ">
<polygon fill="white" stroke="#666666" points="778.5,-659.81 683.5,-659.81 683.5,-640.81 778.5,-640.81 778.5,-659.81"/>
<text text-anchor="middle" x="731" y="-647.81" font-family="Helvetica,sans-Serif" font-size="10.00">ClassLinkedMap</text>
</a>
</g>
</g>
<!-- Node2&#45;&gt;Node1 -->
<g id="edge1" class="edge">
<title>Node2&#45;&gt;Node1</title>
<path fill="none" stroke="#9a32cd" stroke-dasharray="5,2" d="M783.94,-661.43C832.42,-668.49 903.5,-669.84 946,-629.31 992.27,-585.2 993.44,-366.93 993.11,-318.04"/>
<polygon fill="#9a32cd" stroke="#9a32cd" points="784.38,-657.95 773.96,-659.84 783.29,-664.87 784.38,-657.95"/>
<text text-anchor="middle" x="883.5" y="-678.31" font-family="Helvetica,sans-Serif" font-size="10.00" fill="grey"> classLinkedMap</text>
<text text-anchor="middle" x="883.5" y="-667.31" font-family="Helvetica,sans-Serif" font-size="10.00" fill="grey">hiddenClassLinkedMap</text>
</g>
<!-- Node3 -->
<g id="node3" class="node">
<title>Node3</title>
<g id="a_node3"><a xlink:href="../../d0/d2c/class_linked_map.html" target="_top" xlink:title=" ">
<polygon fill="white" stroke="#666666" points="473,-659.81 338,-659.81 338,-640.81 473,-640.81 473,-659.81"/>
<text text-anchor="middle" x="405.5" y="-647.81" font-family="Helvetica,sans-Serif" font-size="10.00">LinkedMap&lt; ClassDef &gt;</text>
</a>
</g>
</g>
<!-- Node3&#45;&gt;Node2 -->
<g id="edge2" class="edge">
<title>Node3&#45;&gt;Node2</title>
<path fill="none" stroke="#63b8ff" d="M483.29,-650.31C545.47,-650.31 631.03,-650.31 683.32,-650.31"/>
<polygon fill="#63b8ff" stroke="#63b8ff" points="483.14,-646.81 473.14,-650.31 483.14,-653.81 483.14,-646.81"/>
</g>
<!-- Node4 -->
<g id="node4" class="node">
<title>Node4</title>
<g id="a_node4"><a xlink:href="../../d0/d2c/class_linked_map.html" target="_top" xlink:title="Container class representing a vector of objects with keys.">
<polygon fill="white" stroke="#666666" points="120,-471.31 0,-471.31 0,-441.31 120,-441.31 120,-471.31"/>
<text text-anchor="start" x="8" y="-459.31" font-family="Helvetica,sans-Serif" font-size="10.00">LinkedMap&lt; T, Hash,</text>
<text text-anchor="middle" x="60" y="-448.31" font-family="Helvetica,sans-Serif" font-size="10.00"> KeyEqual, Map &gt;</text>
</a>
</g>
</g>
<!-- Node4&#45;&gt;Node3 -->
<g id="edge3" class="edge">
<title>Node4&#45;&gt;Node3</title>
<path fill="none" stroke="orange" stroke-dasharray="5,2" d="M64.72,-481.63C71.73,-519.37 90.7,-589.55 138,-623.31 199.13,-666.94 289.19,-666.27 347.36,-659.83"/>
<polygon fill="orange" stroke="orange" points="68.12,-480.73 62.98,-471.47 61.22,-481.91 68.12,-480.73"/>
<text text-anchor="middle" x="221" y="-665.31" font-family="Helvetica,sans-Serif" font-size="10.00" fill="grey"> &lt; ClassDef &gt;</text>
</g>
<!-- Node6 -->
<g id="node6" class="node">
<title>Node6</title>
<g id="a_node6"><a xlink:href="../../d0/d2c/class_linked_map.html" target="_top" xlink:title=" ">
<polygon fill="white" stroke="#666666" points="480,-621.81 331,-621.81 331,-602.81 480,-602.81 480,-621.81"/>
<text text-anchor="middle" x="405.5" y="-609.81" font-family="Helvetica,sans-Serif" font-size="10.00">LinkedMap&lt; ConceptDef &gt;</text>
</a>
</g>
</g>
<!-- Node4&#45;&gt;Node6 -->
<g id="edge6" class="edge">
<title>Node4&#45;&gt;Node6</title>
<path fill="none" stroke="orange" stroke-dasharray="5,2" d="M68.25,-481.22C78.47,-511.42 100.21,-561.26 138,-585.31 168.99,-605.04 263.24,-610.7 330.86,-612.15"/>
<polygon fill="orange" stroke="orange" points="71.5,-479.88 65.11,-471.43 64.83,-482.02 71.5,-479.88"/>
<text text-anchor="middle" x="221" y="-613.31" font-family="Helvetica,sans-Serif" font-size="10.00" fill="grey"> &lt; ConceptDef &gt;</text>
</g>
<!-- Node8 -->
<g id="node8" class="node">
<title>Node8</title>
<g id="a_node8"><a xlink:href="../../d0/d2c/class_linked_map.html" target="_top" xlink:title=" ">
<polygon fill="white" stroke="#666666" points="471.5,-583.81 339.5,-583.81 339.5,-564.81 471.5,-564.81 471.5,-583.81"/>
<text text-anchor="middle" x="405.5" y="-571.81" font-family="Helvetica,sans-Serif" font-size="10.00">LinkedMap&lt; PageDef &gt;</text>
</a>
</g>
</g>
<!-- Node4&#45;&gt;Node8 -->
<g id="edge9" class="edge">
<title>Node4&#45;&gt;Node8</title>
<path fill="none" stroke="orange" stroke-dasharray="5,2" d="M74.31,-480.34C87.49,-501.6 109.78,-531.48 138,-546.31 171.82,-564.09 271.95,-570.58 339.37,-572.95"/>
<polygon fill="orange" stroke="orange" points="77.19,-478.34 69.07,-471.55 71.18,-481.93 77.19,-478.34"/>
<text text-anchor="middle" x="221" y="-573.31" font-family="Helvetica,sans-Serif" font-size="10.00" fill="grey"> &lt; PageDef &gt;</text>
</g>
<!-- Node10 -->
<g id="node10" class="node">
<title>Node10</title>
<g id="a_node10"><a xlink:href="../../d0/d2c/class_linked_map.html" target="_top" xlink:title=" ">
<polygon fill="white" stroke="#666666" points="488,-546.81 323,-546.81 323,-483.81 488,-483.81 488,-546.81"/>
<text text-anchor="start" x="331" y="-534.81" font-family="Helvetica,sans-Serif" font-size="10.00">LinkedMap&lt; FileName,</text>
<text text-anchor="start" x="331" y="-523.81" font-family="Helvetica,sans-Serif" font-size="10.00"> FileNameFn, FileNameFn,</text>
<text text-anchor="start" x="331" y="-512.81" font-family="Helvetica,sans-Serif" font-size="10.00"> std::unordered_multimap</text>
<text text-anchor="start" x="331" y="-501.81" font-family="Helvetica,sans-Serif" font-size="10.00">&lt; std::string, FileName *,</text>
<text text-anchor="middle" x="405.5" y="-490.81" font-family="Helvetica,sans-Serif" font-size="10.00"> FileNameFn, FileNameFn &gt; &gt;</text>
</a>
</g>
</g>
<!-- Node4&#45;&gt;Node10 -->
<g id="edge12" class="edge">
<title>Node4&#45;&gt;Node10</title>
<path fill="none" stroke="orange" stroke-dasharray="5,2" d="M130.32,-469.91C132.91,-470.39 135.48,-470.86 138,-471.31 199.84,-482.44 269.96,-493.97 322.75,-502.44"/>
<polygon fill="orange" stroke="orange" points="130.71,-466.43 120.24,-468.03 129.43,-473.31 130.71,-466.43"/>
<text text-anchor="start" x="138" y="-534.31" font-family="Helvetica,sans-Serif" font-size="10.00" fill="grey"> &lt; FileName, FileNameFn,</text>
<text text-anchor="start" x="138" y="-523.31" font-family="Helvetica,sans-Serif" font-size="10.00" fill="grey"> FileNameFn, std::unordered</text>
<text text-anchor="start" x="138" y="-512.31" font-family="Helvetica,sans-Serif" font-size="10.00" fill="grey">_multimap&lt; std::string, FileName</text>
<text text-anchor="middle" x="221" y="-501.31" font-family="Helvetica,sans-Serif" font-size="10.00" fill="grey"> *, FileNameFn, FileNameFn &gt; &gt;</text>
</g>
<!-- Node12 -->
<g id="node12" class="node">
<title>Node12</title>
<g id="a_node12"><a xlink:href="../../d0/d2c/class_linked_map.html" target="_top" xlink:title=" ">
<polygon fill="white" stroke="#666666" points="486,-465.81 325,-465.81 325,-446.81 486,-446.81 486,-465.81"/>
<text text-anchor="middle" x="405.5" y="-453.81" font-family="Helvetica,sans-Serif" font-size="10.00">LinkedMap&lt; MemberName &gt;</text>
</a>
</g>
</g>
<!-- Node4&#45;&gt;Node12 -->
<g id="edge15" class="edge">
<title>Node4&#45;&gt;Node12</title>
<path fill="none" stroke="orange" stroke-dasharray="5,2" d="M130.27,-456.31C186.49,-456.31 265.82,-456.31 324.7,-456.31"/>
<polygon fill="orange" stroke="orange" points="130.05,-452.81 120.05,-456.31 130.05,-459.81 130.05,-452.81"/>
<text text-anchor="middle" x="221" y="-459.31" font-family="Helvetica,sans-Serif" font-size="10.00" fill="grey"> &lt; MemberName &gt;</text>
</g>
<!-- Node14 -->
<g id="node14" class="node">
<title>Node14</title>
<g id="a_node14"><a xlink:href="../../d0/d2c/class_linked_map.html" target="_top" xlink:title=" ">
<polygon fill="white" stroke="#666666" points="474.5,-428.81 336.5,-428.81 336.5,-409.81 474.5,-409.81 474.5,-428.81"/>
<text text-anchor="middle" x="405.5" y="-416.81" font-family="Helvetica,sans-Serif" font-size="10.00">LinkedMap&lt; GroupDef &gt;</text>
</a>
</g>
</g>
<!-- Node4&#45;&gt;Node14 -->
<g id="edge18" class="edge">
<title>Node4&#45;&gt;Node14</title>
<path fill="none" stroke="orange" stroke-dasharray="5,2" d="M130.28,-442.45C132.88,-442.04 135.46,-441.66 138,-441.31 205.14,-432.03 282.38,-426.18 336.36,-422.87"/>
<polygon fill="orange" stroke="orange" points="129.47,-439.03 120.16,-444.11 130.6,-445.94 129.47,-439.03"/>
<text text-anchor="middle" x="221" y="-444.31" font-family="Helvetica,sans-Serif" font-size="10.00" fill="grey"> &lt; GroupDef &gt;</text>
</g>
<!-- Node16 -->
<g id="node16" class="node">
<title>Node16</title>
<g id="a_node16"><a xlink:href="../../d0/d2c/class_linked_map.html" target="_top" xlink:title=" ">
<polygon fill="white" stroke="#666666" points="489,-391.81 322,-391.81 322,-372.81 489,-372.81 489,-391.81"/>
<text text-anchor="middle" x="405.5" y="-379.81" font-family="Helvetica,sans-Serif" font-size="10.00">LinkedMap&lt; NamespaceDef &gt;</text>
</a>
</g>
</g>
<!-- Node4&#45;&gt;Node16 -->
<g id="edge21" class="edge">
<title>Node4&#45;&gt;Node16</title>
<path fill="none" stroke="orange" stroke-dasharray="5,2" d="M88.58,-435.3C102.63,-425.73 120.42,-415.23 138,-409.31 197.39,-389.33 268.1,-382.91 321.75,-381.3"/>
<polygon fill="orange" stroke="orange" points="86.52,-432.48 80.36,-441.1 90.55,-438.2 86.52,-432.48"/>
<text text-anchor="middle" x="221" y="-412.31" font-family="Helvetica,sans-Serif" font-size="10.00" fill="grey"> &lt; NamespaceDef &gt;</text>
</g>
<!-- Node28 -->
<g id="node28" class="node">
<title>Node28</title>
<g id="a_node28"><a xlink:href="../../d0/d2c/class_linked_map.html" target="_top" xlink:title=" ">
<polygon fill="white" stroke="#666666" points="467,-354.81 344,-354.81 344,-335.81 467,-335.81 467,-354.81"/>
<text text-anchor="middle" x="405.5" y="-342.81" font-family="Helvetica,sans-Serif" font-size="10.00">LinkedMap&lt; DirDef &gt;</text>
</a>
</g>
</g>
<!-- Node4&#45;&gt;Node28 -->
<g id="edge34" class="edge">
<title>Node4&#45;&gt;Node28</title>
<path fill="none" stroke="orange" stroke-dasharray="5,2" d="M74.22,-432.12C87.34,-410.74 109.59,-380.78 138,-366.31 202.52,-333.47 287.37,-332.86 343.81,-337.39"/>
<polygon fill="orange" stroke="orange" points="71.07,-430.57 69,-440.96 77.1,-434.13 71.07,-430.57"/>
<text text-anchor="middle" x="221" y="-369.31" font-family="Helvetica,sans-Serif" font-size="10.00" fill="grey"> &lt; DirDef &gt;</text>
</g>
<!-- Node30 -->
<g id="node30" class="node">
<title>Node30</title>
<g id="a_node30"><a xlink:href="../../d0/d2c/class_linked_map.html" target="_top" xlink:title=" ">
<polygon fill="white" stroke="#666666" points="478.5,-317.81 332.5,-317.81 332.5,-298.81 478.5,-298.81 478.5,-317.81"/>
<text text-anchor="middle" x="405.5" y="-305.81" font-family="Helvetica,sans-Serif" font-size="10.00">LinkedMap&lt; DirRelation &gt;</text>
</a>
</g>
</g>
<!-- Node4&#45;&gt;Node30 -->
<g id="edge37" class="edge">
<title>Node4&#45;&gt;Node30</title>
<path fill="none" stroke="orange" stroke-dasharray="5,2" d="M67.21,-431.15C76.58,-399.14 97.69,-345.04 138,-320.31 207.87,-277.44 308.52,-288.12 363.99,-298.79"/>
<polygon fill="orange" stroke="orange" points="63.75,-430.52 64.47,-441.09 70.5,-432.38 63.75,-430.52"/>
<text text-anchor="middle" x="221" y="-323.31" font-family="Helvetica,sans-Serif" font-size="10.00" fill="grey"> &lt; DirRelation &gt;</text>
</g>
<!-- Node5 -->
<g id="node5" class="node">
<title>Node5</title>
<g id="a_node5"><a xlink:href="../../db/ded/class_concept_linked_map.html" target="_top" xlink:title=" ">
<polygon fill="white" stroke="#666666" points="785.5,-622.81 676.5,-622.81 676.5,-603.81 785.5,-603.81 785.5,-622.81"/>
<text text-anchor="middle" x="731" y="-610.81" font-family="Helvetica,sans-Serif" font-size="10.00">ConceptLinkedMap</text>
</a>
</g>
</g>
<!-- Node5&#45;&gt;Node1 -->
<g id="edge4" class="edge">
<title>Node5&#45;&gt;Node1</title>
<path fill="none" stroke="#9a32cd" stroke-dasharray="5,2" d="M795.67,-615.64C850.76,-616.21 924.83,-613.04 946,-593.31 987.36,-554.76 992.32,-362.99 992.92,-317.84"/>
<polygon fill="#9a32cd" stroke="#9a32cd" points="795.66,-612.14 785.61,-615.49 795.56,-619.14 795.66,-612.14"/>
<text text-anchor="middle" x="883.5" y="-618.31" font-family="Helvetica,sans-Serif" font-size="10.00" fill="grey"> conceptLinkedMap</text>
</g>
<!-- Node6&#45;&gt;Node5 -->
<g id="edge5" class="edge">
<title>Node6&#45;&gt;Node5</title>
<path fill="none" stroke="#63b8ff" d="M490.66,-612.57C549.25,-612.75 625.64,-612.99 676.17,-613.15"/>
<polygon fill="#63b8ff" stroke="#63b8ff" points="490.32,-609.07 480.31,-612.54 490.3,-616.07 490.32,-609.07"/>
</g>
<!-- Node7 -->
<g id="node7" class="node">
<title>Node7</title>
<g id="a_node7"><a xlink:href="../../d9/d5e/class_page_linked_map.html" target="_top" xlink:title=" ">
<polygon fill="white" stroke="#666666" points="777,-581.81 685,-581.81 685,-562.81 777,-562.81 777,-581.81"/>
<text text-anchor="middle" x="731" y="-569.81" font-family="Helvetica,sans-Serif" font-size="10.00">PageLinkedMap</text>
</a>
</g>
</g>
<!-- Node7&#45;&gt;Node1 -->
<g id="edge7" class="edge">
<title>Node7&#45;&gt;Node1</title>
<path fill="none" stroke="#9a32cd" stroke-dasharray="5,2" d="M787.1,-570.02C846.59,-567.02 934.47,-560.86 946,-550.31 981.14,-518.18 990.7,-359.1 992.6,-318.01"/>
<polygon fill="#9a32cd" stroke="#9a32cd" points="786.89,-566.52 777.08,-570.51 787.23,-573.52 786.89,-566.52"/>
<text text-anchor="middle" x="883.5" y="-581.31" font-family="Helvetica,sans-Serif" font-size="10.00" fill="grey"> exampleLinkedMap</text>
<text text-anchor="middle" x="883.5" y="-570.31" font-family="Helvetica,sans-Serif" font-size="10.00" fill="grey">pageLinkedMap</text>
</g>
<!-- Node8&#45;&gt;Node7 -->
<g id="edge8" class="edge">
<title>Node8&#45;&gt;Node7</title>
<path fill="none" stroke="#63b8ff" d="M481.84,-573.85C544.72,-573.46 632.26,-572.92 684.81,-572.59"/>
<polygon fill="#63b8ff" stroke="#63b8ff" points="481.55,-570.35 471.58,-573.91 481.6,-577.35 481.55,-570.35"/>
</g>
<!-- Node9 -->
<g id="node9" class="node">
<title>Node9</title>
<g id="a_node9"><a xlink:href="../../d0/d2c/class_file_name_linked_map.html" target="_top" xlink:title="Ordered dictionary of FileName objects.">
<polygon fill="white" stroke="#666666" points="789,-508.81 673,-508.81 673,-489.81 789,-489.81 789,-508.81"/>
<text text-anchor="middle" x="731" y="-496.81" font-family="Helvetica,sans-Serif" font-size="10.00">FileNameLinkedMap</text>
</a>
</g>
</g>
<!-- Node9&#45;&gt;Node1 -->
<g id="edge10" class="edge">
<title>Node9&#45;&gt;Node1</title>
<path fill="none" stroke="#9a32cd" stroke-dasharray="5,2" d="M771.56,-486.81C786.91,-482.21 804.68,-477.19 821,-473.31 875.96,-460.27 903.4,-487.41 946,-450.31 986.53,-415.01 992.25,-343.96 992.95,-318.05"/>
<polygon fill="#9a32cd" stroke="#9a32cd" points="770.42,-483.5 761.87,-489.76 772.46,-490.2 770.42,-483.5"/>
<text text-anchor="middle" x="883.5" y="-542.31" font-family="Helvetica,sans-Serif" font-size="10.00" fill="grey"> diaFileNameLinkedMap</text>
<text text-anchor="middle" x="883.5" y="-531.31" font-family="Helvetica,sans-Serif" font-size="10.00" fill="grey">dotFileNameLinkedMap</text>
<text text-anchor="middle" x="883.5" y="-520.31" font-family="Helvetica,sans-Serif" font-size="10.00" fill="grey">exampleNameLinkedMap</text>
<text text-anchor="middle" x="883.5" y="-509.31" font-family="Helvetica,sans-Serif" font-size="10.00" fill="grey">imageNameLinkedMap</text>
<text text-anchor="middle" x="883.5" y="-498.31" font-family="Helvetica,sans-Serif" font-size="10.00" fill="grey">includeNameLinkedMap</text>
<text text-anchor="middle" x="883.5" y="-487.31" font-family="Helvetica,sans-Serif" font-size="10.00" fill="grey">inputNameLinkedMap</text>
<text text-anchor="middle" x="883.5" y="-476.31" font-family="Helvetica,sans-Serif" font-size="10.00" fill="grey">mscFileNameLinkedMap</text>
</g>
<!-- Node10&#45;&gt;Node9 -->
<g id="edge11" class="edge">
<title>Node10&#45;&gt;Node9</title>
<path fill="none" stroke="#63b8ff" d="M498.45,-510.77C554.58,-507.99 624.6,-504.53 672.86,-502.14"/>
<polygon fill="#63b8ff" stroke="#63b8ff" points="497.95,-507.29 488.13,-511.28 498.29,-514.28 497.95,-507.29"/>
</g>
<!-- Node11 -->
<g id="node11" class="node">
<title>Node11</title>
<g id="a_node11"><a xlink:href="../../da/d3d/class_member_name_linked_map.html" target="_top" xlink:title="Ordered dictionary of MemberName objects.">
<polygon fill="white" stroke="#666666" points="800.5,-465.81 661.5,-465.81 661.5,-446.81 800.5,-446.81 800.5,-465.81"/>
<text text-anchor="middle" x="731" y="-453.81" font-family="Helvetica,sans-Serif" font-size="10.00">MemberNameLinkedMap</text>
</a>
</g>
</g>
<!-- Node11&#45;&gt;Node1 -->
<g id="edge13" class="edge">
<title>Node11&#45;&gt;Node1</title>
<path fill="none" stroke="#9a32cd" stroke-dasharray="5,2" d="M787.06,-443.87C792.51,-442.19 797.9,-440.34 803,-438.31 811.51,-434.94 812.39,-431.4 821,-428.31 874.17,-409.23 901.06,-439.53 946,-405.31 975.33,-382.98 987.35,-337.58 991.34,-317.84"/>
<polygon fill="#9a32cd" stroke="#9a32cd" points="785.88,-440.57 777.25,-446.71 787.83,-447.29 785.88,-440.57"/>
<text text-anchor="middle" x="883.5" y="-442.31" font-family="Helvetica,sans-Serif" font-size="10.00" fill="grey"> functionNameLinkedMap</text>
<text text-anchor="middle" x="883.5" y="-431.31" font-family="Helvetica,sans-Serif" font-size="10.00" fill="grey">memberNameLinkedMap</text>
</g>
<!-- Node12&#45;&gt;Node11 -->
<g id="edge14" class="edge">
<title>Node12&#45;&gt;Node11</title>
<path fill="none" stroke="#63b8ff" d="M496.32,-456.31C548.55,-456.31 613.34,-456.31 661.45,-456.31"/>
<polygon fill="#63b8ff" stroke="#63b8ff" points="496.05,-452.81 486.05,-456.31 496.05,-459.81 496.05,-452.81"/>
</g>
<!-- Node13 -->
<g id="node13" class="node">
<title>Node13</title>
<g id="a_node13"><a xlink:href="../../d3/dbd/class_group_linked_map.html" target="_top" xlink:title=" ">
<polygon fill="white" stroke="#666666" points="780,-428.81 682,-428.81 682,-409.81 780,-409.81 780,-428.81"/>
<text text-anchor="middle" x="731" y="-416.81" font-family="Helvetica,sans-Serif" font-size="10.00">GroupLinkedMap</text>
</a>
</g>
</g>
<!-- Node13&#45;&gt;Node1 -->
<g id="edge16" class="edge">
<title>Node13&#45;&gt;Node1</title>
<path fill="none" stroke="#9a32cd" stroke-dasharray="5,2" d="M782.99,-407.19C789.76,-405.35 796.57,-403.37 803,-401.31 811.18,-398.7 812.74,-396.66 821,-394.31 875.34,-378.9 898.02,-401.12 946,-371.31 966.86,-358.35 981.62,-332.47 988.55,-318.25"/>
<polygon fill="#9a32cd" stroke="#9a32cd" points="781.94,-403.85 773.17,-409.79 783.73,-410.62 781.94,-403.85"/>
<text text-anchor="middle" x="883.5" y="-397.31" font-family="Helvetica,sans-Serif" font-size="10.00" fill="grey"> groupLinkedMap</text>
</g>
<!-- Node14&#45;&gt;Node13 -->
<g id="edge17" class="edge">
<title>Node14&#45;&gt;Node13</title>
<path fill="none" stroke="#63b8ff" d="M484.76,-419.31C546.22,-419.31 629.83,-419.31 681.83,-419.31"/>
<polygon fill="#63b8ff" stroke="#63b8ff" points="484.71,-415.81 474.71,-419.31 484.71,-422.81 484.71,-415.81"/>
</g>
<!-- Node15 -->
<g id="node15" class="node">
<title>Node15</title>
<g id="a_node15"><a xlink:href="../../d7/d60/class_namespace_linked_map.html" target="_top" xlink:title=" ">
<polygon fill="white" stroke="#666666" points="794.5,-391.81 667.5,-391.81 667.5,-372.81 794.5,-372.81 794.5,-391.81"/>
<text text-anchor="middle" x="731" y="-379.81" font-family="Helvetica,sans-Serif" font-size="10.00">NamespaceLinkedMap</text>
</a>
</g>
</g>
<!-- Node15&#45;&gt;Node1 -->
<g id="edge19" class="edge">
<title>Node15&#45;&gt;Node1</title>
<path fill="none" stroke="#9a32cd" stroke-dasharray="5,2" d="M778.78,-370.19C792.36,-366.82 807.24,-363.28 821,-360.31 876.22,-348.42 893.28,-357.6 946,-337.31 958.35,-332.56 971.04,-324.51 980.12,-318.09"/>
<polygon fill="#9a32cd" stroke="#9a32cd" points="777.54,-366.89 768.69,-372.72 779.24,-373.68 777.54,-366.89"/>
<text text-anchor="middle" x="883.5" y="-363.31" font-family="Helvetica,sans-Serif" font-size="10.00" fill="grey"> namespaceLinkedMap</text>
</g>
<!-- Node16&#45;&gt;Node15 -->
<g id="edge20" class="edge">
<title>Node16&#45;&gt;Node15</title>
<path fill="none" stroke="#63b8ff" d="M499.63,-382.31C553.41,-382.31 619.63,-382.31 667.25,-382.31"/>
<polygon fill="#63b8ff" stroke="#63b8ff" points="499.39,-378.81 489.39,-382.31 499.39,-385.81 499.39,-378.81"/>
</g>
<!-- Node17 -->
<g id="node17" class="node">
<title>Node17</title>
<g id="a_node17"><a xlink:href="../../dd/dd5/class_namespace_def_mutable.html" target="_top" xlink:title=" ">
<polygon fill="white" stroke="#666666" points="796.5,-269.81 665.5,-269.81 665.5,-250.81 796.5,-250.81 796.5,-269.81"/>
<text text-anchor="middle" x="731" y="-257.81" font-family="Helvetica,sans-Serif" font-size="10.00">NamespaceDefMutable</text>
</a>
</g>
</g>
<!-- Node17&#45;&gt;Node1 -->
<g id="edge22" class="edge">
<title>Node17&#45;&gt;Node1</title>
<path fill="none" stroke="#9a32cd" stroke-dasharray="5,2" d="M806.99,-253.22C849.12,-251.89 901.92,-254.77 946,-271.31 961.36,-277.08 975.66,-289.82 984.36,-298.73"/>
<polygon fill="#9a32cd" stroke="#9a32cd" points="806.65,-249.73 796.8,-253.62 806.93,-256.72 806.65,-249.73"/>
<text text-anchor="middle" x="883.5" y="-274.31" font-family="Helvetica,sans-Serif" font-size="10.00" fill="grey"> globalScope</text>
</g>
<!-- Node18 -->
<g id="node18" class="node">
<title>Node18</title>
<g id="a_node18"><a xlink:href="../../d0/d46/class_definition_mutable.html" target="_top" xlink:title=" ">
<polygon fill="white" stroke="#666666" points="457.5,-280.81 353.5,-280.81 353.5,-261.81 457.5,-261.81 457.5,-280.81"/>
<text text-anchor="middle" x="405.5" y="-268.81" font-family="Helvetica,sans-Serif" font-size="10.00">DefinitionMutable</text>
</a>
</g>
</g>
<!-- Node18&#45;&gt;Node17 -->
<g id="edge23" class="edge">
<title>Node18&#45;&gt;Node17</title>
<path fill="none" stroke="#63b8ff" d="M467.84,-270.78C515.17,-270.18 582.25,-268.92 641,-266.31 648.89,-265.96 657.17,-265.52 665.37,-265.02"/>
<polygon fill="#63b8ff" stroke="#63b8ff" points="467.71,-267.28 457.76,-270.9 467.8,-274.28 467.71,-267.28"/>
</g>
<!-- Node19 -->
<g id="node19" class="node">
<title>Node19</title>
<g id="a_node19"><a xlink:href="../../d0/d07/class_namespace_def.html" target="_top" xlink:title="An abstract interface of a namespace symbol.">
<polygon fill="white" stroke="#666666" points="451.5,-243.81 359.5,-243.81 359.5,-224.81 451.5,-224.81 451.5,-243.81"/>
<text text-anchor="middle" x="405.5" y="-231.81" font-family="Helvetica,sans-Serif" font-size="10.00">NamespaceDef</text>
</a>
</g>
</g>
<!-- Node19&#45;&gt;Node17 -->
<g id="edge24" class="edge">
<title>Node19&#45;&gt;Node17</title>
<path fill="none" stroke="#63b8ff" d="M461.99,-238.77C518.46,-243.31 605.92,-250.34 665.46,-255.13"/>
<polygon fill="#63b8ff" stroke="#63b8ff" points="462.07,-235.27 451.82,-237.96 461.51,-242.25 462.07,-235.27"/>
</g>
<!-- Node20 -->
<g id="node20" class="node">
<title>Node20</title>
<g id="a_node20"><a xlink:href="../../d5/dcc/class_definition.html" target="_top" xlink:title="The common base class of all entity definitions found in the sources.">
<polygon fill="white" stroke="#666666" points="92,-243.81 28,-243.81 28,-224.81 92,-224.81 92,-243.81"/>
<text text-anchor="middle" x="60" y="-231.81" font-family="Helvetica,sans-Serif" font-size="10.00">Definition</text>
</a>
</g>
</g>
<!-- Node20&#45;&gt;Node19 -->
<g id="edge25" class="edge">
<title>Node20&#45;&gt;Node19</title>
<path fill="none" stroke="#63b8ff" d="M102.33,-234.31C167.13,-234.31 292.14,-234.31 359.26,-234.31"/>
<polygon fill="#63b8ff" stroke="#63b8ff" points="102.09,-230.81 92.09,-234.31 102.09,-237.81 102.09,-230.81"/>
</g>
<!-- Node21 -->
<g id="node21" class="node">
<title>Node21</title>
<g id="a_node21"><a xlink:href="../../d9/d45/class_q_c_string.html" target="_top" xlink:title="This is an alternative implementation of QCString.">
<polygon fill="white" stroke="#666666" points="89.5,-189.81 30.5,-189.81 30.5,-170.81 89.5,-170.81 89.5,-189.81"/>
<text text-anchor="middle" x="60" y="-177.81" font-family="Helvetica,sans-Serif" font-size="10.00">QCString</text>
</a>
</g>
</g>
<!-- Node21&#45;&gt;Node1 -->
<g id="edge26" class="edge">
<title>Node21&#45;&gt;Node1</title>
<path fill="none" stroke="#9a32cd" stroke-dasharray="5,2" d="M99.85,-181.34C112.06,-181.66 125.59,-182 138,-182.31 193.89,-183.71 586.75,-180.82 641,-194.31 649.68,-196.47 650.48,-200.59 659,-203.31 781.98,-242.65 834.66,-182.94 946,-248.31 966.54,-260.37 981.43,-285.14 988.46,-298.78"/>
<polygon fill="#9a32cd" stroke="#9a32cd" points="99.61,-177.83 89.52,-181.07 99.43,-184.83 99.61,-177.83"/>
<text text-anchor="middle" x="574" y="-230.31" font-family="Helvetica,sans-Serif" font-size="10.00" fill="grey"> filterDBFileName</text>
<text text-anchor="middle" x="574" y="-219.31" font-family="Helvetica,sans-Serif" font-size="10.00" fill="grey">htmlFileExtension</text>
<text text-anchor="middle" x="574" y="-208.31" font-family="Helvetica,sans-Serif" font-size="10.00" fill="grey">spaces</text>
<text text-anchor="middle" x="574" y="-197.31" font-family="Helvetica,sans-Serif" font-size="10.00" fill="grey">verifiedDotPath</text>
</g>
<!-- Node32 -->
<g id="node32" class="node">
<title>Node32</title>
<g id="a_node32"><a xlink:href="../../df/d04/struct_parser_manager_1_1_parser_pair.html" target="_top" xlink:title=" ">
<polygon fill="white" stroke="#666666" points="477,-167.81 334,-167.81 334,-148.81 477,-148.81 477,-167.81"/>
<text text-anchor="middle" x="405.5" y="-155.81" font-family="Helvetica,sans-Serif" font-size="10.00">ParserManager::ParserPair</text>
</a>
</g>
</g>
<!-- Node21&#45;&gt;Node32 -->
<g id="edge40" class="edge">
<title>Node21&#45;&gt;Node32</title>
<path fill="none" stroke="#9a32cd" stroke-dasharray="5,2" d="M100.11,-175.22C112.23,-173.79 125.65,-172.34 138,-171.31 204.36,-165.82 280.23,-162.4 334,-160.45"/>
<polygon fill="#9a32cd" stroke="#9a32cd" points="99.34,-171.79 89.84,-176.47 100.19,-178.74 99.34,-171.79"/>
<text text-anchor="middle" x="221" y="-174.31" font-family="Helvetica,sans-Serif" font-size="10.00" fill="grey"> parserName</text>
</g>
<!-- Node22 -->
<g id="node22" class="node">
<title>Node22</title>
<g id="a_node22"><a xlink:href="../../d8/d4d/class_search_index_intf.html" target="_top" xlink:title="Abstract proxy interface for non&#45;javascript based search indices.">
<polygon fill="white" stroke="#666666" points="777.5,-156.81 684.5,-156.81 684.5,-137.81 777.5,-137.81 777.5,-156.81"/>
<text text-anchor="middle" x="731" y="-144.81" font-family="Helvetica,sans-Serif" font-size="10.00">SearchIndexIntf</text>
</a>
</g>
</g>
<!-- Node22&#45;&gt;Node1 -->
<g id="edge27" class="edge">
<title>Node22&#45;&gt;Node1</title>
<path fill="none" stroke="#9a32cd" stroke-dasharray="5,2" d="M773.53,-135.37C820.42,-124.59 896.6,-115.59 946,-153.31 992.93,-189.15 994.49,-270.5 993.54,-298.57"/>
<polygon fill="#9a32cd" stroke="#9a32cd" points="772.6,-131.99 763.7,-137.75 774.25,-138.8 772.6,-131.99"/>
<text text-anchor="middle" x="883.5" y="-156.31" font-family="Helvetica,sans-Serif" font-size="10.00" fill="grey"> searchIndex</text>
</g>
<!-- Node23 -->
<g id="node23" class="node">
<title>Node23</title>
<g id="a_node23"><a xlink:href="../../d4/d85/class_symbol_map.html" target="_top" xlink:title=" ">
<polygon fill="white" stroke="#666666" points="803,-119.81 659,-119.81 659,-100.81 803,-100.81 803,-119.81"/>
<text text-anchor="middle" x="731" y="-107.81" font-family="Helvetica,sans-Serif" font-size="10.00">SymbolMap&lt; Definition &gt;</text>
</a>
</g>
</g>
<!-- Node23&#45;&gt;Node1 -->
<g id="edge28" class="edge">
<title>Node23&#45;&gt;Node1</title>
<path fill="none" stroke="#9a32cd" stroke-dasharray="5,2" d="M813.39,-101.04C865.08,-97.01 925.9,-96.31 946,-112.31 975.98,-136.18 989.06,-262.65 992.22,-298.71"/>
<polygon fill="#9a32cd" stroke="#9a32cd" points="812.86,-97.57 803.19,-101.89 813.44,-104.55 812.86,-97.57"/>
<text text-anchor="middle" x="883.5" y="-115.31" font-family="Helvetica,sans-Serif" font-size="10.00" fill="grey"> symbolMap</text>
</g>
<!-- Node24 -->
<g id="node24" class="node">
<title>Node24</title>
<g id="a_node24"><a xlink:href="../../d4/d85/class_symbol_map.html" target="_top" xlink:title="Class implementing a symbol map that maps symbol names to objects.">
<polygon fill="white" stroke="#666666" points="457,-119.81 354,-119.81 354,-100.81 457,-100.81 457,-119.81"/>
<text text-anchor="middle" x="405.5" y="-107.81" font-family="Helvetica,sans-Serif" font-size="10.00">SymbolMap&lt; T &gt;</text>
</a>
</g>
</g>
<!-- Node24&#45;&gt;Node23 -->
<g id="edge29" class="edge">
<title>Node24&#45;&gt;Node23</title>
<path fill="none" stroke="orange" stroke-dasharray="5,2" d="M467.23,-110.31C521.63,-110.31 601.43,-110.31 658.81,-110.31"/>
<polygon fill="orange" stroke="orange" points="467.05,-106.81 457.05,-110.31 467.05,-113.81 467.05,-106.81"/>
<text text-anchor="middle" x="574" y="-113.31" font-family="Helvetica,sans-Serif" font-size="10.00" fill="grey"> &lt; Definition &gt;</text>
</g>
<!-- Node25 -->
<g id="node25" class="node">
<title>Node25</title>
<g id="a_node25"><a xlink:href="../../dc/d67/class_cache.html" target="_top" xlink:title=" ">
<polygon fill="white" stroke="#666666" points="786,-82.31 676,-82.31 676,-52.31 786,-52.31 786,-82.31"/>
<text text-anchor="start" x="684" y="-70.31" font-family="Helvetica,sans-Serif" font-size="10.00">Cache&lt; std::string,</text>
<text text-anchor="middle" x="731" y="-59.31" font-family="Helvetica,sans-Serif" font-size="10.00"> LookupInfo &gt;</text>
</a>
</g>
</g>
<!-- Node25&#45;&gt;Node1 -->
<g id="edge30" class="edge">
<title>Node25&#45;&gt;Node1</title>
<path fill="none" stroke="#9a32cd" stroke-dasharray="5,2" d="M792.56,-50.16C839.79,-40.74 904.16,-37.16 946,-72.31 981.58,-102.21 990.82,-258.41 992.62,-298.78"/>
<polygon fill="#9a32cd" stroke="#9a32cd" points="791.81,-46.74 782.76,-52.24 793.27,-53.58 791.81,-46.74"/>
<text text-anchor="middle" x="883.5" y="-86.31" font-family="Helvetica,sans-Serif" font-size="10.00" fill="grey"> symbolLookupCache</text>
<text text-anchor="middle" x="883.5" y="-75.31" font-family="Helvetica,sans-Serif" font-size="10.00" fill="grey">typeLookupCache</text>
</g>
<!-- Node26 -->
<g id="node26" class="node">
<title>Node26</title>
<g id="a_node26"><a xlink:href="../../dc/d67/class_cache.html" target="_top" xlink:title=" ">
<polygon fill="white" stroke="#666666" points="450,-76.81 361,-76.81 361,-57.81 450,-57.81 450,-76.81"/>
<text text-anchor="middle" x="405.5" y="-64.81" font-family="Helvetica,sans-Serif" font-size="10.00">Cache&lt; K, V &gt;</text>
</a>
</g>
</g>
<!-- Node26&#45;&gt;Node25 -->
<g id="edge31" class="edge">
<title>Node26&#45;&gt;Node25</title>
<path fill="none" stroke="orange" stroke-dasharray="5,2" d="M460.48,-67.31C520.22,-67.31 615.92,-67.31 675.76,-67.31"/>
<polygon fill="orange" stroke="orange" points="460.13,-63.81 450.13,-67.31 460.13,-70.81 460.13,-63.81"/>
<text text-anchor="middle" x="574" y="-70.31" font-family="Helvetica,sans-Serif" font-size="10.00" fill="grey"> &lt; std::string, LookupInfo &gt;</text>
</g>
<!-- Node27 -->
<g id="node27" class="node">
<title>Node27</title>
<g id="a_node27"><a xlink:href="../../de/d40/class_dir_linked_map.html" target="_top" xlink:title="A linked map of directories.">
<polygon fill="white" stroke="#666666" points="772.5,-354.81 689.5,-354.81 689.5,-335.81 772.5,-335.81 772.5,-354.81"/>
<text text-anchor="middle" x="731" y="-342.81" font-family="Helvetica,sans-Serif" font-size="10.00">DirLinkedMap</text>
</a>
</g>
</g>
<!-- Node27&#45;&gt;Node1 -->
<g id="edge32" class="edge">
<title>Node27&#45;&gt;Node1</title>
<path fill="none" stroke="#9a32cd" stroke-dasharray="5,2" d="M782.06,-333.65C794.72,-330.97 808.32,-328.33 821,-326.31 870.97,-318.39 929.67,-313.1 963.97,-310.41"/>
<polygon fill="#9a32cd" stroke="#9a32cd" points="781.18,-330.26 772.15,-335.8 782.66,-337.1 781.18,-330.26"/>
<text text-anchor="middle" x="883.5" y="-329.31" font-family="Helvetica,sans-Serif" font-size="10.00" fill="grey"> dirLinkedMap</text>
</g>
<!-- Node28&#45;&gt;Node27 -->
<g id="edge33" class="edge">
<title>Node28&#45;&gt;Node27</title>
<path fill="none" stroke="#63b8ff" d="M477.52,-345.31C542.48,-345.31 636.3,-345.31 689.38,-345.31"/>
<polygon fill="#63b8ff" stroke="#63b8ff" points="477.35,-341.81 467.35,-345.31 477.35,-348.81 477.35,-341.81"/>
</g>
<!-- Node29 -->
<g id="node29" class="node">
<title>Node29</title>
<g id="a_node29"><a xlink:href="../../d4/d03/class_dir_relation_linked_map.html" target="_top" xlink:title=" ">
<polygon fill="white" stroke="#666666" points="793,-311.81 669,-311.81 669,-292.81 793,-292.81 793,-311.81"/>
<text text-anchor="middle" x="731" y="-299.81" font-family="Helvetica,sans-Serif" font-size="10.00">DirRelationLinkedMap</text>
</a>
</g>
</g>
<!-- Node29&#45;&gt;Node1 -->
<g id="edge35" class="edge">
<title>Node29&#45;&gt;Node1</title>
<path fill="none" stroke="#9a32cd" stroke-dasharray="5,2" d="M802.47,-291.62C844.41,-287.09 898.54,-284.46 946,-292.31 953.99,-293.64 962.45,-296.15 969.96,-298.79"/>
<polygon fill="#9a32cd" stroke="#9a32cd" points="801.89,-288.16 792.35,-292.78 802.69,-295.12 801.89,-288.16"/>
<text text-anchor="middle" x="883.5" y="-295.31" font-family="Helvetica,sans-Serif" font-size="10.00" fill="grey"> dirRelations</text>
</g>
<!-- Node30&#45;&gt;Node29 -->
<g id="edge36" class="edge">
<title>Node30&#45;&gt;Node29</title>
<path fill="none" stroke="#63b8ff" d="M488.96,-306.78C545.03,-305.74 618,-304.39 668.89,-303.45"/>
<polygon fill="#63b8ff" stroke="#63b8ff" points="488.63,-303.29 478.7,-306.97 488.76,-310.29 488.63,-303.29"/>
</g>
<!-- Node31 -->
<g id="node31" class="node">
<title>Node31</title>
<g id="a_node31"><a xlink:href="../../d4/d0d/class_parser_manager.html" target="_top" xlink:title="Manages programming language parsers.">
<polygon fill="white" stroke="#666666" points="775.5,-193.81 686.5,-193.81 686.5,-174.81 775.5,-174.81 775.5,-193.81"/>
<text text-anchor="middle" x="731" y="-181.81" font-family="Helvetica,sans-Serif" font-size="10.00">ParserManager</text>
</a>
</g>
</g>
<!-- Node31&#45;&gt;Node1 -->
<g id="edge38" class="edge">
<title>Node31&#45;&gt;Node1</title>
<path fill="none" stroke="#9a32cd" stroke-dasharray="5,2" d="M783.96,-173.19C830.69,-166.26 899,-164.08 946,-197.31 980.35,-221.6 989.73,-276.18 992.18,-298.51"/>
<polygon fill="#9a32cd" stroke="#9a32cd" points="783.36,-169.74 774.05,-174.78 784.47,-176.65 783.36,-169.74"/>
<text text-anchor="middle" x="883.5" y="-200.31" font-family="Helvetica,sans-Serif" font-size="10.00" fill="grey"> parserManager</text>
</g>
<!-- Node32&#45;&gt;Node31 -->
<g id="edge39" class="edge">
<title>Node32&#45;&gt;Node31</title>
<path fill="none" stroke="#9a32cd" stroke-dasharray="5,2" d="M487.15,-155.86C532.52,-155.53 590.11,-156.84 641,-163.31 651.08,-164.6 673.33,-169.85 693.06,-174.78"/>
<polygon fill="#9a32cd" stroke="#9a32cd" points="487.04,-152.36 477.07,-155.97 487.11,-159.36 487.04,-152.36"/>
<text text-anchor="middle" x="574" y="-166.31" font-family="Helvetica,sans-Serif" font-size="10.00" fill="grey"> m_defaultParsers</text>
</g>
<!-- Node33 -->
<g id="node33" class="node">
<title>Node33</title>
<g id="a_node33"><a xlink:href="../../d9/d57/class_index_list.html" target="_top" xlink:title="A list of index interfaces.">
<polygon fill="white" stroke="#666666" points="761.5,-33.81 700.5,-33.81 700.5,-14.81 761.5,-14.81 761.5,-33.81"/>
<text text-anchor="middle" x="731" y="-21.81" font-family="Helvetica,sans-Serif" font-size="10.00">IndexList</text>
</a>
</g>
</g>
<!-- Node33&#45;&gt;Node1 -->
<g id="edge41" class="edge">
<title>Node33&#45;&gt;Node1</title>
<path fill="none" stroke="#9a32cd" stroke-dasharray="5,2" d="M770.49,-12.04C817.79,0.42 897.71,12.5 946,-29.31 987.78,-65.49 992.42,-253.6 992.94,-298.62"/>
<polygon fill="#9a32cd" stroke="#9a32cd" points="769.33,-8.72 760.63,-14.76 771.2,-15.47 769.33,-8.72"/>
<text text-anchor="middle" x="883.5" y="-32.31" font-family="Helvetica,sans-Serif" font-size="10.00" fill="grey"> indexList</text>
</g>
</g>
</svg>
