<?xml version="1.0" encoding="UTF-8" standalone="no"?>
<!DOCTYPE svg PUBLIC "-//W3C//DTD SVG 1.1//EN"
 "http://www.w3.org/Graphics/SVG/1.1/DTD/svg11.dtd">
<!-- Generated by graphviz version 2.43.0 (0)
 -->
<!-- Title: DocHtmlBlockQuote Pages: 1 -->
<!--zoomable 409 -->
<svg id="main" version="1.1" xmlns="http://www.w3.org/2000/svg" xmlns:xlink="http://www.w3.org/1999/xlink" xml:space="preserve" onload="init(evt)">
<style type="text/css"><![CDATA[
.edge:hover path { stroke: red; }
.edge:hover polygon { stroke: red; fill: red; }
]]></style>
<script type="text/javascript"><![CDATA[
var edges = document.getElementsByTagName('g');
if (edges && edges.length) {
  for (var i=0;i<edges.length;i++) {
    if (edges[i].id.substr(0,4)=='edge') {
      edges[i].setAttribute('class','edge');
    }
  }
}
]]></script>
        <defs>
                <circle id="rim" cx="0" cy="0" r="7"/>
                <circle id="rim2" cx="0" cy="0" r="3.5"/>
                <g id="zoomPlus">
                        <use xlink:href="#rim" fill="#404040">
                                <set attributeName="fill" to="#808080" begin="zoomplus.mouseover" end="zoomplus.mouseout"/>
                        </use>
                        <path d="M-4,0h8M0,-4v8" fill="none" stroke="white" stroke-width="1.5" pointer-events="none"/>
                </g>
                <g id="zoomMin">
                        <use xlink:href="#rim" fill="#404040">
                                <set attributeName="fill" to="#808080" begin="zoomminus.mouseover" end="zoomminus.mouseout"/>
                        </use>
                        <path d="M-4,0h8" fill="none" stroke="white" stroke-width="1.5" pointer-events="none"/>
                </g>
                <g id="dirArrow">
                        <path fill="none" stroke="white" stroke-width="1.5" d="M0,-3.0v7 M-2.5,-0.5L0,-3.0L2.5,-0.5"/>
                </g>
               <g id="resetDef">
                       <use xlink:href="#rim2" fill="#404040">
                               <set attributeName="fill" to="#808080" begin="reset.mouseover" end="reset.mouseout"/>
                       </use>
               </g>
        </defs>

<script type="text/javascript">
var viewWidth = 1712;
var viewHeight = 409;
var sectionId = 'dynsection-1';
</script>
<script xlink:href="../../svgpan.js"/>
<svg id="graph" class="graph">
<g id="viewport">
<title>DocHtmlBlockQuote</title>
<!-- Node1 -->
<g id="node1" class="node">
<title>Node1</title>
<g id="a_node1"><a xlink:title="Node representing an HTML blockquote.">
<polygon fill="#999999" stroke="#666666" points="1704,-21.5 1588,-21.5 1588,-2.5 1704,-2.5 1704,-21.5"/>
<text text-anchor="middle" x="1646" y="-9.5" font-family="Helvetica,sans-Serif" font-size="10.00">DocHtmlBlockQuote</text>
</a>
</g>
</g>
<!-- Node2 -->
<g id="node2" class="node">
<title>Node2</title>
<g id="a_node2"><a xlink:href="../../da/dfc/class_doc_compound_node.html" target="_top" xlink:title="Base class for nodes with children.">
<polygon fill="white" stroke="#666666" points="1551,-245.5 1438,-245.5 1438,-226.5 1551,-226.5 1551,-245.5"/>
<text text-anchor="middle" x="1494.5" y="-233.5" font-family="Helvetica,sans-Serif" font-size="10.00">DocCompoundNode</text>
</a>
</g>
</g>
<!-- Node2&#45;&gt;Node1 -->
<g id="edge1" class="edge">
<title>Node2&#45;&gt;Node1</title>
<path fill="none" stroke="#63b8ff" d="M1507.61,-217.86C1537.82,-172.59 1615.73,-55.85 1638.6,-21.59"/>
<polygon fill="#63b8ff" stroke="#63b8ff" points="1504.56,-216.11 1501.92,-226.38 1510.39,-220 1504.56,-216.11"/>
</g>
<!-- Node3 -->
<g id="node3" class="node">
<title>Node3</title>
<g id="a_node3"><a xlink:href="../../d9/d0e/class_doc_node.html" target="_top" xlink:title="Abstract node interface with type information.">
<polygon fill="white" stroke="#666666" points="1335.5,-245.5 1274.5,-245.5 1274.5,-226.5 1335.5,-226.5 1335.5,-245.5"/>
<text text-anchor="middle" x="1305" y="-233.5" font-family="Helvetica,sans-Serif" font-size="10.00">DocNode</text>
</a>
</g>
</g>
<!-- Node3&#45;&gt;Node2 -->
<g id="edge2" class="edge">
<title>Node3&#45;&gt;Node2</title>
<path fill="none" stroke="#63b8ff" d="M1345.87,-236C1372.65,-236 1408.31,-236 1437.87,-236"/>
<polygon fill="#63b8ff" stroke="#63b8ff" points="1345.71,-232.5 1335.71,-236 1345.71,-239.5 1345.71,-232.5"/>
</g>
<!-- Node4 -->
<g id="node4" class="node">
<title>Node4</title>
<g id="a_node4"><a xlink:href="../../da/d02/class_doc_parser.html" target="_top" xlink:title=" ">
<polygon fill="white" stroke="#666666" points="1126.5,-245.5 1061.5,-245.5 1061.5,-226.5 1126.5,-226.5 1126.5,-245.5"/>
<text text-anchor="middle" x="1094" y="-233.5" font-family="Helvetica,sans-Serif" font-size="10.00">DocParser</text>
</a>
</g>
</g>
<!-- Node4&#45;&gt;Node3 -->
<g id="edge3" class="edge">
<title>Node4&#45;&gt;Node3</title>
<path fill="none" stroke="#9a32cd" stroke-dasharray="5,2" d="M1136.89,-236C1177.6,-236 1238.39,-236 1274.33,-236"/>
<polygon fill="#9a32cd" stroke="#9a32cd" points="1136.74,-232.5 1126.74,-236 1136.74,-239.5 1136.74,-232.5"/>
<text text-anchor="middle" x="1223.5" y="-239" font-family="Helvetica,sans-Serif" font-size="10.00" fill="grey"> m_parser</text>
</g>
<!-- Node5 -->
<g id="node5" class="node">
<title>Node5</title>
<g id="a_node5"><a xlink:href="../../de/dad/class_i_doc_parser.html" target="_top" xlink:title="opaque parser interface">
<polygon fill="white" stroke="#666666" points="848,-268.5 780,-268.5 780,-249.5 848,-249.5 848,-268.5"/>
<text text-anchor="middle" x="814" y="-256.5" font-family="Helvetica,sans-Serif" font-size="10.00">IDocParser</text>
</a>
</g>
</g>
<!-- Node5&#45;&gt;Node4 -->
<g id="edge4" class="edge">
<title>Node5&#45;&gt;Node4</title>
<path fill="none" stroke="#63b8ff" d="M858.44,-255.58C893.64,-252.79 944.52,-248.71 989,-245 1013.2,-242.98 1040.56,-240.61 1061.14,-238.81"/>
<polygon fill="#63b8ff" stroke="#63b8ff" points="857.73,-252.12 848.04,-256.4 858.28,-259.1 857.73,-252.12"/>
</g>
<!-- Node6 -->
<g id="node6" class="node">
<title>Node6</title>
<g id="a_node6"><a xlink:href="../../d8/d7d/struct_doc_parser_context.html" target="_top" xlink:title="Parser&#39;s context to store all global variables.">
<polygon fill="white" stroke="#666666" points="866,-231.5 762,-231.5 762,-212.5 866,-212.5 866,-231.5"/>
<text text-anchor="middle" x="814" y="-219.5" font-family="Helvetica,sans-Serif" font-size="10.00">DocParserContext</text>
</a>
</g>
</g>
<!-- Node6&#45;&gt;Node4 -->
<g id="edge5" class="edge">
<title>Node6&#45;&gt;Node4</title>
<path fill="none" stroke="#9a32cd" stroke-dasharray="5,2" d="M876.32,-225.09C933.53,-227.97 1016.6,-232.15 1061.44,-234.41"/>
<polygon fill="#9a32cd" stroke="#9a32cd" points="876.48,-221.59 866.31,-224.58 876.12,-228.58 876.48,-221.59"/>
<text text-anchor="middle" x="936.5" y="-234" font-family="Helvetica,sans-Serif" font-size="10.00" fill="grey"> context</text>
</g>
<!-- Node7 -->
<g id="node7" class="node">
<title>Node7</title>
<g id="a_node7"><a xlink:href="../../d5/dcc/class_definition.html" target="_top" xlink:title="The common base class of all entity definitions found in the sources.">
<polygon fill="white" stroke="#666666" points="294.5,-294.5 230.5,-294.5 230.5,-275.5 294.5,-275.5 294.5,-294.5"/>
<text text-anchor="middle" x="262.5" y="-282.5" font-family="Helvetica,sans-Serif" font-size="10.00">Definition</text>
</a>
</g>
</g>
<!-- Node7&#45;&gt;Node6 -->
<g id="edge6" class="edge">
<title>Node7&#45;&gt;Node6</title>
<path fill="none" stroke="#9a32cd" stroke-dasharray="5,2" d="M304.76,-289.62C374.63,-296.63 520.59,-307.76 643,-294 688.75,-288.86 706.92,-298.28 744,-271 756.83,-261.56 749.73,-250.17 762,-240 766.12,-236.58 770.93,-233.8 775.93,-231.53"/>
<polygon fill="#9a32cd" stroke="#9a32cd" points="304.92,-286.12 294.62,-288.58 304.21,-293.08 304.92,-286.12"/>
<text text-anchor="middle" x="583.5" y="-303" font-family="Helvetica,sans-Serif" font-size="10.00" fill="grey"> scope</text>
</g>
<!-- Node13 -->
<g id="node13" class="node">
<title>Node13</title>
<g id="a_node13"><a xlink:href="../../da/d09/class_member_def.html" target="_top" xlink:title="A model of a class/file/namespace member symbol.">
<polygon fill="white" stroke="#666666" points="620.5,-284.5 546.5,-284.5 546.5,-265.5 620.5,-265.5 620.5,-284.5"/>
<text text-anchor="middle" x="583.5" y="-272.5" font-family="Helvetica,sans-Serif" font-size="10.00">MemberDef</text>
</a>
</g>
</g>
<!-- Node7&#45;&gt;Node13 -->
<g id="edge13" class="edge">
<title>Node7&#45;&gt;Node13</title>
<path fill="none" stroke="#63b8ff" d="M305.02,-283.7C368.02,-281.72 486.7,-278 546.35,-276.13"/>
<polygon fill="#63b8ff" stroke="#63b8ff" points="304.55,-280.21 294.67,-284.02 304.77,-287.21 304.55,-280.21"/>
</g>
<!-- Node8 -->
<g id="node8" class="node">
<title>Node8</title>
<g id="a_node8"><a xlink:href="../../d9/d45/class_q_c_string.html" target="_top" xlink:title="This is an alternative implementation of QCString.">
<polygon fill="white" stroke="#666666" points="292,-129.5 233,-129.5 233,-110.5 292,-110.5 292,-129.5"/>
<text text-anchor="middle" x="262.5" y="-117.5" font-family="Helvetica,sans-Serif" font-size="10.00">QCString</text>
</a>
</g>
</g>
<!-- Node8&#45;&gt;Node6 -->
<g id="edge7" class="edge">
<title>Node8&#45;&gt;Node6</title>
<path fill="none" stroke="#9a32cd" stroke-dasharray="5,2" d="M294.31,-133.38C313.89,-141.29 339.99,-150.76 364,-156 485.6,-182.54 520.21,-159.68 643,-180 691.59,-188.04 746.76,-202.72 780.72,-212.42"/>
<polygon fill="#9a32cd" stroke="#9a32cd" points="295.56,-130.11 284.98,-129.53 292.89,-136.58 295.56,-130.11"/>
<text text-anchor="middle" x="583.5" y="-249" font-family="Helvetica,sans-Serif" font-size="10.00" fill="grey"> context</text>
<text text-anchor="middle" x="583.5" y="-238" font-family="Helvetica,sans-Serif" font-size="10.00" fill="grey">exampleName</text>
<text text-anchor="middle" x="583.5" y="-227" font-family="Helvetica,sans-Serif" font-size="10.00" fill="grey">fileName</text>
<text text-anchor="middle" x="583.5" y="-216" font-family="Helvetica,sans-Serif" font-size="10.00" fill="grey">includeFileName</text>
<text text-anchor="middle" x="583.5" y="-205" font-family="Helvetica,sans-Serif" font-size="10.00" fill="grey">includeFileText</text>
<text text-anchor="middle" x="583.5" y="-194" font-family="Helvetica,sans-Serif" font-size="10.00" fill="grey">relPath</text>
<text text-anchor="middle" x="583.5" y="-183" font-family="Helvetica,sans-Serif" font-size="10.00" fill="grey">searchUrl</text>
</g>
<!-- Node14 -->
<g id="node14" class="node">
<title>Node14</title>
<g id="a_node14"><a xlink:href="../../d6/df4/struct_token_info.html" target="_top" xlink:title="Data associated with a token used by the comment block parser.">
<polygon fill="white" stroke="#666666" points="615,-76.5 552,-76.5 552,-57.5 615,-57.5 615,-76.5"/>
<text text-anchor="middle" x="583.5" y="-64.5" font-family="Helvetica,sans-Serif" font-size="10.00">TokenInfo</text>
</a>
</g>
</g>
<!-- Node8&#45;&gt;Node14 -->
<g id="edge15" class="edge">
<title>Node8&#45;&gt;Node14</title>
<path fill="none" stroke="#9a32cd" stroke-dasharray="5,2" d="M285.45,-104.74C305.03,-92.11 335.01,-75.12 364,-68 429.39,-51.93 509.14,-57.66 551.91,-62.69"/>
<polygon fill="#9a32cd" stroke="#9a32cd" points="283.38,-101.92 276.97,-110.36 287.24,-107.75 283.38,-101.92"/>
<text text-anchor="middle" x="435" y="-148" font-family="Helvetica,sans-Serif" font-size="10.00" fill="grey"> attribsStr</text>
<text text-anchor="middle" x="435" y="-137" font-family="Helvetica,sans-Serif" font-size="10.00" fill="grey">chars</text>
<text text-anchor="middle" x="435" y="-126" font-family="Helvetica,sans-Serif" font-size="10.00" fill="grey">name</text>
<text text-anchor="middle" x="435" y="-115" font-family="Helvetica,sans-Serif" font-size="10.00" fill="grey">sectionId</text>
<text text-anchor="middle" x="435" y="-104" font-family="Helvetica,sans-Serif" font-size="10.00" fill="grey">simpleSectName</text>
<text text-anchor="middle" x="435" y="-93" font-family="Helvetica,sans-Serif" font-size="10.00" fill="grey">simpleSectText</text>
<text text-anchor="middle" x="435" y="-82" font-family="Helvetica,sans-Serif" font-size="10.00" fill="grey">text</text>
<text text-anchor="middle" x="435" y="-71" font-family="Helvetica,sans-Serif" font-size="10.00" fill="grey">verb</text>
</g>
<!-- Node9 -->
<g id="node9" class="node">
<title>Node9</title>
<g id="a_node9"><a xlink:href="../../d9/d82/class_iterable_stack.html" target="_top" xlink:title=" ">
<polygon fill="white" stroke="#666666" points="643,-380 524,-380 524,-350 643,-350 643,-380"/>
<text text-anchor="start" x="532" y="-368" font-family="Helvetica,sans-Serif" font-size="10.00">IterableStack&lt; const</text>
<text text-anchor="middle" x="583.5" y="-357" font-family="Helvetica,sans-Serif" font-size="10.00"> DocNodeVariant * &gt;</text>
</a>
</g>
</g>
<!-- Node9&#45;&gt;Node6 -->
<g id="edge8" class="edge">
<title>Node9&#45;&gt;Node6</title>
<path fill="none" stroke="#9a32cd" stroke-dasharray="5,2" d="M653.26,-368.71C684.9,-366.67 720.52,-358.45 744,-335 774.41,-304.63 734.01,-272.61 762,-240 764.94,-236.58 768.56,-233.81 772.52,-231.57"/>
<polygon fill="#9a32cd" stroke="#9a32cd" points="652.99,-365.22 643.16,-369.17 653.3,-372.22 652.99,-365.22"/>
<text text-anchor="middle" x="702.5" y="-382" font-family="Helvetica,sans-Serif" font-size="10.00" fill="grey"> initialStyleStack</text>
<text text-anchor="middle" x="702.5" y="-371" font-family="Helvetica,sans-Serif" font-size="10.00" fill="grey">styleStack</text>
</g>
<!-- Node10 -->
<g id="node10" class="node">
<title>Node10</title>
<g id="a_node10"><a xlink:title=" ">
<polygon fill="white" stroke="#666666" points="346,-400.5 179,-400.5 179,-359.5 346,-359.5 346,-400.5"/>
<text text-anchor="start" x="187" y="-388.5" font-family="Helvetica,sans-Serif" font-size="10.00">std::stack&lt; const DocNode</text>
<text text-anchor="start" x="187" y="-377.5" font-family="Helvetica,sans-Serif" font-size="10.00">Variant * , std::deque</text>
<text text-anchor="middle" x="262.5" y="-366.5" font-family="Helvetica,sans-Serif" font-size="10.00">&lt;const DocNodeVariant * &gt; &#160;&gt;</text>
</a>
</g>
</g>
<!-- Node10&#45;&gt;Node9 -->
<g id="edge9" class="edge">
<title>Node10&#45;&gt;Node9</title>
<path fill="none" stroke="#63b8ff" d="M356.36,-375.63C410.48,-373.09 477.08,-369.96 523.94,-367.75"/>
<polygon fill="#63b8ff" stroke="#63b8ff" points="355.89,-372.15 346.07,-376.12 356.22,-379.14 355.89,-372.15"/>
</g>
<!-- Node11 -->
<g id="node11" class="node">
<title>Node11</title>
<g id="a_node11"><a xlink:href="../../d9/d82/class_iterable_stack.html" target="_top" xlink:title=" ">
<polygon fill="white" stroke="#666666" points="344,-341.5 181,-341.5 181,-322.5 344,-322.5 344,-341.5"/>
<text text-anchor="middle" x="262.5" y="-329.5" font-family="Helvetica,sans-Serif" font-size="10.00">IterableStack&lt; T, Container &gt;</text>
</a>
</g>
</g>
<!-- Node11&#45;&gt;Node9 -->
<g id="edge10" class="edge">
<title>Node11&#45;&gt;Node9</title>
<path fill="none" stroke="orange" stroke-dasharray="5,2" d="M354.36,-338.37C399.95,-341.95 455.98,-346.92 506,-353 511.74,-353.7 517.71,-354.5 523.67,-355.35"/>
<polygon fill="orange" stroke="orange" points="354.44,-334.87 344.2,-337.58 353.9,-341.85 354.44,-334.87"/>
<text text-anchor="middle" x="435" y="-356" font-family="Helvetica,sans-Serif" font-size="10.00" fill="grey"> &lt; const DocNodeVariant * &gt;</text>
</g>
<!-- Node12 -->
<g id="node12" class="node">
<title>Node12</title>
<g id="a_node12"><a xlink:title=" ">
<polygon fill="white" stroke="#666666" points="122,-347 20,-347 20,-317 122,-317 122,-347"/>
<text text-anchor="start" x="28" y="-335" font-family="Helvetica,sans-Serif" font-size="10.00">std::stack&lt; T, std</text>
<text text-anchor="middle" x="71" y="-324" font-family="Helvetica,sans-Serif" font-size="10.00">::deque&lt; T &gt; &gt;</text>
</a>
</g>
</g>
<!-- Node12&#45;&gt;Node11 -->
<g id="edge11" class="edge">
<title>Node12&#45;&gt;Node11</title>
<path fill="none" stroke="#63b8ff" d="M132.67,-332C148.02,-332 164.74,-332 180.91,-332"/>
<polygon fill="#63b8ff" stroke="#63b8ff" points="132.29,-328.5 122.29,-332 132.28,-335.5 132.29,-328.5"/>
</g>
<!-- Node13&#45;&gt;Node6 -->
<g id="edge12" class="edge">
<title>Node13&#45;&gt;Node6</title>
<path fill="none" stroke="#9a32cd" stroke-dasharray="5,2" d="M630.54,-264.32C671.93,-254.72 732.16,-240.75 771.94,-231.52"/>
<polygon fill="#9a32cd" stroke="#9a32cd" points="629.66,-260.93 620.71,-266.6 631.24,-267.75 629.66,-260.93"/>
<text text-anchor="middle" x="702.5" y="-259" font-family="Helvetica,sans-Serif" font-size="10.00" fill="grey"> memberDef</text>
</g>
<!-- Node14&#45;&gt;Node6 -->
<g id="edge14" class="edge">
<title>Node14&#45;&gt;Node6</title>
<path fill="none" stroke="#9a32cd" stroke-dasharray="5,2" d="M624.92,-76.91C661.04,-87.8 712.93,-108.73 744,-145 761.56,-165.5 743.45,-183.39 762,-203 765.7,-206.91 770.28,-210.03 775.17,-212.5"/>
<polygon fill="#9a32cd" stroke="#9a32cd" points="625.76,-73.51 615.18,-74.11 623.82,-80.24 625.76,-73.51"/>
<text text-anchor="middle" x="702.5" y="-148" font-family="Helvetica,sans-Serif" font-size="10.00" fill="grey"> token</text>
</g>
<!-- Node15 -->
<g id="node15" class="node">
<title>Node15</title>
<g id="a_node15"><a xlink:href="../../db/d4d/class_html_attrib_list.html" target="_top" xlink:title="Class representing a list of HTML attributes.">
<polygon fill="white" stroke="#666666" points="305,-26.5 220,-26.5 220,-7.5 305,-7.5 305,-26.5"/>
<text text-anchor="middle" x="262.5" y="-14.5" font-family="Helvetica,sans-Serif" font-size="10.00">HtmlAttribList</text>
</a>
</g>
</g>
<!-- Node15&#45;&gt;Node1 -->
<g id="edge23" class="edge">
<title>Node15&#45;&gt;Node1</title>
<path fill="none" stroke="#9a32cd" stroke-dasharray="5,2" d="M315.09,-12.56C378.13,-7.52 488.07,0 582.5,0 582.5,0 582.5,0 1495.5,0 1526.1,0 1560.1,-2.53 1587.94,-5.26"/>
<polygon fill="#9a32cd" stroke="#9a32cd" points="314.69,-9.08 305.01,-13.37 315.26,-16.06 314.69,-9.08"/>
<text text-anchor="middle" x="1094" y="-3" font-family="Helvetica,sans-Serif" font-size="10.00" fill="grey"> m_attribs</text>
</g>
<!-- Node15&#45;&gt;Node14 -->
<g id="edge16" class="edge">
<title>Node15&#45;&gt;Node14</title>
<path fill="none" stroke="#9a32cd" stroke-dasharray="5,2" d="M315.51,-15.63C365.15,-15.5 441.68,-18.35 506,-34 527.08,-39.13 549.72,-49.58 564.86,-57.35"/>
<polygon fill="#9a32cd" stroke="#9a32cd" points="315.32,-12.13 305.34,-15.7 315.37,-19.13 315.32,-12.13"/>
<text text-anchor="middle" x="435" y="-37" font-family="Helvetica,sans-Serif" font-size="10.00" fill="grey"> attribs</text>
</g>
<!-- Node16 -->
<g id="node16" class="node">
<title>Node16</title>
<g id="a_node16"><a xlink:title=" ">
<polygon fill="white" stroke="#666666" points="142,-26.5 0,-26.5 0,-7.5 142,-7.5 142,-26.5"/>
<text text-anchor="middle" x="71" y="-14.5" font-family="Helvetica,sans-Serif" font-size="10.00">std::vector&lt; HtmlAttrib &gt;</text>
</a>
</g>
</g>
<!-- Node16&#45;&gt;Node15 -->
<g id="edge17" class="edge">
<title>Node16&#45;&gt;Node15</title>
<path fill="none" stroke="#63b8ff" d="M152.25,-17C175.51,-17 199.96,-17 219.82,-17"/>
<polygon fill="#63b8ff" stroke="#63b8ff" points="152.02,-13.5 142.02,-17 152.02,-20.5 152.02,-13.5"/>
</g>
<!-- Node17 -->
<g id="node17" class="node">
<title>Node17</title>
<g id="a_node17"><a xlink:href="../../d1/d7f/class_doc_tokenizer.html" target="_top" xlink:title=" ">
<polygon fill="white" stroke="#666666" points="854.5,-194.5 773.5,-194.5 773.5,-175.5 854.5,-175.5 854.5,-194.5"/>
<text text-anchor="middle" x="814" y="-182.5" font-family="Helvetica,sans-Serif" font-size="10.00">DocTokenizer</text>
</a>
</g>
</g>
<!-- Node17&#45;&gt;Node4 -->
<g id="edge18" class="edge">
<title>Node17&#45;&gt;Node4</title>
<path fill="none" stroke="#9a32cd" stroke-dasharray="5,2" d="M864.51,-191.22C899.43,-195.9 947.25,-202.88 989,-211 1013.43,-215.75 1040.78,-222.38 1061.3,-227.62"/>
<polygon fill="#9a32cd" stroke="#9a32cd" points="864.93,-187.75 854.56,-189.91 864.01,-194.69 864.93,-187.75"/>
<text text-anchor="middle" x="936.5" y="-214" font-family="Helvetica,sans-Serif" font-size="10.00" fill="grey"> tokenizer</text>
</g>
<!-- Node18 -->
<g id="node18" class="node">
<title>Node18</title>
<g id="a_node18"><a xlink:href="../../d2/dc1/class_s_i_data_collection.html" target="_top" xlink:title=" ">
<polygon fill="white" stroke="#666666" points="863,-305.5 765,-305.5 765,-286.5 863,-286.5 863,-305.5"/>
<text text-anchor="middle" x="814" y="-293.5" font-family="Helvetica,sans-Serif" font-size="10.00">SIDataCollection</text>
</a>
</g>
</g>
<!-- Node18&#45;&gt;Node4 -->
<g id="edge19" class="edge">
<title>Node18&#45;&gt;Node4</title>
<path fill="none" stroke="#9a32cd" stroke-dasharray="5,2" d="M873.37,-285.93C907.25,-279.84 950.66,-271.6 989,-263 1013.39,-257.53 1040.74,-250.39 1061.27,-244.82"/>
<polygon fill="#9a32cd" stroke="#9a32cd" points="872.41,-282.55 863.18,-287.75 873.64,-289.44 872.41,-282.55"/>
<text text-anchor="middle" x="936.5" y="-286" font-family="Helvetica,sans-Serif" font-size="10.00" fill="grey"> searchData</text>
</g>
<!-- Node19 -->
<g id="node19" class="node">
<title>Node19</title>
<g id="a_node19"><a xlink:href="../../d9/dd3/struct_doc_node_list.html" target="_top" xlink:title=" ">
<polygon fill="white" stroke="#666666" points="1344,-300.5 1266,-300.5 1266,-281.5 1344,-281.5 1344,-300.5"/>
<text text-anchor="middle" x="1305" y="-288.5" font-family="Helvetica,sans-Serif" font-size="10.00">DocNodeList</text>
</a>
</g>
</g>
<!-- Node19&#45;&gt;Node2 -->
<g id="edge20" class="edge">
<title>Node19&#45;&gt;Node2</title>
<path fill="none" stroke="#9a32cd" stroke-dasharray="5,2" d="M1348.35,-278.58C1382.45,-268.57 1429.69,-254.72 1460.9,-245.56"/>
<polygon fill="#9a32cd" stroke="#9a32cd" points="1347.27,-275.25 1338.66,-281.42 1349.24,-281.96 1347.27,-275.25"/>
<text text-anchor="middle" x="1391" y="-276" font-family="Helvetica,sans-Serif" font-size="10.00" fill="grey"> m_children</text>
</g>
<!-- Node20 -->
<g id="node20" class="node">
<title>Node20</title>
<g id="a_node20"><a xlink:href="../../d0/d08/class_grow_vector.html" target="_top" xlink:title=" ">
<polygon fill="white" stroke="#666666" points="1181,-339.5 1007,-339.5 1007,-320.5 1181,-320.5 1181,-339.5"/>
<text text-anchor="middle" x="1094" y="-327.5" font-family="Helvetica,sans-Serif" font-size="10.00">GrowVector&lt; DocNodeVariant &gt;</text>
</a>
</g>
</g>
<!-- Node20&#45;&gt;Node19 -->
<g id="edge21" class="edge">
<title>Node20&#45;&gt;Node19</title>
<path fill="none" stroke="#63b8ff" d="M1156.37,-318.55C1191.82,-311.93 1235.29,-303.82 1265.85,-298.12"/>
<polygon fill="#63b8ff" stroke="#63b8ff" points="1155.32,-315.18 1146.13,-320.46 1156.6,-322.07 1155.32,-315.18"/>
</g>
<!-- Node21 -->
<g id="node21" class="node">
<title>Node21</title>
<g id="a_node21"><a xlink:href="../../d0/d08/class_grow_vector.html" target="_top" xlink:title="std::vector like container optimised for pushing elements to the back.">
<polygon fill="white" stroke="#666666" points="864.5,-342.5 763.5,-342.5 763.5,-323.5 864.5,-323.5 864.5,-342.5"/>
<text text-anchor="middle" x="814" y="-330.5" font-family="Helvetica,sans-Serif" font-size="10.00">GrowVector&lt; T &gt;</text>
</a>
</g>
</g>
<!-- Node21&#45;&gt;Node20 -->
<g id="edge22" class="edge">
<title>Node21&#45;&gt;Node20</title>
<path fill="none" stroke="orange" stroke-dasharray="5,2" d="M874.73,-332.36C913.27,-331.94 964.03,-331.39 1006.9,-330.93"/>
<polygon fill="orange" stroke="orange" points="874.66,-328.86 864.7,-332.46 874.74,-335.86 874.66,-328.86"/>
<text text-anchor="middle" x="936.5" y="-335" font-family="Helvetica,sans-Serif" font-size="10.00" fill="grey"> &lt; DocNodeVariant &gt;</text>
</g>
</g>
</svg>
        <g id="navigator" transform="translate(0 0)" fill="#404254">
                <rect fill="#f2f5e9" fill-opacity="0.5" stroke="#606060" stroke-width=".5" x="0" y="0" width="60" height="60"/>
                <use id="zoomplus" xlink:href="#zoomPlus" x="17" y="9" onmousedown="handleZoom(evt,'in')"/>
                <use id="zoomminus" xlink:href="#zoomMin" x="42" y="9" onmousedown="handleZoom(evt,'out')"/>
                <use id="reset" xlink:href="#resetDef" x="30" y="36" onmousedown="handleReset()"/>
                <g id="arrowUp" xlink:href="#dirArrow" transform="translate(30 24)" onmousedown="handlePan(0,-1)">
                  <use xlink:href="#rim" fill="#404040">
                        <set attributeName="fill" to="#808080" begin="arrowUp.mouseover" end="arrowUp.mouseout"/>
                  </use>
                  <path fill="none" stroke="white" stroke-width="1.5" d="M0,-3.0v7 M-2.5,-0.5L0,-3.0L2.5,-0.5"/>
                </g>
                <g id="arrowRight" xlink:href="#dirArrow" transform="rotate(90) translate(36 -43)" onmousedown="handlePan(1,0)">
                  <use xlink:href="#rim" fill="#404040">
                        <set attributeName="fill" to="#808080" begin="arrowRight.mouseover" end="arrowRight.mouseout"/>
                  </use>
                  <path fill="none" stroke="white" stroke-width="1.5" d="M0,-3.0v7 M-2.5,-0.5L0,-3.0L2.5,-0.5"/>
                </g>
                <g id="arrowDown" xlink:href="#dirArrow" transform="rotate(180) translate(-30 -48)" onmousedown="handlePan(0,1)">
                  <use xlink:href="#rim" fill="#404040">
                        <set attributeName="fill" to="#808080" begin="arrowDown.mouseover" end="arrowDown.mouseout"/>
                  </use>
                  <path fill="none" stroke="white" stroke-width="1.5" d="M0,-3.0v7 M-2.5,-0.5L0,-3.0L2.5,-0.5"/>
                </g>
                <g id="arrowLeft" xlink:href="#dirArrow" transform="rotate(270) translate(-36 17)" onmousedown="handlePan(-1,0)">
                  <use xlink:href="#rim" fill="#404040">
                        <set attributeName="fill" to="#808080" begin="arrowLeft.mouseover" end="arrowLeft.mouseout"/>
                  </use>
                  <path fill="none" stroke="white" stroke-width="1.5" d="M0,-3.0v7 M-2.5,-0.5L0,-3.0L2.5,-0.5"/>
                </g>
        </g>
        <svg viewBox="0 0 15 15" width="100%" height="30px" preserveAspectRatio="xMaxYMin meet">
         <g id="arrow_out" transform="scale(0.3 0.3)">
          <a xlink:href="class_doc_html_block_quote__coll__graph_org.svg" target="_base">
           <rect id="button" ry="5" rx="5" y="6" x="6" height="38" width="38"
                fill="#f2f5e9" fill-opacity="0.5" stroke="#606060" stroke-width="1.0"/>
           <path id="arrow"
             d="M 11.500037,31.436501 C 11.940474,20.09759 22.043105,11.32322 32.158766,21.979434 L 37.068811,17.246167 C 37.068811,17.246167 37.088388,32 37.088388,32 L 22.160133,31.978069 C 22.160133,31.978069 26.997745,27.140456 26.997745,27.140456 C 18.528582,18.264221 13.291696,25.230495 11.500037,31.436501 z"
             style="fill:#404040;"/>
          </a>
         </g>
        </svg>
</svg>
