<?xml version="1.0" encoding="UTF-8" standalone="no"?>
<!DOCTYPE svg PUBLIC "-//W3C//DTD SVG 1.1//EN"
 "http://www.w3.org/Graphics/SVG/1.1/DTD/svg11.dtd">
<!-- Generated by graphviz version 2.43.0 (0)
 -->
<!-- Title: ScopedTypeVariant Pages: 1 -->
<svg width="227pt" height="93pt"
 viewBox="0.00 0.00 227.00 93.00" xmlns="http://www.w3.org/2000/svg" xmlns:xlink="http://www.w3.org/1999/xlink">
<g id="graph0" class="graph" transform="scale(1 1) rotate(0) translate(4 89)">
<title>ScopedTypeVariant</title>
<!-- Node1 -->
<g id="node1" class="node">
<title>Node1</title>
<g id="a_node1"><a xlink:title=" ">
<polygon fill="#999999" stroke="#666666" points="164,-19 55,-19 55,0 164,0 164,-19"/>
<text text-anchor="middle" x="109.5" y="-7" font-family="Helvetica,sans-Serif" font-size="10.00">ScopedTypeVariant</text>
</a>
</g>
</g>
<!-- Node2 -->
<g id="node2" class="node">
<title>Node2</title>
<g id="a_node2"><a xlink:href="../../d9/d45/class_q_c_string.html" target="_top" xlink:title="This is an alternative implementation of QCString.">
<polygon fill="white" stroke="#666666" points="59,-85 0,-85 0,-66 59,-66 59,-85"/>
<text text-anchor="middle" x="29.5" y="-73" font-family="Helvetica,sans-Serif" font-size="10.00">QCString</text>
</a>
</g>
</g>
<!-- Node2&#45;&gt;Node1 -->
<g id="edge1" class="edge">
<title>Node2&#45;&gt;Node1</title>
<path fill="none" stroke="#9a32cd" stroke-dasharray="5,2" d="M40.95,-57.27C46.07,-50.4 52.53,-42.78 59.5,-37 68.28,-29.73 79.37,-23.61 88.87,-19.09"/>
<polygon fill="#9a32cd" stroke="#9a32cd" points="37.75,-55.72 34.86,-65.92 43.48,-59.75 37.75,-55.72"/>
<text text-anchor="middle" x="82.5" y="-40" font-family="Helvetica,sans-Serif" font-size="10.00" fill="grey"> m_name</text>
</g>
<!-- Node3 -->
<g id="node3" class="node">
<title>Node3</title>
<g id="a_node3"><a xlink:href="../../d5/dcc/class_definition.html" target="_top" xlink:title="The common base class of all entity definitions found in the sources.">
<polygon fill="white" stroke="#666666" points="141.5,-85 77.5,-85 77.5,-66 141.5,-66 141.5,-85"/>
<text text-anchor="middle" x="109.5" y="-73" font-family="Helvetica,sans-Serif" font-size="10.00">Definition</text>
</a>
</g>
</g>
<!-- Node3&#45;&gt;Node1 -->
<g id="edge2" class="edge">
<title>Node3&#45;&gt;Node1</title>
<path fill="none" stroke="#9a32cd" stroke-dasharray="5,2" d="M109.5,-55.58C109.5,-43.63 109.5,-28.72 109.5,-19.41"/>
<polygon fill="#9a32cd" stroke="#9a32cd" points="106,-55.87 109.5,-65.87 113,-55.87 106,-55.87"/>
<text text-anchor="middle" x="135" y="-40" font-family="Helvetica,sans-Serif" font-size="10.00" fill="grey"> globalDef</text>
</g>
<!-- Node4 -->
<g id="node4" class="node">
<title>Node4</title>
<g id="a_node4"><a xlink:href="../../dc/db8/class_local_def.html" target="_top" xlink:title="Class representing a local class definition found while generating syntax highlighted code.">
<polygon fill="white" stroke="#666666" points="219,-85 160,-85 160,-66 219,-66 219,-85"/>
<text text-anchor="middle" x="189.5" y="-73" font-family="Helvetica,sans-Serif" font-size="10.00">LocalDef</text>
</a>
</g>
</g>
<!-- Node4&#45;&gt;Node1 -->
<g id="edge3" class="edge">
<title>Node4&#45;&gt;Node1</title>
<path fill="none" stroke="#9a32cd" stroke-dasharray="5,2" d="M180.27,-56.6C176.14,-49.83 170.77,-42.45 164.5,-37 155.7,-29.35 144.31,-23.38 134.18,-19.06"/>
<polygon fill="#9a32cd" stroke="#9a32cd" points="177.48,-58.77 185.41,-65.79 183.59,-55.35 177.48,-58.77"/>
<text text-anchor="middle" x="195.5" y="-40" font-family="Helvetica,sans-Serif" font-size="10.00" fill="grey"> localDef</text>
</g>
</g>
</svg>
