<?xml version="1.0" encoding="UTF-8" standalone="no"?>
<!DOCTYPE svg PUBLIC "-//W3C//DTD SVG 1.1//EN"
 "http://www.w3.org/Graphics/SVG/1.1/DTD/svg11.dtd">
<!-- Generated by graphviz version 2.43.0 (0)
 -->
<!-- Title: ManGenerator Pages: 1 -->
<svg width="448pt" height="170pt"
 viewBox="0.00 0.00 448.00 170.00" xmlns="http://www.w3.org/2000/svg" xmlns:xlink="http://www.w3.org/1999/xlink">
<g id="graph0" class="graph" transform="scale(1 1) rotate(0) translate(4 166)">
<title>ManGenerator</title>
<!-- Node1 -->
<g id="node1" class="node">
<title>Node1</title>
<g id="a_node1"><a xlink:title="Generator for Man page output.">
<polygon fill="#999999" stroke="#666666" points="291,-19 205,-19 205,0 291,0 291,-19"/>
<text text-anchor="middle" x="248" y="-7" font-family="Helvetica,sans-Serif" font-size="10.00">ManGenerator</text>
</a>
</g>
</g>
<!-- Node2 -->
<g id="node2" class="node">
<title>Node2</title>
<g id="a_node2"><a xlink:href="../../d3/d8e/class_output_generator.html" target="_top" xlink:title="Abstract output generator.">
<polygon fill="white" stroke="#666666" points="236,-85 138,-85 138,-66 236,-66 236,-85"/>
<text text-anchor="middle" x="187" y="-73" font-family="Helvetica,sans-Serif" font-size="10.00">OutputGenerator</text>
</a>
</g>
</g>
<!-- Node2&#45;&gt;Node1 -->
<g id="edge1" class="edge">
<title>Node2&#45;&gt;Node1</title>
<path fill="none" stroke="#63b8ff" d="M202.27,-58.48C214.05,-46.12 229.9,-29.49 239.51,-19.41"/>
<polygon fill="#63b8ff" stroke="#63b8ff" points="199.59,-56.22 195.23,-65.87 204.66,-61.04 199.59,-56.22"/>
</g>
<!-- Node3 -->
<g id="node3" class="node">
<title>Node3</title>
<g id="a_node3"><a xlink:href="../../df/d27/class_base_output_doc_interface.html" target="_top" xlink:title="Base Interface used for generating output outside of the comment blocks.">
<polygon fill="white" stroke="#666666" points="136,-162 0,-162 0,-143 136,-143 136,-162"/>
<text text-anchor="middle" x="68" y="-150" font-family="Helvetica,sans-Serif" font-size="10.00">BaseOutputDocInterface</text>
</a>
</g>
</g>
<!-- Node3&#45;&gt;Node2 -->
<g id="edge2" class="edge">
<title>Node3&#45;&gt;Node2</title>
<path fill="none" stroke="#63b8ff" d="M90.27,-137.46C114.74,-122.04 153.25,-97.77 173.51,-85"/>
<polygon fill="#63b8ff" stroke="#63b8ff" points="88.24,-134.6 81.65,-142.9 91.98,-140.53 88.24,-134.6"/>
</g>
<!-- Node4 -->
<g id="node4" class="node">
<title>Node4</title>
<g id="a_node4"><a xlink:href="../../d3/d30/class_text_stream.html" target="_top" xlink:title="Text streaming class that buffers data.">
<polygon fill="white" stroke="#666666" points="304,-162 232,-162 232,-143 304,-143 304,-162"/>
<text text-anchor="middle" x="268" y="-150" font-family="Helvetica,sans-Serif" font-size="10.00">TextStream</text>
</a>
</g>
</g>
<!-- Node4&#45;&gt;Node2 -->
<g id="edge3" class="edge">
<title>Node4&#45;&gt;Node2</title>
<path fill="none" stroke="#9a32cd" stroke-dasharray="5,2" d="M262.73,-133.13C259.09,-123.18 253.38,-111.26 245,-103 236.88,-94.99 225.9,-89.14 215.69,-85"/>
<polygon fill="#9a32cd" stroke="#9a32cd" points="259.48,-134.46 265.88,-142.9 266.14,-132.3 259.48,-134.46"/>
<text text-anchor="middle" x="270" y="-111.5" font-family="Helvetica,sans-Serif" font-size="10.00" fill="grey"> m_t</text>
</g>
<!-- Node6 -->
<g id="node6" class="node">
<title>Node6</title>
<g id="a_node6"><a xlink:href="../../db/d92/class_man_code_generator.html" target="_top" xlink:title="Generator for Man page code fragments.">
<polygon fill="white" stroke="#666666" points="367.5,-85 256.5,-85 256.5,-66 367.5,-66 367.5,-85"/>
<text text-anchor="middle" x="312" y="-73" font-family="Helvetica,sans-Serif" font-size="10.00">ManCodeGenerator</text>
</a>
</g>
</g>
<!-- Node4&#45;&gt;Node6 -->
<g id="edge7" class="edge">
<title>Node4&#45;&gt;Node6</title>
<path fill="none" stroke="#9a32cd" stroke-dasharray="5,2" d="M282.92,-134.89C285.44,-131.71 287.91,-128.34 290,-125 298.24,-111.83 305.14,-95.06 308.91,-85.09"/>
<polygon fill="#9a32cd" stroke="#9a32cd" points="280.15,-132.74 276.38,-142.64 285.5,-137.26 280.15,-132.74"/>
<text text-anchor="middle" x="312" y="-111.5" font-family="Helvetica,sans-Serif" font-size="10.00" fill="grey"> m_t</text>
</g>
<!-- Node5 -->
<g id="node5" class="node">
<title>Node5</title>
<g id="a_node5"><a xlink:href="../../d9/d45/class_q_c_string.html" target="_top" xlink:title="This is an alternative implementation of QCString.">
<polygon fill="white" stroke="#666666" points="213.5,-162 154.5,-162 154.5,-143 213.5,-143 213.5,-162"/>
<text text-anchor="middle" x="184" y="-150" font-family="Helvetica,sans-Serif" font-size="10.00">QCString</text>
</a>
</g>
</g>
<!-- Node5&#45;&gt;Node2 -->
<g id="edge4" class="edge">
<title>Node5&#45;&gt;Node2</title>
<path fill="none" stroke="#9a32cd" stroke-dasharray="5,2" d="M184.15,-132.77C184.28,-123.77 184.53,-112.82 185,-103 185.28,-97.1 185.78,-90.48 186.21,-85.33"/>
<polygon fill="#9a32cd" stroke="#9a32cd" points="180.65,-132.87 184.04,-142.91 187.65,-132.95 180.65,-132.87"/>
<text text-anchor="middle" x="215" y="-117" font-family="Helvetica,sans-Serif" font-size="10.00" fill="grey"> m_dir</text>
<text text-anchor="middle" x="215" y="-106" font-family="Helvetica,sans-Serif" font-size="10.00" fill="grey">m_fileName</text>
</g>
<!-- Node6&#45;&gt;Node1 -->
<g id="edge5" class="edge">
<title>Node6&#45;&gt;Node1</title>
<path fill="none" stroke="#9a32cd" stroke-dasharray="5,2" d="M295.98,-58.48C283.62,-46.12 266.99,-29.49 256.91,-19.41"/>
<polygon fill="#9a32cd" stroke="#9a32cd" points="293.82,-61.27 303.37,-65.87 298.77,-56.32 293.82,-61.27"/>
<text text-anchor="middle" x="313.5" y="-40" font-family="Helvetica,sans-Serif" font-size="10.00" fill="grey"> m_codeGen</text>
</g>
<!-- Node7 -->
<g id="node7" class="node">
<title>Node7</title>
<g id="a_node7"><a xlink:href="../../d5/d9c/class_code_output_interface.html" target="_top" xlink:title="Output interface for code parser.">
<polygon fill="white" stroke="#666666" points="440,-162 322,-162 322,-143 440,-143 440,-162"/>
<text text-anchor="middle" x="381" y="-150" font-family="Helvetica,sans-Serif" font-size="10.00">CodeOutputInterface</text>
</a>
</g>
</g>
<!-- Node7&#45;&gt;Node6 -->
<g id="edge6" class="edge">
<title>Node7&#45;&gt;Node6</title>
<path fill="none" stroke="#63b8ff" d="M365.97,-135.16C351.76,-119.72 331,-97.15 319.82,-85"/>
<polygon fill="#63b8ff" stroke="#63b8ff" points="363.74,-137.91 373.08,-142.9 368.89,-133.17 363.74,-137.91"/>
</g>
</g>
</svg>
