<?xml version="1.0" encoding="UTF-8" standalone="no"?>
<!DOCTYPE svg PUBLIC "-//W3C//DTD SVG 1.1//EN"
 "http://www.w3.org/Graphics/SVG/1.1/DTD/svg11.dtd">
<!-- Generated by graphviz version 2.43.0 (0)
 -->
<!-- Title: LatexDocVisitor Pages: 1 -->
<svg width="547pt" height="181pt"
 viewBox="0.00 0.00 546.50 181.00" xmlns="http://www.w3.org/2000/svg" xmlns:xlink="http://www.w3.org/1999/xlink">
<g id="graph0" class="graph" transform="scale(1 1) rotate(0) translate(4 177)">
<title>LatexDocVisitor</title>
<!-- Node1 -->
<g id="node1" class="node">
<title>Node1</title>
<g id="a_node1"><a xlink:title="Concrete visitor implementation for LaTeX output.">
<polygon fill="#999999" stroke="#666666" points="249.5,-19 155.5,-19 155.5,0 249.5,0 249.5,-19"/>
<text text-anchor="middle" x="202.5" y="-7" font-family="Helvetica,sans-Serif" font-size="10.00">LatexDocVisitor</text>
</a>
</g>
</g>
<!-- Node2 -->
<g id="node2" class="node">
<title>Node2</title>
<g id="a_node2"><a xlink:href="../../d0/d78/class_doc_visitor.html" target="_top" xlink:title="Helper base class for functionality shared by all visitors.">
<polygon fill="white" stroke="#666666" points="67,-90.5 0,-90.5 0,-71.5 67,-71.5 67,-90.5"/>
<text text-anchor="middle" x="33.5" y="-78.5" font-family="Helvetica,sans-Serif" font-size="10.00">DocVisitor</text>
</a>
</g>
</g>
<!-- Node2&#45;&gt;Node1 -->
<g id="edge1" class="edge">
<title>Node2&#45;&gt;Node1</title>
<path fill="none" stroke="#63b8ff" d="M49.76,-64.5C60.32,-55.24 74.82,-43.96 89.5,-37 110.08,-27.25 134.5,-20.94 155.37,-16.94"/>
<polygon fill="#63b8ff" stroke="#63b8ff" points="47.25,-62.06 42.21,-71.38 51.96,-67.24 47.25,-62.06"/>
</g>
<!-- Node3 -->
<g id="node3" class="node">
<title>Node3</title>
<g id="a_node3"><a xlink:href="../../d3/d30/class_text_stream.html" target="_top" xlink:title="Text streaming class that buffers data.">
<polygon fill="white" stroke="#666666" points="111.5,-173 39.5,-173 39.5,-154 111.5,-154 111.5,-173"/>
<text text-anchor="middle" x="75.5" y="-161" font-family="Helvetica,sans-Serif" font-size="10.00">TextStream</text>
</a>
</g>
</g>
<!-- Node3&#45;&gt;Node1 -->
<g id="edge2" class="edge">
<title>Node3&#45;&gt;Node1</title>
<path fill="none" stroke="#9a32cd" stroke-dasharray="5,2" d="M78.87,-143.98C83.46,-123.1 93.38,-89.07 112.5,-66 130.89,-43.81 160.58,-27.96 180.78,-19.03"/>
<polygon fill="#9a32cd" stroke="#9a32cd" points="75.43,-143.33 76.9,-153.82 82.3,-144.71 75.43,-143.33"/>
<text text-anchor="middle" x="123.5" y="-78.5" font-family="Helvetica,sans-Serif" font-size="10.00" fill="grey"> m_t</text>
</g>
<!-- Node4 -->
<g id="node4" class="node">
<title>Node4</title>
<g id="a_node4"><a xlink:href="../../d0/d37/class_latex_code_generator.html" target="_top" xlink:title="Generator for LaTeX code fragments.">
<polygon fill="white" stroke="#666666" points="261,-90.5 144,-90.5 144,-71.5 261,-71.5 261,-90.5"/>
<text text-anchor="middle" x="202.5" y="-78.5" font-family="Helvetica,sans-Serif" font-size="10.00">LatexCodeGenerator</text>
</a>
</g>
</g>
<!-- Node3&#45;&gt;Node4 -->
<g id="edge5" class="edge">
<title>Node3&#45;&gt;Node4</title>
<path fill="none" stroke="#9a32cd" stroke-dasharray="5,2" d="M97.88,-148.39C104.23,-144.39 111.14,-140.03 117.5,-136 142.76,-120.01 172.2,-101.29 188.96,-90.62"/>
<polygon fill="#9a32cd" stroke="#9a32cd" points="95.72,-145.62 89.13,-153.92 99.45,-151.54 95.72,-145.62"/>
<text text-anchor="middle" x="161.5" y="-122.5" font-family="Helvetica,sans-Serif" font-size="10.00" fill="grey"> m_t</text>
</g>
<!-- Node4&#45;&gt;Node1 -->
<g id="edge3" class="edge">
<title>Node4&#45;&gt;Node1</title>
<path fill="none" stroke="#9a32cd" stroke-dasharray="5,2" d="M202.5,-61.21C202.5,-47.5 202.5,-29.55 202.5,-19.09"/>
<polygon fill="#9a32cd" stroke="#9a32cd" points="199,-61.48 202.5,-71.48 206,-61.48 199,-61.48"/>
<text text-anchor="middle" x="216" y="-40" font-family="Helvetica,sans-Serif" font-size="10.00" fill="grey"> m_ci</text>
</g>
<!-- Node5 -->
<g id="node5" class="node">
<title>Node5</title>
<g id="a_node5"><a xlink:href="../../d5/d9c/class_code_output_interface.html" target="_top" xlink:title="Output interface for code parser.">
<polygon fill="white" stroke="#666666" points="247.5,-173 129.5,-173 129.5,-154 247.5,-154 247.5,-173"/>
<text text-anchor="middle" x="188.5" y="-161" font-family="Helvetica,sans-Serif" font-size="10.00">CodeOutputInterface</text>
</a>
</g>
</g>
<!-- Node5&#45;&gt;Node4 -->
<g id="edge4" class="edge">
<title>Node5&#45;&gt;Node4</title>
<path fill="none" stroke="#63b8ff" d="M189.69,-143.67C190.45,-134.64 191.65,-123.71 193.5,-114 195.04,-105.95 197.64,-96.98 199.65,-90.6"/>
<polygon fill="#63b8ff" stroke="#63b8ff" points="186.18,-143.62 188.94,-153.85 193.16,-144.13 186.18,-143.62"/>
</g>
<!-- Node6 -->
<g id="node6" class="node">
<title>Node6</title>
<g id="a_node6"><a xlink:href="../../d9/d45/class_q_c_string.html" target="_top" xlink:title="This is an alternative implementation of QCString.">
<polygon fill="white" stroke="#666666" points="342,-173 283,-173 283,-154 342,-154 342,-173"/>
<text text-anchor="middle" x="312.5" y="-161" font-family="Helvetica,sans-Serif" font-size="10.00">QCString</text>
</a>
</g>
</g>
<!-- Node6&#45;&gt;Node1 -->
<g id="edge7" class="edge">
<title>Node6&#45;&gt;Node1</title>
<path fill="none" stroke="#9a32cd" stroke-dasharray="5,2" d="M313,-143.82C312.65,-134.55 311.31,-123.37 307.5,-114 289.37,-69.42 241.24,-34.5 216.95,-19.09"/>
<polygon fill="#9a32cd" stroke="#9a32cd" points="309.5,-143.93 313.03,-153.92 316.5,-143.91 309.5,-143.93"/>
<text text-anchor="middle" x="325" y="-78.5" font-family="Helvetica,sans-Serif" font-size="10.00" fill="grey"> m_langExt</text>
</g>
<!-- Node6&#45;&gt;Node4 -->
<g id="edge6" class="edge">
<title>Node6&#45;&gt;Node4</title>
<path fill="none" stroke="#9a32cd" stroke-dasharray="5,2" d="M272.9,-156.26C249.06,-151.7 221.77,-144.79 213.5,-136 201.83,-123.6 201.07,-102.34 201.69,-90.53"/>
<polygon fill="#9a32cd" stroke="#9a32cd" points="272.38,-159.72 282.84,-158.07 273.63,-152.84 272.38,-159.72"/>
<text text-anchor="middle" x="260.5" y="-128" font-family="Helvetica,sans-Serif" font-size="10.00" fill="grey"> m_relPath</text>
<text text-anchor="middle" x="260.5" y="-117" font-family="Helvetica,sans-Serif" font-size="10.00" fill="grey">m_sourceFileName</text>
</g>
<!-- Node7 -->
<g id="node7" class="node">
<title>Node7</title>
<g id="a_node7"><a xlink:href="../../da/dc3/struct_latex_doc_visitor_1_1_latex_list_item_info.html" target="_top" xlink:title=" ">
<polygon fill="white" stroke="#666666" points="538.5,-96 394.5,-96 394.5,-66 538.5,-66 538.5,-96"/>
<text text-anchor="start" x="402.5" y="-84" font-family="Helvetica,sans-Serif" font-size="10.00">LatexDocVisitor::LatexList</text>
<text text-anchor="middle" x="466.5" y="-73" font-family="Helvetica,sans-Serif" font-size="10.00">ItemInfo</text>
</a>
</g>
</g>
<!-- Node7&#45;&gt;Node1 -->
<g id="edge8" class="edge">
<title>Node7&#45;&gt;Node1</title>
<path fill="none" stroke="#9a32cd" stroke-dasharray="5,2" d="M418.43,-62.68C393.83,-54.21 363.3,-44.3 335.5,-37 307.26,-29.58 275.18,-23.13 249.59,-18.45"/>
<polygon fill="#9a32cd" stroke="#9a32cd" points="417.29,-65.99 427.89,-65.97 419.59,-59.38 417.29,-65.99"/>
<text text-anchor="middle" x="409" y="-40" font-family="Helvetica,sans-Serif" font-size="10.00" fill="grey"> m_listItemInfo</text>
</g>
</g>
</svg>
