<?xml version="1.0" encoding="UTF-8" standalone="no"?>
<!DOCTYPE svg PUBLIC "-//W3C//DTD SVG 1.1//EN"
 "http://www.w3.org/Graphics/SVG/1.1/DTD/svg11.dtd">
<!-- Generated by graphviz version 2.43.0 (0)
 -->
<!-- Title: DotGroupCollaboration Pages: 1 -->
<svg width="441pt" height="270pt"
 viewBox="0.00 0.00 440.50 270.00" xmlns="http://www.w3.org/2000/svg" xmlns:xlink="http://www.w3.org/1999/xlink">
<g id="graph0" class="graph" transform="scale(1 1) rotate(0) translate(4 266)">
<title>DotGroupCollaboration</title>
<!-- Node1 -->
<g id="node1" class="node">
<title>Node1</title>
<g id="a_node1"><a xlink:title="Representation of a group collaboration graph.">
<polygon fill="#999999" stroke="#666666" points="253.5,-19 125.5,-19 125.5,0 253.5,0 253.5,-19"/>
<text text-anchor="middle" x="189.5" y="-7" font-family="Helvetica,sans-Serif" font-size="10.00">DotGroupCollaboration</text>
</a>
</g>
</g>
<!-- Node2 -->
<g id="node2" class="node">
<title>Node2</title>
<g id="a_node2"><a xlink:href="../../d0/d32/class_dot_graph.html" target="_top" xlink:title="A dot graph.">
<polygon fill="white" stroke="#666666" points="101,-85 38,-85 38,-66 101,-66 101,-85"/>
<text text-anchor="middle" x="69.5" y="-73" font-family="Helvetica,sans-Serif" font-size="10.00">DotGraph</text>
</a>
</g>
</g>
<!-- Node2&#45;&gt;Node1 -->
<g id="edge1" class="edge">
<title>Node2&#45;&gt;Node1</title>
<path fill="none" stroke="#63b8ff" d="M93.99,-61.05C107.15,-53.85 123.68,-44.88 138.5,-37 149.95,-30.91 162.93,-24.17 172.92,-19.02"/>
<polygon fill="#63b8ff" stroke="#63b8ff" points="92.17,-58.05 85.08,-65.93 95.53,-64.19 92.17,-58.05"/>
</g>
<!-- Node3 -->
<g id="node3" class="node">
<title>Node3</title>
<g id="a_node3"><a xlink:href="../../d2/dc2/class_dir.html" target="_top" xlink:title="Class representing a directory in the file system.">
<polygon fill="white" stroke="#666666" points="31,-200.5 0,-200.5 0,-181.5 31,-181.5 31,-200.5"/>
<text text-anchor="middle" x="15.5" y="-188.5" font-family="Helvetica,sans-Serif" font-size="10.00">Dir</text>
</a>
</g>
</g>
<!-- Node3&#45;&gt;Node2 -->
<g id="edge2" class="edge">
<title>Node3&#45;&gt;Node2</title>
<path fill="none" stroke="#9a32cd" stroke-dasharray="5,2" d="M10.45,-171.32C6.51,-152.56 3.63,-123.56 16.5,-103 21.63,-94.8 30.14,-89.05 38.85,-85.06"/>
<polygon fill="#9a32cd" stroke="#9a32cd" points="7.1,-172.37 12.84,-181.28 13.91,-170.74 7.1,-172.37"/>
<text text-anchor="middle" x="32" y="-128" font-family="Helvetica,sans-Serif" font-size="10.00" fill="grey"> m_dir</text>
</g>
<!-- Node4 -->
<g id="node4" class="node">
<title>Node4</title>
<g id="a_node4"><a xlink:href="../../d9/d45/class_q_c_string.html" target="_top" xlink:title="This is an alternative implementation of QCString.">
<polygon fill="white" stroke="#666666" points="182,-200.5 123,-200.5 123,-181.5 182,-181.5 182,-200.5"/>
<text text-anchor="middle" x="152.5" y="-188.5" font-family="Helvetica,sans-Serif" font-size="10.00">QCString</text>
</a>
</g>
</g>
<!-- Node4&#45;&gt;Node1 -->
<g id="edge10" class="edge">
<title>Node4&#45;&gt;Node1</title>
<path fill="none" stroke="#9a32cd" stroke-dasharray="5,2" d="M151.6,-171.29C150.93,-146.67 151.47,-102.28 161.5,-66 166.39,-48.32 177.13,-29.65 183.8,-19.1"/>
<polygon fill="#9a32cd" stroke="#9a32cd" points="148.11,-171.52 151.98,-181.38 155.1,-171.26 148.11,-171.52"/>
<text text-anchor="middle" x="195.5" y="-73" font-family="Helvetica,sans-Serif" font-size="10.00" fill="grey"> m_diskName</text>
</g>
<!-- Node4&#45;&gt;Node2 -->
<g id="edge3" class="edge">
<title>Node4&#45;&gt;Node2</title>
<path fill="none" stroke="#9a32cd" stroke-dasharray="5,2" d="M112.56,-184.22C96.78,-179.78 80.13,-171.91 70.5,-158 55.04,-135.66 62.21,-100.99 66.76,-85.05"/>
<polygon fill="#9a32cd" stroke="#9a32cd" points="112.19,-187.73 122.73,-186.68 113.83,-180.93 112.19,-187.73"/>
<text text-anchor="middle" x="104.5" y="-150" font-family="Helvetica,sans-Serif" font-size="10.00" fill="grey"> m_absPath</text>
<text text-anchor="middle" x="104.5" y="-139" font-family="Helvetica,sans-Serif" font-size="10.00" fill="grey">m_baseName</text>
<text text-anchor="middle" x="104.5" y="-128" font-family="Helvetica,sans-Serif" font-size="10.00" fill="grey">m_fileName</text>
<text text-anchor="middle" x="104.5" y="-117" font-family="Helvetica,sans-Serif" font-size="10.00" fill="grey">m_relPath</text>
<text text-anchor="middle" x="104.5" y="-106" font-family="Helvetica,sans-Serif" font-size="10.00" fill="grey">m_theGraph</text>
</g>
<!-- Node5 -->
<g id="node5" class="node">
<title>Node5</title>
<g id="a_node5"><a xlink:href="../../dd/d7e/class_dot_node.html" target="_top" xlink:title="A node in a dot graph.">
<polygon fill="white" stroke="#666666" points="298,-85 239,-85 239,-66 298,-66 298,-85"/>
<text text-anchor="middle" x="268.5" y="-73" font-family="Helvetica,sans-Serif" font-size="10.00">DotNode</text>
</a>
</g>
</g>
<!-- Node4&#45;&gt;Node5 -->
<g id="edge5" class="edge">
<title>Node4&#45;&gt;Node5</title>
<path fill="none" stroke="#9a32cd" stroke-dasharray="5,2" d="M161.45,-172.11C171.79,-152.95 190.38,-122.64 213.5,-103 222.47,-95.38 234,-89.39 244.18,-85.04"/>
<polygon fill="#9a32cd" stroke="#9a32cd" points="158.22,-170.75 156.7,-181.24 164.42,-173.99 158.22,-170.75"/>
<text text-anchor="middle" x="237" y="-139" font-family="Helvetica,sans-Serif" font-size="10.00" fill="grey"> m_label</text>
<text text-anchor="middle" x="237" y="-128" font-family="Helvetica,sans-Serif" font-size="10.00" fill="grey">m_tooltip</text>
<text text-anchor="middle" x="237" y="-117" font-family="Helvetica,sans-Serif" font-size="10.00" fill="grey">m_url</text>
</g>
<!-- Node5&#45;&gt;Node1 -->
<g id="edge4" class="edge">
<title>Node5&#45;&gt;Node1</title>
<path fill="none" stroke="#9a32cd" stroke-dasharray="5,2" d="M249.97,-59.49C234.5,-46.96 213,-29.54 200.24,-19.2"/>
<polygon fill="#9a32cd" stroke="#9a32cd" points="247.87,-62.29 257.85,-65.87 252.28,-56.85 247.87,-62.29"/>
<text text-anchor="middle" x="266.5" y="-40" font-family="Helvetica,sans-Serif" font-size="10.00" fill="grey"> m_rootNode</text>
</g>
<!-- Node6 -->
<g id="node6" class="node">
<title>Node6</title>
<g id="a_node6"><a xlink:href="../../d1/dcf/class_class_def.html" target="_top" xlink:title="A abstract class representing of a compound symbol.">
<polygon fill="white" stroke="#666666" points="292.5,-200.5 232.5,-200.5 232.5,-181.5 292.5,-181.5 292.5,-200.5"/>
<text text-anchor="middle" x="262.5" y="-188.5" font-family="Helvetica,sans-Serif" font-size="10.00">ClassDef</text>
</a>
</g>
</g>
<!-- Node6&#45;&gt;Node5 -->
<g id="edge6" class="edge">
<title>Node6&#45;&gt;Node5</title>
<path fill="none" stroke="#9a32cd" stroke-dasharray="5,2" d="M263.5,-171.15C264.81,-146.24 267.08,-103.38 268.04,-85.13"/>
<polygon fill="#9a32cd" stroke="#9a32cd" points="259.98,-171.3 262.95,-181.47 266.97,-171.67 259.98,-171.3"/>
<text text-anchor="middle" x="298" y="-128" font-family="Helvetica,sans-Serif" font-size="10.00" fill="grey"> m_classDef</text>
</g>
<!-- Node7 -->
<g id="node7" class="node">
<title>Node7</title>
<g id="a_node7"><a xlink:href="../../d5/dcc/class_definition.html" target="_top" xlink:title="The common base class of all entity definitions found in the sources.">
<polygon fill="white" stroke="#666666" points="294.5,-262 230.5,-262 230.5,-243 294.5,-243 294.5,-262"/>
<text text-anchor="middle" x="262.5" y="-250" font-family="Helvetica,sans-Serif" font-size="10.00">Definition</text>
</a>
</g>
</g>
<!-- Node7&#45;&gt;Node6 -->
<g id="edge7" class="edge">
<title>Node7&#45;&gt;Node6</title>
<path fill="none" stroke="#63b8ff" d="M262.5,-232.82C262.5,-222 262.5,-208.9 262.5,-200.51"/>
<polygon fill="#63b8ff" stroke="#63b8ff" points="259,-232.98 262.5,-242.98 266,-232.98 259,-232.98"/>
</g>
<!-- Node8 -->
<g id="node8" class="node">
<title>Node8</title>
<g id="a_node8"><a xlink:href="../../d6/dbb/class_dot_node_map.html" target="_top" xlink:title=" ">
<polygon fill="white" stroke="#666666" points="401.5,-85 321.5,-85 321.5,-66 401.5,-66 401.5,-85"/>
<text text-anchor="middle" x="361.5" y="-73" font-family="Helvetica,sans-Serif" font-size="10.00">DotNodeMap</text>
</a>
</g>
</g>
<!-- Node8&#45;&gt;Node1 -->
<g id="edge8" class="edge">
<title>Node8&#45;&gt;Node1</title>
<path fill="none" stroke="#9a32cd" stroke-dasharray="5,2" d="M342.28,-59.95C331.17,-52.14 316.62,-42.94 302.5,-37 283.46,-28.99 261.55,-23.15 242.13,-19.02"/>
<polygon fill="#9a32cd" stroke="#9a32cd" points="340.23,-62.78 350.38,-65.81 344.34,-57.11 340.23,-62.78"/>
<text text-anchor="middle" x="360" y="-40" font-family="Helvetica,sans-Serif" font-size="10.00" fill="grey"> m_usedNodes</text>
</g>
<!-- Node9 -->
<g id="node9" class="node">
<title>Node9</title>
<g id="a_node9"><a xlink:title=" ">
<polygon fill="white" stroke="#666666" points="432.5,-206 310.5,-206 310.5,-176 432.5,-176 432.5,-206"/>
<text text-anchor="start" x="318.5" y="-194" font-family="Helvetica,sans-Serif" font-size="10.00">std::map&lt; std::string,</text>
<text text-anchor="middle" x="371.5" y="-183" font-family="Helvetica,sans-Serif" font-size="10.00"> DotNode * &gt;</text>
</a>
</g>
</g>
<!-- Node9&#45;&gt;Node8 -->
<g id="edge9" class="edge">
<title>Node9&#45;&gt;Node8</title>
<path fill="none" stroke="#63b8ff" d="M369.33,-165.35C367.1,-140.09 363.76,-102.18 362.27,-85.23"/>
<polygon fill="#63b8ff" stroke="#63b8ff" points="365.87,-165.97 370.23,-175.63 372.84,-165.36 365.87,-165.97"/>
</g>
</g>
</svg>
