<?xml version="1.0" encoding="UTF-8" standalone="no"?>
<!DOCTYPE svg PUBLIC "-//W3C//DTD SVG 1.1//EN"
 "http://www.w3.org/Graphics/SVG/1.1/DTD/svg11.dtd">
<!-- Generated by graphviz version 2.43.0 (0)
 -->
<!-- Title: PageDefImpl Pages: 1 -->
<!--zoomable 636 -->
<svg id="main" version="1.1" xmlns="http://www.w3.org/2000/svg" xmlns:xlink="http://www.w3.org/1999/xlink" xml:space="preserve" onload="init(evt)">
<style type="text/css"><![CDATA[
.edge:hover path { stroke: red; }
.edge:hover polygon { stroke: red; fill: red; }
]]></style>
<script type="text/javascript"><![CDATA[
var edges = document.getElementsByTagName('g');
if (edges && edges.length) {
  for (var i=0;i<edges.length;i++) {
    if (edges[i].id.substr(0,4)=='edge') {
      edges[i].setAttribute('class','edge');
    }
  }
}
]]></script>
        <defs>
                <circle id="rim" cx="0" cy="0" r="7"/>
                <circle id="rim2" cx="0" cy="0" r="3.5"/>
                <g id="zoomPlus">
                        <use xlink:href="#rim" fill="#404040">
                                <set attributeName="fill" to="#808080" begin="zoomplus.mouseover" end="zoomplus.mouseout"/>
                        </use>
                        <path d="M-4,0h8M0,-4v8" fill="none" stroke="white" stroke-width="1.5" pointer-events="none"/>
                </g>
                <g id="zoomMin">
                        <use xlink:href="#rim" fill="#404040">
                                <set attributeName="fill" to="#808080" begin="zoomminus.mouseover" end="zoomminus.mouseout"/>
                        </use>
                        <path d="M-4,0h8" fill="none" stroke="white" stroke-width="1.5" pointer-events="none"/>
                </g>
                <g id="dirArrow">
                        <path fill="none" stroke="white" stroke-width="1.5" d="M0,-3.0v7 M-2.5,-0.5L0,-3.0L2.5,-0.5"/>
                </g>
               <g id="resetDef">
                       <use xlink:href="#rim2" fill="#404040">
                               <set attributeName="fill" to="#808080" begin="reset.mouseover" end="reset.mouseout"/>
                       </use>
               </g>
        </defs>

<script type="text/javascript">
var viewWidth = 971;
var viewHeight = 636;
var sectionId = 'dynsection-1';
</script>
<script xlink:href="../../svgpan.js"/>
<svg id="graph" class="graph">
<g id="viewport">
<title>PageDefImpl</title>
<!-- Node1 -->
<g id="node1" class="node">
<title>Node1</title>
<g id="a_node1"><a xlink:title=" ">
<polygon fill="#999999" stroke="#666666" points="788.98,-19 709.98,-19 709.98,0 788.98,0 788.98,-19"/>
<text text-anchor="middle" x="749.48" y="-7" font-family="Helvetica,sans-Serif" font-size="10.00">PageDefImpl</text>
</a>
</g>
</g>
<!-- Node2 -->
<g id="node2" class="node">
<title>Node2</title>
<g id="a_node2"><a xlink:href="../../dd/d10/class_definition_mixin.html" target="_top" xlink:title=" ">
<polygon fill="white" stroke="#666666" points="435.48,-85 281.48,-85 281.48,-66 435.48,-66 435.48,-85"/>
<text text-anchor="middle" x="358.48" y="-73" font-family="Helvetica,sans-Serif" font-size="10.00">DefinitionMixin&lt; PageDef &gt;</text>
</a>
</g>
</g>
<!-- Node2&#45;&gt;Node1 -->
<g id="edge1" class="edge">
<title>Node2&#45;&gt;Node1</title>
<path fill="none" stroke="#63b8ff" d="M420.91,-64.28C502.17,-50.98 641.83,-28.12 709.89,-16.98"/>
<polygon fill="#63b8ff" stroke="#63b8ff" points="420.11,-60.87 410.81,-65.94 421.24,-67.77 420.11,-60.87"/>
</g>
<!-- Node3 -->
<g id="node3" class="node">
<title>Node3</title>
<g id="a_node3"><a xlink:href="../../dd/d41/class_page_def.html" target="_top" xlink:title="A model of a page symbol.">
<polygon fill="white" stroke="#666666" points="262.98,-572 205.98,-572 205.98,-553 262.98,-553 262.98,-572"/>
<text text-anchor="middle" x="234.48" y="-560" font-family="Helvetica,sans-Serif" font-size="10.00">PageDef</text>
</a>
</g>
</g>
<!-- Node3&#45;&gt;Node2 -->
<g id="edge2" class="edge">
<title>Node3&#45;&gt;Node2</title>
<path fill="none" stroke="#63b8ff" d="M195.68,-561.32C143.99,-560.27 56.27,-555.43 32.48,-535 -6.3,-501.68 0.48,-475.63 0.48,-424.5 0.48,-424.5 0.48,-424.5 0.48,-146 0.48,-89.26 176,-77.9 281.24,-76.19"/>
<polygon fill="#63b8ff" stroke="#63b8ff" points="195.76,-564.82 205.82,-561.49 195.88,-557.82 195.76,-564.82"/>
</g>
<!-- Node4 -->
<g id="node4" class="node">
<title>Node4</title>
<g id="a_node4"><a xlink:href="../../d0/d46/class_definition_mutable.html" target="_top" xlink:title=" ">
<polygon fill="white" stroke="#666666" points="441.48,-628 337.48,-628 337.48,-609 441.48,-609 441.48,-628"/>
<text text-anchor="middle" x="389.48" y="-616" font-family="Helvetica,sans-Serif" font-size="10.00">DefinitionMutable</text>
</a>
</g>
</g>
<!-- Node4&#45;&gt;Node3 -->
<g id="edge3" class="edge">
<title>Node4&#45;&gt;Node3</title>
<path fill="none" stroke="#63b8ff" d="M355.15,-605.54C325.99,-595.38 284.85,-581.05 258.93,-572.02"/>
<polygon fill="#63b8ff" stroke="#63b8ff" points="354.33,-608.96 364.92,-608.94 356.63,-602.35 354.33,-608.96"/>
</g>
<!-- Node15 -->
<g id="node15" class="node">
<title>Node15</title>
<g id="a_node15"><a xlink:href="../../de/db0/class_file_def.html" target="_top" xlink:title="A model of a file symbol.">
<polygon fill="white" stroke="#666666" points="589.98,-572 538.98,-572 538.98,-553 589.98,-553 589.98,-572"/>
<text text-anchor="middle" x="564.48" y="-560" font-family="Helvetica,sans-Serif" font-size="10.00">FileDef</text>
</a>
</g>
</g>
<!-- Node4&#45;&gt;Node15 -->
<g id="edge17" class="edge">
<title>Node4&#45;&gt;Node15</title>
<path fill="none" stroke="#63b8ff" d="M427.17,-605.87C460.91,-595.46 509.46,-580.48 538.88,-571.4"/>
<polygon fill="#63b8ff" stroke="#63b8ff" points="425.74,-602.65 417.21,-608.94 427.8,-609.34 425.74,-602.65"/>
</g>
<!-- Node5 -->
<g id="node5" class="node">
<title>Node5</title>
<g id="a_node5"><a xlink:href="../../d5/dcc/class_definition.html" target="_top" xlink:title="The common base class of all entity definitions found in the sources.">
<polygon fill="white" stroke="#666666" points="676.48,-628 612.48,-628 612.48,-609 676.48,-609 676.48,-628"/>
<text text-anchor="middle" x="644.48" y="-616" font-family="Helvetica,sans-Serif" font-size="10.00">Definition</text>
</a>
</g>
</g>
<!-- Node5&#45;&gt;Node1 -->
<g id="edge28" class="edge">
<title>Node5&#45;&gt;Node1</title>
<path fill="none" stroke="#9a32cd" stroke-dasharray="5,2" d="M686.64,-612.6C715.84,-606.58 749.48,-593.21 749.48,-563.5 749.48,-563.5 749.48,-563.5 749.48,-74.5 749.48,-54.72 749.48,-31.51 749.48,-19.2"/>
<polygon fill="#9a32cd" stroke="#9a32cd" points="685.77,-609.2 676.56,-614.44 687.02,-616.09 685.77,-609.2"/>
<text text-anchor="middle" x="785.48" y="-260" font-family="Helvetica,sans-Serif" font-size="10.00" fill="grey"> m_pageScope</text>
</g>
<!-- Node5&#45;&gt;Node3 -->
<g id="edge4" class="edge">
<title>Node5&#45;&gt;Node3</title>
<path fill="none" stroke="#63b8ff" d="M602.3,-613.8C532.95,-607.4 390.67,-592.9 271.48,-572 268.76,-571.52 265.93,-570.97 263.11,-570.39"/>
<polygon fill="#63b8ff" stroke="#63b8ff" points="602.11,-617.3 612.39,-614.72 602.75,-610.33 602.11,-617.3"/>
</g>
<!-- Node7 -->
<g id="node7" class="node">
<title>Node7</title>
<g id="a_node7"><a xlink:href="../../dd/d50/class_definition_impl_1_1_i_m_p_l.html" target="_top" xlink:title="Private data associated with a Symbol DefinitionImpl object.">
<polygon fill="white" stroke="#666666" points="455.98,-305 340.98,-305 340.98,-286 455.98,-286 455.98,-305"/>
<text text-anchor="middle" x="398.48" y="-293" font-family="Helvetica,sans-Serif" font-size="10.00">DefinitionImpl::IMPL</text>
</a>
</g>
</g>
<!-- Node5&#45;&gt;Node7 -->
<g id="edge7" class="edge">
<title>Node5&#45;&gt;Node7</title>
<path fill="none" stroke="#9a32cd" stroke-dasharray="5,2" d="M649.83,-598.97C656.54,-576.05 668.62,-535.9 680.48,-502 683.32,-493.9 685.6,-492.37 687.48,-484 701.08,-423.57 695.26,-406.9 697.48,-345 697.84,-335.23 704.09,-330.21 697.48,-323 681.54,-305.58 538.29,-299.54 456,-297.5"/>
<polygon fill="#9a32cd" stroke="#9a32cd" points="646.42,-598.16 646.99,-608.74 653.14,-600.11 646.42,-598.16"/>
<text text-anchor="middle" x="707.98" y="-521.5" font-family="Helvetica,sans-Serif" font-size="10.00" fill="grey"> def</text>
<text text-anchor="middle" x="707.98" y="-510.5" font-family="Helvetica,sans-Serif" font-size="10.00" fill="grey">outerScope</text>
</g>
<!-- Node5&#45;&gt;Node15 -->
<g id="edge18" class="edge">
<title>Node5&#45;&gt;Node15</title>
<path fill="none" stroke="#63b8ff" d="M623.18,-603.12C608.57,-593.26 589.66,-580.49 577.31,-572.15"/>
<polygon fill="#63b8ff" stroke="#63b8ff" points="621.38,-606.13 631.63,-608.82 625.3,-600.33 621.38,-606.13"/>
</g>
<!-- Node6 -->
<g id="node6" class="node">
<title>Node6</title>
<g id="a_node6"><a xlink:href="../../d3/ddf/class_definition_impl.html" target="_top" xlink:title=" ">
<polygon fill="white" stroke="#666666" points="441.48,-233.5 355.48,-233.5 355.48,-214.5 441.48,-214.5 441.48,-233.5"/>
<text text-anchor="middle" x="398.48" y="-221.5" font-family="Helvetica,sans-Serif" font-size="10.00">DefinitionImpl</text>
</a>
</g>
</g>
<!-- Node6&#45;&gt;Node2 -->
<g id="edge5" class="edge">
<title>Node6&#45;&gt;Node2</title>
<path fill="none" stroke="#9a32cd" stroke-dasharray="5,2" d="M403.14,-204.3C408.25,-179.53 413.64,-135.22 396.48,-103 392.4,-95.33 385,-89.42 377.81,-85.14"/>
<polygon fill="#9a32cd" stroke="#9a32cd" points="399.7,-203.67 400.9,-214.19 406.52,-205.22 399.7,-203.67"/>
<text text-anchor="middle" x="428.48" y="-144.5" font-family="Helvetica,sans-Serif" font-size="10.00" fill="grey"> m_impl</text>
</g>
<!-- Node17 -->
<g id="node17" class="node">
<title>Node17</title>
<g id="a_node17"><a xlink:href="../../dd/d10/class_definition_mixin.html" target="_top" xlink:title=" ">
<polygon fill="white" stroke="#666666" points="373.98,-156.5 236.98,-156.5 236.98,-137.5 373.98,-137.5 373.98,-156.5"/>
<text text-anchor="middle" x="305.48" y="-144.5" font-family="Helvetica,sans-Serif" font-size="10.00">DefinitionMixin&lt; Base &gt;</text>
</a>
</g>
</g>
<!-- Node6&#45;&gt;Node17 -->
<g id="edge23" class="edge">
<title>Node6&#45;&gt;Node17</title>
<path fill="none" stroke="#9a32cd" stroke-dasharray="5,2" d="M378.64,-208.2C371.58,-202.85 363.63,-196.73 356.48,-191 342.03,-179.41 325.72,-165.51 315.52,-156.72"/>
<polygon fill="#9a32cd" stroke="#9a32cd" points="376.86,-211.24 386.96,-214.46 381.07,-205.65 376.86,-211.24"/>
<text text-anchor="middle" x="376.48" y="-183" font-family="Helvetica,sans-Serif" font-size="10.00" fill="grey"> m_impl</text>
</g>
<!-- Node7&#45;&gt;Node6 -->
<g id="edge6" class="edge">
<title>Node7&#45;&gt;Node6</title>
<path fill="none" stroke="#9a32cd" stroke-dasharray="5,2" d="M398.48,-275.71C398.48,-262 398.48,-244.05 398.48,-233.59"/>
<polygon fill="#9a32cd" stroke="#9a32cd" points="394.98,-275.98 398.48,-285.98 401.98,-275.98 394.98,-275.98"/>
<text text-anchor="middle" x="418.48" y="-260" font-family="Helvetica,sans-Serif" font-size="10.00" fill="grey"> m_impl</text>
</g>
<!-- Node8 -->
<g id="node8" class="node">
<title>Node8</title>
<g id="a_node8"><a xlink:href="../../d1/df9/class_section_refs.html" target="_top" xlink:title="class that represents a list of constant references to sections.">
<polygon fill="white" stroke="#666666" points="148.48,-433 74.48,-433 74.48,-414 148.48,-414 148.48,-433"/>
<text text-anchor="middle" x="111.48" y="-421" font-family="Helvetica,sans-Serif" font-size="10.00">SectionRefs</text>
</a>
</g>
</g>
<!-- Node8&#45;&gt;Node7 -->
<g id="edge8" class="edge">
<title>Node8&#45;&gt;Node7</title>
<path fill="none" stroke="#9a32cd" stroke-dasharray="5,2" d="M104.75,-404.43C97.78,-382.27 90.47,-344.94 110.48,-323 125.67,-306.35 261.15,-300.02 340.77,-297.73"/>
<polygon fill="#9a32cd" stroke="#9a32cd" points="101.46,-405.64 108.02,-413.96 108.08,-403.37 101.46,-405.64"/>
<text text-anchor="middle" x="140.98" y="-331.5" font-family="Helvetica,sans-Serif" font-size="10.00" fill="grey"> sectionRefs</text>
</g>
<!-- Node9 -->
<g id="node9" class="node">
<title>Node9</title>
<g id="a_node9"><a xlink:href="../../d3/d3b/class_group_list.html" target="_top" xlink:title=" ">
<polygon fill="white" stroke="#666666" points="493.98,-433 430.98,-433 430.98,-414 493.98,-414 493.98,-433"/>
<text text-anchor="middle" x="462.48" y="-421" font-family="Helvetica,sans-Serif" font-size="10.00">GroupList</text>
</a>
</g>
</g>
<!-- Node9&#45;&gt;Node7 -->
<g id="edge9" class="edge">
<title>Node9&#45;&gt;Node7</title>
<path fill="none" stroke="#9a32cd" stroke-dasharray="5,2" d="M455.2,-404.47C446.77,-384.19 432.05,-350.51 416.48,-323 412.98,-316.8 408.48,-310.18 404.86,-305.1"/>
<polygon fill="#9a32cd" stroke="#9a32cd" points="451.97,-405.82 459.01,-413.75 458.45,-403.17 451.97,-405.82"/>
<text text-anchor="middle" x="462.98" y="-331.5" font-family="Helvetica,sans-Serif" font-size="10.00" fill="grey"> partOfGroups</text>
</g>
<!-- Node10 -->
<g id="node10" class="node">
<title>Node10</title>
<g id="a_node10"><a xlink:title=" ">
<polygon fill="white" stroke="#666666" points="520.48,-572 374.48,-572 374.48,-553 520.48,-553 520.48,-572"/>
<text text-anchor="middle" x="447.48" y="-560" font-family="Helvetica,sans-Serif" font-size="10.00">std::vector&lt; GroupDef * &gt;</text>
</a>
</g>
</g>
<!-- Node10&#45;&gt;Node9 -->
<g id="edge10" class="edge">
<title>Node10&#45;&gt;Node9</title>
<path fill="none" stroke="#63b8ff" d="M449.52,-542.93C452.8,-512.91 459.16,-454.88 461.55,-433.07"/>
<polygon fill="#63b8ff" stroke="#63b8ff" points="446.03,-542.61 448.42,-552.93 452.99,-543.37 446.03,-542.61"/>
</g>
<!-- Node11 -->
<g id="node11" class="node">
<title>Node11</title>
<g id="a_node11"><a xlink:href="../../d7/dd5/struct_doc_info.html" target="_top" xlink:title="Data associated with a detailed description.">
<polygon fill="white" stroke="#666666" points="412.48,-433 358.48,-433 358.48,-414 412.48,-414 412.48,-433"/>
<text text-anchor="middle" x="385.48" y="-421" font-family="Helvetica,sans-Serif" font-size="10.00">DocInfo</text>
</a>
</g>
</g>
<!-- Node11&#45;&gt;Node7 -->
<g id="edge11" class="edge">
<title>Node11&#45;&gt;Node7</title>
<path fill="none" stroke="#9a32cd" stroke-dasharray="5,2" d="M373.34,-405.14C360.56,-384.56 344.16,-349.68 358.48,-323 362.66,-315.22 370.24,-309.34 377.68,-305.12"/>
<polygon fill="#9a32cd" stroke="#9a32cd" points="370.58,-407.32 378.99,-413.76 376.43,-403.48 370.58,-407.32"/>
<text text-anchor="middle" x="387.48" y="-337" font-family="Helvetica,sans-Serif" font-size="10.00" fill="grey"> details</text>
<text text-anchor="middle" x="387.48" y="-326" font-family="Helvetica,sans-Serif" font-size="10.00" fill="grey">inbodyDocs</text>
</g>
<!-- Node12 -->
<g id="node12" class="node">
<title>Node12</title>
<g id="a_node12"><a xlink:href="../../d9/d45/class_q_c_string.html" target="_top" xlink:title="This is an alternative implementation of QCString.">
<polygon fill="white" stroke="#666666" points="339.98,-572 280.98,-572 280.98,-553 339.98,-553 339.98,-572"/>
<text text-anchor="middle" x="310.48" y="-560" font-family="Helvetica,sans-Serif" font-size="10.00">QCString</text>
</a>
</g>
</g>
<!-- Node12&#45;&gt;Node1 -->
<g id="edge24" class="edge">
<title>Node12&#45;&gt;Node1</title>
<path fill="none" stroke="#9a32cd" stroke-dasharray="5,2" d="M270.87,-552.8C250.57,-548.06 225.55,-541.79 203.48,-535 140.99,-515.78 110.67,-531.26 65.48,-484 46.3,-463.93 46.48,-452.26 46.48,-424.5 46.48,-424.5 46.48,-424.5 46.48,-74.5 46.48,-40.93 561.55,-17.94 709.93,-12.01"/>
<polygon fill="#9a32cd" stroke="#9a32cd" points="270.19,-556.23 280.72,-555.06 271.76,-549.41 270.19,-556.23"/>
<text text-anchor="middle" x="77.98" y="-227" font-family="Helvetica,sans-Serif" font-size="10.00" fill="grey"> m_fileName</text>
<text text-anchor="middle" x="77.98" y="-216" font-family="Helvetica,sans-Serif" font-size="10.00" fill="grey">m_title</text>
</g>
<!-- Node12&#45;&gt;Node7 -->
<g id="edge19" class="edge">
<title>Node12&#45;&gt;Node7</title>
<path fill="none" stroke="#9a32cd" stroke-dasharray="5,2" d="M275.47,-549.06C247.67,-537.1 210.71,-516.07 193.48,-484 168.04,-436.62 162.32,-406.83 193.48,-363 226.44,-316.65 292.53,-301.89 340.79,-297.56"/>
<polygon fill="#9a32cd" stroke="#9a32cd" points="274.29,-552.36 284.87,-552.91 276.95,-545.88 274.29,-552.36"/>
<text text-anchor="middle" x="232.48" y="-476" font-family="Helvetica,sans-Serif" font-size="10.00" fill="grey"> briefSignatures</text>
<text text-anchor="middle" x="232.48" y="-465" font-family="Helvetica,sans-Serif" font-size="10.00" fill="grey">defFileExt</text>
<text text-anchor="middle" x="232.48" y="-454" font-family="Helvetica,sans-Serif" font-size="10.00" fill="grey">defFileName</text>
<text text-anchor="middle" x="232.48" y="-443" font-family="Helvetica,sans-Serif" font-size="10.00" fill="grey">docSignatures</text>
<text text-anchor="middle" x="232.48" y="-432" font-family="Helvetica,sans-Serif" font-size="10.00" fill="grey">id</text>
<text text-anchor="middle" x="232.48" y="-421" font-family="Helvetica,sans-Serif" font-size="10.00" fill="grey">localName</text>
<text text-anchor="middle" x="232.48" y="-410" font-family="Helvetica,sans-Serif" font-size="10.00" fill="grey">name</text>
<text text-anchor="middle" x="232.48" y="-399" font-family="Helvetica,sans-Serif" font-size="10.00" fill="grey">qualifiedName</text>
<text text-anchor="middle" x="232.48" y="-388" font-family="Helvetica,sans-Serif" font-size="10.00" fill="grey">ref</text>
<text text-anchor="middle" x="232.48" y="-377" font-family="Helvetica,sans-Serif" font-size="10.00" fill="grey">symbolName</text>
<text text-anchor="middle" x="232.48" y="-366" font-family="Helvetica,sans-Serif" font-size="10.00" fill="grey">...</text>
</g>
<!-- Node12&#45;&gt;Node11 -->
<g id="edge12" class="edge">
<title>Node12&#45;&gt;Node11</title>
<path fill="none" stroke="#9a32cd" stroke-dasharray="5,2" d="M334.63,-546.87C339.01,-543.4 343.22,-539.41 346.48,-535 370.83,-502.15 380.99,-452.76 384.23,-433.06"/>
<polygon fill="#9a32cd" stroke="#9a32cd" points="332.31,-544.23 326.2,-552.88 336.37,-549.93 332.31,-544.23"/>
<text text-anchor="middle" x="374.98" y="-521.5" font-family="Helvetica,sans-Serif" font-size="10.00" fill="grey"> doc</text>
<text text-anchor="middle" x="374.98" y="-510.5" font-family="Helvetica,sans-Serif" font-size="10.00" fill="grey">file</text>
</g>
<!-- Node13 -->
<g id="node13" class="node">
<title>Node13</title>
<g id="a_node13"><a xlink:href="../../d0/da7/struct_brief_info.html" target="_top" xlink:title="Data associated with a brief description.">
<polygon fill="white" stroke="#666666" points="339.98,-433 280.98,-433 280.98,-414 339.98,-414 339.98,-433"/>
<text text-anchor="middle" x="310.48" y="-421" font-family="Helvetica,sans-Serif" font-size="10.00">BriefInfo</text>
</a>
</g>
</g>
<!-- Node12&#45;&gt;Node13 -->
<g id="edge14" class="edge">
<title>Node12&#45;&gt;Node13</title>
<path fill="none" stroke="#9a32cd" stroke-dasharray="5,2" d="M310.48,-542.93C310.48,-512.91 310.48,-454.88 310.48,-433.07"/>
<polygon fill="#9a32cd" stroke="#9a32cd" points="306.98,-542.93 310.48,-552.93 313.98,-542.93 306.98,-542.93"/>
<text text-anchor="middle" x="326.48" y="-527" font-family="Helvetica,sans-Serif" font-size="10.00" fill="grey"> doc</text>
<text text-anchor="middle" x="326.48" y="-516" font-family="Helvetica,sans-Serif" font-size="10.00" fill="grey">file</text>
<text text-anchor="middle" x="326.48" y="-505" font-family="Helvetica,sans-Serif" font-size="10.00" fill="grey">tooltip</text>
</g>
<!-- Node13&#45;&gt;Node7 -->
<g id="edge13" class="edge">
<title>Node13&#45;&gt;Node7</title>
<path fill="none" stroke="#9a32cd" stroke-dasharray="5,2" d="M307.57,-403.94C305.23,-382.11 304.91,-345.95 323.48,-323 330.17,-314.74 339.63,-309.04 349.57,-305.13"/>
<polygon fill="#9a32cd" stroke="#9a32cd" points="304.11,-404.45 308.89,-413.91 311.04,-403.53 304.11,-404.45"/>
<text text-anchor="middle" x="336.48" y="-331.5" font-family="Helvetica,sans-Serif" font-size="10.00" fill="grey"> brief</text>
</g>
<!-- Node14 -->
<g id="node14" class="node">
<title>Node14</title>
<g id="a_node14"><a xlink:href="../../db/dab/struct_body_info.html" target="_top" xlink:title="Data associated with description found in the body.">
<polygon fill="white" stroke="#666666" points="572.48,-433 512.48,-433 512.48,-414 572.48,-414 572.48,-433"/>
<text text-anchor="middle" x="542.48" y="-421" font-family="Helvetica,sans-Serif" font-size="10.00">BodyInfo</text>
</a>
</g>
</g>
<!-- Node14&#45;&gt;Node7 -->
<g id="edge15" class="edge">
<title>Node14&#45;&gt;Node7</title>
<path fill="none" stroke="#9a32cd" stroke-dasharray="5,2" d="M539.91,-403.85C535.8,-381.36 525.6,-343.98 501.48,-323 488.88,-312.03 472.31,-305.51 456.16,-301.66"/>
<polygon fill="#9a32cd" stroke="#9a32cd" points="536.46,-404.5 541.5,-413.82 543.38,-403.39 536.46,-404.5"/>
<text text-anchor="middle" x="532.48" y="-331.5" font-family="Helvetica,sans-Serif" font-size="10.00" fill="grey"> body</text>
</g>
<!-- Node15&#45;&gt;Node14 -->
<g id="edge16" class="edge">
<title>Node15&#45;&gt;Node14</title>
<path fill="none" stroke="#9a32cd" stroke-dasharray="5,2" d="M561.5,-542.93C556.68,-512.91 547.36,-454.88 543.86,-433.07"/>
<polygon fill="#9a32cd" stroke="#9a32cd" points="558.07,-543.61 563.11,-552.93 564.98,-542.5 558.07,-543.61"/>
<text text-anchor="middle" x="578.48" y="-516" font-family="Helvetica,sans-Serif" font-size="10.00" fill="grey"> fileDef</text>
</g>
<!-- Node16 -->
<g id="node16" class="node">
<title>Node16</title>
<g id="a_node16"><a xlink:href="../../d1/d7d/class_member_vector.html" target="_top" xlink:title="A vector of MemberDef object.">
<polygon fill="white" stroke="#666666" points="678.48,-433 590.48,-433 590.48,-414 678.48,-414 678.48,-433"/>
<text text-anchor="middle" x="634.48" y="-421" font-family="Helvetica,sans-Serif" font-size="10.00">MemberVector</text>
</a>
</g>
</g>
<!-- Node16&#45;&gt;Node7 -->
<g id="edge20" class="edge">
<title>Node16&#45;&gt;Node7</title>
<path fill="none" stroke="#9a32cd" stroke-dasharray="5,2" d="M624.9,-404.87C611.48,-382 584.81,-342.71 550.48,-323 522.03,-306.66 486,-299.89 456.16,-297.28"/>
<polygon fill="#9a32cd" stroke="#9a32cd" points="622,-406.85 629.98,-413.83 628.09,-403.4 622,-406.85"/>
<text text-anchor="middle" x="636.98" y="-337" font-family="Helvetica,sans-Serif" font-size="10.00" fill="grey"> referencedByMembers</text>
<text text-anchor="middle" x="636.98" y="-326" font-family="Helvetica,sans-Serif" font-size="10.00" fill="grey">referencesMembers</text>
</g>
<!-- Node17&#45;&gt;Node2 -->
<g id="edge21" class="edge">
<title>Node17&#45;&gt;Node2</title>
<path fill="none" stroke="orange" stroke-dasharray="5,2" d="M313.87,-128.02C318.02,-119.99 323.44,-110.63 329.48,-103 334.73,-96.37 341.7,-89.95 347.49,-85.08"/>
<polygon fill="orange" stroke="orange" points="310.6,-126.74 309.34,-137.26 316.89,-129.82 310.6,-126.74"/>
<text text-anchor="middle" x="362.98" y="-106" font-family="Helvetica,sans-Serif" font-size="10.00" fill="grey"> &lt; PageDef &gt;</text>
</g>
<!-- Node18 -->
<g id="node18" class="node">
<title>Node18</title>
<g id="a_node18"><a xlink:title=" ">
<polygon fill="white" stroke="#666666" points="325.98,-233.5 284.98,-233.5 284.98,-214.5 325.98,-214.5 325.98,-233.5"/>
<text text-anchor="middle" x="305.48" y="-221.5" font-family="Helvetica,sans-Serif" font-size="10.00">Base</text>
</a>
</g>
</g>
<!-- Node18&#45;&gt;Node17 -->
<g id="edge22" class="edge">
<title>Node18&#45;&gt;Node17</title>
<path fill="none" stroke="#63b8ff" d="M305.48,-204.02C305.48,-188.74 305.48,-167.98 305.48,-156.5"/>
<polygon fill="#63b8ff" stroke="#63b8ff" points="301.98,-204.4 305.48,-214.4 308.98,-204.4 301.98,-204.4"/>
</g>
<!-- Node19 -->
<g id="node19" class="node">
<title>Node19</title>
<g id="a_node19"><a xlink:href="../../d9/de6/class_page_linked_ref_map.html" target="_top" xlink:title=" ">
<polygon fill="white" stroke="#666666" points="886.98,-85 777.98,-85 777.98,-66 886.98,-66 886.98,-85"/>
<text text-anchor="middle" x="832.48" y="-73" font-family="Helvetica,sans-Serif" font-size="10.00">PageLinkedRefMap</text>
</a>
</g>
</g>
<!-- Node19&#45;&gt;Node1 -->
<g id="edge25" class="edge">
<title>Node19&#45;&gt;Node1</title>
<path fill="none" stroke="#9a32cd" stroke-dasharray="5,2" d="M813.01,-59.49C796.77,-46.96 774.17,-29.54 760.77,-19.2"/>
<polygon fill="#9a32cd" stroke="#9a32cd" points="811.23,-62.53 821.29,-65.87 815.51,-56.99 811.23,-62.53"/>
<text text-anchor="middle" x="827.48" y="-40" font-family="Helvetica,sans-Serif" font-size="10.00" fill="grey"> m_subPages</text>
</g>
<!-- Node20 -->
<g id="node20" class="node">
<title>Node20</title>
<g id="a_node20"><a xlink:href="../../d2/db7/class_linked_ref_map.html" target="_top" xlink:title=" ">
<polygon fill="white" stroke="#666666" points="903.98,-162 780.98,-162 780.98,-132 903.98,-132 903.98,-162"/>
<text text-anchor="start" x="788.98" y="-150" font-family="Helvetica,sans-Serif" font-size="10.00">LinkedRefMap&lt; const</text>
<text text-anchor="middle" x="842.48" y="-139" font-family="Helvetica,sans-Serif" font-size="10.00"> PageDef &gt;</text>
</a>
</g>
</g>
<!-- Node20&#45;&gt;Node19 -->
<g id="edge26" class="edge">
<title>Node20&#45;&gt;Node19</title>
<path fill="none" stroke="#63b8ff" d="M839.02,-121.94C837.2,-109.24 835.07,-94.44 833.75,-85.27"/>
<polygon fill="#63b8ff" stroke="#63b8ff" points="835.57,-122.54 840.46,-131.94 842.5,-121.54 835.57,-122.54"/>
</g>
<!-- Node21 -->
<g id="node21" class="node">
<title>Node21</title>
<g id="a_node21"><a xlink:href="../../d2/db7/class_linked_ref_map.html" target="_top" xlink:title="Container class representing a vector of objects with keys.">
<polygon fill="white" stroke="#666666" points="914.98,-239 777.98,-239 777.98,-209 914.98,-209 914.98,-239"/>
<text text-anchor="start" x="785.98" y="-227" font-family="Helvetica,sans-Serif" font-size="10.00">LinkedRefMap&lt; T, Hash,</text>
<text text-anchor="middle" x="846.48" y="-216" font-family="Helvetica,sans-Serif" font-size="10.00"> KeyEqual, Map &gt;</text>
</a>
</g>
</g>
<!-- Node21&#45;&gt;Node20 -->
<g id="edge27" class="edge">
<title>Node21&#45;&gt;Node20</title>
<path fill="none" stroke="orange" stroke-dasharray="5,2" d="M845.18,-198.54C844.53,-186.45 843.78,-172.29 843.23,-162.04"/>
<polygon fill="orange" stroke="orange" points="841.7,-199.09 845.73,-208.89 848.69,-198.72 841.7,-199.09"/>
<text text-anchor="middle" x="892.48" y="-183" font-family="Helvetica,sans-Serif" font-size="10.00" fill="grey"> &lt; const PageDef &gt;</text>
</g>
<!-- Node22 -->
<g id="node22" class="node">
<title>Node22</title>
<g id="a_node22"><a xlink:href="../../da/d1d/class_local_toc.html" target="_top" xlink:title=" ">
<polygon fill="white" stroke="#666666" points="963.48,-85 905.48,-85 905.48,-66 963.48,-66 963.48,-85"/>
<text text-anchor="middle" x="934.48" y="-73" font-family="Helvetica,sans-Serif" font-size="10.00">LocalToc</text>
</a>
</g>
</g>
<!-- Node22&#45;&gt;Node1 -->
<g id="edge29" class="edge">
<title>Node22&#45;&gt;Node1</title>
<path fill="none" stroke="#9a32cd" stroke-dasharray="5,2" d="M912.16,-60.79C898.51,-52.91 880.46,-43.34 863.48,-37 839.4,-28.01 811.28,-21.44 789,-17.08"/>
<polygon fill="#9a32cd" stroke="#9a32cd" points="910.45,-63.85 920.84,-65.92 914.01,-57.82 910.45,-63.85"/>
<text text-anchor="middle" x="916.48" y="-40" font-family="Helvetica,sans-Serif" font-size="10.00" fill="grey"> m_localToc</text>
</g>
</g>
</svg>
        <g id="navigator" transform="translate(0 0)" fill="#404254">
                <rect fill="#f2f5e9" fill-opacity="0.5" stroke="#606060" stroke-width=".5" x="0" y="0" width="60" height="60"/>
                <use id="zoomplus" xlink:href="#zoomPlus" x="17" y="9" onmousedown="handleZoom(evt,'in')"/>
                <use id="zoomminus" xlink:href="#zoomMin" x="42" y="9" onmousedown="handleZoom(evt,'out')"/>
                <use id="reset" xlink:href="#resetDef" x="30" y="36" onmousedown="handleReset()"/>
                <g id="arrowUp" xlink:href="#dirArrow" transform="translate(30 24)" onmousedown="handlePan(0,-1)">
                  <use xlink:href="#rim" fill="#404040">
                        <set attributeName="fill" to="#808080" begin="arrowUp.mouseover" end="arrowUp.mouseout"/>
                  </use>
                  <path fill="none" stroke="white" stroke-width="1.5" d="M0,-3.0v7 M-2.5,-0.5L0,-3.0L2.5,-0.5"/>
                </g>
                <g id="arrowRight" xlink:href="#dirArrow" transform="rotate(90) translate(36 -43)" onmousedown="handlePan(1,0)">
                  <use xlink:href="#rim" fill="#404040">
                        <set attributeName="fill" to="#808080" begin="arrowRight.mouseover" end="arrowRight.mouseout"/>
                  </use>
                  <path fill="none" stroke="white" stroke-width="1.5" d="M0,-3.0v7 M-2.5,-0.5L0,-3.0L2.5,-0.5"/>
                </g>
                <g id="arrowDown" xlink:href="#dirArrow" transform="rotate(180) translate(-30 -48)" onmousedown="handlePan(0,1)">
                  <use xlink:href="#rim" fill="#404040">
                        <set attributeName="fill" to="#808080" begin="arrowDown.mouseover" end="arrowDown.mouseout"/>
                  </use>
                  <path fill="none" stroke="white" stroke-width="1.5" d="M0,-3.0v7 M-2.5,-0.5L0,-3.0L2.5,-0.5"/>
                </g>
                <g id="arrowLeft" xlink:href="#dirArrow" transform="rotate(270) translate(-36 17)" onmousedown="handlePan(-1,0)">
                  <use xlink:href="#rim" fill="#404040">
                        <set attributeName="fill" to="#808080" begin="arrowLeft.mouseover" end="arrowLeft.mouseout"/>
                  </use>
                  <path fill="none" stroke="white" stroke-width="1.5" d="M0,-3.0v7 M-2.5,-0.5L0,-3.0L2.5,-0.5"/>
                </g>
        </g>
        <svg viewBox="0 0 15 15" width="100%" height="30px" preserveAspectRatio="xMaxYMin meet">
         <g id="arrow_out" transform="scale(0.3 0.3)">
          <a xlink:href="class_page_def_impl__coll__graph_org.svg" target="_base">
           <rect id="button" ry="5" rx="5" y="6" x="6" height="38" width="38"
                fill="#f2f5e9" fill-opacity="0.5" stroke="#606060" stroke-width="1.0"/>
           <path id="arrow"
             d="M 11.500037,31.436501 C 11.940474,20.09759 22.043105,11.32322 32.158766,21.979434 L 37.068811,17.246167 C 37.068811,17.246167 37.088388,32 37.088388,32 L 22.160133,31.978069 C 22.160133,31.978069 26.997745,27.140456 26.997745,27.140456 C 18.528582,18.264221 13.291696,25.230495 11.500037,31.436501 z"
             style="fill:#404040;"/>
          </a>
         </g>
        </svg>
</svg>
