<?xml version="1.0" encoding="UTF-8" standalone="no"?>
<!DOCTYPE svg PUBLIC "-//W3C//DTD SVG 1.1//EN"
 "http://www.w3.org/Graphics/SVG/1.1/DTD/svg11.dtd">
<!-- Generated by graphviz version 2.43.0 (0)
 -->
<!-- Title: /home/runner/work/doxygen/doxygen/src/searchindex.h Pages: 1 -->
<svg width="4519pt" height="170pt"
 viewBox="0.00 0.00 4519.00 170.00" xmlns="http://www.w3.org/2000/svg" xmlns:xlink="http://www.w3.org/1999/xlink">
<g id="graph0" class="graph" transform="scale(1 1) rotate(0) translate(4 166)">
<title>/home/runner/work/doxygen/doxygen/src/searchindex.h</title>
<!-- Node1 -->
<g id="node1" class="node">
<title>Node1</title>
<g id="a_node1"><a xlink:title="Web server based search engine.">
<polygon fill="#999999" stroke="#666666" points="2758,-162 2604,-162 2604,-132 2758,-132 2758,-162"/>
<text text-anchor="start" x="2612" y="-150" font-family="Helvetica,sans-Serif" font-size="10.00">/home/runner/work/doxygen</text>
<text text-anchor="middle" x="2681" y="-139" font-family="Helvetica,sans-Serif" font-size="10.00">/doxygen/src/searchindex.h</text>
</a>
</g>
</g>
<!-- Node2 -->
<g id="node2" class="node">
<title>Node2</title>
<g id="a_node2"><a xlink:href="../../de/d89/classdef_8cpp.html" target="_top" xlink:title=" ">
<polygon fill="white" stroke="#666666" points="154,-30 0,-30 0,0 154,0 154,-30"/>
<text text-anchor="start" x="8" y="-18" font-family="Helvetica,sans-Serif" font-size="10.00">/home/runner/work/doxygen</text>
<text text-anchor="middle" x="77" y="-7" font-family="Helvetica,sans-Serif" font-size="10.00">/doxygen/src/classdef.cpp</text>
</a>
</g>
</g>
<!-- Node1&#45;&gt;Node2 -->
<g id="edge1" class="edge">
<title>Node1&#45;&gt;Node2</title>
<path fill="none" stroke="#63b8ff" d="M2593.94,-145.2C2255.17,-141.89 1024.48,-127.88 635,-96 462.11,-81.85 261.13,-48.94 153.84,-30.04"/>
<polygon fill="#63b8ff" stroke="#63b8ff" points="2593.91,-148.7 2603.94,-145.3 2593.97,-141.7 2593.91,-148.7"/>
</g>
<!-- Node3 -->
<g id="node3" class="node">
<title>Node3</title>
<g id="a_node3"><a xlink:href="../../da/d1f/code_8l.html" target="_top" xlink:title=" ">
<polygon fill="white" stroke="#666666" points="326,-30 172,-30 172,0 326,0 326,-30"/>
<text text-anchor="start" x="180" y="-18" font-family="Helvetica,sans-Serif" font-size="10.00">/home/runner/work/doxygen</text>
<text text-anchor="middle" x="249" y="-7" font-family="Helvetica,sans-Serif" font-size="10.00">/doxygen/src/code.l</text>
</a>
</g>
</g>
<!-- Node1&#45;&gt;Node3 -->
<g id="edge2" class="edge">
<title>Node1&#45;&gt;Node3</title>
<path fill="none" stroke="#63b8ff" d="M2593.9,-145.46C2346.08,-143.48 1615.94,-134.54 1011,-96 709.74,-76.81 634.35,-68.94 335,-30 332.15,-29.63 329.25,-29.24 326.32,-28.83"/>
<polygon fill="#63b8ff" stroke="#63b8ff" points="2593.9,-148.96 2603.92,-145.54 2593.95,-141.96 2593.9,-148.96"/>
</g>
<!-- Node4 -->
<g id="node4" class="node">
<title>Node4</title>
<g id="a_node4"><a xlink:href="../../d8/d0a/conceptdef_8cpp.html" target="_top" xlink:title=" ">
<polygon fill="white" stroke="#666666" points="499.5,-30 344.5,-30 344.5,0 499.5,0 499.5,-30"/>
<text text-anchor="start" x="352.5" y="-18" font-family="Helvetica,sans-Serif" font-size="10.00">/home/runner/work/doxygen</text>
<text text-anchor="middle" x="422" y="-7" font-family="Helvetica,sans-Serif" font-size="10.00">/doxygen/src/conceptdef.cpp</text>
</a>
</g>
</g>
<!-- Node1&#45;&gt;Node4 -->
<g id="edge3" class="edge">
<title>Node1&#45;&gt;Node4</title>
<path fill="none" stroke="#63b8ff" d="M2593.71,-143.24C2394,-136.74 1888.42,-119.25 1466,-96 1412.79,-93.07 561.95,-36.07 509,-30 505.96,-29.65 502.86,-29.27 499.74,-28.87"/>
<polygon fill="#63b8ff" stroke="#63b8ff" points="2593.74,-146.74 2603.85,-143.57 2593.97,-139.75 2593.74,-146.74"/>
</g>
<!-- Node5 -->
<g id="node5" class="node">
<title>Node5</title>
<g id="a_node5"><a xlink:href="../../db/d12/context_8cpp.html" target="_top" xlink:title=" ">
<polygon fill="white" stroke="#666666" points="3072,-96 2918,-96 2918,-66 3072,-66 3072,-96"/>
<text text-anchor="start" x="2926" y="-84" font-family="Helvetica,sans-Serif" font-size="10.00">/home/runner/work/doxygen</text>
<text text-anchor="middle" x="2995" y="-73" font-family="Helvetica,sans-Serif" font-size="10.00">/doxygen/src/context.cpp</text>
</a>
</g>
</g>
<!-- Node1&#45;&gt;Node5 -->
<g id="edge4" class="edge">
<title>Node1&#45;&gt;Node5</title>
<path fill="none" stroke="#63b8ff" d="M2759.94,-129.91C2811.15,-119.47 2877.21,-106.01 2926.25,-96.01"/>
<polygon fill="#63b8ff" stroke="#63b8ff" points="2759.01,-126.53 2749.91,-131.95 2760.41,-133.39 2759.01,-126.53"/>
</g>
<!-- Node6 -->
<g id="node6" class="node">
<title>Node6</title>
<g id="a_node6"><a xlink:href="../../df/dc9/docparser__p_8h.html" target="_top" xlink:title="Private header shared between docparser.cpp and docnode.cpp.">
<polygon fill="white" stroke="#666666" points="3244,-96 3090,-96 3090,-66 3244,-66 3244,-96"/>
<text text-anchor="start" x="3098" y="-84" font-family="Helvetica,sans-Serif" font-size="10.00">/home/runner/work/doxygen</text>
<text text-anchor="middle" x="3167" y="-73" font-family="Helvetica,sans-Serif" font-size="10.00">/doxygen/src/docparser_p.h</text>
</a>
</g>
</g>
<!-- Node1&#45;&gt;Node6 -->
<g id="edge5" class="edge">
<title>Node1&#45;&gt;Node6</title>
<path fill="none" stroke="#63b8ff" d="M2768.34,-136.03C2849.46,-126.54 2973.55,-111.46 3081,-96 3083.84,-95.59 3086.74,-95.17 3089.67,-94.73"/>
<polygon fill="#63b8ff" stroke="#63b8ff" points="2767.7,-132.58 2758.17,-137.21 2768.51,-139.53 2767.7,-132.58"/>
</g>
<!-- Node9 -->
<g id="node9" class="node">
<title>Node9</title>
<g id="a_node9"><a xlink:href="../../dc/d98/doxygen_8cpp.html" target="_top" xlink:title=" ">
<polygon fill="white" stroke="#666666" points="672,-30 518,-30 518,0 672,0 672,-30"/>
<text text-anchor="start" x="526" y="-18" font-family="Helvetica,sans-Serif" font-size="10.00">/home/runner/work/doxygen</text>
<text text-anchor="middle" x="595" y="-7" font-family="Helvetica,sans-Serif" font-size="10.00">/doxygen/src/doxygen.cpp</text>
</a>
</g>
</g>
<!-- Node1&#45;&gt;Node9 -->
<g id="edge8" class="edge">
<title>Node1&#45;&gt;Node9</title>
<path fill="none" stroke="#63b8ff" d="M2593.79,-143.4C2424.78,-137.93 2040.9,-123.42 1719,-96 1606.18,-86.39 1578.85,-75.27 1466,-66 1117.92,-37.42 1028.38,-66.12 681,-30 678.14,-29.7 675.23,-29.37 672.3,-29.02"/>
<polygon fill="#63b8ff" stroke="#63b8ff" points="2593.77,-146.9 2603.88,-143.72 2594,-139.9 2593.77,-146.9"/>
</g>
<!-- Node10 -->
<g id="node10" class="node">
<title>Node10</title>
<g id="a_node10"><a xlink:href="../../d6/ddc/filedef_8cpp.html" target="_top" xlink:title=" ">
<polygon fill="white" stroke="#666666" points="844,-30 690,-30 690,0 844,0 844,-30"/>
<text text-anchor="start" x="698" y="-18" font-family="Helvetica,sans-Serif" font-size="10.00">/home/runner/work/doxygen</text>
<text text-anchor="middle" x="767" y="-7" font-family="Helvetica,sans-Serif" font-size="10.00">/doxygen/src/filedef.cpp</text>
</a>
</g>
</g>
<!-- Node1&#45;&gt;Node10 -->
<g id="edge9" class="edge">
<title>Node1&#45;&gt;Node10</title>
<path fill="none" stroke="#63b8ff" d="M2593.82,-144.7C2444.14,-141.56 2128.9,-131.02 1865,-96 1799.33,-87.29 1784.75,-74.07 1719,-66 1336.65,-19.08 1236.24,-69.02 853,-30 850.14,-29.71 847.23,-29.38 844.3,-29.03"/>
<polygon fill="#63b8ff" stroke="#63b8ff" points="2593.8,-148.2 2603.87,-144.9 2593.94,-141.2 2593.8,-148.2"/>
</g>
<!-- Node11 -->
<g id="node11" class="node">
<title>Node11</title>
<g id="a_node11"><a xlink:href="../../d6/d42/groupdef_8cpp.html" target="_top" xlink:title=" ">
<polygon fill="white" stroke="#666666" points="1016,-30 862,-30 862,0 1016,0 1016,-30"/>
<text text-anchor="start" x="870" y="-18" font-family="Helvetica,sans-Serif" font-size="10.00">/home/runner/work/doxygen</text>
<text text-anchor="middle" x="939" y="-7" font-family="Helvetica,sans-Serif" font-size="10.00">/doxygen/src/groupdef.cpp</text>
</a>
</g>
</g>
<!-- Node1&#45;&gt;Node11 -->
<g id="edge10" class="edge">
<title>Node1&#45;&gt;Node11</title>
<path fill="none" stroke="#63b8ff" d="M2593.82,-146.86C2456.9,-146.67 2183.68,-140.09 1957,-96 1914.78,-87.79 1907.32,-73.66 1865,-66 1497.3,0.54 1396.73,-68.09 1025,-30 1022.14,-29.71 1019.23,-29.38 1016.3,-29.03"/>
<polygon fill="#63b8ff" stroke="#63b8ff" points="2593.84,-150.36 2603.84,-146.86 2593.84,-143.36 2593.84,-150.36"/>
</g>
<!-- Node12 -->
<g id="node12" class="node">
<title>Node12</title>
<g id="a_node12"><a xlink:href="../../d8/d6e/htmlgen_8cpp.html" target="_top" xlink:title=" ">
<polygon fill="white" stroke="#666666" points="3416,-96 3262,-96 3262,-66 3416,-66 3416,-96"/>
<text text-anchor="start" x="3270" y="-84" font-family="Helvetica,sans-Serif" font-size="10.00">/home/runner/work/doxygen</text>
<text text-anchor="middle" x="3339" y="-73" font-family="Helvetica,sans-Serif" font-size="10.00">/doxygen/src/htmlgen.cpp</text>
</a>
</g>
</g>
<!-- Node1&#45;&gt;Node12 -->
<g id="edge11" class="edge">
<title>Node1&#45;&gt;Node12</title>
<path fill="none" stroke="#63b8ff" d="M2768.71,-140.36C2881.16,-132.67 3082.02,-117.36 3253,-96 3255.85,-95.64 3258.75,-95.26 3261.68,-94.86"/>
<polygon fill="#63b8ff" stroke="#63b8ff" points="2768.18,-136.89 2758.45,-141.06 2768.66,-143.87 2768.18,-136.89"/>
</g>
<!-- Node13 -->
<g id="node13" class="node">
<title>Node13</title>
<g id="a_node13"><a xlink:href="../../d0/d72/memberdef_8cpp.html" target="_top" xlink:title=" ">
<polygon fill="white" stroke="#666666" points="1192,-30 1034,-30 1034,0 1192,0 1192,-30"/>
<text text-anchor="start" x="1042" y="-18" font-family="Helvetica,sans-Serif" font-size="10.00">/home/runner/work/doxygen</text>
<text text-anchor="middle" x="1113" y="-7" font-family="Helvetica,sans-Serif" font-size="10.00">/doxygen/src/memberdef.cpp</text>
</a>
</g>
</g>
<!-- Node1&#45;&gt;Node13 -->
<g id="edge12" class="edge">
<title>Node1&#45;&gt;Node13</title>
<path fill="none" stroke="#63b8ff" d="M2593.54,-143.22C2439.84,-137.69 2127.58,-123.42 2022,-96 1991.2,-88 1987.91,-73.56 1957,-66 1793.63,-26.02 1368.3,-47.24 1201,-30 1198.08,-29.7 1195.1,-29.37 1192.1,-29.01"/>
<polygon fill="#63b8ff" stroke="#63b8ff" points="2593.76,-146.73 2603.87,-143.59 2594.01,-139.73 2593.76,-146.73"/>
</g>
<!-- Node14 -->
<g id="node14" class="node">
<title>Node14</title>
<g id="a_node14"><a xlink:href="../../d7/d1c/namespacedef_8cpp.html" target="_top" xlink:title=" ">
<polygon fill="white" stroke="#666666" points="1383.5,-30 1210.5,-30 1210.5,0 1383.5,0 1383.5,-30"/>
<text text-anchor="start" x="1218.5" y="-18" font-family="Helvetica,sans-Serif" font-size="10.00">/home/runner/work/doxygen</text>
<text text-anchor="middle" x="1297" y="-7" font-family="Helvetica,sans-Serif" font-size="10.00">/doxygen/src/namespacedef.cpp</text>
</a>
</g>
</g>
<!-- Node1&#45;&gt;Node14 -->
<g id="edge13" class="edge">
<title>Node1&#45;&gt;Node14</title>
<path fill="none" stroke="#63b8ff" d="M2593.36,-142.52C2451.59,-136.23 2178.39,-121.25 2085,-96 2055.06,-87.91 2052.04,-73.7 2022,-66 1750.75,3.49 1671.59,-58.23 1393,-30 1389.9,-29.69 1386.75,-29.34 1383.56,-28.98"/>
<polygon fill="#63b8ff" stroke="#63b8ff" points="2593.61,-146.03 2603.76,-142.97 2593.92,-139.04 2593.61,-146.03"/>
</g>
<!-- Node15 -->
<g id="node15" class="node">
<title>Node15</title>
<g id="a_node15"><a xlink:href="../../d2/db9/outputlist_8h.html" target="_top" xlink:title=" ">
<polygon fill="white" stroke="#666666" points="2248,-96 2094,-96 2094,-66 2248,-66 2248,-96"/>
<text text-anchor="start" x="2102" y="-84" font-family="Helvetica,sans-Serif" font-size="10.00">/home/runner/work/doxygen</text>
<text text-anchor="middle" x="2171" y="-73" font-family="Helvetica,sans-Serif" font-size="10.00">/doxygen/src/outputlist.h</text>
</a>
</g>
</g>
<!-- Node1&#45;&gt;Node15 -->
<g id="edge14" class="edge">
<title>Node1&#45;&gt;Node15</title>
<path fill="none" stroke="#63b8ff" d="M2593.72,-135.05C2496.52,-122.85 2340.87,-103.32 2248.02,-91.67"/>
<polygon fill="#63b8ff" stroke="#63b8ff" points="2593.46,-138.54 2603.82,-136.31 2594.33,-131.6 2593.46,-138.54"/>
</g>
<!-- Node25 -->
<g id="node25" class="node">
<title>Node25</title>
<g id="a_node25"><a xlink:href="../../d3/ded/pycode_8l.html" target="_top" xlink:title=" ">
<polygon fill="white" stroke="#666666" points="3126,-30 2972,-30 2972,0 3126,0 3126,-30"/>
<text text-anchor="start" x="2980" y="-18" font-family="Helvetica,sans-Serif" font-size="10.00">/home/runner/work/doxygen</text>
<text text-anchor="middle" x="3049" y="-7" font-family="Helvetica,sans-Serif" font-size="10.00">/doxygen/src/pycode.l</text>
</a>
</g>
</g>
<!-- Node1&#45;&gt;Node25 -->
<g id="edge39" class="edge">
<title>Node1&#45;&gt;Node25</title>
<path fill="none" stroke="#63b8ff" d="M2675.13,-121.59C2672.44,-103.88 2672.38,-80.56 2686,-66 2728.24,-20.82 2900.79,-38.91 2962,-30 2965.18,-29.54 2968.42,-29.06 2971.7,-28.56"/>
<polygon fill="#63b8ff" stroke="#63b8ff" points="2671.76,-122.59 2677.05,-131.77 2678.64,-121.3 2671.76,-122.59"/>
</g>
<!-- Node26 -->
<g id="node26" class="node">
<title>Node26</title>
<g id="a_node26"><a xlink:href="../../d2/dda/sqlcode_8l.html" target="_top" xlink:title=" ">
<polygon fill="white" stroke="#666666" points="3298,-30 3144,-30 3144,0 3298,0 3298,-30"/>
<text text-anchor="start" x="3152" y="-18" font-family="Helvetica,sans-Serif" font-size="10.00">/home/runner/work/doxygen</text>
<text text-anchor="middle" x="3221" y="-7" font-family="Helvetica,sans-Serif" font-size="10.00">/doxygen/src/sqlcode.l</text>
</a>
</g>
</g>
<!-- Node1&#45;&gt;Node26 -->
<g id="edge41" class="edge">
<title>Node1&#45;&gt;Node26</title>
<path fill="none" stroke="#63b8ff" d="M2687.12,-122.08C2693.21,-103.51 2704.54,-78.82 2724,-66 2800.56,-15.57 3044.03,-41.37 3135,-30 3137.85,-29.64 3140.75,-29.26 3143.68,-28.86"/>
<polygon fill="#63b8ff" stroke="#63b8ff" points="2683.69,-121.33 2684.18,-131.92 2690.4,-123.34 2683.69,-121.33"/>
</g>
<!-- Node27 -->
<g id="node27" class="node">
<title>Node27</title>
<g id="a_node27"><a xlink:href="../../df/d2d/util_8cpp.html" target="_top" xlink:title=" ">
<polygon fill="white" stroke="#666666" points="3470,-30 3316,-30 3316,0 3470,0 3470,-30"/>
<text text-anchor="start" x="3324" y="-18" font-family="Helvetica,sans-Serif" font-size="10.00">/home/runner/work/doxygen</text>
<text text-anchor="middle" x="3393" y="-7" font-family="Helvetica,sans-Serif" font-size="10.00">/doxygen/src/util.cpp</text>
</a>
</g>
</g>
<!-- Node1&#45;&gt;Node27 -->
<g id="edge42" class="edge">
<title>Node1&#45;&gt;Node27</title>
<path fill="none" stroke="#63b8ff" d="M2700.05,-123.97C2719.06,-102.63 2747.45,-72.54 2762,-66 2872.7,-16.22 3186.41,-43.77 3307,-30 3309.86,-29.67 3312.76,-29.32 3315.69,-28.94"/>
<polygon fill="#63b8ff" stroke="#63b8ff" points="2697.27,-121.84 2693.28,-131.66 2702.52,-126.47 2697.27,-121.84"/>
</g>
<!-- Node28 -->
<g id="node28" class="node">
<title>Node28</title>
<g id="a_node28"><a xlink:href="../../d5/d6a/vhdlcode_8l.html" target="_top" xlink:title=" ">
<polygon fill="white" stroke="#666666" points="3642,-30 3488,-30 3488,0 3642,0 3642,-30"/>
<text text-anchor="start" x="3496" y="-18" font-family="Helvetica,sans-Serif" font-size="10.00">/home/runner/work/doxygen</text>
<text text-anchor="middle" x="3565" y="-7" font-family="Helvetica,sans-Serif" font-size="10.00">/doxygen/src/vhdlcode.l</text>
</a>
</g>
</g>
<!-- Node1&#45;&gt;Node28 -->
<g id="edge43" class="edge">
<title>Node1&#45;&gt;Node28</title>
<path fill="none" stroke="#63b8ff" d="M2712.31,-126.55C2726.67,-117.47 2743.84,-106.39 2759,-96 2777.62,-83.23 2778.73,-73.58 2800,-66 2942.33,-15.28 3328.77,-46.16 3479,-30 3481.86,-29.69 3484.76,-29.35 3487.7,-28.99"/>
<polygon fill="#63b8ff" stroke="#63b8ff" points="2710.37,-123.63 2703.77,-131.92 2714.1,-129.56 2710.37,-123.63"/>
</g>
<!-- Node29 -->
<g id="node29" class="node">
<title>Node29</title>
<g id="a_node29"><a xlink:href="../../de/dea/vhdldocgen_8cpp.html" target="_top" xlink:title=" ">
<polygon fill="white" stroke="#666666" points="3818,-30 3660,-30 3660,0 3818,0 3818,-30"/>
<text text-anchor="start" x="3668" y="-18" font-family="Helvetica,sans-Serif" font-size="10.00">/home/runner/work/doxygen</text>
<text text-anchor="middle" x="3739" y="-7" font-family="Helvetica,sans-Serif" font-size="10.00">/doxygen/src/vhdldocgen.cpp</text>
</a>
</g>
</g>
<!-- Node1&#45;&gt;Node29 -->
<g id="edge44" class="edge">
<title>Node1&#45;&gt;Node29</title>
<path fill="none" stroke="#63b8ff" d="M2726.51,-128.09C2747.49,-119.28 2772.46,-107.98 2794,-96 2814.69,-84.5 2815.54,-73.48 2838,-66 3009.59,-8.88 3471.08,-48.24 3651,-30 3653.92,-29.7 3656.9,-29.37 3659.9,-29.02"/>
<polygon fill="#63b8ff" stroke="#63b8ff" points="2725.07,-124.9 2717.18,-131.96 2727.76,-131.37 2725.07,-124.9"/>
</g>
<!-- Node30 -->
<g id="node30" class="node">
<title>Node30</title>
<g id="a_node30"><a xlink:href="../../d1/d86/vhdljjparser_8cpp.html" target="_top" xlink:title=" ">
<polygon fill="white" stroke="#666666" points="3994.5,-30 3835.5,-30 3835.5,0 3994.5,0 3994.5,-30"/>
<text text-anchor="start" x="3843.5" y="-18" font-family="Helvetica,sans-Serif" font-size="10.00">/home/runner/work/doxygen</text>
<text text-anchor="middle" x="3915" y="-7" font-family="Helvetica,sans-Serif" font-size="10.00">/doxygen/src/vhdljjparser.cpp</text>
</a>
</g>
</g>
<!-- Node1&#45;&gt;Node30 -->
<g id="edge45" class="edge">
<title>Node1&#45;&gt;Node30</title>
<path fill="none" stroke="#63b8ff" d="M2743.45,-128.92C2770.66,-120.5 2802.55,-109.29 2830,-96 2851.97,-85.37 2852.74,-73.4 2876,-66 3077.54,-1.91 3616.53,-50.65 3827,-30 3829.77,-29.73 3832.59,-29.43 3835.43,-29.1"/>
<polygon fill="#63b8ff" stroke="#63b8ff" points="2742.21,-125.65 2733.65,-131.9 2744.24,-132.34 2742.21,-125.65"/>
</g>
<!-- Node31 -->
<g id="node31" class="node">
<title>Node31</title>
<g id="a_node31"><a xlink:href="../../dc/dc1/xmlcode_8l.html" target="_top" xlink:title=" ">
<polygon fill="white" stroke="#666666" points="4167,-30 4013,-30 4013,0 4167,0 4167,-30"/>
<text text-anchor="start" x="4021" y="-18" font-family="Helvetica,sans-Serif" font-size="10.00">/home/runner/work/doxygen</text>
<text text-anchor="middle" x="4090" y="-7" font-family="Helvetica,sans-Serif" font-size="10.00">/doxygen/src/xmlcode.l</text>
</a>
</g>
</g>
<!-- Node1&#45;&gt;Node31 -->
<g id="edge46" class="edge">
<title>Node1&#45;&gt;Node31</title>
<path fill="none" stroke="#63b8ff" d="M2767.24,-129.61C2799.45,-121.75 2835.77,-110.76 2867,-96 2887.74,-86.2 2887.27,-73.36 2909,-66 3024.3,-26.95 3882.84,-41.8 4004,-30 4006.86,-29.72 4009.77,-29.41 4012.71,-29.06"/>
<polygon fill="#63b8ff" stroke="#63b8ff" points="2766.31,-126.23 2757.38,-131.95 2767.92,-133.04 2766.31,-126.23"/>
</g>
<!-- Node32 -->
<g id="node32" class="node">
<title>Node32</title>
<g id="a_node32"><a xlink:href="../../d7/d79/searchindex_8cpp.html" target="_top" xlink:title=" ">
<polygon fill="white" stroke="#666666" points="3595.5,-96 3434.5,-96 3434.5,-66 3595.5,-66 3595.5,-96"/>
<text text-anchor="start" x="3442.5" y="-84" font-family="Helvetica,sans-Serif" font-size="10.00">/home/runner/work/doxygen</text>
<text text-anchor="middle" x="3515" y="-73" font-family="Helvetica,sans-Serif" font-size="10.00">/doxygen/src/searchindex.cpp</text>
</a>
</g>
</g>
<!-- Node1&#45;&gt;Node32 -->
<g id="edge40" class="edge">
<title>Node1&#45;&gt;Node32</title>
<path fill="none" stroke="#63b8ff" d="M2768.22,-142.61C2907.42,-136.64 3188.23,-122.32 3425,-96 3427.99,-95.67 3431.02,-95.31 3434.09,-94.93"/>
<polygon fill="#63b8ff" stroke="#63b8ff" points="2767.89,-139.12 2758.04,-143.04 2768.18,-146.11 2767.89,-139.12"/>
</g>
<!-- Node7 -->
<g id="node7" class="node">
<title>Node7</title>
<g id="a_node7"><a xlink:href="../../d0/d2b/docnode_8cpp.html" target="_top" xlink:title=" ">
<polygon fill="white" stroke="#666666" points="4339,-30 4185,-30 4185,0 4339,0 4339,-30"/>
<text text-anchor="start" x="4193" y="-18" font-family="Helvetica,sans-Serif" font-size="10.00">/home/runner/work/doxygen</text>
<text text-anchor="middle" x="4262" y="-7" font-family="Helvetica,sans-Serif" font-size="10.00">/doxygen/src/docnode.cpp</text>
</a>
</g>
</g>
<!-- Node6&#45;&gt;Node7 -->
<g id="edge6" class="edge">
<title>Node6&#45;&gt;Node7</title>
<path fill="none" stroke="#63b8ff" d="M3254.32,-65.96C3663.2,-25.68 3770.82,-70.73 4176,-30 4178.86,-29.71 4181.77,-29.39 4184.7,-29.04"/>
<polygon fill="#63b8ff" stroke="#63b8ff" points="3253.9,-62.48 3244.3,-66.96 3254.59,-69.45 3253.9,-62.48"/>
</g>
<!-- Node8 -->
<g id="node8" class="node">
<title>Node8</title>
<g id="a_node8"><a xlink:href="../../da/d17/docparser_8cpp.html" target="_top" xlink:title=" ">
<polygon fill="white" stroke="#666666" points="4511,-30 4357,-30 4357,0 4511,0 4511,-30"/>
<text text-anchor="start" x="4365" y="-18" font-family="Helvetica,sans-Serif" font-size="10.00">/home/runner/work/doxygen</text>
<text text-anchor="middle" x="4434" y="-7" font-family="Helvetica,sans-Serif" font-size="10.00">/doxygen/src/docparser.cpp</text>
</a>
</g>
</g>
<!-- Node6&#45;&gt;Node8 -->
<g id="edge7" class="edge">
<title>Node6&#45;&gt;Node8</title>
<path fill="none" stroke="#63b8ff" d="M3254.36,-65.96C3739.37,-19.58 3866.68,-76.89 4348,-30 4350.86,-29.72 4353.77,-29.41 4356.71,-29.06"/>
<polygon fill="#63b8ff" stroke="#63b8ff" points="3253.91,-62.49 3244.29,-66.94 3254.58,-69.46 3253.91,-62.49"/>
</g>
<!-- Node15&#45;&gt;Node2 -->
<g id="edge15" class="edge">
<title>Node15&#45;&gt;Node2</title>
<path fill="none" stroke="#63b8ff" d="M2083.59,-79.41C1748.31,-76.91 544.13,-65.6 163,-30 160.14,-29.73 157.23,-29.43 154.29,-29.09"/>
<polygon fill="#63b8ff" stroke="#63b8ff" points="2083.71,-82.91 2093.73,-79.49 2083.76,-75.91 2083.71,-82.91"/>
</g>
<!-- Node15&#45;&gt;Node3 -->
<g id="edge17" class="edge">
<title>Node15&#45;&gt;Node3</title>
<path fill="none" stroke="#63b8ff" d="M2083.75,-79.18C1767.34,-75.95 680.74,-62.7 335,-30 332.14,-29.73 329.23,-29.42 326.29,-29.08"/>
<polygon fill="#63b8ff" stroke="#63b8ff" points="2083.75,-82.68 2093.78,-79.28 2083.82,-75.68 2083.75,-82.68"/>
</g>
<!-- Node15&#45;&gt;Node4 -->
<g id="edge18" class="edge">
<title>Node15&#45;&gt;Node4</title>
<path fill="none" stroke="#63b8ff" d="M2083.76,-78.04C1763.9,-70.75 665.85,-44.92 509,-30 505.95,-29.71 502.85,-29.38 499.72,-29.02"/>
<polygon fill="#63b8ff" stroke="#63b8ff" points="2083.83,-81.54 2093.9,-78.27 2083.99,-74.54 2083.83,-81.54"/>
</g>
<!-- Node15&#45;&gt;Node9 -->
<g id="edge21" class="edge">
<title>Node15&#45;&gt;Node9</title>
<path fill="none" stroke="#63b8ff" d="M2083.34,-77.21C1769.14,-67.19 716.05,-33.43 681,-30 678.14,-29.72 675.23,-29.41 672.29,-29.06"/>
<polygon fill="#63b8ff" stroke="#63b8ff" points="2083.66,-80.72 2093.76,-77.54 2083.88,-73.72 2083.66,-80.72"/>
</g>
<!-- Node15&#45;&gt;Node10 -->
<g id="edge22" class="edge">
<title>Node15&#45;&gt;Node10</title>
<path fill="none" stroke="#63b8ff" d="M2083.97,-75.78C2022.74,-72.87 1938.87,-69 1865,-66 1415.31,-47.71 1300.88,-74.24 853,-30 850.14,-29.72 847.23,-29.4 844.29,-29.05"/>
<polygon fill="#63b8ff" stroke="#63b8ff" points="2083.83,-79.28 2093.98,-76.26 2084.16,-72.29 2083.83,-79.28"/>
</g>
<!-- Node15&#45;&gt;Node11 -->
<g id="edge24" class="edge">
<title>Node15&#45;&gt;Node11</title>
<path fill="none" stroke="#63b8ff" d="M2083.56,-73.75C2044.8,-71.12 1998.64,-68.17 1957,-66 1543.03,-44.47 1437.46,-71.38 1025,-30 1022.14,-29.71 1019.23,-29.39 1016.3,-29.04"/>
<polygon fill="#63b8ff" stroke="#63b8ff" points="2083.55,-77.26 2093.77,-74.45 2084.03,-70.27 2083.55,-77.26"/>
</g>
<!-- Node15&#45;&gt;Node13 -->
<g id="edge26" class="edge">
<title>Node15&#45;&gt;Node13</title>
<path fill="none" stroke="#63b8ff" d="M2083.6,-71.05C2063.39,-69.19 2041.96,-67.37 2022,-66 1657.62,-40.91 1564.39,-66.75 1201,-30 1198.08,-29.7 1195.1,-29.38 1192.1,-29.02"/>
<polygon fill="#63b8ff" stroke="#63b8ff" points="2083.44,-74.55 2093.73,-72 2084.1,-67.58 2083.44,-74.55"/>
</g>
<!-- Node15&#45;&gt;Node14 -->
<g id="edge29" class="edge">
<title>Node15&#45;&gt;Node14</title>
<path fill="none" stroke="#63b8ff" d="M2083.62,-67.12C2080.03,-66.72 2076.48,-66.34 2073,-66 1771.79,-36.57 1694.17,-59.87 1393,-30 1389.9,-29.69 1386.75,-29.36 1383.56,-29"/>
<polygon fill="#63b8ff" stroke="#63b8ff" points="2083.44,-70.62 2093.78,-68.31 2084.25,-63.67 2083.44,-70.62"/>
</g>
<!-- Node16 -->
<g id="node16" class="node">
<title>Node16</title>
<g id="a_node16"><a xlink:href="../../d6/d10/classlist_8cpp.html" target="_top" xlink:title=" ">
<polygon fill="white" stroke="#666666" points="2076,-30 1922,-30 1922,0 2076,0 2076,-30"/>
<text text-anchor="start" x="1930" y="-18" font-family="Helvetica,sans-Serif" font-size="10.00">/home/runner/work/doxygen</text>
<text text-anchor="middle" x="1999" y="-7" font-family="Helvetica,sans-Serif" font-size="10.00">/doxygen/src/classlist.cpp</text>
</a>
</g>
</g>
<!-- Node15&#45;&gt;Node16 -->
<g id="edge16" class="edge">
<title>Node15&#45;&gt;Node16</title>
<path fill="none" stroke="#63b8ff" d="M2123.85,-62.46C2096.41,-52.25 2062.29,-39.55 2036.66,-30.01"/>
<polygon fill="#63b8ff" stroke="#63b8ff" points="2122.66,-65.75 2133.25,-65.95 2125.1,-59.19 2122.66,-65.75"/>
</g>
<!-- Node17 -->
<g id="node17" class="node">
<title>Node17</title>
<g id="a_node17"><a xlink:href="../../d3/dea/definition_8cpp.html" target="_top" xlink:title=" ">
<polygon fill="white" stroke="#666666" points="2248,-30 2094,-30 2094,0 2248,0 2248,-30"/>
<text text-anchor="start" x="2102" y="-18" font-family="Helvetica,sans-Serif" font-size="10.00">/home/runner/work/doxygen</text>
<text text-anchor="middle" x="2171" y="-7" font-family="Helvetica,sans-Serif" font-size="10.00">/doxygen/src/definition.cpp</text>
</a>
</g>
</g>
<!-- Node15&#45;&gt;Node17 -->
<g id="edge19" class="edge">
<title>Node15&#45;&gt;Node17</title>
<path fill="none" stroke="#63b8ff" d="M2171,-55.54C2171,-46.96 2171,-37.61 2171,-30.16"/>
<polygon fill="#63b8ff" stroke="#63b8ff" points="2167.5,-55.8 2171,-65.8 2174.5,-55.8 2167.5,-55.8"/>
</g>
<!-- Node18 -->
<g id="node18" class="node">
<title>Node18</title>
<g id="a_node18"><a xlink:href="../../d8/d52/dirdef_8cpp.html" target="_top" xlink:title=" ">
<polygon fill="white" stroke="#666666" points="2420,-30 2266,-30 2266,0 2420,0 2420,-30"/>
<text text-anchor="start" x="2274" y="-18" font-family="Helvetica,sans-Serif" font-size="10.00">/home/runner/work/doxygen</text>
<text text-anchor="middle" x="2343" y="-7" font-family="Helvetica,sans-Serif" font-size="10.00">/doxygen/src/dirdef.cpp</text>
</a>
</g>
</g>
<!-- Node15&#45;&gt;Node18 -->
<g id="edge20" class="edge">
<title>Node15&#45;&gt;Node18</title>
<path fill="none" stroke="#63b8ff" d="M2218.15,-62.46C2245.59,-52.25 2279.71,-39.55 2305.34,-30.01"/>
<polygon fill="#63b8ff" stroke="#63b8ff" points="2216.9,-59.19 2208.75,-65.95 2219.34,-65.75 2216.9,-59.19"/>
</g>
<!-- Node19 -->
<g id="node19" class="node">
<title>Node19</title>
<g id="a_node19"><a xlink:href="../../d9/d5b/fortrancode_8l.html" target="_top" xlink:title=" ">
<polygon fill="white" stroke="#666666" points="2592,-30 2438,-30 2438,0 2592,0 2592,-30"/>
<text text-anchor="start" x="2446" y="-18" font-family="Helvetica,sans-Serif" font-size="10.00">/home/runner/work/doxygen</text>
<text text-anchor="middle" x="2515" y="-7" font-family="Helvetica,sans-Serif" font-size="10.00">/doxygen/src/fortrancode.l</text>
</a>
</g>
</g>
<!-- Node15&#45;&gt;Node19 -->
<g id="edge23" class="edge">
<title>Node15&#45;&gt;Node19</title>
<path fill="none" stroke="#63b8ff" d="M2256.43,-64.11C2312.67,-53.64 2385.62,-40.07 2439.68,-30.01"/>
<polygon fill="#63b8ff" stroke="#63b8ff" points="2255.68,-60.68 2246.49,-65.95 2256.96,-67.57 2255.68,-60.68"/>
</g>
<!-- Node20 -->
<g id="node20" class="node">
<title>Node20</title>
<g id="a_node20"><a xlink:href="../../db/d14/index_8cpp.html" target="_top" xlink:title="This file contains functions for the various index pages.">
<polygon fill="white" stroke="#666666" points="2764,-30 2610,-30 2610,0 2764,0 2764,-30"/>
<text text-anchor="start" x="2618" y="-18" font-family="Helvetica,sans-Serif" font-size="10.00">/home/runner/work/doxygen</text>
<text text-anchor="middle" x="2687" y="-7" font-family="Helvetica,sans-Serif" font-size="10.00">/doxygen/src/index.cpp</text>
</a>
</g>
</g>
<!-- Node15&#45;&gt;Node20 -->
<g id="edge25" class="edge">
<title>Node15&#45;&gt;Node20</title>
<path fill="none" stroke="#63b8ff" d="M2258.12,-71.05C2345.1,-61.83 2482.5,-46.53 2601,-30 2603.85,-29.6 2606.74,-29.19 2609.67,-28.76"/>
<polygon fill="#63b8ff" stroke="#63b8ff" points="2257.61,-67.58 2248.03,-72.11 2258.35,-74.54 2257.61,-67.58"/>
</g>
<!-- Node21 -->
<g id="node21" class="node">
<title>Node21</title>
<g id="a_node21"><a xlink:href="../../d6/d18/membergroup_8cpp.html" target="_top" xlink:title=" ">
<polygon fill="white" stroke="#666666" points="2953.5,-30 2782.5,-30 2782.5,0 2953.5,0 2953.5,-30"/>
<text text-anchor="start" x="2790.5" y="-18" font-family="Helvetica,sans-Serif" font-size="10.00">/home/runner/work/doxygen</text>
<text text-anchor="middle" x="2868" y="-7" font-family="Helvetica,sans-Serif" font-size="10.00">/doxygen/src/membergroup.cpp</text>
</a>
</g>
</g>
<!-- Node15&#45;&gt;Node21 -->
<g id="edge27" class="edge">
<title>Node15&#45;&gt;Node21</title>
<path fill="none" stroke="#63b8ff" d="M2258.13,-74.51C2375.36,-66.71 2590.27,-51.03 2773,-30 2776.06,-29.65 2779.18,-29.27 2782.33,-28.88"/>
<polygon fill="#63b8ff" stroke="#63b8ff" points="2257.88,-71.01 2248.13,-75.17 2258.34,-78 2257.88,-71.01"/>
</g>
<!-- Node22 -->
<g id="node22" class="node">
<title>Node22</title>
<g id="a_node22"><a xlink:href="../../d0/d14/memberlist_8cpp.html" target="_top" xlink:title=" ">
<polygon fill="white" stroke="#666666" points="1560,-30 1402,-30 1402,0 1560,0 1560,-30"/>
<text text-anchor="start" x="1410" y="-18" font-family="Helvetica,sans-Serif" font-size="10.00">/home/runner/work/doxygen</text>
<text text-anchor="middle" x="1481" y="-7" font-family="Helvetica,sans-Serif" font-size="10.00">/doxygen/src/memberlist.cpp</text>
</a>
</g>
</g>
<!-- Node15&#45;&gt;Node22 -->
<g id="edge28" class="edge">
<title>Node15&#45;&gt;Node22</title>
<path fill="none" stroke="#63b8ff" d="M2083.61,-67.2C2080.03,-66.77 2076.48,-66.37 2073,-66 1849.7,-42.11 1792.1,-55.67 1569,-30 1566.08,-29.66 1563.11,-29.3 1560.11,-28.92"/>
<polygon fill="#63b8ff" stroke="#63b8ff" points="2083.41,-70.7 2093.76,-68.45 2084.26,-63.75 2083.41,-70.7"/>
</g>
<!-- Node23 -->
<g id="node23" class="node">
<title>Node23</title>
<g id="a_node23"><a xlink:href="../../db/dd8/outputlist_8cpp.html" target="_top" xlink:title=" ">
<polygon fill="white" stroke="#666666" points="1732,-30 1578,-30 1578,0 1732,0 1732,-30"/>
<text text-anchor="start" x="1586" y="-18" font-family="Helvetica,sans-Serif" font-size="10.00">/home/runner/work/doxygen</text>
<text text-anchor="middle" x="1655" y="-7" font-family="Helvetica,sans-Serif" font-size="10.00">/doxygen/src/outputlist.cpp</text>
</a>
</g>
</g>
<!-- Node15&#45;&gt;Node23 -->
<g id="edge30" class="edge">
<title>Node15&#45;&gt;Node23</title>
<path fill="none" stroke="#63b8ff" d="M2084.05,-67.42C2080.32,-66.93 2076.62,-66.46 2073,-66 1925.74,-47.5 1888.08,-49.93 1741,-30 1738.15,-29.61 1735.25,-29.21 1732.33,-28.79"/>
<polygon fill="#63b8ff" stroke="#63b8ff" points="2083.62,-70.89 2094,-68.75 2084.55,-63.96 2083.62,-70.89"/>
</g>
<!-- Node24 -->
<g id="node24" class="node">
<title>Node24</title>
<g id="a_node24"><a xlink:href="../../d9/db4/pagedef_8cpp.html" target="_top" xlink:title=" ">
<polygon fill="white" stroke="#666666" points="1904,-30 1750,-30 1750,0 1904,0 1904,-30"/>
<text text-anchor="start" x="1758" y="-18" font-family="Helvetica,sans-Serif" font-size="10.00">/home/runner/work/doxygen</text>
<text text-anchor="middle" x="1827" y="-7" font-family="Helvetica,sans-Serif" font-size="10.00">/doxygen/src/pagedef.cpp</text>
</a>
</g>
</g>
<!-- Node15&#45;&gt;Node24 -->
<g id="edge31" class="edge">
<title>Node15&#45;&gt;Node24</title>
<path fill="none" stroke="#63b8ff" d="M2085.57,-64.11C2029.33,-53.64 1956.38,-40.07 1902.32,-30.01"/>
<polygon fill="#63b8ff" stroke="#63b8ff" points="2085.04,-67.57 2095.51,-65.95 2086.32,-60.68 2085.04,-67.57"/>
</g>
<!-- Node15&#45;&gt;Node25 -->
<g id="edge32" class="edge">
<title>Node15&#45;&gt;Node25</title>
<path fill="none" stroke="#63b8ff" d="M2258.37,-77.23C2404.43,-71.99 2707.27,-58.48 2962,-30 2965.19,-29.64 2968.45,-29.25 2971.73,-28.83"/>
<polygon fill="#63b8ff" stroke="#63b8ff" points="2258,-73.74 2248.13,-77.59 2258.25,-80.74 2258,-73.74"/>
</g>
<!-- Node15&#45;&gt;Node26 -->
<g id="edge33" class="edge">
<title>Node15&#45;&gt;Node26</title>
<path fill="none" stroke="#63b8ff" d="M2258.19,-78.67C2427.6,-75.39 2812.89,-64.47 3135,-30 3137.86,-29.69 3140.77,-29.36 3143.7,-28.99"/>
<polygon fill="#63b8ff" stroke="#63b8ff" points="2258.01,-75.18 2248.08,-78.87 2258.14,-82.18 2258.01,-75.18"/>
</g>
<!-- Node15&#45;&gt;Node27 -->
<g id="edge34" class="edge">
<title>Node15&#45;&gt;Node27</title>
<path fill="none" stroke="#63b8ff" d="M2258.59,-77.48C2488.25,-70.65 3104.05,-50.91 3307,-30 3309.86,-29.71 3312.77,-29.38 3315.7,-29.02"/>
<polygon fill="#63b8ff" stroke="#63b8ff" points="2258.17,-73.99 2248.28,-77.78 2258.38,-80.99 2258.17,-73.99"/>
</g>
<!-- Node15&#45;&gt;Node28 -->
<g id="edge35" class="edge">
<title>Node15&#45;&gt;Node28</title>
<path fill="none" stroke="#63b8ff" d="M2258.31,-78.07C2511.19,-72.25 3241.2,-53.81 3479,-30 3481.86,-29.71 3484.77,-29.39 3487.7,-29.04"/>
<polygon fill="#63b8ff" stroke="#63b8ff" points="2257.99,-74.57 2248.07,-78.3 2258.15,-81.57 2257.99,-74.57"/>
</g>
<!-- Node15&#45;&gt;Node29 -->
<g id="edge36" class="edge">
<title>Node15&#45;&gt;Node29</title>
<path fill="none" stroke="#63b8ff" d="M2258.74,-77.67C2555.82,-69.7 3512.92,-43.26 3651,-30 3653.93,-29.72 3656.9,-29.4 3659.91,-29.06"/>
<polygon fill="#63b8ff" stroke="#63b8ff" points="2258.36,-74.18 2248.46,-77.95 2258.55,-81.18 2258.36,-74.18"/>
</g>
<!-- Node15&#45;&gt;Node30 -->
<g id="edge37" class="edge">
<title>Node15&#45;&gt;Node30</title>
<path fill="none" stroke="#63b8ff" d="M2258.19,-78.02C2577.25,-70.69 3670.75,-44.73 3827,-30 3829.77,-29.74 3832.59,-29.44 3835.43,-29.12"/>
<polygon fill="#63b8ff" stroke="#63b8ff" points="2257.99,-74.52 2248.08,-78.25 2258.15,-81.52 2257.99,-74.52"/>
</g>
<!-- Node15&#45;&gt;Node31 -->
<g id="edge38" class="edge">
<title>Node15&#45;&gt;Node31</title>
<path fill="none" stroke="#63b8ff" d="M2258.23,-78.31C2598.9,-71.61 3829.52,-46.51 4004,-30 4006.86,-29.73 4009.77,-29.42 4012.71,-29.08"/>
<polygon fill="#63b8ff" stroke="#63b8ff" points="2258.1,-74.81 2248.17,-78.51 2258.24,-81.81 2258.1,-74.81"/>
</g>
</g>
</svg>
