<?xml version="1.0" encoding="UTF-8" standalone="no"?>
<!DOCTYPE svg PUBLIC "-//W3C//DTD SVG 1.1//EN"
 "http://www.w3.org/Graphics/SVG/1.1/DTD/svg11.dtd">
<!-- Generated by graphviz version 2.43.0 (0)
 -->
<!-- Title: DocbookGenerator Pages: 1 -->
<svg width="479pt" height="192pt"
 viewBox="0.00 0.00 479.00 192.00" xmlns="http://www.w3.org/2000/svg" xmlns:xlink="http://www.w3.org/1999/xlink">
<g id="graph0" class="graph" transform="scale(1 1) rotate(0) translate(4 188)">
<title>DocbookGenerator</title>
<!-- Node1 -->
<g id="node1" class="node">
<title>Node1</title>
<g id="a_node1"><a xlink:title=" ">
<polygon fill="#999999" stroke="#666666" points="324,-19 216,-19 216,0 324,0 324,-19"/>
<text text-anchor="middle" x="270" y="-7" font-family="Helvetica,sans-Serif" font-size="10.00">DocbookGenerator</text>
</a>
</g>
</g>
<!-- Node2 -->
<g id="node2" class="node">
<title>Node2</title>
<g id="a_node2"><a xlink:href="../../d3/d8e/class_output_generator.html" target="_top" xlink:title="Abstract output generator.">
<polygon fill="white" stroke="#666666" points="177,-85 79,-85 79,-66 177,-66 177,-85"/>
<text text-anchor="middle" x="128" y="-73" font-family="Helvetica,sans-Serif" font-size="10.00">OutputGenerator</text>
</a>
</g>
</g>
<!-- Node2&#45;&gt;Node1 -->
<g id="edge1" class="edge">
<title>Node2&#45;&gt;Node1</title>
<path fill="none" stroke="#63b8ff" d="M156.41,-61.69C184.4,-49.08 226.38,-30.16 250.7,-19.2"/>
<polygon fill="#63b8ff" stroke="#63b8ff" points="154.83,-58.57 147.15,-65.87 157.71,-64.95 154.83,-58.57"/>
</g>
<!-- Node3 -->
<g id="node3" class="node">
<title>Node3</title>
<g id="a_node3"><a xlink:href="../../df/d27/class_base_output_doc_interface.html" target="_top" xlink:title="Base Interface used for generating output outside of the comment blocks.">
<polygon fill="white" stroke="#666666" points="136,-184 0,-184 0,-165 136,-165 136,-184"/>
<text text-anchor="middle" x="68" y="-172" font-family="Helvetica,sans-Serif" font-size="10.00">BaseOutputDocInterface</text>
</a>
</g>
</g>
<!-- Node3&#45;&gt;Node2 -->
<g id="edge2" class="edge">
<title>Node3&#45;&gt;Node2</title>
<path fill="none" stroke="#63b8ff" d="M67.97,-154.54C68.85,-139.31 72.16,-118.05 83,-103 88.62,-95.2 97.3,-89.32 105.54,-85.1"/>
<polygon fill="#63b8ff" stroke="#63b8ff" points="64.47,-154.72 67.7,-164.81 71.47,-154.9 64.47,-154.72"/>
</g>
<!-- Node4 -->
<g id="node4" class="node">
<title>Node4</title>
<g id="a_node4"><a xlink:href="../../d3/d30/class_text_stream.html" target="_top" xlink:title="Text streaming class that buffers data.">
<polygon fill="white" stroke="#666666" points="226,-184 154,-184 154,-165 226,-165 226,-184"/>
<text text-anchor="middle" x="190" y="-172" font-family="Helvetica,sans-Serif" font-size="10.00">TextStream</text>
</a>
</g>
</g>
<!-- Node4&#45;&gt;Node2 -->
<g id="edge3" class="edge">
<title>Node4&#45;&gt;Node2</title>
<path fill="none" stroke="#9a32cd" stroke-dasharray="5,2" d="M143.82,-164.03C127.04,-159.58 110.95,-153.75 106,-147 94.44,-131.23 99.36,-121.39 106,-103 108.44,-96.25 113.42,-90.01 118.03,-85.28"/>
<polygon fill="#9a32cd" stroke="#9a32cd" points="143.16,-167.47 153.71,-166.49 144.85,-160.68 143.16,-167.47"/>
<text text-anchor="middle" x="117" y="-122.5" font-family="Helvetica,sans-Serif" font-size="10.00" fill="grey"> m_t</text>
</g>
<!-- Node6 -->
<g id="node6" class="node">
<title>Node6</title>
<g id="a_node6"><a xlink:href="../../d7/d80/class_docbook_code_generator.html" target="_top" xlink:title=" ">
<polygon fill="white" stroke="#666666" points="458.5,-85 325.5,-85 325.5,-66 458.5,-66 458.5,-85"/>
<text text-anchor="middle" x="392" y="-73" font-family="Helvetica,sans-Serif" font-size="10.00">DocbookCodeGenerator</text>
</a>
</g>
</g>
<!-- Node4&#45;&gt;Node6 -->
<g id="edge8" class="edge">
<title>Node4&#45;&gt;Node6</title>
<path fill="none" stroke="#9a32cd" stroke-dasharray="5,2" d="M203.57,-156.77C219,-138.16 243.65,-109.83 256,-103 268.68,-95.98 299.56,-89.7 328.69,-85.02"/>
<polygon fill="#9a32cd" stroke="#9a32cd" points="200.66,-154.8 197.02,-164.75 206.07,-159.24 200.66,-154.8"/>
<text text-anchor="middle" x="267" y="-122.5" font-family="Helvetica,sans-Serif" font-size="10.00" fill="grey"> m_t</text>
</g>
<!-- Node5 -->
<g id="node5" class="node">
<title>Node5</title>
<g id="a_node5"><a xlink:href="../../d9/d45/class_q_c_string.html" target="_top" xlink:title="This is an alternative implementation of QCString.">
<polygon fill="white" stroke="#666666" points="303.5,-184 244.5,-184 244.5,-165 303.5,-165 303.5,-184"/>
<text text-anchor="middle" x="274" y="-172" font-family="Helvetica,sans-Serif" font-size="10.00">QCString</text>
</a>
</g>
</g>
<!-- Node5&#45;&gt;Node1 -->
<g id="edge5" class="edge">
<title>Node5&#45;&gt;Node1</title>
<path fill="none" stroke="#9a32cd" stroke-dasharray="5,2" d="M273.53,-154.37C272.66,-119.03 270.84,-44.79 270.22,-19.31"/>
<polygon fill="#9a32cd" stroke="#9a32cd" points="270.04,-154.83 273.78,-164.74 277.04,-154.65 270.04,-154.83"/>
<text text-anchor="middle" x="290.5" y="-73" font-family="Helvetica,sans-Serif" font-size="10.00" fill="grey"> relPath</text>
</g>
<!-- Node5&#45;&gt;Node2 -->
<g id="edge4" class="edge">
<title>Node5&#45;&gt;Node2</title>
<path fill="none" stroke="#9a32cd" stroke-dasharray="5,2" d="M234.29,-165.15C194.91,-159.03 177.26,-170.66 151,-147 133.02,-130.8 129.04,-100.37 128.2,-85.35"/>
<polygon fill="#9a32cd" stroke="#9a32cd" points="233.72,-168.6 244.19,-166.99 235,-161.72 233.72,-168.6"/>
<text text-anchor="middle" x="181" y="-128" font-family="Helvetica,sans-Serif" font-size="10.00" fill="grey"> m_dir</text>
<text text-anchor="middle" x="181" y="-117" font-family="Helvetica,sans-Serif" font-size="10.00" fill="grey">m_fileName</text>
</g>
<!-- Node5&#45;&gt;Node6 -->
<g id="edge9" class="edge">
<title>Node5&#45;&gt;Node6</title>
<path fill="none" stroke="#9a32cd" stroke-dasharray="5,2" d="M278.79,-154.96C283.88,-136.6 292.25,-110.21 300,-103 308.89,-94.74 320.19,-89.03 331.8,-85.1"/>
<polygon fill="#9a32cd" stroke="#9a32cd" points="275.34,-154.31 276.14,-164.87 282.1,-156.12 275.34,-154.31"/>
<text text-anchor="middle" x="347" y="-139" font-family="Helvetica,sans-Serif" font-size="10.00" fill="grey"> m_external</text>
<text text-anchor="middle" x="347" y="-128" font-family="Helvetica,sans-Serif" font-size="10.00" fill="grey">m_refId</text>
<text text-anchor="middle" x="347" y="-117" font-family="Helvetica,sans-Serif" font-size="10.00" fill="grey">m_relPath</text>
<text text-anchor="middle" x="347" y="-106" font-family="Helvetica,sans-Serif" font-size="10.00" fill="grey">m_sourceFileName</text>
</g>
<!-- Node6&#45;&gt;Node1 -->
<g id="edge6" class="edge">
<title>Node6&#45;&gt;Node1</title>
<path fill="none" stroke="#9a32cd" stroke-dasharray="5,2" d="M366.64,-61.19C342.6,-48.59 307.2,-30.01 286.58,-19.2"/>
<polygon fill="#9a32cd" stroke="#9a32cd" points="365.07,-64.32 375.55,-65.87 368.32,-58.12 365.07,-64.32"/>
<text text-anchor="middle" x="368.5" y="-40" font-family="Helvetica,sans-Serif" font-size="10.00" fill="grey"> m_codeGen</text>
</g>
<!-- Node7 -->
<g id="node7" class="node">
<title>Node7</title>
<g id="a_node7"><a xlink:href="../../d5/d9c/class_code_output_interface.html" target="_top" xlink:title="Output interface for code parser.">
<polygon fill="white" stroke="#666666" points="471,-184 353,-184 353,-165 471,-165 471,-184"/>
<text text-anchor="middle" x="412" y="-172" font-family="Helvetica,sans-Serif" font-size="10.00">CodeOutputInterface</text>
</a>
</g>
</g>
<!-- Node7&#45;&gt;Node6 -->
<g id="edge7" class="edge">
<title>Node7&#45;&gt;Node6</title>
<path fill="none" stroke="#63b8ff" d="M408.43,-154.8C405.68,-140.58 401.72,-120.53 398,-103 396.75,-97.09 395.25,-90.47 394.06,-85.32"/>
<polygon fill="#63b8ff" stroke="#63b8ff" points="405.03,-155.64 410.35,-164.8 411.9,-154.32 405.03,-155.64"/>
</g>
</g>
</svg>
