<?xml version="1.0" encoding="UTF-8" standalone="no"?>
<!DOCTYPE svg PUBLIC "-//W3C//DTD SVG 1.1//EN"
 "http://www.w3.org/Graphics/SVG/1.1/DTD/svg11.dtd">
<!-- Generated by graphviz version 2.43.0 (0)
 -->
<!-- Title: DefinitionContext&lt; T &gt; Pages: 1 -->
<!--zoomable 374 -->
<svg id="main" version="1.1" xmlns="http://www.w3.org/2000/svg" xmlns:xlink="http://www.w3.org/1999/xlink" xml:space="preserve" onload="init(evt)">
<style type="text/css"><![CDATA[
.edge:hover path { stroke: red; }
.edge:hover polygon { stroke: red; fill: red; }
]]></style>
<script type="text/javascript"><![CDATA[
var edges = document.getElementsByTagName('g');
if (edges && edges.length) {
  for (var i=0;i<edges.length;i++) {
    if (edges[i].id.substr(0,4)=='edge') {
      edges[i].setAttribute('class','edge');
    }
  }
}
]]></script>
        <defs>
                <circle id="rim" cx="0" cy="0" r="7"/>
                <circle id="rim2" cx="0" cy="0" r="3.5"/>
                <g id="zoomPlus">
                        <use xlink:href="#rim" fill="#404040">
                                <set attributeName="fill" to="#808080" begin="zoomplus.mouseover" end="zoomplus.mouseout"/>
                        </use>
                        <path d="M-4,0h8M0,-4v8" fill="none" stroke="white" stroke-width="1.5" pointer-events="none"/>
                </g>
                <g id="zoomMin">
                        <use xlink:href="#rim" fill="#404040">
                                <set attributeName="fill" to="#808080" begin="zoomminus.mouseover" end="zoomminus.mouseout"/>
                        </use>
                        <path d="M-4,0h8" fill="none" stroke="white" stroke-width="1.5" pointer-events="none"/>
                </g>
                <g id="dirArrow">
                        <path fill="none" stroke="white" stroke-width="1.5" d="M0,-3.0v7 M-2.5,-0.5L0,-3.0L2.5,-0.5"/>
                </g>
               <g id="resetDef">
                       <use xlink:href="#rim2" fill="#404040">
                               <set attributeName="fill" to="#808080" begin="reset.mouseover" end="reset.mouseout"/>
                       </use>
               </g>
        </defs>

<script type="text/javascript">
var viewWidth = 677;
var viewHeight = 374;
var sectionId = 'dynsection-0';
</script>
<script xlink:href="../../svgpan.js"/>
<svg id="graph" class="graph">
<g id="viewport">
<title>DefinitionContext&lt; T &gt;</title>
<!-- Node1 -->
<g id="node1" class="node">
<title>Node1</title>
<g id="a_node1"><a xlink:title=" ">
<polygon fill="#999999" stroke="#666666" points="131,-192.5 0,-192.5 0,-173.5 131,-173.5 131,-192.5"/>
<text text-anchor="middle" x="65.5" y="-180.5" font-family="Helvetica,sans-Serif" font-size="10.00">DefinitionContext&lt; T &gt;</text>
</a>
</g>
</g>
<!-- Node2 -->
<g id="node2" class="node">
<title>Node2</title>
<g id="a_node2"><a xlink:href="../../d6/d49/class_definition_context.html" target="_top" xlink:title=" ">
<polygon fill="white" stroke="#666666" points="463.5,-366 327.5,-366 327.5,-336 463.5,-336 463.5,-366"/>
<text text-anchor="start" x="335.5" y="-354" font-family="Helvetica,sans-Serif" font-size="10.00">DefinitionContext&lt;</text>
<text text-anchor="middle" x="395.5" y="-343" font-family="Helvetica,sans-Serif" font-size="10.00"> ClassContext::Private &gt;</text>
</a>
</g>
</g>
<!-- Node1&#45;&gt;Node2 -->
<g id="edge1" class="edge">
<title>Node1&#45;&gt;Node2</title>
<path fill="none" stroke="orange" stroke-dasharray="5,2" d="M73.15,-202.4C84.09,-231.19 108.8,-284.67 149,-311 202.01,-345.72 274.92,-353.78 327.49,-354.33"/>
<polygon fill="orange" stroke="orange" points="76.32,-200.89 69.62,-192.68 69.74,-203.27 76.32,-200.89"/>
<text text-anchor="middle" x="221.5" y="-355" font-family="Helvetica,sans-Serif" font-size="10.00" fill="grey"> &lt; ClassContext::Private &gt;</text>
</g>
<!-- Node4 -->
<g id="node4" class="node">
<title>Node4</title>
<g id="a_node4"><a xlink:href="../../d6/d49/class_definition_context.html" target="_top" xlink:title=" ">
<polygon fill="white" stroke="#666666" points="470,-318 321,-318 321,-288 470,-288 470,-318"/>
<text text-anchor="start" x="329" y="-306" font-family="Helvetica,sans-Serif" font-size="10.00">DefinitionContext&lt;</text>
<text text-anchor="middle" x="395.5" y="-295" font-family="Helvetica,sans-Serif" font-size="10.00"> ConceptContext::Private &gt;</text>
</a>
</g>
</g>
<!-- Node1&#45;&gt;Node4 -->
<g id="edge3" class="edge">
<title>Node1&#45;&gt;Node4</title>
<path fill="none" stroke="orange" stroke-dasharray="5,2" d="M80.52,-200.17C95.57,-217.38 121.12,-243.25 149,-257 202.86,-283.56 270.3,-294.85 320.86,-299.61"/>
<polygon fill="orange" stroke="orange" points="83.15,-197.86 74,-192.5 77.81,-202.39 83.15,-197.86"/>
<text text-anchor="middle" x="221.5" y="-299" font-family="Helvetica,sans-Serif" font-size="10.00" fill="grey"> &lt; ConceptContext::Private &gt;</text>
</g>
<!-- Node6 -->
<g id="node6" class="node">
<title>Node6</title>
<g id="a_node6"><a xlink:href="../../d6/d49/class_definition_context.html" target="_top" xlink:title=" ">
<polygon fill="white" stroke="#666666" points="457.5,-270 333.5,-270 333.5,-240 457.5,-240 457.5,-270"/>
<text text-anchor="start" x="341.5" y="-258" font-family="Helvetica,sans-Serif" font-size="10.00">DefinitionContext&lt;</text>
<text text-anchor="middle" x="395.5" y="-247" font-family="Helvetica,sans-Serif" font-size="10.00"> DirContext::Private &gt;</text>
</a>
</g>
</g>
<!-- Node1&#45;&gt;Node6 -->
<g id="edge5" class="edge">
<title>Node1&#45;&gt;Node6</title>
<path fill="none" stroke="orange" stroke-dasharray="5,2" d="M97.96,-196.47C113.16,-202.54 131.79,-209.38 149,-214 210.76,-230.59 283.17,-241.7 333.26,-248.13"/>
<polygon fill="orange" stroke="orange" points="99.11,-193.15 88.53,-192.61 96.46,-199.63 99.11,-193.15"/>
<text text-anchor="middle" x="221.5" y="-245" font-family="Helvetica,sans-Serif" font-size="10.00" fill="grey"> &lt; DirContext::Private &gt;</text>
</g>
<!-- Node8 -->
<g id="node8" class="node">
<title>Node8</title>
<g id="a_node8"><a xlink:href="../../d6/d49/class_definition_context.html" target="_top" xlink:title=" ">
<polygon fill="white" stroke="#666666" points="459,-222 332,-222 332,-192 459,-192 459,-222"/>
<text text-anchor="start" x="340" y="-210" font-family="Helvetica,sans-Serif" font-size="10.00">DefinitionContext&lt;</text>
<text text-anchor="middle" x="395.5" y="-199" font-family="Helvetica,sans-Serif" font-size="10.00"> FileContext::Private &gt;</text>
</a>
</g>
</g>
<!-- Node1&#45;&gt;Node8 -->
<g id="edge7" class="edge">
<title>Node1&#45;&gt;Node8</title>
<path fill="none" stroke="orange" stroke-dasharray="5,2" d="M141.43,-188.48C198.98,-192.69 277.53,-198.44 331.78,-202.41"/>
<polygon fill="orange" stroke="orange" points="141.53,-184.98 131.3,-187.74 141.02,-191.96 141.53,-184.98"/>
<text text-anchor="middle" x="221.5" y="-202" font-family="Helvetica,sans-Serif" font-size="10.00" fill="grey"> &lt; FileContext::Private &gt;</text>
</g>
<!-- Node10 -->
<g id="node10" class="node">
<title>Node10</title>
<g id="a_node10"><a xlink:href="../../d6/d49/class_definition_context.html" target="_top" xlink:title=" ">
<polygon fill="white" stroke="#666666" points="470.5,-174 320.5,-174 320.5,-144 470.5,-144 470.5,-174"/>
<text text-anchor="start" x="328.5" y="-162" font-family="Helvetica,sans-Serif" font-size="10.00">DefinitionContext&lt;</text>
<text text-anchor="middle" x="395.5" y="-151" font-family="Helvetica,sans-Serif" font-size="10.00"> MemberContext::Private &gt;</text>
</a>
</g>
</g>
<!-- Node1&#45;&gt;Node10 -->
<g id="edge9" class="edge">
<title>Node1&#45;&gt;Node10</title>
<path fill="none" stroke="orange" stroke-dasharray="5,2" d="M141.35,-174.68C143.93,-174.44 146.49,-174.21 149,-174 206.44,-169.11 271.57,-165.21 320.31,-162.61"/>
<polygon fill="orange" stroke="orange" points="140.95,-171.2 131.32,-175.63 141.61,-178.17 140.95,-171.2"/>
<text text-anchor="middle" x="221.5" y="-177" font-family="Helvetica,sans-Serif" font-size="10.00" fill="grey"> &lt; MemberContext::Private &gt;</text>
</g>
<!-- Node12 -->
<g id="node12" class="node">
<title>Node12</title>
<g id="a_node12"><a xlink:href="../../d6/d49/class_definition_context.html" target="_top" xlink:title=" ">
<polygon fill="white" stroke="#666666" points="468.5,-126 322.5,-126 322.5,-96 468.5,-96 468.5,-126"/>
<text text-anchor="start" x="330.5" y="-114" font-family="Helvetica,sans-Serif" font-size="10.00">DefinitionContext&lt;</text>
<text text-anchor="middle" x="395.5" y="-103" font-family="Helvetica,sans-Serif" font-size="10.00"> ModuleContext::Private &gt;</text>
</a>
</g>
</g>
<!-- Node1&#45;&gt;Node12 -->
<g id="edge11" class="edge">
<title>Node1&#45;&gt;Node12</title>
<path fill="none" stroke="orange" stroke-dasharray="5,2" d="M95.16,-169.22C110.76,-162.22 130.59,-154.14 149,-149 206.22,-133.03 272.94,-123.24 322.38,-117.61"/>
<polygon fill="orange" stroke="orange" points="93.67,-166.05 86.04,-173.4 96.59,-172.41 93.67,-166.05"/>
<text text-anchor="middle" x="221.5" y="-152" font-family="Helvetica,sans-Serif" font-size="10.00" fill="grey"> &lt; ModuleContext::Private &gt;</text>
</g>
<!-- Node14 -->
<g id="node14" class="node">
<title>Node14</title>
<g id="a_node14"><a xlink:href="../../d6/d49/class_definition_context.html" target="_top" xlink:title=" ">
<polygon fill="white" stroke="#666666" points="479,-78 312,-78 312,-48 479,-48 479,-78"/>
<text text-anchor="start" x="320" y="-66" font-family="Helvetica,sans-Serif" font-size="10.00">DefinitionContext&lt;</text>
<text text-anchor="middle" x="395.5" y="-55" font-family="Helvetica,sans-Serif" font-size="10.00"> NamespaceContext::Private &gt;</text>
</a>
</g>
</g>
<!-- Node1&#45;&gt;Node14 -->
<g id="edge13" class="edge">
<title>Node1&#45;&gt;Node14</title>
<path fill="none" stroke="orange" stroke-dasharray="5,2" d="M77.89,-164.73C91.87,-144.02 117.65,-111.07 149,-95 199.11,-69.32 262.22,-61.54 311.9,-60.07"/>
<polygon fill="orange" stroke="orange" points="74.84,-162.99 72.31,-173.28 80.71,-166.81 74.84,-162.99"/>
<text text-anchor="start" x="166" y="-109" font-family="Helvetica,sans-Serif" font-size="10.00" fill="grey"> &lt; NamespaceContext</text>
<text text-anchor="middle" x="221.5" y="-98" font-family="Helvetica,sans-Serif" font-size="10.00" fill="grey">::Private &gt;</text>
</g>
<!-- Node16 -->
<g id="node16" class="node">
<title>Node16</title>
<g id="a_node16"><a xlink:href="../../d6/d49/class_definition_context.html" target="_top" xlink:title=" ">
<polygon fill="white" stroke="#666666" points="462,-30 329,-30 329,0 462,0 462,-30"/>
<text text-anchor="start" x="337" y="-18" font-family="Helvetica,sans-Serif" font-size="10.00">DefinitionContext&lt;</text>
<text text-anchor="middle" x="395.5" y="-7" font-family="Helvetica,sans-Serif" font-size="10.00"> PageContext::Private &gt;</text>
</a>
</g>
</g>
<!-- Node1&#45;&gt;Node16 -->
<g id="edge15" class="edge">
<title>Node1&#45;&gt;Node16</title>
<path fill="none" stroke="orange" stroke-dasharray="5,2" d="M72.19,-163.38C82.21,-132.68 106.11,-73.93 149,-46 202.28,-11.31 276.01,-6.37 328.73,-8.37"/>
<polygon fill="orange" stroke="orange" points="68.73,-162.72 69.12,-173.31 75.42,-164.79 68.73,-162.72"/>
<text text-anchor="middle" x="221.5" y="-49" font-family="Helvetica,sans-Serif" font-size="10.00" fill="grey"> &lt; PageContext::Private &gt;</text>
</g>
<!-- Node3 -->
<g id="node3" class="node">
<title>Node3</title>
<g id="a_node3"><a xlink:href="../../d5/d54/class_class_context_1_1_private.html" target="_top" xlink:title=" ">
<polygon fill="white" stroke="#666666" points="653.5,-360.5 531.5,-360.5 531.5,-341.5 653.5,-341.5 653.5,-360.5"/>
<text text-anchor="middle" x="592.5" y="-348.5" font-family="Helvetica,sans-Serif" font-size="10.00">ClassContext::Private</text>
</a>
</g>
</g>
<!-- Node2&#45;&gt;Node3 -->
<g id="edge2" class="edge">
<title>Node2&#45;&gt;Node3</title>
<path fill="none" stroke="#63b8ff" d="M473.82,-351C492.99,-351 513.25,-351 531.45,-351"/>
<polygon fill="#63b8ff" stroke="#63b8ff" points="473.61,-347.5 463.61,-351 473.61,-354.5 473.61,-347.5"/>
</g>
<!-- Node5 -->
<g id="node5" class="node">
<title>Node5</title>
<g id="a_node5"><a xlink:href="../../d8/d61/class_concept_context_1_1_private.html" target="_top" xlink:title=" ">
<polygon fill="white" stroke="#666666" points="660,-312.5 525,-312.5 525,-293.5 660,-293.5 660,-312.5"/>
<text text-anchor="middle" x="592.5" y="-300.5" font-family="Helvetica,sans-Serif" font-size="10.00">ConceptContext::Private</text>
</a>
</g>
</g>
<!-- Node4&#45;&gt;Node5 -->
<g id="edge4" class="edge">
<title>Node4&#45;&gt;Node5</title>
<path fill="none" stroke="#63b8ff" d="M480.39,-303C495.21,-303 510.46,-303 524.73,-303"/>
<polygon fill="#63b8ff" stroke="#63b8ff" points="480.22,-299.5 470.22,-303 480.22,-306.5 480.22,-299.5"/>
</g>
<!-- Node7 -->
<g id="node7" class="node">
<title>Node7</title>
<g id="a_node7"><a xlink:href="../../dc/db1/class_dir_context_1_1_private.html" target="_top" xlink:title=" ">
<polygon fill="white" stroke="#666666" points="647.5,-264.5 537.5,-264.5 537.5,-245.5 647.5,-245.5 647.5,-264.5"/>
<text text-anchor="middle" x="592.5" y="-252.5" font-family="Helvetica,sans-Serif" font-size="10.00">DirContext::Private</text>
</a>
</g>
</g>
<!-- Node6&#45;&gt;Node7 -->
<g id="edge6" class="edge">
<title>Node6&#45;&gt;Node7</title>
<path fill="none" stroke="#63b8ff" d="M467.73,-255C490.76,-255 515.91,-255 537.48,-255"/>
<polygon fill="#63b8ff" stroke="#63b8ff" points="467.66,-251.5 457.66,-255 467.66,-258.5 467.66,-251.5"/>
</g>
<!-- Node9 -->
<g id="node9" class="node">
<title>Node9</title>
<g id="a_node9"><a xlink:href="../../d4/d72/class_file_context_1_1_private.html" target="_top" xlink:title=" ">
<polygon fill="white" stroke="#666666" points="649,-216.5 536,-216.5 536,-197.5 649,-197.5 649,-216.5"/>
<text text-anchor="middle" x="592.5" y="-204.5" font-family="Helvetica,sans-Serif" font-size="10.00">FileContext::Private</text>
</a>
</g>
</g>
<!-- Node8&#45;&gt;Node9 -->
<g id="edge8" class="edge">
<title>Node8&#45;&gt;Node9</title>
<path fill="none" stroke="#63b8ff" d="M469.02,-207C491.15,-207 515.12,-207 535.93,-207"/>
<polygon fill="#63b8ff" stroke="#63b8ff" points="469,-203.5 459,-207 469,-210.5 469,-203.5"/>
</g>
<!-- Node11 -->
<g id="node11" class="node">
<title>Node11</title>
<g id="a_node11"><a xlink:href="../../dd/d99/class_member_context_1_1_private.html" target="_top" xlink:title=" ">
<polygon fill="white" stroke="#666666" points="660.5,-168.5 524.5,-168.5 524.5,-149.5 660.5,-149.5 660.5,-168.5"/>
<text text-anchor="middle" x="592.5" y="-156.5" font-family="Helvetica,sans-Serif" font-size="10.00">MemberContext::Private</text>
</a>
</g>
</g>
<!-- Node10&#45;&gt;Node11 -->
<g id="edge10" class="edge">
<title>Node10&#45;&gt;Node11</title>
<path fill="none" stroke="#63b8ff" d="M480.8,-159C495.4,-159 510.4,-159 524.46,-159"/>
<polygon fill="#63b8ff" stroke="#63b8ff" points="480.78,-155.5 470.78,-159 480.78,-162.5 480.78,-155.5"/>
</g>
<!-- Node13 -->
<g id="node13" class="node">
<title>Node13</title>
<g id="a_node13"><a xlink:href="../../df/d2a/class_module_context_1_1_private.html" target="_top" xlink:title=" ">
<polygon fill="white" stroke="#666666" points="658,-120.5 527,-120.5 527,-101.5 658,-101.5 658,-120.5"/>
<text text-anchor="middle" x="592.5" y="-108.5" font-family="Helvetica,sans-Serif" font-size="10.00">ModuleContext::Private</text>
</a>
</g>
</g>
<!-- Node12&#45;&gt;Node13 -->
<g id="edge12" class="edge">
<title>Node12&#45;&gt;Node13</title>
<path fill="none" stroke="#63b8ff" d="M478.97,-111C494.96,-111 511.5,-111 526.82,-111"/>
<polygon fill="#63b8ff" stroke="#63b8ff" points="478.56,-107.5 468.56,-111 478.56,-114.5 478.56,-107.5"/>
</g>
<!-- Node15 -->
<g id="node15" class="node">
<title>Node15</title>
<g id="a_node15"><a xlink:href="../../d8/dcf/class_namespace_context_1_1_private.html" target="_top" xlink:title=" ">
<polygon fill="white" stroke="#666666" points="669,-72.5 516,-72.5 516,-53.5 669,-53.5 669,-72.5"/>
<text text-anchor="middle" x="592.5" y="-60.5" font-family="Helvetica,sans-Serif" font-size="10.00">NamespaceContext::Private</text>
</a>
</g>
</g>
<!-- Node14&#45;&gt;Node15 -->
<g id="edge14" class="edge">
<title>Node14&#45;&gt;Node15</title>
<path fill="none" stroke="#63b8ff" d="M489.21,-63C498.12,-63 507.08,-63 515.8,-63"/>
<polygon fill="#63b8ff" stroke="#63b8ff" points="489.2,-59.5 479.2,-63 489.2,-66.5 489.2,-59.5"/>
</g>
<!-- Node17 -->
<g id="node17" class="node">
<title>Node17</title>
<g id="a_node17"><a xlink:href="../../d3/d45/class_page_context_1_1_private.html" target="_top" xlink:title=" ">
<polygon fill="white" stroke="#666666" points="652,-24.5 533,-24.5 533,-5.5 652,-5.5 652,-24.5"/>
<text text-anchor="middle" x="592.5" y="-12.5" font-family="Helvetica,sans-Serif" font-size="10.00">PageContext::Private</text>
</a>
</g>
</g>
<!-- Node16&#45;&gt;Node17 -->
<g id="edge16" class="edge">
<title>Node16&#45;&gt;Node17</title>
<path fill="none" stroke="#63b8ff" d="M472.32,-15C492.44,-15 513.86,-15 532.91,-15"/>
<polygon fill="#63b8ff" stroke="#63b8ff" points="472.25,-11.5 462.25,-15 472.25,-18.5 472.25,-11.5"/>
</g>
</g>
</svg>
        <g id="navigator" transform="translate(0 0)" fill="#404254">
                <rect fill="#f2f5e9" fill-opacity="0.5" stroke="#606060" stroke-width=".5" x="0" y="0" width="60" height="60"/>
                <use id="zoomplus" xlink:href="#zoomPlus" x="17" y="9" onmousedown="handleZoom(evt,'in')"/>
                <use id="zoomminus" xlink:href="#zoomMin" x="42" y="9" onmousedown="handleZoom(evt,'out')"/>
                <use id="reset" xlink:href="#resetDef" x="30" y="36" onmousedown="handleReset()"/>
                <g id="arrowUp" xlink:href="#dirArrow" transform="translate(30 24)" onmousedown="handlePan(0,-1)">
                  <use xlink:href="#rim" fill="#404040">
                        <set attributeName="fill" to="#808080" begin="arrowUp.mouseover" end="arrowUp.mouseout"/>
                  </use>
                  <path fill="none" stroke="white" stroke-width="1.5" d="M0,-3.0v7 M-2.5,-0.5L0,-3.0L2.5,-0.5"/>
                </g>
                <g id="arrowRight" xlink:href="#dirArrow" transform="rotate(90) translate(36 -43)" onmousedown="handlePan(1,0)">
                  <use xlink:href="#rim" fill="#404040">
                        <set attributeName="fill" to="#808080" begin="arrowRight.mouseover" end="arrowRight.mouseout"/>
                  </use>
                  <path fill="none" stroke="white" stroke-width="1.5" d="M0,-3.0v7 M-2.5,-0.5L0,-3.0L2.5,-0.5"/>
                </g>
                <g id="arrowDown" xlink:href="#dirArrow" transform="rotate(180) translate(-30 -48)" onmousedown="handlePan(0,1)">
                  <use xlink:href="#rim" fill="#404040">
                        <set attributeName="fill" to="#808080" begin="arrowDown.mouseover" end="arrowDown.mouseout"/>
                  </use>
                  <path fill="none" stroke="white" stroke-width="1.5" d="M0,-3.0v7 M-2.5,-0.5L0,-3.0L2.5,-0.5"/>
                </g>
                <g id="arrowLeft" xlink:href="#dirArrow" transform="rotate(270) translate(-36 17)" onmousedown="handlePan(-1,0)">
                  <use xlink:href="#rim" fill="#404040">
                        <set attributeName="fill" to="#808080" begin="arrowLeft.mouseover" end="arrowLeft.mouseout"/>
                  </use>
                  <path fill="none" stroke="white" stroke-width="1.5" d="M0,-3.0v7 M-2.5,-0.5L0,-3.0L2.5,-0.5"/>
                </g>
        </g>
        <svg viewBox="0 0 15 15" width="100%" height="30px" preserveAspectRatio="xMaxYMin meet">
         <g id="arrow_out" transform="scale(0.3 0.3)">
          <a xlink:href="class_definition_context__inherit__graph_org.svg" target="_base">
           <rect id="button" ry="5" rx="5" y="6" x="6" height="38" width="38"
                fill="#f2f5e9" fill-opacity="0.5" stroke="#606060" stroke-width="1.0"/>
           <path id="arrow"
             d="M 11.500037,31.436501 C 11.940474,20.09759 22.043105,11.32322 32.158766,21.979434 L 37.068811,17.246167 C 37.068811,17.246167 37.088388,32 37.088388,32 L 22.160133,31.978069 C 22.160133,31.978069 26.997745,27.140456 26.997745,27.140456 C 18.528582,18.264221 13.291696,25.230495 11.500037,31.436501 z"
             style="fill:#404040;"/>
          </a>
         </g>
        </svg>
</svg>
