<?xml version="1.0" encoding="UTF-8" standalone="no"?>
<!DOCTYPE svg PUBLIC "-//W3C//DTD SVG 1.1//EN"
 "http://www.w3.org/Graphics/SVG/1.1/DTD/svg11.dtd">
<!-- Generated by graphviz version 2.43.0 (0)
 -->
<!-- Title: DocHtmlCaption Pages: 1 -->
<!--zoomable 438 -->
<svg id="main" version="1.1" xmlns="http://www.w3.org/2000/svg" xmlns:xlink="http://www.w3.org/1999/xlink" xml:space="preserve" onload="init(evt)">
<style type="text/css"><![CDATA[
.edge:hover path { stroke: red; }
.edge:hover polygon { stroke: red; fill: red; }
]]></style>
<script type="text/javascript"><![CDATA[
var edges = document.getElementsByTagName('g');
if (edges && edges.length) {
  for (var i=0;i<edges.length;i++) {
    if (edges[i].id.substr(0,4)=='edge') {
      edges[i].setAttribute('class','edge');
    }
  }
}
]]></script>
        <defs>
                <circle id="rim" cx="0" cy="0" r="7"/>
                <circle id="rim2" cx="0" cy="0" r="3.5"/>
                <g id="zoomPlus">
                        <use xlink:href="#rim" fill="#404040">
                                <set attributeName="fill" to="#808080" begin="zoomplus.mouseover" end="zoomplus.mouseout"/>
                        </use>
                        <path d="M-4,0h8M0,-4v8" fill="none" stroke="white" stroke-width="1.5" pointer-events="none"/>
                </g>
                <g id="zoomMin">
                        <use xlink:href="#rim" fill="#404040">
                                <set attributeName="fill" to="#808080" begin="zoomminus.mouseover" end="zoomminus.mouseout"/>
                        </use>
                        <path d="M-4,0h8" fill="none" stroke="white" stroke-width="1.5" pointer-events="none"/>
                </g>
                <g id="dirArrow">
                        <path fill="none" stroke="white" stroke-width="1.5" d="M0,-3.0v7 M-2.5,-0.5L0,-3.0L2.5,-0.5"/>
                </g>
               <g id="resetDef">
                       <use xlink:href="#rim2" fill="#404040">
                               <set attributeName="fill" to="#808080" begin="reset.mouseover" end="reset.mouseout"/>
                       </use>
               </g>
        </defs>

<script type="text/javascript">
var viewWidth = 1693;
var viewHeight = 438;
var sectionId = 'dynsection-1';
</script>
<script xlink:href="../../svgpan.js"/>
<svg id="graph" class="graph">
<g id="viewport">
<title>DocHtmlCaption</title>
<!-- Node1 -->
<g id="node1" class="node">
<title>Node1</title>
<g id="a_node1"><a xlink:title="Node representing a HTML table caption.">
<polygon fill="#999999" stroke="#666666" points="1685,-179.5 1588,-179.5 1588,-160.5 1685,-160.5 1685,-179.5"/>
<text text-anchor="middle" x="1636.5" y="-167.5" font-family="Helvetica,sans-Serif" font-size="10.00">DocHtmlCaption</text>
</a>
</g>
</g>
<!-- Node2 -->
<g id="node2" class="node">
<title>Node2</title>
<g id="a_node2"><a xlink:href="../../da/dfc/class_doc_compound_node.html" target="_top" xlink:title="Base class for nodes with children.">
<polygon fill="white" stroke="#666666" points="1551,-229.5 1438,-229.5 1438,-210.5 1551,-210.5 1551,-229.5"/>
<text text-anchor="middle" x="1494.5" y="-217.5" font-family="Helvetica,sans-Serif" font-size="10.00">DocCompoundNode</text>
</a>
</g>
</g>
<!-- Node2&#45;&gt;Node1 -->
<g id="edge1" class="edge">
<title>Node2&#45;&gt;Node1</title>
<path fill="none" stroke="#63b8ff" d="M1531.64,-207.09C1555.62,-198.53 1586.6,-187.46 1608.46,-179.66"/>
<polygon fill="#63b8ff" stroke="#63b8ff" points="1530.4,-203.82 1522.16,-210.48 1532.76,-210.41 1530.4,-203.82"/>
</g>
<!-- Node3 -->
<g id="node3" class="node">
<title>Node3</title>
<g id="a_node3"><a xlink:href="../../d9/d0e/class_doc_node.html" target="_top" xlink:title="Abstract node interface with type information.">
<polygon fill="white" stroke="#666666" points="1335.5,-282.5 1274.5,-282.5 1274.5,-263.5 1335.5,-263.5 1335.5,-282.5"/>
<text text-anchor="middle" x="1305" y="-270.5" font-family="Helvetica,sans-Serif" font-size="10.00">DocNode</text>
</a>
</g>
</g>
<!-- Node3&#45;&gt;Node2 -->
<g id="edge2" class="edge">
<title>Node3&#45;&gt;Node2</title>
<path fill="none" stroke="#63b8ff" d="M1345.73,-261.77C1379.62,-252.19 1427.79,-238.57 1459.81,-229.52"/>
<polygon fill="#63b8ff" stroke="#63b8ff" points="1344.38,-258.51 1335.71,-264.6 1346.28,-265.25 1344.38,-258.51"/>
</g>
<!-- Node4 -->
<g id="node4" class="node">
<title>Node4</title>
<g id="a_node4"><a xlink:href="../../da/d02/class_doc_parser.html" target="_top" xlink:title=" ">
<polygon fill="white" stroke="#666666" points="1126.5,-298.5 1061.5,-298.5 1061.5,-279.5 1126.5,-279.5 1126.5,-298.5"/>
<text text-anchor="middle" x="1094" y="-286.5" font-family="Helvetica,sans-Serif" font-size="10.00">DocParser</text>
</a>
</g>
</g>
<!-- Node4&#45;&gt;Node3 -->
<g id="edge3" class="edge">
<title>Node4&#45;&gt;Node3</title>
<path fill="none" stroke="#9a32cd" stroke-dasharray="5,2" d="M1136.89,-285.79C1177.6,-282.68 1238.39,-278.02 1274.33,-275.27"/>
<polygon fill="#9a32cd" stroke="#9a32cd" points="1136.45,-282.32 1126.74,-286.57 1136.98,-289.3 1136.45,-282.32"/>
<text text-anchor="middle" x="1223.5" y="-284" font-family="Helvetica,sans-Serif" font-size="10.00" fill="grey"> m_parser</text>
</g>
<!-- Node5 -->
<g id="node5" class="node">
<title>Node5</title>
<g id="a_node5"><a xlink:href="../../de/dad/class_i_doc_parser.html" target="_top" xlink:title="opaque parser interface">
<polygon fill="white" stroke="#666666" points="848,-372.5 780,-372.5 780,-353.5 848,-353.5 848,-372.5"/>
<text text-anchor="middle" x="814" y="-360.5" font-family="Helvetica,sans-Serif" font-size="10.00">IDocParser</text>
</a>
</g>
</g>
<!-- Node5&#45;&gt;Node4 -->
<g id="edge4" class="edge">
<title>Node5&#45;&gt;Node4</title>
<path fill="none" stroke="#63b8ff" d="M858.21,-357.53C893.77,-352.44 945.24,-343.72 989,-331 1018.92,-322.3 1052.06,-308.07 1072.72,-298.62"/>
<polygon fill="#63b8ff" stroke="#63b8ff" points="857.59,-354.08 848.17,-358.93 858.56,-361.02 857.59,-354.08"/>
</g>
<!-- Node6 -->
<g id="node6" class="node">
<title>Node6</title>
<g id="a_node6"><a xlink:href="../../d8/d7d/struct_doc_parser_context.html" target="_top" xlink:title="Parser&#39;s context to store all global variables.">
<polygon fill="white" stroke="#666666" points="866,-335.5 762,-335.5 762,-316.5 866,-316.5 866,-335.5"/>
<text text-anchor="middle" x="814" y="-323.5" font-family="Helvetica,sans-Serif" font-size="10.00">DocParserContext</text>
</a>
</g>
</g>
<!-- Node6&#45;&gt;Node4 -->
<g id="edge5" class="edge">
<title>Node6&#45;&gt;Node4</title>
<path fill="none" stroke="#9a32cd" stroke-dasharray="5,2" d="M876.08,-317.96C909.45,-313.56 951.5,-308 989,-303 1013.2,-299.77 1040.56,-296.09 1061.14,-293.31"/>
<polygon fill="#9a32cd" stroke="#9a32cd" points="875.47,-314.51 866.02,-319.29 876.39,-321.45 875.47,-314.51"/>
<text text-anchor="middle" x="936.5" y="-319" font-family="Helvetica,sans-Serif" font-size="10.00" fill="grey"> context</text>
</g>
<!-- Node7 -->
<g id="node7" class="node">
<title>Node7</title>
<g id="a_node7"><a xlink:href="../../d5/dcc/class_definition.html" target="_top" xlink:title="The common base class of all entity definitions found in the sources.">
<polygon fill="white" stroke="#666666" points="294.5,-402.5 230.5,-402.5 230.5,-383.5 294.5,-383.5 294.5,-402.5"/>
<text text-anchor="middle" x="262.5" y="-390.5" font-family="Helvetica,sans-Serif" font-size="10.00">Definition</text>
</a>
</g>
</g>
<!-- Node7&#45;&gt;Node6 -->
<g id="edge6" class="edge">
<title>Node7&#45;&gt;Node6</title>
<path fill="none" stroke="#9a32cd" stroke-dasharray="5,2" d="M304.75,-393.41C388.63,-393.39 584.64,-388.98 744,-352 752.36,-350.06 753.98,-348.05 762,-345 770.12,-341.91 779,-338.58 787.03,-335.59"/>
<polygon fill="#9a32cd" stroke="#9a32cd" points="304.62,-389.91 294.61,-393.39 304.6,-396.91 304.62,-389.91"/>
<text text-anchor="middle" x="583.5" y="-387" font-family="Helvetica,sans-Serif" font-size="10.00" fill="grey"> scope</text>
</g>
<!-- Node13 -->
<g id="node13" class="node">
<title>Node13</title>
<g id="a_node13"><a xlink:href="../../da/d09/class_member_def.html" target="_top" xlink:title="A model of a class/file/namespace member symbol.">
<polygon fill="white" stroke="#666666" points="620.5,-425.5 546.5,-425.5 546.5,-406.5 620.5,-406.5 620.5,-425.5"/>
<text text-anchor="middle" x="583.5" y="-413.5" font-family="Helvetica,sans-Serif" font-size="10.00">MemberDef</text>
</a>
</g>
</g>
<!-- Node7&#45;&gt;Node13 -->
<g id="edge13" class="edge">
<title>Node7&#45;&gt;Node13</title>
<path fill="none" stroke="#63b8ff" d="M305.02,-395.99C368.02,-400.54 486.7,-409.09 546.35,-413.39"/>
<polygon fill="#63b8ff" stroke="#63b8ff" points="304.89,-392.48 294.67,-395.25 304.39,-399.46 304.89,-392.48"/>
</g>
<!-- Node8 -->
<g id="node8" class="node">
<title>Node8</title>
<g id="a_node8"><a xlink:href="../../d9/d45/class_q_c_string.html" target="_top" xlink:title="This is an alternative implementation of QCString.">
<polygon fill="white" stroke="#666666" points="292,-179.5 233,-179.5 233,-160.5 292,-160.5 292,-179.5"/>
<text text-anchor="middle" x="262.5" y="-167.5" font-family="Helvetica,sans-Serif" font-size="10.00">QCString</text>
</a>
</g>
</g>
<!-- Node8&#45;&gt;Node1 -->
<g id="edge24" class="edge">
<title>Node8&#45;&gt;Node1</title>
<path fill="none" stroke="#9a32cd" stroke-dasharray="5,2" d="M302.25,-170C362.29,-170 481.41,-170 582.5,-170 582.5,-170 582.5,-170 1495.5,-170 1526.25,-170 1560.79,-170 1587.87,-170"/>
<polygon fill="#9a32cd" stroke="#9a32cd" points="302.1,-166.5 292.1,-170 302.1,-173.5 302.1,-166.5"/>
<text text-anchor="middle" x="1094" y="-184" font-family="Helvetica,sans-Serif" font-size="10.00" fill="grey"> m_anchor</text>
<text text-anchor="middle" x="1094" y="-173" font-family="Helvetica,sans-Serif" font-size="10.00" fill="grey">m_file</text>
</g>
<!-- Node8&#45;&gt;Node6 -->
<g id="edge7" class="edge">
<title>Node8&#45;&gt;Node6</title>
<path fill="none" stroke="#9a32cd" stroke-dasharray="5,2" d="M302.46,-175.53C398.48,-189.17 639.04,-223.43 643,-225 702.97,-248.71 704.63,-278.56 762,-308 768.18,-311.17 775.05,-314.01 781.69,-316.45"/>
<polygon fill="#9a32cd" stroke="#9a32cd" points="302.69,-172.02 292.29,-174.08 301.7,-178.95 302.69,-172.02"/>
<text text-anchor="middle" x="583.5" y="-294" font-family="Helvetica,sans-Serif" font-size="10.00" fill="grey"> context</text>
<text text-anchor="middle" x="583.5" y="-283" font-family="Helvetica,sans-Serif" font-size="10.00" fill="grey">exampleName</text>
<text text-anchor="middle" x="583.5" y="-272" font-family="Helvetica,sans-Serif" font-size="10.00" fill="grey">fileName</text>
<text text-anchor="middle" x="583.5" y="-261" font-family="Helvetica,sans-Serif" font-size="10.00" fill="grey">includeFileName</text>
<text text-anchor="middle" x="583.5" y="-250" font-family="Helvetica,sans-Serif" font-size="10.00" fill="grey">includeFileText</text>
<text text-anchor="middle" x="583.5" y="-239" font-family="Helvetica,sans-Serif" font-size="10.00" fill="grey">relPath</text>
<text text-anchor="middle" x="583.5" y="-228" font-family="Helvetica,sans-Serif" font-size="10.00" fill="grey">searchUrl</text>
</g>
<!-- Node14 -->
<g id="node14" class="node">
<title>Node14</title>
<g id="a_node14"><a xlink:href="../../d6/df4/struct_token_info.html" target="_top" xlink:title="Data associated with a token used by the comment block parser.">
<polygon fill="white" stroke="#666666" points="615,-76.5 552,-76.5 552,-57.5 615,-57.5 615,-76.5"/>
<text text-anchor="middle" x="583.5" y="-64.5" font-family="Helvetica,sans-Serif" font-size="10.00">TokenInfo</text>
</a>
</g>
</g>
<!-- Node8&#45;&gt;Node14 -->
<g id="edge15" class="edge">
<title>Node8&#45;&gt;Node14</title>
<path fill="none" stroke="#9a32cd" stroke-dasharray="5,2" d="M274.84,-151.55C291.09,-127.09 323.55,-85.04 364,-68 426.4,-41.71 508.01,-51.6 551.71,-59.99"/>
<polygon fill="#9a32cd" stroke="#9a32cd" points="271.71,-149.96 269.25,-160.26 277.59,-153.74 271.71,-149.96"/>
<text text-anchor="middle" x="435" y="-148" font-family="Helvetica,sans-Serif" font-size="10.00" fill="grey"> attribsStr</text>
<text text-anchor="middle" x="435" y="-137" font-family="Helvetica,sans-Serif" font-size="10.00" fill="grey">chars</text>
<text text-anchor="middle" x="435" y="-126" font-family="Helvetica,sans-Serif" font-size="10.00" fill="grey">name</text>
<text text-anchor="middle" x="435" y="-115" font-family="Helvetica,sans-Serif" font-size="10.00" fill="grey">sectionId</text>
<text text-anchor="middle" x="435" y="-104" font-family="Helvetica,sans-Serif" font-size="10.00" fill="grey">simpleSectName</text>
<text text-anchor="middle" x="435" y="-93" font-family="Helvetica,sans-Serif" font-size="10.00" fill="grey">simpleSectText</text>
<text text-anchor="middle" x="435" y="-82" font-family="Helvetica,sans-Serif" font-size="10.00" fill="grey">text</text>
<text text-anchor="middle" x="435" y="-71" font-family="Helvetica,sans-Serif" font-size="10.00" fill="grey">verb</text>
</g>
<!-- Node9 -->
<g id="node9" class="node">
<title>Node9</title>
<g id="a_node9"><a xlink:href="../../d9/d82/class_iterable_stack.html" target="_top" xlink:title=" ">
<polygon fill="white" stroke="#666666" points="643,-341 524,-341 524,-311 643,-311 643,-341"/>
<text text-anchor="start" x="532" y="-329" font-family="Helvetica,sans-Serif" font-size="10.00">IterableStack&lt; const</text>
<text text-anchor="middle" x="583.5" y="-318" font-family="Helvetica,sans-Serif" font-size="10.00"> DocNodeVariant * &gt;</text>
</a>
</g>
</g>
<!-- Node9&#45;&gt;Node6 -->
<g id="edge8" class="edge">
<title>Node9&#45;&gt;Node6</title>
<path fill="none" stroke="#9a32cd" stroke-dasharray="5,2" d="M653.19,-326C688.15,-326 729.92,-326 761.99,-326"/>
<polygon fill="#9a32cd" stroke="#9a32cd" points="653.05,-322.5 643.05,-326 653.05,-329.5 653.05,-322.5"/>
<text text-anchor="middle" x="702.5" y="-340" font-family="Helvetica,sans-Serif" font-size="10.00" fill="grey"> initialStyleStack</text>
<text text-anchor="middle" x="702.5" y="-329" font-family="Helvetica,sans-Serif" font-size="10.00" fill="grey">styleStack</text>
</g>
<!-- Node10 -->
<g id="node10" class="node">
<title>Node10</title>
<g id="a_node10"><a xlink:title=" ">
<polygon fill="white" stroke="#666666" points="346,-347.5 179,-347.5 179,-306.5 346,-306.5 346,-347.5"/>
<text text-anchor="start" x="187" y="-335.5" font-family="Helvetica,sans-Serif" font-size="10.00">std::stack&lt; const DocNode</text>
<text text-anchor="start" x="187" y="-324.5" font-family="Helvetica,sans-Serif" font-size="10.00">Variant * , std::deque</text>
<text text-anchor="middle" x="262.5" y="-313.5" font-family="Helvetica,sans-Serif" font-size="10.00">&lt;const DocNodeVariant * &gt; &#160;&gt;</text>
</a>
</g>
</g>
<!-- Node10&#45;&gt;Node9 -->
<g id="edge9" class="edge">
<title>Node10&#45;&gt;Node9</title>
<path fill="none" stroke="#63b8ff" d="M356.36,-326.71C410.48,-326.54 477.08,-326.33 523.94,-326.18"/>
<polygon fill="#63b8ff" stroke="#63b8ff" points="356.05,-323.21 346.07,-326.74 356.08,-330.21 356.05,-323.21"/>
</g>
<!-- Node11 -->
<g id="node11" class="node">
<title>Node11</title>
<g id="a_node11"><a xlink:href="../../d9/d82/class_iterable_stack.html" target="_top" xlink:title=" ">
<polygon fill="white" stroke="#666666" points="344,-288.5 181,-288.5 181,-269.5 344,-269.5 344,-288.5"/>
<text text-anchor="middle" x="262.5" y="-276.5" font-family="Helvetica,sans-Serif" font-size="10.00">IterableStack&lt; T, Container &gt;</text>
</a>
</g>
</g>
<!-- Node11&#45;&gt;Node9 -->
<g id="edge10" class="edge">
<title>Node11&#45;&gt;Node9</title>
<path fill="none" stroke="orange" stroke-dasharray="5,2" d="M354.4,-289.63C400.01,-295.31 456.03,-302.81 506,-311 511.74,-311.94 517.72,-312.99 523.68,-314.08"/>
<polygon fill="orange" stroke="orange" points="354.6,-286.13 344.24,-288.37 353.74,-293.08 354.6,-286.13"/>
<text text-anchor="middle" x="435" y="-314" font-family="Helvetica,sans-Serif" font-size="10.00" fill="grey"> &lt; const DocNodeVariant * &gt;</text>
</g>
<!-- Node12 -->
<g id="node12" class="node">
<title>Node12</title>
<g id="a_node12"><a xlink:title=" ">
<polygon fill="white" stroke="#666666" points="122,-294 20,-294 20,-264 122,-264 122,-294"/>
<text text-anchor="start" x="28" y="-282" font-family="Helvetica,sans-Serif" font-size="10.00">std::stack&lt; T, std</text>
<text text-anchor="middle" x="71" y="-271" font-family="Helvetica,sans-Serif" font-size="10.00">::deque&lt; T &gt; &gt;</text>
</a>
</g>
</g>
<!-- Node12&#45;&gt;Node11 -->
<g id="edge11" class="edge">
<title>Node12&#45;&gt;Node11</title>
<path fill="none" stroke="#63b8ff" d="M132.67,-279C148.02,-279 164.74,-279 180.91,-279"/>
<polygon fill="#63b8ff" stroke="#63b8ff" points="132.29,-275.5 122.29,-279 132.28,-282.5 132.29,-275.5"/>
</g>
<!-- Node13&#45;&gt;Node6 -->
<g id="edge12" class="edge">
<title>Node13&#45;&gt;Node6</title>
<path fill="none" stroke="#9a32cd" stroke-dasharray="5,2" d="M630.91,-420.34C665.64,-421.06 712.41,-416.37 744,-391 761.12,-377.25 746.35,-360.4 762,-345 765.91,-341.16 770.66,-338.08 775.68,-335.62"/>
<polygon fill="#9a32cd" stroke="#9a32cd" points="630.67,-416.83 620.55,-419.95 630.41,-423.82 630.67,-416.83"/>
<text text-anchor="middle" x="702.5" y="-422" font-family="Helvetica,sans-Serif" font-size="10.00" fill="grey"> memberDef</text>
</g>
<!-- Node14&#45;&gt;Node6 -->
<g id="edge14" class="edge">
<title>Node14&#45;&gt;Node6</title>
<path fill="none" stroke="#9a32cd" stroke-dasharray="5,2" d="M614.5,-81.3C651.53,-100.64 713.33,-138.81 744,-191 770.66,-236.36 728.43,-267.49 762,-308 764.76,-311.33 768.17,-314.04 771.91,-316.25"/>
<polygon fill="#9a32cd" stroke="#9a32cd" points="615.71,-77.98 605.21,-76.57 612.53,-84.22 615.71,-77.98"/>
<text text-anchor="middle" x="702.5" y="-194" font-family="Helvetica,sans-Serif" font-size="10.00" fill="grey"> token</text>
</g>
<!-- Node15 -->
<g id="node15" class="node">
<title>Node15</title>
<g id="a_node15"><a xlink:href="../../db/d4d/class_html_attrib_list.html" target="_top" xlink:title="Class representing a list of HTML attributes.">
<polygon fill="white" stroke="#666666" points="305,-26.5 220,-26.5 220,-7.5 305,-7.5 305,-26.5"/>
<text text-anchor="middle" x="262.5" y="-14.5" font-family="Helvetica,sans-Serif" font-size="10.00">HtmlAttribList</text>
</a>
</g>
</g>
<!-- Node15&#45;&gt;Node1 -->
<g id="edge23" class="edge">
<title>Node15&#45;&gt;Node1</title>
<path fill="none" stroke="#9a32cd" stroke-dasharray="5,2" d="M315.09,-12.56C378.13,-7.52 488.07,0 582.5,0 582.5,0 582.5,0 1495.5,0 1579.23,0 1622.16,-124.41 1632.82,-160.37"/>
<polygon fill="#9a32cd" stroke="#9a32cd" points="314.69,-9.08 305.01,-13.37 315.26,-16.06 314.69,-9.08"/>
<text text-anchor="middle" x="1094" y="-3" font-family="Helvetica,sans-Serif" font-size="10.00" fill="grey"> m_attribs</text>
</g>
<!-- Node15&#45;&gt;Node14 -->
<g id="edge16" class="edge">
<title>Node15&#45;&gt;Node14</title>
<path fill="none" stroke="#9a32cd" stroke-dasharray="5,2" d="M315.51,-15.63C365.15,-15.5 441.68,-18.35 506,-34 527.08,-39.13 549.72,-49.58 564.86,-57.35"/>
<polygon fill="#9a32cd" stroke="#9a32cd" points="315.32,-12.13 305.34,-15.7 315.37,-19.13 315.32,-12.13"/>
<text text-anchor="middle" x="435" y="-37" font-family="Helvetica,sans-Serif" font-size="10.00" fill="grey"> attribs</text>
</g>
<!-- Node16 -->
<g id="node16" class="node">
<title>Node16</title>
<g id="a_node16"><a xlink:title=" ">
<polygon fill="white" stroke="#666666" points="142,-26.5 0,-26.5 0,-7.5 142,-7.5 142,-26.5"/>
<text text-anchor="middle" x="71" y="-14.5" font-family="Helvetica,sans-Serif" font-size="10.00">std::vector&lt; HtmlAttrib &gt;</text>
</a>
</g>
</g>
<!-- Node16&#45;&gt;Node15 -->
<g id="edge17" class="edge">
<title>Node16&#45;&gt;Node15</title>
<path fill="none" stroke="#63b8ff" d="M152.25,-17C175.51,-17 199.96,-17 219.82,-17"/>
<polygon fill="#63b8ff" stroke="#63b8ff" points="152.02,-13.5 142.02,-17 152.02,-20.5 152.02,-13.5"/>
</g>
<!-- Node17 -->
<g id="node17" class="node">
<title>Node17</title>
<g id="a_node17"><a xlink:href="../../d1/d7f/class_doc_tokenizer.html" target="_top" xlink:title=" ">
<polygon fill="white" stroke="#666666" points="854.5,-298.5 773.5,-298.5 773.5,-279.5 854.5,-279.5 854.5,-298.5"/>
<text text-anchor="middle" x="814" y="-286.5" font-family="Helvetica,sans-Serif" font-size="10.00">DocTokenizer</text>
</a>
</g>
</g>
<!-- Node17&#45;&gt;Node4 -->
<g id="edge18" class="edge">
<title>Node17&#45;&gt;Node4</title>
<path fill="none" stroke="#9a32cd" stroke-dasharray="5,2" d="M864.75,-289C921.73,-289 1013.36,-289 1061.36,-289"/>
<polygon fill="#9a32cd" stroke="#9a32cd" points="864.54,-285.5 854.54,-289 864.54,-292.5 864.54,-285.5"/>
<text text-anchor="middle" x="936.5" y="-292" font-family="Helvetica,sans-Serif" font-size="10.00" fill="grey"> tokenizer</text>
</g>
<!-- Node18 -->
<g id="node18" class="node">
<title>Node18</title>
<g id="a_node18"><a xlink:href="../../d2/dc1/class_s_i_data_collection.html" target="_top" xlink:title=" ">
<polygon fill="white" stroke="#666666" points="863,-261.5 765,-261.5 765,-242.5 863,-242.5 863,-261.5"/>
<text text-anchor="middle" x="814" y="-249.5" font-family="Helvetica,sans-Serif" font-size="10.00">SIDataCollection</text>
</a>
</g>
</g>
<!-- Node18&#45;&gt;Node4 -->
<g id="edge19" class="edge">
<title>Node18&#45;&gt;Node4</title>
<path fill="none" stroke="#9a32cd" stroke-dasharray="5,2" d="M873.21,-259.1C907.03,-263.29 950.44,-268.78 989,-274 1013.22,-277.28 1040.58,-281.23 1061.16,-284.26"/>
<polygon fill="#9a32cd" stroke="#9a32cd" points="873.39,-255.6 863.04,-257.84 872.53,-262.54 873.39,-255.6"/>
<text text-anchor="middle" x="936.5" y="-277" font-family="Helvetica,sans-Serif" font-size="10.00" fill="grey"> searchData</text>
</g>
<!-- Node19 -->
<g id="node19" class="node">
<title>Node19</title>
<g id="a_node19"><a xlink:href="../../d9/dd3/struct_doc_node_list.html" target="_top" xlink:title=" ">
<polygon fill="white" stroke="#666666" points="1344,-229.5 1266,-229.5 1266,-210.5 1344,-210.5 1344,-229.5"/>
<text text-anchor="middle" x="1305" y="-217.5" font-family="Helvetica,sans-Serif" font-size="10.00">DocNodeList</text>
</a>
</g>
</g>
<!-- Node19&#45;&gt;Node2 -->
<g id="edge20" class="edge">
<title>Node19&#45;&gt;Node2</title>
<path fill="none" stroke="#9a32cd" stroke-dasharray="5,2" d="M1354.55,-220C1380,-220 1411.29,-220 1437.73,-220"/>
<polygon fill="#9a32cd" stroke="#9a32cd" points="1354.4,-216.5 1344.4,-220 1354.4,-223.5 1354.4,-216.5"/>
<text text-anchor="middle" x="1391" y="-223" font-family="Helvetica,sans-Serif" font-size="10.00" fill="grey"> m_children</text>
</g>
<!-- Node20 -->
<g id="node20" class="node">
<title>Node20</title>
<g id="a_node20"><a xlink:href="../../d0/d08/class_grow_vector.html" target="_top" xlink:title=" ">
<polygon fill="white" stroke="#666666" points="1181,-229.5 1007,-229.5 1007,-210.5 1181,-210.5 1181,-229.5"/>
<text text-anchor="middle" x="1094" y="-217.5" font-family="Helvetica,sans-Serif" font-size="10.00">GrowVector&lt; DocNodeVariant &gt;</text>
</a>
</g>
</g>
<!-- Node20&#45;&gt;Node19 -->
<g id="edge21" class="edge">
<title>Node20&#45;&gt;Node19</title>
<path fill="none" stroke="#63b8ff" d="M1191.29,-220C1217.7,-220 1244.82,-220 1265.84,-220"/>
<polygon fill="#63b8ff" stroke="#63b8ff" points="1191.21,-216.5 1181.21,-220 1191.21,-223.5 1191.21,-216.5"/>
</g>
<!-- Node21 -->
<g id="node21" class="node">
<title>Node21</title>
<g id="a_node21"><a xlink:href="../../d0/d08/class_grow_vector.html" target="_top" xlink:title="std::vector like container optimised for pushing elements to the back.">
<polygon fill="white" stroke="#666666" points="864.5,-224.5 763.5,-224.5 763.5,-205.5 864.5,-205.5 864.5,-224.5"/>
<text text-anchor="middle" x="814" y="-212.5" font-family="Helvetica,sans-Serif" font-size="10.00">GrowVector&lt; T &gt;</text>
</a>
</g>
</g>
<!-- Node21&#45;&gt;Node20 -->
<g id="edge22" class="edge">
<title>Node21&#45;&gt;Node20</title>
<path fill="none" stroke="orange" stroke-dasharray="5,2" d="M874.73,-216.07C913.27,-216.77 964.03,-217.68 1006.9,-218.45"/>
<polygon fill="orange" stroke="orange" points="874.76,-212.57 864.7,-215.89 874.64,-219.57 874.76,-212.57"/>
<text text-anchor="middle" x="936.5" y="-221" font-family="Helvetica,sans-Serif" font-size="10.00" fill="grey"> &lt; DocNodeVariant &gt;</text>
</g>
</g>
</svg>
        <g id="navigator" transform="translate(0 0)" fill="#404254">
                <rect fill="#f2f5e9" fill-opacity="0.5" stroke="#606060" stroke-width=".5" x="0" y="0" width="60" height="60"/>
                <use id="zoomplus" xlink:href="#zoomPlus" x="17" y="9" onmousedown="handleZoom(evt,'in')"/>
                <use id="zoomminus" xlink:href="#zoomMin" x="42" y="9" onmousedown="handleZoom(evt,'out')"/>
                <use id="reset" xlink:href="#resetDef" x="30" y="36" onmousedown="handleReset()"/>
                <g id="arrowUp" xlink:href="#dirArrow" transform="translate(30 24)" onmousedown="handlePan(0,-1)">
                  <use xlink:href="#rim" fill="#404040">
                        <set attributeName="fill" to="#808080" begin="arrowUp.mouseover" end="arrowUp.mouseout"/>
                  </use>
                  <path fill="none" stroke="white" stroke-width="1.5" d="M0,-3.0v7 M-2.5,-0.5L0,-3.0L2.5,-0.5"/>
                </g>
                <g id="arrowRight" xlink:href="#dirArrow" transform="rotate(90) translate(36 -43)" onmousedown="handlePan(1,0)">
                  <use xlink:href="#rim" fill="#404040">
                        <set attributeName="fill" to="#808080" begin="arrowRight.mouseover" end="arrowRight.mouseout"/>
                  </use>
                  <path fill="none" stroke="white" stroke-width="1.5" d="M0,-3.0v7 M-2.5,-0.5L0,-3.0L2.5,-0.5"/>
                </g>
                <g id="arrowDown" xlink:href="#dirArrow" transform="rotate(180) translate(-30 -48)" onmousedown="handlePan(0,1)">
                  <use xlink:href="#rim" fill="#404040">
                        <set attributeName="fill" to="#808080" begin="arrowDown.mouseover" end="arrowDown.mouseout"/>
                  </use>
                  <path fill="none" stroke="white" stroke-width="1.5" d="M0,-3.0v7 M-2.5,-0.5L0,-3.0L2.5,-0.5"/>
                </g>
                <g id="arrowLeft" xlink:href="#dirArrow" transform="rotate(270) translate(-36 17)" onmousedown="handlePan(-1,0)">
                  <use xlink:href="#rim" fill="#404040">
                        <set attributeName="fill" to="#808080" begin="arrowLeft.mouseover" end="arrowLeft.mouseout"/>
                  </use>
                  <path fill="none" stroke="white" stroke-width="1.5" d="M0,-3.0v7 M-2.5,-0.5L0,-3.0L2.5,-0.5"/>
                </g>
        </g>
        <svg viewBox="0 0 15 15" width="100%" height="30px" preserveAspectRatio="xMaxYMin meet">
         <g id="arrow_out" transform="scale(0.3 0.3)">
          <a xlink:href="class_doc_html_caption__coll__graph_org.svg" target="_base">
           <rect id="button" ry="5" rx="5" y="6" x="6" height="38" width="38"
                fill="#f2f5e9" fill-opacity="0.5" stroke="#606060" stroke-width="1.0"/>
           <path id="arrow"
             d="M 11.500037,31.436501 C 11.940474,20.09759 22.043105,11.32322 32.158766,21.979434 L 37.068811,17.246167 C 37.068811,17.246167 37.088388,32 37.088388,32 L 22.160133,31.978069 C 22.160133,31.978069 26.997745,27.140456 26.997745,27.140456 C 18.528582,18.264221 13.291696,25.230495 11.500037,31.436501 z"
             style="fill:#404040;"/>
          </a>
         </g>
        </svg>
</svg>
