<?xml version="1.0" encoding="UTF-8" standalone="no"?>
<!DOCTYPE svg PUBLIC "-//W3C//DTD SVG 1.1//EN"
 "http://www.w3.org/Graphics/SVG/1.1/DTD/svg11.dtd">
<!-- Generated by graphviz version 2.43.0 (0)
 -->
<!-- Title: RTFDocVisitor Pages: 1 -->
<svg width="564pt" height="93pt"
 viewBox="0.00 0.00 564.00 93.00" xmlns="http://www.w3.org/2000/svg" xmlns:xlink="http://www.w3.org/1999/xlink">
<g id="graph0" class="graph" transform="scale(1 1) rotate(0) translate(4 89)">
<title>RTFDocVisitor</title>
<!-- Node1 -->
<g id="node1" class="node">
<title>Node1</title>
<g id="a_node1"><a xlink:title="Concrete visitor implementation for RTF output.">
<polygon fill="#999999" stroke="#666666" points="277,-19 192,-19 192,0 277,0 277,-19"/>
<text text-anchor="middle" x="234.5" y="-7" font-family="Helvetica,sans-Serif" font-size="10.00">RTFDocVisitor</text>
</a>
</g>
</g>
<!-- Node2 -->
<g id="node2" class="node">
<title>Node2</title>
<g id="a_node2"><a xlink:href="../../d0/d78/class_doc_visitor.html" target="_top" xlink:title="Helper base class for functionality shared by all visitors.">
<polygon fill="white" stroke="#666666" points="67,-85 0,-85 0,-66 67,-66 67,-85"/>
<text text-anchor="middle" x="33.5" y="-73" font-family="Helvetica,sans-Serif" font-size="10.00">DocVisitor</text>
</a>
</g>
</g>
<!-- Node2&#45;&gt;Node1 -->
<g id="edge1" class="edge">
<title>Node2&#45;&gt;Node1</title>
<path fill="none" stroke="#63b8ff" d="M70.17,-62.82C109.82,-50.2 172.09,-30.37 207.5,-19.1"/>
<polygon fill="#63b8ff" stroke="#63b8ff" points="69.07,-59.5 60.61,-65.87 71.2,-66.17 69.07,-59.5"/>
</g>
<!-- Node3 -->
<g id="node3" class="node">
<title>Node3</title>
<g id="a_node3"><a xlink:href="../../d3/d30/class_text_stream.html" target="_top" xlink:title="Text streaming class that buffers data.">
<polygon fill="white" stroke="#666666" points="157.5,-85 85.5,-85 85.5,-66 157.5,-66 157.5,-85"/>
<text text-anchor="middle" x="121.5" y="-73" font-family="Helvetica,sans-Serif" font-size="10.00">TextStream</text>
</a>
</g>
</g>
<!-- Node3&#45;&gt;Node1 -->
<g id="edge2" class="edge">
<title>Node3&#45;&gt;Node1</title>
<path fill="none" stroke="#9a32cd" stroke-dasharray="5,2" d="M145.59,-60.86C167.83,-48.26 200.21,-29.92 219.14,-19.2"/>
<polygon fill="#9a32cd" stroke="#9a32cd" points="143.72,-57.89 136.74,-65.87 147.17,-63.99 143.72,-57.89"/>
<text text-anchor="middle" x="196.5" y="-40" font-family="Helvetica,sans-Serif" font-size="10.00" fill="grey"> m_t</text>
</g>
<!-- Node4 -->
<g id="node4" class="node">
<title>Node4</title>
<g id="a_node4"><a xlink:href="../../d5/d9c/class_code_output_interface.html" target="_top" xlink:title="Output interface for code parser.">
<polygon fill="white" stroke="#666666" points="293.5,-85 175.5,-85 175.5,-66 293.5,-66 293.5,-85"/>
<text text-anchor="middle" x="234.5" y="-73" font-family="Helvetica,sans-Serif" font-size="10.00">CodeOutputInterface</text>
</a>
</g>
</g>
<!-- Node4&#45;&gt;Node1 -->
<g id="edge3" class="edge">
<title>Node4&#45;&gt;Node1</title>
<path fill="none" stroke="#9a32cd" stroke-dasharray="5,2" d="M234.5,-55.58C234.5,-43.63 234.5,-28.72 234.5,-19.41"/>
<polygon fill="#9a32cd" stroke="#9a32cd" points="231,-55.87 234.5,-65.87 238,-55.87 231,-55.87"/>
<text text-anchor="middle" x="248" y="-40" font-family="Helvetica,sans-Serif" font-size="10.00" fill="grey"> m_ci</text>
</g>
<!-- Node5 -->
<g id="node5" class="node">
<title>Node5</title>
<g id="a_node5"><a xlink:href="../../d9/d45/class_q_c_string.html" target="_top" xlink:title="This is an alternative implementation of QCString.">
<polygon fill="white" stroke="#666666" points="371,-85 312,-85 312,-66 371,-66 371,-85"/>
<text text-anchor="middle" x="341.5" y="-73" font-family="Helvetica,sans-Serif" font-size="10.00">QCString</text>
</a>
</g>
</g>
<!-- Node5&#45;&gt;Node1 -->
<g id="edge4" class="edge">
<title>Node5&#45;&gt;Node1</title>
<path fill="none" stroke="#9a32cd" stroke-dasharray="5,2" d="M318.41,-60.69C297.35,-48.09 266.89,-29.87 249.04,-19.2"/>
<polygon fill="#9a32cd" stroke="#9a32cd" points="316.69,-63.74 327.07,-65.87 320.28,-57.73 316.69,-63.74"/>
<text text-anchor="middle" x="321" y="-40" font-family="Helvetica,sans-Serif" font-size="10.00" fill="grey"> m_langExt</text>
</g>
<!-- Node6 -->
<g id="node6" class="node">
<title>Node6</title>
<g id="a_node6"><a xlink:href="../../d9/d88/struct_r_t_f_doc_visitor_1_1_r_t_f_list_item_info.html" target="_top" xlink:title=" ">
<polygon fill="white" stroke="#666666" points="556,-85 389,-85 389,-66 556,-66 556,-85"/>
<text text-anchor="middle" x="472.5" y="-73" font-family="Helvetica,sans-Serif" font-size="10.00">RTFDocVisitor::RTFListItemInfo</text>
</a>
</g>
</g>
<!-- Node6&#45;&gt;Node1 -->
<g id="edge5" class="edge">
<title>Node6&#45;&gt;Node1</title>
<path fill="none" stroke="#9a32cd" stroke-dasharray="5,2" d="M437.74,-62.81C413.9,-54.99 381.46,-44.76 352.5,-37 327.45,-30.29 299.11,-23.88 276.48,-19.05"/>
<polygon fill="#9a32cd" stroke="#9a32cd" points="436.8,-66.18 447.39,-65.99 438.99,-59.54 436.8,-66.18"/>
<text text-anchor="middle" x="426" y="-40" font-family="Helvetica,sans-Serif" font-size="10.00" fill="grey"> m_listItemInfo</text>
</g>
</g>
</svg>
