<?xml version="1.0" encoding="UTF-8" standalone="no"?>
<!DOCTYPE svg PUBLIC "-//W3C//DTD SVG 1.1//EN"
 "http://www.w3.org/Graphics/SVG/1.1/DTD/svg11.dtd">
<!-- Generated by graphviz version 2.43.0 (0)
 -->
<!-- Title: /home/runner/work/doxygen/doxygen/src/doxygen.h Pages: 1 -->
<!--zoomable 533 -->
<svg id="main" version="1.1" xmlns="http://www.w3.org/2000/svg" xmlns:xlink="http://www.w3.org/1999/xlink" xml:space="preserve" onload="init(evt)">
<style type="text/css"><![CDATA[
.edge:hover path { stroke: red; }
.edge:hover polygon { stroke: red; fill: red; }
]]></style>
<script type="text/javascript"><![CDATA[
var edges = document.getElementsByTagName('g');
if (edges && edges.length) {
  for (var i=0;i<edges.length;i++) {
    if (edges[i].id.substr(0,4)=='edge') {
      edges[i].setAttribute('class','edge');
    }
  }
}
]]></script>
        <defs>
                <circle id="rim" cx="0" cy="0" r="7"/>
                <circle id="rim2" cx="0" cy="0" r="3.5"/>
                <g id="zoomPlus">
                        <use xlink:href="#rim" fill="#404040">
                                <set attributeName="fill" to="#808080" begin="zoomplus.mouseover" end="zoomplus.mouseout"/>
                        </use>
                        <path d="M-4,0h8M0,-4v8" fill="none" stroke="white" stroke-width="1.5" pointer-events="none"/>
                </g>
                <g id="zoomMin">
                        <use xlink:href="#rim" fill="#404040">
                                <set attributeName="fill" to="#808080" begin="zoomminus.mouseover" end="zoomminus.mouseout"/>
                        </use>
                        <path d="M-4,0h8" fill="none" stroke="white" stroke-width="1.5" pointer-events="none"/>
                </g>
                <g id="dirArrow">
                        <path fill="none" stroke="white" stroke-width="1.5" d="M0,-3.0v7 M-2.5,-0.5L0,-3.0L2.5,-0.5"/>
                </g>
               <g id="resetDef">
                       <use xlink:href="#rim2" fill="#404040">
                               <set attributeName="fill" to="#808080" begin="reset.mouseover" end="reset.mouseout"/>
                       </use>
               </g>
        </defs>

<script type="text/javascript">
var viewWidth = 1468;
var viewHeight = 533;
var sectionId = 'dynsection-0';
</script>
<script xlink:href="../../svgpan.js"/>
<svg id="graph" class="graph">
<g id="viewport">
<title>/home/runner/work/doxygen/doxygen/src/doxygen.h</title>
<!-- Node1 -->
<g id="node1" class="node">
<title>Node1</title>
<g id="a_node1"><a xlink:title=" ">
<polygon fill="#999999" stroke="#666666" points="1076,-525 922,-525 922,-495 1076,-495 1076,-525"/>
<text text-anchor="start" x="930" y="-513" font-family="Helvetica,sans-Serif" font-size="10.00">/home/runner/work/doxygen</text>
<text text-anchor="middle" x="999" y="-502" font-family="Helvetica,sans-Serif" font-size="10.00">/doxygen/src/doxygen.h</text>
</a>
</g>
</g>
<!-- Node2 -->
<g id="node2" class="node">
<title>Node2</title>
<g id="a_node2"><a xlink:title=" ">
<polygon fill="#e0e0e0" stroke="#999999" points="1338,-129 1290,-129 1290,-110 1338,-110 1338,-129"/>
<text text-anchor="middle" x="1314" y="-117" font-family="Helvetica,sans-Serif" font-size="10.00">mutex</text>
</a>
</g>
</g>
<!-- Node1&#45;&gt;Node2 -->
<g id="edge1" class="edge">
<title>Node1&#45;&gt;Node2</title>
<path fill="none" stroke="#63b8ff" d="M1076.32,-505.73C1150.4,-497.96 1251,-473.11 1251,-395.5 1251,-395.5 1251,-395.5 1251,-228.5 1251,-198.48 1258.57,-190.75 1274,-165 1280.25,-154.57 1289.14,-144.38 1296.95,-136.39"/>
<polygon fill="#63b8ff" stroke="#63b8ff" points="1299.59,-138.71 1304.27,-129.2 1294.68,-133.71 1299.59,-138.71"/>
</g>
<!-- Node3 -->
<g id="node3" class="node">
<title>Node3</title>
<g id="a_node3"><a xlink:href="../../d5/d75/containers_8h.html" target="_top" xlink:title=" ">
<polygon fill="white" stroke="#666666" points="1037.5,-184 960.5,-184 960.5,-165 1037.5,-165 1037.5,-184"/>
<text text-anchor="middle" x="999" y="-172" font-family="Helvetica,sans-Serif" font-size="10.00">containers.h</text>
</a>
</g>
</g>
<!-- Node1&#45;&gt;Node3 -->
<g id="edge2" class="edge">
<title>Node1&#45;&gt;Node3</title>
<path fill="none" stroke="#63b8ff" d="M1007.06,-494.82C1018.21,-473.82 1037,-432.9 1037,-395.5 1037,-395.5 1037,-395.5 1037,-283.5 1037,-250.02 1020.55,-213.84 1009.3,-193.01"/>
<polygon fill="#63b8ff" stroke="#63b8ff" points="1012.24,-191.1 1004.28,-184.1 1006.13,-194.53 1012.24,-191.1"/>
</g>
<!-- Node11 -->
<g id="node11" class="node">
<title>Node11</title>
<g id="a_node11"><a xlink:href="../../d9/d11/membergroup_8h.html" target="_top" xlink:title=" ">
<polygon fill="white" stroke="#666666" points="389.5,-294 294.5,-294 294.5,-275 389.5,-275 389.5,-294"/>
<text text-anchor="middle" x="342" y="-282" font-family="Helvetica,sans-Serif" font-size="10.00">membergroup.h</text>
</a>
</g>
</g>
<!-- Node1&#45;&gt;Node11 -->
<g id="edge10" class="edge">
<title>Node1&#45;&gt;Node11</title>
<path fill="none" stroke="#63b8ff" d="M921.99,-509C794.5,-507.81 546.1,-500.09 470,-459 405.25,-424.03 364.46,-340.45 349.02,-303.54"/>
<polygon fill="#63b8ff" stroke="#63b8ff" points="352.18,-302.03 345.19,-294.07 345.69,-304.65 352.18,-302.03"/>
</g>
<!-- Node25 -->
<g id="node25" class="node">
<title>Node25</title>
<g id="a_node25"><a xlink:href="../../d6/d15/dirdef_8h.html" target="_top" xlink:title=" ">
<polygon fill="white" stroke="#666666" points="150.5,-349 97.5,-349 97.5,-330 150.5,-330 150.5,-349"/>
<text text-anchor="middle" x="124" y="-337" font-family="Helvetica,sans-Serif" font-size="10.00">dirdef.h</text>
</a>
</g>
</g>
<!-- Node1&#45;&gt;Node25 -->
<g id="edge40" class="edge">
<title>Node1&#45;&gt;Node25</title>
<path fill="none" stroke="#63b8ff" d="M921.9,-508.84C728.92,-507.8 236.25,-501.02 176,-459 142.78,-435.84 130.56,-386.54 126.24,-359.4"/>
<polygon fill="#63b8ff" stroke="#63b8ff" points="129.67,-358.69 124.83,-349.27 122.74,-359.65 129.67,-358.69"/>
</g>
<!-- Node27 -->
<g id="node27" class="node">
<title>Node27</title>
<g id="a_node27"><a xlink:href="../../dd/d78/memberlist_8h.html" target="_top" xlink:title=" ">
<polygon fill="white" stroke="#666666" points="561,-459 479,-459 479,-440 561,-440 561,-459"/>
<text text-anchor="middle" x="520" y="-447" font-family="Helvetica,sans-Serif" font-size="10.00">memberlist.h</text>
</a>
</g>
</g>
<!-- Node1&#45;&gt;Node27 -->
<g id="edge49" class="edge">
<title>Node1&#45;&gt;Node27</title>
<path fill="none" stroke="#63b8ff" d="M921.77,-499.57C823.21,-487.53 655.43,-467.04 571.3,-456.76"/>
<polygon fill="#63b8ff" stroke="#63b8ff" points="571.57,-453.27 561.22,-455.53 570.72,-460.22 571.57,-453.27"/>
</g>
<!-- Node32 -->
<g id="node32" class="node">
<title>Node32</title>
<g id="a_node32"><a xlink:href="../../df/d67/define_8h.html" target="_top" xlink:title=" ">
<polygon fill="white" stroke="#666666" points="904,-239 848,-239 848,-220 904,-220 904,-239"/>
<text text-anchor="middle" x="876" y="-227" font-family="Helvetica,sans-Serif" font-size="10.00">define.h</text>
</a>
</g>
</g>
<!-- Node1&#45;&gt;Node32 -->
<g id="edge71" class="edge">
<title>Node1&#45;&gt;Node32</title>
<path fill="none" stroke="#63b8ff" d="M990.94,-494.82C979.79,-473.82 961,-432.9 961,-395.5 961,-395.5 961,-395.5 961,-338.5 961,-297.73 923.14,-263.28 897.95,-244.86"/>
<polygon fill="#63b8ff" stroke="#63b8ff" points="899.85,-241.92 889.66,-239.04 895.83,-247.65 899.85,-241.92"/>
</g>
<!-- Node33 -->
<g id="node33" class="node">
<title>Node33</title>
<g id="a_node33"><a xlink:href="../../d3/d26/cache_8h.html" target="_top" xlink:title=" ">
<polygon fill="white" stroke="#666666" points="1337,-184 1283,-184 1283,-165 1337,-165 1337,-184"/>
<text text-anchor="middle" x="1310" y="-172" font-family="Helvetica,sans-Serif" font-size="10.00">cache.h</text>
</a>
</g>
</g>
<!-- Node1&#45;&gt;Node33 -->
<g id="edge78" class="edge">
<title>Node1&#45;&gt;Node33</title>
<path fill="none" stroke="#63b8ff" d="M1076.3,-502.09C1143.93,-494.69 1235.8,-480.96 1265,-459 1290.26,-440 1297,-427.1 1297,-395.5 1297,-395.5 1297,-395.5 1297,-283.5 1297,-251.96 1302.53,-215.62 1306.38,-194.15"/>
<polygon fill="#63b8ff" stroke="#63b8ff" points="1309.85,-194.61 1308.25,-184.14 1302.97,-193.33 1309.85,-194.61"/>
</g>
<!-- Node37 -->
<g id="node37" class="node">
<title>Node37</title>
<g id="a_node37"><a xlink:href="../../d7/ddd/symbolmap_8h.html" target="_top" xlink:title=" ">
<polygon fill="white" stroke="#666666" points="1215.5,-184 1132.5,-184 1132.5,-165 1215.5,-165 1215.5,-184"/>
<text text-anchor="middle" x="1174" y="-172" font-family="Helvetica,sans-Serif" font-size="10.00">symbolmap.h</text>
</a>
</g>
</g>
<!-- Node1&#45;&gt;Node37 -->
<g id="edge84" class="edge">
<title>Node1&#45;&gt;Node37</title>
<path fill="none" stroke="#63b8ff" d="M1034.77,-494.9C1072.02,-477.59 1125,-444.37 1125,-395.5 1125,-395.5 1125,-395.5 1125,-283.5 1125,-248.68 1146.38,-212.74 1160.9,-192.35"/>
<polygon fill="#63b8ff" stroke="#63b8ff" points="1163.84,-194.25 1166.98,-184.13 1158.21,-190.09 1163.84,-194.25"/>
</g>
<!-- Node4 -->
<g id="node4" class="node">
<title>Node4</title>
<g id="a_node4"><a xlink:title=" ">
<polygon fill="#e0e0e0" stroke="#999999" points="727.5,-129 680.5,-129 680.5,-110 727.5,-110 727.5,-129"/>
<text text-anchor="middle" x="704" y="-117" font-family="Helvetica,sans-Serif" font-size="10.00">vector</text>
</a>
</g>
</g>
<!-- Node3&#45;&gt;Node4 -->
<g id="edge3" class="edge">
<title>Node3&#45;&gt;Node4</title>
<path fill="none" stroke="#63b8ff" d="M960.43,-166.57C902.19,-156.11 792.73,-136.44 737.57,-126.53"/>
<polygon fill="#63b8ff" stroke="#63b8ff" points="738.08,-123.07 727.62,-124.74 736.84,-129.96 738.08,-123.07"/>
</g>
<!-- Node5 -->
<g id="node5" class="node">
<title>Node5</title>
<g id="a_node5"><a xlink:title=" ">
<polygon fill="#e0e0e0" stroke="#999999" points="701,-19 657,-19 657,0 701,0 701,-19"/>
<text text-anchor="middle" x="679" y="-7" font-family="Helvetica,sans-Serif" font-size="10.00">string</text>
</a>
</g>
</g>
<!-- Node3&#45;&gt;Node5 -->
<g id="edge4" class="edge">
<title>Node3&#45;&gt;Node5</title>
<path fill="none" stroke="#63b8ff" d="M1000.56,-164.99C1002.49,-151.65 1004.07,-125.72 991,-110 920.04,-24.67 775.89,-11.62 711.42,-10.23"/>
<polygon fill="#63b8ff" stroke="#63b8ff" points="711.11,-6.73 701.06,-10.1 711.02,-13.73 711.11,-6.73"/>
</g>
<!-- Node6 -->
<g id="node6" class="node">
<title>Node6</title>
<g id="a_node6"><a xlink:title=" ">
<polygon fill="#e0e0e0" stroke="#999999" points="816,-129 784,-129 784,-110 816,-110 816,-129"/>
<text text-anchor="middle" x="800" y="-117" font-family="Helvetica,sans-Serif" font-size="10.00">set</text>
</a>
</g>
</g>
<!-- Node3&#45;&gt;Node6 -->
<g id="edge5" class="edge">
<title>Node3&#45;&gt;Node6</title>
<path fill="none" stroke="#63b8ff" d="M962.11,-164.94C928.81,-157.02 878.28,-144.53 825.88,-129.09"/>
<polygon fill="#63b8ff" stroke="#63b8ff" points="826.66,-125.67 816.08,-126.17 824.67,-132.38 826.66,-125.67"/>
</g>
<!-- Node7 -->
<g id="node7" class="node">
<title>Node7</title>
<g id="a_node7"><a xlink:title=" ">
<polygon fill="#e0e0e0" stroke="#999999" points="95,-129 57,-129 57,-110 95,-110 95,-129"/>
<text text-anchor="middle" x="76" y="-117" font-family="Helvetica,sans-Serif" font-size="10.00">map</text>
</a>
</g>
</g>
<!-- Node3&#45;&gt;Node7 -->
<g id="edge6" class="edge">
<title>Node3&#45;&gt;Node7</title>
<path fill="none" stroke="#63b8ff" d="M960.11,-171.47C844.76,-165.4 494.45,-146.77 204,-129 170.16,-126.93 131.29,-124.31 105.35,-122.54"/>
<polygon fill="#63b8ff" stroke="#63b8ff" points="105.3,-119.02 95.08,-121.83 104.82,-126.01 105.3,-119.02"/>
</g>
<!-- Node8 -->
<g id="node8" class="node">
<title>Node8</title>
<g id="a_node8"><a xlink:title=" ">
<polygon fill="#e0e0e0" stroke="#999999" points="982,-129 896,-129 896,-110 982,-110 982,-129"/>
<text text-anchor="middle" x="939" y="-117" font-family="Helvetica,sans-Serif" font-size="10.00">unordered_set</text>
</a>
</g>
</g>
<!-- Node3&#45;&gt;Node8 -->
<g id="edge7" class="edge">
<title>Node3&#45;&gt;Node8</title>
<path fill="none" stroke="#63b8ff" d="M989.36,-164.98C980.49,-157.15 967.13,-145.34 956.39,-135.86"/>
<polygon fill="#63b8ff" stroke="#63b8ff" points="958.63,-133.17 948.82,-129.17 953.99,-138.41 958.63,-133.17"/>
</g>
<!-- Node9 -->
<g id="node9" class="node">
<title>Node9</title>
<g id="a_node9"><a xlink:title=" ">
<polygon fill="#e0e0e0" stroke="#999999" points="1131.5,-129 1038.5,-129 1038.5,-110 1131.5,-110 1131.5,-129"/>
<text text-anchor="middle" x="1085" y="-117" font-family="Helvetica,sans-Serif" font-size="10.00">unordered_map</text>
</a>
</g>
</g>
<!-- Node3&#45;&gt;Node9 -->
<g id="edge8" class="edge">
<title>Node3&#45;&gt;Node9</title>
<path fill="none" stroke="#63b8ff" d="M1012.82,-164.98C1026.15,-156.77 1046.58,-144.18 1062.31,-134.49"/>
<polygon fill="#63b8ff" stroke="#63b8ff" points="1064.25,-137.4 1070.93,-129.17 1060.58,-131.44 1064.25,-137.4"/>
</g>
<!-- Node10 -->
<g id="node10" class="node">
<title>Node10</title>
<g id="a_node10"><a xlink:title=" ">
<polygon fill="#e0e0e0" stroke="#999999" points="877.5,-129 834.5,-129 834.5,-110 877.5,-110 877.5,-129"/>
<text text-anchor="middle" x="856" y="-117" font-family="Helvetica,sans-Serif" font-size="10.00">stack</text>
</a>
</g>
</g>
<!-- Node3&#45;&gt;Node10 -->
<g id="edge9" class="edge">
<title>Node3&#45;&gt;Node10</title>
<path fill="none" stroke="#63b8ff" d="M976.02,-164.98C951.94,-156.06 913.95,-141.98 887.18,-132.05"/>
<polygon fill="#63b8ff" stroke="#63b8ff" points="888.11,-128.67 877.51,-128.47 885.68,-135.23 888.11,-128.67"/>
</g>
<!-- Node11&#45;&gt;Node4 -->
<g id="edge11" class="edge">
<title>Node11&#45;&gt;Node4</title>
<path fill="none" stroke="#63b8ff" d="M368.41,-274.86C393.71,-266.39 432.84,-252.77 466,-239 546.28,-205.66 637.25,-157.24 679.73,-133.97"/>
<polygon fill="#63b8ff" stroke="#63b8ff" points="681.67,-136.9 688.75,-129.01 678.3,-130.77 681.67,-136.9"/>
</g>
<!-- Node11&#45;&gt;Node7 -->
<g id="edge12" class="edge">
<title>Node11&#45;&gt;Node7</title>
<path fill="none" stroke="#63b8ff" d="M303.28,-274.98C275.77,-267.88 238.6,-256.16 209,-239 159.96,-210.57 112.97,-162.11 90.23,-136.87"/>
<polygon fill="#63b8ff" stroke="#63b8ff" points="92.73,-134.42 83.48,-129.27 87.5,-139.07 92.73,-134.42"/>
</g>
<!-- Node12 -->
<g id="node12" class="node">
<title>Node12</title>
<g id="a_node12"><a xlink:title=" ">
<polygon fill="#e0e0e0" stroke="#999999" points="371,-129 313,-129 313,-110 371,-110 371,-129"/>
<text text-anchor="middle" x="342" y="-117" font-family="Helvetica,sans-Serif" font-size="10.00">memory</text>
</a>
</g>
</g>
<!-- Node11&#45;&gt;Node12 -->
<g id="edge13" class="edge">
<title>Node11&#45;&gt;Node12</title>
<path fill="none" stroke="#63b8ff" d="M335.55,-274.77C323.71,-258.14 298.92,-220.34 290,-184 287.99,-175.8 286.47,-172.67 290,-165 295.75,-152.52 306.91,-142.24 317.42,-134.71"/>
<polygon fill="#63b8ff" stroke="#63b8ff" points="319.57,-137.49 325.97,-129.05 315.7,-131.65 319.57,-137.49"/>
</g>
<!-- Node13 -->
<g id="node13" class="node">
<title>Node13</title>
<g id="a_node13"><a xlink:href="../../d9/d49/types_8h.html" target="_top" xlink:title="This file contains a number of basic enums and types.">
<polygon fill="white" stroke="#666666" points="271.5,-239 218.5,-239 218.5,-220 271.5,-220 271.5,-239"/>
<text text-anchor="middle" x="245" y="-227" font-family="Helvetica,sans-Serif" font-size="10.00">types.h</text>
</a>
</g>
</g>
<!-- Node11&#45;&gt;Node13 -->
<g id="edge14" class="edge">
<title>Node11&#45;&gt;Node13</title>
<path fill="none" stroke="#63b8ff" d="M326.42,-274.98C311.23,-266.69 287.9,-253.94 270.1,-244.22"/>
<polygon fill="#63b8ff" stroke="#63b8ff" points="271.32,-240.89 260.87,-239.17 267.97,-247.04 271.32,-240.89"/>
</g>
<!-- Node23 -->
<g id="node23" class="node">
<title>Node23</title>
<g id="a_node23"><a xlink:href="../../d1/d02/reflist_8h.html" target="_top" xlink:title=" ">
<polygon fill="white" stroke="#666666" points="457.5,-239 404.5,-239 404.5,-220 457.5,-220 457.5,-239"/>
<text text-anchor="middle" x="431" y="-227" font-family="Helvetica,sans-Serif" font-size="10.00">reflist.h</text>
</a>
</g>
</g>
<!-- Node11&#45;&gt;Node23 -->
<g id="edge27" class="edge">
<title>Node11&#45;&gt;Node23</title>
<path fill="none" stroke="#63b8ff" d="M356.3,-274.98C370.1,-266.77 391.24,-254.18 407.51,-244.49"/>
<polygon fill="#63b8ff" stroke="#63b8ff" points="409.64,-247.29 416.44,-239.17 406.06,-241.28 409.64,-247.29"/>
</g>
<!-- Node14 -->
<g id="node14" class="node">
<title>Node14</title>
<g id="a_node14"><a xlink:href="../../d7/d5c/qcstring_8h.html" target="_top" xlink:title=" ">
<polygon fill="white" stroke="#666666" points="278.5,-129 213.5,-129 213.5,-110 278.5,-110 278.5,-129"/>
<text text-anchor="middle" x="246" y="-117" font-family="Helvetica,sans-Serif" font-size="10.00">qcstring.h</text>
</a>
</g>
</g>
<!-- Node13&#45;&gt;Node14 -->
<g id="edge15" class="edge">
<title>Node13&#45;&gt;Node14</title>
<path fill="none" stroke="#63b8ff" d="M221.92,-219.84C197.07,-209.06 162.75,-189.12 176,-165 183.77,-150.85 198.17,-140.56 211.89,-133.46"/>
<polygon fill="#63b8ff" stroke="#63b8ff" points="213.66,-136.49 221.19,-129.05 210.66,-130.17 213.66,-136.49"/>
</g>
<!-- Node14&#45;&gt;Node5 -->
<g id="edge16" class="edge">
<title>Node14&#45;&gt;Node5</title>
<path fill="none" stroke="#63b8ff" d="M265.43,-109.98C285.45,-101.15 317.52,-86.86 345,-74 362.46,-65.82 365.59,-60.73 384,-55 476.5,-26.23 591.3,-15.75 646.44,-12.18"/>
<polygon fill="#63b8ff" stroke="#63b8ff" points="646.88,-15.66 656.65,-11.56 646.46,-8.68 646.88,-15.66"/>
</g>
<!-- Node15 -->
<g id="node15" class="node">
<title>Node15</title>
<g id="a_node15"><a xlink:title=" ">
<polygon fill="#e0e0e0" stroke="#999999" points="457,-74 393,-74 393,-55 457,-55 457,-74"/>
<text text-anchor="middle" x="425" y="-62" font-family="Helvetica,sans-Serif" font-size="10.00">algorithm</text>
</a>
</g>
</g>
<!-- Node14&#45;&gt;Node15 -->
<g id="edge17" class="edge">
<title>Node14&#45;&gt;Node15</title>
<path fill="none" stroke="#63b8ff" d="M274.76,-109.98C304.94,-101.05 352.57,-86.94 386.1,-77.02"/>
<polygon fill="#63b8ff" stroke="#63b8ff" points="387.42,-80.28 396.02,-74.08 385.43,-73.57 387.42,-80.28"/>
</g>
<!-- Node16 -->
<g id="node16" class="node">
<title>Node16</title>
<g id="a_node16"><a xlink:title=" ">
<polygon fill="#e0e0e0" stroke="#999999" points="524.5,-74 475.5,-74 475.5,-55 524.5,-55 524.5,-74"/>
<text text-anchor="middle" x="500" y="-62" font-family="Helvetica,sans-Serif" font-size="10.00">cctype</text>
</a>
</g>
</g>
<!-- Node14&#45;&gt;Node16 -->
<g id="edge18" class="edge">
<title>Node14&#45;&gt;Node16</title>
<path fill="none" stroke="#63b8ff" d="M278.53,-112.4C319.62,-104.59 392.73,-90.34 464.96,-74.15"/>
<polygon fill="#63b8ff" stroke="#63b8ff" points="466.16,-77.47 475.15,-71.85 464.62,-70.64 466.16,-77.47"/>
</g>
<!-- Node17 -->
<g id="node17" class="node">
<title>Node17</title>
<g id="a_node17"><a xlink:title=" ">
<polygon fill="#e0e0e0" stroke="#999999" points="205,-74 155,-74 155,-55 205,-55 205,-74"/>
<text text-anchor="middle" x="180" y="-62" font-family="Helvetica,sans-Serif" font-size="10.00">cstring</text>
</a>
</g>
</g>
<!-- Node14&#45;&gt;Node17 -->
<g id="edge19" class="edge">
<title>Node14&#45;&gt;Node17</title>
<path fill="none" stroke="#63b8ff" d="M235.4,-109.98C225.54,-102.07 210.65,-90.11 198.78,-80.58"/>
<polygon fill="#63b8ff" stroke="#63b8ff" points="200.79,-77.7 190.8,-74.17 196.4,-83.16 200.79,-77.7"/>
</g>
<!-- Node18 -->
<g id="node18" class="node">
<title>Node18</title>
<g id="a_node18"><a xlink:title=" ">
<polygon fill="#e0e0e0" stroke="#999999" points="269,-74 223,-74 223,-55 269,-55 269,-74"/>
<text text-anchor="middle" x="246" y="-62" font-family="Helvetica,sans-Serif" font-size="10.00">cstdio</text>
</a>
</g>
</g>
<!-- Node14&#45;&gt;Node18 -->
<g id="edge20" class="edge">
<title>Node14&#45;&gt;Node18</title>
<path fill="none" stroke="#63b8ff" d="M246,-109.75C246,-102.8 246,-92.85 246,-84.13"/>
<polygon fill="#63b8ff" stroke="#63b8ff" points="249.5,-84.09 246,-74.09 242.5,-84.09 249.5,-84.09"/>
</g>
<!-- Node19 -->
<g id="node19" class="node">
<title>Node19</title>
<g id="a_node19"><a xlink:title=" ">
<polygon fill="#e0e0e0" stroke="#999999" points="336.5,-74 287.5,-74 287.5,-55 336.5,-55 336.5,-74"/>
<text text-anchor="middle" x="312" y="-62" font-family="Helvetica,sans-Serif" font-size="10.00">cstdlib</text>
</a>
</g>
</g>
<!-- Node14&#45;&gt;Node19 -->
<g id="edge21" class="edge">
<title>Node14&#45;&gt;Node19</title>
<path fill="none" stroke="#63b8ff" d="M256.6,-109.98C266.46,-102.07 281.35,-90.11 293.22,-80.58"/>
<polygon fill="#63b8ff" stroke="#63b8ff" points="295.6,-83.16 301.2,-74.17 291.21,-77.7 295.6,-83.16"/>
</g>
<!-- Node20 -->
<g id="node20" class="node">
<title>Node20</title>
<g id="a_node20"><a xlink:title=" ">
<polygon fill="#e0e0e0" stroke="#999999" points="76,-19 26,-19 26,0 76,0 76,-19"/>
<text text-anchor="middle" x="51" y="-7" font-family="Helvetica,sans-Serif" font-size="10.00">cstdint</text>
</a>
</g>
</g>
<!-- Node14&#45;&gt;Node20 -->
<g id="edge22" class="edge">
<title>Node14&#45;&gt;Node20</title>
<path fill="none" stroke="#63b8ff" d="M213.05,-117.37C153.75,-114.56 32.83,-105.08 7,-74 -6.14,-58.19 12.23,-38.55 29.09,-25.33"/>
<polygon fill="#63b8ff" stroke="#63b8ff" points="31.62,-27.81 37.59,-19.06 27.46,-22.18 31.62,-27.81"/>
</g>
<!-- Node21 -->
<g id="node21" class="node">
<title>Node21</title>
<g id="a_node21"><a xlink:title=" ">
<polygon fill="#e0e0e0" stroke="#999999" points="73.5,-74 16.5,-74 16.5,-55 73.5,-55 73.5,-74"/>
<text text-anchor="middle" x="45" y="-62" font-family="Helvetica,sans-Serif" font-size="10.00">ostream</text>
</a>
</g>
</g>
<!-- Node14&#45;&gt;Node21 -->
<g id="edge23" class="edge">
<title>Node14&#45;&gt;Node21</title>
<path fill="none" stroke="#63b8ff" d="M213.71,-109.98C178.3,-100.65 121.53,-85.68 83.75,-75.72"/>
<polygon fill="#63b8ff" stroke="#63b8ff" points="84.2,-72.22 73.63,-73.05 82.41,-78.98 84.2,-72.22"/>
</g>
<!-- Node22 -->
<g id="node22" class="node">
<title>Node22</title>
<g id="a_node22"><a xlink:href="../../db/d7c/utf8_8h.html" target="_top" xlink:title="Various UTF8 related helper functions.">
<polygon fill="white" stroke="#666666" points="136.5,-74 91.5,-74 91.5,-55 136.5,-55 136.5,-74"/>
<text text-anchor="middle" x="114" y="-62" font-family="Helvetica,sans-Serif" font-size="10.00">utf8.h</text>
</a>
</g>
</g>
<!-- Node14&#45;&gt;Node22 -->
<g id="edge24" class="edge">
<title>Node14&#45;&gt;Node22</title>
<path fill="none" stroke="#63b8ff" d="M224.79,-109.98C203.27,-101.34 169.72,-87.87 145.17,-78.02"/>
<polygon fill="#63b8ff" stroke="#63b8ff" points="146.18,-74.65 135.59,-74.17 143.57,-81.14 146.18,-74.65"/>
</g>
<!-- Node22&#45;&gt;Node5 -->
<g id="edge26" class="edge">
<title>Node22&#45;&gt;Node5</title>
<path fill="none" stroke="#63b8ff" d="M136.62,-56.96C139.75,-56.21 142.94,-55.53 146,-55 334.02,-22.44 563.62,-13.48 646.9,-11.21"/>
<polygon fill="#63b8ff" stroke="#63b8ff" points="647.09,-14.71 656.99,-10.95 646.91,-7.71 647.09,-14.71"/>
</g>
<!-- Node22&#45;&gt;Node20 -->
<g id="edge25" class="edge">
<title>Node22&#45;&gt;Node20</title>
<path fill="none" stroke="#63b8ff" d="M103.88,-54.98C94.56,-47.15 80.53,-35.34 69.26,-25.86"/>
<polygon fill="#63b8ff" stroke="#63b8ff" points="71.21,-22.93 61.31,-19.17 66.71,-28.29 71.21,-22.93"/>
</g>
<!-- Node23&#45;&gt;Node4 -->
<g id="edge28" class="edge">
<title>Node23&#45;&gt;Node4</title>
<path fill="none" stroke="#63b8ff" d="M452.88,-219.84C501.22,-200.72 617.25,-154.82 673.03,-132.75"/>
<polygon fill="#63b8ff" stroke="#63b8ff" points="674.38,-135.98 682.4,-129.05 671.81,-129.47 674.38,-135.98"/>
</g>
<!-- Node23&#45;&gt;Node9 -->
<g id="edge29" class="edge">
<title>Node23&#45;&gt;Node9</title>
<path fill="none" stroke="#63b8ff" d="M457.6,-227.99C569.07,-225.69 995.17,-214.89 1046,-184 1062.55,-173.94 1073.08,-153.94 1078.97,-139.06"/>
<polygon fill="#63b8ff" stroke="#63b8ff" points="1082.37,-139.94 1082.46,-129.34 1075.78,-137.57 1082.37,-139.94"/>
</g>
<!-- Node23&#45;&gt;Node12 -->
<g id="edge30" class="edge">
<title>Node23&#45;&gt;Node12</title>
<path fill="none" stroke="#63b8ff" d="M409.71,-219.9C394.1,-212.55 373.51,-200.54 361,-184 351.13,-170.95 346.36,-152.81 344.07,-139.26"/>
<polygon fill="#63b8ff" stroke="#63b8ff" points="347.52,-138.59 342.68,-129.16 340.58,-139.55 347.52,-138.59"/>
</g>
<!-- Node23&#45;&gt;Node14 -->
<g id="edge31" class="edge">
<title>Node23&#45;&gt;Node14</title>
<path fill="none" stroke="#63b8ff" d="M414.07,-220C396.96,-211.3 369.86,-197.22 347,-184 319.01,-167.82 287.6,-147.76 267.35,-134.57"/>
<polygon fill="#63b8ff" stroke="#63b8ff" points="269.17,-131.58 258.89,-129.03 265.34,-137.44 269.17,-131.58"/>
</g>
<!-- Node24 -->
<g id="node24" class="node">
<title>Node24</title>
<g id="a_node24"><a xlink:href="../../da/de1/linkedmap_8h.html" target="_top" xlink:title=" ">
<polygon fill="white" stroke="#666666" points="447.5,-184 370.5,-184 370.5,-165 447.5,-165 447.5,-184"/>
<text text-anchor="middle" x="409" y="-172" font-family="Helvetica,sans-Serif" font-size="10.00">linkedmap.h</text>
</a>
</g>
</g>
<!-- Node23&#45;&gt;Node24 -->
<g id="edge32" class="edge">
<title>Node23&#45;&gt;Node24</title>
<path fill="none" stroke="#63b8ff" d="M427.37,-219.75C424.42,-212.65 420.17,-202.4 416.49,-193.56"/>
<polygon fill="#63b8ff" stroke="#63b8ff" points="419.63,-191.98 412.57,-184.09 413.17,-194.67 419.63,-191.98"/>
</g>
<!-- Node24&#45;&gt;Node4 -->
<g id="edge34" class="edge">
<title>Node24&#45;&gt;Node4</title>
<path fill="none" stroke="#63b8ff" d="M447.57,-166.57C505.81,-156.11 615.27,-136.44 670.43,-126.53"/>
<polygon fill="#63b8ff" stroke="#63b8ff" points="671.16,-129.96 680.38,-124.74 669.92,-123.07 671.16,-129.96"/>
</g>
<!-- Node24&#45;&gt;Node5 -->
<g id="edge36" class="edge">
<title>Node24&#45;&gt;Node5</title>
<path fill="none" stroke="#63b8ff" d="M423.14,-164.97C467.05,-138.46 601.4,-57.35 655.78,-24.52"/>
<polygon fill="#63b8ff" stroke="#63b8ff" points="657.93,-27.31 664.68,-19.15 654.31,-21.32 657.93,-27.31"/>
</g>
<!-- Node24&#45;&gt;Node9 -->
<g id="edge33" class="edge">
<title>Node24&#45;&gt;Node9</title>
<path fill="none" stroke="#63b8ff" d="M447.84,-170.72C541.37,-163.98 786.5,-146.06 991,-129 1002.99,-128 1015.84,-126.87 1028.06,-125.78"/>
<polygon fill="#63b8ff" stroke="#63b8ff" points="1028.51,-129.25 1038.15,-124.86 1027.88,-122.28 1028.51,-129.25"/>
</g>
<!-- Node24&#45;&gt;Node12 -->
<g id="edge35" class="edge">
<title>Node24&#45;&gt;Node12</title>
<path fill="none" stroke="#63b8ff" d="M398.24,-164.98C388.23,-157.07 373.11,-145.11 361.07,-135.58"/>
<polygon fill="#63b8ff" stroke="#63b8ff" points="362.97,-132.63 352.96,-129.17 358.63,-138.12 362.97,-132.63"/>
</g>
<!-- Node24&#45;&gt;Node14 -->
<g id="edge39" class="edge">
<title>Node24&#45;&gt;Node14</title>
<path fill="none" stroke="#63b8ff" d="M382.81,-164.98C355.56,-156.13 312.7,-142.19 282.22,-132.28"/>
<polygon fill="#63b8ff" stroke="#63b8ff" points="282.99,-128.85 272.39,-129.08 280.82,-135.5 282.99,-128.85"/>
</g>
<!-- Node24&#45;&gt;Node15 -->
<g id="edge37" class="edge">
<title>Node24&#45;&gt;Node15</title>
<path fill="none" stroke="#63b8ff" d="M410.31,-164.66C412.9,-147.17 418.73,-107.8 422.22,-84.27"/>
<polygon fill="#63b8ff" stroke="#63b8ff" points="425.71,-84.56 423.72,-74.16 418.79,-83.54 425.71,-84.56"/>
</g>
<!-- Node24&#45;&gt;Node16 -->
<g id="edge38" class="edge">
<title>Node24&#45;&gt;Node16</title>
<path fill="none" stroke="#63b8ff" d="M416.45,-164.66C431.65,-146.61 466.48,-105.28 486.03,-82.08"/>
<polygon fill="#63b8ff" stroke="#63b8ff" points="488.94,-84.06 492.7,-74.16 483.58,-79.55 488.94,-84.06"/>
</g>
<!-- Node25&#45;&gt;Node4 -->
<g id="edge41" class="edge">
<title>Node25&#45;&gt;Node4</title>
<path fill="none" stroke="#63b8ff" d="M129.05,-329.74C143.64,-304.71 186.29,-233.82 209,-220 303.77,-162.33 347.22,-205.79 456,-184 533.55,-168.47 623.11,-143.85 670.52,-130.28"/>
<polygon fill="#63b8ff" stroke="#63b8ff" points="671.61,-133.61 680.25,-127.48 669.67,-126.88 671.61,-133.61"/>
</g>
<!-- Node25&#45;&gt;Node7 -->
<g id="edge42" class="edge">
<title>Node25&#45;&gt;Node7</title>
<path fill="none" stroke="#63b8ff" d="M103.48,-330C88.98,-322.77 70.65,-310.86 62,-294 35.72,-242.79 56.3,-171.74 68.55,-138.72"/>
<polygon fill="#63b8ff" stroke="#63b8ff" points="71.94,-139.65 72.31,-129.06 65.42,-137.11 71.94,-139.65"/>
</g>
<!-- Node25&#45;&gt;Node14 -->
<g id="edge43" class="edge">
<title>Node25&#45;&gt;Node14</title>
<path fill="none" stroke="#63b8ff" d="M123.86,-329.77C123.88,-302.24 127.5,-215.98 170,-165 181.48,-151.22 198.4,-140.73 213.36,-133.4"/>
<polygon fill="#63b8ff" stroke="#63b8ff" points="215.21,-136.4 222.83,-129.04 212.29,-130.04 215.21,-136.4"/>
</g>
<!-- Node25&#45;&gt;Node24 -->
<g id="edge44" class="edge">
<title>Node25&#45;&gt;Node24</title>
<path fill="none" stroke="#63b8ff" d="M125.08,-329.68C128.31,-307.43 139.99,-248.71 176,-220 203.85,-197.8 300.46,-185.28 360.18,-179.5"/>
<polygon fill="#63b8ff" stroke="#63b8ff" points="360.53,-182.98 370.15,-178.56 359.87,-176.01 360.53,-182.98"/>
</g>
<!-- Node26 -->
<g id="node26" class="node">
<title>Node26</title>
<g id="a_node26"><a xlink:href="../../df/da1/definition_8h.html" target="_top" xlink:title=" ">
<polygon fill="white" stroke="#666666" points="533.5,-294 462.5,-294 462.5,-275 533.5,-275 533.5,-294"/>
<text text-anchor="middle" x="498" y="-282" font-family="Helvetica,sans-Serif" font-size="10.00">definition.h</text>
</a>
</g>
</g>
<!-- Node25&#45;&gt;Node26 -->
<g id="edge45" class="edge">
<title>Node25&#45;&gt;Node26</title>
<path fill="none" stroke="#63b8ff" d="M150.6,-334.73C213.76,-325.78 373.4,-303.16 452.35,-291.97"/>
<polygon fill="#63b8ff" stroke="#63b8ff" points="453.07,-295.4 462.48,-290.53 452.09,-288.47 453.07,-295.4"/>
</g>
<!-- Node26&#45;&gt;Node4 -->
<g id="edge46" class="edge">
<title>Node26&#45;&gt;Node4</title>
<path fill="none" stroke="#63b8ff" d="M528.75,-274.87C551.04,-267.64 581.16,-255.78 604,-239 643.24,-210.17 676.96,-162.92 693.36,-137.67"/>
<polygon fill="#63b8ff" stroke="#63b8ff" points="696.36,-139.47 698.78,-129.16 690.46,-135.72 696.36,-139.47"/>
</g>
<!-- Node26&#45;&gt;Node13 -->
<g id="edge47" class="edge">
<title>Node26&#45;&gt;Node13</title>
<path fill="none" stroke="#63b8ff" d="M462.29,-276.02C414.45,-266 329.99,-248.3 281.67,-238.18"/>
<polygon fill="#63b8ff" stroke="#63b8ff" points="282.15,-234.71 271.64,-236.08 280.71,-241.56 282.15,-234.71"/>
</g>
<!-- Node26&#45;&gt;Node23 -->
<g id="edge48" class="edge">
<title>Node26&#45;&gt;Node23</title>
<path fill="none" stroke="#63b8ff" d="M487.24,-274.98C477.23,-267.07 462.11,-255.11 450.07,-245.58"/>
<polygon fill="#63b8ff" stroke="#63b8ff" points="451.97,-242.63 441.96,-239.17 447.63,-248.12 451.97,-242.63"/>
</g>
<!-- Node27&#45;&gt;Node4 -->
<g id="edge50" class="edge">
<title>Node27&#45;&gt;Node4</title>
<path fill="none" stroke="#63b8ff" d="M561.12,-442.42C642.87,-429.17 818,-394.5 818,-340.5 818,-340.5 818,-340.5 818,-228.5 818,-182.47 768.42,-150.18 734.65,-133.53"/>
<polygon fill="#63b8ff" stroke="#63b8ff" points="735.71,-130.16 725.18,-129.05 732.72,-136.49 735.71,-130.16"/>
</g>
<!-- Node27&#45;&gt;Node11 -->
<g id="edge70" class="edge">
<title>Node27&#45;&gt;Node11</title>
<path fill="none" stroke="#63b8ff" d="M509.17,-439.75C488.32,-422.79 441.36,-384.02 404,-349 387.43,-333.47 369.39,-314.77 357.06,-301.7"/>
<polygon fill="#63b8ff" stroke="#63b8ff" points="359.58,-299.27 350.19,-294.37 354.47,-304.06 359.58,-299.27"/>
</g>
<!-- Node27&#45;&gt;Node13 -->
<g id="edge69" class="edge">
<title>Node27&#45;&gt;Node13</title>
<path fill="none" stroke="#63b8ff" d="M491.12,-439.86C437.16,-422.12 321.38,-376.16 265,-294 255.7,-280.45 250.56,-262.36 247.83,-248.96"/>
<polygon fill="#63b8ff" stroke="#63b8ff" points="251.26,-248.24 246.06,-239 244.36,-249.46 251.26,-248.24"/>
</g>
<!-- Node27&#45;&gt;Node15 -->
<g id="edge51" class="edge">
<title>Node27&#45;&gt;Node15</title>
<path fill="none" stroke="#63b8ff" d="M478.76,-448.69C355.77,-448.14 0,-438.12 0,-340.5 0,-340.5 0,-340.5 0,-173.5 0,-138.12 17.31,-127.59 48,-110 55.22,-105.86 286.08,-80.51 382.91,-70.03"/>
<polygon fill="#63b8ff" stroke="#63b8ff" points="383.38,-73.5 392.94,-68.95 382.63,-66.54 383.38,-73.5"/>
</g>
<!-- Node27&#45;&gt;Node24 -->
<g id="edge68" class="edge">
<title>Node27&#45;&gt;Node24</title>
<path fill="none" stroke="#63b8ff" d="M551.66,-439.96C591.23,-427.4 657.27,-399.72 686,-349 697.33,-328.99 680.48,-286.36 670,-275 639.67,-242.11 517.46,-204.94 451.58,-186.74"/>
<polygon fill="#63b8ff" stroke="#63b8ff" points="452.47,-183.36 441.9,-184.1 450.62,-190.11 452.47,-183.36"/>
</g>
<!-- Node28 -->
<g id="node28" class="node">
<title>Node28</title>
<g id="a_node28"><a xlink:href="../../d4/d46/memberdef_8h.html" target="_top" xlink:title=" ">
<polygon fill="white" stroke="#666666" points="561,-404 479,-404 479,-385 561,-385 561,-404"/>
<text text-anchor="middle" x="520" y="-392" font-family="Helvetica,sans-Serif" font-size="10.00">memberdef.h</text>
</a>
</g>
</g>
<!-- Node27&#45;&gt;Node28 -->
<g id="edge52" class="edge">
<title>Node27&#45;&gt;Node28</title>
<path fill="none" stroke="#63b8ff" d="M520,-439.75C520,-432.8 520,-422.85 520,-414.13"/>
<polygon fill="#63b8ff" stroke="#63b8ff" points="523.5,-414.09 520,-404.09 516.5,-414.09 523.5,-414.09"/>
</g>
<!-- Node28&#45;&gt;Node4 -->
<g id="edge53" class="edge">
<title>Node28&#45;&gt;Node4</title>
<path fill="none" stroke="#63b8ff" d="M561.34,-387.59C604.87,-380.51 669.38,-367.26 686,-349 739.97,-289.72 720.14,-182.23 709.25,-139.12"/>
<polygon fill="#63b8ff" stroke="#63b8ff" points="712.61,-138.16 706.66,-129.4 705.85,-139.97 712.61,-138.16"/>
</g>
<!-- Node28&#45;&gt;Node12 -->
<g id="edge54" class="edge">
<title>Node28&#45;&gt;Node12</title>
<path fill="none" stroke="#63b8ff" d="M507.91,-384.71C496.67,-376.23 479.78,-362.71 467,-349 436.08,-315.84 362.7,-226.53 347,-184 341.67,-169.56 340.66,-152.04 340.84,-139.07"/>
<polygon fill="#63b8ff" stroke="#63b8ff" points="344.34,-139.16 341.24,-129.03 337.35,-138.88 344.34,-139.16"/>
</g>
<!-- Node28&#45;&gt;Node13 -->
<g id="edge56" class="edge">
<title>Node28&#45;&gt;Node13</title>
<path fill="none" stroke="#63b8ff" d="M480.51,-384.97C430.16,-372.4 342.75,-344.73 285,-294 270.66,-281.41 259.64,-262.44 252.83,-248.51"/>
<polygon fill="#63b8ff" stroke="#63b8ff" points="256,-247.04 248.63,-239.43 249.65,-249.97 256,-247.04"/>
</g>
<!-- Node28&#45;&gt;Node26 -->
<g id="edge57" class="edge">
<title>Node28&#45;&gt;Node26</title>
<path fill="none" stroke="#63b8ff" d="M533.73,-384.91C550.76,-373.11 576.24,-350.96 565,-330 557.49,-316 543.43,-305.66 530.12,-298.48"/>
<polygon fill="#63b8ff" stroke="#63b8ff" points="531.63,-295.33 521.11,-294.02 528.52,-301.6 531.63,-295.33"/>
</g>
<!-- Node29 -->
<g id="node29" class="node">
<title>Node29</title>
<g id="a_node29"><a xlink:title=" ">
<polygon fill="#e0e0e0" stroke="#999999" points="556,-349 484,-349 484,-330 556,-330 556,-349"/>
<text text-anchor="middle" x="520" y="-337" font-family="Helvetica,sans-Serif" font-size="10.00">sys/types.h</text>
</a>
</g>
</g>
<!-- Node28&#45;&gt;Node29 -->
<g id="edge55" class="edge">
<title>Node28&#45;&gt;Node29</title>
<path fill="none" stroke="#63b8ff" d="M520,-384.75C520,-377.8 520,-367.85 520,-359.13"/>
<polygon fill="#63b8ff" stroke="#63b8ff" points="523.5,-359.09 520,-349.09 516.5,-359.09 523.5,-359.09"/>
</g>
<!-- Node30 -->
<g id="node30" class="node">
<title>Node30</title>
<g id="a_node30"><a xlink:href="../../df/d9b/arguments_8h.html" target="_top" xlink:title=" ">
<polygon fill="white" stroke="#666666" points="661,-294 583,-294 583,-275 661,-275 661,-294"/>
<text text-anchor="middle" x="622" y="-282" font-family="Helvetica,sans-Serif" font-size="10.00">arguments.h</text>
</a>
</g>
</g>
<!-- Node28&#45;&gt;Node30 -->
<g id="edge58" class="edge">
<title>Node28&#45;&gt;Node30</title>
<path fill="none" stroke="#63b8ff" d="M506.32,-384.99C488.33,-372.73 460.59,-349.42 475,-330 486.85,-314.03 534.8,-301.56 572.76,-293.94"/>
<polygon fill="#63b8ff" stroke="#63b8ff" points="573.52,-297.36 582.66,-292.01 572.18,-290.48 573.52,-297.36"/>
</g>
<!-- Node31 -->
<g id="node31" class="node">
<title>Node31</title>
<g id="a_node31"><a xlink:href="../../d1/da6/classdef_8h.html" target="_top" xlink:title=" ">
<polygon fill="white" stroke="#666666" points="677.5,-349 612.5,-349 612.5,-330 677.5,-330 677.5,-349"/>
<text text-anchor="middle" x="645" y="-337" font-family="Helvetica,sans-Serif" font-size="10.00">classdef.h</text>
</a>
</g>
</g>
<!-- Node28&#45;&gt;Node31 -->
<g id="edge61" class="edge">
<title>Node28&#45;&gt;Node31</title>
<path fill="none" stroke="#63b8ff" d="M540.08,-384.98C560.37,-376.38 591.96,-362.99 615.17,-353.15"/>
<polygon fill="#63b8ff" stroke="#63b8ff" points="616.71,-356.3 624.55,-349.17 613.98,-349.85 616.71,-356.3"/>
</g>
<!-- Node30&#45;&gt;Node4 -->
<g id="edge59" class="edge">
<title>Node30&#45;&gt;Node4</title>
<path fill="none" stroke="#63b8ff" d="M627.62,-274.98C638.61,-258.1 663.32,-219.02 680,-184 687.05,-169.2 693.52,-151.75 697.96,-138.88"/>
<polygon fill="#63b8ff" stroke="#63b8ff" points="701.31,-139.91 701.19,-129.32 694.68,-137.68 701.31,-139.91"/>
</g>
<!-- Node30&#45;&gt;Node14 -->
<g id="edge60" class="edge">
<title>Node30&#45;&gt;Node14</title>
<path fill="none" stroke="#63b8ff" d="M582.69,-277.72C527.06,-269.2 428.4,-252.81 395,-239 338.23,-215.52 285.34,-163.66 260.63,-137.01"/>
<polygon fill="#63b8ff" stroke="#63b8ff" points="262.95,-134.36 253.63,-129.32 257.77,-139.07 262.95,-134.36"/>
</g>
<!-- Node31&#45;&gt;Node3 -->
<g id="edge64" class="edge">
<title>Node31&#45;&gt;Node3</title>
<path fill="none" stroke="#63b8ff" d="M677.57,-337.19C744.75,-333.91 895.84,-323.39 937,-294 971.06,-269.68 987.9,-220.86 994.87,-194.1"/>
<polygon fill="#63b8ff" stroke="#63b8ff" points="998.34,-194.66 997.28,-184.12 991.54,-193.01 998.34,-194.66"/>
</g>
<!-- Node31&#45;&gt;Node4 -->
<g id="edge62" class="edge">
<title>Node31&#45;&gt;Node4</title>
<path fill="none" stroke="#63b8ff" d="M650.69,-329.97C656.28,-321.26 664.73,-307.16 670,-294 688.74,-247.16 689.38,-233.71 698,-184 700.58,-169.13 702.11,-152.1 702.98,-139.42"/>
<polygon fill="#63b8ff" stroke="#63b8ff" points="706.49,-139.38 703.61,-129.18 699.5,-138.95 706.49,-139.38"/>
</g>
<!-- Node31&#45;&gt;Node6 -->
<g id="edge63" class="edge">
<title>Node31&#45;&gt;Node6</title>
<path fill="none" stroke="#63b8ff" d="M677.59,-337.57C736.33,-333.91 858.88,-316.83 913,-239 922.03,-226.02 926.81,-190.51 908,-165 902.84,-158 856.07,-140.39 825.79,-129.54"/>
<polygon fill="#63b8ff" stroke="#63b8ff" points="826.84,-126.19 816.24,-126.14 824.49,-132.79 826.84,-126.19"/>
</g>
<!-- Node31&#45;&gt;Node11 -->
<g id="edge67" class="edge">
<title>Node31&#45;&gt;Node11</title>
<path fill="none" stroke="#63b8ff" d="M612.29,-332.78C561.48,-323.89 462.91,-306.65 399.88,-295.62"/>
<polygon fill="#63b8ff" stroke="#63b8ff" points="400.16,-292.12 389.7,-293.84 398.95,-299.01 400.16,-292.12"/>
</g>
<!-- Node31&#45;&gt;Node26 -->
<g id="edge65" class="edge">
<title>Node31&#45;&gt;Node26</title>
<path fill="none" stroke="#63b8ff" d="M621.38,-329.98C597.1,-321.23 559.05,-307.51 531.63,-297.62"/>
<polygon fill="#63b8ff" stroke="#63b8ff" points="532.64,-294.27 522.05,-294.17 530.27,-300.85 532.64,-294.27"/>
</g>
<!-- Node31&#45;&gt;Node30 -->
<g id="edge66" class="edge">
<title>Node31&#45;&gt;Node30</title>
<path fill="none" stroke="#63b8ff" d="M641.2,-329.75C638.09,-322.57 633.58,-312.18 629.71,-303.27"/>
<polygon fill="#63b8ff" stroke="#63b8ff" points="632.92,-301.87 625.73,-294.09 626.5,-304.66 632.92,-301.87"/>
</g>
<!-- Node32&#45;&gt;Node3 -->
<g id="edge77" class="edge">
<title>Node32&#45;&gt;Node3</title>
<path fill="none" stroke="#63b8ff" d="M895.76,-219.98C915.73,-211.38 946.8,-197.99 969.65,-188.15"/>
<polygon fill="#63b8ff" stroke="#63b8ff" points="971.08,-191.34 978.88,-184.17 968.31,-184.91 971.08,-191.34"/>
</g>
<!-- Node32&#45;&gt;Node4 -->
<g id="edge72" class="edge">
<title>Node32&#45;&gt;Node4</title>
<path fill="none" stroke="#63b8ff" d="M872.18,-219.8C865.78,-206.2 851.65,-179.93 832,-165 816.96,-153.57 770.4,-138.97 737.8,-129.67"/>
<polygon fill="#63b8ff" stroke="#63b8ff" points="738.34,-126.18 727.76,-126.85 736.44,-132.92 738.34,-126.18"/>
</g>
<!-- Node32&#45;&gt;Node5 -->
<g id="edge74" class="edge">
<title>Node32&#45;&gt;Node5</title>
<path fill="none" stroke="#63b8ff" d="M875.3,-219.58C873.79,-206.17 869.15,-180.7 855,-165 828.89,-136.04 805.89,-152.79 775,-129 737.23,-99.9 705.09,-53.1 689.35,-27.9"/>
<polygon fill="#63b8ff" stroke="#63b8ff" points="692.18,-25.81 683.98,-19.1 686.2,-29.46 692.18,-25.81"/>
</g>
<!-- Node32&#45;&gt;Node9 -->
<g id="edge75" class="edge">
<title>Node32&#45;&gt;Node9</title>
<path fill="none" stroke="#63b8ff" d="M904.37,-226.4C954.89,-222.02 1057.24,-210.09 1080,-184 1090.55,-171.9 1090.75,-153.1 1088.93,-139.09"/>
<polygon fill="#63b8ff" stroke="#63b8ff" points="1092.36,-138.36 1087.21,-129.1 1085.46,-139.55 1092.36,-138.36"/>
</g>
<!-- Node32&#45;&gt;Node12 -->
<g id="edge73" class="edge">
<title>Node32&#45;&gt;Node12</title>
<path fill="none" stroke="#63b8ff" d="M847.8,-222.67C793.35,-211.41 669.93,-185.97 566,-165 501.1,-151.91 425.55,-136.96 380.87,-128.15"/>
<polygon fill="#63b8ff" stroke="#63b8ff" points="381.5,-124.71 371.01,-126.21 380.14,-131.57 381.5,-124.71"/>
</g>
<!-- Node32&#45;&gt;Node14 -->
<g id="edge76" class="edge">
<title>Node32&#45;&gt;Node14</title>
<path fill="none" stroke="#63b8ff" d="M847.71,-224.95C793.11,-217.99 669.44,-201.67 566,-184 466.25,-166.96 349.87,-142.77 288.66,-129.72"/>
<polygon fill="#63b8ff" stroke="#63b8ff" points="289.11,-126.24 278.6,-127.57 287.65,-133.08 289.11,-126.24"/>
</g>
<!-- Node33&#45;&gt;Node2 -->
<g id="edge81" class="edge">
<title>Node33&#45;&gt;Node2</title>
<path fill="none" stroke="#63b8ff" d="M1310.66,-164.75C1311.18,-157.8 1311.94,-147.85 1312.59,-139.13"/>
<polygon fill="#63b8ff" stroke="#63b8ff" points="1316.09,-139.32 1313.35,-129.09 1309.11,-138.8 1316.09,-139.32"/>
</g>
<!-- Node33&#45;&gt;Node9 -->
<g id="edge80" class="edge">
<title>Node33&#45;&gt;Node9</title>
<path fill="none" stroke="#63b8ff" d="M1282.86,-167.11C1245.26,-158.25 1176.81,-142.13 1131.11,-131.36"/>
<polygon fill="#63b8ff" stroke="#63b8ff" points="1131.69,-127.9 1121.16,-129.02 1130.09,-134.72 1131.69,-127.9"/>
</g>
<!-- Node34 -->
<g id="node34" class="node">
<title>Node34</title>
<g id="a_node34"><a xlink:title=" ">
<polygon fill="#e0e0e0" stroke="#999999" points="1388,-129 1356,-129 1356,-110 1388,-110 1388,-129"/>
<text text-anchor="middle" x="1372" y="-117" font-family="Helvetica,sans-Serif" font-size="10.00">list</text>
</a>
</g>
</g>
<!-- Node33&#45;&gt;Node34 -->
<g id="edge79" class="edge">
<title>Node33&#45;&gt;Node34</title>
<path fill="none" stroke="#63b8ff" d="M1319.96,-164.98C1329.13,-157.15 1342.94,-145.34 1354.03,-135.86"/>
<polygon fill="#63b8ff" stroke="#63b8ff" points="1356.53,-138.33 1361.86,-129.17 1351.98,-133.01 1356.53,-138.33"/>
</g>
<!-- Node35 -->
<g id="node35" class="node">
<title>Node35</title>
<g id="a_node35"><a xlink:title=" ">
<polygon fill="#e0e0e0" stroke="#999999" points="1271.5,-129 1226.5,-129 1226.5,-110 1271.5,-110 1271.5,-129"/>
<text text-anchor="middle" x="1249" y="-117" font-family="Helvetica,sans-Serif" font-size="10.00">utility</text>
</a>
</g>
</g>
<!-- Node33&#45;&gt;Node35 -->
<g id="edge82" class="edge">
<title>Node33&#45;&gt;Node35</title>
<path fill="none" stroke="#63b8ff" d="M1300.2,-164.98C1291.18,-157.15 1277.59,-145.34 1266.68,-135.86"/>
<polygon fill="#63b8ff" stroke="#63b8ff" points="1268.82,-133.09 1258.98,-129.17 1264.23,-138.37 1268.82,-133.09"/>
</g>
<!-- Node36 -->
<g id="node36" class="node">
<title>Node36</title>
<g id="a_node36"><a xlink:title=" ">
<polygon fill="#e0e0e0" stroke="#999999" points="1459.5,-129 1406.5,-129 1406.5,-110 1459.5,-110 1459.5,-129"/>
<text text-anchor="middle" x="1433" y="-117" font-family="Helvetica,sans-Serif" font-size="10.00">ctype.h</text>
</a>
</g>
</g>
<!-- Node33&#45;&gt;Node36 -->
<g id="edge83" class="edge">
<title>Node33&#45;&gt;Node36</title>
<path fill="none" stroke="#63b8ff" d="M1329.76,-164.98C1349.73,-156.38 1380.8,-142.99 1403.65,-133.15"/>
<polygon fill="#63b8ff" stroke="#63b8ff" points="1405.08,-136.34 1412.88,-129.17 1402.31,-129.91 1405.08,-136.34"/>
</g>
<!-- Node37&#45;&gt;Node4 -->
<g id="edge87" class="edge">
<title>Node37&#45;&gt;Node4</title>
<path fill="none" stroke="#63b8ff" d="M1132.34,-168.97C1059.75,-161.04 905.34,-144.07 775,-129 762.91,-127.6 749.68,-126.03 737.94,-124.62"/>
<polygon fill="#63b8ff" stroke="#63b8ff" points="738.01,-121.1 727.66,-123.38 737.17,-128.05 738.01,-121.1"/>
</g>
<!-- Node37&#45;&gt;Node5 -->
<g id="edge88" class="edge">
<title>Node37&#45;&gt;Node5</title>
<path fill="none" stroke="#63b8ff" d="M1175.19,-164.85C1176.53,-151.32 1176.95,-125.14 1163,-110 1101.39,-43.09 809.76,-18.76 711.45,-12.38"/>
<polygon fill="#63b8ff" stroke="#63b8ff" points="711.43,-8.87 701.23,-11.73 710.99,-15.85 711.43,-8.87"/>
</g>
<!-- Node37&#45;&gt;Node9 -->
<g id="edge86" class="edge">
<title>Node37&#45;&gt;Node9</title>
<path fill="none" stroke="#63b8ff" d="M1159.7,-164.98C1145.9,-156.77 1124.76,-144.18 1108.49,-134.49"/>
<polygon fill="#63b8ff" stroke="#63b8ff" points="1109.94,-131.28 1099.56,-129.17 1106.36,-137.29 1109.94,-131.28"/>
</g>
<!-- Node37&#45;&gt;Node15 -->
<g id="edge85" class="edge">
<title>Node37&#45;&gt;Node15</title>
<path fill="none" stroke="#63b8ff" d="M1172.17,-164.65C1168.68,-150.35 1159.63,-122.48 1140,-110 1078.87,-71.14 576.48,-82.75 467.24,-73.69"/>
<polygon fill="#63b8ff" stroke="#63b8ff" points="467.46,-70.19 457.15,-72.64 466.74,-77.15 467.46,-70.19"/>
</g>
<!-- Node37&#45;&gt;Node35 -->
<g id="edge89" class="edge">
<title>Node37&#45;&gt;Node35</title>
<path fill="none" stroke="#63b8ff" d="M1186.05,-164.98C1197.46,-156.92 1214.83,-144.65 1228.43,-135.03"/>
<polygon fill="#63b8ff" stroke="#63b8ff" points="1230.58,-137.8 1236.73,-129.17 1226.54,-132.08 1230.58,-137.8"/>
</g>
</g>
</svg>
        <g id="navigator" transform="translate(0 0)" fill="#404254">
                <rect fill="#f2f5e9" fill-opacity="0.5" stroke="#606060" stroke-width=".5" x="0" y="0" width="60" height="60"/>
                <use id="zoomplus" xlink:href="#zoomPlus" x="17" y="9" onmousedown="handleZoom(evt,'in')"/>
                <use id="zoomminus" xlink:href="#zoomMin" x="42" y="9" onmousedown="handleZoom(evt,'out')"/>
                <use id="reset" xlink:href="#resetDef" x="30" y="36" onmousedown="handleReset()"/>
                <g id="arrowUp" xlink:href="#dirArrow" transform="translate(30 24)" onmousedown="handlePan(0,-1)">
                  <use xlink:href="#rim" fill="#404040">
                        <set attributeName="fill" to="#808080" begin="arrowUp.mouseover" end="arrowUp.mouseout"/>
                  </use>
                  <path fill="none" stroke="white" stroke-width="1.5" d="M0,-3.0v7 M-2.5,-0.5L0,-3.0L2.5,-0.5"/>
                </g>
                <g id="arrowRight" xlink:href="#dirArrow" transform="rotate(90) translate(36 -43)" onmousedown="handlePan(1,0)">
                  <use xlink:href="#rim" fill="#404040">
                        <set attributeName="fill" to="#808080" begin="arrowRight.mouseover" end="arrowRight.mouseout"/>
                  </use>
                  <path fill="none" stroke="white" stroke-width="1.5" d="M0,-3.0v7 M-2.5,-0.5L0,-3.0L2.5,-0.5"/>
                </g>
                <g id="arrowDown" xlink:href="#dirArrow" transform="rotate(180) translate(-30 -48)" onmousedown="handlePan(0,1)">
                  <use xlink:href="#rim" fill="#404040">
                        <set attributeName="fill" to="#808080" begin="arrowDown.mouseover" end="arrowDown.mouseout"/>
                  </use>
                  <path fill="none" stroke="white" stroke-width="1.5" d="M0,-3.0v7 M-2.5,-0.5L0,-3.0L2.5,-0.5"/>
                </g>
                <g id="arrowLeft" xlink:href="#dirArrow" transform="rotate(270) translate(-36 17)" onmousedown="handlePan(-1,0)">
                  <use xlink:href="#rim" fill="#404040">
                        <set attributeName="fill" to="#808080" begin="arrowLeft.mouseover" end="arrowLeft.mouseout"/>
                  </use>
                  <path fill="none" stroke="white" stroke-width="1.5" d="M0,-3.0v7 M-2.5,-0.5L0,-3.0L2.5,-0.5"/>
                </g>
        </g>
        <svg viewBox="0 0 15 15" width="100%" height="30px" preserveAspectRatio="xMaxYMin meet">
         <g id="arrow_out" transform="scale(0.3 0.3)">
          <a xlink:href="doxygen_8h__incl_org.svg" target="_base">
           <rect id="button" ry="5" rx="5" y="6" x="6" height="38" width="38"
                fill="#f2f5e9" fill-opacity="0.5" stroke="#606060" stroke-width="1.0"/>
           <path id="arrow"
             d="M 11.500037,31.436501 C 11.940474,20.09759 22.043105,11.32322 32.158766,21.979434 L 37.068811,17.246167 C 37.068811,17.246167 37.088388,32 37.088388,32 L 22.160133,31.978069 C 22.160133,31.978069 26.997745,27.140456 26.997745,27.140456 C 18.528582,18.264221 13.291696,25.230495 11.500037,31.436501 z"
             style="fill:#404040;"/>
          </a>
         </g>
        </svg>
</svg>
