<?xml version="1.0" encoding="UTF-8" standalone="no"?>
<!DOCTYPE svg PUBLIC "-//W3C//DTD SVG 1.1//EN"
 "http://www.w3.org/Graphics/SVG/1.1/DTD/svg11.dtd">
<!-- Generated by graphviz version 2.43.0 (0)
 -->
<!-- Title: FileDefImpl Pages: 1 -->
<svg width="322pt" height="205pt"
 viewBox="0.00 0.00 321.50 205.00" xmlns="http://www.w3.org/2000/svg" xmlns:xlink="http://www.w3.org/1999/xlink">
<g id="graph0" class="graph" transform="scale(1 1) rotate(0) translate(4 201)">
<title>FileDefImpl</title>
<!-- Node1 -->
<g id="node1" class="node">
<title>Node1</title>
<g id="a_node1"><a xlink:title=" ">
<polygon fill="#999999" stroke="#666666" points="224.5,-19 151.5,-19 151.5,0 224.5,0 224.5,-19"/>
<text text-anchor="middle" x="188" y="-7" font-family="Helvetica,sans-Serif" font-size="10.00">FileDefImpl</text>
</a>
</g>
</g>
<!-- Node2 -->
<g id="node2" class="node">
<title>Node2</title>
<g id="a_node2"><a xlink:href="../../dd/d10/class_definition_mixin.html" target="_top" xlink:title=" ">
<polygon fill="white" stroke="#666666" points="262,-75 114,-75 114,-56 262,-56 262,-75"/>
<text text-anchor="middle" x="188" y="-63" font-family="Helvetica,sans-Serif" font-size="10.00">DefinitionMixin&lt; FileDef &gt;</text>
</a>
</g>
</g>
<!-- Node2&#45;&gt;Node1 -->
<g id="edge1" class="edge">
<title>Node2&#45;&gt;Node1</title>
<path fill="none" stroke="#63b8ff" d="M188,-45.3C188,-36.41 188,-26.28 188,-19.25"/>
<polygon fill="#63b8ff" stroke="#63b8ff" points="184.5,-45.58 188,-55.58 191.5,-45.58 184.5,-45.58"/>
</g>
<!-- Node3 -->
<g id="node3" class="node">
<title>Node3</title>
<g id="a_node3"><a xlink:href="../../de/db0/class_file_def.html" target="_top" xlink:title="A model of a file symbol.">
<polygon fill="white" stroke="#666666" points="158.5,-141 107.5,-141 107.5,-122 158.5,-122 158.5,-141"/>
<text text-anchor="middle" x="133" y="-129" font-family="Helvetica,sans-Serif" font-size="10.00">FileDef</text>
</a>
</g>
</g>
<!-- Node3&#45;&gt;Node2 -->
<g id="edge2" class="edge">
<title>Node3&#45;&gt;Node2</title>
<path fill="none" stroke="#63b8ff" d="M147.07,-114.12C157.66,-101.81 171.76,-85.39 180.35,-75.41"/>
<polygon fill="#63b8ff" stroke="#63b8ff" points="144.28,-112 140.42,-121.87 149.59,-116.57 144.28,-112"/>
</g>
<!-- Node4 -->
<g id="node4" class="node">
<title>Node4</title>
<g id="a_node4"><a xlink:href="../../d0/d46/class_definition_mutable.html" target="_top" xlink:title=" ">
<polygon fill="white" stroke="#666666" points="104,-197 0,-197 0,-178 104,-178 104,-197"/>
<text text-anchor="middle" x="52" y="-185" font-family="Helvetica,sans-Serif" font-size="10.00">DefinitionMutable</text>
</a>
</g>
</g>
<!-- Node4&#45;&gt;Node3 -->
<g id="edge3" class="edge">
<title>Node4&#45;&gt;Node3</title>
<path fill="none" stroke="#63b8ff" d="M73.57,-172.12C88.36,-162.26 107.51,-149.49 120.02,-141.15"/>
<polygon fill="#63b8ff" stroke="#63b8ff" points="71.39,-169.36 65.01,-177.82 75.28,-175.19 71.39,-169.36"/>
</g>
<!-- Node5 -->
<g id="node5" class="node">
<title>Node5</title>
<g id="a_node5"><a xlink:href="../../d5/dcc/class_definition.html" target="_top" xlink:title="The common base class of all entity definitions found in the sources.">
<polygon fill="white" stroke="#666666" points="186,-197 122,-197 122,-178 186,-178 186,-197"/>
<text text-anchor="middle" x="154" y="-185" font-family="Helvetica,sans-Serif" font-size="10.00">Definition</text>
</a>
</g>
</g>
<!-- Node5&#45;&gt;Node3 -->
<g id="edge4" class="edge">
<title>Node5&#45;&gt;Node3</title>
<path fill="none" stroke="#63b8ff" d="M146.88,-168.19C143.34,-159.09 139.23,-148.51 136.4,-141.25"/>
<polygon fill="#63b8ff" stroke="#63b8ff" points="143.65,-169.53 150.53,-177.58 150.17,-166.99 143.65,-169.53"/>
</g>
<!-- Node6 -->
<g id="node6" class="node">
<title>Node6</title>
<g id="a_node6"><a xlink:href="../../dd/d10/class_definition_mixin.html" target="_top" xlink:title=" ">
<polygon fill="white" stroke="#666666" points="313.5,-141 176.5,-141 176.5,-122 313.5,-122 313.5,-141"/>
<text text-anchor="middle" x="245" y="-129" font-family="Helvetica,sans-Serif" font-size="10.00">DefinitionMixin&lt; Base &gt;</text>
</a>
</g>
</g>
<!-- Node6&#45;&gt;Node2 -->
<g id="edge5" class="edge">
<title>Node6&#45;&gt;Node2</title>
<path fill="none" stroke="orange" stroke-dasharray="5,2" d="M230.41,-114.12C219.44,-101.81 204.83,-85.39 195.93,-75.41"/>
<polygon fill="orange" stroke="orange" points="228.05,-116.73 237.31,-121.87 233.28,-112.07 228.05,-116.73"/>
<text text-anchor="middle" x="250.5" y="-96" font-family="Helvetica,sans-Serif" font-size="10.00" fill="grey"> &lt; FileDef &gt;</text>
</g>
<!-- Node7 -->
<g id="node7" class="node">
<title>Node7</title>
<g id="a_node7"><a xlink:title=" ">
<polygon fill="white" stroke="#666666" points="265.5,-197 224.5,-197 224.5,-178 265.5,-178 265.5,-197"/>
<text text-anchor="middle" x="245" y="-185" font-family="Helvetica,sans-Serif" font-size="10.00">Base</text>
</a>
</g>
</g>
<!-- Node7&#45;&gt;Node6 -->
<g id="edge6" class="edge">
<title>Node7&#45;&gt;Node6</title>
<path fill="none" stroke="#63b8ff" d="M245,-167.3C245,-158.41 245,-148.28 245,-141.25"/>
<polygon fill="#63b8ff" stroke="#63b8ff" points="241.5,-167.58 245,-177.58 248.5,-167.58 241.5,-167.58"/>
</g>
</g>
</svg>
