<?xml version="1.0" encoding="UTF-8" standalone="no"?>
<!DOCTYPE svg PUBLIC "-//W3C//DTD SVG 1.1//EN"
 "http://www.w3.org/Graphics/SVG/1.1/DTD/svg11.dtd">
<!-- Generated by graphviz version 2.43.0 (0)
 -->
<!-- Title: /home/runner/work/doxygen/doxygen/src/dotgfxhierarchytable.h Pages: 1 -->
<svg width="1253pt" height="423pt"
 viewBox="0.00 0.00 1252.77 423.00" xmlns="http://www.w3.org/2000/svg" xmlns:xlink="http://www.w3.org/1999/xlink">
<g id="graph0" class="graph" transform="scale(1 1) rotate(0) translate(4 419)">
<title>/home/runner/work/doxygen/doxygen/src/dotgfxhierarchytable.h</title>
<!-- Node1 -->
<g id="node1" class="node">
<title>Node1</title>
<g id="a_node1"><a xlink:title=" ">
<polygon fill="#999999" stroke="#666666" points="1043.27,-415 850.27,-415 850.27,-385 1043.27,-385 1043.27,-415"/>
<text text-anchor="start" x="858.27" y="-403" font-family="Helvetica,sans-Serif" font-size="10.00">/home/runner/work/doxygen</text>
<text text-anchor="middle" x="946.77" y="-392" font-family="Helvetica,sans-Serif" font-size="10.00">/doxygen/src/dotgfxhierarchytable.h</text>
</a>
</g>
</g>
<!-- Node2 -->
<g id="node2" class="node">
<title>Node2</title>
<g id="a_node2"><a xlink:title=" ">
<polygon fill="#e0e0e0" stroke="#999999" points="1025.77,-129 967.77,-129 967.77,-110 1025.77,-110 1025.77,-129"/>
<text text-anchor="middle" x="996.77" y="-117" font-family="Helvetica,sans-Serif" font-size="10.00">memory</text>
</a>
</g>
</g>
<!-- Node1&#45;&gt;Node2 -->
<g id="edge1" class="edge">
<title>Node1&#45;&gt;Node2</title>
<path fill="none" stroke="#63b8ff" d="M1035.36,-384.93C1090.41,-370.56 1150.77,-341.94 1150.77,-285.5 1150.77,-285.5 1150.77,-285.5 1150.77,-228.5 1150.77,-172.49 1081.64,-143.05 1036.01,-129.72"/>
<polygon fill="#63b8ff" stroke="#63b8ff" points="1036.67,-126.27 1026.1,-126.97 1034.8,-133.02 1036.67,-126.27"/>
</g>
<!-- Node3 -->
<g id="node3" class="node">
<title>Node3</title>
<g id="a_node3"><a xlink:title=" ">
<polygon fill="#e0e0e0" stroke="#999999" points="1087.77,-19 1043.77,-19 1043.77,0 1087.77,0 1087.77,-19"/>
<text text-anchor="middle" x="1065.77" y="-7" font-family="Helvetica,sans-Serif" font-size="10.00">string</text>
</a>
</g>
</g>
<!-- Node1&#45;&gt;Node3 -->
<g id="edge2" class="edge">
<title>Node1&#45;&gt;Node3</title>
<path fill="none" stroke="#63b8ff" d="M1025.85,-384.95C1114.13,-366.96 1244.77,-332.42 1244.77,-285.5 1244.77,-285.5 1244.77,-285.5 1244.77,-118.5 1244.77,-84.49 1148.83,-42.39 1097.43,-22.28"/>
<polygon fill="#63b8ff" stroke="#63b8ff" points="1098.67,-19 1088.08,-18.67 1096.15,-25.54 1098.67,-19"/>
</g>
<!-- Node4 -->
<g id="node4" class="node">
<title>Node4</title>
<g id="a_node4"><a xlink:title=" ">
<polygon fill="#e0e0e0" stroke="#999999" points="332.27,-129 239.27,-129 239.27,-110 332.27,-110 332.27,-129"/>
<text text-anchor="middle" x="285.77" y="-117" font-family="Helvetica,sans-Serif" font-size="10.00">unordered_map</text>
</a>
</g>
</g>
<!-- Node1&#45;&gt;Node4 -->
<g id="edge3" class="edge">
<title>Node1&#45;&gt;Node4</title>
<path fill="none" stroke="#63b8ff" d="M849.98,-397.39C608.88,-392.11 0.77,-370.38 0.77,-285.5 0.77,-285.5 0.77,-285.5 0.77,-228.5 0.77,-199.04 -2.32,-184.49 19.77,-165 50.04,-138.3 160.18,-127.38 228.88,-123.09"/>
<polygon fill="#63b8ff" stroke="#63b8ff" points="229.34,-126.57 239.12,-122.49 228.93,-119.59 229.34,-126.57"/>
</g>
<!-- Node5 -->
<g id="node5" class="node">
<title>Node5</title>
<g id="a_node5"><a xlink:title=" ">
<polygon fill="#e0e0e0" stroke="#999999" points="538.27,-129 491.27,-129 491.27,-110 538.27,-110 538.27,-129"/>
<text text-anchor="middle" x="514.77" y="-117" font-family="Helvetica,sans-Serif" font-size="10.00">vector</text>
</a>
</g>
</g>
<!-- Node1&#45;&gt;Node5 -->
<g id="edge4" class="edge">
<title>Node1&#45;&gt;Node5</title>
<path fill="none" stroke="#63b8ff" d="M850.03,-399.62C685.49,-398.03 368.77,-382.39 368.77,-285.5 368.77,-285.5 368.77,-285.5 368.77,-228.5 368.77,-172.9 438.06,-142.65 481.18,-129.21"/>
<polygon fill="#63b8ff" stroke="#63b8ff" points="482.4,-132.5 490.99,-126.3 480.41,-125.79 482.4,-132.5"/>
</g>
<!-- Node6 -->
<g id="node6" class="node">
<title>Node6</title>
<g id="a_node6"><a xlink:href="../../d1/da6/classdef_8h.html" target="_top" xlink:title=" ">
<polygon fill="white" stroke="#666666" points="654.27,-349 589.27,-349 589.27,-330 654.27,-330 654.27,-349"/>
<text text-anchor="middle" x="621.77" y="-337" font-family="Helvetica,sans-Serif" font-size="10.00">classdef.h</text>
</a>
</g>
</g>
<!-- Node1&#45;&gt;Node6 -->
<g id="edge5" class="edge">
<title>Node1&#45;&gt;Node6</title>
<path fill="none" stroke="#63b8ff" d="M868.93,-384.99C804.84,-373.45 716.39,-357.53 664.52,-348.19"/>
<polygon fill="#63b8ff" stroke="#63b8ff" points="665.12,-344.75 654.65,-346.42 663.87,-351.63 665.12,-344.75"/>
</g>
<!-- Node27 -->
<g id="node27" class="node">
<title>Node27</title>
<g id="a_node27"><a xlink:href="../../d0/daa/dotgraph_8h.html" target="_top" xlink:title=" ">
<polygon fill="white" stroke="#666666" points="1122.27,-239 1053.27,-239 1053.27,-220 1122.27,-220 1122.27,-239"/>
<text text-anchor="middle" x="1087.77" y="-227" font-family="Helvetica,sans-Serif" font-size="10.00">dotgraph.h</text>
</a>
</g>
</g>
<!-- Node1&#45;&gt;Node27 -->
<g id="edge53" class="edge">
<title>Node1&#45;&gt;Node27</title>
<path fill="none" stroke="#63b8ff" d="M958.55,-384.92C984.43,-353.99 1046.16,-280.23 1073.88,-247.1"/>
<polygon fill="#63b8ff" stroke="#63b8ff" points="1076.71,-249.17 1080.45,-239.25 1071.34,-244.68 1076.71,-249.17"/>
</g>
<!-- Node31 -->
<g id="node31" class="node">
<title>Node31</title>
<g id="a_node31"><a xlink:href="../../d8/d3b/dotnode_8h.html" target="_top" xlink:title=" ">
<polygon fill="white" stroke="#666666" points="979.27,-294 914.27,-294 914.27,-275 979.27,-275 979.27,-294"/>
<text text-anchor="middle" x="946.77" y="-282" font-family="Helvetica,sans-Serif" font-size="10.00">dotnode.h</text>
</a>
</g>
</g>
<!-- Node1&#45;&gt;Node31 -->
<g id="edge62" class="edge">
<title>Node1&#45;&gt;Node31</title>
<path fill="none" stroke="#63b8ff" d="M946.77,-384.63C946.77,-364.21 946.77,-326.81 946.77,-304.24"/>
<polygon fill="#63b8ff" stroke="#63b8ff" points="950.27,-304.23 946.77,-294.23 943.27,-304.23 950.27,-304.23"/>
</g>
<!-- Node6&#45;&gt;Node5 -->
<g id="edge6" class="edge">
<title>Node6&#45;&gt;Node5</title>
<path fill="none" stroke="#63b8ff" d="M601.72,-329.79C571.96,-315.65 517.12,-284.6 493.77,-239 478.78,-209.71 484,-196.97 491.77,-165 494.08,-155.51 498.79,-145.78 503.35,-137.85"/>
<polygon fill="#63b8ff" stroke="#63b8ff" points="506.41,-139.55 508.67,-129.2 500.45,-135.89 506.41,-139.55"/>
</g>
<!-- Node7 -->
<g id="node7" class="node">
<title>Node7</title>
<g id="a_node7"><a xlink:title=" ">
<polygon fill="#e0e0e0" stroke="#999999" points="60.77,-184 28.77,-184 28.77,-165 60.77,-165 60.77,-184"/>
<text text-anchor="middle" x="44.77" y="-172" font-family="Helvetica,sans-Serif" font-size="10.00">set</text>
</a>
</g>
</g>
<!-- Node6&#45;&gt;Node7 -->
<g id="edge7" class="edge">
<title>Node6&#45;&gt;Node7</title>
<path fill="none" stroke="#63b8ff" d="M589.15,-334.12C540.69,-327.3 447.01,-312.95 368.77,-294 288.71,-274.6 269.03,-267.6 191.77,-239 148.39,-222.94 99.31,-200.93 70.26,-187.49"/>
<polygon fill="#63b8ff" stroke="#63b8ff" points="71.4,-184.17 60.86,-183.12 68.45,-190.51 71.4,-184.17"/>
</g>
<!-- Node8 -->
<g id="node8" class="node">
<title>Node8</title>
<g id="a_node8"><a xlink:href="../../d5/d75/containers_8h.html" target="_top" xlink:title=" ">
<polygon fill="white" stroke="#666666" points="278.27,-239 201.27,-239 201.27,-220 278.27,-220 278.27,-239"/>
<text text-anchor="middle" x="239.77" y="-227" font-family="Helvetica,sans-Serif" font-size="10.00">containers.h</text>
</a>
</g>
</g>
<!-- Node6&#45;&gt;Node8 -->
<g id="edge8" class="edge">
<title>Node6&#45;&gt;Node8</title>
<path fill="none" stroke="#63b8ff" d="M589.1,-331.85C550.88,-323.84 485.82,-309.53 430.77,-294 374.58,-278.15 310.39,-255.94 272.56,-242.43"/>
<polygon fill="#63b8ff" stroke="#63b8ff" points="273.68,-239.11 263.08,-239.02 271.31,-245.7 273.68,-239.11"/>
</g>
<!-- Node12 -->
<g id="node12" class="node">
<title>Node12</title>
<g id="a_node12"><a xlink:href="../../df/da1/definition_8h.html" target="_top" xlink:title=" ">
<polygon fill="white" stroke="#666666" points="657.27,-294 586.27,-294 586.27,-275 657.27,-275 657.27,-294"/>
<text text-anchor="middle" x="621.77" y="-282" font-family="Helvetica,sans-Serif" font-size="10.00">definition.h</text>
</a>
</g>
</g>
<!-- Node6&#45;&gt;Node12 -->
<g id="edge16" class="edge">
<title>Node6&#45;&gt;Node12</title>
<path fill="none" stroke="#63b8ff" d="M621.77,-329.75C621.77,-322.8 621.77,-312.85 621.77,-304.13"/>
<polygon fill="#63b8ff" stroke="#63b8ff" points="625.27,-304.09 621.77,-294.09 618.27,-304.09 625.27,-304.09"/>
</g>
<!-- Node25 -->
<g id="node25" class="node">
<title>Node25</title>
<g id="a_node25"><a xlink:href="../../df/d9b/arguments_8h.html" target="_top" xlink:title=" ">
<polygon fill="white" stroke="#666666" points="836.77,-184 758.77,-184 758.77,-165 836.77,-165 836.77,-184"/>
<text text-anchor="middle" x="797.77" y="-172" font-family="Helvetica,sans-Serif" font-size="10.00">arguments.h</text>
</a>
</g>
</g>
<!-- Node6&#45;&gt;Node25 -->
<g id="edge44" class="edge">
<title>Node6&#45;&gt;Node25</title>
<path fill="none" stroke="#63b8ff" d="M631.63,-329.8C641.14,-321.18 655.69,-307.36 666.77,-294 692.12,-263.45 687.45,-246.75 716.77,-220 731.3,-206.75 750.48,-195.98 766.54,-188.37"/>
<polygon fill="#63b8ff" stroke="#63b8ff" points="768.4,-191.36 776.06,-184.03 765.5,-184.99 768.4,-191.36"/>
</g>
<!-- Node26 -->
<g id="node26" class="node">
<title>Node26</title>
<g id="a_node26"><a xlink:href="../../d9/d11/membergroup_8h.html" target="_top" xlink:title=" ">
<polygon fill="white" stroke="#666666" points="809.27,-294 714.27,-294 714.27,-275 809.27,-275 809.27,-294"/>
<text text-anchor="middle" x="761.77" y="-282" font-family="Helvetica,sans-Serif" font-size="10.00">membergroup.h</text>
</a>
</g>
</g>
<!-- Node6&#45;&gt;Node26 -->
<g id="edge47" class="edge">
<title>Node6&#45;&gt;Node26</title>
<path fill="none" stroke="#63b8ff" d="M644.27,-329.98C667.29,-321.27 703.31,-307.63 729.4,-297.75"/>
<polygon fill="#63b8ff" stroke="#63b8ff" points="730.76,-300.98 738.87,-294.17 728.28,-294.44 730.76,-300.98"/>
</g>
<!-- Node8&#45;&gt;Node3 -->
<g id="edge10" class="edge">
<title>Node8&#45;&gt;Node3</title>
<path fill="none" stroke="#63b8ff" d="M201.21,-220.82C165.82,-211.8 121.2,-194.21 137.77,-165 161.28,-123.56 185,-126.29 229.77,-110 382.23,-54.54 898.9,-20.45 1033.5,-12.37"/>
<polygon fill="#63b8ff" stroke="#63b8ff" points="1033.8,-15.85 1043.58,-11.77 1033.39,-8.87 1033.8,-15.85"/>
</g>
<!-- Node8&#45;&gt;Node4 -->
<g id="edge14" class="edge">
<title>Node8&#45;&gt;Node4</title>
<path fill="none" stroke="#63b8ff" d="M205,-219.98C170.91,-209.91 126.65,-191.15 145.77,-165 164.85,-138.92 199.32,-127.76 229.29,-123.13"/>
<polygon fill="#63b8ff" stroke="#63b8ff" points="229.8,-126.59 239.25,-121.8 228.88,-119.66 229.8,-126.59"/>
</g>
<!-- Node8&#45;&gt;Node5 -->
<g id="edge9" class="edge">
<title>Node8&#45;&gt;Node5</title>
<path fill="none" stroke="#63b8ff" d="M253.07,-219.81C273.97,-206.45 316.14,-180.79 354.77,-165 397.04,-147.73 448.24,-134.8 481.15,-127.45"/>
<polygon fill="#63b8ff" stroke="#63b8ff" points="482.13,-130.81 491.15,-125.26 480.64,-123.97 482.13,-130.81"/>
</g>
<!-- Node8&#45;&gt;Node7 -->
<g id="edge11" class="edge">
<title>Node8&#45;&gt;Node7</title>
<path fill="none" stroke="#63b8ff" d="M207.49,-219.92C174.2,-211.05 120.81,-196.73 74.77,-184 73.51,-183.65 72.22,-183.29 70.92,-182.93"/>
<polygon fill="#63b8ff" stroke="#63b8ff" points="71.53,-179.46 60.95,-180.13 69.63,-186.2 71.53,-179.46"/>
</g>
<!-- Node9 -->
<g id="node9" class="node">
<title>Node9</title>
<g id="a_node9"><a xlink:title=" ">
<polygon fill="#e0e0e0" stroke="#999999" points="968.77,-184 930.77,-184 930.77,-165 968.77,-165 968.77,-184"/>
<text text-anchor="middle" x="949.77" y="-172" font-family="Helvetica,sans-Serif" font-size="10.00">map</text>
</a>
</g>
</g>
<!-- Node8&#45;&gt;Node9 -->
<g id="edge12" class="edge">
<title>Node8&#45;&gt;Node9</title>
<path fill="none" stroke="#63b8ff" d="M278.42,-225.77C374.42,-218.98 631.48,-200.63 845.77,-184 871,-182.04 899.65,-179.69 920.49,-177.96"/>
<polygon fill="#63b8ff" stroke="#63b8ff" points="920.93,-181.43 930.61,-177.11 920.35,-174.46 920.93,-181.43"/>
</g>
<!-- Node10 -->
<g id="node10" class="node">
<title>Node10</title>
<g id="a_node10"><a xlink:title=" ">
<polygon fill="#e0e0e0" stroke="#999999" points="240.77,-184 154.77,-184 154.77,-165 240.77,-165 240.77,-184"/>
<text text-anchor="middle" x="197.77" y="-172" font-family="Helvetica,sans-Serif" font-size="10.00">unordered_set</text>
</a>
</g>
</g>
<!-- Node8&#45;&gt;Node10 -->
<g id="edge13" class="edge">
<title>Node8&#45;&gt;Node10</title>
<path fill="none" stroke="#63b8ff" d="M232.84,-219.75C226.9,-212.26 218.2,-201.28 210.95,-192.13"/>
<polygon fill="#63b8ff" stroke="#63b8ff" points="213.53,-189.75 204.58,-184.09 208.05,-194.1 213.53,-189.75"/>
</g>
<!-- Node11 -->
<g id="node11" class="node">
<title>Node11</title>
<g id="a_node11"><a xlink:title=" ">
<polygon fill="#e0e0e0" stroke="#999999" points="302.27,-184 259.27,-184 259.27,-165 302.27,-165 302.27,-184"/>
<text text-anchor="middle" x="280.77" y="-172" font-family="Helvetica,sans-Serif" font-size="10.00">stack</text>
</a>
</g>
</g>
<!-- Node8&#45;&gt;Node11 -->
<g id="edge15" class="edge">
<title>Node8&#45;&gt;Node11</title>
<path fill="none" stroke="#63b8ff" d="M246.54,-219.75C252.33,-212.26 260.83,-201.28 267.91,-192.13"/>
<polygon fill="#63b8ff" stroke="#63b8ff" points="270.78,-194.14 274.13,-184.09 265.24,-189.86 270.78,-194.14"/>
</g>
<!-- Node12&#45;&gt;Node5 -->
<g id="edge17" class="edge">
<title>Node12&#45;&gt;Node5</title>
<path fill="none" stroke="#63b8ff" d="M586.11,-280.19C559.36,-275.63 524.44,-264.78 506.77,-239 486.07,-208.79 497.95,-163.45 507.16,-138.52"/>
<polygon fill="#63b8ff" stroke="#63b8ff" points="510.43,-139.78 510.84,-129.19 503.92,-137.21 510.43,-139.78"/>
</g>
<!-- Node13 -->
<g id="node13" class="node">
<title>Node13</title>
<g id="a_node13"><a xlink:href="../../d9/d49/types_8h.html" target="_top" xlink:title="This file contains a number of basic enums and types.">
<polygon fill="white" stroke="#666666" points="778.27,-239 725.27,-239 725.27,-220 778.27,-220 778.27,-239"/>
<text text-anchor="middle" x="751.77" y="-227" font-family="Helvetica,sans-Serif" font-size="10.00">types.h</text>
</a>
</g>
</g>
<!-- Node12&#45;&gt;Node13 -->
<g id="edge18" class="edge">
<title>Node12&#45;&gt;Node13</title>
<path fill="none" stroke="#63b8ff" d="M642.66,-274.98C663.85,-266.34 696.9,-252.87 721.07,-243.02"/>
<polygon fill="#63b8ff" stroke="#63b8ff" points="722.57,-246.19 730.51,-239.17 719.92,-239.7 722.57,-246.19"/>
</g>
<!-- Node23 -->
<g id="node23" class="node">
<title>Node23</title>
<g id="a_node23"><a xlink:href="../../d1/d02/reflist_8h.html" target="_top" xlink:title=" ">
<polygon fill="white" stroke="#666666" points="657.27,-239 604.27,-239 604.27,-220 657.27,-220 657.27,-239"/>
<text text-anchor="middle" x="630.77" y="-227" font-family="Helvetica,sans-Serif" font-size="10.00">reflist.h</text>
</a>
</g>
</g>
<!-- Node12&#45;&gt;Node23 -->
<g id="edge31" class="edge">
<title>Node12&#45;&gt;Node23</title>
<path fill="none" stroke="#63b8ff" d="M623.26,-274.75C624.44,-267.8 626.13,-257.85 627.61,-249.13"/>
<polygon fill="#63b8ff" stroke="#63b8ff" points="631.09,-249.53 629.31,-239.09 624.19,-248.36 631.09,-249.53"/>
</g>
<!-- Node14 -->
<g id="node14" class="node">
<title>Node14</title>
<g id="a_node14"><a xlink:href="../../d7/d5c/qcstring_8h.html" target="_top" xlink:title=" ">
<polygon fill="white" stroke="#666666" points="873.27,-129 808.27,-129 808.27,-110 873.27,-110 873.27,-129"/>
<text text-anchor="middle" x="840.77" y="-117" font-family="Helvetica,sans-Serif" font-size="10.00">qcstring.h</text>
</a>
</g>
</g>
<!-- Node13&#45;&gt;Node14 -->
<g id="edge19" class="edge">
<title>Node13&#45;&gt;Node14</title>
<path fill="none" stroke="#63b8ff" d="M778.44,-223.92C800.71,-218.53 831.09,-207.19 845.77,-184 854.27,-170.58 851.66,-152.23 847.73,-138.71"/>
<polygon fill="#63b8ff" stroke="#63b8ff" points="851,-137.44 844.48,-129.09 844.36,-139.68 851,-137.44"/>
</g>
<!-- Node14&#45;&gt;Node3 -->
<g id="edge20" class="edge">
<title>Node14&#45;&gt;Node3</title>
<path fill="none" stroke="#63b8ff" d="M819.41,-109.84C793.52,-98.14 755.5,-76.27 773.77,-55 806.92,-16.42 964.05,-10.91 1033.1,-10.38"/>
<polygon fill="#63b8ff" stroke="#63b8ff" points="1033.41,-13.88 1043.39,-10.34 1033.38,-6.88 1033.41,-13.88"/>
</g>
<!-- Node15 -->
<g id="node15" class="node">
<title>Node15</title>
<g id="a_node15"><a xlink:title=" ">
<polygon fill="#e0e0e0" stroke="#999999" points="658.77,-74 594.77,-74 594.77,-55 658.77,-55 658.77,-74"/>
<text text-anchor="middle" x="626.77" y="-62" font-family="Helvetica,sans-Serif" font-size="10.00">algorithm</text>
</a>
</g>
</g>
<!-- Node14&#45;&gt;Node15 -->
<g id="edge21" class="edge">
<title>Node14&#45;&gt;Node15</title>
<path fill="none" stroke="#63b8ff" d="M808.27,-110.45C770.98,-101.21 709.71,-86.04 668.81,-75.91"/>
<polygon fill="#63b8ff" stroke="#63b8ff" points="669.43,-72.46 658.88,-73.45 667.74,-79.25 669.43,-72.46"/>
</g>
<!-- Node16 -->
<g id="node16" class="node">
<title>Node16</title>
<g id="a_node16"><a xlink:title=" ">
<polygon fill="#e0e0e0" stroke="#999999" points="726.27,-74 677.27,-74 677.27,-55 726.27,-55 726.27,-74"/>
<text text-anchor="middle" x="701.77" y="-62" font-family="Helvetica,sans-Serif" font-size="10.00">cctype</text>
</a>
</g>
</g>
<!-- Node14&#45;&gt;Node16 -->
<g id="edge22" class="edge">
<title>Node14&#45;&gt;Node16</title>
<path fill="none" stroke="#63b8ff" d="M818.44,-109.98C795.58,-101.27 759.82,-87.63 733.91,-77.75"/>
<polygon fill="#63b8ff" stroke="#63b8ff" points="735.1,-74.46 724.51,-74.17 732.61,-81 735.1,-74.46"/>
</g>
<!-- Node17 -->
<g id="node17" class="node">
<title>Node17</title>
<g id="a_node17"><a xlink:title=" ">
<polygon fill="#e0e0e0" stroke="#999999" points="832.77,-74 782.77,-74 782.77,-55 832.77,-55 832.77,-74"/>
<text text-anchor="middle" x="807.77" y="-62" font-family="Helvetica,sans-Serif" font-size="10.00">cstring</text>
</a>
</g>
</g>
<!-- Node14&#45;&gt;Node17 -->
<g id="edge23" class="edge">
<title>Node14&#45;&gt;Node17</title>
<path fill="none" stroke="#63b8ff" d="M835.32,-109.75C830.76,-102.42 824.1,-91.73 818.48,-82.7"/>
<polygon fill="#63b8ff" stroke="#63b8ff" points="821.38,-80.73 813.12,-74.09 815.43,-84.43 821.38,-80.73"/>
</g>
<!-- Node18 -->
<g id="node18" class="node">
<title>Node18</title>
<g id="a_node18"><a xlink:title=" ">
<polygon fill="#e0e0e0" stroke="#999999" points="896.77,-74 850.77,-74 850.77,-55 896.77,-55 896.77,-74"/>
<text text-anchor="middle" x="873.77" y="-62" font-family="Helvetica,sans-Serif" font-size="10.00">cstdio</text>
</a>
</g>
</g>
<!-- Node14&#45;&gt;Node18 -->
<g id="edge24" class="edge">
<title>Node14&#45;&gt;Node18</title>
<path fill="none" stroke="#63b8ff" d="M846.22,-109.75C850.79,-102.42 857.44,-91.73 863.07,-82.7"/>
<polygon fill="#63b8ff" stroke="#63b8ff" points="866.11,-84.43 868.42,-74.09 860.17,-80.73 866.11,-84.43"/>
</g>
<!-- Node19 -->
<g id="node19" class="node">
<title>Node19</title>
<g id="a_node19"><a xlink:title=" ">
<polygon fill="#e0e0e0" stroke="#999999" points="964.27,-74 915.27,-74 915.27,-55 964.27,-55 964.27,-74"/>
<text text-anchor="middle" x="939.77" y="-62" font-family="Helvetica,sans-Serif" font-size="10.00">cstdlib</text>
</a>
</g>
</g>
<!-- Node14&#45;&gt;Node19 -->
<g id="edge25" class="edge">
<title>Node14&#45;&gt;Node19</title>
<path fill="none" stroke="#63b8ff" d="M856.68,-109.98C872.32,-101.61 896.43,-88.7 914.66,-78.95"/>
<polygon fill="#63b8ff" stroke="#63b8ff" points="916.41,-81.98 923.58,-74.17 913.11,-75.8 916.41,-81.98"/>
</g>
<!-- Node20 -->
<g id="node20" class="node">
<title>Node20</title>
<g id="a_node20"><a xlink:title=" ">
<polygon fill="#e0e0e0" stroke="#999999" points="1155.77,-19 1105.77,-19 1105.77,0 1155.77,0 1155.77,-19"/>
<text text-anchor="middle" x="1130.77" y="-7" font-family="Helvetica,sans-Serif" font-size="10.00">cstdint</text>
</a>
</g>
</g>
<!-- Node14&#45;&gt;Node20 -->
<g id="edge26" class="edge">
<title>Node14&#45;&gt;Node20</title>
<path fill="none" stroke="#63b8ff" d="M873.47,-115.08C941.63,-107.68 1094.05,-89.59 1111.77,-74 1124.32,-62.97 1128.74,-44.02 1130.23,-29.69"/>
<polygon fill="#63b8ff" stroke="#63b8ff" points="1133.74,-29.63 1130.88,-19.43 1126.75,-29.18 1133.74,-29.63"/>
</g>
<!-- Node21 -->
<g id="node21" class="node">
<title>Node21</title>
<g id="a_node21"><a xlink:title=" ">
<polygon fill="#e0e0e0" stroke="#999999" points="1039.27,-74 982.27,-74 982.27,-55 1039.27,-55 1039.27,-74"/>
<text text-anchor="middle" x="1010.77" y="-62" font-family="Helvetica,sans-Serif" font-size="10.00">ostream</text>
</a>
</g>
</g>
<!-- Node14&#45;&gt;Node21 -->
<g id="edge27" class="edge">
<title>Node14&#45;&gt;Node21</title>
<path fill="none" stroke="#63b8ff" d="M868.09,-109.98C896.63,-101.09 941.6,-87.07 973.41,-77.15"/>
<polygon fill="#63b8ff" stroke="#63b8ff" points="974.74,-80.4 983.25,-74.08 972.66,-73.72 974.74,-80.4"/>
</g>
<!-- Node22 -->
<g id="node22" class="node">
<title>Node22</title>
<g id="a_node22"><a xlink:href="../../db/d7c/utf8_8h.html" target="_top" xlink:title="Various UTF8 related helper functions.">
<polygon fill="white" stroke="#666666" points="1102.27,-74 1057.27,-74 1057.27,-55 1102.27,-55 1102.27,-74"/>
<text text-anchor="middle" x="1079.77" y="-62" font-family="Helvetica,sans-Serif" font-size="10.00">utf8.h</text>
</a>
</g>
</g>
<!-- Node14&#45;&gt;Node22 -->
<g id="edge28" class="edge">
<title>Node14&#45;&gt;Node22</title>
<path fill="none" stroke="#63b8ff" d="M873.33,-112.13C912.46,-104.35 980.32,-90.43 1047.26,-74.27"/>
<polygon fill="#63b8ff" stroke="#63b8ff" points="1048.24,-77.63 1057.12,-71.87 1046.58,-70.83 1048.24,-77.63"/>
</g>
<!-- Node22&#45;&gt;Node3 -->
<g id="edge30" class="edge">
<title>Node22&#45;&gt;Node3</title>
<path fill="none" stroke="#63b8ff" d="M1077.46,-54.75C1075.61,-47.72 1072.94,-37.62 1070.62,-28.84"/>
<polygon fill="#63b8ff" stroke="#63b8ff" points="1073.98,-27.86 1068.04,-19.09 1067.21,-29.65 1073.98,-27.86"/>
</g>
<!-- Node22&#45;&gt;Node20 -->
<g id="edge29" class="edge">
<title>Node22&#45;&gt;Node20</title>
<path fill="none" stroke="#63b8ff" d="M1088.19,-54.75C1095.55,-47.11 1106.4,-35.82 1115.32,-26.56"/>
<polygon fill="#63b8ff" stroke="#63b8ff" points="1118.1,-28.72 1122.51,-19.09 1113.05,-23.87 1118.1,-28.72"/>
</g>
<!-- Node23&#45;&gt;Node2 -->
<g id="edge34" class="edge">
<title>Node23&#45;&gt;Node2</title>
<path fill="none" stroke="#63b8ff" d="M657.34,-224.7C698.36,-218.46 779.34,-204.63 845.77,-184 890.67,-170.06 940.55,-147.64 970.25,-133.51"/>
<polygon fill="#63b8ff" stroke="#63b8ff" points="972.02,-136.55 979.52,-129.06 968.99,-130.24 972.02,-136.55"/>
</g>
<!-- Node23&#45;&gt;Node4 -->
<g id="edge33" class="edge">
<title>Node23&#45;&gt;Node4</title>
<path fill="none" stroke="#63b8ff" d="M603.99,-220.12C542.87,-200.98 393.03,-154.08 322.99,-132.15"/>
<polygon fill="#63b8ff" stroke="#63b8ff" points="323.85,-128.75 313.26,-129.1 321.75,-135.43 323.85,-128.75"/>
</g>
<!-- Node23&#45;&gt;Node5 -->
<g id="edge32" class="edge">
<title>Node23&#45;&gt;Node5</title>
<path fill="none" stroke="#63b8ff" d="M621.56,-219.98C611.89,-211.03 596.25,-196.54 582.77,-184 565.34,-167.78 545.44,-149.19 531.69,-136.33"/>
<polygon fill="#63b8ff" stroke="#63b8ff" points="533.7,-133.41 524,-129.14 528.91,-138.53 533.7,-133.41"/>
</g>
<!-- Node23&#45;&gt;Node14 -->
<g id="edge35" class="edge">
<title>Node23&#45;&gt;Node14</title>
<path fill="none" stroke="#63b8ff" d="M646.46,-219.9C669.14,-207.52 712.45,-184.08 749.77,-165 771.05,-154.13 795.37,-142.26 813.51,-133.52"/>
<polygon fill="#63b8ff" stroke="#63b8ff" points="815.4,-136.5 822.89,-129.01 812.36,-130.19 815.4,-136.5"/>
</g>
<!-- Node24 -->
<g id="node24" class="node">
<title>Node24</title>
<g id="a_node24"><a xlink:href="../../da/de1/linkedmap_8h.html" target="_top" xlink:title=" ">
<polygon fill="white" stroke="#666666" points="702.27,-184 625.27,-184 625.27,-165 702.27,-165 702.27,-184"/>
<text text-anchor="middle" x="663.77" y="-172" font-family="Helvetica,sans-Serif" font-size="10.00">linkedmap.h</text>
</a>
</g>
</g>
<!-- Node23&#45;&gt;Node24 -->
<g id="edge36" class="edge">
<title>Node23&#45;&gt;Node24</title>
<path fill="none" stroke="#63b8ff" d="M636.22,-219.75C640.79,-212.42 647.44,-201.73 653.07,-192.7"/>
<polygon fill="#63b8ff" stroke="#63b8ff" points="656.11,-194.43 658.42,-184.09 650.17,-190.73 656.11,-194.43"/>
</g>
<!-- Node24&#45;&gt;Node2 -->
<g id="edge39" class="edge">
<title>Node24&#45;&gt;Node2</title>
<path fill="none" stroke="#63b8ff" d="M702.3,-167.37C766.03,-157.22 892.77,-137.05 957.19,-126.8"/>
<polygon fill="#63b8ff" stroke="#63b8ff" points="958.02,-130.21 967.35,-125.18 956.92,-123.3 958.02,-130.21"/>
</g>
<!-- Node24&#45;&gt;Node3 -->
<g id="edge40" class="edge">
<title>Node24&#45;&gt;Node3</title>
<path fill="none" stroke="#63b8ff" d="M650.35,-164.81C620.2,-144.29 552.26,-91.77 585.77,-55 615.93,-21.92 930.88,-13.05 1033.59,-11.03"/>
<polygon fill="#63b8ff" stroke="#63b8ff" points="1033.74,-14.53 1043.67,-10.84 1033.61,-7.53 1033.74,-14.53"/>
</g>
<!-- Node24&#45;&gt;Node4 -->
<g id="edge37" class="edge">
<title>Node24&#45;&gt;Node4</title>
<path fill="none" stroke="#63b8ff" d="M625.1,-168.08C558.11,-158.68 420.22,-139.35 342.41,-128.44"/>
<polygon fill="#63b8ff" stroke="#63b8ff" points="342.7,-124.95 332.31,-127.02 341.73,-131.88 342.7,-124.95"/>
</g>
<!-- Node24&#45;&gt;Node5 -->
<g id="edge38" class="edge">
<title>Node24&#45;&gt;Node5</title>
<path fill="none" stroke="#63b8ff" d="M639.83,-164.98C615.07,-156.18 576.19,-142.35 548.36,-132.45"/>
<polygon fill="#63b8ff" stroke="#63b8ff" points="549.25,-129.05 538.65,-128.99 546.9,-135.64 549.25,-129.05"/>
</g>
<!-- Node24&#45;&gt;Node14 -->
<g id="edge43" class="edge">
<title>Node24&#45;&gt;Node14</title>
<path fill="none" stroke="#63b8ff" d="M692.21,-164.98C722.06,-156.05 769.16,-141.94 802.31,-132.02"/>
<polygon fill="#63b8ff" stroke="#63b8ff" points="803.54,-135.3 812.11,-129.08 801.53,-128.6 803.54,-135.3"/>
</g>
<!-- Node24&#45;&gt;Node15 -->
<g id="edge41" class="edge">
<title>Node24&#45;&gt;Node15</title>
<path fill="none" stroke="#63b8ff" d="M660.74,-164.66C654.7,-147.01 641.02,-107.09 632.99,-83.64"/>
<polygon fill="#63b8ff" stroke="#63b8ff" points="636.29,-82.48 629.74,-74.16 629.67,-84.75 636.29,-82.48"/>
</g>
<!-- Node24&#45;&gt;Node16 -->
<g id="edge42" class="edge">
<title>Node24&#45;&gt;Node16</title>
<path fill="none" stroke="#63b8ff" d="M666.88,-164.66C673.09,-147.01 687.14,-107.09 695.39,-83.64"/>
<polygon fill="#63b8ff" stroke="#63b8ff" points="698.71,-84.75 698.73,-74.16 692.11,-82.43 698.71,-84.75"/>
</g>
<!-- Node25&#45;&gt;Node5 -->
<g id="edge45" class="edge">
<title>Node25&#45;&gt;Node5</title>
<path fill="none" stroke="#63b8ff" d="M758.72,-166.19C702.85,-155.72 601.07,-136.66 548.38,-126.79"/>
<polygon fill="#63b8ff" stroke="#63b8ff" points="549,-123.35 538.52,-124.95 547.71,-130.23 549,-123.35"/>
</g>
<!-- Node25&#45;&gt;Node14 -->
<g id="edge46" class="edge">
<title>Node25&#45;&gt;Node14</title>
<path fill="none" stroke="#63b8ff" d="M804.87,-164.75C810.95,-157.26 819.86,-146.28 827.28,-137.13"/>
<polygon fill="#63b8ff" stroke="#63b8ff" points="830.22,-139.06 833.8,-129.09 824.79,-134.65 830.22,-139.06"/>
</g>
<!-- Node26&#45;&gt;Node2 -->
<g id="edge50" class="edge">
<title>Node26&#45;&gt;Node2</title>
<path fill="none" stroke="#63b8ff" d="M804.24,-274.99C853.02,-263.02 932.17,-236.53 977.77,-184 988.5,-171.64 993.17,-153.42 995.21,-139.67"/>
<polygon fill="#63b8ff" stroke="#63b8ff" points="998.72,-139.72 996.37,-129.39 991.77,-138.93 998.72,-139.72"/>
</g>
<!-- Node26&#45;&gt;Node5 -->
<g id="edge48" class="edge">
<title>Node26&#45;&gt;Node5</title>
<path fill="none" stroke="#63b8ff" d="M714.01,-279.62C678.63,-274.74 630.71,-263.76 595.77,-239 559.14,-213.04 533.95,-164.92 522.24,-138.7"/>
<polygon fill="#63b8ff" stroke="#63b8ff" points="525.33,-137.03 518.17,-129.22 518.9,-139.79 525.33,-137.03"/>
</g>
<!-- Node26&#45;&gt;Node9 -->
<g id="edge49" class="edge">
<title>Node26&#45;&gt;Node9</title>
<path fill="none" stroke="#63b8ff" d="M769.02,-274.98C780.77,-261.62 805.25,-235.68 830.77,-220 859.22,-202.52 895.63,-190.16 920.65,-182.97"/>
<polygon fill="#63b8ff" stroke="#63b8ff" points="921.91,-186.25 930.61,-180.2 920.04,-179.5 921.91,-186.25"/>
</g>
<!-- Node26&#45;&gt;Node13 -->
<g id="edge51" class="edge">
<title>Node26&#45;&gt;Node13</title>
<path fill="none" stroke="#63b8ff" d="M760.12,-274.75C758.81,-267.8 756.93,-257.85 755.29,-249.13"/>
<polygon fill="#63b8ff" stroke="#63b8ff" points="758.69,-248.27 753.39,-239.09 751.81,-249.56 758.69,-248.27"/>
</g>
<!-- Node26&#45;&gt;Node23 -->
<g id="edge52" class="edge">
<title>Node26&#45;&gt;Node23</title>
<path fill="none" stroke="#63b8ff" d="M740.73,-274.98C719.37,-266.34 686.07,-252.87 661.71,-243.02"/>
<polygon fill="#63b8ff" stroke="#63b8ff" points="662.79,-239.68 652.2,-239.17 660.16,-246.17 662.79,-239.68"/>
</g>
<!-- Node27&#45;&gt;Node9 -->
<g id="edge55" class="edge">
<title>Node27&#45;&gt;Node9</title>
<path fill="none" stroke="#63b8ff" d="M1065.6,-219.98C1041.92,-210.89 1004.32,-196.45 978.42,-186.5"/>
<polygon fill="#63b8ff" stroke="#63b8ff" points="979.37,-183.12 968.78,-182.8 976.86,-189.65 979.37,-183.12"/>
</g>
<!-- Node27&#45;&gt;Node14 -->
<g id="edge56" class="edge">
<title>Node27&#45;&gt;Node14</title>
<path fill="none" stroke="#63b8ff" d="M1092.04,-219.96C1098.04,-206.58 1106.87,-180.61 1093.77,-165 1080.41,-149.08 952.33,-132.75 883.71,-125.05"/>
<polygon fill="#63b8ff" stroke="#63b8ff" points="883.96,-121.55 873.64,-123.93 883.19,-128.51 883.96,-121.55"/>
</g>
<!-- Node28 -->
<g id="node28" class="node">
<title>Node28</title>
<g id="a_node28"><a xlink:title=" ">
<polygon fill="#e0e0e0" stroke="#999999" points="1084.77,-184 1024.77,-184 1024.77,-165 1084.77,-165 1084.77,-184"/>
<text text-anchor="middle" x="1054.77" y="-172" font-family="Helvetica,sans-Serif" font-size="10.00">iostream</text>
</a>
</g>
</g>
<!-- Node27&#45;&gt;Node28 -->
<g id="edge54" class="edge">
<title>Node27&#45;&gt;Node28</title>
<path fill="none" stroke="#63b8ff" d="M1082.32,-219.75C1077.76,-212.42 1071.1,-201.73 1065.48,-192.7"/>
<polygon fill="#63b8ff" stroke="#63b8ff" points="1068.38,-190.73 1060.12,-184.09 1062.43,-194.43 1068.38,-190.73"/>
</g>
<!-- Node29 -->
<g id="node29" class="node">
<title>Node29</title>
<g id="a_node29"><a xlink:href="../../df/d9c/dir_8h.html" target="_top" xlink:title=" ">
<polygon fill="white" stroke="#666666" points="1216.77,-184 1178.77,-184 1178.77,-165 1216.77,-165 1216.77,-184"/>
<text text-anchor="middle" x="1197.77" y="-172" font-family="Helvetica,sans-Serif" font-size="10.00">dir.h</text>
</a>
</g>
</g>
<!-- Node27&#45;&gt;Node29 -->
<g id="edge57" class="edge">
<title>Node27&#45;&gt;Node29</title>
<path fill="none" stroke="#63b8ff" d="M1105.45,-219.98C1123.06,-211.5 1150.35,-198.35 1170.7,-188.54"/>
<polygon fill="#63b8ff" stroke="#63b8ff" points="1172.29,-191.66 1179.78,-184.17 1169.25,-185.36 1172.29,-191.66"/>
</g>
<!-- Node29&#45;&gt;Node2 -->
<g id="edge59" class="edge">
<title>Node29&#45;&gt;Node2</title>
<path fill="none" stroke="#63b8ff" d="M1178.5,-168.42C1145.75,-159.78 1078.64,-142.09 1035.77,-130.78"/>
<polygon fill="#63b8ff" stroke="#63b8ff" points="1036.52,-127.36 1025.96,-128.2 1034.74,-134.13 1036.52,-127.36"/>
</g>
<!-- Node29&#45;&gt;Node3 -->
<g id="edge58" class="edge">
<title>Node29&#45;&gt;Node3</title>
<path fill="none" stroke="#63b8ff" d="M1198.08,-164.76C1198.17,-152 1196.97,-127.86 1187.77,-110 1167.01,-69.65 1121.86,-39.79 1092.69,-23.78"/>
<polygon fill="#63b8ff" stroke="#63b8ff" points="1094.31,-20.67 1083.83,-19.07 1091.02,-26.86 1094.31,-20.67"/>
</g>
<!-- Node30 -->
<g id="node30" class="node">
<title>Node30</title>
<g id="a_node30"><a xlink:href="../../df/d45/fileinfo_8h.html" target="_top" xlink:title=" ">
<polygon fill="white" stroke="#666666" points="1178.27,-129 1119.27,-129 1119.27,-110 1178.27,-110 1178.27,-129"/>
<text text-anchor="middle" x="1148.77" y="-117" font-family="Helvetica,sans-Serif" font-size="10.00">fileinfo.h</text>
</a>
</g>
</g>
<!-- Node29&#45;&gt;Node30 -->
<g id="edge60" class="edge">
<title>Node29&#45;&gt;Node30</title>
<path fill="none" stroke="#63b8ff" d="M1189.68,-164.75C1182.62,-157.11 1172.19,-145.82 1163.62,-136.56"/>
<polygon fill="#63b8ff" stroke="#63b8ff" points="1166.07,-134.06 1156.71,-129.09 1160.93,-138.81 1166.07,-134.06"/>
</g>
<!-- Node30&#45;&gt;Node3 -->
<g id="edge61" class="edge">
<title>Node30&#45;&gt;Node3</title>
<path fill="none" stroke="#63b8ff" d="M1144.67,-109.81C1138.48,-97.13 1125.94,-73.08 1111.77,-55 1103.59,-44.55 1093.03,-34.17 1084.09,-26.06"/>
<polygon fill="#63b8ff" stroke="#63b8ff" points="1086.26,-23.31 1076.45,-19.32 1081.63,-28.56 1086.26,-23.31"/>
</g>
<!-- Node31&#45;&gt;Node5 -->
<g id="edge63" class="edge">
<title>Node31&#45;&gt;Node5</title>
<path fill="none" stroke="#63b8ff" d="M928.06,-274.8C898.72,-261.43 839.84,-235.75 787.77,-220 713.43,-197.51 688.84,-212.96 616.77,-184 608.34,-180.61 564.11,-152.4 536.73,-134.74"/>
<polygon fill="#63b8ff" stroke="#63b8ff" points="538.47,-131.69 528.17,-129.21 534.67,-137.57 538.47,-131.69"/>
</g>
<!-- Node31&#45;&gt;Node9 -->
<g id="edge64" class="edge">
<title>Node31&#45;&gt;Node9</title>
<path fill="none" stroke="#63b8ff" d="M944.89,-274.87C942.48,-262.65 938.81,-239.61 940.77,-220 941.63,-211.47 943.38,-202.16 945.11,-194.27"/>
<polygon fill="#63b8ff" stroke="#63b8ff" points="948.58,-194.82 947.45,-184.29 941.76,-193.22 948.58,-194.82"/>
</g>
<!-- Node31&#45;&gt;Node13 -->
<g id="edge67" class="edge">
<title>Node31&#45;&gt;Node13</title>
<path fill="none" stroke="#63b8ff" d="M915.44,-274.98C880.7,-265.54 824.75,-250.33 788.11,-240.38"/>
<polygon fill="#63b8ff" stroke="#63b8ff" points="788.89,-236.96 778.33,-237.72 787.06,-243.72 788.89,-236.96"/>
</g>
<!-- Node31&#45;&gt;Node27 -->
<g id="edge68" class="edge">
<title>Node31&#45;&gt;Node27</title>
<path fill="none" stroke="#63b8ff" d="M969.43,-274.98C992.62,-266.27 1028.89,-252.63 1055.17,-242.75"/>
<polygon fill="#63b8ff" stroke="#63b8ff" points="1056.58,-245.97 1064.71,-239.17 1054.11,-239.41 1056.58,-245.97"/>
</g>
<!-- Node31&#45;&gt;Node28 -->
<g id="edge66" class="edge">
<title>Node31&#45;&gt;Node28</title>
<path fill="none" stroke="#63b8ff" d="M960.23,-274.88C972.75,-266.52 991.54,-253.07 1005.77,-239 1020.25,-224.68 1034.18,-206 1043.46,-192.61"/>
<polygon fill="#63b8ff" stroke="#63b8ff" points="1046.38,-194.55 1049.09,-184.31 1040.58,-190.62 1046.38,-194.55"/>
</g>
<!-- Node32 -->
<g id="node32" class="node">
<title>Node32</title>
<g id="a_node32"><a xlink:title=" ">
<polygon fill="#e0e0e0" stroke="#999999" points="996.27,-239 949.27,-239 949.27,-220 996.27,-220 996.27,-239"/>
<text text-anchor="middle" x="972.77" y="-227" font-family="Helvetica,sans-Serif" font-size="10.00">deque</text>
</a>
</g>
</g>
<!-- Node31&#45;&gt;Node32 -->
<g id="edge65" class="edge">
<title>Node31&#45;&gt;Node32</title>
<path fill="none" stroke="#63b8ff" d="M951.07,-274.75C954.59,-267.57 959.69,-257.18 964.06,-248.27"/>
<polygon fill="#63b8ff" stroke="#63b8ff" points="967.3,-249.61 968.56,-239.09 961.01,-246.53 967.3,-249.61"/>
</g>
</g>
</svg>
