<?xml version="1.0" encoding="UTF-8" standalone="no"?>
<!DOCTYPE svg PUBLIC "-//W3C//DTD SVG 1.1//EN"
 "http://www.w3.org/Graphics/SVG/1.1/DTD/svg11.dtd">
<!-- Generated by graphviz version 2.43.0 (0)
 -->
<!-- Title: /home/runner/work/doxygen/doxygen/src/pagedef.h Pages: 1 -->
<!--zoomable 104 -->
<svg id="main" version="1.1" xmlns="http://www.w3.org/2000/svg" xmlns:xlink="http://www.w3.org/1999/xlink" xml:space="preserve" onload="init(evt)">
<style type="text/css"><![CDATA[
.edge:hover path { stroke: red; }
.edge:hover polygon { stroke: red; fill: red; }
]]></style>
<script type="text/javascript"><![CDATA[
var edges = document.getElementsByTagName('g');
if (edges && edges.length) {
  for (var i=0;i<edges.length;i++) {
    if (edges[i].id.substr(0,4)=='edge') {
      edges[i].setAttribute('class','edge');
    }
  }
}
]]></script>
        <defs>
                <circle id="rim" cx="0" cy="0" r="7"/>
                <circle id="rim2" cx="0" cy="0" r="3.5"/>
                <g id="zoomPlus">
                        <use xlink:href="#rim" fill="#404040">
                                <set attributeName="fill" to="#808080" begin="zoomplus.mouseover" end="zoomplus.mouseout"/>
                        </use>
                        <path d="M-4,0h8M0,-4v8" fill="none" stroke="white" stroke-width="1.5" pointer-events="none"/>
                </g>
                <g id="zoomMin">
                        <use xlink:href="#rim" fill="#404040">
                                <set attributeName="fill" to="#808080" begin="zoomminus.mouseover" end="zoomminus.mouseout"/>
                        </use>
                        <path d="M-4,0h8" fill="none" stroke="white" stroke-width="1.5" pointer-events="none"/>
                </g>
                <g id="dirArrow">
                        <path fill="none" stroke="white" stroke-width="1.5" d="M0,-3.0v7 M-2.5,-0.5L0,-3.0L2.5,-0.5"/>
                </g>
               <g id="resetDef">
                       <use xlink:href="#rim2" fill="#404040">
                               <set attributeName="fill" to="#808080" begin="reset.mouseover" end="reset.mouseout"/>
                       </use>
               </g>
        </defs>

<script type="text/javascript">
var viewWidth = 3359;
var viewHeight = 104;
var sectionId = 'dynsection-1';
</script>
<script xlink:href="../../svgpan.js"/>
<svg id="graph" class="graph">
<g id="viewport">
<title>/home/runner/work/doxygen/doxygen/src/pagedef.h</title>
<!-- Node1 -->
<g id="node1" class="node">
<title>Node1</title>
<g id="a_node1"><a xlink:title=" ">
<polygon fill="#999999" stroke="#666666" points="1766,-96 1612,-96 1612,-66 1766,-66 1766,-96"/>
<text text-anchor="start" x="1620" y="-84" font-family="Helvetica,sans-Serif" font-size="10.00">/home/runner/work/doxygen</text>
<text text-anchor="middle" x="1689" y="-73" font-family="Helvetica,sans-Serif" font-size="10.00">/doxygen/src/pagedef.h</text>
</a>
</g>
</g>
<!-- Node2 -->
<g id="node2" class="node">
<title>Node2</title>
<g id="a_node2"><a xlink:href="../../db/d12/context_8cpp.html" target="_top" xlink:title=" ">
<polygon fill="white" stroke="#666666" points="154,-30 0,-30 0,0 154,0 154,-30"/>
<text text-anchor="start" x="8" y="-18" font-family="Helvetica,sans-Serif" font-size="10.00">/home/runner/work/doxygen</text>
<text text-anchor="middle" x="77" y="-7" font-family="Helvetica,sans-Serif" font-size="10.00">/doxygen/src/context.cpp</text>
</a>
</g>
</g>
<!-- Node1&#45;&gt;Node2 -->
<g id="edge1" class="edge">
<title>Node1&#45;&gt;Node2</title>
<path fill="none" stroke="#63b8ff" d="M1601.49,-78.61C1320.81,-73.94 445.1,-57.47 163,-30 160.14,-29.72 157.23,-29.41 154.29,-29.06"/>
<polygon fill="#63b8ff" stroke="#63b8ff" points="1601.56,-82.12 1611.62,-78.78 1601.68,-75.12 1601.56,-82.12"/>
</g>
<!-- Node3 -->
<g id="node3" class="node">
<title>Node3</title>
<g id="a_node3"><a xlink:href="../../d3/dea/definition_8cpp.html" target="_top" xlink:title=" ">
<polygon fill="white" stroke="#666666" points="326,-30 172,-30 172,0 326,0 326,-30"/>
<text text-anchor="start" x="180" y="-18" font-family="Helvetica,sans-Serif" font-size="10.00">/home/runner/work/doxygen</text>
<text text-anchor="middle" x="249" y="-7" font-family="Helvetica,sans-Serif" font-size="10.00">/doxygen/src/definition.cpp</text>
</a>
</g>
</g>
<!-- Node1&#45;&gt;Node3 -->
<g id="edge2" class="edge">
<title>Node1&#45;&gt;Node3</title>
<path fill="none" stroke="#63b8ff" d="M1601.36,-80.53C1385.51,-81.03 811.15,-77.36 335,-30 332.14,-29.72 329.23,-29.4 326.3,-29.05"/>
<polygon fill="#63b8ff" stroke="#63b8ff" points="1601.69,-84.03 1611.68,-80.51 1601.67,-77.03 1601.69,-84.03"/>
</g>
<!-- Node4 -->
<g id="node4" class="node">
<title>Node4</title>
<g id="a_node4"><a xlink:href="../../d8/d29/docbookgen_8cpp.html" target="_top" xlink:title=" ">
<polygon fill="white" stroke="#666666" points="505.5,-30 344.5,-30 344.5,0 505.5,0 505.5,-30"/>
<text text-anchor="start" x="352.5" y="-18" font-family="Helvetica,sans-Serif" font-size="10.00">/home/runner/work/doxygen</text>
<text text-anchor="middle" x="425" y="-7" font-family="Helvetica,sans-Serif" font-size="10.00">/doxygen/src/docbookgen.cpp</text>
</a>
</g>
</g>
<!-- Node1&#45;&gt;Node4 -->
<g id="edge3" class="edge">
<title>Node1&#45;&gt;Node4</title>
<path fill="none" stroke="#63b8ff" d="M1601.67,-79.61C1406.42,-78.02 919.88,-69.99 515,-30 512.01,-29.7 508.97,-29.38 505.9,-29.02"/>
<polygon fill="#63b8ff" stroke="#63b8ff" points="1601.84,-83.11 1611.87,-79.69 1601.9,-76.11 1601.84,-83.11"/>
</g>
<!-- Node5 -->
<g id="node5" class="node">
<title>Node5</title>
<g id="a_node5"><a xlink:href="../../d0/d2b/docnode_8cpp.html" target="_top" xlink:title=" ">
<polygon fill="white" stroke="#666666" points="678,-30 524,-30 524,0 678,0 678,-30"/>
<text text-anchor="start" x="532" y="-18" font-family="Helvetica,sans-Serif" font-size="10.00">/home/runner/work/doxygen</text>
<text text-anchor="middle" x="601" y="-7" font-family="Helvetica,sans-Serif" font-size="10.00">/doxygen/src/docnode.cpp</text>
</a>
</g>
</g>
<!-- Node1&#45;&gt;Node5 -->
<g id="edge4" class="edge">
<title>Node1&#45;&gt;Node5</title>
<path fill="none" stroke="#63b8ff" d="M1601.63,-78.91C1427.26,-76.02 1023.88,-65.71 687,-30 684.14,-29.7 681.23,-29.36 678.3,-29"/>
<polygon fill="#63b8ff" stroke="#63b8ff" points="1601.72,-82.41 1611.77,-79.08 1601.83,-75.42 1601.72,-82.41"/>
</g>
<!-- Node6 -->
<g id="node6" class="node">
<title>Node6</title>
<g id="a_node6"><a xlink:href="../../da/d17/docparser_8cpp.html" target="_top" xlink:title=" ">
<polygon fill="white" stroke="#666666" points="850,-30 696,-30 696,0 850,0 850,-30"/>
<text text-anchor="start" x="704" y="-18" font-family="Helvetica,sans-Serif" font-size="10.00">/home/runner/work/doxygen</text>
<text text-anchor="middle" x="773" y="-7" font-family="Helvetica,sans-Serif" font-size="10.00">/doxygen/src/docparser.cpp</text>
</a>
</g>
</g>
<!-- Node1&#45;&gt;Node6 -->
<g id="edge5" class="edge">
<title>Node1&#45;&gt;Node6</title>
<path fill="none" stroke="#63b8ff" d="M1601.65,-77.65C1450.1,-72.91 1128.81,-60.01 859,-30 856.14,-29.68 853.24,-29.33 850.3,-28.96"/>
<polygon fill="#63b8ff" stroke="#63b8ff" points="1601.72,-81.15 1611.82,-77.96 1601.94,-74.15 1601.72,-81.15"/>
</g>
<!-- Node7 -->
<g id="node7" class="node">
<title>Node7</title>
<g id="a_node7"><a xlink:href="../../d1/d86/dotgroupcollaboration_8cpp.html" target="_top" xlink:title=" ">
<polygon fill="white" stroke="#666666" points="1077.5,-30 868.5,-30 868.5,0 1077.5,0 1077.5,-30"/>
<text text-anchor="start" x="876.5" y="-18" font-family="Helvetica,sans-Serif" font-size="10.00">/home/runner/work/doxygen</text>
<text text-anchor="middle" x="973" y="-7" font-family="Helvetica,sans-Serif" font-size="10.00">/doxygen/src/dotgroupcollaboration.cpp</text>
</a>
</g>
</g>
<!-- Node1&#45;&gt;Node7 -->
<g id="edge6" class="edge">
<title>Node1&#45;&gt;Node7</title>
<path fill="none" stroke="#63b8ff" d="M1601.95,-73.85C1484.8,-65.33 1269.97,-48.83 1087,-30 1083.93,-29.68 1080.81,-29.35 1077.66,-29.01"/>
<polygon fill="#63b8ff" stroke="#63b8ff" points="1601.71,-77.34 1611.94,-74.57 1602.22,-70.36 1601.71,-77.34"/>
</g>
<!-- Node8 -->
<g id="node8" class="node">
<title>Node8</title>
<g id="a_node8"><a xlink:href="../../dc/d98/doxygen_8cpp.html" target="_top" xlink:title=" ">
<polygon fill="white" stroke="#666666" points="1250,-30 1096,-30 1096,0 1250,0 1250,-30"/>
<text text-anchor="start" x="1104" y="-18" font-family="Helvetica,sans-Serif" font-size="10.00">/home/runner/work/doxygen</text>
<text text-anchor="middle" x="1173" y="-7" font-family="Helvetica,sans-Serif" font-size="10.00">/doxygen/src/doxygen.cpp</text>
</a>
</g>
</g>
<!-- Node1&#45;&gt;Node8 -->
<g id="edge7" class="edge">
<title>Node1&#45;&gt;Node8</title>
<path fill="none" stroke="#63b8ff" d="M1601.88,-71.05C1514.9,-61.83 1377.5,-46.53 1259,-30 1256.15,-29.6 1253.26,-29.19 1250.33,-28.76"/>
<polygon fill="#63b8ff" stroke="#63b8ff" points="1601.65,-74.54 1611.97,-72.11 1602.39,-67.58 1601.65,-74.54"/>
</g>
<!-- Node9 -->
<g id="node9" class="node">
<title>Node9</title>
<g id="a_node9"><a xlink:href="../../db/d41/ftvhelp_8cpp.html" target="_top" xlink:title=" ">
<polygon fill="white" stroke="#666666" points="1422,-30 1268,-30 1268,0 1422,0 1422,-30"/>
<text text-anchor="start" x="1276" y="-18" font-family="Helvetica,sans-Serif" font-size="10.00">/home/runner/work/doxygen</text>
<text text-anchor="middle" x="1345" y="-7" font-family="Helvetica,sans-Serif" font-size="10.00">/doxygen/src/ftvhelp.cpp</text>
</a>
</g>
</g>
<!-- Node1&#45;&gt;Node9 -->
<g id="edge8" class="edge">
<title>Node1&#45;&gt;Node9</title>
<path fill="none" stroke="#63b8ff" d="M1603.57,-64.11C1547.33,-53.64 1474.38,-40.07 1420.32,-30.01"/>
<polygon fill="#63b8ff" stroke="#63b8ff" points="1603.04,-67.57 1613.51,-65.95 1604.32,-60.68 1603.04,-67.57"/>
</g>
<!-- Node10 -->
<g id="node10" class="node">
<title>Node10</title>
<g id="a_node10"><a xlink:href="../../d6/d42/groupdef_8cpp.html" target="_top" xlink:title=" ">
<polygon fill="white" stroke="#666666" points="1594,-30 1440,-30 1440,0 1594,0 1594,-30"/>
<text text-anchor="start" x="1448" y="-18" font-family="Helvetica,sans-Serif" font-size="10.00">/home/runner/work/doxygen</text>
<text text-anchor="middle" x="1517" y="-7" font-family="Helvetica,sans-Serif" font-size="10.00">/doxygen/src/groupdef.cpp</text>
</a>
</g>
</g>
<!-- Node1&#45;&gt;Node10 -->
<g id="edge9" class="edge">
<title>Node1&#45;&gt;Node10</title>
<path fill="none" stroke="#63b8ff" d="M1641.85,-62.46C1614.41,-52.25 1580.29,-39.55 1554.66,-30.01"/>
<polygon fill="#63b8ff" stroke="#63b8ff" points="1640.66,-65.75 1651.25,-65.95 1643.1,-59.19 1640.66,-65.75"/>
</g>
<!-- Node11 -->
<g id="node11" class="node">
<title>Node11</title>
<g id="a_node11"><a xlink:href="../../d8/d6e/htmlgen_8cpp.html" target="_top" xlink:title=" ">
<polygon fill="white" stroke="#666666" points="1766,-30 1612,-30 1612,0 1766,0 1766,-30"/>
<text text-anchor="start" x="1620" y="-18" font-family="Helvetica,sans-Serif" font-size="10.00">/home/runner/work/doxygen</text>
<text text-anchor="middle" x="1689" y="-7" font-family="Helvetica,sans-Serif" font-size="10.00">/doxygen/src/htmlgen.cpp</text>
</a>
</g>
</g>
<!-- Node1&#45;&gt;Node11 -->
<g id="edge10" class="edge">
<title>Node1&#45;&gt;Node11</title>
<path fill="none" stroke="#63b8ff" d="M1689,-55.54C1689,-46.96 1689,-37.61 1689,-30.16"/>
<polygon fill="#63b8ff" stroke="#63b8ff" points="1685.5,-55.8 1689,-65.8 1692.5,-55.8 1685.5,-55.8"/>
</g>
<!-- Node12 -->
<g id="node12" class="node">
<title>Node12</title>
<g id="a_node12"><a xlink:href="../../db/d14/index_8cpp.html" target="_top" xlink:title="This file contains functions for the various index pages.">
<polygon fill="white" stroke="#666666" points="1938,-30 1784,-30 1784,0 1938,0 1938,-30"/>
<text text-anchor="start" x="1792" y="-18" font-family="Helvetica,sans-Serif" font-size="10.00">/home/runner/work/doxygen</text>
<text text-anchor="middle" x="1861" y="-7" font-family="Helvetica,sans-Serif" font-size="10.00">/doxygen/src/index.cpp</text>
</a>
</g>
</g>
<!-- Node1&#45;&gt;Node12 -->
<g id="edge11" class="edge">
<title>Node1&#45;&gt;Node12</title>
<path fill="none" stroke="#63b8ff" d="M1736.15,-62.46C1763.59,-52.25 1797.71,-39.55 1823.34,-30.01"/>
<polygon fill="#63b8ff" stroke="#63b8ff" points="1734.9,-59.19 1726.75,-65.95 1737.34,-65.75 1734.9,-59.19"/>
</g>
<!-- Node13 -->
<g id="node13" class="node">
<title>Node13</title>
<g id="a_node13"><a xlink:href="../../d4/d42/latexgen_8cpp.html" target="_top" xlink:title=" ">
<polygon fill="white" stroke="#666666" points="2110,-30 1956,-30 1956,0 2110,0 2110,-30"/>
<text text-anchor="start" x="1964" y="-18" font-family="Helvetica,sans-Serif" font-size="10.00">/home/runner/work/doxygen</text>
<text text-anchor="middle" x="2033" y="-7" font-family="Helvetica,sans-Serif" font-size="10.00">/doxygen/src/latexgen.cpp</text>
</a>
</g>
</g>
<!-- Node1&#45;&gt;Node13 -->
<g id="edge12" class="edge">
<title>Node1&#45;&gt;Node13</title>
<path fill="none" stroke="#63b8ff" d="M1774.43,-64.11C1830.67,-53.64 1903.62,-40.07 1957.68,-30.01"/>
<polygon fill="#63b8ff" stroke="#63b8ff" points="1773.68,-60.68 1764.49,-65.95 1774.96,-67.57 1773.68,-60.68"/>
</g>
<!-- Node14 -->
<g id="node14" class="node">
<title>Node14</title>
<g id="a_node14"><a xlink:href="../../d9/db4/pagedef_8cpp.html" target="_top" xlink:title=" ">
<polygon fill="white" stroke="#666666" points="2282,-30 2128,-30 2128,0 2282,0 2282,-30"/>
<text text-anchor="start" x="2136" y="-18" font-family="Helvetica,sans-Serif" font-size="10.00">/home/runner/work/doxygen</text>
<text text-anchor="middle" x="2205" y="-7" font-family="Helvetica,sans-Serif" font-size="10.00">/doxygen/src/pagedef.cpp</text>
</a>
</g>
</g>
<!-- Node1&#45;&gt;Node14 -->
<g id="edge13" class="edge">
<title>Node1&#45;&gt;Node14</title>
<path fill="none" stroke="#63b8ff" d="M1776.12,-71.05C1863.1,-61.83 2000.5,-46.53 2119,-30 2121.85,-29.6 2124.74,-29.19 2127.67,-28.76"/>
<polygon fill="#63b8ff" stroke="#63b8ff" points="1775.61,-67.58 1766.03,-72.11 1776.35,-74.54 1775.61,-67.58"/>
</g>
<!-- Node15 -->
<g id="node15" class="node">
<title>Node15</title>
<g id="a_node15"><a xlink:href="../../de/dd0/perlmodgen_8cpp.html" target="_top" xlink:title=" ">
<polygon fill="white" stroke="#666666" points="2461.5,-30 2300.5,-30 2300.5,0 2461.5,0 2461.5,-30"/>
<text text-anchor="start" x="2308.5" y="-18" font-family="Helvetica,sans-Serif" font-size="10.00">/home/runner/work/doxygen</text>
<text text-anchor="middle" x="2381" y="-7" font-family="Helvetica,sans-Serif" font-size="10.00">/doxygen/src/perlmodgen.cpp</text>
</a>
</g>
</g>
<!-- Node1&#45;&gt;Node15 -->
<g id="edge14" class="edge">
<title>Node1&#45;&gt;Node15</title>
<path fill="none" stroke="#63b8ff" d="M1776.15,-74.72C1893.41,-67.17 2108.36,-51.76 2291,-30 2293.98,-29.64 2297.02,-29.26 2300.08,-28.87"/>
<polygon fill="#63b8ff" stroke="#63b8ff" points="1775.91,-71.23 1766.15,-75.36 1776.35,-78.22 1775.91,-71.23"/>
</g>
<!-- Node16 -->
<g id="node16" class="node">
<title>Node16</title>
<g id="a_node16"><a xlink:href="../../d0/d9c/rtfgen_8cpp.html" target="_top" xlink:title=" ">
<polygon fill="white" stroke="#666666" points="2634,-30 2480,-30 2480,0 2634,0 2634,-30"/>
<text text-anchor="start" x="2488" y="-18" font-family="Helvetica,sans-Serif" font-size="10.00">/home/runner/work/doxygen</text>
<text text-anchor="middle" x="2557" y="-7" font-family="Helvetica,sans-Serif" font-size="10.00">/doxygen/src/rtfgen.cpp</text>
</a>
</g>
</g>
<!-- Node1&#45;&gt;Node16 -->
<g id="edge15" class="edge">
<title>Node1&#45;&gt;Node16</title>
<path fill="none" stroke="#63b8ff" d="M1776.24,-77.2C1920.96,-71.93 2219.68,-58.42 2471,-30 2473.86,-29.68 2476.76,-29.32 2479.69,-28.95"/>
<polygon fill="#63b8ff" stroke="#63b8ff" points="1775.95,-73.71 1766.08,-77.57 1776.2,-80.7 1775.95,-73.71"/>
</g>
<!-- Node17 -->
<g id="node17" class="node">
<title>Node17</title>
<g id="a_node17"><a xlink:href="../../d7/d79/searchindex_8cpp.html" target="_top" xlink:title=" ">
<polygon fill="white" stroke="#666666" points="2813.5,-30 2652.5,-30 2652.5,0 2813.5,0 2813.5,-30"/>
<text text-anchor="start" x="2660.5" y="-18" font-family="Helvetica,sans-Serif" font-size="10.00">/home/runner/work/doxygen</text>
<text text-anchor="middle" x="2733" y="-7" font-family="Helvetica,sans-Serif" font-size="10.00">/doxygen/src/searchindex.cpp</text>
</a>
</g>
</g>
<!-- Node1&#45;&gt;Node17 -->
<g id="edge16" class="edge">
<title>Node1&#45;&gt;Node17</title>
<path fill="none" stroke="#63b8ff" d="M1776.22,-78.4C1944.33,-74.66 2324.72,-63.01 2643,-30 2645.99,-29.69 2649.03,-29.35 2652.1,-28.98"/>
<polygon fill="#63b8ff" stroke="#63b8ff" points="1776.11,-74.9 1766.18,-78.62 1776.26,-81.9 1776.11,-74.9"/>
</g>
<!-- Node18 -->
<g id="node18" class="node">
<title>Node18</title>
<g id="a_node18"><a xlink:href="../../d9/d2f/searchindex__js_8cpp.html" target="_top" xlink:title=" ">
<polygon fill="white" stroke="#666666" points="3006.5,-30 2831.5,-30 2831.5,0 3006.5,0 3006.5,-30"/>
<text text-anchor="start" x="2839.5" y="-18" font-family="Helvetica,sans-Serif" font-size="10.00">/home/runner/work/doxygen</text>
<text text-anchor="middle" x="2919" y="-7" font-family="Helvetica,sans-Serif" font-size="10.00">/doxygen/src/searchindex_js.cpp</text>
</a>
</g>
</g>
<!-- Node1&#45;&gt;Node18 -->
<g id="edge17" class="edge">
<title>Node1&#45;&gt;Node18</title>
<path fill="none" stroke="#63b8ff" d="M1776.42,-79.14C1966.97,-76.62 2433.86,-66.86 2823,-30 2825.77,-29.74 2828.58,-29.45 2831.41,-29.14"/>
<polygon fill="#63b8ff" stroke="#63b8ff" points="1776.14,-75.65 1766.18,-79.27 1776.23,-82.65 1776.14,-75.65"/>
</g>
<!-- Node19 -->
<g id="node19" class="node">
<title>Node19</title>
<g id="a_node19"><a xlink:href="../../df/d2d/util_8cpp.html" target="_top" xlink:title=" ">
<polygon fill="white" stroke="#666666" points="3179,-30 3025,-30 3025,0 3179,0 3179,-30"/>
<text text-anchor="start" x="3033" y="-18" font-family="Helvetica,sans-Serif" font-size="10.00">/home/runner/work/doxygen</text>
<text text-anchor="middle" x="3102" y="-7" font-family="Helvetica,sans-Serif" font-size="10.00">/doxygen/src/util.cpp</text>
</a>
</g>
</g>
<!-- Node1&#45;&gt;Node19 -->
<g id="edge18" class="edge">
<title>Node1&#45;&gt;Node19</title>
<path fill="none" stroke="#63b8ff" d="M1776.43,-80.44C1989.16,-80.69 2550.48,-76.48 3016,-30 3018.86,-29.71 3021.77,-29.39 3024.7,-29.05"/>
<polygon fill="#63b8ff" stroke="#63b8ff" points="1776.27,-76.94 1766.26,-80.42 1776.26,-83.94 1776.27,-76.94"/>
</g>
<!-- Node20 -->
<g id="node20" class="node">
<title>Node20</title>
<g id="a_node20"><a xlink:href="../../d0/dc3/xmlgen_8cpp.html" target="_top" xlink:title=" ">
<polygon fill="white" stroke="#666666" points="3351,-30 3197,-30 3197,0 3351,0 3351,-30"/>
<text text-anchor="start" x="3205" y="-18" font-family="Helvetica,sans-Serif" font-size="10.00">/home/runner/work/doxygen</text>
<text text-anchor="middle" x="3274" y="-7" font-family="Helvetica,sans-Serif" font-size="10.00">/doxygen/src/xmlgen.cpp</text>
</a>
</g>
</g>
<!-- Node1&#45;&gt;Node20 -->
<g id="edge19" class="edge">
<title>Node1&#45;&gt;Node20</title>
<path fill="none" stroke="#63b8ff" d="M1776.4,-78.56C2053.65,-73.75 2911.37,-57.02 3188,-30 3190.86,-29.72 3193.77,-29.41 3196.71,-29.06"/>
<polygon fill="#63b8ff" stroke="#63b8ff" points="1776.33,-75.06 1766.39,-78.73 1776.45,-82.06 1776.33,-75.06"/>
</g>
</g>
</svg>
        <g id="navigator" transform="translate(0 0)" fill="#404254">
                <rect fill="#f2f5e9" fill-opacity="0.5" stroke="#606060" stroke-width=".5" x="0" y="0" width="60" height="60"/>
                <use id="zoomplus" xlink:href="#zoomPlus" x="17" y="9" onmousedown="handleZoom(evt,'in')"/>
                <use id="zoomminus" xlink:href="#zoomMin" x="42" y="9" onmousedown="handleZoom(evt,'out')"/>
                <use id="reset" xlink:href="#resetDef" x="30" y="36" onmousedown="handleReset()"/>
                <g id="arrowUp" xlink:href="#dirArrow" transform="translate(30 24)" onmousedown="handlePan(0,-1)">
                  <use xlink:href="#rim" fill="#404040">
                        <set attributeName="fill" to="#808080" begin="arrowUp.mouseover" end="arrowUp.mouseout"/>
                  </use>
                  <path fill="none" stroke="white" stroke-width="1.5" d="M0,-3.0v7 M-2.5,-0.5L0,-3.0L2.5,-0.5"/>
                </g>
                <g id="arrowRight" xlink:href="#dirArrow" transform="rotate(90) translate(36 -43)" onmousedown="handlePan(1,0)">
                  <use xlink:href="#rim" fill="#404040">
                        <set attributeName="fill" to="#808080" begin="arrowRight.mouseover" end="arrowRight.mouseout"/>
                  </use>
                  <path fill="none" stroke="white" stroke-width="1.5" d="M0,-3.0v7 M-2.5,-0.5L0,-3.0L2.5,-0.5"/>
                </g>
                <g id="arrowDown" xlink:href="#dirArrow" transform="rotate(180) translate(-30 -48)" onmousedown="handlePan(0,1)">
                  <use xlink:href="#rim" fill="#404040">
                        <set attributeName="fill" to="#808080" begin="arrowDown.mouseover" end="arrowDown.mouseout"/>
                  </use>
                  <path fill="none" stroke="white" stroke-width="1.5" d="M0,-3.0v7 M-2.5,-0.5L0,-3.0L2.5,-0.5"/>
                </g>
                <g id="arrowLeft" xlink:href="#dirArrow" transform="rotate(270) translate(-36 17)" onmousedown="handlePan(-1,0)">
                  <use xlink:href="#rim" fill="#404040">
                        <set attributeName="fill" to="#808080" begin="arrowLeft.mouseover" end="arrowLeft.mouseout"/>
                  </use>
                  <path fill="none" stroke="white" stroke-width="1.5" d="M0,-3.0v7 M-2.5,-0.5L0,-3.0L2.5,-0.5"/>
                </g>
        </g>
        <svg viewBox="0 0 15 15" width="100%" height="30px" preserveAspectRatio="xMaxYMin meet">
         <g id="arrow_out" transform="scale(0.3 0.3)">
          <a xlink:href="pagedef_8h__dep__incl_org.svg" target="_base">
           <rect id="button" ry="5" rx="5" y="6" x="6" height="38" width="38"
                fill="#f2f5e9" fill-opacity="0.5" stroke="#606060" stroke-width="1.0"/>
           <path id="arrow"
             d="M 11.500037,31.436501 C 11.940474,20.09759 22.043105,11.32322 32.158766,21.979434 L 37.068811,17.246167 C 37.068811,17.246167 37.088388,32 37.088388,32 L 22.160133,31.978069 C 22.160133,31.978069 26.997745,27.140456 26.997745,27.140456 C 18.528582,18.264221 13.291696,25.230495 11.500037,31.436501 z"
             style="fill:#404040;"/>
          </a>
         </g>
        </svg>
</svg>
