<?xml version="1.0" encoding="UTF-8" standalone="no"?>
<!DOCTYPE svg PUBLIC "-//W3C//DTD SVG 1.1//EN"
 "http://www.w3.org/Graphics/SVG/1.1/DTD/svg11.dtd">
<!-- Generated by graphviz version 2.43.0 (0)
 -->
<!-- Title: /home/runner/work/doxygen/doxygen/src/translator.h Pages: 1 -->
<svg width="8519pt" height="181pt"
 viewBox="0.00 0.00 8519.00 181.00" xmlns="http://www.w3.org/2000/svg" xmlns:xlink="http://www.w3.org/1999/xlink">
<g id="graph0" class="graph" transform="scale(1 1) rotate(0) translate(4 177)">
<title>/home/runner/work/doxygen/doxygen/src/translator.h</title>
<!-- Node1 -->
<g id="node1" class="node">
<title>Node1</title>
<g id="a_node1"><a xlink:title=" ">
<polygon fill="#999999" stroke="#666666" points="259,-173 105,-173 105,-143 259,-143 259,-173"/>
<text text-anchor="start" x="113" y="-161" font-family="Helvetica,sans-Serif" font-size="10.00">/home/runner/work/doxygen</text>
<text text-anchor="middle" x="182" y="-150" font-family="Helvetica,sans-Serif" font-size="10.00">/doxygen/src/translator.h</text>
</a>
</g>
</g>
<!-- Node2 -->
<g id="node2" class="node">
<title>Node2</title>
<g id="a_node2"><a xlink:href="../../d2/d48/language_8cpp.html" target="_top" xlink:title=" ">
<polygon fill="white" stroke="#666666" points="154,-30 0,-30 0,0 154,0 154,-30"/>
<text text-anchor="start" x="8" y="-18" font-family="Helvetica,sans-Serif" font-size="10.00">/home/runner/work/doxygen</text>
<text text-anchor="middle" x="77" y="-7" font-family="Helvetica,sans-Serif" font-size="10.00">/doxygen/src/language.cpp</text>
</a>
</g>
</g>
<!-- Node1&#45;&gt;Node2 -->
<g id="edge1" class="edge">
<title>Node1&#45;&gt;Node2</title>
<path fill="none" stroke="#63b8ff" d="M133.83,-138.17C119.72,-130.48 105.53,-120.21 96,-107 79.29,-83.83 76.6,-49.2 76.54,-30.03"/>
<polygon fill="#63b8ff" stroke="#63b8ff" points="132.55,-141.45 143.05,-142.86 135.72,-135.21 132.55,-141.45"/>
</g>
<!-- Node3 -->
<g id="node3" class="node">
<title>Node3</title>
<g id="a_node3"><a xlink:href="../../d8/dce/language_8h.html" target="_top" xlink:title=" ">
<polygon fill="white" stroke="#666666" points="4231,-101.5 4077,-101.5 4077,-71.5 4231,-71.5 4231,-101.5"/>
<text text-anchor="start" x="4085" y="-89.5" font-family="Helvetica,sans-Serif" font-size="10.00">/home/runner/work/doxygen</text>
<text text-anchor="middle" x="4154" y="-78.5" font-family="Helvetica,sans-Serif" font-size="10.00">/doxygen/src/language.h</text>
</a>
</g>
</g>
<!-- Node1&#45;&gt;Node3 -->
<g id="edge2" class="edge">
<title>Node1&#45;&gt;Node3</title>
<path fill="none" stroke="#63b8ff" d="M269.37,-155.47C799.26,-146.2 3576.34,-97.61 4076.71,-88.85"/>
<polygon fill="#63b8ff" stroke="#63b8ff" points="269.06,-151.98 259.12,-155.65 269.18,-158.98 269.06,-151.98"/>
</g>
<!-- Node51 -->
<g id="node51" class="node">
<title>Node51</title>
<g id="a_node51"><a xlink:href="../../da/de6/translator__adapter_8h.html" target="_top" xlink:title=" ">
<polygon fill="white" stroke="#666666" points="259,-107 105,-107 105,-66 259,-66 259,-107"/>
<text text-anchor="start" x="113" y="-95" font-family="Helvetica,sans-Serif" font-size="10.00">/home/runner/work/doxygen</text>
<text text-anchor="start" x="113" y="-84" font-family="Helvetica,sans-Serif" font-size="10.00">/doxygen/src/translator</text>
<text text-anchor="middle" x="182" y="-73" font-family="Helvetica,sans-Serif" font-size="10.00">_adapter.h</text>
</a>
</g>
</g>
<!-- Node1&#45;&gt;Node51 -->
<g id="edge51" class="edge">
<title>Node1&#45;&gt;Node51</title>
<path fill="none" stroke="#63b8ff" d="M182,-132.91C182,-124.47 182,-115.1 182,-107.07"/>
<polygon fill="#63b8ff" stroke="#63b8ff" points="178.5,-132.94 182,-142.94 185.5,-132.94 178.5,-132.94"/>
</g>
<!-- Node3&#45;&gt;Node2 -->
<g id="edge29" class="edge">
<title>Node3&#45;&gt;Node2</title>
<path fill="none" stroke="#63b8ff" d="M4066.47,-85.06C3517.87,-82.19 563.51,-65.19 163,-30 160.14,-29.75 157.23,-29.46 154.29,-29.13"/>
<polygon fill="#63b8ff" stroke="#63b8ff" points="4066.67,-88.56 4076.69,-85.11 4066.71,-81.56 4066.67,-88.56"/>
</g>
<!-- Node4 -->
<g id="node4" class="node">
<title>Node4</title>
<g id="a_node4"><a xlink:href="../../d5/d0b/cite_8cpp.html" target="_top" xlink:title=" ">
<polygon fill="white" stroke="#666666" points="326,-30 172,-30 172,0 326,0 326,-30"/>
<text text-anchor="start" x="180" y="-18" font-family="Helvetica,sans-Serif" font-size="10.00">/home/runner/work/doxygen</text>
<text text-anchor="middle" x="249" y="-7" font-family="Helvetica,sans-Serif" font-size="10.00">/doxygen/src/cite.cpp</text>
</a>
</g>
</g>
<!-- Node3&#45;&gt;Node4 -->
<g id="edge3" class="edge">
<title>Node3&#45;&gt;Node4</title>
<path fill="none" stroke="#63b8ff" d="M4066.45,-85C3531.81,-81.84 717.32,-63.71 335,-30 332.14,-29.75 329.23,-29.46 326.29,-29.13"/>
<polygon fill="#63b8ff" stroke="#63b8ff" points="4066.76,-88.5 4076.79,-85.06 4066.81,-81.5 4066.76,-88.5"/>
</g>
<!-- Node5 -->
<g id="node5" class="node">
<title>Node5</title>
<g id="a_node5"><a xlink:href="../../de/d89/classdef_8cpp.html" target="_top" xlink:title=" ">
<polygon fill="white" stroke="#666666" points="498,-30 344,-30 344,0 498,0 498,-30"/>
<text text-anchor="start" x="352" y="-18" font-family="Helvetica,sans-Serif" font-size="10.00">/home/runner/work/doxygen</text>
<text text-anchor="middle" x="421" y="-7" font-family="Helvetica,sans-Serif" font-size="10.00">/doxygen/src/classdef.cpp</text>
</a>
</g>
</g>
<!-- Node3&#45;&gt;Node5 -->
<g id="edge4" class="edge">
<title>Node3&#45;&gt;Node5</title>
<path fill="none" stroke="#63b8ff" d="M4066.65,-84.94C3546.87,-81.48 871.22,-62.24 507,-30 504.14,-29.75 501.23,-29.45 498.29,-29.13"/>
<polygon fill="#63b8ff" stroke="#63b8ff" points="4066.69,-88.44 4076.71,-85 4066.74,-81.44 4066.69,-88.44"/>
</g>
<!-- Node6 -->
<g id="node6" class="node">
<title>Node6</title>
<g id="a_node6"><a xlink:href="../../d6/d10/classlist_8cpp.html" target="_top" xlink:title=" ">
<polygon fill="white" stroke="#666666" points="670,-30 516,-30 516,0 670,0 670,-30"/>
<text text-anchor="start" x="524" y="-18" font-family="Helvetica,sans-Serif" font-size="10.00">/home/runner/work/doxygen</text>
<text text-anchor="middle" x="593" y="-7" font-family="Helvetica,sans-Serif" font-size="10.00">/doxygen/src/classlist.cpp</text>
</a>
</g>
</g>
<!-- Node3&#45;&gt;Node6 -->
<g id="edge5" class="edge">
<title>Node3&#45;&gt;Node6</title>
<path fill="none" stroke="#63b8ff" d="M4066.89,-85.81C3597.66,-87.19 1366.88,-90.44 680,-30 676.8,-29.72 673.54,-29.39 670.25,-29.02"/>
<polygon fill="#63b8ff" stroke="#63b8ff" points="4067,-89.3 4076.99,-85.77 4066.98,-82.3 4067,-89.3"/>
</g>
<!-- Node7 -->
<g id="node7" class="node">
<title>Node7</title>
<g id="a_node7"><a xlink:href="../../d7/d5f/commentscan_8l.html" target="_top" xlink:title=" ">
<polygon fill="white" stroke="#666666" points="845.5,-30 688.5,-30 688.5,0 845.5,0 845.5,-30"/>
<text text-anchor="start" x="696.5" y="-18" font-family="Helvetica,sans-Serif" font-size="10.00">/home/runner/work/doxygen</text>
<text text-anchor="middle" x="767" y="-7" font-family="Helvetica,sans-Serif" font-size="10.00">/doxygen/src/commentscan.l</text>
</a>
</g>
</g>
<!-- Node3&#45;&gt;Node7 -->
<g id="edge6" class="edge">
<title>Node3&#45;&gt;Node7</title>
<path fill="none" stroke="#63b8ff" d="M4066.54,-85.7C3610.88,-86.48 1505.03,-86.89 855,-30 851.92,-29.73 848.78,-29.42 845.61,-29.07"/>
<polygon fill="#63b8ff" stroke="#63b8ff" points="4066.68,-89.2 4076.67,-85.68 4066.67,-82.2 4066.68,-89.2"/>
</g>
<!-- Node8 -->
<g id="node8" class="node">
<title>Node8</title>
<g id="a_node8"><a xlink:href="../../d8/d0a/conceptdef_8cpp.html" target="_top" xlink:title=" ">
<polygon fill="white" stroke="#666666" points="1018.5,-30 863.5,-30 863.5,0 1018.5,0 1018.5,-30"/>
<text text-anchor="start" x="871.5" y="-18" font-family="Helvetica,sans-Serif" font-size="10.00">/home/runner/work/doxygen</text>
<text text-anchor="middle" x="941" y="-7" font-family="Helvetica,sans-Serif" font-size="10.00">/doxygen/src/conceptdef.cpp</text>
</a>
</g>
</g>
<!-- Node3&#45;&gt;Node8 -->
<g id="edge7" class="edge">
<title>Node3&#45;&gt;Node8</title>
<path fill="none" stroke="#63b8ff" d="M4066.87,-85.62C3626.43,-86 1641.89,-84.57 1028,-30 1024.95,-29.73 1021.85,-29.42 1018.72,-29.07"/>
<polygon fill="#63b8ff" stroke="#63b8ff" points="4066.99,-89.12 4076.99,-85.62 4066.99,-82.12 4066.99,-89.12"/>
</g>
<!-- Node9 -->
<g id="node9" class="node">
<title>Node9</title>
<g id="a_node9"><a xlink:href="../../d9/de3/configimpl_8l.html" target="_top" xlink:title=" ">
<polygon fill="white" stroke="#666666" points="1191,-30 1037,-30 1037,0 1191,0 1191,-30"/>
<text text-anchor="start" x="1045" y="-18" font-family="Helvetica,sans-Serif" font-size="10.00">/home/runner/work/doxygen</text>
<text text-anchor="middle" x="1114" y="-7" font-family="Helvetica,sans-Serif" font-size="10.00">/doxygen/src/configimpl.l</text>
</a>
</g>
</g>
<!-- Node3&#45;&gt;Node9 -->
<g id="edge8" class="edge">
<title>Node3&#45;&gt;Node9</title>
<path fill="none" stroke="#63b8ff" d="M4066.86,-85.54C3641.23,-85.48 1777.84,-82.19 1200,-30 1197.14,-29.74 1194.23,-29.44 1191.29,-29.12"/>
<polygon fill="#63b8ff" stroke="#63b8ff" points="4066.95,-89.04 4076.95,-85.54 4066.95,-82.04 4066.95,-89.04"/>
</g>
<!-- Node10 -->
<g id="node10" class="node">
<title>Node10</title>
<g id="a_node10"><a xlink:href="../../db/d12/context_8cpp.html" target="_top" xlink:title=" ">
<polygon fill="white" stroke="#666666" points="1363,-30 1209,-30 1209,0 1363,0 1363,-30"/>
<text text-anchor="start" x="1217" y="-18" font-family="Helvetica,sans-Serif" font-size="10.00">/home/runner/work/doxygen</text>
<text text-anchor="middle" x="1286" y="-7" font-family="Helvetica,sans-Serif" font-size="10.00">/doxygen/src/context.cpp</text>
</a>
</g>
</g>
<!-- Node3&#45;&gt;Node10 -->
<g id="edge9" class="edge">
<title>Node3&#45;&gt;Node10</title>
<path fill="none" stroke="#63b8ff" d="M4066.96,-85.42C3656.77,-84.8 1913.96,-79.27 1372,-30 1369.14,-29.74 1366.23,-29.44 1363.29,-29.11"/>
<polygon fill="#63b8ff" stroke="#63b8ff" points="4066.97,-88.92 4076.98,-85.44 4066.98,-81.92 4066.97,-88.92"/>
</g>
<!-- Node11 -->
<g id="node11" class="node">
<title>Node11</title>
<g id="a_node11"><a xlink:href="../../d7/d14/datetime_8cpp.html" target="_top" xlink:title=" ">
<polygon fill="white" stroke="#666666" points="1535,-30 1381,-30 1381,0 1535,0 1535,-30"/>
<text text-anchor="start" x="1389" y="-18" font-family="Helvetica,sans-Serif" font-size="10.00">/home/runner/work/doxygen</text>
<text text-anchor="middle" x="1458" y="-7" font-family="Helvetica,sans-Serif" font-size="10.00">/doxygen/src/datetime.cpp</text>
</a>
</g>
</g>
<!-- Node3&#45;&gt;Node11 -->
<g id="edge10" class="edge">
<title>Node3&#45;&gt;Node11</title>
<path fill="none" stroke="#63b8ff" d="M4066.6,-85.29C3671.54,-84.08 2049.95,-76.33 1544,-30 1541.14,-29.74 1538.23,-29.44 1535.29,-29.11"/>
<polygon fill="#63b8ff" stroke="#63b8ff" points="4066.81,-88.79 4076.82,-85.32 4066.83,-81.79 4066.81,-88.79"/>
</g>
<!-- Node12 -->
<g id="node12" class="node">
<title>Node12</title>
<g id="a_node12"><a xlink:href="../../d3/dea/definition_8cpp.html" target="_top" xlink:title=" ">
<polygon fill="white" stroke="#666666" points="1707,-30 1553,-30 1553,0 1707,0 1707,-30"/>
<text text-anchor="start" x="1561" y="-18" font-family="Helvetica,sans-Serif" font-size="10.00">/home/runner/work/doxygen</text>
<text text-anchor="middle" x="1630" y="-7" font-family="Helvetica,sans-Serif" font-size="10.00">/doxygen/src/definition.cpp</text>
</a>
</g>
</g>
<!-- Node3&#45;&gt;Node12 -->
<g id="edge11" class="edge">
<title>Node3&#45;&gt;Node12</title>
<path fill="none" stroke="#63b8ff" d="M4066.81,-85.14C3688.38,-83.31 2186.25,-73.42 1716,-30 1713.14,-29.74 1710.23,-29.43 1707.29,-29.1"/>
<polygon fill="#63b8ff" stroke="#63b8ff" points="4066.86,-88.64 4076.87,-85.18 4066.89,-81.64 4066.86,-88.64"/>
</g>
<!-- Node13 -->
<g id="node13" class="node">
<title>Node13</title>
<g id="a_node13"><a xlink:href="../../d8/d52/dirdef_8cpp.html" target="_top" xlink:title=" ">
<polygon fill="white" stroke="#666666" points="1879,-30 1725,-30 1725,0 1879,0 1879,-30"/>
<text text-anchor="start" x="1733" y="-18" font-family="Helvetica,sans-Serif" font-size="10.00">/home/runner/work/doxygen</text>
<text text-anchor="middle" x="1802" y="-7" font-family="Helvetica,sans-Serif" font-size="10.00">/doxygen/src/dirdef.cpp</text>
</a>
</g>
</g>
<!-- Node3&#45;&gt;Node13 -->
<g id="edge12" class="edge">
<title>Node3&#45;&gt;Node13</title>
<path fill="none" stroke="#63b8ff" d="M4066.81,-84.94C3705.37,-82.37 2323.39,-70.09 1889,-30 1885.8,-29.7 1882.54,-29.36 1879.25,-28.99"/>
<polygon fill="#63b8ff" stroke="#63b8ff" points="4066.93,-88.44 4076.95,-85.01 4066.98,-81.44 4066.93,-88.44"/>
</g>
<!-- Node14 -->
<g id="node14" class="node">
<title>Node14</title>
<g id="a_node14"><a xlink:href="../../d8/d29/docbookgen_8cpp.html" target="_top" xlink:title=" ">
<polygon fill="white" stroke="#666666" points="2058.5,-30 1897.5,-30 1897.5,0 2058.5,0 2058.5,-30"/>
<text text-anchor="start" x="1905.5" y="-18" font-family="Helvetica,sans-Serif" font-size="10.00">/home/runner/work/doxygen</text>
<text text-anchor="middle" x="1978" y="-7" font-family="Helvetica,sans-Serif" font-size="10.00">/doxygen/src/docbookgen.cpp</text>
</a>
</g>
</g>
<!-- Node3&#45;&gt;Node14 -->
<g id="edge13" class="edge">
<title>Node3&#45;&gt;Node14</title>
<path fill="none" stroke="#63b8ff" d="M4066.67,-84.66C3723.3,-81.15 2465.37,-66.04 2068,-30 2065.01,-29.73 2061.96,-29.42 2058.89,-29.08"/>
<polygon fill="#63b8ff" stroke="#63b8ff" points="4066.77,-88.17 4076.81,-84.77 4066.84,-81.17 4066.77,-88.17"/>
</g>
<!-- Node15 -->
<g id="node15" class="node">
<title>Node15</title>
<g id="a_node15"><a xlink:href="../../dc/d05/docbookvisitor_8cpp.html" target="_top" xlink:title=" ">
<polygon fill="white" stroke="#666666" points="2249.5,-30 2076.5,-30 2076.5,0 2249.5,0 2249.5,-30"/>
<text text-anchor="start" x="2084.5" y="-18" font-family="Helvetica,sans-Serif" font-size="10.00">/home/runner/work/doxygen</text>
<text text-anchor="middle" x="2163" y="-7" font-family="Helvetica,sans-Serif" font-size="10.00">/doxygen/src/docbookvisitor.cpp</text>
</a>
</g>
</g>
<!-- Node3&#45;&gt;Node15 -->
<g id="edge14" class="edge">
<title>Node3&#45;&gt;Node15</title>
<path fill="none" stroke="#63b8ff" d="M4066.72,-84.28C3743.82,-79.58 2617.12,-61.25 2259,-30 2255.9,-29.73 2252.74,-29.42 2249.55,-29.09"/>
<polygon fill="#63b8ff" stroke="#63b8ff" points="4066.9,-87.79 4076.95,-84.43 4067.01,-80.79 4066.9,-87.79"/>
</g>
<!-- Node16 -->
<g id="node16" class="node">
<title>Node16</title>
<g id="a_node16"><a xlink:href="../../d0/d2b/docnode_8cpp.html" target="_top" xlink:title=" ">
<polygon fill="white" stroke="#666666" points="2422,-30 2268,-30 2268,0 2422,0 2422,-30"/>
<text text-anchor="start" x="2276" y="-18" font-family="Helvetica,sans-Serif" font-size="10.00">/home/runner/work/doxygen</text>
<text text-anchor="middle" x="2345" y="-7" font-family="Helvetica,sans-Serif" font-size="10.00">/doxygen/src/docnode.cpp</text>
</a>
</g>
</g>
<!-- Node3&#45;&gt;Node16 -->
<g id="edge15" class="edge">
<title>Node3&#45;&gt;Node16</title>
<path fill="none" stroke="#63b8ff" d="M4066.8,-84.18C3763.2,-79.36 2753.52,-61.31 2431,-30 2428.14,-29.72 2425.23,-29.41 2422.29,-29.07"/>
<polygon fill="#63b8ff" stroke="#63b8ff" points="4066.81,-87.68 4076.87,-84.34 4066.93,-80.68 4066.81,-87.68"/>
</g>
<!-- Node17 -->
<g id="node17" class="node">
<title>Node17</title>
<g id="a_node17"><a xlink:href="../../de/daa/dot_8cpp.html" target="_top" xlink:title=" ">
<polygon fill="white" stroke="#666666" points="2594,-30 2440,-30 2440,0 2594,0 2594,-30"/>
<text text-anchor="start" x="2448" y="-18" font-family="Helvetica,sans-Serif" font-size="10.00">/home/runner/work/doxygen</text>
<text text-anchor="middle" x="2517" y="-7" font-family="Helvetica,sans-Serif" font-size="10.00">/doxygen/src/dot.cpp</text>
</a>
</g>
</g>
<!-- Node3&#45;&gt;Node17 -->
<g id="edge16" class="edge">
<title>Node3&#45;&gt;Node17</title>
<path fill="none" stroke="#63b8ff" d="M4066.45,-86.21C3829.86,-87.3 3158.17,-84.9 2603,-30 2600.14,-29.72 2597.23,-29.4 2594.29,-29.05"/>
<polygon fill="#63b8ff" stroke="#63b8ff" points="4066.73,-89.71 4076.71,-86.16 4066.69,-82.71 4066.73,-89.71"/>
</g>
<!-- Node18 -->
<g id="node18" class="node">
<title>Node18</title>
<g id="a_node18"><a xlink:href="../../d4/d09/dotgfxhierarchytable_8cpp.html" target="_top" xlink:title=" ">
<polygon fill="white" stroke="#666666" points="2816,-30 2612,-30 2612,0 2816,0 2816,-30"/>
<text text-anchor="start" x="2620" y="-18" font-family="Helvetica,sans-Serif" font-size="10.00">/home/runner/work/doxygen</text>
<text text-anchor="middle" x="2714" y="-7" font-family="Helvetica,sans-Serif" font-size="10.00">/doxygen/src/dotgfxhierarchytable.cpp</text>
</a>
</g>
</g>
<!-- Node3&#45;&gt;Node18 -->
<g id="edge17" class="edge">
<title>Node3&#45;&gt;Node18</title>
<path fill="none" stroke="#63b8ff" d="M4066.6,-84.34C3853.93,-80.98 3292.65,-68.85 2826,-30 2822.78,-29.73 2819.51,-29.44 2816.2,-29.13"/>
<polygon fill="#63b8ff" stroke="#63b8ff" points="4066.72,-87.84 4076.77,-84.5 4066.82,-80.85 4066.72,-87.84"/>
</g>
<!-- Node19 -->
<g id="node19" class="node">
<title>Node19</title>
<g id="a_node19"><a xlink:href="../../d4/d33/dotlegendgraph_8cpp.html" target="_top" xlink:title=" ">
<polygon fill="white" stroke="#666666" points="3013.5,-30 2834.5,-30 2834.5,0 3013.5,0 3013.5,-30"/>
<text text-anchor="start" x="2842.5" y="-18" font-family="Helvetica,sans-Serif" font-size="10.00">/home/runner/work/doxygen</text>
<text text-anchor="middle" x="2924" y="-7" font-family="Helvetica,sans-Serif" font-size="10.00">/doxygen/src/dotlegendgraph.cpp</text>
</a>
</g>
</g>
<!-- Node3&#45;&gt;Node19 -->
<g id="edge18" class="edge">
<title>Node3&#45;&gt;Node19</title>
<path fill="none" stroke="#63b8ff" d="M4066.47,-83.93C3876.23,-79.92 3410.95,-66.87 3023,-30 3019.89,-29.7 3016.73,-29.38 3013.54,-29.04"/>
<polygon fill="#63b8ff" stroke="#63b8ff" points="4066.62,-87.43 4076.69,-84.14 4066.76,-80.43 4066.62,-87.43"/>
</g>
<!-- Node20 -->
<g id="node20" class="node">
<title>Node20</title>
<g id="a_node20"><a xlink:href="../../df/d58/dotnode_8cpp.html" target="_top" xlink:title=" ">
<polygon fill="white" stroke="#666666" points="3186,-30 3032,-30 3032,0 3186,0 3186,-30"/>
<text text-anchor="start" x="3040" y="-18" font-family="Helvetica,sans-Serif" font-size="10.00">/home/runner/work/doxygen</text>
<text text-anchor="middle" x="3109" y="-7" font-family="Helvetica,sans-Serif" font-size="10.00">/doxygen/src/dotnode.cpp</text>
</a>
</g>
</g>
<!-- Node3&#45;&gt;Node20 -->
<g id="edge19" class="edge">
<title>Node3&#45;&gt;Node20</title>
<path fill="none" stroke="#63b8ff" d="M4066.62,-83.47C3897.76,-78.88 3515.03,-65.21 3195,-30 3192.14,-29.69 3189.24,-29.34 3186.3,-28.97"/>
<polygon fill="#63b8ff" stroke="#63b8ff" points="4066.61,-86.97 4076.7,-83.74 4066.8,-79.97 4066.61,-86.97"/>
</g>
<!-- Node21 -->
<g id="node21" class="node">
<title>Node21</title>
<g id="a_node21"><a xlink:href="../../dc/d98/doxygen_8cpp.html" target="_top" xlink:title=" ">
<polygon fill="white" stroke="#666666" points="3358,-30 3204,-30 3204,0 3358,0 3358,-30"/>
<text text-anchor="start" x="3212" y="-18" font-family="Helvetica,sans-Serif" font-size="10.00">/home/runner/work/doxygen</text>
<text text-anchor="middle" x="3281" y="-7" font-family="Helvetica,sans-Serif" font-size="10.00">/doxygen/src/doxygen.cpp</text>
</a>
</g>
</g>
<!-- Node3&#45;&gt;Node21 -->
<g id="edge20" class="edge">
<title>Node3&#45;&gt;Node21</title>
<path fill="none" stroke="#63b8ff" d="M4066.78,-81.94C3921.35,-75.44 3620.27,-59.48 3367,-30 3364.15,-29.67 3361.24,-29.31 3358.31,-28.93"/>
<polygon fill="#63b8ff" stroke="#63b8ff" points="4066.84,-85.45 4076.98,-82.4 4067.15,-78.46 4066.84,-85.45"/>
</g>
<!-- Node22 -->
<g id="node22" class="node">
<title>Node22</title>
<g id="a_node22"><a xlink:href="../../d6/ddc/filedef_8cpp.html" target="_top" xlink:title=" ">
<polygon fill="white" stroke="#666666" points="3530,-30 3376,-30 3376,0 3530,0 3530,-30"/>
<text text-anchor="start" x="3384" y="-18" font-family="Helvetica,sans-Serif" font-size="10.00">/home/runner/work/doxygen</text>
<text text-anchor="middle" x="3453" y="-7" font-family="Helvetica,sans-Serif" font-size="10.00">/doxygen/src/filedef.cpp</text>
</a>
</g>
</g>
<!-- Node3&#45;&gt;Node22 -->
<g id="edge21" class="edge">
<title>Node3&#45;&gt;Node22</title>
<path fill="none" stroke="#63b8ff" d="M4066.44,-79.57C3946.97,-71.04 3726.32,-53.67 3539,-30 3536.15,-29.64 3533.25,-29.26 3530.32,-28.85"/>
<polygon fill="#63b8ff" stroke="#63b8ff" points="4066.4,-83.08 4076.63,-80.3 4066.9,-76.1 4066.4,-83.08"/>
</g>
<!-- Node23 -->
<g id="node23" class="node">
<title>Node23</title>
<g id="a_node23"><a xlink:href="../../dd/d00/fortranscanner_8l.html" target="_top" xlink:title=" ">
<polygon fill="white" stroke="#666666" points="3706,-30 3548,-30 3548,0 3706,0 3706,-30"/>
<text text-anchor="start" x="3556" y="-18" font-family="Helvetica,sans-Serif" font-size="10.00">/home/runner/work/doxygen</text>
<text text-anchor="middle" x="3627" y="-7" font-family="Helvetica,sans-Serif" font-size="10.00">/doxygen/src/fortranscanner.l</text>
</a>
</g>
</g>
<!-- Node3&#45;&gt;Node23 -->
<g id="edge22" class="edge">
<title>Node3&#45;&gt;Node23</title>
<path fill="none" stroke="#63b8ff" d="M4066.97,-75.33C3978.31,-64.77 3836.93,-47.4 3715,-30 3712.09,-29.58 3709.13,-29.15 3706.14,-28.71"/>
<polygon fill="#63b8ff" stroke="#63b8ff" points="4066.63,-78.81 4076.98,-76.52 4067.46,-71.86 4066.63,-78.81"/>
</g>
<!-- Node24 -->
<g id="node24" class="node">
<title>Node24</title>
<g id="a_node24"><a xlink:href="../../db/d41/ftvhelp_8cpp.html" target="_top" xlink:title=" ">
<polygon fill="white" stroke="#666666" points="3878,-30 3724,-30 3724,0 3878,0 3878,-30"/>
<text text-anchor="start" x="3732" y="-18" font-family="Helvetica,sans-Serif" font-size="10.00">/home/runner/work/doxygen</text>
<text text-anchor="middle" x="3801" y="-7" font-family="Helvetica,sans-Serif" font-size="10.00">/doxygen/src/ftvhelp.cpp</text>
</a>
</g>
</g>
<!-- Node3&#45;&gt;Node24 -->
<g id="edge23" class="edge">
<title>Node3&#45;&gt;Node24</title>
<path fill="none" stroke="#63b8ff" d="M4072.66,-69.49C4012.14,-57.57 3930.31,-41.46 3872.33,-30.04"/>
<polygon fill="#63b8ff" stroke="#63b8ff" points="4072.08,-72.94 4082.57,-71.44 4073.43,-66.07 4072.08,-72.94"/>
</g>
<!-- Node25 -->
<g id="node25" class="node">
<title>Node25</title>
<g id="a_node25"><a xlink:href="../../d6/d42/groupdef_8cpp.html" target="_top" xlink:title=" ">
<polygon fill="white" stroke="#666666" points="4050,-30 3896,-30 3896,0 4050,0 4050,-30"/>
<text text-anchor="start" x="3904" y="-18" font-family="Helvetica,sans-Serif" font-size="10.00">/home/runner/work/doxygen</text>
<text text-anchor="middle" x="3973" y="-7" font-family="Helvetica,sans-Serif" font-size="10.00">/doxygen/src/groupdef.cpp</text>
</a>
</g>
</g>
<!-- Node3&#45;&gt;Node25 -->
<g id="edge24" class="edge">
<title>Node3&#45;&gt;Node25</title>
<path fill="none" stroke="#63b8ff" d="M4107.81,-67.76C4077.31,-56.05 4037.9,-40.92 4009.57,-30.04"/>
<polygon fill="#63b8ff" stroke="#63b8ff" points="4106.78,-71.12 4117.37,-71.44 4109.29,-64.58 4106.78,-71.12"/>
</g>
<!-- Node26 -->
<g id="node26" class="node">
<title>Node26</title>
<g id="a_node26"><a xlink:href="../../da/db0/htmldocvisitor_8cpp.html" target="_top" xlink:title=" ">
<polygon fill="white" stroke="#666666" points="4240,-30 4068,-30 4068,0 4240,0 4240,-30"/>
<text text-anchor="start" x="4076" y="-18" font-family="Helvetica,sans-Serif" font-size="10.00">/home/runner/work/doxygen</text>
<text text-anchor="middle" x="4154" y="-7" font-family="Helvetica,sans-Serif" font-size="10.00">/doxygen/src/htmldocvisitor.cpp</text>
</a>
</g>
</g>
<!-- Node3&#45;&gt;Node26 -->
<g id="edge25" class="edge">
<title>Node3&#45;&gt;Node26</title>
<path fill="none" stroke="#63b8ff" d="M4154,-61.25C4154,-50.81 4154,-38.99 4154,-30.04"/>
<polygon fill="#63b8ff" stroke="#63b8ff" points="4150.5,-61.44 4154,-71.44 4157.5,-61.44 4150.5,-61.44"/>
</g>
<!-- Node27 -->
<g id="node27" class="node">
<title>Node27</title>
<g id="a_node27"><a xlink:href="../../d8/d6e/htmlgen_8cpp.html" target="_top" xlink:title=" ">
<polygon fill="white" stroke="#666666" points="4412,-30 4258,-30 4258,0 4412,0 4412,-30"/>
<text text-anchor="start" x="4266" y="-18" font-family="Helvetica,sans-Serif" font-size="10.00">/home/runner/work/doxygen</text>
<text text-anchor="middle" x="4335" y="-7" font-family="Helvetica,sans-Serif" font-size="10.00">/doxygen/src/htmlgen.cpp</text>
</a>
</g>
</g>
<!-- Node3&#45;&gt;Node27 -->
<g id="edge26" class="edge">
<title>Node3&#45;&gt;Node27</title>
<path fill="none" stroke="#63b8ff" d="M4200.19,-67.76C4230.69,-56.05 4270.1,-40.92 4298.43,-30.04"/>
<polygon fill="#63b8ff" stroke="#63b8ff" points="4198.71,-64.58 4190.63,-71.44 4201.22,-71.12 4198.71,-64.58"/>
</g>
<!-- Node28 -->
<g id="node28" class="node">
<title>Node28</title>
<g id="a_node28"><a xlink:href="../../d3/d4b/htmlhelp_8cpp.html" target="_top" xlink:title=" ">
<polygon fill="white" stroke="#666666" points="4584,-30 4430,-30 4430,0 4584,0 4584,-30"/>
<text text-anchor="start" x="4438" y="-18" font-family="Helvetica,sans-Serif" font-size="10.00">/home/runner/work/doxygen</text>
<text text-anchor="middle" x="4507" y="-7" font-family="Helvetica,sans-Serif" font-size="10.00">/doxygen/src/htmlhelp.cpp</text>
</a>
</g>
</g>
<!-- Node3&#45;&gt;Node28 -->
<g id="edge27" class="edge">
<title>Node3&#45;&gt;Node28</title>
<path fill="none" stroke="#63b8ff" d="M4235.34,-69.49C4295.86,-57.57 4377.69,-41.46 4435.67,-30.04"/>
<polygon fill="#63b8ff" stroke="#63b8ff" points="4234.57,-66.07 4225.43,-71.44 4235.92,-72.94 4234.57,-66.07"/>
</g>
<!-- Node29 -->
<g id="node29" class="node">
<title>Node29</title>
<g id="a_node29"><a xlink:href="../../db/d14/index_8cpp.html" target="_top" xlink:title="This file contains functions for the various index pages.">
<polygon fill="white" stroke="#666666" points="4756,-30 4602,-30 4602,0 4756,0 4756,-30"/>
<text text-anchor="start" x="4610" y="-18" font-family="Helvetica,sans-Serif" font-size="10.00">/home/runner/work/doxygen</text>
<text text-anchor="middle" x="4679" y="-7" font-family="Helvetica,sans-Serif" font-size="10.00">/doxygen/src/index.cpp</text>
</a>
</g>
</g>
<!-- Node3&#45;&gt;Node29 -->
<g id="edge28" class="edge">
<title>Node3&#45;&gt;Node29</title>
<path fill="none" stroke="#63b8ff" d="M4241.05,-75.42C4329.71,-64.94 4471.11,-47.62 4593,-30 4595.84,-29.59 4598.74,-29.16 4601.66,-28.72"/>
<polygon fill="#63b8ff" stroke="#63b8ff" points="4240.56,-71.96 4231.04,-76.6 4241.38,-78.91 4240.56,-71.96"/>
</g>
<!-- Node30 -->
<g id="node30" class="node">
<title>Node30</title>
<g id="a_node30"><a xlink:href="../../d1/d4e/latexdocvisitor_8cpp.html" target="_top" xlink:title=" ">
<polygon fill="white" stroke="#666666" points="4948,-30 4774,-30 4774,0 4948,0 4948,-30"/>
<text text-anchor="start" x="4782" y="-18" font-family="Helvetica,sans-Serif" font-size="10.00">/home/runner/work/doxygen</text>
<text text-anchor="middle" x="4861" y="-7" font-family="Helvetica,sans-Serif" font-size="10.00">/doxygen/src/latexdocvisitor.cpp</text>
</a>
</g>
</g>
<!-- Node3&#45;&gt;Node30 -->
<g id="edge30" class="edge">
<title>Node3&#45;&gt;Node30</title>
<path fill="none" stroke="#63b8ff" d="M4241.43,-79.06C4360.17,-69.97 4578.97,-52 4765,-30 4767.93,-29.65 4770.9,-29.29 4773.91,-28.91"/>
<polygon fill="#63b8ff" stroke="#63b8ff" points="4241.01,-75.58 4231.3,-79.83 4241.54,-82.56 4241.01,-75.58"/>
</g>
<!-- Node31 -->
<g id="node31" class="node">
<title>Node31</title>
<g id="a_node31"><a xlink:href="../../d4/d42/latexgen_8cpp.html" target="_top" xlink:title=" ">
<polygon fill="white" stroke="#666666" points="5120,-30 4966,-30 4966,0 5120,0 5120,-30"/>
<text text-anchor="start" x="4974" y="-18" font-family="Helvetica,sans-Serif" font-size="10.00">/home/runner/work/doxygen</text>
<text text-anchor="middle" x="5043" y="-7" font-family="Helvetica,sans-Serif" font-size="10.00">/doxygen/src/latexgen.cpp</text>
</a>
</g>
</g>
<!-- Node3&#45;&gt;Node31 -->
<g id="edge31" class="edge">
<title>Node3&#45;&gt;Node31</title>
<path fill="none" stroke="#63b8ff" d="M4241.54,-82.1C4389.37,-75.77 4697.74,-60 4957,-30 4959.86,-29.67 4962.76,-29.31 4965.69,-28.93"/>
<polygon fill="#63b8ff" stroke="#63b8ff" points="4241.02,-78.62 4231.17,-82.54 4241.31,-85.61 4241.02,-78.62"/>
</g>
<!-- Node32 -->
<g id="node32" class="node">
<title>Node32</title>
<g id="a_node32"><a xlink:href="../../db/d16/layout_8cpp.html" target="_top" xlink:title=" ">
<polygon fill="white" stroke="#666666" points="5292,-30 5138,-30 5138,0 5292,0 5292,-30"/>
<text text-anchor="start" x="5146" y="-18" font-family="Helvetica,sans-Serif" font-size="10.00">/home/runner/work/doxygen</text>
<text text-anchor="middle" x="5215" y="-7" font-family="Helvetica,sans-Serif" font-size="10.00">/doxygen/src/layout.cpp</text>
</a>
</g>
</g>
<!-- Node3&#45;&gt;Node32 -->
<g id="edge32" class="edge">
<title>Node3&#45;&gt;Node32</title>
<path fill="none" stroke="#63b8ff" d="M4241.21,-83.59C4412.04,-79.18 4802.6,-65.76 5129,-30 5131.86,-29.69 5134.76,-29.34 5137.7,-28.98"/>
<polygon fill="#63b8ff" stroke="#63b8ff" points="4240.92,-80.1 4231.01,-83.85 4241.1,-87.09 4240.92,-80.1"/>
</g>
<!-- Node33 -->
<g id="node33" class="node">
<title>Node33</title>
<g id="a_node33"><a xlink:href="../../d8/dde/mandocvisitor_8cpp.html" target="_top" xlink:title=" ">
<polygon fill="white" stroke="#666666" points="5481.5,-30 5310.5,-30 5310.5,0 5481.5,0 5481.5,-30"/>
<text text-anchor="start" x="5318.5" y="-18" font-family="Helvetica,sans-Serif" font-size="10.00">/home/runner/work/doxygen</text>
<text text-anchor="middle" x="5396" y="-7" font-family="Helvetica,sans-Serif" font-size="10.00">/doxygen/src/mandocvisitor.cpp</text>
</a>
</g>
</g>
<!-- Node3&#45;&gt;Node33 -->
<g id="edge33" class="edge">
<title>Node3&#45;&gt;Node33</title>
<path fill="none" stroke="#63b8ff" d="M4241.07,-84.2C4432.94,-80.68 4906.5,-68.52 5301,-30 5304.07,-29.7 5307.19,-29.37 5310.34,-29.02"/>
<polygon fill="#63b8ff" stroke="#63b8ff" points="4240.98,-80.7 4231.04,-84.38 4241.1,-87.7 4240.98,-80.7"/>
</g>
<!-- Node34 -->
<g id="node34" class="node">
<title>Node34</title>
<g id="a_node34"><a xlink:href="../../d7/de7/mangen_8cpp.html" target="_top" xlink:title=" ">
<polygon fill="white" stroke="#666666" points="5654,-30 5500,-30 5500,0 5654,0 5654,-30"/>
<text text-anchor="start" x="5508" y="-18" font-family="Helvetica,sans-Serif" font-size="10.00">/home/runner/work/doxygen</text>
<text text-anchor="middle" x="5577" y="-7" font-family="Helvetica,sans-Serif" font-size="10.00">/doxygen/src/mangen.cpp</text>
</a>
</g>
</g>
<!-- Node3&#45;&gt;Node34 -->
<g id="edge34" class="edge">
<title>Node3&#45;&gt;Node34</title>
<path fill="none" stroke="#63b8ff" d="M4241.32,-85.49C4455.06,-84.68 5021.42,-77.79 5491,-30 5493.86,-29.71 5496.77,-29.38 5499.7,-29.03"/>
<polygon fill="#63b8ff" stroke="#63b8ff" points="4241.09,-81.99 4231.1,-85.53 4241.11,-88.99 4241.09,-81.99"/>
</g>
<!-- Node35 -->
<g id="node35" class="node">
<title>Node35</title>
<g id="a_node35"><a xlink:href="../../d0/d72/memberdef_8cpp.html" target="_top" xlink:title=" ">
<polygon fill="white" stroke="#666666" points="5830,-30 5672,-30 5672,0 5830,0 5830,-30"/>
<text text-anchor="start" x="5680" y="-18" font-family="Helvetica,sans-Serif" font-size="10.00">/home/runner/work/doxygen</text>
<text text-anchor="middle" x="5751" y="-7" font-family="Helvetica,sans-Serif" font-size="10.00">/doxygen/src/memberdef.cpp</text>
</a>
</g>
</g>
<!-- Node3&#45;&gt;Node35 -->
<g id="edge35" class="edge">
<title>Node3&#45;&gt;Node35</title>
<path fill="none" stroke="#63b8ff" d="M4241.24,-85.97C4473.21,-86.44 5124.39,-82.55 5663,-30 5665.93,-29.71 5668.9,-29.39 5671.9,-29.05"/>
<polygon fill="#63b8ff" stroke="#63b8ff" points="4241.18,-82.47 4231.17,-85.95 4241.16,-89.47 4241.18,-82.47"/>
</g>
<!-- Node36 -->
<g id="node36" class="node">
<title>Node36</title>
<g id="a_node36"><a xlink:href="../../d6/d18/membergroup_8cpp.html" target="_top" xlink:title=" ">
<polygon fill="white" stroke="#666666" points="6019.5,-30 5848.5,-30 5848.5,0 6019.5,0 6019.5,-30"/>
<text text-anchor="start" x="5856.5" y="-18" font-family="Helvetica,sans-Serif" font-size="10.00">/home/runner/work/doxygen</text>
<text text-anchor="middle" x="5934" y="-7" font-family="Helvetica,sans-Serif" font-size="10.00">/doxygen/src/membergroup.cpp</text>
</a>
</g>
</g>
<!-- Node3&#45;&gt;Node36 -->
<g id="edge36" class="edge">
<title>Node3&#45;&gt;Node36</title>
<path fill="none" stroke="#63b8ff" d="M4241.12,-86.11C4490.61,-87.1 5229.07,-84.81 5839,-30 5842.07,-29.72 5845.2,-29.41 5848.35,-29.08"/>
<polygon fill="#63b8ff" stroke="#63b8ff" points="4241.04,-82.61 4231.03,-86.06 4241.01,-89.61 4241.04,-82.61"/>
</g>
<!-- Node37 -->
<g id="node37" class="node">
<title>Node37</title>
<g id="a_node37"><a xlink:href="../../d0/d14/memberlist_8cpp.html" target="_top" xlink:title=" ">
<polygon fill="white" stroke="#666666" points="6196,-30 6038,-30 6038,0 6196,0 6196,-30"/>
<text text-anchor="start" x="6046" y="-18" font-family="Helvetica,sans-Serif" font-size="10.00">/home/runner/work/doxygen</text>
<text text-anchor="middle" x="6117" y="-7" font-family="Helvetica,sans-Serif" font-size="10.00">/doxygen/src/memberlist.cpp</text>
</a>
</g>
</g>
<!-- Node3&#45;&gt;Node37 -->
<g id="edge37" class="edge">
<title>Node3&#45;&gt;Node37</title>
<path fill="none" stroke="#63b8ff" d="M4241.19,-84.4C4561.81,-80.14 5675.17,-63.24 6029,-30 6031.93,-29.73 6034.9,-29.41 6037.91,-29.07"/>
<polygon fill="#63b8ff" stroke="#63b8ff" points="4240.98,-80.91 4231.02,-84.54 4241.07,-87.91 4240.98,-80.91"/>
</g>
<!-- Node38 -->
<g id="node38" class="node">
<title>Node38</title>
<g id="a_node38"><a xlink:href="../../d7/d1c/namespacedef_8cpp.html" target="_top" xlink:title=" ">
<polygon fill="white" stroke="#666666" points="6387.5,-30 6214.5,-30 6214.5,0 6387.5,0 6387.5,-30"/>
<text text-anchor="start" x="6222.5" y="-18" font-family="Helvetica,sans-Serif" font-size="10.00">/home/runner/work/doxygen</text>
<text text-anchor="middle" x="6301" y="-7" font-family="Helvetica,sans-Serif" font-size="10.00">/doxygen/src/namespacedef.cpp</text>
</a>
</g>
</g>
<!-- Node3&#45;&gt;Node38 -->
<g id="edge38" class="edge">
<title>Node3&#45;&gt;Node38</title>
<path fill="none" stroke="#63b8ff" d="M4241.28,-84.51C4580.9,-80.44 5814.68,-63.62 6205,-30 6208.1,-29.73 6211.26,-29.43 6214.45,-29.1"/>
<polygon fill="#63b8ff" stroke="#63b8ff" points="4241.21,-81.01 4231.25,-84.63 4241.3,-88.01 4241.21,-81.01"/>
</g>
<!-- Node39 -->
<g id="node39" class="node">
<title>Node39</title>
<g id="a_node39"><a xlink:href="../../d9/db4/pagedef_8cpp.html" target="_top" xlink:title=" ">
<polygon fill="white" stroke="#666666" points="6560,-30 6406,-30 6406,0 6560,0 6560,-30"/>
<text text-anchor="start" x="6414" y="-18" font-family="Helvetica,sans-Serif" font-size="10.00">/home/runner/work/doxygen</text>
<text text-anchor="middle" x="6483" y="-7" font-family="Helvetica,sans-Serif" font-size="10.00">/doxygen/src/pagedef.cpp</text>
</a>
</g>
</g>
<!-- Node3&#45;&gt;Node39 -->
<g id="edge39" class="edge">
<title>Node3&#45;&gt;Node39</title>
<path fill="none" stroke="#63b8ff" d="M4241.24,-84.94C4600.57,-82.37 5967.23,-70.11 6397,-30 6399.86,-29.73 6402.77,-29.43 6405.71,-29.09"/>
<polygon fill="#63b8ff" stroke="#63b8ff" points="4241.14,-81.44 4231.16,-85.01 4241.19,-88.44 4241.14,-81.44"/>
</g>
<!-- Node40 -->
<g id="node40" class="node">
<title>Node40</title>
<g id="a_node40"><a xlink:href="../../de/d2b/pyscanner_8l.html" target="_top" xlink:title=" ">
<polygon fill="white" stroke="#666666" points="6732,-30 6578,-30 6578,0 6732,0 6732,-30"/>
<text text-anchor="start" x="6586" y="-18" font-family="Helvetica,sans-Serif" font-size="10.00">/home/runner/work/doxygen</text>
<text text-anchor="middle" x="6655" y="-7" font-family="Helvetica,sans-Serif" font-size="10.00">/doxygen/src/pyscanner.l</text>
</a>
</g>
</g>
<!-- Node3&#45;&gt;Node40 -->
<g id="edge40" class="edge">
<title>Node3&#45;&gt;Node40</title>
<path fill="none" stroke="#63b8ff" d="M4241.31,-85.11C4617.7,-83.2 6103.57,-73.02 6569,-30 6571.86,-29.74 6574.77,-29.43 6577.71,-29.1"/>
<polygon fill="#63b8ff" stroke="#63b8ff" points="4241.28,-81.61 4231.29,-85.16 4241.31,-88.61 4241.28,-81.61"/>
</g>
<!-- Node41 -->
<g id="node41" class="node">
<title>Node41</title>
<g id="a_node41"><a xlink:href="../../de/d9a/rtfdocvisitor_8cpp.html" target="_top" xlink:title=" ">
<polygon fill="white" stroke="#666666" points="6911.5,-30 6750.5,-30 6750.5,0 6911.5,0 6911.5,-30"/>
<text text-anchor="start" x="6758.5" y="-18" font-family="Helvetica,sans-Serif" font-size="10.00">/home/runner/work/doxygen</text>
<text text-anchor="middle" x="6831" y="-7" font-family="Helvetica,sans-Serif" font-size="10.00">/doxygen/src/rtfdocvisitor.cpp</text>
</a>
</g>
</g>
<!-- Node3&#45;&gt;Node41 -->
<g id="edge41" class="edge">
<title>Node3&#45;&gt;Node41</title>
<path fill="none" stroke="#63b8ff" d="M4241.27,-85.19C4633.94,-83.54 6239.63,-74.18 6741,-30 6743.99,-29.74 6747.04,-29.43 6750.11,-29.1"/>
<polygon fill="#63b8ff" stroke="#63b8ff" points="4241.1,-81.69 4231.11,-85.23 4241.12,-88.69 4241.1,-81.69"/>
</g>
<!-- Node42 -->
<g id="node42" class="node">
<title>Node42</title>
<g id="a_node42"><a xlink:href="../../d0/d9c/rtfgen_8cpp.html" target="_top" xlink:title=" ">
<polygon fill="white" stroke="#666666" points="7084,-30 6930,-30 6930,0 7084,0 7084,-30"/>
<text text-anchor="start" x="6938" y="-18" font-family="Helvetica,sans-Serif" font-size="10.00">/home/runner/work/doxygen</text>
<text text-anchor="middle" x="7007" y="-7" font-family="Helvetica,sans-Serif" font-size="10.00">/doxygen/src/rtfgen.cpp</text>
</a>
</g>
</g>
<!-- Node3&#45;&gt;Node42 -->
<g id="edge42" class="edge">
<title>Node3&#45;&gt;Node42</title>
<path fill="none" stroke="#63b8ff" d="M4241.55,-85.41C4651.3,-84.74 6382.39,-78.99 6921,-30 6923.86,-29.74 6926.77,-29.44 6929.71,-29.11"/>
<polygon fill="#63b8ff" stroke="#63b8ff" points="4241.24,-81.91 4231.25,-85.43 4241.25,-88.91 4241.24,-81.91"/>
</g>
<!-- Node43 -->
<g id="node43" class="node">
<title>Node43</title>
<g id="a_node43"><a xlink:href="../../da/d11/scanner_8l.html" target="_top" xlink:title=" ">
<polygon fill="white" stroke="#666666" points="7256,-30 7102,-30 7102,0 7256,0 7256,-30"/>
<text text-anchor="start" x="7110" y="-18" font-family="Helvetica,sans-Serif" font-size="10.00">/home/runner/work/doxygen</text>
<text text-anchor="middle" x="7179" y="-7" font-family="Helvetica,sans-Serif" font-size="10.00">/doxygen/src/scanner.l</text>
</a>
</g>
</g>
<!-- Node3&#45;&gt;Node43 -->
<g id="edge43" class="edge">
<title>Node3&#45;&gt;Node43</title>
<path fill="none" stroke="#63b8ff" d="M4241.39,-85.53C4666.2,-85.42 6518.41,-81.93 7093,-30 7095.86,-29.74 7098.77,-29.44 7101.71,-29.11"/>
<polygon fill="#63b8ff" stroke="#63b8ff" points="4241.32,-82.03 4231.32,-85.53 4241.32,-89.03 4241.32,-82.03"/>
</g>
<!-- Node44 -->
<g id="node44" class="node">
<title>Node44</title>
<g id="a_node44"><a xlink:href="../../d7/d79/searchindex_8cpp.html" target="_top" xlink:title=" ">
<polygon fill="white" stroke="#666666" points="7435.5,-30 7274.5,-30 7274.5,0 7435.5,0 7435.5,-30"/>
<text text-anchor="start" x="7282.5" y="-18" font-family="Helvetica,sans-Serif" font-size="10.00">/home/runner/work/doxygen</text>
<text text-anchor="middle" x="7355" y="-7" font-family="Helvetica,sans-Serif" font-size="10.00">/doxygen/src/searchindex.cpp</text>
</a>
</g>
</g>
<!-- Node3&#45;&gt;Node44 -->
<g id="edge44" class="edge">
<title>Node3&#45;&gt;Node44</title>
<path fill="none" stroke="#63b8ff" d="M4241.42,-85.55C4681.16,-85.58 6654.25,-82.7 7265,-30 7267.99,-29.74 7271.04,-29.44 7274.11,-29.12"/>
<polygon fill="#63b8ff" stroke="#63b8ff" points="4241.32,-82.05 4231.32,-85.55 4241.32,-89.05 4241.32,-82.05"/>
</g>
<!-- Node45 -->
<g id="node45" class="node">
<title>Node45</title>
<g id="a_node45"><a xlink:href="../../d9/d2f/searchindex__js_8cpp.html" target="_top" xlink:title=" ">
<polygon fill="white" stroke="#666666" points="7628.5,-30 7453.5,-30 7453.5,0 7628.5,0 7628.5,-30"/>
<text text-anchor="start" x="7461.5" y="-18" font-family="Helvetica,sans-Serif" font-size="10.00">/home/runner/work/doxygen</text>
<text text-anchor="middle" x="7541" y="-7" font-family="Helvetica,sans-Serif" font-size="10.00">/doxygen/src/searchindex_js.cpp</text>
</a>
</g>
</g>
<!-- Node3&#45;&gt;Node45 -->
<g id="edge45" class="edge">
<title>Node3&#45;&gt;Node45</title>
<path fill="none" stroke="#63b8ff" d="M4241.24,-85.54C4695.73,-85.53 6796.19,-82.56 7445,-30 7447.77,-29.78 7450.58,-29.52 7453.42,-29.24"/>
<polygon fill="#63b8ff" stroke="#63b8ff" points="4241.13,-82.04 4231.13,-85.54 4241.13,-89.04 4241.13,-82.04"/>
</g>
<!-- Node46 -->
<g id="node46" class="node">
<title>Node46</title>
<g id="a_node46"><a xlink:href="../../df/d2d/util_8cpp.html" target="_top" xlink:title=" ">
<polygon fill="white" stroke="#666666" points="7801,-30 7647,-30 7647,0 7801,0 7801,-30"/>
<text text-anchor="start" x="7655" y="-18" font-family="Helvetica,sans-Serif" font-size="10.00">/home/runner/work/doxygen</text>
<text text-anchor="middle" x="7724" y="-7" font-family="Helvetica,sans-Serif" font-size="10.00">/doxygen/src/util.cpp</text>
</a>
</g>
</g>
<!-- Node3&#45;&gt;Node46 -->
<g id="edge46" class="edge">
<title>Node3&#45;&gt;Node46</title>
<path fill="none" stroke="#63b8ff" d="M4241.36,-85.83C4711.95,-87.36 6949.19,-91.22 7638,-30 7640.86,-29.75 7643.77,-29.45 7646.71,-29.13"/>
<polygon fill="#63b8ff" stroke="#63b8ff" points="4241.25,-82.33 4231.24,-85.8 4241.23,-89.33 4241.25,-82.33"/>
</g>
<!-- Node47 -->
<g id="node47" class="node">
<title>Node47</title>
<g id="a_node47"><a xlink:href="../../de/dea/vhdldocgen_8cpp.html" target="_top" xlink:title=" ">
<polygon fill="white" stroke="#666666" points="7977,-30 7819,-30 7819,0 7977,0 7977,-30"/>
<text text-anchor="start" x="7827" y="-18" font-family="Helvetica,sans-Serif" font-size="10.00">/home/runner/work/doxygen</text>
<text text-anchor="middle" x="7898" y="-7" font-family="Helvetica,sans-Serif" font-size="10.00">/doxygen/src/vhdldocgen.cpp</text>
</a>
</g>
</g>
<!-- Node3&#45;&gt;Node47 -->
<g id="edge47" class="edge">
<title>Node3&#45;&gt;Node47</title>
<path fill="none" stroke="#63b8ff" d="M4241.14,-84.92C4761.18,-81.38 7444.73,-61.67 7810,-30 7812.93,-29.75 7815.91,-29.45 7818.91,-29.13"/>
<polygon fill="#63b8ff" stroke="#63b8ff" points="4241.05,-81.42 4231.08,-84.99 4241.1,-88.42 4241.05,-81.42"/>
</g>
<!-- Node48 -->
<g id="node48" class="node">
<title>Node48</title>
<g id="a_node48"><a xlink:href="../../d1/d86/vhdljjparser_8cpp.html" target="_top" xlink:title=" ">
<polygon fill="white" stroke="#666666" points="8153.5,-30 7994.5,-30 7994.5,0 8153.5,0 8153.5,-30"/>
<text text-anchor="start" x="8002.5" y="-18" font-family="Helvetica,sans-Serif" font-size="10.00">/home/runner/work/doxygen</text>
<text text-anchor="middle" x="8074" y="-7" font-family="Helvetica,sans-Serif" font-size="10.00">/doxygen/src/vhdljjparser.cpp</text>
</a>
</g>
</g>
<!-- Node3&#45;&gt;Node48 -->
<g id="edge48" class="edge">
<title>Node3&#45;&gt;Node48</title>
<path fill="none" stroke="#63b8ff" d="M4241.42,-84.99C4776.79,-81.74 7602.21,-63.14 7986,-30 7988.77,-29.76 7991.59,-29.49 7994.44,-29.18"/>
<polygon fill="#63b8ff" stroke="#63b8ff" points="4241.05,-81.49 4231.07,-85.05 4241.09,-88.49 4241.05,-81.49"/>
</g>
<!-- Node49 -->
<g id="node49" class="node">
<title>Node49</title>
<g id="a_node49"><a xlink:href="../../dd/db6/xmldocvisitor_8cpp.html" target="_top" xlink:title=" ">
<polygon fill="white" stroke="#666666" points="8339,-30 8171,-30 8171,0 8339,0 8339,-30"/>
<text text-anchor="start" x="8179" y="-18" font-family="Helvetica,sans-Serif" font-size="10.00">/home/runner/work/doxygen</text>
<text text-anchor="middle" x="8255" y="-7" font-family="Helvetica,sans-Serif" font-size="10.00">/doxygen/src/xmldocvisitor.cpp</text>
</a>
</g>
</g>
<!-- Node3&#45;&gt;Node49 -->
<g id="edge49" class="edge">
<title>Node3&#45;&gt;Node49</title>
<path fill="none" stroke="#63b8ff" d="M4241.48,-85.01C4791.38,-81.84 7760.4,-63.26 8163,-30 8165.58,-29.79 8168.19,-29.55 8170.83,-29.28"/>
<polygon fill="#63b8ff" stroke="#63b8ff" points="4241.22,-81.51 4231.24,-85.07 4241.26,-88.51 4241.22,-81.51"/>
</g>
<!-- Node50 -->
<g id="node50" class="node">
<title>Node50</title>
<g id="a_node50"><a xlink:href="../../d0/dc3/xmlgen_8cpp.html" target="_top" xlink:title=" ">
<polygon fill="white" stroke="#666666" points="8511,-30 8357,-30 8357,0 8511,0 8511,-30"/>
<text text-anchor="start" x="8365" y="-18" font-family="Helvetica,sans-Serif" font-size="10.00">/home/runner/work/doxygen</text>
<text text-anchor="middle" x="8434" y="-7" font-family="Helvetica,sans-Serif" font-size="10.00">/doxygen/src/xmlgen.cpp</text>
</a>
</g>
</g>
<!-- Node3&#45;&gt;Node50 -->
<g id="edge50" class="edge">
<title>Node3&#45;&gt;Node50</title>
<path fill="none" stroke="#63b8ff" d="M4241.44,-85.12C4805.98,-82.58 7926,-66.94 8348,-30 8350.86,-29.75 8353.78,-29.46 8356.71,-29.14"/>
<polygon fill="#63b8ff" stroke="#63b8ff" points="4241.32,-81.62 4231.33,-85.17 4241.35,-88.62 4241.32,-81.62"/>
</g>
<!-- Node51&#45;&gt;Node2 -->
<g id="edge52" class="edge">
<title>Node51&#45;&gt;Node2</title>
<path fill="none" stroke="#63b8ff" d="M143.71,-60.15C128.4,-50.02 111.35,-38.74 98.32,-30.11"/>
<polygon fill="#63b8ff" stroke="#63b8ff" points="142.2,-63.35 152.47,-65.96 146.07,-57.52 142.2,-63.35"/>
</g>
</g>
</svg>
