<?xml version="1.0" encoding="UTF-8" standalone="no"?>
<!DOCTYPE svg PUBLIC "-//W3C//DTD SVG 1.1//EN"
 "http://www.w3.org/Graphics/SVG/1.1/DTD/svg11.dtd">
<!-- Generated by graphviz version 2.43.0 (0)
 -->
<!-- Title: /home/runner/work/doxygen/doxygen/src/define.h Pages: 1 -->
<!--zoomable 203 -->
<svg id="main" version="1.1" xmlns="http://www.w3.org/2000/svg" xmlns:xlink="http://www.w3.org/1999/xlink" xml:space="preserve" onload="init(evt)">
<style type="text/css"><![CDATA[
.edge:hover path { stroke: red; }
.edge:hover polygon { stroke: red; fill: red; }
]]></style>
<script type="text/javascript"><![CDATA[
var edges = document.getElementsByTagName('g');
if (edges && edges.length) {
  for (var i=0;i<edges.length;i++) {
    if (edges[i].id.substr(0,4)=='edge') {
      edges[i].setAttribute('class','edge');
    }
  }
}
]]></script>
        <defs>
                <circle id="rim" cx="0" cy="0" r="7"/>
                <circle id="rim2" cx="0" cy="0" r="3.5"/>
                <g id="zoomPlus">
                        <use xlink:href="#rim" fill="#404040">
                                <set attributeName="fill" to="#808080" begin="zoomplus.mouseover" end="zoomplus.mouseout"/>
                        </use>
                        <path d="M-4,0h8M0,-4v8" fill="none" stroke="white" stroke-width="1.5" pointer-events="none"/>
                </g>
                <g id="zoomMin">
                        <use xlink:href="#rim" fill="#404040">
                                <set attributeName="fill" to="#808080" begin="zoomminus.mouseover" end="zoomminus.mouseout"/>
                        </use>
                        <path d="M-4,0h8" fill="none" stroke="white" stroke-width="1.5" pointer-events="none"/>
                </g>
                <g id="dirArrow">
                        <path fill="none" stroke="white" stroke-width="1.5" d="M0,-3.0v7 M-2.5,-0.5L0,-3.0L2.5,-0.5"/>
                </g>
               <g id="resetDef">
                       <use xlink:href="#rim2" fill="#404040">
                               <set attributeName="fill" to="#808080" begin="reset.mouseover" end="reset.mouseout"/>
                       </use>
               </g>
        </defs>

<script type="text/javascript">
var viewWidth = 1030;
var viewHeight = 203;
var sectionId = 'dynsection-0';
</script>
<script xlink:href="../../svgpan.js"/>
<svg id="graph" class="graph">
<g id="viewport">
<title>/home/runner/work/doxygen/doxygen/src/define.h</title>
<!-- Node1 -->
<g id="node1" class="node">
<title>Node1</title>
<g id="a_node1"><a xlink:title=" ">
<polygon fill="#999999" stroke="#666666" points="536.98,-195 382.98,-195 382.98,-165 536.98,-165 536.98,-195"/>
<text text-anchor="start" x="390.98" y="-183" font-family="Helvetica,sans-Serif" font-size="10.00">/home/runner/work/doxygen</text>
<text text-anchor="middle" x="459.98" y="-172" font-family="Helvetica,sans-Serif" font-size="10.00">/doxygen/src/define.h</text>
</a>
</g>
</g>
<!-- Node2 -->
<g id="node2" class="node">
<title>Node2</title>
<g id="a_node2"><a xlink:title=" ">
<polygon fill="#e0e0e0" stroke="#999999" points="600.48,-74 553.48,-74 553.48,-55 600.48,-55 600.48,-74"/>
<text text-anchor="middle" x="576.98" y="-62" font-family="Helvetica,sans-Serif" font-size="10.00">vector</text>
</a>
</g>
</g>
<!-- Node1&#45;&gt;Node2 -->
<g id="edge1" class="edge">
<title>Node1&#45;&gt;Node2</title>
<path fill="none" stroke="#63b8ff" d="M474.8,-164.63C496.8,-143.28 537.96,-103.36 560.75,-81.25"/>
<polygon fill="#63b8ff" stroke="#63b8ff" points="563.24,-83.7 567.98,-74.23 558.37,-78.68 563.24,-83.7"/>
</g>
<!-- Node3 -->
<g id="node3" class="node">
<title>Node3</title>
<g id="a_node3"><a xlink:title=" ">
<polygon fill="#e0e0e0" stroke="#999999" points="291.98,-129 233.98,-129 233.98,-110 291.98,-110 291.98,-129"/>
<text text-anchor="middle" x="262.98" y="-117" font-family="Helvetica,sans-Serif" font-size="10.00">memory</text>
</a>
</g>
</g>
<!-- Node1&#45;&gt;Node3 -->
<g id="edge2" class="edge">
<title>Node1&#45;&gt;Node3</title>
<path fill="none" stroke="#63b8ff" d="M412.79,-164.99C378.8,-154.89 333.48,-141.44 301.62,-131.98"/>
<polygon fill="#63b8ff" stroke="#63b8ff" points="302.37,-128.55 291.78,-129.05 300.37,-135.26 302.37,-128.55"/>
</g>
<!-- Node4 -->
<g id="node4" class="node">
<title>Node4</title>
<g id="a_node4"><a xlink:title=" ">
<polygon fill="#e0e0e0" stroke="#999999" points="250.98,-19 206.98,-19 206.98,0 250.98,0 250.98,-19"/>
<text text-anchor="middle" x="228.98" y="-7" font-family="Helvetica,sans-Serif" font-size="10.00">string</text>
</a>
</g>
</g>
<!-- Node1&#45;&gt;Node4 -->
<g id="edge3" class="edge">
<title>Node1&#45;&gt;Node4</title>
<path fill="none" stroke="#63b8ff" d="M382.5,-172.68C264.86,-161.29 49.94,-132.81 3.98,-74 -1.22,-67.35 -1.38,-61.52 3.98,-55 28.02,-25.73 140.59,-15.39 196.83,-12.01"/>
<polygon fill="#63b8ff" stroke="#63b8ff" points="197.17,-15.49 206.96,-11.44 196.78,-8.5 197.17,-15.49"/>
</g>
<!-- Node5 -->
<g id="node5" class="node">
<title>Node5</title>
<g id="a_node5"><a xlink:title=" ">
<polygon fill="#e0e0e0" stroke="#999999" points="711.48,-74 618.48,-74 618.48,-55 711.48,-55 711.48,-74"/>
<text text-anchor="middle" x="664.98" y="-62" font-family="Helvetica,sans-Serif" font-size="10.00">unordered_map</text>
</a>
</g>
</g>
<!-- Node1&#45;&gt;Node5 -->
<g id="edge4" class="edge">
<title>Node1&#45;&gt;Node5</title>
<path fill="none" stroke="#63b8ff" d="M485.53,-164.85C525.21,-142.89 601.14,-100.85 640.29,-79.17"/>
<polygon fill="#63b8ff" stroke="#63b8ff" points="642.35,-82.03 649.4,-74.12 638.96,-75.91 642.35,-82.03"/>
</g>
<!-- Node6 -->
<g id="node6" class="node">
<title>Node6</title>
<g id="a_node6"><a xlink:href="../../d7/d5c/qcstring_8h.html" target="_top" xlink:title=" ">
<polygon fill="white" stroke="#666666" points="375.48,-129 310.48,-129 310.48,-110 375.48,-110 375.48,-129"/>
<text text-anchor="middle" x="342.98" y="-117" font-family="Helvetica,sans-Serif" font-size="10.00">qcstring.h</text>
</a>
</g>
</g>
<!-- Node1&#45;&gt;Node6 -->
<g id="edge5" class="edge">
<title>Node1&#45;&gt;Node6</title>
<path fill="none" stroke="#63b8ff" d="M431.96,-164.99C412.96,-155.49 388.01,-143.02 369.37,-133.69"/>
<polygon fill="#63b8ff" stroke="#63b8ff" points="370.77,-130.48 360.26,-129.14 367.64,-136.74 370.77,-130.48"/>
</g>
<!-- Node15 -->
<g id="node15" class="node">
<title>Node15</title>
<g id="a_node15"><a xlink:href="../../d5/d75/containers_8h.html" target="_top" xlink:title=" ">
<polygon fill="white" stroke="#666666" points="803.48,-129 726.48,-129 726.48,-110 803.48,-110 803.48,-129"/>
<text text-anchor="middle" x="764.98" y="-117" font-family="Helvetica,sans-Serif" font-size="10.00">containers.h</text>
</a>
</g>
</g>
<!-- Node1&#45;&gt;Node15 -->
<g id="edge17" class="edge">
<title>Node1&#45;&gt;Node15</title>
<path fill="none" stroke="#63b8ff" d="M533.04,-164.99C589.8,-154.1 666.94,-139.31 716.35,-129.83"/>
<polygon fill="#63b8ff" stroke="#63b8ff" points="717.29,-133.21 726.45,-127.89 715.97,-126.34 717.29,-133.21"/>
</g>
<!-- Node6&#45;&gt;Node4 -->
<g id="edge6" class="edge">
<title>Node6&#45;&gt;Node4</title>
<path fill="none" stroke="#63b8ff" d="M310.46,-111.67C307.27,-111.08 304.06,-110.51 300.98,-110 238.21,-99.68 59.04,-121.73 16.98,-74 -34,-16.15 125.25,-9.98 196.44,-10.01"/>
<polygon fill="#63b8ff" stroke="#63b8ff" points="196.65,-13.51 206.66,-10.06 196.68,-6.51 196.65,-13.51"/>
</g>
<!-- Node7 -->
<g id="node7" class="node">
<title>Node7</title>
<g id="a_node7"><a xlink:title=" ">
<polygon fill="#e0e0e0" stroke="#999999" points="165.98,-74 101.98,-74 101.98,-55 165.98,-55 165.98,-74"/>
<text text-anchor="middle" x="133.98" y="-62" font-family="Helvetica,sans-Serif" font-size="10.00">algorithm</text>
</a>
</g>
</g>
<!-- Node6&#45;&gt;Node7 -->
<g id="edge7" class="edge">
<title>Node6&#45;&gt;Node7</title>
<path fill="none" stroke="#63b8ff" d="M310.32,-110.22C274.1,-101.03 215.55,-86.18 175.95,-76.14"/>
<polygon fill="#63b8ff" stroke="#63b8ff" points="176.62,-72.7 166.06,-73.64 174.9,-79.49 176.62,-72.7"/>
</g>
<!-- Node8 -->
<g id="node8" class="node">
<title>Node8</title>
<g id="a_node8"><a xlink:title=" ">
<polygon fill="#e0e0e0" stroke="#999999" points="233.48,-74 184.48,-74 184.48,-55 233.48,-55 233.48,-74"/>
<text text-anchor="middle" x="208.98" y="-62" font-family="Helvetica,sans-Serif" font-size="10.00">cctype</text>
</a>
</g>
</g>
<!-- Node6&#45;&gt;Node8 -->
<g id="edge8" class="edge">
<title>Node6&#45;&gt;Node8</title>
<path fill="none" stroke="#63b8ff" d="M321.45,-109.98C299.51,-101.3 265.24,-87.75 240.29,-77.88"/>
<polygon fill="#63b8ff" stroke="#63b8ff" points="241.49,-74.59 230.9,-74.17 238.91,-81.1 241.49,-74.59"/>
</g>
<!-- Node9 -->
<g id="node9" class="node">
<title>Node9</title>
<g id="a_node9"><a xlink:title=" ">
<polygon fill="#e0e0e0" stroke="#999999" points="301.98,-74 251.98,-74 251.98,-55 301.98,-55 301.98,-74"/>
<text text-anchor="middle" x="276.98" y="-62" font-family="Helvetica,sans-Serif" font-size="10.00">cstring</text>
</a>
</g>
</g>
<!-- Node6&#45;&gt;Node9 -->
<g id="edge9" class="edge">
<title>Node6&#45;&gt;Node9</title>
<path fill="none" stroke="#63b8ff" d="M332.38,-109.98C322.52,-102.07 307.63,-90.11 295.77,-80.58"/>
<polygon fill="#63b8ff" stroke="#63b8ff" points="297.77,-77.7 287.78,-74.17 293.38,-83.16 297.77,-77.7"/>
</g>
<!-- Node10 -->
<g id="node10" class="node">
<title>Node10</title>
<g id="a_node10"><a xlink:title=" ">
<polygon fill="#e0e0e0" stroke="#999999" points="365.98,-74 319.98,-74 319.98,-55 365.98,-55 365.98,-74"/>
<text text-anchor="middle" x="342.98" y="-62" font-family="Helvetica,sans-Serif" font-size="10.00">cstdio</text>
</a>
</g>
</g>
<!-- Node6&#45;&gt;Node10 -->
<g id="edge10" class="edge">
<title>Node6&#45;&gt;Node10</title>
<path fill="none" stroke="#63b8ff" d="M342.98,-109.75C342.98,-102.8 342.98,-92.85 342.98,-84.13"/>
<polygon fill="#63b8ff" stroke="#63b8ff" points="346.48,-84.09 342.98,-74.09 339.48,-84.09 346.48,-84.09"/>
</g>
<!-- Node11 -->
<g id="node11" class="node">
<title>Node11</title>
<g id="a_node11"><a xlink:title=" ">
<polygon fill="#e0e0e0" stroke="#999999" points="433.48,-74 384.48,-74 384.48,-55 433.48,-55 433.48,-74"/>
<text text-anchor="middle" x="408.98" y="-62" font-family="Helvetica,sans-Serif" font-size="10.00">cstdlib</text>
</a>
</g>
</g>
<!-- Node6&#45;&gt;Node11 -->
<g id="edge11" class="edge">
<title>Node6&#45;&gt;Node11</title>
<path fill="none" stroke="#63b8ff" d="M353.58,-109.98C363.44,-102.07 378.33,-90.11 390.2,-80.58"/>
<polygon fill="#63b8ff" stroke="#63b8ff" points="392.58,-83.16 398.18,-74.17 388.19,-77.7 392.58,-83.16"/>
</g>
<!-- Node12 -->
<g id="node12" class="node">
<title>Node12</title>
<g id="a_node12"><a xlink:title=" ">
<polygon fill="#e0e0e0" stroke="#999999" points="523.98,-19 473.98,-19 473.98,0 523.98,0 523.98,-19"/>
<text text-anchor="middle" x="498.98" y="-7" font-family="Helvetica,sans-Serif" font-size="10.00">cstdint</text>
</a>
</g>
</g>
<!-- Node6&#45;&gt;Node12 -->
<g id="edge12" class="edge">
<title>Node6&#45;&gt;Node12</title>
<path fill="none" stroke="#63b8ff" d="M375.83,-114.24C418.74,-107.93 490.27,-94.57 505.98,-74 515.74,-61.22 512.2,-42.54 507.29,-28.74"/>
<polygon fill="#63b8ff" stroke="#63b8ff" points="510.47,-27.28 503.47,-19.33 503.99,-29.91 510.47,-27.28"/>
</g>
<!-- Node13 -->
<g id="node13" class="node">
<title>Node13</title>
<g id="a_node13"><a xlink:title=" ">
<polygon fill="#e0e0e0" stroke="#999999" points="83.48,-74 26.48,-74 26.48,-55 83.48,-55 83.48,-74"/>
<text text-anchor="middle" x="54.98" y="-62" font-family="Helvetica,sans-Serif" font-size="10.00">ostream</text>
</a>
</g>
</g>
<!-- Node6&#45;&gt;Node13 -->
<g id="edge13" class="edge">
<title>Node6&#45;&gt;Node13</title>
<path fill="none" stroke="#63b8ff" d="M310.44,-111.82C307.25,-111.19 304.05,-110.58 300.98,-110 211.83,-93.27 186.66,-92.29 93.43,-74"/>
<polygon fill="#63b8ff" stroke="#63b8ff" points="94.07,-70.56 83.58,-72.05 92.71,-77.43 94.07,-70.56"/>
</g>
<!-- Node14 -->
<g id="node14" class="node">
<title>Node14</title>
<g id="a_node14"><a xlink:href="../../db/d7c/utf8_8h.html" target="_top" xlink:title="Various UTF8 related helper functions.">
<polygon fill="white" stroke="#666666" points="496.48,-74 451.48,-74 451.48,-55 496.48,-55 496.48,-74"/>
<text text-anchor="middle" x="473.98" y="-62" font-family="Helvetica,sans-Serif" font-size="10.00">utf8.h</text>
</a>
</g>
</g>
<!-- Node6&#45;&gt;Node14 -->
<g id="edge14" class="edge">
<title>Node6&#45;&gt;Node14</title>
<path fill="none" stroke="#63b8ff" d="M364.03,-109.98C385.39,-101.34 418.69,-87.87 443.05,-78.02"/>
<polygon fill="#63b8ff" stroke="#63b8ff" points="444.59,-81.17 452.55,-74.17 441.97,-74.68 444.59,-81.17"/>
</g>
<!-- Node14&#45;&gt;Node4 -->
<g id="edge16" class="edge">
<title>Node14&#45;&gt;Node4</title>
<path fill="none" stroke="#63b8ff" d="M451.29,-57.31C448.17,-56.51 445,-55.72 441.98,-55 378.1,-39.86 302.8,-24.77 261.02,-16.64"/>
<polygon fill="#63b8ff" stroke="#63b8ff" points="261.63,-13.19 251.14,-14.72 260.3,-20.06 261.63,-13.19"/>
</g>
<!-- Node14&#45;&gt;Node12 -->
<g id="edge15" class="edge">
<title>Node14&#45;&gt;Node12</title>
<path fill="none" stroke="#63b8ff" d="M478.11,-54.75C481.49,-47.57 486.4,-37.18 490.6,-28.27"/>
<polygon fill="#63b8ff" stroke="#63b8ff" points="493.83,-29.63 494.93,-19.09 487.5,-26.64 493.83,-29.63"/>
</g>
<!-- Node15&#45;&gt;Node2 -->
<g id="edge18" class="edge">
<title>Node15&#45;&gt;Node2</title>
<path fill="none" stroke="#63b8ff" d="M734.77,-109.98C700.77,-100.4 645.66,-84.86 610.39,-74.92"/>
<polygon fill="#63b8ff" stroke="#63b8ff" points="611.14,-71.49 600.56,-72.15 609.24,-78.23 611.14,-71.49"/>
</g>
<!-- Node15&#45;&gt;Node4 -->
<g id="edge19" class="edge">
<title>Node15&#45;&gt;Node4</title>
<path fill="none" stroke="#63b8ff" d="M761.75,-109.67C756,-95.39 742.54,-67.56 720.98,-55 681.35,-31.91 364.38,-16.34 261.26,-11.84"/>
<polygon fill="#63b8ff" stroke="#63b8ff" points="261.28,-8.34 251.14,-11.4 260.98,-15.33 261.28,-8.34"/>
</g>
<!-- Node15&#45;&gt;Node5 -->
<g id="edge23" class="edge">
<title>Node15&#45;&gt;Node5</title>
<path fill="none" stroke="#63b8ff" d="M748.91,-109.98C733.12,-101.61 708.76,-88.7 690.35,-78.95"/>
<polygon fill="#63b8ff" stroke="#63b8ff" points="691.81,-75.76 681.34,-74.17 688.54,-81.95 691.81,-75.76"/>
</g>
<!-- Node16 -->
<g id="node16" class="node">
<title>Node16</title>
<g id="a_node16"><a xlink:title=" ">
<polygon fill="#e0e0e0" stroke="#999999" points="861.98,-74 829.98,-74 829.98,-55 861.98,-55 861.98,-74"/>
<text text-anchor="middle" x="845.98" y="-62" font-family="Helvetica,sans-Serif" font-size="10.00">set</text>
</a>
</g>
</g>
<!-- Node15&#45;&gt;Node16 -->
<g id="edge20" class="edge">
<title>Node15&#45;&gt;Node16</title>
<path fill="none" stroke="#63b8ff" d="M777.99,-109.98C790.44,-101.84 809.44,-89.41 824.19,-79.76"/>
<polygon fill="#63b8ff" stroke="#63b8ff" points="826.28,-82.57 832.73,-74.17 822.45,-76.72 826.28,-82.57"/>
</g>
<!-- Node17 -->
<g id="node17" class="node">
<title>Node17</title>
<g id="a_node17"><a xlink:title=" ">
<polygon fill="#e0e0e0" stroke="#999999" points="917.98,-74 879.98,-74 879.98,-55 917.98,-55 917.98,-74"/>
<text text-anchor="middle" x="898.98" y="-62" font-family="Helvetica,sans-Serif" font-size="10.00">map</text>
</a>
</g>
</g>
<!-- Node15&#45;&gt;Node17 -->
<g id="edge21" class="edge">
<title>Node15&#45;&gt;Node17</title>
<path fill="none" stroke="#63b8ff" d="M786.51,-109.98C809.24,-100.99 845.19,-86.78 870.3,-76.84"/>
<polygon fill="#63b8ff" stroke="#63b8ff" points="871.67,-80.07 879.68,-73.13 869.09,-73.56 871.67,-80.07"/>
</g>
<!-- Node18 -->
<g id="node18" class="node">
<title>Node18</title>
<g id="a_node18"><a xlink:title=" ">
<polygon fill="#e0e0e0" stroke="#999999" points="1021.98,-74 935.98,-74 935.98,-55 1021.98,-55 1021.98,-74"/>
<text text-anchor="middle" x="978.98" y="-62" font-family="Helvetica,sans-Serif" font-size="10.00">unordered_set</text>
</a>
</g>
</g>
<!-- Node15&#45;&gt;Node18 -->
<g id="edge22" class="edge">
<title>Node15&#45;&gt;Node18</title>
<path fill="none" stroke="#63b8ff" d="M799.36,-109.98C836.07,-100.89 894.36,-86.46 934.53,-76.51"/>
<polygon fill="#63b8ff" stroke="#63b8ff" points="935.46,-79.88 944.33,-74.08 933.78,-73.09 935.46,-79.88"/>
</g>
<!-- Node19 -->
<g id="node19" class="node">
<title>Node19</title>
<g id="a_node19"><a xlink:title=" ">
<polygon fill="#e0e0e0" stroke="#999999" points="811.48,-74 768.48,-74 768.48,-55 811.48,-55 811.48,-74"/>
<text text-anchor="middle" x="789.98" y="-62" font-family="Helvetica,sans-Serif" font-size="10.00">stack</text>
</a>
</g>
</g>
<!-- Node15&#45;&gt;Node19 -->
<g id="edge24" class="edge">
<title>Node15&#45;&gt;Node19</title>
<path fill="none" stroke="#63b8ff" d="M769.11,-109.75C772.49,-102.57 777.4,-92.18 781.6,-83.27"/>
<polygon fill="#63b8ff" stroke="#63b8ff" points="784.83,-84.63 785.93,-74.09 778.5,-81.64 784.83,-84.63"/>
</g>
</g>
</svg>
        <g id="navigator" transform="translate(0 0)" fill="#404254">
                <rect fill="#f2f5e9" fill-opacity="0.5" stroke="#606060" stroke-width=".5" x="0" y="0" width="60" height="60"/>
                <use id="zoomplus" xlink:href="#zoomPlus" x="17" y="9" onmousedown="handleZoom(evt,'in')"/>
                <use id="zoomminus" xlink:href="#zoomMin" x="42" y="9" onmousedown="handleZoom(evt,'out')"/>
                <use id="reset" xlink:href="#resetDef" x="30" y="36" onmousedown="handleReset()"/>
                <g id="arrowUp" xlink:href="#dirArrow" transform="translate(30 24)" onmousedown="handlePan(0,-1)">
                  <use xlink:href="#rim" fill="#404040">
                        <set attributeName="fill" to="#808080" begin="arrowUp.mouseover" end="arrowUp.mouseout"/>
                  </use>
                  <path fill="none" stroke="white" stroke-width="1.5" d="M0,-3.0v7 M-2.5,-0.5L0,-3.0L2.5,-0.5"/>
                </g>
                <g id="arrowRight" xlink:href="#dirArrow" transform="rotate(90) translate(36 -43)" onmousedown="handlePan(1,0)">
                  <use xlink:href="#rim" fill="#404040">
                        <set attributeName="fill" to="#808080" begin="arrowRight.mouseover" end="arrowRight.mouseout"/>
                  </use>
                  <path fill="none" stroke="white" stroke-width="1.5" d="M0,-3.0v7 M-2.5,-0.5L0,-3.0L2.5,-0.5"/>
                </g>
                <g id="arrowDown" xlink:href="#dirArrow" transform="rotate(180) translate(-30 -48)" onmousedown="handlePan(0,1)">
                  <use xlink:href="#rim" fill="#404040">
                        <set attributeName="fill" to="#808080" begin="arrowDown.mouseover" end="arrowDown.mouseout"/>
                  </use>
                  <path fill="none" stroke="white" stroke-width="1.5" d="M0,-3.0v7 M-2.5,-0.5L0,-3.0L2.5,-0.5"/>
                </g>
                <g id="arrowLeft" xlink:href="#dirArrow" transform="rotate(270) translate(-36 17)" onmousedown="handlePan(-1,0)">
                  <use xlink:href="#rim" fill="#404040">
                        <set attributeName="fill" to="#808080" begin="arrowLeft.mouseover" end="arrowLeft.mouseout"/>
                  </use>
                  <path fill="none" stroke="white" stroke-width="1.5" d="M0,-3.0v7 M-2.5,-0.5L0,-3.0L2.5,-0.5"/>
                </g>
        </g>
        <svg viewBox="0 0 15 15" width="100%" height="30px" preserveAspectRatio="xMaxYMin meet">
         <g id="arrow_out" transform="scale(0.3 0.3)">
          <a xlink:href="define_8h__incl_org.svg" target="_base">
           <rect id="button" ry="5" rx="5" y="6" x="6" height="38" width="38"
                fill="#f2f5e9" fill-opacity="0.5" stroke="#606060" stroke-width="1.0"/>
           <path id="arrow"
             d="M 11.500037,31.436501 C 11.940474,20.09759 22.043105,11.32322 32.158766,21.979434 L 37.068811,17.246167 C 37.068811,17.246167 37.088388,32 37.088388,32 L 22.160133,31.978069 C 22.160133,31.978069 26.997745,27.140456 26.997745,27.140456 C 18.528582,18.264221 13.291696,25.230495 11.500037,31.436501 z"
             style="fill:#404040;"/>
          </a>
         </g>
        </svg>
</svg>
