<?xml version="1.0" encoding="UTF-8" standalone="no"?>
<!DOCTYPE svg PUBLIC "-//W3C//DTD SVG 1.1//EN"
 "http://www.w3.org/Graphics/SVG/1.1/DTD/svg11.dtd">
<!-- Generated by graphviz version 2.43.0 (0)
 -->
<!-- Title: /home/runner/work/doxygen/doxygen/src/htmldocvisitor.h Pages: 1 -->
<svg width="1010pt" height="368pt"
 viewBox="0.00 0.00 1010.27 368.00" xmlns="http://www.w3.org/2000/svg" xmlns:xlink="http://www.w3.org/1999/xlink">
<g id="graph0" class="graph" transform="scale(1 1) rotate(0) translate(4 364)">
<title>/home/runner/work/doxygen/doxygen/src/htmldocvisitor.h</title>
<!-- Node1 -->
<g id="node1" class="node">
<title>Node1</title>
<g id="a_node1"><a xlink:title=" ">
<polygon fill="#999999" stroke="#666666" points="543.5,-360 382.5,-360 382.5,-330 543.5,-330 543.5,-360"/>
<text text-anchor="start" x="390.5" y="-348" font-family="Helvetica,sans-Serif" font-size="10.00">/home/runner/work/doxygen</text>
<text text-anchor="middle" x="463" y="-337" font-family="Helvetica,sans-Serif" font-size="10.00">/doxygen/src/htmldocvisitor.h</text>
</a>
</g>
</g>
<!-- Node2 -->
<g id="node2" class="node">
<title>Node2</title>
<g id="a_node2"><a xlink:href="../../d2/d3c/docvisitor_8h.html" target="_top" xlink:title=" ">
<polygon fill="white" stroke="#666666" points="499.5,-239 426.5,-239 426.5,-220 499.5,-220 499.5,-239"/>
<text text-anchor="middle" x="463" y="-227" font-family="Helvetica,sans-Serif" font-size="10.00">docvisitor.h</text>
</a>
</g>
</g>
<!-- Node1&#45;&gt;Node2 -->
<g id="edge1" class="edge">
<title>Node1&#45;&gt;Node2</title>
<path fill="none" stroke="#63b8ff" d="M463,-329.63C463,-309.21 463,-271.81 463,-249.24"/>
<polygon fill="#63b8ff" stroke="#63b8ff" points="466.5,-249.23 463,-239.23 459.5,-249.23 466.5,-249.23"/>
</g>
<!-- Node4 -->
<g id="node4" class="node">
<title>Node4</title>
<g id="a_node4"><a xlink:href="../../d7/d5c/qcstring_8h.html" target="_top" xlink:title=" ">
<polygon fill="white" stroke="#666666" points="330.5,-129 265.5,-129 265.5,-110 330.5,-110 330.5,-129"/>
<text text-anchor="middle" x="298" y="-117" font-family="Helvetica,sans-Serif" font-size="10.00">qcstring.h</text>
</a>
</g>
</g>
<!-- Node1&#45;&gt;Node4 -->
<g id="edge50" class="edge">
<title>Node1&#45;&gt;Node4</title>
<path fill="none" stroke="#63b8ff" d="M431.33,-330C384.5,-307.25 298.88,-257.31 267,-184 259.86,-167.57 270.95,-149.23 281.79,-136.5"/>
<polygon fill="#63b8ff" stroke="#63b8ff" points="284.49,-138.74 288.69,-129.02 279.34,-133.99 284.49,-138.74"/>
</g>
<!-- Node14 -->
<g id="node14" class="node">
<title>Node14</title>
<g id="a_node14"><a xlink:href="../../de/d2b/docnode_8h.html" target="_top" xlink:title=" ">
<polygon fill="white" stroke="#666666" points="750.5,-294 683.5,-294 683.5,-275 750.5,-275 750.5,-294"/>
<text text-anchor="middle" x="717" y="-282" font-family="Helvetica,sans-Serif" font-size="10.00">docnode.h</text>
</a>
</g>
</g>
<!-- Node1&#45;&gt;Node14 -->
<g id="edge15" class="edge">
<title>Node1&#45;&gt;Node14</title>
<path fill="none" stroke="#63b8ff" d="M523.84,-329.99C569.94,-319.37 632.17,-305.04 673.4,-295.54"/>
<polygon fill="#63b8ff" stroke="#63b8ff" points="674.18,-298.95 683.14,-293.3 672.61,-292.13 674.18,-298.95"/>
</g>
<!-- Node3 -->
<g id="node3" class="node">
<title>Node3</title>
<g id="a_node3"><a xlink:title=" ">
<polygon fill="#e0e0e0" stroke="#999999" points="850,-129 792,-129 792,-110 850,-110 850,-129"/>
<text text-anchor="middle" x="821" y="-117" font-family="Helvetica,sans-Serif" font-size="10.00">memory</text>
</a>
</g>
</g>
<!-- Node2&#45;&gt;Node3 -->
<g id="edge2" class="edge">
<title>Node2&#45;&gt;Node3</title>
<path fill="none" stroke="#63b8ff" d="M488.26,-219.91C525.48,-207.35 597.32,-183.45 659,-165 700.91,-152.46 749.32,-139.34 782.23,-130.62"/>
<polygon fill="#63b8ff" stroke="#63b8ff" points="783.14,-134 791.92,-128.06 781.35,-127.23 783.14,-134"/>
</g>
<!-- Node2&#45;&gt;Node4 -->
<g id="edge3" class="edge">
<title>Node2&#45;&gt;Node4</title>
<path fill="none" stroke="#63b8ff" d="M426.17,-224.63C379.01,-218.84 301.31,-206.14 284,-184 273.82,-170.98 279.87,-152.07 286.91,-138.28"/>
<polygon fill="#63b8ff" stroke="#63b8ff" points="290.11,-139.72 291.99,-129.29 284.02,-136.27 290.11,-139.72"/>
</g>
<!-- Node5 -->
<g id="node5" class="node">
<title>Node5</title>
<g id="a_node5"><a xlink:title=" ">
<polygon fill="#e0e0e0" stroke="#999999" points="436,-19 392,-19 392,0 436,0 436,-19"/>
<text text-anchor="middle" x="414" y="-7" font-family="Helvetica,sans-Serif" font-size="10.00">string</text>
</a>
</g>
</g>
<!-- Node4&#45;&gt;Node5 -->
<g id="edge4" class="edge">
<title>Node4&#45;&gt;Node5</title>
<path fill="none" stroke="#63b8ff" d="M310.5,-109.89C322.6,-101.33 341.23,-87.56 356,-74 372.24,-59.09 389.04,-40.26 400.36,-26.98"/>
<polygon fill="#63b8ff" stroke="#63b8ff" points="403.18,-29.07 406.94,-19.16 397.82,-24.56 403.18,-29.07"/>
</g>
<!-- Node6 -->
<g id="node6" class="node">
<title>Node6</title>
<g id="a_node6"><a xlink:title=" ">
<polygon fill="#e0e0e0" stroke="#999999" points="506,-74 442,-74 442,-55 506,-55 506,-74"/>
<text text-anchor="middle" x="474" y="-62" font-family="Helvetica,sans-Serif" font-size="10.00">algorithm</text>
</a>
</g>
</g>
<!-- Node4&#45;&gt;Node6 -->
<g id="edge5" class="edge">
<title>Node4&#45;&gt;Node6</title>
<path fill="none" stroke="#63b8ff" d="M326.28,-109.98C355.95,-101.05 402.79,-86.94 435.75,-77.02"/>
<polygon fill="#63b8ff" stroke="#63b8ff" points="436.93,-80.32 445.5,-74.08 434.92,-73.61 436.93,-80.32"/>
</g>
<!-- Node7 -->
<g id="node7" class="node">
<title>Node7</title>
<g id="a_node7"><a xlink:title=" ">
<polygon fill="#e0e0e0" stroke="#999999" points="573.5,-74 524.5,-74 524.5,-55 573.5,-55 573.5,-74"/>
<text text-anchor="middle" x="549" y="-62" font-family="Helvetica,sans-Serif" font-size="10.00">cctype</text>
</a>
</g>
</g>
<!-- Node4&#45;&gt;Node7 -->
<g id="edge6" class="edge">
<title>Node4&#45;&gt;Node7</title>
<path fill="none" stroke="#63b8ff" d="M330.81,-112.22C371.48,-104.35 443.13,-90.15 514.14,-74.12"/>
<polygon fill="#63b8ff" stroke="#63b8ff" points="515.17,-77.47 524.15,-71.84 513.62,-70.64 515.17,-77.47"/>
</g>
<!-- Node8 -->
<g id="node8" class="node">
<title>Node8</title>
<g id="a_node8"><a xlink:title=" ">
<polygon fill="#e0e0e0" stroke="#999999" points="141,-74 91,-74 91,-55 141,-55 141,-74"/>
<text text-anchor="middle" x="116" y="-62" font-family="Helvetica,sans-Serif" font-size="10.00">cstring</text>
</a>
</g>
</g>
<!-- Node4&#45;&gt;Node8 -->
<g id="edge7" class="edge">
<title>Node4&#45;&gt;Node8</title>
<path fill="none" stroke="#63b8ff" d="M268.76,-109.98C236.7,-100.65 185.29,-85.68 151.09,-75.72"/>
<polygon fill="#63b8ff" stroke="#63b8ff" points="151.65,-72.24 141.07,-72.8 149.69,-78.96 151.65,-72.24"/>
</g>
<!-- Node9 -->
<g id="node9" class="node">
<title>Node9</title>
<g id="a_node9"><a xlink:title=" ">
<polygon fill="#e0e0e0" stroke="#999999" points="205,-74 159,-74 159,-55 205,-55 205,-74"/>
<text text-anchor="middle" x="182" y="-62" font-family="Helvetica,sans-Serif" font-size="10.00">cstdio</text>
</a>
</g>
</g>
<!-- Node4&#45;&gt;Node9 -->
<g id="edge8" class="edge">
<title>Node4&#45;&gt;Node9</title>
<path fill="none" stroke="#63b8ff" d="M279.36,-109.98C260.7,-101.46 231.75,-88.23 210.26,-78.41"/>
<polygon fill="#63b8ff" stroke="#63b8ff" points="211.53,-75.14 200.98,-74.17 208.62,-81.51 211.53,-75.14"/>
</g>
<!-- Node10 -->
<g id="node10" class="node">
<title>Node10</title>
<g id="a_node10"><a xlink:title=" ">
<polygon fill="#e0e0e0" stroke="#999999" points="272.5,-74 223.5,-74 223.5,-55 272.5,-55 272.5,-74"/>
<text text-anchor="middle" x="248" y="-62" font-family="Helvetica,sans-Serif" font-size="10.00">cstdlib</text>
</a>
</g>
</g>
<!-- Node4&#45;&gt;Node10 -->
<g id="edge9" class="edge">
<title>Node4&#45;&gt;Node10</title>
<path fill="none" stroke="#63b8ff" d="M289.74,-109.75C282.54,-102.11 271.89,-90.82 263.15,-81.56"/>
<polygon fill="#63b8ff" stroke="#63b8ff" points="265.51,-78.96 256.1,-74.09 260.42,-83.76 265.51,-78.96"/>
</g>
<!-- Node11 -->
<g id="node11" class="node">
<title>Node11</title>
<g id="a_node11"><a xlink:title=" ">
<polygon fill="#e0e0e0" stroke="#999999" points="50,-19 0,-19 0,0 50,0 50,-19"/>
<text text-anchor="middle" x="25" y="-7" font-family="Helvetica,sans-Serif" font-size="10.00">cstdint</text>
</a>
</g>
</g>
<!-- Node4&#45;&gt;Node11 -->
<g id="edge10" class="edge">
<title>Node4&#45;&gt;Node11</title>
<path fill="none" stroke="#63b8ff" d="M265.25,-118.37C198.32,-117.35 49.48,-110.88 18,-74 7.44,-61.63 11.27,-42.6 16.48,-28.6"/>
<polygon fill="#63b8ff" stroke="#63b8ff" points="19.84,-29.63 20.51,-19.06 13.39,-26.91 19.84,-29.63"/>
</g>
<!-- Node12 -->
<g id="node12" class="node">
<title>Node12</title>
<g id="a_node12"><a xlink:title=" ">
<polygon fill="#e0e0e0" stroke="#999999" points="347.5,-74 290.5,-74 290.5,-55 347.5,-55 347.5,-74"/>
<text text-anchor="middle" x="319" y="-62" font-family="Helvetica,sans-Serif" font-size="10.00">ostream</text>
</a>
</g>
</g>
<!-- Node4&#45;&gt;Node12 -->
<g id="edge11" class="edge">
<title>Node4&#45;&gt;Node12</title>
<path fill="none" stroke="#63b8ff" d="M301.47,-109.75C304.28,-102.65 308.34,-92.4 311.85,-83.56"/>
<polygon fill="#63b8ff" stroke="#63b8ff" points="315.17,-84.68 315.6,-74.09 308.66,-82.1 315.17,-84.68"/>
</g>
<!-- Node13 -->
<g id="node13" class="node">
<title>Node13</title>
<g id="a_node13"><a xlink:href="../../db/d7c/utf8_8h.html" target="_top" xlink:title="Various UTF8 related helper functions.">
<polygon fill="white" stroke="#666666" points="72.5,-74 27.5,-74 27.5,-55 72.5,-55 72.5,-74"/>
<text text-anchor="middle" x="50" y="-62" font-family="Helvetica,sans-Serif" font-size="10.00">utf8.h</text>
</a>
</g>
</g>
<!-- Node4&#45;&gt;Node13 -->
<g id="edge12" class="edge">
<title>Node4&#45;&gt;Node13</title>
<path fill="none" stroke="#63b8ff" d="M265.31,-112.36C224.79,-104.62 153.44,-90.57 82.67,-74.04"/>
<polygon fill="#63b8ff" stroke="#63b8ff" points="83.22,-70.58 72.69,-71.7 81.62,-77.39 83.22,-70.58"/>
</g>
<!-- Node13&#45;&gt;Node5 -->
<g id="edge14" class="edge">
<title>Node13&#45;&gt;Node5</title>
<path fill="none" stroke="#63b8ff" d="M72.64,-57.11C75.77,-56.33 78.96,-55.61 82,-55 190.73,-33.36 321.63,-19.27 381.39,-13.49"/>
<polygon fill="#63b8ff" stroke="#63b8ff" points="382.07,-16.94 391.69,-12.51 381.41,-9.97 382.07,-16.94"/>
</g>
<!-- Node13&#45;&gt;Node11 -->
<g id="edge13" class="edge">
<title>Node13&#45;&gt;Node11</title>
<path fill="none" stroke="#63b8ff" d="M45.87,-54.75C42.49,-47.57 37.58,-37.18 33.38,-28.27"/>
<polygon fill="#63b8ff" stroke="#63b8ff" points="36.48,-26.64 29.05,-19.09 30.15,-29.63 36.48,-26.64"/>
</g>
<!-- Node14&#45;&gt;Node2 -->
<g id="edge21" class="edge">
<title>Node14&#45;&gt;Node2</title>
<path fill="none" stroke="#63b8ff" d="M683.27,-276.46C638.7,-267.16 559.99,-250.74 509.72,-240.25"/>
<polygon fill="#63b8ff" stroke="#63b8ff" points="510.26,-236.79 499.75,-238.17 508.83,-243.64 510.26,-236.79"/>
</g>
<!-- Node14&#45;&gt;Node3 -->
<g id="edge18" class="edge">
<title>Node14&#45;&gt;Node3</title>
<path fill="none" stroke="#63b8ff" d="M750.52,-282.35C781.26,-279.3 825.22,-269.47 847,-239 868.95,-208.29 847.42,-162.5 832.54,-137.8"/>
<polygon fill="#63b8ff" stroke="#63b8ff" points="835.38,-135.74 827.08,-129.16 829.46,-139.48 835.38,-135.74"/>
</g>
<!-- Node14&#45;&gt;Node4 -->
<g id="edge20" class="edge">
<title>Node14&#45;&gt;Node4</title>
<path fill="none" stroke="#63b8ff" d="M683.5,-281.59C588.57,-275.39 321.62,-252.05 275,-184 265.22,-169.72 274.37,-150.79 283.87,-137.32"/>
<polygon fill="#63b8ff" stroke="#63b8ff" points="286.66,-139.43 289.97,-129.36 281.11,-135.17 286.66,-139.43"/>
</g>
<!-- Node15 -->
<g id="node15" class="node">
<title>Node15</title>
<g id="a_node15"><a xlink:title=" ">
<polygon fill="#e0e0e0" stroke="#999999" points="810,-184 760,-184 760,-165 810,-165 810,-184"/>
<text text-anchor="middle" x="785" y="-172" font-family="Helvetica,sans-Serif" font-size="10.00">stdio.h</text>
</a>
</g>
</g>
<!-- Node14&#45;&gt;Node15 -->
<g id="edge16" class="edge">
<title>Node14&#45;&gt;Node15</title>
<path fill="none" stroke="#63b8ff" d="M722.23,-274.83C729.64,-262.56 743.69,-239.46 756,-220 761.73,-210.94 768.24,-200.93 773.63,-192.71"/>
<polygon fill="#63b8ff" stroke="#63b8ff" points="776.58,-194.6 779.15,-184.32 770.73,-190.75 776.58,-194.6"/>
</g>
<!-- Node16 -->
<g id="node16" class="node">
<title>Node16</title>
<g id="a_node16"><a xlink:title=" ">
<polygon fill="#e0e0e0" stroke="#999999" points="915.5,-129 868.5,-129 868.5,-110 915.5,-110 915.5,-129"/>
<text text-anchor="middle" x="892" y="-117" font-family="Helvetica,sans-Serif" font-size="10.00">vector</text>
</a>
</g>
</g>
<!-- Node14&#45;&gt;Node16 -->
<g id="edge17" class="edge">
<title>Node14&#45;&gt;Node16</title>
<path fill="none" stroke="#63b8ff" d="M750.6,-281.69C811.92,-277.75 938.71,-266.44 972,-239 998.38,-217.25 1011.68,-193.64 993,-165 985.11,-152.9 951.49,-139.62 925.18,-130.75"/>
<polygon fill="#63b8ff" stroke="#63b8ff" points="926.12,-127.37 915.52,-127.57 923.93,-134.02 926.12,-127.37"/>
</g>
<!-- Node17 -->
<g id="node17" class="node">
<title>Node17</title>
<g id="a_node17"><a xlink:title=" ">
<polygon fill="#e0e0e0" stroke="#999999" points="945.5,-239 894.5,-239 894.5,-220 945.5,-220 945.5,-239"/>
<text text-anchor="middle" x="920" y="-227" font-family="Helvetica,sans-Serif" font-size="10.00">variant</text>
</a>
</g>
</g>
<!-- Node14&#45;&gt;Node17 -->
<g id="edge19" class="edge">
<title>Node14&#45;&gt;Node17</title>
<path fill="none" stroke="#63b8ff" d="M749.62,-274.98C786.39,-265.38 846.02,-249.82 884.1,-239.87"/>
<polygon fill="#63b8ff" stroke="#63b8ff" points="885.44,-243.14 894.23,-237.23 883.67,-236.37 885.44,-243.14"/>
</g>
<!-- Node18 -->
<g id="node18" class="node">
<title>Node18</title>
<g id="a_node18"><a xlink:href="../../de/d9c/docparser_8h.html" target="_top" xlink:title=" ">
<polygon fill="white" stroke="#666666" points="837.5,-239 764.5,-239 764.5,-220 837.5,-220 837.5,-239"/>
<text text-anchor="middle" x="801" y="-227" font-family="Helvetica,sans-Serif" font-size="10.00">docparser.h</text>
</a>
</g>
</g>
<!-- Node14&#45;&gt;Node18 -->
<g id="edge22" class="edge">
<title>Node14&#45;&gt;Node18</title>
<path fill="none" stroke="#63b8ff" d="M730.5,-274.98C743.4,-266.84 763.1,-254.41 778.4,-244.76"/>
<polygon fill="#63b8ff" stroke="#63b8ff" points="780.67,-247.47 787.26,-239.17 776.93,-241.55 780.67,-247.47"/>
</g>
<!-- Node19 -->
<g id="node19" class="node">
<title>Node19</title>
<g id="a_node19"><a xlink:href="../../d7/d50/growvector_8h.html" target="_top" xlink:title=" ">
<polygon fill="white" stroke="#666666" points="984,-184 904,-184 904,-165 984,-165 984,-184"/>
<text text-anchor="middle" x="944" y="-172" font-family="Helvetica,sans-Serif" font-size="10.00">growvector.h</text>
</a>
</g>
</g>
<!-- Node14&#45;&gt;Node19 -->
<g id="edge37" class="edge">
<title>Node14&#45;&gt;Node19</title>
<path fill="none" stroke="#63b8ff" d="M750.75,-282.3C810.12,-279.4 929.42,-269.8 955,-239 965.47,-226.39 960.36,-207.43 954.07,-193.51"/>
<polygon fill="#63b8ff" stroke="#63b8ff" points="957.12,-191.77 949.49,-184.42 950.87,-194.93 957.12,-191.77"/>
</g>
<!-- Node21 -->
<g id="node21" class="node">
<title>Node21</title>
<g id="a_node21"><a xlink:href="../../d0/d73/htmlattrib_8h.html" target="_top" xlink:title=" ">
<polygon fill="white" stroke="#666666" points="742,-184 668,-184 668,-165 742,-165 742,-184"/>
<text text-anchor="middle" x="705" y="-172" font-family="Helvetica,sans-Serif" font-size="10.00">htmlattrib.h</text>
</a>
</g>
</g>
<!-- Node14&#45;&gt;Node21 -->
<g id="edge30" class="edge">
<title>Node14&#45;&gt;Node21</title>
<path fill="none" stroke="#63b8ff" d="M716.02,-274.66C714.07,-257.17 709.7,-217.8 707.09,-194.27"/>
<polygon fill="#63b8ff" stroke="#63b8ff" points="710.55,-193.71 705.96,-184.16 703.59,-194.48 710.55,-193.71"/>
</g>
<!-- Node22 -->
<g id="node22" class="node">
<title>Node22</title>
<g id="a_node22"><a xlink:href="../../db/dc6/htmlentity_8h.html" target="_top" xlink:title=" ">
<polygon fill="white" stroke="#666666" points="439.5,-184 364.5,-184 364.5,-165 439.5,-165 439.5,-184"/>
<text text-anchor="middle" x="402" y="-172" font-family="Helvetica,sans-Serif" font-size="10.00">htmlentity.h</text>
</a>
</g>
</g>
<!-- Node14&#45;&gt;Node22 -->
<g id="edge33" class="edge">
<title>Node14&#45;&gt;Node22</title>
<path fill="none" stroke="#63b8ff" d="M683.37,-276.69C648.83,-269.22 593.8,-256 548,-239 529.92,-232.29 526.58,-227.93 509,-220 483.71,-208.59 454.63,-196.57 433.17,-187.89"/>
<polygon fill="#63b8ff" stroke="#63b8ff" points="434.47,-184.65 423.88,-184.16 431.86,-191.14 434.47,-184.65"/>
</g>
<!-- Node24 -->
<g id="node24" class="node">
<title>Node24</title>
<g id="a_node24"><a xlink:href="../../d1/d2a/section_8h.html" target="_top" xlink:title=" ">
<polygon fill="white" stroke="#666666" points="617.5,-239 556.5,-239 556.5,-220 617.5,-220 617.5,-239"/>
<text text-anchor="middle" x="587" y="-227" font-family="Helvetica,sans-Serif" font-size="10.00">section.h</text>
</a>
</g>
</g>
<!-- Node14&#45;&gt;Node24 -->
<g id="edge38" class="edge">
<title>Node14&#45;&gt;Node24</title>
<path fill="none" stroke="#63b8ff" d="M696.11,-274.98C674.92,-266.34 641.87,-252.87 617.7,-243.02"/>
<polygon fill="#63b8ff" stroke="#63b8ff" points="618.85,-239.7 608.27,-239.17 616.21,-246.19 618.85,-239.7"/>
</g>
<!-- Node18&#45;&gt;Node3 -->
<g id="edge24" class="edge">
<title>Node18&#45;&gt;Node3</title>
<path fill="none" stroke="#63b8ff" d="M805.53,-219.92C809.9,-211.17 816.25,-197.05 819,-184 822.1,-169.29 822.47,-152.25 822.13,-139.52"/>
<polygon fill="#63b8ff" stroke="#63b8ff" points="825.62,-139.08 821.68,-129.24 818.62,-139.39 825.62,-139.08"/>
</g>
<!-- Node18&#45;&gt;Node4 -->
<g id="edge25" class="edge">
<title>Node18&#45;&gt;Node4</title>
<path fill="none" stroke="#63b8ff" d="M764.37,-226.37C664.27,-220.33 391.17,-202.35 355,-184 334.84,-173.78 318.46,-153.18 308.52,-138.21"/>
<polygon fill="#63b8ff" stroke="#63b8ff" points="311.23,-135.95 302.94,-129.35 305.31,-139.68 311.23,-135.95"/>
</g>
<!-- Node18&#45;&gt;Node15 -->
<g id="edge23" class="edge">
<title>Node18&#45;&gt;Node15</title>
<path fill="none" stroke="#63b8ff" d="M798.36,-219.75C796.24,-212.72 793.19,-202.62 790.54,-193.84"/>
<polygon fill="#63b8ff" stroke="#63b8ff" points="793.83,-192.65 787.59,-184.09 787.13,-194.67 793.83,-192.65"/>
</g>
<!-- Node18&#45;&gt;Node19 -->
<g id="edge26" class="edge">
<title>Node18&#45;&gt;Node19</title>
<path fill="none" stroke="#63b8ff" d="M823.98,-219.98C847.5,-211.27 884.29,-197.63 910.94,-187.75"/>
<polygon fill="#63b8ff" stroke="#63b8ff" points="912.45,-190.93 920.61,-184.17 910.01,-184.36 912.45,-190.93"/>
</g>
<!-- Node19&#45;&gt;Node3 -->
<g id="edge28" class="edge">
<title>Node19&#45;&gt;Node3</title>
<path fill="none" stroke="#63b8ff" d="M924.24,-164.98C904.27,-156.38 873.2,-142.99 850.35,-133.15"/>
<polygon fill="#63b8ff" stroke="#63b8ff" points="851.69,-129.91 841.12,-129.17 848.92,-136.34 851.69,-129.91"/>
</g>
<!-- Node19&#45;&gt;Node16 -->
<g id="edge27" class="edge">
<title>Node19&#45;&gt;Node16</title>
<path fill="none" stroke="#63b8ff" d="M935.41,-164.75C927.84,-157.03 916.62,-145.6 907.49,-136.28"/>
<polygon fill="#63b8ff" stroke="#63b8ff" points="909.93,-133.78 900.43,-129.09 904.93,-138.68 909.93,-133.78"/>
</g>
<!-- Node20 -->
<g id="node20" class="node">
<title>Node20</title>
<g id="a_node20"><a xlink:title=" ">
<polygon fill="#e0e0e0" stroke="#999999" points="986.5,-129 933.5,-129 933.5,-110 986.5,-110 986.5,-129"/>
<text text-anchor="middle" x="960" y="-117" font-family="Helvetica,sans-Serif" font-size="10.00">iterator</text>
</a>
</g>
</g>
<!-- Node19&#45;&gt;Node20 -->
<g id="edge29" class="edge">
<title>Node19&#45;&gt;Node20</title>
<path fill="none" stroke="#63b8ff" d="M946.64,-164.75C948.76,-157.72 951.81,-147.62 954.46,-138.84"/>
<polygon fill="#63b8ff" stroke="#63b8ff" points="957.87,-139.67 957.41,-129.09 951.17,-137.65 957.87,-139.67"/>
</g>
<!-- Node21&#45;&gt;Node4 -->
<g id="edge32" class="edge">
<title>Node21&#45;&gt;Node4</title>
<path fill="none" stroke="#63b8ff" d="M667.8,-168.66C592.21,-158.81 421.04,-136.52 340.9,-126.09"/>
<polygon fill="#63b8ff" stroke="#63b8ff" points="341.04,-122.58 330.67,-124.75 340.13,-129.52 341.04,-122.58"/>
</g>
<!-- Node21&#45;&gt;Node16 -->
<g id="edge31" class="edge">
<title>Node21&#45;&gt;Node16</title>
<path fill="none" stroke="#63b8ff" d="M735.04,-164.98C768.78,-155.42 823.38,-139.95 858.47,-130"/>
<polygon fill="#63b8ff" stroke="#63b8ff" points="859.59,-133.32 868.26,-127.23 857.68,-126.59 859.59,-133.32"/>
</g>
<!-- Node22&#45;&gt;Node4 -->
<g id="edge36" class="edge">
<title>Node22&#45;&gt;Node4</title>
<path fill="none" stroke="#63b8ff" d="M385.29,-164.98C368.79,-156.57 343.3,-143.59 324.12,-133.81"/>
<polygon fill="#63b8ff" stroke="#63b8ff" points="325.51,-130.59 315.01,-129.17 322.33,-136.83 325.51,-130.59"/>
</g>
<!-- Node22&#45;&gt;Node5 -->
<g id="edge35" class="edge">
<title>Node22&#45;&gt;Node5</title>
<path fill="none" stroke="#63b8ff" d="M400.45,-164.67C398.97,-155.72 396.84,-141.44 396,-129 393.61,-93.31 402.54,-52.13 408.67,-28.92"/>
<polygon fill="#63b8ff" stroke="#63b8ff" points="412.1,-29.64 411.39,-19.07 405.36,-27.78 412.1,-29.64"/>
</g>
<!-- Node23 -->
<g id="node23" class="node">
<title>Node23</title>
<g id="a_node23"><a xlink:title=" ">
<polygon fill="#e0e0e0" stroke="#999999" points="497.5,-129 404.5,-129 404.5,-110 497.5,-110 497.5,-129"/>
<text text-anchor="middle" x="451" y="-117" font-family="Helvetica,sans-Serif" font-size="10.00">unordered_map</text>
</a>
</g>
</g>
<!-- Node22&#45;&gt;Node23 -->
<g id="edge34" class="edge">
<title>Node22&#45;&gt;Node23</title>
<path fill="none" stroke="#63b8ff" d="M410.09,-164.75C417.16,-157.11 427.59,-145.82 436.15,-136.56"/>
<polygon fill="#63b8ff" stroke="#63b8ff" points="438.84,-138.81 443.06,-129.09 433.7,-134.06 438.84,-138.81"/>
</g>
<!-- Node24&#45;&gt;Node4 -->
<g id="edge41" class="edge">
<title>Node24&#45;&gt;Node4</title>
<path fill="none" stroke="#63b8ff" d="M556.1,-225.06C490.11,-217.45 339.93,-198.74 322,-184 308.64,-173.02 302.71,-153.76 300.08,-139.32"/>
<polygon fill="#63b8ff" stroke="#63b8ff" points="303.49,-138.43 298.6,-129.03 296.56,-139.42 303.49,-138.43"/>
</g>
<!-- Node24&#45;&gt;Node5 -->
<g id="edge39" class="edge">
<title>Node24&#45;&gt;Node5</title>
<path fill="none" stroke="#63b8ff" d="M591.35,-219.73C604.39,-192.08 639.85,-105.51 600,-55 581.21,-31.19 494.52,-18.7 446.41,-13.5"/>
<polygon fill="#63b8ff" stroke="#63b8ff" points="446.51,-9.99 436.2,-12.44 445.78,-16.95 446.51,-9.99"/>
</g>
<!-- Node24&#45;&gt;Node23 -->
<g id="edge40" class="edge">
<title>Node24&#45;&gt;Node23</title>
<path fill="none" stroke="#63b8ff" d="M556.07,-220.09C534.98,-213.14 507.47,-201.52 488,-184 474.09,-171.48 463.98,-152.47 457.88,-138.52"/>
<polygon fill="#63b8ff" stroke="#63b8ff" points="461.02,-136.95 453.99,-129.02 454.54,-139.6 461.02,-136.95"/>
</g>
<!-- Node25 -->
<g id="node25" class="node">
<title>Node25</title>
<g id="a_node25"><a xlink:href="../../da/de1/linkedmap_8h.html" target="_top" xlink:title=" ">
<polygon fill="white" stroke="#666666" points="573.5,-184 496.5,-184 496.5,-165 573.5,-165 573.5,-184"/>
<text text-anchor="middle" x="535" y="-172" font-family="Helvetica,sans-Serif" font-size="10.00">linkedmap.h</text>
</a>
</g>
</g>
<!-- Node24&#45;&gt;Node25 -->
<g id="edge42" class="edge">
<title>Node24&#45;&gt;Node25</title>
<path fill="none" stroke="#63b8ff" d="M578.41,-219.75C570.84,-212.03 559.62,-200.6 550.49,-191.28"/>
<polygon fill="#63b8ff" stroke="#63b8ff" points="552.93,-188.78 543.43,-184.09 547.93,-193.68 552.93,-188.78"/>
</g>
<!-- Node25&#45;&gt;Node3 -->
<g id="edge45" class="edge">
<title>Node25&#45;&gt;Node3</title>
<path fill="none" stroke="#63b8ff" d="M573.57,-166.35C628,-156.27 726.82,-137.95 781.66,-127.79"/>
<polygon fill="#63b8ff" stroke="#63b8ff" points="782.5,-131.19 791.7,-125.93 781.23,-124.31 782.5,-131.19"/>
</g>
<!-- Node25&#45;&gt;Node4 -->
<g id="edge49" class="edge">
<title>Node25&#45;&gt;Node4</title>
<path fill="none" stroke="#63b8ff" d="M496.92,-164.98C454.19,-155.43 385.05,-139.97 340.56,-130.02"/>
<polygon fill="#63b8ff" stroke="#63b8ff" points="341.17,-126.57 330.64,-127.8 339.64,-133.4 341.17,-126.57"/>
</g>
<!-- Node25&#45;&gt;Node5 -->
<g id="edge46" class="edge">
<title>Node25&#45;&gt;Node5</title>
<path fill="none" stroke="#63b8ff" d="M543.86,-164.95C564.21,-144.29 610.51,-90.69 583,-55 566.41,-33.48 490.28,-20.29 446.07,-14.3"/>
<polygon fill="#63b8ff" stroke="#63b8ff" points="446.47,-10.83 436.1,-13 445.56,-17.77 446.47,-10.83"/>
</g>
<!-- Node25&#45;&gt;Node6 -->
<g id="edge47" class="edge">
<title>Node25&#45;&gt;Node6</title>
<path fill="none" stroke="#63b8ff" d="M531.94,-164.99C527.32,-152.53 517.9,-128.75 507,-110 501.39,-100.35 494.09,-90.31 487.78,-82.21"/>
<polygon fill="#63b8ff" stroke="#63b8ff" points="490.43,-79.92 481.45,-74.3 484.96,-84.29 490.43,-79.92"/>
</g>
<!-- Node25&#45;&gt;Node7 -->
<g id="edge48" class="edge">
<title>Node25&#45;&gt;Node7</title>
<path fill="none" stroke="#63b8ff" d="M536.15,-164.66C538.41,-147.17 543.52,-107.8 546.57,-84.27"/>
<polygon fill="#63b8ff" stroke="#63b8ff" points="550.06,-84.53 547.88,-74.16 543.12,-83.63 550.06,-84.53"/>
</g>
<!-- Node25&#45;&gt;Node16 -->
<g id="edge44" class="edge">
<title>Node25&#45;&gt;Node16</title>
<path fill="none" stroke="#63b8ff" d="M573.64,-169.65C632.84,-163.45 749.67,-149.94 858.46,-128.89"/>
<polygon fill="#63b8ff" stroke="#63b8ff" points="859.14,-132.32 868.28,-126.96 857.8,-125.45 859.14,-132.32"/>
</g>
<!-- Node25&#45;&gt;Node23 -->
<g id="edge43" class="edge">
<title>Node25&#45;&gt;Node23</title>
<path fill="none" stroke="#63b8ff" d="M521.5,-164.98C508.6,-156.84 488.9,-144.41 473.6,-134.76"/>
<polygon fill="#63b8ff" stroke="#63b8ff" points="475.07,-131.55 464.74,-129.17 471.33,-137.47 475.07,-131.55"/>
</g>
</g>
</svg>
