<?xml version="1.0" encoding="UTF-8" standalone="no"?>
<!DOCTYPE svg PUBLIC "-//W3C//DTD SVG 1.1//EN"
 "http://www.w3.org/Graphics/SVG/1.1/DTD/svg11.dtd">
<!-- Generated by graphviz version 2.43.0 (0)
 -->
<!-- Title: TextGeneratorOLImpl Pages: 1 -->
<svg width="264pt" height="93pt"
 viewBox="0.00 0.00 264.00 93.00" xmlns="http://www.w3.org/2000/svg" xmlns:xlink="http://www.w3.org/1999/xlink">
<g id="graph0" class="graph" transform="scale(1 1) rotate(0) translate(4 89)">
<title>TextGeneratorOLImpl</title>
<!-- Node1 -->
<g id="node1" class="node">
<title>Node1</title>
<g id="a_node1"><a xlink:title="Implements TextGeneratorIntf for an OutputDocInterface stream.">
<polygon fill="#999999" stroke="#666666" points="179,-19 59,-19 59,0 179,0 179,-19"/>
<text text-anchor="middle" x="119" y="-7" font-family="Helvetica,sans-Serif" font-size="10.00">TextGeneratorOLImpl</text>
</a>
</g>
</g>
<!-- Node2 -->
<g id="node2" class="node">
<title>Node2</title>
<g id="a_node2"><a xlink:href="../../d0/dcf/class_text_generator_intf.html" target="_top" xlink:title="Abstract interface for a hyperlinked text fragment.">
<polygon fill="white" stroke="#666666" points="102,-85 0,-85 0,-66 102,-66 102,-85"/>
<text text-anchor="middle" x="51" y="-73" font-family="Helvetica,sans-Serif" font-size="10.00">TextGeneratorIntf</text>
</a>
</g>
</g>
<!-- Node2&#45;&gt;Node1 -->
<g id="edge1" class="edge">
<title>Node2&#45;&gt;Node1</title>
<path fill="none" stroke="#63b8ff" d="M67.65,-58.83C80.81,-46.44 98.72,-29.59 109.54,-19.41"/>
<polygon fill="#63b8ff" stroke="#63b8ff" points="65.05,-56.47 60.17,-65.87 69.85,-61.56 65.05,-56.47"/>
</g>
<!-- Node3 -->
<g id="node3" class="node">
<title>Node3</title>
<g id="a_node3"><a xlink:href="../../df/d27/class_base_output_doc_interface.html" target="_top" xlink:title="Base Interface used for generating output outside of the comment blocks.">
<polygon fill="white" stroke="#666666" points="256,-85 120,-85 120,-66 256,-66 256,-85"/>
<text text-anchor="middle" x="188" y="-73" font-family="Helvetica,sans-Serif" font-size="10.00">BaseOutputDocInterface</text>
</a>
</g>
</g>
<!-- Node3&#45;&gt;Node1 -->
<g id="edge2" class="edge">
<title>Node3&#45;&gt;Node1</title>
<path fill="none" stroke="#9a32cd" stroke-dasharray="5,2" d="M171.11,-58.83C157.75,-46.44 139.58,-29.59 128.6,-19.41"/>
<polygon fill="#9a32cd" stroke="#9a32cd" points="168.98,-61.63 178.69,-65.87 173.74,-56.5 168.98,-61.63"/>
<text text-anchor="middle" x="172.5" y="-40" font-family="Helvetica,sans-Serif" font-size="10.00" fill="grey"> m_od</text>
</g>
</g>
</svg>
