<?xml version="1.0" encoding="UTF-8" standalone="no"?>
<!DOCTYPE svg PUBLIC "-//W3C//DTD SVG 1.1//EN"
 "http://www.w3.org/Graphics/SVG/1.1/DTD/svg11.dtd">
<!-- Generated by graphviz version 2.43.0 (0)
 -->
<!-- Title: /home/runner/work/doxygen/doxygen/src/emoji.h Pages: 1 -->
<svg width="2179pt" height="170pt"
 viewBox="0.00 0.00 2178.50 170.00" xmlns="http://www.w3.org/2000/svg" xmlns:xlink="http://www.w3.org/1999/xlink">
<g id="graph0" class="graph" transform="scale(1 1) rotate(0) translate(4 166)">
<title>/home/runner/work/doxygen/doxygen/src/emoji.h</title>
<!-- Node1 -->
<g id="node1" class="node">
<title>Node1</title>
<g id="a_node1"><a xlink:title=" ">
<polygon fill="#999999" stroke="#666666" points="1156.5,-162 1002.5,-162 1002.5,-132 1156.5,-132 1156.5,-162"/>
<text text-anchor="start" x="1010.5" y="-150" font-family="Helvetica,sans-Serif" font-size="10.00">/home/runner/work/doxygen</text>
<text text-anchor="middle" x="1079.5" y="-139" font-family="Helvetica,sans-Serif" font-size="10.00">/doxygen/src/emoji.h</text>
</a>
</g>
</g>
<!-- Node2 -->
<g id="node2" class="node">
<title>Node2</title>
<g id="a_node2"><a xlink:href="../../dc/d05/docbookvisitor_8cpp.html" target="_top" xlink:title=" ">
<polygon fill="white" stroke="#666666" points="173,-96 0,-96 0,-66 173,-66 173,-96"/>
<text text-anchor="start" x="8" y="-84" font-family="Helvetica,sans-Serif" font-size="10.00">/home/runner/work/doxygen</text>
<text text-anchor="middle" x="86.5" y="-73" font-family="Helvetica,sans-Serif" font-size="10.00">/doxygen/src/docbookvisitor.cpp</text>
</a>
</g>
</g>
<!-- Node1&#45;&gt;Node2 -->
<g id="edge1" class="edge">
<title>Node1&#45;&gt;Node2</title>
<path fill="none" stroke="#63b8ff" d="M991.92,-143.71C831.19,-138.93 478.42,-125.77 182.5,-96 179.4,-95.69 176.25,-95.35 173.06,-94.99"/>
<polygon fill="#63b8ff" stroke="#63b8ff" points="992.13,-147.22 1002.23,-144.01 992.34,-140.22 992.13,-147.22"/>
</g>
<!-- Node3 -->
<g id="node3" class="node">
<title>Node3</title>
<g id="a_node3"><a xlink:href="../../d0/d2b/docnode_8cpp.html" target="_top" xlink:title=" ">
<polygon fill="white" stroke="#666666" points="345.5,-96 191.5,-96 191.5,-66 345.5,-66 345.5,-96"/>
<text text-anchor="start" x="199.5" y="-84" font-family="Helvetica,sans-Serif" font-size="10.00">/home/runner/work/doxygen</text>
<text text-anchor="middle" x="268.5" y="-73" font-family="Helvetica,sans-Serif" font-size="10.00">/doxygen/src/docnode.cpp</text>
</a>
</g>
</g>
<!-- Node1&#45;&gt;Node3 -->
<g id="edge2" class="edge">
<title>Node1&#45;&gt;Node3</title>
<path fill="none" stroke="#63b8ff" d="M991.9,-142.58C855.37,-136.65 583.68,-122.5 354.5,-96 351.64,-95.67 348.74,-95.31 345.81,-94.93"/>
<polygon fill="#63b8ff" stroke="#63b8ff" points="992.15,-146.09 1002.3,-143.02 992.45,-139.1 992.15,-146.09"/>
</g>
<!-- Node4 -->
<g id="node4" class="node">
<title>Node4</title>
<g id="a_node4"><a xlink:href="../../dc/d98/doxygen_8cpp.html" target="_top" xlink:title=" ">
<polygon fill="white" stroke="#666666" points="517.5,-96 363.5,-96 363.5,-66 517.5,-66 517.5,-96"/>
<text text-anchor="start" x="371.5" y="-84" font-family="Helvetica,sans-Serif" font-size="10.00">/home/runner/work/doxygen</text>
<text text-anchor="middle" x="440.5" y="-73" font-family="Helvetica,sans-Serif" font-size="10.00">/doxygen/src/doxygen.cpp</text>
</a>
</g>
</g>
<!-- Node1&#45;&gt;Node4 -->
<g id="edge3" class="edge">
<title>Node1&#45;&gt;Node4</title>
<path fill="none" stroke="#63b8ff" d="M992.07,-140.03C882.89,-132.12 690.49,-116.73 526.5,-96 523.65,-95.64 520.75,-95.26 517.82,-94.85"/>
<polygon fill="#63b8ff" stroke="#63b8ff" points="992.15,-143.54 1002.38,-140.77 992.65,-136.56 992.15,-143.54"/>
</g>
<!-- Node5 -->
<g id="node5" class="node">
<title>Node5</title>
<g id="a_node5"><a xlink:href="../../d2/d38/emoji_8cpp.html" target="_top" xlink:title=" ">
<polygon fill="white" stroke="#666666" points="689.5,-96 535.5,-96 535.5,-66 689.5,-66 689.5,-96"/>
<text text-anchor="start" x="543.5" y="-84" font-family="Helvetica,sans-Serif" font-size="10.00">/home/runner/work/doxygen</text>
<text text-anchor="middle" x="612.5" y="-73" font-family="Helvetica,sans-Serif" font-size="10.00">/doxygen/src/emoji.cpp</text>
</a>
</g>
</g>
<!-- Node1&#45;&gt;Node5 -->
<g id="edge4" class="edge">
<title>Node1&#45;&gt;Node5</title>
<path fill="none" stroke="#63b8ff" d="M992.24,-135.33C914.95,-125.69 799.09,-110.79 698.5,-96 695.66,-95.58 692.76,-95.15 689.84,-94.71"/>
<polygon fill="#63b8ff" stroke="#63b8ff" points="992.06,-138.83 1002.42,-136.59 992.93,-131.88 992.06,-138.83"/>
</g>
<!-- Node6 -->
<g id="node6" class="node">
<title>Node6</title>
<g id="a_node6"><a xlink:href="../../da/db0/htmldocvisitor_8cpp.html" target="_top" xlink:title=" ">
<polygon fill="white" stroke="#666666" points="879.5,-96 707.5,-96 707.5,-66 879.5,-66 879.5,-96"/>
<text text-anchor="start" x="715.5" y="-84" font-family="Helvetica,sans-Serif" font-size="10.00">/home/runner/work/doxygen</text>
<text text-anchor="middle" x="793.5" y="-73" font-family="Helvetica,sans-Serif" font-size="10.00">/doxygen/src/htmldocvisitor.cpp</text>
</a>
</g>
</g>
<!-- Node1&#45;&gt;Node6 -->
<g id="edge5" class="edge">
<title>Node1&#45;&gt;Node6</title>
<path fill="none" stroke="#63b8ff" d="M1006.72,-129.71C960.21,-119.31 900.51,-105.95 856.12,-96.01"/>
<polygon fill="#63b8ff" stroke="#63b8ff" points="1006.21,-133.19 1016.74,-131.95 1007.74,-126.36 1006.21,-133.19"/>
</g>
<!-- Node7 -->
<g id="node7" class="node">
<title>Node7</title>
<g id="a_node7"><a xlink:href="../../d1/d4e/latexdocvisitor_8cpp.html" target="_top" xlink:title=" ">
<polygon fill="white" stroke="#666666" points="1071.5,-96 897.5,-96 897.5,-66 1071.5,-66 1071.5,-96"/>
<text text-anchor="start" x="905.5" y="-84" font-family="Helvetica,sans-Serif" font-size="10.00">/home/runner/work/doxygen</text>
<text text-anchor="middle" x="984.5" y="-73" font-family="Helvetica,sans-Serif" font-size="10.00">/doxygen/src/latexdocvisitor.cpp</text>
</a>
</g>
</g>
<!-- Node1&#45;&gt;Node7 -->
<g id="edge6" class="edge">
<title>Node1&#45;&gt;Node7</title>
<path fill="none" stroke="#63b8ff" d="M1049.85,-126.03C1035.48,-116.34 1018.55,-104.94 1005.52,-96.16"/>
<polygon fill="#63b8ff" stroke="#63b8ff" points="1048.17,-129.11 1058.42,-131.8 1052.08,-123.31 1048.17,-129.11"/>
</g>
<!-- Node8 -->
<g id="node8" class="node">
<title>Node8</title>
<g id="a_node8"><a xlink:href="../../d8/dde/mandocvisitor_8cpp.html" target="_top" xlink:title=" ">
<polygon fill="white" stroke="#666666" points="1261,-96 1090,-96 1090,-66 1261,-66 1261,-96"/>
<text text-anchor="start" x="1098" y="-84" font-family="Helvetica,sans-Serif" font-size="10.00">/home/runner/work/doxygen</text>
<text text-anchor="middle" x="1175.5" y="-73" font-family="Helvetica,sans-Serif" font-size="10.00">/doxygen/src/mandocvisitor.cpp</text>
</a>
</g>
</g>
<!-- Node1&#45;&gt;Node8 -->
<g id="edge7" class="edge">
<title>Node1&#45;&gt;Node8</title>
<path fill="none" stroke="#63b8ff" d="M1109.46,-126.03C1123.99,-116.34 1141.09,-104.94 1154.25,-96.16"/>
<polygon fill="#63b8ff" stroke="#63b8ff" points="1107.18,-123.34 1100.81,-131.8 1111.07,-129.16 1107.18,-123.34"/>
</g>
<!-- Node9 -->
<g id="node9" class="node">
<title>Node9</title>
<g id="a_node9"><a xlink:href="../../de/dd0/perlmodgen_8cpp.html" target="_top" xlink:title=" ">
<polygon fill="white" stroke="#666666" points="1440,-96 1279,-96 1279,-66 1440,-66 1440,-96"/>
<text text-anchor="start" x="1287" y="-84" font-family="Helvetica,sans-Serif" font-size="10.00">/home/runner/work/doxygen</text>
<text text-anchor="middle" x="1359.5" y="-73" font-family="Helvetica,sans-Serif" font-size="10.00">/doxygen/src/perlmodgen.cpp</text>
</a>
</g>
</g>
<!-- Node1&#45;&gt;Node9 -->
<g id="edge8" class="edge">
<title>Node1&#45;&gt;Node9</title>
<path fill="none" stroke="#63b8ff" d="M1150.75,-129.71C1196.29,-119.31 1254.74,-105.95 1298.2,-96.01"/>
<polygon fill="#63b8ff" stroke="#63b8ff" points="1149.92,-126.31 1140.95,-131.95 1151.48,-133.14 1149.92,-126.31"/>
</g>
<!-- Node10 -->
<g id="node10" class="node">
<title>Node10</title>
<g id="a_node10"><a xlink:href="../../db/d73/printdocvisitor_8h.html" target="_top" xlink:title=" ">
<polygon fill="white" stroke="#666666" points="1619,-96 1458,-96 1458,-66 1619,-66 1619,-96"/>
<text text-anchor="start" x="1466" y="-84" font-family="Helvetica,sans-Serif" font-size="10.00">/home/runner/work/doxygen</text>
<text text-anchor="middle" x="1538.5" y="-73" font-family="Helvetica,sans-Serif" font-size="10.00">/doxygen/src/printdocvisitor.h</text>
</a>
</g>
</g>
<!-- Node1&#45;&gt;Node10 -->
<g id="edge9" class="edge">
<title>Node1&#45;&gt;Node10</title>
<path fill="none" stroke="#63b8ff" d="M1167.15,-134.7C1242.17,-124.9 1353.02,-110.11 1449.5,-96 1452.29,-95.59 1455.12,-95.17 1457.98,-94.75"/>
<polygon fill="#63b8ff" stroke="#63b8ff" points="1166.28,-131.28 1156.81,-136.05 1167.18,-138.23 1166.28,-131.28"/>
</g>
<!-- Node12 -->
<g id="node12" class="node">
<title>Node12</title>
<g id="a_node12"><a xlink:href="../../de/d9a/rtfdocvisitor_8cpp.html" target="_top" xlink:title=" ">
<polygon fill="white" stroke="#666666" points="1798,-96 1637,-96 1637,-66 1798,-66 1798,-96"/>
<text text-anchor="start" x="1645" y="-84" font-family="Helvetica,sans-Serif" font-size="10.00">/home/runner/work/doxygen</text>
<text text-anchor="middle" x="1717.5" y="-73" font-family="Helvetica,sans-Serif" font-size="10.00">/doxygen/src/rtfdocvisitor.cpp</text>
</a>
</g>
</g>
<!-- Node1&#45;&gt;Node12 -->
<g id="edge11" class="edge">
<title>Node1&#45;&gt;Node12</title>
<path fill="none" stroke="#63b8ff" d="M1167.2,-139.79C1275.73,-131.69 1466.1,-116.15 1628.5,-96 1631.14,-95.67 1633.82,-95.33 1636.53,-94.97"/>
<polygon fill="#63b8ff" stroke="#63b8ff" points="1166.66,-136.31 1156.95,-140.55 1167.18,-143.3 1166.66,-136.31"/>
</g>
<!-- Node13 -->
<g id="node13" class="node">
<title>Node13</title>
<g id="a_node13"><a xlink:href="../../d3/da6/textdocvisitor_8cpp.html" target="_top" xlink:title=" ">
<polygon fill="white" stroke="#666666" points="1985,-96 1816,-96 1816,-66 1985,-66 1985,-96"/>
<text text-anchor="start" x="1824" y="-84" font-family="Helvetica,sans-Serif" font-size="10.00">/home/runner/work/doxygen</text>
<text text-anchor="middle" x="1900.5" y="-73" font-family="Helvetica,sans-Serif" font-size="10.00">/doxygen/src/textdocvisitor.cpp</text>
</a>
</g>
</g>
<!-- Node1&#45;&gt;Node13 -->
<g id="edge12" class="edge">
<title>Node1&#45;&gt;Node13</title>
<path fill="none" stroke="#63b8ff" d="M1166.74,-142.29C1303.56,-135.96 1576.83,-121.24 1807.5,-96 1810.26,-95.7 1813.06,-95.37 1815.89,-95.03"/>
<polygon fill="#63b8ff" stroke="#63b8ff" points="1166.55,-138.8 1156.72,-142.75 1166.87,-145.79 1166.55,-138.8"/>
</g>
<!-- Node14 -->
<g id="node14" class="node">
<title>Node14</title>
<g id="a_node14"><a xlink:href="../../dd/db6/xmldocvisitor_8cpp.html" target="_top" xlink:title=" ">
<polygon fill="white" stroke="#666666" points="2170.5,-96 2002.5,-96 2002.5,-66 2170.5,-66 2170.5,-96"/>
<text text-anchor="start" x="2010.5" y="-84" font-family="Helvetica,sans-Serif" font-size="10.00">/home/runner/work/doxygen</text>
<text text-anchor="middle" x="2086.5" y="-73" font-family="Helvetica,sans-Serif" font-size="10.00">/doxygen/src/xmldocvisitor.cpp</text>
</a>
</g>
</g>
<!-- Node1&#45;&gt;Node14 -->
<g id="edge13" class="edge">
<title>Node1&#45;&gt;Node14</title>
<path fill="none" stroke="#63b8ff" d="M1166.97,-144.03C1330.07,-139.72 1691.57,-127.25 1994.5,-96 1997.07,-95.73 1999.68,-95.45 2002.31,-95.14"/>
<polygon fill="#63b8ff" stroke="#63b8ff" points="1166.42,-140.54 1156.52,-144.3 1166.6,-147.54 1166.42,-140.54"/>
</g>
<!-- Node11 -->
<g id="node11" class="node">
<title>Node11</title>
<g id="a_node11"><a xlink:href="../../da/d17/docparser_8cpp.html" target="_top" xlink:title=" ">
<polygon fill="white" stroke="#666666" points="1615.5,-30 1461.5,-30 1461.5,0 1615.5,0 1615.5,-30"/>
<text text-anchor="start" x="1469.5" y="-18" font-family="Helvetica,sans-Serif" font-size="10.00">/home/runner/work/doxygen</text>
<text text-anchor="middle" x="1538.5" y="-7" font-family="Helvetica,sans-Serif" font-size="10.00">/doxygen/src/docparser.cpp</text>
</a>
</g>
</g>
<!-- Node10&#45;&gt;Node11 -->
<g id="edge10" class="edge">
<title>Node10&#45;&gt;Node11</title>
<path fill="none" stroke="#63b8ff" d="M1538.5,-55.54C1538.5,-46.96 1538.5,-37.61 1538.5,-30.16"/>
<polygon fill="#63b8ff" stroke="#63b8ff" points="1535,-55.8 1538.5,-65.8 1542,-55.8 1535,-55.8"/>
</g>
</g>
</svg>
