<?xml version="1.0" encoding="UTF-8" standalone="no"?>
<!DOCTYPE svg PUBLIC "-//W3C//DTD SVG 1.1//EN"
 "http://www.w3.org/Graphics/SVG/1.1/DTD/svg11.dtd">
<!-- Generated by graphviz version 2.43.0 (0)
 -->
<!-- Title: /home/runner/work/doxygen/doxygen/src/defargs.h Pages: 1 -->
<svg width="2782pt" height="104pt"
 viewBox="0.00 0.00 2782.00 104.00" xmlns="http://www.w3.org/2000/svg" xmlns:xlink="http://www.w3.org/1999/xlink">
<g id="graph0" class="graph" transform="scale(1 1) rotate(0) translate(4 100)">
<title>/home/runner/work/doxygen/doxygen/src/defargs.h</title>
<!-- Node1 -->
<g id="node1" class="node">
<title>Node1</title>
<g id="a_node1"><a xlink:title=" ">
<polygon fill="#999999" stroke="#666666" points="1456,-96 1302,-96 1302,-66 1456,-66 1456,-96"/>
<text text-anchor="start" x="1310" y="-84" font-family="Helvetica,sans-Serif" font-size="10.00">/home/runner/work/doxygen</text>
<text text-anchor="middle" x="1379" y="-73" font-family="Helvetica,sans-Serif" font-size="10.00">/doxygen/src/defargs.h</text>
</a>
</g>
</g>
<!-- Node2 -->
<g id="node2" class="node">
<title>Node2</title>
<g id="a_node2"><a xlink:href="../../de/d89/classdef_8cpp.html" target="_top" xlink:title=" ">
<polygon fill="white" stroke="#666666" points="154,-30 0,-30 0,0 154,0 154,-30"/>
<text text-anchor="start" x="8" y="-18" font-family="Helvetica,sans-Serif" font-size="10.00">/home/runner/work/doxygen</text>
<text text-anchor="middle" x="77" y="-7" font-family="Helvetica,sans-Serif" font-size="10.00">/doxygen/src/classdef.cpp</text>
</a>
</g>
</g>
<!-- Node1&#45;&gt;Node2 -->
<g id="edge1" class="edge">
<title>Node1&#45;&gt;Node2</title>
<path fill="none" stroke="#63b8ff" d="M1291.79,-80.01C1091.72,-79.23 584.5,-72.82 163,-30 160.14,-29.71 157.23,-29.39 154.3,-29.03"/>
<polygon fill="#63b8ff" stroke="#63b8ff" points="1291.93,-83.51 1301.95,-80.04 1291.96,-76.51 1291.93,-83.51"/>
</g>
<!-- Node3 -->
<g id="node3" class="node">
<title>Node3</title>
<g id="a_node3"><a xlink:href="../../d6/d10/classlist_8cpp.html" target="_top" xlink:title=" ">
<polygon fill="white" stroke="#666666" points="326,-30 172,-30 172,0 326,0 326,-30"/>
<text text-anchor="start" x="180" y="-18" font-family="Helvetica,sans-Serif" font-size="10.00">/home/runner/work/doxygen</text>
<text text-anchor="middle" x="249" y="-7" font-family="Helvetica,sans-Serif" font-size="10.00">/doxygen/src/classlist.cpp</text>
</a>
</g>
</g>
<!-- Node1&#45;&gt;Node3 -->
<g id="edge2" class="edge">
<title>Node1&#45;&gt;Node3</title>
<path fill="none" stroke="#63b8ff" d="M1291.64,-79.16C1112.01,-76.7 688.39,-67.11 335,-30 332.14,-29.7 329.23,-29.37 326.3,-29.01"/>
<polygon fill="#63b8ff" stroke="#63b8ff" points="1291.78,-82.66 1301.82,-79.3 1291.87,-75.66 1291.78,-82.66"/>
</g>
<!-- Node4 -->
<g id="node4" class="node">
<title>Node4</title>
<g id="a_node4"><a xlink:href="../../de/df3/defargs_8l.html" target="_top" xlink:title=" ">
<polygon fill="white" stroke="#666666" points="498,-30 344,-30 344,0 498,0 498,-30"/>
<text text-anchor="start" x="352" y="-18" font-family="Helvetica,sans-Serif" font-size="10.00">/home/runner/work/doxygen</text>
<text text-anchor="middle" x="421" y="-7" font-family="Helvetica,sans-Serif" font-size="10.00">/doxygen/src/defargs.l</text>
</a>
</g>
</g>
<!-- Node1&#45;&gt;Node4 -->
<g id="edge3" class="edge">
<title>Node1&#45;&gt;Node4</title>
<path fill="none" stroke="#63b8ff" d="M1291.7,-78C1134.4,-73.73 793.14,-61.41 507,-30 504.14,-29.69 501.24,-29.34 498.3,-28.97"/>
<polygon fill="#63b8ff" stroke="#63b8ff" points="1291.7,-81.5 1301.79,-78.27 1291.89,-74.5 1291.7,-81.5"/>
</g>
<!-- Node5 -->
<g id="node5" class="node">
<title>Node5</title>
<g id="a_node5"><a xlink:href="../../d3/d17/defgen_8cpp.html" target="_top" xlink:title=" ">
<polygon fill="white" stroke="#666666" points="670,-30 516,-30 516,0 670,0 670,-30"/>
<text text-anchor="start" x="524" y="-18" font-family="Helvetica,sans-Serif" font-size="10.00">/home/runner/work/doxygen</text>
<text text-anchor="middle" x="593" y="-7" font-family="Helvetica,sans-Serif" font-size="10.00">/doxygen/src/defgen.cpp</text>
</a>
</g>
</g>
<!-- Node1&#45;&gt;Node5 -->
<g id="edge4" class="edge">
<title>Node1&#45;&gt;Node5</title>
<path fill="none" stroke="#63b8ff" d="M1291.77,-76.3C1159.11,-70.1 898.81,-55.69 679,-30 676.15,-29.67 673.24,-29.31 670.31,-28.92"/>
<polygon fill="#63b8ff" stroke="#63b8ff" points="1291.73,-79.8 1301.88,-76.77 1292.05,-72.81 1291.73,-79.8"/>
</g>
<!-- Node6 -->
<g id="node6" class="node">
<title>Node6</title>
<g id="a_node6"><a xlink:href="../../d8/d29/docbookgen_8cpp.html" target="_top" xlink:title=" ">
<polygon fill="white" stroke="#666666" points="849.5,-30 688.5,-30 688.5,0 849.5,0 849.5,-30"/>
<text text-anchor="start" x="696.5" y="-18" font-family="Helvetica,sans-Serif" font-size="10.00">/home/runner/work/doxygen</text>
<text text-anchor="middle" x="769" y="-7" font-family="Helvetica,sans-Serif" font-size="10.00">/doxygen/src/docbookgen.cpp</text>
</a>
</g>
</g>
<!-- Node1&#45;&gt;Node6 -->
<g id="edge5" class="edge">
<title>Node1&#45;&gt;Node6</title>
<path fill="none" stroke="#63b8ff" d="M1291.67,-73.17C1188.21,-64.72 1010.75,-49.08 859,-30 856.02,-29.63 852.98,-29.23 849.92,-28.82"/>
<polygon fill="#63b8ff" stroke="#63b8ff" points="1291.5,-76.67 1301.75,-73.99 1292.07,-69.69 1291.5,-76.67"/>
</g>
<!-- Node7 -->
<g id="node7" class="node">
<title>Node7</title>
<g id="a_node7"><a xlink:href="../../dc/d98/doxygen_8cpp.html" target="_top" xlink:title=" ">
<polygon fill="white" stroke="#666666" points="1022,-30 868,-30 868,0 1022,0 1022,-30"/>
<text text-anchor="start" x="876" y="-18" font-family="Helvetica,sans-Serif" font-size="10.00">/home/runner/work/doxygen</text>
<text text-anchor="middle" x="945" y="-7" font-family="Helvetica,sans-Serif" font-size="10.00">/doxygen/src/doxygen.cpp</text>
</a>
</g>
</g>
<!-- Node1&#45;&gt;Node7 -->
<g id="edge6" class="edge">
<title>Node1&#45;&gt;Node7</title>
<path fill="none" stroke="#63b8ff" d="M1291.72,-67.92C1221.3,-58.06 1119.7,-43.59 1031,-30 1028.16,-29.56 1025.27,-29.12 1022.34,-28.66"/>
<polygon fill="#63b8ff" stroke="#63b8ff" points="1291.49,-71.42 1301.88,-69.34 1292.46,-64.49 1291.49,-71.42"/>
</g>
<!-- Node8 -->
<g id="node8" class="node">
<title>Node8</title>
<g id="a_node8"><a xlink:href="../../d9/d5b/fortrancode_8l.html" target="_top" xlink:title=" ">
<polygon fill="white" stroke="#666666" points="1194,-30 1040,-30 1040,0 1194,0 1194,-30"/>
<text text-anchor="start" x="1048" y="-18" font-family="Helvetica,sans-Serif" font-size="10.00">/home/runner/work/doxygen</text>
<text text-anchor="middle" x="1117" y="-7" font-family="Helvetica,sans-Serif" font-size="10.00">/doxygen/src/fortrancode.l</text>
</a>
</g>
</g>
<!-- Node1&#45;&gt;Node8 -->
<g id="edge7" class="edge">
<title>Node1&#45;&gt;Node8</title>
<path fill="none" stroke="#63b8ff" d="M1311.52,-63.52C1269.03,-53.14 1214.77,-39.88 1174.36,-30.01"/>
<polygon fill="#63b8ff" stroke="#63b8ff" points="1310.96,-66.98 1321.5,-65.95 1312.62,-60.18 1310.96,-66.98"/>
</g>
<!-- Node9 -->
<g id="node9" class="node">
<title>Node9</title>
<g id="a_node9"><a xlink:href="../../dd/d00/fortranscanner_8l.html" target="_top" xlink:title=" ">
<polygon fill="white" stroke="#666666" points="1370,-30 1212,-30 1212,0 1370,0 1370,-30"/>
<text text-anchor="start" x="1220" y="-18" font-family="Helvetica,sans-Serif" font-size="10.00">/home/runner/work/doxygen</text>
<text text-anchor="middle" x="1291" y="-7" font-family="Helvetica,sans-Serif" font-size="10.00">/doxygen/src/fortranscanner.l</text>
</a>
</g>
</g>
<!-- Node1&#45;&gt;Node9 -->
<g id="edge8" class="edge">
<title>Node1&#45;&gt;Node9</title>
<path fill="none" stroke="#63b8ff" d="M1351.16,-59.75C1337.93,-50.13 1322.43,-38.86 1310.48,-30.16"/>
<polygon fill="#63b8ff" stroke="#63b8ff" points="1349.32,-62.75 1359.47,-65.8 1353.44,-57.08 1349.32,-62.75"/>
</g>
<!-- Node10 -->
<g id="node10" class="node">
<title>Node10</title>
<g id="a_node10"><a xlink:href="../../d0/d72/memberdef_8cpp.html" target="_top" xlink:title=" ">
<polygon fill="white" stroke="#666666" points="1546,-30 1388,-30 1388,0 1546,0 1546,-30"/>
<text text-anchor="start" x="1396" y="-18" font-family="Helvetica,sans-Serif" font-size="10.00">/home/runner/work/doxygen</text>
<text text-anchor="middle" x="1467" y="-7" font-family="Helvetica,sans-Serif" font-size="10.00">/doxygen/src/memberdef.cpp</text>
</a>
</g>
</g>
<!-- Node1&#45;&gt;Node10 -->
<g id="edge9" class="edge">
<title>Node1&#45;&gt;Node10</title>
<path fill="none" stroke="#63b8ff" d="M1406.84,-59.75C1420.07,-50.13 1435.57,-38.86 1447.52,-30.16"/>
<polygon fill="#63b8ff" stroke="#63b8ff" points="1404.56,-57.08 1398.53,-65.8 1408.68,-62.75 1404.56,-57.08"/>
</g>
<!-- Node11 -->
<g id="node11" class="node">
<title>Node11</title>
<g id="a_node11"><a xlink:href="../../d0/da7/pre_8l.html" target="_top" xlink:title=" ">
<polygon fill="white" stroke="#666666" points="1718,-30 1564,-30 1564,0 1718,0 1718,-30"/>
<text text-anchor="start" x="1572" y="-18" font-family="Helvetica,sans-Serif" font-size="10.00">/home/runner/work/doxygen</text>
<text text-anchor="middle" x="1641" y="-7" font-family="Helvetica,sans-Serif" font-size="10.00">/doxygen/src/pre.l</text>
</a>
</g>
</g>
<!-- Node1&#45;&gt;Node11 -->
<g id="edge10" class="edge">
<title>Node1&#45;&gt;Node11</title>
<path fill="none" stroke="#63b8ff" d="M1446.48,-63.52C1488.97,-53.14 1543.23,-39.88 1583.64,-30.01"/>
<polygon fill="#63b8ff" stroke="#63b8ff" points="1445.38,-60.18 1436.5,-65.95 1447.04,-66.98 1445.38,-60.18"/>
</g>
<!-- Node12 -->
<g id="node12" class="node">
<title>Node12</title>
<g id="a_node12"><a xlink:href="../../de/d2b/pyscanner_8l.html" target="_top" xlink:title=" ">
<polygon fill="white" stroke="#666666" points="1890,-30 1736,-30 1736,0 1890,0 1890,-30"/>
<text text-anchor="start" x="1744" y="-18" font-family="Helvetica,sans-Serif" font-size="10.00">/home/runner/work/doxygen</text>
<text text-anchor="middle" x="1813" y="-7" font-family="Helvetica,sans-Serif" font-size="10.00">/doxygen/src/pyscanner.l</text>
</a>
</g>
</g>
<!-- Node1&#45;&gt;Node12 -->
<g id="edge11" class="edge">
<title>Node1&#45;&gt;Node12</title>
<path fill="none" stroke="#63b8ff" d="M1466.28,-67.92C1536.7,-58.06 1638.3,-43.59 1727,-30 1729.84,-29.56 1732.73,-29.12 1735.66,-28.66"/>
<polygon fill="#63b8ff" stroke="#63b8ff" points="1465.54,-64.49 1456.12,-69.34 1466.51,-71.42 1465.54,-64.49"/>
</g>
<!-- Node13 -->
<g id="node13" class="node">
<title>Node13</title>
<g id="a_node13"><a xlink:href="../../da/d11/scanner_8l.html" target="_top" xlink:title=" ">
<polygon fill="white" stroke="#666666" points="2062,-30 1908,-30 1908,0 2062,0 2062,-30"/>
<text text-anchor="start" x="1916" y="-18" font-family="Helvetica,sans-Serif" font-size="10.00">/home/runner/work/doxygen</text>
<text text-anchor="middle" x="1985" y="-7" font-family="Helvetica,sans-Serif" font-size="10.00">/doxygen/src/scanner.l</text>
</a>
</g>
</g>
<!-- Node1&#45;&gt;Node13 -->
<g id="edge12" class="edge">
<title>Node1&#45;&gt;Node13</title>
<path fill="none" stroke="#63b8ff" d="M1466.35,-73.36C1569.83,-65.09 1747.32,-49.62 1899,-30 1901.85,-29.63 1904.75,-29.24 1907.68,-28.83"/>
<polygon fill="#63b8ff" stroke="#63b8ff" points="1465.96,-69.88 1456.27,-74.16 1466.51,-76.86 1465.96,-69.88"/>
</g>
<!-- Node14 -->
<g id="node14" class="node">
<title>Node14</title>
<g id="a_node14"><a xlink:href="../../d2/d99/symbolresolver_8cpp.html" target="_top" xlink:title=" ">
<polygon fill="white" stroke="#666666" points="2257.5,-30 2080.5,-30 2080.5,0 2257.5,0 2257.5,-30"/>
<text text-anchor="start" x="2088.5" y="-18" font-family="Helvetica,sans-Serif" font-size="10.00">/home/runner/work/doxygen</text>
<text text-anchor="middle" x="2169" y="-7" font-family="Helvetica,sans-Serif" font-size="10.00">/doxygen/src/symbolresolver.cpp</text>
</a>
</g>
</g>
<!-- Node1&#45;&gt;Node14 -->
<g id="edge13" class="edge">
<title>Node1&#45;&gt;Node14</title>
<path fill="none" stroke="#63b8ff" d="M1466.23,-75.65C1597.62,-68.67 1854.04,-53.31 2071,-30 2074.08,-29.67 2077.2,-29.32 2080.36,-28.95"/>
<polygon fill="#63b8ff" stroke="#63b8ff" points="1466.02,-72.16 1456.22,-76.18 1466.39,-79.15 1466.02,-72.16"/>
</g>
<!-- Node15 -->
<g id="node15" class="node">
<title>Node15</title>
<g id="a_node15"><a xlink:href="../../d4/d7b/tagreader_8cpp.html" target="_top" xlink:title=" ">
<polygon fill="white" stroke="#666666" points="2430,-30 2276,-30 2276,0 2430,0 2430,-30"/>
<text text-anchor="start" x="2284" y="-18" font-family="Helvetica,sans-Serif" font-size="10.00">/home/runner/work/doxygen</text>
<text text-anchor="middle" x="2353" y="-7" font-family="Helvetica,sans-Serif" font-size="10.00">/doxygen/src/tagreader.cpp</text>
</a>
</g>
</g>
<!-- Node1&#45;&gt;Node15 -->
<g id="edge14" class="edge">
<title>Node1&#45;&gt;Node15</title>
<path fill="none" stroke="#63b8ff" d="M1466.36,-78.13C1625.85,-74.03 1974.67,-61.93 2267,-30 2269.86,-29.69 2272.76,-29.34 2275.7,-28.98"/>
<polygon fill="#63b8ff" stroke="#63b8ff" points="1466.04,-74.63 1456.13,-78.38 1466.22,-81.63 1466.04,-74.63"/>
</g>
<!-- Node16 -->
<g id="node16" class="node">
<title>Node16</title>
<g id="a_node16"><a xlink:href="../../df/d2d/util_8cpp.html" target="_top" xlink:title=" ">
<polygon fill="white" stroke="#666666" points="2602,-30 2448,-30 2448,0 2602,0 2602,-30"/>
<text text-anchor="start" x="2456" y="-18" font-family="Helvetica,sans-Serif" font-size="10.00">/home/runner/work/doxygen</text>
<text text-anchor="middle" x="2525" y="-7" font-family="Helvetica,sans-Serif" font-size="10.00">/doxygen/src/util.cpp</text>
</a>
</g>
</g>
<!-- Node1&#45;&gt;Node16 -->
<g id="edge15" class="edge">
<title>Node1&#45;&gt;Node16</title>
<path fill="none" stroke="#63b8ff" d="M1466.06,-79.25C1647.49,-76.96 2079.11,-67.66 2439,-30 2441.86,-29.7 2444.77,-29.37 2447.7,-29.01"/>
<polygon fill="#63b8ff" stroke="#63b8ff" points="1466,-75.76 1456.04,-79.38 1466.08,-82.75 1466,-75.76"/>
</g>
<!-- Node17 -->
<g id="node17" class="node">
<title>Node17</title>
<g id="a_node17"><a xlink:href="../../d0/dc3/xmlgen_8cpp.html" target="_top" xlink:title=" ">
<polygon fill="white" stroke="#666666" points="2774,-30 2620,-30 2620,0 2774,0 2774,-30"/>
<text text-anchor="start" x="2628" y="-18" font-family="Helvetica,sans-Serif" font-size="10.00">/home/runner/work/doxygen</text>
<text text-anchor="middle" x="2697" y="-7" font-family="Helvetica,sans-Serif" font-size="10.00">/doxygen/src/xmlgen.cpp</text>
</a>
</g>
</g>
<!-- Node1&#45;&gt;Node17 -->
<g id="edge16" class="edge">
<title>Node1&#45;&gt;Node17</title>
<path fill="none" stroke="#63b8ff" d="M1466.61,-80.07C1668.8,-79.44 2183.43,-73.32 2611,-30 2613.86,-29.71 2616.77,-29.39 2619.7,-29.04"/>
<polygon fill="#63b8ff" stroke="#63b8ff" points="1466.34,-76.57 1456.35,-80.1 1466.36,-83.57 1466.34,-76.57"/>
</g>
</g>
</svg>
