<?xml version="1.0" encoding="UTF-8" standalone="no"?>
<!DOCTYPE svg PUBLIC "-//W3C//DTD SVG 1.1//EN"
 "http://www.w3.org/Graphics/SVG/1.1/DTD/svg11.dtd">
<!-- Generated by graphviz version 2.43.0 (0)
 -->
<!-- Title: TemplateNodeEncoding Pages: 1 -->
<svg width="277pt" height="216pt"
 viewBox="0.00 0.00 277.00 216.00" xmlns="http://www.w3.org/2000/svg" xmlns:xlink="http://www.w3.org/1999/xlink">
<g id="graph0" class="graph" transform="scale(1 1) rotate(0) translate(4 212)">
<title>TemplateNodeEncoding</title>
<!-- Node1 -->
<g id="node1" class="node">
<title>Node1</title>
<g id="a_node1"><a xlink:title="Class representing the &#39;encoding&#39; tag in a template.">
<polygon fill="#999999" stroke="#666666" points="142.5,-19 11.5,-19 11.5,0 142.5,0 142.5,-19"/>
<text text-anchor="middle" x="77" y="-7" font-family="Helvetica,sans-Serif" font-size="10.00">TemplateNodeEncoding</text>
</a>
</g>
</g>
<!-- Node2 -->
<g id="node2" class="node">
<title>Node2</title>
<g id="a_node2"><a xlink:href="../../d8/d78/class_template_node_creator.html" target="_top" xlink:title=" ">
<polygon fill="white" stroke="#666666" points="154,-86 0,-86 0,-56 154,-56 154,-86"/>
<text text-anchor="start" x="8" y="-74" font-family="Helvetica,sans-Serif" font-size="10.00">TemplateNodeCreator</text>
<text text-anchor="middle" x="77" y="-63" font-family="Helvetica,sans-Serif" font-size="10.00">&lt; TemplateNodeEncoding &gt;</text>
</a>
</g>
</g>
<!-- Node2&#45;&gt;Node1 -->
<g id="edge1" class="edge">
<title>Node2&#45;&gt;Node1</title>
<path fill="none" stroke="#63b8ff" d="M77,-45.79C77,-36.36 77,-26.15 77,-19.16"/>
<polygon fill="#63b8ff" stroke="#63b8ff" points="73.5,-45.9 77,-55.9 80.5,-45.9 73.5,-45.9"/>
</g>
<!-- Node3 -->
<g id="node3" class="node">
<title>Node3</title>
<g id="a_node3"><a xlink:href="../../d6/d53/class_template_node.html" target="_top" xlink:title="Base class of all nodes in a template&#39;s AST.">
<polygon fill="white" stroke="#666666" points="116.5,-208 29.5,-208 29.5,-189 116.5,-189 116.5,-208"/>
<text text-anchor="middle" x="73" y="-196" font-family="Helvetica,sans-Serif" font-size="10.00">TemplateNode</text>
</a>
</g>
</g>
<!-- Node3&#45;&gt;Node2 -->
<g id="edge2" class="edge">
<title>Node3&#45;&gt;Node2</title>
<path fill="none" stroke="#63b8ff" d="M73.6,-178.76C74.4,-153.48 75.82,-109.02 76.55,-86.27"/>
<polygon fill="#63b8ff" stroke="#63b8ff" points="70.1,-178.77 73.27,-188.87 77.09,-178.99 70.1,-178.77"/>
</g>
<!-- Node4 -->
<g id="node4" class="node">
<title>Node4</title>
<g id="a_node4"><a xlink:href="../../d8/d78/class_template_node_creator.html" target="_top" xlink:title="Helper class for creating template AST tag nodes and returning the template for a given node.">
<polygon fill="white" stroke="#666666" points="241,-152 89,-152 89,-133 241,-133 241,-152"/>
<text text-anchor="middle" x="165" y="-140" font-family="Helvetica,sans-Serif" font-size="10.00">TemplateNodeCreator&lt; T &gt;</text>
</a>
</g>
</g>
<!-- Node3&#45;&gt;Node4 -->
<g id="edge4" class="edge">
<title>Node3&#45;&gt;Node4</title>
<path fill="none" stroke="#63b8ff" d="M96.55,-183.68C113.48,-173.74 135.78,-160.65 150.26,-152.15"/>
<polygon fill="#63b8ff" stroke="#63b8ff" points="94.63,-180.74 87.78,-188.82 98.18,-186.78 94.63,-180.74"/>
</g>
<!-- Node4&#45;&gt;Node2 -->
<g id="edge3" class="edge">
<title>Node4&#45;&gt;Node2</title>
<path fill="none" stroke="orange" stroke-dasharray="5,2" d="M146.06,-126.54C130.9,-114.57 109.78,-97.89 94.9,-86.14"/>
<polygon fill="orange" stroke="orange" points="144.19,-129.53 154.21,-132.98 148.53,-124.03 144.19,-129.53"/>
<text text-anchor="middle" x="198.5" y="-107" font-family="Helvetica,sans-Serif" font-size="10.00" fill="grey"> &lt; TemplateNodeEncoding &gt;</text>
</g>
</g>
</svg>
