<?xml version="1.0" encoding="UTF-8" standalone="no"?>
<!DOCTYPE svg PUBLIC "-//W3C//DTD SVG 1.1//EN"
 "http://www.w3.org/Graphics/SVG/1.1/DTD/svg11.dtd">
<!-- Generated by graphviz version 2.43.0 (0)
 -->
<!-- Title: HtmlGenerator Pages: 1 -->
<svg width="467pt" height="184pt"
 viewBox="0.00 0.00 467.00 184.00" xmlns="http://www.w3.org/2000/svg" xmlns:xlink="http://www.w3.org/1999/xlink">
<g id="graph0" class="graph" transform="scale(1 1) rotate(0) translate(4 180)">
<title>HtmlGenerator</title>
<!-- Node1 -->
<g id="node1" class="node">
<title>Node1</title>
<g id="a_node1"><a xlink:title="Generator for HTML output.">
<polygon fill="#999999" stroke="#666666" points="314.5,-19 225.5,-19 225.5,0 314.5,0 314.5,-19"/>
<text text-anchor="middle" x="270" y="-7" font-family="Helvetica,sans-Serif" font-size="10.00">HtmlGenerator</text>
</a>
</g>
</g>
<!-- Node2 -->
<g id="node2" class="node">
<title>Node2</title>
<g id="a_node2"><a xlink:href="../../d3/d8e/class_output_generator.html" target="_top" xlink:title="Abstract output generator.">
<polygon fill="white" stroke="#666666" points="177,-92 79,-92 79,-73 177,-73 177,-92"/>
<text text-anchor="middle" x="128" y="-80" font-family="Helvetica,sans-Serif" font-size="10.00">OutputGenerator</text>
</a>
</g>
</g>
<!-- Node2&#45;&gt;Node1 -->
<g id="edge1" class="edge">
<title>Node2&#45;&gt;Node1</title>
<path fill="none" stroke="#63b8ff" d="M154.19,-68.41C182.93,-54.03 228.26,-31.37 252.81,-19.09"/>
<polygon fill="#63b8ff" stroke="#63b8ff" points="152.51,-65.33 145.13,-72.94 155.64,-71.59 152.51,-65.33"/>
</g>
<!-- Node3 -->
<g id="node3" class="node">
<title>Node3</title>
<g id="a_node3"><a xlink:href="../../df/d27/class_base_output_doc_interface.html" target="_top" xlink:title="Base Interface used for generating output outside of the comment blocks.">
<polygon fill="white" stroke="#666666" points="136,-176 0,-176 0,-157 136,-157 136,-176"/>
<text text-anchor="middle" x="68" y="-164" font-family="Helvetica,sans-Serif" font-size="10.00">BaseOutputDocInterface</text>
</a>
</g>
</g>
<!-- Node3&#45;&gt;Node2 -->
<g id="edge2" class="edge">
<title>Node3&#45;&gt;Node2</title>
<path fill="none" stroke="#63b8ff" d="M70.91,-146.81C73.08,-137.24 76.78,-125.79 83,-117 90.42,-106.5 102.15,-97.92 111.78,-92.08"/>
<polygon fill="#63b8ff" stroke="#63b8ff" points="67.43,-146.42 69.01,-156.9 74.3,-147.72 67.43,-146.42"/>
</g>
<!-- Node4 -->
<g id="node4" class="node">
<title>Node4</title>
<g id="a_node4"><a xlink:href="../../d3/d30/class_text_stream.html" target="_top" xlink:title="Text streaming class that buffers data.">
<polygon fill="white" stroke="#666666" points="226,-176 154,-176 154,-157 226,-157 226,-176"/>
<text text-anchor="middle" x="190" y="-164" font-family="Helvetica,sans-Serif" font-size="10.00">TextStream</text>
</a>
</g>
</g>
<!-- Node4&#45;&gt;Node2 -->
<g id="edge3" class="edge">
<title>Node4&#45;&gt;Node2</title>
<path fill="none" stroke="#9a32cd" stroke-dasharray="5,2" d="M143.82,-156.03C127.04,-151.58 110.95,-145.75 106,-139 95.21,-124.29 109.66,-103.57 119.74,-92.06"/>
<polygon fill="#9a32cd" stroke="#9a32cd" points="143.16,-159.47 153.71,-158.49 144.85,-152.68 143.16,-159.47"/>
<text text-anchor="middle" x="117" y="-125.5" font-family="Helvetica,sans-Serif" font-size="10.00" fill="grey"> m_t</text>
</g>
<!-- Node6 -->
<g id="node6" class="node">
<title>Node6</title>
<g id="a_node6"><a xlink:href="../../da/db6/class_html_code_generator.html" target="_top" xlink:title="Generator for HTML code fragments.">
<polygon fill="white" stroke="#666666" points="457,-92 343,-92 343,-73 457,-73 457,-92"/>
<text text-anchor="middle" x="400" y="-80" font-family="Helvetica,sans-Serif" font-size="10.00">HtmlCodeGenerator</text>
</a>
</g>
</g>
<!-- Node4&#45;&gt;Node6 -->
<g id="edge8" class="edge">
<title>Node4&#45;&gt;Node6</title>
<path fill="none" stroke="#9a32cd" stroke-dasharray="5,2" d="M214.06,-151.98C233.37,-141.5 261.38,-127.11 287,-117 312.79,-106.82 342.94,-98.03 365.6,-92.01"/>
<polygon fill="#9a32cd" stroke="#9a32cd" points="212.15,-149.04 205.08,-156.92 215.52,-155.17 212.15,-149.04"/>
<text text-anchor="middle" x="298" y="-125.5" font-family="Helvetica,sans-Serif" font-size="10.00" fill="grey"> m_t</text>
</g>
<!-- Node5 -->
<g id="node5" class="node">
<title>Node5</title>
<g id="a_node5"><a xlink:href="../../d9/d45/class_q_c_string.html" target="_top" xlink:title="This is an alternative implementation of QCString.">
<polygon fill="white" stroke="#666666" points="303.5,-176 244.5,-176 244.5,-157 303.5,-157 303.5,-176"/>
<text text-anchor="middle" x="274" y="-164" font-family="Helvetica,sans-Serif" font-size="10.00">QCString</text>
</a>
</g>
</g>
<!-- Node5&#45;&gt;Node1 -->
<g id="edge5" class="edge">
<title>Node5&#45;&gt;Node1</title>
<path fill="none" stroke="#9a32cd" stroke-dasharray="5,2" d="M273.51,-146.36C272.63,-112.53 270.85,-43.47 270.22,-19.18"/>
<polygon fill="#9a32cd" stroke="#9a32cd" points="270.02,-146.82 273.77,-156.72 277.01,-146.64 270.02,-146.82"/>
<text text-anchor="middle" x="300.5" y="-91" font-family="Helvetica,sans-Serif" font-size="10.00" fill="grey"> m_lastFile</text>
<text text-anchor="middle" x="300.5" y="-80" font-family="Helvetica,sans-Serif" font-size="10.00" fill="grey">m_lastTitle</text>
<text text-anchor="middle" x="300.5" y="-69" font-family="Helvetica,sans-Serif" font-size="10.00" fill="grey">m_relPath</text>
</g>
<!-- Node5&#45;&gt;Node2 -->
<g id="edge4" class="edge">
<title>Node5&#45;&gt;Node2</title>
<path fill="none" stroke="#9a32cd" stroke-dasharray="5,2" d="M234.3,-157.13C195.04,-150.87 178.16,-161.62 151,-139 136.57,-126.98 131.06,-104.43 129.06,-92.09"/>
<polygon fill="#9a32cd" stroke="#9a32cd" points="233.72,-160.58 244.19,-158.99 235.01,-153.7 233.72,-160.58"/>
<text text-anchor="middle" x="181" y="-131" font-family="Helvetica,sans-Serif" font-size="10.00" fill="grey"> m_dir</text>
<text text-anchor="middle" x="181" y="-120" font-family="Helvetica,sans-Serif" font-size="10.00" fill="grey">m_fileName</text>
</g>
<!-- Node5&#45;&gt;Node6 -->
<g id="edge9" class="edge">
<title>Node5&#45;&gt;Node6</title>
<path fill="none" stroke="#9a32cd" stroke-dasharray="5,2" d="M294.28,-150.91C308.13,-141.09 326.98,-127.97 344,-117 357.71,-108.16 373.72,-98.67 385.1,-92.05"/>
<polygon fill="#9a32cd" stroke="#9a32cd" points="292.08,-148.18 285.97,-156.84 296.15,-153.88 292.08,-148.18"/>
<text text-anchor="middle" x="370" y="-125.5" font-family="Helvetica,sans-Serif" font-size="10.00" fill="grey"> m_relPath</text>
</g>
<!-- Node6&#45;&gt;Node1 -->
<g id="edge6" class="edge">
<title>Node6&#45;&gt;Node1</title>
<path fill="none" stroke="#9a32cd" stroke-dasharray="5,2" d="M375.34,-68.03C348.99,-53.64 308.02,-31.27 285.74,-19.09"/>
<polygon fill="#9a32cd" stroke="#9a32cd" points="373.86,-71.21 384.32,-72.94 377.22,-65.07 373.86,-71.21"/>
<text text-anchor="middle" x="365.5" y="-40" font-family="Helvetica,sans-Serif" font-size="10.00" fill="grey"> m_codeGen</text>
</g>
<!-- Node7 -->
<g id="node7" class="node">
<title>Node7</title>
<g id="a_node7"><a xlink:href="../../d5/d9c/class_code_output_interface.html" target="_top" xlink:title="Output interface for code parser.">
<polygon fill="white" stroke="#666666" points="459,-176 341,-176 341,-157 459,-157 459,-176"/>
<text text-anchor="middle" x="400" y="-164" font-family="Helvetica,sans-Serif" font-size="10.00">CodeOutputInterface</text>
</a>
</g>
</g>
<!-- Node7&#45;&gt;Node6 -->
<g id="edge7" class="edge">
<title>Node7&#45;&gt;Node6</title>
<path fill="none" stroke="#63b8ff" d="M400,-146.26C400,-129.18 400,-105 400,-92.21"/>
<polygon fill="#63b8ff" stroke="#63b8ff" points="396.5,-146.72 400,-156.72 403.5,-146.72 396.5,-146.72"/>
</g>
</g>
</svg>
