<?xml version="1.0" encoding="UTF-8" standalone="no"?>
<!DOCTYPE svg PUBLIC "-//W3C//DTD SVG 1.1//EN"
 "http://www.w3.org/Graphics/SVG/1.1/DTD/svg11.dtd">
<!-- Generated by graphviz version 2.43.0 (0)
 -->
<!-- Title: GroupDefImpl Pages: 1 -->
<!--zoomable 998 -->
<svg id="main" version="1.1" xmlns="http://www.w3.org/2000/svg" xmlns:xlink="http://www.w3.org/1999/xlink" xml:space="preserve" onload="init(evt)">
<style type="text/css"><![CDATA[
.edge:hover path { stroke: red; }
.edge:hover polygon { stroke: red; fill: red; }
]]></style>
<script type="text/javascript"><![CDATA[
var edges = document.getElementsByTagName('g');
if (edges && edges.length) {
  for (var i=0;i<edges.length;i++) {
    if (edges[i].id.substr(0,4)=='edge') {
      edges[i].setAttribute('class','edge');
    }
  }
}
]]></script>
        <defs>
                <circle id="rim" cx="0" cy="0" r="7"/>
                <circle id="rim2" cx="0" cy="0" r="3.5"/>
                <g id="zoomPlus">
                        <use xlink:href="#rim" fill="#404040">
                                <set attributeName="fill" to="#808080" begin="zoomplus.mouseover" end="zoomplus.mouseout"/>
                        </use>
                        <path d="M-4,0h8M0,-4v8" fill="none" stroke="white" stroke-width="1.5" pointer-events="none"/>
                </g>
                <g id="zoomMin">
                        <use xlink:href="#rim" fill="#404040">
                                <set attributeName="fill" to="#808080" begin="zoomminus.mouseover" end="zoomminus.mouseout"/>
                        </use>
                        <path d="M-4,0h8" fill="none" stroke="white" stroke-width="1.5" pointer-events="none"/>
                </g>
                <g id="dirArrow">
                        <path fill="none" stroke="white" stroke-width="1.5" d="M0,-3.0v7 M-2.5,-0.5L0,-3.0L2.5,-0.5"/>
                </g>
               <g id="resetDef">
                       <use xlink:href="#rim2" fill="#404040">
                               <set attributeName="fill" to="#808080" begin="reset.mouseover" end="reset.mouseout"/>
                       </use>
               </g>
        </defs>

<script type="text/javascript">
var viewWidth = 1960;
var viewHeight = 998;
var sectionId = 'dynsection-1';
</script>
<script xlink:href="../../svgpan.js"/>
<svg id="graph" class="graph">
<g id="viewport">
<title>GroupDefImpl</title>
<!-- Node1 -->
<g id="node1" class="node">
<title>Node1</title>
<g id="a_node1"><a xlink:title=" ">
<polygon fill="#999999" stroke="#666666" points="1952,-300.5 1867,-300.5 1867,-281.5 1952,-281.5 1952,-300.5"/>
<text text-anchor="middle" x="1909.5" y="-288.5" font-family="Helvetica,sans-Serif" font-size="10.00">GroupDefImpl</text>
</a>
</g>
</g>
<!-- Node2 -->
<g id="node2" class="node">
<title>Node2</title>
<g id="a_node2"><a xlink:href="../../dd/d10/class_definition_mixin.html" target="_top" xlink:title=" ">
<polygon fill="white" stroke="#666666" points="1659,-667.5 1499,-667.5 1499,-648.5 1659,-648.5 1659,-667.5"/>
<text text-anchor="middle" x="1579" y="-655.5" font-family="Helvetica,sans-Serif" font-size="10.00">DefinitionMixin&lt; GroupDef &gt;</text>
</a>
</g>
</g>
<!-- Node2&#45;&gt;Node1 -->
<g id="edge1" class="edge">
<title>Node2&#45;&gt;Node1</title>
<path fill="none" stroke="#63b8ff" d="M1624.72,-645.49C1684.81,-626.36 1790.78,-584.01 1849,-510 1901.37,-443.42 1907.74,-334.21 1908.44,-300.93"/>
<polygon fill="#63b8ff" stroke="#63b8ff" points="1623.63,-642.16 1615.12,-648.47 1625.71,-648.85 1623.63,-642.16"/>
</g>
<!-- Node3 -->
<g id="node3" class="node">
<title>Node3</title>
<g id="a_node3"><a xlink:href="../../d8/d09/class_group_def.html" target="_top" xlink:title="A model of a group of symbols.">
<polygon fill="white" stroke="#666666" points="257,-757.5 194,-757.5 194,-738.5 257,-738.5 257,-757.5"/>
<text text-anchor="middle" x="225.5" y="-745.5" font-family="Helvetica,sans-Serif" font-size="10.00">GroupDef</text>
</a>
</g>
</g>
<!-- Node3&#45;&gt;Node2 -->
<g id="edge2" class="edge">
<title>Node3&#45;&gt;Node2</title>
<path fill="none" stroke="#63b8ff" d="M230.41,-767.28C239.72,-808.15 267.14,-903.81 328,-954 374.91,-992.69 399.19,-990 460,-990 460,-990 460,-990 852,-990 938,-990 962.47,-993.36 1044,-966 1271.28,-889.73 1509.66,-711.12 1565.71,-667.66"/>
<polygon fill="#63b8ff" stroke="#63b8ff" points="233.83,-766.54 228.29,-757.5 226.99,-768.02 233.83,-766.54"/>
</g>
<!-- Node4 -->
<g id="node4" class="node">
<title>Node4</title>
<g id="a_node4"><a xlink:href="../../d0/d46/class_definition_mutable.html" target="_top" xlink:title=" ">
<polygon fill="white" stroke="#666666" points="104,-669.5 0,-669.5 0,-650.5 104,-650.5 104,-669.5"/>
<text text-anchor="middle" x="52" y="-657.5" font-family="Helvetica,sans-Serif" font-size="10.00">DefinitionMutable</text>
</a>
</g>
</g>
<!-- Node4&#45;&gt;Node3 -->
<g id="edge3" class="edge">
<title>Node4&#45;&gt;Node3</title>
<path fill="none" stroke="#63b8ff" d="M69.41,-677.31C85.91,-693.59 112.86,-717.31 141,-730 157.63,-737.5 177.55,-741.95 193.77,-744.54"/>
<polygon fill="#63b8ff" stroke="#63b8ff" points="71.71,-674.65 62.2,-669.99 66.73,-679.57 71.71,-674.65"/>
</g>
<!-- Node15 -->
<g id="node15" class="node">
<title>Node15</title>
<g id="a_node15"><a xlink:href="../../de/db0/class_file_def.html" target="_top" xlink:title="A model of a file symbol.">
<polygon fill="white" stroke="#666666" points="251,-641.5 200,-641.5 200,-622.5 251,-622.5 251,-641.5"/>
<text text-anchor="middle" x="225.5" y="-629.5" font-family="Helvetica,sans-Serif" font-size="10.00">FileDef</text>
</a>
</g>
</g>
<!-- Node4&#45;&gt;Node15 -->
<g id="edge17" class="edge">
<title>Node4&#45;&gt;Node15</title>
<path fill="none" stroke="#63b8ff" d="M114.67,-649.93C144.1,-645.13 177.64,-639.65 199.84,-636.03"/>
<polygon fill="#63b8ff" stroke="#63b8ff" points="113.76,-646.53 104.46,-651.6 114.89,-653.44 113.76,-646.53"/>
</g>
<!-- Node5 -->
<g id="node5" class="node">
<title>Node5</title>
<g id="a_node5"><a xlink:href="../../d5/dcc/class_definition.html" target="_top" xlink:title="The common base class of all entity definitions found in the sources.">
<polygon fill="white" stroke="#666666" points="84,-626.5 20,-626.5 20,-607.5 84,-607.5 84,-626.5"/>
<text text-anchor="middle" x="52" y="-614.5" font-family="Helvetica,sans-Serif" font-size="10.00">Definition</text>
</a>
</g>
</g>
<!-- Node5&#45;&gt;Node1 -->
<g id="edge49" class="edge">
<title>Node5&#45;&gt;Node1</title>
<path fill="none" stroke="#9a32cd" stroke-dasharray="5,2" d="M55.71,-597.16C68.53,-507.44 126.49,-144 224.5,-144 224.5,-144 224.5,-144 1580,-144 1700.35,-144 1750.07,-106.47 1849,-175 1886.58,-201.03 1901.9,-258.21 1906.69,-281.17"/>
<polygon fill="#9a32cd" stroke="#9a32cd" points="52.24,-596.73 54.32,-607.12 59.17,-597.7 52.24,-596.73"/>
<text text-anchor="middle" x="851" y="-147" font-family="Helvetica,sans-Serif" font-size="10.00" fill="grey"> m_groupScope</text>
</g>
<!-- Node5&#45;&gt;Node3 -->
<g id="edge4" class="edge">
<title>Node5&#45;&gt;Node3</title>
<path fill="none" stroke="#63b8ff" d="M90.42,-631.35C95.39,-634.34 100.11,-637.88 104,-642 133.12,-672.85 108.35,-702.91 141,-730 155.61,-742.12 176.48,-746.62 193.71,-748.09"/>
<polygon fill="#63b8ff" stroke="#63b8ff" points="91.78,-628.11 81.31,-626.51 88.5,-634.29 91.78,-628.11"/>
</g>
<!-- Node7 -->
<g id="node7" class="node">
<title>Node7</title>
<g id="a_node7"><a xlink:href="../../dd/d50/class_definition_impl_1_1_i_m_p_l.html" target="_top" xlink:title="Private data associated with a Symbol DefinitionImpl object.">
<polygon fill="white" stroke="#666666" points="795,-659.5 680,-659.5 680,-640.5 795,-640.5 795,-659.5"/>
<text text-anchor="middle" x="737.5" y="-647.5" font-family="Helvetica,sans-Serif" font-size="10.00">DefinitionImpl::IMPL</text>
</a>
</g>
</g>
<!-- Node5&#45;&gt;Node7 -->
<g id="edge7" class="edge">
<title>Node5&#45;&gt;Node7</title>
<path fill="none" stroke="#9a32cd" stroke-dasharray="5,2" d="M94.64,-613.74C157.22,-609.24 279.26,-602 383,-605 444.41,-606.78 459.79,-607.76 521,-613 583.84,-618.38 600.11,-616.85 662,-629 676.9,-631.93 693.16,-636.36 706.68,-640.4"/>
<polygon fill="#9a32cd" stroke="#9a32cd" points="94.11,-610.27 84.39,-614.49 94.62,-617.25 94.11,-610.27"/>
<text text-anchor="middle" x="355.5" y="-619" font-family="Helvetica,sans-Serif" font-size="10.00" fill="grey"> def</text>
<text text-anchor="middle" x="355.5" y="-608" font-family="Helvetica,sans-Serif" font-size="10.00" fill="grey">outerScope</text>
</g>
<!-- Node5&#45;&gt;Node15 -->
<g id="edge18" class="edge">
<title>Node5&#45;&gt;Node15</title>
<path fill="none" stroke="#63b8ff" d="M94.29,-620.61C127.21,-623.49 172.23,-627.43 199.79,-629.84"/>
<polygon fill="#63b8ff" stroke="#63b8ff" points="94.32,-617.1 84.06,-619.72 93.71,-624.07 94.32,-617.1"/>
</g>
<!-- Node6 -->
<g id="node6" class="node">
<title>Node6</title>
<g id="a_node6"><a xlink:href="../../d3/ddf/class_definition_impl.html" target="_top" xlink:title=" ">
<polygon fill="white" stroke="#666666" points="1018.5,-659.5 932.5,-659.5 932.5,-640.5 1018.5,-640.5 1018.5,-659.5"/>
<text text-anchor="middle" x="975.5" y="-647.5" font-family="Helvetica,sans-Serif" font-size="10.00">DefinitionImpl</text>
</a>
</g>
</g>
<!-- Node6&#45;&gt;Node2 -->
<g id="edge5" class="edge">
<title>Node6&#45;&gt;Node2</title>
<path fill="none" stroke="#9a32cd" stroke-dasharray="5,2" d="M1028.89,-648.99C1107.39,-647.68 1260.19,-645.89 1390,-649 1425.77,-649.86 1465.34,-651.63 1498.91,-653.37"/>
<polygon fill="#9a32cd" stroke="#9a32cd" points="1028.71,-645.49 1018.77,-649.16 1028.83,-652.49 1028.71,-645.49"/>
<text text-anchor="middle" x="1300" y="-652" font-family="Helvetica,sans-Serif" font-size="10.00" fill="grey"> m_impl</text>
</g>
<!-- Node17 -->
<g id="node17" class="node">
<title>Node17</title>
<g id="a_node17"><a xlink:href="../../dd/d10/class_definition_mixin.html" target="_top" xlink:title=" ">
<polygon fill="white" stroke="#666666" points="1368.5,-687.5 1231.5,-687.5 1231.5,-668.5 1368.5,-668.5 1368.5,-687.5"/>
<text text-anchor="middle" x="1300" y="-675.5" font-family="Helvetica,sans-Serif" font-size="10.00">DefinitionMixin&lt; Base &gt;</text>
</a>
</g>
</g>
<!-- Node6&#45;&gt;Node17 -->
<g id="edge23" class="edge">
<title>Node6&#45;&gt;Node17</title>
<path fill="none" stroke="#9a32cd" stroke-dasharray="5,2" d="M1028.9,-654.55C1084.01,-659.33 1170.94,-666.88 1231.23,-672.12"/>
<polygon fill="#9a32cd" stroke="#9a32cd" points="1028.93,-651.04 1018.66,-653.66 1028.32,-658.01 1028.93,-651.04"/>
<text text-anchor="middle" x="1127" y="-671" font-family="Helvetica,sans-Serif" font-size="10.00" fill="grey"> m_impl</text>
</g>
<!-- Node7&#45;&gt;Node6 -->
<g id="edge6" class="edge">
<title>Node7&#45;&gt;Node6</title>
<path fill="none" stroke="#9a32cd" stroke-dasharray="5,2" d="M805.19,-650C846.07,-650 897.17,-650 932.48,-650"/>
<polygon fill="#9a32cd" stroke="#9a32cd" points="805.03,-646.5 795.03,-650 805.03,-653.5 805.03,-646.5"/>
<text text-anchor="middle" x="851" y="-653" font-family="Helvetica,sans-Serif" font-size="10.00" fill="grey"> m_impl</text>
</g>
<!-- Node8 -->
<g id="node8" class="node">
<title>Node8</title>
<g id="a_node8"><a xlink:href="../../d1/df9/class_section_refs.html" target="_top" xlink:title="class that represents a list of constant references to sections.">
<polygon fill="white" stroke="#666666" points="498,-911.5 424,-911.5 424,-892.5 498,-892.5 498,-911.5"/>
<text text-anchor="middle" x="461" y="-899.5" font-family="Helvetica,sans-Serif" font-size="10.00">SectionRefs</text>
</a>
</g>
</g>
<!-- Node8&#45;&gt;Node7 -->
<g id="edge8" class="edge">
<title>Node8&#45;&gt;Node7</title>
<path fill="none" stroke="#9a32cd" stroke-dasharray="5,2" d="M499.76,-888.49C506.98,-885.39 514.36,-881.86 521,-878 589.95,-837.91 608.49,-826.14 662,-767 694.15,-731.47 721.33,-680.48 731.85,-659.53"/>
<polygon fill="#9a32cd" stroke="#9a32cd" points="498.02,-885.42 490.08,-892.43 500.66,-891.9 498.02,-885.42"/>
<text text-anchor="middle" x="600.5" y="-869" font-family="Helvetica,sans-Serif" font-size="10.00" fill="grey"> sectionRefs</text>
</g>
<!-- Node9 -->
<g id="node9" class="node">
<title>Node9</title>
<g id="a_node9"><a xlink:href="../../d3/d3b/class_group_list.html" target="_top" xlink:title=" ">
<polygon fill="white" stroke="#666666" points="492.5,-549.5 429.5,-549.5 429.5,-530.5 492.5,-530.5 492.5,-549.5"/>
<text text-anchor="middle" x="461" y="-537.5" font-family="Helvetica,sans-Serif" font-size="10.00">GroupList</text>
</a>
</g>
</g>
<!-- Node9&#45;&gt;Node1 -->
<g id="edge36" class="edge">
<title>Node9&#45;&gt;Node1</title>
<path fill="none" stroke="#9a32cd" stroke-dasharray="5,2" d="M494.16,-526.36C511.07,-519.4 530.11,-512 539,-510 624.86,-490.7 648.5,-496 736.5,-496 736.5,-496 736.5,-496 1580,-496 1700.87,-496 1755.48,-532.58 1849,-456 1898.71,-415.29 1906.9,-329.6 1908.24,-300.73"/>
<polygon fill="#9a32cd" stroke="#9a32cd" points="492.42,-523.29 484.53,-530.35 495.11,-529.75 492.42,-523.29"/>
<text text-anchor="middle" x="1127" y="-499" font-family="Helvetica,sans-Serif" font-size="10.00" fill="grey"> m_groups</text>
</g>
<!-- Node9&#45;&gt;Node7 -->
<g id="edge9" class="edge">
<title>Node9&#45;&gt;Node7</title>
<path fill="none" stroke="#9a32cd" stroke-dasharray="5,2" d="M502.74,-546.48C559.15,-555.55 654.98,-571.33 662,-575 692.59,-590.96 718.43,-623.93 730,-640.31"/>
<polygon fill="#9a32cd" stroke="#9a32cd" points="503.12,-543 492.69,-544.87 502.01,-549.91 503.12,-543"/>
<text text-anchor="middle" x="600.5" y="-578" font-family="Helvetica,sans-Serif" font-size="10.00" fill="grey"> partOfGroups</text>
</g>
<!-- Node10 -->
<g id="node10" class="node">
<title>Node10</title>
<g id="a_node10"><a xlink:title=" ">
<polygon fill="white" stroke="#666666" points="298.5,-549.5 152.5,-549.5 152.5,-530.5 298.5,-530.5 298.5,-549.5"/>
<text text-anchor="middle" x="225.5" y="-537.5" font-family="Helvetica,sans-Serif" font-size="10.00">std::vector&lt; GroupDef * &gt;</text>
</a>
</g>
</g>
<!-- Node10&#45;&gt;Node9 -->
<g id="edge10" class="edge">
<title>Node10&#45;&gt;Node9</title>
<path fill="none" stroke="#63b8ff" d="M308.95,-540C350.63,-540 398.71,-540 429.22,-540"/>
<polygon fill="#63b8ff" stroke="#63b8ff" points="308.78,-536.5 298.78,-540 308.78,-543.5 308.78,-536.5"/>
</g>
<!-- Node11 -->
<g id="node11" class="node">
<title>Node11</title>
<g id="a_node11"><a xlink:href="../../d7/dd5/struct_doc_info.html" target="_top" xlink:title="Data associated with a detailed description.">
<polygon fill="white" stroke="#666666" points="488,-677.5 434,-677.5 434,-658.5 488,-658.5 488,-677.5"/>
<text text-anchor="middle" x="461" y="-665.5" font-family="Helvetica,sans-Serif" font-size="10.00">DocInfo</text>
</a>
</g>
</g>
<!-- Node11&#45;&gt;Node7 -->
<g id="edge11" class="edge">
<title>Node11&#45;&gt;Node7</title>
<path fill="none" stroke="#9a32cd" stroke-dasharray="5,2" d="M498.51,-665.61C544.91,-662.56 625.5,-657.28 679.9,-653.71"/>
<polygon fill="#9a32cd" stroke="#9a32cd" points="498.07,-662.13 488.32,-666.27 498.53,-669.11 498.07,-662.13"/>
<text text-anchor="middle" x="600.5" y="-676" font-family="Helvetica,sans-Serif" font-size="10.00" fill="grey"> details</text>
<text text-anchor="middle" x="600.5" y="-665" font-family="Helvetica,sans-Serif" font-size="10.00" fill="grey">inbodyDocs</text>
</g>
<!-- Node12 -->
<g id="node12" class="node">
<title>Node12</title>
<g id="a_node12"><a xlink:href="../../d9/d45/class_q_c_string.html" target="_top" xlink:title="This is an alternative implementation of QCString.">
<polygon fill="white" stroke="#666666" points="255,-720.5 196,-720.5 196,-701.5 255,-701.5 255,-720.5"/>
<text text-anchor="middle" x="225.5" y="-708.5" font-family="Helvetica,sans-Serif" font-size="10.00">QCString</text>
</a>
</g>
</g>
<!-- Node12&#45;&gt;Node1 -->
<g id="edge24" class="edge">
<title>Node12&#45;&gt;Node1</title>
<path fill="none" stroke="#9a32cd" stroke-dasharray="5,2" d="M265.36,-712.64C280.62,-715.01 297.46,-719.96 310,-730 319.18,-737.34 392.15,-913.26 401,-921 421.73,-939.14 432.45,-940 460,-940 460,-940 460,-940 1580,-940 1879.93,-940 1906.09,-381.41 1908.3,-300.68"/>
<polygon fill="#9a32cd" stroke="#9a32cd" points="265.47,-709.13 255.11,-711.39 264.61,-716.08 265.47,-709.13"/>
<text text-anchor="middle" x="975.5" y="-954" font-family="Helvetica,sans-Serif" font-size="10.00" fill="grey"> m_fileName</text>
<text text-anchor="middle" x="975.5" y="-943" font-family="Helvetica,sans-Serif" font-size="10.00" fill="grey">m_title</text>
</g>
<!-- Node12&#45;&gt;Node7 -->
<g id="edge19" class="edge">
<title>Node12&#45;&gt;Node7</title>
<path fill="none" stroke="#9a32cd" stroke-dasharray="5,2" d="M265.28,-715.91C279.82,-718.74 296.17,-723.16 310,-730 319.33,-734.62 318.21,-741.45 328,-745 365.38,-758.53 546.98,-772.86 662,-721 692.46,-707.27 718.17,-675.71 729.82,-659.7"/>
<polygon fill="#9a32cd" stroke="#9a32cd" points="265.52,-712.4 255.07,-714.11 264.31,-719.29 265.52,-712.4"/>
<text text-anchor="middle" x="461" y="-870" font-family="Helvetica,sans-Serif" font-size="10.00" fill="grey"> briefSignatures</text>
<text text-anchor="middle" x="461" y="-859" font-family="Helvetica,sans-Serif" font-size="10.00" fill="grey">defFileExt</text>
<text text-anchor="middle" x="461" y="-848" font-family="Helvetica,sans-Serif" font-size="10.00" fill="grey">defFileName</text>
<text text-anchor="middle" x="461" y="-837" font-family="Helvetica,sans-Serif" font-size="10.00" fill="grey">docSignatures</text>
<text text-anchor="middle" x="461" y="-826" font-family="Helvetica,sans-Serif" font-size="10.00" fill="grey">id</text>
<text text-anchor="middle" x="461" y="-815" font-family="Helvetica,sans-Serif" font-size="10.00" fill="grey">localName</text>
<text text-anchor="middle" x="461" y="-804" font-family="Helvetica,sans-Serif" font-size="10.00" fill="grey">name</text>
<text text-anchor="middle" x="461" y="-793" font-family="Helvetica,sans-Serif" font-size="10.00" fill="grey">qualifiedName</text>
<text text-anchor="middle" x="461" y="-782" font-family="Helvetica,sans-Serif" font-size="10.00" fill="grey">ref</text>
<text text-anchor="middle" x="461" y="-771" font-family="Helvetica,sans-Serif" font-size="10.00" fill="grey">symbolName</text>
<text text-anchor="middle" x="461" y="-760" font-family="Helvetica,sans-Serif" font-size="10.00" fill="grey">...</text>
</g>
<!-- Node12&#45;&gt;Node11 -->
<g id="edge12" class="edge">
<title>Node12&#45;&gt;Node11</title>
<path fill="none" stroke="#9a32cd" stroke-dasharray="5,2" d="M264.76,-698.38C283.62,-692.59 306.8,-686.12 328,-682 364.19,-674.96 406.71,-671.25 433.5,-669.46"/>
<polygon fill="#9a32cd" stroke="#9a32cd" points="263.55,-695.09 255.05,-701.41 265.64,-701.77 263.55,-695.09"/>
<text text-anchor="middle" x="355.5" y="-696" font-family="Helvetica,sans-Serif" font-size="10.00" fill="grey"> doc</text>
<text text-anchor="middle" x="355.5" y="-685" font-family="Helvetica,sans-Serif" font-size="10.00" fill="grey">file</text>
</g>
<!-- Node13 -->
<g id="node13" class="node">
<title>Node13</title>
<g id="a_node13"><a xlink:href="../../d0/da7/struct_brief_info.html" target="_top" xlink:title="Data associated with a brief description.">
<polygon fill="white" stroke="#666666" points="490.5,-716.5 431.5,-716.5 431.5,-697.5 490.5,-697.5 490.5,-716.5"/>
<text text-anchor="middle" x="461" y="-704.5" font-family="Helvetica,sans-Serif" font-size="10.00">BriefInfo</text>
</a>
</g>
</g>
<!-- Node12&#45;&gt;Node13 -->
<g id="edge14" class="edge">
<title>Node12&#45;&gt;Node13</title>
<path fill="none" stroke="#9a32cd" stroke-dasharray="5,2" d="M265.2,-710.34C312.04,-709.53 389.8,-708.2 431.5,-707.49"/>
<polygon fill="#9a32cd" stroke="#9a32cd" points="265.07,-706.84 255.13,-710.51 265.19,-713.84 265.07,-706.84"/>
<text text-anchor="middle" x="355.5" y="-734" font-family="Helvetica,sans-Serif" font-size="10.00" fill="grey"> doc</text>
<text text-anchor="middle" x="355.5" y="-723" font-family="Helvetica,sans-Serif" font-size="10.00" fill="grey">file</text>
<text text-anchor="middle" x="355.5" y="-712" font-family="Helvetica,sans-Serif" font-size="10.00" fill="grey">tooltip</text>
</g>
<!-- Node13&#45;&gt;Node7 -->
<g id="edge13" class="edge">
<title>Node13&#45;&gt;Node7</title>
<path fill="none" stroke="#9a32cd" stroke-dasharray="5,2" d="M500.87,-707.58C541.77,-707.22 607.62,-703.82 662,-688 684.03,-681.59 707.24,-668.62 721.79,-659.62"/>
<polygon fill="#9a32cd" stroke="#9a32cd" points="500.77,-704.08 490.78,-707.62 500.79,-711.08 500.77,-704.08"/>
<text text-anchor="middle" x="600.5" y="-709" font-family="Helvetica,sans-Serif" font-size="10.00" fill="grey"> brief</text>
</g>
<!-- Node14 -->
<g id="node14" class="node">
<title>Node14</title>
<g id="a_node14"><a xlink:href="../../db/dab/struct_body_info.html" target="_top" xlink:title="Data associated with description found in the body.">
<polygon fill="white" stroke="#666666" points="491,-640.5 431,-640.5 431,-621.5 491,-621.5 491,-640.5"/>
<text text-anchor="middle" x="461" y="-628.5" font-family="Helvetica,sans-Serif" font-size="10.00">BodyInfo</text>
</a>
</g>
</g>
<!-- Node14&#45;&gt;Node7 -->
<g id="edge15" class="edge">
<title>Node14&#45;&gt;Node7</title>
<path fill="none" stroke="#9a32cd" stroke-dasharray="5,2" d="M501.43,-631.75C541.81,-632.75 606.39,-635.03 662,-640 667.72,-640.51 673.67,-641.14 679.61,-641.84"/>
<polygon fill="#9a32cd" stroke="#9a32cd" points="501.28,-628.24 491.2,-631.51 501.12,-635.24 501.28,-628.24"/>
<text text-anchor="middle" x="600.5" y="-643" font-family="Helvetica,sans-Serif" font-size="10.00" fill="grey"> body</text>
</g>
<!-- Node15&#45;&gt;Node14 -->
<g id="edge16" class="edge">
<title>Node15&#45;&gt;Node14</title>
<path fill="none" stroke="#9a32cd" stroke-dasharray="5,2" d="M261.13,-631.85C307.13,-631.65 387.56,-631.31 430.69,-631.13"/>
<polygon fill="#9a32cd" stroke="#9a32cd" points="261.03,-628.35 251.05,-631.89 261.06,-635.35 261.03,-628.35"/>
<text text-anchor="middle" x="355.5" y="-634" font-family="Helvetica,sans-Serif" font-size="10.00" fill="grey"> fileDef</text>
</g>
<!-- Node16 -->
<g id="node16" class="node">
<title>Node16</title>
<g id="a_node16"><a xlink:href="../../d1/d7d/class_member_vector.html" target="_top" xlink:title="A vector of MemberDef object.">
<polygon fill="white" stroke="#666666" points="505,-505.5 417,-505.5 417,-486.5 505,-486.5 505,-505.5"/>
<text text-anchor="middle" x="461" y="-493.5" font-family="Helvetica,sans-Serif" font-size="10.00">MemberVector</text>
</a>
</g>
</g>
<!-- Node16&#45;&gt;Node7 -->
<g id="edge20" class="edge">
<title>Node16&#45;&gt;Node7</title>
<path fill="none" stroke="#9a32cd" stroke-dasharray="5,2" d="M515.18,-492.1C558.23,-491.56 618.63,-497 662,-526 704.59,-554.48 726.61,-616.31 733.8,-640.25"/>
<polygon fill="#9a32cd" stroke="#9a32cd" points="515.09,-488.6 505.17,-492.33 515.25,-495.6 515.09,-488.6"/>
<text text-anchor="middle" x="600.5" y="-540" font-family="Helvetica,sans-Serif" font-size="10.00" fill="grey"> referencedByMembers</text>
<text text-anchor="middle" x="600.5" y="-529" font-family="Helvetica,sans-Serif" font-size="10.00" fill="grey">referencesMembers</text>
</g>
<!-- Node32 -->
<g id="node32" class="node">
<title>Node32</title>
<g id="a_node32"><a xlink:href="../../dd/d13/class_member_list.html" target="_top" xlink:title="A list of MemberDef objects as shown in documentation sections.">
<polygon fill="white" stroke="#666666" points="774.5,-466.5 700.5,-466.5 700.5,-447.5 774.5,-447.5 774.5,-466.5"/>
<text text-anchor="middle" x="737.5" y="-454.5" font-family="Helvetica,sans-Serif" font-size="10.00">MemberList</text>
</a>
</g>
</g>
<!-- Node16&#45;&gt;Node32 -->
<g id="edge43" class="edge">
<title>Node16&#45;&gt;Node32</title>
<path fill="none" stroke="#63b8ff" d="M515.16,-488.4C523.15,-487.26 531.29,-486.1 539,-485 595.4,-476.97 660.87,-467.7 700.46,-462.1"/>
<polygon fill="#63b8ff" stroke="#63b8ff" points="514.57,-484.95 505.17,-489.83 515.56,-491.88 514.57,-484.95"/>
</g>
<!-- Node17&#45;&gt;Node2 -->
<g id="edge21" class="edge">
<title>Node17&#45;&gt;Node2</title>
<path fill="none" stroke="orange" stroke-dasharray="5,2" d="M1379.12,-672.36C1416.56,-669.66 1461.33,-666.42 1498.91,-663.71"/>
<polygon fill="orange" stroke="orange" points="1378.48,-668.9 1368.76,-673.11 1378.99,-675.88 1378.48,-668.9"/>
<text text-anchor="middle" x="1444.5" y="-672" font-family="Helvetica,sans-Serif" font-size="10.00" fill="grey"> &lt; GroupDef &gt;</text>
</g>
<!-- Node18 -->
<g id="node18" class="node">
<title>Node18</title>
<g id="a_node18"><a xlink:title=" ">
<polygon fill="white" stroke="#666666" points="996,-707.5 955,-707.5 955,-688.5 996,-688.5 996,-707.5"/>
<text text-anchor="middle" x="975.5" y="-695.5" font-family="Helvetica,sans-Serif" font-size="10.00">Base</text>
</a>
</g>
</g>
<!-- Node18&#45;&gt;Node17 -->
<g id="edge22" class="edge">
<title>Node18&#45;&gt;Node17</title>
<path fill="none" stroke="#63b8ff" d="M1006.17,-696.16C1056.95,-693.01 1161.75,-686.51 1231.21,-682.2"/>
<polygon fill="#63b8ff" stroke="#63b8ff" points="1005.95,-692.67 996.19,-696.78 1006.39,-699.65 1005.95,-692.67"/>
</g>
<!-- Node19 -->
<g id="node19" class="node">
<title>Node19</title>
<g id="a_node19"><a xlink:href="../../d0/d18/class_file_list.html" target="_top" xlink:title=" ">
<polygon fill="white" stroke="#666666" points="1604.5,-406.5 1553.5,-406.5 1553.5,-387.5 1604.5,-387.5 1604.5,-406.5"/>
<text text-anchor="middle" x="1579" y="-394.5" font-family="Helvetica,sans-Serif" font-size="10.00">FileList</text>
</a>
</g>
</g>
<!-- Node19&#45;&gt;Node1 -->
<g id="edge25" class="edge">
<title>Node19&#45;&gt;Node1</title>
<path fill="none" stroke="#9a32cd" stroke-dasharray="5,2" d="M1614.64,-401.92C1668.53,-407.81 1774.03,-412.19 1849,-370 1877.58,-353.91 1896.63,-317.86 1904.47,-300.58"/>
<polygon fill="#9a32cd" stroke="#9a32cd" points="1614.91,-398.42 1604.57,-400.73 1614.09,-405.38 1614.91,-398.42"/>
<text text-anchor="middle" x="1763" y="-408" font-family="Helvetica,sans-Serif" font-size="10.00" fill="grey"> m_fileList</text>
</g>
<!-- Node20 -->
<g id="node20" class="node">
<title>Node20</title>
<g id="a_node20"><a xlink:title=" ">
<polygon fill="white" stroke="#666666" points="1353,-421 1247,-421 1247,-391 1353,-391 1353,-421"/>
<text text-anchor="start" x="1255" y="-409" font-family="Helvetica,sans-Serif" font-size="10.00">std::vector&lt; const</text>
<text text-anchor="middle" x="1300" y="-398" font-family="Helvetica,sans-Serif" font-size="10.00"> FileDef * &gt;</text>
</a>
</g>
</g>
<!-- Node20&#45;&gt;Node19 -->
<g id="edge26" class="edge">
<title>Node20&#45;&gt;Node19</title>
<path fill="none" stroke="#63b8ff" d="M1363.23,-403.98C1423.29,-402.03 1511.14,-399.17 1553.44,-397.8"/>
<polygon fill="#63b8ff" stroke="#63b8ff" points="1362.98,-400.48 1353.1,-404.31 1363.21,-407.48 1362.98,-400.48"/>
</g>
<!-- Node21 -->
<g id="node21" class="node">
<title>Node21</title>
<g id="a_node21"><a xlink:href="../../da/d08/class_class_linked_ref_map.html" target="_top" xlink:title=" ">
<polygon fill="white" stroke="#666666" points="1635,-278.5 1523,-278.5 1523,-259.5 1635,-259.5 1635,-278.5"/>
<text text-anchor="middle" x="1579" y="-266.5" font-family="Helvetica,sans-Serif" font-size="10.00">ClassLinkedRefMap</text>
</a>
</g>
</g>
<!-- Node21&#45;&gt;Node1 -->
<g id="edge27" class="edge">
<title>Node21&#45;&gt;Node1</title>
<path fill="none" stroke="#9a32cd" stroke-dasharray="5,2" d="M1645.31,-268.48C1699.92,-268.75 1779.79,-270.79 1849,-279 1854.76,-279.68 1860.78,-280.63 1866.7,-281.69"/>
<polygon fill="#9a32cd" stroke="#9a32cd" points="1645.08,-264.98 1635.07,-268.45 1645.06,-271.98 1645.08,-264.98"/>
<text text-anchor="middle" x="1763" y="-282" font-family="Helvetica,sans-Serif" font-size="10.00" fill="grey"> m_classes</text>
</g>
<!-- Node22 -->
<g id="node22" class="node">
<title>Node22</title>
<g id="a_node22"><a xlink:href="../../d2/db7/class_linked_ref_map.html" target="_top" xlink:title=" ">
<polygon fill="white" stroke="#666666" points="1376,-276.5 1224,-276.5 1224,-257.5 1376,-257.5 1376,-276.5"/>
<text text-anchor="middle" x="1300" y="-264.5" font-family="Helvetica,sans-Serif" font-size="10.00">LinkedRefMap&lt; ClassDef &gt;</text>
</a>
</g>
</g>
<!-- Node22&#45;&gt;Node21 -->
<g id="edge28" class="edge">
<title>Node22&#45;&gt;Node21</title>
<path fill="none" stroke="#63b8ff" d="M1386.54,-267.62C1430.96,-267.94 1483.95,-268.32 1522.9,-268.6"/>
<polygon fill="#63b8ff" stroke="#63b8ff" points="1386.35,-264.12 1376.33,-267.54 1386.3,-271.12 1386.35,-264.12"/>
</g>
<!-- Node23 -->
<g id="node23" class="node">
<title>Node23</title>
<g id="a_node23"><a xlink:href="../../d2/db7/class_linked_ref_map.html" target="_top" xlink:title="Container class representing a vector of objects with keys.">
<polygon fill="white" stroke="#666666" points="1044,-302 907,-302 907,-272 1044,-272 1044,-302"/>
<text text-anchor="start" x="915" y="-290" font-family="Helvetica,sans-Serif" font-size="10.00">LinkedRefMap&lt; T, Hash,</text>
<text text-anchor="middle" x="975.5" y="-279" font-family="Helvetica,sans-Serif" font-size="10.00"> KeyEqual, Map &gt;</text>
</a>
</g>
</g>
<!-- Node23&#45;&gt;Node22 -->
<g id="edge29" class="edge">
<title>Node23&#45;&gt;Node22</title>
<path fill="none" stroke="orange" stroke-dasharray="5,2" d="M1054.23,-273.81C1056.85,-273.51 1059.44,-273.24 1062,-273 1115.99,-267.92 1177.18,-266.48 1223.86,-266.28"/>
<polygon fill="orange" stroke="orange" points="1053.56,-270.36 1044.06,-275.06 1054.42,-277.31 1053.56,-270.36"/>
<text text-anchor="middle" x="1127" y="-276" font-family="Helvetica,sans-Serif" font-size="10.00" fill="grey"> &lt; ClassDef &gt;</text>
</g>
<!-- Node25 -->
<g id="node25" class="node">
<title>Node25</title>
<g id="a_node25"><a xlink:href="../../d2/db7/class_linked_ref_map.html" target="_top" xlink:title=" ">
<polygon fill="white" stroke="#666666" points="1382.5,-239.5 1217.5,-239.5 1217.5,-220.5 1382.5,-220.5 1382.5,-239.5"/>
<text text-anchor="middle" x="1300" y="-227.5" font-family="Helvetica,sans-Serif" font-size="10.00">LinkedRefMap&lt; ConceptDef &gt;</text>
</a>
</g>
</g>
<!-- Node23&#45;&gt;Node25 -->
<g id="edge32" class="edge">
<title>Node23&#45;&gt;Node25</title>
<path fill="none" stroke="orange" stroke-dasharray="5,2" d="M1014.91,-267.84C1029.34,-261.44 1046.1,-254.95 1062,-251 1112.71,-238.4 1171.18,-233.13 1217.35,-231.02"/>
<polygon fill="orange" stroke="orange" points="1013.44,-264.66 1005.79,-272 1016.34,-271.03 1013.44,-264.66"/>
<text text-anchor="middle" x="1127" y="-254" font-family="Helvetica,sans-Serif" font-size="10.00" fill="grey"> &lt; ConceptDef &gt;</text>
</g>
<!-- Node27 -->
<g id="node27" class="node">
<title>Node27</title>
<g id="a_node27"><a xlink:href="../../d2/db7/class_linked_ref_map.html" target="_top" xlink:title=" ">
<polygon fill="white" stroke="#666666" points="1361.5,-373 1238.5,-373 1238.5,-343 1361.5,-343 1361.5,-373"/>
<text text-anchor="start" x="1246.5" y="-361" font-family="Helvetica,sans-Serif" font-size="10.00">LinkedRefMap&lt; const</text>
<text text-anchor="middle" x="1300" y="-350" font-family="Helvetica,sans-Serif" font-size="10.00"> NamespaceDef &gt;</text>
</a>
</g>
</g>
<!-- Node23&#45;&gt;Node27 -->
<g id="edge35" class="edge">
<title>Node23&#45;&gt;Node27</title>
<path fill="none" stroke="orange" stroke-dasharray="5,2" d="M1026.5,-305.37C1038.06,-309.22 1050.38,-313.02 1062,-316 1121.09,-331.16 1189.87,-342.69 1238.06,-349.8"/>
<polygon fill="orange" stroke="orange" points="1027.6,-302.05 1017,-302.14 1025.34,-308.68 1027.6,-302.05"/>
<text text-anchor="middle" x="1127" y="-345" font-family="Helvetica,sans-Serif" font-size="10.00" fill="grey"> &lt; const NamespaceDef &gt;</text>
</g>
<!-- Node29 -->
<g id="node29" class="node">
<title>Node29</title>
<g id="a_node29"><a xlink:href="../../d2/db7/class_linked_ref_map.html" target="_top" xlink:title=" ">
<polygon fill="white" stroke="#666666" points="1361.5,-325 1238.5,-325 1238.5,-295 1361.5,-295 1361.5,-325"/>
<text text-anchor="start" x="1246.5" y="-313" font-family="Helvetica,sans-Serif" font-size="10.00">LinkedRefMap&lt; const</text>
<text text-anchor="middle" x="1300" y="-302" font-family="Helvetica,sans-Serif" font-size="10.00"> PageDef &gt;</text>
</a>
</g>
</g>
<!-- Node23&#45;&gt;Node29 -->
<g id="edge39" class="edge">
<title>Node23&#45;&gt;Node29</title>
<path fill="none" stroke="orange" stroke-dasharray="5,2" d="M1054.43,-292.56C1110.92,-296.59 1186.23,-301.96 1238.28,-305.67"/>
<polygon fill="orange" stroke="orange" points="1054.33,-289.04 1044.11,-291.82 1053.83,-296.02 1054.33,-289.04"/>
<text text-anchor="middle" x="1127" y="-304" font-family="Helvetica,sans-Serif" font-size="10.00" fill="grey"> &lt; const PageDef &gt;</text>
</g>
<!-- Node24 -->
<g id="node24" class="node">
<title>Node24</title>
<g id="a_node24"><a xlink:href="../../d4/daa/class_concept_linked_ref_map.html" target="_top" xlink:title=" ">
<polygon fill="white" stroke="#666666" points="1641.5,-240.5 1516.5,-240.5 1516.5,-221.5 1641.5,-221.5 1641.5,-240.5"/>
<text text-anchor="middle" x="1579" y="-228.5" font-family="Helvetica,sans-Serif" font-size="10.00">ConceptLinkedRefMap</text>
</a>
</g>
</g>
<!-- Node24&#45;&gt;Node1 -->
<g id="edge30" class="edge">
<title>Node24&#45;&gt;Node1</title>
<path fill="none" stroke="#9a32cd" stroke-dasharray="5,2" d="M1651.57,-227.59C1706.89,-227.13 1784.62,-231.31 1849,-253 1867.35,-259.18 1885.72,-272.21 1897.09,-281.28"/>
<polygon fill="#9a32cd" stroke="#9a32cd" points="1651.47,-224.09 1641.52,-227.72 1651.56,-231.09 1651.47,-224.09"/>
<text text-anchor="middle" x="1763" y="-256" font-family="Helvetica,sans-Serif" font-size="10.00" fill="grey"> m_concepts</text>
</g>
<!-- Node25&#45;&gt;Node24 -->
<g id="edge31" class="edge">
<title>Node25&#45;&gt;Node24</title>
<path fill="none" stroke="#63b8ff" d="M1392.79,-230.33C1433.36,-230.48 1479.99,-230.65 1516.31,-230.78"/>
<polygon fill="#63b8ff" stroke="#63b8ff" points="1392.62,-226.83 1382.61,-230.29 1392.6,-233.83 1392.62,-226.83"/>
</g>
<!-- Node26 -->
<g id="node26" class="node">
<title>Node26</title>
<g id="a_node26"><a xlink:href="../../da/df0/class_namespace_linked_ref_map.html" target="_top" xlink:title=" ">
<polygon fill="white" stroke="#666666" points="1650.5,-363.5 1507.5,-363.5 1507.5,-344.5 1650.5,-344.5 1650.5,-363.5"/>
<text text-anchor="middle" x="1579" y="-351.5" font-family="Helvetica,sans-Serif" font-size="10.00">NamespaceLinkedRefMap</text>
</a>
</g>
</g>
<!-- Node26&#45;&gt;Node1 -->
<g id="edge33" class="edge">
<title>Node26&#45;&gt;Node1</title>
<path fill="none" stroke="#9a32cd" stroke-dasharray="5,2" d="M1660.96,-355.73C1715.43,-354.6 1788.15,-348.6 1849,-328 1866.97,-321.92 1885.14,-309.51 1896.58,-300.74"/>
<polygon fill="#9a32cd" stroke="#9a32cd" points="1660.6,-352.23 1650.66,-355.88 1660.71,-359.23 1660.6,-352.23"/>
<text text-anchor="middle" x="1763" y="-358" font-family="Helvetica,sans-Serif" font-size="10.00" fill="grey"> m_namespaces</text>
</g>
<!-- Node27&#45;&gt;Node26 -->
<g id="edge34" class="edge">
<title>Node27&#45;&gt;Node26</title>
<path fill="none" stroke="#63b8ff" d="M1371.84,-356.98C1413.42,-356.38 1465.77,-355.62 1507.32,-355.02"/>
<polygon fill="#63b8ff" stroke="#63b8ff" points="1371.74,-353.48 1361.79,-357.12 1371.84,-360.48 1371.74,-353.48"/>
</g>
<!-- Node28 -->
<g id="node28" class="node">
<title>Node28</title>
<g id="a_node28"><a xlink:href="../../d9/de6/class_page_linked_ref_map.html" target="_top" xlink:title=" ">
<polygon fill="white" stroke="#666666" points="1633.5,-316.5 1524.5,-316.5 1524.5,-297.5 1633.5,-297.5 1633.5,-316.5"/>
<text text-anchor="middle" x="1579" y="-304.5" font-family="Helvetica,sans-Serif" font-size="10.00">PageLinkedRefMap</text>
</a>
</g>
</g>
<!-- Node28&#45;&gt;Node1 -->
<g id="edge37" class="edge">
<title>Node28&#45;&gt;Node1</title>
<path fill="none" stroke="#9a32cd" stroke-dasharray="5,2" d="M1643.78,-303.89C1709.71,-300.68 1810.72,-295.76 1866.99,-293.02"/>
<polygon fill="#9a32cd" stroke="#9a32cd" points="1643.33,-300.41 1633.51,-304.39 1643.67,-307.4 1643.33,-300.41"/>
<text text-anchor="middle" x="1763" y="-316" font-family="Helvetica,sans-Serif" font-size="10.00" fill="grey"> m_examples</text>
<text text-anchor="middle" x="1763" y="-305" font-family="Helvetica,sans-Serif" font-size="10.00" fill="grey">m_pages</text>
</g>
<!-- Node29&#45;&gt;Node28 -->
<g id="edge38" class="edge">
<title>Node29&#45;&gt;Node28</title>
<path fill="none" stroke="#63b8ff" d="M1372,-309.23C1419.48,-308.72 1480.97,-308.05 1524.37,-307.58"/>
<polygon fill="#63b8ff" stroke="#63b8ff" points="1371.75,-305.73 1361.79,-309.34 1371.83,-312.73 1371.75,-305.73"/>
</g>
<!-- Node30 -->
<g id="node30" class="node">
<title>Node30</title>
<g id="a_node30"><a xlink:href="../../dc/d2a/class_dir_list.html" target="_top" xlink:title="A list of directories.">
<polygon fill="white" stroke="#666666" points="1603,-199.5 1555,-199.5 1555,-180.5 1603,-180.5 1603,-199.5"/>
<text text-anchor="middle" x="1579" y="-187.5" font-family="Helvetica,sans-Serif" font-size="10.00">DirList</text>
</a>
</g>
</g>
<!-- Node30&#45;&gt;Node1 -->
<g id="edge40" class="edge">
<title>Node30&#45;&gt;Node1</title>
<path fill="none" stroke="#9a32cd" stroke-dasharray="5,2" d="M1612.94,-184.51C1666.22,-177.33 1773.01,-170.14 1849,-212 1877.73,-227.82 1896.71,-264.01 1904.5,-281.37"/>
<polygon fill="#9a32cd" stroke="#9a32cd" points="1612.42,-181.04 1603.02,-185.93 1613.42,-187.97 1612.42,-181.04"/>
<text text-anchor="middle" x="1763" y="-215" font-family="Helvetica,sans-Serif" font-size="10.00" fill="grey"> m_dirList</text>
</g>
<!-- Node31 -->
<g id="node31" class="node">
<title>Node31</title>
<g id="a_node31"><a xlink:title=" ">
<polygon fill="white" stroke="#666666" points="1353,-202 1247,-202 1247,-172 1353,-172 1353,-202"/>
<text text-anchor="start" x="1255" y="-190" font-family="Helvetica,sans-Serif" font-size="10.00">std::vector&lt; const</text>
<text text-anchor="middle" x="1300" y="-179" font-family="Helvetica,sans-Serif" font-size="10.00"> DirDef * &gt;</text>
</a>
</g>
</g>
<!-- Node31&#45;&gt;Node30 -->
<g id="edge41" class="edge">
<title>Node31&#45;&gt;Node30</title>
<path fill="none" stroke="#63b8ff" d="M1363.34,-187.68C1424.06,-188.33 1513.12,-189.3 1554.83,-189.75"/>
<polygon fill="#63b8ff" stroke="#63b8ff" points="1363.14,-184.17 1353.1,-187.56 1363.06,-191.17 1363.14,-184.17"/>
</g>
<!-- Node32&#45;&gt;Node1 -->
<g id="edge42" class="edge">
<title>Node32&#45;&gt;Node1</title>
<path fill="none" stroke="#9a32cd" stroke-dasharray="5,2" d="M785.18,-457C832.79,-457 908.79,-457 974.5,-457 974.5,-457 974.5,-457 1580,-457 1700.68,-457 1752.03,-491.84 1849,-420 1889.62,-389.9 1903.34,-325.29 1907.19,-300.74"/>
<polygon fill="#9a32cd" stroke="#9a32cd" points="784.89,-453.5 774.89,-457 784.89,-460.5 784.89,-453.5"/>
<text text-anchor="middle" x="1300" y="-460" font-family="Helvetica,sans-Serif" font-size="10.00" fill="grey"> m_allMemberList</text>
</g>
<!-- Node33 -->
<g id="node33" class="node">
<title>Node33</title>
<g id="a_node33"><a xlink:href="../../d4/d15/class_member_group_ref_list.html" target="_top" xlink:title=" ">
<polygon fill="white" stroke="#666666" points="521,-454.5 401,-454.5 401,-435.5 521,-435.5 521,-454.5"/>
<text text-anchor="middle" x="461" y="-442.5" font-family="Helvetica,sans-Serif" font-size="10.00">MemberGroupRefList</text>
</a>
</g>
</g>
<!-- Node33&#45;&gt;Node32 -->
<g id="edge44" class="edge">
<title>Node33&#45;&gt;Node32</title>
<path fill="none" stroke="#9a32cd" stroke-dasharray="5,2" d="M531.24,-442.94C569.79,-442.4 618.62,-442.71 662,-446 674.52,-446.95 688.12,-448.73 700.24,-450.59"/>
<polygon fill="#9a32cd" stroke="#9a32cd" points="531.1,-439.44 521.16,-443.1 531.22,-446.44 531.1,-439.44"/>
<text text-anchor="middle" x="600.5" y="-449" font-family="Helvetica,sans-Serif" font-size="10.00" fill="grey"> m_memberGroupRefList</text>
</g>
<!-- Node34 -->
<g id="node34" class="node">
<title>Node34</title>
<g id="a_node34"><a xlink:title=" ">
<polygon fill="white" stroke="#666666" points="310,-454.5 141,-454.5 141,-435.5 310,-435.5 310,-454.5"/>
<text text-anchor="middle" x="225.5" y="-442.5" font-family="Helvetica,sans-Serif" font-size="10.00">std::vector&lt; MemberGroup * &gt;</text>
</a>
</g>
</g>
<!-- Node34&#45;&gt;Node33 -->
<g id="edge45" class="edge">
<title>Node34&#45;&gt;Node33</title>
<path fill="none" stroke="#63b8ff" d="M320.43,-445C347.54,-445 376.36,-445 400.73,-445"/>
<polygon fill="#63b8ff" stroke="#63b8ff" points="320.14,-441.5 310.14,-445 320.14,-448.5 320.14,-441.5"/>
</g>
<!-- Node35 -->
<g id="node35" class="node">
<title>Node35</title>
<g id="a_node35"><a xlink:href="../../de/d04/class_member_name_info_linked_map.html" target="_top" xlink:title=" ">
<polygon fill="white" stroke="#666666" points="1658,-115.5 1500,-115.5 1500,-96.5 1658,-96.5 1658,-115.5"/>
<text text-anchor="middle" x="1579" y="-103.5" font-family="Helvetica,sans-Serif" font-size="10.00">MemberNameInfoLinkedMap</text>
</a>
</g>
</g>
<!-- Node35&#45;&gt;Node1 -->
<g id="edge46" class="edge">
<title>Node35&#45;&gt;Node1</title>
<path fill="none" stroke="#9a32cd" stroke-dasharray="5,2" d="M1668.25,-99.92C1735.56,-97.15 1821.28,-98.23 1849,-119 1902.86,-159.36 1908.28,-251.63 1908.59,-281.49"/>
<polygon fill="#9a32cd" stroke="#9a32cd" points="1667.87,-96.43 1658.04,-100.38 1668.19,-103.43 1667.87,-96.43"/>
<text text-anchor="middle" x="1763" y="-122" font-family="Helvetica,sans-Serif" font-size="10.00" fill="grey"> m_allMemberNameInfoLinkedMap</text>
</g>
<!-- Node36 -->
<g id="node36" class="node">
<title>Node36</title>
<g id="a_node36"><a xlink:href="../../d0/d2c/class_linked_map.html" target="_top" xlink:title=" ">
<polygon fill="white" stroke="#666666" points="1390,-115.5 1210,-115.5 1210,-96.5 1390,-96.5 1390,-115.5"/>
<text text-anchor="middle" x="1300" y="-103.5" font-family="Helvetica,sans-Serif" font-size="10.00">LinkedMap&lt; MemberNameInfo &gt;</text>
</a>
</g>
</g>
<!-- Node36&#45;&gt;Node35 -->
<g id="edge47" class="edge">
<title>Node36&#45;&gt;Node35</title>
<path fill="none" stroke="#63b8ff" d="M1400.21,-106C1432.92,-106 1468.81,-106 1499.74,-106"/>
<polygon fill="#63b8ff" stroke="#63b8ff" points="1400.17,-102.5 1390.17,-106 1400.17,-109.5 1400.17,-102.5"/>
</g>
<!-- Node37 -->
<g id="node37" class="node">
<title>Node37</title>
<g id="a_node37"><a xlink:href="../../d0/d2c/class_linked_map.html" target="_top" xlink:title="Container class representing a vector of objects with keys.">
<polygon fill="white" stroke="#666666" points="1035.5,-116 915.5,-116 915.5,-86 1035.5,-86 1035.5,-116"/>
<text text-anchor="start" x="923.5" y="-104" font-family="Helvetica,sans-Serif" font-size="10.00">LinkedMap&lt; T, Hash,</text>
<text text-anchor="middle" x="975.5" y="-93" font-family="Helvetica,sans-Serif" font-size="10.00"> KeyEqual, Map &gt;</text>
</a>
</g>
</g>
<!-- Node37&#45;&gt;Node36 -->
<g id="edge48" class="edge">
<title>Node37&#45;&gt;Node36</title>
<path fill="none" stroke="orange" stroke-dasharray="5,2" d="M1045.93,-102.08C1093.87,-102.82 1158.05,-103.81 1209.78,-104.62"/>
<polygon fill="orange" stroke="orange" points="1045.7,-98.57 1035.65,-101.92 1045.6,-105.57 1045.7,-98.57"/>
<text text-anchor="middle" x="1127" y="-107" font-family="Helvetica,sans-Serif" font-size="10.00" fill="grey"> &lt; MemberNameInfo &gt;</text>
</g>
<!-- Node38 -->
<g id="node38" class="node">
<title>Node38</title>
<g id="a_node38"><a xlink:href="../../dd/d5a/class_member_lists.html" target="_top" xlink:title=" ">
<polygon fill="white" stroke="#666666" points="1619,-75.5 1539,-75.5 1539,-56.5 1619,-56.5 1619,-75.5"/>
<text text-anchor="middle" x="1579" y="-63.5" font-family="Helvetica,sans-Serif" font-size="10.00">MemberLists</text>
</a>
</g>
</g>
<!-- Node38&#45;&gt;Node1 -->
<g id="edge50" class="edge">
<title>Node38&#45;&gt;Node1</title>
<path fill="none" stroke="#9a32cd" stroke-dasharray="5,2" d="M1629.18,-62.58C1697.46,-58.9 1816.32,-56.7 1849,-83 1881.19,-108.9 1901.99,-243.9 1907.21,-281.35"/>
<polygon fill="#9a32cd" stroke="#9a32cd" points="1628.86,-59.09 1619.08,-63.16 1629.26,-66.08 1628.86,-59.09"/>
<text text-anchor="middle" x="1763" y="-86" font-family="Helvetica,sans-Serif" font-size="10.00" fill="grey"> m_memberLists</text>
</g>
<!-- Node39 -->
<g id="node39" class="node">
<title>Node39</title>
<g id="a_node39"><a xlink:title=" ">
<polygon fill="white" stroke="#666666" points="1367,-78 1233,-78 1233,-48 1367,-48 1367,-78"/>
<text text-anchor="start" x="1241" y="-66" font-family="Helvetica,sans-Serif" font-size="10.00">std::vector&lt; std::unique</text>
<text text-anchor="middle" x="1300" y="-55" font-family="Helvetica,sans-Serif" font-size="10.00">_ptr&lt; MemberList &gt; &gt;</text>
</a>
</g>
</g>
<!-- Node39&#45;&gt;Node38 -->
<g id="edge51" class="edge">
<title>Node39&#45;&gt;Node38</title>
<path fill="none" stroke="#63b8ff" d="M1377.59,-63.83C1429.86,-64.4 1496.95,-65.12 1538.71,-65.57"/>
<polygon fill="#63b8ff" stroke="#63b8ff" points="1377.39,-60.33 1367.35,-63.72 1377.31,-67.33 1377.39,-60.33"/>
</g>
<!-- Node40 -->
<g id="node40" class="node">
<title>Node40</title>
<g id="a_node40"><a xlink:href="../../df/d11/class_member_group_list.html" target="_top" xlink:title=" ">
<polygon fill="white" stroke="#666666" points="1631,-30.5 1527,-30.5 1527,-11.5 1631,-11.5 1631,-30.5"/>
<text text-anchor="middle" x="1579" y="-18.5" font-family="Helvetica,sans-Serif" font-size="10.00">MemberGroupList</text>
</a>
</g>
</g>
<!-- Node40&#45;&gt;Node1 -->
<g id="edge52" class="edge">
<title>Node40&#45;&gt;Node1</title>
<path fill="none" stroke="#9a32cd" stroke-dasharray="5,2" d="M1630.57,-9.63C1690.17,0.57 1788.73,6.93 1849,-45 1886.11,-76.98 1903.72,-239.91 1907.64,-281.38"/>
<polygon fill="#9a32cd" stroke="#9a32cd" points="1629.84,-6.21 1620.63,-11.43 1631.09,-13.09 1629.84,-6.21"/>
<text text-anchor="middle" x="1763" y="-48" font-family="Helvetica,sans-Serif" font-size="10.00" fill="grey"> m_memberGroups</text>
</g>
<!-- Node41 -->
<g id="node41" class="node">
<title>Node41</title>
<g id="a_node41"><a xlink:title=" ">
<polygon fill="white" stroke="#666666" points="1369.5,-30 1230.5,-30 1230.5,0 1369.5,0 1369.5,-30"/>
<text text-anchor="start" x="1238.5" y="-18" font-family="Helvetica,sans-Serif" font-size="10.00">std::vector&lt; std::unique</text>
<text text-anchor="middle" x="1300" y="-7" font-family="Helvetica,sans-Serif" font-size="10.00">_ptr&lt; MemberGroup &gt; &gt;</text>
</a>
</g>
</g>
<!-- Node41&#45;&gt;Node40 -->
<g id="edge53" class="edge">
<title>Node41&#45;&gt;Node40</title>
<path fill="none" stroke="#63b8ff" d="M1380.02,-16.71C1427.23,-17.73 1485.81,-19 1526.96,-19.89"/>
<polygon fill="#63b8ff" stroke="#63b8ff" points="1379.9,-13.21 1369.83,-16.49 1379.75,-20.21 1379.9,-13.21"/>
</g>
</g>
</svg>
        <g id="navigator" transform="translate(0 0)" fill="#404254">
                <rect fill="#f2f5e9" fill-opacity="0.5" stroke="#606060" stroke-width=".5" x="0" y="0" width="60" height="60"/>
                <use id="zoomplus" xlink:href="#zoomPlus" x="17" y="9" onmousedown="handleZoom(evt,'in')"/>
                <use id="zoomminus" xlink:href="#zoomMin" x="42" y="9" onmousedown="handleZoom(evt,'out')"/>
                <use id="reset" xlink:href="#resetDef" x="30" y="36" onmousedown="handleReset()"/>
                <g id="arrowUp" xlink:href="#dirArrow" transform="translate(30 24)" onmousedown="handlePan(0,-1)">
                  <use xlink:href="#rim" fill="#404040">
                        <set attributeName="fill" to="#808080" begin="arrowUp.mouseover" end="arrowUp.mouseout"/>
                  </use>
                  <path fill="none" stroke="white" stroke-width="1.5" d="M0,-3.0v7 M-2.5,-0.5L0,-3.0L2.5,-0.5"/>
                </g>
                <g id="arrowRight" xlink:href="#dirArrow" transform="rotate(90) translate(36 -43)" onmousedown="handlePan(1,0)">
                  <use xlink:href="#rim" fill="#404040">
                        <set attributeName="fill" to="#808080" begin="arrowRight.mouseover" end="arrowRight.mouseout"/>
                  </use>
                  <path fill="none" stroke="white" stroke-width="1.5" d="M0,-3.0v7 M-2.5,-0.5L0,-3.0L2.5,-0.5"/>
                </g>
                <g id="arrowDown" xlink:href="#dirArrow" transform="rotate(180) translate(-30 -48)" onmousedown="handlePan(0,1)">
                  <use xlink:href="#rim" fill="#404040">
                        <set attributeName="fill" to="#808080" begin="arrowDown.mouseover" end="arrowDown.mouseout"/>
                  </use>
                  <path fill="none" stroke="white" stroke-width="1.5" d="M0,-3.0v7 M-2.5,-0.5L0,-3.0L2.5,-0.5"/>
                </g>
                <g id="arrowLeft" xlink:href="#dirArrow" transform="rotate(270) translate(-36 17)" onmousedown="handlePan(-1,0)">
                  <use xlink:href="#rim" fill="#404040">
                        <set attributeName="fill" to="#808080" begin="arrowLeft.mouseover" end="arrowLeft.mouseout"/>
                  </use>
                  <path fill="none" stroke="white" stroke-width="1.5" d="M0,-3.0v7 M-2.5,-0.5L0,-3.0L2.5,-0.5"/>
                </g>
        </g>
        <svg viewBox="0 0 15 15" width="100%" height="30px" preserveAspectRatio="xMaxYMin meet">
         <g id="arrow_out" transform="scale(0.3 0.3)">
          <a xlink:href="class_group_def_impl__coll__graph_org.svg" target="_base">
           <rect id="button" ry="5" rx="5" y="6" x="6" height="38" width="38"
                fill="#f2f5e9" fill-opacity="0.5" stroke="#606060" stroke-width="1.0"/>
           <path id="arrow"
             d="M 11.500037,31.436501 C 11.940474,20.09759 22.043105,11.32322 32.158766,21.979434 L 37.068811,17.246167 C 37.068811,17.246167 37.088388,32 37.088388,32 L 22.160133,31.978069 C 22.160133,31.978069 26.997745,27.140456 26.997745,27.140456 C 18.528582,18.264221 13.291696,25.230495 11.500037,31.436501 z"
             style="fill:#404040;"/>
          </a>
         </g>
        </svg>
</svg>
