<?xml version="1.0" encoding="UTF-8" standalone="no"?>
<!DOCTYPE svg PUBLIC "-//W3C//DTD SVG 1.1//EN"
 "http://www.w3.org/Graphics/SVG/1.1/DTD/svg11.dtd">
<!-- Generated by graphviz version 2.43.0 (0)
 -->
<!-- Title: /home/runner/work/doxygen/doxygen/src/fileparser.cpp Pages: 1 -->
<svg width="1355pt" height="368pt"
 viewBox="0.00 0.00 1355.35 368.00" xmlns="http://www.w3.org/2000/svg" xmlns:xlink="http://www.w3.org/1999/xlink">
<g id="graph0" class="graph" transform="scale(1 1) rotate(0) translate(4 364)">
<title>/home/runner/work/doxygen/doxygen/src/fileparser.cpp</title>
<!-- Node1 -->
<g id="node1" class="node">
<title>Node1</title>
<g id="a_node1"><a xlink:title=" ">
<polygon fill="#999999" stroke="#666666" points="487.35,-360 333.35,-360 333.35,-330 487.35,-330 487.35,-360"/>
<text text-anchor="start" x="341.35" y="-348" font-family="Helvetica,sans-Serif" font-size="10.00">/home/runner/work/doxygen</text>
<text text-anchor="middle" x="410.35" y="-337" font-family="Helvetica,sans-Serif" font-size="10.00">/doxygen/src/fileparser.cpp</text>
</a>
</g>
</g>
<!-- Node2 -->
<g id="node2" class="node">
<title>Node2</title>
<g id="a_node2"><a xlink:href="../../d5/dc5/fileparser_8h.html" target="_top" xlink:title=" ">
<polygon fill="white" stroke="#666666" points="400.85,-294 329.85,-294 329.85,-275 400.85,-275 400.85,-294"/>
<text text-anchor="middle" x="365.35" y="-282" font-family="Helvetica,sans-Serif" font-size="10.00">fileparser.h</text>
</a>
</g>
</g>
<!-- Node1&#45;&gt;Node2 -->
<g id="edge1" class="edge">
<title>Node1&#45;&gt;Node2</title>
<path fill="none" stroke="#63b8ff" d="M399.45,-329.84C393.05,-321.52 384.93,-310.96 378.22,-302.23"/>
<polygon fill="#63b8ff" stroke="#63b8ff" points="380.96,-300.06 372.09,-294.27 375.41,-304.33 380.96,-300.06"/>
</g>
<!-- Node24 -->
<g id="node24" class="node">
<title>Node24</title>
<g id="a_node24"><a xlink:href="../../df/d06/outputgen_8h.html" target="_top" xlink:title=" ">
<polygon fill="white" stroke="#666666" points="649.85,-294 574.85,-294 574.85,-275 649.85,-275 649.85,-294"/>
<text text-anchor="middle" x="612.35" y="-282" font-family="Helvetica,sans-Serif" font-size="10.00">outputgen.h</text>
</a>
</g>
</g>
<!-- Node1&#45;&gt;Node24 -->
<g id="edge28" class="edge">
<title>Node1&#45;&gt;Node24</title>
<path fill="none" stroke="#63b8ff" d="M458.73,-329.99C493.74,-319.85 540.46,-306.32 573.14,-296.85"/>
<polygon fill="#63b8ff" stroke="#63b8ff" points="574.18,-300.2 582.81,-294.05 572.23,-293.47 574.18,-300.2"/>
</g>
<!-- Node3 -->
<g id="node3" class="node">
<title>Node3</title>
<g id="a_node3"><a xlink:href="../../da/d55/parserintf_8h.html" target="_top" xlink:title=" ">
<polygon fill="white" stroke="#666666" points="184.35,-239 112.35,-239 112.35,-220 184.35,-220 184.35,-239"/>
<text text-anchor="middle" x="148.35" y="-227" font-family="Helvetica,sans-Serif" font-size="10.00">parserintf.h</text>
</a>
</g>
</g>
<!-- Node2&#45;&gt;Node3 -->
<g id="edge2" class="edge">
<title>Node2&#45;&gt;Node3</title>
<path fill="none" stroke="#63b8ff" d="M330.48,-274.98C293.26,-265.89 234.15,-251.46 193.42,-241.51"/>
<polygon fill="#63b8ff" stroke="#63b8ff" points="194.03,-238.05 183.48,-239.08 192.37,-244.85 194.03,-238.05"/>
</g>
<!-- Node4 -->
<g id="node4" class="node">
<title>Node4</title>
<g id="a_node4"><a xlink:title=" ">
<polygon fill="#e0e0e0" stroke="#999999" points="91.85,-184 26.85,-184 26.85,-165 91.85,-165 91.85,-184"/>
<text text-anchor="middle" x="59.35" y="-172" font-family="Helvetica,sans-Serif" font-size="10.00">functional</text>
</a>
</g>
</g>
<!-- Node3&#45;&gt;Node4 -->
<g id="edge3" class="edge">
<title>Node3&#45;&gt;Node4</title>
<path fill="none" stroke="#63b8ff" d="M134.05,-219.98C120.24,-211.77 99.11,-199.18 82.83,-189.49"/>
<polygon fill="#63b8ff" stroke="#63b8ff" points="84.29,-186.28 73.91,-184.17 80.71,-192.29 84.29,-186.28"/>
</g>
<!-- Node5 -->
<g id="node5" class="node">
<title>Node5</title>
<g id="a_node5"><a xlink:title=" ">
<polygon fill="#e0e0e0" stroke="#999999" points="358.35,-129 300.35,-129 300.35,-110 358.35,-110 358.35,-129"/>
<text text-anchor="middle" x="329.35" y="-117" font-family="Helvetica,sans-Serif" font-size="10.00">memory</text>
</a>
</g>
</g>
<!-- Node3&#45;&gt;Node5 -->
<g id="edge4" class="edge">
<title>Node3&#45;&gt;Node5</title>
<path fill="none" stroke="#63b8ff" d="M162.85,-219.84C194.17,-201.16 268.35,-156.9 306.22,-134.3"/>
<polygon fill="#63b8ff" stroke="#63b8ff" points="308.23,-137.18 315.02,-129.05 304.64,-131.17 308.23,-137.18"/>
</g>
<!-- Node6 -->
<g id="node6" class="node">
<title>Node6</title>
<g id="a_node6"><a xlink:title=" ">
<polygon fill="#e0e0e0" stroke="#999999" points="116.35,-129 78.35,-129 78.35,-110 116.35,-110 116.35,-129"/>
<text text-anchor="middle" x="97.35" y="-117" font-family="Helvetica,sans-Serif" font-size="10.00">map</text>
</a>
</g>
</g>
<!-- Node3&#45;&gt;Node6 -->
<g id="edge5" class="edge">
<title>Node3&#45;&gt;Node6</title>
<path fill="none" stroke="#63b8ff" d="M112.19,-227.19C81.36,-223.93 38.75,-213.87 17.35,-184 0.18,-160.04 39.03,-140.43 68.39,-129.61"/>
<polygon fill="#63b8ff" stroke="#63b8ff" points="69.61,-132.9 77.89,-126.29 67.29,-126.29 69.61,-132.9"/>
</g>
<!-- Node7 -->
<g id="node7" class="node">
<title>Node7</title>
<g id="a_node7"><a xlink:title=" ">
<polygon fill="#e0e0e0" stroke="#999999" points="794.35,-19 750.35,-19 750.35,0 794.35,0 794.35,-19"/>
<text text-anchor="middle" x="772.35" y="-7" font-family="Helvetica,sans-Serif" font-size="10.00">string</text>
</a>
</g>
</g>
<!-- Node3&#45;&gt;Node7 -->
<g id="edge6" class="edge">
<title>Node3&#45;&gt;Node7</title>
<path fill="none" stroke="#63b8ff" d="M112.27,-228.07C79.47,-225.53 32.72,-216.03 9.35,-184 1.01,-172.58 -7.35,-139.55 12.35,-110 43.55,-63.19 71.97,-69.42 126.35,-55 244.25,-23.74 626.43,-13.5 740.14,-11.11"/>
<polygon fill="#63b8ff" stroke="#63b8ff" points="740.37,-14.6 750.29,-10.9 740.22,-7.61 740.37,-14.6"/>
</g>
<!-- Node8 -->
<g id="node8" class="node">
<title>Node8</title>
<g id="a_node8"><a xlink:href="../../d9/d49/types_8h.html" target="_top" xlink:title="This file contains a number of basic enums and types.">
<polygon fill="white" stroke="#666666" points="858.85,-184 805.85,-184 805.85,-165 858.85,-165 858.85,-184"/>
<text text-anchor="middle" x="832.35" y="-172" font-family="Helvetica,sans-Serif" font-size="10.00">types.h</text>
</a>
</g>
</g>
<!-- Node3&#45;&gt;Node8 -->
<g id="edge7" class="edge">
<title>Node3&#45;&gt;Node8</title>
<path fill="none" stroke="#63b8ff" d="M184.64,-225.69C303,-216.52 677.02,-187.54 795.78,-178.33"/>
<polygon fill="#63b8ff" stroke="#63b8ff" points="796.12,-181.82 805.82,-177.56 795.58,-174.84 796.12,-181.82"/>
</g>
<!-- Node18 -->
<g id="node18" class="node">
<title>Node18</title>
<g id="a_node18"><a xlink:href="../../d5/d75/containers_8h.html" target="_top" xlink:title=" ">
<polygon fill="white" stroke="#666666" points="186.85,-184 109.85,-184 109.85,-165 186.85,-165 186.85,-184"/>
<text text-anchor="middle" x="148.35" y="-172" font-family="Helvetica,sans-Serif" font-size="10.00">containers.h</text>
</a>
</g>
</g>
<!-- Node3&#45;&gt;Node18 -->
<g id="edge20" class="edge">
<title>Node3&#45;&gt;Node18</title>
<path fill="none" stroke="#63b8ff" d="M148.35,-219.75C148.35,-212.8 148.35,-202.85 148.35,-194.13"/>
<polygon fill="#63b8ff" stroke="#63b8ff" points="151.85,-194.09 148.35,-184.09 144.85,-194.09 151.85,-194.09"/>
</g>
<!-- Node9 -->
<g id="node9" class="node">
<title>Node9</title>
<g id="a_node9"><a xlink:href="../../d7/d5c/qcstring_8h.html" target="_top" xlink:title=" ">
<polygon fill="white" stroke="#666666" points="906.85,-129 841.85,-129 841.85,-110 906.85,-110 906.85,-129"/>
<text text-anchor="middle" x="874.35" y="-117" font-family="Helvetica,sans-Serif" font-size="10.00">qcstring.h</text>
</a>
</g>
</g>
<!-- Node8&#45;&gt;Node9 -->
<g id="edge8" class="edge">
<title>Node8&#45;&gt;Node9</title>
<path fill="none" stroke="#63b8ff" d="M839.28,-164.75C845.21,-157.26 853.92,-146.28 861.17,-137.13"/>
<polygon fill="#63b8ff" stroke="#63b8ff" points="864.07,-139.1 867.54,-129.09 858.59,-134.75 864.07,-139.1"/>
</g>
<!-- Node9&#45;&gt;Node7 -->
<g id="edge9" class="edge">
<title>Node9&#45;&gt;Node7</title>
<path fill="none" stroke="#63b8ff" d="M907.1,-111.63C941.18,-103.73 991.1,-89.82 1002.35,-74 1007.24,-67.12 1007.72,-61.51 1002.35,-55 977.66,-25.09 862.12,-15.05 804.78,-11.87"/>
<polygon fill="#63b8ff" stroke="#63b8ff" points="804.63,-8.36 794.46,-11.34 804.27,-15.35 804.63,-8.36"/>
</g>
<!-- Node10 -->
<g id="node10" class="node">
<title>Node10</title>
<g id="a_node10"><a xlink:title=" ">
<polygon fill="#e0e0e0" stroke="#999999" points="676.35,-74 612.35,-74 612.35,-55 676.35,-55 676.35,-74"/>
<text text-anchor="middle" x="644.35" y="-62" font-family="Helvetica,sans-Serif" font-size="10.00">algorithm</text>
</a>
</g>
</g>
<!-- Node9&#45;&gt;Node10 -->
<g id="edge10" class="edge">
<title>Node9&#45;&gt;Node10</title>
<path fill="none" stroke="#63b8ff" d="M841.39,-110.91C800.6,-101.51 731.06,-85.48 686.44,-75.2"/>
<polygon fill="#63b8ff" stroke="#63b8ff" points="687.03,-71.74 676.5,-72.91 685.46,-78.56 687.03,-71.74"/>
</g>
<!-- Node11 -->
<g id="node11" class="node">
<title>Node11</title>
<g id="a_node11"><a xlink:title=" ">
<polygon fill="#e0e0e0" stroke="#999999" points="743.85,-74 694.85,-74 694.85,-55 743.85,-55 743.85,-74"/>
<text text-anchor="middle" x="719.35" y="-62" font-family="Helvetica,sans-Serif" font-size="10.00">cctype</text>
</a>
</g>
</g>
<!-- Node9&#45;&gt;Node11 -->
<g id="edge11" class="edge">
<title>Node9&#45;&gt;Node11</title>
<path fill="none" stroke="#63b8ff" d="M849.44,-109.98C823.49,-101.11 782.64,-87.14 753.65,-77.23"/>
<polygon fill="#63b8ff" stroke="#63b8ff" points="754.53,-73.83 743.93,-73.91 752.26,-80.45 754.53,-73.83"/>
</g>
<!-- Node12 -->
<g id="node12" class="node">
<title>Node12</title>
<g id="a_node12"><a xlink:title=" ">
<polygon fill="#e0e0e0" stroke="#999999" points="850.35,-74 800.35,-74 800.35,-55 850.35,-55 850.35,-74"/>
<text text-anchor="middle" x="825.35" y="-62" font-family="Helvetica,sans-Serif" font-size="10.00">cstring</text>
</a>
</g>
</g>
<!-- Node9&#45;&gt;Node12 -->
<g id="edge12" class="edge">
<title>Node9&#45;&gt;Node12</title>
<path fill="none" stroke="#63b8ff" d="M866.25,-109.75C859.19,-102.11 848.76,-90.82 840.2,-81.56"/>
<polygon fill="#63b8ff" stroke="#63b8ff" points="842.65,-79.06 833.29,-74.09 837.51,-83.81 842.65,-79.06"/>
</g>
<!-- Node13 -->
<g id="node13" class="node">
<title>Node13</title>
<g id="a_node13"><a xlink:title=" ">
<polygon fill="#e0e0e0" stroke="#999999" points="1197.35,-74 1151.35,-74 1151.35,-55 1197.35,-55 1197.35,-74"/>
<text text-anchor="middle" x="1174.35" y="-62" font-family="Helvetica,sans-Serif" font-size="10.00">cstdio</text>
</a>
</g>
</g>
<!-- Node9&#45;&gt;Node13 -->
<g id="edge13" class="edge">
<title>Node9&#45;&gt;Node13</title>
<path fill="none" stroke="#63b8ff" d="M906.88,-111.79C910.08,-111.17 913.27,-110.56 916.35,-110 1014.24,-92.13 1039.69,-93.15 1137.35,-74 1138.62,-73.75 1139.92,-73.49 1141.22,-73.22"/>
<polygon fill="#63b8ff" stroke="#63b8ff" points="1142.27,-76.57 1151.3,-71.03 1140.79,-69.73 1142.27,-76.57"/>
</g>
<!-- Node14 -->
<g id="node14" class="node">
<title>Node14</title>
<g id="a_node14"><a xlink:title=" ">
<polygon fill="#e0e0e0" stroke="#999999" points="917.85,-74 868.85,-74 868.85,-55 917.85,-55 917.85,-74"/>
<text text-anchor="middle" x="893.35" y="-62" font-family="Helvetica,sans-Serif" font-size="10.00">cstdlib</text>
</a>
</g>
</g>
<!-- Node9&#45;&gt;Node14 -->
<g id="edge14" class="edge">
<title>Node9&#45;&gt;Node14</title>
<path fill="none" stroke="#63b8ff" d="M877.48,-109.75C880.03,-102.65 883.7,-92.4 886.87,-83.56"/>
<polygon fill="#63b8ff" stroke="#63b8ff" points="890.19,-84.68 890.27,-74.09 883.6,-82.32 890.19,-84.68"/>
</g>
<!-- Node15 -->
<g id="node15" class="node">
<title>Node15</title>
<g id="a_node15"><a xlink:title=" ">
<polygon fill="#e0e0e0" stroke="#999999" points="1148.35,-19 1098.35,-19 1098.35,0 1148.35,0 1148.35,-19"/>
<text text-anchor="middle" x="1123.35" y="-7" font-family="Helvetica,sans-Serif" font-size="10.00">cstdint</text>
</a>
</g>
</g>
<!-- Node9&#45;&gt;Node15 -->
<g id="edge15" class="edge">
<title>Node9&#45;&gt;Node15</title>
<path fill="none" stroke="#63b8ff" d="M906.9,-111.88C910.09,-111.24 913.28,-110.6 916.35,-110 999.82,-93.56 1041.21,-131.03 1104.35,-74 1116.74,-62.8 1121.19,-43.88 1122.72,-29.6"/>
<polygon fill="#63b8ff" stroke="#63b8ff" points="1126.23,-29.59 1123.41,-19.38 1119.24,-29.12 1126.23,-29.59"/>
</g>
<!-- Node16 -->
<g id="node16" class="node">
<title>Node16</title>
<g id="a_node16"><a xlink:title=" ">
<polygon fill="#e0e0e0" stroke="#999999" points="992.85,-74 935.85,-74 935.85,-55 992.85,-55 992.85,-74"/>
<text text-anchor="middle" x="964.35" y="-62" font-family="Helvetica,sans-Serif" font-size="10.00">ostream</text>
</a>
</g>
</g>
<!-- Node9&#45;&gt;Node16 -->
<g id="edge16" class="edge">
<title>Node9&#45;&gt;Node16</title>
<path fill="none" stroke="#63b8ff" d="M888.81,-109.98C902.76,-101.77 924.14,-89.18 940.6,-79.49"/>
<polygon fill="#63b8ff" stroke="#63b8ff" points="942.78,-82.26 949.62,-74.17 939.23,-76.23 942.78,-82.26"/>
</g>
<!-- Node17 -->
<g id="node17" class="node">
<title>Node17</title>
<g id="a_node17"><a xlink:href="../../db/d7c/utf8_8h.html" target="_top" xlink:title="Various UTF8 related helper functions.">
<polygon fill="white" stroke="#666666" points="1094.85,-74 1049.85,-74 1049.85,-55 1094.85,-55 1094.85,-74"/>
<text text-anchor="middle" x="1072.35" y="-62" font-family="Helvetica,sans-Serif" font-size="10.00">utf8.h</text>
</a>
</g>
</g>
<!-- Node9&#45;&gt;Node17 -->
<g id="edge17" class="edge">
<title>Node9&#45;&gt;Node17</title>
<path fill="none" stroke="#63b8ff" d="M906.16,-109.98C942.83,-100.17 1002.79,-84.12 1039.78,-74.22"/>
<polygon fill="#63b8ff" stroke="#63b8ff" points="1040.81,-77.57 1049.56,-71.6 1039,-70.8 1040.81,-77.57"/>
</g>
<!-- Node17&#45;&gt;Node7 -->
<g id="edge19" class="edge">
<title>Node17&#45;&gt;Node7</title>
<path fill="none" stroke="#63b8ff" d="M1049.69,-58.08C1044.96,-57.01 1040,-55.93 1035.35,-55 952.63,-38.52 854.49,-22.96 804.74,-15.36"/>
<polygon fill="#63b8ff" stroke="#63b8ff" points="805.01,-11.86 794.59,-13.82 803.95,-18.78 805.01,-11.86"/>
</g>
<!-- Node17&#45;&gt;Node15 -->
<g id="edge18" class="edge">
<title>Node17&#45;&gt;Node15</title>
<path fill="none" stroke="#63b8ff" d="M1080.77,-54.75C1088.12,-47.11 1098.98,-35.82 1107.89,-26.56"/>
<polygon fill="#63b8ff" stroke="#63b8ff" points="1110.67,-28.72 1115.08,-19.09 1105.63,-23.87 1110.67,-28.72"/>
</g>
<!-- Node18&#45;&gt;Node6 -->
<g id="edge24" class="edge">
<title>Node18&#45;&gt;Node6</title>
<path fill="none" stroke="#63b8ff" d="M139.92,-164.75C132.57,-157.11 121.71,-145.82 112.8,-136.56"/>
<polygon fill="#63b8ff" stroke="#63b8ff" points="115.07,-133.87 105.61,-129.09 110.02,-138.72 115.07,-133.87"/>
</g>
<!-- Node18&#45;&gt;Node7 -->
<g id="edge22" class="edge">
<title>Node18&#45;&gt;Node7</title>
<path fill="none" stroke="#63b8ff" d="M109.58,-165.32C75.63,-157.28 30.07,-144.05 19.35,-129 14.44,-122.12 13.78,-116.35 19.35,-110 67.74,-54.79 601.87,-20.33 739.93,-12.31"/>
<polygon fill="#63b8ff" stroke="#63b8ff" points="740.47,-15.78 750.26,-11.71 740.07,-8.79 740.47,-15.78"/>
</g>
<!-- Node19 -->
<g id="node19" class="node">
<title>Node19</title>
<g id="a_node19"><a xlink:title=" ">
<polygon fill="#e0e0e0" stroke="#999999" points="423.85,-129 376.85,-129 376.85,-110 423.85,-110 423.85,-129"/>
<text text-anchor="middle" x="400.35" y="-117" font-family="Helvetica,sans-Serif" font-size="10.00">vector</text>
</a>
</g>
</g>
<!-- Node18&#45;&gt;Node19 -->
<g id="edge21" class="edge">
<title>Node18&#45;&gt;Node19</title>
<path fill="none" stroke="#63b8ff" d="M186.85,-166.3C228.64,-158.35 297.55,-144.84 366.43,-129.11"/>
<polygon fill="#63b8ff" stroke="#63b8ff" points="367.63,-132.43 376.59,-126.78 366.06,-125.61 367.63,-132.43"/>
</g>
<!-- Node20 -->
<g id="node20" class="node">
<title>Node20</title>
<g id="a_node20"><a xlink:title=" ">
<polygon fill="#e0e0e0" stroke="#999999" points="60.35,-129 28.35,-129 28.35,-110 60.35,-110 60.35,-129"/>
<text text-anchor="middle" x="44.35" y="-117" font-family="Helvetica,sans-Serif" font-size="10.00">set</text>
</a>
</g>
</g>
<!-- Node18&#45;&gt;Node20 -->
<g id="edge23" class="edge">
<title>Node18&#45;&gt;Node20</title>
<path fill="none" stroke="#63b8ff" d="M131.64,-164.98C114.94,-156.47 89.04,-143.28 69.78,-133.46"/>
<polygon fill="#63b8ff" stroke="#63b8ff" points="71.17,-130.24 60.67,-128.82 67.99,-136.48 71.17,-130.24"/>
</g>
<!-- Node21 -->
<g id="node21" class="node">
<title>Node21</title>
<g id="a_node21"><a xlink:title=" ">
<polygon fill="#e0e0e0" stroke="#999999" points="220.35,-129 134.35,-129 134.35,-110 220.35,-110 220.35,-129"/>
<text text-anchor="middle" x="177.35" y="-117" font-family="Helvetica,sans-Serif" font-size="10.00">unordered_set</text>
</a>
</g>
</g>
<!-- Node18&#45;&gt;Node21 -->
<g id="edge25" class="edge">
<title>Node18&#45;&gt;Node21</title>
<path fill="none" stroke="#63b8ff" d="M153.13,-164.75C157.1,-157.49 162.87,-146.95 167.78,-137.98"/>
<polygon fill="#63b8ff" stroke="#63b8ff" points="170.92,-139.54 172.65,-129.09 164.78,-136.18 170.92,-139.54"/>
</g>
<!-- Node22 -->
<g id="node22" class="node">
<title>Node22</title>
<g id="a_node22"><a xlink:title=" ">
<polygon fill="#e0e0e0" stroke="#999999" points="605.85,-129 512.85,-129 512.85,-110 605.85,-110 605.85,-129"/>
<text text-anchor="middle" x="559.35" y="-117" font-family="Helvetica,sans-Serif" font-size="10.00">unordered_map</text>
</a>
</g>
</g>
<!-- Node18&#45;&gt;Node22 -->
<g id="edge26" class="edge">
<title>Node18&#45;&gt;Node22</title>
<path fill="none" stroke="#63b8ff" d="M187,-168.99C250.48,-161.5 381.05,-145.81 502.4,-129.1"/>
<polygon fill="#63b8ff" stroke="#63b8ff" points="503.18,-132.52 512.61,-127.69 502.22,-125.59 503.18,-132.52"/>
</g>
<!-- Node23 -->
<g id="node23" class="node">
<title>Node23</title>
<g id="a_node23"><a xlink:title=" ">
<polygon fill="#e0e0e0" stroke="#999999" points="281.85,-129 238.85,-129 238.85,-110 281.85,-110 281.85,-129"/>
<text text-anchor="middle" x="260.35" y="-117" font-family="Helvetica,sans-Serif" font-size="10.00">stack</text>
</a>
</g>
</g>
<!-- Node18&#45;&gt;Node23 -->
<g id="edge27" class="edge">
<title>Node18&#45;&gt;Node23</title>
<path fill="none" stroke="#63b8ff" d="M166.34,-164.98C184.28,-156.5 212.06,-143.35 232.78,-133.54"/>
<polygon fill="#63b8ff" stroke="#63b8ff" points="234.48,-136.61 242.02,-129.17 231.49,-130.28 234.48,-136.61"/>
</g>
<!-- Node24&#45;&gt;Node5 -->
<g id="edge29" class="edge">
<title>Node24&#45;&gt;Node5</title>
<path fill="none" stroke="#63b8ff" d="M574.72,-284.22C508.03,-283.18 370.48,-270.1 310.35,-184 300.6,-170.05 308.45,-151.03 316.83,-137.45"/>
<polygon fill="#63b8ff" stroke="#63b8ff" points="319.8,-139.29 322.49,-129.05 314,-135.38 319.8,-139.29"/>
</g>
<!-- Node24&#45;&gt;Node8 -->
<g id="edge33" class="edge">
<title>Node24&#45;&gt;Node8</title>
<path fill="none" stroke="#63b8ff" d="M632.83,-274.87C653.18,-266.18 685.18,-252.22 712.35,-239 746.03,-222.62 784.13,-202.11 808.19,-188.9"/>
<polygon fill="#63b8ff" stroke="#63b8ff" points="809.91,-191.95 816.98,-184.06 806.54,-185.82 809.91,-191.95"/>
</g>
<!-- Node24&#45;&gt;Node23 -->
<g id="edge30" class="edge">
<title>Node24&#45;&gt;Node23</title>
<path fill="none" stroke="#63b8ff" d="M574.73,-280.67C510.41,-275.28 382.54,-261.98 344.35,-239 305.05,-215.36 279.19,-165.51 267.51,-138.61"/>
<polygon fill="#63b8ff" stroke="#63b8ff" points="270.68,-137.12 263.61,-129.23 264.22,-139.81 270.68,-137.12"/>
</g>
<!-- Node25 -->
<g id="node25" class="node">
<title>Node25</title>
<g id="a_node25"><a xlink:title=" ">
<polygon fill="#e0e0e0" stroke="#999999" points="985.35,-129 925.35,-129 925.35,-110 985.35,-110 985.35,-129"/>
<text text-anchor="middle" x="955.35" y="-117" font-family="Helvetica,sans-Serif" font-size="10.00">iostream</text>
</a>
</g>
</g>
<!-- Node24&#45;&gt;Node25 -->
<g id="edge31" class="edge">
<title>Node24&#45;&gt;Node25</title>
<path fill="none" stroke="#63b8ff" d="M650.01,-275.13C704.96,-261.77 809.01,-232.14 886.35,-184 907.37,-170.91 927.78,-150.95 940.87,-136.91"/>
<polygon fill="#63b8ff" stroke="#63b8ff" points="943.54,-139.18 947.69,-129.43 938.37,-134.46 943.54,-139.18"/>
</g>
<!-- Node26 -->
<g id="node26" class="node">
<title>Node26</title>
<g id="a_node26"><a xlink:title=" ">
<polygon fill="#e0e0e0" stroke="#999999" points="1058.85,-129 1003.85,-129 1003.85,-110 1058.85,-110 1058.85,-129"/>
<text text-anchor="middle" x="1031.35" y="-117" font-family="Helvetica,sans-Serif" font-size="10.00">fstream</text>
</a>
</g>
</g>
<!-- Node24&#45;&gt;Node26 -->
<g id="edge32" class="edge">
<title>Node24&#45;&gt;Node26</title>
<path fill="none" stroke="#63b8ff" d="M650.04,-277.97C690.14,-271.4 755.01,-258.76 808.35,-239 857.38,-220.83 866.17,-208.53 912.35,-184 944.84,-166.74 982.28,-146.74 1006.35,-133.87"/>
<polygon fill="#63b8ff" stroke="#63b8ff" points="1008.02,-136.95 1015.19,-129.15 1004.72,-130.78 1008.02,-136.95"/>
</g>
<!-- Node27 -->
<g id="node27" class="node">
<title>Node27</title>
<g id="a_node27"><a xlink:href="../../d1/db5/index_8h.html" target="_top" xlink:title=" ">
<polygon fill="white" stroke="#666666" points="372.85,-184 319.85,-184 319.85,-165 372.85,-165 372.85,-184"/>
<text text-anchor="middle" x="346.35" y="-172" font-family="Helvetica,sans-Serif" font-size="10.00">index.h</text>
</a>
</g>
</g>
<!-- Node24&#45;&gt;Node27 -->
<g id="edge34" class="edge">
<title>Node24&#45;&gt;Node27</title>
<path fill="none" stroke="#63b8ff" d="M591.03,-274.84C544.02,-255.76 431.34,-210.01 376.86,-187.89"/>
<polygon fill="#63b8ff" stroke="#63b8ff" points="377.98,-184.57 367.4,-184.05 375.35,-191.05 377.98,-184.57"/>
</g>
<!-- Node28 -->
<g id="node28" class="node">
<title>Node28</title>
<g id="a_node28"><a xlink:href="../../d1/d2a/section_8h.html" target="_top" xlink:title=" ">
<polygon fill="white" stroke="#666666" points="702.85,-239 641.85,-239 641.85,-220 702.85,-220 702.85,-239"/>
<text text-anchor="middle" x="672.35" y="-227" font-family="Helvetica,sans-Serif" font-size="10.00">section.h</text>
</a>
</g>
</g>
<!-- Node24&#45;&gt;Node28 -->
<g id="edge39" class="edge">
<title>Node24&#45;&gt;Node28</title>
<path fill="none" stroke="#63b8ff" d="M621.99,-274.98C630.86,-267.15 644.22,-255.34 654.95,-245.86"/>
<polygon fill="#63b8ff" stroke="#63b8ff" points="657.35,-248.41 662.53,-239.17 652.72,-243.17 657.35,-248.41"/>
</g>
<!-- Node30 -->
<g id="node30" class="node">
<title>Node30</title>
<g id="a_node30"><a xlink:href="../../d4/d7d/textstream_8h.html" target="_top" xlink:title=" ">
<polygon fill="white" stroke="#666666" points="1151.35,-184 1071.35,-184 1071.35,-165 1151.35,-165 1151.35,-184"/>
<text text-anchor="middle" x="1111.35" y="-172" font-family="Helvetica,sans-Serif" font-size="10.00">textstream.h</text>
</a>
</g>
</g>
<!-- Node24&#45;&gt;Node30 -->
<g id="edge51" class="edge">
<title>Node24&#45;&gt;Node30</title>
<path fill="none" stroke="#63b8ff" d="M650.11,-281.99C738.83,-278.03 958.22,-265.76 1026.35,-239 1053.5,-228.33 1079.59,-206.56 1095.54,-191.5"/>
<polygon fill="#63b8ff" stroke="#63b8ff" points="1098.18,-193.82 1102.91,-184.34 1093.3,-188.8 1098.18,-193.82"/>
</g>
<!-- Node33 -->
<g id="node33" class="node">
<title>Node33</title>
<g id="a_node33"><a xlink:href="../../de/d9c/docparser_8h.html" target="_top" xlink:title=" ">
<polygon fill="white" stroke="#666666" points="588.85,-239 515.85,-239 515.85,-220 588.85,-220 588.85,-239"/>
<text text-anchor="middle" x="552.35" y="-227" font-family="Helvetica,sans-Serif" font-size="10.00">docparser.h</text>
</a>
</g>
</g>
<!-- Node24&#45;&gt;Node33 -->
<g id="edge60" class="edge">
<title>Node24&#45;&gt;Node33</title>
<path fill="none" stroke="#63b8ff" d="M602.71,-274.98C593.84,-267.15 580.47,-255.34 569.74,-245.86"/>
<polygon fill="#63b8ff" stroke="#63b8ff" points="571.97,-243.17 562.16,-239.17 567.34,-248.41 571.97,-243.17"/>
</g>
<!-- Node27&#45;&gt;Node5 -->
<g id="edge35" class="edge">
<title>Node27&#45;&gt;Node5</title>
<path fill="none" stroke="#63b8ff" d="M343.54,-164.75C341.29,-157.72 338.05,-147.62 335.23,-138.84"/>
<polygon fill="#63b8ff" stroke="#63b8ff" points="338.49,-137.54 332.1,-129.09 331.82,-139.68 338.49,-137.54"/>
</g>
<!-- Node27&#45;&gt;Node6 -->
<g id="edge37" class="edge">
<title>Node27&#45;&gt;Node6</title>
<path fill="none" stroke="#63b8ff" d="M319.63,-168.98C279.68,-162.03 201.86,-147.79 126.67,-129.14"/>
<polygon fill="#63b8ff" stroke="#63b8ff" points="127.11,-125.64 116.56,-126.6 125.4,-132.43 127.11,-125.64"/>
</g>
<!-- Node27&#45;&gt;Node9 -->
<g id="edge38" class="edge">
<title>Node27&#45;&gt;Node9</title>
<path fill="none" stroke="#63b8ff" d="M373.05,-170.32C387.12,-168.68 404.66,-166.67 420.35,-165 571.27,-148.94 750.66,-131.98 831.31,-124.48"/>
<polygon fill="#63b8ff" stroke="#63b8ff" points="831.93,-127.93 841.57,-123.52 831.29,-120.96 831.93,-127.93"/>
</g>
<!-- Node27&#45;&gt;Node19 -->
<g id="edge36" class="edge">
<title>Node27&#45;&gt;Node19</title>
<path fill="none" stroke="#63b8ff" d="M355.26,-164.75C363.13,-157.03 374.78,-145.6 384.26,-136.28"/>
<polygon fill="#63b8ff" stroke="#63b8ff" points="386.91,-138.59 391.59,-129.09 382.01,-133.6 386.91,-138.59"/>
</g>
<!-- Node28&#45;&gt;Node7 -->
<g id="edge40" class="edge">
<title>Node28&#45;&gt;Node7</title>
<path fill="none" stroke="#63b8ff" d="M685.15,-219.69C696,-211.6 711.21,-198.66 720.35,-184 751.89,-133.39 765.23,-62.55 770.03,-29.23"/>
<polygon fill="#63b8ff" stroke="#63b8ff" points="773.53,-29.48 771.39,-19.1 766.59,-28.55 773.53,-29.48"/>
</g>
<!-- Node28&#45;&gt;Node9 -->
<g id="edge42" class="edge">
<title>Node28&#45;&gt;Node9</title>
<path fill="none" stroke="#63b8ff" d="M703.09,-225.85C752.66,-220.89 846.87,-208.44 868.35,-184 878.96,-171.92 879.46,-153.12 877.91,-139.1"/>
<polygon fill="#63b8ff" stroke="#63b8ff" points="881.35,-138.47 876.38,-129.11 874.44,-139.53 881.35,-138.47"/>
</g>
<!-- Node28&#45;&gt;Node22 -->
<g id="edge41" class="edge">
<title>Node28&#45;&gt;Node22</title>
<path fill="none" stroke="#63b8ff" d="M663.32,-219.99C653.84,-211.05 638.51,-196.57 625.35,-184 608.39,-167.82 589.08,-149.22 575.75,-136.35"/>
<polygon fill="#63b8ff" stroke="#63b8ff" points="577.92,-133.58 568.29,-129.15 573.05,-138.61 577.92,-133.58"/>
</g>
<!-- Node29 -->
<g id="node29" class="node">
<title>Node29</title>
<g id="a_node29"><a xlink:href="../../da/de1/linkedmap_8h.html" target="_top" xlink:title=" ">
<polygon fill="white" stroke="#666666" points="710.85,-184 633.85,-184 633.85,-165 710.85,-165 710.85,-184"/>
<text text-anchor="middle" x="672.35" y="-172" font-family="Helvetica,sans-Serif" font-size="10.00">linkedmap.h</text>
</a>
</g>
</g>
<!-- Node28&#45;&gt;Node29 -->
<g id="edge43" class="edge">
<title>Node28&#45;&gt;Node29</title>
<path fill="none" stroke="#63b8ff" d="M672.35,-219.75C672.35,-212.8 672.35,-202.85 672.35,-194.13"/>
<polygon fill="#63b8ff" stroke="#63b8ff" points="675.85,-194.09 672.35,-184.09 668.85,-194.09 675.85,-194.09"/>
</g>
<!-- Node29&#45;&gt;Node5 -->
<g id="edge46" class="edge">
<title>Node29&#45;&gt;Node5</title>
<path fill="none" stroke="#63b8ff" d="M633.68,-168.81C577.49,-161.78 469.82,-147.53 368.45,-129.08"/>
<polygon fill="#63b8ff" stroke="#63b8ff" points="368.81,-125.59 358.35,-127.22 367.55,-132.47 368.81,-125.59"/>
</g>
<!-- Node29&#45;&gt;Node7 -->
<g id="edge47" class="edge">
<title>Node29&#45;&gt;Node7</title>
<path fill="none" stroke="#63b8ff" d="M664.69,-164.98C643.76,-141.22 588.16,-74.7 603.35,-55 619.94,-33.48 696.06,-20.29 740.28,-14.3"/>
<polygon fill="#63b8ff" stroke="#63b8ff" points="740.79,-17.77 750.25,-13 739.88,-10.83 740.79,-17.77"/>
</g>
<!-- Node29&#45;&gt;Node9 -->
<g id="edge50" class="edge">
<title>Node29&#45;&gt;Node9</title>
<path fill="none" stroke="#63b8ff" d="M704.8,-164.98C739.3,-155.93 794.01,-141.58 831.91,-131.64"/>
<polygon fill="#63b8ff" stroke="#63b8ff" points="832.85,-135.01 841.64,-129.08 831.08,-128.23 832.85,-135.01"/>
</g>
<!-- Node29&#45;&gt;Node10 -->
<g id="edge48" class="edge">
<title>Node29&#45;&gt;Node10</title>
<path fill="none" stroke="#63b8ff" d="M670.05,-164.66C665.5,-147.09 655.22,-107.45 649.13,-83.95"/>
<polygon fill="#63b8ff" stroke="#63b8ff" points="652.49,-82.96 646.59,-74.16 645.71,-84.72 652.49,-82.96"/>
</g>
<!-- Node29&#45;&gt;Node11 -->
<g id="edge49" class="edge">
<title>Node29&#45;&gt;Node11</title>
<path fill="none" stroke="#63b8ff" d="M676.19,-164.66C683.87,-147.01 701.25,-107.09 711.45,-83.64"/>
<polygon fill="#63b8ff" stroke="#63b8ff" points="714.8,-84.72 715.58,-74.16 708.38,-81.93 714.8,-84.72"/>
</g>
<!-- Node29&#45;&gt;Node19 -->
<g id="edge45" class="edge">
<title>Node29&#45;&gt;Node19</title>
<path fill="none" stroke="#63b8ff" d="M633.5,-167.24C587.93,-159.68 509.91,-146.1 434.24,-129.3"/>
<polygon fill="#63b8ff" stroke="#63b8ff" points="434.59,-125.79 424.06,-127.02 433.05,-132.62 434.59,-125.79"/>
</g>
<!-- Node29&#45;&gt;Node22 -->
<g id="edge44" class="edge">
<title>Node29&#45;&gt;Node22</title>
<path fill="none" stroke="#63b8ff" d="M654.19,-164.98C636.09,-156.5 608.06,-143.35 587.16,-133.54"/>
<polygon fill="#63b8ff" stroke="#63b8ff" points="588.37,-130.25 577.83,-129.17 585.4,-136.59 588.37,-130.25"/>
</g>
<!-- Node30&#45;&gt;Node7 -->
<g id="edge52" class="edge">
<title>Node30&#45;&gt;Node7</title>
<path fill="none" stroke="#63b8ff" d="M1127.53,-164.89C1163.04,-144.96 1241.86,-94.34 1206.35,-55 1179.5,-25.26 900.6,-14.28 804.6,-11.37"/>
<polygon fill="#63b8ff" stroke="#63b8ff" points="804.7,-7.87 794.6,-11.07 804.49,-14.87 804.7,-7.87"/>
</g>
<!-- Node30&#45;&gt;Node9 -->
<g id="edge59" class="edge">
<title>Node30&#45;&gt;Node9</title>
<path fill="none" stroke="#63b8ff" d="M1073.27,-164.98C1030.54,-155.43 961.39,-139.97 916.91,-130.02"/>
<polygon fill="#63b8ff" stroke="#63b8ff" points="917.51,-126.57 906.99,-127.8 915.98,-133.4 917.51,-126.57"/>
</g>
<!-- Node30&#45;&gt;Node13 -->
<g id="edge56" class="edge">
<title>Node30&#45;&gt;Node13</title>
<path fill="none" stroke="#63b8ff" d="M1122.67,-164.79C1132.62,-156.57 1146.81,-143.39 1155.35,-129 1163.52,-115.22 1168.42,-97.65 1171.19,-84.48"/>
<polygon fill="#63b8ff" stroke="#63b8ff" points="1174.71,-84.73 1173.11,-74.26 1167.83,-83.44 1174.71,-84.73"/>
</g>
<!-- Node30&#45;&gt;Node15 -->
<g id="edge55" class="edge">
<title>Node30&#45;&gt;Node15</title>
<path fill="none" stroke="#63b8ff" d="M1151.52,-171.34C1181.14,-167.39 1219.58,-156.8 1239.35,-129 1258.4,-102.2 1257.98,-82.1 1239.35,-55 1221.44,-28.95 1186.02,-18.14 1159.01,-13.66"/>
<polygon fill="#63b8ff" stroke="#63b8ff" points="1159.15,-10.15 1148.76,-12.19 1158.16,-17.08 1159.15,-10.15"/>
</g>
<!-- Node30&#45;&gt;Node25 -->
<g id="edge53" class="edge">
<title>Node30&#45;&gt;Node25</title>
<path fill="none" stroke="#63b8ff" d="M1086.28,-164.98C1060.32,-156.16 1019.54,-142.31 990.39,-132.41"/>
<polygon fill="#63b8ff" stroke="#63b8ff" points="991.2,-128.99 980.61,-129.08 988.95,-135.61 991.2,-128.99"/>
</g>
<!-- Node30&#45;&gt;Node26 -->
<g id="edge57" class="edge">
<title>Node30&#45;&gt;Node26</title>
<path fill="none" stroke="#63b8ff" d="M1098.49,-164.98C1086.2,-156.84 1067.44,-144.41 1052.87,-134.76"/>
<polygon fill="#63b8ff" stroke="#63b8ff" points="1054.7,-131.78 1044.43,-129.17 1050.84,-137.61 1054.7,-131.78"/>
</g>
<!-- Node31 -->
<g id="node31" class="node">
<title>Node31</title>
<g id="a_node31"><a xlink:title=" ">
<polygon fill="#e0e0e0" stroke="#999999" points="1347.35,-129 1291.35,-129 1291.35,-110 1347.35,-110 1347.35,-129"/>
<text text-anchor="middle" x="1319.35" y="-117" font-family="Helvetica,sans-Serif" font-size="10.00">sstream</text>
</a>
</g>
</g>
<!-- Node30&#45;&gt;Node31 -->
<g id="edge54" class="edge">
<title>Node30&#45;&gt;Node31</title>
<path fill="none" stroke="#63b8ff" d="M1144.76,-164.98C1182.08,-155.48 1242.36,-140.12 1281.41,-130.17"/>
<polygon fill="#63b8ff" stroke="#63b8ff" points="1282.52,-133.5 1291.34,-127.63 1280.79,-126.71 1282.52,-133.5"/>
</g>
<!-- Node32 -->
<g id="node32" class="node">
<title>Node32</title>
<g id="a_node32"><a xlink:title=" ">
<polygon fill="#e0e0e0" stroke="#999999" points="1145.85,-129 1076.85,-129 1076.85,-110 1145.85,-110 1145.85,-129"/>
<text text-anchor="middle" x="1111.35" y="-117" font-family="Helvetica,sans-Serif" font-size="10.00">type_traits</text>
</a>
</g>
</g>
<!-- Node30&#45;&gt;Node32 -->
<g id="edge58" class="edge">
<title>Node30&#45;&gt;Node32</title>
<path fill="none" stroke="#63b8ff" d="M1111.35,-164.75C1111.35,-157.8 1111.35,-147.85 1111.35,-139.13"/>
<polygon fill="#63b8ff" stroke="#63b8ff" points="1114.85,-139.09 1111.35,-129.09 1107.85,-139.09 1114.85,-139.09"/>
</g>
<!-- Node33&#45;&gt;Node5 -->
<g id="edge62" class="edge">
<title>Node33&#45;&gt;Node5</title>
<path fill="none" stroke="#63b8ff" d="M518.47,-219.95C491.16,-212.39 452.19,-200.07 420.35,-184 393.3,-170.35 365.14,-149.51 347.44,-135.46"/>
<polygon fill="#63b8ff" stroke="#63b8ff" points="349.63,-132.73 339.65,-129.17 345.23,-138.18 349.63,-132.73"/>
</g>
<!-- Node33&#45;&gt;Node9 -->
<g id="edge63" class="edge">
<title>Node33&#45;&gt;Node9</title>
<path fill="none" stroke="#63b8ff" d="M589.13,-220.24C623.45,-212.18 675.88,-198.98 720.35,-184 765.35,-168.83 815.99,-146.99 846.51,-133.28"/>
<polygon fill="#63b8ff" stroke="#63b8ff" points="848.02,-136.45 855.68,-129.14 845.13,-130.07 848.02,-136.45"/>
</g>
<!-- Node34 -->
<g id="node34" class="node">
<title>Node34</title>
<g id="a_node34"><a xlink:title=" ">
<polygon fill="#e0e0e0" stroke="#999999" points="577.35,-184 527.35,-184 527.35,-165 577.35,-165 577.35,-184"/>
<text text-anchor="middle" x="552.35" y="-172" font-family="Helvetica,sans-Serif" font-size="10.00">stdio.h</text>
</a>
</g>
</g>
<!-- Node33&#45;&gt;Node34 -->
<g id="edge61" class="edge">
<title>Node33&#45;&gt;Node34</title>
<path fill="none" stroke="#63b8ff" d="M552.35,-219.75C552.35,-212.8 552.35,-202.85 552.35,-194.13"/>
<polygon fill="#63b8ff" stroke="#63b8ff" points="555.85,-194.09 552.35,-184.09 548.85,-194.09 555.85,-194.09"/>
</g>
<!-- Node35 -->
<g id="node35" class="node">
<title>Node35</title>
<g id="a_node35"><a xlink:href="../../d7/d50/growvector_8h.html" target="_top" xlink:title=" ">
<polygon fill="white" stroke="#666666" points="509.35,-184 429.35,-184 429.35,-165 509.35,-165 509.35,-184"/>
<text text-anchor="middle" x="469.35" y="-172" font-family="Helvetica,sans-Serif" font-size="10.00">growvector.h</text>
</a>
</g>
</g>
<!-- Node33&#45;&gt;Node35 -->
<g id="edge64" class="edge">
<title>Node33&#45;&gt;Node35</title>
<path fill="none" stroke="#63b8ff" d="M539.01,-219.98C526.26,-211.84 506.79,-199.41 491.68,-189.76"/>
<polygon fill="#63b8ff" stroke="#63b8ff" points="493.24,-186.6 482.92,-184.17 489.47,-192.5 493.24,-186.6"/>
</g>
<!-- Node35&#45;&gt;Node5 -->
<g id="edge66" class="edge">
<title>Node35&#45;&gt;Node5</title>
<path fill="none" stroke="#63b8ff" d="M446.85,-164.98C423.82,-156.27 387.81,-142.63 361.71,-132.75"/>
<polygon fill="#63b8ff" stroke="#63b8ff" points="362.84,-129.44 352.25,-129.17 360.36,-135.98 362.84,-129.44"/>
</g>
<!-- Node35&#45;&gt;Node19 -->
<g id="edge65" class="edge">
<title>Node35&#45;&gt;Node19</title>
<path fill="none" stroke="#63b8ff" d="M458.26,-164.98C447.86,-157 432.09,-144.88 419.62,-135.31"/>
<polygon fill="#63b8ff" stroke="#63b8ff" points="421.7,-132.49 411.63,-129.17 417.43,-138.04 421.7,-132.49"/>
</g>
<!-- Node36 -->
<g id="node36" class="node">
<title>Node36</title>
<g id="a_node36"><a xlink:title=" ">
<polygon fill="#e0e0e0" stroke="#999999" points="494.85,-129 441.85,-129 441.85,-110 494.85,-110 494.85,-129"/>
<text text-anchor="middle" x="468.35" y="-117" font-family="Helvetica,sans-Serif" font-size="10.00">iterator</text>
</a>
</g>
</g>
<!-- Node35&#45;&gt;Node36 -->
<g id="edge67" class="edge">
<title>Node35&#45;&gt;Node36</title>
<path fill="none" stroke="#63b8ff" d="M469.18,-164.75C469.05,-157.8 468.86,-147.85 468.7,-139.13"/>
<polygon fill="#63b8ff" stroke="#63b8ff" points="472.2,-139.02 468.51,-129.09 465.2,-139.15 472.2,-139.02"/>
</g>
</g>
</svg>
