<?xml version="1.0" encoding="UTF-8" standalone="no"?>
<!DOCTYPE svg PUBLIC "-//W3C//DTD SVG 1.1//EN"
 "http://www.w3.org/Graphics/SVG/1.1/DTD/svg11.dtd">
<!-- Generated by graphviz version 2.43.0 (0)
 -->
<!-- Title: /home/runner/work/doxygen/doxygen/src/cache.h Pages: 1 -->
<svg width="353pt" height="93pt"
 viewBox="0.00 0.00 352.50 93.00" xmlns="http://www.w3.org/2000/svg" xmlns:xlink="http://www.w3.org/1999/xlink">
<g id="graph0" class="graph" transform="scale(1 1) rotate(0) translate(4 89)">
<title>/home/runner/work/doxygen/doxygen/src/cache.h</title>
<!-- Node1 -->
<g id="node1" class="node">
<title>Node1</title>
<g id="a_node1"><a xlink:title=" ">
<polygon fill="#999999" stroke="#666666" points="263,-85 109,-85 109,-55 263,-55 263,-85"/>
<text text-anchor="start" x="117" y="-73" font-family="Helvetica,sans-Serif" font-size="10.00">/home/runner/work/doxygen</text>
<text text-anchor="middle" x="186" y="-62" font-family="Helvetica,sans-Serif" font-size="10.00">/doxygen/src/cache.h</text>
</a>
</g>
</g>
<!-- Node2 -->
<g id="node2" class="node">
<title>Node2</title>
<g id="a_node2"><a xlink:title=" ">
<polygon fill="#e0e0e0" stroke="#999999" points="32,-19 0,-19 0,0 32,0 32,-19"/>
<text text-anchor="middle" x="16" y="-7" font-family="Helvetica,sans-Serif" font-size="10.00">list</text>
</a>
</g>
</g>
<!-- Node1&#45;&gt;Node2 -->
<g id="edge1" class="edge">
<title>Node1&#45;&gt;Node2</title>
<path fill="none" stroke="#63b8ff" d="M145.28,-54.99C113.23,-43.96 69.52,-28.92 42.03,-19.46"/>
<polygon fill="#63b8ff" stroke="#63b8ff" points="42.94,-16.07 32.35,-16.13 40.67,-22.69 42.94,-16.07"/>
</g>
<!-- Node3 -->
<g id="node3" class="node">
<title>Node3</title>
<g id="a_node3"><a xlink:title=" ">
<polygon fill="#e0e0e0" stroke="#999999" points="143.5,-19 50.5,-19 50.5,0 143.5,0 143.5,-19"/>
<text text-anchor="middle" x="97" y="-7" font-family="Helvetica,sans-Serif" font-size="10.00">unordered_map</text>
</a>
</g>
</g>
<!-- Node1&#45;&gt;Node3 -->
<g id="edge2" class="edge">
<title>Node1&#45;&gt;Node3</title>
<path fill="none" stroke="#63b8ff" d="M164.46,-54.84C150.53,-45.68 132.47,-33.82 118.55,-24.66"/>
<polygon fill="#63b8ff" stroke="#63b8ff" points="120.35,-21.66 110.08,-19.09 116.51,-27.51 120.35,-21.66"/>
</g>
<!-- Node4 -->
<g id="node4" class="node">
<title>Node4</title>
<g id="a_node4"><a xlink:title=" ">
<polygon fill="#e0e0e0" stroke="#999999" points="210,-19 162,-19 162,0 210,0 210,-19"/>
<text text-anchor="middle" x="186" y="-7" font-family="Helvetica,sans-Serif" font-size="10.00">mutex</text>
</a>
</g>
</g>
<!-- Node1&#45;&gt;Node4 -->
<g id="edge3" class="edge">
<title>Node1&#45;&gt;Node4</title>
<path fill="none" stroke="#63b8ff" d="M186,-54.84C186,-47.21 186,-37.7 186,-29.45"/>
<polygon fill="#63b8ff" stroke="#63b8ff" points="189.5,-29.27 186,-19.27 182.5,-29.27 189.5,-29.27"/>
</g>
<!-- Node5 -->
<g id="node5" class="node">
<title>Node5</title>
<g id="a_node5"><a xlink:title=" ">
<polygon fill="#e0e0e0" stroke="#999999" points="273.5,-19 228.5,-19 228.5,0 273.5,0 273.5,-19"/>
<text text-anchor="middle" x="251" y="-7" font-family="Helvetica,sans-Serif" font-size="10.00">utility</text>
</a>
</g>
</g>
<!-- Node1&#45;&gt;Node5 -->
<g id="edge4" class="edge">
<title>Node1&#45;&gt;Node5</title>
<path fill="none" stroke="#63b8ff" d="M201.73,-54.84C211.36,-46.17 223.69,-35.08 233.61,-26.15"/>
<polygon fill="#63b8ff" stroke="#63b8ff" points="236.17,-28.56 241.26,-19.27 231.49,-23.35 236.17,-28.56"/>
</g>
<!-- Node6 -->
<g id="node6" class="node">
<title>Node6</title>
<g id="a_node6"><a xlink:title=" ">
<polygon fill="#e0e0e0" stroke="#999999" points="344.5,-19 291.5,-19 291.5,0 344.5,0 344.5,-19"/>
<text text-anchor="middle" x="318" y="-7" font-family="Helvetica,sans-Serif" font-size="10.00">ctype.h</text>
</a>
</g>
</g>
<!-- Node1&#45;&gt;Node6 -->
<g id="edge5" class="edge">
<title>Node1&#45;&gt;Node6</title>
<path fill="none" stroke="#63b8ff" d="M217.62,-54.99C239.35,-45.36 267.97,-32.67 289.09,-23.31"/>
<polygon fill="#63b8ff" stroke="#63b8ff" points="290.78,-26.39 298.51,-19.14 287.95,-19.99 290.78,-26.39"/>
</g>
</g>
</svg>
