<?xml version="1.0" encoding="UTF-8" standalone="no"?>
<!DOCTYPE svg PUBLIC "-//W3C//DTD SVG 1.1//EN"
 "http://www.w3.org/Graphics/SVG/1.1/DTD/svg11.dtd">
<!-- Generated by graphviz version 2.43.0 (0)
 -->
<!-- Title: Definition Pages: 1 -->
<!--zoomable 494 -->
<svg id="main" version="1.1" xmlns="http://www.w3.org/2000/svg" xmlns:xlink="http://www.w3.org/1999/xlink" xml:space="preserve" onload="init(evt)">
<style type="text/css"><![CDATA[
.edge:hover path { stroke: red; }
.edge:hover polygon { stroke: red; fill: red; }
]]></style>
<script type="text/javascript"><![CDATA[
var edges = document.getElementsByTagName('g');
if (edges && edges.length) {
  for (var i=0;i<edges.length;i++) {
    if (edges[i].id.substr(0,4)=='edge') {
      edges[i].setAttribute('class','edge');
    }
  }
}
]]></script>
        <defs>
                <circle id="rim" cx="0" cy="0" r="7"/>
                <circle id="rim2" cx="0" cy="0" r="3.5"/>
                <g id="zoomPlus">
                        <use xlink:href="#rim" fill="#404040">
                                <set attributeName="fill" to="#808080" begin="zoomplus.mouseover" end="zoomplus.mouseout"/>
                        </use>
                        <path d="M-4,0h8M0,-4v8" fill="none" stroke="white" stroke-width="1.5" pointer-events="none"/>
                </g>
                <g id="zoomMin">
                        <use xlink:href="#rim" fill="#404040">
                                <set attributeName="fill" to="#808080" begin="zoomminus.mouseover" end="zoomminus.mouseout"/>
                        </use>
                        <path d="M-4,0h8" fill="none" stroke="white" stroke-width="1.5" pointer-events="none"/>
                </g>
                <g id="dirArrow">
                        <path fill="none" stroke="white" stroke-width="1.5" d="M0,-3.0v7 M-2.5,-0.5L0,-3.0L2.5,-0.5"/>
                </g>
               <g id="resetDef">
                       <use xlink:href="#rim2" fill="#404040">
                               <set attributeName="fill" to="#808080" begin="reset.mouseover" end="reset.mouseout"/>
                       </use>
               </g>
        </defs>

<script type="text/javascript">
var viewWidth = 741;
var viewHeight = 494;
var sectionId = 'dynsection-0';
</script>
<script xlink:href="../../svgpan.js"/>
<svg id="graph" class="graph">
<g id="viewport">
<title>Definition</title>
<!-- Node1 -->
<g id="node1" class="node">
<title>Node1</title>
<g id="a_node1"><a xlink:title="The common base class of all entity definitions found in the sources.">
<polygon fill="#999999" stroke="#666666" points="64,-252 0,-252 0,-233 64,-233 64,-252"/>
<text text-anchor="middle" x="32" y="-240" font-family="Helvetica,sans-Serif" font-size="10.00">Definition</text>
</a>
</g>
</g>
<!-- Node2 -->
<g id="node2" class="node">
<title>Node2</title>
<g id="a_node2"><a xlink:href="../../d1/dcf/class_class_def.html" target="_top" xlink:title="A abstract class representing of a compound symbol.">
<polygon fill="white" stroke="#666666" points="176,-437 116,-437 116,-418 176,-418 176,-437"/>
<text text-anchor="middle" x="146" y="-425" font-family="Helvetica,sans-Serif" font-size="10.00">ClassDef</text>
</a>
</g>
</g>
<!-- Node1&#45;&gt;Node2 -->
<g id="edge1" class="edge">
<title>Node1&#45;&gt;Node2</title>
<path fill="none" stroke="#63b8ff" d="M42.94,-260.99C55.67,-284.44 78.64,-325.96 100,-360.5 112.83,-381.24 129,-404.74 138.05,-417.66"/>
<polygon fill="#63b8ff" stroke="#63b8ff" points="45.98,-259.26 38.15,-252.12 39.82,-262.59 45.98,-259.26"/>
</g>
<!-- Node8 -->
<g id="node8" class="node">
<title>Node8</title>
<g id="a_node8"><a xlink:href="../../d6/d8d/class_concept_def.html" target="_top" xlink:title=" ">
<polygon fill="white" stroke="#666666" points="183,-351 109,-351 109,-332 183,-332 183,-351"/>
<text text-anchor="middle" x="146" y="-339" font-family="Helvetica,sans-Serif" font-size="10.00">ConceptDef</text>
</a>
</g>
</g>
<!-- Node1&#45;&gt;Node8 -->
<g id="edge7" class="edge">
<title>Node1&#45;&gt;Node8</title>
<path fill="none" stroke="#63b8ff" d="M46.06,-260.43C58.58,-276.74 78.68,-300.76 100,-317.5 107.1,-323.08 115.69,-328.02 123.45,-331.95"/>
<polygon fill="#63b8ff" stroke="#63b8ff" points="48.73,-258.15 39.92,-252.25 43.13,-262.35 48.73,-258.15"/>
</g>
<!-- Node14 -->
<g id="node14" class="node">
<title>Node14</title>
<g id="a_node14"><a xlink:href="../../d4/dd4/class_dir_def.html" target="_top" xlink:title="A model of a directory symbol.">
<polygon fill="white" stroke="#666666" points="170,-308 122,-308 122,-289 170,-289 170,-308"/>
<text text-anchor="middle" x="146" y="-296" font-family="Helvetica,sans-Serif" font-size="10.00">DirDef</text>
</a>
</g>
</g>
<!-- Node1&#45;&gt;Node14 -->
<g id="edge13" class="edge">
<title>Node1&#45;&gt;Node14</title>
<path fill="none" stroke="#63b8ff" d="M57.29,-257.33C69.83,-264.71 85.5,-273.53 100,-280.5 106.98,-283.85 114.75,-287.12 121.85,-289.93"/>
<polygon fill="#63b8ff" stroke="#63b8ff" points="58.76,-254.14 48.38,-252.02 55.18,-260.15 58.76,-254.14"/>
</g>
<!-- Node17 -->
<g id="node17" class="node">
<title>Node17</title>
<g id="a_node17"><a xlink:href="../../de/db0/class_file_def.html" target="_top" xlink:title="A model of a file symbol.">
<polygon fill="white" stroke="#666666" points="171.5,-271 120.5,-271 120.5,-252 171.5,-252 171.5,-271"/>
<text text-anchor="middle" x="146" y="-259" font-family="Helvetica,sans-Serif" font-size="10.00">FileDef</text>
</a>
</g>
</g>
<!-- Node1&#45;&gt;Node17 -->
<g id="edge16" class="edge">
<title>Node1&#45;&gt;Node17</title>
<path fill="none" stroke="#63b8ff" d="M74.11,-249.47C89.63,-252.11 106.8,-255.02 120.35,-257.32"/>
<polygon fill="#63b8ff" stroke="#63b8ff" points="74.64,-246.01 64.2,-247.79 73.47,-252.92 74.64,-246.01"/>
</g>
<!-- Node20 -->
<g id="node20" class="node">
<title>Node20</title>
<g id="a_node20"><a xlink:href="../../d8/d09/class_group_def.html" target="_top" xlink:title="A model of a group of symbols.">
<polygon fill="white" stroke="#666666" points="177.5,-234 114.5,-234 114.5,-215 177.5,-215 177.5,-234"/>
<text text-anchor="middle" x="146" y="-222" font-family="Helvetica,sans-Serif" font-size="10.00">GroupDef</text>
</a>
</g>
</g>
<!-- Node1&#45;&gt;Node20 -->
<g id="edge19" class="edge">
<title>Node1&#45;&gt;Node20</title>
<path fill="none" stroke="#63b8ff" d="M74.09,-235.9C87.41,-233.76 101.94,-231.42 114.36,-229.42"/>
<polygon fill="#63b8ff" stroke="#63b8ff" points="73.52,-232.44 64.2,-237.49 74.63,-239.35 73.52,-232.44"/>
</g>
<!-- Node23 -->
<g id="node23" class="node">
<title>Node23</title>
<g id="a_node23"><a xlink:href="../../da/d09/class_member_def.html" target="_top" xlink:title="A model of a class/file/namespace member symbol.">
<polygon fill="white" stroke="#666666" points="183,-191 109,-191 109,-172 183,-172 183,-191"/>
<text text-anchor="middle" x="146" y="-179" font-family="Helvetica,sans-Serif" font-size="10.00">MemberDef</text>
</a>
</g>
</g>
<!-- Node1&#45;&gt;Node23 -->
<g id="edge22" class="edge">
<title>Node1&#45;&gt;Node23</title>
<path fill="none" stroke="#63b8ff" d="M59.5,-228.06C80.42,-216.67 109.02,-201.1 127.25,-191.17"/>
<polygon fill="#63b8ff" stroke="#63b8ff" points="57.61,-225.11 50.5,-232.97 60.96,-231.26 57.61,-225.11"/>
</g>
<!-- Node29 -->
<g id="node29" class="node">
<title>Node29</title>
<g id="a_node29"><a xlink:href="../../d0/d07/class_namespace_def.html" target="_top" xlink:title="An abstract interface of a namespace symbol.">
<polygon fill="white" stroke="#666666" points="192,-105 100,-105 100,-86 192,-86 192,-105"/>
<text text-anchor="middle" x="146" y="-93" font-family="Helvetica,sans-Serif" font-size="10.00">NamespaceDef</text>
</a>
</g>
</g>
<!-- Node1&#45;&gt;Node29 -->
<g id="edge28" class="edge">
<title>Node1&#45;&gt;Node29</title>
<path fill="none" stroke="#63b8ff" d="M46.63,-224.61C70.44,-193.36 118.86,-129.8 137.48,-105.37"/>
<polygon fill="#63b8ff" stroke="#63b8ff" points="43.63,-222.78 40.35,-232.85 49.19,-227.02 43.63,-222.78"/>
</g>
<!-- Node35 -->
<g id="node35" class="node">
<title>Node35</title>
<g id="a_node35"><a xlink:href="../../dd/d41/class_page_def.html" target="_top" xlink:title="A model of a page symbol.">
<polygon fill="white" stroke="#666666" points="174.5,-47 117.5,-47 117.5,-28 174.5,-28 174.5,-47"/>
<text text-anchor="middle" x="146" y="-35" font-family="Helvetica,sans-Serif" font-size="10.00">PageDef</text>
</a>
</g>
</g>
<!-- Node1&#45;&gt;Node35 -->
<g id="edge34" class="edge">
<title>Node1&#45;&gt;Node35</title>
<path fill="none" stroke="#63b8ff" d="M37.84,-222.81C46.47,-190.33 66.81,-124.49 100,-77.5 108.56,-65.38 121.47,-54.4 131.27,-47.02"/>
<polygon fill="#63b8ff" stroke="#63b8ff" points="34.37,-222.26 35.27,-232.81 41.15,-224 34.37,-222.26"/>
</g>
<!-- Node3 -->
<g id="node3" class="node">
<title>Node3</title>
<g id="a_node3"><a xlink:href="../../d8/d83/class_definition_alias_mixin.html" target="_top" xlink:title=" ">
<polygon fill="white" stroke="#666666" points="365.5,-485.5 250.5,-485.5 250.5,-455.5 365.5,-455.5 365.5,-485.5"/>
<text text-anchor="start" x="258.5" y="-473.5" font-family="Helvetica,sans-Serif" font-size="10.00">DefinitionAliasMixin</text>
<text text-anchor="middle" x="308" y="-462.5" font-family="Helvetica,sans-Serif" font-size="10.00">&lt; ClassDef &gt;</text>
</a>
</g>
</g>
<!-- Node2&#45;&gt;Node3 -->
<g id="edge2" class="edge">
<title>Node2&#45;&gt;Node3</title>
<path fill="none" stroke="#63b8ff" d="M186.1,-438.01C205.61,-443.25 229.55,-449.69 250.97,-455.44"/>
<polygon fill="#63b8ff" stroke="#63b8ff" points="186.91,-434.6 176.35,-435.39 185.1,-441.36 186.91,-434.6"/>
</g>
<!-- Node5 -->
<g id="node5" class="node">
<title>Node5</title>
<g id="a_node5"><a xlink:href="../../d0/dc2/class_class_def_mutable.html" target="_top" xlink:title=" ">
<polygon fill="white" stroke="#666666" points="358,-437 258,-437 258,-418 358,-418 358,-437"/>
<text text-anchor="middle" x="308" y="-425" font-family="Helvetica,sans-Serif" font-size="10.00">ClassDefMutable</text>
</a>
</g>
</g>
<!-- Node2&#45;&gt;Node5 -->
<g id="edge4" class="edge">
<title>Node2&#45;&gt;Node5</title>
<path fill="none" stroke="#63b8ff" d="M186.45,-427.5C207.98,-427.5 234.83,-427.5 257.73,-427.5"/>
<polygon fill="#63b8ff" stroke="#63b8ff" points="186.35,-424 176.35,-427.5 186.35,-431 186.35,-424"/>
</g>
<!-- Node4 -->
<g id="node4" class="node">
<title>Node4</title>
<g id="a_node4"><a xlink:href="../../d0/d2b/class_class_def_alias_impl.html" target="_top" xlink:title=" ">
<polygon fill="white" stroke="#666666" points="557,-480 451,-480 451,-461 557,-461 557,-480"/>
<text text-anchor="middle" x="504" y="-468" font-family="Helvetica,sans-Serif" font-size="10.00">ClassDefAliasImpl</text>
</a>
</g>
</g>
<!-- Node3&#45;&gt;Node4 -->
<g id="edge3" class="edge">
<title>Node3&#45;&gt;Node4</title>
<path fill="none" stroke="#63b8ff" d="M375.96,-470.5C400.5,-470.5 427.89,-470.5 450.94,-470.5"/>
<polygon fill="#63b8ff" stroke="#63b8ff" points="375.63,-467 365.63,-470.5 375.63,-474 375.63,-467"/>
</g>
<!-- Node6 -->
<g id="node6" class="node">
<title>Node6</title>
<g id="a_node6"><a xlink:href="../../dd/d10/class_definition_mixin.html" target="_top" xlink:title=" ">
<polygon fill="white" stroke="#666666" points="577,-442.5 431,-442.5 431,-412.5 577,-412.5 577,-442.5"/>
<text text-anchor="start" x="439" y="-430.5" font-family="Helvetica,sans-Serif" font-size="10.00">DefinitionMixin&lt; ClassDef</text>
<text text-anchor="middle" x="504" y="-419.5" font-family="Helvetica,sans-Serif" font-size="10.00">Mutable &gt;</text>
</a>
</g>
</g>
<!-- Node5&#45;&gt;Node6 -->
<g id="edge5" class="edge">
<title>Node5&#45;&gt;Node6</title>
<path fill="none" stroke="#63b8ff" d="M368.27,-427.5C387.99,-427.5 410.17,-427.5 430.76,-427.5"/>
<polygon fill="#63b8ff" stroke="#63b8ff" points="368.21,-424 358.21,-427.5 368.21,-431 368.21,-424"/>
</g>
<!-- Node7 -->
<g id="node7" class="node">
<title>Node7</title>
<g id="a_node7"><a xlink:href="../../d1/d25/class_class_def_impl.html" target="_top" xlink:title="Implementation of the ClassDef interface.">
<polygon fill="white" stroke="#666666" points="717.5,-437 635.5,-437 635.5,-418 717.5,-418 717.5,-437"/>
<text text-anchor="middle" x="676.5" y="-425" font-family="Helvetica,sans-Serif" font-size="10.00">ClassDefImpl</text>
</a>
</g>
</g>
<!-- Node6&#45;&gt;Node7 -->
<g id="edge6" class="edge">
<title>Node6&#45;&gt;Node7</title>
<path fill="none" stroke="#63b8ff" d="M587.57,-427.5C604.12,-427.5 620.8,-427.5 635.12,-427.5"/>
<polygon fill="#63b8ff" stroke="#63b8ff" points="587.31,-424 577.31,-427.5 587.31,-431 587.31,-424"/>
</g>
<!-- Node9 -->
<g id="node9" class="node">
<title>Node9</title>
<g id="a_node9"><a xlink:href="../../d8/d83/class_definition_alias_mixin.html" target="_top" xlink:title=" ">
<polygon fill="white" stroke="#666666" points="365.5,-399.5 250.5,-399.5 250.5,-369.5 365.5,-369.5 365.5,-399.5"/>
<text text-anchor="start" x="258.5" y="-387.5" font-family="Helvetica,sans-Serif" font-size="10.00">DefinitionAliasMixin</text>
<text text-anchor="middle" x="308" y="-376.5" font-family="Helvetica,sans-Serif" font-size="10.00">&lt; ConceptDef &gt;</text>
</a>
</g>
</g>
<!-- Node8&#45;&gt;Node9 -->
<g id="edge8" class="edge">
<title>Node8&#45;&gt;Node9</title>
<path fill="none" stroke="#63b8ff" d="M192.33,-353.68C210.63,-358.6 231.92,-364.32 251.16,-369.49"/>
<polygon fill="#63b8ff" stroke="#63b8ff" points="193.07,-350.26 182.51,-351.04 191.26,-357.02 193.07,-350.26"/>
</g>
<!-- Node11 -->
<g id="node11" class="node">
<title>Node11</title>
<g id="a_node11"><a xlink:href="../../d4/deb/class_concept_def_mutable.html" target="_top" xlink:title=" ">
<polygon fill="white" stroke="#666666" points="364.5,-351 251.5,-351 251.5,-332 364.5,-332 364.5,-351"/>
<text text-anchor="middle" x="308" y="-339" font-family="Helvetica,sans-Serif" font-size="10.00">ConceptDefMutable</text>
</a>
</g>
</g>
<!-- Node8&#45;&gt;Node11 -->
<g id="edge10" class="edge">
<title>Node8&#45;&gt;Node11</title>
<path fill="none" stroke="#63b8ff" d="M193.34,-341.5C211.47,-341.5 232.43,-341.5 251.37,-341.5"/>
<polygon fill="#63b8ff" stroke="#63b8ff" points="193.31,-338 183.31,-341.5 193.31,-345 193.31,-338"/>
</g>
<!-- Node10 -->
<g id="node10" class="node">
<title>Node10</title>
<g id="a_node10"><a xlink:href="../../dd/df3/class_concept_def_alias_impl.html" target="_top" xlink:title=" ">
<polygon fill="white" stroke="#666666" points="563.5,-394 444.5,-394 444.5,-375 563.5,-375 563.5,-394"/>
<text text-anchor="middle" x="504" y="-382" font-family="Helvetica,sans-Serif" font-size="10.00">ConceptDefAliasImpl</text>
</a>
</g>
</g>
<!-- Node9&#45;&gt;Node10 -->
<g id="edge9" class="edge">
<title>Node9&#45;&gt;Node10</title>
<path fill="none" stroke="#63b8ff" d="M375.69,-384.5C397.98,-384.5 422.64,-384.5 444.27,-384.5"/>
<polygon fill="#63b8ff" stroke="#63b8ff" points="375.63,-381 365.63,-384.5 375.63,-388 375.63,-381"/>
</g>
<!-- Node12 -->
<g id="node12" class="node">
<title>Node12</title>
<g id="a_node12"><a xlink:href="../../dd/d10/class_definition_mixin.html" target="_top" xlink:title=" ">
<polygon fill="white" stroke="#666666" points="575,-356.5 433,-356.5 433,-326.5 575,-326.5 575,-356.5"/>
<text text-anchor="start" x="441" y="-344.5" font-family="Helvetica,sans-Serif" font-size="10.00">DefinitionMixin&lt; Concept</text>
<text text-anchor="middle" x="504" y="-333.5" font-family="Helvetica,sans-Serif" font-size="10.00">DefMutable &gt;</text>
</a>
</g>
</g>
<!-- Node11&#45;&gt;Node12 -->
<g id="edge11" class="edge">
<title>Node11&#45;&gt;Node12</title>
<path fill="none" stroke="#63b8ff" d="M374.78,-341.5C393.49,-341.5 413.92,-341.5 432.87,-341.5"/>
<polygon fill="#63b8ff" stroke="#63b8ff" points="374.59,-338 364.59,-341.5 374.59,-345 374.59,-338"/>
</g>
<!-- Node13 -->
<g id="node13" class="node">
<title>Node13</title>
<g id="a_node13"><a xlink:href="../../d8/d72/class_concept_def_impl.html" target="_top" xlink:title=" ">
<polygon fill="white" stroke="#666666" points="724,-351 629,-351 629,-332 724,-332 724,-351"/>
<text text-anchor="middle" x="676.5" y="-339" font-family="Helvetica,sans-Serif" font-size="10.00">ConceptDefImpl</text>
</a>
</g>
</g>
<!-- Node12&#45;&gt;Node13 -->
<g id="edge12" class="edge">
<title>Node12&#45;&gt;Node13</title>
<path fill="none" stroke="#63b8ff" d="M585.57,-341.5C600.44,-341.5 615.5,-341.5 628.93,-341.5"/>
<polygon fill="#63b8ff" stroke="#63b8ff" points="585.33,-338 575.33,-341.5 585.33,-345 585.33,-338"/>
</g>
<!-- Node15 -->
<g id="node15" class="node">
<title>Node15</title>
<g id="a_node15"><a xlink:href="../../dd/d10/class_definition_mixin.html" target="_top" xlink:title=" ">
<polygon fill="white" stroke="#666666" points="380.5,-308 235.5,-308 235.5,-289 380.5,-289 380.5,-308"/>
<text text-anchor="middle" x="308" y="-296" font-family="Helvetica,sans-Serif" font-size="10.00">DefinitionMixin&lt; DirDef &gt;</text>
</a>
</g>
</g>
<!-- Node14&#45;&gt;Node15 -->
<g id="edge14" class="edge">
<title>Node14&#45;&gt;Node15</title>
<path fill="none" stroke="#63b8ff" d="M180.62,-298.5C196.52,-298.5 216.15,-298.5 235.16,-298.5"/>
<polygon fill="#63b8ff" stroke="#63b8ff" points="180.27,-295 170.27,-298.5 180.27,-302 180.27,-295"/>
</g>
<!-- Node16 -->
<g id="node16" class="node">
<title>Node16</title>
<g id="a_node16"><a xlink:href="../../d8/db7/class_dir_def_impl.html" target="_top" xlink:title=" ">
<polygon fill="white" stroke="#666666" points="539,-308 469,-308 469,-289 539,-289 539,-308"/>
<text text-anchor="middle" x="504" y="-296" font-family="Helvetica,sans-Serif" font-size="10.00">DirDefImpl</text>
</a>
</g>
</g>
<!-- Node15&#45;&gt;Node16 -->
<g id="edge15" class="edge">
<title>Node15&#45;&gt;Node16</title>
<path fill="none" stroke="#63b8ff" d="M391.04,-298.5C418.3,-298.5 447.17,-298.5 468.77,-298.5"/>
<polygon fill="#63b8ff" stroke="#63b8ff" points="390.69,-295 380.69,-298.5 390.69,-302 390.69,-295"/>
</g>
<!-- Node18 -->
<g id="node18" class="node">
<title>Node18</title>
<g id="a_node18"><a xlink:href="../../dd/d10/class_definition_mixin.html" target="_top" xlink:title=" ">
<polygon fill="white" stroke="#666666" points="382,-271 234,-271 234,-252 382,-252 382,-271"/>
<text text-anchor="middle" x="308" y="-259" font-family="Helvetica,sans-Serif" font-size="10.00">DefinitionMixin&lt; FileDef &gt;</text>
</a>
</g>
</g>
<!-- Node17&#45;&gt;Node18 -->
<g id="edge17" class="edge">
<title>Node17&#45;&gt;Node18</title>
<path fill="none" stroke="#63b8ff" d="M181.69,-261.5C197.02,-261.5 215.67,-261.5 233.85,-261.5"/>
<polygon fill="#63b8ff" stroke="#63b8ff" points="181.65,-258 171.65,-261.5 181.65,-265 181.65,-258"/>
</g>
<!-- Node19 -->
<g id="node19" class="node">
<title>Node19</title>
<g id="a_node19"><a xlink:href="../../d5/d14/class_file_def_impl.html" target="_top" xlink:title=" ">
<polygon fill="white" stroke="#666666" points="540.5,-271 467.5,-271 467.5,-252 540.5,-252 540.5,-271"/>
<text text-anchor="middle" x="504" y="-259" font-family="Helvetica,sans-Serif" font-size="10.00">FileDefImpl</text>
</a>
</g>
</g>
<!-- Node18&#45;&gt;Node19 -->
<g id="edge18" class="edge">
<title>Node18&#45;&gt;Node19</title>
<path fill="none" stroke="#63b8ff" d="M392.1,-261.5C418.49,-261.5 446.29,-261.5 467.45,-261.5"/>
<polygon fill="#63b8ff" stroke="#63b8ff" points="392.07,-258 382.07,-261.5 392.07,-265 392.07,-258"/>
</g>
<!-- Node21 -->
<g id="node21" class="node">
<title>Node21</title>
<g id="a_node21"><a xlink:href="../../dd/d10/class_definition_mixin.html" target="_top" xlink:title=" ">
<polygon fill="white" stroke="#666666" points="388,-234 228,-234 228,-215 388,-215 388,-234"/>
<text text-anchor="middle" x="308" y="-222" font-family="Helvetica,sans-Serif" font-size="10.00">DefinitionMixin&lt; GroupDef &gt;</text>
</a>
</g>
</g>
<!-- Node20&#45;&gt;Node21 -->
<g id="edge20" class="edge">
<title>Node20&#45;&gt;Node21</title>
<path fill="none" stroke="#63b8ff" d="M188.09,-224.5C200.26,-224.5 214.01,-224.5 227.73,-224.5"/>
<polygon fill="#63b8ff" stroke="#63b8ff" points="187.85,-221 177.85,-224.5 187.85,-228 187.85,-221"/>
</g>
<!-- Node22 -->
<g id="node22" class="node">
<title>Node22</title>
<g id="a_node22"><a xlink:href="../../db/d22/class_group_def_impl.html" target="_top" xlink:title=" ">
<polygon fill="white" stroke="#666666" points="546.5,-234 461.5,-234 461.5,-215 546.5,-215 546.5,-234"/>
<text text-anchor="middle" x="504" y="-222" font-family="Helvetica,sans-Serif" font-size="10.00">GroupDefImpl</text>
</a>
</g>
</g>
<!-- Node21&#45;&gt;Node22 -->
<g id="edge21" class="edge">
<title>Node21&#45;&gt;Node22</title>
<path fill="none" stroke="#63b8ff" d="M398.23,-224.5C420.22,-224.5 442.74,-224.5 461.24,-224.5"/>
<polygon fill="#63b8ff" stroke="#63b8ff" points="398.19,-221 388.19,-224.5 398.19,-228 398.19,-221"/>
</g>
<!-- Node24 -->
<g id="node24" class="node">
<title>Node24</title>
<g id="a_node24"><a xlink:href="../../d8/d83/class_definition_alias_mixin.html" target="_top" xlink:title=" ">
<polygon fill="white" stroke="#666666" points="365.5,-196.5 250.5,-196.5 250.5,-166.5 365.5,-166.5 365.5,-196.5"/>
<text text-anchor="start" x="258.5" y="-184.5" font-family="Helvetica,sans-Serif" font-size="10.00">DefinitionAliasMixin</text>
<text text-anchor="middle" x="308" y="-173.5" font-family="Helvetica,sans-Serif" font-size="10.00">&lt; MemberDef &gt;</text>
</a>
</g>
</g>
<!-- Node23&#45;&gt;Node24 -->
<g id="edge23" class="edge">
<title>Node23&#45;&gt;Node24</title>
<path fill="none" stroke="#63b8ff" d="M193.45,-181.5C211.26,-181.5 231.78,-181.5 250.43,-181.5"/>
<polygon fill="#63b8ff" stroke="#63b8ff" points="193.31,-178 183.31,-181.5 193.31,-185 193.31,-178"/>
</g>
<!-- Node26 -->
<g id="node26" class="node">
<title>Node26</title>
<g id="a_node26"><a xlink:href="../../dd/d4b/class_member_def_mutable.html" target="_top" xlink:title=" ">
<polygon fill="white" stroke="#666666" points="365,-148 251,-148 251,-129 365,-129 365,-148"/>
<text text-anchor="middle" x="308" y="-136" font-family="Helvetica,sans-Serif" font-size="10.00">MemberDefMutable</text>
</a>
</g>
</g>
<!-- Node23&#45;&gt;Node26 -->
<g id="edge25" class="edge">
<title>Node23&#45;&gt;Node26</title>
<path fill="none" stroke="#63b8ff" d="M187.96,-168.91C200.74,-165.11 214.92,-161.01 228,-157.5 240.13,-154.25 253.37,-150.96 265.49,-148.06"/>
<polygon fill="#63b8ff" stroke="#63b8ff" points="186.62,-165.66 178.05,-171.89 188.63,-172.37 186.62,-165.66"/>
</g>
<!-- Node25 -->
<g id="node25" class="node">
<title>Node25</title>
<g id="a_node25"><a xlink:href="../../d7/d70/class_member_def_alias_impl.html" target="_top" xlink:title=" ">
<polygon fill="white" stroke="#666666" points="564,-191 444,-191 444,-172 564,-172 564,-191"/>
<text text-anchor="middle" x="504" y="-179" font-family="Helvetica,sans-Serif" font-size="10.00">MemberDefAliasImpl</text>
</a>
</g>
</g>
<!-- Node24&#45;&gt;Node25 -->
<g id="edge24" class="edge">
<title>Node24&#45;&gt;Node25</title>
<path fill="none" stroke="#63b8ff" d="M375.64,-181.5C397.83,-181.5 422.36,-181.5 443.93,-181.5"/>
<polygon fill="#63b8ff" stroke="#63b8ff" points="375.63,-178 365.63,-181.5 375.63,-185 375.63,-178"/>
</g>
<!-- Node27 -->
<g id="node27" class="node">
<title>Node27</title>
<g id="a_node27"><a xlink:href="../../dd/d10/class_definition_mixin.html" target="_top" xlink:title=" ">
<polygon fill="white" stroke="#666666" points="584,-153.5 424,-153.5 424,-123.5 584,-123.5 584,-153.5"/>
<text text-anchor="start" x="432" y="-141.5" font-family="Helvetica,sans-Serif" font-size="10.00">DefinitionMixin&lt; MemberDef</text>
<text text-anchor="middle" x="504" y="-130.5" font-family="Helvetica,sans-Serif" font-size="10.00">Mutable &gt;</text>
</a>
</g>
</g>
<!-- Node26&#45;&gt;Node27 -->
<g id="edge26" class="edge">
<title>Node26&#45;&gt;Node27</title>
<path fill="none" stroke="#63b8ff" d="M375.22,-138.5C390.89,-138.5 407.75,-138.5 423.93,-138.5"/>
<polygon fill="#63b8ff" stroke="#63b8ff" points="375.11,-135 365.11,-138.5 375.11,-142 375.11,-135"/>
</g>
<!-- Node28 -->
<g id="node28" class="node">
<title>Node28</title>
<g id="a_node28"><a xlink:href="../../d7/d7e/class_member_def_impl.html" target="_top" xlink:title=" ">
<polygon fill="white" stroke="#666666" points="724.5,-148 628.5,-148 628.5,-129 724.5,-129 724.5,-148"/>
<text text-anchor="middle" x="676.5" y="-136" font-family="Helvetica,sans-Serif" font-size="10.00">MemberDefImpl</text>
</a>
</g>
</g>
<!-- Node27&#45;&gt;Node28 -->
<g id="edge27" class="edge">
<title>Node27&#45;&gt;Node28</title>
<path fill="none" stroke="#63b8ff" d="M594.56,-138.5C606.28,-138.5 617.88,-138.5 628.49,-138.5"/>
<polygon fill="#63b8ff" stroke="#63b8ff" points="594.26,-135 584.26,-138.5 594.26,-142 594.26,-135"/>
</g>
<!-- Node30 -->
<g id="node30" class="node">
<title>Node30</title>
<g id="a_node30"><a xlink:href="../../d8/d83/class_definition_alias_mixin.html" target="_top" xlink:title=" ">
<polygon fill="white" stroke="#666666" points="365.5,-110.5 250.5,-110.5 250.5,-80.5 365.5,-80.5 365.5,-110.5"/>
<text text-anchor="start" x="258.5" y="-98.5" font-family="Helvetica,sans-Serif" font-size="10.00">DefinitionAliasMixin</text>
<text text-anchor="middle" x="308" y="-87.5" font-family="Helvetica,sans-Serif" font-size="10.00">&lt; NamespaceDef &gt;</text>
</a>
</g>
</g>
<!-- Node29&#45;&gt;Node30 -->
<g id="edge29" class="edge">
<title>Node29&#45;&gt;Node30</title>
<path fill="none" stroke="#63b8ff" d="M202.83,-95.5C218.21,-95.5 234.91,-95.5 250.34,-95.5"/>
<polygon fill="#63b8ff" stroke="#63b8ff" points="202.42,-92 192.42,-95.5 202.42,-99 202.42,-92"/>
</g>
<!-- Node32 -->
<g id="node32" class="node">
<title>Node32</title>
<g id="a_node32"><a xlink:href="../../dd/dd5/class_namespace_def_mutable.html" target="_top" xlink:title=" ">
<polygon fill="white" stroke="#666666" points="373.5,-62 242.5,-62 242.5,-43 373.5,-43 373.5,-62"/>
<text text-anchor="middle" x="308" y="-50" font-family="Helvetica,sans-Serif" font-size="10.00">NamespaceDefMutable</text>
</a>
</g>
</g>
<!-- Node29&#45;&gt;Node32 -->
<g id="edge31" class="edge">
<title>Node29&#45;&gt;Node32</title>
<path fill="none" stroke="#63b8ff" d="M187.96,-82.91C200.74,-79.11 214.92,-75.01 228,-71.5 240.13,-68.25 253.37,-64.96 265.49,-62.06"/>
<polygon fill="#63b8ff" stroke="#63b8ff" points="186.62,-79.66 178.05,-85.89 188.63,-86.37 186.62,-79.66"/>
</g>
<!-- Node31 -->
<g id="node31" class="node">
<title>Node31</title>
<g id="a_node31"><a xlink:href="../../d2/d9c/class_namespace_def_alias_impl.html" target="_top" xlink:title=" ">
<polygon fill="white" stroke="#666666" points="572.5,-105 435.5,-105 435.5,-86 572.5,-86 572.5,-105"/>
<text text-anchor="middle" x="504" y="-93" font-family="Helvetica,sans-Serif" font-size="10.00">NamespaceDefAliasImpl</text>
</a>
</g>
</g>
<!-- Node30&#45;&gt;Node31 -->
<g id="edge30" class="edge">
<title>Node30&#45;&gt;Node31</title>
<path fill="none" stroke="#63b8ff" d="M375.81,-95.5C395.04,-95.5 416.03,-95.5 435.31,-95.5"/>
<polygon fill="#63b8ff" stroke="#63b8ff" points="375.63,-92 365.63,-95.5 375.63,-99 375.63,-92"/>
</g>
<!-- Node33 -->
<g id="node33" class="node">
<title>Node33</title>
<g id="a_node33"><a xlink:href="../../dd/d10/class_definition_mixin.html" target="_top" xlink:title=" ">
<polygon fill="white" stroke="#666666" points="584,-67.5 424,-67.5 424,-37.5 584,-37.5 584,-67.5"/>
<text text-anchor="start" x="432" y="-55.5" font-family="Helvetica,sans-Serif" font-size="10.00">DefinitionMixin&lt; Namespace</text>
<text text-anchor="middle" x="504" y="-44.5" font-family="Helvetica,sans-Serif" font-size="10.00">DefMutable &gt;</text>
</a>
</g>
</g>
<!-- Node32&#45;&gt;Node33 -->
<g id="edge32" class="edge">
<title>Node32&#45;&gt;Node33</title>
<path fill="none" stroke="#63b8ff" d="M383.94,-52.5C397.02,-52.5 410.65,-52.5 423.83,-52.5"/>
<polygon fill="#63b8ff" stroke="#63b8ff" points="383.6,-49 373.6,-52.5 383.6,-56 383.6,-49"/>
</g>
<!-- Node34 -->
<g id="node34" class="node">
<title>Node34</title>
<g id="a_node34"><a xlink:href="../../d5/dfa/class_namespace_def_impl.html" target="_top" xlink:title=" ">
<polygon fill="white" stroke="#666666" points="733,-62 620,-62 620,-43 733,-43 733,-62"/>
<text text-anchor="middle" x="676.5" y="-50" font-family="Helvetica,sans-Serif" font-size="10.00">NamespaceDefImpl</text>
</a>
</g>
</g>
<!-- Node33&#45;&gt;Node34 -->
<g id="edge33" class="edge">
<title>Node33&#45;&gt;Node34</title>
<path fill="none" stroke="#63b8ff" d="M594.4,-52.5C603.04,-52.5 611.62,-52.5 619.78,-52.5"/>
<polygon fill="#63b8ff" stroke="#63b8ff" points="594.26,-49 584.26,-52.5 594.26,-56 594.26,-49"/>
</g>
<!-- Node36 -->
<g id="node36" class="node">
<title>Node36</title>
<g id="a_node36"><a xlink:href="../../dd/d10/class_definition_mixin.html" target="_top" xlink:title=" ">
<polygon fill="white" stroke="#666666" points="385,-22 231,-22 231,-3 385,-3 385,-22"/>
<text text-anchor="middle" x="308" y="-10" font-family="Helvetica,sans-Serif" font-size="10.00">DefinitionMixin&lt; PageDef &gt;</text>
</a>
</g>
</g>
<!-- Node35&#45;&gt;Node36 -->
<g id="edge35" class="edge">
<title>Node35&#45;&gt;Node36</title>
<path fill="none" stroke="#63b8ff" d="M184.49,-31.64C202.82,-28.78 225.34,-25.26 246.05,-22.02"/>
<polygon fill="#63b8ff" stroke="#63b8ff" points="183.84,-28.2 174.5,-33.2 184.93,-35.12 183.84,-28.2"/>
</g>
<!-- Node37 -->
<g id="node37" class="node">
<title>Node37</title>
<g id="a_node37"><a xlink:href="../../dd/de8/class_page_def_impl.html" target="_top" xlink:title=" ">
<polygon fill="white" stroke="#666666" points="543.5,-19 464.5,-19 464.5,0 543.5,0 543.5,-19"/>
<text text-anchor="middle" x="504" y="-7" font-family="Helvetica,sans-Serif" font-size="10.00">PageDefImpl</text>
</a>
</g>
</g>
<!-- Node36&#45;&gt;Node37 -->
<g id="edge36" class="edge">
<title>Node36&#45;&gt;Node37</title>
<path fill="none" stroke="#63b8ff" d="M395.4,-11.16C419.55,-10.79 444.6,-10.4 464.44,-10.1"/>
<polygon fill="#63b8ff" stroke="#63b8ff" points="395.06,-7.67 385.12,-11.32 395.17,-14.67 395.06,-7.67"/>
</g>
</g>
</svg>
        <g id="navigator" transform="translate(0 0)" fill="#404254">
                <rect fill="#f2f5e9" fill-opacity="0.5" stroke="#606060" stroke-width=".5" x="0" y="0" width="60" height="60"/>
                <use id="zoomplus" xlink:href="#zoomPlus" x="17" y="9" onmousedown="handleZoom(evt,'in')"/>
                <use id="zoomminus" xlink:href="#zoomMin" x="42" y="9" onmousedown="handleZoom(evt,'out')"/>
                <use id="reset" xlink:href="#resetDef" x="30" y="36" onmousedown="handleReset()"/>
                <g id="arrowUp" xlink:href="#dirArrow" transform="translate(30 24)" onmousedown="handlePan(0,-1)">
                  <use xlink:href="#rim" fill="#404040">
                        <set attributeName="fill" to="#808080" begin="arrowUp.mouseover" end="arrowUp.mouseout"/>
                  </use>
                  <path fill="none" stroke="white" stroke-width="1.5" d="M0,-3.0v7 M-2.5,-0.5L0,-3.0L2.5,-0.5"/>
                </g>
                <g id="arrowRight" xlink:href="#dirArrow" transform="rotate(90) translate(36 -43)" onmousedown="handlePan(1,0)">
                  <use xlink:href="#rim" fill="#404040">
                        <set attributeName="fill" to="#808080" begin="arrowRight.mouseover" end="arrowRight.mouseout"/>
                  </use>
                  <path fill="none" stroke="white" stroke-width="1.5" d="M0,-3.0v7 M-2.5,-0.5L0,-3.0L2.5,-0.5"/>
                </g>
                <g id="arrowDown" xlink:href="#dirArrow" transform="rotate(180) translate(-30 -48)" onmousedown="handlePan(0,1)">
                  <use xlink:href="#rim" fill="#404040">
                        <set attributeName="fill" to="#808080" begin="arrowDown.mouseover" end="arrowDown.mouseout"/>
                  </use>
                  <path fill="none" stroke="white" stroke-width="1.5" d="M0,-3.0v7 M-2.5,-0.5L0,-3.0L2.5,-0.5"/>
                </g>
                <g id="arrowLeft" xlink:href="#dirArrow" transform="rotate(270) translate(-36 17)" onmousedown="handlePan(-1,0)">
                  <use xlink:href="#rim" fill="#404040">
                        <set attributeName="fill" to="#808080" begin="arrowLeft.mouseover" end="arrowLeft.mouseout"/>
                  </use>
                  <path fill="none" stroke="white" stroke-width="1.5" d="M0,-3.0v7 M-2.5,-0.5L0,-3.0L2.5,-0.5"/>
                </g>
        </g>
        <svg viewBox="0 0 15 15" width="100%" height="30px" preserveAspectRatio="xMaxYMin meet">
         <g id="arrow_out" transform="scale(0.3 0.3)">
          <a xlink:href="class_definition__inherit__graph_org.svg" target="_base">
           <rect id="button" ry="5" rx="5" y="6" x="6" height="38" width="38"
                fill="#f2f5e9" fill-opacity="0.5" stroke="#606060" stroke-width="1.0"/>
           <path id="arrow"
             d="M 11.500037,31.436501 C 11.940474,20.09759 22.043105,11.32322 32.158766,21.979434 L 37.068811,17.246167 C 37.068811,17.246167 37.088388,32 37.088388,32 L 22.160133,31.978069 C 22.160133,31.978069 26.997745,27.140456 26.997745,27.140456 C 18.528582,18.264221 13.291696,25.230495 11.500037,31.436501 z"
             style="fill:#404040;"/>
          </a>
         </g>
        </svg>
</svg>
