<?xml version="1.0" encoding="UTF-8" standalone="no"?>
<!DOCTYPE svg PUBLIC "-//W3C//DTD SVG 1.1//EN"
 "http://www.w3.org/Graphics/SVG/1.1/DTD/svg11.dtd">
<!-- Generated by graphviz version 2.43.0 (0)
 -->
<!-- Title: /home/runner/work/doxygen/doxygen/src/htmlattrib.h Pages: 1 -->
<!--zoomable 236 -->
<svg id="main" version="1.1" xmlns="http://www.w3.org/2000/svg" xmlns:xlink="http://www.w3.org/1999/xlink" xml:space="preserve" onload="init(evt)">
<style type="text/css"><![CDATA[
.edge:hover path { stroke: red; }
.edge:hover polygon { stroke: red; fill: red; }
]]></style>
<script type="text/javascript"><![CDATA[
var edges = document.getElementsByTagName('g');
if (edges && edges.length) {
  for (var i=0;i<edges.length;i++) {
    if (edges[i].id.substr(0,4)=='edge') {
      edges[i].setAttribute('class','edge');
    }
  }
}
]]></script>
        <defs>
                <circle id="rim" cx="0" cy="0" r="7"/>
                <circle id="rim2" cx="0" cy="0" r="3.5"/>
                <g id="zoomPlus">
                        <use xlink:href="#rim" fill="#404040">
                                <set attributeName="fill" to="#808080" begin="zoomplus.mouseover" end="zoomplus.mouseout"/>
                        </use>
                        <path d="M-4,0h8M0,-4v8" fill="none" stroke="white" stroke-width="1.5" pointer-events="none"/>
                </g>
                <g id="zoomMin">
                        <use xlink:href="#rim" fill="#404040">
                                <set attributeName="fill" to="#808080" begin="zoomminus.mouseover" end="zoomminus.mouseout"/>
                        </use>
                        <path d="M-4,0h8" fill="none" stroke="white" stroke-width="1.5" pointer-events="none"/>
                </g>
                <g id="dirArrow">
                        <path fill="none" stroke="white" stroke-width="1.5" d="M0,-3.0v7 M-2.5,-0.5L0,-3.0L2.5,-0.5"/>
                </g>
               <g id="resetDef">
                       <use xlink:href="#rim2" fill="#404040">
                               <set attributeName="fill" to="#808080" begin="reset.mouseover" end="reset.mouseout"/>
                       </use>
               </g>
        </defs>

<script type="text/javascript">
var viewWidth = 3206;
var viewHeight = 236;
var sectionId = 'dynsection-1';
</script>
<script xlink:href="../../svgpan.js"/>
<svg id="graph" class="graph">
<g id="viewport">
<title>/home/runner/work/doxygen/doxygen/src/htmlattrib.h</title>
<!-- Node1 -->
<g id="node1" class="node">
<title>Node1</title>
<g id="a_node1"><a xlink:title=" ">
<polygon fill="#999999" stroke="#666666" points="508,-228 354,-228 354,-198 508,-198 508,-228"/>
<text text-anchor="start" x="362" y="-216" font-family="Helvetica,sans-Serif" font-size="10.00">/home/runner/work/doxygen</text>
<text text-anchor="middle" x="431" y="-205" font-family="Helvetica,sans-Serif" font-size="10.00">/doxygen/src/htmlattrib.h</text>
</a>
</g>
</g>
<!-- Node2 -->
<g id="node2" class="node">
<title>Node2</title>
<g id="a_node2"><a xlink:href="../../de/d2b/docnode_8h.html" target="_top" xlink:title=" ">
<polygon fill="white" stroke="#666666" points="1503,-162 1349,-162 1349,-132 1503,-132 1503,-162"/>
<text text-anchor="start" x="1357" y="-150" font-family="Helvetica,sans-Serif" font-size="10.00">/home/runner/work/doxygen</text>
<text text-anchor="middle" x="1426" y="-139" font-family="Helvetica,sans-Serif" font-size="10.00">/doxygen/src/docnode.h</text>
</a>
</g>
</g>
<!-- Node1&#45;&gt;Node2 -->
<g id="edge1" class="edge">
<title>Node1&#45;&gt;Node2</title>
<path fill="none" stroke="#63b8ff" d="M518.3,-206.38C710.27,-194.04 1166.5,-164.69 1348.8,-152.97"/>
<polygon fill="#63b8ff" stroke="#63b8ff" points="518,-202.9 508.25,-207.03 518.45,-209.88 518,-202.9"/>
</g>
<!-- Node16 -->
<g id="node16" class="node">
<title>Node16</title>
<g id="a_node16"><a xlink:href="../../d1/d4e/latexdocvisitor_8cpp.html" target="_top" xlink:title=" ">
<polygon fill="white" stroke="#666666" points="518,-30 344,-30 344,0 518,0 518,-30"/>
<text text-anchor="start" x="352" y="-18" font-family="Helvetica,sans-Serif" font-size="10.00">/home/runner/work/doxygen</text>
<text text-anchor="middle" x="431" y="-7" font-family="Helvetica,sans-Serif" font-size="10.00">/doxygen/src/latexdocvisitor.cpp</text>
</a>
</g>
</g>
<!-- Node1&#45;&gt;Node16 -->
<g id="edge40" class="edge">
<title>Node1&#45;&gt;Node16</title>
<path fill="none" stroke="#63b8ff" d="M431,-187.89C431,-146.58 431,-63.48 431,-30.23"/>
<polygon fill="#63b8ff" stroke="#63b8ff" points="427.5,-187.9 431,-197.9 434.5,-187.9 427.5,-187.9"/>
</g>
<!-- Node32 -->
<g id="node32" class="node">
<title>Node32</title>
<g id="a_node32"><a xlink:href="../../d0/d0c/doctokenizer_8h.html" target="_top" xlink:title=" ">
<polygon fill="white" stroke="#666666" points="365,-162 211,-162 211,-132 365,-132 365,-162"/>
<text text-anchor="start" x="219" y="-150" font-family="Helvetica,sans-Serif" font-size="10.00">/home/runner/work/doxygen</text>
<text text-anchor="middle" x="288" y="-139" font-family="Helvetica,sans-Serif" font-size="10.00">/doxygen/src/doctokenizer.h</text>
</a>
</g>
</g>
<!-- Node1&#45;&gt;Node32 -->
<g id="edge36" class="edge">
<title>Node1&#45;&gt;Node32</title>
<path fill="none" stroke="#63b8ff" d="M390.3,-193.78C367.75,-183.69 340.16,-171.34 319.31,-162.01"/>
<polygon fill="#63b8ff" stroke="#63b8ff" points="389.06,-197.06 399.62,-197.95 391.92,-190.68 389.06,-197.06"/>
</g>
<!-- Node3 -->
<g id="node3" class="node">
<title>Node3</title>
<g id="a_node3"><a xlink:href="../../de/dcd/docbookvisitor_8h.html" target="_top" xlink:title=" ">
<polygon fill="white" stroke="#666666" points="3007,-96 2845,-96 2845,-66 3007,-66 3007,-96"/>
<text text-anchor="start" x="2853" y="-84" font-family="Helvetica,sans-Serif" font-size="10.00">/home/runner/work/doxygen</text>
<text text-anchor="middle" x="2926" y="-73" font-family="Helvetica,sans-Serif" font-size="10.00">/doxygen/src/docbookvisitor.h</text>
</a>
</g>
</g>
<!-- Node2&#45;&gt;Node3 -->
<g id="edge2" class="edge">
<title>Node2&#45;&gt;Node3</title>
<path fill="none" stroke="#63b8ff" d="M1513.49,-143.97C1725.77,-138.78 2284.96,-123.42 2751,-96 2781.58,-94.2 2815.12,-91.66 2844.58,-89.23"/>
<polygon fill="#63b8ff" stroke="#63b8ff" points="1513.26,-140.48 1503.34,-144.22 1513.43,-147.48 1513.26,-140.48"/>
</g>
<!-- Node6 -->
<g id="node6" class="node">
<title>Node6</title>
<g id="a_node6"><a xlink:href="../../d0/d2b/docnode_8cpp.html" target="_top" xlink:title=" ">
<polygon fill="white" stroke="#666666" points="326,-30 172,-30 172,0 326,0 326,-30"/>
<text text-anchor="start" x="180" y="-18" font-family="Helvetica,sans-Serif" font-size="10.00">/home/runner/work/doxygen</text>
<text text-anchor="middle" x="249" y="-7" font-family="Helvetica,sans-Serif" font-size="10.00">/doxygen/src/docnode.cpp</text>
</a>
</g>
</g>
<!-- Node2&#45;&gt;Node6 -->
<g id="edge5" class="edge">
<title>Node2&#45;&gt;Node6</title>
<path fill="none" stroke="#63b8ff" d="M1338.52,-142.79C1203.19,-137.18 935.06,-123.47 709,-96 568.78,-78.96 406.33,-48.06 316.87,-30.05"/>
<polygon fill="#63b8ff" stroke="#63b8ff" points="1338.69,-146.3 1348.83,-143.22 1338.98,-139.31 1338.69,-146.3"/>
</g>
<!-- Node7 -->
<g id="node7" class="node">
<title>Node7</title>
<g id="a_node7"><a xlink:href="../../df/dc9/docparser__p_8h.html" target="_top" xlink:title="Private header shared between docparser.cpp and docnode.cpp.">
<polygon fill="white" stroke="#666666" points="326,-96 172,-96 172,-66 326,-66 326,-96"/>
<text text-anchor="start" x="180" y="-84" font-family="Helvetica,sans-Serif" font-size="10.00">/home/runner/work/doxygen</text>
<text text-anchor="middle" x="249" y="-73" font-family="Helvetica,sans-Serif" font-size="10.00">/doxygen/src/docparser_p.h</text>
</a>
</g>
</g>
<!-- Node2&#45;&gt;Node7 -->
<g id="edge6" class="edge">
<title>Node2&#45;&gt;Node7</title>
<path fill="none" stroke="#63b8ff" d="M1338.49,-141.24C1116.85,-129.19 536.07,-97.61 326.13,-86.19"/>
<polygon fill="#63b8ff" stroke="#63b8ff" points="1338.6,-144.75 1348.77,-141.8 1338.98,-137.76 1338.6,-144.75"/>
</g>
<!-- Node9 -->
<g id="node9" class="node">
<title>Node9</title>
<g id="a_node9"><a xlink:href="../../d9/d92/dotfilepatcher_8cpp.html" target="_top" xlink:title=" ">
<polygon fill="white" stroke="#666666" points="2741.5,-96 2572.5,-96 2572.5,-66 2741.5,-66 2741.5,-96"/>
<text text-anchor="start" x="2580.5" y="-84" font-family="Helvetica,sans-Serif" font-size="10.00">/home/runner/work/doxygen</text>
<text text-anchor="middle" x="2657" y="-73" font-family="Helvetica,sans-Serif" font-size="10.00">/doxygen/src/dotfilepatcher.cpp</text>
</a>
</g>
</g>
<!-- Node2&#45;&gt;Node9 -->
<g id="edge9" class="edge">
<title>Node2&#45;&gt;Node9</title>
<path fill="none" stroke="#63b8ff" d="M1513.39,-145.3C1704.41,-143.08 2173.33,-133.88 2564,-96 2566.76,-95.73 2569.57,-95.44 2572.4,-95.12"/>
<polygon fill="#63b8ff" stroke="#63b8ff" points="1513.09,-141.8 1503.13,-145.41 1513.17,-148.8 1513.09,-141.8"/>
</g>
<!-- Node10 -->
<g id="node10" class="node">
<title>Node10</title>
<g id="a_node10"><a xlink:href="../../d0/d71/htmldocvisitor_8h.html" target="_top" xlink:title=" ">
<polygon fill="white" stroke="#666666" points="1330.5,-96 1169.5,-96 1169.5,-66 1330.5,-66 1330.5,-96"/>
<text text-anchor="start" x="1177.5" y="-84" font-family="Helvetica,sans-Serif" font-size="10.00">/home/runner/work/doxygen</text>
<text text-anchor="middle" x="1250" y="-73" font-family="Helvetica,sans-Serif" font-size="10.00">/doxygen/src/htmldocvisitor.h</text>
</a>
</g>
</g>
<!-- Node2&#45;&gt;Node10 -->
<g id="edge10" class="edge">
<title>Node2&#45;&gt;Node10</title>
<path fill="none" stroke="#63b8ff" d="M1377.76,-128.46C1349.68,-118.25 1314.76,-105.55 1288.53,-96.01"/>
<polygon fill="#63b8ff" stroke="#63b8ff" points="1376.78,-131.83 1387.38,-131.95 1379.17,-125.25 1376.78,-131.83"/>
</g>
<!-- Node14 -->
<g id="node14" class="node">
<title>Node14</title>
<g id="a_node14"><a xlink:href="../../d8/d6e/htmlgen_8cpp.html" target="_top" xlink:title=" ">
<polygon fill="white" stroke="#666666" points="1756,-30 1602,-30 1602,0 1756,0 1756,-30"/>
<text text-anchor="start" x="1610" y="-18" font-family="Helvetica,sans-Serif" font-size="10.00">/home/runner/work/doxygen</text>
<text text-anchor="middle" x="1679" y="-7" font-family="Helvetica,sans-Serif" font-size="10.00">/doxygen/src/htmlgen.cpp</text>
</a>
</g>
</g>
<!-- Node2&#45;&gt;Node14 -->
<g id="edge15" class="edge">
<title>Node2&#45;&gt;Node14</title>
<path fill="none" stroke="#63b8ff" d="M1513.41,-141.26C1581.68,-135.52 1668.62,-123 1691,-96 1706.42,-77.4 1695.7,-47.68 1687.01,-30.18"/>
<polygon fill="#63b8ff" stroke="#63b8ff" points="1512.74,-137.81 1503.05,-142.1 1513.3,-144.78 1512.74,-137.81"/>
</g>
<!-- Node15 -->
<g id="node15" class="node">
<title>Node15</title>
<g id="a_node15"><a xlink:href="../../d8/d99/latexdocvisitor_8h.html" target="_top" xlink:title=" ">
<polygon fill="white" stroke="#666666" points="1057.5,-96 894.5,-96 894.5,-66 1057.5,-66 1057.5,-96"/>
<text text-anchor="start" x="902.5" y="-84" font-family="Helvetica,sans-Serif" font-size="10.00">/home/runner/work/doxygen</text>
<text text-anchor="middle" x="976" y="-73" font-family="Helvetica,sans-Serif" font-size="10.00">/doxygen/src/latexdocvisitor.h</text>
</a>
</g>
</g>
<!-- Node2&#45;&gt;Node15 -->
<g id="edge16" class="edge">
<title>Node2&#45;&gt;Node15</title>
<path fill="none" stroke="#63b8ff" d="M1338.69,-133.58C1257.42,-122.02 1137.2,-104.93 1057.76,-93.63"/>
<polygon fill="#63b8ff" stroke="#63b8ff" points="1338.5,-137.09 1348.9,-135.03 1339.49,-130.16 1338.5,-137.09"/>
</g>
<!-- Node17 -->
<g id="node17" class="node">
<title>Node17</title>
<g id="a_node17"><a xlink:href="../../d4/d42/latexgen_8cpp.html" target="_top" xlink:title=" ">
<polygon fill="white" stroke="#666666" points="1050,-30 896,-30 896,0 1050,0 1050,-30"/>
<text text-anchor="start" x="904" y="-18" font-family="Helvetica,sans-Serif" font-size="10.00">/home/runner/work/doxygen</text>
<text text-anchor="middle" x="973" y="-7" font-family="Helvetica,sans-Serif" font-size="10.00">/doxygen/src/latexgen.cpp</text>
</a>
</g>
</g>
<!-- Node2&#45;&gt;Node17 -->
<g id="edge21" class="edge">
<title>Node2&#45;&gt;Node17</title>
<path fill="none" stroke="#63b8ff" d="M1339.02,-134.56C1286.49,-126.45 1218.6,-113.81 1160,-96 1101.38,-78.19 1036.33,-47.77 1000.48,-30.02"/>
<polygon fill="#63b8ff" stroke="#63b8ff" points="1338.56,-138.03 1348.97,-136.07 1339.61,-131.11 1338.56,-138.03"/>
</g>
<!-- Node19 -->
<g id="node19" class="node">
<title>Node19</title>
<g id="a_node19"><a xlink:href="../../d6/d6e/mandocvisitor_8h.html" target="_top" xlink:title=" ">
<polygon fill="white" stroke="#666666" points="1931,-96 1771,-96 1771,-66 1931,-66 1931,-96"/>
<text text-anchor="start" x="1779" y="-84" font-family="Helvetica,sans-Serif" font-size="10.00">/home/runner/work/doxygen</text>
<text text-anchor="middle" x="1851" y="-73" font-family="Helvetica,sans-Serif" font-size="10.00">/doxygen/src/mandocvisitor.h</text>
</a>
</g>
</g>
<!-- Node2&#45;&gt;Node19 -->
<g id="edge22" class="edge">
<title>Node2&#45;&gt;Node19</title>
<path fill="none" stroke="#63b8ff" d="M1513.44,-132.83C1589.04,-121.45 1697.43,-105.13 1770.83,-94.07"/>
<polygon fill="#63b8ff" stroke="#63b8ff" points="1512.82,-129.39 1503.46,-134.34 1513.87,-136.31 1512.82,-129.39"/>
</g>
<!-- Node22 -->
<g id="node22" class="node">
<title>Node22</title>
<g id="a_node22"><a xlink:href="../../db/d33/msc_8cpp.html" target="_top" xlink:title=" ">
<polygon fill="white" stroke="#666666" points="1503,-96 1349,-96 1349,-66 1503,-66 1503,-96"/>
<text text-anchor="start" x="1357" y="-84" font-family="Helvetica,sans-Serif" font-size="10.00">/home/runner/work/doxygen</text>
<text text-anchor="middle" x="1426" y="-73" font-family="Helvetica,sans-Serif" font-size="10.00">/doxygen/src/msc.cpp</text>
</a>
</g>
</g>
<!-- Node2&#45;&gt;Node22 -->
<g id="edge25" class="edge">
<title>Node2&#45;&gt;Node22</title>
<path fill="none" stroke="#63b8ff" d="M1426,-121.54C1426,-112.96 1426,-103.61 1426,-96.16"/>
<polygon fill="#63b8ff" stroke="#63b8ff" points="1422.5,-121.8 1426,-131.8 1429.5,-121.8 1422.5,-121.8"/>
</g>
<!-- Node23 -->
<g id="node23" class="node">
<title>Node23</title>
<g id="a_node23"><a xlink:href="../../de/dd0/perlmodgen_8cpp.html" target="_top" xlink:title=" ">
<polygon fill="white" stroke="#666666" points="1682.5,-96 1521.5,-96 1521.5,-66 1682.5,-66 1682.5,-96"/>
<text text-anchor="start" x="1529.5" y="-84" font-family="Helvetica,sans-Serif" font-size="10.00">/home/runner/work/doxygen</text>
<text text-anchor="middle" x="1602" y="-73" font-family="Helvetica,sans-Serif" font-size="10.00">/doxygen/src/perlmodgen.cpp</text>
</a>
</g>
</g>
<!-- Node2&#45;&gt;Node23 -->
<g id="edge26" class="edge">
<title>Node2&#45;&gt;Node23</title>
<path fill="none" stroke="#63b8ff" d="M1474.24,-128.46C1502.32,-118.25 1537.24,-105.55 1563.47,-96.01"/>
<polygon fill="#63b8ff" stroke="#63b8ff" points="1472.83,-125.25 1464.62,-131.95 1475.22,-131.83 1472.83,-125.25"/>
</g>
<!-- Node24 -->
<g id="node24" class="node">
<title>Node24</title>
<g id="a_node24"><a xlink:href="../../d1/da7/rtfdocvisitor_8h.html" target="_top" xlink:title=" ">
<polygon fill="white" stroke="#666666" points="2293,-96 2139,-96 2139,-66 2293,-66 2293,-96"/>
<text text-anchor="start" x="2147" y="-84" font-family="Helvetica,sans-Serif" font-size="10.00">/home/runner/work/doxygen</text>
<text text-anchor="middle" x="2216" y="-73" font-family="Helvetica,sans-Serif" font-size="10.00">/doxygen/src/rtfdocvisitor.h</text>
</a>
</g>
</g>
<!-- Node2&#45;&gt;Node24 -->
<g id="edge27" class="edge">
<title>Node2&#45;&gt;Node24</title>
<path fill="none" stroke="#63b8ff" d="M1513.18,-138.94C1668.55,-126.35 1990.89,-100.24 2138.79,-88.25"/>
<polygon fill="#63b8ff" stroke="#63b8ff" points="1512.87,-135.45 1503.19,-139.75 1513.44,-142.43 1512.87,-135.45"/>
</g>
<!-- Node27 -->
<g id="node27" class="node">
<title>Node27</title>
<g id="a_node27"><a xlink:href="../../dd/d66/textdocvisitor_8h.html" target="_top" xlink:title=" ">
<polygon fill="white" stroke="#666666" points="876,-96 718,-96 718,-66 876,-66 876,-96"/>
<text text-anchor="start" x="726" y="-84" font-family="Helvetica,sans-Serif" font-size="10.00">/home/runner/work/doxygen</text>
<text text-anchor="middle" x="797" y="-73" font-family="Helvetica,sans-Serif" font-size="10.00">/doxygen/src/textdocvisitor.h</text>
</a>
</g>
</g>
<!-- Node2&#45;&gt;Node27 -->
<g id="edge30" class="edge">
<title>Node2&#45;&gt;Node27</title>
<path fill="none" stroke="#63b8ff" d="M1338.67,-139.7C1231.56,-131.57 1044.57,-116.04 885,-96 882.08,-95.63 879.12,-95.24 876.12,-94.84"/>
<polygon fill="#63b8ff" stroke="#63b8ff" points="1338.55,-143.2 1348.78,-140.47 1339.07,-136.22 1338.55,-143.2"/>
</g>
<!-- Node29 -->
<g id="node29" class="node">
<title>Node29</title>
<g id="a_node29"><a xlink:href="../../df/d2b/xmldocvisitor_8h.html" target="_top" xlink:title=" ">
<polygon fill="white" stroke="#666666" points="2554.5,-96 2397.5,-96 2397.5,-66 2554.5,-66 2554.5,-96"/>
<text text-anchor="start" x="2405.5" y="-84" font-family="Helvetica,sans-Serif" font-size="10.00">/home/runner/work/doxygen</text>
<text text-anchor="middle" x="2476" y="-73" font-family="Helvetica,sans-Serif" font-size="10.00">/doxygen/src/xmldocvisitor.h</text>
</a>
</g>
</g>
<!-- Node2&#45;&gt;Node29 -->
<g id="edge33" class="edge">
<title>Node2&#45;&gt;Node29</title>
<path fill="none" stroke="#63b8ff" d="M1513.19,-141.7C1670.74,-133.77 2013.32,-115.85 2302,-96 2333.14,-93.86 2367.39,-91.17 2397.21,-88.73"/>
<polygon fill="#63b8ff" stroke="#63b8ff" points="1512.89,-138.21 1503.08,-142.2 1513.25,-145.2 1512.89,-138.21"/>
</g>
<!-- Node4 -->
<g id="node4" class="node">
<title>Node4</title>
<g id="a_node4"><a xlink:href="../../d8/d29/docbookgen_8cpp.html" target="_top" xlink:title=" ">
<polygon fill="white" stroke="#666666" points="3006.5,-30 2845.5,-30 2845.5,0 3006.5,0 3006.5,-30"/>
<text text-anchor="start" x="2853.5" y="-18" font-family="Helvetica,sans-Serif" font-size="10.00">/home/runner/work/doxygen</text>
<text text-anchor="middle" x="2926" y="-7" font-family="Helvetica,sans-Serif" font-size="10.00">/doxygen/src/docbookgen.cpp</text>
</a>
</g>
</g>
<!-- Node3&#45;&gt;Node4 -->
<g id="edge3" class="edge">
<title>Node3&#45;&gt;Node4</title>
<path fill="none" stroke="#63b8ff" d="M2926,-55.54C2926,-46.96 2926,-37.61 2926,-30.16"/>
<polygon fill="#63b8ff" stroke="#63b8ff" points="2922.5,-55.8 2926,-65.8 2929.5,-55.8 2922.5,-55.8"/>
</g>
<!-- Node5 -->
<g id="node5" class="node">
<title>Node5</title>
<g id="a_node5"><a xlink:href="../../dc/d05/docbookvisitor_8cpp.html" target="_top" xlink:title=" ">
<polygon fill="white" stroke="#666666" points="3197.5,-30 3024.5,-30 3024.5,0 3197.5,0 3197.5,-30"/>
<text text-anchor="start" x="3032.5" y="-18" font-family="Helvetica,sans-Serif" font-size="10.00">/home/runner/work/doxygen</text>
<text text-anchor="middle" x="3111" y="-7" font-family="Helvetica,sans-Serif" font-size="10.00">/doxygen/src/docbookvisitor.cpp</text>
</a>
</g>
</g>
<!-- Node3&#45;&gt;Node5 -->
<g id="edge4" class="edge">
<title>Node3&#45;&gt;Node5</title>
<path fill="none" stroke="#63b8ff" d="M2976.33,-62.59C3005.9,-52.36 3042.8,-39.59 3070.5,-30.01"/>
<polygon fill="#63b8ff" stroke="#63b8ff" points="2974.91,-59.38 2966.6,-65.95 2977.19,-65.99 2974.91,-59.38"/>
</g>
<!-- Node7&#45;&gt;Node6 -->
<g id="edge7" class="edge">
<title>Node7&#45;&gt;Node6</title>
<path fill="none" stroke="#63b8ff" d="M249,-55.54C249,-46.96 249,-37.61 249,-30.16"/>
<polygon fill="#63b8ff" stroke="#63b8ff" points="245.5,-55.8 249,-65.8 252.5,-55.8 245.5,-55.8"/>
</g>
<!-- Node8 -->
<g id="node8" class="node">
<title>Node8</title>
<g id="a_node8"><a xlink:href="../../da/d17/docparser_8cpp.html" target="_top" xlink:title=" ">
<polygon fill="white" stroke="#666666" points="154,-30 0,-30 0,0 154,0 154,-30"/>
<text text-anchor="start" x="8" y="-18" font-family="Helvetica,sans-Serif" font-size="10.00">/home/runner/work/doxygen</text>
<text text-anchor="middle" x="77" y="-7" font-family="Helvetica,sans-Serif" font-size="10.00">/doxygen/src/docparser.cpp</text>
</a>
</g>
</g>
<!-- Node7&#45;&gt;Node8 -->
<g id="edge8" class="edge">
<title>Node7&#45;&gt;Node8</title>
<path fill="none" stroke="#63b8ff" d="M201.85,-62.46C174.41,-52.25 140.29,-39.55 114.66,-30.01"/>
<polygon fill="#63b8ff" stroke="#63b8ff" points="200.66,-65.75 211.25,-65.95 203.1,-59.19 200.66,-65.75"/>
</g>
<!-- Node11 -->
<g id="node11" class="node">
<title>Node11</title>
<g id="a_node11"><a xlink:href="../../db/d12/context_8cpp.html" target="_top" xlink:title=" ">
<polygon fill="white" stroke="#666666" points="1222,-30 1068,-30 1068,0 1222,0 1222,-30"/>
<text text-anchor="start" x="1076" y="-18" font-family="Helvetica,sans-Serif" font-size="10.00">/home/runner/work/doxygen</text>
<text text-anchor="middle" x="1145" y="-7" font-family="Helvetica,sans-Serif" font-size="10.00">/doxygen/src/context.cpp</text>
</a>
</g>
</g>
<!-- Node10&#45;&gt;Node11 -->
<g id="edge11" class="edge">
<title>Node10&#45;&gt;Node11</title>
<path fill="none" stroke="#63b8ff" d="M1218.33,-60.69C1202.12,-50.82 1182.75,-39.01 1167.99,-30.01"/>
<polygon fill="#63b8ff" stroke="#63b8ff" points="1216.6,-63.74 1226.96,-65.95 1220.24,-57.76 1216.6,-63.74"/>
</g>
<!-- Node12 -->
<g id="node12" class="node">
<title>Node12</title>
<g id="a_node12"><a xlink:href="../../db/d41/ftvhelp_8cpp.html" target="_top" xlink:title=" ">
<polygon fill="white" stroke="#666666" points="1584,-30 1430,-30 1430,0 1584,0 1584,-30"/>
<text text-anchor="start" x="1438" y="-18" font-family="Helvetica,sans-Serif" font-size="10.00">/home/runner/work/doxygen</text>
<text text-anchor="middle" x="1507" y="-7" font-family="Helvetica,sans-Serif" font-size="10.00">/doxygen/src/ftvhelp.cpp</text>
</a>
</g>
</g>
<!-- Node10&#45;&gt;Node12 -->
<g id="edge12" class="edge">
<title>Node10&#45;&gt;Node12</title>
<path fill="none" stroke="#63b8ff" d="M1316.19,-63.52C1357.87,-53.14 1411.09,-39.88 1450.73,-30.01"/>
<polygon fill="#63b8ff" stroke="#63b8ff" points="1315.26,-60.14 1306.4,-65.95 1316.95,-66.93 1315.26,-60.14"/>
</g>
<!-- Node13 -->
<g id="node13" class="node">
<title>Node13</title>
<g id="a_node13"><a xlink:href="../../da/db0/htmldocvisitor_8cpp.html" target="_top" xlink:title=" ">
<polygon fill="white" stroke="#666666" points="1412,-30 1240,-30 1240,0 1412,0 1412,-30"/>
<text text-anchor="start" x="1248" y="-18" font-family="Helvetica,sans-Serif" font-size="10.00">/home/runner/work/doxygen</text>
<text text-anchor="middle" x="1326" y="-7" font-family="Helvetica,sans-Serif" font-size="10.00">/doxygen/src/htmldocvisitor.cpp</text>
</a>
</g>
</g>
<!-- Node10&#45;&gt;Node13 -->
<g id="edge13" class="edge">
<title>Node10&#45;&gt;Node13</title>
<path fill="none" stroke="#63b8ff" d="M1274.7,-59.2C1285.98,-49.7 1299.05,-38.69 1309.18,-30.16"/>
<polygon fill="#63b8ff" stroke="#63b8ff" points="1272.26,-56.68 1266.87,-65.8 1276.77,-62.03 1272.26,-56.68"/>
</g>
<!-- Node10&#45;&gt;Node14 -->
<g id="edge14" class="edge">
<title>Node10&#45;&gt;Node14</title>
<path fill="none" stroke="#63b8ff" d="M1341.04,-65.86C1454.01,-49.14 1483.9,-46.64 1593,-30 1595.84,-29.57 1598.73,-29.12 1601.66,-28.67"/>
<polygon fill="#63b8ff" stroke="#63b8ff" points="1340.32,-62.43 1330.95,-67.36 1341.35,-69.35 1340.32,-62.43"/>
</g>
<!-- Node15&#45;&gt;Node11 -->
<g id="edge17" class="edge">
<title>Node15&#45;&gt;Node11</title>
<path fill="none" stroke="#63b8ff" d="M1022.68,-62.32C1049.58,-52.14 1082.92,-39.51 1108,-30.01"/>
<polygon fill="#63b8ff" stroke="#63b8ff" points="1021.2,-59.14 1013.09,-65.95 1023.68,-65.69 1021.2,-59.14"/>
</g>
<!-- Node15&#45;&gt;Node16 -->
<g id="edge18" class="edge">
<title>Node15&#45;&gt;Node16</title>
<path fill="none" stroke="#63b8ff" d="M884.01,-65.92C724.65,-45.98 682.46,-49.14 527,-30 524.07,-29.64 521.1,-29.26 518.1,-28.87"/>
<polygon fill="#63b8ff" stroke="#63b8ff" points="883.82,-69.42 894.18,-67.2 884.69,-62.48 883.82,-69.42"/>
</g>
<!-- Node15&#45;&gt;Node17 -->
<g id="edge19" class="edge">
<title>Node15&#45;&gt;Node17</title>
<path fill="none" stroke="#63b8ff" d="M974.85,-55.54C974.45,-46.96 974.01,-37.61 973.66,-30.16"/>
<polygon fill="#63b8ff" stroke="#63b8ff" points="971.37,-55.97 975.33,-65.8 978.36,-55.64 971.37,-55.97"/>
</g>
<!-- Node18 -->
<g id="node18" class="node">
<title>Node18</title>
<g id="a_node18"><a xlink:href="../../df/d2d/util_8cpp.html" target="_top" xlink:title=" ">
<polygon fill="white" stroke="#666666" points="878,-30 724,-30 724,0 878,0 878,-30"/>
<text text-anchor="start" x="732" y="-18" font-family="Helvetica,sans-Serif" font-size="10.00">/home/runner/work/doxygen</text>
<text text-anchor="middle" x="801" y="-7" font-family="Helvetica,sans-Serif" font-size="10.00">/doxygen/src/util.cpp</text>
</a>
</g>
</g>
<!-- Node15&#45;&gt;Node18 -->
<g id="edge20" class="edge">
<title>Node15&#45;&gt;Node18</title>
<path fill="none" stroke="#63b8ff" d="M928.03,-62.46C900.11,-52.25 865.4,-39.55 839.31,-30.01"/>
<polygon fill="#63b8ff" stroke="#63b8ff" points="927,-65.81 937.6,-65.95 929.41,-59.23 927,-65.81"/>
</g>
<!-- Node20 -->
<g id="node20" class="node">
<title>Node20</title>
<g id="a_node20"><a xlink:href="../../d8/dde/mandocvisitor_8cpp.html" target="_top" xlink:title=" ">
<polygon fill="white" stroke="#666666" points="2117.5,-30 1946.5,-30 1946.5,0 2117.5,0 2117.5,-30"/>
<text text-anchor="start" x="1954.5" y="-18" font-family="Helvetica,sans-Serif" font-size="10.00">/home/runner/work/doxygen</text>
<text text-anchor="middle" x="2032" y="-7" font-family="Helvetica,sans-Serif" font-size="10.00">/doxygen/src/mandocvisitor.cpp</text>
</a>
</g>
</g>
<!-- Node19&#45;&gt;Node20 -->
<g id="edge23" class="edge">
<title>Node19&#45;&gt;Node20</title>
<path fill="none" stroke="#63b8ff" d="M1900.24,-62.59C1929.18,-52.36 1965.28,-39.59 1992.37,-30.01"/>
<polygon fill="#63b8ff" stroke="#63b8ff" points="1898.98,-59.32 1890.72,-65.95 1901.32,-65.92 1898.98,-59.32"/>
</g>
<!-- Node21 -->
<g id="node21" class="node">
<title>Node21</title>
<g id="a_node21"><a xlink:href="../../d7/de7/mangen_8cpp.html" target="_top" xlink:title=" ">
<polygon fill="white" stroke="#666666" points="1928,-30 1774,-30 1774,0 1928,0 1928,-30"/>
<text text-anchor="start" x="1782" y="-18" font-family="Helvetica,sans-Serif" font-size="10.00">/home/runner/work/doxygen</text>
<text text-anchor="middle" x="1851" y="-7" font-family="Helvetica,sans-Serif" font-size="10.00">/doxygen/src/mangen.cpp</text>
</a>
</g>
</g>
<!-- Node19&#45;&gt;Node21 -->
<g id="edge24" class="edge">
<title>Node19&#45;&gt;Node21</title>
<path fill="none" stroke="#63b8ff" d="M1851,-55.54C1851,-46.96 1851,-37.61 1851,-30.16"/>
<polygon fill="#63b8ff" stroke="#63b8ff" points="1847.5,-55.8 1851,-65.8 1854.5,-55.8 1847.5,-55.8"/>
</g>
<!-- Node25 -->
<g id="node25" class="node">
<title>Node25</title>
<g id="a_node25"><a xlink:href="../../de/d9a/rtfdocvisitor_8cpp.html" target="_top" xlink:title=" ">
<polygon fill="white" stroke="#666666" points="2296.5,-30 2135.5,-30 2135.5,0 2296.5,0 2296.5,-30"/>
<text text-anchor="start" x="2143.5" y="-18" font-family="Helvetica,sans-Serif" font-size="10.00">/home/runner/work/doxygen</text>
<text text-anchor="middle" x="2216" y="-7" font-family="Helvetica,sans-Serif" font-size="10.00">/doxygen/src/rtfdocvisitor.cpp</text>
</a>
</g>
</g>
<!-- Node24&#45;&gt;Node25 -->
<g id="edge28" class="edge">
<title>Node24&#45;&gt;Node25</title>
<path fill="none" stroke="#63b8ff" d="M2216,-55.54C2216,-46.96 2216,-37.61 2216,-30.16"/>
<polygon fill="#63b8ff" stroke="#63b8ff" points="2212.5,-55.8 2216,-65.8 2219.5,-55.8 2212.5,-55.8"/>
</g>
<!-- Node26 -->
<g id="node26" class="node">
<title>Node26</title>
<g id="a_node26"><a xlink:href="../../d0/d9c/rtfgen_8cpp.html" target="_top" xlink:title=" ">
<polygon fill="white" stroke="#666666" points="2469,-30 2315,-30 2315,0 2469,0 2469,-30"/>
<text text-anchor="start" x="2323" y="-18" font-family="Helvetica,sans-Serif" font-size="10.00">/home/runner/work/doxygen</text>
<text text-anchor="middle" x="2392" y="-7" font-family="Helvetica,sans-Serif" font-size="10.00">/doxygen/src/rtfgen.cpp</text>
</a>
</g>
</g>
<!-- Node24&#45;&gt;Node26 -->
<g id="edge29" class="edge">
<title>Node24&#45;&gt;Node26</title>
<path fill="none" stroke="#63b8ff" d="M2264.24,-62.46C2292.32,-52.25 2327.24,-39.55 2353.47,-30.01"/>
<polygon fill="#63b8ff" stroke="#63b8ff" points="2262.83,-59.25 2254.62,-65.95 2265.22,-65.83 2262.83,-59.25"/>
</g>
<!-- Node27&#45;&gt;Node18 -->
<g id="edge32" class="edge">
<title>Node27&#45;&gt;Node18</title>
<path fill="none" stroke="#63b8ff" d="M798.53,-55.54C799.06,-46.96 799.65,-37.61 800.11,-30.16"/>
<polygon fill="#63b8ff" stroke="#63b8ff" points="795.02,-55.6 797.89,-65.8 802,-56.03 795.02,-55.6"/>
</g>
<!-- Node28 -->
<g id="node28" class="node">
<title>Node28</title>
<g id="a_node28"><a xlink:href="../../d3/da6/textdocvisitor_8cpp.html" target="_top" xlink:title=" ">
<polygon fill="white" stroke="#666666" points="705.5,-30 536.5,-30 536.5,0 705.5,0 705.5,-30"/>
<text text-anchor="start" x="544.5" y="-18" font-family="Helvetica,sans-Serif" font-size="10.00">/home/runner/work/doxygen</text>
<text text-anchor="middle" x="621" y="-7" font-family="Helvetica,sans-Serif" font-size="10.00">/doxygen/src/textdocvisitor.cpp</text>
</a>
</g>
</g>
<!-- Node27&#45;&gt;Node28 -->
<g id="edge31" class="edge">
<title>Node27&#45;&gt;Node28</title>
<path fill="none" stroke="#63b8ff" d="M748.76,-62.46C720.68,-52.25 685.76,-39.55 659.53,-30.01"/>
<polygon fill="#63b8ff" stroke="#63b8ff" points="747.78,-65.83 758.38,-65.95 750.17,-59.25 747.78,-65.83"/>
</g>
<!-- Node30 -->
<g id="node30" class="node">
<title>Node30</title>
<g id="a_node30"><a xlink:href="../../dd/db6/xmldocvisitor_8cpp.html" target="_top" xlink:title=" ">
<polygon fill="white" stroke="#666666" points="2655,-30 2487,-30 2487,0 2655,0 2655,-30"/>
<text text-anchor="start" x="2495" y="-18" font-family="Helvetica,sans-Serif" font-size="10.00">/home/runner/work/doxygen</text>
<text text-anchor="middle" x="2571" y="-7" font-family="Helvetica,sans-Serif" font-size="10.00">/doxygen/src/xmldocvisitor.cpp</text>
</a>
</g>
</g>
<!-- Node29&#45;&gt;Node30 -->
<g id="edge34" class="edge">
<title>Node29&#45;&gt;Node30</title>
<path fill="none" stroke="#63b8ff" d="M2505.65,-60.03C2520.02,-50.34 2536.95,-38.94 2549.98,-30.16"/>
<polygon fill="#63b8ff" stroke="#63b8ff" points="2503.42,-57.31 2497.08,-65.8 2507.33,-63.11 2503.42,-57.31"/>
</g>
<!-- Node31 -->
<g id="node31" class="node">
<title>Node31</title>
<g id="a_node31"><a xlink:href="../../d0/dc3/xmlgen_8cpp.html" target="_top" xlink:title=" ">
<polygon fill="white" stroke="#666666" points="2827,-30 2673,-30 2673,0 2827,0 2827,-30"/>
<text text-anchor="start" x="2681" y="-18" font-family="Helvetica,sans-Serif" font-size="10.00">/home/runner/work/doxygen</text>
<text text-anchor="middle" x="2750" y="-7" font-family="Helvetica,sans-Serif" font-size="10.00">/doxygen/src/xmlgen.cpp</text>
</a>
</g>
</g>
<!-- Node29&#45;&gt;Node31 -->
<g id="edge35" class="edge">
<title>Node29&#45;&gt;Node31</title>
<path fill="none" stroke="#63b8ff" d="M2546.01,-63.65C2590.53,-53.25 2647.57,-39.93 2690.01,-30.01"/>
<polygon fill="#63b8ff" stroke="#63b8ff" points="2545.07,-60.27 2536.13,-65.95 2546.66,-67.09 2545.07,-60.27"/>
</g>
<!-- Node32&#45;&gt;Node6 -->
<g id="edge37" class="edge">
<title>Node32&#45;&gt;Node6</title>
<path fill="none" stroke="#63b8ff" d="M313.78,-124.99C330.26,-108.89 346.56,-86.1 335,-66 325.53,-49.53 308.32,-37.99 291.77,-30.17"/>
<polygon fill="#63b8ff" stroke="#63b8ff" points="311.27,-122.54 306.29,-131.88 316.01,-127.69 311.27,-122.54"/>
</g>
<!-- Node32&#45;&gt;Node7 -->
<g id="edge38" class="edge">
<title>Node32&#45;&gt;Node7</title>
<path fill="none" stroke="#63b8ff" d="M274.13,-123.24C268.63,-114.21 262.47,-104.11 257.63,-96.16"/>
<polygon fill="#63b8ff" stroke="#63b8ff" points="271.15,-125.08 279.34,-131.8 277.13,-121.44 271.15,-125.08"/>
</g>
<!-- Node33 -->
<g id="node33" class="node">
<title>Node33</title>
<g id="a_node33"><a xlink:href="../../d1/d39/doctokenizer_8l.html" target="_top" xlink:title=" ">
<polygon fill="white" stroke="#666666" points="154,-96 0,-96 0,-66 154,-66 154,-96"/>
<text text-anchor="start" x="8" y="-84" font-family="Helvetica,sans-Serif" font-size="10.00">/home/runner/work/doxygen</text>
<text text-anchor="middle" x="77" y="-73" font-family="Helvetica,sans-Serif" font-size="10.00">/doxygen/src/doctokenizer.l</text>
</a>
</g>
</g>
<!-- Node32&#45;&gt;Node33 -->
<g id="edge39" class="edge">
<title>Node32&#45;&gt;Node33</title>
<path fill="none" stroke="#63b8ff" d="M231.92,-128.99C197.97,-118.69 155.19,-105.72 123.2,-96.01"/>
<polygon fill="#63b8ff" stroke="#63b8ff" points="231.11,-132.4 241.7,-131.95 233.14,-125.7 231.11,-132.4"/>
</g>
</g>
</svg>
        <g id="navigator" transform="translate(0 0)" fill="#404254">
                <rect fill="#f2f5e9" fill-opacity="0.5" stroke="#606060" stroke-width=".5" x="0" y="0" width="60" height="60"/>
                <use id="zoomplus" xlink:href="#zoomPlus" x="17" y="9" onmousedown="handleZoom(evt,'in')"/>
                <use id="zoomminus" xlink:href="#zoomMin" x="42" y="9" onmousedown="handleZoom(evt,'out')"/>
                <use id="reset" xlink:href="#resetDef" x="30" y="36" onmousedown="handleReset()"/>
                <g id="arrowUp" xlink:href="#dirArrow" transform="translate(30 24)" onmousedown="handlePan(0,-1)">
                  <use xlink:href="#rim" fill="#404040">
                        <set attributeName="fill" to="#808080" begin="arrowUp.mouseover" end="arrowUp.mouseout"/>
                  </use>
                  <path fill="none" stroke="white" stroke-width="1.5" d="M0,-3.0v7 M-2.5,-0.5L0,-3.0L2.5,-0.5"/>
                </g>
                <g id="arrowRight" xlink:href="#dirArrow" transform="rotate(90) translate(36 -43)" onmousedown="handlePan(1,0)">
                  <use xlink:href="#rim" fill="#404040">
                        <set attributeName="fill" to="#808080" begin="arrowRight.mouseover" end="arrowRight.mouseout"/>
                  </use>
                  <path fill="none" stroke="white" stroke-width="1.5" d="M0,-3.0v7 M-2.5,-0.5L0,-3.0L2.5,-0.5"/>
                </g>
                <g id="arrowDown" xlink:href="#dirArrow" transform="rotate(180) translate(-30 -48)" onmousedown="handlePan(0,1)">
                  <use xlink:href="#rim" fill="#404040">
                        <set attributeName="fill" to="#808080" begin="arrowDown.mouseover" end="arrowDown.mouseout"/>
                  </use>
                  <path fill="none" stroke="white" stroke-width="1.5" d="M0,-3.0v7 M-2.5,-0.5L0,-3.0L2.5,-0.5"/>
                </g>
                <g id="arrowLeft" xlink:href="#dirArrow" transform="rotate(270) translate(-36 17)" onmousedown="handlePan(-1,0)">
                  <use xlink:href="#rim" fill="#404040">
                        <set attributeName="fill" to="#808080" begin="arrowLeft.mouseover" end="arrowLeft.mouseout"/>
                  </use>
                  <path fill="none" stroke="white" stroke-width="1.5" d="M0,-3.0v7 M-2.5,-0.5L0,-3.0L2.5,-0.5"/>
                </g>
        </g>
        <svg viewBox="0 0 15 15" width="100%" height="30px" preserveAspectRatio="xMaxYMin meet">
         <g id="arrow_out" transform="scale(0.3 0.3)">
          <a xlink:href="htmlattrib_8h__dep__incl_org.svg" target="_base">
           <rect id="button" ry="5" rx="5" y="6" x="6" height="38" width="38"
                fill="#f2f5e9" fill-opacity="0.5" stroke="#606060" stroke-width="1.0"/>
           <path id="arrow"
             d="M 11.500037,31.436501 C 11.940474,20.09759 22.043105,11.32322 32.158766,21.979434 L 37.068811,17.246167 C 37.068811,17.246167 37.088388,32 37.088388,32 L 22.160133,31.978069 C 22.160133,31.978069 26.997745,27.140456 26.997745,27.140456 C 18.528582,18.264221 13.291696,25.230495 11.500037,31.436501 z"
             style="fill:#404040;"/>
          </a>
         </g>
        </svg>
</svg>
