<?xml version="1.0" encoding="UTF-8" standalone="no"?>
<!DOCTYPE svg PUBLIC "-//W3C//DTD SVG 1.1//EN"
 "http://www.w3.org/Graphics/SVG/1.1/DTD/svg11.dtd">
<!-- Generated by graphviz version 2.43.0 (0)
 -->
<!-- Title: ConfigEnum Pages: 1 -->
<svg width="201pt" height="207pt"
 viewBox="0.00 0.00 200.50 207.00" xmlns="http://www.w3.org/2000/svg" xmlns:xlink="http://www.w3.org/1999/xlink">
<g id="graph0" class="graph" transform="scale(1 1) rotate(0) translate(4 203)">
<title>ConfigEnum</title>
<!-- Node1 -->
<g id="node1" class="node">
<title>Node1</title>
<g id="a_node1"><a xlink:title="Class representing an enum type option.">
<polygon fill="#999999" stroke="#666666" points="87,-19 12,-19 12,0 87,0 87,-19"/>
<text text-anchor="middle" x="49.5" y="-7" font-family="Helvetica,sans-Serif" font-size="10.00">ConfigEnum</text>
</a>
</g>
</g>
<!-- Node2 -->
<g id="node2" class="node">
<title>Node2</title>
<g id="a_node2"><a xlink:href="../../d2/dd3/class_config_option.html" target="_top" xlink:title="Abstract base class for any configuration option.">
<polygon fill="white" stroke="#666666" points="172.5,-76.5 92.5,-76.5 92.5,-57.5 172.5,-57.5 172.5,-76.5"/>
<text text-anchor="middle" x="132.5" y="-64.5" font-family="Helvetica,sans-Serif" font-size="10.00">ConfigOption</text>
</a>
</g>
</g>
<!-- Node2&#45;&gt;Node1 -->
<g id="edge1" class="edge">
<title>Node2&#45;&gt;Node1</title>
<path fill="none" stroke="#63b8ff" d="M111.11,-51.7C95.69,-41.38 75.38,-27.8 62.38,-19.11"/>
<polygon fill="#63b8ff" stroke="#63b8ff" points="109.27,-54.68 119.53,-57.33 113.16,-48.86 109.27,-54.68"/>
</g>
<!-- Node3 -->
<g id="node3" class="node">
<title>Node3</title>
<g id="a_node3"><a xlink:href="../../d9/d45/class_q_c_string.html" target="_top" xlink:title="This is an alternative implementation of QCString.">
<polygon fill="white" stroke="#666666" points="59,-199 0,-199 0,-180 59,-180 59,-199"/>
<text text-anchor="middle" x="29.5" y="-187" font-family="Helvetica,sans-Serif" font-size="10.00">QCString</text>
</a>
</g>
</g>
<!-- Node3&#45;&gt;Node1 -->
<g id="edge3" class="edge">
<title>Node3&#45;&gt;Node1</title>
<path fill="none" stroke="#9a32cd" stroke-dasharray="5,2" d="M24.9,-169.98C19.25,-143.99 11.67,-95.48 22.5,-56 26.34,-42 35.72,-27.95 42.35,-19.25"/>
<polygon fill="#9a32cd" stroke="#9a32cd" points="21.54,-170.98 27.21,-179.93 28.36,-169.4 21.54,-170.98"/>
<text text-anchor="middle" x="53" y="-70" font-family="Helvetica,sans-Serif" font-size="10.00" fill="grey"> m_defValue</text>
<text text-anchor="middle" x="53" y="-59" font-family="Helvetica,sans-Serif" font-size="10.00" fill="grey">m_value</text>
</g>
<!-- Node3&#45;&gt;Node2 -->
<g id="edge2" class="edge">
<title>Node3&#45;&gt;Node2</title>
<path fill="none" stroke="#9a32cd" stroke-dasharray="5,2" d="M43.6,-172C65.81,-146.02 108.15,-96.48 125.16,-76.59"/>
<polygon fill="#9a32cd" stroke="#9a32cd" points="40.74,-169.96 36.91,-179.83 46.07,-174.51 40.74,-169.96"/>
<text text-anchor="middle" x="150" y="-154" font-family="Helvetica,sans-Serif" font-size="10.00" fill="grey"> m_dependency</text>
<text text-anchor="middle" x="150" y="-143" font-family="Helvetica,sans-Serif" font-size="10.00" fill="grey">m_doc</text>
<text text-anchor="middle" x="150" y="-132" font-family="Helvetica,sans-Serif" font-size="10.00" fill="grey">m_encoding</text>
<text text-anchor="middle" x="150" y="-121" font-family="Helvetica,sans-Serif" font-size="10.00" fill="grey">m_name</text>
<text text-anchor="middle" x="150" y="-110" font-family="Helvetica,sans-Serif" font-size="10.00" fill="grey">m_spaces</text>
<text text-anchor="middle" x="150" y="-99" font-family="Helvetica,sans-Serif" font-size="10.00" fill="grey">m_userComment</text>
</g>
</g>
</svg>
