<?xml version="1.0" encoding="UTF-8" standalone="no"?>
<!DOCTYPE svg PUBLIC "-//W3C//DTD SVG 1.1//EN"
 "http://www.w3.org/Graphics/SVG/1.1/DTD/svg11.dtd">
<!-- Generated by graphviz version 2.43.0 (0)
 -->
<!-- Title: ClassDefImpl Pages: 1 -->
<svg width="1871pt" height="1111pt"
 viewBox="0.00 0.00 1871.00 1111.00" xmlns="http://www.w3.org/2000/svg" xmlns:xlink="http://www.w3.org/1999/xlink">
<g id="graph0" class="graph" transform="scale(1 1) rotate(0) translate(4 1107)">
<title>ClassDefImpl</title>
<!-- Node1 -->
<g id="node1" class="node">
<title>Node1</title>
<g id="a_node1"><a xlink:title="Implementation of the ClassDef interface.">
<polygon fill="#999999" stroke="#666666" points="1863,-471.5 1781,-471.5 1781,-452.5 1863,-452.5 1863,-471.5"/>
<text text-anchor="middle" x="1822" y="-459.5" font-family="Helvetica,sans-Serif" font-size="10.00">ClassDefImpl</text>
</a>
</g>
</g>
<!-- Node2 -->
<g id="node2" class="node">
<title>Node2</title>
<g id="a_node2"><a xlink:href="../../dd/d10/class_definition_mixin.html" target="_top" xlink:title=" ">
<polygon fill="white" stroke="#666666" points="1744,-529 1598,-529 1598,-499 1744,-499 1744,-529"/>
<text text-anchor="start" x="1606" y="-517" font-family="Helvetica,sans-Serif" font-size="10.00">DefinitionMixin&lt; ClassDef</text>
<text text-anchor="middle" x="1671" y="-506" font-family="Helvetica,sans-Serif" font-size="10.00">Mutable &gt;</text>
</a>
</g>
</g>
<!-- Node2&#45;&gt;Node1 -->
<g id="edge1" class="edge">
<title>Node2&#45;&gt;Node1</title>
<path fill="none" stroke="#63b8ff" d="M1724.82,-495.57C1748.01,-487.47 1774.28,-478.31 1793.49,-471.6"/>
<polygon fill="#63b8ff" stroke="#63b8ff" points="1723.39,-492.36 1715.1,-498.96 1725.69,-498.97 1723.39,-492.36"/>
</g>
<!-- Node3 -->
<g id="node3" class="node">
<title>Node3</title>
<g id="a_node3"><a xlink:href="../../d0/dc2/class_class_def_mutable.html" target="_top" xlink:title=" ">
<polygon fill="white" stroke="#666666" points="741,-510.5 641,-510.5 641,-491.5 741,-491.5 741,-510.5"/>
<text text-anchor="middle" x="691" y="-498.5" font-family="Helvetica,sans-Serif" font-size="10.00">ClassDefMutable</text>
</a>
</g>
</g>
<!-- Node3&#45;&gt;Node2 -->
<g id="edge2" class="edge">
<title>Node3&#45;&gt;Node2</title>
<path fill="none" stroke="#63b8ff" d="M751.25,-501C816.85,-501 925.73,-501 1019.5,-501 1019.5,-501 1019.5,-501 1385.5,-501 1457.81,-501 1540.35,-505.24 1597.84,-508.88"/>
<polygon fill="#63b8ff" stroke="#63b8ff" points="751.1,-497.5 741.1,-501 751.1,-504.5 751.1,-497.5"/>
</g>
<!-- Node4 -->
<g id="node4" class="node">
<title>Node4</title>
<g id="a_node4"><a xlink:href="../../d0/d46/class_definition_mutable.html" target="_top" xlink:title=" ">
<polygon fill="white" stroke="#666666" points="120.5,-517.5 16.5,-517.5 16.5,-498.5 120.5,-498.5 120.5,-517.5"/>
<text text-anchor="middle" x="68.5" y="-505.5" font-family="Helvetica,sans-Serif" font-size="10.00">DefinitionMutable</text>
</a>
</g>
</g>
<!-- Node4&#45;&gt;Node3 -->
<g id="edge3" class="edge">
<title>Node4&#45;&gt;Node3</title>
<path fill="none" stroke="#63b8ff" d="M130.52,-509.08C228.35,-510.54 426.33,-512.39 594,-507 609.19,-506.51 625.71,-505.61 640.7,-504.66"/>
<polygon fill="#63b8ff" stroke="#63b8ff" points="130.57,-505.58 120.52,-508.93 130.46,-512.58 130.57,-505.58"/>
</g>
<!-- Node16 -->
<g id="node16" class="node">
<title>Node16</title>
<g id="a_node16"><a xlink:href="../../de/db0/class_file_def.html" target="_top" xlink:title="A model of a file symbol.">
<polygon fill="white" stroke="#666666" points="403.5,-488.5 352.5,-488.5 352.5,-469.5 403.5,-469.5 403.5,-488.5"/>
<text text-anchor="middle" x="378" y="-476.5" font-family="Helvetica,sans-Serif" font-size="10.00">FileDef</text>
</a>
</g>
</g>
<!-- Node4&#45;&gt;Node16 -->
<g id="edge18" class="edge">
<title>Node4&#45;&gt;Node16</title>
<path fill="none" stroke="#63b8ff" d="M130.76,-502.22C198.62,-495.82 304.73,-485.82 352.38,-481.32"/>
<polygon fill="#63b8ff" stroke="#63b8ff" points="130.25,-498.76 120.62,-503.18 130.91,-505.72 130.25,-498.76"/>
</g>
<!-- Node5 -->
<g id="node5" class="node">
<title>Node5</title>
<g id="a_node5"><a xlink:href="../../d1/dcf/class_class_def.html" target="_top" xlink:title="A abstract class representing of a compound symbol.">
<polygon fill="white" stroke="#666666" points="408,-446.5 348,-446.5 348,-427.5 408,-427.5 408,-446.5"/>
<text text-anchor="middle" x="378" y="-434.5" font-family="Helvetica,sans-Serif" font-size="10.00">ClassDef</text>
</a>
</g>
</g>
<!-- Node5&#45;&gt;Node3 -->
<g id="edge4" class="edge">
<title>Node5&#45;&gt;Node3</title>
<path fill="none" stroke="#63b8ff" d="M418.4,-445.11C475.93,-456.95 582.7,-478.92 643.83,-491.5"/>
<polygon fill="#63b8ff" stroke="#63b8ff" points="418.76,-441.61 408.26,-443.02 417.35,-448.46 418.76,-441.61"/>
</g>
<!-- Node20 -->
<g id="node20" class="node">
<title>Node20</title>
<g id="a_node20"><a xlink:href="../../d6/d4a/class_class_def_impl_1_1_i_m_p_l.html" target="_top" xlink:title="Private data associated with a ClassDef object.">
<polygon fill="white" stroke="#666666" points="1076,-299.5 965,-299.5 965,-280.5 1076,-280.5 1076,-299.5"/>
<text text-anchor="middle" x="1020.5" y="-287.5" font-family="Helvetica,sans-Serif" font-size="10.00">ClassDefImpl::IMPL</text>
</a>
</g>
</g>
<!-- Node5&#45;&gt;Node20 -->
<g id="edge44" class="edge">
<title>Node5&#45;&gt;Node20</title>
<path fill="none" stroke="#9a32cd" stroke-dasharray="5,2" d="M418.33,-431.83C544.72,-415.17 932.98,-363.65 945,-358 974.16,-344.3 999.89,-315.16 1012.06,-299.86"/>
<polygon fill="#9a32cd" stroke="#9a32cd" points="417.76,-428.37 408.31,-433.15 418.68,-435.31 417.76,-428.37"/>
<text text-anchor="middle" x="691" y="-431" font-family="Helvetica,sans-Serif" font-size="10.00" fill="grey"> categoryOf</text>
<text text-anchor="middle" x="691" y="-420" font-family="Helvetica,sans-Serif" font-size="10.00" fill="grey">tagLessRef</text>
<text text-anchor="middle" x="691" y="-409" font-family="Helvetica,sans-Serif" font-size="10.00" fill="grey">templateMaster</text>
</g>
<!-- Node6 -->
<g id="node6" class="node">
<title>Node6</title>
<g id="a_node6"><a xlink:href="../../d5/dcc/class_definition.html" target="_top" xlink:title="The common base class of all entity definitions found in the sources.">
<polygon fill="white" stroke="#666666" points="100.5,-453.5 36.5,-453.5 36.5,-434.5 100.5,-434.5 100.5,-453.5"/>
<text text-anchor="middle" x="68.5" y="-441.5" font-family="Helvetica,sans-Serif" font-size="10.00">Definition</text>
</a>
</g>
</g>
<!-- Node6&#45;&gt;Node5 -->
<g id="edge5" class="edge">
<title>Node6&#45;&gt;Node5</title>
<path fill="none" stroke="#63b8ff" d="M110.68,-443.06C173.85,-441.62 293.1,-438.91 348,-437.66"/>
<polygon fill="#63b8ff" stroke="#63b8ff" points="110.59,-439.56 100.68,-443.29 110.75,-446.56 110.59,-439.56"/>
</g>
<!-- Node8 -->
<g id="node8" class="node">
<title>Node8</title>
<g id="a_node8"><a xlink:href="../../dd/d50/class_definition_impl_1_1_i_m_p_l.html" target="_top" xlink:title="Private data associated with a Symbol DefinitionImpl object.">
<polygon fill="white" stroke="#666666" points="1078,-818.5 963,-818.5 963,-799.5 1078,-799.5 1078,-818.5"/>
<text text-anchor="middle" x="1020.5" y="-806.5" font-family="Helvetica,sans-Serif" font-size="10.00">DefinitionImpl::IMPL</text>
</a>
</g>
</g>
<!-- Node6&#45;&gt;Node8 -->
<g id="edge8" class="edge">
<title>Node6&#45;&gt;Node8</title>
<path fill="none" stroke="#9a32cd" stroke-dasharray="5,2" d="M97.31,-458.64C110.53,-466.61 125.85,-477.41 137,-490 233.88,-599.37 198.66,-666.39 288,-782 360.35,-875.63 378.6,-910.33 486,-960 578.67,-1002.86 862.57,-1000.24 945,-940 988.31,-908.36 1010.03,-843.39 1016.96,-818.76"/>
<polygon fill="#9a32cd" stroke="#9a32cd" points="98.98,-455.57 88.57,-453.6 95.48,-461.63 98.98,-455.57"/>
<text text-anchor="middle" x="540" y="-998" font-family="Helvetica,sans-Serif" font-size="10.00" fill="grey"> def</text>
<text text-anchor="middle" x="540" y="-987" font-family="Helvetica,sans-Serif" font-size="10.00" fill="grey">outerScope</text>
</g>
<!-- Node6&#45;&gt;Node16 -->
<g id="edge19" class="edge">
<title>Node6&#45;&gt;Node16</title>
<path fill="none" stroke="#63b8ff" d="M110.95,-448.72C175.9,-456.11 299.65,-470.2 352.3,-476.19"/>
<polygon fill="#63b8ff" stroke="#63b8ff" points="111.01,-445.2 100.68,-447.55 110.22,-452.16 111.01,-445.2"/>
</g>
<!-- Node40 -->
<g id="node40" class="node">
<title>Node40</title>
<g id="a_node40"><a xlink:href="../../da/d09/class_member_def.html" target="_top" xlink:title="A model of a class/file/namespace member symbol.">
<polygon fill="white" stroke="#666666" points="577,-243.5 503,-243.5 503,-224.5 577,-224.5 577,-243.5"/>
<text text-anchor="middle" x="540" y="-231.5" font-family="Helvetica,sans-Serif" font-size="10.00">MemberDef</text>
</a>
</g>
</g>
<!-- Node6&#45;&gt;Node40 -->
<g id="edge50" class="edge">
<title>Node6&#45;&gt;Node40</title>
<path fill="none" stroke="#63b8ff" d="M83.04,-426.22C114.18,-386.89 195.36,-292.91 288,-254 359.54,-223.95 452.54,-225.96 502.85,-230.01"/>
<polygon fill="#63b8ff" stroke="#63b8ff" points="80.24,-424.12 76.85,-434.16 85.76,-428.43 80.24,-424.12"/>
</g>
<!-- Node7 -->
<g id="node7" class="node">
<title>Node7</title>
<g id="a_node7"><a xlink:href="../../d3/ddf/class_definition_impl.html" target="_top" xlink:title=" ">
<polygon fill="white" stroke="#666666" points="1240,-586.5 1154,-586.5 1154,-567.5 1240,-567.5 1240,-586.5"/>
<text text-anchor="middle" x="1197" y="-574.5" font-family="Helvetica,sans-Serif" font-size="10.00">DefinitionImpl</text>
</a>
</g>
</g>
<!-- Node7&#45;&gt;Node2 -->
<g id="edge6" class="edge">
<title>Node7&#45;&gt;Node2</title>
<path fill="none" stroke="#9a32cd" stroke-dasharray="5,2" d="M1250.32,-567.59C1270.77,-564.05 1294.45,-560.13 1316,-557 1413.26,-542.86 1526.02,-529.72 1597.66,-521.78"/>
<polygon fill="#9a32cd" stroke="#9a32cd" points="1249.5,-564.18 1240.25,-569.34 1250.7,-571.07 1249.5,-564.18"/>
<text text-anchor="middle" x="1384.5" y="-560" font-family="Helvetica,sans-Serif" font-size="10.00" fill="grey"> m_impl</text>
</g>
<!-- Node18 -->
<g id="node18" class="node">
<title>Node18</title>
<g id="a_node18"><a xlink:href="../../dd/d10/class_definition_mixin.html" target="_top" xlink:title=" ">
<polygon fill="white" stroke="#666666" points="1453,-595.5 1316,-595.5 1316,-576.5 1453,-576.5 1453,-595.5"/>
<text text-anchor="middle" x="1384.5" y="-583.5" font-family="Helvetica,sans-Serif" font-size="10.00">DefinitionMixin&lt; Base &gt;</text>
</a>
</g>
</g>
<!-- Node7&#45;&gt;Node18 -->
<g id="edge24" class="edge">
<title>Node7&#45;&gt;Node18</title>
<path fill="none" stroke="#9a32cd" stroke-dasharray="5,2" d="M1250.11,-579.53C1270.47,-580.52 1294.09,-581.66 1315.74,-582.71"/>
<polygon fill="#9a32cd" stroke="#9a32cd" points="1250.25,-576.03 1240.09,-579.04 1249.91,-583.02 1250.25,-576.03"/>
<text text-anchor="middle" x="1278" y="-584" font-family="Helvetica,sans-Serif" font-size="10.00" fill="grey"> m_impl</text>
</g>
<!-- Node8&#45;&gt;Node7 -->
<g id="edge7" class="edge">
<title>Node8&#45;&gt;Node7</title>
<path fill="none" stroke="#9a32cd" stroke-dasharray="5,2" d="M1028.89,-789.77C1045.45,-748.96 1089.22,-652.77 1154,-596 1158.21,-592.31 1163.26,-589.21 1168.38,-586.67"/>
<polygon fill="#9a32cd" stroke="#9a32cd" points="1025.62,-788.52 1025.19,-799.11 1032.13,-791.1 1025.62,-788.52"/>
<text text-anchor="middle" x="1116" y="-660" font-family="Helvetica,sans-Serif" font-size="10.00" fill="grey"> m_impl</text>
</g>
<!-- Node9 -->
<g id="node9" class="node">
<title>Node9</title>
<g id="a_node9"><a xlink:href="../../d1/df9/class_section_refs.html" target="_top" xlink:title="class that represents a list of constant references to sections.">
<polygon fill="white" stroke="#666666" points="728,-735.5 654,-735.5 654,-716.5 728,-716.5 728,-735.5"/>
<text text-anchor="middle" x="691" y="-723.5" font-family="Helvetica,sans-Serif" font-size="10.00">SectionRefs</text>
</a>
</g>
</g>
<!-- Node9&#45;&gt;Node8 -->
<g id="edge9" class="edge">
<title>Node9&#45;&gt;Node8</title>
<path fill="none" stroke="#9a32cd" stroke-dasharray="5,2" d="M738.02,-720.12C790.35,-715.39 877.29,-713.55 945,-742 974.51,-754.4 1000.08,-783.59 1012.14,-799.02"/>
<polygon fill="#9a32cd" stroke="#9a32cd" points="737.65,-716.64 728.03,-721.1 738.33,-723.61 737.65,-716.64"/>
<text text-anchor="middle" x="866.5" y="-745" font-family="Helvetica,sans-Serif" font-size="10.00" fill="grey"> sectionRefs</text>
</g>
<!-- Node10 -->
<g id="node10" class="node">
<title>Node10</title>
<g id="a_node10"><a xlink:href="../../d3/d3b/class_group_list.html" target="_top" xlink:title=" ">
<polygon fill="white" stroke="#666666" points="722.5,-1085.5 659.5,-1085.5 659.5,-1066.5 722.5,-1066.5 722.5,-1085.5"/>
<text text-anchor="middle" x="691" y="-1073.5" font-family="Helvetica,sans-Serif" font-size="10.00">GroupList</text>
</a>
</g>
</g>
<!-- Node10&#45;&gt;Node8 -->
<g id="edge10" class="edge">
<title>Node10&#45;&gt;Node8</title>
<path fill="none" stroke="#9a32cd" stroke-dasharray="5,2" d="M732.88,-1085.19C787.58,-1094.92 884.67,-1102.9 945,-1054 1020.98,-992.41 1021.39,-855.74 1020,-818.52"/>
<polygon fill="#9a32cd" stroke="#9a32cd" points="733.33,-1081.71 722.86,-1083.3 732.03,-1088.59 733.33,-1081.71"/>
<text text-anchor="middle" x="866.5" y="-1095" font-family="Helvetica,sans-Serif" font-size="10.00" fill="grey"> partOfGroups</text>
</g>
<!-- Node11 -->
<g id="node11" class="node">
<title>Node11</title>
<g id="a_node11"><a xlink:title=" ">
<polygon fill="white" stroke="#666666" points="451,-1085.5 305,-1085.5 305,-1066.5 451,-1066.5 451,-1085.5"/>
<text text-anchor="middle" x="378" y="-1073.5" font-family="Helvetica,sans-Serif" font-size="10.00">std::vector&lt; GroupDef * &gt;</text>
</a>
</g>
</g>
<!-- Node11&#45;&gt;Node10 -->
<g id="edge11" class="edge">
<title>Node11&#45;&gt;Node10</title>
<path fill="none" stroke="#63b8ff" d="M461.37,-1076C526.43,-1076 613.6,-1076 659.22,-1076"/>
<polygon fill="#63b8ff" stroke="#63b8ff" points="461.13,-1072.5 451.13,-1076 461.13,-1079.5 461.13,-1072.5"/>
</g>
<!-- Node12 -->
<g id="node12" class="node">
<title>Node12</title>
<g id="a_node12"><a xlink:href="../../d7/dd5/struct_doc_info.html" target="_top" xlink:title="Data associated with a detailed description.">
<polygon fill="white" stroke="#666666" points="718,-772.5 664,-772.5 664,-753.5 718,-753.5 718,-772.5"/>
<text text-anchor="middle" x="691" y="-760.5" font-family="Helvetica,sans-Serif" font-size="10.00">DocInfo</text>
</a>
</g>
</g>
<!-- Node12&#45;&gt;Node8 -->
<g id="edge12" class="edge">
<title>Node12&#45;&gt;Node8</title>
<path fill="none" stroke="#9a32cd" stroke-dasharray="5,2" d="M728.62,-759.83C778.42,-756.56 869.91,-754.24 945,-773 966.88,-778.47 989.94,-790.77 1004.51,-799.47"/>
<polygon fill="#9a32cd" stroke="#9a32cd" points="728.08,-756.36 718.35,-760.56 728.58,-763.34 728.08,-756.36"/>
<text text-anchor="middle" x="866.5" y="-787" font-family="Helvetica,sans-Serif" font-size="10.00" fill="grey"> details</text>
<text text-anchor="middle" x="866.5" y="-776" font-family="Helvetica,sans-Serif" font-size="10.00" fill="grey">inbodyDocs</text>
</g>
<!-- Node13 -->
<g id="node13" class="node">
<title>Node13</title>
<g id="a_node13"><a xlink:href="../../d9/d45/class_q_c_string.html" target="_top" xlink:title="This is an alternative implementation of QCString.">
<polygon fill="white" stroke="#666666" points="407.5,-772.5 348.5,-772.5 348.5,-753.5 407.5,-753.5 407.5,-772.5"/>
<text text-anchor="middle" x="378" y="-760.5" font-family="Helvetica,sans-Serif" font-size="10.00">QCString</text>
</a>
</g>
</g>
<!-- Node13&#45;&gt;Node8 -->
<g id="edge20" class="edge">
<title>Node13&#45;&gt;Node8</title>
<path fill="none" stroke="#9a32cd" stroke-dasharray="5,2" d="M417.53,-774.35C437.73,-779.79 463,-785.81 486,-789 658.37,-812.92 864.86,-812.51 962.71,-810.59"/>
<polygon fill="#9a32cd" stroke="#9a32cd" points="418.33,-770.94 407.76,-771.66 416.47,-777.69 418.33,-770.94"/>
<text text-anchor="middle" x="691" y="-922" font-family="Helvetica,sans-Serif" font-size="10.00" fill="grey"> briefSignatures</text>
<text text-anchor="middle" x="691" y="-911" font-family="Helvetica,sans-Serif" font-size="10.00" fill="grey">defFileExt</text>
<text text-anchor="middle" x="691" y="-900" font-family="Helvetica,sans-Serif" font-size="10.00" fill="grey">defFileName</text>
<text text-anchor="middle" x="691" y="-889" font-family="Helvetica,sans-Serif" font-size="10.00" fill="grey">docSignatures</text>
<text text-anchor="middle" x="691" y="-878" font-family="Helvetica,sans-Serif" font-size="10.00" fill="grey">id</text>
<text text-anchor="middle" x="691" y="-867" font-family="Helvetica,sans-Serif" font-size="10.00" fill="grey">localName</text>
<text text-anchor="middle" x="691" y="-856" font-family="Helvetica,sans-Serif" font-size="10.00" fill="grey">name</text>
<text text-anchor="middle" x="691" y="-845" font-family="Helvetica,sans-Serif" font-size="10.00" fill="grey">qualifiedName</text>
<text text-anchor="middle" x="691" y="-834" font-family="Helvetica,sans-Serif" font-size="10.00" fill="grey">ref</text>
<text text-anchor="middle" x="691" y="-823" font-family="Helvetica,sans-Serif" font-size="10.00" fill="grey">symbolName</text>
<text text-anchor="middle" x="691" y="-812" font-family="Helvetica,sans-Serif" font-size="10.00" fill="grey">...</text>
</g>
<!-- Node13&#45;&gt;Node12 -->
<g id="edge13" class="edge">
<title>Node13&#45;&gt;Node12</title>
<path fill="none" stroke="#9a32cd" stroke-dasharray="5,2" d="M417.82,-763C482.02,-763 608.68,-763 663.58,-763"/>
<polygon fill="#9a32cd" stroke="#9a32cd" points="417.7,-759.5 407.7,-763 417.7,-766.5 417.7,-759.5"/>
<text text-anchor="middle" x="540" y="-777" font-family="Helvetica,sans-Serif" font-size="10.00" fill="grey"> doc</text>
<text text-anchor="middle" x="540" y="-766" font-family="Helvetica,sans-Serif" font-size="10.00" fill="grey">file</text>
</g>
<!-- Node14 -->
<g id="node14" class="node">
<title>Node14</title>
<g id="a_node14"><a xlink:href="../../d0/da7/struct_brief_info.html" target="_top" xlink:title="Data associated with a brief description.">
<polygon fill="white" stroke="#666666" points="720.5,-967.5 661.5,-967.5 661.5,-948.5 720.5,-948.5 720.5,-967.5"/>
<text text-anchor="middle" x="691" y="-955.5" font-family="Helvetica,sans-Serif" font-size="10.00">BriefInfo</text>
</a>
</g>
</g>
<!-- Node13&#45;&gt;Node14 -->
<g id="edge15" class="edge">
<title>Node13&#45;&gt;Node14</title>
<path fill="none" stroke="#9a32cd" stroke-dasharray="5,2" d="M396.82,-779.41C434.08,-812.93 524.06,-889.79 612,-934 627.57,-941.83 646.18,-947.67 661.32,-951.64"/>
<polygon fill="#9a32cd" stroke="#9a32cd" points="399.06,-776.71 389.3,-772.59 394.35,-781.9 399.06,-776.71"/>
<text text-anchor="middle" x="540" y="-948" font-family="Helvetica,sans-Serif" font-size="10.00" fill="grey"> doc</text>
<text text-anchor="middle" x="540" y="-937" font-family="Helvetica,sans-Serif" font-size="10.00" fill="grey">file</text>
<text text-anchor="middle" x="540" y="-926" font-family="Helvetica,sans-Serif" font-size="10.00" fill="grey">tooltip</text>
</g>
<!-- Node13&#45;&gt;Node20 -->
<g id="edge26" class="edge">
<title>Node13&#45;&gt;Node20</title>
<path fill="none" stroke="#9a32cd" stroke-dasharray="5,2" d="M400.37,-747.24C439.92,-718.94 528.14,-659.8 612,-631 753.48,-582.42 833.88,-682.15 945,-582 988.82,-542.51 1013.25,-346.02 1018.45,-299.76"/>
<polygon fill="#9a32cd" stroke="#9a32cd" points="397.88,-744.72 391.83,-753.42 401.98,-750.4 397.88,-744.72"/>
<text text-anchor="middle" x="691" y="-700" font-family="Helvetica,sans-Serif" font-size="10.00" fill="grey"> className</text>
<text text-anchor="middle" x="691" y="-689" font-family="Helvetica,sans-Serif" font-size="10.00" fill="grey">collabFileName</text>
<text text-anchor="middle" x="691" y="-678" font-family="Helvetica,sans-Serif" font-size="10.00" fill="grey">fileName</text>
<text text-anchor="middle" x="691" y="-667" font-family="Helvetica,sans-Serif" font-size="10.00" fill="grey">inheritFileName</text>
<text text-anchor="middle" x="691" y="-656" font-family="Helvetica,sans-Serif" font-size="10.00" fill="grey">memberListFileName</text>
<text text-anchor="middle" x="691" y="-645" font-family="Helvetica,sans-Serif" font-size="10.00" fill="grey">metaData</text>
<text text-anchor="middle" x="691" y="-634" font-family="Helvetica,sans-Serif" font-size="10.00" fill="grey">requiresClause</text>
</g>
<!-- Node24 -->
<g id="node24" class="node">
<title>Node24</title>
<g id="a_node24"><a xlink:href="../../d7/df8/class_argument_list.html" target="_top" xlink:title="This class represents an function or template argument list.">
<polygon fill="white" stroke="#666666" points="732,-584.5 650,-584.5 650,-565.5 732,-565.5 732,-584.5"/>
<text text-anchor="middle" x="691" y="-572.5" font-family="Helvetica,sans-Serif" font-size="10.00">ArgumentList</text>
</a>
</g>
</g>
<!-- Node13&#45;&gt;Node24 -->
<g id="edge32" class="edge">
<title>Node13&#45;&gt;Node24</title>
<path fill="none" stroke="#9a32cd" stroke-dasharray="5,2" d="M385.14,-743.47C397.62,-707.37 429.66,-630.68 486,-596 536.03,-565.21 606.31,-565.38 649.96,-569.4"/>
<polygon fill="#9a32cd" stroke="#9a32cd" points="381.71,-742.69 381.89,-753.29 388.35,-744.9 381.71,-742.69"/>
<text text-anchor="middle" x="540" y="-599" font-family="Helvetica,sans-Serif" font-size="10.00" fill="grey"> m_trailingReturnType</text>
</g>
<!-- Node14&#45;&gt;Node8 -->
<g id="edge14" class="edge">
<title>Node14&#45;&gt;Node8</title>
<path fill="none" stroke="#9a32cd" stroke-dasharray="5,2" d="M730.42,-947.56C743.17,-943.73 757.34,-939.08 770,-934 860.61,-897.66 963.15,-841.08 1002.71,-818.64"/>
<polygon fill="#9a32cd" stroke="#9a32cd" points="729.17,-944.28 720.55,-950.45 731.13,-951 729.17,-944.28"/>
<text text-anchor="middle" x="866.5" y="-928" font-family="Helvetica,sans-Serif" font-size="10.00" fill="grey"> brief</text>
</g>
<!-- Node15 -->
<g id="node15" class="node">
<title>Node15</title>
<g id="a_node15"><a xlink:href="../../db/dab/struct_body_info.html" target="_top" xlink:title="Data associated with description found in the body.">
<polygon fill="white" stroke="#666666" points="721,-547.5 661,-547.5 661,-528.5 721,-528.5 721,-547.5"/>
<text text-anchor="middle" x="691" y="-535.5" font-family="Helvetica,sans-Serif" font-size="10.00">BodyInfo</text>
</a>
</g>
</g>
<!-- Node15&#45;&gt;Node8 -->
<g id="edge16" class="edge">
<title>Node15&#45;&gt;Node8</title>
<path fill="none" stroke="#9a32cd" stroke-dasharray="5,2" d="M731.49,-542.2C744.54,-544.95 758.62,-549.49 770,-557 781.13,-564.34 778.63,-571.51 788,-581 849.88,-643.7 884.23,-638.22 945,-702 975.6,-734.12 1003.02,-779.78 1014.18,-799.42"/>
<polygon fill="#9a32cd" stroke="#9a32cd" points="731.78,-538.69 721.32,-540.35 730.54,-545.58 731.78,-538.69"/>
<text text-anchor="middle" x="866.5" y="-705" font-family="Helvetica,sans-Serif" font-size="10.00" fill="grey"> body</text>
</g>
<!-- Node16&#45;&gt;Node15 -->
<g id="edge17" class="edge">
<title>Node16&#45;&gt;Node15</title>
<path fill="none" stroke="#9a32cd" stroke-dasharray="5,2" d="M413.69,-485.58C475.45,-497.3 603.35,-521.56 660.87,-532.47"/>
<polygon fill="#9a32cd" stroke="#9a32cd" points="414.14,-482.1 403.66,-483.68 412.84,-488.98 414.14,-482.1"/>
<text text-anchor="middle" x="540" y="-521" font-family="Helvetica,sans-Serif" font-size="10.00" fill="grey"> fileDef</text>
</g>
<!-- Node16&#45;&gt;Node20 -->
<g id="edge27" class="edge">
<title>Node16&#45;&gt;Node20</title>
<path fill="none" stroke="#9a32cd" stroke-dasharray="5,2" d="M413.77,-477.98C482.5,-475.43 640.34,-466.9 770,-440 849.96,-423.41 877.84,-430.46 945,-384 978.39,-360.9 1004.14,-318.45 1014.51,-299.53"/>
<polygon fill="#9a32cd" stroke="#9a32cd" points="413.39,-474.49 403.52,-478.34 413.64,-481.49 413.39,-474.49"/>
<text text-anchor="middle" x="691" y="-466" font-family="Helvetica,sans-Serif" font-size="10.00" fill="grey"> fileDef</text>
</g>
<!-- Node17 -->
<g id="node17" class="node">
<title>Node17</title>
<g id="a_node17"><a xlink:href="../../d1/d7d/class_member_vector.html" target="_top" xlink:title="A vector of MemberDef object.">
<polygon fill="white" stroke="#666666" points="735,-1043.5 647,-1043.5 647,-1024.5 735,-1024.5 735,-1043.5"/>
<text text-anchor="middle" x="691" y="-1031.5" font-family="Helvetica,sans-Serif" font-size="10.00">MemberVector</text>
</a>
</g>
</g>
<!-- Node17&#45;&gt;Node8 -->
<g id="edge21" class="edge">
<title>Node17&#45;&gt;Node8</title>
<path fill="none" stroke="#9a32cd" stroke-dasharray="5,2" d="M745.37,-1031.71C814.92,-1028.28 929.56,-1020.9 945,-1009 1008.4,-960.16 1017.85,-851.35 1019.26,-818.55"/>
<polygon fill="#9a32cd" stroke="#9a32cd" points="744.85,-1028.23 735.03,-1032.21 745.19,-1035.23 744.85,-1028.23"/>
<text text-anchor="middle" x="866.5" y="-1043" font-family="Helvetica,sans-Serif" font-size="10.00" fill="grey"> referencedByMembers</text>
<text text-anchor="middle" x="866.5" y="-1032" font-family="Helvetica,sans-Serif" font-size="10.00" fill="grey">referencesMembers</text>
</g>
<!-- Node18&#45;&gt;Node2 -->
<g id="edge22" class="edge">
<title>Node18&#45;&gt;Node2</title>
<path fill="none" stroke="orange" stroke-dasharray="5,2" d="M1463.36,-582.3C1499.48,-579 1542.59,-572.76 1580,-561 1603.88,-553.49 1628.96,-539.85 1646.56,-529.19"/>
<polygon fill="orange" stroke="orange" points="1463.03,-578.82 1453.37,-583.16 1463.63,-585.79 1463.03,-578.82"/>
<text text-anchor="middle" x="1525.5" y="-584" font-family="Helvetica,sans-Serif" font-size="10.00" fill="grey"> &lt; ClassDefMutable &gt;</text>
</g>
<!-- Node19 -->
<g id="node19" class="node">
<title>Node19</title>
<g id="a_node19"><a xlink:title=" ">
<polygon fill="white" stroke="#666666" points="1217.5,-623.5 1176.5,-623.5 1176.5,-604.5 1217.5,-604.5 1217.5,-623.5"/>
<text text-anchor="middle" x="1197" y="-611.5" font-family="Helvetica,sans-Serif" font-size="10.00">Base</text>
</a>
</g>
</g>
<!-- Node19&#45;&gt;Node18 -->
<g id="edge23" class="edge">
<title>Node19&#45;&gt;Node18</title>
<path fill="none" stroke="#63b8ff" d="M1227.42,-609.56C1252.34,-605.8 1288.94,-600.27 1320.44,-595.52"/>
<polygon fill="#63b8ff" stroke="#63b8ff" points="1226.87,-606.1 1217.5,-611.06 1227.91,-613.02 1226.87,-606.1"/>
</g>
<!-- Node20&#45;&gt;Node1 -->
<g id="edge25" class="edge">
<title>Node20&#45;&gt;Node1</title>
<path fill="none" stroke="#9a32cd" stroke-dasharray="5,2" d="M1030.49,-308.47C1052.43,-350.56 1113.05,-450 1196,-450 1196,-450 1196,-450 1672,-450 1708.98,-450 1750.96,-453.72 1780.91,-457.02"/>
<polygon fill="#9a32cd" stroke="#9a32cd" points="1033.61,-306.87 1025.97,-299.53 1027.36,-310.03 1033.61,-306.87"/>
<text text-anchor="middle" x="1384.5" y="-453" font-family="Helvetica,sans-Serif" font-size="10.00" fill="grey"> m_impl</text>
</g>
<!-- Node21 -->
<g id="node21" class="node">
<title>Node21</title>
<g id="a_node21"><a xlink:href="../../de/d04/class_member_name_info_linked_map.html" target="_top" xlink:title=" ">
<polygon fill="white" stroke="#666666" points="770,-42.5 612,-42.5 612,-23.5 770,-23.5 770,-42.5"/>
<text text-anchor="middle" x="691" y="-30.5" font-family="Helvetica,sans-Serif" font-size="10.00">MemberNameInfoLinkedMap</text>
</a>
</g>
</g>
<!-- Node21&#45;&gt;Node20 -->
<g id="edge28" class="edge">
<title>Node21&#45;&gt;Node20</title>
<path fill="none" stroke="#9a32cd" stroke-dasharray="5,2" d="M734.48,-21.05C789.2,-8.41 884.46,3.86 945,-43 984.49,-73.57 1011.71,-238.31 1018.07,-280.27"/>
<polygon fill="#9a32cd" stroke="#9a32cd" points="733.65,-17.65 724.75,-23.39 735.29,-24.45 733.65,-17.65"/>
<text text-anchor="middle" x="866.5" y="-46" font-family="Helvetica,sans-Serif" font-size="10.00" fill="grey"> allMemberNameInfoLinkedMap</text>
</g>
<!-- Node22 -->
<g id="node22" class="node">
<title>Node22</title>
<g id="a_node22"><a xlink:href="../../d0/d2c/class_linked_map.html" target="_top" xlink:title=" ">
<polygon fill="white" stroke="#666666" points="468,-24.5 288,-24.5 288,-5.5 468,-5.5 468,-24.5"/>
<text text-anchor="middle" x="378" y="-12.5" font-family="Helvetica,sans-Serif" font-size="10.00">LinkedMap&lt; MemberNameInfo &gt;</text>
</a>
</g>
</g>
<!-- Node22&#45;&gt;Node21 -->
<g id="edge29" class="edge">
<title>Node22&#45;&gt;Node21</title>
<path fill="none" stroke="#63b8ff" d="M478.38,-20.75C521.59,-23.25 571.49,-26.14 611.97,-28.48"/>
<polygon fill="#63b8ff" stroke="#63b8ff" points="478.31,-17.24 468.12,-20.16 477.9,-24.23 478.31,-17.24"/>
</g>
<!-- Node23 -->
<g id="node23" class="node">
<title>Node23</title>
<g id="a_node23"><a xlink:href="../../d0/d2c/class_linked_map.html" target="_top" xlink:title="Container class representing a vector of objects with keys.">
<polygon fill="white" stroke="#666666" points="128.5,-30 8.5,-30 8.5,0 128.5,0 128.5,-30"/>
<text text-anchor="start" x="16.5" y="-18" font-family="Helvetica,sans-Serif" font-size="10.00">LinkedMap&lt; T, Hash,</text>
<text text-anchor="middle" x="68.5" y="-7" font-family="Helvetica,sans-Serif" font-size="10.00"> KeyEqual, Map &gt;</text>
</a>
</g>
</g>
<!-- Node23&#45;&gt;Node22 -->
<g id="edge30" class="edge">
<title>Node23&#45;&gt;Node22</title>
<path fill="none" stroke="orange" stroke-dasharray="5,2" d="M138.84,-15C182.92,-15 240.43,-15 287.89,-15"/>
<polygon fill="orange" stroke="orange" points="138.79,-11.5 128.79,-15 138.79,-18.5 138.79,-11.5"/>
<text text-anchor="middle" x="212.5" y="-18" font-family="Helvetica,sans-Serif" font-size="10.00" fill="grey"> &lt; MemberNameInfo &gt;</text>
</g>
<!-- Node24&#45;&gt;Node20 -->
<g id="edge31" class="edge">
<title>Node24&#45;&gt;Node20</title>
<path fill="none" stroke="#9a32cd" stroke-dasharray="5,2" d="M742.24,-568.25C799.02,-558.03 890.6,-533.34 945,-476 995.76,-422.5 1013.54,-330.05 1018.15,-299.85"/>
<polygon fill="#9a32cd" stroke="#9a32cd" points="741.32,-564.85 732.06,-569.99 742.5,-571.75 741.32,-564.85"/>
<text text-anchor="middle" x="866.5" y="-570" font-family="Helvetica,sans-Serif" font-size="10.00" fill="grey"> tempArgs</text>
<text text-anchor="middle" x="866.5" y="-559" font-family="Helvetica,sans-Serif" font-size="10.00" fill="grey">typeConstraints</text>
</g>
<!-- Node25 -->
<g id="node25" class="node">
<title>Node25</title>
<g id="a_node25"><a xlink:href="../../d0/d18/class_file_list.html" target="_top" xlink:title=" ">
<polygon fill="white" stroke="#666666" points="716.5,-356.5 665.5,-356.5 665.5,-337.5 716.5,-337.5 716.5,-356.5"/>
<text text-anchor="middle" x="691" y="-344.5" font-family="Helvetica,sans-Serif" font-size="10.00">FileList</text>
</a>
</g>
</g>
<!-- Node25&#45;&gt;Node20 -->
<g id="edge33" class="edge">
<title>Node25&#45;&gt;Node20</title>
<path fill="none" stroke="#9a32cd" stroke-dasharray="5,2" d="M726.95,-346.31C776.26,-344.65 868.74,-339.03 945,-320 964.35,-315.17 985.32,-306.38 1000.08,-299.55"/>
<polygon fill="#9a32cd" stroke="#9a32cd" points="726.71,-342.81 716.82,-346.61 726.92,-349.81 726.71,-342.81"/>
<text text-anchor="middle" x="866.5" y="-346" font-family="Helvetica,sans-Serif" font-size="10.00" fill="grey"> files</text>
</g>
<!-- Node26 -->
<g id="node26" class="node">
<title>Node26</title>
<g id="a_node26"><a xlink:title=" ">
<polygon fill="white" stroke="#666666" points="431,-368 325,-368 325,-338 431,-338 431,-368"/>
<text text-anchor="start" x="333" y="-356" font-family="Helvetica,sans-Serif" font-size="10.00">std::vector&lt; const</text>
<text text-anchor="middle" x="378" y="-345" font-family="Helvetica,sans-Serif" font-size="10.00"> FileDef * &gt;</text>
</a>
</g>
</g>
<!-- Node26&#45;&gt;Node25 -->
<g id="edge34" class="edge">
<title>Node26&#45;&gt;Node25</title>
<path fill="none" stroke="#63b8ff" d="M441.31,-351.8C509.99,-350.47 617.09,-348.41 665.17,-347.48"/>
<polygon fill="#63b8ff" stroke="#63b8ff" points="440.99,-348.3 431.05,-352 441.12,-355.3 440.99,-348.3"/>
</g>
<!-- Node27 -->
<g id="node27" class="node">
<title>Node27</title>
<g id="a_node27"><a xlink:href="../../d1/d48/class_example_list.html" target="_top" xlink:title=" ">
<polygon fill="white" stroke="#666666" points="729.5,-319.5 652.5,-319.5 652.5,-300.5 729.5,-300.5 729.5,-319.5"/>
<text text-anchor="middle" x="691" y="-307.5" font-family="Helvetica,sans-Serif" font-size="10.00">ExampleList</text>
</a>
</g>
</g>
<!-- Node27&#45;&gt;Node20 -->
<g id="edge35" class="edge">
<title>Node27&#45;&gt;Node20</title>
<path fill="none" stroke="#9a32cd" stroke-dasharray="5,2" d="M739.87,-307.08C799.69,-303.42 901.83,-297.19 964.72,-293.35"/>
<polygon fill="#9a32cd" stroke="#9a32cd" points="739.34,-303.6 729.57,-307.71 739.76,-310.59 739.34,-303.6"/>
<text text-anchor="middle" x="866.5" y="-308" font-family="Helvetica,sans-Serif" font-size="10.00" fill="grey"> examples</text>
</g>
<!-- Node28 -->
<g id="node28" class="node">
<title>Node28</title>
<g id="a_node28"><a xlink:title=" ">
<polygon fill="white" stroke="#666666" points="445,-319.5 311,-319.5 311,-300.5 445,-300.5 445,-319.5"/>
<text text-anchor="middle" x="378" y="-307.5" font-family="Helvetica,sans-Serif" font-size="10.00">std::vector&lt; Example &gt;</text>
</a>
</g>
</g>
<!-- Node28&#45;&gt;Node27 -->
<g id="edge36" class="edge">
<title>Node28&#45;&gt;Node27</title>
<path fill="none" stroke="#63b8ff" d="M455.53,-310C517.94,-310 603.46,-310 652.09,-310"/>
<polygon fill="#63b8ff" stroke="#63b8ff" points="455.34,-306.5 445.34,-310 455.34,-313.5 455.34,-306.5"/>
</g>
<!-- Node29 -->
<g id="node29" class="node">
<title>Node29</title>
<g id="a_node29"><a xlink:href="../../da/d08/class_class_linked_ref_map.html" target="_top" xlink:title=" ">
<polygon fill="white" stroke="#666666" points="747,-120.5 635,-120.5 635,-101.5 747,-101.5 747,-120.5"/>
<text text-anchor="middle" x="691" y="-108.5" font-family="Helvetica,sans-Serif" font-size="10.00">ClassLinkedRefMap</text>
</a>
</g>
</g>
<!-- Node29&#45;&gt;Node20 -->
<g id="edge37" class="edge">
<title>Node29&#45;&gt;Node20</title>
<path fill="none" stroke="#9a32cd" stroke-dasharray="5,2" d="M757.33,-110.36C822.06,-110.96 915.67,-115.53 945,-136 996.14,-171.7 1013.51,-252.46 1018.1,-280.33"/>
<polygon fill="#9a32cd" stroke="#9a32cd" points="757.22,-106.86 747.2,-110.3 757.18,-113.86 757.22,-106.86"/>
<text text-anchor="middle" x="866.5" y="-139" font-family="Helvetica,sans-Serif" font-size="10.00" fill="grey"> innerClasses</text>
</g>
<!-- Node30 -->
<g id="node30" class="node">
<title>Node30</title>
<g id="a_node30"><a xlink:href="../../d2/db7/class_linked_ref_map.html" target="_top" xlink:title=" ">
<polygon fill="white" stroke="#666666" points="454,-110.5 302,-110.5 302,-91.5 454,-91.5 454,-110.5"/>
<text text-anchor="middle" x="378" y="-98.5" font-family="Helvetica,sans-Serif" font-size="10.00">LinkedRefMap&lt; ClassDef &gt;</text>
</a>
</g>
</g>
<!-- Node30&#45;&gt;Node29 -->
<g id="edge38" class="edge">
<title>Node30&#45;&gt;Node29</title>
<path fill="none" stroke="#63b8ff" d="M464.61,-103.75C518.96,-105.5 587.71,-107.71 634.9,-109.23"/>
<polygon fill="#63b8ff" stroke="#63b8ff" points="464.39,-100.24 454.28,-103.42 464.17,-107.24 464.39,-100.24"/>
</g>
<!-- Node31 -->
<g id="node31" class="node">
<title>Node31</title>
<g id="a_node31"><a xlink:href="../../d2/db7/class_linked_ref_map.html" target="_top" xlink:title="Container class representing a vector of objects with keys.">
<polygon fill="white" stroke="#666666" points="137,-116 0,-116 0,-86 137,-86 137,-116"/>
<text text-anchor="start" x="8" y="-104" font-family="Helvetica,sans-Serif" font-size="10.00">LinkedRefMap&lt; T, Hash,</text>
<text text-anchor="middle" x="68.5" y="-93" font-family="Helvetica,sans-Serif" font-size="10.00"> KeyEqual, Map &gt;</text>
</a>
</g>
</g>
<!-- Node31&#45;&gt;Node30 -->
<g id="edge39" class="edge">
<title>Node31&#45;&gt;Node30</title>
<path fill="none" stroke="orange" stroke-dasharray="5,2" d="M147.56,-101C194.89,-101 254.96,-101 301.76,-101"/>
<polygon fill="orange" stroke="orange" points="147.36,-97.5 137.36,-101 147.36,-104.5 147.36,-97.5"/>
<text text-anchor="middle" x="212.5" y="-104" font-family="Helvetica,sans-Serif" font-size="10.00" fill="grey"> &lt; ClassDef &gt;</text>
</g>
<!-- Node32 -->
<g id="node32" class="node">
<title>Node32</title>
<g id="a_node32"><a xlink:href="../../dd/d1c/class_uses_class_list.html" target="_top" xlink:title=" ">
<polygon fill="white" stroke="#666666" points="733,-282.5 649,-282.5 649,-263.5 733,-263.5 733,-282.5"/>
<text text-anchor="middle" x="691" y="-270.5" font-family="Helvetica,sans-Serif" font-size="10.00">UsesClassList</text>
</a>
</g>
</g>
<!-- Node32&#45;&gt;Node20 -->
<g id="edge40" class="edge">
<title>Node32&#45;&gt;Node20</title>
<path fill="none" stroke="#9a32cd" stroke-dasharray="5,2" d="M743.17,-267.13C794.49,-262.38 875.64,-257.97 945,-268 961.55,-270.39 979.55,-275.63 993.71,-280.39"/>
<polygon fill="#9a32cd" stroke="#9a32cd" points="742.62,-263.67 733,-268.11 743.29,-270.64 742.62,-263.67"/>
<text text-anchor="middle" x="866.5" y="-282" font-family="Helvetica,sans-Serif" font-size="10.00" fill="grey"> usedByImplClassList</text>
<text text-anchor="middle" x="866.5" y="-271" font-family="Helvetica,sans-Serif" font-size="10.00" fill="grey">usesImplClassList</text>
</g>
<!-- Node33 -->
<g id="node33" class="node">
<title>Node33</title>
<g id="a_node33"><a xlink:title=" ">
<polygon fill="white" stroke="#666666" points="457,-282.5 299,-282.5 299,-263.5 457,-263.5 457,-282.5"/>
<text text-anchor="middle" x="378" y="-270.5" font-family="Helvetica,sans-Serif" font-size="10.00">std::vector&lt; UsesClassDef &gt;</text>
</a>
</g>
</g>
<!-- Node33&#45;&gt;Node32 -->
<g id="edge41" class="edge">
<title>Node33&#45;&gt;Node32</title>
<path fill="none" stroke="#63b8ff" d="M467.24,-273C526.77,-273 602.59,-273 648.65,-273"/>
<polygon fill="#63b8ff" stroke="#63b8ff" points="467.08,-269.5 457.08,-273 467.08,-276.5 467.08,-269.5"/>
</g>
<!-- Node34 -->
<g id="node34" class="node">
<title>Node34</title>
<g id="a_node34"><a xlink:href="../../d6/d69/class_constraint_class_list.html" target="_top" xlink:title=" ">
<polygon fill="white" stroke="#666666" points="746,-197.5 636,-197.5 636,-178.5 746,-178.5 746,-197.5"/>
<text text-anchor="middle" x="691" y="-185.5" font-family="Helvetica,sans-Serif" font-size="10.00">ConstraintClassList</text>
</a>
</g>
</g>
<!-- Node34&#45;&gt;Node20 -->
<g id="edge42" class="edge">
<title>Node34&#45;&gt;Node20</title>
<path fill="none" stroke="#9a32cd" stroke-dasharray="5,2" d="M756.61,-188.07C820.43,-189.08 912.98,-193.34 945,-209 977.95,-225.12 1003.38,-262.62 1014.04,-280.37"/>
<polygon fill="#9a32cd" stroke="#9a32cd" points="756.28,-184.57 746.24,-187.93 756.19,-191.57 756.28,-184.57"/>
<text text-anchor="middle" x="866.5" y="-212" font-family="Helvetica,sans-Serif" font-size="10.00" fill="grey"> constraintClassList</text>
</g>
<!-- Node35 -->
<g id="node35" class="node">
<title>Node35</title>
<g id="a_node35"><a xlink:title=" ">
<polygon fill="white" stroke="#666666" points="456,-207 300,-207 300,-177 456,-177 456,-207"/>
<text text-anchor="start" x="308" y="-195" font-family="Helvetica,sans-Serif" font-size="10.00">std::vector&lt; ConstraintClass</text>
<text text-anchor="middle" x="378" y="-184" font-family="Helvetica,sans-Serif" font-size="10.00">Def &gt;</text>
</a>
</g>
</g>
<!-- Node35&#45;&gt;Node34 -->
<g id="edge43" class="edge">
<title>Node35&#45;&gt;Node34</title>
<path fill="none" stroke="#63b8ff" d="M466.6,-190.87C520.91,-190.17 588.97,-189.3 635.61,-188.7"/>
<polygon fill="#63b8ff" stroke="#63b8ff" points="466.23,-187.38 456.28,-191.01 466.32,-194.38 466.23,-187.38"/>
</g>
<!-- Node36 -->
<g id="node36" class="node">
<title>Node36</title>
<g id="a_node36"><a xlink:href="../../dd/d5a/class_member_lists.html" target="_top" xlink:title=" ">
<polygon fill="white" stroke="#666666" points="731,-159.5 651,-159.5 651,-140.5 731,-140.5 731,-159.5"/>
<text text-anchor="middle" x="691" y="-147.5" font-family="Helvetica,sans-Serif" font-size="10.00">MemberLists</text>
</a>
</g>
</g>
<!-- Node36&#45;&gt;Node20 -->
<g id="edge45" class="edge">
<title>Node36&#45;&gt;Node20</title>
<path fill="none" stroke="#9a32cd" stroke-dasharray="5,2" d="M741.27,-149.65C805.04,-150.04 911.9,-153.83 945,-174 986.49,-199.28 1009.03,-257.41 1016.58,-280.39"/>
<polygon fill="#9a32cd" stroke="#9a32cd" points="741.06,-146.15 731.04,-149.61 741.03,-153.15 741.06,-146.15"/>
<text text-anchor="middle" x="866.5" y="-177" font-family="Helvetica,sans-Serif" font-size="10.00" fill="grey"> memberLists</text>
</g>
<!-- Node37 -->
<g id="node37" class="node">
<title>Node37</title>
<g id="a_node37"><a xlink:title=" ">
<polygon fill="white" stroke="#666666" points="445,-159 311,-159 311,-129 445,-129 445,-159"/>
<text text-anchor="start" x="319" y="-147" font-family="Helvetica,sans-Serif" font-size="10.00">std::vector&lt; std::unique</text>
<text text-anchor="middle" x="378" y="-136" font-family="Helvetica,sans-Serif" font-size="10.00">_ptr&lt; MemberList &gt; &gt;</text>
</a>
</g>
</g>
<!-- Node37&#45;&gt;Node36 -->
<g id="edge46" class="edge">
<title>Node37&#45;&gt;Node36</title>
<path fill="none" stroke="#63b8ff" d="M455.45,-145.47C517.3,-146.67 601.9,-148.3 650.77,-149.24"/>
<polygon fill="#63b8ff" stroke="#63b8ff" points="455.4,-141.97 445.34,-145.28 455.27,-148.97 455.4,-141.97"/>
</g>
<!-- Node38 -->
<g id="node38" class="node">
<title>Node38</title>
<g id="a_node38"><a xlink:href="../../df/d11/class_member_group_list.html" target="_top" xlink:title=" ">
<polygon fill="white" stroke="#666666" points="743,-80.5 639,-80.5 639,-61.5 743,-61.5 743,-80.5"/>
<text text-anchor="middle" x="691" y="-68.5" font-family="Helvetica,sans-Serif" font-size="10.00">MemberGroupList</text>
</a>
</g>
</g>
<!-- Node38&#45;&gt;Node20 -->
<g id="edge47" class="edge">
<title>Node38&#45;&gt;Node20</title>
<path fill="none" stroke="#9a32cd" stroke-dasharray="5,2" d="M753.32,-60.58C808.99,-54.68 890.5,-55.36 945,-97 1006.36,-143.88 1017.2,-248.15 1019.1,-280.34"/>
<polygon fill="#9a32cd" stroke="#9a32cd" points="752.76,-57.12 743.23,-61.75 753.57,-64.08 752.76,-57.12"/>
<text text-anchor="middle" x="866.5" y="-100" font-family="Helvetica,sans-Serif" font-size="10.00" fill="grey"> memberGroups</text>
</g>
<!-- Node39 -->
<g id="node39" class="node">
<title>Node39</title>
<g id="a_node39"><a xlink:title=" ">
<polygon fill="white" stroke="#666666" points="447.5,-73 308.5,-73 308.5,-43 447.5,-43 447.5,-73"/>
<text text-anchor="start" x="316.5" y="-61" font-family="Helvetica,sans-Serif" font-size="10.00">std::vector&lt; std::unique</text>
<text text-anchor="middle" x="378" y="-50" font-family="Helvetica,sans-Serif" font-size="10.00">_ptr&lt; MemberGroup &gt; &gt;</text>
</a>
</g>
</g>
<!-- Node39&#45;&gt;Node38 -->
<g id="edge48" class="edge">
<title>Node39&#45;&gt;Node38</title>
<path fill="none" stroke="#63b8ff" d="M457.67,-61.29C514.53,-63.67 589.7,-66.81 638.92,-68.87"/>
<polygon fill="#63b8ff" stroke="#63b8ff" points="457.77,-57.79 447.64,-60.87 457.48,-64.78 457.77,-57.79"/>
</g>
<!-- Node40&#45;&gt;Node20 -->
<g id="edge49" class="edge">
<title>Node40&#45;&gt;Node20</title>
<path fill="none" stroke="#9a32cd" stroke-dasharray="5,2" d="M587.25,-231.25C663.2,-227.94 818.56,-226.31 945,-258 965.21,-263.07 986.95,-272.97 1001.7,-280.42"/>
<polygon fill="#9a32cd" stroke="#9a32cd" points="586.9,-227.76 577.07,-231.72 587.22,-234.75 586.9,-227.76"/>
<text text-anchor="middle" x="691" y="-236" font-family="Helvetica,sans-Serif" font-size="10.00" fill="grey"> arrowOperator</text>
</g>
</g>
</svg>
