<?xml version="1.0" encoding="UTF-8" standalone="no"?>
<!DOCTYPE svg PUBLIC "-//W3C//DTD SVG 1.1//EN"
 "http://www.w3.org/Graphics/SVG/1.1/DTD/svg11.dtd">
<!-- Generated by graphviz version 2.43.0 (0)
 -->
<!-- Title: vhdl::parser::ParseException Pages: 1 -->
<svg width="221pt" height="96pt"
 viewBox="0.00 0.00 220.50 96.00" xmlns="http://www.w3.org/2000/svg" xmlns:xlink="http://www.w3.org/1999/xlink">
<g id="graph0" class="graph" transform="scale(1 1) rotate(0) translate(4 92)">
<title>vhdl::parser::ParseException</title>
<!-- Node1 -->
<g id="node1" class="node">
<title>Node1</title>
<g id="a_node1"><a xlink:title="This exception is thrown when parse errors are encountered.">
<polygon fill="#999999" stroke="#666666" points="155,-19 0,-19 0,0 155,0 155,-19"/>
<text text-anchor="middle" x="77.5" y="-7" font-family="Helvetica,sans-Serif" font-size="10.00">vhdl::parser::ParseException</text>
</a>
</g>
</g>
<!-- Node2 -->
<g id="node2" class="node">
<title>Node2</title>
<g id="a_node2"><a xlink:href="../../dc/de7/classvhdl_1_1parser_1_1_token.html" target="_top" xlink:title="Describes the input token stream.">
<polygon fill="white" stroke="#666666" points="131.5,-86.5 23.5,-86.5 23.5,-67.5 131.5,-67.5 131.5,-86.5"/>
<text text-anchor="middle" x="77.5" y="-74.5" font-family="Helvetica,sans-Serif" font-size="10.00">vhdl::parser::Token</text>
</a>
</g>
</g>
<!-- Node2&#45;&gt;Node1 -->
<g id="edge1" class="edge">
<title>Node2&#45;&gt;Node1</title>
<path fill="none" stroke="#9a32cd" stroke-dasharray="5,2" d="M77.5,-57.18C77.5,-44.71 77.5,-28.92 77.5,-19.27"/>
<polygon fill="#9a32cd" stroke="#9a32cd" points="74,-57.44 77.5,-67.44 81,-57.44 74,-57.44"/>
<text text-anchor="middle" x="110.5" y="-40" font-family="Helvetica,sans-Serif" font-size="10.00" fill="grey"> currentToken</text>
</g>
<!-- Node2&#45;&gt;Node2 -->
<g id="edge2" class="edge">
<title>Node2&#45;&gt;Node2</title>
<path fill="none" stroke="#9a32cd" stroke-dasharray="5,2" d="M141.46,-81.82C146.43,-80.75 149.5,-79.15 149.5,-77 149.5,-73.65 142.03,-71.62 131.51,-70.91"/>
<polygon fill="#9a32cd" stroke="#9a32cd" points="140.98,-78.35 131.51,-83.09 141.87,-85.29 140.98,-78.35"/>
<text text-anchor="middle" x="181" y="-80" font-family="Helvetica,sans-Serif" font-size="10.00" fill="grey"> next</text>
<text text-anchor="middle" x="181" y="-69" font-family="Helvetica,sans-Serif" font-size="10.00" fill="grey">specialToken</text>
</g>
</g>
</svg>
