<?xml version="1.0" encoding="UTF-8" standalone="no"?>
<!DOCTYPE svg PUBLIC "-//W3C//DTD SVG 1.1//EN"
 "http://www.w3.org/Graphics/SVG/1.1/DTD/svg11.dtd">
<!-- Generated by graphviz version 2.43.0 (0)
 -->
<!-- Title: /home/runner/work/doxygen/doxygen/src/entry.h Pages: 1 -->
<!--zoomable 313 -->
<svg id="main" version="1.1" xmlns="http://www.w3.org/2000/svg" xmlns:xlink="http://www.w3.org/1999/xlink" xml:space="preserve" onload="init(evt)">
<style type="text/css"><![CDATA[
.edge:hover path { stroke: red; }
.edge:hover polygon { stroke: red; fill: red; }
]]></style>
<script type="text/javascript"><![CDATA[
var edges = document.getElementsByTagName('g');
if (edges && edges.length) {
  for (var i=0;i<edges.length;i++) {
    if (edges[i].id.substr(0,4)=='edge') {
      edges[i].setAttribute('class','edge');
    }
  }
}
]]></script>
        <defs>
                <circle id="rim" cx="0" cy="0" r="7"/>
                <circle id="rim2" cx="0" cy="0" r="3.5"/>
                <g id="zoomPlus">
                        <use xlink:href="#rim" fill="#404040">
                                <set attributeName="fill" to="#808080" begin="zoomplus.mouseover" end="zoomplus.mouseout"/>
                        </use>
                        <path d="M-4,0h8M0,-4v8" fill="none" stroke="white" stroke-width="1.5" pointer-events="none"/>
                </g>
                <g id="zoomMin">
                        <use xlink:href="#rim" fill="#404040">
                                <set attributeName="fill" to="#808080" begin="zoomminus.mouseover" end="zoomminus.mouseout"/>
                        </use>
                        <path d="M-4,0h8" fill="none" stroke="white" stroke-width="1.5" pointer-events="none"/>
                </g>
                <g id="dirArrow">
                        <path fill="none" stroke="white" stroke-width="1.5" d="M0,-3.0v7 M-2.5,-0.5L0,-3.0L2.5,-0.5"/>
                </g>
               <g id="resetDef">
                       <use xlink:href="#rim2" fill="#404040">
                               <set attributeName="fill" to="#808080" begin="reset.mouseover" end="reset.mouseout"/>
                       </use>
               </g>
        </defs>

<script type="text/javascript">
var viewWidth = 920;
var viewHeight = 313;
var sectionId = 'dynsection-0';
</script>
<script xlink:href="../../svgpan.js"/>
<svg id="graph" class="graph">
<g id="viewport">
<title>/home/runner/work/doxygen/doxygen/src/entry.h</title>
<!-- Node1 -->
<g id="node1" class="node">
<title>Node1</title>
<g id="a_node1"><a xlink:title=" ">
<polygon fill="#999999" stroke="#666666" points="463,-305 309,-305 309,-275 463,-275 463,-305"/>
<text text-anchor="start" x="317" y="-293" font-family="Helvetica,sans-Serif" font-size="10.00">/home/runner/work/doxygen</text>
<text text-anchor="middle" x="386" y="-282" font-family="Helvetica,sans-Serif" font-size="10.00">/doxygen/src/entry.h</text>
</a>
</g>
</g>
<!-- Node2 -->
<g id="node2" class="node">
<title>Node2</title>
<g id="a_node2"><a xlink:title=" ">
<polygon fill="#e0e0e0" stroke="#999999" points="349.5,-129 302.5,-129 302.5,-110 349.5,-110 349.5,-129"/>
<text text-anchor="middle" x="326" y="-117" font-family="Helvetica,sans-Serif" font-size="10.00">vector</text>
</a>
</g>
</g>
<!-- Node1&#45;&gt;Node2 -->
<g id="edge1" class="edge">
<title>Node1&#45;&gt;Node2</title>
<path fill="none" stroke="#63b8ff" d="M378.18,-274.83C367.58,-255.06 348.75,-217.81 338,-184 333.32,-169.28 330.2,-152.03 328.32,-139.22"/>
<polygon fill="#63b8ff" stroke="#63b8ff" points="331.79,-138.73 326.98,-129.29 324.85,-139.67 331.79,-138.73"/>
</g>
<!-- Node3 -->
<g id="node3" class="node">
<title>Node3</title>
<g id="a_node3"><a xlink:title=" ">
<polygon fill="#e0e0e0" stroke="#999999" points="58,-129 0,-129 0,-110 58,-110 58,-129"/>
<text text-anchor="middle" x="29" y="-117" font-family="Helvetica,sans-Serif" font-size="10.00">memory</text>
</a>
</g>
</g>
<!-- Node1&#45;&gt;Node3 -->
<g id="edge2" class="edge">
<title>Node1&#45;&gt;Node3</title>
<path fill="none" stroke="#63b8ff" d="M318.57,-274.91C283.41,-266.48 240.11,-254.41 203,-239 157.59,-220.15 147.53,-211.84 107,-184 85.14,-168.99 61.76,-149.44 46.36,-136.02"/>
<polygon fill="#63b8ff" stroke="#63b8ff" points="48.51,-133.24 38.69,-129.26 43.88,-138.5 48.51,-133.24"/>
</g>
<!-- Node4 -->
<g id="node4" class="node">
<title>Node4</title>
<g id="a_node4"><a xlink:title=" ">
<polygon fill="#e0e0e0" stroke="#999999" points="559,-129 503,-129 503,-110 559,-110 559,-129"/>
<text text-anchor="middle" x="531" y="-117" font-family="Helvetica,sans-Serif" font-size="10.00">sstream</text>
</a>
</g>
</g>
<!-- Node1&#45;&gt;Node4 -->
<g id="edge3" class="edge">
<title>Node1&#45;&gt;Node4</title>
<path fill="none" stroke="#63b8ff" d="M436.99,-274.96C456.84,-267.22 478.3,-255.7 493,-239 518.26,-210.32 526.75,-164.69 529.59,-139.23"/>
<polygon fill="#63b8ff" stroke="#63b8ff" points="533.09,-139.37 530.54,-129.09 526.13,-138.72 533.09,-139.37"/>
</g>
<!-- Node5 -->
<g id="node5" class="node">
<title>Node5</title>
<g id="a_node5"><a xlink:href="../../d9/d49/types_8h.html" target="_top" xlink:title="This file contains a number of basic enums and types.">
<polygon fill="white" stroke="#666666" points="483.5,-239 430.5,-239 430.5,-220 483.5,-220 483.5,-239"/>
<text text-anchor="middle" x="457" y="-227" font-family="Helvetica,sans-Serif" font-size="10.00">types.h</text>
</a>
</g>
</g>
<!-- Node1&#45;&gt;Node5 -->
<g id="edge4" class="edge">
<title>Node1&#45;&gt;Node5</title>
<path fill="none" stroke="#63b8ff" d="M403.19,-274.84C413.81,-266.09 427.44,-254.85 438.33,-245.88"/>
<polygon fill="#63b8ff" stroke="#63b8ff" points="440.87,-248.33 446.36,-239.27 436.42,-242.92 440.87,-248.33"/>
</g>
<!-- Node16 -->
<g id="node16" class="node">
<title>Node16</title>
<g id="a_node16"><a xlink:href="../../df/d9b/arguments_8h.html" target="_top" xlink:title=" ">
<polygon fill="white" stroke="#666666" points="425,-184 347,-184 347,-165 425,-165 425,-184"/>
<text text-anchor="middle" x="386" y="-172" font-family="Helvetica,sans-Serif" font-size="10.00">arguments.h</text>
</a>
</g>
</g>
<!-- Node1&#45;&gt;Node16 -->
<g id="edge17" class="edge">
<title>Node1&#45;&gt;Node16</title>
<path fill="none" stroke="#63b8ff" d="M386,-274.63C386,-254.21 386,-216.81 386,-194.24"/>
<polygon fill="#63b8ff" stroke="#63b8ff" points="389.5,-194.23 386,-184.23 382.5,-194.23 389.5,-194.23"/>
</g>
<!-- Node17 -->
<g id="node17" class="node">
<title>Node17</title>
<g id="a_node17"><a xlink:href="../../d1/d02/reflist_8h.html" target="_top" xlink:title=" ">
<polygon fill="white" stroke="#666666" points="265.5,-239 212.5,-239 212.5,-220 265.5,-220 265.5,-239"/>
<text text-anchor="middle" x="239" y="-227" font-family="Helvetica,sans-Serif" font-size="10.00">reflist.h</text>
</a>
</g>
</g>
<!-- Node1&#45;&gt;Node17 -->
<g id="edge20" class="edge">
<title>Node1&#45;&gt;Node17</title>
<path fill="none" stroke="#63b8ff" d="M350.79,-274.99C326.26,-265.23 293.85,-252.33 270.24,-242.93"/>
<polygon fill="#63b8ff" stroke="#63b8ff" points="271.29,-239.58 260.71,-239.14 268.71,-246.09 271.29,-239.58"/>
</g>
<!-- Node20 -->
<g id="node20" class="node">
<title>Node20</title>
<g id="a_node20"><a xlink:href="../../d4/d7d/textstream_8h.html" target="_top" xlink:title=" ">
<polygon fill="white" stroke="#666666" points="725,-184 645,-184 645,-165 725,-165 725,-184"/>
<text text-anchor="middle" x="685" y="-172" font-family="Helvetica,sans-Serif" font-size="10.00">textstream.h</text>
</a>
</g>
</g>
<!-- Node1&#45;&gt;Node20 -->
<g id="edge33" class="edge">
<title>Node1&#45;&gt;Node20</title>
<path fill="none" stroke="#63b8ff" d="M435.62,-274.92C467,-265.61 508.25,-252.65 544,-239 584.61,-223.49 630.25,-202.2 658.32,-188.64"/>
<polygon fill="#63b8ff" stroke="#63b8ff" points="660.01,-191.71 667.47,-184.19 656.95,-185.42 660.01,-191.71"/>
</g>
<!-- Node6 -->
<g id="node6" class="node">
<title>Node6</title>
<g id="a_node6"><a xlink:href="../../d7/d5c/qcstring_8h.html" target="_top" xlink:title=" ">
<polygon fill="white" stroke="#666666" points="484.5,-129 419.5,-129 419.5,-110 484.5,-110 484.5,-129"/>
<text text-anchor="middle" x="452" y="-117" font-family="Helvetica,sans-Serif" font-size="10.00">qcstring.h</text>
</a>
</g>
</g>
<!-- Node5&#45;&gt;Node6 -->
<g id="edge5" class="edge">
<title>Node5&#45;&gt;Node6</title>
<path fill="none" stroke="#63b8ff" d="M460.11,-219.87C464.12,-207.65 470.22,-184.6 467,-165 465.53,-156.05 462.51,-146.47 459.56,-138.51"/>
<polygon fill="#63b8ff" stroke="#63b8ff" points="462.79,-137.16 455.86,-129.15 456.28,-139.74 462.79,-137.16"/>
</g>
<!-- Node7 -->
<g id="node7" class="node">
<title>Node7</title>
<g id="a_node7"><a xlink:title=" ">
<polygon fill="#e0e0e0" stroke="#999999" points="517,-19 473,-19 473,0 517,0 517,-19"/>
<text text-anchor="middle" x="495" y="-7" font-family="Helvetica,sans-Serif" font-size="10.00">string</text>
</a>
</g>
</g>
<!-- Node6&#45;&gt;Node7 -->
<g id="edge6" class="edge">
<title>Node6&#45;&gt;Node7</title>
<path fill="none" stroke="#63b8ff" d="M432.03,-109.81C408.77,-98.41 375.28,-77.22 390,-55 406.07,-30.74 438.31,-19.66 462.84,-14.64"/>
<polygon fill="#63b8ff" stroke="#63b8ff" points="463.6,-18.05 472.82,-12.83 462.36,-11.17 463.6,-18.05"/>
</g>
<!-- Node8 -->
<g id="node8" class="node">
<title>Node8</title>
<g id="a_node8"><a xlink:title=" ">
<polygon fill="#e0e0e0" stroke="#999999" points="275,-74 211,-74 211,-55 275,-55 275,-74"/>
<text text-anchor="middle" x="243" y="-62" font-family="Helvetica,sans-Serif" font-size="10.00">algorithm</text>
</a>
</g>
</g>
<!-- Node6&#45;&gt;Node8 -->
<g id="edge7" class="edge">
<title>Node6&#45;&gt;Node8</title>
<path fill="none" stroke="#63b8ff" d="M419.34,-110.22C383.12,-101.03 324.57,-86.18 284.97,-76.14"/>
<polygon fill="#63b8ff" stroke="#63b8ff" points="285.64,-72.7 275.08,-73.64 283.92,-79.49 285.64,-72.7"/>
</g>
<!-- Node9 -->
<g id="node9" class="node">
<title>Node9</title>
<g id="a_node9"><a xlink:title=" ">
<polygon fill="#e0e0e0" stroke="#999999" points="342.5,-74 293.5,-74 293.5,-55 342.5,-55 342.5,-74"/>
<text text-anchor="middle" x="318" y="-62" font-family="Helvetica,sans-Serif" font-size="10.00">cctype</text>
</a>
</g>
</g>
<!-- Node6&#45;&gt;Node9 -->
<g id="edge8" class="edge">
<title>Node6&#45;&gt;Node9</title>
<path fill="none" stroke="#63b8ff" d="M430.47,-109.98C408.53,-101.3 374.26,-87.75 349.31,-77.88"/>
<polygon fill="#63b8ff" stroke="#63b8ff" points="350.51,-74.59 339.92,-74.17 347.93,-81.1 350.51,-74.59"/>
</g>
<!-- Node10 -->
<g id="node10" class="node">
<title>Node10</title>
<g id="a_node10"><a xlink:title=" ">
<polygon fill="#e0e0e0" stroke="#999999" points="592,-74 542,-74 542,-55 592,-55 592,-74"/>
<text text-anchor="middle" x="567" y="-62" font-family="Helvetica,sans-Serif" font-size="10.00">cstring</text>
</a>
</g>
</g>
<!-- Node6&#45;&gt;Node10 -->
<g id="edge9" class="edge">
<title>Node6&#45;&gt;Node10</title>
<path fill="none" stroke="#63b8ff" d="M470.48,-109.98C488.98,-101.46 517.68,-88.23 538.98,-78.41"/>
<polygon fill="#63b8ff" stroke="#63b8ff" points="540.57,-81.53 548.19,-74.17 537.64,-75.18 540.57,-81.53"/>
</g>
<!-- Node11 -->
<g id="node11" class="node">
<title>Node11</title>
<g id="a_node11"><a xlink:title=" ">
<polygon fill="#e0e0e0" stroke="#999999" points="758,-74 712,-74 712,-55 758,-55 758,-74"/>
<text text-anchor="middle" x="735" y="-62" font-family="Helvetica,sans-Serif" font-size="10.00">cstdio</text>
</a>
</g>
</g>
<!-- Node6&#45;&gt;Node11 -->
<g id="edge10" class="edge">
<title>Node6&#45;&gt;Node11</title>
<path fill="none" stroke="#63b8ff" d="M484.54,-111.83C487.74,-111.2 490.93,-110.58 494,-110 584.46,-92.87 607.77,-92.31 698,-74 699.27,-73.74 700.57,-73.47 701.87,-73.2"/>
<polygon fill="#63b8ff" stroke="#63b8ff" points="702.93,-76.55 711.95,-70.99 701.43,-69.71 702.93,-76.55"/>
</g>
<!-- Node12 -->
<g id="node12" class="node">
<title>Node12</title>
<g id="a_node12"><a xlink:title=" ">
<polygon fill="#e0e0e0" stroke="#999999" points="448.5,-74 399.5,-74 399.5,-55 448.5,-55 448.5,-74"/>
<text text-anchor="middle" x="424" y="-62" font-family="Helvetica,sans-Serif" font-size="10.00">cstdlib</text>
</a>
</g>
</g>
<!-- Node6&#45;&gt;Node12 -->
<g id="edge11" class="edge">
<title>Node6&#45;&gt;Node12</title>
<path fill="none" stroke="#63b8ff" d="M447.38,-109.75C443.54,-102.49 437.98,-91.95 433.24,-82.98"/>
<polygon fill="#63b8ff" stroke="#63b8ff" points="436.3,-81.3 428.54,-74.09 430.11,-84.57 436.3,-81.3"/>
</g>
<!-- Node13 -->
<g id="node13" class="node">
<title>Node13</title>
<g id="a_node13"><a xlink:title=" ">
<polygon fill="#e0e0e0" stroke="#999999" points="709,-19 659,-19 659,0 709,0 709,-19"/>
<text text-anchor="middle" x="684" y="-7" font-family="Helvetica,sans-Serif" font-size="10.00">cstdint</text>
</a>
</g>
</g>
<!-- Node6&#45;&gt;Node13 -->
<g id="edge12" class="edge">
<title>Node6&#45;&gt;Node13</title>
<path fill="none" stroke="#63b8ff" d="M484.51,-111.93C543.73,-99.92 663.33,-75.54 665,-74 677.3,-62.7 681.76,-43.79 683.32,-29.54"/>
<polygon fill="#63b8ff" stroke="#63b8ff" points="686.82,-29.57 684.04,-19.34 679.84,-29.07 686.82,-29.57"/>
</g>
<!-- Node14 -->
<g id="node14" class="node">
<title>Node14</title>
<g id="a_node14"><a xlink:title=" ">
<polygon fill="#e0e0e0" stroke="#999999" points="523.5,-74 466.5,-74 466.5,-55 523.5,-55 523.5,-74"/>
<text text-anchor="middle" x="495" y="-62" font-family="Helvetica,sans-Serif" font-size="10.00">ostream</text>
</a>
</g>
</g>
<!-- Node6&#45;&gt;Node14 -->
<g id="edge13" class="edge">
<title>Node6&#45;&gt;Node14</title>
<path fill="none" stroke="#63b8ff" d="M459.1,-109.75C465.17,-102.26 474.09,-91.28 481.51,-82.13"/>
<polygon fill="#63b8ff" stroke="#63b8ff" points="484.45,-84.06 488.03,-74.09 479.01,-79.65 484.45,-84.06"/>
</g>
<!-- Node15 -->
<g id="node15" class="node">
<title>Node15</title>
<g id="a_node15"><a xlink:href="../../db/d7c/utf8_8h.html" target="_top" xlink:title="Various UTF8 related helper functions.">
<polygon fill="white" stroke="#666666" points="655.5,-74 610.5,-74 610.5,-55 655.5,-55 655.5,-74"/>
<text text-anchor="middle" x="633" y="-62" font-family="Helvetica,sans-Serif" font-size="10.00">utf8.h</text>
</a>
</g>
</g>
<!-- Node6&#45;&gt;Node15 -->
<g id="edge14" class="edge">
<title>Node6&#45;&gt;Node15</title>
<path fill="none" stroke="#63b8ff" d="M481.08,-109.98C513.68,-100.44 566.42,-85 600.4,-75.05"/>
<polygon fill="#63b8ff" stroke="#63b8ff" points="601.68,-78.32 610.29,-72.15 599.71,-71.6 601.68,-78.32"/>
</g>
<!-- Node15&#45;&gt;Node7 -->
<g id="edge16" class="edge">
<title>Node15&#45;&gt;Node7</title>
<path fill="none" stroke="#63b8ff" d="M610.83,-54.98C588.09,-46.25 552.52,-32.59 526.79,-22.71"/>
<polygon fill="#63b8ff" stroke="#63b8ff" points="527.71,-19.31 517.12,-18.99 525.2,-25.85 527.71,-19.31"/>
</g>
<!-- Node15&#45;&gt;Node13 -->
<g id="edge15" class="edge">
<title>Node15&#45;&gt;Node13</title>
<path fill="none" stroke="#63b8ff" d="M641.42,-54.75C648.77,-47.11 659.63,-35.82 668.54,-26.56"/>
<polygon fill="#63b8ff" stroke="#63b8ff" points="671.32,-28.72 675.74,-19.09 666.28,-23.87 671.32,-28.72"/>
</g>
<!-- Node16&#45;&gt;Node2 -->
<g id="edge18" class="edge">
<title>Node16&#45;&gt;Node2</title>
<path fill="none" stroke="#63b8ff" d="M376.36,-164.98C367.49,-157.15 354.13,-145.34 343.39,-135.86"/>
<polygon fill="#63b8ff" stroke="#63b8ff" points="345.63,-133.17 335.82,-129.17 340.99,-138.41 345.63,-133.17"/>
</g>
<!-- Node16&#45;&gt;Node6 -->
<g id="edge19" class="edge">
<title>Node16&#45;&gt;Node6</title>
<path fill="none" stroke="#63b8ff" d="M396.6,-164.98C406.46,-157.07 421.35,-145.11 433.22,-135.58"/>
<polygon fill="#63b8ff" stroke="#63b8ff" points="435.6,-138.16 441.2,-129.17 431.21,-132.7 435.6,-138.16"/>
</g>
<!-- Node17&#45;&gt;Node2 -->
<g id="edge21" class="edge">
<title>Node17&#45;&gt;Node2</title>
<path fill="none" stroke="#63b8ff" d="M246.12,-219.66C260.66,-201.61 293.96,-160.28 312.65,-137.08"/>
<polygon fill="#63b8ff" stroke="#63b8ff" points="315.48,-139.14 319.03,-129.16 310.03,-134.75 315.48,-139.14"/>
</g>
<!-- Node17&#45;&gt;Node3 -->
<g id="edge23" class="edge">
<title>Node17&#45;&gt;Node3</title>
<path fill="none" stroke="#63b8ff" d="M220.34,-219.91C201.46,-211.14 171.51,-197.02 146,-184 113.61,-167.48 76.84,-147.28 53.31,-134.17"/>
<polygon fill="#63b8ff" stroke="#63b8ff" points="54.82,-131 44.39,-129.18 51.41,-137.11 54.82,-131"/>
</g>
<!-- Node17&#45;&gt;Node6 -->
<g id="edge24" class="edge">
<title>Node17&#45;&gt;Node6</title>
<path fill="none" stroke="#63b8ff" d="M265.68,-225.77C313.24,-220.37 409.95,-206.83 434,-184 446.06,-172.55 450.23,-153.66 451.58,-139.45"/>
<polygon fill="#63b8ff" stroke="#63b8ff" points="455.09,-139.48 452.16,-129.3 448.1,-139.08 455.09,-139.48"/>
</g>
<!-- Node18 -->
<g id="node18" class="node">
<title>Node18</title>
<g id="a_node18"><a xlink:title=" ">
<polygon fill="#e0e0e0" stroke="#999999" points="169.5,-129 76.5,-129 76.5,-110 169.5,-110 169.5,-129"/>
<text text-anchor="middle" x="123" y="-117" font-family="Helvetica,sans-Serif" font-size="10.00">unordered_map</text>
</a>
</g>
</g>
<!-- Node17&#45;&gt;Node18 -->
<g id="edge22" class="edge">
<title>Node17&#45;&gt;Node18</title>
<path fill="none" stroke="#63b8ff" d="M220.42,-219.99C204.71,-212.17 182.22,-199.46 166,-184 151.89,-170.55 139.85,-151.7 132.13,-138.04"/>
<polygon fill="#63b8ff" stroke="#63b8ff" points="135.15,-136.28 127.31,-129.16 129,-139.62 135.15,-136.28"/>
</g>
<!-- Node19 -->
<g id="node19" class="node">
<title>Node19</title>
<g id="a_node19"><a xlink:href="../../da/de1/linkedmap_8h.html" target="_top" xlink:title=" ">
<polygon fill="white" stroke="#666666" points="252.5,-184 175.5,-184 175.5,-165 252.5,-165 252.5,-184"/>
<text text-anchor="middle" x="214" y="-172" font-family="Helvetica,sans-Serif" font-size="10.00">linkedmap.h</text>
</a>
</g>
</g>
<!-- Node17&#45;&gt;Node19 -->
<g id="edge25" class="edge">
<title>Node17&#45;&gt;Node19</title>
<path fill="none" stroke="#63b8ff" d="M234.87,-219.75C231.49,-212.57 226.58,-202.18 222.38,-193.27"/>
<polygon fill="#63b8ff" stroke="#63b8ff" points="225.48,-191.64 218.05,-184.09 219.15,-194.63 225.48,-191.64"/>
</g>
<!-- Node19&#45;&gt;Node2 -->
<g id="edge27" class="edge">
<title>Node19&#45;&gt;Node2</title>
<path fill="none" stroke="#63b8ff" d="M231.99,-164.98C249.93,-156.5 277.72,-143.35 298.43,-133.54"/>
<polygon fill="#63b8ff" stroke="#63b8ff" points="300.14,-136.61 307.68,-129.17 297.14,-130.28 300.14,-136.61"/>
</g>
<!-- Node19&#45;&gt;Node3 -->
<g id="edge28" class="edge">
<title>Node19&#45;&gt;Node3</title>
<path fill="none" stroke="#63b8ff" d="M184.28,-164.98C152.67,-155.93 102.55,-141.57 67.84,-131.63"/>
<polygon fill="#63b8ff" stroke="#63b8ff" points="68.62,-128.21 58.04,-128.82 66.69,-134.94 68.62,-128.21"/>
</g>
<!-- Node19&#45;&gt;Node6 -->
<g id="edge32" class="edge">
<title>Node19&#45;&gt;Node6</title>
<path fill="none" stroke="#63b8ff" d="M252.24,-164.98C295.15,-155.43 364.59,-139.97 409.26,-130.02"/>
<polygon fill="#63b8ff" stroke="#63b8ff" points="410.22,-133.39 419.22,-127.8 408.7,-126.56 410.22,-133.39"/>
</g>
<!-- Node19&#45;&gt;Node7 -->
<g id="edge29" class="edge">
<title>Node19&#45;&gt;Node7</title>
<path fill="none" stroke="#63b8ff" d="M209.31,-164.78C198.45,-143.24 174.5,-86.99 202,-55 235.35,-16.2 393.69,-10.83 462.71,-10.36"/>
<polygon fill="#63b8ff" stroke="#63b8ff" points="463,-13.86 472.99,-10.33 462.98,-6.86 463,-13.86"/>
</g>
<!-- Node19&#45;&gt;Node8 -->
<g id="edge30" class="edge">
<title>Node19&#45;&gt;Node8</title>
<path fill="none" stroke="#63b8ff" d="M216.37,-164.66C221.09,-147.09 231.74,-107.45 238.04,-83.95"/>
<polygon fill="#63b8ff" stroke="#63b8ff" points="241.46,-84.72 240.68,-74.16 234.7,-82.91 241.46,-84.72"/>
</g>
<!-- Node19&#45;&gt;Node9 -->
<g id="edge31" class="edge">
<title>Node19&#45;&gt;Node9</title>
<path fill="none" stroke="#63b8ff" d="M222.51,-164.66C240.04,-146.46 280.4,-104.55 302.62,-81.47"/>
<polygon fill="#63b8ff" stroke="#63b8ff" points="305.25,-83.79 309.66,-74.16 300.2,-78.93 305.25,-83.79"/>
</g>
<!-- Node19&#45;&gt;Node18 -->
<g id="edge26" class="edge">
<title>Node19&#45;&gt;Node18</title>
<path fill="none" stroke="#63b8ff" d="M199.38,-164.98C185.14,-156.69 163.25,-143.94 146.55,-134.22"/>
<polygon fill="#63b8ff" stroke="#63b8ff" points="148.29,-131.18 137.89,-129.17 144.77,-137.23 148.29,-131.18"/>
</g>
<!-- Node20&#45;&gt;Node4 -->
<g id="edge36" class="edge">
<title>Node20&#45;&gt;Node4</title>
<path fill="none" stroke="#63b8ff" d="M660.26,-164.98C634.63,-156.16 594.37,-142.31 565.59,-132.41"/>
<polygon fill="#63b8ff" stroke="#63b8ff" points="566.53,-129.03 555.94,-129.08 564.25,-135.65 566.53,-129.03"/>
</g>
<!-- Node20&#45;&gt;Node6 -->
<g id="edge41" class="edge">
<title>Node20&#45;&gt;Node6</title>
<path fill="none" stroke="#63b8ff" d="M647.56,-164.98C605.79,-155.48 538.35,-140.14 494.59,-130.19"/>
<polygon fill="#63b8ff" stroke="#63b8ff" points="495.35,-126.77 484.82,-127.97 493.8,-133.6 495.35,-126.77"/>
</g>
<!-- Node20&#45;&gt;Node7 -->
<g id="edge34" class="edge">
<title>Node20&#45;&gt;Node7</title>
<path fill="none" stroke="#63b8ff" d="M699.24,-164.75C730.44,-144.52 799.56,-93.32 767,-55 751.6,-36.87 595.99,-20.06 527.3,-13.45"/>
<polygon fill="#63b8ff" stroke="#63b8ff" points="527.34,-9.94 517.06,-12.48 526.68,-16.91 527.34,-9.94"/>
</g>
<!-- Node20&#45;&gt;Node11 -->
<g id="edge38" class="edge">
<title>Node20&#45;&gt;Node11</title>
<path fill="none" stroke="#63b8ff" d="M697.42,-164.84C707.81,-156.84 722.01,-143.96 729,-129 735.52,-115.03 736.73,-97.48 736.47,-84.37"/>
<polygon fill="#63b8ff" stroke="#63b8ff" points="739.95,-84 735.96,-74.19 732.96,-84.35 739.95,-84"/>
</g>
<!-- Node20&#45;&gt;Node13 -->
<g id="edge37" class="edge">
<title>Node20&#45;&gt;Node13</title>
<path fill="none" stroke="#63b8ff" d="M725.13,-169.39C751.19,-164.4 783.3,-153.37 800,-129 818.59,-101.87 818.63,-82.1 800,-55 782.09,-28.95 746.67,-18.14 719.66,-13.66"/>
<polygon fill="#63b8ff" stroke="#63b8ff" points="719.81,-10.15 709.41,-12.19 718.81,-17.08 719.81,-10.15"/>
</g>
<!-- Node21 -->
<g id="node21" class="node">
<title>Node21</title>
<g id="a_node21"><a xlink:title=" ">
<polygon fill="#e0e0e0" stroke="#999999" points="912,-129 852,-129 852,-110 912,-110 912,-129"/>
<text text-anchor="middle" x="882" y="-117" font-family="Helvetica,sans-Serif" font-size="10.00">iostream</text>
</a>
</g>
</g>
<!-- Node20&#45;&gt;Node21 -->
<g id="edge35" class="edge">
<title>Node20&#45;&gt;Node21</title>
<path fill="none" stroke="#63b8ff" d="M716.65,-164.98C750.65,-155.84 804.77,-141.28 841.77,-131.32"/>
<polygon fill="#63b8ff" stroke="#63b8ff" points="842.97,-134.62 851.72,-128.65 841.16,-127.86 842.97,-134.62"/>
</g>
<!-- Node22 -->
<g id="node22" class="node">
<title>Node22</title>
<g id="a_node22"><a xlink:title=" ">
<polygon fill="#e0e0e0" stroke="#999999" points="632.5,-129 577.5,-129 577.5,-110 632.5,-110 632.5,-129"/>
<text text-anchor="middle" x="605" y="-117" font-family="Helvetica,sans-Serif" font-size="10.00">fstream</text>
</a>
</g>
</g>
<!-- Node20&#45;&gt;Node22 -->
<g id="edge39" class="edge">
<title>Node20&#45;&gt;Node22</title>
<path fill="none" stroke="#63b8ff" d="M672.15,-164.98C659.86,-156.84 641.09,-144.41 626.52,-134.76"/>
<polygon fill="#63b8ff" stroke="#63b8ff" points="628.36,-131.78 618.09,-129.17 624.49,-137.61 628.36,-131.78"/>
</g>
<!-- Node23 -->
<g id="node23" class="node">
<title>Node23</title>
<g id="a_node23"><a xlink:title=" ">
<polygon fill="#e0e0e0" stroke="#999999" points="719.5,-129 650.5,-129 650.5,-110 719.5,-110 719.5,-129"/>
<text text-anchor="middle" x="685" y="-117" font-family="Helvetica,sans-Serif" font-size="10.00">type_traits</text>
</a>
</g>
</g>
<!-- Node20&#45;&gt;Node23 -->
<g id="edge40" class="edge">
<title>Node20&#45;&gt;Node23</title>
<path fill="none" stroke="#63b8ff" d="M685,-164.75C685,-157.8 685,-147.85 685,-139.13"/>
<polygon fill="#63b8ff" stroke="#63b8ff" points="688.5,-139.09 685,-129.09 681.5,-139.09 688.5,-139.09"/>
</g>
</g>
</svg>
        <g id="navigator" transform="translate(0 0)" fill="#404254">
                <rect fill="#f2f5e9" fill-opacity="0.5" stroke="#606060" stroke-width=".5" x="0" y="0" width="60" height="60"/>
                <use id="zoomplus" xlink:href="#zoomPlus" x="17" y="9" onmousedown="handleZoom(evt,'in')"/>
                <use id="zoomminus" xlink:href="#zoomMin" x="42" y="9" onmousedown="handleZoom(evt,'out')"/>
                <use id="reset" xlink:href="#resetDef" x="30" y="36" onmousedown="handleReset()"/>
                <g id="arrowUp" xlink:href="#dirArrow" transform="translate(30 24)" onmousedown="handlePan(0,-1)">
                  <use xlink:href="#rim" fill="#404040">
                        <set attributeName="fill" to="#808080" begin="arrowUp.mouseover" end="arrowUp.mouseout"/>
                  </use>
                  <path fill="none" stroke="white" stroke-width="1.5" d="M0,-3.0v7 M-2.5,-0.5L0,-3.0L2.5,-0.5"/>
                </g>
                <g id="arrowRight" xlink:href="#dirArrow" transform="rotate(90) translate(36 -43)" onmousedown="handlePan(1,0)">
                  <use xlink:href="#rim" fill="#404040">
                        <set attributeName="fill" to="#808080" begin="arrowRight.mouseover" end="arrowRight.mouseout"/>
                  </use>
                  <path fill="none" stroke="white" stroke-width="1.5" d="M0,-3.0v7 M-2.5,-0.5L0,-3.0L2.5,-0.5"/>
                </g>
                <g id="arrowDown" xlink:href="#dirArrow" transform="rotate(180) translate(-30 -48)" onmousedown="handlePan(0,1)">
                  <use xlink:href="#rim" fill="#404040">
                        <set attributeName="fill" to="#808080" begin="arrowDown.mouseover" end="arrowDown.mouseout"/>
                  </use>
                  <path fill="none" stroke="white" stroke-width="1.5" d="M0,-3.0v7 M-2.5,-0.5L0,-3.0L2.5,-0.5"/>
                </g>
                <g id="arrowLeft" xlink:href="#dirArrow" transform="rotate(270) translate(-36 17)" onmousedown="handlePan(-1,0)">
                  <use xlink:href="#rim" fill="#404040">
                        <set attributeName="fill" to="#808080" begin="arrowLeft.mouseover" end="arrowLeft.mouseout"/>
                  </use>
                  <path fill="none" stroke="white" stroke-width="1.5" d="M0,-3.0v7 M-2.5,-0.5L0,-3.0L2.5,-0.5"/>
                </g>
        </g>
        <svg viewBox="0 0 15 15" width="100%" height="30px" preserveAspectRatio="xMaxYMin meet">
         <g id="arrow_out" transform="scale(0.3 0.3)">
          <a xlink:href="entry_8h__incl_org.svg" target="_base">
           <rect id="button" ry="5" rx="5" y="6" x="6" height="38" width="38"
                fill="#f2f5e9" fill-opacity="0.5" stroke="#606060" stroke-width="1.0"/>
           <path id="arrow"
             d="M 11.500037,31.436501 C 11.940474,20.09759 22.043105,11.32322 32.158766,21.979434 L 37.068811,17.246167 C 37.068811,17.246167 37.088388,32 37.088388,32 L 22.160133,31.978069 C 22.160133,31.978069 26.997745,27.140456 26.997745,27.140456 C 18.528582,18.264221 13.291696,25.230495 11.500037,31.436501 z"
             style="fill:#404040;"/>
          </a>
         </g>
        </svg>
</svg>
