<?xml version="1.0" encoding="UTF-8" standalone="no"?>
<!DOCTYPE svg PUBLIC "-//W3C//DTD SVG 1.1//EN"
 "http://www.w3.org/Graphics/SVG/1.1/DTD/svg11.dtd">
<!-- Generated by graphviz version 2.43.0 (0)
 -->
<!-- Title: /home/runner/work/doxygen/doxygen/src/vhdljjparser.h Pages: 1 -->
<!--zoomable 313 -->
<svg id="main" version="1.1" xmlns="http://www.w3.org/2000/svg" xmlns:xlink="http://www.w3.org/1999/xlink" xml:space="preserve" onload="init(evt)">
<style type="text/css"><![CDATA[
.edge:hover path { stroke: red; }
.edge:hover polygon { stroke: red; fill: red; }
]]></style>
<script type="text/javascript"><![CDATA[
var edges = document.getElementsByTagName('g');
if (edges && edges.length) {
  for (var i=0;i<edges.length;i++) {
    if (edges[i].id.substr(0,4)=='edge') {
      edges[i].setAttribute('class','edge');
    }
  }
}
]]></script>
        <defs>
                <circle id="rim" cx="0" cy="0" r="7"/>
                <circle id="rim2" cx="0" cy="0" r="3.5"/>
                <g id="zoomPlus">
                        <use xlink:href="#rim" fill="#404040">
                                <set attributeName="fill" to="#808080" begin="zoomplus.mouseover" end="zoomplus.mouseout"/>
                        </use>
                        <path d="M-4,0h8M0,-4v8" fill="none" stroke="white" stroke-width="1.5" pointer-events="none"/>
                </g>
                <g id="zoomMin">
                        <use xlink:href="#rim" fill="#404040">
                                <set attributeName="fill" to="#808080" begin="zoomminus.mouseover" end="zoomminus.mouseout"/>
                        </use>
                        <path d="M-4,0h8" fill="none" stroke="white" stroke-width="1.5" pointer-events="none"/>
                </g>
                <g id="dirArrow">
                        <path fill="none" stroke="white" stroke-width="1.5" d="M0,-3.0v7 M-2.5,-0.5L0,-3.0L2.5,-0.5"/>
                </g>
               <g id="resetDef">
                       <use xlink:href="#rim2" fill="#404040">
                               <set attributeName="fill" to="#808080" begin="reset.mouseover" end="reset.mouseout"/>
                       </use>
               </g>
        </defs>

<script type="text/javascript">
var viewWidth = 642;
var viewHeight = 313;
var sectionId = 'dynsection-1';
</script>
<script xlink:href="../../svgpan.js"/>
<svg id="graph" class="graph">
<g id="viewport">
<title>/home/runner/work/doxygen/doxygen/src/vhdljjparser.h</title>
<!-- Node1 -->
<g id="node1" class="node">
<title>Node1</title>
<g id="a_node1"><a xlink:title=" ">
<polygon fill="#999999" stroke="#666666" points="292,-305 138,-305 138,-275 292,-275 292,-305"/>
<text text-anchor="start" x="146" y="-293" font-family="Helvetica,sans-Serif" font-size="10.00">/home/runner/work/doxygen</text>
<text text-anchor="middle" x="215" y="-282" font-family="Helvetica,sans-Serif" font-size="10.00">/doxygen/src/vhdljjparser.h</text>
</a>
</g>
</g>
<!-- Node2 -->
<g id="node2" class="node">
<title>Node2</title>
<g id="a_node2"><a xlink:href="../../dc/d98/doxygen_8cpp.html" target="_top" xlink:title=" ">
<polygon fill="white" stroke="#666666" points="154,-239 0,-239 0,-209 154,-209 154,-239"/>
<text text-anchor="start" x="8" y="-227" font-family="Helvetica,sans-Serif" font-size="10.00">/home/runner/work/doxygen</text>
<text text-anchor="middle" x="77" y="-216" font-family="Helvetica,sans-Serif" font-size="10.00">/doxygen/src/doxygen.cpp</text>
</a>
</g>
</g>
<!-- Node1&#45;&gt;Node2 -->
<g id="edge1" class="edge">
<title>Node1&#45;&gt;Node2</title>
<path fill="none" stroke="#63b8ff" d="M175.43,-270.65C153.73,-260.58 127.24,-248.3 107.21,-239.01"/>
<polygon fill="#63b8ff" stroke="#63b8ff" points="174.17,-273.92 184.72,-274.95 177.12,-267.57 174.17,-273.92"/>
</g>
<!-- Node3 -->
<g id="node3" class="node">
<title>Node3</title>
<g id="a_node3"><a xlink:href="../../de/dea/vhdldocgen_8cpp.html" target="_top" xlink:title=" ">
<polygon fill="white" stroke="#666666" points="368,-173 210,-173 210,-143 368,-143 368,-173"/>
<text text-anchor="start" x="218" y="-161" font-family="Helvetica,sans-Serif" font-size="10.00">/home/runner/work/doxygen</text>
<text text-anchor="middle" x="289" y="-150" font-family="Helvetica,sans-Serif" font-size="10.00">/doxygen/src/vhdldocgen.cpp</text>
</a>
</g>
</g>
<!-- Node1&#45;&gt;Node3 -->
<g id="edge2" class="edge">
<title>Node1&#45;&gt;Node3</title>
<path fill="none" stroke="#63b8ff" d="M228.04,-266.1C243.33,-239.23 268.22,-195.5 280.95,-173.14"/>
<polygon fill="#63b8ff" stroke="#63b8ff" points="224.97,-264.42 223.06,-274.84 231.05,-267.88 224.97,-264.42"/>
</g>
<!-- Node4 -->
<g id="node4" class="node">
<title>Node4</title>
<g id="a_node4"><a xlink:href="../../d1/d86/vhdljjparser_8cpp.html" target="_top" xlink:title=" ">
<polygon fill="white" stroke="#666666" points="438.5,-30 279.5,-30 279.5,0 438.5,0 438.5,-30"/>
<text text-anchor="start" x="287.5" y="-18" font-family="Helvetica,sans-Serif" font-size="10.00">/home/runner/work/doxygen</text>
<text text-anchor="middle" x="359" y="-7" font-family="Helvetica,sans-Serif" font-size="10.00">/doxygen/src/vhdljjparser.cpp</text>
</a>
</g>
</g>
<!-- Node1&#45;&gt;Node4 -->
<g id="edge3" class="edge">
<title>Node1&#45;&gt;Node4</title>
<path fill="none" stroke="#63b8ff" d="M206.55,-264.96C197.53,-235.37 186.36,-184.01 201,-143 221.17,-86.49 284.56,-48.92 324.65,-30.13"/>
<polygon fill="#63b8ff" stroke="#63b8ff" points="203.33,-266.38 209.73,-274.82 209.99,-264.23 203.33,-266.38"/>
</g>
<!-- Node5 -->
<g id="node5" class="node">
<title>Node5</title>
<g id="a_node5"><a xlink:href="../../d5/df9/_vhdl_parser_8h.html" target="_top" xlink:title=" ">
<polygon fill="white" stroke="#666666" points="470.5,-239 291.5,-239 291.5,-209 470.5,-209 470.5,-239"/>
<text text-anchor="start" x="299.5" y="-227" font-family="Helvetica,sans-Serif" font-size="10.00">/home/runner/work/doxygen</text>
<text text-anchor="middle" x="381" y="-216" font-family="Helvetica,sans-Serif" font-size="10.00">/doxygen/vhdlparser/VhdlParser.h</text>
</a>
</g>
</g>
<!-- Node1&#45;&gt;Node5 -->
<g id="edge4" class="edge">
<title>Node1&#45;&gt;Node5</title>
<path fill="none" stroke="#63b8ff" d="M260.85,-271.32C287.27,-261.14 320.02,-248.51 344.66,-239.01"/>
<polygon fill="#63b8ff" stroke="#63b8ff" points="259.5,-268.09 251.43,-274.95 262.02,-274.62 259.5,-268.09"/>
</g>
<!-- Node5&#45;&gt;Node3 -->
<g id="edge5" class="edge">
<title>Node5&#45;&gt;Node3</title>
<path fill="none" stroke="#63b8ff" d="M352.29,-203.03C338.37,-193.34 321.97,-181.94 309.36,-173.16"/>
<polygon fill="#63b8ff" stroke="#63b8ff" points="350.37,-205.96 360.58,-208.8 354.37,-200.21 350.37,-205.96"/>
</g>
<!-- Node6 -->
<g id="node6" class="node">
<title>Node6</title>
<g id="a_node6"><a xlink:href="../../d2/dc3/_vhdl_parser_error_handler_8hpp.html" target="_top" xlink:title=" ">
<polygon fill="white" stroke="#666666" points="444.5,-107 273.5,-107 273.5,-66 444.5,-66 444.5,-107"/>
<text text-anchor="start" x="281.5" y="-95" font-family="Helvetica,sans-Serif" font-size="10.00">/home/runner/work/doxygen</text>
<text text-anchor="start" x="281.5" y="-84" font-family="Helvetica,sans-Serif" font-size="10.00">/doxygen/vhdlparser/VhdlParser</text>
<text text-anchor="middle" x="359" y="-73" font-family="Helvetica,sans-Serif" font-size="10.00">ErrorHandler.hpp</text>
</a>
</g>
</g>
<!-- Node5&#45;&gt;Node6 -->
<g id="edge6" class="edge">
<title>Node5&#45;&gt;Node6</title>
<path fill="none" stroke="#63b8ff" d="M381.44,-198.9C381.33,-182.92 380.41,-161.56 377,-143 374.77,-130.85 370.57,-117.67 366.8,-107.21"/>
<polygon fill="#63b8ff" stroke="#63b8ff" points="377.94,-198.99 381.41,-209 384.94,-199.01 377.94,-198.99"/>
</g>
<!-- Node7 -->
<g id="node7" class="node">
<title>Node7</title>
<g id="a_node7"><a xlink:href="../../d9/d48/vhdlstring_8h.html" target="_top" xlink:title=" ">
<polygon fill="white" stroke="#666666" points="600.5,-173 423.5,-173 423.5,-143 600.5,-143 600.5,-173"/>
<text text-anchor="start" x="431.5" y="-161" font-family="Helvetica,sans-Serif" font-size="10.00">/home/runner/work/doxygen</text>
<text text-anchor="middle" x="512" y="-150" font-family="Helvetica,sans-Serif" font-size="10.00">/doxygen/vhdlparser/vhdlstring.h</text>
</a>
</g>
</g>
<!-- Node5&#45;&gt;Node7 -->
<g id="edge8" class="edge">
<title>Node5&#45;&gt;Node7</title>
<path fill="none" stroke="#63b8ff" d="M418.84,-204.51C439.39,-194.47 464.39,-182.26 483.32,-173.01"/>
<polygon fill="#63b8ff" stroke="#63b8ff" points="417.2,-201.42 409.75,-208.95 420.27,-207.71 417.2,-201.42"/>
</g>
<!-- Node6&#45;&gt;Node4 -->
<g id="edge7" class="edge">
<title>Node6&#45;&gt;Node4</title>
<path fill="none" stroke="#63b8ff" d="M359,-55.66C359,-46.76 359,-37.42 359,-30.04"/>
<polygon fill="#63b8ff" stroke="#63b8ff" points="355.5,-55.77 359,-65.77 362.5,-55.77 355.5,-55.77"/>
</g>
<!-- Node7&#45;&gt;Node6 -->
<g id="edge9" class="edge">
<title>Node7&#45;&gt;Node6</title>
<path fill="none" stroke="#63b8ff" d="M471.87,-138.77C450.41,-129.02 423.98,-117.02 402.09,-107.07"/>
<polygon fill="#63b8ff" stroke="#63b8ff" points="470.49,-141.99 481.04,-142.94 473.38,-135.61 470.49,-141.99"/>
</g>
<!-- Node8 -->
<g id="node8" class="node">
<title>Node8</title>
<g id="a_node8"><a xlink:href="../../d7/dad/_vhdl_parser_token_manager_8h.html" target="_top" xlink:title=" ">
<polygon fill="white" stroke="#666666" points="633.5,-107 462.5,-107 462.5,-66 633.5,-66 633.5,-107"/>
<text text-anchor="start" x="470.5" y="-95" font-family="Helvetica,sans-Serif" font-size="10.00">/home/runner/work/doxygen</text>
<text text-anchor="start" x="470.5" y="-84" font-family="Helvetica,sans-Serif" font-size="10.00">/doxygen/vhdlparser/VhdlParser</text>
<text text-anchor="middle" x="548" y="-73" font-family="Helvetica,sans-Serif" font-size="10.00">TokenManager.h</text>
</a>
</g>
</g>
<!-- Node7&#45;&gt;Node8 -->
<g id="edge10" class="edge">
<title>Node7&#45;&gt;Node8</title>
<path fill="none" stroke="#63b8ff" d="M523.9,-134.03C528.42,-125.31 533.52,-115.46 537.86,-107.07"/>
<polygon fill="#63b8ff" stroke="#63b8ff" points="520.78,-132.45 519.29,-142.94 526.99,-135.67 520.78,-132.45"/>
</g>
<!-- Node8&#45;&gt;Node4 -->
<g id="edge11" class="edge">
<title>Node8&#45;&gt;Node4</title>
<path fill="none" stroke="#63b8ff" d="M485.16,-62.39C456.01,-51.67 422.31,-39.28 397.08,-30"/>
<polygon fill="#63b8ff" stroke="#63b8ff" points="484.26,-65.79 494.85,-65.96 486.67,-59.22 484.26,-65.79"/>
</g>
</g>
</svg>
        <g id="navigator" transform="translate(0 0)" fill="#404254">
                <rect fill="#f2f5e9" fill-opacity="0.5" stroke="#606060" stroke-width=".5" x="0" y="0" width="60" height="60"/>
                <use id="zoomplus" xlink:href="#zoomPlus" x="17" y="9" onmousedown="handleZoom(evt,'in')"/>
                <use id="zoomminus" xlink:href="#zoomMin" x="42" y="9" onmousedown="handleZoom(evt,'out')"/>
                <use id="reset" xlink:href="#resetDef" x="30" y="36" onmousedown="handleReset()"/>
                <g id="arrowUp" xlink:href="#dirArrow" transform="translate(30 24)" onmousedown="handlePan(0,-1)">
                  <use xlink:href="#rim" fill="#404040">
                        <set attributeName="fill" to="#808080" begin="arrowUp.mouseover" end="arrowUp.mouseout"/>
                  </use>
                  <path fill="none" stroke="white" stroke-width="1.5" d="M0,-3.0v7 M-2.5,-0.5L0,-3.0L2.5,-0.5"/>
                </g>
                <g id="arrowRight" xlink:href="#dirArrow" transform="rotate(90) translate(36 -43)" onmousedown="handlePan(1,0)">
                  <use xlink:href="#rim" fill="#404040">
                        <set attributeName="fill" to="#808080" begin="arrowRight.mouseover" end="arrowRight.mouseout"/>
                  </use>
                  <path fill="none" stroke="white" stroke-width="1.5" d="M0,-3.0v7 M-2.5,-0.5L0,-3.0L2.5,-0.5"/>
                </g>
                <g id="arrowDown" xlink:href="#dirArrow" transform="rotate(180) translate(-30 -48)" onmousedown="handlePan(0,1)">
                  <use xlink:href="#rim" fill="#404040">
                        <set attributeName="fill" to="#808080" begin="arrowDown.mouseover" end="arrowDown.mouseout"/>
                  </use>
                  <path fill="none" stroke="white" stroke-width="1.5" d="M0,-3.0v7 M-2.5,-0.5L0,-3.0L2.5,-0.5"/>
                </g>
                <g id="arrowLeft" xlink:href="#dirArrow" transform="rotate(270) translate(-36 17)" onmousedown="handlePan(-1,0)">
                  <use xlink:href="#rim" fill="#404040">
                        <set attributeName="fill" to="#808080" begin="arrowLeft.mouseover" end="arrowLeft.mouseout"/>
                  </use>
                  <path fill="none" stroke="white" stroke-width="1.5" d="M0,-3.0v7 M-2.5,-0.5L0,-3.0L2.5,-0.5"/>
                </g>
        </g>
        <svg viewBox="0 0 15 15" width="100%" height="30px" preserveAspectRatio="xMaxYMin meet">
         <g id="arrow_out" transform="scale(0.3 0.3)">
          <a xlink:href="vhdljjparser_8h__dep__incl_org.svg" target="_base">
           <rect id="button" ry="5" rx="5" y="6" x="6" height="38" width="38"
                fill="#f2f5e9" fill-opacity="0.5" stroke="#606060" stroke-width="1.0"/>
           <path id="arrow"
             d="M 11.500037,31.436501 C 11.940474,20.09759 22.043105,11.32322 32.158766,21.979434 L 37.068811,17.246167 C 37.068811,17.246167 37.088388,32 37.088388,32 L 22.160133,31.978069 C 22.160133,31.978069 26.997745,27.140456 26.997745,27.140456 C 18.528582,18.264221 13.291696,25.230495 11.500037,31.436501 z"
             style="fill:#404040;"/>
          </a>
         </g>
        </svg>
</svg>
