<?xml version="1.0" encoding="UTF-8" standalone="no"?>
<!DOCTYPE svg PUBLIC "-//W3C//DTD SVG 1.1//EN"
 "http://www.w3.org/Graphics/SVG/1.1/DTD/svg11.dtd">
<!-- Generated by graphviz version 2.43.0 (0)
 -->
<!-- Title: ConceptDefImpl Pages: 1 -->
<!--zoomable 618 -->
<svg id="main" version="1.1" xmlns="http://www.w3.org/2000/svg" xmlns:xlink="http://www.w3.org/1999/xlink" xml:space="preserve" onload="init(evt)">
<style type="text/css"><![CDATA[
.edge:hover path { stroke: red; }
.edge:hover polygon { stroke: red; fill: red; }
]]></style>
<script type="text/javascript"><![CDATA[
var edges = document.getElementsByTagName('g');
if (edges && edges.length) {
  for (var i=0;i<edges.length;i++) {
    if (edges[i].id.substr(0,4)=='edge') {
      edges[i].setAttribute('class','edge');
    }
  }
}
]]></script>
        <defs>
                <circle id="rim" cx="0" cy="0" r="7"/>
                <circle id="rim2" cx="0" cy="0" r="3.5"/>
                <g id="zoomPlus">
                        <use xlink:href="#rim" fill="#404040">
                                <set attributeName="fill" to="#808080" begin="zoomplus.mouseover" end="zoomplus.mouseout"/>
                        </use>
                        <path d="M-4,0h8M0,-4v8" fill="none" stroke="white" stroke-width="1.5" pointer-events="none"/>
                </g>
                <g id="zoomMin">
                        <use xlink:href="#rim" fill="#404040">
                                <set attributeName="fill" to="#808080" begin="zoomminus.mouseover" end="zoomminus.mouseout"/>
                        </use>
                        <path d="M-4,0h8" fill="none" stroke="white" stroke-width="1.5" pointer-events="none"/>
                </g>
                <g id="dirArrow">
                        <path fill="none" stroke="white" stroke-width="1.5" d="M0,-3.0v7 M-2.5,-0.5L0,-3.0L2.5,-0.5"/>
                </g>
               <g id="resetDef">
                       <use xlink:href="#rim2" fill="#404040">
                               <set attributeName="fill" to="#808080" begin="reset.mouseover" end="reset.mouseout"/>
                       </use>
               </g>
        </defs>

<script type="text/javascript">
var viewWidth = 1118;
var viewHeight = 618;
var sectionId = 'dynsection-1';
</script>
<script xlink:href="../../svgpan.js"/>
<svg id="graph" class="graph">
<g id="viewport">
<title>ConceptDefImpl</title>
<!-- Node1 -->
<g id="node1" class="node">
<title>Node1</title>
<g id="a_node1"><a xlink:title=" ">
<polygon fill="#999999" stroke="#666666" points="374.5,-19 279.5,-19 279.5,0 374.5,0 374.5,-19"/>
<text text-anchor="middle" x="327" y="-7" font-family="Helvetica,sans-Serif" font-size="10.00">ConceptDefImpl</text>
</a>
</g>
</g>
<!-- Node2 -->
<g id="node2" class="node">
<title>Node2</title>
<g id="a_node2"><a xlink:href="../../dd/d10/class_definition_mixin.html" target="_top" xlink:title=" ">
<polygon fill="white" stroke="#666666" points="398,-86 256,-86 256,-56 398,-56 398,-86"/>
<text text-anchor="start" x="264" y="-74" font-family="Helvetica,sans-Serif" font-size="10.00">DefinitionMixin&lt; Concept</text>
<text text-anchor="middle" x="327" y="-63" font-family="Helvetica,sans-Serif" font-size="10.00">DefMutable &gt;</text>
</a>
</g>
</g>
<!-- Node2&#45;&gt;Node1 -->
<g id="edge1" class="edge">
<title>Node2&#45;&gt;Node1</title>
<path fill="none" stroke="#63b8ff" d="M327,-45.79C327,-36.36 327,-26.15 327,-19.16"/>
<polygon fill="#63b8ff" stroke="#63b8ff" points="323.5,-45.9 327,-55.9 330.5,-45.9 323.5,-45.9"/>
</g>
<!-- Node3 -->
<g id="node3" class="node">
<title>Node3</title>
<g id="a_node3"><a xlink:href="../../d4/deb/class_concept_def_mutable.html" target="_top" xlink:title=" ">
<polygon fill="white" stroke="#666666" points="274.5,-415 161.5,-415 161.5,-396 274.5,-396 274.5,-415"/>
<text text-anchor="middle" x="218" y="-403" font-family="Helvetica,sans-Serif" font-size="10.00">ConceptDefMutable</text>
</a>
</g>
</g>
<!-- Node3&#45;&gt;Node2 -->
<g id="edge2" class="edge">
<title>Node3&#45;&gt;Node2</title>
<path fill="none" stroke="#63b8ff" d="M225.04,-386.39C240.93,-345.19 280.23,-241.08 307,-152 313.84,-129.24 320.22,-102.36 323.86,-86.27"/>
<polygon fill="#63b8ff" stroke="#63b8ff" points="221.72,-385.29 221.37,-395.88 228.25,-387.81 221.72,-385.29"/>
</g>
<!-- Node4 -->
<g id="node4" class="node">
<title>Node4</title>
<g id="a_node4"><a xlink:href="../../d0/d46/class_definition_mutable.html" target="_top" xlink:title=" ">
<polygon fill="white" stroke="#666666" points="436,-610 332,-610 332,-591 436,-591 436,-610"/>
<text text-anchor="middle" x="384" y="-598" font-family="Helvetica,sans-Serif" font-size="10.00">DefinitionMutable</text>
</a>
</g>
</g>
<!-- Node4&#45;&gt;Node3 -->
<g id="edge3" class="edge">
<title>Node4&#45;&gt;Node3</title>
<path fill="none" stroke="#63b8ff" d="M402.66,-583.9C428.84,-560.18 470.34,-514.61 443,-484 419.31,-457.48 316.42,-480.6 284,-466 258.12,-454.34 235.35,-428.7 224.58,-415.21"/>
<polygon fill="#63b8ff" stroke="#63b8ff" points="400.02,-581.55 394.81,-590.78 404.64,-586.82 400.02,-581.55"/>
</g>
<!-- Node16 -->
<g id="node16" class="node">
<title>Node16</title>
<g id="a_node16"><a xlink:href="../../de/db0/class_file_def.html" target="_top" xlink:title="A model of a file symbol.">
<polygon fill="white" stroke="#666666" points="331.5,-554 280.5,-554 280.5,-535 331.5,-535 331.5,-554"/>
<text text-anchor="middle" x="306" y="-542" font-family="Helvetica,sans-Serif" font-size="10.00">FileDef</text>
</a>
</g>
</g>
<!-- Node4&#45;&gt;Node16 -->
<g id="edge18" class="edge">
<title>Node4&#45;&gt;Node16</title>
<path fill="none" stroke="#63b8ff" d="M363.23,-585.12C348.98,-575.26 330.54,-562.49 318.5,-554.15"/>
<polygon fill="#63b8ff" stroke="#63b8ff" points="361.25,-588.01 371.47,-590.82 365.24,-582.25 361.25,-588.01"/>
</g>
<!-- Node5 -->
<g id="node5" class="node">
<title>Node5</title>
<g id="a_node5"><a xlink:href="../../d6/d8d/class_concept_def.html" target="_top" xlink:title=" ">
<polygon fill="white" stroke="#666666" points="232,-554 158,-554 158,-535 232,-535 232,-554"/>
<text text-anchor="middle" x="195" y="-542" font-family="Helvetica,sans-Serif" font-size="10.00">ConceptDef</text>
</a>
</g>
</g>
<!-- Node5&#45;&gt;Node3 -->
<g id="edge4" class="edge">
<title>Node5&#45;&gt;Node3</title>
<path fill="none" stroke="#63b8ff" d="M198.12,-524.93C203.16,-494.91 212.9,-436.88 216.56,-415.07"/>
<polygon fill="#63b8ff" stroke="#63b8ff" points="194.64,-524.49 196.44,-534.93 201.55,-525.65 194.64,-524.49"/>
</g>
<!-- Node6 -->
<g id="node6" class="node">
<title>Node6</title>
<g id="a_node6"><a xlink:href="../../d5/dcc/class_definition.html" target="_top" xlink:title="The common base class of all entity definitions found in the sources.">
<polygon fill="white" stroke="#666666" points="311,-610 247,-610 247,-591 311,-591 311,-610"/>
<text text-anchor="middle" x="279" y="-598" font-family="Helvetica,sans-Serif" font-size="10.00">Definition</text>
</a>
</g>
</g>
<!-- Node6&#45;&gt;Node5 -->
<g id="edge5" class="edge">
<title>Node6&#45;&gt;Node5</title>
<path fill="none" stroke="#63b8ff" d="M257.07,-585.4C241.66,-575.5 221.55,-562.57 208.46,-554.15"/>
<polygon fill="#63b8ff" stroke="#63b8ff" points="255.2,-588.36 265.5,-590.82 258.98,-582.47 255.2,-588.36"/>
</g>
<!-- Node8 -->
<g id="node8" class="node">
<title>Node8</title>
<g id="a_node8"><a xlink:href="../../dd/d50/class_definition_impl_1_1_i_m_p_l.html" target="_top" xlink:title="Private data associated with a Symbol DefinitionImpl object.">
<polygon fill="white" stroke="#666666" points="565.5,-287 450.5,-287 450.5,-268 565.5,-268 565.5,-287"/>
<text text-anchor="middle" x="508" y="-275" font-family="Helvetica,sans-Serif" font-size="10.00">DefinitionImpl::IMPL</text>
</a>
</g>
</g>
<!-- Node6&#45;&gt;Node8 -->
<g id="edge8" class="edge">
<title>Node6&#45;&gt;Node8</title>
<path fill="none" stroke="#9a32cd" stroke-dasharray="5,2" d="M306.04,-586.15C344.71,-565.67 415.39,-522.82 454,-466 464.52,-450.52 497.12,-322.03 505.84,-287.19"/>
<polygon fill="#9a32cd" stroke="#9a32cd" points="304.2,-583.16 296.94,-590.87 307.43,-589.37 304.2,-583.16"/>
<text text-anchor="middle" x="468.5" y="-503.5" font-family="Helvetica,sans-Serif" font-size="10.00" fill="grey"> def</text>
<text text-anchor="middle" x="468.5" y="-492.5" font-family="Helvetica,sans-Serif" font-size="10.00" fill="grey">outerScope</text>
</g>
<!-- Node6&#45;&gt;Node16 -->
<g id="edge19" class="edge">
<title>Node6&#45;&gt;Node16</title>
<path fill="none" stroke="#63b8ff" d="M288.01,-581.48C292.59,-572.32 297.95,-561.59 301.62,-554.25"/>
<polygon fill="#63b8ff" stroke="#63b8ff" points="284.8,-580.07 283.46,-590.58 291.06,-583.2 284.8,-580.07"/>
</g>
<!-- Node20 -->
<g id="node20" class="node">
<title>Node20</title>
<g id="a_node20"><a xlink:href="../../d0/d07/class_namespace_def.html" target="_top" xlink:title="An abstract interface of a namespace symbol.">
<polygon fill="white" stroke="#666666" points="92,-510 0,-510 0,-491 92,-491 92,-510"/>
<text text-anchor="middle" x="46" y="-498" font-family="Helvetica,sans-Serif" font-size="10.00">NamespaceDef</text>
</a>
</g>
</g>
<!-- Node6&#45;&gt;Node20 -->
<g id="edge27" class="edge">
<title>Node6&#45;&gt;Node20</title>
<path fill="none" stroke="#63b8ff" d="M241.63,-587.9C215.37,-579.4 179.61,-567.09 149,-554 117.07,-540.35 81.26,-521.17 61.39,-510.17"/>
<polygon fill="#63b8ff" stroke="#63b8ff" points="240.61,-591.25 251.2,-590.97 242.75,-584.58 240.61,-591.25"/>
</g>
<!-- Node7 -->
<g id="node7" class="node">
<title>Node7</title>
<g id="a_node7"><a xlink:href="../../d3/ddf/class_definition_impl.html" target="_top" xlink:title=" ">
<polygon fill="white" stroke="#666666" points="446,-219.5 360,-219.5 360,-200.5 446,-200.5 446,-219.5"/>
<text text-anchor="middle" x="403" y="-207.5" font-family="Helvetica,sans-Serif" font-size="10.00">DefinitionImpl</text>
</a>
</g>
</g>
<!-- Node7&#45;&gt;Node2 -->
<g id="edge6" class="edge">
<title>Node7&#45;&gt;Node2</title>
<path fill="none" stroke="#9a32cd" stroke-dasharray="5,2" d="M393.32,-191.55C378.08,-164.08 348.79,-111.29 334.81,-86.07"/>
<polygon fill="#9a32cd" stroke="#9a32cd" points="390.33,-193.38 398.25,-200.43 396.46,-189.99 390.33,-193.38"/>
<text text-anchor="middle" x="392" y="-140" font-family="Helvetica,sans-Serif" font-size="10.00" fill="grey"> m_impl</text>
</g>
<!-- Node18 -->
<g id="node18" class="node">
<title>Node18</title>
<g id="a_node18"><a xlink:href="../../dd/d10/class_definition_mixin.html" target="_top" xlink:title=" ">
<polygon fill="white" stroke="#666666" points="298.5,-152 161.5,-152 161.5,-133 298.5,-133 298.5,-152"/>
<text text-anchor="middle" x="230" y="-140" font-family="Helvetica,sans-Serif" font-size="10.00">DefinitionMixin&lt; Base &gt;</text>
</a>
</g>
</g>
<!-- Node7&#45;&gt;Node18 -->
<g id="edge24" class="edge">
<title>Node7&#45;&gt;Node18</title>
<path fill="none" stroke="#9a32cd" stroke-dasharray="5,2" d="M370.8,-196.81C336.42,-183.79 282.8,-163.49 252.62,-152.07"/>
<polygon fill="#9a32cd" stroke="#9a32cd" points="369.79,-200.17 380.38,-200.44 372.27,-193.62 369.79,-200.17"/>
<text text-anchor="middle" x="347" y="-173" font-family="Helvetica,sans-Serif" font-size="10.00" fill="grey"> m_impl</text>
</g>
<!-- Node8&#45;&gt;Node7 -->
<g id="edge7" class="edge">
<title>Node8&#45;&gt;Node7</title>
<path fill="none" stroke="#9a32cd" stroke-dasharray="5,2" d="M485.71,-262.59C464.82,-249.56 434.26,-230.5 416.73,-219.57"/>
<polygon fill="#9a32cd" stroke="#9a32cd" points="483.94,-265.61 494.27,-267.94 487.64,-259.67 483.94,-265.61"/>
<text text-anchor="middle" x="485" y="-242" font-family="Helvetica,sans-Serif" font-size="10.00" fill="grey"> m_impl</text>
</g>
<!-- Node9 -->
<g id="node9" class="node">
<title>Node9</title>
<g id="a_node9"><a xlink:href="../../d1/df9/class_section_refs.html" target="_top" xlink:title="class that represents a list of constant references to sections.">
<polygon fill="white" stroke="#666666" points="445,-415 371,-415 371,-396 445,-396 445,-415"/>
<text text-anchor="middle" x="408" y="-403" font-family="Helvetica,sans-Serif" font-size="10.00">SectionRefs</text>
</a>
</g>
</g>
<!-- Node9&#45;&gt;Node8 -->
<g id="edge9" class="edge">
<title>Node9&#45;&gt;Node8</title>
<path fill="none" stroke="#9a32cd" stroke-dasharray="5,2" d="M399.89,-386.59C391.43,-364.89 381.71,-328.32 400,-305 406.67,-296.49 428.18,-290.36 450.26,-286.15"/>
<polygon fill="#9a32cd" stroke="#9a32cd" points="396.72,-388.07 403.82,-395.93 403.17,-385.36 396.72,-388.07"/>
<text text-anchor="middle" x="430.5" y="-313.5" font-family="Helvetica,sans-Serif" font-size="10.00" fill="grey"> sectionRefs</text>
</g>
<!-- Node10 -->
<g id="node10" class="node">
<title>Node10</title>
<g id="a_node10"><a xlink:href="../../d3/d3b/class_group_list.html" target="_top" xlink:title=" ">
<polygon fill="white" stroke="#666666" points="564.5,-415 501.5,-415 501.5,-396 564.5,-396 564.5,-415"/>
<text text-anchor="middle" x="533" y="-403" font-family="Helvetica,sans-Serif" font-size="10.00">GroupList</text>
</a>
</g>
</g>
<!-- Node10&#45;&gt;Node8 -->
<g id="edge10" class="edge">
<title>Node10&#45;&gt;Node8</title>
<path fill="none" stroke="#9a32cd" stroke-dasharray="5,2" d="M525.74,-386.21C519.98,-370.73 512.36,-347.79 509,-327 506.77,-313.2 507.01,-296.9 507.46,-287.15"/>
<polygon fill="#9a32cd" stroke="#9a32cd" points="522.5,-387.55 529.36,-395.63 529.04,-385.04 522.5,-387.55"/>
<text text-anchor="middle" x="543.5" y="-313.5" font-family="Helvetica,sans-Serif" font-size="10.00" fill="grey"> partOfGroups</text>
</g>
<!-- Node11 -->
<g id="node11" class="node">
<title>Node11</title>
<g id="a_node11"><a xlink:title=" ">
<polygon fill="white" stroke="#666666" points="631,-554 485,-554 485,-535 631,-535 631,-554"/>
<text text-anchor="middle" x="558" y="-542" font-family="Helvetica,sans-Serif" font-size="10.00">std::vector&lt; GroupDef * &gt;</text>
</a>
</g>
</g>
<!-- Node11&#45;&gt;Node10 -->
<g id="edge11" class="edge">
<title>Node11&#45;&gt;Node10</title>
<path fill="none" stroke="#63b8ff" d="M554.61,-524.93C549.13,-494.91 538.54,-436.88 534.56,-415.07"/>
<polygon fill="#63b8ff" stroke="#63b8ff" points="551.2,-525.72 556.44,-534.93 558.08,-524.46 551.2,-525.72"/>
</g>
<!-- Node12 -->
<g id="node12" class="node">
<title>Node12</title>
<g id="a_node12"><a xlink:href="../../d7/dd5/struct_doc_info.html" target="_top" xlink:title="Data associated with a detailed description.">
<polygon fill="white" stroke="#666666" points="637,-415 583,-415 583,-396 637,-396 637,-415"/>
<text text-anchor="middle" x="610" y="-403" font-family="Helvetica,sans-Serif" font-size="10.00">DocInfo</text>
</a>
</g>
</g>
<!-- Node12&#45;&gt;Node8 -->
<g id="edge12" class="edge">
<title>Node12&#45;&gt;Node8</title>
<path fill="none" stroke="#9a32cd" stroke-dasharray="5,2" d="M608.76,-385.72C606.34,-363.67 599.18,-327.29 578,-305 570.12,-296.71 559.39,-290.99 548.69,-287.05"/>
<polygon fill="#9a32cd" stroke="#9a32cd" points="605.29,-386.13 609.65,-395.79 612.26,-385.52 605.29,-386.13"/>
<text text-anchor="middle" x="621" y="-319" font-family="Helvetica,sans-Serif" font-size="10.00" fill="grey"> details</text>
<text text-anchor="middle" x="621" y="-308" font-family="Helvetica,sans-Serif" font-size="10.00" fill="grey">inbodyDocs</text>
</g>
<!-- Node13 -->
<g id="node13" class="node">
<title>Node13</title>
<g id="a_node13"><a xlink:href="../../d9/d45/class_q_c_string.html" target="_top" xlink:title="This is an alternative implementation of QCString.">
<polygon fill="white" stroke="#666666" points="934.5,-554 875.5,-554 875.5,-535 934.5,-535 934.5,-554"/>
<text text-anchor="middle" x="905" y="-542" font-family="Helvetica,sans-Serif" font-size="10.00">QCString</text>
</a>
</g>
</g>
<!-- Node13&#45;&gt;Node1 -->
<g id="edge25" class="edge">
<title>Node13&#45;&gt;Node1</title>
<path fill="none" stroke="#9a32cd" stroke-dasharray="5,2" d="M929.88,-529.04C934.13,-525.58 938.11,-521.55 941,-517 967.87,-474.74 963,-456.58 963,-406.5 963,-406.5 963,-406.5 963,-70 963,-10.91 522.2,-8.97 374.54,-9.98"/>
<polygon fill="#9a32cd" stroke="#9a32cd" points="927.67,-526.32 921.56,-534.98 931.73,-532.02 927.67,-526.32"/>
<text text-anchor="middle" x="994.5" y="-213" font-family="Helvetica,sans-Serif" font-size="10.00" fill="grey"> m_fileName</text>
<text text-anchor="middle" x="994.5" y="-202" font-family="Helvetica,sans-Serif" font-size="10.00" fill="grey">m_initializer</text>
</g>
<!-- Node13&#45;&gt;Node8 -->
<g id="edge20" class="edge">
<title>Node13&#45;&gt;Node8</title>
<path fill="none" stroke="#9a32cd" stroke-dasharray="5,2" d="M864.92,-541.44C814.25,-536.56 728.08,-520.24 682,-466 634.97,-410.65 705.17,-356.55 654,-305 641.61,-292.52 600.93,-285.82 565.64,-282.28"/>
<polygon fill="#9a32cd" stroke="#9a32cd" points="864.91,-544.95 875.17,-542.32 865.51,-537.98 864.91,-544.95"/>
<text text-anchor="middle" x="721" y="-458" font-family="Helvetica,sans-Serif" font-size="10.00" fill="grey"> briefSignatures</text>
<text text-anchor="middle" x="721" y="-447" font-family="Helvetica,sans-Serif" font-size="10.00" fill="grey">defFileExt</text>
<text text-anchor="middle" x="721" y="-436" font-family="Helvetica,sans-Serif" font-size="10.00" fill="grey">defFileName</text>
<text text-anchor="middle" x="721" y="-425" font-family="Helvetica,sans-Serif" font-size="10.00" fill="grey">docSignatures</text>
<text text-anchor="middle" x="721" y="-414" font-family="Helvetica,sans-Serif" font-size="10.00" fill="grey">id</text>
<text text-anchor="middle" x="721" y="-403" font-family="Helvetica,sans-Serif" font-size="10.00" fill="grey">localName</text>
<text text-anchor="middle" x="721" y="-392" font-family="Helvetica,sans-Serif" font-size="10.00" fill="grey">name</text>
<text text-anchor="middle" x="721" y="-381" font-family="Helvetica,sans-Serif" font-size="10.00" fill="grey">qualifiedName</text>
<text text-anchor="middle" x="721" y="-370" font-family="Helvetica,sans-Serif" font-size="10.00" fill="grey">ref</text>
<text text-anchor="middle" x="721" y="-359" font-family="Helvetica,sans-Serif" font-size="10.00" fill="grey">symbolName</text>
<text text-anchor="middle" x="721" y="-348" font-family="Helvetica,sans-Serif" font-size="10.00" fill="grey">...</text>
</g>
<!-- Node13&#45;&gt;Node12 -->
<g id="edge13" class="edge">
<title>Node13&#45;&gt;Node12</title>
<path fill="none" stroke="#9a32cd" stroke-dasharray="5,2" d="M865.04,-542.04C794.76,-539.1 654.83,-531.49 638,-517 607.4,-490.66 607.79,-436.13 609.21,-415.07"/>
<polygon fill="#9a32cd" stroke="#9a32cd" points="865.15,-545.54 875.29,-542.45 865.44,-538.55 865.15,-545.54"/>
<text text-anchor="middle" x="648.5" y="-503.5" font-family="Helvetica,sans-Serif" font-size="10.00" fill="grey"> doc</text>
<text text-anchor="middle" x="648.5" y="-492.5" font-family="Helvetica,sans-Serif" font-size="10.00" fill="grey">file</text>
</g>
<!-- Node14 -->
<g id="node14" class="node">
<title>Node14</title>
<g id="a_node14"><a xlink:href="../../d0/da7/struct_brief_info.html" target="_top" xlink:title="Data associated with a brief description.">
<polygon fill="white" stroke="#666666" points="934.5,-415 875.5,-415 875.5,-396 934.5,-396 934.5,-415"/>
<text text-anchor="middle" x="905" y="-403" font-family="Helvetica,sans-Serif" font-size="10.00">BriefInfo</text>
</a>
</g>
</g>
<!-- Node13&#45;&gt;Node14 -->
<g id="edge15" class="edge">
<title>Node13&#45;&gt;Node14</title>
<path fill="none" stroke="#9a32cd" stroke-dasharray="5,2" d="M905,-524.93C905,-494.91 905,-436.88 905,-415.07"/>
<polygon fill="#9a32cd" stroke="#9a32cd" points="901.5,-524.93 905,-534.93 908.5,-524.93 901.5,-524.93"/>
<text text-anchor="middle" x="921" y="-509" font-family="Helvetica,sans-Serif" font-size="10.00" fill="grey"> doc</text>
<text text-anchor="middle" x="921" y="-498" font-family="Helvetica,sans-Serif" font-size="10.00" fill="grey">file</text>
<text text-anchor="middle" x="921" y="-487" font-family="Helvetica,sans-Serif" font-size="10.00" fill="grey">tooltip</text>
</g>
<!-- Node21 -->
<g id="node21" class="node">
<title>Node21</title>
<g id="a_node21"><a xlink:href="../../d7/df8/class_argument_list.html" target="_top" xlink:title="This class represents an function or template argument list.">
<polygon fill="white" stroke="#666666" points="1077,-325.5 995,-325.5 995,-306.5 1077,-306.5 1077,-325.5"/>
<text text-anchor="middle" x="1036" y="-313.5" font-family="Helvetica,sans-Serif" font-size="10.00">ArgumentList</text>
</a>
</g>
</g>
<!-- Node13&#45;&gt;Node21 -->
<g id="edge30" class="edge">
<title>Node13&#45;&gt;Node21</title>
<path fill="none" stroke="#9a32cd" stroke-dasharray="5,2" d="M944.53,-536.14C956.33,-532.21 968.39,-526.19 977,-517 1030.69,-459.65 1035.75,-355.82 1036.05,-325.52"/>
<polygon fill="#9a32cd" stroke="#9a32cd" points="943.39,-532.83 934.76,-538.98 945.34,-539.55 943.39,-532.83"/>
<text text-anchor="middle" x="1054" y="-498" font-family="Helvetica,sans-Serif" font-size="10.00" fill="grey"> m_trailingReturnType</text>
</g>
<!-- Node14&#45;&gt;Node8 -->
<g id="edge14" class="edge">
<title>Node14&#45;&gt;Node8</title>
<path fill="none" stroke="#9a32cd" stroke-dasharray="5,2" d="M900.44,-386.28C893.57,-363.02 878.14,-323.59 849,-305 825.75,-290.17 656.71,-282.91 565.69,-280.04"/>
<polygon fill="#9a32cd" stroke="#9a32cd" points="897.07,-387.23 903.08,-395.96 903.83,-385.39 897.07,-387.23"/>
<text text-anchor="middle" x="884" y="-313.5" font-family="Helvetica,sans-Serif" font-size="10.00" fill="grey"> brief</text>
</g>
<!-- Node15 -->
<g id="node15" class="node">
<title>Node15</title>
<g id="a_node15"><a xlink:href="../../db/dab/struct_body_info.html" target="_top" xlink:title="Data associated with description found in the body.">
<polygon fill="white" stroke="#666666" points="353,-415 293,-415 293,-396 353,-396 353,-415"/>
<text text-anchor="middle" x="323" y="-403" font-family="Helvetica,sans-Serif" font-size="10.00">BodyInfo</text>
</a>
</g>
</g>
<!-- Node15&#45;&gt;Node8 -->
<g id="edge16" class="edge">
<title>Node15&#45;&gt;Node8</title>
<path fill="none" stroke="#9a32cd" stroke-dasharray="5,2" d="M324.28,-385.95C326.89,-363.25 334.84,-325.34 359,-305 372.77,-293.41 414.47,-286.63 450.27,-282.84"/>
<polygon fill="#9a32cd" stroke="#9a32cd" points="320.79,-385.71 323.36,-395.99 327.76,-386.35 320.79,-385.71"/>
<text text-anchor="middle" x="373" y="-313.5" font-family="Helvetica,sans-Serif" font-size="10.00" fill="grey"> body</text>
</g>
<!-- Node16&#45;&gt;Node1 -->
<g id="edge28" class="edge">
<title>Node16&#45;&gt;Node1</title>
<path fill="none" stroke="#9a32cd" stroke-dasharray="5,2" d="M270.52,-534.38C235.6,-523.64 183.14,-502.46 152,-466 133.97,-444.89 133,-434.26 133,-406.5 133,-406.5 133,-406.5 133,-70 133,-39.53 221.6,-23.07 279.04,-15.6"/>
<polygon fill="#9a32cd" stroke="#9a32cd" points="269.72,-537.79 280.3,-537.26 271.7,-531.08 269.72,-537.79"/>
<text text-anchor="middle" x="158.5" y="-207.5" font-family="Helvetica,sans-Serif" font-size="10.00" fill="grey"> m_fileDef</text>
</g>
<!-- Node16&#45;&gt;Node15 -->
<g id="edge17" class="edge">
<title>Node16&#45;&gt;Node15</title>
<path fill="none" stroke="#9a32cd" stroke-dasharray="5,2" d="M308.3,-524.93C312.03,-494.91 319.23,-436.88 321.94,-415.07"/>
<polygon fill="#9a32cd" stroke="#9a32cd" points="304.82,-524.58 307.06,-534.93 311.77,-525.44 304.82,-524.58"/>
<text text-anchor="middle" x="331" y="-498" font-family="Helvetica,sans-Serif" font-size="10.00" fill="grey"> fileDef</text>
</g>
<!-- Node17 -->
<g id="node17" class="node">
<title>Node17</title>
<g id="a_node17"><a xlink:href="../../d1/d7d/class_member_vector.html" target="_top" xlink:title="A vector of MemberDef object.">
<polygon fill="white" stroke="#666666" points="857,-415 769,-415 769,-396 857,-396 857,-415"/>
<text text-anchor="middle" x="813" y="-403" font-family="Helvetica,sans-Serif" font-size="10.00">MemberVector</text>
</a>
</g>
</g>
<!-- Node17&#45;&gt;Node8 -->
<g id="edge21" class="edge">
<title>Node17&#45;&gt;Node8</title>
<path fill="none" stroke="#9a32cd" stroke-dasharray="5,2" d="M798.94,-387.82C787.8,-375.19 771.42,-357.87 755,-345 727.41,-323.37 720.06,-316.67 687,-305 647.9,-291.2 601.53,-284.58 565.78,-281.41"/>
<polygon fill="#9a32cd" stroke="#9a32cd" points="796.57,-390.43 805.76,-395.71 801.86,-385.85 796.57,-390.43"/>
<text text-anchor="middle" x="787.5" y="-319" font-family="Helvetica,sans-Serif" font-size="10.00" fill="grey"> referencedByMembers</text>
<text text-anchor="middle" x="787.5" y="-308" font-family="Helvetica,sans-Serif" font-size="10.00" fill="grey">referencesMembers</text>
</g>
<!-- Node18&#45;&gt;Node2 -->
<g id="edge22" class="edge">
<title>Node18&#45;&gt;Node2</title>
<path fill="none" stroke="orange" stroke-dasharray="5,2" d="M200.73,-127.68C190.56,-120.99 183.21,-112.56 190,-104 198.69,-93.05 227.01,-85.49 255.67,-80.48"/>
<polygon fill="orange" stroke="orange" points="199.28,-130.89 209.69,-132.86 202.78,-124.82 199.28,-130.89"/>
<text text-anchor="middle" x="251.5" y="-107" font-family="Helvetica,sans-Serif" font-size="10.00" fill="grey"> &lt; ConceptDefMutable &gt;</text>
</g>
<!-- Node19 -->
<g id="node19" class="node">
<title>Node19</title>
<g id="a_node19"><a xlink:title=" ">
<polygon fill="white" stroke="#666666" points="250.5,-219.5 209.5,-219.5 209.5,-200.5 250.5,-200.5 250.5,-219.5"/>
<text text-anchor="middle" x="230" y="-207.5" font-family="Helvetica,sans-Serif" font-size="10.00">Base</text>
</a>
</g>
</g>
<!-- Node19&#45;&gt;Node18 -->
<g id="edge23" class="edge">
<title>Node19&#45;&gt;Node18</title>
<path fill="none" stroke="#63b8ff" d="M230,-190.18C230,-177.71 230,-161.92 230,-152.27"/>
<polygon fill="#63b8ff" stroke="#63b8ff" points="226.5,-190.44 230,-200.44 233.5,-190.44 226.5,-190.44"/>
</g>
<!-- Node20&#45;&gt;Node1 -->
<g id="edge26" class="edge">
<title>Node20&#45;&gt;Node1</title>
<path fill="none" stroke="#9a32cd" stroke-dasharray="5,2" d="M45.66,-480.71C45.09,-447.63 44,-376.81 44,-317 44,-317 44,-317 44,-70 44,-22.49 198.66,-12.71 279.31,-10.84"/>
<polygon fill="#9a32cd" stroke="#9a32cd" points="42.16,-480.83 45.84,-490.76 49.16,-480.7 42.16,-480.83"/>
<text text-anchor="middle" x="70.5" y="-207.5" font-family="Helvetica,sans-Serif" font-size="10.00" fill="grey"> m_nspace</text>
</g>
<!-- Node21&#45;&gt;Node1 -->
<g id="edge29" class="edge">
<title>Node21&#45;&gt;Node1</title>
<path fill="none" stroke="#9a32cd" stroke-dasharray="5,2" d="M1043.53,-296.47C1048.46,-282.66 1054,-263.2 1054,-245.5 1054,-245.5 1054,-245.5 1054,-70 1054,-32.77 1013.31,-45.23 977,-37 862.45,-11.04 504.94,-9.77 374.9,-10.21"/>
<polygon fill="#9a32cd" stroke="#9a32cd" points="1040.11,-295.6 1039.82,-306.19 1046.65,-298.1 1040.11,-295.6"/>
<text text-anchor="middle" x="1082" y="-173" font-family="Helvetica,sans-Serif" font-size="10.00" fill="grey"> m_tArgList</text>
</g>
</g>
</svg>
        <g id="navigator" transform="translate(0 0)" fill="#404254">
                <rect fill="#f2f5e9" fill-opacity="0.5" stroke="#606060" stroke-width=".5" x="0" y="0" width="60" height="60"/>
                <use id="zoomplus" xlink:href="#zoomPlus" x="17" y="9" onmousedown="handleZoom(evt,'in')"/>
                <use id="zoomminus" xlink:href="#zoomMin" x="42" y="9" onmousedown="handleZoom(evt,'out')"/>
                <use id="reset" xlink:href="#resetDef" x="30" y="36" onmousedown="handleReset()"/>
                <g id="arrowUp" xlink:href="#dirArrow" transform="translate(30 24)" onmousedown="handlePan(0,-1)">
                  <use xlink:href="#rim" fill="#404040">
                        <set attributeName="fill" to="#808080" begin="arrowUp.mouseover" end="arrowUp.mouseout"/>
                  </use>
                  <path fill="none" stroke="white" stroke-width="1.5" d="M0,-3.0v7 M-2.5,-0.5L0,-3.0L2.5,-0.5"/>
                </g>
                <g id="arrowRight" xlink:href="#dirArrow" transform="rotate(90) translate(36 -43)" onmousedown="handlePan(1,0)">
                  <use xlink:href="#rim" fill="#404040">
                        <set attributeName="fill" to="#808080" begin="arrowRight.mouseover" end="arrowRight.mouseout"/>
                  </use>
                  <path fill="none" stroke="white" stroke-width="1.5" d="M0,-3.0v7 M-2.5,-0.5L0,-3.0L2.5,-0.5"/>
                </g>
                <g id="arrowDown" xlink:href="#dirArrow" transform="rotate(180) translate(-30 -48)" onmousedown="handlePan(0,1)">
                  <use xlink:href="#rim" fill="#404040">
                        <set attributeName="fill" to="#808080" begin="arrowDown.mouseover" end="arrowDown.mouseout"/>
                  </use>
                  <path fill="none" stroke="white" stroke-width="1.5" d="M0,-3.0v7 M-2.5,-0.5L0,-3.0L2.5,-0.5"/>
                </g>
                <g id="arrowLeft" xlink:href="#dirArrow" transform="rotate(270) translate(-36 17)" onmousedown="handlePan(-1,0)">
                  <use xlink:href="#rim" fill="#404040">
                        <set attributeName="fill" to="#808080" begin="arrowLeft.mouseover" end="arrowLeft.mouseout"/>
                  </use>
                  <path fill="none" stroke="white" stroke-width="1.5" d="M0,-3.0v7 M-2.5,-0.5L0,-3.0L2.5,-0.5"/>
                </g>
        </g>
        <svg viewBox="0 0 15 15" width="100%" height="30px" preserveAspectRatio="xMaxYMin meet">
         <g id="arrow_out" transform="scale(0.3 0.3)">
          <a xlink:href="class_concept_def_impl__coll__graph_org.svg" target="_base">
           <rect id="button" ry="5" rx="5" y="6" x="6" height="38" width="38"
                fill="#f2f5e9" fill-opacity="0.5" stroke="#606060" stroke-width="1.0"/>
           <path id="arrow"
             d="M 11.500037,31.436501 C 11.940474,20.09759 22.043105,11.32322 32.158766,21.979434 L 37.068811,17.246167 C 37.068811,17.246167 37.088388,32 37.088388,32 L 22.160133,31.978069 C 22.160133,31.978069 26.997745,27.140456 26.997745,27.140456 C 18.528582,18.264221 13.291696,25.230495 11.500037,31.436501 z"
             style="fill:#404040;"/>
          </a>
         </g>
        </svg>
</svg>
