<?xml version="1.0" encoding="UTF-8" standalone="no"?>
<!DOCTYPE svg PUBLIC "-//W3C//DTD SVG 1.1//EN"
 "http://www.w3.org/Graphics/SVG/1.1/DTD/svg11.dtd">
<!-- Generated by graphviz version 2.43.0 (0)
 -->
<!-- Title: /home/runner/work/doxygen/doxygen/src/namespacedef.h Pages: 1 -->
<svg width="5319pt" height="104pt"
 viewBox="0.00 0.00 5319.00 104.00" xmlns="http://www.w3.org/2000/svg" xmlns:xlink="http://www.w3.org/1999/xlink">
<g id="graph0" class="graph" transform="scale(1 1) rotate(0) translate(4 100)">
<title>/home/runner/work/doxygen/doxygen/src/namespacedef.h</title>
<!-- Node1 -->
<g id="node1" class="node">
<title>Node1</title>
<g id="a_node1"><a xlink:title=" ">
<polygon fill="#999999" stroke="#666666" points="2718,-96 2556,-96 2556,-66 2718,-66 2718,-96"/>
<text text-anchor="start" x="2564" y="-84" font-family="Helvetica,sans-Serif" font-size="10.00">/home/runner/work/doxygen</text>
<text text-anchor="middle" x="2637" y="-73" font-family="Helvetica,sans-Serif" font-size="10.00">/doxygen/src/namespacedef.h</text>
</a>
</g>
</g>
<!-- Node2 -->
<g id="node2" class="node">
<title>Node2</title>
<g id="a_node2"><a xlink:href="../../de/d89/classdef_8cpp.html" target="_top" xlink:title=" ">
<polygon fill="white" stroke="#666666" points="154,-30 0,-30 0,0 154,0 154,-30"/>
<text text-anchor="start" x="8" y="-18" font-family="Helvetica,sans-Serif" font-size="10.00">/home/runner/work/doxygen</text>
<text text-anchor="middle" x="77" y="-7" font-family="Helvetica,sans-Serif" font-size="10.00">/doxygen/src/classdef.cpp</text>
</a>
</g>
</g>
<!-- Node1&#45;&gt;Node2 -->
<g id="edge1" class="edge">
<title>Node1&#45;&gt;Node2</title>
<path fill="none" stroke="#63b8ff" d="M2545.91,-79.88C2157.65,-79.12 639.15,-73.35 163,-30 160.14,-29.74 157.23,-29.44 154.29,-29.11"/>
<polygon fill="#63b8ff" stroke="#63b8ff" points="2545.96,-83.38 2555.97,-79.9 2545.98,-76.38 2545.96,-83.38"/>
</g>
<!-- Node3 -->
<g id="node3" class="node">
<title>Node3</title>
<g id="a_node3"><a xlink:href="../../da/d1f/code_8l.html" target="_top" xlink:title=" ">
<polygon fill="white" stroke="#666666" points="326,-30 172,-30 172,0 326,0 326,-30"/>
<text text-anchor="start" x="180" y="-18" font-family="Helvetica,sans-Serif" font-size="10.00">/home/runner/work/doxygen</text>
<text text-anchor="middle" x="249" y="-7" font-family="Helvetica,sans-Serif" font-size="10.00">/doxygen/src/code.l</text>
</a>
</g>
</g>
<!-- Node1&#45;&gt;Node3 -->
<g id="edge2" class="edge">
<title>Node1&#45;&gt;Node3</title>
<path fill="none" stroke="#63b8ff" d="M2545.56,-79.72C2173.9,-78.32 775.35,-70.43 335,-30 332.14,-29.74 329.23,-29.44 326.29,-29.1"/>
<polygon fill="#63b8ff" stroke="#63b8ff" points="2545.72,-83.22 2555.73,-79.76 2545.74,-76.22 2545.72,-83.22"/>
</g>
<!-- Node4 -->
<g id="node4" class="node">
<title>Node4</title>
<g id="a_node4"><a xlink:href="../../d8/d0a/conceptdef_8cpp.html" target="_top" xlink:title=" ">
<polygon fill="white" stroke="#666666" points="499.5,-30 344.5,-30 344.5,0 499.5,0 499.5,-30"/>
<text text-anchor="start" x="352.5" y="-18" font-family="Helvetica,sans-Serif" font-size="10.00">/home/runner/work/doxygen</text>
<text text-anchor="middle" x="422" y="-7" font-family="Helvetica,sans-Serif" font-size="10.00">/doxygen/src/conceptdef.cpp</text>
</a>
</g>
</g>
<!-- Node1&#45;&gt;Node4 -->
<g id="edge3" class="edge">
<title>Node1&#45;&gt;Node4</title>
<path fill="none" stroke="#63b8ff" d="M2545.8,-79.51C2192.48,-77.36 913.49,-67.12 509,-30 505.95,-29.72 502.85,-29.4 499.72,-29.04"/>
<polygon fill="#63b8ff" stroke="#63b8ff" points="2545.96,-83.01 2555.98,-79.57 2546,-76.01 2545.96,-83.01"/>
</g>
<!-- Node5 -->
<g id="node5" class="node">
<title>Node5</title>
<g id="a_node5"><a xlink:href="../../db/d12/context_8cpp.html" target="_top" xlink:title=" ">
<polygon fill="white" stroke="#666666" points="672,-30 518,-30 518,0 672,0 672,-30"/>
<text text-anchor="start" x="526" y="-18" font-family="Helvetica,sans-Serif" font-size="10.00">/home/runner/work/doxygen</text>
<text text-anchor="middle" x="595" y="-7" font-family="Helvetica,sans-Serif" font-size="10.00">/doxygen/src/context.cpp</text>
</a>
</g>
</g>
<!-- Node1&#45;&gt;Node5 -->
<g id="edge4" class="edge">
<title>Node1&#45;&gt;Node5</title>
<path fill="none" stroke="#63b8ff" d="M2545.69,-79.31C2210.74,-76.54 1049.95,-64.59 681,-30 678.14,-29.73 675.23,-29.43 672.29,-29.09"/>
<polygon fill="#63b8ff" stroke="#63b8ff" points="2545.8,-82.81 2555.83,-79.4 2545.86,-75.81 2545.8,-82.81"/>
</g>
<!-- Node6 -->
<g id="node6" class="node">
<title>Node6</title>
<g id="a_node6"><a xlink:href="../../d3/d17/defgen_8cpp.html" target="_top" xlink:title=" ">
<polygon fill="white" stroke="#666666" points="844,-30 690,-30 690,0 844,0 844,-30"/>
<text text-anchor="start" x="698" y="-18" font-family="Helvetica,sans-Serif" font-size="10.00">/home/runner/work/doxygen</text>
<text text-anchor="middle" x="767" y="-7" font-family="Helvetica,sans-Serif" font-size="10.00">/doxygen/src/defgen.cpp</text>
</a>
</g>
</g>
<!-- Node1&#45;&gt;Node6 -->
<g id="edge5" class="edge">
<title>Node1&#45;&gt;Node6</title>
<path fill="none" stroke="#63b8ff" d="M2545.83,-79.05C2230.42,-75.53 1186.65,-61.69 853,-30 850.14,-29.73 847.23,-29.42 844.29,-29.08"/>
<polygon fill="#63b8ff" stroke="#63b8ff" points="2545.81,-82.55 2555.85,-79.16 2545.89,-75.55 2545.81,-82.55"/>
</g>
<!-- Node7 -->
<g id="node7" class="node">
<title>Node7</title>
<g id="a_node7"><a xlink:href="../../d3/dea/definition_8cpp.html" target="_top" xlink:title=" ">
<polygon fill="white" stroke="#666666" points="1016,-30 862,-30 862,0 1016,0 1016,-30"/>
<text text-anchor="start" x="870" y="-18" font-family="Helvetica,sans-Serif" font-size="10.00">/home/runner/work/doxygen</text>
<text text-anchor="middle" x="939" y="-7" font-family="Helvetica,sans-Serif" font-size="10.00">/doxygen/src/definition.cpp</text>
</a>
</g>
</g>
<!-- Node1&#45;&gt;Node7 -->
<g id="edge6" class="edge">
<title>Node1&#45;&gt;Node7</title>
<path fill="none" stroke="#63b8ff" d="M2545.51,-78.73C2250.05,-74.39 1323.33,-58.79 1025,-30 1022.14,-29.72 1019.23,-29.41 1016.29,-29.07"/>
<polygon fill="#63b8ff" stroke="#63b8ff" points="2545.7,-82.24 2555.75,-78.88 2545.8,-75.24 2545.7,-82.24"/>
</g>
<!-- Node8 -->
<g id="node8" class="node">
<title>Node8</title>
<g id="a_node8"><a xlink:href="../../d8/d29/docbookgen_8cpp.html" target="_top" xlink:title=" ">
<polygon fill="white" stroke="#666666" points="1195.5,-30 1034.5,-30 1034.5,0 1195.5,0 1195.5,-30"/>
<text text-anchor="start" x="1042.5" y="-18" font-family="Helvetica,sans-Serif" font-size="10.00">/home/runner/work/doxygen</text>
<text text-anchor="middle" x="1115" y="-7" font-family="Helvetica,sans-Serif" font-size="10.00">/doxygen/src/docbookgen.cpp</text>
</a>
</g>
</g>
<!-- Node1&#45;&gt;Node8 -->
<g id="edge7" class="edge">
<title>Node1&#45;&gt;Node8</title>
<path fill="none" stroke="#63b8ff" d="M2545.43,-80.59C2318.04,-81.22 1709.57,-77.88 1205,-30 1202.01,-29.72 1198.97,-29.4 1195.9,-29.05"/>
<polygon fill="#63b8ff" stroke="#63b8ff" points="2545.65,-84.09 2555.64,-80.55 2545.63,-77.09 2545.65,-84.09"/>
</g>
<!-- Node9 -->
<g id="node9" class="node">
<title>Node9</title>
<g id="a_node9"><a xlink:href="../../d0/d2b/docnode_8cpp.html" target="_top" xlink:title=" ">
<polygon fill="white" stroke="#666666" points="1368,-30 1214,-30 1214,0 1368,0 1368,-30"/>
<text text-anchor="start" x="1222" y="-18" font-family="Helvetica,sans-Serif" font-size="10.00">/home/runner/work/doxygen</text>
<text text-anchor="middle" x="1291" y="-7" font-family="Helvetica,sans-Serif" font-size="10.00">/doxygen/src/docnode.cpp</text>
</a>
</g>
</g>
<!-- Node1&#45;&gt;Node9 -->
<g id="edge8" class="edge">
<title>Node1&#45;&gt;Node9</title>
<path fill="none" stroke="#63b8ff" d="M2545.42,-80.18C2337.27,-79.75 1812.9,-73.96 1377,-30 1374.14,-29.71 1371.23,-29.39 1368.3,-29.04"/>
<polygon fill="#63b8ff" stroke="#63b8ff" points="2545.68,-83.68 2555.69,-80.19 2545.69,-76.68 2545.68,-83.68"/>
</g>
<!-- Node10 -->
<g id="node10" class="node">
<title>Node10</title>
<g id="a_node10"><a xlink:href="../../da/d17/docparser_8cpp.html" target="_top" xlink:title=" ">
<polygon fill="white" stroke="#666666" points="1540,-30 1386,-30 1386,0 1540,0 1540,-30"/>
<text text-anchor="start" x="1394" y="-18" font-family="Helvetica,sans-Serif" font-size="10.00">/home/runner/work/doxygen</text>
<text text-anchor="middle" x="1463" y="-7" font-family="Helvetica,sans-Serif" font-size="10.00">/doxygen/src/docparser.cpp</text>
</a>
</g>
</g>
<!-- Node1&#45;&gt;Node10 -->
<g id="edge9" class="edge">
<title>Node1&#45;&gt;Node10</title>
<path fill="none" stroke="#63b8ff" d="M2545.82,-79.36C2358.53,-77.26 1917.2,-68.3 1549,-30 1546.14,-29.7 1543.23,-29.37 1540.3,-29.02"/>
<polygon fill="#63b8ff" stroke="#63b8ff" points="2545.86,-82.86 2555.89,-79.47 2545.93,-75.86 2545.86,-82.86"/>
</g>
<!-- Node11 -->
<g id="node11" class="node">
<title>Node11</title>
<g id="a_node11"><a xlink:href="../../d7/d8f/docsets_8cpp.html" target="_top" xlink:title=" ">
<polygon fill="white" stroke="#666666" points="1712,-30 1558,-30 1558,0 1712,0 1712,-30"/>
<text text-anchor="start" x="1566" y="-18" font-family="Helvetica,sans-Serif" font-size="10.00">/home/runner/work/doxygen</text>
<text text-anchor="middle" x="1635" y="-7" font-family="Helvetica,sans-Serif" font-size="10.00">/doxygen/src/docsets.cpp</text>
</a>
</g>
</g>
<!-- Node1&#45;&gt;Node11 -->
<g id="edge10" class="edge">
<title>Node1&#45;&gt;Node11</title>
<path fill="none" stroke="#63b8ff" d="M2545.79,-78.25C2380.77,-74.36 2021.88,-62.61 1721,-30 1718.14,-29.69 1715.24,-29.35 1712.3,-28.98"/>
<polygon fill="#63b8ff" stroke="#63b8ff" points="2545.81,-81.75 2555.89,-78.48 2545.98,-74.75 2545.81,-81.75"/>
</g>
<!-- Node12 -->
<g id="node12" class="node">
<title>Node12</title>
<g id="a_node12"><a xlink:href="../../d1/d86/dotgroupcollaboration_8cpp.html" target="_top" xlink:title=" ">
<polygon fill="white" stroke="#666666" points="1939.5,-30 1730.5,-30 1730.5,0 1939.5,0 1939.5,-30"/>
<text text-anchor="start" x="1738.5" y="-18" font-family="Helvetica,sans-Serif" font-size="10.00">/home/runner/work/doxygen</text>
<text text-anchor="middle" x="1835" y="-7" font-family="Helvetica,sans-Serif" font-size="10.00">/doxygen/src/dotgroupcollaboration.cpp</text>
</a>
</g>
</g>
<!-- Node1&#45;&gt;Node12 -->
<g id="edge11" class="edge">
<title>Node1&#45;&gt;Node12</title>
<path fill="none" stroke="#63b8ff" d="M2545.81,-74.82C2413.95,-67 2162.45,-50.85 1949,-30 1945.92,-29.7 1942.8,-29.38 1939.65,-29.06"/>
<polygon fill="#63b8ff" stroke="#63b8ff" points="2545.68,-78.32 2555.87,-75.41 2546.09,-71.33 2545.68,-78.32"/>
</g>
<!-- Node13 -->
<g id="node13" class="node">
<title>Node13</title>
<g id="a_node13"><a xlink:href="../../dc/d98/doxygen_8cpp.html" target="_top" xlink:title=" ">
<polygon fill="white" stroke="#666666" points="2112,-30 1958,-30 1958,0 2112,0 2112,-30"/>
<text text-anchor="start" x="1966" y="-18" font-family="Helvetica,sans-Serif" font-size="10.00">/home/runner/work/doxygen</text>
<text text-anchor="middle" x="2035" y="-7" font-family="Helvetica,sans-Serif" font-size="10.00">/doxygen/src/doxygen.cpp</text>
</a>
</g>
</g>
<!-- Node1&#45;&gt;Node13 -->
<g id="edge12" class="edge">
<title>Node1&#45;&gt;Node13</title>
<path fill="none" stroke="#63b8ff" d="M2545.85,-72.96C2442.59,-64.58 2269.36,-49.24 2121,-30 2118.15,-29.63 2115.25,-29.24 2112.32,-28.83"/>
<polygon fill="#63b8ff" stroke="#63b8ff" points="2545.68,-76.46 2555.93,-73.78 2546.25,-69.48 2545.68,-76.46"/>
</g>
<!-- Node14 -->
<g id="node14" class="node">
<title>Node14</title>
<g id="a_node14"><a xlink:href="../../d6/ddc/filedef_8cpp.html" target="_top" xlink:title=" ">
<polygon fill="white" stroke="#666666" points="2284,-30 2130,-30 2130,0 2284,0 2284,-30"/>
<text text-anchor="start" x="2138" y="-18" font-family="Helvetica,sans-Serif" font-size="10.00">/home/runner/work/doxygen</text>
<text text-anchor="middle" x="2207" y="-7" font-family="Helvetica,sans-Serif" font-size="10.00">/doxygen/src/filedef.cpp</text>
</a>
</g>
</g>
<!-- Node1&#45;&gt;Node14 -->
<g id="edge13" class="edge">
<title>Node1&#45;&gt;Node14</title>
<path fill="none" stroke="#63b8ff" d="M2545.94,-67.2C2476.57,-57.34 2378.7,-43.2 2293,-30 2290.16,-29.56 2287.27,-29.11 2284.35,-28.65"/>
<polygon fill="#63b8ff" stroke="#63b8ff" points="2545.58,-70.68 2555.97,-68.62 2546.56,-63.75 2545.58,-70.68"/>
</g>
<!-- Node15 -->
<g id="node15" class="node">
<title>Node15</title>
<g id="a_node15"><a xlink:href="../../d9/d5b/fortrancode_8l.html" target="_top" xlink:title=" ">
<polygon fill="white" stroke="#666666" points="2456,-30 2302,-30 2302,0 2456,0 2456,-30"/>
<text text-anchor="start" x="2310" y="-18" font-family="Helvetica,sans-Serif" font-size="10.00">/home/runner/work/doxygen</text>
<text text-anchor="middle" x="2379" y="-7" font-family="Helvetica,sans-Serif" font-size="10.00">/doxygen/src/fortrancode.l</text>
</a>
</g>
</g>
<!-- Node1&#45;&gt;Node15 -->
<g id="edge14" class="edge">
<title>Node1&#45;&gt;Node15</title>
<path fill="none" stroke="#63b8ff" d="M2570.55,-63.52C2528.71,-53.14 2475.28,-39.88 2435.49,-30.01"/>
<polygon fill="#63b8ff" stroke="#63b8ff" points="2569.83,-66.94 2580.38,-65.95 2571.52,-60.15 2569.83,-66.94"/>
</g>
<!-- Node16 -->
<g id="node16" class="node">
<title>Node16</title>
<g id="a_node16"><a xlink:href="../../d6/d42/groupdef_8cpp.html" target="_top" xlink:title=" ">
<polygon fill="white" stroke="#666666" points="2628,-30 2474,-30 2474,0 2628,0 2628,-30"/>
<text text-anchor="start" x="2482" y="-18" font-family="Helvetica,sans-Serif" font-size="10.00">/home/runner/work/doxygen</text>
<text text-anchor="middle" x="2551" y="-7" font-family="Helvetica,sans-Serif" font-size="10.00">/doxygen/src/groupdef.cpp</text>
</a>
</g>
</g>
<!-- Node1&#45;&gt;Node16 -->
<g id="edge15" class="edge">
<title>Node1&#45;&gt;Node16</title>
<path fill="none" stroke="#63b8ff" d="M2609.79,-59.75C2596.86,-50.13 2581.71,-38.86 2570.03,-30.16"/>
<polygon fill="#63b8ff" stroke="#63b8ff" points="2607.8,-62.63 2617.91,-65.8 2611.98,-57.02 2607.8,-62.63"/>
</g>
<!-- Node17 -->
<g id="node17" class="node">
<title>Node17</title>
<g id="a_node17"><a xlink:href="../../db/d14/index_8cpp.html" target="_top" xlink:title="This file contains functions for the various index pages.">
<polygon fill="white" stroke="#666666" points="2800,-30 2646,-30 2646,0 2800,0 2800,-30"/>
<text text-anchor="start" x="2654" y="-18" font-family="Helvetica,sans-Serif" font-size="10.00">/home/runner/work/doxygen</text>
<text text-anchor="middle" x="2723" y="-7" font-family="Helvetica,sans-Serif" font-size="10.00">/doxygen/src/index.cpp</text>
</a>
</g>
</g>
<!-- Node1&#45;&gt;Node17 -->
<g id="edge16" class="edge">
<title>Node1&#45;&gt;Node17</title>
<path fill="none" stroke="#63b8ff" d="M2664.21,-59.75C2677.14,-50.13 2692.29,-38.86 2703.97,-30.16"/>
<polygon fill="#63b8ff" stroke="#63b8ff" points="2662.02,-57.02 2656.09,-65.8 2666.2,-62.63 2662.02,-57.02"/>
</g>
<!-- Node18 -->
<g id="node18" class="node">
<title>Node18</title>
<g id="a_node18"><a xlink:href="../../d4/d42/latexgen_8cpp.html" target="_top" xlink:title=" ">
<polygon fill="white" stroke="#666666" points="2972,-30 2818,-30 2818,0 2972,0 2972,-30"/>
<text text-anchor="start" x="2826" y="-18" font-family="Helvetica,sans-Serif" font-size="10.00">/home/runner/work/doxygen</text>
<text text-anchor="middle" x="2895" y="-7" font-family="Helvetica,sans-Serif" font-size="10.00">/doxygen/src/latexgen.cpp</text>
</a>
</g>
</g>
<!-- Node1&#45;&gt;Node18 -->
<g id="edge17" class="edge">
<title>Node1&#45;&gt;Node18</title>
<path fill="none" stroke="#63b8ff" d="M2703.45,-63.52C2745.29,-53.14 2798.72,-39.88 2838.51,-30.01"/>
<polygon fill="#63b8ff" stroke="#63b8ff" points="2702.48,-60.15 2693.62,-65.95 2704.17,-66.94 2702.48,-60.15"/>
</g>
<!-- Node19 -->
<g id="node19" class="node">
<title>Node19</title>
<g id="a_node19"><a xlink:href="../../d0/d72/memberdef_8cpp.html" target="_top" xlink:title=" ">
<polygon fill="white" stroke="#666666" points="3148,-30 2990,-30 2990,0 3148,0 3148,-30"/>
<text text-anchor="start" x="2998" y="-18" font-family="Helvetica,sans-Serif" font-size="10.00">/home/runner/work/doxygen</text>
<text text-anchor="middle" x="3069" y="-7" font-family="Helvetica,sans-Serif" font-size="10.00">/doxygen/src/memberdef.cpp</text>
</a>
</g>
</g>
<!-- Node1&#45;&gt;Node19 -->
<g id="edge18" class="edge">
<title>Node1&#45;&gt;Node19</title>
<path fill="none" stroke="#63b8ff" d="M2728.04,-67.11C2797.41,-57.2 2895.27,-43.05 2981,-30 2983.91,-29.56 2986.87,-29.1 2989.85,-28.64"/>
<polygon fill="#63b8ff" stroke="#63b8ff" points="2727.42,-63.66 2718.02,-68.54 2728.41,-70.59 2727.42,-63.66"/>
</g>
<!-- Node20 -->
<g id="node20" class="node">
<title>Node20</title>
<g id="a_node20"><a xlink:href="../../d6/d18/membergroup_8cpp.html" target="_top" xlink:title=" ">
<polygon fill="white" stroke="#666666" points="3337.5,-30 3166.5,-30 3166.5,0 3337.5,0 3337.5,-30"/>
<text text-anchor="start" x="3174.5" y="-18" font-family="Helvetica,sans-Serif" font-size="10.00">/home/runner/work/doxygen</text>
<text text-anchor="middle" x="3252" y="-7" font-family="Helvetica,sans-Serif" font-size="10.00">/doxygen/src/membergroup.cpp</text>
</a>
</g>
</g>
<!-- Node1&#45;&gt;Node20 -->
<g id="edge19" class="edge">
<title>Node1&#45;&gt;Node20</title>
<path fill="none" stroke="#63b8ff" d="M2728.35,-72.62C2832.31,-63.9 3007.14,-48.24 3157,-30 3160.06,-29.63 3163.18,-29.24 3166.32,-28.83"/>
<polygon fill="#63b8ff" stroke="#63b8ff" points="2727.87,-69.15 2718.2,-73.47 2728.46,-76.12 2727.87,-69.15"/>
</g>
<!-- Node21 -->
<g id="node21" class="node">
<title>Node21</title>
<g id="a_node21"><a xlink:href="../../d0/d14/memberlist_8cpp.html" target="_top" xlink:title=" ">
<polygon fill="white" stroke="#666666" points="3514,-30 3356,-30 3356,0 3514,0 3514,-30"/>
<text text-anchor="start" x="3364" y="-18" font-family="Helvetica,sans-Serif" font-size="10.00">/home/runner/work/doxygen</text>
<text text-anchor="middle" x="3435" y="-7" font-family="Helvetica,sans-Serif" font-size="10.00">/doxygen/src/memberlist.cpp</text>
</a>
</g>
</g>
<!-- Node1&#45;&gt;Node21 -->
<g id="edge20" class="edge">
<title>Node1&#45;&gt;Node21</title>
<path fill="none" stroke="#63b8ff" d="M2728.46,-76.12C2863.9,-69.8 3125.65,-55.35 3347,-30 3349.92,-29.67 3352.89,-29.3 3355.89,-28.92"/>
<polygon fill="#63b8ff" stroke="#63b8ff" points="2727.96,-72.64 2718.14,-76.6 2728.29,-79.63 2727.96,-72.64"/>
</g>
<!-- Node22 -->
<g id="node22" class="node">
<title>Node22</title>
<g id="a_node22"><a xlink:href="../../d7/d1c/namespacedef_8cpp.html" target="_top" xlink:title=" ">
<polygon fill="white" stroke="#666666" points="3705.5,-30 3532.5,-30 3532.5,0 3705.5,0 3705.5,-30"/>
<text text-anchor="start" x="3540.5" y="-18" font-family="Helvetica,sans-Serif" font-size="10.00">/home/runner/work/doxygen</text>
<text text-anchor="middle" x="3619" y="-7" font-family="Helvetica,sans-Serif" font-size="10.00">/doxygen/src/namespacedef.cpp</text>
</a>
</g>
</g>
<!-- Node1&#45;&gt;Node22 -->
<g id="edge21" class="edge">
<title>Node1&#45;&gt;Node22</title>
<path fill="none" stroke="#63b8ff" d="M2728.45,-77.51C2889.41,-72.52 3233.7,-59.2 3523,-30 3526.1,-29.69 3529.25,-29.35 3532.44,-28.98"/>
<polygon fill="#63b8ff" stroke="#63b8ff" points="2728.01,-74.02 2718.12,-77.82 2728.22,-81.01 2728.01,-74.02"/>
</g>
<!-- Node23 -->
<g id="node23" class="node">
<title>Node23</title>
<g id="a_node23"><a xlink:href="../../d9/db4/pagedef_8cpp.html" target="_top" xlink:title=" ">
<polygon fill="white" stroke="#666666" points="3878,-30 3724,-30 3724,0 3878,0 3878,-30"/>
<text text-anchor="start" x="3732" y="-18" font-family="Helvetica,sans-Serif" font-size="10.00">/home/runner/work/doxygen</text>
<text text-anchor="middle" x="3801" y="-7" font-family="Helvetica,sans-Serif" font-size="10.00">/doxygen/src/pagedef.cpp</text>
</a>
</g>
</g>
<!-- Node1&#45;&gt;Node23 -->
<g id="edge22" class="edge">
<title>Node1&#45;&gt;Node23</title>
<path fill="none" stroke="#63b8ff" d="M2728.05,-79.31C2914,-77.11 3350.65,-67.98 3715,-30 3717.86,-29.7 3720.77,-29.37 3723.7,-29.01"/>
<polygon fill="#63b8ff" stroke="#63b8ff" points="2728,-75.81 2718.04,-79.42 2728.08,-82.81 2728,-75.81"/>
</g>
<!-- Node24 -->
<g id="node24" class="node">
<title>Node24</title>
<g id="a_node24"><a xlink:href="../../de/dd0/perlmodgen_8cpp.html" target="_top" xlink:title=" ">
<polygon fill="white" stroke="#666666" points="4057.5,-30 3896.5,-30 3896.5,0 4057.5,0 4057.5,-30"/>
<text text-anchor="start" x="3904.5" y="-18" font-family="Helvetica,sans-Serif" font-size="10.00">/home/runner/work/doxygen</text>
<text text-anchor="middle" x="3977" y="-7" font-family="Helvetica,sans-Serif" font-size="10.00">/doxygen/src/perlmodgen.cpp</text>
</a>
</g>
</g>
<!-- Node1&#45;&gt;Node24 -->
<g id="edge23" class="edge">
<title>Node1&#45;&gt;Node24</title>
<path fill="none" stroke="#63b8ff" d="M2728.22,-79.92C2934.92,-78.95 3454.68,-72.13 3887,-30 3889.99,-29.71 3893.03,-29.38 3896.1,-29.03"/>
<polygon fill="#63b8ff" stroke="#63b8ff" points="2728,-76.42 2718.02,-79.96 2728.03,-83.42 2728,-76.42"/>
</g>
<!-- Node25 -->
<g id="node25" class="node">
<title>Node25</title>
<g id="a_node25"><a xlink:href="../../d3/ded/pycode_8l.html" target="_top" xlink:title=" ">
<polygon fill="white" stroke="#666666" points="4230,-30 4076,-30 4076,0 4230,0 4230,-30"/>
<text text-anchor="start" x="4084" y="-18" font-family="Helvetica,sans-Serif" font-size="10.00">/home/runner/work/doxygen</text>
<text text-anchor="middle" x="4153" y="-7" font-family="Helvetica,sans-Serif" font-size="10.00">/doxygen/src/pycode.l</text>
</a>
</g>
</g>
<!-- Node1&#45;&gt;Node25 -->
<g id="edge24" class="edge">
<title>Node1&#45;&gt;Node25</title>
<path fill="none" stroke="#63b8ff" d="M2728.47,-80.8C2955.58,-81.92 3563.31,-79.6 4067,-30 4069.86,-29.72 4072.77,-29.4 4075.71,-29.06"/>
<polygon fill="#63b8ff" stroke="#63b8ff" points="2728.28,-77.3 2718.26,-80.75 2728.25,-84.3 2728.28,-77.3"/>
</g>
<!-- Node26 -->
<g id="node26" class="node">
<title>Node26</title>
<g id="a_node26"><a xlink:href="../../d0/d9c/rtfgen_8cpp.html" target="_top" xlink:title=" ">
<polygon fill="white" stroke="#666666" points="4402,-30 4248,-30 4248,0 4402,0 4402,-30"/>
<text text-anchor="start" x="4256" y="-18" font-family="Helvetica,sans-Serif" font-size="10.00">/home/runner/work/doxygen</text>
<text text-anchor="middle" x="4325" y="-7" font-family="Helvetica,sans-Serif" font-size="10.00">/doxygen/src/rtfgen.cpp</text>
</a>
</g>
</g>
<!-- Node1&#45;&gt;Node26 -->
<g id="edge25" class="edge">
<title>Node1&#45;&gt;Node26</title>
<path fill="none" stroke="#63b8ff" d="M2728.43,-78.71C3022.61,-74.33 3942.69,-58.62 4239,-30 4241.86,-29.72 4244.77,-29.41 4247.71,-29.07"/>
<polygon fill="#63b8ff" stroke="#63b8ff" points="2728.18,-75.22 2718.24,-78.86 2728.29,-82.22 2728.18,-75.22"/>
</g>
<!-- Node27 -->
<g id="node27" class="node">
<title>Node27</title>
<g id="a_node27"><a xlink:href="../../d9/d2f/searchindex__js_8cpp.html" target="_top" xlink:title=" ">
<polygon fill="white" stroke="#666666" points="4595.5,-30 4420.5,-30 4420.5,0 4595.5,0 4595.5,-30"/>
<text text-anchor="start" x="4428.5" y="-18" font-family="Helvetica,sans-Serif" font-size="10.00">/home/runner/work/doxygen</text>
<text text-anchor="middle" x="4508" y="-7" font-family="Helvetica,sans-Serif" font-size="10.00">/doxygen/src/searchindex_js.cpp</text>
</a>
</g>
</g>
<!-- Node1&#45;&gt;Node27 -->
<g id="edge26" class="edge">
<title>Node1&#45;&gt;Node27</title>
<path fill="none" stroke="#63b8ff" d="M2728.64,-78.81C3043.43,-74.52 4079.3,-58.52 4411,-30 4414.05,-29.74 4417.15,-29.44 4420.28,-29.12"/>
<polygon fill="#63b8ff" stroke="#63b8ff" points="2728.15,-75.32 2718.2,-78.96 2728.24,-82.32 2728.15,-75.32"/>
</g>
<!-- Node28 -->
<g id="node28" class="node">
<title>Node28</title>
<g id="a_node28"><a xlink:href="../../d2/d99/symbolresolver_8cpp.html" target="_top" xlink:title=" ">
<polygon fill="white" stroke="#666666" points="4790.5,-30 4613.5,-30 4613.5,0 4790.5,0 4790.5,-30"/>
<text text-anchor="start" x="4621.5" y="-18" font-family="Helvetica,sans-Serif" font-size="10.00">/home/runner/work/doxygen</text>
<text text-anchor="middle" x="4702" y="-7" font-family="Helvetica,sans-Serif" font-size="10.00">/doxygen/src/symbolresolver.cpp</text>
</a>
</g>
</g>
<!-- Node1&#45;&gt;Node28 -->
<g id="edge27" class="edge">
<title>Node1&#45;&gt;Node28</title>
<path fill="none" stroke="#63b8ff" d="M2728.28,-79.11C3064.46,-75.62 4233.28,-61.44 4605,-30 4607.71,-29.77 4610.47,-29.52 4613.24,-29.24"/>
<polygon fill="#63b8ff" stroke="#63b8ff" points="2728.07,-75.61 2718.1,-79.22 2728.14,-82.61 2728.07,-75.61"/>
</g>
<!-- Node29 -->
<g id="node29" class="node">
<title>Node29</title>
<g id="a_node29"><a xlink:href="../../df/d2d/util_8cpp.html" target="_top" xlink:title=" ">
<polygon fill="white" stroke="#666666" points="4963,-30 4809,-30 4809,0 4963,0 4963,-30"/>
<text text-anchor="start" x="4817" y="-18" font-family="Helvetica,sans-Serif" font-size="10.00">/home/runner/work/doxygen</text>
<text text-anchor="middle" x="4886" y="-7" font-family="Helvetica,sans-Serif" font-size="10.00">/doxygen/src/util.cpp</text>
</a>
</g>
</g>
<!-- Node1&#45;&gt;Node29 -->
<g id="edge28" class="edge">
<title>Node1&#45;&gt;Node29</title>
<path fill="none" stroke="#63b8ff" d="M2728.23,-79.57C3085.27,-77.64 4388.32,-68.08 4800,-30 4802.86,-29.74 4805.77,-29.43 4808.71,-29.1"/>
<polygon fill="#63b8ff" stroke="#63b8ff" points="2728.18,-76.07 2718.2,-79.63 2728.22,-83.07 2728.18,-76.07"/>
</g>
<!-- Node30 -->
<g id="node30" class="node">
<title>Node30</title>
<g id="a_node30"><a xlink:href="../../de/dea/vhdldocgen_8cpp.html" target="_top" xlink:title=" ">
<polygon fill="white" stroke="#666666" points="5139,-30 4981,-30 4981,0 5139,0 5139,-30"/>
<text text-anchor="start" x="4989" y="-18" font-family="Helvetica,sans-Serif" font-size="10.00">/home/runner/work/doxygen</text>
<text text-anchor="middle" x="5060" y="-7" font-family="Helvetica,sans-Serif" font-size="10.00">/doxygen/src/vhdldocgen.cpp</text>
</a>
</g>
</g>
<!-- Node1&#45;&gt;Node30 -->
<g id="edge29" class="edge">
<title>Node1&#45;&gt;Node30</title>
<path fill="none" stroke="#63b8ff" d="M2728.48,-79.71C3103.54,-78.26 4524.76,-70.18 4972,-30 4974.93,-29.74 4977.91,-29.44 4980.91,-29.1"/>
<polygon fill="#63b8ff" stroke="#63b8ff" points="2728.21,-76.21 2718.22,-79.75 2728.24,-83.21 2728.21,-76.21"/>
</g>
<!-- Node31 -->
<g id="node31" class="node">
<title>Node31</title>
<g id="a_node31"><a xlink:href="../../d0/dc3/xmlgen_8cpp.html" target="_top" xlink:title=" ">
<polygon fill="white" stroke="#666666" points="5311,-30 5157,-30 5157,0 5311,0 5311,-30"/>
<text text-anchor="start" x="5165" y="-18" font-family="Helvetica,sans-Serif" font-size="10.00">/home/runner/work/doxygen</text>
<text text-anchor="middle" x="5234" y="-7" font-family="Helvetica,sans-Serif" font-size="10.00">/doxygen/src/xmlgen.cpp</text>
</a>
</g>
</g>
<!-- Node1&#45;&gt;Node31 -->
<g id="edge30" class="edge">
<title>Node1&#45;&gt;Node31</title>
<path fill="none" stroke="#63b8ff" d="M2728.47,-79.91C3120.94,-79.28 4664.32,-73.96 5148,-30 5150.86,-29.74 5153.77,-29.44 5156.71,-29.11"/>
<polygon fill="#63b8ff" stroke="#63b8ff" points="2728.3,-76.41 2718.3,-79.93 2728.31,-83.41 2728.3,-76.41"/>
</g>
</g>
</svg>
