<?xml version="1.0" encoding="UTF-8" standalone="no"?>
<!DOCTYPE svg PUBLIC "-//W3C//DTD SVG 1.1//EN"
 "http://www.w3.org/Graphics/SVG/1.1/DTD/svg11.dtd">
<!-- Generated by graphviz version 2.43.0 (0)
 -->
<!-- Title: /home/runner/work/doxygen/doxygen/src/docbookgen.h Pages: 1 -->
<svg width="1096pt" height="368pt"
 viewBox="0.00 0.00 1096.10 368.00" xmlns="http://www.w3.org/2000/svg" xmlns:xlink="http://www.w3.org/1999/xlink">
<g id="graph0" class="graph" transform="scale(1 1) rotate(0) translate(4 364)">
<title>/home/runner/work/doxygen/doxygen/src/docbookgen.h</title>
<!-- Node1 -->
<g id="node1" class="node">
<title>Node1</title>
<g id="a_node1"><a xlink:title=" ">
<polygon fill="#999999" stroke="#666666" points="650,-360 496,-360 496,-330 650,-330 650,-360"/>
<text text-anchor="start" x="504" y="-348" font-family="Helvetica,sans-Serif" font-size="10.00">/home/runner/work/doxygen</text>
<text text-anchor="middle" x="573" y="-337" font-family="Helvetica,sans-Serif" font-size="10.00">/doxygen/src/docbookgen.h</text>
</a>
</g>
</g>
<!-- Node2 -->
<g id="node2" class="node">
<title>Node2</title>
<g id="a_node2"><a xlink:title=" ">
<polygon fill="#e0e0e0" stroke="#999999" points="448,-184 388,-184 388,-165 448,-165 448,-184"/>
<text text-anchor="middle" x="418" y="-172" font-family="Helvetica,sans-Serif" font-size="10.00">iostream</text>
</a>
</g>
</g>
<!-- Node1&#45;&gt;Node2 -->
<g id="edge1" class="edge">
<title>Node1&#45;&gt;Node2</title>
<path fill="none" stroke="#63b8ff" d="M545.9,-329.95C515.08,-312.62 465.38,-280.3 437,-239 427.73,-225.51 422.9,-207.42 420.43,-194"/>
<polygon fill="#63b8ff" stroke="#63b8ff" points="423.88,-193.36 418.87,-184.02 416.96,-194.44 423.88,-193.36"/>
</g>
<!-- Node3 -->
<g id="node3" class="node">
<title>Node3</title>
<g id="a_node3"><a xlink:href="../../db/d16/config_8h.html" target="_top" xlink:title=" ">
<polygon fill="white" stroke="#666666" points="865.5,-294 810.5,-294 810.5,-275 865.5,-275 865.5,-294"/>
<text text-anchor="middle" x="838" y="-282" font-family="Helvetica,sans-Serif" font-size="10.00">config.h</text>
</a>
</g>
</g>
<!-- Node1&#45;&gt;Node3 -->
<g id="edge2" class="edge">
<title>Node1&#45;&gt;Node3</title>
<path fill="none" stroke="#63b8ff" d="M636.47,-329.99C687.54,-318.71 757.58,-303.25 800.22,-293.84"/>
<polygon fill="#63b8ff" stroke="#63b8ff" points="801.17,-297.22 810.18,-291.64 799.66,-290.38 801.17,-297.22"/>
</g>
<!-- Node5 -->
<g id="node5" class="node">
<title>Node5</title>
<g id="a_node5"><a xlink:href="../../df/d06/outputgen_8h.html" target="_top" xlink:title=" ">
<polygon fill="white" stroke="#666666" points="610.5,-294 535.5,-294 535.5,-275 610.5,-275 610.5,-294"/>
<text text-anchor="middle" x="573" y="-282" font-family="Helvetica,sans-Serif" font-size="10.00">outputgen.h</text>
</a>
</g>
</g>
<!-- Node1&#45;&gt;Node5 -->
<g id="edge4" class="edge">
<title>Node1&#45;&gt;Node5</title>
<path fill="none" stroke="#63b8ff" d="M573,-329.84C573,-322.21 573,-312.7 573,-304.45"/>
<polygon fill="#63b8ff" stroke="#63b8ff" points="576.5,-304.27 573,-294.27 569.5,-304.27 576.5,-304.27"/>
</g>
<!-- Node4 -->
<g id="node4" class="node">
<title>Node4</title>
<g id="a_node4"><a xlink:title=" ">
<polygon fill="#e0e0e0" stroke="#999999" points="1064.5,-239 977.5,-239 977.5,-220 1064.5,-220 1064.5,-239"/>
<text text-anchor="middle" x="1021" y="-227" font-family="Helvetica,sans-Serif" font-size="10.00">configvalues.h</text>
</a>
</g>
</g>
<!-- Node3&#45;&gt;Node4 -->
<g id="edge3" class="edge">
<title>Node3&#45;&gt;Node4</title>
<path fill="none" stroke="#63b8ff" d="M865.79,-275.45C896.64,-266.52 946.68,-252.03 981.57,-241.92"/>
<polygon fill="#63b8ff" stroke="#63b8ff" points="982.79,-245.21 991.42,-239.07 980.85,-238.49 982.79,-245.21"/>
</g>
<!-- Node5&#45;&gt;Node2 -->
<g id="edge7" class="edge">
<title>Node5&#45;&gt;Node2</title>
<path fill="none" stroke="#63b8ff" d="M563.77,-274.65C550.08,-261.77 523.26,-237.47 498,-220 481.11,-208.32 460.9,-197.1 445.01,-188.84"/>
<polygon fill="#63b8ff" stroke="#63b8ff" points="446.25,-185.54 435.75,-184.11 443.06,-191.78 446.25,-185.54"/>
</g>
<!-- Node6 -->
<g id="node6" class="node">
<title>Node6</title>
<g id="a_node6"><a xlink:title=" ">
<polygon fill="#e0e0e0" stroke="#999999" points="846,-129 788,-129 788,-110 846,-110 846,-129"/>
<text text-anchor="middle" x="817" y="-117" font-family="Helvetica,sans-Serif" font-size="10.00">memory</text>
</a>
</g>
</g>
<!-- Node5&#45;&gt;Node6 -->
<g id="edge5" class="edge">
<title>Node5&#45;&gt;Node6</title>
<path fill="none" stroke="#63b8ff" d="M610.56,-282.51C670.36,-278.59 784.88,-260.89 828,-184 835.77,-170.14 831.54,-152.11 826.22,-138.81"/>
<polygon fill="#63b8ff" stroke="#63b8ff" points="829.24,-137 821.94,-129.32 822.86,-139.88 829.24,-137"/>
</g>
<!-- Node7 -->
<g id="node7" class="node">
<title>Node7</title>
<g id="a_node7"><a xlink:title=" ">
<polygon fill="#e0e0e0" stroke="#999999" points="489.5,-239 446.5,-239 446.5,-220 489.5,-220 489.5,-239"/>
<text text-anchor="middle" x="468" y="-227" font-family="Helvetica,sans-Serif" font-size="10.00">stack</text>
</a>
</g>
</g>
<!-- Node5&#45;&gt;Node7 -->
<g id="edge6" class="edge">
<title>Node5&#45;&gt;Node7</title>
<path fill="none" stroke="#63b8ff" d="M556.13,-274.98C539.39,-266.54 513.5,-253.47 494.11,-243.68"/>
<polygon fill="#63b8ff" stroke="#63b8ff" points="495.68,-240.55 485.18,-239.17 492.53,-246.8 495.68,-240.55"/>
</g>
<!-- Node8 -->
<g id="node8" class="node">
<title>Node8</title>
<g id="a_node8"><a xlink:title=" ">
<polygon fill="#e0e0e0" stroke="#999999" points="369.5,-184 314.5,-184 314.5,-165 369.5,-165 369.5,-184"/>
<text text-anchor="middle" x="342" y="-172" font-family="Helvetica,sans-Serif" font-size="10.00">fstream</text>
</a>
</g>
</g>
<!-- Node5&#45;&gt;Node8 -->
<g id="edge8" class="edge">
<title>Node5&#45;&gt;Node8</title>
<path fill="none" stroke="#63b8ff" d="M538.18,-274.93C510.08,-267.36 469.95,-255.03 437,-239 408.94,-225.35 379.51,-204.51 360.97,-190.46"/>
<polygon fill="#63b8ff" stroke="#63b8ff" points="362.86,-187.5 352.81,-184.17 358.59,-193.05 362.86,-187.5"/>
</g>
<!-- Node9 -->
<g id="node9" class="node">
<title>Node9</title>
<g id="a_node9"><a xlink:href="../../d9/d49/types_8h.html" target="_top" xlink:title="This file contains a number of basic enums and types.">
<polygon fill="white" stroke="#666666" points="599.5,-239 546.5,-239 546.5,-220 599.5,-220 599.5,-239"/>
<text text-anchor="middle" x="573" y="-227" font-family="Helvetica,sans-Serif" font-size="10.00">types.h</text>
</a>
</g>
</g>
<!-- Node5&#45;&gt;Node9 -->
<g id="edge9" class="edge">
<title>Node5&#45;&gt;Node9</title>
<path fill="none" stroke="#63b8ff" d="M573,-274.75C573,-267.8 573,-257.85 573,-249.13"/>
<polygon fill="#63b8ff" stroke="#63b8ff" points="576.5,-249.09 573,-239.09 569.5,-249.09 576.5,-249.09"/>
</g>
<!-- Node20 -->
<g id="node20" class="node">
<title>Node20</title>
<g id="a_node20"><a xlink:href="../../d1/db5/index_8h.html" target="_top" xlink:title=" ">
<polygon fill="white" stroke="#666666" points="701.5,-184 648.5,-184 648.5,-165 701.5,-165 701.5,-184"/>
<text text-anchor="middle" x="675" y="-172" font-family="Helvetica,sans-Serif" font-size="10.00">index.h</text>
</a>
</g>
</g>
<!-- Node5&#45;&gt;Node20 -->
<g id="edge22" class="edge">
<title>Node5&#45;&gt;Node20</title>
<path fill="none" stroke="#63b8ff" d="M581.35,-274.66C598.54,-256.46 638.12,-214.55 659.92,-191.47"/>
<polygon fill="#63b8ff" stroke="#63b8ff" points="662.5,-193.83 666.82,-184.16 657.41,-189.03 662.5,-193.83"/>
</g>
<!-- Node23 -->
<g id="node23" class="node">
<title>Node23</title>
<g id="a_node23"><a xlink:href="../../d1/d2a/section_8h.html" target="_top" xlink:title=" ">
<polygon fill="white" stroke="#666666" points="959.5,-239 898.5,-239 898.5,-220 959.5,-220 959.5,-239"/>
<text text-anchor="middle" x="929" y="-227" font-family="Helvetica,sans-Serif" font-size="10.00">section.h</text>
</a>
</g>
</g>
<!-- Node5&#45;&gt;Node23 -->
<g id="edge27" class="edge">
<title>Node5&#45;&gt;Node23</title>
<path fill="none" stroke="#63b8ff" d="M610.86,-278.36C668.87,-270.4 783.2,-254.41 880,-239 882.7,-238.57 885.49,-238.12 888.3,-237.65"/>
<polygon fill="#63b8ff" stroke="#63b8ff" points="889.16,-241.05 898.44,-235.94 888,-234.15 889.16,-241.05"/>
</g>
<!-- Node26 -->
<g id="node26" class="node">
<title>Node26</title>
<g id="a_node26"><a xlink:href="../../d4/d7d/textstream_8h.html" target="_top" xlink:title=" ">
<polygon fill="white" stroke="#666666" points="288,-239 208,-239 208,-220 288,-220 288,-239"/>
<text text-anchor="middle" x="248" y="-227" font-family="Helvetica,sans-Serif" font-size="10.00">textstream.h</text>
</a>
</g>
</g>
<!-- Node5&#45;&gt;Node26 -->
<g id="edge39" class="edge">
<title>Node5&#45;&gt;Node26</title>
<path fill="none" stroke="#63b8ff" d="M535.4,-277.37C476.8,-267.81 363.62,-249.35 298.13,-238.68"/>
<polygon fill="#63b8ff" stroke="#63b8ff" points="298.48,-235.19 288.05,-237.03 297.35,-242.09 298.48,-235.19"/>
</g>
<!-- Node29 -->
<g id="node29" class="node">
<title>Node29</title>
<g id="a_node29"><a xlink:href="../../de/d9c/docparser_8h.html" target="_top" xlink:title=" ">
<polygon fill="white" stroke="#666666" points="729.5,-239 656.5,-239 656.5,-220 729.5,-220 729.5,-239"/>
<text text-anchor="middle" x="693" y="-227" font-family="Helvetica,sans-Serif" font-size="10.00">docparser.h</text>
</a>
</g>
</g>
<!-- Node5&#45;&gt;Node29 -->
<g id="edge48" class="edge">
<title>Node5&#45;&gt;Node29</title>
<path fill="none" stroke="#63b8ff" d="M592.28,-274.98C611.67,-266.42 641.81,-253.11 664.07,-243.28"/>
<polygon fill="#63b8ff" stroke="#63b8ff" points="665.64,-246.41 673.37,-239.17 662.81,-240.01 665.64,-246.41"/>
</g>
<!-- Node10 -->
<g id="node10" class="node">
<title>Node10</title>
<g id="a_node10"><a xlink:href="../../d7/d5c/qcstring_8h.html" target="_top" xlink:title=" ">
<polygon fill="white" stroke="#666666" points="576.5,-129 511.5,-129 511.5,-110 576.5,-110 576.5,-129"/>
<text text-anchor="middle" x="544" y="-117" font-family="Helvetica,sans-Serif" font-size="10.00">qcstring.h</text>
</a>
</g>
</g>
<!-- Node9&#45;&gt;Node10 -->
<g id="edge10" class="edge">
<title>Node9&#45;&gt;Node10</title>
<path fill="none" stroke="#63b8ff" d="M546.43,-219.94C529.87,-213.06 509.88,-201.6 500,-184 490.25,-166.63 506.62,-148.05 522.08,-135.5"/>
<polygon fill="#63b8ff" stroke="#63b8ff" points="524.55,-138.02 530.41,-129.2 520.32,-132.44 524.55,-138.02"/>
</g>
<!-- Node11 -->
<g id="node11" class="node">
<title>Node11</title>
<g id="a_node11"><a xlink:title=" ">
<polygon fill="#e0e0e0" stroke="#999999" points="576,-19 532,-19 532,0 576,0 576,-19"/>
<text text-anchor="middle" x="554" y="-7" font-family="Helvetica,sans-Serif" font-size="10.00">string</text>
</a>
</g>
</g>
<!-- Node10&#45;&gt;Node11 -->
<g id="edge11" class="edge">
<title>Node10&#45;&gt;Node11</title>
<path fill="none" stroke="#63b8ff" d="M544.82,-109.66C546.44,-92.17 550.08,-52.8 552.26,-29.27"/>
<polygon fill="#63b8ff" stroke="#63b8ff" points="555.76,-29.44 553.2,-19.16 548.79,-28.79 555.76,-29.44"/>
</g>
<!-- Node12 -->
<g id="node12" class="node">
<title>Node12</title>
<g id="a_node12"><a xlink:title=" ">
<polygon fill="#e0e0e0" stroke="#999999" points="901,-74 837,-74 837,-55 901,-55 901,-74"/>
<text text-anchor="middle" x="869" y="-62" font-family="Helvetica,sans-Serif" font-size="10.00">algorithm</text>
</a>
</g>
</g>
<!-- Node10&#45;&gt;Node12 -->
<g id="edge12" class="edge">
<title>Node10&#45;&gt;Node12</title>
<path fill="none" stroke="#63b8ff" d="M576.53,-111.77C579.73,-111.15 582.92,-110.55 586,-110 671.08,-94.71 771.07,-79.67 826.52,-71.59"/>
<polygon fill="#63b8ff" stroke="#63b8ff" points="827.27,-75.02 836.67,-70.11 826.27,-68.09 827.27,-75.02"/>
</g>
<!-- Node13 -->
<g id="node13" class="node">
<title>Node13</title>
<g id="a_node13"><a xlink:title=" ">
<polygon fill="#e0e0e0" stroke="#999999" points="777.5,-74 728.5,-74 728.5,-55 777.5,-55 777.5,-74"/>
<text text-anchor="middle" x="753" y="-62" font-family="Helvetica,sans-Serif" font-size="10.00">cctype</text>
</a>
</g>
</g>
<!-- Node10&#45;&gt;Node13 -->
<g id="edge13" class="edge">
<title>Node10&#45;&gt;Node13</title>
<path fill="none" stroke="#63b8ff" d="M576.66,-110.22C615.23,-100.44 679.11,-84.24 718.48,-74.25"/>
<polygon fill="#63b8ff" stroke="#63b8ff" points="719.58,-77.59 728.41,-71.74 717.86,-70.8 719.58,-77.59"/>
</g>
<!-- Node14 -->
<g id="node14" class="node">
<title>Node14</title>
<g id="a_node14"><a xlink:title=" ">
<polygon fill="#e0e0e0" stroke="#999999" points="632,-74 582,-74 582,-55 632,-55 632,-74"/>
<text text-anchor="middle" x="607" y="-62" font-family="Helvetica,sans-Serif" font-size="10.00">cstring</text>
</a>
</g>
</g>
<!-- Node10&#45;&gt;Node14 -->
<g id="edge14" class="edge">
<title>Node10&#45;&gt;Node14</title>
<path fill="none" stroke="#63b8ff" d="M554.12,-109.98C563.44,-102.15 577.47,-90.34 588.74,-80.86"/>
<polygon fill="#63b8ff" stroke="#63b8ff" points="591.29,-83.29 596.69,-74.17 586.79,-77.93 591.29,-83.29"/>
</g>
<!-- Node15 -->
<g id="node15" class="node">
<title>Node15</title>
<g id="a_node15"><a xlink:title=" ">
<polygon fill="#e0e0e0" stroke="#999999" points="246,-74 200,-74 200,-55 246,-55 246,-74"/>
<text text-anchor="middle" x="223" y="-62" font-family="Helvetica,sans-Serif" font-size="10.00">cstdio</text>
</a>
</g>
</g>
<!-- Node10&#45;&gt;Node15 -->
<g id="edge15" class="edge">
<title>Node10&#45;&gt;Node15</title>
<path fill="none" stroke="#63b8ff" d="M511.45,-113.13C450.13,-103 318.09,-81.2 256.24,-70.99"/>
<polygon fill="#63b8ff" stroke="#63b8ff" points="256.67,-67.51 246.23,-69.34 255.53,-74.42 256.67,-67.51"/>
</g>
<!-- Node16 -->
<g id="node16" class="node">
<title>Node16</title>
<g id="a_node16"><a xlink:title=" ">
<polygon fill="#e0e0e0" stroke="#999999" points="699.5,-74 650.5,-74 650.5,-55 699.5,-55 699.5,-74"/>
<text text-anchor="middle" x="675" y="-62" font-family="Helvetica,sans-Serif" font-size="10.00">cstdlib</text>
</a>
</g>
</g>
<!-- Node10&#45;&gt;Node16 -->
<g id="edge16" class="edge">
<title>Node10&#45;&gt;Node16</title>
<path fill="none" stroke="#63b8ff" d="M565.05,-109.98C586.41,-101.34 619.7,-87.87 644.06,-78.02"/>
<polygon fill="#63b8ff" stroke="#63b8ff" points="645.61,-81.17 653.57,-74.17 642.99,-74.68 645.61,-81.17"/>
</g>
<!-- Node17 -->
<g id="node17" class="node">
<title>Node17</title>
<g id="a_node17"><a xlink:title=" ">
<polygon fill="#e0e0e0" stroke="#999999" points="402,-19 352,-19 352,0 402,0 402,-19"/>
<text text-anchor="middle" x="377" y="-7" font-family="Helvetica,sans-Serif" font-size="10.00">cstdint</text>
</a>
</g>
</g>
<!-- Node10&#45;&gt;Node17 -->
<g id="edge17" class="edge">
<title>Node10&#45;&gt;Node17</title>
<path fill="none" stroke="#63b8ff" d="M511.21,-117.35C477.82,-114.41 426.71,-104.76 396,-74 384.19,-62.18 379.67,-43.34 377.96,-29.25"/>
<polygon fill="#63b8ff" stroke="#63b8ff" points="381.44,-28.86 377.11,-19.19 374.47,-29.45 381.44,-28.86"/>
</g>
<!-- Node18 -->
<g id="node18" class="node">
<title>Node18</title>
<g id="a_node18"><a xlink:title=" ">
<polygon fill="#e0e0e0" stroke="#999999" points="525.5,-74 468.5,-74 468.5,-55 525.5,-55 525.5,-74"/>
<text text-anchor="middle" x="497" y="-62" font-family="Helvetica,sans-Serif" font-size="10.00">ostream</text>
</a>
</g>
</g>
<!-- Node10&#45;&gt;Node18 -->
<g id="edge18" class="edge">
<title>Node10&#45;&gt;Node18</title>
<path fill="none" stroke="#63b8ff" d="M536.24,-109.75C529.53,-102.18 519.66,-91.05 511.49,-81.84"/>
<polygon fill="#63b8ff" stroke="#63b8ff" points="513.87,-79.25 504.62,-74.09 508.63,-83.89 513.87,-79.25"/>
</g>
<!-- Node19 -->
<g id="node19" class="node">
<title>Node19</title>
<g id="a_node19"><a xlink:href="../../db/d7c/utf8_8h.html" target="_top" xlink:title="Various UTF8 related helper functions.">
<polygon fill="white" stroke="#666666" points="450.5,-74 405.5,-74 405.5,-55 450.5,-55 450.5,-74"/>
<text text-anchor="middle" x="428" y="-62" font-family="Helvetica,sans-Serif" font-size="10.00">utf8.h</text>
</a>
</g>
</g>
<!-- Node10&#45;&gt;Node19 -->
<g id="edge19" class="edge">
<title>Node10&#45;&gt;Node19</title>
<path fill="none" stroke="#63b8ff" d="M525.36,-109.98C506.7,-101.46 477.75,-88.23 456.26,-78.41"/>
<polygon fill="#63b8ff" stroke="#63b8ff" points="457.53,-75.14 446.98,-74.17 454.62,-81.51 457.53,-75.14"/>
</g>
<!-- Node19&#45;&gt;Node11 -->
<g id="edge21" class="edge">
<title>Node19&#45;&gt;Node11</title>
<path fill="none" stroke="#63b8ff" d="M448.24,-54.98C468.7,-46.38 500.53,-32.99 523.93,-23.15"/>
<polygon fill="#63b8ff" stroke="#63b8ff" points="525.53,-26.27 533.39,-19.17 522.81,-19.82 525.53,-26.27"/>
</g>
<!-- Node19&#45;&gt;Node17 -->
<g id="edge20" class="edge">
<title>Node19&#45;&gt;Node17</title>
<path fill="none" stroke="#63b8ff" d="M419.58,-54.75C412.23,-47.11 401.37,-35.82 392.46,-26.56"/>
<polygon fill="#63b8ff" stroke="#63b8ff" points="394.72,-23.87 385.26,-19.09 389.68,-28.72 394.72,-23.87"/>
</g>
<!-- Node20&#45;&gt;Node6 -->
<g id="edge23" class="edge">
<title>Node20&#45;&gt;Node6</title>
<path fill="none" stroke="#63b8ff" d="M697.81,-164.98C721.17,-156.27 757.7,-142.63 784.17,-132.75"/>
<polygon fill="#63b8ff" stroke="#63b8ff" points="785.63,-135.95 793.77,-129.17 783.18,-129.39 785.63,-135.95"/>
</g>
<!-- Node20&#45;&gt;Node10 -->
<g id="edge26" class="edge">
<title>Node20&#45;&gt;Node10</title>
<path fill="none" stroke="#63b8ff" d="M653.95,-164.98C632.59,-156.34 599.3,-142.87 574.94,-133.02"/>
<polygon fill="#63b8ff" stroke="#63b8ff" points="576.01,-129.68 565.43,-129.17 573.39,-136.17 576.01,-129.68"/>
</g>
<!-- Node21 -->
<g id="node21" class="node">
<title>Node21</title>
<g id="a_node21"><a xlink:title=" ">
<polygon fill="#e0e0e0" stroke="#999999" points="698.5,-129 651.5,-129 651.5,-110 698.5,-110 698.5,-129"/>
<text text-anchor="middle" x="675" y="-117" font-family="Helvetica,sans-Serif" font-size="10.00">vector</text>
</a>
</g>
</g>
<!-- Node20&#45;&gt;Node21 -->
<g id="edge24" class="edge">
<title>Node20&#45;&gt;Node21</title>
<path fill="none" stroke="#63b8ff" d="M675,-164.75C675,-157.8 675,-147.85 675,-139.13"/>
<polygon fill="#63b8ff" stroke="#63b8ff" points="678.5,-139.09 675,-129.09 671.5,-139.09 678.5,-139.09"/>
</g>
<!-- Node22 -->
<g id="node22" class="node">
<title>Node22</title>
<g id="a_node22"><a xlink:title=" ">
<polygon fill="#e0e0e0" stroke="#999999" points="633,-129 595,-129 595,-110 633,-110 633,-129"/>
<text text-anchor="middle" x="614" y="-117" font-family="Helvetica,sans-Serif" font-size="10.00">map</text>
</a>
</g>
</g>
<!-- Node20&#45;&gt;Node22 -->
<g id="edge25" class="edge">
<title>Node20&#45;&gt;Node22</title>
<path fill="none" stroke="#63b8ff" d="M665.2,-164.98C656.18,-157.15 642.59,-145.34 631.68,-135.86"/>
<polygon fill="#63b8ff" stroke="#63b8ff" points="633.82,-133.09 623.98,-129.17 629.23,-138.37 633.82,-133.09"/>
</g>
<!-- Node23&#45;&gt;Node10 -->
<g id="edge30" class="edge">
<title>Node23&#45;&gt;Node10</title>
<path fill="none" stroke="#63b8ff" d="M898.24,-228.12C844.03,-226.51 728.73,-218.88 639,-184 609.44,-172.51 579.76,-150.61 561.63,-135.78"/>
<polygon fill="#63b8ff" stroke="#63b8ff" points="563.62,-132.89 553.71,-129.15 559.13,-138.25 563.62,-132.89"/>
</g>
<!-- Node23&#45;&gt;Node11 -->
<g id="edge28" class="edge">
<title>Node23&#45;&gt;Node11</title>
<path fill="none" stroke="#63b8ff" d="M959.03,-219.96C1012.81,-203.11 1116.67,-162.63 1080,-110 1022.98,-28.17 691.84,-13.61 586.3,-11.04"/>
<polygon fill="#63b8ff" stroke="#63b8ff" points="586.32,-7.54 576.25,-10.82 586.17,-14.54 586.32,-7.54"/>
</g>
<!-- Node24 -->
<g id="node24" class="node">
<title>Node24</title>
<g id="a_node24"><a xlink:title=" ">
<polygon fill="#e0e0e0" stroke="#999999" points="1071.5,-129 978.5,-129 978.5,-110 1071.5,-110 1071.5,-129"/>
<text text-anchor="middle" x="1025" y="-117" font-family="Helvetica,sans-Serif" font-size="10.00">unordered_map</text>
</a>
</g>
</g>
<!-- Node23&#45;&gt;Node24 -->
<g id="edge29" class="edge">
<title>Node23&#45;&gt;Node24</title>
<path fill="none" stroke="#63b8ff" d="M940.23,-219.98C951.04,-211.5 967.55,-197.77 980,-184 993.12,-169.48 1005.8,-151.06 1014.34,-137.81"/>
<polygon fill="#63b8ff" stroke="#63b8ff" points="1017.39,-139.52 1019.77,-129.2 1011.47,-135.79 1017.39,-139.52"/>
</g>
<!-- Node25 -->
<g id="node25" class="node">
<title>Node25</title>
<g id="a_node25"><a xlink:href="../../da/de1/linkedmap_8h.html" target="_top" xlink:title=" ">
<polygon fill="white" stroke="#666666" points="971.5,-184 894.5,-184 894.5,-165 971.5,-165 971.5,-184"/>
<text text-anchor="middle" x="933" y="-172" font-family="Helvetica,sans-Serif" font-size="10.00">linkedmap.h</text>
</a>
</g>
</g>
<!-- Node23&#45;&gt;Node25 -->
<g id="edge31" class="edge">
<title>Node23&#45;&gt;Node25</title>
<path fill="none" stroke="#63b8ff" d="M929.66,-219.75C930.18,-212.8 930.94,-202.85 931.59,-194.13"/>
<polygon fill="#63b8ff" stroke="#63b8ff" points="935.09,-194.32 932.35,-184.09 928.11,-193.8 935.09,-194.32"/>
</g>
<!-- Node25&#45;&gt;Node6 -->
<g id="edge34" class="edge">
<title>Node25&#45;&gt;Node6</title>
<path fill="none" stroke="#63b8ff" d="M914.36,-164.98C895.7,-156.46 866.75,-143.23 845.26,-133.41"/>
<polygon fill="#63b8ff" stroke="#63b8ff" points="846.53,-130.14 835.98,-129.17 843.62,-136.51 846.53,-130.14"/>
</g>
<!-- Node25&#45;&gt;Node10 -->
<g id="edge38" class="edge">
<title>Node25&#45;&gt;Node10</title>
<path fill="none" stroke="#63b8ff" d="M894.36,-169.47C831.89,-162.74 704.67,-148.22 586.46,-128.96"/>
<polygon fill="#63b8ff" stroke="#63b8ff" points="586.95,-125.49 576.52,-127.32 585.82,-132.4 586.95,-125.49"/>
</g>
<!-- Node25&#45;&gt;Node11 -->
<g id="edge35" class="edge">
<title>Node25&#45;&gt;Node11</title>
<path fill="none" stroke="#63b8ff" d="M934.36,-164.76C937.25,-142.68 941.38,-84.34 910,-55 863.61,-11.63 665.26,-9.12 586.46,-9.89"/>
<polygon fill="#63b8ff" stroke="#63b8ff" points="586.12,-6.39 576.16,-10.02 586.2,-13.39 586.12,-6.39"/>
</g>
<!-- Node25&#45;&gt;Node12 -->
<g id="edge36" class="edge">
<title>Node25&#45;&gt;Node12</title>
<path fill="none" stroke="#63b8ff" d="M927.76,-164.66C917.21,-146.85 893.22,-106.37 879.37,-83.01"/>
<polygon fill="#63b8ff" stroke="#63b8ff" points="882.24,-80.98 874.13,-74.16 876.22,-84.55 882.24,-80.98"/>
</g>
<!-- Node25&#45;&gt;Node13 -->
<g id="edge37" class="edge">
<title>Node25&#45;&gt;Node13</title>
<path fill="none" stroke="#63b8ff" d="M924.02,-164.8C910.11,-151.66 882.14,-126.54 855,-110 833.59,-96.95 807.68,-85.7 787.33,-77.77"/>
<polygon fill="#63b8ff" stroke="#63b8ff" points="788.42,-74.44 777.83,-74.16 785.93,-80.98 788.42,-74.44"/>
</g>
<!-- Node25&#45;&gt;Node21 -->
<g id="edge33" class="edge">
<title>Node25&#45;&gt;Node21</title>
<path fill="none" stroke="#63b8ff" d="M894.45,-166.7C851.36,-158.93 779.3,-145.41 708.68,-129.28"/>
<polygon fill="#63b8ff" stroke="#63b8ff" points="709.25,-125.82 698.72,-126.99 707.68,-132.64 709.25,-125.82"/>
</g>
<!-- Node25&#45;&gt;Node24 -->
<g id="edge32" class="edge">
<title>Node25&#45;&gt;Node24</title>
<path fill="none" stroke="#63b8ff" d="M947.78,-164.98C962.18,-156.69 984.31,-143.94 1001.19,-134.22"/>
<polygon fill="#63b8ff" stroke="#63b8ff" points="1003.03,-137.19 1009.95,-129.17 999.54,-131.13 1003.03,-137.19"/>
</g>
<!-- Node26&#45;&gt;Node2 -->
<g id="edge41" class="edge">
<title>Node26&#45;&gt;Node2</title>
<path fill="none" stroke="#63b8ff" d="M275.31,-219.98C303.85,-211.09 348.83,-197.07 380.64,-187.15"/>
<polygon fill="#63b8ff" stroke="#63b8ff" points="381.97,-190.4 390.47,-184.08 379.88,-183.72 381.97,-190.4"/>
</g>
<!-- Node26&#45;&gt;Node8 -->
<g id="edge45" class="edge">
<title>Node26&#45;&gt;Node8</title>
<path fill="none" stroke="#63b8ff" d="M263.1,-219.98C277.82,-211.69 300.42,-198.94 317.67,-189.22"/>
<polygon fill="#63b8ff" stroke="#63b8ff" points="319.63,-192.13 326.62,-184.17 316.19,-186.03 319.63,-192.13"/>
</g>
<!-- Node26&#45;&gt;Node10 -->
<g id="edge47" class="edge">
<title>Node26&#45;&gt;Node10</title>
<path fill="none" stroke="#63b8ff" d="M253.07,-219.88C261.77,-205.9 280.97,-178.49 305,-165 367.01,-130.17 450.94,-121.92 501.07,-120.34"/>
<polygon fill="#63b8ff" stroke="#63b8ff" points="501.32,-123.83 511.23,-120.1 501.15,-116.83 501.32,-123.83"/>
</g>
<!-- Node26&#45;&gt;Node11 -->
<g id="edge40" class="edge">
<title>Node26&#45;&gt;Node11</title>
<path fill="none" stroke="#63b8ff" d="M250.94,-219.72C255.48,-206.92 265.05,-182.72 278,-165 320.29,-107.11 333.51,-90.15 396,-55 436.12,-32.43 488.51,-20.63 521.72,-14.99"/>
<polygon fill="#63b8ff" stroke="#63b8ff" points="522.47,-18.41 531.78,-13.37 521.35,-11.5 522.47,-18.41"/>
</g>
<!-- Node26&#45;&gt;Node15 -->
<g id="edge44" class="edge">
<title>Node26&#45;&gt;Node15</title>
<path fill="none" stroke="#63b8ff" d="M244.65,-219.78C241.39,-210.91 236.56,-196.7 234,-184 227.02,-149.35 224.46,-108.08 223.52,-84.52"/>
<polygon fill="#63b8ff" stroke="#63b8ff" points="227.01,-84.09 223.18,-74.22 220.02,-84.33 227.01,-84.09"/>
</g>
<!-- Node26&#45;&gt;Node17 -->
<g id="edge43" class="edge">
<title>Node26&#45;&gt;Node17</title>
<path fill="none" stroke="#63b8ff" d="M240.18,-219.95C216.41,-192.92 149.17,-108.02 191,-55 209.44,-31.63 293.33,-19.16 341.91,-13.79"/>
<polygon fill="#63b8ff" stroke="#63b8ff" points="342.42,-17.26 352,-12.72 341.69,-10.3 342.42,-17.26"/>
</g>
<!-- Node27 -->
<g id="node27" class="node">
<title>Node27</title>
<g id="a_node27"><a xlink:title=" ">
<polygon fill="#e0e0e0" stroke="#999999" points="56,-184 0,-184 0,-165 56,-165 56,-184"/>
<text text-anchor="middle" x="28" y="-172" font-family="Helvetica,sans-Serif" font-size="10.00">sstream</text>
</a>
</g>
</g>
<!-- Node26&#45;&gt;Node27 -->
<g id="edge42" class="edge">
<title>Node26&#45;&gt;Node27</title>
<path fill="none" stroke="#63b8ff" d="M212.65,-219.98C172.57,-210.33 107.44,-194.64 66.2,-184.7"/>
<polygon fill="#63b8ff" stroke="#63b8ff" points="66.81,-181.25 56.27,-182.31 65.17,-188.05 66.81,-181.25"/>
</g>
<!-- Node28 -->
<g id="node28" class="node">
<title>Node28</title>
<g id="a_node28"><a xlink:title=" ">
<polygon fill="#e0e0e0" stroke="#999999" points="143.5,-184 74.5,-184 74.5,-165 143.5,-165 143.5,-184"/>
<text text-anchor="middle" x="109" y="-172" font-family="Helvetica,sans-Serif" font-size="10.00">type_traits</text>
</a>
</g>
</g>
<!-- Node26&#45;&gt;Node28 -->
<g id="edge46" class="edge">
<title>Node26&#45;&gt;Node28</title>
<path fill="none" stroke="#63b8ff" d="M225.67,-219.98C202.8,-211.27 167.04,-197.63 141.14,-187.75"/>
<polygon fill="#63b8ff" stroke="#63b8ff" points="142.33,-184.46 131.74,-184.17 139.84,-191 142.33,-184.46"/>
</g>
<!-- Node29&#45;&gt;Node6 -->
<g id="edge50" class="edge">
<title>Node29&#45;&gt;Node6</title>
<path fill="none" stroke="#63b8ff" d="M729.73,-224.33C756,-219.31 789.97,-208.27 809,-184 818.75,-171.57 820.14,-153.36 819.44,-139.62"/>
<polygon fill="#63b8ff" stroke="#63b8ff" points="822.9,-139 818.51,-129.36 815.93,-139.64 822.9,-139"/>
</g>
<!-- Node29&#45;&gt;Node10 -->
<g id="edge51" class="edge">
<title>Node29&#45;&gt;Node10</title>
<path fill="none" stroke="#63b8ff" d="M656.36,-223.47C613.91,-216.81 547.87,-203.57 533,-184 523.09,-170.95 528.12,-152.05 534.24,-138.26"/>
<polygon fill="#63b8ff" stroke="#63b8ff" points="537.38,-139.8 538.69,-129.29 531.11,-136.69 537.38,-139.8"/>
</g>
<!-- Node30 -->
<g id="node30" class="node">
<title>Node30</title>
<g id="a_node30"><a xlink:title=" ">
<polygon fill="#e0e0e0" stroke="#999999" points="592,-184 542,-184 542,-165 592,-165 592,-184"/>
<text text-anchor="middle" x="567" y="-172" font-family="Helvetica,sans-Serif" font-size="10.00">stdio.h</text>
</a>
</g>
</g>
<!-- Node29&#45;&gt;Node30 -->
<g id="edge49" class="edge">
<title>Node29&#45;&gt;Node30</title>
<path fill="none" stroke="#63b8ff" d="M672.76,-219.98C652.3,-211.38 620.47,-197.99 597.07,-188.15"/>
<polygon fill="#63b8ff" stroke="#63b8ff" points="598.19,-184.82 587.61,-184.17 595.47,-191.27 598.19,-184.82"/>
</g>
<!-- Node31 -->
<g id="node31" class="node">
<title>Node31</title>
<g id="a_node31"><a xlink:href="../../d7/d50/growvector_8h.html" target="_top" xlink:title=" ">
<polygon fill="white" stroke="#666666" points="800,-184 720,-184 720,-165 800,-165 800,-184"/>
<text text-anchor="middle" x="760" y="-172" font-family="Helvetica,sans-Serif" font-size="10.00">growvector.h</text>
</a>
</g>
</g>
<!-- Node29&#45;&gt;Node31 -->
<g id="edge52" class="edge">
<title>Node29&#45;&gt;Node31</title>
<path fill="none" stroke="#63b8ff" d="M703.76,-219.98C713.77,-212.07 728.89,-200.11 740.93,-190.58"/>
<polygon fill="#63b8ff" stroke="#63b8ff" points="743.37,-193.12 749.04,-184.17 739.03,-187.63 743.37,-193.12"/>
</g>
<!-- Node31&#45;&gt;Node6 -->
<g id="edge54" class="edge">
<title>Node31&#45;&gt;Node6</title>
<path fill="none" stroke="#63b8ff" d="M769.16,-164.98C777.5,-157.23 790.03,-145.58 800.18,-136.14"/>
<polygon fill="#63b8ff" stroke="#63b8ff" points="802.74,-138.54 807.68,-129.17 797.97,-133.42 802.74,-138.54"/>
</g>
<!-- Node31&#45;&gt;Node21 -->
<g id="edge53" class="edge">
<title>Node31&#45;&gt;Node21</title>
<path fill="none" stroke="#63b8ff" d="M746.34,-164.98C733.16,-156.77 712.97,-144.18 697.43,-134.49"/>
<polygon fill="#63b8ff" stroke="#63b8ff" points="699.24,-131.49 688.91,-129.17 695.54,-137.43 699.24,-131.49"/>
</g>
<!-- Node32 -->
<g id="node32" class="node">
<title>Node32</title>
<g id="a_node32"><a xlink:title=" ">
<polygon fill="#e0e0e0" stroke="#999999" points="769.5,-129 716.5,-129 716.5,-110 769.5,-110 769.5,-129"/>
<text text-anchor="middle" x="743" y="-117" font-family="Helvetica,sans-Serif" font-size="10.00">iterator</text>
</a>
</g>
</g>
<!-- Node31&#45;&gt;Node32 -->
<g id="edge55" class="edge">
<title>Node31&#45;&gt;Node32</title>
<path fill="none" stroke="#63b8ff" d="M757.19,-164.75C754.94,-157.72 751.7,-147.62 748.88,-138.84"/>
<polygon fill="#63b8ff" stroke="#63b8ff" points="752.14,-137.54 745.75,-129.09 745.48,-139.68 752.14,-137.54"/>
</g>
</g>
</svg>
