<?xml version="1.0" encoding="UTF-8" standalone="no"?>
<!DOCTYPE svg PUBLIC "-//W3C//DTD SVG 1.1//EN"
 "http://www.w3.org/Graphics/SVG/1.1/DTD/svg11.dtd">
<!-- Generated by graphviz version 2.43.0 (0)
 -->
<!-- Title: sqlcodeYY_state Pages: 1 -->
<svg width="542pt" height="174pt"
 viewBox="0.00 0.00 542.00 174.00" xmlns="http://www.w3.org/2000/svg" xmlns:xlink="http://www.w3.org/1999/xlink">
<g id="graph0" class="graph" transform="scale(1 1) rotate(0) translate(4 170)">
<title>sqlcodeYY_state</title>
<!-- Node1 -->
<g id="node1" class="node">
<title>Node1</title>
<g id="a_node1"><a xlink:title=" ">
<polygon fill="#999999" stroke="#666666" points="310,-19 214,-19 214,0 310,0 310,-19"/>
<text text-anchor="middle" x="262" y="-7" font-family="Helvetica,sans-Serif" font-size="10.00">sqlcodeYY_state</text>
</a>
</g>
</g>
<!-- Node2 -->
<g id="node2" class="node">
<title>Node2</title>
<g id="a_node2"><a xlink:href="../../d5/d9c/class_code_output_interface.html" target="_top" xlink:title="Output interface for code parser.">
<polygon fill="white" stroke="#666666" points="118,-108.5 0,-108.5 0,-89.5 118,-89.5 118,-108.5"/>
<text text-anchor="middle" x="59" y="-96.5" font-family="Helvetica,sans-Serif" font-size="10.00">CodeOutputInterface</text>
</a>
</g>
</g>
<!-- Node2&#45;&gt;Node1 -->
<g id="edge1" class="edge">
<title>Node2&#45;&gt;Node1</title>
<path fill="none" stroke="#9a32cd" stroke-dasharray="5,2" d="M74.98,-82.37C90.19,-68.37 114.37,-48.35 139,-37 162.41,-26.21 190.37,-19.74 213.72,-15.89"/>
<polygon fill="#9a32cd" stroke="#9a32cd" points="72.36,-80.02 67.5,-89.43 77.17,-85.11 72.36,-80.02"/>
<text text-anchor="middle" x="152.5" y="-51" font-family="Helvetica,sans-Serif" font-size="10.00" fill="grey"> code</text>
</g>
<!-- Node3 -->
<g id="node3" class="node">
<title>Node3</title>
<g id="a_node3"><a xlink:href="../../d9/d45/class_q_c_string.html" target="_top" xlink:title="This is an alternative implementation of QCString.">
<polygon fill="white" stroke="#666666" points="195.5,-108.5 136.5,-108.5 136.5,-89.5 195.5,-89.5 195.5,-108.5"/>
<text text-anchor="middle" x="166" y="-96.5" font-family="Helvetica,sans-Serif" font-size="10.00">QCString</text>
</a>
</g>
</g>
<!-- Node3&#45;&gt;Node1 -->
<g id="edge2" class="edge">
<title>Node3&#45;&gt;Node1</title>
<path fill="none" stroke="#9a32cd" stroke-dasharray="5,2" d="M167.41,-79.26C169.37,-65.88 174.01,-48.32 185,-37 193.08,-28.68 203.88,-22.97 214.83,-19.06"/>
<polygon fill="#9a32cd" stroke="#9a32cd" points="163.92,-78.97 166.32,-89.29 170.88,-79.72 163.92,-78.97"/>
<text text-anchor="middle" x="221.5" y="-62" font-family="Helvetica,sans-Serif" font-size="10.00" fill="grey"> classScope</text>
<text text-anchor="middle" x="221.5" y="-51" font-family="Helvetica,sans-Serif" font-size="10.00" fill="grey">exampleName</text>
<text text-anchor="middle" x="221.5" y="-40" font-family="Helvetica,sans-Serif" font-size="10.00" fill="grey">fileName</text>
</g>
<!-- Node4 -->
<g id="node4" class="node">
<title>Node4</title>
<g id="a_node4"><a xlink:href="../../d5/dcc/class_definition.html" target="_top" xlink:title="The common base class of all entity definitions found in the sources.">
<polygon fill="white" stroke="#666666" points="392,-166 328,-166 328,-147 392,-147 392,-166"/>
<text text-anchor="middle" x="360" y="-154" font-family="Helvetica,sans-Serif" font-size="10.00">Definition</text>
</a>
</g>
</g>
<!-- Node4&#45;&gt;Node1 -->
<g id="edge3" class="edge">
<title>Node4&#45;&gt;Node1</title>
<path fill="none" stroke="#9a32cd" stroke-dasharray="5,2" d="M384.21,-141.68C420.75,-119.12 482.54,-73.27 451,-37 433.12,-16.44 360.18,-11.36 310.32,-10.35"/>
<polygon fill="#9a32cd" stroke="#9a32cd" points="382.3,-138.74 375.53,-146.89 385.91,-144.74 382.3,-138.74"/>
<text text-anchor="middle" x="491.5" y="-102" font-family="Helvetica,sans-Serif" font-size="10.00" fill="grey"> currentDefinition</text>
<text text-anchor="middle" x="491.5" y="-91" font-family="Helvetica,sans-Serif" font-size="10.00" fill="grey">searchCtx</text>
</g>
<!-- Node5 -->
<g id="node5" class="node">
<title>Node5</title>
<g id="a_node5"><a xlink:href="../../de/db0/class_file_def.html" target="_top" xlink:title="A model of a file symbol.">
<polygon fill="white" stroke="#666666" points="287.5,-108.5 236.5,-108.5 236.5,-89.5 287.5,-89.5 287.5,-108.5"/>
<text text-anchor="middle" x="262" y="-96.5" font-family="Helvetica,sans-Serif" font-size="10.00">FileDef</text>
</a>
</g>
</g>
<!-- Node4&#45;&gt;Node5 -->
<g id="edge6" class="edge">
<title>Node4&#45;&gt;Node5</title>
<path fill="none" stroke="#63b8ff" d="M335.76,-141.77C317.43,-131.39 292.84,-117.47 277.2,-108.61"/>
<polygon fill="#63b8ff" stroke="#63b8ff" points="334.26,-144.95 344.69,-146.83 337.71,-138.85 334.26,-144.95"/>
</g>
<!-- Node7 -->
<g id="node7" class="node">
<title>Node7</title>
<g id="a_node7"><a xlink:href="../../da/d09/class_member_def.html" target="_top" xlink:title="A model of a class/file/namespace member symbol.">
<polygon fill="white" stroke="#666666" points="394,-108.5 320,-108.5 320,-89.5 394,-89.5 394,-108.5"/>
<text text-anchor="middle" x="357" y="-96.5" font-family="Helvetica,sans-Serif" font-size="10.00">MemberDef</text>
</a>
</g>
</g>
<!-- Node4&#45;&gt;Node7 -->
<g id="edge8" class="edge">
<title>Node4&#45;&gt;Node7</title>
<path fill="none" stroke="#63b8ff" d="M358.99,-136.75C358.48,-127.3 357.88,-116.28 357.48,-108.79"/>
<polygon fill="#63b8ff" stroke="#63b8ff" points="355.5,-137.03 359.53,-146.83 362.49,-136.65 355.5,-137.03"/>
</g>
<!-- Node5&#45;&gt;Node1 -->
<g id="edge4" class="edge">
<title>Node5&#45;&gt;Node1</title>
<path fill="none" stroke="#9a32cd" stroke-dasharray="5,2" d="M262,-79.09C262,-60.52 262,-33.04 262,-19.17"/>
<polygon fill="#9a32cd" stroke="#9a32cd" points="258.5,-79.29 262,-89.29 265.5,-79.29 258.5,-79.29"/>
<text text-anchor="middle" x="297" y="-51" font-family="Helvetica,sans-Serif" font-size="10.00" fill="grey"> sourceFileDef</text>
</g>
<!-- Node6 -->
<g id="node6" class="node">
<title>Node6</title>
<g id="a_node6"><a xlink:href="../../d0/d46/class_definition_mutable.html" target="_top" xlink:title=" ">
<polygon fill="white" stroke="#666666" points="310,-166 206,-166 206,-147 310,-147 310,-166"/>
<text text-anchor="middle" x="258" y="-154" font-family="Helvetica,sans-Serif" font-size="10.00">DefinitionMutable</text>
</a>
</g>
</g>
<!-- Node6&#45;&gt;Node5 -->
<g id="edge5" class="edge">
<title>Node6&#45;&gt;Node5</title>
<path fill="none" stroke="#63b8ff" d="M259.35,-136.75C260.03,-127.3 260.83,-116.28 261.37,-108.79"/>
<polygon fill="#63b8ff" stroke="#63b8ff" points="255.85,-136.6 258.62,-146.83 262.83,-137.11 255.85,-136.6"/>
</g>
<!-- Node7&#45;&gt;Node1 -->
<g id="edge7" class="edge">
<title>Node7&#45;&gt;Node1</title>
<path fill="none" stroke="#9a32cd" stroke-dasharray="5,2" d="M353.83,-79.27C350.67,-65.9 344.54,-48.34 333,-37 324.55,-28.7 313.27,-22.96 302.19,-19.01"/>
<polygon fill="#9a32cd" stroke="#9a32cd" points="350.44,-80.18 355.85,-89.29 357.31,-78.8 350.44,-80.18"/>
<text text-anchor="middle" x="399" y="-51" font-family="Helvetica,sans-Serif" font-size="10.00" fill="grey"> currentMemberDef</text>
</g>
</g>
</svg>
