<?xml version="1.0" encoding="UTF-8" standalone="no"?>
<!DOCTYPE svg PUBLIC "-//W3C//DTD SVG 1.1//EN"
 "http://www.w3.org/Graphics/SVG/1.1/DTD/svg11.dtd">
<!-- Generated by graphviz version 2.43.0 (0)
 -->
<!-- Title: /home/runner/work/doxygen/doxygen/src/translator_adapter.h Pages: 1 -->
<svg width="1098pt" height="489pt"
 viewBox="0.00 0.00 1097.50 489.00" xmlns="http://www.w3.org/2000/svg" xmlns:xlink="http://www.w3.org/1999/xlink">
<g id="graph0" class="graph" transform="scale(1 1) rotate(0) translate(4 485)">
<title>/home/runner/work/doxygen/doxygen/src/translator_adapter.h</title>
<!-- Node1 -->
<g id="node1" class="node">
<title>Node1</title>
<g id="a_node1"><a xlink:title=" ">
<polygon fill="#999999" stroke="#666666" points="831,-481 677,-481 677,-440 831,-440 831,-481"/>
<text text-anchor="start" x="685" y="-469" font-family="Helvetica,sans-Serif" font-size="10.00">/home/runner/work/doxygen</text>
<text text-anchor="start" x="685" y="-458" font-family="Helvetica,sans-Serif" font-size="10.00">/doxygen/src/translator</text>
<text text-anchor="middle" x="754" y="-447" font-family="Helvetica,sans-Serif" font-size="10.00">_adapter.h</text>
</a>
</g>
</g>
<!-- Node2 -->
<g id="node2" class="node">
<title>Node2</title>
<g id="a_node2"><a xlink:title=" ">
<polygon fill="#e0e0e0" stroke="#999999" points="743,-404 681,-404 681,-385 743,-385 743,-404"/>
<text text-anchor="middle" x="712" y="-392" font-family="Helvetica,sans-Serif" font-size="10.00">version.h</text>
</a>
</g>
</g>
<!-- Node1&#45;&gt;Node2 -->
<g id="edge1" class="edge">
<title>Node1&#45;&gt;Node2</title>
<path fill="none" stroke="#63b8ff" d="M741.17,-439.95C735.49,-431.3 728.87,-421.2 723.37,-412.82"/>
<polygon fill="#63b8ff" stroke="#63b8ff" points="726.16,-410.7 717.75,-404.26 720.31,-414.54 726.16,-410.7"/>
</g>
<!-- Node3 -->
<g id="node3" class="node">
<title>Node3</title>
<g id="a_node3"><a xlink:href="../../d9/df1/translator_8h.html" target="_top" xlink:title=" ">
<polygon fill="white" stroke="#666666" points="833,-404 761,-404 761,-385 833,-385 833,-404"/>
<text text-anchor="middle" x="797" y="-392" font-family="Helvetica,sans-Serif" font-size="10.00">translator.h</text>
</a>
</g>
</g>
<!-- Node1&#45;&gt;Node3 -->
<g id="edge2" class="edge">
<title>Node1&#45;&gt;Node3</title>
<path fill="none" stroke="#63b8ff" d="M767.14,-439.95C772.95,-431.3 779.73,-421.2 785.36,-412.82"/>
<polygon fill="#63b8ff" stroke="#63b8ff" points="788.44,-414.51 791.11,-404.26 782.63,-410.61 788.44,-414.51"/>
</g>
<!-- Node4 -->
<g id="node4" class="node">
<title>Node4</title>
<g id="a_node4"><a xlink:href="../../d1/da6/classdef_8h.html" target="_top" xlink:title=" ">
<polygon fill="white" stroke="#666666" points="715.5,-349 650.5,-349 650.5,-330 715.5,-330 715.5,-349"/>
<text text-anchor="middle" x="683" y="-337" font-family="Helvetica,sans-Serif" font-size="10.00">classdef.h</text>
</a>
</g>
</g>
<!-- Node3&#45;&gt;Node4 -->
<g id="edge3" class="edge">
<title>Node3&#45;&gt;Node4</title>
<path fill="none" stroke="#63b8ff" d="M778.68,-384.98C760.34,-376.46 731.89,-363.23 710.77,-353.41"/>
<polygon fill="#63b8ff" stroke="#63b8ff" points="712.19,-350.21 701.65,-349.17 709.24,-356.56 712.19,-350.21"/>
</g>
<!-- Node29 -->
<g id="node29" class="node">
<title>Node29</title>
<g id="a_node29"><a xlink:href="../../db/d16/config_8h.html" target="_top" xlink:title=" ">
<polygon fill="white" stroke="#666666" points="1046.5,-349 991.5,-349 991.5,-330 1046.5,-330 1046.5,-349"/>
<text text-anchor="middle" x="1019" y="-337" font-family="Helvetica,sans-Serif" font-size="10.00">config.h</text>
</a>
</g>
</g>
<!-- Node3&#45;&gt;Node29 -->
<g id="edge51" class="edge">
<title>Node3&#45;&gt;Node29</title>
<path fill="none" stroke="#63b8ff" d="M832.67,-384.98C873.54,-375.23 940.23,-359.31 981.75,-349.39"/>
<polygon fill="#63b8ff" stroke="#63b8ff" points="982.57,-352.8 991.48,-347.07 980.94,-345.99 982.57,-352.8"/>
</g>
<!-- Node31 -->
<g id="node31" class="node">
<title>Node31</title>
<g id="a_node31"><a xlink:href="../../de/d1b/datetime_8h.html" target="_top" xlink:title=" ">
<polygon fill="white" stroke="#666666" points="947,-349 877,-349 877,-330 947,-330 947,-349"/>
<text text-anchor="middle" x="912" y="-337" font-family="Helvetica,sans-Serif" font-size="10.00">datetime.h</text>
</a>
</g>
</g>
<!-- Node3&#45;&gt;Node31 -->
<g id="edge53" class="edge">
<title>Node3&#45;&gt;Node31</title>
<path fill="none" stroke="#63b8ff" d="M815.48,-384.98C833.98,-376.46 862.68,-363.23 883.98,-353.41"/>
<polygon fill="#63b8ff" stroke="#63b8ff" points="885.57,-356.53 893.19,-349.17 882.64,-350.18 885.57,-356.53"/>
</g>
<!-- Node33 -->
<g id="node33" class="node">
<title>Node33</title>
<g id="a_node33"><a xlink:href="../../d1/db5/index_8h.html" target="_top" xlink:title=" ">
<polygon fill="white" stroke="#666666" points="425.5,-184 372.5,-184 372.5,-165 425.5,-165 425.5,-184"/>
<text text-anchor="middle" x="399" y="-172" font-family="Helvetica,sans-Serif" font-size="10.00">index.h</text>
</a>
</g>
</g>
<!-- Node3&#45;&gt;Node33 -->
<g id="edge56" class="edge">
<title>Node3&#45;&gt;Node33</title>
<path fill="none" stroke="#63b8ff" d="M760.95,-386.79C705.17,-375.11 596.35,-347.07 519,-294 475.16,-263.92 433.13,-216.89 412.41,-192.09"/>
<polygon fill="#63b8ff" stroke="#63b8ff" points="415.06,-189.8 406,-184.31 409.66,-194.25 415.06,-189.8"/>
</g>
<!-- Node5 -->
<g id="node5" class="node">
<title>Node5</title>
<g id="a_node5"><a xlink:title=" ">
<polygon fill="#e0e0e0" stroke="#999999" points="659.5,-129 612.5,-129 612.5,-110 659.5,-110 659.5,-129"/>
<text text-anchor="middle" x="636" y="-117" font-family="Helvetica,sans-Serif" font-size="10.00">vector</text>
</a>
</g>
</g>
<!-- Node4&#45;&gt;Node5 -->
<g id="edge4" class="edge">
<title>Node4&#45;&gt;Node5</title>
<path fill="none" stroke="#63b8ff" d="M695.37,-329.82C705.72,-321.8 719.9,-308.91 727,-294 741.18,-264.21 740.7,-252.09 733,-220 726.6,-193.33 723.38,-185.36 705,-165 693.44,-152.19 677.38,-141.55 663.66,-133.88"/>
<polygon fill="#63b8ff" stroke="#63b8ff" points="665.1,-130.68 654.63,-129.06 661.8,-136.86 665.1,-130.68"/>
</g>
<!-- Node6 -->
<g id="node6" class="node">
<title>Node6</title>
<g id="a_node6"><a xlink:title=" ">
<polygon fill="#e0e0e0" stroke="#999999" points="32,-129 0,-129 0,-110 32,-110 32,-129"/>
<text text-anchor="middle" x="16" y="-117" font-family="Helvetica,sans-Serif" font-size="10.00">set</text>
</a>
</g>
</g>
<!-- Node4&#45;&gt;Node6 -->
<g id="edge5" class="edge">
<title>Node4&#45;&gt;Node6</title>
<path fill="none" stroke="#63b8ff" d="M650.4,-333.78C605.66,-326.93 522.92,-312.96 454,-294 316.67,-256.21 284.47,-238.8 153,-184 113.56,-167.56 68.81,-146.32 41.5,-133.05"/>
<polygon fill="#63b8ff" stroke="#63b8ff" points="42.79,-129.78 32.26,-128.54 39.72,-136.07 42.79,-129.78"/>
</g>
<!-- Node7 -->
<g id="node7" class="node">
<title>Node7</title>
<g id="a_node7"><a xlink:href="../../d5/d75/containers_8h.html" target="_top" xlink:title=" ">
<polygon fill="white" stroke="#666666" points="239.5,-184 162.5,-184 162.5,-165 239.5,-165 239.5,-184"/>
<text text-anchor="middle" x="201" y="-172" font-family="Helvetica,sans-Serif" font-size="10.00">containers.h</text>
</a>
</g>
</g>
<!-- Node4&#45;&gt;Node7 -->
<g id="edge6" class="edge">
<title>Node4&#45;&gt;Node7</title>
<path fill="none" stroke="#63b8ff" d="M650.49,-330.22C617.3,-321.65 564.35,-307.61 519,-294 444.15,-271.54 425.19,-266.39 352,-239 308.69,-222.79 259.47,-201.55 229.33,-188.21"/>
<polygon fill="#63b8ff" stroke="#63b8ff" points="230.43,-184.87 219.87,-184.01 227.59,-191.27 230.43,-184.87"/>
</g>
<!-- Node13 -->
<g id="node13" class="node">
<title>Node13</title>
<g id="a_node13"><a xlink:href="../../df/da1/definition_8h.html" target="_top" xlink:title=" ">
<polygon fill="white" stroke="#666666" points="718.5,-294 647.5,-294 647.5,-275 718.5,-275 718.5,-294"/>
<text text-anchor="middle" x="683" y="-282" font-family="Helvetica,sans-Serif" font-size="10.00">definition.h</text>
</a>
</g>
</g>
<!-- Node4&#45;&gt;Node13 -->
<g id="edge14" class="edge">
<title>Node4&#45;&gt;Node13</title>
<path fill="none" stroke="#63b8ff" d="M683,-329.75C683,-322.8 683,-312.85 683,-304.13"/>
<polygon fill="#63b8ff" stroke="#63b8ff" points="686.5,-304.09 683,-294.09 679.5,-304.09 686.5,-304.09"/>
</g>
<!-- Node27 -->
<g id="node27" class="node">
<title>Node27</title>
<g id="a_node27"><a xlink:href="../../df/d9b/arguments_8h.html" target="_top" xlink:title=" ">
<polygon fill="white" stroke="#666666" points="884,-184 806,-184 806,-165 884,-165 884,-184"/>
<text text-anchor="middle" x="845" y="-172" font-family="Helvetica,sans-Serif" font-size="10.00">arguments.h</text>
</a>
</g>
</g>
<!-- Node4&#45;&gt;Node27 -->
<g id="edge42" class="edge">
<title>Node4&#45;&gt;Node27</title>
<path fill="none" stroke="#63b8ff" d="M715.69,-332.02C739.44,-325.83 770.99,-314.32 792,-294 820.78,-266.15 835.14,-219.87 841.24,-194.16"/>
<polygon fill="#63b8ff" stroke="#63b8ff" points="844.69,-194.74 843.42,-184.22 837.85,-193.24 844.69,-194.74"/>
</g>
<!-- Node28 -->
<g id="node28" class="node">
<title>Node28</title>
<g id="a_node28"><a xlink:href="../../d9/d11/membergroup_8h.html" target="_top" xlink:title=" ">
<polygon fill="white" stroke="#666666" points="623.5,-294 528.5,-294 528.5,-275 623.5,-275 623.5,-294"/>
<text text-anchor="middle" x="576" y="-282" font-family="Helvetica,sans-Serif" font-size="10.00">membergroup.h</text>
</a>
</g>
</g>
<!-- Node4&#45;&gt;Node28 -->
<g id="edge45" class="edge">
<title>Node4&#45;&gt;Node28</title>
<path fill="none" stroke="#63b8ff" d="M665.81,-329.98C648.75,-321.54 622.37,-308.47 602.6,-298.68"/>
<polygon fill="#63b8ff" stroke="#63b8ff" points="604.02,-295.47 593.5,-294.17 600.91,-301.75 604.02,-295.47"/>
</g>
<!-- Node7&#45;&gt;Node5 -->
<g id="edge7" class="edge">
<title>Node7&#45;&gt;Node5</title>
<path fill="none" stroke="#63b8ff" d="M239.6,-168.8C323.88,-158.53 523.13,-134.25 602.51,-124.58"/>
<polygon fill="#63b8ff" stroke="#63b8ff" points="602.95,-128.05 612.46,-123.37 602.11,-121.1 602.95,-128.05"/>
</g>
<!-- Node7&#45;&gt;Node6 -->
<g id="edge9" class="edge">
<title>Node7&#45;&gt;Node6</title>
<path fill="none" stroke="#63b8ff" d="M168.05,-164.92C137.62,-156.87 90.96,-144.19 41.93,-129.16"/>
<polygon fill="#63b8ff" stroke="#63b8ff" points="42.68,-125.73 32.09,-126.12 40.62,-132.42 42.68,-125.73"/>
</g>
<!-- Node8 -->
<g id="node8" class="node">
<title>Node8</title>
<g id="a_node8"><a xlink:title=" ">
<polygon fill="#e0e0e0" stroke="#999999" points="602,-19 558,-19 558,0 602,0 602,-19"/>
<text text-anchor="middle" x="580" y="-7" font-family="Helvetica,sans-Serif" font-size="10.00">string</text>
</a>
</g>
</g>
<!-- Node7&#45;&gt;Node8 -->
<g id="edge8" class="edge">
<title>Node7&#45;&gt;Node8</title>
<path fill="none" stroke="#63b8ff" d="M204.74,-164.69C211.03,-150.95 225.01,-124.47 245,-110 340.46,-40.87 483.95,-19.36 547.6,-13.01"/>
<polygon fill="#63b8ff" stroke="#63b8ff" points="548.19,-16.47 557.82,-12.05 547.54,-9.5 548.19,-16.47"/>
</g>
<!-- Node9 -->
<g id="node9" class="node">
<title>Node9</title>
<g id="a_node9"><a xlink:title=" ">
<polygon fill="#e0e0e0" stroke="#999999" points="292,-129 254,-129 254,-110 292,-110 292,-129"/>
<text text-anchor="middle" x="273" y="-117" font-family="Helvetica,sans-Serif" font-size="10.00">map</text>
</a>
</g>
</g>
<!-- Node7&#45;&gt;Node9 -->
<g id="edge10" class="edge">
<title>Node7&#45;&gt;Node9</title>
<path fill="none" stroke="#63b8ff" d="M212.57,-164.98C223.42,-157 239.88,-144.88 252.88,-135.31"/>
<polygon fill="#63b8ff" stroke="#63b8ff" points="255.24,-137.92 261.22,-129.17 251.09,-132.28 255.24,-137.92"/>
</g>
<!-- Node10 -->
<g id="node10" class="node">
<title>Node10</title>
<g id="a_node10"><a xlink:title=" ">
<polygon fill="#e0e0e0" stroke="#999999" points="136,-129 50,-129 50,-110 136,-110 136,-129"/>
<text text-anchor="middle" x="93" y="-117" font-family="Helvetica,sans-Serif" font-size="10.00">unordered_set</text>
</a>
</g>
</g>
<!-- Node7&#45;&gt;Node10 -->
<g id="edge11" class="edge">
<title>Node7&#45;&gt;Node10</title>
<path fill="none" stroke="#63b8ff" d="M183.65,-164.98C166.43,-156.54 139.8,-143.47 119.85,-133.68"/>
<polygon fill="#63b8ff" stroke="#63b8ff" points="121.19,-130.43 110.67,-129.17 118.1,-136.72 121.19,-130.43"/>
</g>
<!-- Node11 -->
<g id="node11" class="node">
<title>Node11</title>
<g id="a_node11"><a xlink:title=" ">
<polygon fill="#e0e0e0" stroke="#999999" points="479.5,-129 386.5,-129 386.5,-110 479.5,-110 479.5,-129"/>
<text text-anchor="middle" x="433" y="-117" font-family="Helvetica,sans-Serif" font-size="10.00">unordered_map</text>
</a>
</g>
</g>
<!-- Node7&#45;&gt;Node11 -->
<g id="edge12" class="edge">
<title>Node7&#45;&gt;Node11</title>
<path fill="none" stroke="#63b8ff" d="M238.27,-164.98C278.32,-155.84 342.07,-141.27 385.64,-131.32"/>
<polygon fill="#63b8ff" stroke="#63b8ff" points="386.46,-134.72 395.43,-129.08 384.9,-127.9 386.46,-134.72"/>
</g>
<!-- Node12 -->
<g id="node12" class="node">
<title>Node12</title>
<g id="a_node12"><a xlink:title=" ">
<polygon fill="#e0e0e0" stroke="#999999" points="197.5,-129 154.5,-129 154.5,-110 197.5,-110 197.5,-129"/>
<text text-anchor="middle" x="176" y="-117" font-family="Helvetica,sans-Serif" font-size="10.00">stack</text>
</a>
</g>
</g>
<!-- Node7&#45;&gt;Node12 -->
<g id="edge13" class="edge">
<title>Node7&#45;&gt;Node12</title>
<path fill="none" stroke="#63b8ff" d="M196.87,-164.75C193.49,-157.57 188.58,-147.18 184.38,-138.27"/>
<polygon fill="#63b8ff" stroke="#63b8ff" points="187.48,-136.64 180.05,-129.09 181.15,-139.63 187.48,-136.64"/>
</g>
<!-- Node13&#45;&gt;Node5 -->
<g id="edge15" class="edge">
<title>Node13&#45;&gt;Node5</title>
<path fill="none" stroke="#63b8ff" d="M693.31,-274.88C706.14,-263.05 725.49,-240.85 718,-220 705.44,-185 674.65,-153.53 654.58,-135.74"/>
<polygon fill="#63b8ff" stroke="#63b8ff" points="656.84,-133.06 646.97,-129.2 652.27,-138.37 656.84,-133.06"/>
</g>
<!-- Node14 -->
<g id="node14" class="node">
<title>Node14</title>
<g id="a_node14"><a xlink:href="../../d9/d49/types_8h.html" target="_top" xlink:title="This file contains a number of basic enums and types.">
<polygon fill="white" stroke="#666666" points="709.5,-239 656.5,-239 656.5,-220 709.5,-220 709.5,-239"/>
<text text-anchor="middle" x="683" y="-227" font-family="Helvetica,sans-Serif" font-size="10.00">types.h</text>
</a>
</g>
</g>
<!-- Node13&#45;&gt;Node14 -->
<g id="edge16" class="edge">
<title>Node13&#45;&gt;Node14</title>
<path fill="none" stroke="#63b8ff" d="M683,-274.75C683,-267.8 683,-257.85 683,-249.13"/>
<polygon fill="#63b8ff" stroke="#63b8ff" points="686.5,-249.09 683,-239.09 679.5,-249.09 686.5,-249.09"/>
</g>
<!-- Node24 -->
<g id="node24" class="node">
<title>Node24</title>
<g id="a_node24"><a xlink:href="../../d1/d02/reflist_8h.html" target="_top" xlink:title=" ">
<polygon fill="white" stroke="#666666" points="597.5,-239 544.5,-239 544.5,-220 597.5,-220 597.5,-239"/>
<text text-anchor="middle" x="571" y="-227" font-family="Helvetica,sans-Serif" font-size="10.00">reflist.h</text>
</a>
</g>
</g>
<!-- Node13&#45;&gt;Node24 -->
<g id="edge29" class="edge">
<title>Node13&#45;&gt;Node24</title>
<path fill="none" stroke="#63b8ff" d="M665.01,-274.98C647.07,-266.5 619.28,-253.35 598.57,-243.54"/>
<polygon fill="#63b8ff" stroke="#63b8ff" points="599.86,-240.28 589.32,-239.17 596.86,-246.61 599.86,-240.28"/>
</g>
<!-- Node15 -->
<g id="node15" class="node">
<title>Node15</title>
<g id="a_node15"><a xlink:href="../../d7/d5c/qcstring_8h.html" target="_top" xlink:title=" ">
<polygon fill="white" stroke="#666666" points="759.5,-129 694.5,-129 694.5,-110 759.5,-110 759.5,-129"/>
<text text-anchor="middle" x="727" y="-117" font-family="Helvetica,sans-Serif" font-size="10.00">qcstring.h</text>
</a>
</g>
</g>
<!-- Node14&#45;&gt;Node15 -->
<g id="edge17" class="edge">
<title>Node14&#45;&gt;Node15</title>
<path fill="none" stroke="#63b8ff" d="M686.6,-219.66C693.79,-202.01 710.06,-162.09 719.61,-138.64"/>
<polygon fill="#63b8ff" stroke="#63b8ff" points="722.94,-139.74 723.47,-129.16 716.46,-137.1 722.94,-139.74"/>
</g>
<!-- Node15&#45;&gt;Node8 -->
<g id="edge18" class="edge">
<title>Node15&#45;&gt;Node8</title>
<path fill="none" stroke="#63b8ff" d="M717.98,-109.73C704.61,-96.95 678.45,-72.78 654,-55 638.38,-43.65 619.75,-32.45 605.09,-24.13"/>
<polygon fill="#63b8ff" stroke="#63b8ff" points="606.54,-20.93 596.1,-19.11 603.12,-27.04 606.54,-20.93"/>
</g>
<!-- Node16 -->
<g id="node16" class="node">
<title>Node16</title>
<g id="a_node16"><a xlink:title=" ">
<polygon fill="#e0e0e0" stroke="#999999" points="578,-74 514,-74 514,-55 578,-55 578,-74"/>
<text text-anchor="middle" x="546" y="-62" font-family="Helvetica,sans-Serif" font-size="10.00">algorithm</text>
</a>
</g>
</g>
<!-- Node15&#45;&gt;Node16 -->
<g id="edge19" class="edge">
<title>Node15&#45;&gt;Node16</title>
<path fill="none" stroke="#63b8ff" d="M697.92,-109.98C667.4,-101.05 619.24,-86.94 585.34,-77.02"/>
<polygon fill="#63b8ff" stroke="#63b8ff" points="585.89,-73.53 575.31,-74.08 583.92,-80.25 585.89,-73.53"/>
</g>
<!-- Node17 -->
<g id="node17" class="node">
<title>Node17</title>
<g id="a_node17"><a xlink:title=" ">
<polygon fill="#e0e0e0" stroke="#999999" points="645.5,-74 596.5,-74 596.5,-55 645.5,-55 645.5,-74"/>
<text text-anchor="middle" x="621" y="-62" font-family="Helvetica,sans-Serif" font-size="10.00">cctype</text>
</a>
</g>
</g>
<!-- Node15&#45;&gt;Node17 -->
<g id="edge20" class="edge">
<title>Node15&#45;&gt;Node17</title>
<path fill="none" stroke="#63b8ff" d="M709.97,-109.98C693.07,-101.54 666.94,-88.47 647.36,-78.68"/>
<polygon fill="#63b8ff" stroke="#63b8ff" points="648.85,-75.51 638.34,-74.17 645.72,-81.77 648.85,-75.51"/>
</g>
<!-- Node18 -->
<g id="node18" class="node">
<title>Node18</title>
<g id="a_node18"><a xlink:title=" ">
<polygon fill="#e0e0e0" stroke="#999999" points="752,-74 702,-74 702,-55 752,-55 752,-74"/>
<text text-anchor="middle" x="727" y="-62" font-family="Helvetica,sans-Serif" font-size="10.00">cstring</text>
</a>
</g>
</g>
<!-- Node15&#45;&gt;Node18 -->
<g id="edge21" class="edge">
<title>Node15&#45;&gt;Node18</title>
<path fill="none" stroke="#63b8ff" d="M727,-109.75C727,-102.8 727,-92.85 727,-84.13"/>
<polygon fill="#63b8ff" stroke="#63b8ff" points="730.5,-84.09 727,-74.09 723.5,-84.09 730.5,-84.09"/>
</g>
<!-- Node19 -->
<g id="node19" class="node">
<title>Node19</title>
<g id="a_node19"><a xlink:title=" ">
<polygon fill="#e0e0e0" stroke="#999999" points="816,-74 770,-74 770,-55 816,-55 816,-74"/>
<text text-anchor="middle" x="793" y="-62" font-family="Helvetica,sans-Serif" font-size="10.00">cstdio</text>
</a>
</g>
</g>
<!-- Node15&#45;&gt;Node19 -->
<g id="edge22" class="edge">
<title>Node15&#45;&gt;Node19</title>
<path fill="none" stroke="#63b8ff" d="M737.6,-109.98C747.46,-102.07 762.35,-90.11 774.22,-80.58"/>
<polygon fill="#63b8ff" stroke="#63b8ff" points="776.6,-83.16 782.2,-74.17 772.21,-77.7 776.6,-83.16"/>
</g>
<!-- Node20 -->
<g id="node20" class="node">
<title>Node20</title>
<g id="a_node20"><a xlink:title=" ">
<polygon fill="#e0e0e0" stroke="#999999" points="985.5,-74 936.5,-74 936.5,-55 985.5,-55 985.5,-74"/>
<text text-anchor="middle" x="961" y="-62" font-family="Helvetica,sans-Serif" font-size="10.00">cstdlib</text>
</a>
</g>
</g>
<!-- Node15&#45;&gt;Node20 -->
<g id="edge23" class="edge">
<title>Node15&#45;&gt;Node20</title>
<path fill="none" stroke="#63b8ff" d="M759.54,-111.13C803.46,-101.18 881.39,-83.53 926.36,-73.35"/>
<polygon fill="#63b8ff" stroke="#63b8ff" points="927.26,-76.73 936.24,-71.11 925.72,-69.9 927.26,-76.73"/>
</g>
<!-- Node21 -->
<g id="node21" class="node">
<title>Node21</title>
<g id="a_node21"><a xlink:title=" ">
<polygon fill="#e0e0e0" stroke="#999999" points="907,-19 857,-19 857,0 907,0 907,-19"/>
<text text-anchor="middle" x="882" y="-7" font-family="Helvetica,sans-Serif" font-size="10.00">cstdint</text>
</a>
</g>
</g>
<!-- Node15&#45;&gt;Node21 -->
<g id="edge24" class="edge">
<title>Node15&#45;&gt;Node21</title>
<path fill="none" stroke="#63b8ff" d="M759.65,-114.21C802.3,-107.87 873.39,-94.47 889,-74 898.75,-61.21 895.21,-42.53 890.3,-28.74"/>
<polygon fill="#63b8ff" stroke="#63b8ff" points="893.49,-27.28 886.48,-19.33 887,-29.91 893.49,-27.28"/>
</g>
<!-- Node22 -->
<g id="node22" class="node">
<title>Node22</title>
<g id="a_node22"><a xlink:title=" ">
<polygon fill="#e0e0e0" stroke="#999999" points="1060.5,-74 1003.5,-74 1003.5,-55 1060.5,-55 1060.5,-74"/>
<text text-anchor="middle" x="1032" y="-62" font-family="Helvetica,sans-Serif" font-size="10.00">ostream</text>
</a>
</g>
</g>
<!-- Node15&#45;&gt;Node22 -->
<g id="edge25" class="edge">
<title>Node15&#45;&gt;Node22</title>
<path fill="none" stroke="#63b8ff" d="M759.71,-113.73C808.53,-106.47 903.57,-91.77 993.54,-74.2"/>
<polygon fill="#63b8ff" stroke="#63b8ff" points="994.22,-77.63 1003.35,-72.26 992.87,-70.76 994.22,-77.63"/>
</g>
<!-- Node23 -->
<g id="node23" class="node">
<title>Node23</title>
<g id="a_node23"><a xlink:href="../../db/d7c/utf8_8h.html" target="_top" xlink:title="Various UTF8 related helper functions.">
<polygon fill="white" stroke="#666666" points="879.5,-74 834.5,-74 834.5,-55 879.5,-55 879.5,-74"/>
<text text-anchor="middle" x="857" y="-62" font-family="Helvetica,sans-Serif" font-size="10.00">utf8.h</text>
</a>
</g>
</g>
<!-- Node15&#45;&gt;Node23 -->
<g id="edge26" class="edge">
<title>Node15&#45;&gt;Node23</title>
<path fill="none" stroke="#63b8ff" d="M747.89,-109.98C769.08,-101.34 802.13,-87.87 826.3,-78.02"/>
<polygon fill="#63b8ff" stroke="#63b8ff" points="827.79,-81.19 835.73,-74.17 825.15,-74.7 827.79,-81.19"/>
</g>
<!-- Node23&#45;&gt;Node8 -->
<g id="edge28" class="edge">
<title>Node23&#45;&gt;Node8</title>
<path fill="none" stroke="#63b8ff" d="M834.33,-57.24C831.2,-56.45 828.03,-55.68 825,-55 749.1,-38.05 658.89,-22.95 611.96,-15.47"/>
<polygon fill="#63b8ff" stroke="#63b8ff" points="612.5,-12.01 602.08,-13.9 611.41,-18.92 612.5,-12.01"/>
</g>
<!-- Node23&#45;&gt;Node21 -->
<g id="edge27" class="edge">
<title>Node23&#45;&gt;Node21</title>
<path fill="none" stroke="#63b8ff" d="M861.13,-54.75C864.51,-47.57 869.42,-37.18 873.62,-28.27"/>
<polygon fill="#63b8ff" stroke="#63b8ff" points="876.85,-29.63 877.95,-19.09 870.52,-26.64 876.85,-29.63"/>
</g>
<!-- Node24&#45;&gt;Node5 -->
<g id="edge30" class="edge">
<title>Node24&#45;&gt;Node5</title>
<path fill="none" stroke="#63b8ff" d="M576.32,-219.66C587.04,-201.85 611.4,-161.37 625.46,-138.01"/>
<polygon fill="#63b8ff" stroke="#63b8ff" points="628.63,-139.53 630.79,-129.16 622.63,-135.92 628.63,-139.53"/>
</g>
<!-- Node24&#45;&gt;Node11 -->
<g id="edge31" class="edge">
<title>Node24&#45;&gt;Node11</title>
<path fill="none" stroke="#63b8ff" d="M544.09,-220.99C522.94,-214.05 493.7,-202.06 473,-184 458.61,-171.44 447.58,-152.44 440.78,-138.49"/>
<polygon fill="#63b8ff" stroke="#63b8ff" points="443.78,-136.63 436.43,-129 437.42,-139.55 443.78,-136.63"/>
</g>
<!-- Node24&#45;&gt;Node15 -->
<g id="edge33" class="edge">
<title>Node24&#45;&gt;Node15</title>
<path fill="none" stroke="#63b8ff" d="M583.5,-219.84C610.2,-201.36 673.04,-157.86 705.99,-135.05"/>
<polygon fill="#63b8ff" stroke="#63b8ff" points="708.21,-137.77 714.44,-129.2 704.22,-132.01 708.21,-137.77"/>
</g>
<!-- Node25 -->
<g id="node25" class="node">
<title>Node25</title>
<g id="a_node25"><a xlink:title=" ">
<polygon fill="#e0e0e0" stroke="#999999" points="368,-129 310,-129 310,-110 368,-110 368,-129"/>
<text text-anchor="middle" x="339" y="-117" font-family="Helvetica,sans-Serif" font-size="10.00">memory</text>
</a>
</g>
</g>
<!-- Node24&#45;&gt;Node25 -->
<g id="edge32" class="edge">
<title>Node24&#45;&gt;Node25</title>
<path fill="none" stroke="#63b8ff" d="M544.32,-225.96C494.52,-220.73 390.02,-207.23 363,-184 350.02,-172.85 344.05,-153.92 341.3,-139.62"/>
<polygon fill="#63b8ff" stroke="#63b8ff" points="344.71,-138.74 339.73,-129.39 337.79,-139.81 344.71,-138.74"/>
</g>
<!-- Node26 -->
<g id="node26" class="node">
<title>Node26</title>
<g id="a_node26"><a xlink:href="../../da/de1/linkedmap_8h.html" target="_top" xlink:title=" ">
<polygon fill="white" stroke="#666666" points="559.5,-184 482.5,-184 482.5,-165 559.5,-165 559.5,-184"/>
<text text-anchor="middle" x="521" y="-172" font-family="Helvetica,sans-Serif" font-size="10.00">linkedmap.h</text>
</a>
</g>
</g>
<!-- Node24&#45;&gt;Node26 -->
<g id="edge34" class="edge">
<title>Node24&#45;&gt;Node26</title>
<path fill="none" stroke="#63b8ff" d="M562.74,-219.75C555.54,-212.11 544.89,-200.82 536.15,-191.56"/>
<polygon fill="#63b8ff" stroke="#63b8ff" points="538.51,-188.96 529.1,-184.09 533.42,-193.76 538.51,-188.96"/>
</g>
<!-- Node26&#45;&gt;Node5 -->
<g id="edge36" class="edge">
<title>Node26&#45;&gt;Node5</title>
<path fill="none" stroke="#63b8ff" d="M539.48,-164.98C557.98,-156.46 586.68,-143.23 607.98,-133.41"/>
<polygon fill="#63b8ff" stroke="#63b8ff" points="609.57,-136.53 617.19,-129.17 606.64,-130.18 609.57,-136.53"/>
</g>
<!-- Node26&#45;&gt;Node8 -->
<g id="edge38" class="edge">
<title>Node26&#45;&gt;Node8</title>
<path fill="none" stroke="#63b8ff" d="M516.39,-164.77C506.21,-144.15 484.25,-91.44 505,-55 514.31,-38.66 532.24,-27.7 548.24,-20.74"/>
<polygon fill="#63b8ff" stroke="#63b8ff" points="549.85,-23.87 557.85,-16.92 547.27,-17.36 549.85,-23.87"/>
</g>
<!-- Node26&#45;&gt;Node11 -->
<g id="edge35" class="edge">
<title>Node26&#45;&gt;Node11</title>
<path fill="none" stroke="#63b8ff" d="M506.86,-164.98C493.21,-156.77 472.31,-144.18 456.22,-134.49"/>
<polygon fill="#63b8ff" stroke="#63b8ff" points="457.77,-131.33 447.4,-129.17 454.16,-137.33 457.77,-131.33"/>
</g>
<!-- Node26&#45;&gt;Node15 -->
<g id="edge41" class="edge">
<title>Node26&#45;&gt;Node15</title>
<path fill="none" stroke="#63b8ff" d="M554.1,-164.98C589.49,-155.88 645.73,-141.41 684.41,-131.46"/>
<polygon fill="#63b8ff" stroke="#63b8ff" points="685.51,-134.79 694.32,-128.91 683.77,-128.01 685.51,-134.79"/>
</g>
<!-- Node26&#45;&gt;Node16 -->
<g id="edge39" class="edge">
<title>Node26&#45;&gt;Node16</title>
<path fill="none" stroke="#63b8ff" d="M523.05,-164.66C527.11,-147.09 536.29,-107.45 541.73,-83.95"/>
<polygon fill="#63b8ff" stroke="#63b8ff" points="545.15,-84.69 544,-74.16 538.33,-83.11 545.15,-84.69"/>
</g>
<!-- Node26&#45;&gt;Node17 -->
<g id="edge40" class="edge">
<title>Node26&#45;&gt;Node17</title>
<path fill="none" stroke="#63b8ff" d="M529.18,-164.66C545.97,-146.54 584.51,-104.91 605.93,-81.77"/>
<polygon fill="#63b8ff" stroke="#63b8ff" points="608.76,-83.87 612.98,-74.16 603.62,-79.12 608.76,-83.87"/>
</g>
<!-- Node26&#45;&gt;Node25 -->
<g id="edge37" class="edge">
<title>Node26&#45;&gt;Node25</title>
<path fill="none" stroke="#63b8ff" d="M491.76,-164.98C460.85,-155.98 411.93,-141.74 377.81,-131.8"/>
<polygon fill="#63b8ff" stroke="#63b8ff" points="378.75,-128.43 368.17,-128.99 376.79,-135.15 378.75,-128.43"/>
</g>
<!-- Node27&#45;&gt;Node5 -->
<g id="edge43" class="edge">
<title>Node27&#45;&gt;Node5</title>
<path fill="none" stroke="#63b8ff" d="M811.42,-164.98C772.44,-155.1 708.53,-138.89 669.56,-129.01"/>
<polygon fill="#63b8ff" stroke="#63b8ff" points="670.3,-125.59 659.75,-126.52 668.58,-132.37 670.3,-125.59"/>
</g>
<!-- Node27&#45;&gt;Node15 -->
<g id="edge44" class="edge">
<title>Node27&#45;&gt;Node15</title>
<path fill="none" stroke="#63b8ff" d="M826.04,-164.98C806.97,-156.42 777.34,-143.11 755.45,-133.28"/>
<polygon fill="#63b8ff" stroke="#63b8ff" points="756.86,-130.07 746.3,-129.17 753.99,-136.46 756.86,-130.07"/>
</g>
<!-- Node28&#45;&gt;Node5 -->
<g id="edge46" class="edge">
<title>Node28&#45;&gt;Node5</title>
<path fill="none" stroke="#63b8ff" d="M583.18,-274.84C589.97,-266.24 599.99,-252.44 606,-239 620.97,-205.54 629.39,-163.28 633.29,-139.33"/>
<polygon fill="#63b8ff" stroke="#63b8ff" points="636.8,-139.58 634.85,-129.17 629.88,-138.52 636.8,-139.58"/>
</g>
<!-- Node28&#45;&gt;Node9 -->
<g id="edge47" class="edge">
<title>Node28&#45;&gt;Node9</title>
<path fill="none" stroke="#63b8ff" d="M528.17,-280.6C486.79,-276.3 426.59,-265.59 381,-239 337.1,-213.39 300.89,-164.04 283.72,-137.83"/>
<polygon fill="#63b8ff" stroke="#63b8ff" points="286.61,-135.86 278.28,-129.31 280.71,-139.62 286.61,-135.86"/>
</g>
<!-- Node28&#45;&gt;Node14 -->
<g id="edge49" class="edge">
<title>Node28&#45;&gt;Node14</title>
<path fill="none" stroke="#63b8ff" d="M593.19,-274.98C610.25,-266.54 636.63,-253.47 656.4,-243.68"/>
<polygon fill="#63b8ff" stroke="#63b8ff" points="658.09,-246.75 665.5,-239.17 654.98,-240.47 658.09,-246.75"/>
</g>
<!-- Node28&#45;&gt;Node24 -->
<g id="edge50" class="edge">
<title>Node28&#45;&gt;Node24</title>
<path fill="none" stroke="#63b8ff" d="M575.17,-274.75C574.52,-267.8 573.58,-257.85 572.76,-249.13"/>
<polygon fill="#63b8ff" stroke="#63b8ff" points="576.23,-248.72 571.81,-239.09 569.27,-249.37 576.23,-248.72"/>
</g>
<!-- Node28&#45;&gt;Node25 -->
<g id="edge48" class="edge">
<title>Node28&#45;&gt;Node25</title>
<path fill="none" stroke="#63b8ff" d="M528.43,-276.88C475.14,-266.77 390.54,-242.1 347,-184 337.53,-171.36 336.11,-153.17 336.72,-139.5"/>
<polygon fill="#63b8ff" stroke="#63b8ff" points="340.23,-139.55 337.58,-129.29 333.25,-138.96 340.23,-139.55"/>
</g>
<!-- Node30 -->
<g id="node30" class="node">
<title>Node30</title>
<g id="a_node30"><a xlink:title=" ">
<polygon fill="#e0e0e0" stroke="#999999" points="1089.5,-294 1002.5,-294 1002.5,-275 1089.5,-275 1089.5,-294"/>
<text text-anchor="middle" x="1046" y="-282" font-family="Helvetica,sans-Serif" font-size="10.00">configvalues.h</text>
</a>
</g>
</g>
<!-- Node29&#45;&gt;Node30 -->
<g id="edge52" class="edge">
<title>Node29&#45;&gt;Node30</title>
<path fill="none" stroke="#63b8ff" d="M1023.46,-329.75C1027.12,-322.57 1032.41,-312.18 1036.95,-303.27"/>
<polygon fill="#63b8ff" stroke="#63b8ff" points="1040.2,-304.59 1041.62,-294.09 1033.97,-301.41 1040.2,-304.59"/>
</g>
<!-- Node31&#45;&gt;Node15 -->
<g id="edge55" class="edge">
<title>Node31&#45;&gt;Node15</title>
<path fill="none" stroke="#63b8ff" d="M914.04,-330C920.13,-302.39 935.22,-214.22 893,-165 877.08,-146.44 813.53,-133.41 769.85,-126.43"/>
<polygon fill="#63b8ff" stroke="#63b8ff" points="770.17,-122.94 759.76,-124.87 769.1,-129.86 770.17,-122.94"/>
</g>
<!-- Node32 -->
<g id="node32" class="node">
<title>Node32</title>
<g id="a_node32"><a xlink:title=" ">
<polygon fill="#e0e0e0" stroke="#999999" points="984,-294 940,-294 940,-275 984,-275 984,-294"/>
<text text-anchor="middle" x="962" y="-282" font-family="Helvetica,sans-Serif" font-size="10.00">ctime</text>
</a>
</g>
</g>
<!-- Node31&#45;&gt;Node32 -->
<g id="edge54" class="edge">
<title>Node31&#45;&gt;Node32</title>
<path fill="none" stroke="#63b8ff" d="M920.26,-329.75C927.46,-322.11 938.11,-310.82 946.85,-301.56"/>
<polygon fill="#63b8ff" stroke="#63b8ff" points="949.58,-303.76 953.9,-294.09 944.49,-298.96 949.58,-303.76"/>
</g>
<!-- Node33&#45;&gt;Node5 -->
<g id="edge58" class="edge">
<title>Node33&#45;&gt;Node5</title>
<path fill="none" stroke="#63b8ff" d="M425.73,-167.52C469.15,-157.81 554.93,-138.63 602.41,-128.01"/>
<polygon fill="#63b8ff" stroke="#63b8ff" points="603.21,-131.42 612.21,-125.82 601.69,-124.59 603.21,-131.42"/>
</g>
<!-- Node33&#45;&gt;Node9 -->
<g id="edge59" class="edge">
<title>Node33&#45;&gt;Node9</title>
<path fill="none" stroke="#63b8ff" d="M378.76,-164.98C357.94,-156.23 325.33,-142.51 301.82,-132.62"/>
<polygon fill="#63b8ff" stroke="#63b8ff" points="302.94,-129.3 292.37,-128.65 300.23,-135.75 302.94,-129.3"/>
</g>
<!-- Node33&#45;&gt;Node15 -->
<g id="edge60" class="edge">
<title>Node33&#45;&gt;Node15</title>
<path fill="none" stroke="#63b8ff" d="M425.56,-169.21C482.28,-160.04 615.65,-138.49 684.39,-127.39"/>
<polygon fill="#63b8ff" stroke="#63b8ff" points="685.13,-130.81 694.44,-125.76 684.01,-123.9 685.13,-130.81"/>
</g>
<!-- Node33&#45;&gt;Node25 -->
<g id="edge57" class="edge">
<title>Node33&#45;&gt;Node25</title>
<path fill="none" stroke="#63b8ff" d="M389.36,-164.98C380.49,-157.15 367.13,-145.34 356.39,-135.86"/>
<polygon fill="#63b8ff" stroke="#63b8ff" points="358.63,-133.17 348.82,-129.17 353.99,-138.41 358.63,-133.17"/>
</g>
</g>
</svg>
