<?xml version="1.0" encoding="UTF-8" standalone="no"?>
<!DOCTYPE svg PUBLIC "-//W3C//DTD SVG 1.1//EN"
 "http://www.w3.org/Graphics/SVG/1.1/DTD/svg11.dtd">
<!-- Generated by graphviz version 2.43.0 (0)
 -->
<!-- Title: /home/runner/work/doxygen/doxygen/src/docparser.h Pages: 1 -->
<svg width="768pt" height="203pt"
 viewBox="0.00 0.00 767.50 203.00" xmlns="http://www.w3.org/2000/svg" xmlns:xlink="http://www.w3.org/1999/xlink">
<g id="graph0" class="graph" transform="scale(1 1) rotate(0) translate(4 199)">
<title>/home/runner/work/doxygen/doxygen/src/docparser.h</title>
<!-- Node1 -->
<g id="node1" class="node">
<title>Node1</title>
<g id="a_node1"><a xlink:title=" ">
<polygon fill="#999999" stroke="#666666" points="494,-195 340,-195 340,-165 494,-165 494,-195"/>
<text text-anchor="start" x="348" y="-183" font-family="Helvetica,sans-Serif" font-size="10.00">/home/runner/work/doxygen</text>
<text text-anchor="middle" x="417" y="-172" font-family="Helvetica,sans-Serif" font-size="10.00">/doxygen/src/docparser.h</text>
</a>
</g>
</g>
<!-- Node2 -->
<g id="node2" class="node">
<title>Node2</title>
<g id="a_node2"><a xlink:title=" ">
<polygon fill="#e0e0e0" stroke="#999999" points="309,-129 259,-129 259,-110 309,-110 309,-129"/>
<text text-anchor="middle" x="284" y="-117" font-family="Helvetica,sans-Serif" font-size="10.00">stdio.h</text>
</a>
</g>
</g>
<!-- Node1&#45;&gt;Node2 -->
<g id="edge1" class="edge">
<title>Node1&#45;&gt;Node2</title>
<path fill="none" stroke="#63b8ff" d="M385.14,-164.99C363.15,-155.31 334.15,-142.56 312.84,-133.18"/>
<polygon fill="#63b8ff" stroke="#63b8ff" points="314.2,-129.96 303.64,-129.14 311.39,-136.37 314.2,-129.96"/>
</g>
<!-- Node3 -->
<g id="node3" class="node">
<title>Node3</title>
<g id="a_node3"><a xlink:title=" ">
<polygon fill="#e0e0e0" stroke="#999999" points="623,-74 565,-74 565,-55 623,-55 623,-74"/>
<text text-anchor="middle" x="594" y="-62" font-family="Helvetica,sans-Serif" font-size="10.00">memory</text>
</a>
</g>
</g>
<!-- Node1&#45;&gt;Node3 -->
<g id="edge2" class="edge">
<title>Node1&#45;&gt;Node3</title>
<path fill="none" stroke="#63b8ff" d="M439.06,-164.85C472.94,-143.13 537.45,-101.77 571.56,-79.89"/>
<polygon fill="#63b8ff" stroke="#63b8ff" points="573.79,-82.61 580.32,-74.27 570.02,-76.72 573.79,-82.61"/>
</g>
<!-- Node4 -->
<g id="node4" class="node">
<title>Node4</title>
<g id="a_node4"><a xlink:href="../../d7/d5c/qcstring_8h.html" target="_top" xlink:title=" ">
<polygon fill="white" stroke="#666666" points="392.5,-129 327.5,-129 327.5,-110 392.5,-110 392.5,-129"/>
<text text-anchor="middle" x="360" y="-117" font-family="Helvetica,sans-Serif" font-size="10.00">qcstring.h</text>
</a>
</g>
</g>
<!-- Node1&#45;&gt;Node4 -->
<g id="edge3" class="edge">
<title>Node1&#45;&gt;Node4</title>
<path fill="none" stroke="#63b8ff" d="M403.2,-164.84C394.93,-156.35 384.38,-145.52 375.77,-136.69"/>
<polygon fill="#63b8ff" stroke="#63b8ff" points="378.03,-133.99 368.54,-129.27 373.01,-138.87 378.03,-133.99"/>
</g>
<!-- Node14 -->
<g id="node14" class="node">
<title>Node14</title>
<g id="a_node14"><a xlink:href="../../d7/d50/growvector_8h.html" target="_top" xlink:title=" ">
<polygon fill="white" stroke="#666666" points="669,-129 589,-129 589,-110 669,-110 669,-129"/>
<text text-anchor="middle" x="629" y="-117" font-family="Helvetica,sans-Serif" font-size="10.00">growvector.h</text>
</a>
</g>
</g>
<!-- Node1&#45;&gt;Node14 -->
<g id="edge15" class="edge">
<title>Node1&#45;&gt;Node14</title>
<path fill="none" stroke="#63b8ff" d="M467.78,-164.99C504.68,-154.8 553.98,-141.2 588.3,-131.73"/>
<polygon fill="#63b8ff" stroke="#63b8ff" points="589.29,-135.09 598,-129.05 587.43,-128.34 589.29,-135.09"/>
</g>
<!-- Node5 -->
<g id="node5" class="node">
<title>Node5</title>
<g id="a_node5"><a xlink:title=" ">
<polygon fill="#e0e0e0" stroke="#999999" points="533,-19 489,-19 489,0 533,0 533,-19"/>
<text text-anchor="middle" x="511" y="-7" font-family="Helvetica,sans-Serif" font-size="10.00">string</text>
</a>
</g>
</g>
<!-- Node4&#45;&gt;Node5 -->
<g id="edge4" class="edge">
<title>Node4&#45;&gt;Node5</title>
<path fill="none" stroke="#63b8ff" d="M392.57,-113.98C434.25,-107.45 502.9,-93.94 518,-74 527.71,-61.18 524.17,-42.5 519.28,-28.72"/>
<polygon fill="#63b8ff" stroke="#63b8ff" points="522.47,-27.27 515.47,-19.32 515.98,-29.9 522.47,-27.27"/>
</g>
<!-- Node6 -->
<g id="node6" class="node">
<title>Node6</title>
<g id="a_node6"><a xlink:title=" ">
<polygon fill="#e0e0e0" stroke="#999999" points="64,-74 0,-74 0,-55 64,-55 64,-74"/>
<text text-anchor="middle" x="32" y="-62" font-family="Helvetica,sans-Serif" font-size="10.00">algorithm</text>
</a>
</g>
</g>
<!-- Node4&#45;&gt;Node6 -->
<g id="edge5" class="edge">
<title>Node4&#45;&gt;Node6</title>
<path fill="none" stroke="#63b8ff" d="M327.47,-111.74C324.28,-111.13 321.08,-110.54 318,-110 212.76,-91.63 183.1,-93.07 74.27,-74.13"/>
<polygon fill="#63b8ff" stroke="#63b8ff" points="74.65,-70.65 64.19,-72.36 73.44,-77.54 74.65,-70.65"/>
</g>
<!-- Node7 -->
<g id="node7" class="node">
<title>Node7</title>
<g id="a_node7"><a xlink:title=" ">
<polygon fill="#e0e0e0" stroke="#999999" points="131.5,-74 82.5,-74 82.5,-55 131.5,-55 131.5,-74"/>
<text text-anchor="middle" x="107" y="-62" font-family="Helvetica,sans-Serif" font-size="10.00">cctype</text>
</a>
</g>
</g>
<!-- Node4&#45;&gt;Node7 -->
<g id="edge6" class="edge">
<title>Node4&#45;&gt;Node7</title>
<path fill="none" stroke="#63b8ff" d="M327.1,-111.83C274.59,-101.19 174.98,-81 141.71,-73.98"/>
<polygon fill="#63b8ff" stroke="#63b8ff" points="142.37,-70.54 131.85,-71.85 140.89,-77.38 142.37,-70.54"/>
</g>
<!-- Node8 -->
<g id="node8" class="node">
<title>Node8</title>
<g id="a_node8"><a xlink:title=" ">
<polygon fill="#e0e0e0" stroke="#999999" points="200,-74 150,-74 150,-55 200,-55 200,-74"/>
<text text-anchor="middle" x="175" y="-62" font-family="Helvetica,sans-Serif" font-size="10.00">cstring</text>
</a>
</g>
</g>
<!-- Node4&#45;&gt;Node8 -->
<g id="edge7" class="edge">
<title>Node4&#45;&gt;Node8</title>
<path fill="none" stroke="#63b8ff" d="M330.28,-109.98C297.46,-100.58 244.69,-85.46 209.92,-75.51"/>
<polygon fill="#63b8ff" stroke="#63b8ff" points="210.77,-72.11 200.19,-72.72 208.84,-78.84 210.77,-72.11"/>
</g>
<!-- Node9 -->
<g id="node9" class="node">
<title>Node9</title>
<g id="a_node9"><a xlink:title=" ">
<polygon fill="#e0e0e0" stroke="#999999" points="264,-74 218,-74 218,-55 264,-55 264,-74"/>
<text text-anchor="middle" x="241" y="-62" font-family="Helvetica,sans-Serif" font-size="10.00">cstdio</text>
</a>
</g>
</g>
<!-- Node4&#45;&gt;Node9 -->
<g id="edge8" class="edge">
<title>Node4&#45;&gt;Node9</title>
<path fill="none" stroke="#63b8ff" d="M340.88,-109.98C321.65,-101.42 291.77,-88.11 269.69,-78.28"/>
<polygon fill="#63b8ff" stroke="#63b8ff" points="271.03,-75.04 260.47,-74.17 268.18,-81.44 271.03,-75.04"/>
</g>
<!-- Node10 -->
<g id="node10" class="node">
<title>Node10</title>
<g id="a_node10"><a xlink:title=" ">
<polygon fill="#e0e0e0" stroke="#999999" points="331.5,-74 282.5,-74 282.5,-55 331.5,-55 331.5,-74"/>
<text text-anchor="middle" x="307" y="-62" font-family="Helvetica,sans-Serif" font-size="10.00">cstdlib</text>
</a>
</g>
</g>
<!-- Node4&#45;&gt;Node10 -->
<g id="edge9" class="edge">
<title>Node4&#45;&gt;Node10</title>
<path fill="none" stroke="#63b8ff" d="M351.25,-109.75C343.53,-102.03 332.1,-90.6 322.78,-81.28"/>
<polygon fill="#63b8ff" stroke="#63b8ff" points="325.14,-78.69 315.59,-74.09 320.19,-83.64 325.14,-78.69"/>
</g>
<!-- Node11 -->
<g id="node11" class="node">
<title>Node11</title>
<g id="a_node11"><a xlink:title=" ">
<polygon fill="#e0e0e0" stroke="#999999" points="441,-19 391,-19 391,0 441,0 441,-19"/>
<text text-anchor="middle" x="416" y="-7" font-family="Helvetica,sans-Serif" font-size="10.00">cstdint</text>
</a>
</g>
</g>
<!-- Node4&#45;&gt;Node11 -->
<g id="edge10" class="edge">
<title>Node4&#45;&gt;Node11</title>
<path fill="none" stroke="#63b8ff" d="M361.44,-109.86C363.8,-97.23 369.21,-73.25 379,-55 384.5,-44.75 392.59,-34.67 399.81,-26.7"/>
<polygon fill="#63b8ff" stroke="#63b8ff" points="402.53,-28.91 406.86,-19.24 397.45,-24.1 402.53,-28.91"/>
</g>
<!-- Node12 -->
<g id="node12" class="node">
<title>Node12</title>
<g id="a_node12"><a xlink:title=" ">
<polygon fill="#e0e0e0" stroke="#999999" points="445.5,-74 388.5,-74 388.5,-55 445.5,-55 445.5,-74"/>
<text text-anchor="middle" x="417" y="-62" font-family="Helvetica,sans-Serif" font-size="10.00">ostream</text>
</a>
</g>
</g>
<!-- Node4&#45;&gt;Node12 -->
<g id="edge11" class="edge">
<title>Node4&#45;&gt;Node12</title>
<path fill="none" stroke="#63b8ff" d="M369.16,-109.98C377.5,-102.23 390.03,-90.58 400.18,-81.14"/>
<polygon fill="#63b8ff" stroke="#63b8ff" points="402.74,-83.54 407.68,-74.17 397.97,-78.42 402.74,-83.54"/>
</g>
<!-- Node13 -->
<g id="node13" class="node">
<title>Node13</title>
<g id="a_node13"><a xlink:href="../../db/d7c/utf8_8h.html" target="_top" xlink:title="Various UTF8 related helper functions.">
<polygon fill="white" stroke="#666666" points="508.5,-74 463.5,-74 463.5,-55 508.5,-55 508.5,-74"/>
<text text-anchor="middle" x="486" y="-62" font-family="Helvetica,sans-Serif" font-size="10.00">utf8.h</text>
</a>
</g>
</g>
<!-- Node4&#45;&gt;Node13 -->
<g id="edge12" class="edge">
<title>Node4&#45;&gt;Node13</title>
<path fill="none" stroke="#63b8ff" d="M380.24,-109.98C400.7,-101.38 432.53,-87.99 455.93,-78.15"/>
<polygon fill="#63b8ff" stroke="#63b8ff" points="457.53,-81.27 465.39,-74.17 454.81,-74.82 457.53,-81.27"/>
</g>
<!-- Node13&#45;&gt;Node5 -->
<g id="edge14" class="edge">
<title>Node13&#45;&gt;Node5</title>
<path fill="none" stroke="#63b8ff" d="M490.13,-54.75C493.51,-47.57 498.42,-37.18 502.62,-28.27"/>
<polygon fill="#63b8ff" stroke="#63b8ff" points="505.85,-29.63 506.95,-19.09 499.52,-26.64 505.85,-29.63"/>
</g>
<!-- Node13&#45;&gt;Node11 -->
<g id="edge13" class="edge">
<title>Node13&#45;&gt;Node11</title>
<path fill="none" stroke="#63b8ff" d="M474.75,-54.98C464.2,-47 448.2,-34.88 435.56,-25.31"/>
<polygon fill="#63b8ff" stroke="#63b8ff" points="437.54,-22.42 427.45,-19.17 433.31,-28 437.54,-22.42"/>
</g>
<!-- Node14&#45;&gt;Node3 -->
<g id="edge17" class="edge">
<title>Node14&#45;&gt;Node3</title>
<path fill="none" stroke="#63b8ff" d="M623.22,-109.75C618.38,-102.42 611.32,-91.73 605.36,-82.7"/>
<polygon fill="#63b8ff" stroke="#63b8ff" points="608.1,-80.5 599.67,-74.09 602.26,-84.36 608.1,-80.5"/>
</g>
<!-- Node15 -->
<g id="node15" class="node">
<title>Node15</title>
<g id="a_node15"><a xlink:title=" ">
<polygon fill="#e0e0e0" stroke="#999999" points="688.5,-74 641.5,-74 641.5,-55 688.5,-55 688.5,-74"/>
<text text-anchor="middle" x="665" y="-62" font-family="Helvetica,sans-Serif" font-size="10.00">vector</text>
</a>
</g>
</g>
<!-- Node14&#45;&gt;Node15 -->
<g id="edge16" class="edge">
<title>Node14&#45;&gt;Node15</title>
<path fill="none" stroke="#63b8ff" d="M634.94,-109.75C639.98,-102.34 647.34,-91.5 653.51,-82.41"/>
<polygon fill="#63b8ff" stroke="#63b8ff" points="656.44,-84.33 659.17,-74.09 650.65,-80.39 656.44,-84.33"/>
</g>
<!-- Node16 -->
<g id="node16" class="node">
<title>Node16</title>
<g id="a_node16"><a xlink:title=" ">
<polygon fill="#e0e0e0" stroke="#999999" points="759.5,-74 706.5,-74 706.5,-55 759.5,-55 759.5,-74"/>
<text text-anchor="middle" x="733" y="-62" font-family="Helvetica,sans-Serif" font-size="10.00">iterator</text>
</a>
</g>
</g>
<!-- Node14&#45;&gt;Node16 -->
<g id="edge18" class="edge">
<title>Node14&#45;&gt;Node16</title>
<path fill="none" stroke="#63b8ff" d="M645.71,-109.98C662.21,-101.57 687.7,-88.59 706.88,-78.81"/>
<polygon fill="#63b8ff" stroke="#63b8ff" points="708.67,-81.83 715.99,-74.17 705.49,-75.59 708.67,-81.83"/>
</g>
</g>
</svg>
