<?xml version="1.0" encoding="UTF-8" standalone="no"?>
<!DOCTYPE svg PUBLIC "-//W3C//DTD SVG 1.1//EN"
 "http://www.w3.org/Graphics/SVG/1.1/DTD/svg11.dtd">
<!-- Generated by graphviz version 2.43.0 (0)
 -->
<!-- Title: DocbookDocVisitor Pages: 1 -->
<svg width="379pt" height="93pt"
 viewBox="0.00 0.00 379.00 93.00" xmlns="http://www.w3.org/2000/svg" xmlns:xlink="http://www.w3.org/1999/xlink">
<g id="graph0" class="graph" transform="scale(1 1) rotate(0) translate(4 89)">
<title>DocbookDocVisitor</title>
<!-- Node1 -->
<g id="node1" class="node">
<title>Node1</title>
<g id="a_node1"><a xlink:title="Concrete visitor implementation for Docbook output.">
<polygon fill="#999999" stroke="#666666" points="232.5,-19 122.5,-19 122.5,0 232.5,0 232.5,-19"/>
<text text-anchor="middle" x="177.5" y="-7" font-family="Helvetica,sans-Serif" font-size="10.00">DocbookDocVisitor</text>
</a>
</g>
</g>
<!-- Node2 -->
<g id="node2" class="node">
<title>Node2</title>
<g id="a_node2"><a xlink:href="../../d0/d78/class_doc_visitor.html" target="_top" xlink:title="Helper base class for functionality shared by all visitors.">
<polygon fill="white" stroke="#666666" points="67,-85 0,-85 0,-66 67,-66 67,-85"/>
<text text-anchor="middle" x="33.5" y="-73" font-family="Helvetica,sans-Serif" font-size="10.00">DocVisitor</text>
</a>
</g>
</g>
<!-- Node2&#45;&gt;Node1 -->
<g id="edge1" class="edge">
<title>Node2&#45;&gt;Node1</title>
<path fill="none" stroke="#63b8ff" d="M62.31,-61.69C90.69,-49.08 133.27,-30.16 157.93,-19.2"/>
<polygon fill="#63b8ff" stroke="#63b8ff" points="60.64,-58.61 52.92,-65.87 63.48,-65.01 60.64,-58.61"/>
</g>
<!-- Node3 -->
<g id="node3" class="node">
<title>Node3</title>
<g id="a_node3"><a xlink:href="../../d3/d30/class_text_stream.html" target="_top" xlink:title="Text streaming class that buffers data.">
<polygon fill="white" stroke="#666666" points="157.5,-85 85.5,-85 85.5,-66 157.5,-66 157.5,-85"/>
<text text-anchor="middle" x="121.5" y="-73" font-family="Helvetica,sans-Serif" font-size="10.00">TextStream</text>
</a>
</g>
</g>
<!-- Node3&#45;&gt;Node1 -->
<g id="edge2" class="edge">
<title>Node3&#45;&gt;Node1</title>
<path fill="none" stroke="#9a32cd" stroke-dasharray="5,2" d="M135.83,-58.12C146.61,-45.81 160.97,-29.39 169.71,-19.41"/>
<polygon fill="#9a32cd" stroke="#9a32cd" points="133,-56.04 129.05,-65.87 138.27,-60.65 133,-56.04"/>
<text text-anchor="middle" x="164.5" y="-40" font-family="Helvetica,sans-Serif" font-size="10.00" fill="grey"> m_t</text>
</g>
<!-- Node4 -->
<g id="node4" class="node">
<title>Node4</title>
<g id="a_node4"><a xlink:href="../../d5/d9c/class_code_output_interface.html" target="_top" xlink:title="Output interface for code parser.">
<polygon fill="white" stroke="#666666" points="293.5,-85 175.5,-85 175.5,-66 293.5,-66 293.5,-85"/>
<text text-anchor="middle" x="234.5" y="-73" font-family="Helvetica,sans-Serif" font-size="10.00">CodeOutputInterface</text>
</a>
</g>
</g>
<!-- Node4&#45;&gt;Node1 -->
<g id="edge3" class="edge">
<title>Node4&#45;&gt;Node1</title>
<path fill="none" stroke="#9a32cd" stroke-dasharray="5,2" d="M219.91,-58.12C208.94,-45.81 194.33,-29.39 185.43,-19.41"/>
<polygon fill="#9a32cd" stroke="#9a32cd" points="217.55,-60.73 226.81,-65.87 222.78,-56.07 217.55,-60.73"/>
<text text-anchor="middle" x="223" y="-40" font-family="Helvetica,sans-Serif" font-size="10.00" fill="grey"> m_ci</text>
</g>
<!-- Node5 -->
<g id="node5" class="node">
<title>Node5</title>
<g id="a_node5"><a xlink:href="../../d9/d45/class_q_c_string.html" target="_top" xlink:title="This is an alternative implementation of QCString.">
<polygon fill="white" stroke="#666666" points="371,-85 312,-85 312,-66 371,-66 371,-85"/>
<text text-anchor="middle" x="341.5" y="-73" font-family="Helvetica,sans-Serif" font-size="10.00">QCString</text>
</a>
</g>
</g>
<!-- Node5&#45;&gt;Node1 -->
<g id="edge4" class="edge">
<title>Node5&#45;&gt;Node1</title>
<path fill="none" stroke="#9a32cd" stroke-dasharray="5,2" d="M309.92,-62.18C277.51,-49.53 227.93,-30.18 199.53,-19.1"/>
<polygon fill="#9a32cd" stroke="#9a32cd" points="308.79,-65.49 319.38,-65.87 311.34,-58.97 308.79,-65.49"/>
<text text-anchor="middle" x="296" y="-40" font-family="Helvetica,sans-Serif" font-size="10.00" fill="grey"> m_langExt</text>
</g>
</g>
</svg>
