<?xml version="1.0" encoding="UTF-8" standalone="no"?>
<!DOCTYPE svg PUBLIC "-//W3C//DTD SVG 1.1//EN"
 "http://www.w3.org/Graphics/SVG/1.1/DTD/svg11.dtd">
<!-- Generated by graphviz version 2.43.0 (0)
 -->
<!-- Title: VHDLCodeParser::Private Pages: 1 -->
<svg width="636pt" height="295pt"
 viewBox="0.00 0.00 635.50 295.00" xmlns="http://www.w3.org/2000/svg" xmlns:xlink="http://www.w3.org/1999/xlink">
<g id="graph0" class="graph" transform="scale(1 1) rotate(0) translate(4 291)">
<title>VHDLCodeParser::Private</title>
<!-- Node1 -->
<g id="node1" class="node">
<title>Node1</title>
<g id="a_node1"><a xlink:title=" ">
<polygon fill="#999999" stroke="#666666" points="353,-19 214,-19 214,0 353,0 353,-19"/>
<text text-anchor="middle" x="283.5" y="-7" font-family="Helvetica,sans-Serif" font-size="10.00">VHDLCodeParser::Private</text>
</a>
</g>
</g>
<!-- Node2 -->
<g id="node2" class="node">
<title>Node2</title>
<g id="a_node2"><a xlink:href="../../db/d50/structvhdlcode_y_y__state.html" target="_top" xlink:title=" ">
<polygon fill="white" stroke="#666666" points="335,-85 232,-85 232,-66 335,-66 335,-85"/>
<text text-anchor="middle" x="283.5" y="-73" font-family="Helvetica,sans-Serif" font-size="10.00">vhdlcodeYY_state</text>
</a>
</g>
</g>
<!-- Node2&#45;&gt;Node1 -->
<g id="edge1" class="edge">
<title>Node2&#45;&gt;Node1</title>
<path fill="none" stroke="#9a32cd" stroke-dasharray="5,2" d="M283.5,-55.58C283.5,-43.63 283.5,-28.72 283.5,-19.41"/>
<polygon fill="#9a32cd" stroke="#9a32cd" points="280,-55.87 283.5,-65.87 287,-55.87 280,-55.87"/>
<text text-anchor="middle" x="297.5" y="-40" font-family="Helvetica,sans-Serif" font-size="10.00" fill="grey"> state</text>
</g>
<!-- Node3 -->
<g id="node3" class="node">
<title>Node3</title>
<g id="a_node3"><a xlink:href="../../d9/d45/class_q_c_string.html" target="_top" xlink:title="This is an alternative implementation of QCString.">
<polygon fill="white" stroke="#666666" points="59,-229.5 0,-229.5 0,-210.5 59,-210.5 59,-229.5"/>
<text text-anchor="middle" x="29.5" y="-217.5" font-family="Helvetica,sans-Serif" font-size="10.00">QCString</text>
</a>
</g>
</g>
<!-- Node3&#45;&gt;Node2 -->
<g id="edge2" class="edge">
<title>Node3&#45;&gt;Node2</title>
<path fill="none" stroke="#9a32cd" stroke-dasharray="5,2" d="M22.97,-200.52C15.3,-175.1 6.43,-129.49 30.5,-103 43.77,-88.39 161.86,-81.26 231.92,-78.29"/>
<polygon fill="#9a32cd" stroke="#9a32cd" points="19.75,-201.93 26.19,-210.35 26.4,-199.76 19.75,-201.93"/>
<text text-anchor="middle" x="67" y="-183" font-family="Helvetica,sans-Serif" font-size="10.00" fill="grey"> PortMapComp</text>
<text text-anchor="middle" x="67" y="-172" font-family="Helvetica,sans-Serif" font-size="10.00" fill="grey">currClass</text>
<text text-anchor="middle" x="67" y="-161" font-family="Helvetica,sans-Serif" font-size="10.00" fill="grey">exampleFile</text>
<text text-anchor="middle" x="67" y="-150" font-family="Helvetica,sans-Serif" font-size="10.00" fill="grey">exampleName</text>
<text text-anchor="middle" x="67" y="-139" font-family="Helvetica,sans-Serif" font-size="10.00" fill="grey">fileName</text>
<text text-anchor="middle" x="67" y="-128" font-family="Helvetica,sans-Serif" font-size="10.00" fill="grey">funcProto</text>
<text text-anchor="middle" x="67" y="-117" font-family="Helvetica,sans-Serif" font-size="10.00" fill="grey">prevString</text>
<text text-anchor="middle" x="67" y="-106" font-family="Helvetica,sans-Serif" font-size="10.00" fill="grey">tempComp</text>
</g>
<!-- Node4 -->
<g id="node4" class="node">
<title>Node4</title>
<g id="a_node4"><a xlink:href="../../da/d09/class_member_def.html" target="_top" xlink:title="A model of a class/file/namespace member symbol.">
<polygon fill="white" stroke="#666666" points="294.5,-229.5 220.5,-229.5 220.5,-210.5 294.5,-210.5 294.5,-229.5"/>
<text text-anchor="middle" x="257.5" y="-217.5" font-family="Helvetica,sans-Serif" font-size="10.00">MemberDef</text>
</a>
</g>
</g>
<!-- Node4&#45;&gt;Node2 -->
<g id="edge3" class="edge">
<title>Node4&#45;&gt;Node2</title>
<path fill="none" stroke="#9a32cd" stroke-dasharray="5,2" d="M235.06,-203.89C231.18,-200.16 227.69,-195.83 225.5,-191 209.34,-155.38 204.36,-135.9 225.5,-103 230.83,-94.71 239.46,-88.98 248.46,-85.04"/>
<polygon fill="#9a32cd" stroke="#9a32cd" points="232.84,-206.59 242.77,-210.28 237.3,-201.2 232.84,-206.59"/>
<text text-anchor="middle" x="273.5" y="-150" font-family="Helvetica,sans-Serif" font-size="10.00" fill="grey"> currentMemberDef</text>
<text text-anchor="middle" x="273.5" y="-139" font-family="Helvetica,sans-Serif" font-size="10.00" fill="grey">vhdlMember</text>
</g>
<!-- Node5 -->
<g id="node5" class="node">
<title>Node5</title>
<g id="a_node5"><a xlink:href="../../d5/dcc/class_definition.html" target="_top" xlink:title="The common base class of all entity definitions found in the sources.">
<polygon fill="white" stroke="#666666" points="273.5,-287 209.5,-287 209.5,-268 273.5,-268 273.5,-287"/>
<text text-anchor="middle" x="241.5" y="-275" font-family="Helvetica,sans-Serif" font-size="10.00">Definition</text>
</a>
</g>
</g>
<!-- Node5&#45;&gt;Node2 -->
<g id="edge6" class="edge">
<title>Node5&#45;&gt;Node2</title>
<path fill="none" stroke="#9a32cd" stroke-dasharray="5,2" d="M199.42,-271.64C173.71,-266.25 142.75,-254.91 126.5,-231 121,-222.91 123.39,-218.27 126.5,-209 145.25,-153.03 158.73,-137.67 206.5,-103 217.71,-94.86 231.62,-89.07 244.53,-85.02"/>
<polygon fill="#9a32cd" stroke="#9a32cd" points="198.86,-275.09 209.33,-273.48 200.14,-268.21 198.86,-275.09"/>
<text text-anchor="middle" x="169" y="-223" font-family="Helvetica,sans-Serif" font-size="10.00" fill="grey"> currentDefinition</text>
<text text-anchor="middle" x="169" y="-212" font-family="Helvetica,sans-Serif" font-size="10.00" fill="grey">searchCtx</text>
</g>
<!-- Node5&#45;&gt;Node4 -->
<g id="edge4" class="edge">
<title>Node5&#45;&gt;Node4</title>
<path fill="none" stroke="#63b8ff" d="M246.82,-258.06C249.56,-248.54 252.78,-237.36 254.96,-229.79"/>
<polygon fill="#63b8ff" stroke="#63b8ff" points="243.41,-257.25 244,-267.83 250.13,-259.19 243.41,-257.25"/>
</g>
<!-- Node7 -->
<g id="node7" class="node">
<title>Node7</title>
<g id="a_node7"><a xlink:href="../../de/db0/class_file_def.html" target="_top" xlink:title="A model of a file symbol.">
<polygon fill="white" stroke="#666666" points="364,-229.5 313,-229.5 313,-210.5 364,-210.5 364,-229.5"/>
<text text-anchor="middle" x="338.5" y="-217.5" font-family="Helvetica,sans-Serif" font-size="10.00">FileDef</text>
</a>
</g>
</g>
<!-- Node5&#45;&gt;Node7 -->
<g id="edge9" class="edge">
<title>Node5&#45;&gt;Node7</title>
<path fill="none" stroke="#63b8ff" d="M265.5,-262.77C283.63,-252.39 307.97,-238.47 323.45,-229.61"/>
<polygon fill="#63b8ff" stroke="#63b8ff" points="263.6,-259.82 256.66,-267.83 267.07,-265.9 263.6,-259.82"/>
</g>
<!-- Node6 -->
<g id="node6" class="node">
<title>Node6</title>
<g id="a_node6"><a xlink:href="../../d5/d9c/class_code_output_interface.html" target="_top" xlink:title="Output interface for code parser.">
<polygon fill="white" stroke="#666666" points="500.5,-229.5 382.5,-229.5 382.5,-210.5 500.5,-210.5 500.5,-229.5"/>
<text text-anchor="middle" x="441.5" y="-217.5" font-family="Helvetica,sans-Serif" font-size="10.00">CodeOutputInterface</text>
</a>
</g>
</g>
<!-- Node6&#45;&gt;Node2 -->
<g id="edge5" class="edge">
<title>Node6&#45;&gt;Node2</title>
<path fill="none" stroke="#9a32cd" stroke-dasharray="5,2" d="M442.69,-199.91C443.17,-174.12 439.87,-128.45 413.5,-103 402.27,-92.16 366.51,-85.38 335.33,-81.38"/>
<polygon fill="#9a32cd" stroke="#9a32cd" points="439.18,-200.08 442.27,-210.22 446.17,-200.37 439.18,-200.08"/>
<text text-anchor="middle" x="456" y="-144.5" font-family="Helvetica,sans-Serif" font-size="10.00" fill="grey"> code</text>
</g>
<!-- Node7&#45;&gt;Node2 -->
<g id="edge7" class="edge">
<title>Node7&#45;&gt;Node2</title>
<path fill="none" stroke="#9a32cd" stroke-dasharray="5,2" d="M340.11,-200.35C341.29,-176.08 340.16,-133.19 321.5,-103 316.85,-95.47 309.18,-89.52 301.94,-85.18"/>
<polygon fill="#9a32cd" stroke="#9a32cd" points="336.61,-200.15 339.44,-210.36 343.6,-200.62 336.61,-200.15"/>
<text text-anchor="middle" x="374.5" y="-144.5" font-family="Helvetica,sans-Serif" font-size="10.00" fill="grey"> sourceFileDef</text>
</g>
<!-- Node8 -->
<g id="node8" class="node">
<title>Node8</title>
<g id="a_node8"><a xlink:href="../../d0/d46/class_definition_mutable.html" target="_top" xlink:title=" ">
<polygon fill="white" stroke="#666666" points="395.5,-287 291.5,-287 291.5,-268 395.5,-268 395.5,-287"/>
<text text-anchor="middle" x="343.5" y="-275" font-family="Helvetica,sans-Serif" font-size="10.00">DefinitionMutable</text>
</a>
</g>
</g>
<!-- Node8&#45;&gt;Node7 -->
<g id="edge8" class="edge">
<title>Node8&#45;&gt;Node7</title>
<path fill="none" stroke="#63b8ff" d="M341.81,-257.75C340.96,-248.3 339.97,-237.28 339.29,-229.79"/>
<polygon fill="#63b8ff" stroke="#63b8ff" points="338.34,-258.18 342.72,-267.83 345.31,-257.55 338.34,-258.18"/>
</g>
<!-- Node9 -->
<g id="node9" class="node">
<title>Node9</title>
<g id="a_node9"><a xlink:href="../../d5/dae/class_tooltip_manager.html" target="_top" xlink:title="Class that manages the tooltips for a source file.">
<polygon fill="white" stroke="#666666" points="610.5,-229.5 518.5,-229.5 518.5,-210.5 610.5,-210.5 610.5,-229.5"/>
<text text-anchor="middle" x="564.5" y="-217.5" font-family="Helvetica,sans-Serif" font-size="10.00">TooltipManager</text>
</a>
</g>
</g>
<!-- Node9&#45;&gt;Node2 -->
<g id="edge10" class="edge">
<title>Node9&#45;&gt;Node2</title>
<path fill="none" stroke="#9a32cd" stroke-dasharray="5,2" d="M556.18,-201.29C542.79,-174.99 513.85,-126.21 473.5,-103 450.62,-89.84 383.24,-82.82 335.23,-79.38"/>
<polygon fill="#9a32cd" stroke="#9a32cd" points="553.13,-203.02 560.67,-210.46 559.41,-199.94 553.13,-203.02"/>
<text text-anchor="middle" x="588.5" y="-144.5" font-family="Helvetica,sans-Serif" font-size="10.00" fill="grey"> tooltipManager</text>
</g>
</g>
</svg>
