<?xml version="1.0" encoding="UTF-8" standalone="no"?>
<!DOCTYPE svg PUBLIC "-//W3C//DTD SVG 1.1//EN"
 "http://www.w3.org/Graphics/SVG/1.1/DTD/svg11.dtd">
<!-- Generated by graphviz version 2.43.0 (0)
 -->
<!-- Title: FilePair Pages: 1 -->
<svg width="194pt" height="160pt"
 viewBox="0.00 0.00 194.00 160.00" xmlns="http://www.w3.org/2000/svg" xmlns:xlink="http://www.w3.org/1999/xlink">
<g id="graph0" class="graph" transform="scale(1 1) rotate(0) translate(4 156)">
<title>FilePair</title>
<!-- Node1 -->
<g id="node1" class="node">
<title>Node1</title>
<g id="a_node1"><a xlink:title="Class representing a pair of FileDef objects.">
<polygon fill="#999999" stroke="#666666" points="129,-19 77,-19 77,0 129,0 129,-19"/>
<text text-anchor="middle" x="103" y="-7" font-family="Helvetica,sans-Serif" font-size="10.00">FilePair</text>
</a>
</g>
</g>
<!-- Node2 -->
<g id="node2" class="node">
<title>Node2</title>
<g id="a_node2"><a xlink:href="../../de/db0/class_file_def.html" target="_top" xlink:title="A model of a file symbol.">
<polygon fill="white" stroke="#666666" points="128.5,-96 77.5,-96 77.5,-77 128.5,-77 128.5,-96"/>
<text text-anchor="middle" x="103" y="-84" font-family="Helvetica,sans-Serif" font-size="10.00">FileDef</text>
</a>
</g>
</g>
<!-- Node2&#45;&gt;Node1 -->
<g id="edge1" class="edge">
<title>Node2&#45;&gt;Node1</title>
<path fill="none" stroke="#9a32cd" stroke-dasharray="5,2" d="M103,-66.52C103,-51.24 103,-30.48 103,-19"/>
<polygon fill="#9a32cd" stroke="#9a32cd" points="99.5,-66.9 103,-76.9 106.5,-66.9 99.5,-66.9"/>
<text text-anchor="middle" x="120" y="-51" font-family="Helvetica,sans-Serif" font-size="10.00" fill="grey"> m_dst</text>
<text text-anchor="middle" x="120" y="-40" font-family="Helvetica,sans-Serif" font-size="10.00" fill="grey">m_src</text>
</g>
<!-- Node3 -->
<g id="node3" class="node">
<title>Node3</title>
<g id="a_node3"><a xlink:href="../../d0/d46/class_definition_mutable.html" target="_top" xlink:title=" ">
<polygon fill="white" stroke="#666666" points="104,-152 0,-152 0,-133 104,-133 104,-152"/>
<text text-anchor="middle" x="52" y="-140" font-family="Helvetica,sans-Serif" font-size="10.00">DefinitionMutable</text>
</a>
</g>
</g>
<!-- Node3&#45;&gt;Node2 -->
<g id="edge2" class="edge">
<title>Node3&#45;&gt;Node2</title>
<path fill="none" stroke="#63b8ff" d="M67.38,-125.22C76.37,-115.7 87.36,-104.06 94.74,-96.25"/>
<polygon fill="#63b8ff" stroke="#63b8ff" points="64.74,-122.91 60.42,-132.58 69.83,-127.72 64.74,-122.91"/>
</g>
<!-- Node4 -->
<g id="node4" class="node">
<title>Node4</title>
<g id="a_node4"><a xlink:href="../../d5/dcc/class_definition.html" target="_top" xlink:title="The common base class of all entity definitions found in the sources.">
<polygon fill="white" stroke="#666666" points="186,-152 122,-152 122,-133 186,-133 186,-152"/>
<text text-anchor="middle" x="154" y="-140" font-family="Helvetica,sans-Serif" font-size="10.00">Definition</text>
</a>
</g>
</g>
<!-- Node4&#45;&gt;Node2 -->
<g id="edge3" class="edge">
<title>Node4&#45;&gt;Node2</title>
<path fill="none" stroke="#63b8ff" d="M138.62,-125.22C129.63,-115.7 118.64,-104.06 111.26,-96.25"/>
<polygon fill="#63b8ff" stroke="#63b8ff" points="136.17,-127.72 145.58,-132.58 141.26,-122.91 136.17,-127.72"/>
</g>
</g>
</svg>
