<?xml version="1.0" encoding="UTF-8" standalone="no"?>
<!DOCTYPE svg PUBLIC "-//W3C//DTD SVG 1.1//EN"
 "http://www.w3.org/Graphics/SVG/1.1/DTD/svg11.dtd">
<!-- Generated by graphviz version 2.43.0 (0)
 -->
<!-- Title: /home/runner/work/doxygen/doxygen/src/dotnode.h Pages: 1 -->
<svg width="782pt" height="258pt"
 viewBox="0.00 0.00 782.00 258.00" xmlns="http://www.w3.org/2000/svg" xmlns:xlink="http://www.w3.org/1999/xlink">
<g id="graph0" class="graph" transform="scale(1 1) rotate(0) translate(4 254)">
<title>/home/runner/work/doxygen/doxygen/src/dotnode.h</title>
<!-- Node1 -->
<g id="node1" class="node">
<title>Node1</title>
<g id="a_node1"><a xlink:title=" ">
<polygon fill="#999999" stroke="#666666" points="221.5,-250 67.5,-250 67.5,-220 221.5,-220 221.5,-250"/>
<text text-anchor="start" x="75.5" y="-238" font-family="Helvetica,sans-Serif" font-size="10.00">/home/runner/work/doxygen</text>
<text text-anchor="middle" x="144.5" y="-227" font-family="Helvetica,sans-Serif" font-size="10.00">/doxygen/src/dotnode.h</text>
</a>
</g>
</g>
<!-- Node2 -->
<g id="node2" class="node">
<title>Node2</title>
<g id="a_node2"><a xlink:title=" ">
<polygon fill="#e0e0e0" stroke="#999999" points="47,-184 0,-184 0,-165 47,-165 47,-184"/>
<text text-anchor="middle" x="23.5" y="-172" font-family="Helvetica,sans-Serif" font-size="10.00">vector</text>
</a>
</g>
</g>
<!-- Node1&#45;&gt;Node2 -->
<g id="edge1" class="edge">
<title>Node1&#45;&gt;Node2</title>
<path fill="none" stroke="#63b8ff" d="M115.52,-219.99C95.78,-210.45 69.83,-197.9 50.53,-188.57"/>
<polygon fill="#63b8ff" stroke="#63b8ff" points="51.9,-185.34 41.37,-184.14 48.85,-191.64 51.9,-185.34"/>
</g>
<!-- Node3 -->
<g id="node3" class="node">
<title>Node3</title>
<g id="a_node3"><a xlink:title=" ">
<polygon fill="#e0e0e0" stroke="#999999" points="65.5,-129 27.5,-129 27.5,-110 65.5,-110 65.5,-129"/>
<text text-anchor="middle" x="46.5" y="-117" font-family="Helvetica,sans-Serif" font-size="10.00">map</text>
</a>
</g>
</g>
<!-- Node1&#45;&gt;Node3 -->
<g id="edge2" class="edge">
<title>Node1&#45;&gt;Node3</title>
<path fill="none" stroke="#63b8ff" d="M132.09,-219.63C113.82,-198.47 79.79,-159.05 60.6,-136.83"/>
<polygon fill="#63b8ff" stroke="#63b8ff" points="63.22,-134.51 54.04,-129.23 57.92,-139.09 63.22,-134.51"/>
</g>
<!-- Node4 -->
<g id="node4" class="node">
<title>Node4</title>
<g id="a_node4"><a xlink:title=" ">
<polygon fill="#e0e0e0" stroke="#999999" points="347,-184 300,-184 300,-165 347,-165 347,-184"/>
<text text-anchor="middle" x="323.5" y="-172" font-family="Helvetica,sans-Serif" font-size="10.00">deque</text>
</a>
</g>
</g>
<!-- Node1&#45;&gt;Node4 -->
<g id="edge3" class="edge">
<title>Node1&#45;&gt;Node4</title>
<path fill="none" stroke="#63b8ff" d="M187.37,-219.99C218.92,-209.68 261.2,-195.86 290.22,-186.38"/>
<polygon fill="#63b8ff" stroke="#63b8ff" points="291.47,-189.65 299.89,-183.22 289.3,-182.99 291.47,-189.65"/>
</g>
<!-- Node5 -->
<g id="node5" class="node">
<title>Node5</title>
<g id="a_node5"><a xlink:title=" ">
<polygon fill="#e0e0e0" stroke="#999999" points="143.5,-129 83.5,-129 83.5,-110 143.5,-110 143.5,-129"/>
<text text-anchor="middle" x="113.5" y="-117" font-family="Helvetica,sans-Serif" font-size="10.00">iostream</text>
</a>
</g>
</g>
<!-- Node1&#45;&gt;Node5 -->
<g id="edge4" class="edge">
<title>Node1&#45;&gt;Node5</title>
<path fill="none" stroke="#63b8ff" d="M140.57,-219.63C134.97,-199.12 124.69,-161.47 118.54,-138.93"/>
<polygon fill="#63b8ff" stroke="#63b8ff" points="121.9,-137.95 115.88,-129.23 115.14,-139.8 121.9,-137.95"/>
</g>
<!-- Node6 -->
<g id="node6" class="node">
<title>Node6</title>
<g id="a_node6"><a xlink:href="../../d9/d49/types_8h.html" target="_top" xlink:title="This file contains a number of basic enums and types.">
<polygon fill="white" stroke="#666666" points="282,-184 229,-184 229,-165 282,-165 282,-184"/>
<text text-anchor="middle" x="255.5" y="-172" font-family="Helvetica,sans-Serif" font-size="10.00">types.h</text>
</a>
</g>
</g>
<!-- Node1&#45;&gt;Node6 -->
<g id="edge5" class="edge">
<title>Node1&#45;&gt;Node6</title>
<path fill="none" stroke="#63b8ff" d="M171.09,-219.99C188.95,-210.58 212.34,-198.24 229.98,-188.95"/>
<polygon fill="#63b8ff" stroke="#63b8ff" points="231.89,-191.9 239.11,-184.14 228.63,-185.71 231.89,-191.9"/>
</g>
<!-- Node17 -->
<g id="node17" class="node">
<title>Node17</title>
<g id="a_node17"><a xlink:href="../../d0/daa/dotgraph_8h.html" target="_top" xlink:title=" ">
<polygon fill="white" stroke="#666666" points="211,-184 142,-184 142,-165 211,-165 211,-184"/>
<text text-anchor="middle" x="176.5" y="-172" font-family="Helvetica,sans-Serif" font-size="10.00">dotgraph.h</text>
</a>
</g>
</g>
<!-- Node1&#45;&gt;Node17 -->
<g id="edge18" class="edge">
<title>Node1&#45;&gt;Node17</title>
<path fill="none" stroke="#63b8ff" d="M152.25,-219.84C156.65,-211.78 162.21,-201.62 166.9,-193.06"/>
<polygon fill="#63b8ff" stroke="#63b8ff" points="169.98,-194.72 171.7,-184.27 163.84,-191.36 169.98,-194.72"/>
</g>
<!-- Node7 -->
<g id="node7" class="node">
<title>Node7</title>
<g id="a_node7"><a xlink:href="../../d7/d5c/qcstring_8h.html" target="_top" xlink:title=" ">
<polygon fill="white" stroke="#666666" points="432,-129 367,-129 367,-110 432,-110 432,-129"/>
<text text-anchor="middle" x="399.5" y="-117" font-family="Helvetica,sans-Serif" font-size="10.00">qcstring.h</text>
</a>
</g>
</g>
<!-- Node6&#45;&gt;Node7 -->
<g id="edge6" class="edge">
<title>Node6&#45;&gt;Node7</title>
<path fill="none" stroke="#63b8ff" d="M278.64,-164.98C302.32,-156.27 339.37,-142.63 366.21,-132.75"/>
<polygon fill="#63b8ff" stroke="#63b8ff" points="367.77,-135.91 375.94,-129.17 365.35,-129.34 367.77,-135.91"/>
</g>
<!-- Node8 -->
<g id="node8" class="node">
<title>Node8</title>
<g id="a_node8"><a xlink:title=" ">
<polygon fill="#e0e0e0" stroke="#999999" points="210.5,-19 166.5,-19 166.5,0 210.5,0 210.5,-19"/>
<text text-anchor="middle" x="188.5" y="-7" font-family="Helvetica,sans-Serif" font-size="10.00">string</text>
</a>
</g>
</g>
<!-- Node7&#45;&gt;Node8 -->
<g id="edge7" class="edge">
<title>Node7&#45;&gt;Node8</title>
<path fill="none" stroke="#63b8ff" d="M366.82,-112.54C336.92,-106.12 292.18,-94.03 257.5,-74 235.82,-61.48 215.28,-41.08 202.34,-26.79"/>
<polygon fill="#63b8ff" stroke="#63b8ff" points="204.88,-24.38 195.65,-19.19 199.63,-29.01 204.88,-24.38"/>
</g>
<!-- Node9 -->
<g id="node9" class="node">
<title>Node9</title>
<g id="a_node9"><a xlink:title=" ">
<polygon fill="#e0e0e0" stroke="#999999" points="431.5,-74 367.5,-74 367.5,-55 431.5,-55 431.5,-74"/>
<text text-anchor="middle" x="399.5" y="-62" font-family="Helvetica,sans-Serif" font-size="10.00">algorithm</text>
</a>
</g>
</g>
<!-- Node7&#45;&gt;Node9 -->
<g id="edge8" class="edge">
<title>Node7&#45;&gt;Node9</title>
<path fill="none" stroke="#63b8ff" d="M399.5,-109.75C399.5,-102.8 399.5,-92.85 399.5,-84.13"/>
<polygon fill="#63b8ff" stroke="#63b8ff" points="403,-84.09 399.5,-74.09 396,-84.09 403,-84.09"/>
</g>
<!-- Node10 -->
<g id="node10" class="node">
<title>Node10</title>
<g id="a_node10"><a xlink:title=" ">
<polygon fill="#e0e0e0" stroke="#999999" points="499,-74 450,-74 450,-55 499,-55 499,-74"/>
<text text-anchor="middle" x="474.5" y="-62" font-family="Helvetica,sans-Serif" font-size="10.00">cctype</text>
</a>
</g>
</g>
<!-- Node7&#45;&gt;Node10 -->
<g id="edge9" class="edge">
<title>Node7&#45;&gt;Node10</title>
<path fill="none" stroke="#63b8ff" d="M411.55,-109.98C422.96,-101.92 440.33,-89.65 453.93,-80.03"/>
<polygon fill="#63b8ff" stroke="#63b8ff" points="456.08,-82.8 462.23,-74.17 452.04,-77.08 456.08,-82.8"/>
</g>
<!-- Node11 -->
<g id="node11" class="node">
<title>Node11</title>
<g id="a_node11"><a xlink:title=" ">
<polygon fill="#e0e0e0" stroke="#999999" points="567.5,-74 517.5,-74 517.5,-55 567.5,-55 567.5,-74"/>
<text text-anchor="middle" x="542.5" y="-62" font-family="Helvetica,sans-Serif" font-size="10.00">cstring</text>
</a>
</g>
</g>
<!-- Node7&#45;&gt;Node11 -->
<g id="edge10" class="edge">
<title>Node7&#45;&gt;Node11</title>
<path fill="none" stroke="#63b8ff" d="M422.48,-109.98C446,-101.27 482.79,-87.63 509.44,-77.75"/>
<polygon fill="#63b8ff" stroke="#63b8ff" points="510.95,-80.93 519.11,-74.17 508.51,-74.36 510.95,-80.93"/>
</g>
<!-- Node12 -->
<g id="node12" class="node">
<title>Node12</title>
<g id="a_node12"><a xlink:title=" ">
<polygon fill="#e0e0e0" stroke="#999999" points="631.5,-74 585.5,-74 585.5,-55 631.5,-55 631.5,-74"/>
<text text-anchor="middle" x="608.5" y="-62" font-family="Helvetica,sans-Serif" font-size="10.00">cstdio</text>
</a>
</g>
</g>
<!-- Node7&#45;&gt;Node12 -->
<g id="edge11" class="edge">
<title>Node7&#45;&gt;Node12</title>
<path fill="none" stroke="#63b8ff" d="M432.16,-110.43C465.75,-102.09 519.86,-88.59 575.73,-74.17"/>
<polygon fill="#63b8ff" stroke="#63b8ff" points="576.63,-77.56 585.44,-71.67 574.88,-70.78 576.63,-77.56"/>
</g>
<!-- Node13 -->
<g id="node13" class="node">
<title>Node13</title>
<g id="a_node13"><a xlink:title=" ">
<polygon fill="#e0e0e0" stroke="#999999" points="699,-74 650,-74 650,-55 699,-55 699,-74"/>
<text text-anchor="middle" x="674.5" y="-62" font-family="Helvetica,sans-Serif" font-size="10.00">cstdlib</text>
</a>
</g>
</g>
<!-- Node7&#45;&gt;Node13 -->
<g id="edge12" class="edge">
<title>Node7&#45;&gt;Node13</title>
<path fill="none" stroke="#63b8ff" d="M432.37,-113.1C476.98,-105.62 559.37,-91.31 639.41,-74.12"/>
<polygon fill="#63b8ff" stroke="#63b8ff" points="640.63,-77.44 649.66,-71.9 639.15,-70.6 640.63,-77.44"/>
</g>
<!-- Node14 -->
<g id="node14" class="node">
<title>Node14</title>
<g id="a_node14"><a xlink:title=" ">
<polygon fill="#e0e0e0" stroke="#999999" points="338.5,-19 288.5,-19 288.5,0 338.5,0 338.5,-19"/>
<text text-anchor="middle" x="313.5" y="-7" font-family="Helvetica,sans-Serif" font-size="10.00">cstdint</text>
</a>
</g>
</g>
<!-- Node7&#45;&gt;Node14 -->
<g id="edge13" class="edge">
<title>Node7&#45;&gt;Node14</title>
<path fill="none" stroke="#63b8ff" d="M390.99,-109.93C382.45,-101.18 369.08,-87.06 358.5,-74 346.32,-58.96 333.69,-40.87 324.91,-27.85"/>
<polygon fill="#63b8ff" stroke="#63b8ff" points="327.73,-25.77 319.27,-19.39 321.91,-29.65 327.73,-25.77"/>
</g>
<!-- Node15 -->
<g id="node15" class="node">
<title>Node15</title>
<g id="a_node15"><a xlink:title=" ">
<polygon fill="#e0e0e0" stroke="#999999" points="774,-74 717,-74 717,-55 774,-55 774,-74"/>
<text text-anchor="middle" x="745.5" y="-62" font-family="Helvetica,sans-Serif" font-size="10.00">ostream</text>
</a>
</g>
</g>
<!-- Node7&#45;&gt;Node15 -->
<g id="edge14" class="edge">
<title>Node7&#45;&gt;Node15</title>
<path fill="none" stroke="#63b8ff" d="M432.12,-114.7C486.93,-108.13 601.14,-93.6 706.98,-74.16"/>
<polygon fill="#63b8ff" stroke="#63b8ff" points="707.67,-77.59 716.87,-72.32 706.39,-70.71 707.67,-77.59"/>
</g>
<!-- Node16 -->
<g id="node16" class="node">
<title>Node16</title>
<g id="a_node16"><a xlink:href="../../db/d7c/utf8_8h.html" target="_top" xlink:title="Various UTF8 related helper functions.">
<polygon fill="white" stroke="#666666" points="311,-74 266,-74 266,-55 311,-55 311,-74"/>
<text text-anchor="middle" x="288.5" y="-62" font-family="Helvetica,sans-Serif" font-size="10.00">utf8.h</text>
</a>
</g>
</g>
<!-- Node7&#45;&gt;Node16 -->
<g id="edge15" class="edge">
<title>Node7&#45;&gt;Node16</title>
<path fill="none" stroke="#63b8ff" d="M381.67,-109.98C363.89,-101.5 336.35,-88.35 315.82,-78.54"/>
<polygon fill="#63b8ff" stroke="#63b8ff" points="317.19,-75.32 306.66,-74.17 314.17,-81.64 317.19,-75.32"/>
</g>
<!-- Node16&#45;&gt;Node8 -->
<g id="edge17" class="edge">
<title>Node16&#45;&gt;Node8</title>
<path fill="none" stroke="#63b8ff" d="M272.43,-54.98C256.64,-46.61 232.28,-33.7 213.87,-23.95"/>
<polygon fill="#63b8ff" stroke="#63b8ff" points="215.33,-20.76 204.86,-19.17 212.06,-26.95 215.33,-20.76"/>
</g>
<!-- Node16&#45;&gt;Node14 -->
<g id="edge16" class="edge">
<title>Node16&#45;&gt;Node14</title>
<path fill="none" stroke="#63b8ff" d="M292.63,-54.75C296.01,-47.57 300.92,-37.18 305.12,-28.27"/>
<polygon fill="#63b8ff" stroke="#63b8ff" points="308.35,-29.63 309.45,-19.09 302.02,-26.64 308.35,-29.63"/>
</g>
<!-- Node17&#45;&gt;Node3 -->
<g id="edge20" class="edge">
<title>Node17&#45;&gt;Node3</title>
<path fill="none" stroke="#63b8ff" d="M155.61,-164.98C133.79,-156.09 99.4,-142.07 75.06,-132.15"/>
<polygon fill="#63b8ff" stroke="#63b8ff" points="76.22,-128.84 65.64,-128.3 73.58,-135.32 76.22,-128.84"/>
</g>
<!-- Node17&#45;&gt;Node5 -->
<g id="edge19" class="edge">
<title>Node17&#45;&gt;Node5</title>
<path fill="none" stroke="#63b8ff" d="M166.38,-164.98C157.06,-157.15 143.03,-145.34 131.76,-135.86"/>
<polygon fill="#63b8ff" stroke="#63b8ff" points="133.71,-132.93 123.81,-129.17 129.21,-138.29 133.71,-132.93"/>
</g>
<!-- Node17&#45;&gt;Node7 -->
<g id="edge21" class="edge">
<title>Node17&#45;&gt;Node7</title>
<path fill="none" stroke="#63b8ff" d="M211.34,-165.22C250.61,-155.89 314.47,-140.71 356.73,-130.67"/>
<polygon fill="#63b8ff" stroke="#63b8ff" points="357.8,-134.01 366.72,-128.29 356.18,-127.2 357.8,-134.01"/>
</g>
<!-- Node18 -->
<g id="node18" class="node">
<title>Node18</title>
<g id="a_node18"><a xlink:href="../../df/d9c/dir_8h.html" target="_top" xlink:title=" ">
<polygon fill="white" stroke="#666666" points="199.5,-129 161.5,-129 161.5,-110 199.5,-110 199.5,-129"/>
<text text-anchor="middle" x="180.5" y="-117" font-family="Helvetica,sans-Serif" font-size="10.00">dir.h</text>
</a>
</g>
</g>
<!-- Node17&#45;&gt;Node18 -->
<g id="edge22" class="edge">
<title>Node17&#45;&gt;Node18</title>
<path fill="none" stroke="#63b8ff" d="M177.16,-164.75C177.68,-157.8 178.44,-147.85 179.09,-139.13"/>
<polygon fill="#63b8ff" stroke="#63b8ff" points="182.59,-139.32 179.85,-129.09 175.61,-138.8 182.59,-139.32"/>
</g>
<!-- Node18&#45;&gt;Node8 -->
<g id="edge23" class="edge">
<title>Node18&#45;&gt;Node8</title>
<path fill="none" stroke="#63b8ff" d="M161.42,-112.42C130.23,-102.3 71.17,-82.28 65.5,-74 60.73,-67.03 60.65,-61.91 65.5,-55 85.83,-26.03 127,-15.84 156.09,-12.3"/>
<polygon fill="#63b8ff" stroke="#63b8ff" points="156.61,-15.77 166.21,-11.28 155.9,-8.8 156.61,-15.77"/>
</g>
<!-- Node19 -->
<g id="node19" class="node">
<title>Node19</title>
<g id="a_node19"><a xlink:title=" ">
<polygon fill="#e0e0e0" stroke="#999999" points="209.5,-74 151.5,-74 151.5,-55 209.5,-55 209.5,-74"/>
<text text-anchor="middle" x="180.5" y="-62" font-family="Helvetica,sans-Serif" font-size="10.00">memory</text>
</a>
</g>
</g>
<!-- Node18&#45;&gt;Node19 -->
<g id="edge24" class="edge">
<title>Node18&#45;&gt;Node19</title>
<path fill="none" stroke="#63b8ff" d="M180.5,-109.75C180.5,-102.8 180.5,-92.85 180.5,-84.13"/>
<polygon fill="#63b8ff" stroke="#63b8ff" points="184,-84.09 180.5,-74.09 177,-84.09 184,-84.09"/>
</g>
<!-- Node20 -->
<g id="node20" class="node">
<title>Node20</title>
<g id="a_node20"><a xlink:href="../../df/d45/fileinfo_8h.html" target="_top" xlink:title=" ">
<polygon fill="white" stroke="#666666" points="133,-74 74,-74 74,-55 133,-55 133,-74"/>
<text text-anchor="middle" x="103.5" y="-62" font-family="Helvetica,sans-Serif" font-size="10.00">fileinfo.h</text>
</a>
</g>
</g>
<!-- Node18&#45;&gt;Node20 -->
<g id="edge25" class="edge">
<title>Node18&#45;&gt;Node20</title>
<path fill="none" stroke="#63b8ff" d="M168.13,-109.98C156.41,-101.92 138.58,-89.65 124.61,-80.03"/>
<polygon fill="#63b8ff" stroke="#63b8ff" points="126.32,-76.96 116.1,-74.17 122.35,-82.72 126.32,-76.96"/>
</g>
<!-- Node20&#45;&gt;Node8 -->
<g id="edge26" class="edge">
<title>Node20&#45;&gt;Node8</title>
<path fill="none" stroke="#63b8ff" d="M117.16,-54.98C130.34,-46.77 150.53,-34.18 166.07,-24.49"/>
<polygon fill="#63b8ff" stroke="#63b8ff" points="167.96,-27.43 174.59,-19.17 164.26,-21.49 167.96,-27.43"/>
</g>
</g>
</svg>
