<?xml version="1.0" encoding="UTF-8" standalone="no"?>
<!DOCTYPE svg PUBLIC "-//W3C//DTD SVG 1.1//EN"
 "http://www.w3.org/Graphics/SVG/1.1/DTD/svg11.dtd">
<!-- Generated by graphviz version 2.43.0 (0)
 -->
<!-- Title: DefinitionAliasMixin&lt; Base &gt; Pages: 1 -->
<svg width="627pt" height="182pt"
 viewBox="0.00 0.00 627.00 182.00" xmlns="http://www.w3.org/2000/svg" xmlns:xlink="http://www.w3.org/1999/xlink">
<g id="graph0" class="graph" transform="scale(1 1) rotate(0) translate(4 178)">
<title>DefinitionAliasMixin&lt; Base &gt;</title>
<!-- Node1 -->
<g id="node1" class="node">
<title>Node1</title>
<g id="a_node1"><a xlink:title=" ">
<polygon fill="#999999" stroke="#666666" points="193,-102 78,-102 78,-72 193,-72 193,-102"/>
<text text-anchor="start" x="86" y="-90" font-family="Helvetica,sans-Serif" font-size="10.00">DefinitionAliasMixin</text>
<text text-anchor="middle" x="135.5" y="-79" font-family="Helvetica,sans-Serif" font-size="10.00">&lt; Base &gt;</text>
</a>
</g>
</g>
<!-- Node3 -->
<g id="node3" class="node">
<title>Node3</title>
<g id="a_node3"><a xlink:href="../../d8/d83/class_definition_alias_mixin.html" target="_top" xlink:title=" ">
<polygon fill="white" stroke="#666666" points="445,-174 330,-174 330,-144 445,-144 445,-174"/>
<text text-anchor="start" x="338" y="-162" font-family="Helvetica,sans-Serif" font-size="10.00">DefinitionAliasMixin</text>
<text text-anchor="middle" x="387.5" y="-151" font-family="Helvetica,sans-Serif" font-size="10.00">&lt; ClassDef &gt;</text>
</a>
</g>
</g>
<!-- Node1&#45;&gt;Node3 -->
<g id="edge2" class="edge">
<title>Node1&#45;&gt;Node3</title>
<path fill="none" stroke="orange" stroke-dasharray="5,2" d="M178.74,-105.99C189.16,-110.28 200.38,-114.58 211,-118 250.01,-130.58 295.05,-141.02 329.74,-148.22"/>
<polygon fill="orange" stroke="orange" points="180.01,-102.73 169.44,-102.08 177.3,-109.18 180.01,-102.73"/>
<text text-anchor="middle" x="261.5" y="-147" font-family="Helvetica,sans-Serif" font-size="10.00" fill="grey"> &lt; ClassDef &gt;</text>
</g>
<!-- Node5 -->
<g id="node5" class="node">
<title>Node5</title>
<g id="a_node5"><a xlink:href="../../d8/d83/class_definition_alias_mixin.html" target="_top" xlink:title=" ">
<polygon fill="white" stroke="#666666" points="445,-126 330,-126 330,-96 445,-96 445,-126"/>
<text text-anchor="start" x="338" y="-114" font-family="Helvetica,sans-Serif" font-size="10.00">DefinitionAliasMixin</text>
<text text-anchor="middle" x="387.5" y="-103" font-family="Helvetica,sans-Serif" font-size="10.00">&lt; ConceptDef &gt;</text>
</a>
</g>
</g>
<!-- Node1&#45;&gt;Node5 -->
<g id="edge4" class="edge">
<title>Node1&#45;&gt;Node5</title>
<path fill="none" stroke="orange" stroke-dasharray="5,2" d="M203.31,-93.41C242.86,-97.21 292.41,-101.97 330,-105.58"/>
<polygon fill="orange" stroke="orange" points="203.52,-89.92 193.23,-92.45 202.85,-96.89 203.52,-89.92"/>
<text text-anchor="middle" x="261.5" y="-106" font-family="Helvetica,sans-Serif" font-size="10.00" fill="grey"> &lt; ConceptDef &gt;</text>
</g>
<!-- Node7 -->
<g id="node7" class="node">
<title>Node7</title>
<g id="a_node7"><a xlink:href="../../d8/d83/class_definition_alias_mixin.html" target="_top" xlink:title=" ">
<polygon fill="white" stroke="#666666" points="445,-78 330,-78 330,-48 445,-48 445,-78"/>
<text text-anchor="start" x="338" y="-66" font-family="Helvetica,sans-Serif" font-size="10.00">DefinitionAliasMixin</text>
<text text-anchor="middle" x="387.5" y="-55" font-family="Helvetica,sans-Serif" font-size="10.00">&lt; MemberDef &gt;</text>
</a>
</g>
</g>
<!-- Node1&#45;&gt;Node7 -->
<g id="edge6" class="edge">
<title>Node1&#45;&gt;Node7</title>
<path fill="none" stroke="orange" stroke-dasharray="5,2" d="M203.23,-79.78C205.85,-79.51 208.45,-79.25 211,-79 250.73,-75.06 295.56,-70.98 329.97,-67.92"/>
<polygon fill="orange" stroke="orange" points="202.62,-76.33 193.03,-80.83 203.34,-83.29 202.62,-76.33"/>
<text text-anchor="middle" x="261.5" y="-82" font-family="Helvetica,sans-Serif" font-size="10.00" fill="grey"> &lt; MemberDef &gt;</text>
</g>
<!-- Node9 -->
<g id="node9" class="node">
<title>Node9</title>
<g id="a_node9"><a xlink:href="../../d8/d83/class_definition_alias_mixin.html" target="_top" xlink:title=" ">
<polygon fill="white" stroke="#666666" points="445,-30 330,-30 330,0 445,0 445,-30"/>
<text text-anchor="start" x="338" y="-18" font-family="Helvetica,sans-Serif" font-size="10.00">DefinitionAliasMixin</text>
<text text-anchor="middle" x="387.5" y="-7" font-family="Helvetica,sans-Serif" font-size="10.00">&lt; NamespaceDef &gt;</text>
</a>
</g>
</g>
<!-- Node1&#45;&gt;Node9 -->
<g id="edge8" class="edge">
<title>Node1&#45;&gt;Node9</title>
<path fill="none" stroke="orange" stroke-dasharray="5,2" d="M177.46,-67.83C188.22,-63.23 199.92,-58.61 211,-55 249.92,-42.32 294.97,-32.14 329.68,-25.23"/>
<polygon fill="orange" stroke="orange" points="176.04,-64.63 168.28,-71.84 178.84,-71.04 176.04,-64.63"/>
<text text-anchor="middle" x="261.5" y="-58" font-family="Helvetica,sans-Serif" font-size="10.00" fill="grey"> &lt; NamespaceDef &gt;</text>
</g>
<!-- Node2 -->
<g id="node2" class="node">
<title>Node2</title>
<g id="a_node2"><a xlink:title=" ">
<polygon fill="white" stroke="#666666" points="41,-96.5 0,-96.5 0,-77.5 41,-77.5 41,-96.5"/>
<text text-anchor="middle" x="20.5" y="-84.5" font-family="Helvetica,sans-Serif" font-size="10.00">Base</text>
</a>
</g>
</g>
<!-- Node2&#45;&gt;Node1 -->
<g id="edge1" class="edge">
<title>Node2&#45;&gt;Node1</title>
<path fill="none" stroke="#63b8ff" d="M51.26,-87C59.41,-87 68.53,-87 77.66,-87"/>
<polygon fill="#63b8ff" stroke="#63b8ff" points="51.18,-83.5 41.18,-87 51.18,-90.5 51.18,-83.5"/>
</g>
<!-- Node4 -->
<g id="node4" class="node">
<title>Node4</title>
<g id="a_node4"><a xlink:href="../../d0/d2b/class_class_def_alias_impl.html" target="_top" xlink:title=" ">
<polygon fill="white" stroke="#666666" points="603.5,-168.5 497.5,-168.5 497.5,-149.5 603.5,-149.5 603.5,-168.5"/>
<text text-anchor="middle" x="550.5" y="-156.5" font-family="Helvetica,sans-Serif" font-size="10.00">ClassDefAliasImpl</text>
</a>
</g>
</g>
<!-- Node3&#45;&gt;Node4 -->
<g id="edge3" class="edge">
<title>Node3&#45;&gt;Node4</title>
<path fill="none" stroke="#63b8ff" d="M455.33,-159C469.34,-159 483.91,-159 497.28,-159"/>
<polygon fill="#63b8ff" stroke="#63b8ff" points="455.26,-155.5 445.26,-159 455.26,-162.5 455.26,-155.5"/>
</g>
<!-- Node6 -->
<g id="node6" class="node">
<title>Node6</title>
<g id="a_node6"><a xlink:href="../../dd/df3/class_concept_def_alias_impl.html" target="_top" xlink:title=" ">
<polygon fill="white" stroke="#666666" points="610,-120.5 491,-120.5 491,-101.5 610,-101.5 610,-120.5"/>
<text text-anchor="middle" x="550.5" y="-108.5" font-family="Helvetica,sans-Serif" font-size="10.00">ConceptDefAliasImpl</text>
</a>
</g>
</g>
<!-- Node5&#45;&gt;Node6 -->
<g id="edge5" class="edge">
<title>Node5&#45;&gt;Node6</title>
<path fill="none" stroke="#63b8ff" d="M455.45,-111C467.18,-111 479.31,-111 490.8,-111"/>
<polygon fill="#63b8ff" stroke="#63b8ff" points="455.26,-107.5 445.26,-111 455.26,-114.5 455.26,-107.5"/>
</g>
<!-- Node8 -->
<g id="node8" class="node">
<title>Node8</title>
<g id="a_node8"><a xlink:href="../../d7/d70/class_member_def_alias_impl.html" target="_top" xlink:title=" ">
<polygon fill="white" stroke="#666666" points="610.5,-72.5 490.5,-72.5 490.5,-53.5 610.5,-53.5 610.5,-72.5"/>
<text text-anchor="middle" x="550.5" y="-60.5" font-family="Helvetica,sans-Serif" font-size="10.00">MemberDefAliasImpl</text>
</a>
</g>
</g>
<!-- Node7&#45;&gt;Node8 -->
<g id="edge7" class="edge">
<title>Node7&#45;&gt;Node8</title>
<path fill="none" stroke="#63b8ff" d="M455.32,-63C466.91,-63 478.88,-63 490.25,-63"/>
<polygon fill="#63b8ff" stroke="#63b8ff" points="455.26,-59.5 445.26,-63 455.26,-66.5 455.26,-59.5"/>
</g>
<!-- Node10 -->
<g id="node10" class="node">
<title>Node10</title>
<g id="a_node10"><a xlink:href="../../d2/d9c/class_namespace_def_alias_impl.html" target="_top" xlink:title=" ">
<polygon fill="white" stroke="#666666" points="619,-24.5 482,-24.5 482,-5.5 619,-5.5 619,-24.5"/>
<text text-anchor="middle" x="550.5" y="-12.5" font-family="Helvetica,sans-Serif" font-size="10.00">NamespaceDefAliasImpl</text>
</a>
</g>
</g>
<!-- Node9&#45;&gt;Node10 -->
<g id="edge9" class="edge">
<title>Node9&#45;&gt;Node10</title>
<path fill="none" stroke="#63b8ff" d="M455.42,-15C464.19,-15 473.17,-15 481.94,-15"/>
<polygon fill="#63b8ff" stroke="#63b8ff" points="455.26,-11.5 445.26,-15 455.26,-18.5 455.26,-11.5"/>
</g>
</g>
</svg>
