<?xml version="1.0" encoding="UTF-8" standalone="no"?>
<!DOCTYPE svg PUBLIC "-//W3C//DTD SVG 1.1//EN"
 "http://www.w3.org/Graphics/SVG/1.1/DTD/svg11.dtd">
<!-- Generated by graphviz version 2.43.0 (0)
 -->
<!-- Title: /home/runner/work/doxygen/doxygen/src/language.h Pages: 1 -->
<!--zoomable 104 -->
<svg id="main" version="1.1" xmlns="http://www.w3.org/2000/svg" xmlns:xlink="http://www.w3.org/1999/xlink" xml:space="preserve" onload="init(evt)">
<style type="text/css"><![CDATA[
.edge:hover path { stroke: red; }
.edge:hover polygon { stroke: red; fill: red; }
]]></style>
<script type="text/javascript"><![CDATA[
var edges = document.getElementsByTagName('g');
if (edges && edges.length) {
  for (var i=0;i<edges.length;i++) {
    if (edges[i].id.substr(0,4)=='edge') {
      edges[i].setAttribute('class','edge');
    }
  }
}
]]></script>
        <defs>
                <circle id="rim" cx="0" cy="0" r="7"/>
                <circle id="rim2" cx="0" cy="0" r="3.5"/>
                <g id="zoomPlus">
                        <use xlink:href="#rim" fill="#404040">
                                <set attributeName="fill" to="#808080" begin="zoomplus.mouseover" end="zoomplus.mouseout"/>
                        </use>
                        <path d="M-4,0h8M0,-4v8" fill="none" stroke="white" stroke-width="1.5" pointer-events="none"/>
                </g>
                <g id="zoomMin">
                        <use xlink:href="#rim" fill="#404040">
                                <set attributeName="fill" to="#808080" begin="zoomminus.mouseover" end="zoomminus.mouseout"/>
                        </use>
                        <path d="M-4,0h8" fill="none" stroke="white" stroke-width="1.5" pointer-events="none"/>
                </g>
                <g id="dirArrow">
                        <path fill="none" stroke="white" stroke-width="1.5" d="M0,-3.0v7 M-2.5,-0.5L0,-3.0L2.5,-0.5"/>
                </g>
               <g id="resetDef">
                       <use xlink:href="#rim2" fill="#404040">
                               <set attributeName="fill" to="#808080" begin="reset.mouseover" end="reset.mouseout"/>
                       </use>
               </g>
        </defs>

<script type="text/javascript">
var viewWidth = 8519;
var viewHeight = 104;
var sectionId = 'dynsection-1';
</script>
<script xlink:href="../../svgpan.js"/>
<svg id="graph" class="graph">
<g id="viewport">
<title>/home/runner/work/doxygen/doxygen/src/language.h</title>
<!-- Node1 -->
<g id="node1" class="node">
<title>Node1</title>
<g id="a_node1"><a xlink:title=" ">
<polygon fill="#999999" stroke="#666666" points="4326,-96 4172,-96 4172,-66 4326,-66 4326,-96"/>
<text text-anchor="start" x="4180" y="-84" font-family="Helvetica,sans-Serif" font-size="10.00">/home/runner/work/doxygen</text>
<text text-anchor="middle" x="4249" y="-73" font-family="Helvetica,sans-Serif" font-size="10.00">/doxygen/src/language.h</text>
</a>
</g>
</g>
<!-- Node2 -->
<g id="node2" class="node">
<title>Node2</title>
<g id="a_node2"><a xlink:href="../../d5/d0b/cite_8cpp.html" target="_top" xlink:title=" ">
<polygon fill="white" stroke="#666666" points="154,-30 0,-30 0,0 154,0 154,-30"/>
<text text-anchor="start" x="8" y="-18" font-family="Helvetica,sans-Serif" font-size="10.00">/home/runner/work/doxygen</text>
<text text-anchor="middle" x="77" y="-7" font-family="Helvetica,sans-Serif" font-size="10.00">/doxygen/src/cite.cpp</text>
</a>
</g>
</g>
<!-- Node1&#45;&gt;Node2 -->
<g id="edge1" class="edge">
<title>Node1&#45;&gt;Node2</title>
<path fill="none" stroke="#63b8ff" d="M4161.63,-79.71C3605.83,-77.79 573.61,-65.73 163,-30 160.14,-29.75 157.22,-29.46 154.29,-29.14"/>
<polygon fill="#63b8ff" stroke="#63b8ff" points="4161.96,-83.22 4171.98,-79.75 4161.99,-76.22 4161.96,-83.22"/>
</g>
<!-- Node3 -->
<g id="node3" class="node">
<title>Node3</title>
<g id="a_node3"><a xlink:href="../../de/d89/classdef_8cpp.html" target="_top" xlink:title=" ">
<polygon fill="white" stroke="#666666" points="326,-30 172,-30 172,0 326,0 326,-30"/>
<text text-anchor="start" x="180" y="-18" font-family="Helvetica,sans-Serif" font-size="10.00">/home/runner/work/doxygen</text>
<text text-anchor="middle" x="249" y="-7" font-family="Helvetica,sans-Serif" font-size="10.00">/doxygen/src/classdef.cpp</text>
</a>
</g>
</g>
<!-- Node1&#45;&gt;Node3 -->
<g id="edge2" class="edge">
<title>Node1&#45;&gt;Node3</title>
<path fill="none" stroke="#63b8ff" d="M4161.86,-79.66C3620.49,-77.48 727.48,-64.26 335,-30 332.14,-29.75 329.22,-29.46 326.29,-29.14"/>
<polygon fill="#63b8ff" stroke="#63b8ff" points="4161.93,-83.17 4171.94,-79.71 4161.96,-76.17 4161.93,-83.17"/>
</g>
<!-- Node4 -->
<g id="node4" class="node">
<title>Node4</title>
<g id="a_node4"><a xlink:href="../../d6/d10/classlist_8cpp.html" target="_top" xlink:title=" ">
<polygon fill="white" stroke="#666666" points="498,-30 344,-30 344,0 498,0 498,-30"/>
<text text-anchor="start" x="352" y="-18" font-family="Helvetica,sans-Serif" font-size="10.00">/home/runner/work/doxygen</text>
<text text-anchor="middle" x="421" y="-7" font-family="Helvetica,sans-Serif" font-size="10.00">/doxygen/src/classlist.cpp</text>
</a>
</g>
</g>
<!-- Node1&#45;&gt;Node4 -->
<g id="edge3" class="edge">
<title>Node1&#45;&gt;Node4</title>
<path fill="none" stroke="#63b8ff" d="M4161.52,-79.61C3633.44,-77.14 881.23,-62.78 507,-30 504.14,-29.75 501.22,-29.46 498.29,-29.14"/>
<polygon fill="#63b8ff" stroke="#63b8ff" points="4161.72,-83.11 4171.73,-79.66 4161.75,-76.11 4161.72,-83.11"/>
</g>
<!-- Node5 -->
<g id="node5" class="node">
<title>Node5</title>
<g id="a_node5"><a xlink:href="../../d7/d5f/commentscan_8l.html" target="_top" xlink:title=" ">
<polygon fill="white" stroke="#666666" points="673.5,-30 516.5,-30 516.5,0 673.5,0 673.5,-30"/>
<text text-anchor="start" x="524.5" y="-18" font-family="Helvetica,sans-Serif" font-size="10.00">/home/runner/work/doxygen</text>
<text text-anchor="middle" x="595" y="-7" font-family="Helvetica,sans-Serif" font-size="10.00">/doxygen/src/commentscan.l</text>
</a>
</g>
</g>
<!-- Node1&#45;&gt;Node5 -->
<g id="edge4" class="edge">
<title>Node1&#45;&gt;Node5</title>
<path fill="none" stroke="#63b8ff" d="M4161.55,-79.54C3648.28,-76.72 1037.8,-60.96 682,-30 679.26,-29.76 676.47,-29.49 673.66,-29.18"/>
<polygon fill="#63b8ff" stroke="#63b8ff" points="4161.83,-83.04 4171.84,-79.59 4161.86,-76.04 4161.83,-83.04"/>
</g>
<!-- Node6 -->
<g id="node6" class="node">
<title>Node6</title>
<g id="a_node6"><a xlink:href="../../d8/d0a/conceptdef_8cpp.html" target="_top" xlink:title=" ">
<polygon fill="white" stroke="#666666" points="846.5,-30 691.5,-30 691.5,0 846.5,0 846.5,-30"/>
<text text-anchor="start" x="699.5" y="-18" font-family="Helvetica,sans-Serif" font-size="10.00">/home/runner/work/doxygen</text>
<text text-anchor="middle" x="769" y="-7" font-family="Helvetica,sans-Serif" font-size="10.00">/doxygen/src/conceptdef.cpp</text>
</a>
</g>
</g>
<!-- Node1&#45;&gt;Node6 -->
<g id="edge5" class="edge">
<title>Node1&#45;&gt;Node6</title>
<path fill="none" stroke="#63b8ff" d="M4161.46,-79.47C3663.02,-76.35 1193.44,-59.48 856,-30 852.95,-29.73 849.85,-29.42 846.72,-29.08"/>
<polygon fill="#63b8ff" stroke="#63b8ff" points="4161.8,-82.97 4171.82,-79.53 4161.84,-75.97 4161.8,-82.97"/>
</g>
<!-- Node7 -->
<g id="node7" class="node">
<title>Node7</title>
<g id="a_node7"><a xlink:href="../../d9/de3/configimpl_8l.html" target="_top" xlink:title=" ">
<polygon fill="white" stroke="#666666" points="1019,-30 865,-30 865,0 1019,0 1019,-30"/>
<text text-anchor="start" x="873" y="-18" font-family="Helvetica,sans-Serif" font-size="10.00">/home/runner/work/doxygen</text>
<text text-anchor="middle" x="942" y="-7" font-family="Helvetica,sans-Serif" font-size="10.00">/doxygen/src/configimpl.l</text>
</a>
</g>
</g>
<!-- Node1&#45;&gt;Node7 -->
<g id="edge6" class="edge">
<title>Node1&#45;&gt;Node7</title>
<path fill="none" stroke="#63b8ff" d="M4161.63,-79.41C3678.82,-76.02 1347.35,-58.32 1028,-30 1025.14,-29.75 1022.23,-29.45 1019.29,-29.13"/>
<polygon fill="#63b8ff" stroke="#63b8ff" points="4161.65,-82.91 4171.68,-79.48 4161.7,-75.91 4161.65,-82.91"/>
</g>
<!-- Node8 -->
<g id="node8" class="node">
<title>Node8</title>
<g id="a_node8"><a xlink:href="../../db/d12/context_8cpp.html" target="_top" xlink:title=" ">
<polygon fill="white" stroke="#666666" points="1191,-30 1037,-30 1037,0 1191,0 1191,-30"/>
<text text-anchor="start" x="1045" y="-18" font-family="Helvetica,sans-Serif" font-size="10.00">/home/runner/work/doxygen</text>
<text text-anchor="middle" x="1114" y="-7" font-family="Helvetica,sans-Serif" font-size="10.00">/doxygen/src/context.cpp</text>
</a>
</g>
</g>
<!-- Node1&#45;&gt;Node8 -->
<g id="edge7" class="edge">
<title>Node1&#45;&gt;Node8</title>
<path fill="none" stroke="#63b8ff" d="M4161.58,-80.28C3727.13,-81.4 1797.61,-83.26 1200,-30 1197.14,-29.74 1194.23,-29.45 1191.29,-29.12"/>
<polygon fill="#63b8ff" stroke="#63b8ff" points="4161.87,-83.78 4171.86,-80.25 4161.85,-76.78 4161.87,-83.78"/>
</g>
<!-- Node9 -->
<g id="node9" class="node">
<title>Node9</title>
<g id="a_node9"><a xlink:href="../../d7/d14/datetime_8cpp.html" target="_top" xlink:title=" ">
<polygon fill="white" stroke="#666666" points="1363,-30 1209,-30 1209,0 1363,0 1363,-30"/>
<text text-anchor="start" x="1217" y="-18" font-family="Helvetica,sans-Serif" font-size="10.00">/home/runner/work/doxygen</text>
<text text-anchor="middle" x="1286" y="-7" font-family="Helvetica,sans-Serif" font-size="10.00">/doxygen/src/datetime.cpp</text>
</a>
</g>
</g>
<!-- Node1&#45;&gt;Node9 -->
<g id="edge8" class="edge">
<title>Node1&#45;&gt;Node9</title>
<path fill="none" stroke="#63b8ff" d="M4161.77,-80.18C3742.74,-80.78 1933.74,-80.34 1372,-30 1369.14,-29.74 1366.23,-29.45 1363.29,-29.12"/>
<polygon fill="#63b8ff" stroke="#63b8ff" points="4162,-83.68 4172,-80.16 4161.99,-76.68 4162,-83.68"/>
</g>
<!-- Node10 -->
<g id="node10" class="node">
<title>Node10</title>
<g id="a_node10"><a xlink:href="../../d3/dea/definition_8cpp.html" target="_top" xlink:title=" ">
<polygon fill="white" stroke="#666666" points="1535,-30 1381,-30 1381,0 1535,0 1535,-30"/>
<text text-anchor="start" x="1389" y="-18" font-family="Helvetica,sans-Serif" font-size="10.00">/home/runner/work/doxygen</text>
<text text-anchor="middle" x="1458" y="-7" font-family="Helvetica,sans-Serif" font-size="10.00">/doxygen/src/definition.cpp</text>
</a>
</g>
</g>
<!-- Node1&#45;&gt;Node10 -->
<g id="edge9" class="edge">
<title>Node1&#45;&gt;Node10</title>
<path fill="none" stroke="#63b8ff" d="M4161.75,-80.07C3758.19,-80.11 2069.84,-77.42 1544,-30 1541.14,-29.74 1538.23,-29.44 1535.29,-29.12"/>
<polygon fill="#63b8ff" stroke="#63b8ff" points="4161.9,-83.57 4171.9,-80.06 4161.9,-76.57 4161.9,-83.57"/>
</g>
<!-- Node11 -->
<g id="node11" class="node">
<title>Node11</title>
<g id="a_node11"><a xlink:href="../../d8/d52/dirdef_8cpp.html" target="_top" xlink:title=" ">
<polygon fill="white" stroke="#666666" points="1707,-30 1553,-30 1553,0 1707,0 1707,-30"/>
<text text-anchor="start" x="1561" y="-18" font-family="Helvetica,sans-Serif" font-size="10.00">/home/runner/work/doxygen</text>
<text text-anchor="middle" x="1630" y="-7" font-family="Helvetica,sans-Serif" font-size="10.00">/doxygen/src/dirdef.cpp</text>
</a>
</g>
</g>
<!-- Node1&#45;&gt;Node11 -->
<g id="edge10" class="edge">
<title>Node1&#45;&gt;Node11</title>
<path fill="none" stroke="#63b8ff" d="M4161.95,-79.94C3774.7,-79.41 2206.09,-74.5 1716,-30 1713.14,-29.74 1710.23,-29.44 1707.29,-29.11"/>
<polygon fill="#63b8ff" stroke="#63b8ff" points="4161.96,-83.44 4171.97,-79.95 4161.97,-76.44 4161.96,-83.44"/>
</g>
<!-- Node12 -->
<g id="node12" class="node">
<title>Node12</title>
<g id="a_node12"><a xlink:href="../../d8/d29/docbookgen_8cpp.html" target="_top" xlink:title=" ">
<polygon fill="white" stroke="#666666" points="1886.5,-30 1725.5,-30 1725.5,0 1886.5,0 1886.5,-30"/>
<text text-anchor="start" x="1733.5" y="-18" font-family="Helvetica,sans-Serif" font-size="10.00">/home/runner/work/doxygen</text>
<text text-anchor="middle" x="1806" y="-7" font-family="Helvetica,sans-Serif" font-size="10.00">/doxygen/src/docbookgen.cpp</text>
</a>
</g>
</g>
<!-- Node1&#45;&gt;Node12 -->
<g id="edge11" class="edge">
<title>Node1&#45;&gt;Node12</title>
<path fill="none" stroke="#63b8ff" d="M4161.79,-79.72C3791.51,-78.3 2347.93,-70.25 1895,-30 1892.35,-29.76 1889.66,-29.5 1886.95,-29.21"/>
<polygon fill="#63b8ff" stroke="#63b8ff" points="4161.89,-83.22 4171.9,-79.76 4161.92,-76.22 4161.89,-83.22"/>
</g>
<!-- Node13 -->
<g id="node13" class="node">
<title>Node13</title>
<g id="a_node13"><a xlink:href="../../dc/d05/docbookvisitor_8cpp.html" target="_top" xlink:title=" ">
<polygon fill="white" stroke="#666666" points="2077.5,-30 1904.5,-30 1904.5,0 2077.5,0 2077.5,-30"/>
<text text-anchor="start" x="1912.5" y="-18" font-family="Helvetica,sans-Serif" font-size="10.00">/home/runner/work/doxygen</text>
<text text-anchor="middle" x="1991" y="-7" font-family="Helvetica,sans-Serif" font-size="10.00">/doxygen/src/docbookvisitor.cpp</text>
</a>
</g>
</g>
<!-- Node1&#45;&gt;Node13 -->
<g id="edge12" class="edge">
<title>Node1&#45;&gt;Node13</title>
<path fill="none" stroke="#63b8ff" d="M4161.74,-79.4C3810.64,-76.77 2500.31,-64.79 2087,-30 2083.9,-29.74 2080.74,-29.44 2077.55,-29.12"/>
<polygon fill="#63b8ff" stroke="#63b8ff" points="4161.82,-82.9 4171.84,-79.48 4161.87,-75.9 4161.82,-82.9"/>
</g>
<!-- Node14 -->
<g id="node14" class="node">
<title>Node14</title>
<g id="a_node14"><a xlink:href="../../d0/d2b/docnode_8cpp.html" target="_top" xlink:title=" ">
<polygon fill="white" stroke="#666666" points="2250,-30 2096,-30 2096,0 2250,0 2250,-30"/>
<text text-anchor="start" x="2104" y="-18" font-family="Helvetica,sans-Serif" font-size="10.00">/home/runner/work/doxygen</text>
<text text-anchor="middle" x="2173" y="-7" font-family="Helvetica,sans-Serif" font-size="10.00">/doxygen/src/docnode.cpp</text>
</a>
</g>
</g>
<!-- Node1&#45;&gt;Node14 -->
<g id="edge13" class="edge">
<title>Node1&#45;&gt;Node14</title>
<path fill="none" stroke="#63b8ff" d="M4161.82,-79.39C3828.75,-76.82 2636.5,-65.3 2259,-30 2256.14,-29.73 2253.23,-29.43 2250.29,-29.09"/>
<polygon fill="#63b8ff" stroke="#63b8ff" points="4161.86,-82.89 4171.89,-79.47 4161.92,-75.89 4161.86,-82.89"/>
</g>
<!-- Node15 -->
<g id="node15" class="node">
<title>Node15</title>
<g id="a_node15"><a xlink:href="../../de/daa/dot_8cpp.html" target="_top" xlink:title=" ">
<polygon fill="white" stroke="#666666" points="2422,-30 2268,-30 2268,0 2422,0 2422,-30"/>
<text text-anchor="start" x="2276" y="-18" font-family="Helvetica,sans-Serif" font-size="10.00">/home/runner/work/doxygen</text>
<text text-anchor="middle" x="2345" y="-7" font-family="Helvetica,sans-Serif" font-size="10.00">/doxygen/src/dot.cpp</text>
</a>
</g>
</g>
<!-- Node1&#45;&gt;Node15 -->
<g id="edge14" class="edge">
<title>Node1&#45;&gt;Node15</title>
<path fill="none" stroke="#63b8ff" d="M4161.33,-79.15C3846.41,-75.83 2772.89,-62.38 2431,-30 2428.14,-29.73 2425.23,-29.42 2422.29,-29.08"/>
<polygon fill="#63b8ff" stroke="#63b8ff" points="4161.73,-82.65 4171.77,-79.25 4161.81,-75.65 4161.73,-82.65"/>
</g>
<!-- Node16 -->
<g id="node16" class="node">
<title>Node16</title>
<g id="a_node16"><a xlink:href="../../d4/d09/dotgfxhierarchytable_8cpp.html" target="_top" xlink:title=" ">
<polygon fill="white" stroke="#666666" points="2644,-30 2440,-30 2440,0 2644,0 2644,-30"/>
<text text-anchor="start" x="2448" y="-18" font-family="Helvetica,sans-Serif" font-size="10.00">/home/runner/work/doxygen</text>
<text text-anchor="middle" x="2542" y="-7" font-family="Helvetica,sans-Serif" font-size="10.00">/doxygen/src/dotgfxhierarchytable.cpp</text>
</a>
</g>
</g>
<!-- Node1&#45;&gt;Node16 -->
<g id="edge15" class="edge">
<title>Node1&#45;&gt;Node16</title>
<path fill="none" stroke="#63b8ff" d="M4161.53,-80.15C3920.61,-79.93 3227.2,-75.1 2653,-30 2650.1,-29.77 2647.15,-29.52 2644.18,-29.25"/>
<polygon fill="#63b8ff" stroke="#63b8ff" points="4161.63,-83.65 4171.63,-80.15 4161.63,-76.65 4161.63,-83.65"/>
</g>
<!-- Node17 -->
<g id="node17" class="node">
<title>Node17</title>
<g id="a_node17"><a xlink:href="../../d4/d33/dotlegendgraph_8cpp.html" target="_top" xlink:title=" ">
<polygon fill="white" stroke="#666666" points="2841.5,-30 2662.5,-30 2662.5,0 2841.5,0 2841.5,-30"/>
<text text-anchor="start" x="2670.5" y="-18" font-family="Helvetica,sans-Serif" font-size="10.00">/home/runner/work/doxygen</text>
<text text-anchor="middle" x="2752" y="-7" font-family="Helvetica,sans-Serif" font-size="10.00">/doxygen/src/dotlegendgraph.cpp</text>
</a>
</g>
</g>
<!-- Node1&#45;&gt;Node17 -->
<g id="edge16" class="edge">
<title>Node1&#45;&gt;Node17</title>
<path fill="none" stroke="#63b8ff" d="M4161.71,-80.05C3941.46,-79.48 3345.44,-73.68 2851,-30 2847.89,-29.73 2844.72,-29.42 2841.53,-29.09"/>
<polygon fill="#63b8ff" stroke="#63b8ff" points="4161.91,-83.55 4171.91,-80.07 4161.92,-76.55 4161.91,-83.55"/>
</g>
<!-- Node18 -->
<g id="node18" class="node">
<title>Node18</title>
<g id="a_node18"><a xlink:href="../../df/d58/dotnode_8cpp.html" target="_top" xlink:title=" ">
<polygon fill="white" stroke="#666666" points="3014,-30 2860,-30 2860,0 3014,0 3014,-30"/>
<text text-anchor="start" x="2868" y="-18" font-family="Helvetica,sans-Serif" font-size="10.00">/home/runner/work/doxygen</text>
<text text-anchor="middle" x="2937" y="-7" font-family="Helvetica,sans-Serif" font-size="10.00">/doxygen/src/dotnode.cpp</text>
</a>
</g>
</g>
<!-- Node1&#45;&gt;Node18 -->
<g id="edge17" class="edge">
<title>Node1&#45;&gt;Node18</title>
<path fill="none" stroke="#63b8ff" d="M4161.44,-80.05C3959.98,-79.36 3448.22,-73.12 3023,-30 3020.14,-29.71 3017.23,-29.39 3014.3,-29.03"/>
<polygon fill="#63b8ff" stroke="#63b8ff" points="4161.66,-83.55 4171.67,-80.08 4161.68,-76.55 4161.66,-83.55"/>
</g>
<!-- Node19 -->
<g id="node19" class="node">
<title>Node19</title>
<g id="a_node19"><a xlink:href="../../dc/d98/doxygen_8cpp.html" target="_top" xlink:title=" ">
<polygon fill="white" stroke="#666666" points="3186,-30 3032,-30 3032,0 3186,0 3186,-30"/>
<text text-anchor="start" x="3040" y="-18" font-family="Helvetica,sans-Serif" font-size="10.00">/home/runner/work/doxygen</text>
<text text-anchor="middle" x="3109" y="-7" font-family="Helvetica,sans-Serif" font-size="10.00">/doxygen/src/doxygen.cpp</text>
</a>
</g>
</g>
<!-- Node1&#45;&gt;Node19 -->
<g id="edge18" class="edge">
<title>Node1&#45;&gt;Node19</title>
<path fill="none" stroke="#63b8ff" d="M4161.48,-79.22C3980.53,-76.85 3552.23,-67.43 3195,-30 3192.14,-29.7 3189.23,-29.37 3186.3,-29.01"/>
<polygon fill="#63b8ff" stroke="#63b8ff" points="4161.7,-82.72 4171.74,-79.35 4161.79,-75.72 4161.7,-82.72"/>
</g>
<!-- Node20 -->
<g id="node20" class="node">
<title>Node20</title>
<g id="a_node20"><a xlink:href="../../d6/ddc/filedef_8cpp.html" target="_top" xlink:title=" ">
<polygon fill="white" stroke="#666666" points="3358,-30 3204,-30 3204,0 3358,0 3358,-30"/>
<text text-anchor="start" x="3212" y="-18" font-family="Helvetica,sans-Serif" font-size="10.00">/home/runner/work/doxygen</text>
<text text-anchor="middle" x="3281" y="-7" font-family="Helvetica,sans-Serif" font-size="10.00">/doxygen/src/filedef.cpp</text>
</a>
</g>
</g>
<!-- Node1&#45;&gt;Node20 -->
<g id="edge19" class="edge">
<title>Node1&#45;&gt;Node20</title>
<path fill="none" stroke="#63b8ff" d="M4161.62,-78.08C4002.93,-73.91 3656.98,-61.73 3367,-30 3364.14,-29.69 3361.24,-29.34 3358.3,-28.98"/>
<polygon fill="#63b8ff" stroke="#63b8ff" points="4161.71,-81.58 4171.79,-78.34 4161.89,-74.58 4161.71,-81.58"/>
</g>
<!-- Node21 -->
<g id="node21" class="node">
<title>Node21</title>
<g id="a_node21"><a xlink:href="../../dd/d00/fortranscanner_8l.html" target="_top" xlink:title=" ">
<polygon fill="white" stroke="#666666" points="3534,-30 3376,-30 3376,0 3534,0 3534,-30"/>
<text text-anchor="start" x="3384" y="-18" font-family="Helvetica,sans-Serif" font-size="10.00">/home/runner/work/doxygen</text>
<text text-anchor="middle" x="3455" y="-7" font-family="Helvetica,sans-Serif" font-size="10.00">/doxygen/src/fortranscanner.l</text>
</a>
</g>
</g>
<!-- Node1&#45;&gt;Node21 -->
<g id="edge20" class="edge">
<title>Node1&#45;&gt;Node21</title>
<path fill="none" stroke="#63b8ff" d="M4161.57,-76.26C4027.95,-69.99 3765.04,-55.48 3543,-30 3540.08,-29.66 3537.11,-29.3 3534.11,-28.92"/>
<polygon fill="#63b8ff" stroke="#63b8ff" points="4161.6,-79.76 4171.75,-76.73 4161.92,-72.77 4161.6,-79.76"/>
</g>
<!-- Node22 -->
<g id="node22" class="node">
<title>Node22</title>
<g id="a_node22"><a xlink:href="../../db/d41/ftvhelp_8cpp.html" target="_top" xlink:title=" ">
<polygon fill="white" stroke="#666666" points="3706,-30 3552,-30 3552,0 3706,0 3706,-30"/>
<text text-anchor="start" x="3560" y="-18" font-family="Helvetica,sans-Serif" font-size="10.00">/home/runner/work/doxygen</text>
<text text-anchor="middle" x="3629" y="-7" font-family="Helvetica,sans-Serif" font-size="10.00">/doxygen/src/ftvhelp.cpp</text>
</a>
</g>
</g>
<!-- Node1&#45;&gt;Node22 -->
<g id="edge21" class="edge">
<title>Node1&#45;&gt;Node22</title>
<path fill="none" stroke="#63b8ff" d="M4161.89,-73.67C4056.01,-65.56 3872.03,-50.11 3715,-30 3712.15,-29.63 3709.25,-29.25 3706.32,-28.84"/>
<polygon fill="#63b8ff" stroke="#63b8ff" points="4161.65,-77.16 4171.88,-74.43 4162.18,-70.18 4161.65,-77.16"/>
</g>
<!-- Node23 -->
<g id="node23" class="node">
<title>Node23</title>
<g id="a_node23"><a xlink:href="../../d6/d42/groupdef_8cpp.html" target="_top" xlink:title=" ">
<polygon fill="white" stroke="#666666" points="3878,-30 3724,-30 3724,0 3878,0 3878,-30"/>
<text text-anchor="start" x="3732" y="-18" font-family="Helvetica,sans-Serif" font-size="10.00">/home/runner/work/doxygen</text>
<text text-anchor="middle" x="3801" y="-7" font-family="Helvetica,sans-Serif" font-size="10.00">/doxygen/src/groupdef.cpp</text>
</a>
</g>
</g>
<!-- Node1&#45;&gt;Node23 -->
<g id="edge22" class="edge">
<title>Node1&#45;&gt;Node23</title>
<path fill="none" stroke="#63b8ff" d="M4161.83,-68.56C4088.45,-58.79 3980.77,-44.11 3887,-30 3884.16,-29.57 3881.26,-29.13 3878.34,-28.68"/>
<polygon fill="#63b8ff" stroke="#63b8ff" points="4161.58,-72.06 4171.95,-69.91 4162.5,-65.12 4161.58,-72.06"/>
</g>
<!-- Node24 -->
<g id="node24" class="node">
<title>Node24</title>
<g id="a_node24"><a xlink:href="../../da/db0/htmldocvisitor_8cpp.html" target="_top" xlink:title=" ">
<polygon fill="white" stroke="#666666" points="4068,-30 3896,-30 3896,0 4068,0 4068,-30"/>
<text text-anchor="start" x="3904" y="-18" font-family="Helvetica,sans-Serif" font-size="10.00">/home/runner/work/doxygen</text>
<text text-anchor="middle" x="3982" y="-7" font-family="Helvetica,sans-Serif" font-size="10.00">/doxygen/src/htmldocvisitor.cpp</text>
</a>
</g>
</g>
<!-- Node1&#45;&gt;Node24 -->
<g id="edge23" class="edge">
<title>Node1&#45;&gt;Node24</title>
<path fill="none" stroke="#63b8ff" d="M4180.51,-63.58C4137.17,-53.19 4081.73,-39.9 4040.46,-30.01"/>
<polygon fill="#63b8ff" stroke="#63b8ff" points="4179.87,-67.03 4190.41,-65.95 4181.5,-60.22 4179.87,-67.03"/>
</g>
<!-- Node25 -->
<g id="node25" class="node">
<title>Node25</title>
<g id="a_node25"><a xlink:href="../../d8/d6e/htmlgen_8cpp.html" target="_top" xlink:title=" ">
<polygon fill="white" stroke="#666666" points="4240,-30 4086,-30 4086,0 4240,0 4240,-30"/>
<text text-anchor="start" x="4094" y="-18" font-family="Helvetica,sans-Serif" font-size="10.00">/home/runner/work/doxygen</text>
<text text-anchor="middle" x="4163" y="-7" font-family="Helvetica,sans-Serif" font-size="10.00">/doxygen/src/htmlgen.cpp</text>
</a>
</g>
</g>
<!-- Node1&#45;&gt;Node25 -->
<g id="edge24" class="edge">
<title>Node1&#45;&gt;Node25</title>
<path fill="none" stroke="#63b8ff" d="M4221.79,-59.75C4208.86,-50.13 4193.71,-38.86 4182.03,-30.16"/>
<polygon fill="#63b8ff" stroke="#63b8ff" points="4219.8,-62.63 4229.91,-65.8 4223.98,-57.02 4219.8,-62.63"/>
</g>
<!-- Node26 -->
<g id="node26" class="node">
<title>Node26</title>
<g id="a_node26"><a xlink:href="../../d3/d4b/htmlhelp_8cpp.html" target="_top" xlink:title=" ">
<polygon fill="white" stroke="#666666" points="4412,-30 4258,-30 4258,0 4412,0 4412,-30"/>
<text text-anchor="start" x="4266" y="-18" font-family="Helvetica,sans-Serif" font-size="10.00">/home/runner/work/doxygen</text>
<text text-anchor="middle" x="4335" y="-7" font-family="Helvetica,sans-Serif" font-size="10.00">/doxygen/src/htmlhelp.cpp</text>
</a>
</g>
</g>
<!-- Node1&#45;&gt;Node26 -->
<g id="edge25" class="edge">
<title>Node1&#45;&gt;Node26</title>
<path fill="none" stroke="#63b8ff" d="M4276.21,-59.75C4289.14,-50.13 4304.29,-38.86 4315.97,-30.16"/>
<polygon fill="#63b8ff" stroke="#63b8ff" points="4274.02,-57.02 4268.09,-65.8 4278.2,-62.63 4274.02,-57.02"/>
</g>
<!-- Node27 -->
<g id="node27" class="node">
<title>Node27</title>
<g id="a_node27"><a xlink:href="../../db/d14/index_8cpp.html" target="_top" xlink:title="This file contains functions for the various index pages.">
<polygon fill="white" stroke="#666666" points="4584,-30 4430,-30 4430,0 4584,0 4584,-30"/>
<text text-anchor="start" x="4438" y="-18" font-family="Helvetica,sans-Serif" font-size="10.00">/home/runner/work/doxygen</text>
<text text-anchor="middle" x="4507" y="-7" font-family="Helvetica,sans-Serif" font-size="10.00">/doxygen/src/index.cpp</text>
</a>
</g>
</g>
<!-- Node1&#45;&gt;Node27 -->
<g id="edge26" class="edge">
<title>Node1&#45;&gt;Node27</title>
<path fill="none" stroke="#63b8ff" d="M4315.45,-63.52C4357.29,-53.14 4410.72,-39.88 4450.51,-30.01"/>
<polygon fill="#63b8ff" stroke="#63b8ff" points="4314.48,-60.15 4305.62,-65.95 4316.17,-66.94 4314.48,-60.15"/>
</g>
<!-- Node28 -->
<g id="node28" class="node">
<title>Node28</title>
<g id="a_node28"><a xlink:href="../../d2/d48/language_8cpp.html" target="_top" xlink:title=" ">
<polygon fill="white" stroke="#666666" points="4756,-30 4602,-30 4602,0 4756,0 4756,-30"/>
<text text-anchor="start" x="4610" y="-18" font-family="Helvetica,sans-Serif" font-size="10.00">/home/runner/work/doxygen</text>
<text text-anchor="middle" x="4679" y="-7" font-family="Helvetica,sans-Serif" font-size="10.00">/doxygen/src/language.cpp</text>
</a>
</g>
</g>
<!-- Node1&#45;&gt;Node28 -->
<g id="edge27" class="edge">
<title>Node1&#45;&gt;Node28</title>
<path fill="none" stroke="#63b8ff" d="M4336.29,-67.73C4405.86,-57.85 4505.73,-43.44 4593,-30 4595.84,-29.56 4598.73,-29.11 4601.65,-28.65"/>
<polygon fill="#63b8ff" stroke="#63b8ff" points="4335.66,-64.29 4326.25,-69.16 4336.64,-71.22 4335.66,-64.29"/>
</g>
<!-- Node29 -->
<g id="node29" class="node">
<title>Node29</title>
<g id="a_node29"><a xlink:href="../../d1/d4e/latexdocvisitor_8cpp.html" target="_top" xlink:title=" ">
<polygon fill="white" stroke="#666666" points="4948,-30 4774,-30 4774,0 4948,0 4948,-30"/>
<text text-anchor="start" x="4782" y="-18" font-family="Helvetica,sans-Serif" font-size="10.00">/home/runner/work/doxygen</text>
<text text-anchor="middle" x="4861" y="-7" font-family="Helvetica,sans-Serif" font-size="10.00">/doxygen/src/latexdocvisitor.cpp</text>
</a>
</g>
</g>
<!-- Node1&#45;&gt;Node29 -->
<g id="edge28" class="edge">
<title>Node1&#45;&gt;Node29</title>
<path fill="none" stroke="#63b8ff" d="M4336.07,-72.85C4438.76,-64.12 4614.54,-48.25 4765,-30 4767.93,-29.65 4770.9,-29.27 4773.9,-28.89"/>
<polygon fill="#63b8ff" stroke="#63b8ff" points="4335.73,-69.37 4326.06,-73.7 4336.32,-76.34 4335.73,-69.37"/>
</g>
<!-- Node30 -->
<g id="node30" class="node">
<title>Node30</title>
<g id="a_node30"><a xlink:href="../../d4/d42/latexgen_8cpp.html" target="_top" xlink:title=" ">
<polygon fill="white" stroke="#666666" points="5120,-30 4966,-30 4966,0 5120,0 5120,-30"/>
<text text-anchor="start" x="4974" y="-18" font-family="Helvetica,sans-Serif" font-size="10.00">/home/runner/work/doxygen</text>
<text text-anchor="middle" x="5043" y="-7" font-family="Helvetica,sans-Serif" font-size="10.00">/doxygen/src/latexgen.cpp</text>
</a>
</g>
</g>
<!-- Node1&#45;&gt;Node30 -->
<g id="edge29" class="edge">
<title>Node1&#45;&gt;Node30</title>
<path fill="none" stroke="#63b8ff" d="M4336.42,-76.39C4470.35,-70.27 4734.23,-55.94 4957,-30 4959.85,-29.67 4962.76,-29.31 4965.69,-28.93"/>
<polygon fill="#63b8ff" stroke="#63b8ff" points="4336.05,-72.9 4326.22,-76.85 4336.36,-79.89 4336.05,-72.9"/>
</g>
<!-- Node31 -->
<g id="node31" class="node">
<title>Node31</title>
<g id="a_node31"><a xlink:href="../../db/d16/layout_8cpp.html" target="_top" xlink:title=" ">
<polygon fill="white" stroke="#666666" points="5292,-30 5138,-30 5138,0 5292,0 5292,-30"/>
<text text-anchor="start" x="5146" y="-18" font-family="Helvetica,sans-Serif" font-size="10.00">/home/runner/work/doxygen</text>
<text text-anchor="middle" x="5215" y="-7" font-family="Helvetica,sans-Serif" font-size="10.00">/doxygen/src/layout.cpp</text>
</a>
</g>
</g>
<!-- Node1&#45;&gt;Node31 -->
<g id="edge30" class="edge">
<title>Node1&#45;&gt;Node31</title>
<path fill="none" stroke="#63b8ff" d="M4336.19,-78.07C4494.51,-73.89 4839.68,-61.68 5129,-30 5131.86,-29.69 5134.76,-29.34 5137.7,-28.98"/>
<polygon fill="#63b8ff" stroke="#63b8ff" points="4335.94,-74.57 4326.03,-78.33 4336.12,-81.57 4335.94,-74.57"/>
</g>
<!-- Node32 -->
<g id="node32" class="node">
<title>Node32</title>
<g id="a_node32"><a xlink:href="../../d8/dde/mandocvisitor_8cpp.html" target="_top" xlink:title=" ">
<polygon fill="white" stroke="#666666" points="5481.5,-30 5310.5,-30 5310.5,0 5481.5,0 5481.5,-30"/>
<text text-anchor="start" x="5318.5" y="-18" font-family="Helvetica,sans-Serif" font-size="10.00">/home/runner/work/doxygen</text>
<text text-anchor="middle" x="5396" y="-7" font-family="Helvetica,sans-Serif" font-size="10.00">/doxygen/src/mandocvisitor.cpp</text>
</a>
</g>
</g>
<!-- Node1&#45;&gt;Node32 -->
<g id="edge31" class="edge">
<title>Node1&#45;&gt;Node32</title>
<path fill="none" stroke="#63b8ff" d="M4336.3,-78.77C4516.84,-75.57 4944.18,-64.69 5301,-30 5304.07,-29.7 5307.19,-29.37 5310.34,-29.02"/>
<polygon fill="#63b8ff" stroke="#63b8ff" points="4336.01,-75.27 4326.07,-78.94 4336.13,-82.27 4336.01,-75.27"/>
</g>
<!-- Node33 -->
<g id="node33" class="node">
<title>Node33</title>
<g id="a_node33"><a xlink:href="../../d7/de7/mangen_8cpp.html" target="_top" xlink:title=" ">
<polygon fill="white" stroke="#666666" points="5654,-30 5500,-30 5500,0 5654,0 5654,-30"/>
<text text-anchor="start" x="5508" y="-18" font-family="Helvetica,sans-Serif" font-size="10.00">/home/runner/work/doxygen</text>
<text text-anchor="middle" x="5577" y="-7" font-family="Helvetica,sans-Serif" font-size="10.00">/doxygen/src/mangen.cpp</text>
</a>
</g>
</g>
<!-- Node1&#45;&gt;Node33 -->
<g id="edge32" class="edge">
<title>Node1&#45;&gt;Node33</title>
<path fill="none" stroke="#63b8ff" d="M4336.27,-80.11C4539.37,-79.59 5059.22,-73.67 5491,-30 5493.86,-29.71 5496.77,-29.39 5499.7,-29.04"/>
<polygon fill="#63b8ff" stroke="#63b8ff" points="4336.25,-76.61 4326.26,-80.14 4336.27,-83.61 4336.25,-76.61"/>
</g>
<!-- Node34 -->
<g id="node34" class="node">
<title>Node34</title>
<g id="a_node34"><a xlink:href="../../d0/d72/memberdef_8cpp.html" target="_top" xlink:title=" ">
<polygon fill="white" stroke="#666666" points="5830,-30 5672,-30 5672,0 5830,0 5830,-30"/>
<text text-anchor="start" x="5680" y="-18" font-family="Helvetica,sans-Serif" font-size="10.00">/home/runner/work/doxygen</text>
<text text-anchor="middle" x="5751" y="-7" font-family="Helvetica,sans-Serif" font-size="10.00">/doxygen/src/memberdef.cpp</text>
</a>
</g>
</g>
<!-- Node1&#45;&gt;Node34 -->
<g id="edge33" class="edge">
<title>Node1&#45;&gt;Node34</title>
<path fill="none" stroke="#63b8ff" d="M4336.53,-80.62C4558.77,-81.39 5162.7,-78.46 5663,-30 5665.93,-29.72 5668.9,-29.4 5671.9,-29.05"/>
<polygon fill="#63b8ff" stroke="#63b8ff" points="4336.25,-77.12 4326.24,-80.58 4336.23,-84.12 4336.25,-77.12"/>
</g>
<!-- Node35 -->
<g id="node35" class="node">
<title>Node35</title>
<g id="a_node35"><a xlink:href="../../d6/d18/membergroup_8cpp.html" target="_top" xlink:title=" ">
<polygon fill="white" stroke="#666666" points="6019.5,-30 5848.5,-30 5848.5,0 6019.5,0 6019.5,-30"/>
<text text-anchor="start" x="5856.5" y="-18" font-family="Helvetica,sans-Serif" font-size="10.00">/home/runner/work/doxygen</text>
<text text-anchor="middle" x="5934" y="-7" font-family="Helvetica,sans-Serif" font-size="10.00">/doxygen/src/membergroup.cpp</text>
</a>
</g>
</g>
<!-- Node1&#45;&gt;Node35 -->
<g id="edge34" class="edge">
<title>Node1&#45;&gt;Node35</title>
<path fill="none" stroke="#63b8ff" d="M4336.65,-78.57C4625.17,-73.66 5543.66,-56.32 5839,-30 5842.07,-29.73 5845.2,-29.42 5848.35,-29.08"/>
<polygon fill="#63b8ff" stroke="#63b8ff" points="4336.18,-75.08 4326.25,-78.75 4336.3,-82.08 4336.18,-75.08"/>
</g>
<!-- Node36 -->
<g id="node36" class="node">
<title>Node36</title>
<g id="a_node36"><a xlink:href="../../d0/d14/memberlist_8cpp.html" target="_top" xlink:title=" ">
<polygon fill="white" stroke="#666666" points="6196,-30 6038,-30 6038,0 6196,0 6196,-30"/>
<text text-anchor="start" x="6046" y="-18" font-family="Helvetica,sans-Serif" font-size="10.00">/home/runner/work/doxygen</text>
<text text-anchor="middle" x="6117" y="-7" font-family="Helvetica,sans-Serif" font-size="10.00">/doxygen/src/memberlist.cpp</text>
</a>
</g>
</g>
<!-- Node1&#45;&gt;Node36 -->
<g id="edge35" class="edge">
<title>Node1&#45;&gt;Node36</title>
<path fill="none" stroke="#63b8ff" d="M4336.41,-79.05C4646.74,-75.43 5694.78,-61.15 6029,-30 6031.93,-29.73 6034.9,-29.42 6037.91,-29.08"/>
<polygon fill="#63b8ff" stroke="#63b8ff" points="4336.08,-75.55 4326.13,-79.17 4336.17,-82.55 4336.08,-75.55"/>
</g>
<!-- Node37 -->
<g id="node37" class="node">
<title>Node37</title>
<g id="a_node37"><a xlink:href="../../d7/d1c/namespacedef_8cpp.html" target="_top" xlink:title=" ">
<polygon fill="white" stroke="#666666" points="6387.5,-30 6214.5,-30 6214.5,0 6387.5,0 6387.5,-30"/>
<text text-anchor="start" x="6222.5" y="-18" font-family="Helvetica,sans-Serif" font-size="10.00">/home/runner/work/doxygen</text>
<text text-anchor="middle" x="6301" y="-7" font-family="Helvetica,sans-Serif" font-size="10.00">/doxygen/src/namespacedef.cpp</text>
</a>
</g>
</g>
<!-- Node1&#45;&gt;Node37 -->
<g id="edge36" class="edge">
<title>Node1&#45;&gt;Node37</title>
<path fill="none" stroke="#63b8ff" d="M4336.56,-79.15C4666.45,-75.74 5834.39,-61.65 6205,-30 6208.1,-29.73 6211.26,-29.43 6214.45,-29.11"/>
<polygon fill="#63b8ff" stroke="#63b8ff" points="4336.07,-75.66 4326.11,-79.26 4336.14,-82.66 4336.07,-75.66"/>
</g>
<!-- Node38 -->
<g id="node38" class="node">
<title>Node38</title>
<g id="a_node38"><a xlink:href="../../d9/db4/pagedef_8cpp.html" target="_top" xlink:title=" ">
<polygon fill="white" stroke="#666666" points="6560,-30 6406,-30 6406,0 6560,0 6560,-30"/>
<text text-anchor="start" x="6414" y="-18" font-family="Helvetica,sans-Serif" font-size="10.00">/home/runner/work/doxygen</text>
<text text-anchor="middle" x="6483" y="-7" font-family="Helvetica,sans-Serif" font-size="10.00">/doxygen/src/pagedef.cpp</text>
</a>
</g>
</g>
<!-- Node1&#45;&gt;Node38 -->
<g id="edge37" class="edge">
<title>Node1&#45;&gt;Node38</title>
<path fill="none" stroke="#63b8ff" d="M4336.3,-79.58C4686.06,-77.64 5986.9,-67.97 6397,-30 6399.86,-29.74 6402.77,-29.43 6405.71,-29.1"/>
<polygon fill="#63b8ff" stroke="#63b8ff" points="4336.21,-76.08 4326.23,-79.63 4336.25,-83.08 4336.21,-76.08"/>
</g>
<!-- Node39 -->
<g id="node39" class="node">
<title>Node39</title>
<g id="a_node39"><a xlink:href="../../de/d2b/pyscanner_8l.html" target="_top" xlink:title=" ">
<polygon fill="white" stroke="#666666" points="6732,-30 6578,-30 6578,0 6732,0 6732,-30"/>
<text text-anchor="start" x="6586" y="-18" font-family="Helvetica,sans-Serif" font-size="10.00">/home/runner/work/doxygen</text>
<text text-anchor="middle" x="6655" y="-7" font-family="Helvetica,sans-Serif" font-size="10.00">/doxygen/src/pyscanner.l</text>
</a>
</g>
</g>
<!-- Node1&#45;&gt;Node39 -->
<g id="edge38" class="edge">
<title>Node1&#45;&gt;Node39</title>
<path fill="none" stroke="#63b8ff" d="M4336.18,-79.75C4703.08,-78.47 6123.22,-70.89 6569,-30 6571.86,-29.74 6574.77,-29.44 6577.71,-29.11"/>
<polygon fill="#63b8ff" stroke="#63b8ff" points="4336.14,-76.25 4326.15,-79.79 4336.17,-83.25 4336.14,-76.25"/>
</g>
<!-- Node40 -->
<g id="node40" class="node">
<title>Node40</title>
<g id="a_node40"><a xlink:href="../../de/d9a/rtfdocvisitor_8cpp.html" target="_top" xlink:title=" ">
<polygon fill="white" stroke="#666666" points="6911.5,-30 6750.5,-30 6750.5,0 6911.5,0 6911.5,-30"/>
<text text-anchor="start" x="6758.5" y="-18" font-family="Helvetica,sans-Serif" font-size="10.00">/home/runner/work/doxygen</text>
<text text-anchor="middle" x="6831" y="-7" font-family="Helvetica,sans-Serif" font-size="10.00">/doxygen/src/rtfdocvisitor.cpp</text>
</a>
</g>
</g>
<!-- Node1&#45;&gt;Node40 -->
<g id="edge39" class="edge">
<title>Node1&#45;&gt;Node40</title>
<path fill="none" stroke="#63b8ff" d="M4336.51,-79.82C4720.62,-78.8 6259.48,-72.09 6741,-30 6743.99,-29.74 6747.04,-29.44 6750.11,-29.11"/>
<polygon fill="#63b8ff" stroke="#63b8ff" points="4336.29,-76.32 4326.3,-79.85 4336.31,-83.32 4336.29,-76.32"/>
</g>
<!-- Node41 -->
<g id="node41" class="node">
<title>Node41</title>
<g id="a_node41"><a xlink:href="../../d0/d9c/rtfgen_8cpp.html" target="_top" xlink:title=" ">
<polygon fill="white" stroke="#666666" points="7084,-30 6930,-30 6930,0 7084,0 7084,-30"/>
<text text-anchor="start" x="6938" y="-18" font-family="Helvetica,sans-Serif" font-size="10.00">/home/runner/work/doxygen</text>
<text text-anchor="middle" x="7007" y="-7" font-family="Helvetica,sans-Serif" font-size="10.00">/doxygen/src/rtfgen.cpp</text>
</a>
</g>
</g>
<!-- Node1&#45;&gt;Node41 -->
<g id="edge40" class="edge">
<title>Node1&#45;&gt;Node41</title>
<path fill="none" stroke="#63b8ff" d="M4336.17,-80.04C4736.58,-79.98 6402.01,-76.86 6921,-30 6923.86,-29.74 6926.77,-29.44 6929.71,-29.12"/>
<polygon fill="#63b8ff" stroke="#63b8ff" points="4336.1,-76.54 4326.1,-80.04 4336.1,-83.54 4336.1,-76.54"/>
</g>
<!-- Node42 -->
<g id="node42" class="node">
<title>Node42</title>
<g id="a_node42"><a xlink:href="../../da/d11/scanner_8l.html" target="_top" xlink:title=" ">
<polygon fill="white" stroke="#666666" points="7256,-30 7102,-30 7102,0 7256,0 7256,-30"/>
<text text-anchor="start" x="7110" y="-18" font-family="Helvetica,sans-Serif" font-size="10.00">/home/runner/work/doxygen</text>
<text text-anchor="middle" x="7179" y="-7" font-family="Helvetica,sans-Serif" font-size="10.00">/doxygen/src/scanner.l</text>
</a>
</g>
</g>
<!-- Node1&#45;&gt;Node42 -->
<g id="edge41" class="edge">
<title>Node1&#45;&gt;Node42</title>
<path fill="none" stroke="#63b8ff" d="M4336.25,-80.16C4752.4,-80.65 6538.16,-79.78 7093,-30 7095.86,-29.74 7098.77,-29.45 7101.71,-29.12"/>
<polygon fill="#63b8ff" stroke="#63b8ff" points="4336.1,-76.66 4326.09,-80.15 4336.09,-83.66 4336.1,-76.66"/>
</g>
<!-- Node43 -->
<g id="node43" class="node">
<title>Node43</title>
<g id="a_node43"><a xlink:href="../../d7/d79/searchindex_8cpp.html" target="_top" xlink:title=" ">
<polygon fill="white" stroke="#666666" points="7435.5,-30 7274.5,-30 7274.5,0 7435.5,0 7435.5,-30"/>
<text text-anchor="start" x="7282.5" y="-18" font-family="Helvetica,sans-Serif" font-size="10.00">/home/runner/work/doxygen</text>
<text text-anchor="middle" x="7355" y="-7" font-family="Helvetica,sans-Serif" font-size="10.00">/doxygen/src/searchindex.cpp</text>
</a>
</g>
</g>
<!-- Node1&#45;&gt;Node43 -->
<g id="edge42" class="edge">
<title>Node1&#45;&gt;Node43</title>
<path fill="none" stroke="#63b8ff" d="M4336.53,-80.18C4768.31,-80.81 6674.16,-80.61 7265,-30 7267.99,-29.74 7271.04,-29.45 7274.11,-29.12"/>
<polygon fill="#63b8ff" stroke="#63b8ff" points="4336.31,-76.68 4326.3,-80.16 4336.3,-83.68 4336.31,-76.68"/>
</g>
<!-- Node44 -->
<g id="node44" class="node">
<title>Node44</title>
<g id="a_node44"><a xlink:href="../../d9/d2f/searchindex__js_8cpp.html" target="_top" xlink:title=" ">
<polygon fill="white" stroke="#666666" points="7628.5,-30 7453.5,-30 7453.5,0 7628.5,0 7628.5,-30"/>
<text text-anchor="start" x="7461.5" y="-18" font-family="Helvetica,sans-Serif" font-size="10.00">/home/runner/work/doxygen</text>
<text text-anchor="middle" x="7541" y="-7" font-family="Helvetica,sans-Serif" font-size="10.00">/doxygen/src/searchindex_js.cpp</text>
</a>
</g>
</g>
<!-- Node1&#45;&gt;Node44 -->
<g id="edge43" class="edge">
<title>Node1&#45;&gt;Node44</title>
<path fill="none" stroke="#63b8ff" d="M4336.59,-80.16C4783.85,-80.75 6816.26,-80.55 7445,-30 7447.77,-29.78 7450.58,-29.53 7453.42,-29.25"/>
<polygon fill="#63b8ff" stroke="#63b8ff" points="4336.33,-76.66 4326.32,-80.15 4336.32,-83.66 4336.33,-76.66"/>
</g>
<!-- Node45 -->
<g id="node45" class="node">
<title>Node45</title>
<g id="a_node45"><a xlink:href="../../df/d2d/util_8cpp.html" target="_top" xlink:title=" ">
<polygon fill="white" stroke="#666666" points="7801,-30 7647,-30 7647,0 7801,0 7801,-30"/>
<text text-anchor="start" x="7655" y="-18" font-family="Helvetica,sans-Serif" font-size="10.00">/home/runner/work/doxygen</text>
<text text-anchor="middle" x="7724" y="-7" font-family="Helvetica,sans-Serif" font-size="10.00">/doxygen/src/util.cpp</text>
</a>
</g>
</g>
<!-- Node1&#45;&gt;Node45 -->
<g id="edge44" class="edge">
<title>Node1&#45;&gt;Node45</title>
<path fill="none" stroke="#63b8ff" d="M4336.44,-79.48C4834.29,-76.4 7300.98,-59.76 7638,-30 7640.86,-29.75 7643.77,-29.45 7646.71,-29.13"/>
<polygon fill="#63b8ff" stroke="#63b8ff" points="4336.07,-75.98 4326.09,-79.54 4336.11,-82.98 4336.07,-75.98"/>
</g>
<!-- Node46 -->
<g id="node46" class="node">
<title>Node46</title>
<g id="a_node46"><a xlink:href="../../de/dea/vhdldocgen_8cpp.html" target="_top" xlink:title=" ">
<polygon fill="white" stroke="#666666" points="7977,-30 7819,-30 7819,0 7977,0 7977,-30"/>
<text text-anchor="start" x="7827" y="-18" font-family="Helvetica,sans-Serif" font-size="10.00">/home/runner/work/doxygen</text>
<text text-anchor="middle" x="7898" y="-7" font-family="Helvetica,sans-Serif" font-size="10.00">/doxygen/src/vhdldocgen.cpp</text>
</a>
</g>
</g>
<!-- Node1&#45;&gt;Node46 -->
<g id="edge45" class="edge">
<title>Node1&#45;&gt;Node46</title>
<path fill="none" stroke="#63b8ff" d="M4336.31,-79.53C4848.7,-76.65 7454.77,-60.59 7810,-30 7812.93,-29.75 7815.91,-29.46 7818.91,-29.13"/>
<polygon fill="#63b8ff" stroke="#63b8ff" points="4336.01,-76.03 4326.03,-79.58 4336.04,-83.03 4336.01,-76.03"/>
</g>
<!-- Node47 -->
<g id="node47" class="node">
<title>Node47</title>
<g id="a_node47"><a xlink:href="../../d1/d86/vhdljjparser_8cpp.html" target="_top" xlink:title=" ">
<polygon fill="white" stroke="#666666" points="8153.5,-30 7994.5,-30 7994.5,0 8153.5,0 8153.5,-30"/>
<text text-anchor="start" x="8002.5" y="-18" font-family="Helvetica,sans-Serif" font-size="10.00">/home/runner/work/doxygen</text>
<text text-anchor="middle" x="8074" y="-7" font-family="Helvetica,sans-Serif" font-size="10.00">/doxygen/src/vhdljjparser.cpp</text>
</a>
</g>
</g>
<!-- Node1&#45;&gt;Node47 -->
<g id="edge46" class="edge">
<title>Node1&#45;&gt;Node47</title>
<path fill="none" stroke="#63b8ff" d="M4336.36,-79.59C4863.73,-77 7612.22,-62.06 7986,-30 7988.77,-29.76 7991.59,-29.49 7994.44,-29.18"/>
<polygon fill="#63b8ff" stroke="#63b8ff" points="4336.14,-76.09 4326.16,-79.64 4336.18,-83.09 4336.14,-76.09"/>
</g>
<!-- Node48 -->
<g id="node48" class="node">
<title>Node48</title>
<g id="a_node48"><a xlink:href="../../dd/db6/xmldocvisitor_8cpp.html" target="_top" xlink:title=" ">
<polygon fill="white" stroke="#666666" points="8339,-30 8171,-30 8171,0 8339,0 8339,-30"/>
<text text-anchor="start" x="8179" y="-18" font-family="Helvetica,sans-Serif" font-size="10.00">/home/runner/work/doxygen</text>
<text text-anchor="middle" x="8255" y="-7" font-family="Helvetica,sans-Serif" font-size="10.00">/doxygen/src/xmldocvisitor.cpp</text>
</a>
</g>
</g>
<!-- Node1&#45;&gt;Node48 -->
<g id="edge47" class="edge">
<title>Node1&#45;&gt;Node48</title>
<path fill="none" stroke="#63b8ff" d="M4336.14,-79.61C4877.47,-77.1 7770.35,-62.23 8163,-30 8165.58,-29.79 8168.19,-29.55 8170.83,-29.29"/>
<polygon fill="#63b8ff" stroke="#63b8ff" points="4336.04,-76.11 4326.05,-79.66 4336.07,-83.11 4336.04,-76.11"/>
</g>
<!-- Node49 -->
<g id="node49" class="node">
<title>Node49</title>
<g id="a_node49"><a xlink:href="../../d0/dc3/xmlgen_8cpp.html" target="_top" xlink:title=" ">
<polygon fill="white" stroke="#666666" points="8511,-30 8357,-30 8357,0 8511,0 8511,-30"/>
<text text-anchor="start" x="8365" y="-18" font-family="Helvetica,sans-Serif" font-size="10.00">/home/runner/work/doxygen</text>
<text text-anchor="middle" x="8434" y="-7" font-family="Helvetica,sans-Serif" font-size="10.00">/doxygen/src/xmlgen.cpp</text>
</a>
</g>
</g>
<!-- Node1&#45;&gt;Node49 -->
<g id="edge48" class="edge">
<title>Node1&#45;&gt;Node49</title>
<path fill="none" stroke="#63b8ff" d="M4336.65,-79.72C4894.22,-77.81 7936.08,-65.84 8348,-30 8350.86,-29.75 8353.78,-29.46 8356.71,-29.14"/>
<polygon fill="#63b8ff" stroke="#63b8ff" points="4336.26,-76.22 4326.27,-79.75 4336.28,-83.22 4336.26,-76.22"/>
</g>
</g>
</svg>
        <g id="navigator" transform="translate(0 0)" fill="#404254">
                <rect fill="#f2f5e9" fill-opacity="0.5" stroke="#606060" stroke-width=".5" x="0" y="0" width="60" height="60"/>
                <use id="zoomplus" xlink:href="#zoomPlus" x="17" y="9" onmousedown="handleZoom(evt,'in')"/>
                <use id="zoomminus" xlink:href="#zoomMin" x="42" y="9" onmousedown="handleZoom(evt,'out')"/>
                <use id="reset" xlink:href="#resetDef" x="30" y="36" onmousedown="handleReset()"/>
                <g id="arrowUp" xlink:href="#dirArrow" transform="translate(30 24)" onmousedown="handlePan(0,-1)">
                  <use xlink:href="#rim" fill="#404040">
                        <set attributeName="fill" to="#808080" begin="arrowUp.mouseover" end="arrowUp.mouseout"/>
                  </use>
                  <path fill="none" stroke="white" stroke-width="1.5" d="M0,-3.0v7 M-2.5,-0.5L0,-3.0L2.5,-0.5"/>
                </g>
                <g id="arrowRight" xlink:href="#dirArrow" transform="rotate(90) translate(36 -43)" onmousedown="handlePan(1,0)">
                  <use xlink:href="#rim" fill="#404040">
                        <set attributeName="fill" to="#808080" begin="arrowRight.mouseover" end="arrowRight.mouseout"/>
                  </use>
                  <path fill="none" stroke="white" stroke-width="1.5" d="M0,-3.0v7 M-2.5,-0.5L0,-3.0L2.5,-0.5"/>
                </g>
                <g id="arrowDown" xlink:href="#dirArrow" transform="rotate(180) translate(-30 -48)" onmousedown="handlePan(0,1)">
                  <use xlink:href="#rim" fill="#404040">
                        <set attributeName="fill" to="#808080" begin="arrowDown.mouseover" end="arrowDown.mouseout"/>
                  </use>
                  <path fill="none" stroke="white" stroke-width="1.5" d="M0,-3.0v7 M-2.5,-0.5L0,-3.0L2.5,-0.5"/>
                </g>
                <g id="arrowLeft" xlink:href="#dirArrow" transform="rotate(270) translate(-36 17)" onmousedown="handlePan(-1,0)">
                  <use xlink:href="#rim" fill="#404040">
                        <set attributeName="fill" to="#808080" begin="arrowLeft.mouseover" end="arrowLeft.mouseout"/>
                  </use>
                  <path fill="none" stroke="white" stroke-width="1.5" d="M0,-3.0v7 M-2.5,-0.5L0,-3.0L2.5,-0.5"/>
                </g>
        </g>
        <svg viewBox="0 0 15 15" width="100%" height="30px" preserveAspectRatio="xMaxYMin meet">
         <g id="arrow_out" transform="scale(0.3 0.3)">
          <a xlink:href="language_8h__dep__incl_org.svg" target="_base">
           <rect id="button" ry="5" rx="5" y="6" x="6" height="38" width="38"
                fill="#f2f5e9" fill-opacity="0.5" stroke="#606060" stroke-width="1.0"/>
           <path id="arrow"
             d="M 11.500037,31.436501 C 11.940474,20.09759 22.043105,11.32322 32.158766,21.979434 L 37.068811,17.246167 C 37.068811,17.246167 37.088388,32 37.088388,32 L 22.160133,31.978069 C 22.160133,31.978069 26.997745,27.140456 26.997745,27.140456 C 18.528582,18.264221 13.291696,25.230495 11.500037,31.436501 z"
             style="fill:#404040;"/>
          </a>
         </g>
        </svg>
</svg>
