<?xml version="1.0" encoding="UTF-8" standalone="no"?>
<!DOCTYPE svg PUBLIC "-//W3C//DTD SVG 1.1//EN"
 "http://www.w3.org/Graphics/SVG/1.1/DTD/svg11.dtd">
<!-- Generated by graphviz version 2.43.0 (0)
 -->
<!-- Title: DotCallGraph Pages: 1 -->
<!--zoomable 270 -->
<svg id="main" version="1.1" xmlns="http://www.w3.org/2000/svg" xmlns:xlink="http://www.w3.org/1999/xlink" xml:space="preserve" onload="init(evt)">
<style type="text/css"><![CDATA[
.edge:hover path { stroke: red; }
.edge:hover polygon { stroke: red; fill: red; }
]]></style>
<script type="text/javascript"><![CDATA[
var edges = document.getElementsByTagName('g');
if (edges && edges.length) {
  for (var i=0;i<edges.length;i++) {
    if (edges[i].id.substr(0,4)=='edge') {
      edges[i].setAttribute('class','edge');
    }
  }
}
]]></script>
        <defs>
                <circle id="rim" cx="0" cy="0" r="7"/>
                <circle id="rim2" cx="0" cy="0" r="3.5"/>
                <g id="zoomPlus">
                        <use xlink:href="#rim" fill="#404040">
                                <set attributeName="fill" to="#808080" begin="zoomplus.mouseover" end="zoomplus.mouseout"/>
                        </use>
                        <path d="M-4,0h8M0,-4v8" fill="none" stroke="white" stroke-width="1.5" pointer-events="none"/>
                </g>
                <g id="zoomMin">
                        <use xlink:href="#rim" fill="#404040">
                                <set attributeName="fill" to="#808080" begin="zoomminus.mouseover" end="zoomminus.mouseout"/>
                        </use>
                        <path d="M-4,0h8" fill="none" stroke="white" stroke-width="1.5" pointer-events="none"/>
                </g>
                <g id="dirArrow">
                        <path fill="none" stroke="white" stroke-width="1.5" d="M0,-3.0v7 M-2.5,-0.5L0,-3.0L2.5,-0.5"/>
                </g>
               <g id="resetDef">
                       <use xlink:href="#rim2" fill="#404040">
                               <set attributeName="fill" to="#808080" begin="reset.mouseover" end="reset.mouseout"/>
                       </use>
               </g>
        </defs>

<script type="text/javascript">
var viewWidth = 506;
var viewHeight = 270;
var sectionId = 'dynsection-1';
</script>
<script xlink:href="../../svgpan.js"/>
<svg id="graph" class="graph">
<g id="viewport">
<title>DotCallGraph</title>
<!-- Node1 -->
<g id="node1" class="node">
<title>Node1</title>
<g id="a_node1"><a xlink:title="Representation of an call graph.">
<polygon fill="#999999" stroke="#666666" points="306.5,-19 224.5,-19 224.5,0 306.5,0 306.5,-19"/>
<text text-anchor="middle" x="265.5" y="-7" font-family="Helvetica,sans-Serif" font-size="10.00">DotCallGraph</text>
</a>
</g>
</g>
<!-- Node2 -->
<g id="node2" class="node">
<title>Node2</title>
<g id="a_node2"><a xlink:href="../../d0/d32/class_dot_graph.html" target="_top" xlink:title="A dot graph.">
<polygon fill="white" stroke="#666666" points="101,-85 38,-85 38,-66 101,-66 101,-85"/>
<text text-anchor="middle" x="69.5" y="-73" font-family="Helvetica,sans-Serif" font-size="10.00">DotGraph</text>
</a>
</g>
</g>
<!-- Node2&#45;&gt;Node1 -->
<g id="edge1" class="edge">
<title>Node2&#45;&gt;Node1</title>
<path fill="none" stroke="#63b8ff" d="M91.48,-60.4C104.66,-52.5 122.02,-43.05 138.5,-37 166.3,-26.79 199.05,-20.08 224.33,-15.97"/>
<polygon fill="#63b8ff" stroke="#63b8ff" points="89.38,-57.58 82.69,-65.81 93.04,-63.55 89.38,-57.58"/>
</g>
<!-- Node3 -->
<g id="node3" class="node">
<title>Node3</title>
<g id="a_node3"><a xlink:href="../../d2/dc2/class_dir.html" target="_top" xlink:title="Class representing a directory in the file system.">
<polygon fill="white" stroke="#666666" points="31,-200.5 0,-200.5 0,-181.5 31,-181.5 31,-200.5"/>
<text text-anchor="middle" x="15.5" y="-188.5" font-family="Helvetica,sans-Serif" font-size="10.00">Dir</text>
</a>
</g>
</g>
<!-- Node3&#45;&gt;Node2 -->
<g id="edge2" class="edge">
<title>Node3&#45;&gt;Node2</title>
<path fill="none" stroke="#9a32cd" stroke-dasharray="5,2" d="M10.45,-171.32C6.51,-152.56 3.63,-123.56 16.5,-103 21.63,-94.8 30.14,-89.05 38.85,-85.06"/>
<polygon fill="#9a32cd" stroke="#9a32cd" points="7.1,-172.37 12.84,-181.28 13.91,-170.74 7.1,-172.37"/>
<text text-anchor="middle" x="32" y="-128" font-family="Helvetica,sans-Serif" font-size="10.00" fill="grey"> m_dir</text>
</g>
<!-- Node4 -->
<g id="node4" class="node">
<title>Node4</title>
<g id="a_node4"><a xlink:href="../../d9/d45/class_q_c_string.html" target="_top" xlink:title="This is an alternative implementation of QCString.">
<polygon fill="white" stroke="#666666" points="182,-200.5 123,-200.5 123,-181.5 182,-181.5 182,-200.5"/>
<text text-anchor="middle" x="152.5" y="-188.5" font-family="Helvetica,sans-Serif" font-size="10.00">QCString</text>
</a>
</g>
</g>
<!-- Node4&#45;&gt;Node1 -->
<g id="edge10" class="edge">
<title>Node4&#45;&gt;Node1</title>
<path fill="none" stroke="#9a32cd" stroke-dasharray="5,2" d="M148.64,-171.32C144.37,-145.42 140.59,-98.16 161.5,-66 177.45,-41.46 208.03,-27.02 231.92,-19.05"/>
<polygon fill="#9a32cd" stroke="#9a32cd" points="145.23,-172.1 150.49,-181.3 152.11,-170.83 145.23,-172.1"/>
<text text-anchor="middle" x="195.5" y="-73" font-family="Helvetica,sans-Serif" font-size="10.00" fill="grey"> m_diskName</text>
</g>
<!-- Node4&#45;&gt;Node2 -->
<g id="edge3" class="edge">
<title>Node4&#45;&gt;Node2</title>
<path fill="none" stroke="#9a32cd" stroke-dasharray="5,2" d="M112.56,-184.22C96.78,-179.78 80.13,-171.91 70.5,-158 55.04,-135.66 62.21,-100.99 66.76,-85.05"/>
<polygon fill="#9a32cd" stroke="#9a32cd" points="112.19,-187.73 122.73,-186.68 113.83,-180.93 112.19,-187.73"/>
<text text-anchor="middle" x="104.5" y="-150" font-family="Helvetica,sans-Serif" font-size="10.00" fill="grey"> m_absPath</text>
<text text-anchor="middle" x="104.5" y="-139" font-family="Helvetica,sans-Serif" font-size="10.00" fill="grey">m_baseName</text>
<text text-anchor="middle" x="104.5" y="-128" font-family="Helvetica,sans-Serif" font-size="10.00" fill="grey">m_fileName</text>
<text text-anchor="middle" x="104.5" y="-117" font-family="Helvetica,sans-Serif" font-size="10.00" fill="grey">m_relPath</text>
<text text-anchor="middle" x="104.5" y="-106" font-family="Helvetica,sans-Serif" font-size="10.00" fill="grey">m_theGraph</text>
</g>
<!-- Node5 -->
<g id="node5" class="node">
<title>Node5</title>
<g id="a_node5"><a xlink:href="../../dd/d7e/class_dot_node.html" target="_top" xlink:title="A node in a dot graph.">
<polygon fill="white" stroke="#666666" points="298,-85 239,-85 239,-66 298,-66 298,-85"/>
<text text-anchor="middle" x="268.5" y="-73" font-family="Helvetica,sans-Serif" font-size="10.00">DotNode</text>
</a>
</g>
</g>
<!-- Node4&#45;&gt;Node5 -->
<g id="edge5" class="edge">
<title>Node4&#45;&gt;Node5</title>
<path fill="none" stroke="#9a32cd" stroke-dasharray="5,2" d="M160.82,-172.34C170.62,-153.12 188.53,-122.55 211.5,-103 220.56,-95.29 232.24,-89.34 242.66,-85.05"/>
<polygon fill="#9a32cd" stroke="#9a32cd" points="157.6,-170.94 156.34,-181.46 163.89,-174.03 157.6,-170.94"/>
<text text-anchor="middle" x="235" y="-139" font-family="Helvetica,sans-Serif" font-size="10.00" fill="grey"> m_label</text>
<text text-anchor="middle" x="235" y="-128" font-family="Helvetica,sans-Serif" font-size="10.00" fill="grey">m_tooltip</text>
<text text-anchor="middle" x="235" y="-117" font-family="Helvetica,sans-Serif" font-size="10.00" fill="grey">m_url</text>
</g>
<!-- Node5&#45;&gt;Node1 -->
<g id="edge4" class="edge">
<title>Node5&#45;&gt;Node1</title>
<path fill="none" stroke="#9a32cd" stroke-dasharray="5,2" d="M266.97,-55.69C266.79,-53.11 266.63,-50.49 266.5,-48 266,-38.11 265.74,-26.75 265.61,-19.14"/>
<polygon fill="#9a32cd" stroke="#9a32cd" points="263.48,-55.97 267.73,-65.67 270.46,-55.44 263.48,-55.97"/>
<text text-anchor="middle" x="300" y="-40" font-family="Helvetica,sans-Serif" font-size="10.00" fill="grey"> m_startNode</text>
</g>
<!-- Node6 -->
<g id="node6" class="node">
<title>Node6</title>
<g id="a_node6"><a xlink:href="../../d1/dcf/class_class_def.html" target="_top" xlink:title="A abstract class representing of a compound symbol.">
<polygon fill="white" stroke="#666666" points="306.5,-200.5 246.5,-200.5 246.5,-181.5 306.5,-181.5 306.5,-200.5"/>
<text text-anchor="middle" x="276.5" y="-188.5" font-family="Helvetica,sans-Serif" font-size="10.00">ClassDef</text>
</a>
</g>
</g>
<!-- Node6&#45;&gt;Node5 -->
<g id="edge6" class="edge">
<title>Node6&#45;&gt;Node5</title>
<path fill="none" stroke="#9a32cd" stroke-dasharray="5,2" d="M268.41,-171.83C266.79,-167.39 265.33,-162.6 264.5,-158 259.75,-131.79 264.13,-100.12 266.8,-85.15"/>
<polygon fill="#9a32cd" stroke="#9a32cd" points="265.24,-173.34 272.25,-181.28 271.72,-170.7 265.24,-173.34"/>
<text text-anchor="middle" x="295" y="-128" font-family="Helvetica,sans-Serif" font-size="10.00" fill="grey"> m_classDef</text>
</g>
<!-- Node7 -->
<g id="node7" class="node">
<title>Node7</title>
<g id="a_node7"><a xlink:href="../../d5/dcc/class_definition.html" target="_top" xlink:title="The common base class of all entity definitions found in the sources.">
<polygon fill="white" stroke="#666666" points="343.5,-262 279.5,-262 279.5,-243 343.5,-243 343.5,-262"/>
<text text-anchor="middle" x="311.5" y="-250" font-family="Helvetica,sans-Serif" font-size="10.00">Definition</text>
</a>
</g>
</g>
<!-- Node7&#45;&gt;Node1 -->
<g id="edge11" class="edge">
<title>Node7&#45;&gt;Node1</title>
<path fill="none" stroke="#9a32cd" stroke-dasharray="5,2" d="M320.48,-233.6C338.85,-194.19 375.58,-98.56 333.5,-37 327.21,-27.8 317.21,-21.79 306.79,-17.87"/>
<polygon fill="#9a32cd" stroke="#9a32cd" points="317.26,-232.22 316.07,-242.75 323.57,-235.27 317.26,-232.22"/>
<text text-anchor="middle" x="377" y="-128" font-family="Helvetica,sans-Serif" font-size="10.00" fill="grey"> m_scope</text>
</g>
<!-- Node7&#45;&gt;Node6 -->
<g id="edge7" class="edge">
<title>Node7&#45;&gt;Node6</title>
<path fill="none" stroke="#63b8ff" d="M301.31,-234.17C294.8,-223.11 286.65,-209.25 281.51,-200.51"/>
<polygon fill="#63b8ff" stroke="#63b8ff" points="298.4,-236.13 306.49,-242.98 304.43,-232.58 298.4,-236.13"/>
</g>
<!-- Node8 -->
<g id="node8" class="node">
<title>Node8</title>
<g id="a_node8"><a xlink:href="../../d6/dbb/class_dot_node_map.html" target="_top" xlink:title=" ">
<polygon fill="white" stroke="#666666" points="465.5,-85 385.5,-85 385.5,-66 465.5,-66 465.5,-85"/>
<text text-anchor="middle" x="425.5" y="-73" font-family="Helvetica,sans-Serif" font-size="10.00">DotNodeMap</text>
</a>
</g>
</g>
<!-- Node8&#45;&gt;Node1 -->
<g id="edge8" class="edge">
<title>Node8&#45;&gt;Node1</title>
<path fill="none" stroke="#9a32cd" stroke-dasharray="5,2" d="M404.29,-60.18C392.16,-52.48 376.44,-43.31 361.5,-37 343.66,-29.46 323.06,-23.45 305.52,-19.07"/>
<polygon fill="#9a32cd" stroke="#9a32cd" points="402.49,-63.19 412.78,-65.7 406.31,-57.32 402.49,-63.19"/>
<text text-anchor="middle" x="420" y="-40" font-family="Helvetica,sans-Serif" font-size="10.00" fill="grey"> m_usedNodes</text>
</g>
<!-- Node9 -->
<g id="node9" class="node">
<title>Node9</title>
<g id="a_node9"><a xlink:title=" ">
<polygon fill="white" stroke="#666666" points="497.5,-206 375.5,-206 375.5,-176 497.5,-176 497.5,-206"/>
<text text-anchor="start" x="383.5" y="-194" font-family="Helvetica,sans-Serif" font-size="10.00">std::map&lt; std::string,</text>
<text text-anchor="middle" x="436.5" y="-183" font-family="Helvetica,sans-Serif" font-size="10.00"> DotNode * &gt;</text>
</a>
</g>
</g>
<!-- Node9&#45;&gt;Node8 -->
<g id="edge9" class="edge">
<title>Node9&#45;&gt;Node8</title>
<path fill="none" stroke="#63b8ff" d="M434.11,-165.35C431.66,-140.09 427.99,-102.18 426.35,-85.23"/>
<polygon fill="#63b8ff" stroke="#63b8ff" points="430.66,-166.01 435.11,-175.63 437.63,-165.33 430.66,-166.01"/>
</g>
</g>
</svg>
        <g id="navigator" transform="translate(0 0)" fill="#404254">
                <rect fill="#f2f5e9" fill-opacity="0.5" stroke="#606060" stroke-width=".5" x="0" y="0" width="60" height="60"/>
                <use id="zoomplus" xlink:href="#zoomPlus" x="17" y="9" onmousedown="handleZoom(evt,'in')"/>
                <use id="zoomminus" xlink:href="#zoomMin" x="42" y="9" onmousedown="handleZoom(evt,'out')"/>
                <use id="reset" xlink:href="#resetDef" x="30" y="36" onmousedown="handleReset()"/>
                <g id="arrowUp" xlink:href="#dirArrow" transform="translate(30 24)" onmousedown="handlePan(0,-1)">
                  <use xlink:href="#rim" fill="#404040">
                        <set attributeName="fill" to="#808080" begin="arrowUp.mouseover" end="arrowUp.mouseout"/>
                  </use>
                  <path fill="none" stroke="white" stroke-width="1.5" d="M0,-3.0v7 M-2.5,-0.5L0,-3.0L2.5,-0.5"/>
                </g>
                <g id="arrowRight" xlink:href="#dirArrow" transform="rotate(90) translate(36 -43)" onmousedown="handlePan(1,0)">
                  <use xlink:href="#rim" fill="#404040">
                        <set attributeName="fill" to="#808080" begin="arrowRight.mouseover" end="arrowRight.mouseout"/>
                  </use>
                  <path fill="none" stroke="white" stroke-width="1.5" d="M0,-3.0v7 M-2.5,-0.5L0,-3.0L2.5,-0.5"/>
                </g>
                <g id="arrowDown" xlink:href="#dirArrow" transform="rotate(180) translate(-30 -48)" onmousedown="handlePan(0,1)">
                  <use xlink:href="#rim" fill="#404040">
                        <set attributeName="fill" to="#808080" begin="arrowDown.mouseover" end="arrowDown.mouseout"/>
                  </use>
                  <path fill="none" stroke="white" stroke-width="1.5" d="M0,-3.0v7 M-2.5,-0.5L0,-3.0L2.5,-0.5"/>
                </g>
                <g id="arrowLeft" xlink:href="#dirArrow" transform="rotate(270) translate(-36 17)" onmousedown="handlePan(-1,0)">
                  <use xlink:href="#rim" fill="#404040">
                        <set attributeName="fill" to="#808080" begin="arrowLeft.mouseover" end="arrowLeft.mouseout"/>
                  </use>
                  <path fill="none" stroke="white" stroke-width="1.5" d="M0,-3.0v7 M-2.5,-0.5L0,-3.0L2.5,-0.5"/>
                </g>
        </g>
        <svg viewBox="0 0 15 15" width="100%" height="30px" preserveAspectRatio="xMaxYMin meet">
         <g id="arrow_out" transform="scale(0.3 0.3)">
          <a xlink:href="class_dot_call_graph__coll__graph_org.svg" target="_base">
           <rect id="button" ry="5" rx="5" y="6" x="6" height="38" width="38"
                fill="#f2f5e9" fill-opacity="0.5" stroke="#606060" stroke-width="1.0"/>
           <path id="arrow"
             d="M 11.500037,31.436501 C 11.940474,20.09759 22.043105,11.32322 32.158766,21.979434 L 37.068811,17.246167 C 37.068811,17.246167 37.088388,32 37.088388,32 L 22.160133,31.978069 C 22.160133,31.978069 26.997745,27.140456 26.997745,27.140456 C 18.528582,18.264221 13.291696,25.230495 11.500037,31.436501 z"
             style="fill:#404040;"/>
          </a>
         </g>
        </svg>
</svg>
