<?xml version="1.0" encoding="UTF-8" standalone="no"?>
<!DOCTYPE svg PUBLIC "-//W3C//DTD SVG 1.1//EN"
 "http://www.w3.org/Graphics/SVG/1.1/DTD/svg11.dtd">
<!-- Generated by graphviz version 2.43.0 (0)
 -->
<!-- Title: TranslatorAdapter_1_9_5 Pages: 1 -->
<!--zoomable 729 -->
<svg id="main" version="1.1" xmlns="http://www.w3.org/2000/svg" xmlns:xlink="http://www.w3.org/1999/xlink" xml:space="preserve" onload="init(evt)">
<style type="text/css"><![CDATA[
.edge:hover path { stroke: red; }
.edge:hover polygon { stroke: red; fill: red; }
]]></style>
<script type="text/javascript"><![CDATA[
var edges = document.getElementsByTagName('g');
if (edges && edges.length) {
  for (var i=0;i<edges.length;i++) {
    if (edges[i].id.substr(0,4)=='edge') {
      edges[i].setAttribute('class','edge');
    }
  }
}
]]></script>
        <defs>
                <circle id="rim" cx="0" cy="0" r="7"/>
                <circle id="rim2" cx="0" cy="0" r="3.5"/>
                <g id="zoomPlus">
                        <use xlink:href="#rim" fill="#404040">
                                <set attributeName="fill" to="#808080" begin="zoomplus.mouseover" end="zoomplus.mouseout"/>
                        </use>
                        <path d="M-4,0h8M0,-4v8" fill="none" stroke="white" stroke-width="1.5" pointer-events="none"/>
                </g>
                <g id="zoomMin">
                        <use xlink:href="#rim" fill="#404040">
                                <set attributeName="fill" to="#808080" begin="zoomminus.mouseover" end="zoomminus.mouseout"/>
                        </use>
                        <path d="M-4,0h8" fill="none" stroke="white" stroke-width="1.5" pointer-events="none"/>
                </g>
                <g id="dirArrow">
                        <path fill="none" stroke="white" stroke-width="1.5" d="M0,-3.0v7 M-2.5,-0.5L0,-3.0L2.5,-0.5"/>
                </g>
               <g id="resetDef">
                       <use xlink:href="#rim2" fill="#404040">
                               <set attributeName="fill" to="#808080" begin="reset.mouseover" end="reset.mouseout"/>
                       </use>
               </g>
        </defs>

<script type="text/javascript">
var viewWidth = 2494;
var viewHeight = 729;
var sectionId = 'dynsection-0';
</script>
<script xlink:href="../../svgpan.js"/>
<svg id="graph" class="graph">
<g id="viewport">
<title>TranslatorAdapter_1_9_5</title>
<!-- Node1 -->
<g id="node1" class="node">
<title>Node1</title>
<g id="a_node1"><a xlink:title=" ">
<polygon fill="#999999" stroke="#666666" points="574,-92 437,-92 437,-73 574,-73 574,-92"/>
<text text-anchor="middle" x="505.5" y="-80" font-family="Helvetica,sans-Serif" font-size="10.00">TranslatorAdapter_1_9_5</text>
</a>
</g>
</g>
<!-- Node5 -->
<g id="node5" class="node">
<title>Node5</title>
<g id="a_node5"><a xlink:href="../../d0/d33/class_translator_adapter__1__9__4.html" target="_top" xlink:title=" ">
<polygon fill="white" stroke="#666666" points="747,-111 610,-111 610,-92 747,-92 747,-111"/>
<text text-anchor="middle" x="678.5" y="-99" font-family="Helvetica,sans-Serif" font-size="10.00">TranslatorAdapter_1_9_4</text>
</a>
</g>
</g>
<!-- Node1&#45;&gt;Node5 -->
<g id="edge4" class="edge">
<title>Node1&#45;&gt;Node5</title>
<path fill="none" stroke="#63b8ff" d="M584.1,-91.12C592.69,-92.08 601.39,-93.04 609.85,-93.98"/>
<polygon fill="#63b8ff" stroke="#63b8ff" points="584.41,-87.64 574.08,-90.01 583.64,-94.59 584.41,-87.64"/>
</g>
<!-- Node49 -->
<g id="node49" class="node">
<title>Node49</title>
<g id="a_node49"><a xlink:href="../../da/d1a/class_translator_french.html" target="_top" xlink:title=" ">
<polygon fill="white" stroke="#666666" points="727,-74 630,-74 630,-55 727,-55 727,-74"/>
<text text-anchor="middle" x="678.5" y="-62" font-family="Helvetica,sans-Serif" font-size="10.00">TranslatorFrench</text>
</a>
</g>
</g>
<!-- Node1&#45;&gt;Node49 -->
<g id="edge48" class="edge">
<title>Node1&#45;&gt;Node49</title>
<path fill="none" stroke="#63b8ff" d="M584.24,-74.32C599.81,-72.68 615.72,-71 629.9,-69.51"/>
<polygon fill="#63b8ff" stroke="#63b8ff" points="583.66,-70.86 574.08,-75.39 584.4,-77.82 583.66,-70.86"/>
</g>
<!-- Node2 -->
<g id="node2" class="node">
<title>Node2</title>
<g id="a_node2"><a xlink:href="../../db/d71/class_translator_adapter__1__9__6.html" target="_top" xlink:title=" ">
<polygon fill="white" stroke="#666666" points="401,-92 264,-92 264,-73 401,-73 401,-92"/>
<text text-anchor="middle" x="332.5" y="-80" font-family="Helvetica,sans-Serif" font-size="10.00">TranslatorAdapter_1_9_6</text>
</a>
</g>
</g>
<!-- Node2&#45;&gt;Node1 -->
<g id="edge1" class="edge">
<title>Node2&#45;&gt;Node1</title>
<path fill="none" stroke="#63b8ff" d="M411.1,-82.5C419.69,-82.5 428.39,-82.5 436.85,-82.5"/>
<polygon fill="#63b8ff" stroke="#63b8ff" points="411.08,-79 401.08,-82.5 411.08,-86 411.08,-79"/>
</g>
<!-- Node3 -->
<g id="node3" class="node">
<title>Node3</title>
<g id="a_node3"><a xlink:href="../../db/d6c/class_translator_adapter_base.html" target="_top" xlink:title="Base of the translator adapter tree.">
<polygon fill="white" stroke="#666666" points="228,-92 101,-92 101,-73 228,-73 228,-92"/>
<text text-anchor="middle" x="164.5" y="-80" font-family="Helvetica,sans-Serif" font-size="10.00">TranslatorAdapterBase</text>
</a>
</g>
</g>
<!-- Node3&#45;&gt;Node2 -->
<g id="edge2" class="edge">
<title>Node3&#45;&gt;Node2</title>
<path fill="none" stroke="#63b8ff" d="M238.49,-82.5C246.95,-82.5 255.56,-82.5 263.94,-82.5"/>
<polygon fill="#63b8ff" stroke="#63b8ff" points="238.26,-79 228.26,-82.5 238.26,-86 238.26,-79"/>
</g>
<!-- Node4 -->
<g id="node4" class="node">
<title>Node4</title>
<g id="a_node4"><a xlink:href="../../d8/dfb/class_translator.html" target="_top" xlink:title="Abstract base class for all translatable text fragments.">
<polygon fill="white" stroke="#666666" points="65,-92 0,-92 0,-73 65,-73 65,-92"/>
<text text-anchor="middle" x="32.5" y="-80" font-family="Helvetica,sans-Serif" font-size="10.00">Translator</text>
</a>
</g>
</g>
<!-- Node4&#45;&gt;Node3 -->
<g id="edge3" class="edge">
<title>Node4&#45;&gt;Node3</title>
<path fill="none" stroke="#63b8ff" d="M75.54,-82.5C83.6,-82.5 92.2,-82.5 100.75,-82.5"/>
<polygon fill="#63b8ff" stroke="#63b8ff" points="75.3,-79 65.3,-82.5 75.3,-86 75.3,-79"/>
</g>
<!-- Node6 -->
<g id="node6" class="node">
<title>Node6</title>
<g id="a_node6"><a xlink:href="../../d3/d2e/class_translator_adapter__1__9__2.html" target="_top" xlink:title=" ">
<polygon fill="white" stroke="#666666" points="920,-185 783,-185 783,-166 920,-166 920,-185"/>
<text text-anchor="middle" x="851.5" y="-173" font-family="Helvetica,sans-Serif" font-size="10.00">TranslatorAdapter_1_9_2</text>
</a>
</g>
</g>
<!-- Node5&#45;&gt;Node6 -->
<g id="edge5" class="edge">
<title>Node5&#45;&gt;Node6</title>
<path fill="none" stroke="#63b8ff" d="M703.82,-116.34C724.35,-128.4 754.83,-145.2 783,-156.5 791.93,-160.08 801.77,-163.26 811.12,-165.95"/>
<polygon fill="#63b8ff" stroke="#63b8ff" points="705.51,-113.27 695.13,-111.17 701.93,-119.29 705.51,-113.27"/>
</g>
<!-- Node45 -->
<g id="node45" class="node">
<title>Node45</title>
<g id="a_node45"><a xlink:href="../../da/dbb/class_translator_bulgarian.html" target="_top" xlink:title=" ">
<polygon fill="white" stroke="#666666" points="907,-148 796,-148 796,-129 907,-129 907,-148"/>
<text text-anchor="middle" x="851.5" y="-136" font-family="Helvetica,sans-Serif" font-size="10.00">TranslatorBulgarian</text>
</a>
</g>
</g>
<!-- Node5&#45;&gt;Node45 -->
<g id="edge44" class="edge">
<title>Node5&#45;&gt;Node45</title>
<path fill="none" stroke="#63b8ff" d="M733.35,-113.15C756.84,-118.23 784.04,-124.12 806.32,-128.94"/>
<polygon fill="#63b8ff" stroke="#63b8ff" points="734.05,-109.72 723.54,-111.03 732.57,-116.56 734.05,-109.72"/>
</g>
<!-- Node46 -->
<g id="node46" class="node">
<title>Node46</title>
<g id="a_node46"><a xlink:href="../../d6/db6/class_translator_chinese.html" target="_top" xlink:title=" ">
<polygon fill="white" stroke="#666666" points="903.5,-111 799.5,-111 799.5,-92 903.5,-92 903.5,-111"/>
<text text-anchor="middle" x="851.5" y="-99" font-family="Helvetica,sans-Serif" font-size="10.00">TranslatorChinese</text>
</a>
</g>
</g>
<!-- Node5&#45;&gt;Node46 -->
<g id="edge45" class="edge">
<title>Node5&#45;&gt;Node46</title>
<path fill="none" stroke="#63b8ff" d="M757.41,-101.5C771.69,-101.5 786.26,-101.5 799.49,-101.5"/>
<polygon fill="#63b8ff" stroke="#63b8ff" points="757.08,-98 747.08,-101.5 757.08,-105 757.08,-98"/>
</g>
<!-- Node47 -->
<g id="node47" class="node">
<title>Node47</title>
<g id="a_node47"><a xlink:href="../../df/d75/class_translator_greek.html" target="_top" xlink:title=" ">
<polygon fill="white" stroke="#666666" points="898.5,-74 804.5,-74 804.5,-55 898.5,-55 898.5,-74"/>
<text text-anchor="middle" x="851.5" y="-62" font-family="Helvetica,sans-Serif" font-size="10.00">TranslatorGreek</text>
</a>
</g>
</g>
<!-- Node5&#45;&gt;Node47 -->
<g id="edge46" class="edge">
<title>Node5&#45;&gt;Node47</title>
<path fill="none" stroke="#63b8ff" d="M733.35,-89.85C756.84,-84.77 784.04,-78.88 806.32,-74.06"/>
<polygon fill="#63b8ff" stroke="#63b8ff" points="732.57,-86.44 723.54,-91.97 734.05,-93.28 732.57,-86.44"/>
</g>
<!-- Node48 -->
<g id="node48" class="node">
<title>Node48</title>
<g id="a_node48"><a xlink:href="../../d1/d8a/class_translator_hindi.html" target="_top" xlink:title=" ">
<polygon fill="white" stroke="#666666" points="896.5,-37 806.5,-37 806.5,-18 896.5,-18 896.5,-37"/>
<text text-anchor="middle" x="851.5" y="-25" font-family="Helvetica,sans-Serif" font-size="10.00">TranslatorHindi</text>
</a>
</g>
</g>
<!-- Node5&#45;&gt;Node48 -->
<g id="edge47" class="edge">
<title>Node5&#45;&gt;Node48</title>
<path fill="none" stroke="#63b8ff" d="M735.42,-88.32C739.44,-86.6 743.35,-84.67 747,-82.5 766.72,-70.77 763.2,-57.1 783,-45.5 790.12,-41.33 798.21,-38.11 806.27,-35.62"/>
<polygon fill="#63b8ff" stroke="#63b8ff" points="733.97,-85.13 725.86,-91.95 736.46,-91.67 733.97,-85.13"/>
</g>
<!-- Node7 -->
<g id="node7" class="node">
<title>Node7</title>
<g id="a_node7"><a xlink:href="../../de/dde/class_translator_adapter__1__8__19.html" target="_top" xlink:title=" ">
<polygon fill="white" stroke="#666666" points="1099,-185 956,-185 956,-166 1099,-166 1099,-185"/>
<text text-anchor="middle" x="1027.5" y="-173" font-family="Helvetica,sans-Serif" font-size="10.00">TranslatorAdapter_1_8_19</text>
</a>
</g>
</g>
<!-- Node6&#45;&gt;Node7 -->
<g id="edge6" class="edge">
<title>Node6&#45;&gt;Node7</title>
<path fill="none" stroke="#63b8ff" d="M930.47,-175.5C938.89,-175.5 947.42,-175.5 955.75,-175.5"/>
<polygon fill="#63b8ff" stroke="#63b8ff" points="930.27,-172 920.27,-175.5 930.27,-179 930.27,-172"/>
</g>
<!-- Node8 -->
<g id="node8" class="node">
<title>Node8</title>
<g id="a_node8"><a xlink:href="../../d4/d2e/class_translator_adapter__1__8__15.html" target="_top" xlink:title=" ">
<polygon fill="white" stroke="#666666" points="1278,-185 1135,-185 1135,-166 1278,-166 1278,-185"/>
<text text-anchor="middle" x="1206.5" y="-173" font-family="Helvetica,sans-Serif" font-size="10.00">TranslatorAdapter_1_8_15</text>
</a>
</g>
</g>
<!-- Node7&#45;&gt;Node8 -->
<g id="edge7" class="edge">
<title>Node7&#45;&gt;Node8</title>
<path fill="none" stroke="#63b8ff" d="M1109.49,-175.5C1117.97,-175.5 1126.54,-175.5 1134.89,-175.5"/>
<polygon fill="#63b8ff" stroke="#63b8ff" points="1109.22,-172 1099.22,-175.5 1109.22,-179 1109.22,-172"/>
</g>
<!-- Node9 -->
<g id="node9" class="node">
<title>Node9</title>
<g id="a_node9"><a xlink:href="../../de/d2f/class_translator_adapter__1__8__4.html" target="_top" xlink:title=" ">
<polygon fill="white" stroke="#666666" points="1459.5,-352 1322.5,-352 1322.5,-333 1459.5,-333 1459.5,-352"/>
<text text-anchor="middle" x="1391" y="-340" font-family="Helvetica,sans-Serif" font-size="10.00">TranslatorAdapter_1_8_4</text>
</a>
</g>
</g>
<!-- Node8&#45;&gt;Node9 -->
<g id="edge8" class="edge">
<title>Node8&#45;&gt;Node9</title>
<path fill="none" stroke="#63b8ff" d="M1215.89,-194.78C1230.81,-226.7 1265.04,-290.29 1314,-323.5 1319.74,-327.39 1326.21,-330.49 1332.89,-332.95"/>
<polygon fill="#63b8ff" stroke="#63b8ff" points="1218.89,-192.93 1211.58,-185.26 1212.52,-195.81 1218.89,-192.93"/>
</g>
<!-- Node36 -->
<g id="node36" class="node">
<title>Node36</title>
<g id="a_node36"><a xlink:href="../../dd/df6/class_translator_chinesetraditional.html" target="_top" xlink:title=" ">
<polygon fill="white" stroke="#666666" points="1468,-315 1314,-315 1314,-296 1468,-296 1468,-315"/>
<text text-anchor="middle" x="1391" y="-303" font-family="Helvetica,sans-Serif" font-size="10.00">TranslatorChinesetraditional</text>
</a>
</g>
</g>
<!-- Node8&#45;&gt;Node36 -->
<g id="edge35" class="edge">
<title>Node8&#45;&gt;Node36</title>
<path fill="none" stroke="#63b8ff" d="M1219.88,-193.77C1237.71,-218.63 1273.03,-262.74 1314,-286.5 1320.71,-290.39 1328.19,-293.49 1335.78,-295.96"/>
<polygon fill="#63b8ff" stroke="#63b8ff" points="1222.53,-191.45 1213.93,-185.26 1216.79,-195.46 1222.53,-191.45"/>
</g>
<!-- Node37 -->
<g id="node37" class="node">
<title>Node37</title>
<g id="a_node37"><a xlink:href="../../d6/d07/class_translator_german.html" target="_top" xlink:title=" ">
<polygon fill="white" stroke="#666666" points="1443,-278 1339,-278 1339,-259 1443,-259 1443,-278"/>
<text text-anchor="middle" x="1391" y="-266" font-family="Helvetica,sans-Serif" font-size="10.00">TranslatorGerman</text>
</a>
</g>
</g>
<!-- Node8&#45;&gt;Node37 -->
<g id="edge36" class="edge">
<title>Node8&#45;&gt;Node37</title>
<path fill="none" stroke="#63b8ff" d="M1226.32,-191.77C1246.65,-208.56 1280.63,-234.35 1314,-249.5 1322.42,-253.32 1331.73,-256.46 1340.86,-258.99"/>
<polygon fill="#63b8ff" stroke="#63b8ff" points="1228.39,-188.94 1218.48,-185.19 1223.89,-194.3 1228.39,-188.94"/>
</g>
<!-- Node38 -->
<g id="node38" class="node">
<title>Node38</title>
<g id="a_node38"><a xlink:href="../../db/d5f/class_translator_hungarian.html" target="_top" xlink:title=" ">
<polygon fill="white" stroke="#666666" points="1448.5,-241 1333.5,-241 1333.5,-222 1448.5,-222 1448.5,-241"/>
<text text-anchor="middle" x="1391" y="-229" font-family="Helvetica,sans-Serif" font-size="10.00">TranslatorHungarian</text>
</a>
</g>
</g>
<!-- Node8&#45;&gt;Node38 -->
<g id="edge37" class="edge">
<title>Node8&#45;&gt;Node38</title>
<path fill="none" stroke="#63b8ff" d="M1242.72,-188.62C1263.35,-196.09 1289.98,-205.34 1314,-212.5 1325.21,-215.84 1337.46,-219.08 1348.8,-221.91"/>
<polygon fill="#63b8ff" stroke="#63b8ff" points="1243.71,-185.26 1233.11,-185.12 1241.31,-191.84 1243.71,-185.26"/>
</g>
<!-- Node39 -->
<g id="node39" class="node">
<title>Node39</title>
<g id="a_node39"><a xlink:href="../../d2/df8/class_translator_italian.html" target="_top" xlink:title=" ">
<polygon fill="white" stroke="#666666" points="1438.5,-204 1343.5,-204 1343.5,-185 1438.5,-185 1438.5,-204"/>
<text text-anchor="middle" x="1391" y="-192" font-family="Helvetica,sans-Serif" font-size="10.00">TranslatorItalian</text>
</a>
</g>
</g>
<!-- Node8&#45;&gt;Node39 -->
<g id="edge38" class="edge">
<title>Node8&#45;&gt;Node39</title>
<path fill="none" stroke="#63b8ff" d="M1288.15,-183.9C1307.01,-185.86 1326.48,-187.89 1343.29,-189.64"/>
<polygon fill="#63b8ff" stroke="#63b8ff" points="1288.37,-180.4 1278.06,-182.85 1287.64,-187.36 1288.37,-180.4"/>
</g>
<!-- Node40 -->
<g id="node40" class="node">
<title>Node40</title>
<g id="a_node40"><a xlink:href="../../d1/d6a/class_translator_japanese.html" target="_top" xlink:title=" ">
<polygon fill="white" stroke="#666666" points="1445.5,-167 1336.5,-167 1336.5,-148 1445.5,-148 1445.5,-167"/>
<text text-anchor="middle" x="1391" y="-155" font-family="Helvetica,sans-Serif" font-size="10.00">TranslatorJapanese</text>
</a>
</g>
</g>
<!-- Node8&#45;&gt;Node40 -->
<g id="edge39" class="edge">
<title>Node8&#45;&gt;Node40</title>
<path fill="none" stroke="#63b8ff" d="M1288.14,-167.55C1304.45,-165.94 1321.22,-164.28 1336.33,-162.79"/>
<polygon fill="#63b8ff" stroke="#63b8ff" points="1287.67,-164.08 1278.06,-168.54 1288.35,-171.04 1287.67,-164.08"/>
</g>
<!-- Node41 -->
<g id="node41" class="node">
<title>Node41</title>
<g id="a_node41"><a xlink:href="../../db/dcc/class_translator_korean.html" target="_top" xlink:title=" ">
<polygon fill="white" stroke="#666666" points="1440,-130 1342,-130 1342,-111 1440,-111 1440,-130"/>
<text text-anchor="middle" x="1391" y="-118" font-family="Helvetica,sans-Serif" font-size="10.00">TranslatorKorean</text>
</a>
</g>
</g>
<!-- Node8&#45;&gt;Node41 -->
<g id="edge40" class="edge">
<title>Node8&#45;&gt;Node41</title>
<path fill="none" stroke="#63b8ff" d="M1242.27,-162.41C1262.94,-154.89 1289.78,-145.56 1314,-138.5 1324.41,-135.47 1335.74,-132.57 1346.39,-130.02"/>
<polygon fill="#63b8ff" stroke="#63b8ff" points="1240.84,-159.21 1232.66,-165.95 1243.25,-165.78 1240.84,-159.21"/>
</g>
<!-- Node42 -->
<g id="node42" class="node">
<title>Node42</title>
<g id="a_node42"><a xlink:href="../../da/d32/class_translator_romanian.html" target="_top" xlink:title=" ">
<polygon fill="white" stroke="#666666" points="1448,-93 1334,-93 1334,-74 1448,-74 1448,-93"/>
<text text-anchor="middle" x="1391" y="-81" font-family="Helvetica,sans-Serif" font-size="10.00">TranslatorRomanian</text>
</a>
</g>
</g>
<!-- Node8&#45;&gt;Node42 -->
<g id="edge41" class="edge">
<title>Node8&#45;&gt;Node42</title>
<path fill="none" stroke="#63b8ff" d="M1226.28,-159.14C1246.58,-142.29 1280.54,-116.44 1314,-101.5 1321.55,-98.13 1329.82,-95.34 1338.04,-93.05"/>
<polygon fill="#63b8ff" stroke="#63b8ff" points="1223.83,-156.63 1218.46,-165.76 1228.35,-161.97 1223.83,-156.63"/>
</g>
<!-- Node43 -->
<g id="node43" class="node">
<title>Node43</title>
<g id="a_node43"><a xlink:href="../../d0/dab/class_translator_russian.html" target="_top" xlink:title=" ">
<polygon fill="white" stroke="#666666" points="1442.5,-56 1339.5,-56 1339.5,-37 1442.5,-37 1442.5,-56"/>
<text text-anchor="middle" x="1391" y="-44" font-family="Helvetica,sans-Serif" font-size="10.00">TranslatorRussian</text>
</a>
</g>
</g>
<!-- Node8&#45;&gt;Node43 -->
<g id="edge42" class="edge">
<title>Node8&#45;&gt;Node43</title>
<path fill="none" stroke="#63b8ff" d="M1219.84,-157.16C1237.62,-132.21 1272.88,-88.01 1314,-64.5 1321.77,-60.06 1330.58,-56.71 1339.39,-54.19"/>
<polygon fill="#63b8ff" stroke="#63b8ff" points="1216.74,-155.49 1213.9,-165.69 1222.49,-159.48 1216.74,-155.49"/>
</g>
<!-- Node44 -->
<g id="node44" class="node">
<title>Node44</title>
<g id="a_node44"><a xlink:href="../../d2/d53/class_translator_slovak.html" target="_top" xlink:title=" ">
<polygon fill="white" stroke="#666666" points="1440,-19 1342,-19 1342,0 1440,0 1440,-19"/>
<text text-anchor="middle" x="1391" y="-7" font-family="Helvetica,sans-Serif" font-size="10.00">TranslatorSlovak</text>
</a>
</g>
</g>
<!-- Node8&#45;&gt;Node44 -->
<g id="edge43" class="edge">
<title>Node8&#45;&gt;Node44</title>
<path fill="none" stroke="#63b8ff" d="M1215.66,-156.57C1230.4,-124.69 1264.62,-60.55 1314,-27.5 1322.23,-21.99 1331.94,-18.17 1341.63,-15.5"/>
<polygon fill="#63b8ff" stroke="#63b8ff" points="1212.46,-155.15 1211.56,-165.7 1218.84,-158.01 1212.46,-155.15"/>
</g>
<!-- Node10 -->
<g id="node10" class="node">
<title>Node10</title>
<g id="a_node10"><a xlink:href="../../d2/d75/class_translator_adapter__1__8__2.html" target="_top" xlink:title=" ">
<polygon fill="white" stroke="#666666" points="1641,-407 1504,-407 1504,-388 1641,-388 1641,-407"/>
<text text-anchor="middle" x="1572.5" y="-395" font-family="Helvetica,sans-Serif" font-size="10.00">TranslatorAdapter_1_8_2</text>
</a>
</g>
</g>
<!-- Node9&#45;&gt;Node10 -->
<g id="edge9" class="edge">
<title>Node9&#45;&gt;Node10</title>
<path fill="none" stroke="#63b8ff" d="M1430.67,-355.32C1452.2,-362.35 1479.52,-371.12 1504,-378.5 1514.61,-381.7 1526.2,-385.02 1536.74,-387.98"/>
<polygon fill="#63b8ff" stroke="#63b8ff" points="1431.51,-351.91 1420.92,-352.12 1429.33,-358.56 1431.51,-351.91"/>
</g>
<!-- Node33 -->
<g id="node33" class="node">
<title>Node33</title>
<g id="a_node33"><a xlink:href="../../d2/d07/class_translator_esperanto.html" target="_top" xlink:title=" ">
<polygon fill="white" stroke="#666666" points="1629,-370 1516,-370 1516,-351 1629,-351 1629,-370"/>
<text text-anchor="middle" x="1572.5" y="-358" font-family="Helvetica,sans-Serif" font-size="10.00">TranslatorEsperanto</text>
</a>
</g>
</g>
<!-- Node9&#45;&gt;Node33 -->
<g id="edge32" class="edge">
<title>Node9&#45;&gt;Node33</title>
<path fill="none" stroke="#63b8ff" d="M1469.73,-350.3C1485.29,-351.85 1501.33,-353.46 1515.95,-354.93"/>
<polygon fill="#63b8ff" stroke="#63b8ff" points="1469.9,-346.79 1459.61,-349.28 1469.21,-353.76 1469.9,-346.79"/>
</g>
<!-- Node34 -->
<g id="node34" class="node">
<title>Node34</title>
<g id="a_node34"><a xlink:href="../../d8/d83/class_translator_latvian.html" target="_top" xlink:title=" ">
<polygon fill="white" stroke="#666666" points="1623,-333 1522,-333 1522,-314 1623,-314 1623,-333"/>
<text text-anchor="middle" x="1572.5" y="-321" font-family="Helvetica,sans-Serif" font-size="10.00">TranslatorLatvian</text>
</a>
</g>
</g>
<!-- Node9&#45;&gt;Node34 -->
<g id="edge33" class="edge">
<title>Node9&#45;&gt;Node34</title>
<path fill="none" stroke="#63b8ff" d="M1469.89,-334.26C1487.52,-332.39 1505.78,-330.46 1521.86,-328.75"/>
<polygon fill="#63b8ff" stroke="#63b8ff" points="1469.18,-330.81 1459.61,-335.34 1469.92,-337.77 1469.18,-330.81"/>
</g>
<!-- Node35 -->
<g id="node35" class="node">
<title>Node35</title>
<g id="a_node35"><a xlink:href="../../d1/d56/class_translator_ukrainian.html" target="_top" xlink:title=" ">
<polygon fill="white" stroke="#666666" points="1628.5,-296 1516.5,-296 1516.5,-277 1628.5,-277 1628.5,-296"/>
<text text-anchor="middle" x="1572.5" y="-284" font-family="Helvetica,sans-Serif" font-size="10.00">TranslatorUkrainian</text>
</a>
</g>
</g>
<!-- Node9&#45;&gt;Node35 -->
<g id="edge34" class="edge">
<title>Node9&#45;&gt;Node35</title>
<path fill="none" stroke="#63b8ff" d="M1447.94,-330.16C1454.77,-328.17 1461.6,-325.95 1468,-323.5 1484.9,-317.04 1487.15,-311.09 1504,-304.5 1512.13,-301.32 1521.03,-298.5 1529.62,-296.1"/>
<polygon fill="#63b8ff" stroke="#63b8ff" points="1446.68,-326.87 1437.96,-332.9 1448.54,-333.62 1446.68,-326.87"/>
</g>
<!-- Node11 -->
<g id="node11" class="node">
<title>Node11</title>
<g id="a_node11"><a xlink:href="../../de/d49/class_translator_adapter__1__8__0.html" target="_top" xlink:title="Adapter class for languages that only contain translations up to version 1.8.0.">
<polygon fill="white" stroke="#666666" points="1814,-444 1677,-444 1677,-425 1814,-425 1814,-444"/>
<text text-anchor="middle" x="1745.5" y="-432" font-family="Helvetica,sans-Serif" font-size="10.00">TranslatorAdapter_1_8_0</text>
</a>
</g>
</g>
<!-- Node10&#45;&gt;Node11 -->
<g id="edge10" class="edge">
<title>Node10&#45;&gt;Node11</title>
<path fill="none" stroke="#63b8ff" d="M1627.35,-409.15C1650.84,-414.23 1678.04,-420.12 1700.32,-424.94"/>
<polygon fill="#63b8ff" stroke="#63b8ff" points="1628.05,-405.72 1617.54,-407.03 1626.57,-412.56 1628.05,-405.72"/>
</g>
<!-- Node31 -->
<g id="node31" class="node">
<title>Node31</title>
<g id="a_node31"><a xlink:href="../../d9/d82/class_translator_croatian.html" target="_top" xlink:title=" ">
<polygon fill="white" stroke="#666666" points="1798.5,-407 1692.5,-407 1692.5,-388 1798.5,-388 1798.5,-407"/>
<text text-anchor="middle" x="1745.5" y="-395" font-family="Helvetica,sans-Serif" font-size="10.00">TranslatorCroatian</text>
</a>
</g>
</g>
<!-- Node10&#45;&gt;Node31 -->
<g id="edge30" class="edge">
<title>Node10&#45;&gt;Node31</title>
<path fill="none" stroke="#63b8ff" d="M1651.19,-397.5C1665.16,-397.5 1679.41,-397.5 1692.44,-397.5"/>
<polygon fill="#63b8ff" stroke="#63b8ff" points="1651.08,-394 1641.08,-397.5 1651.08,-401 1651.08,-394"/>
</g>
<!-- Node32 -->
<g id="node32" class="node">
<title>Node32</title>
<g id="a_node32"><a xlink:href="../../de/d82/class_translator_polish.html" target="_top" xlink:title=" ">
<polygon fill="white" stroke="#666666" points="1792.5,-370 1698.5,-370 1698.5,-351 1792.5,-351 1792.5,-370"/>
<text text-anchor="middle" x="1745.5" y="-358" font-family="Helvetica,sans-Serif" font-size="10.00">TranslatorPolish</text>
</a>
</g>
</g>
<!-- Node10&#45;&gt;Node32 -->
<g id="edge31" class="edge">
<title>Node10&#45;&gt;Node32</title>
<path fill="none" stroke="#63b8ff" d="M1627.35,-385.85C1650.84,-380.77 1678.04,-374.88 1700.32,-370.06"/>
<polygon fill="#63b8ff" stroke="#63b8ff" points="1626.57,-382.44 1617.54,-387.97 1628.05,-389.28 1626.57,-382.44"/>
</g>
<!-- Node12 -->
<g id="node12" class="node">
<title>Node12</title>
<g id="a_node12"><a xlink:href="../../da/d24/class_translator_adapter__1__7__5.html" target="_top" xlink:title="Adapter class for languages that only contain translations up to version 1.7.5.">
<polygon fill="white" stroke="#666666" points="1987,-518 1850,-518 1850,-499 1987,-499 1987,-518"/>
<text text-anchor="middle" x="1918.5" y="-506" font-family="Helvetica,sans-Serif" font-size="10.00">TranslatorAdapter_1_7_5</text>
</a>
</g>
</g>
<!-- Node11&#45;&gt;Node12 -->
<g id="edge11" class="edge">
<title>Node11&#45;&gt;Node12</title>
<path fill="none" stroke="#63b8ff" d="M1770.82,-449.34C1791.35,-461.4 1821.83,-478.2 1850,-489.5 1858.93,-493.08 1868.77,-496.26 1878.12,-498.95"/>
<polygon fill="#63b8ff" stroke="#63b8ff" points="1772.51,-446.27 1762.13,-444.17 1768.93,-452.29 1772.51,-446.27"/>
</g>
<!-- Node27 -->
<g id="node27" class="node">
<title>Node27</title>
<g id="a_node27"><a xlink:href="../../da/db8/class_translator_armenian.html" target="_top" xlink:title=" ">
<polygon fill="white" stroke="#666666" points="1974.5,-481 1862.5,-481 1862.5,-462 1974.5,-462 1974.5,-481"/>
<text text-anchor="middle" x="1918.5" y="-469" font-family="Helvetica,sans-Serif" font-size="10.00">TranslatorArmenian</text>
</a>
</g>
</g>
<!-- Node11&#45;&gt;Node27 -->
<g id="edge26" class="edge">
<title>Node11&#45;&gt;Node27</title>
<path fill="none" stroke="#63b8ff" d="M1800.35,-446.15C1823.84,-451.23 1851.04,-457.12 1873.32,-461.94"/>
<polygon fill="#63b8ff" stroke="#63b8ff" points="1801.05,-442.72 1790.54,-444.03 1799.57,-449.56 1801.05,-442.72"/>
</g>
<!-- Node28 -->
<g id="node28" class="node">
<title>Node28</title>
<g id="a_node28"><a xlink:href="../../d9/dc1/class_translator_catalan.html" target="_top" xlink:title=" ">
<polygon fill="white" stroke="#666666" points="1969.5,-444 1867.5,-444 1867.5,-425 1969.5,-425 1969.5,-444"/>
<text text-anchor="middle" x="1918.5" y="-432" font-family="Helvetica,sans-Serif" font-size="10.00">TranslatorCatalan</text>
</a>
</g>
</g>
<!-- Node11&#45;&gt;Node28 -->
<g id="edge27" class="edge">
<title>Node11&#45;&gt;Node28</title>
<path fill="none" stroke="#63b8ff" d="M1824.15,-434.5C1838.8,-434.5 1853.76,-434.5 1867.28,-434.5"/>
<polygon fill="#63b8ff" stroke="#63b8ff" points="1824.08,-431 1814.08,-434.5 1824.08,-438 1824.08,-431"/>
</g>
<!-- Node29 -->
<g id="node29" class="node">
<title>Node29</title>
<g id="a_node29"><a xlink:href="../../d7/d21/class_translator_danish.html" target="_top" xlink:title=" ">
<polygon fill="white" stroke="#666666" points="1967.5,-407 1869.5,-407 1869.5,-388 1967.5,-388 1967.5,-407"/>
<text text-anchor="middle" x="1918.5" y="-395" font-family="Helvetica,sans-Serif" font-size="10.00">TranslatorDanish</text>
</a>
</g>
</g>
<!-- Node11&#45;&gt;Node29 -->
<g id="edge28" class="edge">
<title>Node11&#45;&gt;Node29</title>
<path fill="none" stroke="#63b8ff" d="M1800.35,-422.85C1823.84,-417.77 1851.04,-411.88 1873.32,-407.06"/>
<polygon fill="#63b8ff" stroke="#63b8ff" points="1799.57,-419.44 1790.54,-424.97 1801.05,-426.28 1799.57,-419.44"/>
</g>
<!-- Node30 -->
<g id="node30" class="node">
<title>Node30</title>
<g id="a_node30"><a xlink:href="../../df/dc8/class_translator_indonesian.html" target="_top" xlink:title=" ">
<polygon fill="white" stroke="#666666" points="1977.5,-370 1859.5,-370 1859.5,-351 1977.5,-351 1977.5,-370"/>
<text text-anchor="middle" x="1918.5" y="-358" font-family="Helvetica,sans-Serif" font-size="10.00">TranslatorIndonesian</text>
</a>
</g>
</g>
<!-- Node11&#45;&gt;Node30 -->
<g id="edge29" class="edge">
<title>Node11&#45;&gt;Node30</title>
<path fill="none" stroke="#63b8ff" d="M1802.42,-421.32C1806.44,-419.6 1810.35,-417.67 1814,-415.5 1833.72,-403.77 1830.2,-390.1 1850,-378.5 1855.86,-375.07 1862.39,-372.28 1869.01,-370.01"/>
<polygon fill="#63b8ff" stroke="#63b8ff" points="1800.97,-418.13 1792.86,-424.95 1803.46,-424.67 1800.97,-418.13"/>
</g>
<!-- Node13 -->
<g id="node13" class="node">
<title>Node13</title>
<g id="a_node13"><a xlink:href="../../d3/da1/class_translator_adapter__1__6__0.html" target="_top" xlink:title="Adapter class for languages that only contain translations up to version 1.6.0.">
<polygon fill="white" stroke="#666666" points="2160,-555 2023,-555 2023,-536 2160,-536 2160,-555"/>
<text text-anchor="middle" x="2091.5" y="-543" font-family="Helvetica,sans-Serif" font-size="10.00">TranslatorAdapter_1_6_0</text>
</a>
</g>
</g>
<!-- Node12&#45;&gt;Node13 -->
<g id="edge12" class="edge">
<title>Node12&#45;&gt;Node13</title>
<path fill="none" stroke="#63b8ff" d="M1973.35,-520.15C1996.84,-525.23 2024.04,-531.12 2046.32,-535.94"/>
<polygon fill="#63b8ff" stroke="#63b8ff" points="1974.05,-516.72 1963.54,-518.03 1972.57,-523.56 1974.05,-516.72"/>
</g>
<!-- Node25 -->
<g id="node25" class="node">
<title>Node25</title>
<g id="a_node25"><a xlink:href="../../d5/d43/class_translator_persian.html" target="_top" xlink:title=" ">
<polygon fill="white" stroke="#666666" points="2142,-518 2041,-518 2041,-499 2142,-499 2142,-518"/>
<text text-anchor="middle" x="2091.5" y="-506" font-family="Helvetica,sans-Serif" font-size="10.00">TranslatorPersian</text>
</a>
</g>
</g>
<!-- Node12&#45;&gt;Node25 -->
<g id="edge24" class="edge">
<title>Node12&#45;&gt;Node25</title>
<path fill="none" stroke="#63b8ff" d="M1997.26,-508.5C2012.06,-508.5 2027.18,-508.5 2040.81,-508.5"/>
<polygon fill="#63b8ff" stroke="#63b8ff" points="1997.08,-505 1987.08,-508.5 1997.08,-512 1997.08,-505"/>
</g>
<!-- Node26 -->
<g id="node26" class="node">
<title>Node26</title>
<g id="a_node26"><a xlink:href="../../dd/d80/class_translator_turkish.html" target="_top" xlink:title=" ">
<polygon fill="white" stroke="#666666" points="2141,-481 2042,-481 2042,-462 2141,-462 2141,-481"/>
<text text-anchor="middle" x="2091.5" y="-469" font-family="Helvetica,sans-Serif" font-size="10.00">TranslatorTurkish</text>
</a>
</g>
</g>
<!-- Node12&#45;&gt;Node26 -->
<g id="edge25" class="edge">
<title>Node12&#45;&gt;Node26</title>
<path fill="none" stroke="#63b8ff" d="M1973.35,-496.85C1996.84,-491.77 2024.04,-485.88 2046.32,-481.06"/>
<polygon fill="#63b8ff" stroke="#63b8ff" points="1972.57,-493.44 1963.54,-498.97 1974.05,-500.28 1972.57,-493.44"/>
</g>
<!-- Node14 -->
<g id="node14" class="node">
<title>Node14</title>
<g id="a_node14"><a xlink:href="../../d4/d2b/class_translator_adapter__1__4__6.html" target="_top" xlink:title="Adapter class for languages that only contain translations up to version 1.4.6.">
<polygon fill="white" stroke="#666666" points="2333,-666 2196,-666 2196,-647 2333,-647 2333,-666"/>
<text text-anchor="middle" x="2264.5" y="-654" font-family="Helvetica,sans-Serif" font-size="10.00">TranslatorAdapter_1_4_6</text>
</a>
</g>
</g>
<!-- Node13&#45;&gt;Node14 -->
<g id="edge13" class="edge">
<title>Node13&#45;&gt;Node14</title>
<path fill="none" stroke="#63b8ff" d="M2107.39,-562.85C2126.06,-583.55 2160.04,-617.83 2196,-637.5 2202.94,-641.3 2210.71,-644.39 2218.44,-646.89"/>
<polygon fill="#63b8ff" stroke="#63b8ff" points="2109.82,-560.31 2100.57,-555.14 2104.57,-564.95 2109.82,-560.31"/>
</g>
<!-- Node19 -->
<g id="node19" class="node">
<title>Node19</title>
<g id="a_node19"><a xlink:href="../../d3/d65/class_translator_afrikaans.html" target="_top" xlink:title=" ">
<polygon fill="white" stroke="#666666" points="2319.5,-629 2209.5,-629 2209.5,-610 2319.5,-610 2319.5,-629"/>
<text text-anchor="middle" x="2264.5" y="-617" font-family="Helvetica,sans-Serif" font-size="10.00">TranslatorAfrikaans</text>
</a>
</g>
</g>
<!-- Node13&#45;&gt;Node19 -->
<g id="edge18" class="edge">
<title>Node13&#45;&gt;Node19</title>
<path fill="none" stroke="#63b8ff" d="M2116.82,-560.34C2137.35,-572.4 2167.83,-589.2 2196,-600.5 2204.93,-604.08 2214.77,-607.26 2224.12,-609.95"/>
<polygon fill="#63b8ff" stroke="#63b8ff" points="2118.51,-557.27 2108.13,-555.17 2114.93,-563.29 2118.51,-557.27"/>
</g>
<!-- Node20 -->
<g id="node20" class="node">
<title>Node20</title>
<g id="a_node20"><a xlink:href="../../de/df7/class_translator_finnish.html" target="_top" xlink:title=" ">
<polygon fill="white" stroke="#666666" points="2314,-592 2215,-592 2215,-573 2314,-573 2314,-592"/>
<text text-anchor="middle" x="2264.5" y="-580" font-family="Helvetica,sans-Serif" font-size="10.00">TranslatorFinnish</text>
</a>
</g>
</g>
<!-- Node13&#45;&gt;Node20 -->
<g id="edge19" class="edge">
<title>Node13&#45;&gt;Node20</title>
<path fill="none" stroke="#63b8ff" d="M2146.35,-557.15C2169.84,-562.23 2197.04,-568.12 2219.32,-572.94"/>
<polygon fill="#63b8ff" stroke="#63b8ff" points="2147.05,-553.72 2136.54,-555.03 2145.57,-560.56 2147.05,-553.72"/>
</g>
<!-- Node21 -->
<g id="node21" class="node">
<title>Node21</title>
<g id="a_node21"><a xlink:href="../../d9/ddf/class_translator_macedonian.html" target="_top" xlink:title=" ">
<polygon fill="white" stroke="#666666" points="2326.5,-555 2202.5,-555 2202.5,-536 2326.5,-536 2326.5,-555"/>
<text text-anchor="middle" x="2264.5" y="-543" font-family="Helvetica,sans-Serif" font-size="10.00">TranslatorMacedonian</text>
</a>
</g>
</g>
<!-- Node13&#45;&gt;Node21 -->
<g id="edge20" class="edge">
<title>Node13&#45;&gt;Node21</title>
<path fill="none" stroke="#63b8ff" d="M2170.28,-545.5C2181,-545.5 2191.88,-545.5 2202.24,-545.5"/>
<polygon fill="#63b8ff" stroke="#63b8ff" points="2170.08,-542 2160.08,-545.5 2170.08,-549 2170.08,-542"/>
</g>
<!-- Node22 -->
<g id="node22" class="node">
<title>Node22</title>
<g id="a_node22"><a xlink:href="../../d5/d0a/class_translator_serbian.html" target="_top" xlink:title=" ">
<polygon fill="white" stroke="#666666" points="2315,-518 2214,-518 2214,-499 2315,-499 2315,-518"/>
<text text-anchor="middle" x="2264.5" y="-506" font-family="Helvetica,sans-Serif" font-size="10.00">TranslatorSerbian</text>
</a>
</g>
</g>
<!-- Node13&#45;&gt;Node22 -->
<g id="edge21" class="edge">
<title>Node13&#45;&gt;Node22</title>
<path fill="none" stroke="#63b8ff" d="M2146.35,-533.85C2169.84,-528.77 2197.04,-522.88 2219.32,-518.06"/>
<polygon fill="#63b8ff" stroke="#63b8ff" points="2145.57,-530.44 2136.54,-535.97 2147.05,-537.28 2145.57,-530.44"/>
</g>
<!-- Node23 -->
<g id="node23" class="node">
<title>Node23</title>
<g id="a_node23"><a xlink:href="../../dc/d03/class_translator_serbian_cyrillic.html" target="_top" xlink:title=" ">
<polygon fill="white" stroke="#666666" points="2332,-481 2197,-481 2197,-462 2332,-462 2332,-481"/>
<text text-anchor="middle" x="2264.5" y="-469" font-family="Helvetica,sans-Serif" font-size="10.00">TranslatorSerbianCyrillic</text>
</a>
</g>
</g>
<!-- Node13&#45;&gt;Node23 -->
<g id="edge22" class="edge">
<title>Node13&#45;&gt;Node23</title>
<path fill="none" stroke="#63b8ff" d="M2148.42,-532.32C2152.44,-530.6 2156.35,-528.67 2160,-526.5 2179.72,-514.77 2176.2,-501.1 2196,-489.5 2201.86,-486.07 2208.39,-483.28 2215.01,-481.01"/>
<polygon fill="#63b8ff" stroke="#63b8ff" points="2146.97,-529.13 2138.86,-535.95 2149.46,-535.67 2146.97,-529.13"/>
</g>
<!-- Node24 -->
<g id="node24" class="node">
<title>Node24</title>
<g id="a_node24"><a xlink:href="../../df/d20/class_translator_vietnamese.html" target="_top" xlink:title=" ">
<polygon fill="white" stroke="#666666" points="2326,-444 2203,-444 2203,-425 2326,-425 2326,-444"/>
<text text-anchor="middle" x="2264.5" y="-432" font-family="Helvetica,sans-Serif" font-size="10.00">TranslatorVietnamese</text>
</a>
</g>
</g>
<!-- Node13&#45;&gt;Node24 -->
<g id="edge23" class="edge">
<title>Node13&#45;&gt;Node24</title>
<path fill="none" stroke="#63b8ff" d="M2153.48,-531.18C2155.77,-529.76 2157.96,-528.21 2160,-526.5 2188.06,-503.04 2167.78,-475.76 2196,-452.5 2200.12,-449.11 2204.81,-446.35 2209.77,-444.1"/>
<polygon fill="#63b8ff" stroke="#63b8ff" points="2151.48,-528.27 2144.21,-535.97 2154.7,-534.49 2151.48,-528.27"/>
</g>
<!-- Node15 -->
<g id="node15" class="node">
<title>Node15</title>
<g id="a_node15"><a xlink:href="../../d3/de9/class_translator_arabic.html" target="_top" xlink:title=" ">
<polygon fill="white" stroke="#666666" points="2475,-721 2380,-721 2380,-702 2475,-702 2475,-721"/>
<text text-anchor="middle" x="2427.5" y="-709" font-family="Helvetica,sans-Serif" font-size="10.00">TranslatorArabic</text>
</a>
</g>
</g>
<!-- Node14&#45;&gt;Node15 -->
<g id="edge14" class="edge">
<title>Node14&#45;&gt;Node15</title>
<path fill="none" stroke="#63b8ff" d="M2300.94,-669.57C2320.87,-676.81 2346.25,-685.88 2369,-693.5 2377.43,-696.33 2386.6,-699.26 2395.09,-701.92"/>
<polygon fill="#63b8ff" stroke="#63b8ff" points="2301.94,-666.2 2291.35,-666.06 2299.54,-672.78 2301.94,-666.2"/>
</g>
<!-- Node16 -->
<g id="node16" class="node">
<title>Node16</title>
<g id="a_node16"><a xlink:href="../../dc/d53/class_translator_lithuanian.html" target="_top" xlink:title=" ">
<polygon fill="white" stroke="#666666" points="2485.5,-684 2369.5,-684 2369.5,-665 2485.5,-665 2485.5,-684"/>
<text text-anchor="middle" x="2427.5" y="-672" font-family="Helvetica,sans-Serif" font-size="10.00">TranslatorLithuanian</text>
</a>
</g>
</g>
<!-- Node14&#45;&gt;Node16 -->
<g id="edge15" class="edge">
<title>Node14&#45;&gt;Node16</title>
<path fill="none" stroke="#63b8ff" d="M2343.53,-665.22C2352.27,-666.2 2361.05,-667.18 2369.46,-668.12"/>
<polygon fill="#63b8ff" stroke="#63b8ff" points="2343.64,-661.71 2333.31,-664.08 2342.86,-668.67 2343.64,-661.71"/>
</g>
<!-- Node17 -->
<g id="node17" class="node">
<title>Node17</title>
<g id="a_node17"><a xlink:href="../../dd/d38/class_translator_norwegian.html" target="_top" xlink:title=" ">
<polygon fill="white" stroke="#666666" points="2486,-647 2369,-647 2369,-628 2486,-628 2486,-647"/>
<text text-anchor="middle" x="2427.5" y="-635" font-family="Helvetica,sans-Serif" font-size="10.00">TranslatorNorwegian</text>
</a>
</g>
</g>
<!-- Node14&#45;&gt;Node17 -->
<g id="edge16" class="edge">
<title>Node14&#45;&gt;Node17</title>
<path fill="none" stroke="#63b8ff" d="M2343.38,-647.31C2352,-646.29 2360.66,-645.27 2368.96,-644.29"/>
<polygon fill="#63b8ff" stroke="#63b8ff" points="2342.83,-643.85 2333.31,-648.5 2343.65,-650.8 2342.83,-643.85"/>
</g>
<!-- Node18 -->
<g id="node18" class="node">
<title>Node18</title>
<g id="a_node18"><a xlink:href="../../dd/d0b/class_translator_slovene.html" target="_top" xlink:title=" ">
<polygon fill="white" stroke="#666666" points="2479.5,-610 2375.5,-610 2375.5,-591 2479.5,-591 2479.5,-610"/>
<text text-anchor="middle" x="2427.5" y="-598" font-family="Helvetica,sans-Serif" font-size="10.00">TranslatorSlovene</text>
</a>
</g>
</g>
<!-- Node14&#45;&gt;Node18 -->
<g id="edge17" class="edge">
<title>Node14&#45;&gt;Node18</title>
<path fill="none" stroke="#63b8ff" d="M2314.63,-643.99C2320.88,-642.01 2327.14,-639.84 2333,-637.5 2349.8,-630.79 2352.3,-625.45 2369,-618.5 2376.44,-615.4 2384.6,-612.54 2392.38,-610.05"/>
<polygon fill="#63b8ff" stroke="#63b8ff" points="2313.44,-640.69 2304.87,-646.93 2315.46,-647.4 2313.44,-640.69"/>
</g>
</g>
</svg>
        <g id="navigator" transform="translate(0 0)" fill="#404254">
                <rect fill="#f2f5e9" fill-opacity="0.5" stroke="#606060" stroke-width=".5" x="0" y="0" width="60" height="60"/>
                <use id="zoomplus" xlink:href="#zoomPlus" x="17" y="9" onmousedown="handleZoom(evt,'in')"/>
                <use id="zoomminus" xlink:href="#zoomMin" x="42" y="9" onmousedown="handleZoom(evt,'out')"/>
                <use id="reset" xlink:href="#resetDef" x="30" y="36" onmousedown="handleReset()"/>
                <g id="arrowUp" xlink:href="#dirArrow" transform="translate(30 24)" onmousedown="handlePan(0,-1)">
                  <use xlink:href="#rim" fill="#404040">
                        <set attributeName="fill" to="#808080" begin="arrowUp.mouseover" end="arrowUp.mouseout"/>
                  </use>
                  <path fill="none" stroke="white" stroke-width="1.5" d="M0,-3.0v7 M-2.5,-0.5L0,-3.0L2.5,-0.5"/>
                </g>
                <g id="arrowRight" xlink:href="#dirArrow" transform="rotate(90) translate(36 -43)" onmousedown="handlePan(1,0)">
                  <use xlink:href="#rim" fill="#404040">
                        <set attributeName="fill" to="#808080" begin="arrowRight.mouseover" end="arrowRight.mouseout"/>
                  </use>
                  <path fill="none" stroke="white" stroke-width="1.5" d="M0,-3.0v7 M-2.5,-0.5L0,-3.0L2.5,-0.5"/>
                </g>
                <g id="arrowDown" xlink:href="#dirArrow" transform="rotate(180) translate(-30 -48)" onmousedown="handlePan(0,1)">
                  <use xlink:href="#rim" fill="#404040">
                        <set attributeName="fill" to="#808080" begin="arrowDown.mouseover" end="arrowDown.mouseout"/>
                  </use>
                  <path fill="none" stroke="white" stroke-width="1.5" d="M0,-3.0v7 M-2.5,-0.5L0,-3.0L2.5,-0.5"/>
                </g>
                <g id="arrowLeft" xlink:href="#dirArrow" transform="rotate(270) translate(-36 17)" onmousedown="handlePan(-1,0)">
                  <use xlink:href="#rim" fill="#404040">
                        <set attributeName="fill" to="#808080" begin="arrowLeft.mouseover" end="arrowLeft.mouseout"/>
                  </use>
                  <path fill="none" stroke="white" stroke-width="1.5" d="M0,-3.0v7 M-2.5,-0.5L0,-3.0L2.5,-0.5"/>
                </g>
        </g>
        <svg viewBox="0 0 15 15" width="100%" height="30px" preserveAspectRatio="xMaxYMin meet">
         <g id="arrow_out" transform="scale(0.3 0.3)">
          <a xlink:href="class_translator_adapter__1__9__5__inherit__graph_org.svg" target="_base">
           <rect id="button" ry="5" rx="5" y="6" x="6" height="38" width="38"
                fill="#f2f5e9" fill-opacity="0.5" stroke="#606060" stroke-width="1.0"/>
           <path id="arrow"
             d="M 11.500037,31.436501 C 11.940474,20.09759 22.043105,11.32322 32.158766,21.979434 L 37.068811,17.246167 C 37.068811,17.246167 37.088388,32 37.088388,32 L 22.160133,31.978069 C 22.160133,31.978069 26.997745,27.140456 26.997745,27.140456 C 18.528582,18.264221 13.291696,25.230495 11.500037,31.436501 z"
             style="fill:#404040;"/>
          </a>
         </g>
        </svg>
</svg>
