<?xml version="1.0" encoding="UTF-8" standalone="no"?>
<!DOCTYPE svg PUBLIC "-//W3C//DTD SVG 1.1//EN"
 "http://www.w3.org/Graphics/SVG/1.1/DTD/svg11.dtd">
<!-- Generated by graphviz version 2.43.0 (0)
 -->
<!-- Title: DocEmoji Pages: 1 -->
<svg width="1290pt" height="364pt"
 viewBox="0.00 0.00 1290.00 364.00" xmlns="http://www.w3.org/2000/svg" xmlns:xlink="http://www.w3.org/1999/xlink">
<g id="graph0" class="graph" transform="scale(1 1) rotate(0) translate(4 360)">
<title>DocEmoji</title>
<!-- Node1 -->
<g id="node1" class="node">
<title>Node1</title>
<g id="a_node1"><a xlink:title="Node representing an emoji.">
<polygon fill="#999999" stroke="#666666" points="1282,-31.5 1219,-31.5 1219,-12.5 1282,-12.5 1282,-31.5"/>
<text text-anchor="middle" x="1250.5" y="-19.5" font-family="Helvetica,sans-Serif" font-size="10.00">DocEmoji</text>
</a>
</g>
</g>
<!-- Node2 -->
<g id="node2" class="node">
<title>Node2</title>
<g id="a_node2"><a xlink:href="../../d9/d0e/class_doc_node.html" target="_top" xlink:title="Abstract node interface with type information.">
<polygon fill="white" stroke="#666666" points="1182,-75.5 1121,-75.5 1121,-56.5 1182,-56.5 1182,-75.5"/>
<text text-anchor="middle" x="1151.5" y="-63.5" font-family="Helvetica,sans-Serif" font-size="10.00">DocNode</text>
</a>
</g>
</g>
<!-- Node2&#45;&gt;Node1 -->
<g id="edge1" class="edge">
<title>Node2&#45;&gt;Node1</title>
<path fill="none" stroke="#63b8ff" d="M1182.84,-52.24C1197.67,-45.51 1215.16,-37.58 1228.49,-31.53"/>
<polygon fill="#63b8ff" stroke="#63b8ff" points="1181.21,-49.13 1173.55,-56.45 1184.1,-55.51 1181.21,-49.13"/>
</g>
<!-- Node3 -->
<g id="node3" class="node">
<title>Node3</title>
<g id="a_node3"><a xlink:href="../../da/d02/class_doc_parser.html" target="_top" xlink:title=" ">
<polygon fill="white" stroke="#666666" points="1036,-103.5 971,-103.5 971,-84.5 1036,-84.5 1036,-103.5"/>
<text text-anchor="middle" x="1003.5" y="-91.5" font-family="Helvetica,sans-Serif" font-size="10.00">DocParser</text>
</a>
</g>
</g>
<!-- Node3&#45;&gt;Node2 -->
<g id="edge2" class="edge">
<title>Node3&#45;&gt;Node2</title>
<path fill="none" stroke="#9a32cd" stroke-dasharray="5,2" d="M1046.03,-86.03C1069.91,-81.46 1099.34,-75.81 1120.87,-71.68"/>
<polygon fill="#9a32cd" stroke="#9a32cd" points="1045.34,-82.6 1036.18,-87.92 1046.66,-89.48 1045.34,-82.6"/>
<text text-anchor="middle" x="1078.5" y="-87" font-family="Helvetica,sans-Serif" font-size="10.00" fill="grey"> m_parser</text>
</g>
<!-- Node4 -->
<g id="node4" class="node">
<title>Node4</title>
<g id="a_node4"><a xlink:href="../../de/dad/class_i_doc_parser.html" target="_top" xlink:title="opaque parser interface">
<polygon fill="white" stroke="#666666" points="848,-66.5 780,-66.5 780,-47.5 848,-47.5 848,-66.5"/>
<text text-anchor="middle" x="814" y="-54.5" font-family="Helvetica,sans-Serif" font-size="10.00">IDocParser</text>
</a>
</g>
</g>
<!-- Node4&#45;&gt;Node3 -->
<g id="edge3" class="edge">
<title>Node4&#45;&gt;Node3</title>
<path fill="none" stroke="#63b8ff" d="M858.33,-65.55C892.75,-72.34 940.1,-81.69 970.99,-87.78"/>
<polygon fill="#63b8ff" stroke="#63b8ff" points="858.58,-62.03 848.09,-63.53 857.22,-68.9 858.58,-62.03"/>
</g>
<!-- Node5 -->
<g id="node5" class="node">
<title>Node5</title>
<g id="a_node5"><a xlink:href="../../d8/d7d/struct_doc_parser_context.html" target="_top" xlink:title="Parser&#39;s context to store all global variables.">
<polygon fill="white" stroke="#666666" points="866,-191.5 762,-191.5 762,-172.5 866,-172.5 866,-191.5"/>
<text text-anchor="middle" x="814" y="-179.5" font-family="Helvetica,sans-Serif" font-size="10.00">DocParserContext</text>
</a>
</g>
</g>
<!-- Node5&#45;&gt;Node3 -->
<g id="edge4" class="edge">
<title>Node5&#45;&gt;Node3</title>
<path fill="none" stroke="#9a32cd" stroke-dasharray="5,2" d="M867.12,-169.71C893.83,-162.17 926.27,-151.05 953,-136 968.71,-127.15 984.12,-112.96 993.47,-103.56"/>
<polygon fill="#9a32cd" stroke="#9a32cd" points="865.91,-166.41 857.19,-172.42 867.76,-173.16 865.91,-166.41"/>
<text text-anchor="middle" x="918.5" y="-166" font-family="Helvetica,sans-Serif" font-size="10.00" fill="grey"> context</text>
</g>
<!-- Node6 -->
<g id="node6" class="node">
<title>Node6</title>
<g id="a_node6"><a xlink:href="../../d5/dcc/class_definition.html" target="_top" xlink:title="The common base class of all entity definitions found in the sources.">
<polygon fill="white" stroke="#666666" points="294.5,-330.5 230.5,-330.5 230.5,-311.5 294.5,-311.5 294.5,-330.5"/>
<text text-anchor="middle" x="262.5" y="-318.5" font-family="Helvetica,sans-Serif" font-size="10.00">Definition</text>
</a>
</g>
</g>
<!-- Node6&#45;&gt;Node5 -->
<g id="edge5" class="edge">
<title>Node6&#45;&gt;Node5</title>
<path fill="none" stroke="#9a32cd" stroke-dasharray="5,2" d="M304.65,-330.01C393.95,-347.1 608.42,-374.41 744,-278 776.78,-254.69 799.81,-210.8 808.81,-191.51"/>
<polygon fill="#9a32cd" stroke="#9a32cd" points="305.13,-326.54 294.64,-328.04 303.77,-333.41 305.13,-326.54"/>
<text text-anchor="middle" x="583.5" y="-348" font-family="Helvetica,sans-Serif" font-size="10.00" fill="grey"> scope</text>
</g>
<!-- Node12 -->
<g id="node12" class="node">
<title>Node12</title>
<g id="a_node12"><a xlink:href="../../da/d09/class_member_def.html" target="_top" xlink:title="A model of a class/file/namespace member symbol.">
<polygon fill="white" stroke="#666666" points="620.5,-298.5 546.5,-298.5 546.5,-279.5 620.5,-279.5 620.5,-298.5"/>
<text text-anchor="middle" x="583.5" y="-286.5" font-family="Helvetica,sans-Serif" font-size="10.00">MemberDef</text>
</a>
</g>
</g>
<!-- Node6&#45;&gt;Node12 -->
<g id="edge12" class="edge">
<title>Node6&#45;&gt;Node12</title>
<path fill="none" stroke="#63b8ff" d="M304.63,-316.87C367.53,-310.56 486.58,-298.62 546.35,-292.63"/>
<polygon fill="#63b8ff" stroke="#63b8ff" points="304.27,-313.39 294.67,-317.87 304.97,-320.36 304.27,-313.39"/>
</g>
<!-- Node7 -->
<g id="node7" class="node">
<title>Node7</title>
<g id="a_node7"><a xlink:href="../../d9/d45/class_q_c_string.html" target="_top" xlink:title="This is an alternative implementation of QCString.">
<polygon fill="white" stroke="#666666" points="292,-42.5 233,-42.5 233,-23.5 292,-23.5 292,-42.5"/>
<text text-anchor="middle" x="262.5" y="-30.5" font-family="Helvetica,sans-Serif" font-size="10.00">QCString</text>
</a>
</g>
</g>
<!-- Node7&#45;&gt;Node1 -->
<g id="edge19" class="edge">
<title>Node7&#45;&gt;Node1</title>
<path fill="none" stroke="#9a32cd" stroke-dasharray="5,2" d="M302.28,-25.04C320.88,-21.48 343.52,-17.53 364,-15 460.61,-3.07 485.16,0 582.5,0 582.5,0 582.5,0 1152.5,0 1176.5,0 1203.04,-6.49 1222.28,-12.41"/>
<polygon fill="#9a32cd" stroke="#9a32cd" points="301.55,-21.62 292.4,-26.96 302.88,-28.49 301.55,-21.62"/>
<text text-anchor="middle" x="918.5" y="-3" font-family="Helvetica,sans-Serif" font-size="10.00" fill="grey"> m_symName</text>
</g>
<!-- Node7&#45;&gt;Node5 -->
<g id="edge6" class="edge">
<title>Node7&#45;&gt;Node5</title>
<path fill="none" stroke="#9a32cd" stroke-dasharray="5,2" d="M277.14,-50.6C294.67,-71.74 327.26,-106.32 364,-122 478.43,-170.85 519.94,-126.62 643,-145 689.3,-151.92 741.86,-164.02 776.12,-172.5"/>
<polygon fill="#9a32cd" stroke="#9a32cd" points="279.78,-48.3 270.78,-42.71 274.33,-52.69 279.78,-48.3"/>
<text text-anchor="middle" x="583.5" y="-214" font-family="Helvetica,sans-Serif" font-size="10.00" fill="grey"> context</text>
<text text-anchor="middle" x="583.5" y="-203" font-family="Helvetica,sans-Serif" font-size="10.00" fill="grey">exampleName</text>
<text text-anchor="middle" x="583.5" y="-192" font-family="Helvetica,sans-Serif" font-size="10.00" fill="grey">fileName</text>
<text text-anchor="middle" x="583.5" y="-181" font-family="Helvetica,sans-Serif" font-size="10.00" fill="grey">includeFileName</text>
<text text-anchor="middle" x="583.5" y="-170" font-family="Helvetica,sans-Serif" font-size="10.00" fill="grey">includeFileText</text>
<text text-anchor="middle" x="583.5" y="-159" font-family="Helvetica,sans-Serif" font-size="10.00" fill="grey">relPath</text>
<text text-anchor="middle" x="583.5" y="-148" font-family="Helvetica,sans-Serif" font-size="10.00" fill="grey">searchUrl</text>
</g>
<!-- Node13 -->
<g id="node13" class="node">
<title>Node13</title>
<g id="a_node13"><a xlink:href="../../d6/df4/struct_token_info.html" target="_top" xlink:title="Data associated with a token used by the comment block parser.">
<polygon fill="white" stroke="#666666" points="615,-99.5 552,-99.5 552,-80.5 615,-80.5 615,-99.5"/>
<text text-anchor="middle" x="583.5" y="-87.5" font-family="Helvetica,sans-Serif" font-size="10.00">TokenInfo</text>
</a>
</g>
</g>
<!-- Node7&#45;&gt;Node13 -->
<g id="edge14" class="edge">
<title>Node7&#45;&gt;Node13</title>
<path fill="none" stroke="#9a32cd" stroke-dasharray="5,2" d="M302.18,-25.98C351.04,-18.72 437.08,-11.31 506,-34 533.83,-43.16 559.94,-66.66 573.27,-80.12"/>
<polygon fill="#9a32cd" stroke="#9a32cd" points="301.38,-22.57 292.04,-27.57 302.46,-29.48 301.38,-22.57"/>
<text text-anchor="middle" x="435" y="-114" font-family="Helvetica,sans-Serif" font-size="10.00" fill="grey"> attribsStr</text>
<text text-anchor="middle" x="435" y="-103" font-family="Helvetica,sans-Serif" font-size="10.00" fill="grey">chars</text>
<text text-anchor="middle" x="435" y="-92" font-family="Helvetica,sans-Serif" font-size="10.00" fill="grey">name</text>
<text text-anchor="middle" x="435" y="-81" font-family="Helvetica,sans-Serif" font-size="10.00" fill="grey">sectionId</text>
<text text-anchor="middle" x="435" y="-70" font-family="Helvetica,sans-Serif" font-size="10.00" fill="grey">simpleSectName</text>
<text text-anchor="middle" x="435" y="-59" font-family="Helvetica,sans-Serif" font-size="10.00" fill="grey">simpleSectText</text>
<text text-anchor="middle" x="435" y="-48" font-family="Helvetica,sans-Serif" font-size="10.00" fill="grey">text</text>
<text text-anchor="middle" x="435" y="-37" font-family="Helvetica,sans-Serif" font-size="10.00" fill="grey">verb</text>
</g>
<!-- Node8 -->
<g id="node8" class="node">
<title>Node8</title>
<g id="a_node8"><a xlink:href="../../d9/d82/class_iterable_stack.html" target="_top" xlink:title=" ">
<polygon fill="white" stroke="#666666" points="643,-261 524,-261 524,-231 643,-231 643,-261"/>
<text text-anchor="start" x="532" y="-249" font-family="Helvetica,sans-Serif" font-size="10.00">IterableStack&lt; const</text>
<text text-anchor="middle" x="583.5" y="-238" font-family="Helvetica,sans-Serif" font-size="10.00"> DocNodeVariant * &gt;</text>
</a>
</g>
</g>
<!-- Node8&#45;&gt;Node5 -->
<g id="edge7" class="edge">
<title>Node8&#45;&gt;Node5</title>
<path fill="none" stroke="#9a32cd" stroke-dasharray="5,2" d="M624.01,-226.44C630.36,-223.28 636.86,-220.05 643,-217 651.01,-213.01 652.5,-210.78 661,-208 693.69,-197.29 731.86,-190.78 761.77,-186.96"/>
<polygon fill="#9a32cd" stroke="#9a32cd" points="622.28,-223.39 614.87,-230.97 625.39,-229.66 622.28,-223.39"/>
<text text-anchor="middle" x="702.5" y="-222" font-family="Helvetica,sans-Serif" font-size="10.00" fill="grey"> initialStyleStack</text>
<text text-anchor="middle" x="702.5" y="-211" font-family="Helvetica,sans-Serif" font-size="10.00" fill="grey">styleStack</text>
</g>
<!-- Node9 -->
<g id="node9" class="node">
<title>Node9</title>
<g id="a_node9"><a xlink:title=" ">
<polygon fill="white" stroke="#666666" points="346,-241.5 179,-241.5 179,-200.5 346,-200.5 346,-241.5"/>
<text text-anchor="start" x="187" y="-229.5" font-family="Helvetica,sans-Serif" font-size="10.00">std::stack&lt; const DocNode</text>
<text text-anchor="start" x="187" y="-218.5" font-family="Helvetica,sans-Serif" font-size="10.00">Variant * , std::deque</text>
<text text-anchor="middle" x="262.5" y="-207.5" font-family="Helvetica,sans-Serif" font-size="10.00">&lt;const DocNodeVariant * &gt; &#160;&gt;</text>
</a>
</g>
</g>
<!-- Node9&#45;&gt;Node8 -->
<g id="edge8" class="edge">
<title>Node9&#45;&gt;Node8</title>
<path fill="none" stroke="#63b8ff" d="M356.36,-228.28C410.48,-232.52 477.08,-237.74 523.94,-241.41"/>
<polygon fill="#63b8ff" stroke="#63b8ff" points="356.31,-224.76 346.07,-227.47 355.76,-231.74 356.31,-224.76"/>
</g>
<!-- Node10 -->
<g id="node10" class="node">
<title>Node10</title>
<g id="a_node10"><a xlink:href="../../d9/d82/class_iterable_stack.html" target="_top" xlink:title=" ">
<polygon fill="white" stroke="#666666" points="344,-278.5 181,-278.5 181,-259.5 344,-259.5 344,-278.5"/>
<text text-anchor="middle" x="262.5" y="-266.5" font-family="Helvetica,sans-Serif" font-size="10.00">IterableStack&lt; T, Container &gt;</text>
</a>
</g>
</g>
<!-- Node10&#45;&gt;Node8 -->
<g id="edge9" class="edge">
<title>Node10&#45;&gt;Node8</title>
<path fill="none" stroke="orange" stroke-dasharray="5,2" d="M354.41,-262.45C408.83,-258.52 476.41,-253.65 523.83,-250.23"/>
<polygon fill="orange" stroke="orange" points="354.13,-258.96 344.41,-263.17 354.64,-265.94 354.13,-258.96"/>
<text text-anchor="middle" x="435" y="-264" font-family="Helvetica,sans-Serif" font-size="10.00" fill="grey"> &lt; const DocNodeVariant * &gt;</text>
</g>
<!-- Node11 -->
<g id="node11" class="node">
<title>Node11</title>
<g id="a_node11"><a xlink:title=" ">
<polygon fill="white" stroke="#666666" points="122,-284 20,-284 20,-254 122,-254 122,-284"/>
<text text-anchor="start" x="28" y="-272" font-family="Helvetica,sans-Serif" font-size="10.00">std::stack&lt; T, std</text>
<text text-anchor="middle" x="71" y="-261" font-family="Helvetica,sans-Serif" font-size="10.00">::deque&lt; T &gt; &gt;</text>
</a>
</g>
</g>
<!-- Node11&#45;&gt;Node10 -->
<g id="edge10" class="edge">
<title>Node11&#45;&gt;Node10</title>
<path fill="none" stroke="#63b8ff" d="M132.67,-269C148.02,-269 164.74,-269 180.91,-269"/>
<polygon fill="#63b8ff" stroke="#63b8ff" points="132.29,-265.5 122.29,-269 132.28,-272.5 132.29,-265.5"/>
</g>
<!-- Node12&#45;&gt;Node5 -->
<g id="edge11" class="edge">
<title>Node12&#45;&gt;Node5</title>
<path fill="none" stroke="#9a32cd" stroke-dasharray="5,2" d="M625.2,-276.15C631.19,-274.15 637.27,-272.06 643,-270 688.43,-253.65 701.46,-252.83 744,-230 765.09,-218.69 787.47,-202.17 800.84,-191.76"/>
<polygon fill="#9a32cd" stroke="#9a32cd" points="623.7,-272.96 615.29,-279.4 625.88,-279.61 623.7,-272.96"/>
<text text-anchor="middle" x="702.5" y="-266" font-family="Helvetica,sans-Serif" font-size="10.00" fill="grey"> memberDef</text>
</g>
<!-- Node13&#45;&gt;Node5 -->
<g id="edge13" class="edge">
<title>Node13&#45;&gt;Node5</title>
<path fill="none" stroke="#9a32cd" stroke-dasharray="5,2" d="M625.61,-85.09C660.42,-83.17 709.96,-85.94 744,-111 759.37,-122.32 749.39,-135.67 762,-150 770.28,-159.42 782.01,-167.04 792.13,-172.48"/>
<polygon fill="#9a32cd" stroke="#9a32cd" points="625.04,-81.63 615.31,-85.82 625.53,-88.61 625.04,-81.63"/>
<text text-anchor="middle" x="702.5" y="-114" font-family="Helvetica,sans-Serif" font-size="10.00" fill="grey"> token</text>
</g>
<!-- Node14 -->
<g id="node14" class="node">
<title>Node14</title>
<g id="a_node14"><a xlink:href="../../db/d4d/class_html_attrib_list.html" target="_top" xlink:title="Class representing a list of HTML attributes.">
<polygon fill="white" stroke="#666666" points="305,-178.5 220,-178.5 220,-159.5 305,-159.5 305,-178.5"/>
<text text-anchor="middle" x="262.5" y="-166.5" font-family="Helvetica,sans-Serif" font-size="10.00">HtmlAttribList</text>
</a>
</g>
</g>
<!-- Node14&#45;&gt;Node13 -->
<g id="edge15" class="edge">
<title>Node14&#45;&gt;Node13</title>
<path fill="none" stroke="#9a32cd" stroke-dasharray="5,2" d="M315.24,-165.99C365.52,-161.66 443.26,-151.18 506,-126 514.92,-122.42 515.51,-118.51 524,-114 534.18,-108.59 545.85,-103.58 556.07,-99.55"/>
<polygon fill="#9a32cd" stroke="#9a32cd" points="314.94,-162.51 305.25,-166.8 315.5,-169.48 314.94,-162.51"/>
<text text-anchor="middle" x="435" y="-163" font-family="Helvetica,sans-Serif" font-size="10.00" fill="grey"> attribs</text>
</g>
<!-- Node15 -->
<g id="node15" class="node">
<title>Node15</title>
<g id="a_node15"><a xlink:title=" ">
<polygon fill="white" stroke="#666666" points="142,-178.5 0,-178.5 0,-159.5 142,-159.5 142,-178.5"/>
<text text-anchor="middle" x="71" y="-166.5" font-family="Helvetica,sans-Serif" font-size="10.00">std::vector&lt; HtmlAttrib &gt;</text>
</a>
</g>
</g>
<!-- Node15&#45;&gt;Node14 -->
<g id="edge16" class="edge">
<title>Node15&#45;&gt;Node14</title>
<path fill="none" stroke="#63b8ff" d="M152.25,-169C175.51,-169 199.96,-169 219.82,-169"/>
<polygon fill="#63b8ff" stroke="#63b8ff" points="152.02,-165.5 142.02,-169 152.02,-172.5 152.02,-165.5"/>
</g>
<!-- Node16 -->
<g id="node16" class="node">
<title>Node16</title>
<g id="a_node16"><a xlink:href="../../d1/d7f/class_doc_tokenizer.html" target="_top" xlink:title=" ">
<polygon fill="white" stroke="#666666" points="854.5,-140.5 773.5,-140.5 773.5,-121.5 854.5,-121.5 854.5,-140.5"/>
<text text-anchor="middle" x="814" y="-128.5" font-family="Helvetica,sans-Serif" font-size="10.00">DocTokenizer</text>
</a>
</g>
</g>
<!-- Node16&#45;&gt;Node3 -->
<g id="edge17" class="edge">
<title>Node16&#45;&gt;Node3</title>
<path fill="none" stroke="#9a32cd" stroke-dasharray="5,2" d="M864.68,-124.75C891.08,-121.01 923.99,-115.68 953,-109 959.65,-107.47 966.72,-105.53 973.36,-103.55"/>
<polygon fill="#9a32cd" stroke="#9a32cd" points="863.96,-121.31 854.53,-126.15 864.92,-128.25 863.96,-121.31"/>
<text text-anchor="middle" x="918.5" y="-124" font-family="Helvetica,sans-Serif" font-size="10.00" fill="grey"> tokenizer</text>
</g>
<!-- Node17 -->
<g id="node17" class="node">
<title>Node17</title>
<g id="a_node17"><a xlink:href="../../d2/dc1/class_s_i_data_collection.html" target="_top" xlink:title=" ">
<polygon fill="white" stroke="#666666" points="863,-103.5 765,-103.5 765,-84.5 863,-84.5 863,-103.5"/>
<text text-anchor="middle" x="814" y="-91.5" font-family="Helvetica,sans-Serif" font-size="10.00">SIDataCollection</text>
</a>
</g>
</g>
<!-- Node17&#45;&gt;Node3 -->
<g id="edge18" class="edge">
<title>Node17&#45;&gt;Node3</title>
<path fill="none" stroke="#9a32cd" stroke-dasharray="5,2" d="M873.48,-94C905.65,-94 944.3,-94 970.87,-94"/>
<polygon fill="#9a32cd" stroke="#9a32cd" points="873.29,-90.5 863.29,-94 873.29,-97.5 873.29,-90.5"/>
<text text-anchor="middle" x="918.5" y="-97" font-family="Helvetica,sans-Serif" font-size="10.00" fill="grey"> searchData</text>
</g>
</g>
</svg>
