<?xml version="1.0" encoding="UTF-8" standalone="no"?>
<!DOCTYPE svg PUBLIC "-//W3C//DTD SVG 1.1//EN"
 "http://www.w3.org/Graphics/SVG/1.1/DTD/svg11.dtd">
<!-- Generated by graphviz version 2.43.0 (0)
 -->
<!-- Title: TranslatorGreek Pages: 1 -->
<svg width="189pt" height="373pt"
 viewBox="0.00 0.00 188.50 373.00" xmlns="http://www.w3.org/2000/svg" xmlns:xlink="http://www.w3.org/1999/xlink">
<g id="graph0" class="graph" transform="scale(1 1) rotate(0) translate(4 369)">
<title>TranslatorGreek</title>
<!-- Node1 -->
<g id="node1" class="node">
<title>Node1</title>
<g id="a_node1"><a xlink:title=" ">
<polygon fill="#999999" stroke="#666666" points="115.5,-19 21.5,-19 21.5,0 115.5,0 115.5,-19"/>
<text text-anchor="middle" x="68.5" y="-7" font-family="Helvetica,sans-Serif" font-size="10.00">TranslatorGreek</text>
</a>
</g>
</g>
<!-- Node2 -->
<g id="node2" class="node">
<title>Node2</title>
<g id="a_node2"><a xlink:href="../../d0/d33/class_translator_adapter__1__9__4.html" target="_top" xlink:title=" ">
<polygon fill="white" stroke="#666666" points="137,-75 0,-75 0,-56 137,-56 137,-75"/>
<text text-anchor="middle" x="68.5" y="-63" font-family="Helvetica,sans-Serif" font-size="10.00">TranslatorAdapter_1_9_4</text>
</a>
</g>
</g>
<!-- Node2&#45;&gt;Node1 -->
<g id="edge1" class="edge">
<title>Node2&#45;&gt;Node1</title>
<path fill="none" stroke="#63b8ff" d="M68.5,-45.3C68.5,-36.41 68.5,-26.28 68.5,-19.25"/>
<polygon fill="#63b8ff" stroke="#63b8ff" points="65,-45.58 68.5,-55.58 72,-45.58 65,-45.58"/>
</g>
<!-- Node3 -->
<g id="node3" class="node">
<title>Node3</title>
<g id="a_node3"><a xlink:href="../../dd/dba/class_translator_adapter__1__9__5.html" target="_top" xlink:title=" ">
<polygon fill="white" stroke="#666666" points="137,-131 0,-131 0,-112 137,-112 137,-131"/>
<text text-anchor="middle" x="68.5" y="-119" font-family="Helvetica,sans-Serif" font-size="10.00">TranslatorAdapter_1_9_5</text>
</a>
</g>
</g>
<!-- Node3&#45;&gt;Node2 -->
<g id="edge2" class="edge">
<title>Node3&#45;&gt;Node2</title>
<path fill="none" stroke="#63b8ff" d="M68.5,-101.3C68.5,-92.41 68.5,-82.28 68.5,-75.25"/>
<polygon fill="#63b8ff" stroke="#63b8ff" points="65,-101.58 68.5,-111.58 72,-101.58 65,-101.58"/>
</g>
<!-- Node4 -->
<g id="node4" class="node">
<title>Node4</title>
<g id="a_node4"><a xlink:href="../../db/d71/class_translator_adapter__1__9__6.html" target="_top" xlink:title=" ">
<polygon fill="white" stroke="#666666" points="137,-187 0,-187 0,-168 137,-168 137,-187"/>
<text text-anchor="middle" x="68.5" y="-175" font-family="Helvetica,sans-Serif" font-size="10.00">TranslatorAdapter_1_9_6</text>
</a>
</g>
</g>
<!-- Node4&#45;&gt;Node3 -->
<g id="edge3" class="edge">
<title>Node4&#45;&gt;Node3</title>
<path fill="none" stroke="#63b8ff" d="M68.5,-157.3C68.5,-148.41 68.5,-138.28 68.5,-131.25"/>
<polygon fill="#63b8ff" stroke="#63b8ff" points="65,-157.58 68.5,-167.58 72,-157.58 65,-157.58"/>
</g>
<!-- Node5 -->
<g id="node5" class="node">
<title>Node5</title>
<g id="a_node5"><a xlink:href="../../db/d6c/class_translator_adapter_base.html" target="_top" xlink:title="Base of the translator adapter tree.">
<polygon fill="white" stroke="#666666" points="132,-243 5,-243 5,-224 132,-224 132,-243"/>
<text text-anchor="middle" x="68.5" y="-231" font-family="Helvetica,sans-Serif" font-size="10.00">TranslatorAdapterBase</text>
</a>
</g>
</g>
<!-- Node5&#45;&gt;Node4 -->
<g id="edge4" class="edge">
<title>Node5&#45;&gt;Node4</title>
<path fill="none" stroke="#63b8ff" d="M68.5,-213.3C68.5,-204.41 68.5,-194.28 68.5,-187.25"/>
<polygon fill="#63b8ff" stroke="#63b8ff" points="65,-213.58 68.5,-223.58 72,-213.58 65,-213.58"/>
</g>
<!-- Node6 -->
<g id="node6" class="node">
<title>Node6</title>
<g id="a_node6"><a xlink:href="../../d8/dfb/class_translator.html" target="_top" xlink:title="Abstract base class for all translatable text fragments.">
<polygon fill="white" stroke="#666666" points="97,-365 32,-365 32,-346 97,-346 97,-365"/>
<text text-anchor="middle" x="64.5" y="-353" font-family="Helvetica,sans-Serif" font-size="10.00">Translator</text>
</a>
</g>
</g>
<!-- Node6&#45;&gt;Node5 -->
<g id="edge5" class="edge">
<title>Node6&#45;&gt;Node5</title>
<path fill="none" stroke="#63b8ff" d="M65.13,-335.65C66.01,-309.22 67.57,-262.26 68.21,-243.05"/>
<polygon fill="#63b8ff" stroke="#63b8ff" points="61.62,-335.76 64.79,-345.87 68.62,-335.99 61.62,-335.76"/>
</g>
<!-- Node7 -->
<g id="node7" class="node">
<title>Node7</title>
<g id="a_node7"><a xlink:href="../../d6/d78/class_translator_english.html" target="_top" xlink:title=" ">
<polygon fill="white" stroke="#666666" points="180.5,-309 80.5,-309 80.5,-290 180.5,-290 180.5,-309"/>
<text text-anchor="middle" x="130.5" y="-297" font-family="Helvetica,sans-Serif" font-size="10.00">TranslatorEnglish</text>
</a>
</g>
</g>
<!-- Node6&#45;&gt;Node7 -->
<g id="edge7" class="edge">
<title>Node6&#45;&gt;Node7</title>
<path fill="none" stroke="#63b8ff" d="M83.05,-339.32C94.88,-329.65 109.79,-317.45 119.7,-309.33"/>
<polygon fill="#63b8ff" stroke="#63b8ff" points="80.63,-336.78 75.1,-345.82 85.06,-342.2 80.63,-336.78"/>
</g>
<!-- Node7&#45;&gt;Node5 -->
<g id="edge6" class="edge">
<title>Node7&#45;&gt;Node5</title>
<path fill="none" stroke="#9a32cd" stroke-dasharray="5,2" d="M114.98,-282.48C103.01,-270.12 86.9,-253.49 77.13,-243.41"/>
<polygon fill="#9a32cd" stroke="#9a32cd" points="112.67,-285.12 122.14,-289.87 117.69,-280.25 112.67,-285.12"/>
<text text-anchor="middle" x="122" y="-264" font-family="Helvetica,sans-Serif" font-size="10.00" fill="grey"> english</text>
</g>
</g>
</svg>
