<?xml version="1.0" encoding="UTF-8" standalone="no"?>
<!DOCTYPE svg PUBLIC "-//W3C//DTD SVG 1.1//EN"
 "http://www.w3.org/Graphics/SVG/1.1/DTD/svg11.dtd">
<!-- Generated by graphviz version 2.43.0 (0)
 -->
<!-- Title: /home/runner/work/doxygen/doxygen/src/portable.h Pages: 1 -->
<svg width="8210pt" height="104pt"
 viewBox="0.00 0.00 8210.00 104.00" xmlns="http://www.w3.org/2000/svg" xmlns:xlink="http://www.w3.org/1999/xlink">
<g id="graph0" class="graph" transform="scale(1 1) rotate(0) translate(4 100)">
<title>/home/runner/work/doxygen/doxygen/src/portable.h</title>
<!-- Node1 -->
<g id="node1" class="node">
<title>Node1</title>
<g id="a_node1"><a xlink:title="Portable versions of functions that are platform dependent.">
<polygon fill="#999999" stroke="#666666" points="4168,-96 4014,-96 4014,-66 4168,-66 4168,-96"/>
<text text-anchor="start" x="4022" y="-84" font-family="Helvetica,sans-Serif" font-size="10.00">/home/runner/work/doxygen</text>
<text text-anchor="middle" x="4091" y="-73" font-family="Helvetica,sans-Serif" font-size="10.00">/doxygen/src/portable.h</text>
</a>
</g>
</g>
<!-- Node2 -->
<g id="node2" class="node">
<title>Node2</title>
<g id="a_node2"><a xlink:href="../../d5/d0b/cite_8cpp.html" target="_top" xlink:title=" ">
<polygon fill="white" stroke="#666666" points="154,-30 0,-30 0,0 154,0 154,-30"/>
<text text-anchor="start" x="8" y="-18" font-family="Helvetica,sans-Serif" font-size="10.00">/home/runner/work/doxygen</text>
<text text-anchor="middle" x="77" y="-7" font-family="Helvetica,sans-Serif" font-size="10.00">/doxygen/src/cite.cpp</text>
</a>
</g>
</g>
<!-- Node1&#45;&gt;Node2 -->
<g id="edge1" class="edge">
<title>Node1&#45;&gt;Node2</title>
<path fill="none" stroke="#63b8ff" d="M4003.55,-79.67C3460.25,-77.5 556.88,-64.37 163,-30 160.14,-29.75 157.22,-29.46 154.29,-29.14"/>
<polygon fill="#63b8ff" stroke="#63b8ff" points="4003.65,-83.17 4013.67,-79.71 4003.68,-76.17 4003.65,-83.17"/>
</g>
<!-- Node3 -->
<g id="node3" class="node">
<title>Node3</title>
<g id="a_node3"><a xlink:href="../../d9/de3/configimpl_8l.html" target="_top" xlink:title=" ">
<polygon fill="white" stroke="#666666" points="326,-30 172,-30 172,0 326,0 326,-30"/>
<text text-anchor="start" x="180" y="-18" font-family="Helvetica,sans-Serif" font-size="10.00">/home/runner/work/doxygen</text>
<text text-anchor="middle" x="249" y="-7" font-family="Helvetica,sans-Serif" font-size="10.00">/doxygen/src/configimpl.l</text>
</a>
</g>
</g>
<!-- Node1&#45;&gt;Node3 -->
<g id="edge2" class="edge">
<title>Node1&#45;&gt;Node3</title>
<path fill="none" stroke="#63b8ff" d="M4003.62,-79.61C3474.62,-77.17 710.73,-62.9 335,-30 332.14,-29.75 329.22,-29.46 326.29,-29.14"/>
<polygon fill="#63b8ff" stroke="#63b8ff" points="4003.83,-83.11 4013.85,-79.66 4003.87,-76.11 4003.83,-83.11"/>
</g>
<!-- Node4 -->
<g id="node4" class="node">
<title>Node4</title>
<g id="a_node4"><a xlink:href="../../db/d12/context_8cpp.html" target="_top" xlink:title=" ">
<polygon fill="white" stroke="#666666" points="498,-30 344,-30 344,0 498,0 498,-30"/>
<text text-anchor="start" x="352" y="-18" font-family="Helvetica,sans-Serif" font-size="10.00">/home/runner/work/doxygen</text>
<text text-anchor="middle" x="421" y="-7" font-family="Helvetica,sans-Serif" font-size="10.00">/doxygen/src/context.cpp</text>
</a>
</g>
</g>
<!-- Node1&#45;&gt;Node4 -->
<g id="edge3" class="edge">
<title>Node1&#45;&gt;Node4</title>
<path fill="none" stroke="#63b8ff" d="M4003.54,-79.55C3488.83,-76.82 864.56,-61.43 507,-30 504.14,-29.75 501.23,-29.46 498.29,-29.13"/>
<polygon fill="#63b8ff" stroke="#63b8ff" points="4003.85,-83.05 4013.87,-79.61 4003.89,-76.05 4003.85,-83.05"/>
</g>
<!-- Node5 -->
<g id="node5" class="node">
<title>Node5</title>
<g id="a_node5"><a xlink:href="../../d7/d14/datetime_8cpp.html" target="_top" xlink:title=" ">
<polygon fill="white" stroke="#666666" points="670,-30 516,-30 516,0 670,0 670,-30"/>
<text text-anchor="start" x="524" y="-18" font-family="Helvetica,sans-Serif" font-size="10.00">/home/runner/work/doxygen</text>
<text text-anchor="middle" x="593" y="-7" font-family="Helvetica,sans-Serif" font-size="10.00">/doxygen/src/datetime.cpp</text>
</a>
</g>
</g>
<!-- Node1&#45;&gt;Node5 -->
<g id="edge4" class="edge">
<title>Node1&#45;&gt;Node5</title>
<path fill="none" stroke="#63b8ff" d="M4003.74,-79.49C3504.3,-76.46 1018.48,-59.96 679,-30 676.14,-29.75 673.23,-29.46 670.29,-29.13"/>
<polygon fill="#63b8ff" stroke="#63b8ff" points="4003.75,-82.99 4013.77,-79.55 4003.79,-75.99 4003.75,-82.99"/>
</g>
<!-- Node6 -->
<g id="node6" class="node">
<title>Node6</title>
<g id="a_node6"><a xlink:href="../../d3/d17/defgen_8cpp.html" target="_top" xlink:title=" ">
<polygon fill="white" stroke="#666666" points="842,-30 688,-30 688,0 842,0 842,-30"/>
<text text-anchor="start" x="696" y="-18" font-family="Helvetica,sans-Serif" font-size="10.00">/home/runner/work/doxygen</text>
<text text-anchor="middle" x="765" y="-7" font-family="Helvetica,sans-Serif" font-size="10.00">/doxygen/src/defgen.cpp</text>
</a>
</g>
</g>
<!-- Node1&#45;&gt;Node6 -->
<g id="edge5" class="edge">
<title>Node1&#45;&gt;Node6</title>
<path fill="none" stroke="#63b8ff" d="M4003.9,-79.42C3520,-76.07 1172.41,-58.49 851,-30 848.14,-29.75 845.23,-29.45 842.29,-29.13"/>
<polygon fill="#63b8ff" stroke="#63b8ff" points="4003.95,-82.92 4013.97,-79.49 4003.99,-75.92 4003.95,-82.92"/>
</g>
<!-- Node7 -->
<g id="node7" class="node">
<title>Node7</title>
<g id="a_node7"><a xlink:href="../../d3/dea/definition_8cpp.html" target="_top" xlink:title=" ">
<polygon fill="white" stroke="#666666" points="1014,-30 860,-30 860,0 1014,0 1014,-30"/>
<text text-anchor="start" x="868" y="-18" font-family="Helvetica,sans-Serif" font-size="10.00">/home/runner/work/doxygen</text>
<text text-anchor="middle" x="937" y="-7" font-family="Helvetica,sans-Serif" font-size="10.00">/doxygen/src/definition.cpp</text>
</a>
</g>
</g>
<!-- Node1&#45;&gt;Node7 -->
<g id="edge6" class="edge">
<title>Node1&#45;&gt;Node7</title>
<path fill="none" stroke="#63b8ff" d="M4003.71,-80.29C3567.9,-81.47 1624.65,-83.59 1023,-30 1020.14,-29.75 1017.23,-29.45 1014.29,-29.12"/>
<polygon fill="#63b8ff" stroke="#63b8ff" points="4003.73,-83.79 4013.72,-80.26 4003.71,-76.79 4003.73,-83.79"/>
</g>
<!-- Node8 -->
<g id="node8" class="node">
<title>Node8</title>
<g id="a_node8"><a xlink:href="../../d1/df5/dia_8cpp.html" target="_top" xlink:title=" ">
<polygon fill="white" stroke="#666666" points="1186,-30 1032,-30 1032,0 1186,0 1186,-30"/>
<text text-anchor="start" x="1040" y="-18" font-family="Helvetica,sans-Serif" font-size="10.00">/home/runner/work/doxygen</text>
<text text-anchor="middle" x="1109" y="-7" font-family="Helvetica,sans-Serif" font-size="10.00">/doxygen/src/dia.cpp</text>
</a>
</g>
</g>
<!-- Node1&#45;&gt;Node8 -->
<g id="edge7" class="edge">
<title>Node1&#45;&gt;Node8</title>
<path fill="none" stroke="#63b8ff" d="M4003.54,-80.19C3582.4,-80.85 1760.61,-80.65 1195,-30 1192.14,-29.74 1189.23,-29.45 1186.29,-29.12"/>
<polygon fill="#63b8ff" stroke="#63b8ff" points="4003.83,-83.69 4013.82,-80.17 4003.82,-76.69 4003.83,-83.69"/>
</g>
<!-- Node9 -->
<g id="node9" class="node">
<title>Node9</title>
<g id="a_node9"><a xlink:href="../../da/d0d/diagram_8cpp.html" target="_top" xlink:title=" ">
<polygon fill="white" stroke="#666666" points="1358,-30 1204,-30 1204,0 1358,0 1358,-30"/>
<text text-anchor="start" x="1212" y="-18" font-family="Helvetica,sans-Serif" font-size="10.00">/home/runner/work/doxygen</text>
<text text-anchor="middle" x="1281" y="-7" font-family="Helvetica,sans-Serif" font-size="10.00">/doxygen/src/diagram.cpp</text>
</a>
</g>
</g>
<!-- Node1&#45;&gt;Node9 -->
<g id="edge8" class="edge">
<title>Node1&#45;&gt;Node9</title>
<path fill="none" stroke="#63b8ff" d="M4003.81,-80.08C3598.62,-80.19 1896.82,-77.74 1367,-30 1364.14,-29.74 1361.23,-29.45 1358.29,-29.12"/>
<polygon fill="#63b8ff" stroke="#63b8ff" points="4004,-83.58 4014,-80.08 4004,-76.58 4004,-83.58"/>
</g>
<!-- Node10 -->
<g id="node10" class="node">
<title>Node10</title>
<g id="a_node10"><a xlink:href="../../dc/d05/docbookvisitor_8cpp.html" target="_top" xlink:title=" ">
<polygon fill="white" stroke="#666666" points="1549.5,-30 1376.5,-30 1376.5,0 1549.5,0 1549.5,-30"/>
<text text-anchor="start" x="1384.5" y="-18" font-family="Helvetica,sans-Serif" font-size="10.00">/home/runner/work/doxygen</text>
<text text-anchor="middle" x="1463" y="-7" font-family="Helvetica,sans-Serif" font-size="10.00">/doxygen/src/docbookvisitor.cpp</text>
</a>
</g>
</g>
<!-- Node1&#45;&gt;Node10 -->
<g id="edge9" class="edge">
<title>Node1&#45;&gt;Node10</title>
<path fill="none" stroke="#63b8ff" d="M4003.67,-79.74C3616.1,-78.38 2049.11,-70.42 1559,-30 1555.89,-29.74 1552.74,-29.45 1549.55,-29.13"/>
<polygon fill="#63b8ff" stroke="#63b8ff" points="4003.69,-83.24 4013.7,-79.78 4003.72,-76.24 4003.69,-83.24"/>
</g>
<!-- Node11 -->
<g id="node11" class="node">
<title>Node11</title>
<g id="a_node11"><a xlink:href="../../da/d17/docparser_8cpp.html" target="_top" xlink:title=" ">
<polygon fill="white" stroke="#666666" points="1722,-30 1568,-30 1568,0 1722,0 1722,-30"/>
<text text-anchor="start" x="1576" y="-18" font-family="Helvetica,sans-Serif" font-size="10.00">/home/runner/work/doxygen</text>
<text text-anchor="middle" x="1645" y="-7" font-family="Helvetica,sans-Serif" font-size="10.00">/doxygen/src/docparser.cpp</text>
</a>
</g>
</g>
<!-- Node1&#45;&gt;Node11 -->
<g id="edge10" class="edge">
<title>Node1&#45;&gt;Node11</title>
<path fill="none" stroke="#63b8ff" d="M4003.87,-79.79C3633.12,-78.65 2185.1,-71.57 1731,-30 1728.14,-29.74 1725.23,-29.44 1722.29,-29.11"/>
<polygon fill="#63b8ff" stroke="#63b8ff" points="4003.99,-83.29 4014,-79.82 4004.01,-76.29 4003.99,-83.29"/>
</g>
<!-- Node12 -->
<g id="node12" class="node">
<title>Node12</title>
<g id="a_node12"><a xlink:href="../../d7/d8f/docsets_8cpp.html" target="_top" xlink:title=" ">
<polygon fill="white" stroke="#666666" points="1894,-30 1740,-30 1740,0 1894,0 1894,-30"/>
<text text-anchor="start" x="1748" y="-18" font-family="Helvetica,sans-Serif" font-size="10.00">/home/runner/work/doxygen</text>
<text text-anchor="middle" x="1817" y="-7" font-family="Helvetica,sans-Serif" font-size="10.00">/doxygen/src/docsets.cpp</text>
</a>
</g>
</g>
<!-- Node1&#45;&gt;Node12 -->
<g id="edge11" class="edge">
<title>Node1&#45;&gt;Node12</title>
<path fill="none" stroke="#63b8ff" d="M4003.57,-79.62C3649.52,-77.83 2321.33,-68.64 1903,-30 1900.14,-29.74 1897.23,-29.43 1894.29,-29.1"/>
<polygon fill="#63b8ff" stroke="#63b8ff" points="4003.74,-83.12 4013.76,-79.67 4003.77,-76.12 4003.74,-83.12"/>
</g>
<!-- Node13 -->
<g id="node13" class="node">
<title>Node13</title>
<g id="a_node13"><a xlink:href="../../d1/d39/doctokenizer_8l.html" target="_top" xlink:title=" ">
<polygon fill="white" stroke="#666666" points="2066,-30 1912,-30 1912,0 2066,0 2066,-30"/>
<text text-anchor="start" x="1920" y="-18" font-family="Helvetica,sans-Serif" font-size="10.00">/home/runner/work/doxygen</text>
<text text-anchor="middle" x="1989" y="-7" font-family="Helvetica,sans-Serif" font-size="10.00">/doxygen/src/doctokenizer.l</text>
</a>
</g>
</g>
<!-- Node1&#45;&gt;Node13 -->
<g id="edge12" class="edge">
<title>Node1&#45;&gt;Node13</title>
<path fill="none" stroke="#63b8ff" d="M4003.81,-79.42C3667.98,-76.96 2457.86,-65.74 2075,-30 2072.14,-29.73 2069.23,-29.43 2066.29,-29.09"/>
<polygon fill="#63b8ff" stroke="#63b8ff" points="4003.94,-82.93 4013.97,-79.5 4003.99,-75.93 4003.94,-82.93"/>
</g>
<!-- Node14 -->
<g id="node14" class="node">
<title>Node14</title>
<g id="a_node14"><a xlink:href="../../de/daa/dot_8cpp.html" target="_top" xlink:title=" ">
<polygon fill="white" stroke="#666666" points="2238,-30 2084,-30 2084,0 2238,0 2238,-30"/>
<text text-anchor="start" x="2092" y="-18" font-family="Helvetica,sans-Serif" font-size="10.00">/home/runner/work/doxygen</text>
<text text-anchor="middle" x="2161" y="-7" font-family="Helvetica,sans-Serif" font-size="10.00">/doxygen/src/dot.cpp</text>
</a>
</g>
</g>
<!-- Node1&#45;&gt;Node14 -->
<g id="edge13" class="edge">
<title>Node1&#45;&gt;Node14</title>
<path fill="none" stroke="#63b8ff" d="M4003.91,-79.19C3686.82,-76 2594.44,-62.84 2247,-30 2244.14,-29.73 2241.23,-29.42 2238.29,-29.08"/>
<polygon fill="#63b8ff" stroke="#63b8ff" points="4003.93,-82.69 4013.96,-79.29 4004,-75.69 4003.93,-82.69"/>
</g>
<!-- Node15 -->
<g id="node15" class="node">
<title>Node15</title>
<g id="a_node15"><a xlink:href="../../d9/d92/dotfilepatcher_8cpp.html" target="_top" xlink:title=" ">
<polygon fill="white" stroke="#666666" points="2425.5,-30 2256.5,-30 2256.5,0 2425.5,0 2425.5,-30"/>
<text text-anchor="start" x="2264.5" y="-18" font-family="Helvetica,sans-Serif" font-size="10.00">/home/runner/work/doxygen</text>
<text text-anchor="middle" x="2341" y="-7" font-family="Helvetica,sans-Serif" font-size="10.00">/doxygen/src/dotfilepatcher.cpp</text>
</a>
</g>
</g>
<!-- Node1&#45;&gt;Node15 -->
<g id="edge14" class="edge">
<title>Node1&#45;&gt;Node15</title>
<path fill="none" stroke="#63b8ff" d="M4003.75,-78.72C3707.87,-74.18 2743.97,-57.58 2435,-30 2431.96,-29.73 2428.87,-29.42 2425.75,-29.09"/>
<polygon fill="#63b8ff" stroke="#63b8ff" points="4003.93,-82.23 4013.99,-78.88 4004.04,-75.23 4003.93,-82.23"/>
</g>
<!-- Node16 -->
<g id="node16" class="node">
<title>Node16</title>
<g id="a_node16"><a xlink:href="../../de/d45/dotgraph_8cpp.html" target="_top" xlink:title=" ">
<polygon fill="white" stroke="#666666" points="2598,-30 2444,-30 2444,0 2598,0 2598,-30"/>
<text text-anchor="start" x="2452" y="-18" font-family="Helvetica,sans-Serif" font-size="10.00">/home/runner/work/doxygen</text>
<text text-anchor="middle" x="2521" y="-7" font-family="Helvetica,sans-Serif" font-size="10.00">/doxygen/src/dotgraph.cpp</text>
</a>
</g>
</g>
<!-- Node1&#45;&gt;Node16 -->
<g id="edge15" class="edge">
<title>Node1&#45;&gt;Node16</title>
<path fill="none" stroke="#63b8ff" d="M4003.59,-78.52C3728.18,-73.64 2880.57,-56.77 2607,-30 2604.14,-29.72 2601.23,-29.4 2598.29,-29.06"/>
<polygon fill="#63b8ff" stroke="#63b8ff" points="4003.86,-82.03 4013.92,-78.7 4003.99,-75.03 4003.86,-82.03"/>
</g>
<!-- Node17 -->
<g id="node17" class="node">
<title>Node17</title>
<g id="a_node17"><a xlink:href="../../d1/dfe/dotrunner_8cpp.html" target="_top" xlink:title=" ">
<polygon fill="white" stroke="#666666" points="2770,-30 2616,-30 2616,0 2770,0 2770,-30"/>
<text text-anchor="start" x="2624" y="-18" font-family="Helvetica,sans-Serif" font-size="10.00">/home/runner/work/doxygen</text>
<text text-anchor="middle" x="2693" y="-7" font-family="Helvetica,sans-Serif" font-size="10.00">/doxygen/src/dotrunner.cpp</text>
</a>
</g>
</g>
<!-- Node1&#45;&gt;Node17 -->
<g id="edge16" class="edge">
<title>Node1&#45;&gt;Node17</title>
<path fill="none" stroke="#63b8ff" d="M4003.79,-80.38C3792.88,-80.5 3238.7,-76 2779,-30 2776.14,-29.71 2773.23,-29.39 2770.3,-29.04"/>
<polygon fill="#63b8ff" stroke="#63b8ff" points="4003.88,-83.88 4013.87,-80.37 4003.87,-76.88 4003.88,-83.88"/>
</g>
<!-- Node18 -->
<g id="node18" class="node">
<title>Node18</title>
<g id="a_node18"><a xlink:href="../../dc/d98/doxygen_8cpp.html" target="_top" xlink:title=" ">
<polygon fill="white" stroke="#666666" points="2942,-30 2788,-30 2788,0 2942,0 2942,-30"/>
<text text-anchor="start" x="2796" y="-18" font-family="Helvetica,sans-Serif" font-size="10.00">/home/runner/work/doxygen</text>
<text text-anchor="middle" x="2865" y="-7" font-family="Helvetica,sans-Serif" font-size="10.00">/doxygen/src/doxygen.cpp</text>
</a>
</g>
</g>
<!-- Node1&#45;&gt;Node18 -->
<g id="edge17" class="edge">
<title>Node1&#45;&gt;Node18</title>
<path fill="none" stroke="#63b8ff" d="M4003.43,-79.66C3812,-78.15 3342.12,-70.27 2951,-30 2948.14,-29.71 2945.23,-29.38 2942.3,-29.02"/>
<polygon fill="#63b8ff" stroke="#63b8ff" points="4003.68,-83.16 4013.71,-79.74 4003.73,-76.16 4003.68,-83.16"/>
</g>
<!-- Node19 -->
<g id="node19" class="node">
<title>Node19</title>
<g id="a_node19"><a xlink:href="../../d8/d56/eclipsehelp_8cpp.html" target="_top" xlink:title=" ">
<polygon fill="white" stroke="#666666" points="3118,-30 2960,-30 2960,0 3118,0 3118,-30"/>
<text text-anchor="start" x="2968" y="-18" font-family="Helvetica,sans-Serif" font-size="10.00">/home/runner/work/doxygen</text>
<text text-anchor="middle" x="3039" y="-7" font-family="Helvetica,sans-Serif" font-size="10.00">/doxygen/src/eclipsehelp.cpp</text>
</a>
</g>
</g>
<!-- Node1&#45;&gt;Node19 -->
<g id="edge18" class="edge">
<title>Node1&#45;&gt;Node19</title>
<path fill="none" stroke="#63b8ff" d="M4003.82,-78.57C3834.43,-75.11 3449.17,-63.89 3127,-30 3124.08,-29.69 3121.1,-29.35 3118.1,-28.99"/>
<polygon fill="#63b8ff" stroke="#63b8ff" points="4003.87,-82.07 4013.93,-78.77 4004.01,-75.07 4003.87,-82.07"/>
</g>
<!-- Node20 -->
<g id="node20" class="node">
<title>Node20</title>
<g id="a_node20"><a xlink:href="../../d6/ddc/filedef_8cpp.html" target="_top" xlink:title=" ">
<polygon fill="white" stroke="#666666" points="3290,-30 3136,-30 3136,0 3290,0 3290,-30"/>
<text text-anchor="start" x="3144" y="-18" font-family="Helvetica,sans-Serif" font-size="10.00">/home/runner/work/doxygen</text>
<text text-anchor="middle" x="3213" y="-7" font-family="Helvetica,sans-Serif" font-size="10.00">/doxygen/src/filedef.cpp</text>
</a>
</g>
</g>
<!-- Node1&#45;&gt;Node20 -->
<g id="edge19" class="edge">
<title>Node1&#45;&gt;Node20</title>
<path fill="none" stroke="#63b8ff" d="M4003.51,-77.29C3857.26,-72.13 3554.03,-58.74 3299,-30 3296.14,-29.68 3293.24,-29.33 3290.31,-28.95"/>
<polygon fill="#63b8ff" stroke="#63b8ff" points="4003.65,-80.8 4013.77,-77.65 4003.9,-73.8 4003.65,-80.8"/>
</g>
<!-- Node21 -->
<g id="node21" class="node">
<title>Node21</title>
<g id="a_node21"><a xlink:href="../../d7/d5b/formula_8cpp.html" target="_top" xlink:title=" ">
<polygon fill="white" stroke="#666666" points="3462,-30 3308,-30 3308,0 3462,0 3462,-30"/>
<text text-anchor="start" x="3316" y="-18" font-family="Helvetica,sans-Serif" font-size="10.00">/home/runner/work/doxygen</text>
<text text-anchor="middle" x="3385" y="-7" font-family="Helvetica,sans-Serif" font-size="10.00">/doxygen/src/formula.cpp</text>
</a>
</g>
</g>
<!-- Node1&#45;&gt;Node21 -->
<g id="edge20" class="edge">
<title>Node1&#45;&gt;Node21</title>
<path fill="none" stroke="#63b8ff" d="M4003.71,-75.19C3883.49,-68.06 3660.32,-53.01 3471,-30 3468.15,-29.65 3465.24,-29.28 3462.31,-28.89"/>
<polygon fill="#63b8ff" stroke="#63b8ff" points="4003.77,-78.7 4013.96,-75.8 4004.18,-71.71 4003.77,-78.7"/>
</g>
<!-- Node22 -->
<g id="node22" class="node">
<title>Node22</title>
<g id="a_node22"><a xlink:href="../../db/d41/ftvhelp_8cpp.html" target="_top" xlink:title=" ">
<polygon fill="white" stroke="#666666" points="3634,-30 3480,-30 3480,0 3634,0 3634,-30"/>
<text text-anchor="start" x="3488" y="-18" font-family="Helvetica,sans-Serif" font-size="10.00">/home/runner/work/doxygen</text>
<text text-anchor="middle" x="3557" y="-7" font-family="Helvetica,sans-Serif" font-size="10.00">/doxygen/src/ftvhelp.cpp</text>
</a>
</g>
</g>
<!-- Node1&#45;&gt;Node22 -->
<g id="edge21" class="edge">
<title>Node1&#45;&gt;Node22</title>
<path fill="none" stroke="#63b8ff" d="M4003.76,-71.57C3913.35,-62.53 3768.05,-47.15 3643,-30 3640.15,-29.61 3637.25,-29.2 3634.33,-28.78"/>
<polygon fill="#63b8ff" stroke="#63b8ff" points="4003.66,-75.08 4013.96,-72.59 4004.36,-68.11 4003.66,-75.08"/>
</g>
<!-- Node23 -->
<g id="node23" class="node">
<title>Node23</title>
<g id="a_node23"><a xlink:href="../../d9/db7/htags_8cpp.html" target="_top" xlink:title=" ">
<polygon fill="white" stroke="#666666" points="3806,-30 3652,-30 3652,0 3806,0 3806,-30"/>
<text text-anchor="start" x="3660" y="-18" font-family="Helvetica,sans-Serif" font-size="10.00">/home/runner/work/doxygen</text>
<text text-anchor="middle" x="3729" y="-7" font-family="Helvetica,sans-Serif" font-size="10.00">/doxygen/src/htags.cpp</text>
</a>
</g>
</g>
<!-- Node1&#45;&gt;Node23 -->
<g id="edge22" class="edge">
<title>Node1&#45;&gt;Node23</title>
<path fill="none" stroke="#63b8ff" d="M4003.9,-64.6C3943.61,-53.94 3864.09,-39.88 3806.1,-29.63"/>
<polygon fill="#63b8ff" stroke="#63b8ff" points="4003.33,-68.05 4013.79,-66.35 4004.55,-61.16 4003.33,-68.05"/>
</g>
<!-- Node24 -->
<g id="node24" class="node">
<title>Node24</title>
<g id="a_node24"><a xlink:href="../../da/db0/htmldocvisitor_8cpp.html" target="_top" xlink:title=" ">
<polygon fill="white" stroke="#666666" points="3996,-30 3824,-30 3824,0 3996,0 3996,-30"/>
<text text-anchor="start" x="3832" y="-18" font-family="Helvetica,sans-Serif" font-size="10.00">/home/runner/work/doxygen</text>
<text text-anchor="middle" x="3910" y="-7" font-family="Helvetica,sans-Serif" font-size="10.00">/doxygen/src/htmldocvisitor.cpp</text>
</a>
</g>
</g>
<!-- Node1&#45;&gt;Node24 -->
<g id="edge23" class="edge">
<title>Node1&#45;&gt;Node24</title>
<path fill="none" stroke="#63b8ff" d="M4041.76,-62.59C4012.82,-52.36 3976.72,-39.59 3949.63,-30.01"/>
<polygon fill="#63b8ff" stroke="#63b8ff" points="4040.68,-65.92 4051.28,-65.95 4043.02,-59.32 4040.68,-65.92"/>
</g>
<!-- Node25 -->
<g id="node25" class="node">
<title>Node25</title>
<g id="a_node25"><a xlink:href="../../d8/d6e/htmlgen_8cpp.html" target="_top" xlink:title=" ">
<polygon fill="white" stroke="#666666" points="4168,-30 4014,-30 4014,0 4168,0 4168,-30"/>
<text text-anchor="start" x="4022" y="-18" font-family="Helvetica,sans-Serif" font-size="10.00">/home/runner/work/doxygen</text>
<text text-anchor="middle" x="4091" y="-7" font-family="Helvetica,sans-Serif" font-size="10.00">/doxygen/src/htmlgen.cpp</text>
</a>
</g>
</g>
<!-- Node1&#45;&gt;Node25 -->
<g id="edge24" class="edge">
<title>Node1&#45;&gt;Node25</title>
<path fill="none" stroke="#63b8ff" d="M4091,-55.54C4091,-46.96 4091,-37.61 4091,-30.16"/>
<polygon fill="#63b8ff" stroke="#63b8ff" points="4087.5,-55.8 4091,-65.8 4094.5,-55.8 4087.5,-55.8"/>
</g>
<!-- Node26 -->
<g id="node26" class="node">
<title>Node26</title>
<g id="a_node26"><a xlink:href="../../d3/d4b/htmlhelp_8cpp.html" target="_top" xlink:title=" ">
<polygon fill="white" stroke="#666666" points="4340,-30 4186,-30 4186,0 4340,0 4340,-30"/>
<text text-anchor="start" x="4194" y="-18" font-family="Helvetica,sans-Serif" font-size="10.00">/home/runner/work/doxygen</text>
<text text-anchor="middle" x="4263" y="-7" font-family="Helvetica,sans-Serif" font-size="10.00">/doxygen/src/htmlhelp.cpp</text>
</a>
</g>
</g>
<!-- Node1&#45;&gt;Node26 -->
<g id="edge25" class="edge">
<title>Node1&#45;&gt;Node26</title>
<path fill="none" stroke="#63b8ff" d="M4138.15,-62.46C4165.59,-52.25 4199.71,-39.55 4225.34,-30.01"/>
<polygon fill="#63b8ff" stroke="#63b8ff" points="4136.9,-59.19 4128.75,-65.95 4139.34,-65.75 4136.9,-59.19"/>
</g>
<!-- Node27 -->
<g id="node27" class="node">
<title>Node27</title>
<g id="a_node27"><a xlink:href="../../db/d14/index_8cpp.html" target="_top" xlink:title="This file contains functions for the various index pages.">
<polygon fill="white" stroke="#666666" points="4512,-30 4358,-30 4358,0 4512,0 4512,-30"/>
<text text-anchor="start" x="4366" y="-18" font-family="Helvetica,sans-Serif" font-size="10.00">/home/runner/work/doxygen</text>
<text text-anchor="middle" x="4435" y="-7" font-family="Helvetica,sans-Serif" font-size="10.00">/doxygen/src/index.cpp</text>
</a>
</g>
</g>
<!-- Node1&#45;&gt;Node27 -->
<g id="edge26" class="edge">
<title>Node1&#45;&gt;Node27</title>
<path fill="none" stroke="#63b8ff" d="M4176.43,-64.11C4232.67,-53.64 4305.62,-40.07 4359.68,-30.01"/>
<polygon fill="#63b8ff" stroke="#63b8ff" points="4175.68,-60.68 4166.49,-65.95 4176.96,-67.57 4175.68,-60.68"/>
</g>
<!-- Node28 -->
<g id="node28" class="node">
<title>Node28</title>
<g id="a_node28"><a xlink:href="../../d1/d4e/latexdocvisitor_8cpp.html" target="_top" xlink:title=" ">
<polygon fill="white" stroke="#666666" points="4704,-30 4530,-30 4530,0 4704,0 4704,-30"/>
<text text-anchor="start" x="4538" y="-18" font-family="Helvetica,sans-Serif" font-size="10.00">/home/runner/work/doxygen</text>
<text text-anchor="middle" x="4617" y="-7" font-family="Helvetica,sans-Serif" font-size="10.00">/doxygen/src/latexdocvisitor.cpp</text>
</a>
</g>
</g>
<!-- Node1&#45;&gt;Node28 -->
<g id="edge27" class="edge">
<title>Node1&#45;&gt;Node28</title>
<path fill="none" stroke="#63b8ff" d="M4178.46,-70.58C4265.41,-61.04 4402.55,-45.52 4521,-30 4523.92,-29.62 4526.89,-29.22 4529.89,-28.82"/>
<polygon fill="#63b8ff" stroke="#63b8ff" points="4177.93,-67.12 4168.37,-71.69 4178.69,-74.08 4177.93,-67.12"/>
</g>
<!-- Node29 -->
<g id="node29" class="node">
<title>Node29</title>
<g id="a_node29"><a xlink:href="../../d4/d42/latexgen_8cpp.html" target="_top" xlink:title=" ">
<polygon fill="white" stroke="#666666" points="4876,-30 4722,-30 4722,0 4876,0 4876,-30"/>
<text text-anchor="start" x="4730" y="-18" font-family="Helvetica,sans-Serif" font-size="10.00">/home/runner/work/doxygen</text>
<text text-anchor="middle" x="4799" y="-7" font-family="Helvetica,sans-Serif" font-size="10.00">/doxygen/src/latexgen.cpp</text>
</a>
</g>
</g>
<!-- Node1&#45;&gt;Node29 -->
<g id="edge28" class="edge">
<title>Node1&#45;&gt;Node29</title>
<path fill="none" stroke="#63b8ff" d="M4178.57,-75.21C4299.18,-68.1 4523.07,-53.05 4713,-30 4715.85,-29.65 4718.76,-29.28 4721.69,-28.89"/>
<polygon fill="#63b8ff" stroke="#63b8ff" points="4178.07,-71.73 4168.29,-75.81 4178.48,-78.72 4178.07,-71.73"/>
</g>
<!-- Node30 -->
<g id="node30" class="node">
<title>Node30</title>
<g id="a_node30"><a xlink:href="../../d7/de7/mangen_8cpp.html" target="_top" xlink:title=" ">
<polygon fill="white" stroke="#666666" points="5048,-30 4894,-30 4894,0 5048,0 5048,-30"/>
<text text-anchor="start" x="4902" y="-18" font-family="Helvetica,sans-Serif" font-size="10.00">/home/runner/work/doxygen</text>
<text text-anchor="middle" x="4971" y="-7" font-family="Helvetica,sans-Serif" font-size="10.00">/doxygen/src/mangen.cpp</text>
</a>
</g>
</g>
<!-- Node1&#45;&gt;Node30 -->
<g id="edge29" class="edge">
<title>Node1&#45;&gt;Node30</title>
<path fill="none" stroke="#63b8ff" d="M4178.42,-77.31C4324.93,-72.17 4629.16,-58.81 4885,-30 4887.86,-29.68 4890.76,-29.33 4893.69,-28.95"/>
<polygon fill="#63b8ff" stroke="#63b8ff" points="4178.02,-73.82 4168.15,-77.67 4178.26,-80.82 4178.02,-73.82"/>
</g>
<!-- Node31 -->
<g id="node31" class="node">
<title>Node31</title>
<g id="a_node31"><a xlink:href="../../de/d04/markdown_8cpp.html" target="_top" xlink:title=" ">
<polygon fill="white" stroke="#666666" points="5220,-30 5066,-30 5066,0 5220,0 5220,-30"/>
<text text-anchor="start" x="5074" y="-18" font-family="Helvetica,sans-Serif" font-size="10.00">/home/runner/work/doxygen</text>
<text text-anchor="middle" x="5143" y="-7" font-family="Helvetica,sans-Serif" font-size="10.00">/doxygen/src/markdown.cpp</text>
</a>
</g>
</g>
<!-- Node1&#45;&gt;Node31 -->
<g id="edge30" class="edge">
<title>Node1&#45;&gt;Node31</title>
<path fill="none" stroke="#63b8ff" d="M4178.37,-78.68C4348.13,-75.42 4734.22,-64.52 5057,-30 5059.86,-29.69 5062.77,-29.36 5065.7,-28.99"/>
<polygon fill="#63b8ff" stroke="#63b8ff" points="4178.17,-75.19 4168.24,-78.87 4178.3,-82.19 4178.17,-75.19"/>
</g>
<!-- Node32 -->
<g id="node32" class="node">
<title>Node32</title>
<g id="a_node32"><a xlink:href="../../d8/d6a/message_8cpp.html" target="_top" xlink:title=" ">
<polygon fill="white" stroke="#666666" points="5392,-30 5238,-30 5238,0 5392,0 5392,-30"/>
<text text-anchor="start" x="5246" y="-18" font-family="Helvetica,sans-Serif" font-size="10.00">/home/runner/work/doxygen</text>
<text text-anchor="middle" x="5315" y="-7" font-family="Helvetica,sans-Serif" font-size="10.00">/doxygen/src/message.cpp</text>
</a>
</g>
</g>
<!-- Node1&#45;&gt;Node32 -->
<g id="edge31" class="edge">
<title>Node1&#45;&gt;Node32</title>
<path fill="none" stroke="#63b8ff" d="M4178.42,-79.65C4369.51,-78.13 4838.56,-70.22 5229,-30 5231.86,-29.71 5234.77,-29.38 5237.7,-29.02"/>
<polygon fill="#63b8ff" stroke="#63b8ff" points="4178.13,-76.15 4168.16,-79.73 4178.18,-83.15 4178.13,-76.15"/>
</g>
<!-- Node33 -->
<g id="node33" class="node">
<title>Node33</title>
<g id="a_node33"><a xlink:href="../../db/d33/msc_8cpp.html" target="_top" xlink:title=" ">
<polygon fill="white" stroke="#666666" points="5564,-30 5410,-30 5410,0 5564,0 5564,-30"/>
<text text-anchor="start" x="5418" y="-18" font-family="Helvetica,sans-Serif" font-size="10.00">/home/runner/work/doxygen</text>
<text text-anchor="middle" x="5487" y="-7" font-family="Helvetica,sans-Serif" font-size="10.00">/doxygen/src/msc.cpp</text>
</a>
</g>
</g>
<!-- Node1&#45;&gt;Node33 -->
<g id="edge32" class="edge">
<title>Node1&#45;&gt;Node33</title>
<path fill="none" stroke="#63b8ff" d="M4178.08,-80.38C4388.66,-80.48 4942,-75.94 5401,-30 5403.86,-29.71 5406.77,-29.39 5409.7,-29.04"/>
<polygon fill="#63b8ff" stroke="#63b8ff" points="4178.01,-76.88 4168.01,-80.37 4178.01,-83.88 4178.01,-76.88"/>
</g>
<!-- Node34 -->
<g id="node34" class="node">
<title>Node34</title>
<g id="a_node34"><a xlink:href="../../d0/d17/outputgen_8cpp.html" target="_top" xlink:title=" ">
<polygon fill="white" stroke="#666666" points="5736,-30 5582,-30 5582,0 5736,0 5736,-30"/>
<text text-anchor="start" x="5590" y="-18" font-family="Helvetica,sans-Serif" font-size="10.00">/home/runner/work/doxygen</text>
<text text-anchor="middle" x="5659" y="-7" font-family="Helvetica,sans-Serif" font-size="10.00">/doxygen/src/outputgen.cpp</text>
</a>
</g>
</g>
<!-- Node1&#45;&gt;Node34 -->
<g id="edge33" class="edge">
<title>Node1&#45;&gt;Node34</title>
<path fill="none" stroke="#63b8ff" d="M4178.77,-78.51C4454.31,-73.61 5299.96,-56.72 5573,-30 5575.86,-29.72 5578.77,-29.4 5581.71,-29.06"/>
<polygon fill="#63b8ff" stroke="#63b8ff" points="4178.37,-75.02 4168.43,-78.69 4178.49,-82.02 4178.37,-75.02"/>
</g>
<!-- Node35 -->
<g id="node35" class="node">
<title>Node35</title>
<g id="a_node35"><a xlink:href="../../de/dd0/perlmodgen_8cpp.html" target="_top" xlink:title=" ">
<polygon fill="white" stroke="#666666" points="5915.5,-30 5754.5,-30 5754.5,0 5915.5,0 5915.5,-30"/>
<text text-anchor="start" x="5762.5" y="-18" font-family="Helvetica,sans-Serif" font-size="10.00">/home/runner/work/doxygen</text>
<text text-anchor="middle" x="5835" y="-7" font-family="Helvetica,sans-Serif" font-size="10.00">/doxygen/src/perlmodgen.cpp</text>
</a>
</g>
</g>
<!-- Node1&#45;&gt;Node35 -->
<g id="edge34" class="edge">
<title>Node1&#45;&gt;Node35</title>
<path fill="none" stroke="#63b8ff" d="M4178.66,-78.79C4474.8,-74.47 5436.67,-58.53 5745,-30 5747.99,-29.72 5751.04,-29.41 5754.11,-29.07"/>
<polygon fill="#63b8ff" stroke="#63b8ff" points="4178.36,-75.29 4168.41,-78.94 4178.46,-82.29 4178.36,-75.29"/>
</g>
<!-- Node36 -->
<g id="node36" class="node">
<title>Node36</title>
<g id="a_node36"><a xlink:href="../../d7/d5b/plantuml_8cpp.html" target="_top" xlink:title=" ">
<polygon fill="white" stroke="#666666" points="6088,-30 5934,-30 5934,0 6088,0 6088,-30"/>
<text text-anchor="start" x="5942" y="-18" font-family="Helvetica,sans-Serif" font-size="10.00">/home/runner/work/doxygen</text>
<text text-anchor="middle" x="6011" y="-7" font-family="Helvetica,sans-Serif" font-size="10.00">/doxygen/src/plantuml.cpp</text>
</a>
</g>
</g>
<!-- Node1&#45;&gt;Node36 -->
<g id="edge35" class="edge">
<title>Node1&#45;&gt;Node36</title>
<path fill="none" stroke="#63b8ff" d="M4178.16,-79.18C4494.22,-75.94 5579.64,-62.67 5925,-30 5927.86,-29.73 5930.77,-29.42 5933.71,-29.08"/>
<polygon fill="#63b8ff" stroke="#63b8ff" points="4178.1,-75.68 4168.14,-79.28 4178.17,-82.68 4178.1,-75.68"/>
</g>
<!-- Node37 -->
<g id="node37" class="node">
<title>Node37</title>
<g id="a_node37"><a xlink:href="../../d0/d1c/portable_8cpp.html" target="_top" xlink:title=" ">
<polygon fill="white" stroke="#666666" points="6260,-30 6106,-30 6106,0 6260,0 6260,-30"/>
<text text-anchor="start" x="6114" y="-18" font-family="Helvetica,sans-Serif" font-size="10.00">/home/runner/work/doxygen</text>
<text text-anchor="middle" x="6183" y="-7" font-family="Helvetica,sans-Serif" font-size="10.00">/doxygen/src/portable.cpp</text>
</a>
</g>
</g>
<!-- Node1&#45;&gt;Node37 -->
<g id="edge36" class="edge">
<title>Node1&#45;&gt;Node37</title>
<path fill="none" stroke="#63b8ff" d="M4178.32,-79.41C4513.27,-76.9 5716.25,-65.57 6097,-30 6099.86,-29.73 6102.77,-29.43 6105.71,-29.09"/>
<polygon fill="#63b8ff" stroke="#63b8ff" points="4178.16,-75.91 4168.19,-79.49 4178.21,-82.91 4178.16,-75.91"/>
</g>
<!-- Node38 -->
<g id="node38" class="node">
<title>Node38</title>
<g id="a_node38"><a xlink:href="../../d0/da7/pre_8l.html" target="_top" xlink:title=" ">
<polygon fill="white" stroke="#666666" points="6432,-30 6278,-30 6278,0 6432,0 6432,-30"/>
<text text-anchor="start" x="6286" y="-18" font-family="Helvetica,sans-Serif" font-size="10.00">/home/runner/work/doxygen</text>
<text text-anchor="middle" x="6355" y="-7" font-family="Helvetica,sans-Serif" font-size="10.00">/doxygen/src/pre.l</text>
</a>
</g>
</g>
<!-- Node1&#45;&gt;Node38 -->
<g id="edge37" class="edge">
<title>Node1&#45;&gt;Node38</title>
<path fill="none" stroke="#63b8ff" d="M4178.33,-79.61C4531.21,-77.79 5852.7,-68.48 6269,-30 6271.86,-29.74 6274.77,-29.43 6277.71,-29.1"/>
<polygon fill="#63b8ff" stroke="#63b8ff" points="4178.16,-76.11 4168.17,-79.66 4178.19,-83.11 4178.16,-76.11"/>
</g>
<!-- Node39 -->
<g id="node39" class="node">
<title>Node39</title>
<g id="a_node39"><a xlink:href="../../d9/d45/qhp_8cpp.html" target="_top" xlink:title=" ">
<polygon fill="white" stroke="#666666" points="6604,-30 6450,-30 6450,0 6604,0 6604,-30"/>
<text text-anchor="start" x="6458" y="-18" font-family="Helvetica,sans-Serif" font-size="10.00">/home/runner/work/doxygen</text>
<text text-anchor="middle" x="6527" y="-7" font-family="Helvetica,sans-Serif" font-size="10.00">/doxygen/src/qhp.cpp</text>
</a>
</g>
</g>
<!-- Node1&#45;&gt;Node39 -->
<g id="edge38" class="edge">
<title>Node1&#45;&gt;Node39</title>
<path fill="none" stroke="#63b8ff" d="M4178.38,-79.78C4548.55,-78.6 5989.07,-71.39 6441,-30 6443.86,-29.74 6446.77,-29.44 6449.71,-29.11"/>
<polygon fill="#63b8ff" stroke="#63b8ff" points="4178.25,-76.28 4168.27,-79.81 4178.28,-83.28 4178.25,-76.28"/>
</g>
<!-- Node40 -->
<g id="node40" class="node">
<title>Node40</title>
<g id="a_node40"><a xlink:href="../../d6/dde/resourcemgr_8cpp.html" target="_top" xlink:title=" ">
<polygon fill="white" stroke="#666666" points="6785.5,-30 6622.5,-30 6622.5,0 6785.5,0 6785.5,-30"/>
<text text-anchor="start" x="6630.5" y="-18" font-family="Helvetica,sans-Serif" font-size="10.00">/home/runner/work/doxygen</text>
<text text-anchor="middle" x="6704" y="-7" font-family="Helvetica,sans-Serif" font-size="10.00">/doxygen/src/resourcemgr.cpp</text>
</a>
</g>
</g>
<!-- Node1&#45;&gt;Node40 -->
<g id="edge39" class="edge">
<title>Node1&#45;&gt;Node40</title>
<path fill="none" stroke="#63b8ff" d="M4178.31,-79.83C4564.93,-78.82 6125.12,-72.18 6613,-30 6616.03,-29.74 6619.1,-29.44 6622.21,-29.11"/>
<polygon fill="#63b8ff" stroke="#63b8ff" points="4178.29,-76.33 4168.3,-79.85 4178.31,-83.33 4178.29,-76.33"/>
</g>
<!-- Node41 -->
<g id="node41" class="node">
<title>Node41</title>
<g id="a_node41"><a xlink:href="../../de/d9a/rtfdocvisitor_8cpp.html" target="_top" xlink:title=" ">
<polygon fill="white" stroke="#666666" points="6964.5,-30 6803.5,-30 6803.5,0 6964.5,0 6964.5,-30"/>
<text text-anchor="start" x="6811.5" y="-18" font-family="Helvetica,sans-Serif" font-size="10.00">/home/runner/work/doxygen</text>
<text text-anchor="middle" x="6884" y="-7" font-family="Helvetica,sans-Serif" font-size="10.00">/doxygen/src/rtfdocvisitor.cpp</text>
</a>
</g>
</g>
<!-- Node1&#45;&gt;Node41 -->
<g id="edge40" class="edge">
<title>Node1&#45;&gt;Node41</title>
<path fill="none" stroke="#63b8ff" d="M4178.21,-80C4581.6,-79.77 6269.23,-75.99 6795,-30 6797.65,-29.77 6800.34,-29.51 6803.05,-29.22"/>
<polygon fill="#63b8ff" stroke="#63b8ff" points="4178.06,-76.5 4168.07,-80.01 4178.07,-83.5 4178.06,-76.5"/>
</g>
<!-- Node42 -->
<g id="node42" class="node">
<title>Node42</title>
<g id="a_node42"><a xlink:href="../../d0/d9c/rtfgen_8cpp.html" target="_top" xlink:title=" ">
<polygon fill="white" stroke="#666666" points="7137,-30 6983,-30 6983,0 7137,0 7137,-30"/>
<text text-anchor="start" x="6991" y="-18" font-family="Helvetica,sans-Serif" font-size="10.00">/home/runner/work/doxygen</text>
<text text-anchor="middle" x="7060" y="-7" font-family="Helvetica,sans-Serif" font-size="10.00">/doxygen/src/rtfgen.cpp</text>
</a>
</g>
</g>
<!-- Node1&#45;&gt;Node42 -->
<g id="edge41" class="edge">
<title>Node1&#45;&gt;Node42</title>
<path fill="none" stroke="#63b8ff" d="M4178.41,-80.18C4598.31,-80.8 6411.09,-80.44 6974,-30 6976.86,-29.74 6979.77,-29.45 6982.71,-29.12"/>
<polygon fill="#63b8ff" stroke="#63b8ff" points="4178.17,-76.68 4168.16,-80.17 4178.16,-83.68 4178.17,-76.68"/>
</g>
<!-- Node43 -->
<g id="node43" class="node">
<title>Node43</title>
<g id="a_node43"><a xlink:href="../../d7/d79/searchindex_8cpp.html" target="_top" xlink:title=" ">
<polygon fill="white" stroke="#666666" points="7316.5,-30 7155.5,-30 7155.5,0 7316.5,0 7316.5,-30"/>
<text text-anchor="start" x="7163.5" y="-18" font-family="Helvetica,sans-Serif" font-size="10.00">/home/runner/work/doxygen</text>
<text text-anchor="middle" x="7236" y="-7" font-family="Helvetica,sans-Serif" font-size="10.00">/doxygen/src/searchindex.cpp</text>
</a>
</g>
</g>
<!-- Node1&#45;&gt;Node43 -->
<g id="edge42" class="edge">
<title>Node1&#45;&gt;Node43</title>
<path fill="none" stroke="#63b8ff" d="M4178.59,-80.2C4613.85,-80.94 6547.03,-81.24 7146,-30 7148.99,-29.74 7152.04,-29.45 7155.11,-29.12"/>
<polygon fill="#63b8ff" stroke="#63b8ff" points="4178.29,-76.7 4168.28,-80.18 4178.28,-83.7 4178.29,-76.7"/>
</g>
<!-- Node44 -->
<g id="node44" class="node">
<title>Node44</title>
<g id="a_node44"><a xlink:href="../../d9/d2f/searchindex__js_8cpp.html" target="_top" xlink:title=" ">
<polygon fill="white" stroke="#666666" points="7509.5,-30 7334.5,-30 7334.5,0 7509.5,0 7509.5,-30"/>
<text text-anchor="start" x="7342.5" y="-18" font-family="Helvetica,sans-Serif" font-size="10.00">/home/runner/work/doxygen</text>
<text text-anchor="middle" x="7422" y="-7" font-family="Helvetica,sans-Serif" font-size="10.00">/doxygen/src/searchindex_js.cpp</text>
</a>
</g>
</g>
<!-- Node1&#45;&gt;Node44 -->
<g id="edge43" class="edge">
<title>Node1&#45;&gt;Node44</title>
<path fill="none" stroke="#63b8ff" d="M4178.22,-80.18C4628,-80.87 6688.9,-81.16 7326,-30 7328.77,-29.78 7331.58,-29.53 7334.42,-29.25"/>
<polygon fill="#63b8ff" stroke="#63b8ff" points="4178.22,-76.68 4168.21,-80.16 4178.21,-83.68 4178.22,-76.68"/>
</g>
<!-- Node45 -->
<g id="node45" class="node">
<title>Node45</title>
<g id="a_node45"><a xlink:href="../../df/d54/template_8cpp.html" target="_top" xlink:title=" ">
<polygon fill="white" stroke="#666666" points="7682,-30 7528,-30 7528,0 7682,0 7682,-30"/>
<text text-anchor="start" x="7536" y="-18" font-family="Helvetica,sans-Serif" font-size="10.00">/home/runner/work/doxygen</text>
<text text-anchor="middle" x="7605" y="-7" font-family="Helvetica,sans-Serif" font-size="10.00">/doxygen/src/template.cpp</text>
</a>
</g>
</g>
<!-- Node1&#45;&gt;Node45 -->
<g id="edge44" class="edge">
<title>Node1&#45;&gt;Node45</title>
<path fill="none" stroke="#63b8ff" d="M4178.26,-79.49C4679.11,-76.49 7177.84,-60.09 7519,-30 7521.86,-29.75 7524.77,-29.46 7527.71,-29.13"/>
<polygon fill="#63b8ff" stroke="#63b8ff" points="4178.18,-75.99 4168.2,-79.55 4178.23,-82.99 4178.18,-75.99"/>
</g>
<!-- Node46 -->
<g id="node46" class="node">
<title>Node46</title>
<g id="a_node46"><a xlink:href="../../df/d2d/util_8cpp.html" target="_top" xlink:title=" ">
<polygon fill="white" stroke="#666666" points="7854,-30 7700,-30 7700,0 7854,0 7854,-30"/>
<text text-anchor="start" x="7708" y="-18" font-family="Helvetica,sans-Serif" font-size="10.00">/home/runner/work/doxygen</text>
<text text-anchor="middle" x="7777" y="-7" font-family="Helvetica,sans-Serif" font-size="10.00">/doxygen/src/util.cpp</text>
</a>
</g>
</g>
<!-- Node1&#45;&gt;Node46 -->
<g id="edge45" class="edge">
<title>Node1&#45;&gt;Node46</title>
<path fill="none" stroke="#63b8ff" d="M4178.43,-79.56C4694.44,-76.85 7331.75,-61.56 7691,-30 7693.86,-29.75 7696.77,-29.46 7699.71,-29.13"/>
<polygon fill="#63b8ff" stroke="#63b8ff" points="4178.06,-76.06 4168.08,-79.61 4178.1,-83.06 4178.06,-76.06"/>
</g>
<!-- Node47 -->
<g id="node47" class="node">
<title>Node47</title>
<g id="a_node47"><a xlink:href="../../de/dea/vhdldocgen_8cpp.html" target="_top" xlink:title=" ">
<polygon fill="white" stroke="#666666" points="8030,-30 7872,-30 7872,0 8030,0 8030,-30"/>
<text text-anchor="start" x="7880" y="-18" font-family="Helvetica,sans-Serif" font-size="10.00">/home/runner/work/doxygen</text>
<text text-anchor="middle" x="7951" y="-7" font-family="Helvetica,sans-Serif" font-size="10.00">/doxygen/src/vhdldocgen.cpp</text>
</a>
</g>
</g>
<!-- Node1&#45;&gt;Node47 -->
<g id="edge46" class="edge">
<title>Node1&#45;&gt;Node47</title>
<path fill="none" stroke="#63b8ff" d="M4178.33,-79.6C4708.5,-77.07 7485.51,-62.36 7863,-30 7865.93,-29.75 7868.91,-29.46 7871.91,-29.13"/>
<polygon fill="#63b8ff" stroke="#63b8ff" points="4178.05,-76.1 4168.07,-79.65 4178.09,-83.1 4178.05,-76.1"/>
</g>
<!-- Node48 -->
<g id="node48" class="node">
<title>Node48</title>
<g id="a_node48"><a xlink:href="../../d0/dc3/xmlgen_8cpp.html" target="_top" xlink:title=" ">
<polygon fill="white" stroke="#666666" points="8202,-30 8048,-30 8048,0 8202,0 8202,-30"/>
<text text-anchor="start" x="8056" y="-18" font-family="Helvetica,sans-Serif" font-size="10.00">/home/runner/work/doxygen</text>
<text text-anchor="middle" x="8125" y="-7" font-family="Helvetica,sans-Serif" font-size="10.00">/doxygen/src/xmlgen.cpp</text>
</a>
</g>
</g>
<!-- Node1&#45;&gt;Node48 -->
<g id="edge47" class="edge">
<title>Node1&#45;&gt;Node48</title>
<path fill="none" stroke="#63b8ff" d="M4178.46,-79.67C4723.4,-77.54 7643.01,-64.55 8039,-30 8041.86,-29.75 8044.78,-29.46 8047.71,-29.14"/>
<polygon fill="#63b8ff" stroke="#63b8ff" points="4178.29,-76.17 4168.31,-79.71 4178.32,-83.17 4178.29,-76.17"/>
</g>
</g>
</svg>
