<?xml version="1.0" encoding="UTF-8" standalone="no"?>
<!DOCTYPE svg PUBLIC "-//W3C//DTD SVG 1.1//EN"
 "http://www.w3.org/Graphics/SVG/1.1/DTD/svg11.dtd">
<!-- Generated by graphviz version 2.43.0 (0)
 -->
<!-- Title: /home/runner/work/doxygen/doxygen/src/xmldocvisitor.h Pages: 1 -->
<svg width="1220pt" height="368pt"
 viewBox="0.00 0.00 1219.50 368.00" xmlns="http://www.w3.org/2000/svg" xmlns:xlink="http://www.w3.org/1999/xlink">
<g id="graph0" class="graph" transform="scale(1 1) rotate(0) translate(4 364)">
<title>/home/runner/work/doxygen/doxygen/src/xmldocvisitor.h</title>
<!-- Node1 -->
<g id="node1" class="node">
<title>Node1</title>
<g id="a_node1"><a xlink:title=" ">
<polygon fill="#999999" stroke="#666666" points="425.5,-360 268.5,-360 268.5,-330 425.5,-330 425.5,-360"/>
<text text-anchor="start" x="276.5" y="-348" font-family="Helvetica,sans-Serif" font-size="10.00">/home/runner/work/doxygen</text>
<text text-anchor="middle" x="347" y="-337" font-family="Helvetica,sans-Serif" font-size="10.00">/doxygen/src/xmldocvisitor.h</text>
</a>
</g>
</g>
<!-- Node2 -->
<g id="node2" class="node">
<title>Node2</title>
<g id="a_node2"><a xlink:title=" ">
<polygon fill="#e0e0e0" stroke="#999999" points="60,-129 0,-129 0,-110 60,-110 60,-129"/>
<text text-anchor="middle" x="30" y="-117" font-family="Helvetica,sans-Serif" font-size="10.00">iostream</text>
</a>
</g>
</g>
<!-- Node1&#45;&gt;Node2 -->
<g id="edge1" class="edge">
<title>Node1&#45;&gt;Node2</title>
<path fill="none" stroke="#63b8ff" d="M326.69,-329.68C269.49,-289.35 107.5,-175.14 50.3,-134.82"/>
<polygon fill="#63b8ff" stroke="#63b8ff" points="52.25,-131.9 42.06,-129 48.21,-137.62 52.25,-131.9"/>
</g>
<!-- Node3 -->
<g id="node3" class="node">
<title>Node3</title>
<g id="a_node3"><a xlink:href="../../d7/d5c/qcstring_8h.html" target="_top" xlink:title=" ">
<polygon fill="white" stroke="#666666" points="493.5,-129 428.5,-129 428.5,-110 493.5,-110 493.5,-129"/>
<text text-anchor="middle" x="461" y="-117" font-family="Helvetica,sans-Serif" font-size="10.00">qcstring.h</text>
</a>
</g>
</g>
<!-- Node1&#45;&gt;Node3 -->
<g id="edge2" class="edge">
<title>Node1&#45;&gt;Node3</title>
<path fill="none" stroke="#63b8ff" d="M352.32,-329.56C364.03,-298.46 393.77,-223.22 428,-165 433.66,-155.38 440.96,-145.34 447.27,-137.23"/>
<polygon fill="#63b8ff" stroke="#63b8ff" points="450.08,-139.31 453.58,-129.31 444.61,-134.95 450.08,-139.31"/>
</g>
<!-- Node13 -->
<g id="node13" class="node">
<title>Node13</title>
<g id="a_node13"><a xlink:href="../../d2/d3c/docvisitor_8h.html" target="_top" xlink:title=" ">
<polygon fill="white" stroke="#666666" points="1211.5,-239 1138.5,-239 1138.5,-220 1211.5,-220 1211.5,-239"/>
<text text-anchor="middle" x="1175" y="-227" font-family="Helvetica,sans-Serif" font-size="10.00">docvisitor.h</text>
</a>
</g>
</g>
<!-- Node1&#45;&gt;Node13 -->
<g id="edge14" class="edge">
<title>Node1&#45;&gt;Node13</title>
<path fill="none" stroke="#63b8ff" d="M425.93,-339.64C530.79,-333.16 721.6,-318.98 883,-294 972.29,-280.18 1075.23,-255.77 1131.93,-241.58"/>
<polygon fill="#63b8ff" stroke="#63b8ff" points="1133.12,-244.89 1141.96,-239.06 1131.41,-238.1 1133.12,-244.89"/>
</g>
<!-- Node15 -->
<g id="node15" class="node">
<title>Node15</title>
<g id="a_node15"><a xlink:href="../../de/d2b/docnode_8h.html" target="_top" xlink:title=" ">
<polygon fill="white" stroke="#666666" points="873.5,-294 806.5,-294 806.5,-275 873.5,-275 873.5,-294"/>
<text text-anchor="middle" x="840" y="-282" font-family="Helvetica,sans-Serif" font-size="10.00">docnode.h</text>
</a>
</g>
</g>
<!-- Node1&#45;&gt;Node15 -->
<g id="edge17" class="edge">
<title>Node1&#45;&gt;Node15</title>
<path fill="none" stroke="#63b8ff" d="M425.66,-334.67C530.59,-322.21 712.8,-300.59 796.13,-290.71"/>
<polygon fill="#63b8ff" stroke="#63b8ff" points="796.75,-294.16 806.27,-289.5 795.92,-287.21 796.75,-294.16"/>
</g>
<!-- Node27 -->
<g id="node27" class="node">
<title>Node27</title>
<g id="a_node27"><a xlink:href="../../d4/d7d/textstream_8h.html" target="_top" xlink:title=" ">
<polygon fill="white" stroke="#666666" points="296,-184 216,-184 216,-165 296,-165 296,-184"/>
<text text-anchor="middle" x="256" y="-172" font-family="Helvetica,sans-Serif" font-size="10.00">textstream.h</text>
</a>
</g>
</g>
<!-- Node1&#45;&gt;Node27 -->
<g id="edge52" class="edge">
<title>Node1&#45;&gt;Node27</title>
<path fill="none" stroke="#63b8ff" d="M339.4,-329.92C322.91,-299.39 283.87,-227.1 265.66,-193.39"/>
<polygon fill="#63b8ff" stroke="#63b8ff" points="268.56,-191.39 260.73,-184.25 262.4,-194.72 268.56,-191.39"/>
</g>
<!-- Node4 -->
<g id="node4" class="node">
<title>Node4</title>
<g id="a_node4"><a xlink:title=" ">
<polygon fill="#e0e0e0" stroke="#999999" points="623,-19 579,-19 579,0 623,0 623,-19"/>
<text text-anchor="middle" x="601" y="-7" font-family="Helvetica,sans-Serif" font-size="10.00">string</text>
</a>
</g>
</g>
<!-- Node3&#45;&gt;Node4 -->
<g id="edge3" class="edge">
<title>Node3&#45;&gt;Node4</title>
<path fill="none" stroke="#63b8ff" d="M473.28,-109.8C485.68,-100.95 505.35,-86.75 522,-74 543.1,-57.84 566.8,-38.65 582.69,-25.62"/>
<polygon fill="#63b8ff" stroke="#63b8ff" points="585.14,-28.13 590.64,-19.08 580.7,-22.73 585.14,-28.13"/>
</g>
<!-- Node5 -->
<g id="node5" class="node">
<title>Node5</title>
<g id="a_node5"><a xlink:title=" ">
<polygon fill="#e0e0e0" stroke="#999999" points="633,-74 569,-74 569,-55 633,-55 633,-74"/>
<text text-anchor="middle" x="601" y="-62" font-family="Helvetica,sans-Serif" font-size="10.00">algorithm</text>
</a>
</g>
</g>
<!-- Node3&#45;&gt;Node5 -->
<g id="edge4" class="edge">
<title>Node3&#45;&gt;Node5</title>
<path fill="none" stroke="#63b8ff" d="M483.49,-109.98C506.52,-101.27 542.54,-87.63 568.63,-77.75"/>
<polygon fill="#63b8ff" stroke="#63b8ff" points="569.98,-80.98 578.1,-74.17 567.51,-74.44 569.98,-80.98"/>
</g>
<!-- Node6 -->
<g id="node6" class="node">
<title>Node6</title>
<g id="a_node6"><a xlink:title=" ">
<polygon fill="#e0e0e0" stroke="#999999" points="738.5,-74 689.5,-74 689.5,-55 738.5,-55 738.5,-74"/>
<text text-anchor="middle" x="714" y="-62" font-family="Helvetica,sans-Serif" font-size="10.00">cctype</text>
</a>
</g>
</g>
<!-- Node3&#45;&gt;Node6 -->
<g id="edge5" class="edge">
<title>Node3&#45;&gt;Node6</title>
<path fill="none" stroke="#63b8ff" d="M493.56,-111.68C541.4,-101.66 630.32,-83.03 679.34,-72.76"/>
<polygon fill="#63b8ff" stroke="#63b8ff" points="680.1,-76.18 689.16,-70.7 678.66,-69.33 680.1,-76.18"/>
</g>
<!-- Node7 -->
<g id="node7" class="node">
<title>Node7</title>
<g id="a_node7"><a xlink:title=" ">
<polygon fill="#e0e0e0" stroke="#999999" points="445,-74 395,-74 395,-55 445,-55 445,-74"/>
<text text-anchor="middle" x="420" y="-62" font-family="Helvetica,sans-Serif" font-size="10.00">cstring</text>
</a>
</g>
</g>
<!-- Node3&#45;&gt;Node7 -->
<g id="edge6" class="edge">
<title>Node3&#45;&gt;Node7</title>
<path fill="none" stroke="#63b8ff" d="M454.23,-109.75C448.44,-102.26 439.94,-91.28 432.86,-82.13"/>
<polygon fill="#63b8ff" stroke="#63b8ff" points="435.53,-79.86 426.64,-74.09 429.99,-84.14 435.53,-79.86"/>
</g>
<!-- Node8 -->
<g id="node8" class="node">
<title>Node8</title>
<g id="a_node8"><a xlink:title=" ">
<polygon fill="#e0e0e0" stroke="#999999" points="200,-74 154,-74 154,-55 200,-55 200,-74"/>
<text text-anchor="middle" x="177" y="-62" font-family="Helvetica,sans-Serif" font-size="10.00">cstdio</text>
</a>
</g>
</g>
<!-- Node3&#45;&gt;Node8 -->
<g id="edge7" class="edge">
<title>Node3&#45;&gt;Node8</title>
<path fill="none" stroke="#63b8ff" d="M428.2,-112.68C365.88,-101.61 234.7,-78.24 214,-74 212.73,-73.74 211.43,-73.47 210.13,-73.19"/>
<polygon fill="#63b8ff" stroke="#63b8ff" points="210.57,-69.71 200.06,-70.97 209.07,-76.54 210.57,-69.71"/>
</g>
<!-- Node9 -->
<g id="node9" class="node">
<title>Node9</title>
<g id="a_node9"><a xlink:title=" ">
<polygon fill="#e0e0e0" stroke="#999999" points="512.5,-74 463.5,-74 463.5,-55 512.5,-55 512.5,-74"/>
<text text-anchor="middle" x="488" y="-62" font-family="Helvetica,sans-Serif" font-size="10.00">cstdlib</text>
</a>
</g>
</g>
<!-- Node3&#45;&gt;Node9 -->
<g id="edge8" class="edge">
<title>Node3&#45;&gt;Node9</title>
<path fill="none" stroke="#63b8ff" d="M465.46,-109.75C469.12,-102.57 474.41,-92.18 478.95,-83.27"/>
<polygon fill="#63b8ff" stroke="#63b8ff" points="482.2,-84.59 483.62,-74.09 475.97,-81.41 482.2,-84.59"/>
</g>
<!-- Node10 -->
<g id="node10" class="node">
<title>Node10</title>
<g id="a_node10"><a xlink:title=" ">
<polygon fill="#e0e0e0" stroke="#999999" points="253,-19 203,-19 203,0 253,0 253,-19"/>
<text text-anchor="middle" x="228" y="-7" font-family="Helvetica,sans-Serif" font-size="10.00">cstdint</text>
</a>
</g>
</g>
<!-- Node3&#45;&gt;Node10 -->
<g id="edge9" class="edge">
<title>Node3&#45;&gt;Node10</title>
<path fill="none" stroke="#63b8ff" d="M428.31,-113.58C371.73,-104.8 260.28,-86.19 247,-74 234.69,-62.7 230.23,-43.8 228.68,-29.54"/>
<polygon fill="#63b8ff" stroke="#63b8ff" points="232.15,-29.08 227.96,-19.35 225.17,-29.57 232.15,-29.08"/>
</g>
<!-- Node11 -->
<g id="node11" class="node">
<title>Node11</title>
<g id="a_node11"><a xlink:title=" ">
<polygon fill="#e0e0e0" stroke="#999999" points="376.5,-74 319.5,-74 319.5,-55 376.5,-55 376.5,-74"/>
<text text-anchor="middle" x="348" y="-62" font-family="Helvetica,sans-Serif" font-size="10.00">ostream</text>
</a>
</g>
</g>
<!-- Node3&#45;&gt;Node11 -->
<g id="edge10" class="edge">
<title>Node3&#45;&gt;Node11</title>
<path fill="none" stroke="#63b8ff" d="M442.84,-109.98C424.75,-101.5 396.72,-88.35 375.81,-78.54"/>
<polygon fill="#63b8ff" stroke="#63b8ff" points="377.03,-75.25 366.49,-74.17 374.05,-81.59 377.03,-75.25"/>
</g>
<!-- Node12 -->
<g id="node12" class="node">
<title>Node12</title>
<g id="a_node12"><a xlink:href="../../db/d7c/utf8_8h.html" target="_top" xlink:title="Various UTF8 related helper functions.">
<polygon fill="white" stroke="#666666" points="301.5,-74 256.5,-74 256.5,-55 301.5,-55 301.5,-74"/>
<text text-anchor="middle" x="279" y="-62" font-family="Helvetica,sans-Serif" font-size="10.00">utf8.h</text>
</a>
</g>
</g>
<!-- Node3&#45;&gt;Node12 -->
<g id="edge11" class="edge">
<title>Node3&#45;&gt;Node12</title>
<path fill="none" stroke="#63b8ff" d="M431.76,-109.98C398.88,-100.41 345.65,-84.91 311.5,-74.96"/>
<polygon fill="#63b8ff" stroke="#63b8ff" points="312.14,-71.5 301.56,-72.07 310.18,-78.23 312.14,-71.5"/>
</g>
<!-- Node12&#45;&gt;Node4 -->
<g id="edge13" class="edge">
<title>Node12&#45;&gt;Node4</title>
<path fill="none" stroke="#63b8ff" d="M301.65,-57.16C304.78,-56.38 307.96,-55.63 311,-55 403.79,-35.62 514.92,-20.9 568.69,-14.31"/>
<polygon fill="#63b8ff" stroke="#63b8ff" points="569.15,-17.78 578.66,-13.1 568.31,-10.83 569.15,-17.78"/>
</g>
<!-- Node12&#45;&gt;Node10 -->
<g id="edge12" class="edge">
<title>Node12&#45;&gt;Node10</title>
<path fill="none" stroke="#63b8ff" d="M270.58,-54.75C263.23,-47.11 252.37,-35.82 243.46,-26.56"/>
<polygon fill="#63b8ff" stroke="#63b8ff" points="245.72,-23.87 236.26,-19.09 240.68,-28.72 245.72,-23.87"/>
</g>
<!-- Node13&#45;&gt;Node3 -->
<g id="edge16" class="edge">
<title>Node13&#45;&gt;Node3</title>
<path fill="none" stroke="#63b8ff" d="M1138.27,-226.38C1002.07,-218.46 533.06,-190.78 519,-184 498.28,-174.01 481.5,-153.06 471.41,-137.94"/>
<polygon fill="#63b8ff" stroke="#63b8ff" points="474.34,-136.02 466.03,-129.44 468.42,-139.76 474.34,-136.02"/>
</g>
<!-- Node14 -->
<g id="node14" class="node">
<title>Node14</title>
<g id="a_node14"><a xlink:title=" ">
<polygon fill="#e0e0e0" stroke="#999999" points="1131,-129 1073,-129 1073,-110 1131,-110 1131,-129"/>
<text text-anchor="middle" x="1102" y="-117" font-family="Helvetica,sans-Serif" font-size="10.00">memory</text>
</a>
</g>
</g>
<!-- Node13&#45;&gt;Node14 -->
<g id="edge15" class="edge">
<title>Node13&#45;&gt;Node14</title>
<path fill="none" stroke="#63b8ff" d="M1173.07,-219.67C1169.95,-206.81 1162.93,-182.54 1151,-165 1143.3,-153.68 1132.16,-143.26 1122.44,-135.36"/>
<polygon fill="#63b8ff" stroke="#63b8ff" points="1124.44,-132.47 1114.4,-129.1 1120.14,-138 1124.44,-132.47"/>
</g>
<!-- Node15&#45;&gt;Node3 -->
<g id="edge22" class="edge">
<title>Node15&#45;&gt;Node3</title>
<path fill="none" stroke="#63b8ff" d="M806.25,-280.54C717.51,-271.98 481.46,-243.89 437,-184 426.51,-169.87 436.42,-150.63 446.5,-137.04"/>
<polygon fill="#63b8ff" stroke="#63b8ff" points="449.4,-139.02 452.94,-129.03 443.94,-134.63 449.4,-139.02"/>
</g>
<!-- Node15&#45;&gt;Node13 -->
<g id="edge23" class="edge">
<title>Node15&#45;&gt;Node13</title>
<path fill="none" stroke="#63b8ff" d="M873.68,-278.33C926.88,-270.14 1033.59,-253.62 1124,-239 1125.3,-238.79 1126.61,-238.58 1127.94,-238.36"/>
<polygon fill="#63b8ff" stroke="#63b8ff" points="1128.93,-241.74 1138.24,-236.67 1127.8,-234.84 1128.93,-241.74"/>
</g>
<!-- Node15&#45;&gt;Node14 -->
<g id="edge20" class="edge">
<title>Node15&#45;&gt;Node14</title>
<path fill="none" stroke="#63b8ff" d="M873.61,-276.17C875.43,-275.78 877.24,-275.38 879,-275 952.77,-258.96 978.9,-275.46 1045,-239 1075,-222.45 1085.29,-215.39 1099,-184 1105.15,-169.92 1105.5,-152.37 1104.54,-139.3"/>
<polygon fill="#63b8ff" stroke="#63b8ff" points="1108,-138.73 1103.47,-129.15 1101.03,-139.46 1108,-138.73"/>
</g>
<!-- Node16 -->
<g id="node16" class="node">
<title>Node16</title>
<g id="a_node16"><a xlink:title=" ">
<polygon fill="#e0e0e0" stroke="#999999" points="973,-184 923,-184 923,-165 973,-165 973,-184"/>
<text text-anchor="middle" x="948" y="-172" font-family="Helvetica,sans-Serif" font-size="10.00">stdio.h</text>
</a>
</g>
</g>
<!-- Node15&#45;&gt;Node16 -->
<g id="edge18" class="edge">
<title>Node15&#45;&gt;Node16</title>
<path fill="none" stroke="#63b8ff" d="M851.41,-274.78C862.46,-266.15 879.47,-252.32 893,-239 908.2,-224.03 923.98,-205.44 934.72,-192.25"/>
<polygon fill="#63b8ff" stroke="#63b8ff" points="937.74,-194.08 941.28,-184.1 932.29,-189.7 937.74,-194.08"/>
</g>
<!-- Node17 -->
<g id="node17" class="node">
<title>Node17</title>
<g id="a_node17"><a xlink:title=" ">
<polygon fill="#e0e0e0" stroke="#999999" points="918.5,-129 871.5,-129 871.5,-110 918.5,-110 918.5,-129"/>
<text text-anchor="middle" x="895" y="-117" font-family="Helvetica,sans-Serif" font-size="10.00">vector</text>
</a>
</g>
</g>
<!-- Node15&#45;&gt;Node17 -->
<g id="edge19" class="edge">
<title>Node15&#45;&gt;Node17</title>
<path fill="none" stroke="#63b8ff" d="M843.35,-274.77C849.91,-257.53 864.83,-217.84 876,-184 880.97,-168.96 886.09,-151.73 889.76,-139.02"/>
<polygon fill="#63b8ff" stroke="#63b8ff" points="893.19,-139.75 892.57,-129.18 886.46,-137.83 893.19,-139.75"/>
</g>
<!-- Node18 -->
<g id="node18" class="node">
<title>Node18</title>
<g id="a_node18"><a xlink:title=" ">
<polygon fill="#e0e0e0" stroke="#999999" points="714.5,-239 663.5,-239 663.5,-220 714.5,-220 714.5,-239"/>
<text text-anchor="middle" x="689" y="-227" font-family="Helvetica,sans-Serif" font-size="10.00">variant</text>
</a>
</g>
</g>
<!-- Node15&#45;&gt;Node18 -->
<g id="edge21" class="edge">
<title>Node15&#45;&gt;Node18</title>
<path fill="none" stroke="#63b8ff" d="M815.74,-274.98C790.68,-266.19 751.37,-252.39 723.17,-242.49"/>
<polygon fill="#63b8ff" stroke="#63b8ff" points="724.3,-239.18 713.7,-239.17 721.98,-245.78 724.3,-239.18"/>
</g>
<!-- Node19 -->
<g id="node19" class="node">
<title>Node19</title>
<g id="a_node19"><a xlink:href="../../de/d9c/docparser_8h.html" target="_top" xlink:title=" ">
<polygon fill="white" stroke="#666666" points="1018.5,-239 945.5,-239 945.5,-220 1018.5,-220 1018.5,-239"/>
<text text-anchor="middle" x="982" y="-227" font-family="Helvetica,sans-Serif" font-size="10.00">docparser.h</text>
</a>
</g>
</g>
<!-- Node15&#45;&gt;Node19 -->
<g id="edge24" class="edge">
<title>Node15&#45;&gt;Node19</title>
<path fill="none" stroke="#63b8ff" d="M862.81,-274.98C886.17,-266.27 922.7,-252.63 949.17,-242.75"/>
<polygon fill="#63b8ff" stroke="#63b8ff" points="950.63,-245.95 958.77,-239.17 948.18,-239.39 950.63,-245.95"/>
</g>
<!-- Node20 -->
<g id="node20" class="node">
<title>Node20</title>
<g id="a_node20"><a xlink:href="../../d7/d50/growvector_8h.html" target="_top" xlink:title=" ">
<polygon fill="white" stroke="#666666" points="1071,-184 991,-184 991,-165 1071,-165 1071,-184"/>
<text text-anchor="middle" x="1031" y="-172" font-family="Helvetica,sans-Serif" font-size="10.00">growvector.h</text>
</a>
</g>
</g>
<!-- Node15&#45;&gt;Node20 -->
<g id="edge39" class="edge">
<title>Node15&#45;&gt;Node20</title>
<path fill="none" stroke="#63b8ff" d="M873.56,-280.34C922.19,-275 1008.56,-262.42 1028,-239 1038.23,-226.67 1037.82,-207.9 1035.55,-193.96"/>
<polygon fill="#63b8ff" stroke="#63b8ff" points="1038.95,-193.12 1033.5,-184.04 1032.1,-194.54 1038.95,-193.12"/>
</g>
<!-- Node22 -->
<g id="node22" class="node">
<title>Node22</title>
<g id="a_node22"><a xlink:href="../../d0/d73/htmlattrib_8h.html" target="_top" xlink:title=" ">
<polygon fill="white" stroke="#666666" points="695,-184 621,-184 621,-165 695,-165 695,-184"/>
<text text-anchor="middle" x="658" y="-172" font-family="Helvetica,sans-Serif" font-size="10.00">htmlattrib.h</text>
</a>
</g>
</g>
<!-- Node15&#45;&gt;Node22 -->
<g id="edge32" class="edge">
<title>Node15&#45;&gt;Node22</title>
<path fill="none" stroke="#63b8ff" d="M824.9,-274.89C809.34,-265.99 784.4,-251.65 763,-239 734.41,-222.09 701.69,-202.22 680.48,-189.27"/>
<polygon fill="#63b8ff" stroke="#63b8ff" points="682.23,-186.24 671.87,-184.01 678.58,-192.21 682.23,-186.24"/>
</g>
<!-- Node23 -->
<g id="node23" class="node">
<title>Node23</title>
<g id="a_node23"><a xlink:href="../../db/dc6/htmlentity_8h.html" target="_top" xlink:title=" ">
<polygon fill="white" stroke="#666666" points="602.5,-184 527.5,-184 527.5,-165 602.5,-165 602.5,-184"/>
<text text-anchor="middle" x="565" y="-172" font-family="Helvetica,sans-Serif" font-size="10.00">htmlentity.h</text>
</a>
</g>
</g>
<!-- Node15&#45;&gt;Node23 -->
<g id="edge35" class="edge">
<title>Node15&#45;&gt;Node23</title>
<path fill="none" stroke="#63b8ff" d="M806.35,-279.31C768.29,-273.69 705.1,-261.69 655,-239 627.71,-226.64 600.11,-205.62 582.8,-191.17"/>
<polygon fill="#63b8ff" stroke="#63b8ff" points="584.63,-188.13 574.75,-184.3 580.08,-193.45 584.63,-188.13"/>
</g>
<!-- Node25 -->
<g id="node25" class="node">
<title>Node25</title>
<g id="a_node25"><a xlink:href="../../d1/d2a/section_8h.html" target="_top" xlink:title=" ">
<polygon fill="white" stroke="#666666" points="832.5,-239 771.5,-239 771.5,-220 832.5,-220 832.5,-239"/>
<text text-anchor="middle" x="802" y="-227" font-family="Helvetica,sans-Serif" font-size="10.00">section.h</text>
</a>
</g>
</g>
<!-- Node15&#45;&gt;Node25 -->
<g id="edge40" class="edge">
<title>Node15&#45;&gt;Node25</title>
<path fill="none" stroke="#63b8ff" d="M833.73,-274.75C828.41,-267.34 820.64,-256.5 814.12,-247.41"/>
<polygon fill="#63b8ff" stroke="#63b8ff" points="816.83,-245.18 808.16,-239.09 811.14,-249.26 816.83,-245.18"/>
</g>
<!-- Node19&#45;&gt;Node3 -->
<g id="edge27" class="edge">
<title>Node19&#45;&gt;Node3</title>
<path fill="none" stroke="#63b8ff" d="M945.41,-226.29C833.68,-219.39 503.33,-197.91 485,-184 471.09,-173.44 465.24,-153.82 462.78,-139.17"/>
<polygon fill="#63b8ff" stroke="#63b8ff" points="466.24,-138.64 461.49,-129.17 459.3,-139.54 466.24,-138.64"/>
</g>
<!-- Node19&#45;&gt;Node14 -->
<g id="edge26" class="edge">
<title>Node19&#45;&gt;Node14</title>
<path fill="none" stroke="#63b8ff" d="M1017.48,-219.97C1038.24,-213.32 1063.51,-202.09 1080,-184 1091.29,-171.62 1096.83,-153.14 1099.53,-139.31"/>
<polygon fill="#63b8ff" stroke="#63b8ff" points="1102.99,-139.85 1101.13,-129.42 1096.08,-138.73 1102.99,-139.85"/>
</g>
<!-- Node19&#45;&gt;Node16 -->
<g id="edge25" class="edge">
<title>Node19&#45;&gt;Node16</title>
<path fill="none" stroke="#63b8ff" d="M976.39,-219.75C971.68,-212.42 964.83,-201.73 959.03,-192.7"/>
<polygon fill="#63b8ff" stroke="#63b8ff" points="961.86,-190.62 953.51,-184.09 955.96,-194.4 961.86,-190.62"/>
</g>
<!-- Node19&#45;&gt;Node20 -->
<g id="edge28" class="edge">
<title>Node19&#45;&gt;Node20</title>
<path fill="none" stroke="#63b8ff" d="M990.09,-219.75C997.16,-212.11 1007.59,-200.82 1016.15,-191.56"/>
<polygon fill="#63b8ff" stroke="#63b8ff" points="1018.84,-193.81 1023.06,-184.09 1013.7,-189.06 1018.84,-193.81"/>
</g>
<!-- Node20&#45;&gt;Node14 -->
<g id="edge30" class="edge">
<title>Node20&#45;&gt;Node14</title>
<path fill="none" stroke="#63b8ff" d="M1042.41,-164.98C1053.11,-157 1069.34,-144.88 1082.16,-135.31"/>
<polygon fill="#63b8ff" stroke="#63b8ff" points="1084.47,-137.96 1090.39,-129.17 1080.28,-132.35 1084.47,-137.96"/>
</g>
<!-- Node20&#45;&gt;Node17 -->
<g id="edge29" class="edge">
<title>Node20&#45;&gt;Node17</title>
<path fill="none" stroke="#63b8ff" d="M1009.15,-164.98C986.88,-156.3 952.1,-142.75 926.78,-132.88"/>
<polygon fill="#63b8ff" stroke="#63b8ff" points="927.84,-129.54 917.25,-129.17 925.29,-136.06 927.84,-129.54"/>
</g>
<!-- Node21 -->
<g id="node21" class="node">
<title>Node21</title>
<g id="a_node21"><a xlink:title=" ">
<polygon fill="#e0e0e0" stroke="#999999" points="1054.5,-129 1001.5,-129 1001.5,-110 1054.5,-110 1054.5,-129"/>
<text text-anchor="middle" x="1028" y="-117" font-family="Helvetica,sans-Serif" font-size="10.00">iterator</text>
</a>
</g>
</g>
<!-- Node20&#45;&gt;Node21 -->
<g id="edge31" class="edge">
<title>Node20&#45;&gt;Node21</title>
<path fill="none" stroke="#63b8ff" d="M1030.5,-164.75C1030.11,-157.8 1029.55,-147.85 1029.05,-139.13"/>
<polygon fill="#63b8ff" stroke="#63b8ff" points="1032.55,-138.88 1028.49,-129.09 1025.56,-139.27 1032.55,-138.88"/>
</g>
<!-- Node22&#45;&gt;Node3 -->
<g id="edge34" class="edge">
<title>Node22&#45;&gt;Node3</title>
<path fill="none" stroke="#63b8ff" d="M626.35,-164.98C592.84,-155.97 539.8,-141.7 502.86,-131.76"/>
<polygon fill="#63b8ff" stroke="#63b8ff" points="503.47,-128.3 492.9,-129.08 501.65,-135.06 503.47,-128.3"/>
</g>
<!-- Node22&#45;&gt;Node17 -->
<g id="edge33" class="edge">
<title>Node22&#45;&gt;Node17</title>
<path fill="none" stroke="#63b8ff" d="M695.03,-165.22C740.59,-155.03 817.29,-137.88 861.27,-128.04"/>
<polygon fill="#63b8ff" stroke="#63b8ff" points="862.2,-131.42 871.19,-125.82 860.67,-124.59 862.2,-131.42"/>
</g>
<!-- Node23&#45;&gt;Node3 -->
<g id="edge38" class="edge">
<title>Node23&#45;&gt;Node3</title>
<path fill="none" stroke="#63b8ff" d="M548.29,-164.98C531.79,-156.57 506.3,-143.59 487.12,-133.81"/>
<polygon fill="#63b8ff" stroke="#63b8ff" points="488.51,-130.59 478.01,-129.17 485.33,-136.83 488.51,-130.59"/>
</g>
<!-- Node23&#45;&gt;Node4 -->
<g id="edge37" class="edge">
<title>Node23&#45;&gt;Node4</title>
<path fill="none" stroke="#63b8ff" d="M568.46,-164.65C573.76,-151.76 584.8,-127.46 599,-110 614.72,-90.66 631.45,-96.58 642,-74 650.17,-56.51 635.41,-38.15 621.37,-25.69"/>
<polygon fill="#63b8ff" stroke="#63b8ff" points="623.31,-22.76 613.37,-19.1 618.86,-28.16 623.31,-22.76"/>
</g>
<!-- Node24 -->
<g id="node24" class="node">
<title>Node24</title>
<g id="a_node24"><a xlink:title=" ">
<polygon fill="#e0e0e0" stroke="#999999" points="700.5,-129 607.5,-129 607.5,-110 700.5,-110 700.5,-129"/>
<text text-anchor="middle" x="654" y="-117" font-family="Helvetica,sans-Serif" font-size="10.00">unordered_map</text>
</a>
</g>
</g>
<!-- Node23&#45;&gt;Node24 -->
<g id="edge36" class="edge">
<title>Node23&#45;&gt;Node24</title>
<path fill="none" stroke="#63b8ff" d="M579.3,-164.98C593.1,-156.77 614.24,-144.18 630.51,-134.49"/>
<polygon fill="#63b8ff" stroke="#63b8ff" points="632.64,-137.29 639.44,-129.17 629.06,-131.28 632.64,-137.29"/>
</g>
<!-- Node25&#45;&gt;Node3 -->
<g id="edge43" class="edge">
<title>Node25&#45;&gt;Node3</title>
<path fill="none" stroke="#63b8ff" d="M771.38,-224.93C685.73,-214.91 449.69,-187.05 447,-184 435.83,-171.35 442.48,-151.82 449.95,-137.76"/>
<polygon fill="#63b8ff" stroke="#63b8ff" points="453.01,-139.45 455.04,-129.05 446.97,-135.91 453.01,-139.45"/>
</g>
<!-- Node25&#45;&gt;Node4 -->
<g id="edge41" class="edge">
<title>Node25&#45;&gt;Node4</title>
<path fill="none" stroke="#63b8ff" d="M797.31,-219.85C792.68,-211.03 785.63,-196.86 781,-184 760.95,-128.32 788.93,-97.75 748,-55 717.97,-23.63 666.65,-14.16 633.28,-11.43"/>
<polygon fill="#63b8ff" stroke="#63b8ff" points="633.34,-7.92 623.13,-10.76 632.88,-14.91 633.34,-7.92"/>
</g>
<!-- Node25&#45;&gt;Node24 -->
<g id="edge42" class="edge">
<title>Node25&#45;&gt;Node24</title>
<path fill="none" stroke="#63b8ff" d="M790.14,-219.84C764.92,-201.44 705.71,-158.23 674.33,-135.34"/>
<polygon fill="#63b8ff" stroke="#63b8ff" points="676.06,-132.26 665.92,-129.2 671.93,-137.92 676.06,-132.26"/>
</g>
<!-- Node26 -->
<g id="node26" class="node">
<title>Node26</title>
<g id="a_node26"><a xlink:href="../../da/de1/linkedmap_8h.html" target="_top" xlink:title=" ">
<polygon fill="white" stroke="#666666" points="866.5,-184 789.5,-184 789.5,-165 866.5,-165 866.5,-184"/>
<text text-anchor="middle" x="828" y="-172" font-family="Helvetica,sans-Serif" font-size="10.00">linkedmap.h</text>
</a>
</g>
</g>
<!-- Node25&#45;&gt;Node26 -->
<g id="edge44" class="edge">
<title>Node25&#45;&gt;Node26</title>
<path fill="none" stroke="#63b8ff" d="M806.29,-219.75C809.81,-212.57 814.91,-202.18 819.28,-193.27"/>
<polygon fill="#63b8ff" stroke="#63b8ff" points="822.52,-194.61 823.79,-184.09 816.24,-191.53 822.52,-194.61"/>
</g>
<!-- Node26&#45;&gt;Node3 -->
<g id="edge51" class="edge">
<title>Node26&#45;&gt;Node3</title>
<path fill="none" stroke="#63b8ff" d="M789.42,-167.93C720.31,-157.95 575.9,-137.09 503.83,-126.69"/>
<polygon fill="#63b8ff" stroke="#63b8ff" points="504.14,-123.19 493.74,-125.23 503.13,-130.12 504.14,-123.19"/>
</g>
<!-- Node26&#45;&gt;Node4 -->
<g id="edge48" class="edge">
<title>Node26&#45;&gt;Node4</title>
<path fill="none" stroke="#63b8ff" d="M827.22,-164.82C824.76,-142.88 815.18,-84.84 781,-55 739.35,-18.64 672.57,-11.04 633.12,-9.97"/>
<polygon fill="#63b8ff" stroke="#63b8ff" points="633.05,-6.47 623,-9.83 632.95,-13.47 633.05,-6.47"/>
</g>
<!-- Node26&#45;&gt;Node5 -->
<g id="edge49" class="edge">
<title>Node26&#45;&gt;Node5</title>
<path fill="none" stroke="#63b8ff" d="M813.36,-164.97C791.3,-152.27 748.09,-127.96 710,-110 684.67,-98.05 655.23,-86.15 633.34,-77.66"/>
<polygon fill="#63b8ff" stroke="#63b8ff" points="634.44,-74.34 623.85,-74.02 631.93,-80.87 634.44,-74.34"/>
</g>
<!-- Node26&#45;&gt;Node6 -->
<g id="edge50" class="edge">
<title>Node26&#45;&gt;Node6</title>
<path fill="none" stroke="#63b8ff" d="M818.67,-164.66C799.37,-146.38 754.83,-104.18 730.54,-81.17"/>
<polygon fill="#63b8ff" stroke="#63b8ff" points="732.81,-78.5 723.14,-74.16 727.99,-83.58 732.81,-78.5"/>
</g>
<!-- Node26&#45;&gt;Node14 -->
<g id="edge47" class="edge">
<title>Node26&#45;&gt;Node14</title>
<path fill="none" stroke="#63b8ff" d="M866.5,-166.65C911.28,-158.6 987.66,-144.58 1062.86,-129.18"/>
<polygon fill="#63b8ff" stroke="#63b8ff" points="1063.89,-132.54 1072.98,-127.1 1062.48,-125.68 1063.89,-132.54"/>
</g>
<!-- Node26&#45;&gt;Node17 -->
<g id="edge46" class="edge">
<title>Node26&#45;&gt;Node17</title>
<path fill="none" stroke="#63b8ff" d="M838.76,-164.98C848.77,-157.07 863.89,-145.11 875.93,-135.58"/>
<polygon fill="#63b8ff" stroke="#63b8ff" points="878.37,-138.12 884.04,-129.17 874.03,-132.63 878.37,-138.12"/>
</g>
<!-- Node26&#45;&gt;Node24 -->
<g id="edge45" class="edge">
<title>Node26&#45;&gt;Node24</title>
<path fill="none" stroke="#63b8ff" d="M800.04,-164.98C770.7,-156.05 724.4,-141.94 691.81,-132.02"/>
<polygon fill="#63b8ff" stroke="#63b8ff" points="692.76,-128.65 682.18,-129.08 690.72,-135.34 692.76,-128.65"/>
</g>
<!-- Node27&#45;&gt;Node2 -->
<g id="edge54" class="edge">
<title>Node27&#45;&gt;Node2</title>
<path fill="none" stroke="#63b8ff" d="M219.69,-164.98C178.77,-155.39 112.44,-139.83 70.05,-129.89"/>
<polygon fill="#63b8ff" stroke="#63b8ff" points="70.61,-126.43 60.07,-127.55 69.01,-133.24 70.61,-126.43"/>
</g>
<!-- Node27&#45;&gt;Node3 -->
<g id="edge60" class="edge">
<title>Node27&#45;&gt;Node3</title>
<path fill="none" stroke="#63b8ff" d="M288.94,-164.98C324.16,-155.88 380.13,-141.41 418.61,-131.46"/>
<polygon fill="#63b8ff" stroke="#63b8ff" points="419.68,-134.8 428.48,-128.91 417.93,-128.02 419.68,-134.8"/>
</g>
<!-- Node27&#45;&gt;Node4 -->
<g id="edge53" class="edge">
<title>Node27&#45;&gt;Node4</title>
<path fill="none" stroke="#63b8ff" d="M296.04,-167.67C341.81,-159.38 407.1,-141.56 380,-110 310.13,-28.61 72.93,-134.45 145,-55 173.43,-23.67 469.54,-13.68 568.78,-11.2"/>
<polygon fill="#63b8ff" stroke="#63b8ff" points="568.91,-14.7 578.83,-10.96 568.74,-7.7 568.91,-14.7"/>
</g>
<!-- Node27&#45;&gt;Node8 -->
<g id="edge57" class="edge">
<title>Node27&#45;&gt;Node8</title>
<path fill="none" stroke="#63b8ff" d="M215.85,-168.69C190.94,-163.4 160.76,-152.3 145,-129 134.69,-113.76 147.24,-94.74 159.52,-81.51"/>
<polygon fill="#63b8ff" stroke="#63b8ff" points="162.33,-83.65 166.92,-74.1 157.38,-78.7 162.33,-83.65"/>
</g>
<!-- Node27&#45;&gt;Node10 -->
<g id="edge56" class="edge">
<title>Node27&#45;&gt;Node10</title>
<path fill="none" stroke="#63b8ff" d="M215.84,-166.36C190.89,-160.15 159.57,-148.89 138,-129 118.12,-110.67 117.92,-100.38 112,-74 110.15,-65.76 107.22,-61.96 112,-55 129.91,-28.95 165.33,-18.14 192.34,-13.66"/>
<polygon fill="#63b8ff" stroke="#63b8ff" points="193.19,-17.08 202.59,-12.19 192.19,-10.15 193.19,-17.08"/>
</g>
<!-- Node28 -->
<g id="node28" class="node">
<title>Node28</title>
<g id="a_node28"><a xlink:title=" ">
<polygon fill="#e0e0e0" stroke="#999999" points="210,-129 154,-129 154,-110 210,-110 210,-129"/>
<text text-anchor="middle" x="182" y="-117" font-family="Helvetica,sans-Serif" font-size="10.00">sstream</text>
</a>
</g>
</g>
<!-- Node27&#45;&gt;Node28 -->
<g id="edge55" class="edge">
<title>Node27&#45;&gt;Node28</title>
<path fill="none" stroke="#63b8ff" d="M244.11,-164.98C232.85,-156.92 215.71,-144.65 202.29,-135.03"/>
<polygon fill="#63b8ff" stroke="#63b8ff" points="204.27,-132.15 194.11,-129.17 200.2,-137.84 204.27,-132.15"/>
</g>
<!-- Node29 -->
<g id="node29" class="node">
<title>Node29</title>
<g id="a_node29"><a xlink:title=" ">
<polygon fill="#e0e0e0" stroke="#999999" points="283.5,-129 228.5,-129 228.5,-110 283.5,-110 283.5,-129"/>
<text text-anchor="middle" x="256" y="-117" font-family="Helvetica,sans-Serif" font-size="10.00">fstream</text>
</a>
</g>
</g>
<!-- Node27&#45;&gt;Node29 -->
<g id="edge58" class="edge">
<title>Node27&#45;&gt;Node29</title>
<path fill="none" stroke="#63b8ff" d="M256,-164.75C256,-157.8 256,-147.85 256,-139.13"/>
<polygon fill="#63b8ff" stroke="#63b8ff" points="259.5,-139.09 256,-129.09 252.5,-139.09 259.5,-139.09"/>
</g>
<!-- Node30 -->
<g id="node30" class="node">
<title>Node30</title>
<g id="a_node30"><a xlink:title=" ">
<polygon fill="#e0e0e0" stroke="#999999" points="370.5,-129 301.5,-129 301.5,-110 370.5,-110 370.5,-129"/>
<text text-anchor="middle" x="336" y="-117" font-family="Helvetica,sans-Serif" font-size="10.00">type_traits</text>
</a>
</g>
</g>
<!-- Node27&#45;&gt;Node30 -->
<g id="edge59" class="edge">
<title>Node27&#45;&gt;Node30</title>
<path fill="none" stroke="#63b8ff" d="M268.85,-164.98C281.14,-156.84 299.91,-144.41 314.48,-134.76"/>
<polygon fill="#63b8ff" stroke="#63b8ff" points="316.51,-137.61 322.91,-129.17 312.64,-131.78 316.51,-137.61"/>
</g>
</g>
</svg>
