<?xml version="1.0" encoding="UTF-8" standalone="no"?>
<!DOCTYPE svg PUBLIC "-//W3C//DTD SVG 1.1//EN"
 "http://www.w3.org/Graphics/SVG/1.1/DTD/svg11.dtd">
<!-- Generated by graphviz version 2.43.0 (0)
 -->
<!-- Title: LatexGenerator Pages: 1 -->
<svg width="479pt" height="170pt"
 viewBox="0.00 0.00 479.00 170.00" xmlns="http://www.w3.org/2000/svg" xmlns:xlink="http://www.w3.org/1999/xlink">
<g id="graph0" class="graph" transform="scale(1 1) rotate(0) translate(4 166)">
<title>LatexGenerator</title>
<!-- Node1 -->
<g id="node1" class="node">
<title>Node1</title>
<g id="a_node1"><a xlink:title="Generator for LaTeX output.">
<polygon fill="#999999" stroke="#666666" points="316,-19 224,-19 224,0 316,0 316,-19"/>
<text text-anchor="middle" x="270" y="-7" font-family="Helvetica,sans-Serif" font-size="10.00">LatexGenerator</text>
</a>
</g>
</g>
<!-- Node2 -->
<g id="node2" class="node">
<title>Node2</title>
<g id="a_node2"><a xlink:href="../../d3/d8e/class_output_generator.html" target="_top" xlink:title="Abstract output generator.">
<polygon fill="white" stroke="#666666" points="177,-85 79,-85 79,-66 177,-66 177,-85"/>
<text text-anchor="middle" x="128" y="-73" font-family="Helvetica,sans-Serif" font-size="10.00">OutputGenerator</text>
</a>
</g>
</g>
<!-- Node2&#45;&gt;Node1 -->
<g id="edge1" class="edge">
<title>Node2&#45;&gt;Node1</title>
<path fill="none" stroke="#63b8ff" d="M156.41,-61.69C184.4,-49.08 226.38,-30.16 250.7,-19.2"/>
<polygon fill="#63b8ff" stroke="#63b8ff" points="154.83,-58.57 147.15,-65.87 157.71,-64.95 154.83,-58.57"/>
</g>
<!-- Node3 -->
<g id="node3" class="node">
<title>Node3</title>
<g id="a_node3"><a xlink:href="../../df/d27/class_base_output_doc_interface.html" target="_top" xlink:title="Base Interface used for generating output outside of the comment blocks.">
<polygon fill="white" stroke="#666666" points="136,-162 0,-162 0,-143 136,-143 136,-162"/>
<text text-anchor="middle" x="68" y="-150" font-family="Helvetica,sans-Serif" font-size="10.00">BaseOutputDocInterface</text>
</a>
</g>
</g>
<!-- Node3&#45;&gt;Node2 -->
<g id="edge2" class="edge">
<title>Node3&#45;&gt;Node2</title>
<path fill="none" stroke="#63b8ff" d="M70.47,-132.84C72.52,-123.13 76.25,-111.54 83,-103 89.07,-95.32 98.03,-89.4 106.36,-85.13"/>
<polygon fill="#63b8ff" stroke="#63b8ff" points="67.01,-132.29 68.79,-142.74 73.91,-133.46 67.01,-132.29"/>
</g>
<!-- Node4 -->
<g id="node4" class="node">
<title>Node4</title>
<g id="a_node4"><a xlink:href="../../d3/d30/class_text_stream.html" target="_top" xlink:title="Text streaming class that buffers data.">
<polygon fill="white" stroke="#666666" points="226,-162 154,-162 154,-143 226,-143 226,-162"/>
<text text-anchor="middle" x="190" y="-150" font-family="Helvetica,sans-Serif" font-size="10.00">TextStream</text>
</a>
</g>
</g>
<!-- Node4&#45;&gt;Node2 -->
<g id="edge3" class="edge">
<title>Node4&#45;&gt;Node2</title>
<path fill="none" stroke="#9a32cd" stroke-dasharray="5,2" d="M143.82,-142.03C127.04,-137.58 110.95,-131.75 106,-125 96.82,-112.47 109.16,-95.5 118.73,-85.31"/>
<polygon fill="#9a32cd" stroke="#9a32cd" points="143.16,-145.47 153.71,-144.49 144.85,-138.68 143.16,-145.47"/>
<text text-anchor="middle" x="117" y="-111.5" font-family="Helvetica,sans-Serif" font-size="10.00" fill="grey"> m_t</text>
</g>
<!-- Node6 -->
<g id="node6" class="node">
<title>Node6</title>
<g id="a_node6"><a xlink:href="../../d0/d37/class_latex_code_generator.html" target="_top" xlink:title="Generator for LaTeX code fragments.">
<polygon fill="white" stroke="#666666" points="457.5,-85 340.5,-85 340.5,-66 457.5,-66 457.5,-85"/>
<text text-anchor="middle" x="399" y="-73" font-family="Helvetica,sans-Serif" font-size="10.00">LatexCodeGenerator</text>
</a>
</g>
</g>
<!-- Node4&#45;&gt;Node6 -->
<g id="edge8" class="edge">
<title>Node4&#45;&gt;Node6</title>
<path fill="none" stroke="#9a32cd" stroke-dasharray="5,2" d="M207.85,-136.23C221.52,-125.32 241.33,-111.19 261,-103 275.64,-96.91 311,-90.17 342.26,-85.01"/>
<polygon fill="#9a32cd" stroke="#9a32cd" points="205.31,-133.78 199.81,-142.83 209.76,-139.19 205.31,-133.78"/>
<text text-anchor="middle" x="272" y="-111.5" font-family="Helvetica,sans-Serif" font-size="10.00" fill="grey"> m_t</text>
</g>
<!-- Node5 -->
<g id="node5" class="node">
<title>Node5</title>
<g id="a_node5"><a xlink:href="../../d9/d45/class_q_c_string.html" target="_top" xlink:title="This is an alternative implementation of QCString.">
<polygon fill="white" stroke="#666666" points="303.5,-162 244.5,-162 244.5,-143 303.5,-143 303.5,-162"/>
<text text-anchor="middle" x="274" y="-150" font-family="Helvetica,sans-Serif" font-size="10.00">QCString</text>
</a>
</g>
</g>
<!-- Node5&#45;&gt;Node1 -->
<g id="edge5" class="edge">
<title>Node5&#45;&gt;Node1</title>
<path fill="none" stroke="#9a32cd" stroke-dasharray="5,2" d="M273.46,-132.39C272.58,-101.49 270.89,-41.77 270.25,-19.32"/>
<polygon fill="#9a32cd" stroke="#9a32cd" points="269.97,-132.78 273.75,-142.68 276.96,-132.58 269.97,-132.78"/>
<text text-anchor="middle" x="299" y="-73" font-family="Helvetica,sans-Serif" font-size="10.00" fill="grey"> m_relPath</text>
</g>
<!-- Node5&#45;&gt;Node2 -->
<g id="edge4" class="edge">
<title>Node5&#45;&gt;Node2</title>
<path fill="none" stroke="#9a32cd" stroke-dasharray="5,2" d="M234.31,-143.12C195.12,-136.77 178.72,-146.94 151,-125 138.29,-114.94 132.23,-96.15 129.65,-85.14"/>
<polygon fill="#9a32cd" stroke="#9a32cd" points="233.72,-146.57 244.19,-144.99 235.02,-139.69 233.72,-146.57"/>
<text text-anchor="middle" x="181" y="-117" font-family="Helvetica,sans-Serif" font-size="10.00" fill="grey"> m_dir</text>
<text text-anchor="middle" x="181" y="-106" font-family="Helvetica,sans-Serif" font-size="10.00" fill="grey">m_fileName</text>
</g>
<!-- Node5&#45;&gt;Node6 -->
<g id="edge9" class="edge">
<title>Node5&#45;&gt;Node6</title>
<path fill="none" stroke="#9a32cd" stroke-dasharray="5,2" d="M281.5,-133.56C286.68,-123.22 294.53,-110.77 305,-103 316.17,-94.71 329.82,-89.02 343.23,-85.1"/>
<polygon fill="#9a32cd" stroke="#9a32cd" points="278.18,-132.4 277.21,-142.95 284.55,-135.31 278.18,-132.4"/>
<text text-anchor="middle" x="352" y="-117" font-family="Helvetica,sans-Serif" font-size="10.00" fill="grey"> m_relPath</text>
<text text-anchor="middle" x="352" y="-106" font-family="Helvetica,sans-Serif" font-size="10.00" fill="grey">m_sourceFileName</text>
</g>
<!-- Node6&#45;&gt;Node1 -->
<g id="edge6" class="edge">
<title>Node6&#45;&gt;Node1</title>
<path fill="none" stroke="#9a32cd" stroke-dasharray="5,2" d="M372.52,-61.36C347.1,-48.75 309.43,-30.06 287.53,-19.2"/>
<polygon fill="#9a32cd" stroke="#9a32cd" points="371.09,-64.56 381.6,-65.87 374.2,-58.29 371.09,-64.56"/>
<text text-anchor="middle" x="372.5" y="-40" font-family="Helvetica,sans-Serif" font-size="10.00" fill="grey"> m_codeGen</text>
</g>
<!-- Node7 -->
<g id="node7" class="node">
<title>Node7</title>
<g id="a_node7"><a xlink:href="../../d5/d9c/class_code_output_interface.html" target="_top" xlink:title="Output interface for code parser.">
<polygon fill="white" stroke="#666666" points="471,-162 353,-162 353,-143 471,-143 471,-162"/>
<text text-anchor="middle" x="412" y="-150" font-family="Helvetica,sans-Serif" font-size="10.00">CodeOutputInterface</text>
</a>
</g>
</g>
<!-- Node7&#45;&gt;Node6 -->
<g id="edge7" class="edge">
<title>Node7&#45;&gt;Node6</title>
<path fill="none" stroke="#63b8ff" d="M408.79,-132.97C406.13,-117.65 402.48,-96.59 400.47,-85"/>
<polygon fill="#63b8ff" stroke="#63b8ff" points="405.35,-133.64 410.51,-142.9 412.25,-132.45 405.35,-133.64"/>
</g>
</g>
</svg>
