<?xml version="1.0" encoding="UTF-8" standalone="no"?>
<!DOCTYPE svg PUBLIC "-//W3C//DTD SVG 1.1//EN"
 "http://www.w3.org/Graphics/SVG/1.1/DTD/svg11.dtd">
<!-- Generated by graphviz version 2.43.0 (0)
 -->
<!-- Title: InheritanceNodeContext::Private Pages: 1 -->
<!--zoomable 172 -->
<svg id="main" version="1.1" xmlns="http://www.w3.org/2000/svg" xmlns:xlink="http://www.w3.org/1999/xlink" xml:space="preserve" onload="init(evt)">
<style type="text/css"><![CDATA[
.edge:hover path { stroke: red; }
.edge:hover polygon { stroke: red; fill: red; }
]]></style>
<script type="text/javascript"><![CDATA[
var edges = document.getElementsByTagName('g');
if (edges && edges.length) {
  for (var i=0;i<edges.length;i++) {
    if (edges[i].id.substr(0,4)=='edge') {
      edges[i].setAttribute('class','edge');
    }
  }
}
]]></script>
        <defs>
                <circle id="rim" cx="0" cy="0" r="7"/>
                <circle id="rim2" cx="0" cy="0" r="3.5"/>
                <g id="zoomPlus">
                        <use xlink:href="#rim" fill="#404040">
                                <set attributeName="fill" to="#808080" begin="zoomplus.mouseover" end="zoomplus.mouseout"/>
                        </use>
                        <path d="M-4,0h8M0,-4v8" fill="none" stroke="white" stroke-width="1.5" pointer-events="none"/>
                </g>
                <g id="zoomMin">
                        <use xlink:href="#rim" fill="#404040">
                                <set attributeName="fill" to="#808080" begin="zoomminus.mouseover" end="zoomminus.mouseout"/>
                        </use>
                        <path d="M-4,0h8" fill="none" stroke="white" stroke-width="1.5" pointer-events="none"/>
                </g>
                <g id="dirArrow">
                        <path fill="none" stroke="white" stroke-width="1.5" d="M0,-3.0v7 M-2.5,-0.5L0,-3.0L2.5,-0.5"/>
                </g>
               <g id="resetDef">
                       <use xlink:href="#rim2" fill="#404040">
                               <set attributeName="fill" to="#808080" begin="reset.mouseover" end="reset.mouseout"/>
                       </use>
               </g>
        </defs>

<script type="text/javascript">
var viewWidth = 778;
var viewHeight = 172;
var sectionId = 'dynsection-0';
</script>
<script xlink:href="../../svgpan.js"/>
<svg id="graph" class="graph">
<g id="viewport">
<title>InheritanceNodeContext::Private</title>
<!-- Node1 -->
<g id="node1" class="node">
<title>Node1</title>
<g id="a_node1"><a xlink:title=" ">
<polygon fill="#999999" stroke="#666666" points="770,-90 635,-90 635,-60 770,-60 770,-90"/>
<text text-anchor="start" x="643" y="-78" font-family="Helvetica,sans-Serif" font-size="10.00">InheritanceNodeContext</text>
<text text-anchor="middle" x="702.5" y="-67" font-family="Helvetica,sans-Serif" font-size="10.00">::Private</text>
</a>
</g>
</g>
<!-- Node2 -->
<g id="node2" class="node">
<title>Node2</title>
<g id="a_node2"><a xlink:href="../../d1/dcf/class_class_def.html" target="_top" xlink:title="A abstract class representing of a compound symbol.">
<polygon fill="white" stroke="#666666" points="457.5,-163.5 397.5,-163.5 397.5,-144.5 457.5,-144.5 457.5,-163.5"/>
<text text-anchor="middle" x="427.5" y="-151.5" font-family="Helvetica,sans-Serif" font-size="10.00">ClassDef</text>
</a>
</g>
</g>
<!-- Node2&#45;&gt;Node1 -->
<g id="edge1" class="edge">
<title>Node2&#45;&gt;Node1</title>
<path fill="none" stroke="#9a32cd" stroke-dasharray="5,2" d="M467.93,-146.62C483.3,-143.57 501.03,-139.86 517,-136 561.87,-125.17 573.23,-122.64 617,-108 632.98,-102.66 650.37,-96.01 665.19,-90.09"/>
<polygon fill="#9a32cd" stroke="#9a32cd" points="466.86,-143.26 457.71,-148.61 468.2,-150.13 466.86,-143.26"/>
<text text-anchor="middle" x="576" y="-134" font-family="Helvetica,sans-Serif" font-size="10.00" fill="grey"> m_classDef</text>
</g>
<!-- Node3 -->
<g id="node3" class="node">
<title>Node3</title>
<g id="a_node3"><a xlink:href="../../d5/dcc/class_definition.html" target="_top" xlink:title="The common base class of all entity definitions found in the sources.">
<polygon fill="white" stroke="#666666" points="101.5,-163.5 37.5,-163.5 37.5,-144.5 101.5,-144.5 101.5,-163.5"/>
<text text-anchor="middle" x="69.5" y="-151.5" font-family="Helvetica,sans-Serif" font-size="10.00">Definition</text>
</a>
</g>
</g>
<!-- Node3&#45;&gt;Node2 -->
<g id="edge2" class="edge">
<title>Node3&#45;&gt;Node2</title>
<path fill="none" stroke="#63b8ff" d="M111.97,-154C184.9,-154 334.37,-154 397.42,-154"/>
<polygon fill="#63b8ff" stroke="#63b8ff" points="111.78,-150.5 101.78,-154 111.78,-157.5 111.78,-150.5"/>
</g>
<!-- Node4 -->
<g id="node4" class="node">
<title>Node4</title>
<g id="a_node4"><a xlink:href="../../d7/dc1/class_cached_item.html" target="_top" xlink:title=" ">
<polygon fill="white" stroke="#666666" points="517,-126.5 338,-126.5 338,-85.5 517,-85.5 517,-126.5"/>
<text text-anchor="start" x="346" y="-114.5" font-family="Helvetica,sans-Serif" font-size="10.00">CachedItem&lt; TemplateVariant,</text>
<text text-anchor="start" x="346" y="-103.5" font-family="Helvetica,sans-Serif" font-size="10.00"> InheritanceNodeContext</text>
<text text-anchor="middle" x="427.5" y="-92.5" font-family="Helvetica,sans-Serif" font-size="10.00">::Private, &amp;Private::createClass &gt;</text>
</a>
</g>
</g>
<!-- Node4&#45;&gt;Node1 -->
<g id="edge3" class="edge">
<title>Node4&#45;&gt;Node1</title>
<path fill="none" stroke="#9a32cd" stroke-dasharray="5,2" d="M527.13,-94.8C562.94,-90.73 602.54,-86.24 634.93,-82.56"/>
<polygon fill="#9a32cd" stroke="#9a32cd" points="526.68,-91.33 517.14,-95.94 527.47,-98.28 526.68,-91.33"/>
<text text-anchor="middle" x="576" y="-96" font-family="Helvetica,sans-Serif" font-size="10.00" fill="grey"> m_classContext</text>
</g>
<!-- Node5 -->
<g id="node5" class="node">
<title>Node5</title>
<g id="a_node5"><a xlink:href="../../d1/dba/class_template_variant.html" target="_top" xlink:title="Variant type which can hold one value of a fixed set of types.">
<polygon fill="white" stroke="#666666" points="117.5,-125.5 21.5,-125.5 21.5,-106.5 117.5,-106.5 117.5,-125.5"/>
<text text-anchor="middle" x="69.5" y="-113.5" font-family="Helvetica,sans-Serif" font-size="10.00">TemplateVariant</text>
</a>
</g>
</g>
<!-- Node5&#45;&gt;Node4 -->
<g id="edge4" class="edge">
<title>Node5&#45;&gt;Node4</title>
<path fill="none" stroke="#9a32cd" stroke-dasharray="5,2" d="M128,-114.38C184.74,-112.79 272.28,-110.33 337.91,-108.49"/>
<polygon fill="#9a32cd" stroke="#9a32cd" points="127.67,-110.89 117.77,-114.67 127.87,-117.89 127.67,-110.89"/>
<text text-anchor="middle" x="238.5" y="-116" font-family="Helvetica,sans-Serif" font-size="10.00" fill="grey"> m_item</text>
</g>
<!-- Node6 -->
<g id="node6" class="node">
<title>Node6</title>
<g id="a_node6"><a xlink:href="../../d7/dc1/class_cached_item.html" target="_top" xlink:title="Wrapper for data that needs to be cached.">
<polygon fill="white" stroke="#666666" points="139,-75 0,-75 0,-45 139,-45 139,-75"/>
<text text-anchor="start" x="8" y="-63" font-family="Helvetica,sans-Serif" font-size="10.00">CachedItem&lt; T, TOwner,</text>
<text text-anchor="middle" x="69.5" y="-52" font-family="Helvetica,sans-Serif" font-size="10.00"> creator &gt;</text>
</a>
</g>
</g>
<!-- Node6&#45;&gt;Node4 -->
<g id="edge5" class="edge">
<title>Node6&#45;&gt;Node4</title>
<path fill="none" stroke="orange" stroke-dasharray="5,2" d="M149.38,-58.56C198.76,-58.95 263.52,-61.81 320,-72 325.01,-72.9 343.83,-78.79 364.29,-85.41"/>
<polygon fill="orange" stroke="orange" points="149.1,-55.06 139.08,-58.51 149.06,-62.06 149.1,-55.06"/>
<text text-anchor="start" x="157" y="-97" font-family="Helvetica,sans-Serif" font-size="10.00" fill="grey"> &lt; TemplateVariant,</text>
<text text-anchor="start" x="157" y="-86" font-family="Helvetica,sans-Serif" font-size="10.00" fill="grey"> InheritanceNodeContext</text>
<text text-anchor="middle" x="238.5" y="-75" font-family="Helvetica,sans-Serif" font-size="10.00" fill="grey">::Private, &amp;Private::createClass &gt;</text>
</g>
<!-- Node7 -->
<g id="node7" class="node">
<title>Node7</title>
<g id="a_node7"><a xlink:href="../../d9/d45/class_q_c_string.html" target="_top" xlink:title="This is an alternative implementation of QCString.">
<polygon fill="white" stroke="#666666" points="457,-67.5 398,-67.5 398,-48.5 457,-48.5 457,-67.5"/>
<text text-anchor="middle" x="427.5" y="-55.5" font-family="Helvetica,sans-Serif" font-size="10.00">QCString</text>
</a>
</g>
</g>
<!-- Node7&#45;&gt;Node1 -->
<g id="edge6" class="edge">
<title>Node7&#45;&gt;Node1</title>
<path fill="none" stroke="#9a32cd" stroke-dasharray="5,2" d="M467.44,-58.93C505.58,-60.01 565.35,-62.16 617,-66 622.74,-66.43 628.69,-66.93 634.65,-67.48"/>
<polygon fill="#9a32cd" stroke="#9a32cd" points="467.37,-55.43 457.27,-58.65 467.18,-62.42 467.37,-55.43"/>
<text text-anchor="middle" x="576" y="-69" font-family="Helvetica,sans-Serif" font-size="10.00" fill="grey"> m_name</text>
</g>
<!-- Node8 -->
<g id="node8" class="node">
<title>Node8</title>
<g id="a_node8"><a xlink:href="../../d5/dbf/class_property_map.html" target="_top" xlink:title=" ">
<polygon fill="white" stroke="#666666" points="500,-30 355,-30 355,0 500,0 500,-30"/>
<text text-anchor="start" x="363" y="-18" font-family="Helvetica,sans-Serif" font-size="10.00">PropertyMap&lt; Inheritance</text>
<text text-anchor="middle" x="427.5" y="-7" font-family="Helvetica,sans-Serif" font-size="10.00">NodeContext::Private &gt;</text>
</a>
</g>
</g>
<!-- Node8&#45;&gt;Node1 -->
<g id="edge7" class="edge">
<title>Node8&#45;&gt;Node1</title>
<path fill="none" stroke="#9a32cd" stroke-dasharray="5,2" d="M510.4,-25.41C543.73,-30.44 582.46,-37.3 617,-46 631.89,-49.75 647.9,-54.94 661.94,-59.89"/>
<polygon fill="#9a32cd" stroke="#9a32cd" points="510.65,-21.91 500.24,-23.91 509.62,-28.84 510.65,-21.91"/>
<text text-anchor="middle" x="576" y="-49" font-family="Helvetica,sans-Serif" font-size="10.00" fill="grey"> s_inst</text>
</g>
<!-- Node9 -->
<g id="node9" class="node">
<title>Node9</title>
<g id="a_node9"><a xlink:href="../../d5/dbf/class_property_map.html" target="_top" xlink:title="Class representing a mapping of properties and the corresponding getter function.">
<polygon fill="white" stroke="#666666" points="123,-24.5 16,-24.5 16,-5.5 123,-5.5 123,-24.5"/>
<text text-anchor="middle" x="69.5" y="-12.5" font-family="Helvetica,sans-Serif" font-size="10.00">PropertyMap&lt; T &gt;</text>
</a>
</g>
</g>
<!-- Node9&#45;&gt;Node8 -->
<g id="edge8" class="edge">
<title>Node9&#45;&gt;Node8</title>
<path fill="none" stroke="orange" stroke-dasharray="5,2" d="M133.07,-15C195.1,-15 290,-15 354.98,-15"/>
<polygon fill="orange" stroke="orange" points="133.03,-11.5 123.03,-15 133.03,-18.5 133.03,-11.5"/>
<text text-anchor="start" x="172" y="-29" font-family="Helvetica,sans-Serif" font-size="10.00" fill="grey"> &lt; InheritanceNodeContext</text>
<text text-anchor="middle" x="238.5" y="-18" font-family="Helvetica,sans-Serif" font-size="10.00" fill="grey">::Private &gt;</text>
</g>
</g>
</svg>
        <g id="navigator" transform="translate(0 0)" fill="#404254">
                <rect fill="#f2f5e9" fill-opacity="0.5" stroke="#606060" stroke-width=".5" x="0" y="0" width="60" height="60"/>
                <use id="zoomplus" xlink:href="#zoomPlus" x="17" y="9" onmousedown="handleZoom(evt,'in')"/>
                <use id="zoomminus" xlink:href="#zoomMin" x="42" y="9" onmousedown="handleZoom(evt,'out')"/>
                <use id="reset" xlink:href="#resetDef" x="30" y="36" onmousedown="handleReset()"/>
                <g id="arrowUp" xlink:href="#dirArrow" transform="translate(30 24)" onmousedown="handlePan(0,-1)">
                  <use xlink:href="#rim" fill="#404040">
                        <set attributeName="fill" to="#808080" begin="arrowUp.mouseover" end="arrowUp.mouseout"/>
                  </use>
                  <path fill="none" stroke="white" stroke-width="1.5" d="M0,-3.0v7 M-2.5,-0.5L0,-3.0L2.5,-0.5"/>
                </g>
                <g id="arrowRight" xlink:href="#dirArrow" transform="rotate(90) translate(36 -43)" onmousedown="handlePan(1,0)">
                  <use xlink:href="#rim" fill="#404040">
                        <set attributeName="fill" to="#808080" begin="arrowRight.mouseover" end="arrowRight.mouseout"/>
                  </use>
                  <path fill="none" stroke="white" stroke-width="1.5" d="M0,-3.0v7 M-2.5,-0.5L0,-3.0L2.5,-0.5"/>
                </g>
                <g id="arrowDown" xlink:href="#dirArrow" transform="rotate(180) translate(-30 -48)" onmousedown="handlePan(0,1)">
                  <use xlink:href="#rim" fill="#404040">
                        <set attributeName="fill" to="#808080" begin="arrowDown.mouseover" end="arrowDown.mouseout"/>
                  </use>
                  <path fill="none" stroke="white" stroke-width="1.5" d="M0,-3.0v7 M-2.5,-0.5L0,-3.0L2.5,-0.5"/>
                </g>
                <g id="arrowLeft" xlink:href="#dirArrow" transform="rotate(270) translate(-36 17)" onmousedown="handlePan(-1,0)">
                  <use xlink:href="#rim" fill="#404040">
                        <set attributeName="fill" to="#808080" begin="arrowLeft.mouseover" end="arrowLeft.mouseout"/>
                  </use>
                  <path fill="none" stroke="white" stroke-width="1.5" d="M0,-3.0v7 M-2.5,-0.5L0,-3.0L2.5,-0.5"/>
                </g>
        </g>
        <svg viewBox="0 0 15 15" width="100%" height="30px" preserveAspectRatio="xMaxYMin meet">
         <g id="arrow_out" transform="scale(0.3 0.3)">
          <a xlink:href="class_inheritance_node_context_1_1_private__coll__graph_org.svg" target="_base">
           <rect id="button" ry="5" rx="5" y="6" x="6" height="38" width="38"
                fill="#f2f5e9" fill-opacity="0.5" stroke="#606060" stroke-width="1.0"/>
           <path id="arrow"
             d="M 11.500037,31.436501 C 11.940474,20.09759 22.043105,11.32322 32.158766,21.979434 L 37.068811,17.246167 C 37.068811,17.246167 37.088388,32 37.088388,32 L 22.160133,31.978069 C 22.160133,31.978069 26.997745,27.140456 26.997745,27.140456 C 18.528582,18.264221 13.291696,25.230495 11.500037,31.436501 z"
             style="fill:#404040;"/>
          </a>
         </g>
        </svg>
</svg>
