<?xml version="1.0" encoding="UTF-8" standalone="no"?>
<!DOCTYPE svg PUBLIC "-//W3C//DTD SVG 1.1//EN"
 "http://www.w3.org/Graphics/SVG/1.1/DTD/svg11.dtd">
<!-- Generated by graphviz version 2.43.0 (0)
 -->
<!-- Title: /home/runner/work/doxygen/doxygen/src/image.cpp Pages: 1 -->
<!--zoomable 313 -->
<svg id="main" version="1.1" xmlns="http://www.w3.org/2000/svg" xmlns:xlink="http://www.w3.org/1999/xlink" xml:space="preserve" onload="init(evt)">
<style type="text/css"><![CDATA[
.edge:hover path { stroke: red; }
.edge:hover polygon { stroke: red; fill: red; }
]]></style>
<script type="text/javascript"><![CDATA[
var edges = document.getElementsByTagName('g');
if (edges && edges.length) {
  for (var i=0;i<edges.length;i++) {
    if (edges[i].id.substr(0,4)=='edge') {
      edges[i].setAttribute('class','edge');
    }
  }
}
]]></script>
        <defs>
                <circle id="rim" cx="0" cy="0" r="7"/>
                <circle id="rim2" cx="0" cy="0" r="3.5"/>
                <g id="zoomPlus">
                        <use xlink:href="#rim" fill="#404040">
                                <set attributeName="fill" to="#808080" begin="zoomplus.mouseover" end="zoomplus.mouseout"/>
                        </use>
                        <path d="M-4,0h8M0,-4v8" fill="none" stroke="white" stroke-width="1.5" pointer-events="none"/>
                </g>
                <g id="zoomMin">
                        <use xlink:href="#rim" fill="#404040">
                                <set attributeName="fill" to="#808080" begin="zoomminus.mouseover" end="zoomminus.mouseout"/>
                        </use>
                        <path d="M-4,0h8" fill="none" stroke="white" stroke-width="1.5" pointer-events="none"/>
                </g>
                <g id="dirArrow">
                        <path fill="none" stroke="white" stroke-width="1.5" d="M0,-3.0v7 M-2.5,-0.5L0,-3.0L2.5,-0.5"/>
                </g>
               <g id="resetDef">
                       <use xlink:href="#rim2" fill="#404040">
                               <set attributeName="fill" to="#808080" begin="reset.mouseover" end="reset.mouseout"/>
                       </use>
               </g>
        </defs>

<script type="text/javascript">
var viewWidth = 510;
var viewHeight = 313;
var sectionId = 'dynsection-0';
</script>
<script xlink:href="../../svgpan.js"/>
<svg id="graph" class="graph">
<g id="viewport">
<title>/home/runner/work/doxygen/doxygen/src/image.cpp</title>
<!-- Node1 -->
<g id="node1" class="node">
<title>Node1</title>
<g id="a_node1"><a xlink:title=" ">
<polygon fill="#999999" stroke="#666666" points="364.53,-305 210.53,-305 210.53,-275 364.53,-275 364.53,-305"/>
<text text-anchor="start" x="218.53" y="-293" font-family="Helvetica,sans-Serif" font-size="10.00">/home/runner/work/doxygen</text>
<text text-anchor="middle" x="287.53" y="-282" font-family="Helvetica,sans-Serif" font-size="10.00">/doxygen/src/image.cpp</text>
</a>
</g>
</g>
<!-- Node2 -->
<g id="node2" class="node">
<title>Node2</title>
<g id="a_node2"><a xlink:title=" ">
<polygon fill="#e0e0e0" stroke="#999999" points="176.03,-239 129.03,-239 129.03,-220 176.03,-220 176.03,-239"/>
<text text-anchor="middle" x="152.53" y="-227" font-family="Helvetica,sans-Serif" font-size="10.00">vector</text>
</a>
</g>
</g>
<!-- Node1&#45;&gt;Node2 -->
<g id="edge1" class="edge">
<title>Node1&#45;&gt;Node2</title>
<path fill="none" stroke="#63b8ff" d="M255.2,-274.99C232.88,-265.31 203.43,-252.56 181.8,-243.18"/>
<polygon fill="#63b8ff" stroke="#63b8ff" points="183.04,-239.9 172.47,-239.14 180.25,-246.33 183.04,-239.9"/>
</g>
<!-- Node3 -->
<g id="node3" class="node">
<title>Node3</title>
<g id="a_node3"><a xlink:title=" ">
<polygon fill="#e0e0e0" stroke="#999999" points="241.03,-239 194.03,-239 194.03,-220 241.03,-220 241.03,-239"/>
<text text-anchor="middle" x="217.53" y="-227" font-family="Helvetica,sans-Serif" font-size="10.00">cmath</text>
</a>
</g>
</g>
<!-- Node1&#45;&gt;Node3 -->
<g id="edge2" class="edge">
<title>Node1&#45;&gt;Node3</title>
<path fill="none" stroke="#63b8ff" d="M270.59,-274.84C260.12,-266.09 246.67,-254.85 235.94,-245.88"/>
<polygon fill="#63b8ff" stroke="#63b8ff" points="237.94,-242.99 228.02,-239.27 233.45,-248.36 237.94,-242.99"/>
</g>
<!-- Node4 -->
<g id="node4" class="node">
<title>Node4</title>
<g id="a_node4"><a xlink:href="../../d5/db2/image_8h.html" target="_top" xlink:title=" ">
<polygon fill="white" stroke="#666666" points="315.53,-239 259.53,-239 259.53,-220 315.53,-220 315.53,-239"/>
<text text-anchor="middle" x="287.53" y="-227" font-family="Helvetica,sans-Serif" font-size="10.00">image.h</text>
</a>
</g>
</g>
<!-- Node1&#45;&gt;Node4 -->
<g id="edge3" class="edge">
<title>Node1&#45;&gt;Node4</title>
<path fill="none" stroke="#63b8ff" d="M287.53,-274.84C287.53,-267.21 287.53,-257.7 287.53,-249.45"/>
<polygon fill="#63b8ff" stroke="#63b8ff" points="291.03,-249.27 287.53,-239.27 284.03,-249.27 291.03,-249.27"/>
</g>
<!-- Node17 -->
<g id="node17" class="node">
<title>Node17</title>
<g id="a_node17"><a xlink:title=" ">
<polygon fill="#e0e0e0" stroke="#999999" points="399.03,-239 334.03,-239 334.03,-220 399.03,-220 399.03,-239"/>
<text text-anchor="middle" x="366.53" y="-227" font-family="Helvetica,sans-Serif" font-size="10.00">lodepng.h</text>
</a>
</g>
</g>
<!-- Node1&#45;&gt;Node17 -->
<g id="edge19" class="edge">
<title>Node1&#45;&gt;Node17</title>
<path fill="none" stroke="#63b8ff" d="M306.66,-274.84C318.71,-265.91 334.25,-254.41 346.48,-245.35"/>
<polygon fill="#63b8ff" stroke="#63b8ff" points="348.74,-248.03 354.7,-239.27 344.58,-242.4 348.74,-248.03"/>
</g>
<!-- Node18 -->
<g id="node18" class="node">
<title>Node18</title>
<g id="a_node18"><a xlink:href="../../db/d16/config_8h.html" target="_top" xlink:title=" ">
<polygon fill="white" stroke="#666666" points="472.03,-239 417.03,-239 417.03,-220 472.03,-220 472.03,-239"/>
<text text-anchor="middle" x="444.53" y="-227" font-family="Helvetica,sans-Serif" font-size="10.00">config.h</text>
</a>
</g>
</g>
<!-- Node1&#45;&gt;Node18 -->
<g id="edge20" class="edge">
<title>Node1&#45;&gt;Node18</title>
<path fill="none" stroke="#63b8ff" d="M325.14,-274.99C351.57,-265.14 386.58,-252.1 411.84,-242.68"/>
<polygon fill="#63b8ff" stroke="#63b8ff" points="413.2,-245.91 421.35,-239.14 410.76,-239.35 413.2,-245.91"/>
</g>
<!-- Node5 -->
<g id="node5" class="node">
<title>Node5</title>
<g id="a_node5"><a xlink:title=" ">
<polygon fill="#e0e0e0" stroke="#999999" points="373.53,-184 315.53,-184 315.53,-165 373.53,-165 373.53,-184"/>
<text text-anchor="middle" x="344.53" y="-172" font-family="Helvetica,sans-Serif" font-size="10.00">memory</text>
</a>
</g>
</g>
<!-- Node4&#45;&gt;Node5 -->
<g id="edge4" class="edge">
<title>Node4&#45;&gt;Node5</title>
<path fill="none" stroke="#63b8ff" d="M296.69,-219.98C305.04,-212.23 317.57,-200.58 327.71,-191.14"/>
<polygon fill="#63b8ff" stroke="#63b8ff" points="330.27,-193.54 335.21,-184.17 325.5,-188.42 330.27,-193.54"/>
</g>
<!-- Node6 -->
<g id="node6" class="node">
<title>Node6</title>
<g id="a_node6"><a xlink:href="../../d9/d49/types_8h.html" target="_top" xlink:title="This file contains a number of basic enums and types.">
<polygon fill="white" stroke="#666666" points="259.03,-184 206.03,-184 206.03,-165 259.03,-165 259.03,-184"/>
<text text-anchor="middle" x="232.53" y="-172" font-family="Helvetica,sans-Serif" font-size="10.00">types.h</text>
</a>
</g>
</g>
<!-- Node4&#45;&gt;Node6 -->
<g id="edge5" class="edge">
<title>Node4&#45;&gt;Node6</title>
<path fill="none" stroke="#63b8ff" d="M278.45,-219.75C270.44,-212.03 258.58,-200.6 248.91,-191.28"/>
<polygon fill="#63b8ff" stroke="#63b8ff" points="251.08,-188.51 241.45,-184.09 246.22,-193.55 251.08,-188.51"/>
</g>
<!-- Node7 -->
<g id="node7" class="node">
<title>Node7</title>
<g id="a_node7"><a xlink:href="../../d7/d5c/qcstring_8h.html" target="_top" xlink:title=" ">
<polygon fill="white" stroke="#666666" points="292.03,-129 227.03,-129 227.03,-110 292.03,-110 292.03,-129"/>
<text text-anchor="middle" x="259.53" y="-117" font-family="Helvetica,sans-Serif" font-size="10.00">qcstring.h</text>
</a>
</g>
</g>
<!-- Node4&#45;&gt;Node7 -->
<g id="edge18" class="edge">
<title>Node4&#45;&gt;Node7</title>
<path fill="none" stroke="#63b8ff" d="M285.24,-219.66C280.69,-202.09 270.41,-162.45 264.32,-138.95"/>
<polygon fill="#63b8ff" stroke="#63b8ff" points="267.68,-137.96 261.78,-129.16 260.9,-139.72 267.68,-137.96"/>
</g>
<!-- Node6&#45;&gt;Node7 -->
<g id="edge6" class="edge">
<title>Node6&#45;&gt;Node7</title>
<path fill="none" stroke="#63b8ff" d="M236.99,-164.75C240.65,-157.57 245.94,-147.18 250.48,-138.27"/>
<polygon fill="#63b8ff" stroke="#63b8ff" points="253.74,-139.59 255.16,-129.09 247.5,-136.41 253.74,-139.59"/>
</g>
<!-- Node8 -->
<g id="node8" class="node">
<title>Node8</title>
<g id="a_node8"><a xlink:title=" ">
<polygon fill="#e0e0e0" stroke="#999999" points="243.53,-19 199.53,-19 199.53,0 243.53,0 243.53,-19"/>
<text text-anchor="middle" x="221.53" y="-7" font-family="Helvetica,sans-Serif" font-size="10.00">string</text>
</a>
</g>
</g>
<!-- Node7&#45;&gt;Node8 -->
<g id="edge7" class="edge">
<title>Node7&#45;&gt;Node8</title>
<path fill="none" stroke="#63b8ff" d="M227,-117.68C165.74,-115.39 36.92,-106.7 9.53,-74 -39.98,-14.89 118.44,-9.43 189.2,-9.83"/>
<polygon fill="#63b8ff" stroke="#63b8ff" points="189.32,-13.34 199.36,-9.94 189.39,-6.34 189.32,-13.34"/>
</g>
<!-- Node9 -->
<g id="node9" class="node">
<title>Node9</title>
<g id="a_node9"><a xlink:title=" ">
<polygon fill="#e0e0e0" stroke="#999999" points="82.53,-74 18.53,-74 18.53,-55 82.53,-55 82.53,-74"/>
<text text-anchor="middle" x="50.53" y="-62" font-family="Helvetica,sans-Serif" font-size="10.00">algorithm</text>
</a>
</g>
</g>
<!-- Node7&#45;&gt;Node9 -->
<g id="edge8" class="edge">
<title>Node7&#45;&gt;Node9</title>
<path fill="none" stroke="#63b8ff" d="M226.88,-110.22C190.65,-101.03 132.1,-86.18 92.5,-76.14"/>
<polygon fill="#63b8ff" stroke="#63b8ff" points="93.17,-72.7 82.62,-73.64 91.45,-79.49 93.17,-72.7"/>
</g>
<!-- Node10 -->
<g id="node10" class="node">
<title>Node10</title>
<g id="a_node10"><a xlink:title=" ">
<polygon fill="#e0e0e0" stroke="#999999" points="150.03,-74 101.03,-74 101.03,-55 150.03,-55 150.03,-74"/>
<text text-anchor="middle" x="125.53" y="-62" font-family="Helvetica,sans-Serif" font-size="10.00">cctype</text>
</a>
</g>
</g>
<!-- Node7&#45;&gt;Node10 -->
<g id="edge9" class="edge">
<title>Node7&#45;&gt;Node10</title>
<path fill="none" stroke="#63b8ff" d="M238,-109.98C216.06,-101.3 181.79,-87.75 156.85,-77.88"/>
<polygon fill="#63b8ff" stroke="#63b8ff" points="158.04,-74.59 147.45,-74.17 155.47,-81.1 158.04,-74.59"/>
</g>
<!-- Node11 -->
<g id="node11" class="node">
<title>Node11</title>
<g id="a_node11"><a xlink:title=" ">
<polygon fill="#e0e0e0" stroke="#999999" points="218.53,-74 168.53,-74 168.53,-55 218.53,-55 218.53,-74"/>
<text text-anchor="middle" x="193.53" y="-62" font-family="Helvetica,sans-Serif" font-size="10.00">cstring</text>
</a>
</g>
</g>
<!-- Node7&#45;&gt;Node11 -->
<g id="edge10" class="edge">
<title>Node7&#45;&gt;Node11</title>
<path fill="none" stroke="#63b8ff" d="M248.93,-109.98C239.08,-102.07 224.18,-90.11 212.32,-80.58"/>
<polygon fill="#63b8ff" stroke="#63b8ff" points="214.32,-77.7 204.33,-74.17 209.94,-83.16 214.32,-77.7"/>
</g>
<!-- Node12 -->
<g id="node12" class="node">
<title>Node12</title>
<g id="a_node12"><a xlink:title=" ">
<polygon fill="#e0e0e0" stroke="#999999" points="282.53,-74 236.53,-74 236.53,-55 282.53,-55 282.53,-74"/>
<text text-anchor="middle" x="259.53" y="-62" font-family="Helvetica,sans-Serif" font-size="10.00">cstdio</text>
</a>
</g>
</g>
<!-- Node7&#45;&gt;Node12 -->
<g id="edge11" class="edge">
<title>Node7&#45;&gt;Node12</title>
<path fill="none" stroke="#63b8ff" d="M259.53,-109.75C259.53,-102.8 259.53,-92.85 259.53,-84.13"/>
<polygon fill="#63b8ff" stroke="#63b8ff" points="263.03,-84.09 259.53,-74.09 256.03,-84.09 263.03,-84.09"/>
</g>
<!-- Node13 -->
<g id="node13" class="node">
<title>Node13</title>
<g id="a_node13"><a xlink:title=" ">
<polygon fill="#e0e0e0" stroke="#999999" points="350.03,-74 301.03,-74 301.03,-55 350.03,-55 350.03,-74"/>
<text text-anchor="middle" x="325.53" y="-62" font-family="Helvetica,sans-Serif" font-size="10.00">cstdlib</text>
</a>
</g>
</g>
<!-- Node7&#45;&gt;Node13 -->
<g id="edge12" class="edge">
<title>Node7&#45;&gt;Node13</title>
<path fill="none" stroke="#63b8ff" d="M270.14,-109.98C279.99,-102.07 294.88,-90.11 306.75,-80.58"/>
<polygon fill="#63b8ff" stroke="#63b8ff" points="309.13,-83.16 314.74,-74.17 304.75,-77.7 309.13,-83.16"/>
</g>
<!-- Node14 -->
<g id="node14" class="node">
<title>Node14</title>
<g id="a_node14"><a xlink:title=" ">
<polygon fill="#e0e0e0" stroke="#999999" points="478.53,-19 428.53,-19 428.53,0 478.53,0 478.53,-19"/>
<text text-anchor="middle" x="453.53" y="-7" font-family="Helvetica,sans-Serif" font-size="10.00">cstdint</text>
</a>
</g>
</g>
<!-- Node7&#45;&gt;Node14 -->
<g id="edge13" class="edge">
<title>Node7&#45;&gt;Node14</title>
<path fill="none" stroke="#63b8ff" d="M292.35,-117.35C351.4,-114.5 471.82,-104.97 497.53,-74 510.67,-58.18 492.3,-38.54 475.44,-25.33"/>
<polygon fill="#63b8ff" stroke="#63b8ff" points="477.07,-22.18 466.94,-19.06 472.91,-27.81 477.07,-22.18"/>
</g>
<!-- Node15 -->
<g id="node15" class="node">
<title>Node15</title>
<g id="a_node15"><a xlink:title=" ">
<polygon fill="#e0e0e0" stroke="#999999" points="488.03,-74 431.03,-74 431.03,-55 488.03,-55 488.03,-74"/>
<text text-anchor="middle" x="459.53" y="-62" font-family="Helvetica,sans-Serif" font-size="10.00">ostream</text>
</a>
</g>
</g>
<!-- Node7&#45;&gt;Node15 -->
<g id="edge14" class="edge">
<title>Node7&#45;&gt;Node15</title>
<path fill="none" stroke="#63b8ff" d="M291.67,-109.98C326.79,-100.68 383.07,-85.76 420.65,-75.8"/>
<polygon fill="#63b8ff" stroke="#63b8ff" points="421.96,-79.08 430.73,-73.13 420.16,-72.31 421.96,-79.08"/>
</g>
<!-- Node16 -->
<g id="node16" class="node">
<title>Node16</title>
<g id="a_node16"><a xlink:href="../../db/d7c/utf8_8h.html" target="_top" xlink:title="Various UTF8 related helper functions.">
<polygon fill="white" stroke="#666666" points="413.03,-74 368.03,-74 368.03,-55 413.03,-55 413.03,-74"/>
<text text-anchor="middle" x="390.53" y="-62" font-family="Helvetica,sans-Serif" font-size="10.00">utf8.h</text>
</a>
</g>
</g>
<!-- Node7&#45;&gt;Node16 -->
<g id="edge15" class="edge">
<title>Node7&#45;&gt;Node16</title>
<path fill="none" stroke="#63b8ff" d="M280.58,-109.98C301.94,-101.34 335.24,-87.87 359.6,-78.02"/>
<polygon fill="#63b8ff" stroke="#63b8ff" points="361.15,-81.17 369.1,-74.17 358.52,-74.68 361.15,-81.17"/>
</g>
<!-- Node16&#45;&gt;Node8 -->
<g id="edge17" class="edge">
<title>Node16&#45;&gt;Node8</title>
<path fill="none" stroke="#63b8ff" d="M367.74,-56.35C338.27,-47.11 286.76,-30.96 253.42,-20.5"/>
<polygon fill="#63b8ff" stroke="#63b8ff" points="254.29,-17.1 243.7,-17.45 252.19,-23.78 254.29,-17.1"/>
</g>
<!-- Node16&#45;&gt;Node14 -->
<g id="edge16" class="edge">
<title>Node16&#45;&gt;Node14</title>
<path fill="none" stroke="#63b8ff" d="M400.66,-54.98C409.97,-47.15 424,-35.34 435.27,-25.86"/>
<polygon fill="#63b8ff" stroke="#63b8ff" points="437.83,-28.29 443.23,-19.17 433.32,-22.93 437.83,-28.29"/>
</g>
<!-- Node19 -->
<g id="node19" class="node">
<title>Node19</title>
<g id="a_node19"><a xlink:title=" ">
<polygon fill="#e0e0e0" stroke="#999999" points="488.03,-184 401.03,-184 401.03,-165 488.03,-165 488.03,-184"/>
<text text-anchor="middle" x="444.53" y="-172" font-family="Helvetica,sans-Serif" font-size="10.00">configvalues.h</text>
</a>
</g>
</g>
<!-- Node18&#45;&gt;Node19 -->
<g id="edge21" class="edge">
<title>Node18&#45;&gt;Node19</title>
<path fill="none" stroke="#63b8ff" d="M444.53,-219.75C444.53,-212.8 444.53,-202.85 444.53,-194.13"/>
<polygon fill="#63b8ff" stroke="#63b8ff" points="448.03,-194.09 444.53,-184.09 441.03,-194.09 448.03,-194.09"/>
</g>
</g>
</svg>
        <g id="navigator" transform="translate(0 0)" fill="#404254">
                <rect fill="#f2f5e9" fill-opacity="0.5" stroke="#606060" stroke-width=".5" x="0" y="0" width="60" height="60"/>
                <use id="zoomplus" xlink:href="#zoomPlus" x="17" y="9" onmousedown="handleZoom(evt,'in')"/>
                <use id="zoomminus" xlink:href="#zoomMin" x="42" y="9" onmousedown="handleZoom(evt,'out')"/>
                <use id="reset" xlink:href="#resetDef" x="30" y="36" onmousedown="handleReset()"/>
                <g id="arrowUp" xlink:href="#dirArrow" transform="translate(30 24)" onmousedown="handlePan(0,-1)">
                  <use xlink:href="#rim" fill="#404040">
                        <set attributeName="fill" to="#808080" begin="arrowUp.mouseover" end="arrowUp.mouseout"/>
                  </use>
                  <path fill="none" stroke="white" stroke-width="1.5" d="M0,-3.0v7 M-2.5,-0.5L0,-3.0L2.5,-0.5"/>
                </g>
                <g id="arrowRight" xlink:href="#dirArrow" transform="rotate(90) translate(36 -43)" onmousedown="handlePan(1,0)">
                  <use xlink:href="#rim" fill="#404040">
                        <set attributeName="fill" to="#808080" begin="arrowRight.mouseover" end="arrowRight.mouseout"/>
                  </use>
                  <path fill="none" stroke="white" stroke-width="1.5" d="M0,-3.0v7 M-2.5,-0.5L0,-3.0L2.5,-0.5"/>
                </g>
                <g id="arrowDown" xlink:href="#dirArrow" transform="rotate(180) translate(-30 -48)" onmousedown="handlePan(0,1)">
                  <use xlink:href="#rim" fill="#404040">
                        <set attributeName="fill" to="#808080" begin="arrowDown.mouseover" end="arrowDown.mouseout"/>
                  </use>
                  <path fill="none" stroke="white" stroke-width="1.5" d="M0,-3.0v7 M-2.5,-0.5L0,-3.0L2.5,-0.5"/>
                </g>
                <g id="arrowLeft" xlink:href="#dirArrow" transform="rotate(270) translate(-36 17)" onmousedown="handlePan(-1,0)">
                  <use xlink:href="#rim" fill="#404040">
                        <set attributeName="fill" to="#808080" begin="arrowLeft.mouseover" end="arrowLeft.mouseout"/>
                  </use>
                  <path fill="none" stroke="white" stroke-width="1.5" d="M0,-3.0v7 M-2.5,-0.5L0,-3.0L2.5,-0.5"/>
                </g>
        </g>
        <svg viewBox="0 0 15 15" width="100%" height="30px" preserveAspectRatio="xMaxYMin meet">
         <g id="arrow_out" transform="scale(0.3 0.3)">
          <a xlink:href="image_8cpp__incl_org.svg" target="_base">
           <rect id="button" ry="5" rx="5" y="6" x="6" height="38" width="38"
                fill="#f2f5e9" fill-opacity="0.5" stroke="#606060" stroke-width="1.0"/>
           <path id="arrow"
             d="M 11.500037,31.436501 C 11.940474,20.09759 22.043105,11.32322 32.158766,21.979434 L 37.068811,17.246167 C 37.068811,17.246167 37.088388,32 37.088388,32 L 22.160133,31.978069 C 22.160133,31.978069 26.997745,27.140456 26.997745,27.140456 C 18.528582,18.264221 13.291696,25.230495 11.500037,31.436501 z"
             style="fill:#404040;"/>
          </a>
         </g>
        </svg>
</svg>
