<?xml version="1.0" encoding="UTF-8" standalone="no"?>
<!DOCTYPE svg PUBLIC "-//W3C//DTD SVG 1.1//EN"
 "http://www.w3.org/Graphics/SVG/1.1/DTD/svg11.dtd">
<!-- Generated by graphviz version 2.43.0 (0)
 -->
<!-- Title: /home/runner/work/doxygen/doxygen/src/rtfstyle.cpp Pages: 1 -->
<!--zoomable 258 -->
<svg id="main" version="1.1" xmlns="http://www.w3.org/2000/svg" xmlns:xlink="http://www.w3.org/1999/xlink" xml:space="preserve" onload="init(evt)">
<style type="text/css"><![CDATA[
.edge:hover path { stroke: red; }
.edge:hover polygon { stroke: red; fill: red; }
]]></style>
<script type="text/javascript"><![CDATA[
var edges = document.getElementsByTagName('g');
if (edges && edges.length) {
  for (var i=0;i<edges.length;i++) {
    if (edges[i].id.substr(0,4)=='edge') {
      edges[i].setAttribute('class','edge');
    }
  }
}
]]></script>
        <defs>
                <circle id="rim" cx="0" cy="0" r="7"/>
                <circle id="rim2" cx="0" cy="0" r="3.5"/>
                <g id="zoomPlus">
                        <use xlink:href="#rim" fill="#404040">
                                <set attributeName="fill" to="#808080" begin="zoomplus.mouseover" end="zoomplus.mouseout"/>
                        </use>
                        <path d="M-4,0h8M0,-4v8" fill="none" stroke="white" stroke-width="1.5" pointer-events="none"/>
                </g>
                <g id="zoomMin">
                        <use xlink:href="#rim" fill="#404040">
                                <set attributeName="fill" to="#808080" begin="zoomminus.mouseover" end="zoomminus.mouseout"/>
                        </use>
                        <path d="M-4,0h8" fill="none" stroke="white" stroke-width="1.5" pointer-events="none"/>
                </g>
                <g id="dirArrow">
                        <path fill="none" stroke="white" stroke-width="1.5" d="M0,-3.0v7 M-2.5,-0.5L0,-3.0L2.5,-0.5"/>
                </g>
               <g id="resetDef">
                       <use xlink:href="#rim2" fill="#404040">
                               <set attributeName="fill" to="#808080" begin="reset.mouseover" end="reset.mouseout"/>
                       </use>
               </g>
        </defs>

<script type="text/javascript">
var viewWidth = 860;
var viewHeight = 258;
var sectionId = 'dynsection-0';
</script>
<script xlink:href="../../svgpan.js"/>
<svg id="graph" class="graph">
<g id="viewport">
<title>/home/runner/work/doxygen/doxygen/src/rtfstyle.cpp</title>
<!-- Node1 -->
<g id="node1" class="node">
<title>Node1</title>
<g id="a_node1"><a xlink:title=" ">
<polygon fill="#999999" stroke="#666666" points="668.04,-250 514.04,-250 514.04,-220 668.04,-220 668.04,-250"/>
<text text-anchor="start" x="522.04" y="-238" font-family="Helvetica,sans-Serif" font-size="10.00">/home/runner/work/doxygen</text>
<text text-anchor="middle" x="591.04" y="-227" font-family="Helvetica,sans-Serif" font-size="10.00">/doxygen/src/rtfstyle.cpp</text>
</a>
</g>
</g>
<!-- Node2 -->
<g id="node2" class="node">
<title>Node2</title>
<g id="a_node2"><a xlink:title=" ">
<polygon fill="#e0e0e0" stroke="#999999" points="575.04,-19 531.04,-19 531.04,0 575.04,0 575.04,-19"/>
<text text-anchor="middle" x="553.04" y="-7" font-family="Helvetica,sans-Serif" font-size="10.00">string</text>
</a>
</g>
</g>
<!-- Node1&#45;&gt;Node2 -->
<g id="edge1" class="edge">
<title>Node1&#45;&gt;Node2</title>
<path fill="none" stroke="#63b8ff" d="M588.85,-219.85C585.26,-196.81 577.85,-149.76 571.04,-110 566.19,-81.66 560.18,-48.86 556.48,-28.9"/>
<polygon fill="#63b8ff" stroke="#63b8ff" points="559.91,-28.2 554.64,-19.01 553.03,-29.48 559.91,-28.2"/>
</g>
<!-- Node3 -->
<g id="node3" class="node">
<title>Node3</title>
<g id="a_node3"><a xlink:title=" ">
<polygon fill="#e0e0e0" stroke="#999999" points="765.54,-184 710.54,-184 710.54,-165 765.54,-165 765.54,-184"/>
<text text-anchor="middle" x="738.04" y="-172" font-family="Helvetica,sans-Serif" font-size="10.00">fstream</text>
</a>
</g>
</g>
<!-- Node1&#45;&gt;Node3 -->
<g id="edge2" class="edge">
<title>Node1&#45;&gt;Node3</title>
<path fill="none" stroke="#63b8ff" d="M626.25,-219.99C650.78,-210.23 683.2,-197.33 706.8,-187.93"/>
<polygon fill="#63b8ff" stroke="#63b8ff" points="708.34,-191.09 716.33,-184.14 705.75,-184.58 708.34,-191.09"/>
</g>
<!-- Node4 -->
<g id="node4" class="node">
<title>Node4</title>
<g id="a_node4"><a xlink:href="../../d4/df3/rtfstyle_8h.html" target="_top" xlink:title=" ">
<polygon fill="white" stroke="#666666" points="449.54,-184 388.54,-184 388.54,-165 449.54,-165 449.54,-184"/>
<text text-anchor="middle" x="419.04" y="-172" font-family="Helvetica,sans-Serif" font-size="10.00">rtfstyle.h</text>
</a>
</g>
</g>
<!-- Node1&#45;&gt;Node4 -->
<g id="edge3" class="edge">
<title>Node1&#45;&gt;Node4</title>
<path fill="none" stroke="#63b8ff" d="M549.84,-219.99C520.55,-210.02 481.62,-196.78 453.87,-187.35"/>
<polygon fill="#63b8ff" stroke="#63b8ff" points="454.79,-183.96 444.19,-184.05 452.53,-190.59 454.79,-183.96"/>
</g>
<!-- Node15 -->
<g id="node15" class="node">
<title>Node15</title>
<g id="a_node15"><a xlink:href="../../d2/d0d/message_8h.html" target="_top" xlink:title=" ">
<polygon fill="white" stroke="#666666" points="563.04,-184 493.04,-184 493.04,-165 563.04,-165 563.04,-184"/>
<text text-anchor="middle" x="528.04" y="-172" font-family="Helvetica,sans-Serif" font-size="10.00">message.h</text>
</a>
</g>
</g>
<!-- Node1&#45;&gt;Node15 -->
<g id="edge18" class="edge">
<title>Node1&#45;&gt;Node15</title>
<path fill="none" stroke="#63b8ff" d="M575.79,-219.84C566.46,-211.17 554.51,-200.08 544.9,-191.15"/>
<polygon fill="#63b8ff" stroke="#63b8ff" points="547.19,-188.51 537.48,-184.27 542.43,-193.64 547.19,-188.51"/>
</g>
<!-- Node17 -->
<g id="node17" class="node">
<title>Node17</title>
<g id="a_node17"><a xlink:href="../../d1/d21/regex_8h.html" target="_top" xlink:title=" ">
<polygon fill="white" stroke="#666666" points="692.54,-184 639.54,-184 639.54,-165 692.54,-165 692.54,-184"/>
<text text-anchor="middle" x="666.04" y="-172" font-family="Helvetica,sans-Serif" font-size="10.00">regex.h</text>
</a>
</g>
</g>
<!-- Node1&#45;&gt;Node17 -->
<g id="edge21" class="edge">
<title>Node1&#45;&gt;Node17</title>
<path fill="none" stroke="#63b8ff" d="M609.2,-219.84C620.53,-211 635.11,-199.63 646.66,-190.62"/>
<polygon fill="#63b8ff" stroke="#63b8ff" points="649.07,-193.18 654.8,-184.27 644.77,-187.66 649.07,-193.18"/>
</g>
<!-- Node4&#45;&gt;Node2 -->
<g id="edge5" class="edge">
<title>Node4&#45;&gt;Node2</title>
<path fill="none" stroke="#63b8ff" d="M430.69,-164.78C456.96,-144.91 519.63,-96.28 534.04,-74 542.83,-60.41 547.7,-42.59 550.3,-29.29"/>
<polygon fill="#63b8ff" stroke="#63b8ff" points="553.76,-29.81 551.99,-19.37 546.86,-28.64 553.76,-29.81"/>
</g>
<!-- Node5 -->
<g id="node5" class="node">
<title>Node5</title>
<g id="a_node5"><a xlink:title=" ">
<polygon fill="#e0e0e0" stroke="#999999" points="311.04,-129 273.04,-129 273.04,-110 311.04,-110 311.04,-129"/>
<text text-anchor="middle" x="292.04" y="-117" font-family="Helvetica,sans-Serif" font-size="10.00">map</text>
</a>
</g>
</g>
<!-- Node4&#45;&gt;Node5 -->
<g id="edge4" class="edge">
<title>Node4&#45;&gt;Node5</title>
<path fill="none" stroke="#63b8ff" d="M398.64,-164.98C377.53,-156.18 344.4,-142.35 320.68,-132.45"/>
<polygon fill="#63b8ff" stroke="#63b8ff" points="321.73,-129.1 311.15,-128.47 319.03,-135.56 321.73,-129.1"/>
</g>
<!-- Node6 -->
<g id="node6" class="node">
<title>Node6</title>
<g id="a_node6"><a xlink:href="../../d7/d5c/qcstring_8h.html" target="_top" xlink:title=" ">
<polygon fill="white" stroke="#666666" points="394.54,-129 329.54,-129 329.54,-110 394.54,-110 394.54,-129"/>
<text text-anchor="middle" x="362.04" y="-117" font-family="Helvetica,sans-Serif" font-size="10.00">qcstring.h</text>
</a>
</g>
</g>
<!-- Node4&#45;&gt;Node6 -->
<g id="edge6" class="edge">
<title>Node4&#45;&gt;Node6</title>
<path fill="none" stroke="#63b8ff" d="M409.88,-164.98C401.54,-157.23 389.01,-145.58 378.87,-136.14"/>
<polygon fill="#63b8ff" stroke="#63b8ff" points="381.07,-133.42 371.37,-129.17 376.31,-138.54 381.07,-133.42"/>
</g>
<!-- Node6&#45;&gt;Node2 -->
<g id="edge7" class="edge">
<title>Node6&#45;&gt;Node2</title>
<path fill="none" stroke="#63b8ff" d="M375.31,-109.95C394.9,-97.44 432.82,-73.61 466.04,-55 485.9,-43.88 508.84,-32.19 526.17,-23.59"/>
<polygon fill="#63b8ff" stroke="#63b8ff" points="527.75,-26.71 535.17,-19.15 524.66,-20.43 527.75,-26.71"/>
</g>
<!-- Node7 -->
<g id="node7" class="node">
<title>Node7</title>
<g id="a_node7"><a xlink:title=" ">
<polygon fill="#e0e0e0" stroke="#999999" points="288.04,-74 224.04,-74 224.04,-55 288.04,-55 288.04,-74"/>
<text text-anchor="middle" x="256.04" y="-62" font-family="Helvetica,sans-Serif" font-size="10.00">algorithm</text>
</a>
</g>
</g>
<!-- Node6&#45;&gt;Node7 -->
<g id="edge8" class="edge">
<title>Node6&#45;&gt;Node7</title>
<path fill="none" stroke="#63b8ff" d="M345.01,-109.98C328.11,-101.54 301.98,-88.47 282.4,-78.68"/>
<polygon fill="#63b8ff" stroke="#63b8ff" points="283.89,-75.51 273.38,-74.17 280.76,-81.77 283.89,-75.51"/>
</g>
<!-- Node8 -->
<g id="node8" class="node">
<title>Node8</title>
<g id="a_node8"><a xlink:title=" ">
<polygon fill="#e0e0e0" stroke="#999999" points="418.54,-74 369.54,-74 369.54,-55 418.54,-55 418.54,-74"/>
<text text-anchor="middle" x="394.04" y="-62" font-family="Helvetica,sans-Serif" font-size="10.00">cctype</text>
</a>
</g>
</g>
<!-- Node6&#45;&gt;Node8 -->
<g id="edge9" class="edge">
<title>Node6&#45;&gt;Node8</title>
<path fill="none" stroke="#63b8ff" d="M367.33,-109.75C371.75,-102.42 378.21,-91.73 383.66,-82.7"/>
<polygon fill="#63b8ff" stroke="#63b8ff" points="386.68,-84.46 388.86,-74.09 380.69,-80.84 386.68,-84.46"/>
</g>
<!-- Node9 -->
<g id="node9" class="node">
<title>Node9</title>
<g id="a_node9"><a xlink:title=" ">
<polygon fill="#e0e0e0" stroke="#999999" points="525.04,-74 475.04,-74 475.04,-55 525.04,-55 525.04,-74"/>
<text text-anchor="middle" x="500.04" y="-62" font-family="Helvetica,sans-Serif" font-size="10.00">cstring</text>
</a>
</g>
</g>
<!-- Node6&#45;&gt;Node9 -->
<g id="edge10" class="edge">
<title>Node6&#45;&gt;Node9</title>
<path fill="none" stroke="#63b8ff" d="M384.21,-109.98C406.81,-101.3 442.1,-87.75 467.8,-77.88"/>
<polygon fill="#63b8ff" stroke="#63b8ff" points="469.39,-81.02 477.47,-74.17 466.88,-74.49 469.39,-81.02"/>
</g>
<!-- Node10 -->
<g id="node10" class="node">
<title>Node10</title>
<g id="a_node10"><a xlink:title=" ">
<polygon fill="#e0e0e0" stroke="#999999" points="63.04,-74 17.04,-74 17.04,-55 63.04,-55 63.04,-74"/>
<text text-anchor="middle" x="40.04" y="-62" font-family="Helvetica,sans-Serif" font-size="10.00">cstdio</text>
</a>
</g>
</g>
<!-- Node6&#45;&gt;Node10 -->
<g id="edge11" class="edge">
<title>Node6&#45;&gt;Node10</title>
<path fill="none" stroke="#63b8ff" d="M329.52,-111.73C326.32,-111.12 323.12,-110.53 320.04,-110 213.52,-91.5 182.93,-96.04 73.51,-74.09"/>
<polygon fill="#63b8ff" stroke="#63b8ff" points="73.88,-70.6 63.39,-72.03 72.49,-77.46 73.88,-70.6"/>
</g>
<!-- Node11 -->
<g id="node11" class="node">
<title>Node11</title>
<g id="a_node11"><a xlink:title=" ">
<polygon fill="#e0e0e0" stroke="#999999" points="130.54,-74 81.54,-74 81.54,-55 130.54,-55 130.54,-74"/>
<text text-anchor="middle" x="106.04" y="-62" font-family="Helvetica,sans-Serif" font-size="10.00">cstdlib</text>
</a>
</g>
</g>
<!-- Node6&#45;&gt;Node11 -->
<g id="edge12" class="edge">
<title>Node6&#45;&gt;Node11</title>
<path fill="none" stroke="#63b8ff" d="M329.49,-111.9C326.29,-111.26 323.11,-110.61 320.04,-110 242.77,-94.5 220.71,-92.39 140.9,-74.34"/>
<polygon fill="#63b8ff" stroke="#63b8ff" points="141.4,-70.86 130.87,-72.05 139.85,-77.69 141.4,-70.86"/>
</g>
<!-- Node12 -->
<g id="node12" class="node">
<title>Node12</title>
<g id="a_node12"><a xlink:title=" ">
<polygon fill="#e0e0e0" stroke="#999999" points="184.04,-19 134.04,-19 134.04,0 184.04,0 184.04,-19"/>
<text text-anchor="middle" x="159.04" y="-7" font-family="Helvetica,sans-Serif" font-size="10.00">cstdint</text>
</a>
</g>
</g>
<!-- Node6&#45;&gt;Node12 -->
<g id="edge13" class="edge">
<title>Node6&#45;&gt;Node12</title>
<path fill="none" stroke="#63b8ff" d="M329.53,-111.64C326.33,-111.05 323.13,-110.49 320.04,-110 251.11,-99.07 54.48,-126.1 8.04,-74 -27.24,-34.41 69,-18.8 123.88,-13.25"/>
<polygon fill="#63b8ff" stroke="#63b8ff" points="124.3,-16.72 133.93,-12.29 123.64,-9.75 124.3,-16.72"/>
</g>
<!-- Node13 -->
<g id="node13" class="node">
<title>Node13</title>
<g id="a_node13"><a xlink:title=" ">
<polygon fill="#e0e0e0" stroke="#999999" points="205.54,-74 148.54,-74 148.54,-55 205.54,-55 205.54,-74"/>
<text text-anchor="middle" x="177.04" y="-62" font-family="Helvetica,sans-Serif" font-size="10.00">ostream</text>
</a>
</g>
</g>
<!-- Node6&#45;&gt;Node13 -->
<g id="edge14" class="edge">
<title>Node6&#45;&gt;Node13</title>
<path fill="none" stroke="#63b8ff" d="M332.32,-109.98C300.62,-100.9 250.29,-86.49 215.57,-76.54"/>
<polygon fill="#63b8ff" stroke="#63b8ff" points="216.36,-73.12 205.78,-73.73 214.43,-79.85 216.36,-73.12"/>
</g>
<!-- Node14 -->
<g id="node14" class="node">
<title>Node14</title>
<g id="a_node14"><a xlink:href="../../db/d7c/utf8_8h.html" target="_top" xlink:title="Various UTF8 related helper functions.">
<polygon fill="white" stroke="#666666" points="351.54,-74 306.54,-74 306.54,-55 351.54,-55 351.54,-74"/>
<text text-anchor="middle" x="329.04" y="-62" font-family="Helvetica,sans-Serif" font-size="10.00">utf8.h</text>
</a>
</g>
</g>
<!-- Node6&#45;&gt;Node14 -->
<g id="edge15" class="edge">
<title>Node6&#45;&gt;Node14</title>
<path fill="none" stroke="#63b8ff" d="M356.59,-109.75C352.03,-102.42 345.37,-91.73 339.75,-82.7"/>
<polygon fill="#63b8ff" stroke="#63b8ff" points="342.65,-80.73 334.39,-74.09 336.7,-84.43 342.65,-80.73"/>
</g>
<!-- Node14&#45;&gt;Node2 -->
<g id="edge17" class="edge">
<title>Node14&#45;&gt;Node2</title>
<path fill="none" stroke="#63b8ff" d="M351.7,-57.17C354.51,-56.42 357.34,-55.68 360.04,-55 416.42,-40.78 482.53,-25.93 520.91,-17.48"/>
<polygon fill="#63b8ff" stroke="#63b8ff" points="521.96,-20.84 530.97,-15.28 520.46,-14 521.96,-20.84"/>
</g>
<!-- Node14&#45;&gt;Node12 -->
<g id="edge16" class="edge">
<title>Node14&#45;&gt;Node12</title>
<path fill="none" stroke="#63b8ff" d="M306.47,-56.46C277.74,-47.51 227.8,-31.94 194.1,-21.43"/>
<polygon fill="#63b8ff" stroke="#63b8ff" points="194.79,-17.98 184.2,-18.34 192.71,-24.66 194.79,-17.98"/>
</g>
<!-- Node15&#45;&gt;Node6 -->
<g id="edge20" class="edge">
<title>Node15&#45;&gt;Node6</title>
<path fill="none" stroke="#63b8ff" d="M501.37,-164.98C473.5,-156.09 429.59,-142.07 398.52,-132.15"/>
<polygon fill="#63b8ff" stroke="#63b8ff" points="399.51,-128.79 388.92,-129.08 397.38,-135.46 399.51,-128.79"/>
</g>
<!-- Node16 -->
<g id="node16" class="node">
<title>Node16</title>
<g id="a_node16"><a xlink:title=" ">
<polygon fill="#e0e0e0" stroke="#999999" points="562.54,-129 509.54,-129 509.54,-110 562.54,-110 562.54,-129"/>
<text text-anchor="middle" x="536.04" y="-117" font-family="Helvetica,sans-Serif" font-size="10.00">cstdarg</text>
</a>
</g>
</g>
<!-- Node15&#45;&gt;Node16 -->
<g id="edge19" class="edge">
<title>Node15&#45;&gt;Node16</title>
<path fill="none" stroke="#63b8ff" d="M529.36,-164.75C530.41,-157.8 531.91,-147.85 533.23,-139.13"/>
<polygon fill="#63b8ff" stroke="#63b8ff" points="536.71,-139.5 534.75,-129.09 529.79,-138.45 536.71,-139.5"/>
</g>
<!-- Node17&#45;&gt;Node2 -->
<g id="edge23" class="edge">
<title>Node17&#45;&gt;Node2</title>
<path fill="none" stroke="#63b8ff" d="M662.15,-164.9C651.21,-140.95 620.04,-73.97 605.04,-55 596.17,-43.79 584.16,-33.29 573.91,-25.3"/>
<polygon fill="#63b8ff" stroke="#63b8ff" points="575.92,-22.44 565.82,-19.23 571.72,-28.03 575.92,-22.44"/>
</g>
<!-- Node18 -->
<g id="node18" class="node">
<title>Node18</title>
<g id="a_node18"><a xlink:title=" ">
<polygon fill="#e0e0e0" stroke="#999999" points="715.04,-129 657.04,-129 657.04,-110 715.04,-110 715.04,-129"/>
<text text-anchor="middle" x="686.04" y="-117" font-family="Helvetica,sans-Serif" font-size="10.00">memory</text>
</a>
</g>
</g>
<!-- Node17&#45;&gt;Node18 -->
<g id="edge22" class="edge">
<title>Node17&#45;&gt;Node18</title>
<path fill="none" stroke="#63b8ff" d="M669.34,-164.75C672.02,-157.65 675.89,-147.4 679.23,-138.56"/>
<polygon fill="#63b8ff" stroke="#63b8ff" points="682.55,-139.68 682.8,-129.09 676,-137.21 682.55,-139.68"/>
</g>
<!-- Node19 -->
<g id="node19" class="node">
<title>Node19</title>
<g id="a_node19"><a xlink:title=" ">
<polygon fill="#e0e0e0" stroke="#999999" points="780.54,-129 733.54,-129 733.54,-110 780.54,-110 780.54,-129"/>
<text text-anchor="middle" x="757.04" y="-117" font-family="Helvetica,sans-Serif" font-size="10.00">vector</text>
</a>
</g>
</g>
<!-- Node17&#45;&gt;Node19 -->
<g id="edge24" class="edge">
<title>Node17&#45;&gt;Node19</title>
<path fill="none" stroke="#63b8ff" d="M680.66,-164.98C694.91,-156.69 716.79,-143.94 733.49,-134.22"/>
<polygon fill="#63b8ff" stroke="#63b8ff" points="735.28,-137.23 742.16,-129.17 731.75,-131.18 735.28,-137.23"/>
</g>
<!-- Node20 -->
<g id="node20" class="node">
<title>Node20</title>
<g id="a_node20"><a xlink:title=" ">
<polygon fill="#e0e0e0" stroke="#999999" points="851.54,-129 798.54,-129 798.54,-110 851.54,-110 851.54,-129"/>
<text text-anchor="middle" x="825.04" y="-117" font-family="Helvetica,sans-Serif" font-size="10.00">iterator</text>
</a>
</g>
</g>
<!-- Node17&#45;&gt;Node20 -->
<g id="edge25" class="edge">
<title>Node17&#45;&gt;Node20</title>
<path fill="none" stroke="#63b8ff" d="M691.59,-164.98C718.17,-156.13 759.98,-142.19 789.71,-132.28"/>
<polygon fill="#63b8ff" stroke="#63b8ff" points="790.92,-135.56 799.3,-129.08 788.7,-128.92 790.92,-135.56"/>
</g>
</g>
</svg>
        <g id="navigator" transform="translate(0 0)" fill="#404254">
                <rect fill="#f2f5e9" fill-opacity="0.5" stroke="#606060" stroke-width=".5" x="0" y="0" width="60" height="60"/>
                <use id="zoomplus" xlink:href="#zoomPlus" x="17" y="9" onmousedown="handleZoom(evt,'in')"/>
                <use id="zoomminus" xlink:href="#zoomMin" x="42" y="9" onmousedown="handleZoom(evt,'out')"/>
                <use id="reset" xlink:href="#resetDef" x="30" y="36" onmousedown="handleReset()"/>
                <g id="arrowUp" xlink:href="#dirArrow" transform="translate(30 24)" onmousedown="handlePan(0,-1)">
                  <use xlink:href="#rim" fill="#404040">
                        <set attributeName="fill" to="#808080" begin="arrowUp.mouseover" end="arrowUp.mouseout"/>
                  </use>
                  <path fill="none" stroke="white" stroke-width="1.5" d="M0,-3.0v7 M-2.5,-0.5L0,-3.0L2.5,-0.5"/>
                </g>
                <g id="arrowRight" xlink:href="#dirArrow" transform="rotate(90) translate(36 -43)" onmousedown="handlePan(1,0)">
                  <use xlink:href="#rim" fill="#404040">
                        <set attributeName="fill" to="#808080" begin="arrowRight.mouseover" end="arrowRight.mouseout"/>
                  </use>
                  <path fill="none" stroke="white" stroke-width="1.5" d="M0,-3.0v7 M-2.5,-0.5L0,-3.0L2.5,-0.5"/>
                </g>
                <g id="arrowDown" xlink:href="#dirArrow" transform="rotate(180) translate(-30 -48)" onmousedown="handlePan(0,1)">
                  <use xlink:href="#rim" fill="#404040">
                        <set attributeName="fill" to="#808080" begin="arrowDown.mouseover" end="arrowDown.mouseout"/>
                  </use>
                  <path fill="none" stroke="white" stroke-width="1.5" d="M0,-3.0v7 M-2.5,-0.5L0,-3.0L2.5,-0.5"/>
                </g>
                <g id="arrowLeft" xlink:href="#dirArrow" transform="rotate(270) translate(-36 17)" onmousedown="handlePan(-1,0)">
                  <use xlink:href="#rim" fill="#404040">
                        <set attributeName="fill" to="#808080" begin="arrowLeft.mouseover" end="arrowLeft.mouseout"/>
                  </use>
                  <path fill="none" stroke="white" stroke-width="1.5" d="M0,-3.0v7 M-2.5,-0.5L0,-3.0L2.5,-0.5"/>
                </g>
        </g>
        <svg viewBox="0 0 15 15" width="100%" height="30px" preserveAspectRatio="xMaxYMin meet">
         <g id="arrow_out" transform="scale(0.3 0.3)">
          <a xlink:href="rtfstyle_8cpp__incl_org.svg" target="_base">
           <rect id="button" ry="5" rx="5" y="6" x="6" height="38" width="38"
                fill="#f2f5e9" fill-opacity="0.5" stroke="#606060" stroke-width="1.0"/>
           <path id="arrow"
             d="M 11.500037,31.436501 C 11.940474,20.09759 22.043105,11.32322 32.158766,21.979434 L 37.068811,17.246167 C 37.068811,17.246167 37.088388,32 37.088388,32 L 22.160133,31.978069 C 22.160133,31.978069 26.997745,27.140456 26.997745,27.140456 C 18.528582,18.264221 13.291696,25.230495 11.500037,31.436501 z"
             style="fill:#404040;"/>
          </a>
         </g>
        </svg>
</svg>
