<?xml version="1.0" encoding="UTF-8" standalone="no"?>
<!DOCTYPE svg PUBLIC "-//W3C//DTD SVG 1.1//EN"
 "http://www.w3.org/Graphics/SVG/1.1/DTD/svg11.dtd">
<!-- Generated by graphviz version 2.43.0 (0)
 -->
<!-- Title: fortrancodeYY_state Pages: 1 -->
<!--zoomable 374 -->
<svg id="main" version="1.1" xmlns="http://www.w3.org/2000/svg" xmlns:xlink="http://www.w3.org/1999/xlink" xml:space="preserve" onload="init(evt)">
<style type="text/css"><![CDATA[
.edge:hover path { stroke: red; }
.edge:hover polygon { stroke: red; fill: red; }
]]></style>
<script type="text/javascript"><![CDATA[
var edges = document.getElementsByTagName('g');
if (edges && edges.length) {
  for (var i=0;i<edges.length;i++) {
    if (edges[i].id.substr(0,4)=='edge') {
      edges[i].setAttribute('class','edge');
    }
  }
}
]]></script>
        <defs>
                <circle id="rim" cx="0" cy="0" r="7"/>
                <circle id="rim2" cx="0" cy="0" r="3.5"/>
                <g id="zoomPlus">
                        <use xlink:href="#rim" fill="#404040">
                                <set attributeName="fill" to="#808080" begin="zoomplus.mouseover" end="zoomplus.mouseout"/>
                        </use>
                        <path d="M-4,0h8M0,-4v8" fill="none" stroke="white" stroke-width="1.5" pointer-events="none"/>
                </g>
                <g id="zoomMin">
                        <use xlink:href="#rim" fill="#404040">
                                <set attributeName="fill" to="#808080" begin="zoomminus.mouseover" end="zoomminus.mouseout"/>
                        </use>
                        <path d="M-4,0h8" fill="none" stroke="white" stroke-width="1.5" pointer-events="none"/>
                </g>
                <g id="dirArrow">
                        <path fill="none" stroke="white" stroke-width="1.5" d="M0,-3.0v7 M-2.5,-0.5L0,-3.0L2.5,-0.5"/>
                </g>
               <g id="resetDef">
                       <use xlink:href="#rim2" fill="#404040">
                               <set attributeName="fill" to="#808080" begin="reset.mouseover" end="reset.mouseout"/>
                       </use>
               </g>
        </defs>

<script type="text/javascript">
var viewWidth = 571;
var viewHeight = 374;
var sectionId = 'dynsection-0';
</script>
<script xlink:href="../../svgpan.js"/>
<svg id="graph" class="graph">
<g id="viewport">
<title>fortrancodeYY_state</title>
<!-- Node1 -->
<g id="node1" class="node">
<title>Node1</title>
<g id="a_node1"><a xlink:title=" ">
<polygon fill="#999999" stroke="#666666" points="563,-171 448,-171 448,-152 563,-152 563,-171"/>
<text text-anchor="middle" x="505.5" y="-159" font-family="Helvetica,sans-Serif" font-size="10.00">fortrancodeYY_state</text>
</a>
</g>
</g>
<!-- Node2 -->
<g id="node2" class="node">
<title>Node2</title>
<g id="a_node2"><a xlink:href="../../d9/d45/class_q_c_string.html" target="_top" xlink:title="This is an alternative implementation of QCString.">
<polygon fill="white" stroke="#666666" points="90.5,-303 31.5,-303 31.5,-284 90.5,-284 90.5,-303"/>
<text text-anchor="middle" x="61" y="-291" font-family="Helvetica,sans-Serif" font-size="10.00">QCString</text>
</a>
</g>
</g>
<!-- Node2&#45;&gt;Node1 -->
<g id="edge1" class="edge">
<title>Node2&#45;&gt;Node1</title>
<path fill="none" stroke="#9a32cd" stroke-dasharray="5,2" d="M100.55,-287.04C188.8,-272.09 400.23,-235.36 430,-221.5 456.8,-209.03 482.35,-184.89 495.43,-171.34"/>
<polygon fill="#9a32cd" stroke="#9a32cd" points="99.94,-283.59 90.66,-288.71 101.11,-290.49 99.94,-283.59"/>
<text text-anchor="middle" x="257" y="-326.5" font-family="Helvetica,sans-Serif" font-size="10.00" fill="grey"> currentModule</text>
<text text-anchor="middle" x="257" y="-315.5" font-family="Helvetica,sans-Serif" font-size="10.00" fill="grey">docBlock</text>
<text text-anchor="middle" x="257" y="-304.5" font-family="Helvetica,sans-Serif" font-size="10.00" fill="grey">exampleFile</text>
<text text-anchor="middle" x="257" y="-293.5" font-family="Helvetica,sans-Serif" font-size="10.00" fill="grey">exampleName</text>
<text text-anchor="middle" x="257" y="-282.5" font-family="Helvetica,sans-Serif" font-size="10.00" fill="grey">fileName</text>
<text text-anchor="middle" x="257" y="-271.5" font-family="Helvetica,sans-Serif" font-size="10.00" fill="grey">str</text>
</g>
<!-- Node5 -->
<g id="node5" class="node">
<title>Node5</title>
<g id="a_node5"><a xlink:href="../../de/dd6/class_use_entry.html" target="_top" xlink:title="data of an use&#45;statement">
<polygon fill="white" stroke="#666666" points="287.5,-366 226.5,-366 226.5,-347 287.5,-347 287.5,-366"/>
<text text-anchor="middle" x="257" y="-354" font-family="Helvetica,sans-Serif" font-size="10.00">UseEntry</text>
</a>
</g>
</g>
<!-- Node2&#45;&gt;Node5 -->
<g id="edge5" class="edge">
<title>Node2&#45;&gt;Node5</title>
<path fill="none" stroke="#9a32cd" stroke-dasharray="5,2" d="M100.58,-306.03C137.68,-318.08 192.96,-336.03 226.62,-346.96"/>
<polygon fill="#9a32cd" stroke="#9a32cd" points="101.22,-302.56 90.63,-302.8 99.06,-309.21 101.22,-302.56"/>
<text text-anchor="middle" x="160" y="-333.5" font-family="Helvetica,sans-Serif" font-size="10.00" fill="grey"> module</text>
</g>
<!-- Node3 -->
<g id="node3" class="node">
<title>Node3</title>
<g id="a_node3"><a xlink:href="../../d2/d76/class_use_map.html" target="_top" xlink:title="module name &#45;&gt; list of ONLY/remote entries (module name = name of the module, which can be accessed v...">
<polygon fill="white" stroke="#666666" points="285,-226 229,-226 229,-207 285,-207 285,-226"/>
<text text-anchor="middle" x="257" y="-214" font-family="Helvetica,sans-Serif" font-size="10.00">UseMap</text>
</a>
</g>
</g>
<!-- Node3&#45;&gt;Node1 -->
<g id="edge2" class="edge">
<title>Node3&#45;&gt;Node1</title>
<path fill="none" stroke="#9a32cd" stroke-dasharray="5,2" d="M295.41,-212.45C330.53,-208.17 384.36,-200.37 430,-188.5 447.71,-183.89 467.12,-176.79 481.69,-171.02"/>
<polygon fill="#9a32cd" stroke="#9a32cd" points="294.66,-209.01 285.14,-213.67 295.48,-215.97 294.66,-209.01"/>
<text text-anchor="middle" x="382" y="-209.5" font-family="Helvetica,sans-Serif" font-size="10.00" fill="grey"> useMembers</text>
</g>
<!-- Node4 -->
<g id="node4" class="node">
<title>Node4</title>
<g id="a_node4"><a xlink:title=" ">
<polygon fill="white" stroke="#666666" points="122,-231.5 0,-231.5 0,-201.5 122,-201.5 122,-231.5"/>
<text text-anchor="start" x="8" y="-219.5" font-family="Helvetica,sans-Serif" font-size="10.00">std::map&lt; std::string,</text>
<text text-anchor="middle" x="61" y="-208.5" font-family="Helvetica,sans-Serif" font-size="10.00"> UseEntry &gt;</text>
</a>
</g>
</g>
<!-- Node4&#45;&gt;Node3 -->
<g id="edge3" class="edge">
<title>Node4&#45;&gt;Node3</title>
<path fill="none" stroke="#63b8ff" d="M132.29,-216.5C165.81,-216.5 203.94,-216.5 228.9,-216.5"/>
<polygon fill="#63b8ff" stroke="#63b8ff" points="132.05,-213 122.05,-216.5 132.05,-220 132.05,-213"/>
</g>
<!-- Node5&#45;&gt;Node1 -->
<g id="edge4" class="edge">
<title>Node5&#45;&gt;Node1</title>
<path fill="none" stroke="#9a32cd" stroke-dasharray="5,2" d="M297.29,-345.47C334.77,-333.4 391.12,-311.03 430,-276.5 465.57,-244.9 491.03,-192.49 500.47,-171.07"/>
<polygon fill="#9a32cd" stroke="#9a32cd" points="296.22,-342.14 287.72,-348.46 298.31,-348.82 296.22,-342.14"/>
<text text-anchor="middle" x="382" y="-333.5" font-family="Helvetica,sans-Serif" font-size="10.00" fill="grey"> useEntry</text>
</g>
<!-- Node6 -->
<g id="node6" class="node">
<title>Node6</title>
<g id="a_node6"><a xlink:href="../../d5/d9c/class_code_output_interface.html" target="_top" xlink:title="Output interface for code parser.">
<polygon fill="white" stroke="#666666" points="316,-189 198,-189 198,-170 316,-170 316,-189"/>
<text text-anchor="middle" x="257" y="-177" font-family="Helvetica,sans-Serif" font-size="10.00">CodeOutputInterface</text>
</a>
</g>
</g>
<!-- Node6&#45;&gt;Node1 -->
<g id="edge6" class="edge">
<title>Node6&#45;&gt;Node1</title>
<path fill="none" stroke="#9a32cd" stroke-dasharray="5,2" d="M326.12,-174.53C364.32,-171.74 411.43,-168.3 447.64,-165.65"/>
<polygon fill="#9a32cd" stroke="#9a32cd" points="325.82,-171.04 316.1,-175.26 326.33,-178.02 325.82,-171.04"/>
<text text-anchor="middle" x="382" y="-176.5" font-family="Helvetica,sans-Serif" font-size="10.00" fill="grey"> code</text>
</g>
<!-- Node7 -->
<g id="node7" class="node">
<title>Node7</title>
<g id="a_node7"><a xlink:href="../../d5/dcc/class_definition.html" target="_top" xlink:title="The common base class of all entity definitions found in the sources.">
<polygon fill="white" stroke="#666666" points="93,-102 29,-102 29,-83 93,-83 93,-102"/>
<text text-anchor="middle" x="61" y="-90" font-family="Helvetica,sans-Serif" font-size="10.00">Definition</text>
</a>
</g>
</g>
<!-- Node7&#45;&gt;Node1 -->
<g id="edge7" class="edge">
<title>Node7&#45;&gt;Node1</title>
<path fill="none" stroke="#9a32cd" stroke-dasharray="5,2" d="M103.37,-90.81C153.93,-89.49 241.91,-89.68 316,-102.5 376.99,-113.05 445.68,-138.06 480.9,-151.89"/>
<polygon fill="#9a32cd" stroke="#9a32cd" points="103.06,-87.31 93.16,-91.1 103.26,-94.31 103.06,-87.31"/>
<text text-anchor="middle" x="257" y="-116.5" font-family="Helvetica,sans-Serif" font-size="10.00" fill="grey"> currentDefinition</text>
<text text-anchor="middle" x="257" y="-105.5" font-family="Helvetica,sans-Serif" font-size="10.00" fill="grey">searchCtx</text>
</g>
<!-- Node8 -->
<g id="node8" class="node">
<title>Node8</title>
<g id="a_node8"><a xlink:href="../../de/db0/class_file_def.html" target="_top" xlink:title="A model of a file symbol.">
<polygon fill="white" stroke="#666666" points="282.5,-56 231.5,-56 231.5,-37 282.5,-37 282.5,-56"/>
<text text-anchor="middle" x="257" y="-44" font-family="Helvetica,sans-Serif" font-size="10.00">FileDef</text>
</a>
</g>
</g>
<!-- Node7&#45;&gt;Node8 -->
<g id="edge10" class="edge">
<title>Node7&#45;&gt;Node8</title>
<path fill="none" stroke="#63b8ff" d="M103.13,-82.75C142.02,-73.53 199.09,-59.99 231.37,-52.34"/>
<polygon fill="#63b8ff" stroke="#63b8ff" points="102.09,-79.4 93.17,-85.11 103.71,-86.21 102.09,-79.4"/>
</g>
<!-- Node10 -->
<g id="node10" class="node">
<title>Node10</title>
<g id="a_node10"><a xlink:href="../../da/d09/class_member_def.html" target="_top" xlink:title="A model of a class/file/namespace member symbol.">
<polygon fill="white" stroke="#666666" points="294,-152 220,-152 220,-133 294,-133 294,-152"/>
<text text-anchor="middle" x="257" y="-140" font-family="Helvetica,sans-Serif" font-size="10.00">MemberDef</text>
</a>
</g>
</g>
<!-- Node7&#45;&gt;Node10 -->
<g id="edge12" class="edge">
<title>Node7&#45;&gt;Node10</title>
<path fill="none" stroke="#63b8ff" d="M102.98,-103.06C137.63,-111.99 186.79,-124.66 219.96,-133.21"/>
<polygon fill="#63b8ff" stroke="#63b8ff" points="103.73,-99.64 93.17,-100.53 101.98,-106.42 103.73,-99.64"/>
</g>
<!-- Node8&#45;&gt;Node1 -->
<g id="edge8" class="edge">
<title>Node8&#45;&gt;Node1</title>
<path fill="none" stroke="#9a32cd" stroke-dasharray="5,2" d="M292.73,-43.3C329.25,-41.56 387.25,-43.53 430,-67.5 465.6,-87.46 490.36,-131.96 500.01,-151.72"/>
<polygon fill="#9a32cd" stroke="#9a32cd" points="292.35,-39.82 282.57,-43.91 292.76,-46.81 292.35,-39.82"/>
<text text-anchor="middle" x="382" y="-70.5" font-family="Helvetica,sans-Serif" font-size="10.00" fill="grey"> sourceFileDef</text>
</g>
<!-- Node9 -->
<g id="node9" class="node">
<title>Node9</title>
<g id="a_node9"><a xlink:href="../../d0/d46/class_definition_mutable.html" target="_top" xlink:title=" ">
<polygon fill="white" stroke="#666666" points="113,-52 9,-52 9,-33 113,-33 113,-52"/>
<text text-anchor="middle" x="61" y="-40" font-family="Helvetica,sans-Serif" font-size="10.00">DefinitionMutable</text>
</a>
</g>
</g>
<!-- Node9&#45;&gt;Node8 -->
<g id="edge9" class="edge">
<title>Node9&#45;&gt;Node8</title>
<path fill="none" stroke="#63b8ff" d="M123.32,-43.76C159.91,-44.52 204.37,-45.44 231.41,-45.99"/>
<polygon fill="#63b8ff" stroke="#63b8ff" points="123.3,-40.26 113.22,-43.56 123.15,-47.26 123.3,-40.26"/>
</g>
<!-- Node10&#45;&gt;Node1 -->
<g id="edge11" class="edge">
<title>Node10&#45;&gt;Node1</title>
<path fill="none" stroke="#9a32cd" stroke-dasharray="5,2" d="M304.59,-143.91C339.23,-145.22 387.64,-147.56 430,-151.5 435.72,-152.03 441.67,-152.68 447.61,-153.38"/>
<polygon fill="#9a32cd" stroke="#9a32cd" points="304.42,-140.41 294.3,-143.54 304.17,-147.4 304.42,-140.41"/>
<text text-anchor="middle" x="382" y="-154.5" font-family="Helvetica,sans-Serif" font-size="10.00" fill="grey"> currentMemberDef</text>
</g>
<!-- Node11 -->
<g id="node11" class="node">
<title>Node11</title>
<g id="a_node11"><a xlink:href="../../d5/dae/class_tooltip_manager.html" target="_top" xlink:title="Class that manages the tooltips for a source file.">
<polygon fill="white" stroke="#666666" points="303,-19 211,-19 211,0 303,0 303,-19"/>
<text text-anchor="middle" x="257" y="-7" font-family="Helvetica,sans-Serif" font-size="10.00">TooltipManager</text>
</a>
</g>
</g>
<!-- Node11&#45;&gt;Node1 -->
<g id="edge13" class="edge">
<title>Node11&#45;&gt;Node1</title>
<path fill="none" stroke="#9a32cd" stroke-dasharray="5,2" d="M313.45,-3.65C349.48,-2.64 395.93,-6.87 430,-29.5 475.15,-59.5 495.88,-126.69 502.25,-151.79"/>
<polygon fill="#9a32cd" stroke="#9a32cd" points="312.94,-0.17 303.1,-4.09 313.24,-7.16 312.94,-0.17"/>
<text text-anchor="middle" x="382" y="-32.5" font-family="Helvetica,sans-Serif" font-size="10.00" fill="grey"> tooltipManager</text>
</g>
</g>
</svg>
        <g id="navigator" transform="translate(0 0)" fill="#404254">
                <rect fill="#f2f5e9" fill-opacity="0.5" stroke="#606060" stroke-width=".5" x="0" y="0" width="60" height="60"/>
                <use id="zoomplus" xlink:href="#zoomPlus" x="17" y="9" onmousedown="handleZoom(evt,'in')"/>
                <use id="zoomminus" xlink:href="#zoomMin" x="42" y="9" onmousedown="handleZoom(evt,'out')"/>
                <use id="reset" xlink:href="#resetDef" x="30" y="36" onmousedown="handleReset()"/>
                <g id="arrowUp" xlink:href="#dirArrow" transform="translate(30 24)" onmousedown="handlePan(0,-1)">
                  <use xlink:href="#rim" fill="#404040">
                        <set attributeName="fill" to="#808080" begin="arrowUp.mouseover" end="arrowUp.mouseout"/>
                  </use>
                  <path fill="none" stroke="white" stroke-width="1.5" d="M0,-3.0v7 M-2.5,-0.5L0,-3.0L2.5,-0.5"/>
                </g>
                <g id="arrowRight" xlink:href="#dirArrow" transform="rotate(90) translate(36 -43)" onmousedown="handlePan(1,0)">
                  <use xlink:href="#rim" fill="#404040">
                        <set attributeName="fill" to="#808080" begin="arrowRight.mouseover" end="arrowRight.mouseout"/>
                  </use>
                  <path fill="none" stroke="white" stroke-width="1.5" d="M0,-3.0v7 M-2.5,-0.5L0,-3.0L2.5,-0.5"/>
                </g>
                <g id="arrowDown" xlink:href="#dirArrow" transform="rotate(180) translate(-30 -48)" onmousedown="handlePan(0,1)">
                  <use xlink:href="#rim" fill="#404040">
                        <set attributeName="fill" to="#808080" begin="arrowDown.mouseover" end="arrowDown.mouseout"/>
                  </use>
                  <path fill="none" stroke="white" stroke-width="1.5" d="M0,-3.0v7 M-2.5,-0.5L0,-3.0L2.5,-0.5"/>
                </g>
                <g id="arrowLeft" xlink:href="#dirArrow" transform="rotate(270) translate(-36 17)" onmousedown="handlePan(-1,0)">
                  <use xlink:href="#rim" fill="#404040">
                        <set attributeName="fill" to="#808080" begin="arrowLeft.mouseover" end="arrowLeft.mouseout"/>
                  </use>
                  <path fill="none" stroke="white" stroke-width="1.5" d="M0,-3.0v7 M-2.5,-0.5L0,-3.0L2.5,-0.5"/>
                </g>
        </g>
        <svg viewBox="0 0 15 15" width="100%" height="30px" preserveAspectRatio="xMaxYMin meet">
         <g id="arrow_out" transform="scale(0.3 0.3)">
          <a xlink:href="structfortrancode_y_y__state__coll__graph_org.svg" target="_base">
           <rect id="button" ry="5" rx="5" y="6" x="6" height="38" width="38"
                fill="#f2f5e9" fill-opacity="0.5" stroke="#606060" stroke-width="1.0"/>
           <path id="arrow"
             d="M 11.500037,31.436501 C 11.940474,20.09759 22.043105,11.32322 32.158766,21.979434 L 37.068811,17.246167 C 37.068811,17.246167 37.088388,32 37.088388,32 L 22.160133,31.978069 C 22.160133,31.978069 26.997745,27.140456 26.997745,27.140456 C 18.528582,18.264221 13.291696,25.230495 11.500037,31.436501 z"
             style="fill:#404040;"/>
          </a>
         </g>
        </svg>
</svg>
