<?xml version="1.0" encoding="UTF-8" standalone="no"?>
<!DOCTYPE svg PUBLIC "-//W3C//DTD SVG 1.1//EN"
 "http://www.w3.org/Graphics/SVG/1.1/DTD/svg11.dtd">
<!-- Generated by graphviz version 2.43.0 (0)
 -->
<!-- Title: /home/runner/work/doxygen/doxygen/src/docnode.h Pages: 1 -->
<svg width="797pt" height="313pt"
 viewBox="0.00 0.00 797.05 313.00" xmlns="http://www.w3.org/2000/svg" xmlns:xlink="http://www.w3.org/1999/xlink">
<g id="graph0" class="graph" transform="scale(1 1) rotate(0) translate(4 309)">
<title>/home/runner/work/doxygen/doxygen/src/docnode.h</title>
<!-- Node1 -->
<g id="node1" class="node">
<title>Node1</title>
<g id="a_node1"><a xlink:title=" ">
<polygon fill="#999999" stroke="#666666" points="395.6,-305 241.6,-305 241.6,-275 395.6,-275 395.6,-305"/>
<text text-anchor="start" x="249.6" y="-293" font-family="Helvetica,sans-Serif" font-size="10.00">/home/runner/work/doxygen</text>
<text text-anchor="middle" x="318.6" y="-282" font-family="Helvetica,sans-Serif" font-size="10.00">/doxygen/src/docnode.h</text>
</a>
</g>
</g>
<!-- Node2 -->
<g id="node2" class="node">
<title>Node2</title>
<g id="a_node2"><a xlink:title=" ">
<polygon fill="#e0e0e0" stroke="#999999" points="62.6,-184 12.6,-184 12.6,-165 62.6,-165 62.6,-184"/>
<text text-anchor="middle" x="37.6" y="-172" font-family="Helvetica,sans-Serif" font-size="10.00">stdio.h</text>
</a>
</g>
</g>
<!-- Node1&#45;&gt;Node2 -->
<g id="edge1" class="edge">
<title>Node1&#45;&gt;Node2</title>
<path fill="none" stroke="#63b8ff" d="M241.26,-278.97C201.28,-271.66 152.62,-259.35 112.6,-239 88.99,-227 66.43,-206.2 52.33,-191.69"/>
<polygon fill="#63b8ff" stroke="#63b8ff" points="54.83,-189.23 45.42,-184.37 49.74,-194.04 54.83,-189.23"/>
</g>
<!-- Node3 -->
<g id="node3" class="node">
<title>Node3</title>
<g id="a_node3"><a xlink:title=" ">
<polygon fill="#e0e0e0" stroke="#999999" points="356.1,-129 309.1,-129 309.1,-110 356.1,-110 356.1,-129"/>
<text text-anchor="middle" x="332.6" y="-117" font-family="Helvetica,sans-Serif" font-size="10.00">vector</text>
</a>
</g>
</g>
<!-- Node1&#45;&gt;Node3 -->
<g id="edge2" class="edge">
<title>Node1&#45;&gt;Node3</title>
<path fill="none" stroke="#63b8ff" d="M319.77,-274.92C322.28,-244.65 328.21,-173.35 331.04,-139.27"/>
<polygon fill="#63b8ff" stroke="#63b8ff" points="334.53,-139.51 331.87,-129.25 327.56,-138.93 334.53,-139.51"/>
</g>
<!-- Node4 -->
<g id="node4" class="node">
<title>Node4</title>
<g id="a_node4"><a xlink:title=" ">
<polygon fill="#e0e0e0" stroke="#999999" points="224.6,-129 166.6,-129 166.6,-110 224.6,-110 224.6,-129"/>
<text text-anchor="middle" x="195.6" y="-117" font-family="Helvetica,sans-Serif" font-size="10.00">memory</text>
</a>
</g>
</g>
<!-- Node1&#45;&gt;Node4 -->
<g id="edge3" class="edge">
<title>Node1&#45;&gt;Node4</title>
<path fill="none" stroke="#63b8ff" d="M241.47,-280.78C193.9,-273.78 132.48,-261.18 81.6,-239 42.71,-222.05 23.12,-221.66 3.6,-184 -0.29,-176.5 -1.66,-171.61 3.6,-165 4.8,-163.48 100.52,-141.81 156.33,-129.28"/>
<polygon fill="#63b8ff" stroke="#63b8ff" points="157.26,-132.66 166.26,-127.06 155.73,-125.83 157.26,-132.66"/>
</g>
<!-- Node5 -->
<g id="node5" class="node">
<title>Node5</title>
<g id="a_node5"><a xlink:title=" ">
<polygon fill="#e0e0e0" stroke="#999999" points="707.1,-239 656.1,-239 656.1,-220 707.1,-220 707.1,-239"/>
<text text-anchor="middle" x="681.6" y="-227" font-family="Helvetica,sans-Serif" font-size="10.00">variant</text>
</a>
</g>
</g>
<!-- Node1&#45;&gt;Node5 -->
<g id="edge4" class="edge">
<title>Node1&#45;&gt;Node5</title>
<path fill="none" stroke="#63b8ff" d="M395.81,-278.28C461.38,-268.89 557.88,-254.36 641.6,-239 643.04,-238.74 644.51,-238.46 645.99,-238.17"/>
<polygon fill="#63b8ff" stroke="#63b8ff" points="646.7,-241.6 655.82,-236.2 645.33,-234.74 646.7,-241.6"/>
</g>
<!-- Node6 -->
<g id="node6" class="node">
<title>Node6</title>
<g id="a_node6"><a xlink:href="../../d7/d5c/qcstring_8h.html" target="_top" xlink:title=" ">
<polygon fill="white" stroke="#666666" points="454.1,-129 389.1,-129 389.1,-110 454.1,-110 454.1,-129"/>
<text text-anchor="middle" x="421.6" y="-117" font-family="Helvetica,sans-Serif" font-size="10.00">qcstring.h</text>
</a>
</g>
</g>
<!-- Node1&#45;&gt;Node6 -->
<g id="edge5" class="edge">
<title>Node1&#45;&gt;Node6</title>
<path fill="none" stroke="#63b8ff" d="M355.57,-274.89C391.58,-258.91 444.21,-229.09 467.6,-184 476.85,-166.16 460.13,-147.77 444.32,-135.41"/>
<polygon fill="#63b8ff" stroke="#63b8ff" points="445.94,-132.26 435.79,-129.2 441.82,-137.92 445.94,-132.26"/>
</g>
<!-- Node16 -->
<g id="node16" class="node">
<title>Node16</title>
<g id="a_node16"><a xlink:href="../../d2/d3c/docvisitor_8h.html" target="_top" xlink:title=" ">
<polygon fill="white" stroke="#666666" points="290.1,-184 217.1,-184 217.1,-165 290.1,-165 290.1,-184"/>
<text text-anchor="middle" x="253.6" y="-172" font-family="Helvetica,sans-Serif" font-size="10.00">docvisitor.h</text>
</a>
</g>
</g>
<!-- Node1&#45;&gt;Node16 -->
<g id="edge17" class="edge">
<title>Node1&#45;&gt;Node16</title>
<path fill="none" stroke="#63b8ff" d="M310.37,-274.63C298.46,-253.84 276.47,-215.44 263.63,-193.02"/>
<polygon fill="#63b8ff" stroke="#63b8ff" points="266.6,-191.17 258.6,-184.23 260.53,-194.65 266.6,-191.17"/>
</g>
<!-- Node17 -->
<g id="node17" class="node">
<title>Node17</title>
<g id="a_node17"><a xlink:href="../../de/d9c/docparser_8h.html" target="_top" xlink:title=" ">
<polygon fill="white" stroke="#666666" points="195.1,-239 122.1,-239 122.1,-220 195.1,-220 195.1,-239"/>
<text text-anchor="middle" x="158.6" y="-227" font-family="Helvetica,sans-Serif" font-size="10.00">docparser.h</text>
</a>
</g>
</g>
<!-- Node1&#45;&gt;Node17 -->
<g id="edge20" class="edge">
<title>Node1&#45;&gt;Node17</title>
<path fill="none" stroke="#63b8ff" d="M280.27,-274.99C253.34,-265.14 217.66,-252.1 191.91,-242.68"/>
<polygon fill="#63b8ff" stroke="#63b8ff" points="192.82,-239.29 182.23,-239.14 190.42,-245.86 192.82,-239.29"/>
</g>
<!-- Node18 -->
<g id="node18" class="node">
<title>Node18</title>
<g id="a_node18"><a xlink:href="../../d7/d50/growvector_8h.html" target="_top" xlink:title=" ">
<polygon fill="white" stroke="#666666" points="198.6,-184 118.6,-184 118.6,-165 198.6,-165 198.6,-184"/>
<text text-anchor="middle" x="158.6" y="-172" font-family="Helvetica,sans-Serif" font-size="10.00">growvector.h</text>
</a>
</g>
</g>
<!-- Node1&#45;&gt;Node18 -->
<g id="edge35" class="edge">
<title>Node1&#45;&gt;Node18</title>
<path fill="none" stroke="#63b8ff" d="M298.66,-274.85C268.16,-253.22 210.22,-212.12 179.28,-190.17"/>
<polygon fill="#63b8ff" stroke="#63b8ff" points="181.14,-187.2 170.96,-184.27 177.09,-192.91 181.14,-187.2"/>
</g>
<!-- Node20 -->
<g id="node20" class="node">
<title>Node20</title>
<g id="a_node20"><a xlink:href="../../d0/d73/htmlattrib_8h.html" target="_top" xlink:title=" ">
<polygon fill="white" stroke="#666666" points="458.6,-184 384.6,-184 384.6,-165 458.6,-165 458.6,-184"/>
<text text-anchor="middle" x="421.6" y="-172" font-family="Helvetica,sans-Serif" font-size="10.00">htmlattrib.h</text>
</a>
</g>
</g>
<!-- Node1&#45;&gt;Node20 -->
<g id="edge28" class="edge">
<title>Node1&#45;&gt;Node20</title>
<path fill="none" stroke="#63b8ff" d="M331.64,-274.63C350.84,-253.47 386.61,-214.05 406.78,-191.83"/>
<polygon fill="#63b8ff" stroke="#63b8ff" points="409.55,-193.99 413.68,-184.23 404.36,-189.28 409.55,-193.99"/>
</g>
<!-- Node21 -->
<g id="node21" class="node">
<title>Node21</title>
<g id="a_node21"><a xlink:href="../../db/dc6/htmlentity_8h.html" target="_top" xlink:title=" ">
<polygon fill="white" stroke="#666666" points="762.1,-184 687.1,-184 687.1,-165 762.1,-165 762.1,-184"/>
<text text-anchor="middle" x="724.6" y="-172" font-family="Helvetica,sans-Serif" font-size="10.00">htmlentity.h</text>
</a>
</g>
</g>
<!-- Node1&#45;&gt;Node21 -->
<g id="edge31" class="edge">
<title>Node1&#45;&gt;Node21</title>
<path fill="none" stroke="#63b8ff" d="M395.74,-282.69C455.2,-276.17 538.78,-263.37 608.6,-239 618.13,-235.67 669.28,-206.97 700.39,-189.31"/>
<polygon fill="#63b8ff" stroke="#63b8ff" points="702.37,-192.21 709.33,-184.22 698.91,-186.12 702.37,-192.21"/>
</g>
<!-- Node23 -->
<g id="node23" class="node">
<title>Node23</title>
<g id="a_node23"><a xlink:href="../../d1/d2a/section_8h.html" target="_top" xlink:title=" ">
<polygon fill="white" stroke="#666666" points="599.1,-239 538.1,-239 538.1,-220 599.1,-220 599.1,-239"/>
<text text-anchor="middle" x="568.6" y="-227" font-family="Helvetica,sans-Serif" font-size="10.00">section.h</text>
</a>
</g>
</g>
<!-- Node1&#45;&gt;Node23 -->
<g id="edge36" class="edge">
<title>Node1&#45;&gt;Node23</title>
<path fill="none" stroke="#63b8ff" d="M378.48,-274.99C424.82,-264.14 487.73,-249.42 528.25,-239.94"/>
<polygon fill="#63b8ff" stroke="#63b8ff" points="529.11,-243.34 538.05,-237.65 527.51,-236.52 529.11,-243.34"/>
</g>
<!-- Node7 -->
<g id="node7" class="node">
<title>Node7</title>
<g id="a_node7"><a xlink:title=" ">
<polygon fill="#e0e0e0" stroke="#999999" points="682.6,-19 638.6,-19 638.6,0 682.6,0 682.6,-19"/>
<text text-anchor="middle" x="660.6" y="-7" font-family="Helvetica,sans-Serif" font-size="10.00">string</text>
</a>
</g>
</g>
<!-- Node6&#45;&gt;Node7 -->
<g id="edge6" class="edge">
<title>Node6&#45;&gt;Node7</title>
<path fill="none" stroke="#63b8ff" d="M428.8,-109.67C440.51,-95.9 465.06,-69.4 491.6,-55 535.58,-31.14 593.04,-19.55 628.36,-14.33"/>
<polygon fill="#63b8ff" stroke="#63b8ff" points="629.14,-17.75 638.57,-12.9 628.18,-10.82 629.14,-17.75"/>
</g>
<!-- Node8 -->
<g id="node8" class="node">
<title>Node8</title>
<g id="a_node8"><a xlink:title=" ">
<polygon fill="#e0e0e0" stroke="#999999" points="564.6,-74 500.6,-74 500.6,-55 564.6,-55 564.6,-74"/>
<text text-anchor="middle" x="532.6" y="-62" font-family="Helvetica,sans-Serif" font-size="10.00">algorithm</text>
</a>
</g>
</g>
<!-- Node6&#45;&gt;Node8 -->
<g id="edge7" class="edge">
<title>Node6&#45;&gt;Node8</title>
<path fill="none" stroke="#63b8ff" d="M439.43,-109.98C457.21,-101.5 484.75,-88.35 505.28,-78.54"/>
<polygon fill="#63b8ff" stroke="#63b8ff" points="506.92,-81.64 514.44,-74.17 503.91,-75.32 506.92,-81.64"/>
</g>
<!-- Node9 -->
<g id="node9" class="node">
<title>Node9</title>
<g id="a_node9"><a xlink:title=" ">
<polygon fill="#e0e0e0" stroke="#999999" points="632.1,-74 583.1,-74 583.1,-55 632.1,-55 632.1,-74"/>
<text text-anchor="middle" x="607.6" y="-62" font-family="Helvetica,sans-Serif" font-size="10.00">cctype</text>
</a>
</g>
</g>
<!-- Node6&#45;&gt;Node9 -->
<g id="edge8" class="edge">
<title>Node6&#45;&gt;Node9</title>
<path fill="none" stroke="#63b8ff" d="M451.48,-109.98C484.66,-100.53 538.14,-85.29 573.08,-75.34"/>
<polygon fill="#63b8ff" stroke="#63b8ff" points="574.19,-78.66 582.85,-72.55 572.27,-71.93 574.19,-78.66"/>
</g>
<!-- Node10 -->
<g id="node10" class="node">
<title>Node10</title>
<g id="a_node10"><a xlink:title=" ">
<polygon fill="#e0e0e0" stroke="#999999" points="174.6,-74 124.6,-74 124.6,-55 174.6,-55 174.6,-74"/>
<text text-anchor="middle" x="149.6" y="-62" font-family="Helvetica,sans-Serif" font-size="10.00">cstring</text>
</a>
</g>
</g>
<!-- Node6&#45;&gt;Node10 -->
<g id="edge9" class="edge">
<title>Node6&#45;&gt;Node10</title>
<path fill="none" stroke="#63b8ff" d="M388.75,-113C344.61,-105.47 263.5,-91.15 184.88,-74.17"/>
<polygon fill="#63b8ff" stroke="#63b8ff" points="185.33,-70.69 174.81,-71.98 183.84,-77.53 185.33,-70.69"/>
</g>
<!-- Node11 -->
<g id="node11" class="node">
<title>Node11</title>
<g id="a_node11"><a xlink:title=" ">
<polygon fill="#e0e0e0" stroke="#999999" points="238.6,-74 192.6,-74 192.6,-55 238.6,-55 238.6,-74"/>
<text text-anchor="middle" x="215.6" y="-62" font-family="Helvetica,sans-Serif" font-size="10.00">cstdio</text>
</a>
</g>
</g>
<!-- Node6&#45;&gt;Node11 -->
<g id="edge10" class="edge">
<title>Node6&#45;&gt;Node11</title>
<path fill="none" stroke="#63b8ff" d="M388.86,-110.22C355.86,-101.86 303.18,-88.45 248.53,-74.22"/>
<polygon fill="#63b8ff" stroke="#63b8ff" points="249.22,-70.79 238.66,-71.65 247.46,-77.56 249.22,-70.79"/>
</g>
<!-- Node12 -->
<g id="node12" class="node">
<title>Node12</title>
<g id="a_node12"><a xlink:title=" ">
<polygon fill="#e0e0e0" stroke="#999999" points="306.1,-74 257.1,-74 257.1,-55 306.1,-55 306.1,-74"/>
<text text-anchor="middle" x="281.6" y="-62" font-family="Helvetica,sans-Serif" font-size="10.00">cstdlib</text>
</a>
</g>
</g>
<!-- Node6&#45;&gt;Node12 -->
<g id="edge11" class="edge">
<title>Node6&#45;&gt;Node12</title>
<path fill="none" stroke="#63b8ff" d="M399.11,-109.98C376.08,-101.27 340.06,-87.63 313.97,-77.75"/>
<polygon fill="#63b8ff" stroke="#63b8ff" points="315.09,-74.44 304.5,-74.17 312.61,-80.98 315.09,-74.44"/>
</g>
<!-- Node13 -->
<g id="node13" class="node">
<title>Node13</title>
<g id="a_node13"><a xlink:title=" ">
<polygon fill="#e0e0e0" stroke="#999999" points="284.6,-19 234.6,-19 234.6,0 284.6,0 284.6,-19"/>
<text text-anchor="middle" x="259.6" y="-7" font-family="Helvetica,sans-Serif" font-size="10.00">cstdint</text>
</a>
</g>
</g>
<!-- Node6&#45;&gt;Node13 -->
<g id="edge12" class="edge">
<title>Node6&#45;&gt;Node13</title>
<path fill="none" stroke="#63b8ff" d="M389.03,-113.51C381.35,-112.35 373.19,-111.12 365.6,-110 310.07,-101.79 152.35,-116.42 115.6,-74 82.56,-35.86 172.14,-19.7 224.61,-13.66"/>
<polygon fill="#63b8ff" stroke="#63b8ff" points="225,-17.14 234.56,-12.58 224.24,-10.18 225,-17.14"/>
</g>
<!-- Node14 -->
<g id="node14" class="node">
<title>Node14</title>
<g id="a_node14"><a xlink:title=" ">
<polygon fill="#e0e0e0" stroke="#999999" points="381.1,-74 324.1,-74 324.1,-55 381.1,-55 381.1,-74"/>
<text text-anchor="middle" x="352.6" y="-62" font-family="Helvetica,sans-Serif" font-size="10.00">ostream</text>
</a>
</g>
</g>
<!-- Node6&#45;&gt;Node14 -->
<g id="edge13" class="edge">
<title>Node6&#45;&gt;Node14</title>
<path fill="none" stroke="#63b8ff" d="M410.51,-109.98C400.11,-102 384.34,-89.88 371.88,-80.31"/>
<polygon fill="#63b8ff" stroke="#63b8ff" points="373.95,-77.49 363.89,-74.17 369.68,-83.04 373.95,-77.49"/>
</g>
<!-- Node15 -->
<g id="node15" class="node">
<title>Node15</title>
<g id="a_node15"><a xlink:href="../../db/d7c/utf8_8h.html" target="_top" xlink:title="Various UTF8 related helper functions.">
<polygon fill="white" stroke="#666666" points="444.1,-74 399.1,-74 399.1,-55 444.1,-55 444.1,-74"/>
<text text-anchor="middle" x="421.6" y="-62" font-family="Helvetica,sans-Serif" font-size="10.00">utf8.h</text>
</a>
</g>
</g>
<!-- Node6&#45;&gt;Node15 -->
<g id="edge14" class="edge">
<title>Node6&#45;&gt;Node15</title>
<path fill="none" stroke="#63b8ff" d="M421.6,-109.75C421.6,-102.8 421.6,-92.85 421.6,-84.13"/>
<polygon fill="#63b8ff" stroke="#63b8ff" points="425.1,-84.09 421.6,-74.09 418.1,-84.09 425.1,-84.09"/>
</g>
<!-- Node15&#45;&gt;Node7 -->
<g id="edge16" class="edge">
<title>Node15&#45;&gt;Node7</title>
<path fill="none" stroke="#63b8ff" d="M444.29,-58.25C449.02,-57.17 453.97,-56.04 458.6,-55 518.58,-41.5 588.68,-26.16 628.53,-17.47"/>
<polygon fill="#63b8ff" stroke="#63b8ff" points="629.44,-20.86 638.47,-15.31 627.95,-14.02 629.44,-20.86"/>
</g>
<!-- Node15&#45;&gt;Node13 -->
<g id="edge15" class="edge">
<title>Node15&#45;&gt;Node13</title>
<path fill="none" stroke="#63b8ff" d="M399.07,-56.13C372.01,-47.28 326.29,-32.32 294.61,-21.96"/>
<polygon fill="#63b8ff" stroke="#63b8ff" points="295.45,-18.55 284.86,-18.76 293.28,-25.2 295.45,-18.55"/>
</g>
<!-- Node16&#45;&gt;Node4 -->
<g id="edge18" class="edge">
<title>Node16&#45;&gt;Node4</title>
<path fill="none" stroke="#63b8ff" d="M244.28,-164.98C235.79,-157.23 223.04,-145.58 212.72,-136.14"/>
<polygon fill="#63b8ff" stroke="#63b8ff" points="214.83,-133.33 205.09,-129.17 210.11,-138.5 214.83,-133.33"/>
</g>
<!-- Node16&#45;&gt;Node6 -->
<g id="edge19" class="edge">
<title>Node16&#45;&gt;Node6</title>
<path fill="none" stroke="#63b8ff" d="M280.59,-164.98C308.8,-156.09 353.24,-142.07 384.68,-132.15"/>
<polygon fill="#63b8ff" stroke="#63b8ff" points="385.91,-135.43 394.4,-129.08 383.81,-128.75 385.91,-135.43"/>
</g>
<!-- Node17&#45;&gt;Node2 -->
<g id="edge21" class="edge">
<title>Node17&#45;&gt;Node2</title>
<path fill="none" stroke="#63b8ff" d="M139.16,-219.98C119.61,-211.42 89.22,-198.11 66.77,-188.28"/>
<polygon fill="#63b8ff" stroke="#63b8ff" points="67.96,-184.98 57.39,-184.17 65.15,-191.39 67.96,-184.98"/>
</g>
<!-- Node17&#45;&gt;Node4 -->
<g id="edge22" class="edge">
<title>Node17&#45;&gt;Node4</title>
<path fill="none" stroke="#63b8ff" d="M143.5,-219.91C124.8,-208.1 96.86,-185.94 109.6,-165 120,-147.91 139.3,-137.1 156.99,-130.41"/>
<polygon fill="#63b8ff" stroke="#63b8ff" points="158.27,-133.68 166.59,-127.11 155.99,-127.06 158.27,-133.68"/>
</g>
<!-- Node17&#45;&gt;Node6 -->
<g id="edge23" class="edge">
<title>Node17&#45;&gt;Node6</title>
<path fill="none" stroke="#63b8ff" d="M191.09,-219.99C220.04,-211.99 263.32,-199.03 299.6,-184 335.04,-169.31 374.05,-148.05 398.19,-134.25"/>
<polygon fill="#63b8ff" stroke="#63b8ff" points="400.06,-137.21 406.97,-129.18 396.56,-131.15 400.06,-137.21"/>
</g>
<!-- Node17&#45;&gt;Node18 -->
<g id="edge24" class="edge">
<title>Node17&#45;&gt;Node18</title>
<path fill="none" stroke="#63b8ff" d="M158.6,-219.75C158.6,-212.8 158.6,-202.85 158.6,-194.13"/>
<polygon fill="#63b8ff" stroke="#63b8ff" points="162.1,-194.09 158.6,-184.09 155.1,-194.09 162.1,-194.09"/>
</g>
<!-- Node18&#45;&gt;Node3 -->
<g id="edge25" class="edge">
<title>Node18&#45;&gt;Node3</title>
<path fill="none" stroke="#63b8ff" d="M186.55,-164.98C217.29,-155.62 266.63,-140.59 299.33,-130.63"/>
<polygon fill="#63b8ff" stroke="#63b8ff" points="300.36,-133.98 308.9,-127.72 298.32,-127.28 300.36,-133.98"/>
</g>
<!-- Node18&#45;&gt;Node4 -->
<g id="edge26" class="edge">
<title>Node18&#45;&gt;Node4</title>
<path fill="none" stroke="#63b8ff" d="M164.71,-164.75C169.88,-157.34 177.44,-146.5 183.79,-137.41"/>
<polygon fill="#63b8ff" stroke="#63b8ff" points="186.75,-139.29 189.6,-129.09 181.01,-135.29 186.75,-139.29"/>
</g>
<!-- Node19 -->
<g id="node19" class="node">
<title>Node19</title>
<g id="a_node19"><a xlink:title=" ">
<polygon fill="#e0e0e0" stroke="#999999" points="148.1,-129 95.1,-129 95.1,-110 148.1,-110 148.1,-129"/>
<text text-anchor="middle" x="121.6" y="-117" font-family="Helvetica,sans-Serif" font-size="10.00">iterator</text>
</a>
</g>
</g>
<!-- Node18&#45;&gt;Node19 -->
<g id="edge27" class="edge">
<title>Node18&#45;&gt;Node19</title>
<path fill="none" stroke="#63b8ff" d="M152.49,-164.75C147.32,-157.34 139.75,-146.5 133.4,-137.41"/>
<polygon fill="#63b8ff" stroke="#63b8ff" points="136.19,-135.29 127.59,-129.09 130.45,-139.29 136.19,-135.29"/>
</g>
<!-- Node20&#45;&gt;Node3 -->
<g id="edge29" class="edge">
<title>Node20&#45;&gt;Node3</title>
<path fill="none" stroke="#63b8ff" d="M407.3,-164.98C393.5,-156.77 372.36,-144.18 356.09,-134.49"/>
<polygon fill="#63b8ff" stroke="#63b8ff" points="357.54,-131.28 347.16,-129.17 353.96,-137.29 357.54,-131.28"/>
</g>
<!-- Node20&#45;&gt;Node6 -->
<g id="edge30" class="edge">
<title>Node20&#45;&gt;Node6</title>
<path fill="none" stroke="#63b8ff" d="M421.6,-164.75C421.6,-157.8 421.6,-147.85 421.6,-139.13"/>
<polygon fill="#63b8ff" stroke="#63b8ff" points="425.1,-139.09 421.6,-129.09 418.1,-139.09 425.1,-139.09"/>
</g>
<!-- Node21&#45;&gt;Node6 -->
<g id="edge34" class="edge">
<title>Node21&#45;&gt;Node6</title>
<path fill="none" stroke="#63b8ff" d="M686.84,-166.89C630.27,-157 523.84,-138.38 464.44,-127.99"/>
<polygon fill="#63b8ff" stroke="#63b8ff" points="464.72,-124.49 454.27,-126.21 463.52,-131.39 464.72,-124.49"/>
</g>
<!-- Node21&#45;&gt;Node7 -->
<g id="edge33" class="edge">
<title>Node21&#45;&gt;Node7</title>
<path fill="none" stroke="#63b8ff" d="M733.88,-164.61C745.37,-152.48 762.53,-129.94 754.6,-110 739.96,-73.19 704.53,-42.13 681.59,-24.94"/>
<polygon fill="#63b8ff" stroke="#63b8ff" points="683.63,-22.09 673.48,-19.04 679.51,-27.75 683.63,-22.09"/>
</g>
<!-- Node22 -->
<g id="node22" class="node">
<title>Node22</title>
<g id="a_node22"><a xlink:title=" ">
<polygon fill="#e0e0e0" stroke="#999999" points="745.1,-129 652.1,-129 652.1,-110 745.1,-110 745.1,-129"/>
<text text-anchor="middle" x="698.6" y="-117" font-family="Helvetica,sans-Serif" font-size="10.00">unordered_map</text>
</a>
</g>
</g>
<!-- Node21&#45;&gt;Node22 -->
<g id="edge32" class="edge">
<title>Node21&#45;&gt;Node22</title>
<path fill="none" stroke="#63b8ff" d="M720.31,-164.75C716.78,-157.57 711.69,-147.18 707.32,-138.27"/>
<polygon fill="#63b8ff" stroke="#63b8ff" points="710.36,-136.53 702.81,-129.09 704.07,-139.61 710.36,-136.53"/>
</g>
<!-- Node23&#45;&gt;Node6 -->
<g id="edge39" class="edge">
<title>Node23&#45;&gt;Node6</title>
<path fill="none" stroke="#63b8ff" d="M560.38,-219.58C548.14,-206.59 524.06,-182.18 500.6,-165 484.3,-153.06 464.48,-141.91 448.77,-133.75"/>
<polygon fill="#63b8ff" stroke="#63b8ff" points="450.09,-130.5 439.59,-129.08 446.92,-136.74 450.09,-130.5"/>
</g>
<!-- Node23&#45;&gt;Node7 -->
<g id="edge37" class="edge">
<title>Node23&#45;&gt;Node7</title>
<path fill="none" stroke="#63b8ff" d="M599.13,-223.95C653.11,-215.59 760.8,-197.42 771.6,-184 808.7,-137.89 780.34,-96.96 738.6,-55 725.3,-41.64 707.17,-30.97 691.73,-23.43"/>
<polygon fill="#63b8ff" stroke="#63b8ff" points="693.08,-20.2 682.53,-19.15 690.12,-26.54 693.08,-20.2"/>
</g>
<!-- Node23&#45;&gt;Node22 -->
<g id="edge38" class="edge">
<title>Node23&#45;&gt;Node22</title>
<path fill="none" stroke="#63b8ff" d="M584.92,-219.9C599.86,-211.65 622.22,-198.37 639.6,-184 656.72,-169.84 673.72,-150.89 685.04,-137.38"/>
<polygon fill="#63b8ff" stroke="#63b8ff" points="687.96,-139.35 691.61,-129.4 682.55,-134.9 687.96,-139.35"/>
</g>
<!-- Node24 -->
<g id="node24" class="node">
<title>Node24</title>
<g id="a_node24"><a xlink:href="../../da/de1/linkedmap_8h.html" target="_top" xlink:title=" ">
<polygon fill="white" stroke="#666666" points="630.1,-184 553.1,-184 553.1,-165 630.1,-165 630.1,-184"/>
<text text-anchor="middle" x="591.6" y="-172" font-family="Helvetica,sans-Serif" font-size="10.00">linkedmap.h</text>
</a>
</g>
</g>
<!-- Node23&#45;&gt;Node24 -->
<g id="edge40" class="edge">
<title>Node23&#45;&gt;Node24</title>
<path fill="none" stroke="#63b8ff" d="M572.4,-219.75C575.51,-212.57 580.02,-202.18 583.89,-193.27"/>
<polygon fill="#63b8ff" stroke="#63b8ff" points="587.1,-194.66 587.87,-184.09 580.68,-191.87 587.1,-194.66"/>
</g>
<!-- Node24&#45;&gt;Node3 -->
<g id="edge42" class="edge">
<title>Node24&#45;&gt;Node3</title>
<path fill="none" stroke="#63b8ff" d="M552.82,-165.57C502.08,-155.18 413.97,-137.15 366.02,-127.34"/>
<polygon fill="#63b8ff" stroke="#63b8ff" points="366.65,-123.9 356.15,-125.32 365.24,-130.75 366.65,-123.9"/>
</g>
<!-- Node24&#45;&gt;Node4 -->
<g id="edge43" class="edge">
<title>Node24&#45;&gt;Node4</title>
<path fill="none" stroke="#63b8ff" d="M552.91,-168.32C477.35,-158.21 310.93,-135.94 234.89,-125.76"/>
<polygon fill="#63b8ff" stroke="#63b8ff" points="235.16,-122.26 224.78,-124.41 234.23,-129.2 235.16,-122.26"/>
</g>
<!-- Node24&#45;&gt;Node6 -->
<g id="edge47" class="edge">
<title>Node24&#45;&gt;Node6</title>
<path fill="none" stroke="#63b8ff" d="M564.29,-164.98C535.74,-156.09 490.77,-142.07 458.96,-132.15"/>
<polygon fill="#63b8ff" stroke="#63b8ff" points="459.71,-128.72 449.13,-129.08 457.63,-135.4 459.71,-128.72"/>
</g>
<!-- Node24&#45;&gt;Node7 -->
<g id="edge44" class="edge">
<title>Node24&#45;&gt;Node7</title>
<path fill="none" stroke="#63b8ff" d="M596.54,-164.95C606.18,-148.02 627.75,-108.86 641.6,-74 647.45,-59.28 652.5,-42.03 655.92,-29.22"/>
<polygon fill="#63b8ff" stroke="#63b8ff" points="659.38,-29.85 658.49,-19.29 652.6,-28.1 659.38,-29.85"/>
</g>
<!-- Node24&#45;&gt;Node8 -->
<g id="edge45" class="edge">
<title>Node24&#45;&gt;Node8</title>
<path fill="none" stroke="#63b8ff" d="M586.77,-164.66C577.04,-146.85 554.92,-106.37 542.16,-83.01"/>
<polygon fill="#63b8ff" stroke="#63b8ff" points="545.19,-81.26 537.33,-74.16 539.05,-84.61 545.19,-81.26"/>
</g>
<!-- Node24&#45;&gt;Node9 -->
<g id="edge46" class="edge">
<title>Node24&#45;&gt;Node9</title>
<path fill="none" stroke="#63b8ff" d="M592.91,-164.66C595.5,-147.17 601.33,-107.8 604.82,-84.27"/>
<polygon fill="#63b8ff" stroke="#63b8ff" points="608.31,-84.56 606.32,-74.16 601.39,-83.54 608.31,-84.56"/>
</g>
<!-- Node24&#45;&gt;Node22 -->
<g id="edge41" class="edge">
<title>Node24&#45;&gt;Node22</title>
<path fill="none" stroke="#63b8ff" d="M608.79,-164.98C625.85,-156.54 652.23,-143.47 671.99,-133.68"/>
<polygon fill="#63b8ff" stroke="#63b8ff" points="673.69,-136.75 681.09,-129.17 670.58,-130.47 673.69,-136.75"/>
</g>
</g>
</svg>
