<?xml version="1.0" encoding="UTF-8" standalone="no"?>
<!DOCTYPE svg PUBLIC "-//W3C//DTD SVG 1.1//EN"
 "http://www.w3.org/Graphics/SVG/1.1/DTD/svg11.dtd">
<!-- Generated by graphviz version 2.43.0 (0)
 -->
<!-- Title: TemplateNodeMarkers Pages: 1 -->
<svg width="270pt" height="216pt"
 viewBox="0.00 0.00 269.50 216.00" xmlns="http://www.w3.org/2000/svg" xmlns:xlink="http://www.w3.org/1999/xlink">
<g id="graph0" class="graph" transform="scale(1 1) rotate(0) translate(4 212)">
<title>TemplateNodeMarkers</title>
<!-- Node1 -->
<g id="node1" class="node">
<title>Node1</title>
<g id="a_node1"><a xlink:title="Class representing an &#39;markers&#39; tag in a template.">
<polygon fill="#999999" stroke="#666666" points="137.5,-19 11.5,-19 11.5,0 137.5,0 137.5,-19"/>
<text text-anchor="middle" x="74.5" y="-7" font-family="Helvetica,sans-Serif" font-size="10.00">TemplateNodeMarkers</text>
</a>
</g>
</g>
<!-- Node2 -->
<g id="node2" class="node">
<title>Node2</title>
<g id="a_node2"><a xlink:href="../../d8/d78/class_template_node_creator.html" target="_top" xlink:title=" ">
<polygon fill="white" stroke="#666666" points="149,-86 0,-86 0,-56 149,-56 149,-86"/>
<text text-anchor="start" x="8" y="-74" font-family="Helvetica,sans-Serif" font-size="10.00">TemplateNodeCreator</text>
<text text-anchor="middle" x="74.5" y="-63" font-family="Helvetica,sans-Serif" font-size="10.00">&lt; TemplateNodeMarkers &gt;</text>
</a>
</g>
</g>
<!-- Node2&#45;&gt;Node1 -->
<g id="edge1" class="edge">
<title>Node2&#45;&gt;Node1</title>
<path fill="none" stroke="#63b8ff" d="M74.5,-45.79C74.5,-36.36 74.5,-26.15 74.5,-19.16"/>
<polygon fill="#63b8ff" stroke="#63b8ff" points="71,-45.9 74.5,-55.9 78,-45.9 71,-45.9"/>
</g>
<!-- Node3 -->
<g id="node3" class="node">
<title>Node3</title>
<g id="a_node3"><a xlink:href="../../d6/d53/class_template_node.html" target="_top" xlink:title="Base class of all nodes in a template&#39;s AST.">
<polygon fill="white" stroke="#666666" points="114,-208 27,-208 27,-189 114,-189 114,-208"/>
<text text-anchor="middle" x="70.5" y="-196" font-family="Helvetica,sans-Serif" font-size="10.00">TemplateNode</text>
</a>
</g>
</g>
<!-- Node3&#45;&gt;Node2 -->
<g id="edge2" class="edge">
<title>Node3&#45;&gt;Node2</title>
<path fill="none" stroke="#63b8ff" d="M71.1,-178.76C71.9,-153.48 73.32,-109.02 74.05,-86.27"/>
<polygon fill="#63b8ff" stroke="#63b8ff" points="67.6,-178.77 70.77,-188.87 74.59,-178.99 67.6,-178.77"/>
</g>
<!-- Node4 -->
<g id="node4" class="node">
<title>Node4</title>
<g id="a_node4"><a xlink:href="../../d8/d78/class_template_node_creator.html" target="_top" xlink:title="Helper class for creating template AST tag nodes and returning the template for a given node.">
<polygon fill="white" stroke="#666666" points="238.5,-152 86.5,-152 86.5,-133 238.5,-133 238.5,-152"/>
<text text-anchor="middle" x="162.5" y="-140" font-family="Helvetica,sans-Serif" font-size="10.00">TemplateNodeCreator&lt; T &gt;</text>
</a>
</g>
</g>
<!-- Node3&#45;&gt;Node4 -->
<g id="edge4" class="edge">
<title>Node3&#45;&gt;Node4</title>
<path fill="none" stroke="#63b8ff" d="M94.05,-183.68C110.98,-173.74 133.28,-160.65 147.76,-152.15"/>
<polygon fill="#63b8ff" stroke="#63b8ff" points="92.13,-180.74 85.28,-188.82 95.68,-186.78 92.13,-180.74"/>
</g>
<!-- Node4&#45;&gt;Node2 -->
<g id="edge3" class="edge">
<title>Node4&#45;&gt;Node2</title>
<path fill="none" stroke="orange" stroke-dasharray="5,2" d="M143.56,-126.54C128.4,-114.57 107.28,-97.89 92.4,-86.14"/>
<polygon fill="orange" stroke="orange" points="141.69,-129.53 151.71,-132.98 146.03,-124.03 141.69,-129.53"/>
<text text-anchor="middle" x="193.5" y="-107" font-family="Helvetica,sans-Serif" font-size="10.00" fill="grey"> &lt; TemplateNodeMarkers &gt;</text>
</g>
</g>
</svg>
