<?xml version="1.0" encoding="UTF-8" standalone="no"?>
<!DOCTYPE svg PUBLIC "-//W3C//DTD SVG 1.1//EN"
 "http://www.w3.org/Graphics/SVG/1.1/DTD/svg11.dtd">
<!-- Generated by graphviz version 2.43.0 (0)
 -->
<!-- Title: IncludeInfoContext::Private Pages: 1 -->
<svg width="817pt" height="231pt"
 viewBox="0.00 0.00 817.00 231.00" xmlns="http://www.w3.org/2000/svg" xmlns:xlink="http://www.w3.org/1999/xlink">
<g id="graph0" class="graph" transform="scale(1 1) rotate(0) translate(4 227)">
<title>IncludeInfoContext::Private</title>
<!-- Node1 -->
<g id="node1" class="node">
<title>Node1</title>
<g id="a_node1"><a xlink:title=" ">
<polygon fill="#999999" stroke="#666666" points="809,-113.5 700,-113.5 700,-83.5 809,-83.5 809,-113.5"/>
<text text-anchor="start" x="708" y="-101.5" font-family="Helvetica,sans-Serif" font-size="10.00">IncludeInfoContext</text>
<text text-anchor="middle" x="754.5" y="-90.5" font-family="Helvetica,sans-Serif" font-size="10.00">::Private</text>
</a>
</g>
</g>
<!-- Node2 -->
<g id="node2" class="node">
<title>Node2</title>
<g id="a_node2"><a xlink:href="../../d5/dc1/struct_include_info.html" target="_top" xlink:title="Class representing the data associated with a #include statement.">
<polygon fill="white" stroke="#666666" points="543,-168 472,-168 472,-149 543,-149 543,-168"/>
<text text-anchor="middle" x="507.5" y="-156" font-family="Helvetica,sans-Serif" font-size="10.00">IncludeInfo</text>
</a>
</g>
</g>
<!-- Node2&#45;&gt;Node1 -->
<g id="edge1" class="edge">
<title>Node2&#45;&gt;Node1</title>
<path fill="none" stroke="#9a32cd" stroke-dasharray="5,2" d="M552.85,-147.64C594.11,-137.53 655.67,-122.46 699.72,-111.67"/>
<polygon fill="#9a32cd" stroke="#9a32cd" points="551.96,-144.25 543.08,-150.03 553.63,-151.05 551.96,-144.25"/>
<text text-anchor="middle" x="646" y="-134.5" font-family="Helvetica,sans-Serif" font-size="10.00" fill="grey"> m_info</text>
</g>
<!-- Node3 -->
<g id="node3" class="node">
<title>Node3</title>
<g id="a_node3"><a xlink:href="../../de/db0/class_file_def.html" target="_top" xlink:title="A model of a file symbol.">
<polygon fill="white" stroke="#666666" points="236,-205 185,-205 185,-186 236,-186 236,-205"/>
<text text-anchor="middle" x="210.5" y="-193" font-family="Helvetica,sans-Serif" font-size="10.00">FileDef</text>
</a>
</g>
</g>
<!-- Node3&#45;&gt;Node2 -->
<g id="edge2" class="edge">
<title>Node3&#45;&gt;Node2</title>
<path fill="none" stroke="#9a32cd" stroke-dasharray="5,2" d="M246.49,-191.54C285.26,-187.11 349.64,-179.61 405,-172.5 427.23,-169.65 452.17,-166.21 471.76,-163.46"/>
<polygon fill="#9a32cd" stroke="#9a32cd" points="245.8,-188.1 236.26,-192.71 246.59,-195.05 245.8,-188.1"/>
<text text-anchor="middle" x="351.5" y="-187.5" font-family="Helvetica,sans-Serif" font-size="10.00" fill="grey"> fileDef</text>
</g>
<!-- Node4 -->
<g id="node4" class="node">
<title>Node4</title>
<g id="a_node4"><a xlink:href="../../d0/d46/class_definition_mutable.html" target="_top" xlink:title=" ">
<polygon fill="white" stroke="#666666" points="104,-223 0,-223 0,-204 104,-204 104,-223"/>
<text text-anchor="middle" x="52" y="-211" font-family="Helvetica,sans-Serif" font-size="10.00">DefinitionMutable</text>
</a>
</g>
</g>
<!-- Node4&#45;&gt;Node3 -->
<g id="edge3" class="edge">
<title>Node4&#45;&gt;Node3</title>
<path fill="none" stroke="#63b8ff" d="M114.28,-206.45C138.95,-203.61 165.98,-200.51 184.92,-198.33"/>
<polygon fill="#63b8ff" stroke="#63b8ff" points="113.78,-202.99 104.24,-207.61 114.58,-209.94 113.78,-202.99"/>
</g>
<!-- Node5 -->
<g id="node5" class="node">
<title>Node5</title>
<g id="a_node5"><a xlink:href="../../d5/dcc/class_definition.html" target="_top" xlink:title="The common base class of all entity definitions found in the sources.">
<polygon fill="white" stroke="#666666" points="84,-186 20,-186 20,-167 84,-167 84,-186"/>
<text text-anchor="middle" x="52" y="-174" font-family="Helvetica,sans-Serif" font-size="10.00">Definition</text>
</a>
</g>
</g>
<!-- Node5&#45;&gt;Node3 -->
<g id="edge4" class="edge">
<title>Node5&#45;&gt;Node3</title>
<path fill="none" stroke="#63b8ff" d="M94.48,-181.54C123.3,-185.04 160.73,-189.58 184.94,-192.52"/>
<polygon fill="#63b8ff" stroke="#63b8ff" points="94.64,-178.03 84.29,-180.3 93.8,-184.98 94.64,-178.03"/>
</g>
<!-- Node6 -->
<g id="node6" class="node">
<title>Node6</title>
<g id="a_node6"><a xlink:href="../../d9/d45/class_q_c_string.html" target="_top" xlink:title="This is an alternative implementation of QCString.">
<polygon fill="white" stroke="#666666" points="240,-168 181,-168 181,-149 240,-149 240,-168"/>
<text text-anchor="middle" x="210.5" y="-156" font-family="Helvetica,sans-Serif" font-size="10.00">QCString</text>
</a>
</g>
</g>
<!-- Node6&#45;&gt;Node2 -->
<g id="edge5" class="edge">
<title>Node6&#45;&gt;Node2</title>
<path fill="none" stroke="#9a32cd" stroke-dasharray="5,2" d="M250.24,-158.5C308.07,-158.5 416.09,-158.5 471.6,-158.5"/>
<polygon fill="#9a32cd" stroke="#9a32cd" points="250.05,-155 240.05,-158.5 250.05,-162 250.05,-155"/>
<text text-anchor="middle" x="351.5" y="-161.5" font-family="Helvetica,sans-Serif" font-size="10.00" fill="grey"> includeName</text>
</g>
<!-- Node7 -->
<g id="node7" class="node">
<title>Node7</title>
<g id="a_node7"><a xlink:href="../../d7/dc1/class_cached_item.html" target="_top" xlink:title=" ">
<polygon fill="white" stroke="#666666" points="592,-119 423,-119 423,-78 592,-78 592,-119"/>
<text text-anchor="start" x="431" y="-107" font-family="Helvetica,sans-Serif" font-size="10.00">CachedItem&lt; TemplateVariant,</text>
<text text-anchor="start" x="431" y="-96" font-family="Helvetica,sans-Serif" font-size="10.00"> IncludeInfoContext::Private,</text>
<text text-anchor="middle" x="507.5" y="-85" font-family="Helvetica,sans-Serif" font-size="10.00"> &amp;Private::createFileContext &gt;</text>
</a>
</g>
</g>
<!-- Node7&#45;&gt;Node1 -->
<g id="edge6" class="edge">
<title>Node7&#45;&gt;Node1</title>
<path fill="none" stroke="#9a32cd" stroke-dasharray="5,2" d="M602.27,-98.5C635.27,-98.5 671.23,-98.5 699.8,-98.5"/>
<polygon fill="#9a32cd" stroke="#9a32cd" points="602.13,-95 592.13,-98.5 602.13,-102 602.13,-95"/>
<text text-anchor="middle" x="646" y="-101.5" font-family="Helvetica,sans-Serif" font-size="10.00" fill="grey"> m_fileContext</text>
</g>
<!-- Node8 -->
<g id="node8" class="node">
<title>Node8</title>
<g id="a_node8"><a xlink:href="../../d1/dba/class_template_variant.html" target="_top" xlink:title="Variant type which can hold one value of a fixed set of types.">
<polygon fill="white" stroke="#666666" points="258.5,-131 162.5,-131 162.5,-112 258.5,-112 258.5,-131"/>
<text text-anchor="middle" x="210.5" y="-119" font-family="Helvetica,sans-Serif" font-size="10.00">TemplateVariant</text>
</a>
</g>
</g>
<!-- Node8&#45;&gt;Node7 -->
<g id="edge7" class="edge">
<title>Node8&#45;&gt;Node7</title>
<path fill="none" stroke="#9a32cd" stroke-dasharray="5,2" d="M268.75,-117.04C312.5,-113.63 373.48,-108.87 422.72,-105.03"/>
<polygon fill="#9a32cd" stroke="#9a32cd" points="268.27,-113.56 258.57,-117.83 268.81,-120.54 268.27,-113.56"/>
<text text-anchor="middle" x="351.5" y="-117.5" font-family="Helvetica,sans-Serif" font-size="10.00" fill="grey"> m_item</text>
</g>
<!-- Node9 -->
<g id="node9" class="node">
<title>Node9</title>
<g id="a_node9"><a xlink:href="../../d7/dc1/class_cached_item.html" target="_top" xlink:title="Wrapper for data that needs to be cached.">
<polygon fill="white" stroke="#666666" points="280,-69.5 141,-69.5 141,-39.5 280,-39.5 280,-69.5"/>
<text text-anchor="start" x="149" y="-57.5" font-family="Helvetica,sans-Serif" font-size="10.00">CachedItem&lt; T, TOwner,</text>
<text text-anchor="middle" x="210.5" y="-46.5" font-family="Helvetica,sans-Serif" font-size="10.00"> creator &gt;</text>
</a>
</g>
</g>
<!-- Node9&#45;&gt;Node7 -->
<g id="edge8" class="edge">
<title>Node9&#45;&gt;Node7</title>
<path fill="none" stroke="orange" stroke-dasharray="5,2" d="M290.46,-49.86C325.81,-49.38 367.82,-51.04 405,-58.5 425.06,-62.52 446.25,-70.27 464.06,-77.89"/>
<polygon fill="orange" stroke="orange" points="290.13,-46.36 280.2,-50.06 290.27,-53.36 290.13,-46.36"/>
<text text-anchor="start" x="302.5" y="-94.5" font-family="Helvetica,sans-Serif" font-size="10.00" fill="grey"> &lt; TemplateVariant,</text>
<text text-anchor="start" x="302.5" y="-83.5" font-family="Helvetica,sans-Serif" font-size="10.00" fill="grey"> IncludeInfoContext</text>
<text text-anchor="start" x="302.5" y="-72.5" font-family="Helvetica,sans-Serif" font-size="10.00" fill="grey">::Private, &amp;Private::</text>
<text text-anchor="middle" x="351.5" y="-61.5" font-family="Helvetica,sans-Serif" font-size="10.00" fill="grey">createFileContext &gt;</text>
</g>
<!-- Node10 -->
<g id="node10" class="node">
<title>Node10</title>
<g id="a_node10"><a xlink:href="../../d5/dbf/class_property_map.html" target="_top" xlink:title=" ">
<polygon fill="white" stroke="#666666" points="579.5,-36.5 435.5,-36.5 435.5,-6.5 579.5,-6.5 579.5,-36.5"/>
<text text-anchor="start" x="443.5" y="-24.5" font-family="Helvetica,sans-Serif" font-size="10.00">PropertyMap&lt; IncludeInfo</text>
<text text-anchor="middle" x="507.5" y="-13.5" font-family="Helvetica,sans-Serif" font-size="10.00">Context::Private &gt;</text>
</a>
</g>
</g>
<!-- Node10&#45;&gt;Node1 -->
<g id="edge9" class="edge">
<title>Node10&#45;&gt;Node1</title>
<path fill="none" stroke="#9a32cd" stroke-dasharray="5,2" d="M565.95,-39.55C608.34,-52.88 665.38,-70.8 705.38,-83.38"/>
<polygon fill="#9a32cd" stroke="#9a32cd" points="566.91,-36.19 556.32,-36.53 564.81,-42.87 566.91,-36.19"/>
<text text-anchor="middle" x="646" y="-78.5" font-family="Helvetica,sans-Serif" font-size="10.00" fill="grey"> s_inst</text>
</g>
<!-- Node11 -->
<g id="node11" class="node">
<title>Node11</title>
<g id="a_node11"><a xlink:href="../../d5/dbf/class_property_map.html" target="_top" xlink:title="Class representing a mapping of properties and the corresponding getter function.">
<polygon fill="white" stroke="#666666" points="264,-19 157,-19 157,0 264,0 264,-19"/>
<text text-anchor="middle" x="210.5" y="-7" font-family="Helvetica,sans-Serif" font-size="10.00">PropertyMap&lt; T &gt;</text>
</a>
</g>
</g>
<!-- Node11&#45;&gt;Node10 -->
<g id="edge10" class="edge">
<title>Node11&#45;&gt;Node10</title>
<path fill="none" stroke="orange" stroke-dasharray="5,2" d="M274.47,-8.19C312.33,-7.81 361.47,-8.04 405,-10.5 414.82,-11.06 425.16,-11.89 435.32,-12.85"/>
<polygon fill="orange" stroke="orange" points="274.06,-4.7 264.11,-8.31 274.15,-11.7 274.06,-4.7"/>
<text text-anchor="start" x="298" y="-24.5" font-family="Helvetica,sans-Serif" font-size="10.00" fill="grey"> &lt; IncludeInfoContext</text>
<text text-anchor="middle" x="351.5" y="-13.5" font-family="Helvetica,sans-Serif" font-size="10.00" fill="grey">::Private &gt;</text>
</g>
</g>
</svg>
