<?xml version="1.0" encoding="UTF-8" standalone="no"?>
<!DOCTYPE svg PUBLIC "-//W3C//DTD SVG 1.1//EN"
 "http://www.w3.org/Graphics/SVG/1.1/DTD/svg11.dtd">
<!-- Generated by graphviz version 2.43.0 (0)
 -->
<!-- Title: /home/runner/work/doxygen/doxygen/src/textdocvisitor.h Pages: 1 -->
<!--zoomable 368 -->
<svg id="main" version="1.1" xmlns="http://www.w3.org/2000/svg" xmlns:xlink="http://www.w3.org/1999/xlink" xml:space="preserve" onload="init(evt)">
<style type="text/css"><![CDATA[
.edge:hover path { stroke: red; }
.edge:hover polygon { stroke: red; fill: red; }
]]></style>
<script type="text/javascript"><![CDATA[
var edges = document.getElementsByTagName('g');
if (edges && edges.length) {
  for (var i=0;i<edges.length;i++) {
    if (edges[i].id.substr(0,4)=='edge') {
      edges[i].setAttribute('class','edge');
    }
  }
}
]]></script>
        <defs>
                <circle id="rim" cx="0" cy="0" r="7"/>
                <circle id="rim2" cx="0" cy="0" r="3.5"/>
                <g id="zoomPlus">
                        <use xlink:href="#rim" fill="#404040">
                                <set attributeName="fill" to="#808080" begin="zoomplus.mouseover" end="zoomplus.mouseout"/>
                        </use>
                        <path d="M-4,0h8M0,-4v8" fill="none" stroke="white" stroke-width="1.5" pointer-events="none"/>
                </g>
                <g id="zoomMin">
                        <use xlink:href="#rim" fill="#404040">
                                <set attributeName="fill" to="#808080" begin="zoomminus.mouseover" end="zoomminus.mouseout"/>
                        </use>
                        <path d="M-4,0h8" fill="none" stroke="white" stroke-width="1.5" pointer-events="none"/>
                </g>
                <g id="dirArrow">
                        <path fill="none" stroke="white" stroke-width="1.5" d="M0,-3.0v7 M-2.5,-0.5L0,-3.0L2.5,-0.5"/>
                </g>
               <g id="resetDef">
                       <use xlink:href="#rim2" fill="#404040">
                               <set attributeName="fill" to="#808080" begin="reset.mouseover" end="reset.mouseout"/>
                       </use>
               </g>
        </defs>

<script type="text/javascript">
var viewWidth = 1249;
var viewHeight = 368;
var sectionId = 'dynsection-0';
</script>
<script xlink:href="../../svgpan.js"/>
<svg id="graph" class="graph">
<g id="viewport">
<title>/home/runner/work/doxygen/doxygen/src/textdocvisitor.h</title>
<!-- Node1 -->
<g id="node1" class="node">
<title>Node1</title>
<g id="a_node1"><a xlink:title=" ">
<polygon fill="#999999" stroke="#666666" points="557.91,-360 399.91,-360 399.91,-330 557.91,-330 557.91,-360"/>
<text text-anchor="start" x="407.91" y="-348" font-family="Helvetica,sans-Serif" font-size="10.00">/home/runner/work/doxygen</text>
<text text-anchor="middle" x="478.91" y="-337" font-family="Helvetica,sans-Serif" font-size="10.00">/doxygen/src/textdocvisitor.h</text>
</a>
</g>
</g>
<!-- Node2 -->
<g id="node2" class="node">
<title>Node2</title>
<g id="a_node2"><a xlink:href="../../d7/d5c/qcstring_8h.html" target="_top" xlink:title=" ">
<polygon fill="white" stroke="#666666" points="542.41,-129 477.41,-129 477.41,-110 542.41,-110 542.41,-129"/>
<text text-anchor="middle" x="509.91" y="-117" font-family="Helvetica,sans-Serif" font-size="10.00">qcstring.h</text>
</a>
</g>
</g>
<!-- Node1&#45;&gt;Node2 -->
<g id="edge1" class="edge">
<title>Node1&#45;&gt;Node2</title>
<path fill="none" stroke="#63b8ff" d="M476.96,-329.71C473.26,-298.9 467,-224.19 483.91,-165 486.71,-155.23 492.14,-145.37 497.32,-137.42"/>
<polygon fill="#63b8ff" stroke="#63b8ff" points="500.27,-139.3 503.11,-129.09 494.53,-135.31 500.27,-139.3"/>
</g>
<!-- Node12 -->
<g id="node12" class="node">
<title>Node12</title>
<g id="a_node12"><a xlink:href="../../d2/d3c/docvisitor_8h.html" target="_top" xlink:title=" ">
<polygon fill="white" stroke="#666666" points="581.41,-239 508.41,-239 508.41,-220 581.41,-220 581.41,-239"/>
<text text-anchor="middle" x="544.91" y="-227" font-family="Helvetica,sans-Serif" font-size="10.00">docvisitor.h</text>
</a>
</g>
</g>
<!-- Node1&#45;&gt;Node12 -->
<g id="edge13" class="edge">
<title>Node1&#45;&gt;Node12</title>
<path fill="none" stroke="#63b8ff" d="M487.27,-329.63C499.36,-308.84 521.69,-270.44 534.72,-248.02"/>
<polygon fill="#63b8ff" stroke="#63b8ff" points="537.84,-249.63 539.84,-239.23 531.78,-246.11 537.84,-249.63"/>
</g>
<!-- Node14 -->
<g id="node14" class="node">
<title>Node14</title>
<g id="a_node14"><a xlink:href="../../de/d2b/docnode_8h.html" target="_top" xlink:title=" ">
<polygon fill="white" stroke="#666666" points="834.41,-294 767.41,-294 767.41,-275 834.41,-275 834.41,-294"/>
<text text-anchor="middle" x="800.91" y="-282" font-family="Helvetica,sans-Serif" font-size="10.00">docnode.h</text>
</a>
</g>
</g>
<!-- Node1&#45;&gt;Node14 -->
<g id="edge16" class="edge">
<title>Node1&#45;&gt;Node14</title>
<path fill="none" stroke="#63b8ff" d="M556.04,-329.99C618.88,-318.57 705.36,-302.86 756.96,-293.49"/>
<polygon fill="#63b8ff" stroke="#63b8ff" points="757.89,-296.87 767.11,-291.64 756.64,-289.99 757.89,-296.87"/>
</g>
<!-- Node26 -->
<g id="node26" class="node">
<title>Node26</title>
<g id="a_node26"><a xlink:href="../../d4/d7d/textstream_8h.html" target="_top" xlink:title=" ">
<polygon fill="white" stroke="#666666" points="284.91,-184 204.91,-184 204.91,-165 284.91,-165 284.91,-184"/>
<text text-anchor="middle" x="244.91" y="-172" font-family="Helvetica,sans-Serif" font-size="10.00">textstream.h</text>
</a>
</g>
</g>
<!-- Node1&#45;&gt;Node26 -->
<g id="edge51" class="edge">
<title>Node1&#45;&gt;Node26</title>
<path fill="none" stroke="#63b8ff" d="M450.56,-329.94C432.44,-320.55 408.71,-307.48 388.91,-294 340.13,-260.78 287.82,-214.79 261.73,-191.06"/>
<polygon fill="#63b8ff" stroke="#63b8ff" points="263.95,-188.35 254.22,-184.18 259.23,-193.52 263.95,-188.35"/>
</g>
<!-- Node3 -->
<g id="node3" class="node">
<title>Node3</title>
<g id="a_node3"><a xlink:title=" ">
<polygon fill="#e0e0e0" stroke="#999999" points="711.91,-19 667.91,-19 667.91,0 711.91,0 711.91,-19"/>
<text text-anchor="middle" x="689.91" y="-7" font-family="Helvetica,sans-Serif" font-size="10.00">string</text>
</a>
</g>
</g>
<!-- Node2&#45;&gt;Node3 -->
<g id="edge2" class="edge">
<title>Node2&#45;&gt;Node3</title>
<path fill="none" stroke="#63b8ff" d="M533.79,-109.85C554.59,-101.85 585.21,-88.97 609.91,-74 633.2,-59.89 657.34,-39.86 672.92,-26.09"/>
<polygon fill="#63b8ff" stroke="#63b8ff" points="675.54,-28.44 680.64,-19.16 670.86,-23.23 675.54,-28.44"/>
</g>
<!-- Node4 -->
<g id="node4" class="node">
<title>Node4</title>
<g id="a_node4"><a xlink:title=" ">
<polygon fill="#e0e0e0" stroke="#999999" points="721.91,-74 657.91,-74 657.91,-55 721.91,-55 721.91,-74"/>
<text text-anchor="middle" x="689.91" y="-62" font-family="Helvetica,sans-Serif" font-size="10.00">algorithm</text>
</a>
</g>
</g>
<!-- Node2&#45;&gt;Node4 -->
<g id="edge3" class="edge">
<title>Node2&#45;&gt;Node4</title>
<path fill="none" stroke="#63b8ff" d="M538.83,-109.98C569.18,-101.05 617.08,-86.94 650.79,-77.02"/>
<polygon fill="#63b8ff" stroke="#63b8ff" points="652.16,-80.26 660.77,-74.08 650.19,-73.55 652.16,-80.26"/>
</g>
<!-- Node5 -->
<g id="node5" class="node">
<title>Node5</title>
<g id="a_node5"><a xlink:title=" ">
<polygon fill="#e0e0e0" stroke="#999999" points="827.41,-74 778.41,-74 778.41,-55 827.41,-55 827.41,-74"/>
<text text-anchor="middle" x="802.91" y="-62" font-family="Helvetica,sans-Serif" font-size="10.00">cctype</text>
</a>
</g>
</g>
<!-- Node2&#45;&gt;Node5 -->
<g id="edge4" class="edge">
<title>Node2&#45;&gt;Node5</title>
<path fill="none" stroke="#63b8ff" d="M542.67,-112.57C598.48,-102.48 711.48,-82.04 768.44,-71.74"/>
<polygon fill="#63b8ff" stroke="#63b8ff" points="769.18,-75.16 778.4,-69.93 767.93,-68.27 769.18,-75.16"/>
</g>
<!-- Node6 -->
<g id="node6" class="node">
<title>Node6</title>
<g id="a_node6"><a xlink:title=" ">
<polygon fill="#e0e0e0" stroke="#999999" points="458.91,-74 408.91,-74 408.91,-55 458.91,-55 458.91,-74"/>
<text text-anchor="middle" x="433.91" y="-62" font-family="Helvetica,sans-Serif" font-size="10.00">cstring</text>
</a>
</g>
</g>
<!-- Node2&#45;&gt;Node6 -->
<g id="edge5" class="edge">
<title>Node2&#45;&gt;Node6</title>
<path fill="none" stroke="#63b8ff" d="M497.7,-109.98C486.14,-101.92 468.54,-89.65 454.75,-80.03"/>
<polygon fill="#63b8ff" stroke="#63b8ff" points="456.55,-77.02 446.35,-74.17 452.55,-82.76 456.55,-77.02"/>
</g>
<!-- Node7 -->
<g id="node7" class="node">
<title>Node7</title>
<g id="a_node7"><a xlink:title=" ">
<polygon fill="#e0e0e0" stroke="#999999" points="237.91,-74 191.91,-74 191.91,-55 237.91,-55 237.91,-74"/>
<text text-anchor="middle" x="214.91" y="-62" font-family="Helvetica,sans-Serif" font-size="10.00">cstdio</text>
</a>
</g>
</g>
<!-- Node2&#45;&gt;Node7 -->
<g id="edge6" class="edge">
<title>Node2&#45;&gt;Node7</title>
<path fill="none" stroke="#63b8ff" d="M477.22,-112.63C420.59,-102.45 304.87,-81.66 247.98,-71.44"/>
<polygon fill="#63b8ff" stroke="#63b8ff" points="248.53,-67.98 238.07,-69.66 247.29,-74.87 248.53,-67.98"/>
</g>
<!-- Node8 -->
<g id="node8" class="node">
<title>Node8</title>
<g id="a_node8"><a xlink:title=" ">
<polygon fill="#e0e0e0" stroke="#999999" points="526.41,-74 477.41,-74 477.41,-55 526.41,-55 526.41,-74"/>
<text text-anchor="middle" x="501.91" y="-62" font-family="Helvetica,sans-Serif" font-size="10.00">cstdlib</text>
</a>
</g>
</g>
<!-- Node2&#45;&gt;Node8 -->
<g id="edge7" class="edge">
<title>Node2&#45;&gt;Node8</title>
<path fill="none" stroke="#63b8ff" d="M508.59,-109.75C507.54,-102.8 506.04,-92.85 504.73,-84.13"/>
<polygon fill="#63b8ff" stroke="#63b8ff" points="508.16,-83.45 503.21,-74.09 501.24,-84.5 508.16,-83.45"/>
</g>
<!-- Node9 -->
<g id="node9" class="node">
<title>Node9</title>
<g id="a_node9"><a xlink:title=" ">
<polygon fill="#e0e0e0" stroke="#999999" points="303.91,-19 253.91,-19 253.91,0 303.91,0 303.91,-19"/>
<text text-anchor="middle" x="278.91" y="-7" font-family="Helvetica,sans-Serif" font-size="10.00">cstdint</text>
</a>
</g>
</g>
<!-- Node2&#45;&gt;Node9 -->
<g id="edge8" class="edge">
<title>Node2&#45;&gt;Node9</title>
<path fill="none" stroke="#63b8ff" d="M477.26,-115.85C440.56,-111.64 380.31,-100.91 335.91,-74 316.79,-62.41 300.4,-42.41 290.17,-27.95"/>
<polygon fill="#63b8ff" stroke="#63b8ff" points="292.88,-25.71 284.37,-19.39 287.08,-29.63 292.88,-25.71"/>
</g>
<!-- Node10 -->
<g id="node10" class="node">
<title>Node10</title>
<g id="a_node10"><a xlink:title=" ">
<polygon fill="#e0e0e0" stroke="#999999" points="601.41,-74 544.41,-74 544.41,-55 601.41,-55 601.41,-74"/>
<text text-anchor="middle" x="572.91" y="-62" font-family="Helvetica,sans-Serif" font-size="10.00">ostream</text>
</a>
</g>
</g>
<!-- Node2&#45;&gt;Node10 -->
<g id="edge9" class="edge">
<title>Node2&#45;&gt;Node10</title>
<path fill="none" stroke="#63b8ff" d="M520.04,-109.98C529.35,-102.15 543.38,-90.34 554.65,-80.86"/>
<polygon fill="#63b8ff" stroke="#63b8ff" points="557.21,-83.29 562.61,-74.17 552.7,-77.93 557.21,-83.29"/>
</g>
<!-- Node11 -->
<g id="node11" class="node">
<title>Node11</title>
<g id="a_node11"><a xlink:href="../../db/d7c/utf8_8h.html" target="_top" xlink:title="Various UTF8 related helper functions.">
<polygon fill="white" stroke="#666666" points="390.41,-74 345.41,-74 345.41,-55 390.41,-55 390.41,-74"/>
<text text-anchor="middle" x="367.91" y="-62" font-family="Helvetica,sans-Serif" font-size="10.00">utf8.h</text>
</a>
</g>
</g>
<!-- Node2&#45;&gt;Node11 -->
<g id="edge10" class="edge">
<title>Node2&#45;&gt;Node11</title>
<path fill="none" stroke="#63b8ff" d="M487.1,-109.98C463.6,-101.21 426.77,-87.47 400.27,-77.58"/>
<polygon fill="#63b8ff" stroke="#63b8ff" points="401.26,-74.21 390.67,-73.99 398.82,-80.77 401.26,-74.21"/>
</g>
<!-- Node11&#45;&gt;Node3 -->
<g id="edge12" class="edge">
<title>Node11&#45;&gt;Node3</title>
<path fill="none" stroke="#63b8ff" d="M390.57,-57.16C393.69,-56.38 396.88,-55.63 399.91,-55 492.7,-35.62 603.83,-20.9 657.61,-14.31"/>
<polygon fill="#63b8ff" stroke="#63b8ff" points="658.07,-17.78 667.57,-13.1 657.23,-10.83 658.07,-17.78"/>
</g>
<!-- Node11&#45;&gt;Node9 -->
<g id="edge11" class="edge">
<title>Node11&#45;&gt;Node9</title>
<path fill="none" stroke="#63b8ff" d="M353.61,-54.98C339.81,-46.77 318.67,-34.18 302.4,-24.49"/>
<polygon fill="#63b8ff" stroke="#63b8ff" points="303.86,-21.28 293.47,-19.17 300.27,-27.29 303.86,-21.28"/>
</g>
<!-- Node12&#45;&gt;Node2 -->
<g id="edge15" class="edge">
<title>Node12&#45;&gt;Node2</title>
<path fill="none" stroke="#63b8ff" d="M532.7,-219.86C522.57,-211.88 508.88,-199.01 502.91,-184 497.15,-169.51 499.83,-151.77 503.42,-138.74"/>
<polygon fill="#63b8ff" stroke="#63b8ff" points="506.8,-139.65 506.48,-129.06 500.13,-137.54 506.8,-139.65"/>
</g>
<!-- Node13 -->
<g id="node13" class="node">
<title>Node13</title>
<g id="a_node13"><a xlink:title=" ">
<polygon fill="#e0e0e0" stroke="#999999" points="1055.91,-129 997.91,-129 997.91,-110 1055.91,-110 1055.91,-129"/>
<text text-anchor="middle" x="1026.91" y="-117" font-family="Helvetica,sans-Serif" font-size="10.00">memory</text>
</a>
</g>
</g>
<!-- Node12&#45;&gt;Node13 -->
<g id="edge14" class="edge">
<title>Node12&#45;&gt;Node13</title>
<path fill="none" stroke="#63b8ff" d="M581.5,-225.29C658.52,-218.3 835.04,-200.95 892.91,-184 933.84,-172.02 977.91,-148.95 1003.92,-134.17"/>
<polygon fill="#63b8ff" stroke="#63b8ff" points="1005.73,-137.16 1012.64,-129.13 1002.23,-131.1 1005.73,-137.16"/>
</g>
<!-- Node14&#45;&gt;Node2 -->
<g id="edge21" class="edge">
<title>Node14&#45;&gt;Node2</title>
<path fill="none" stroke="#63b8ff" d="M767.15,-283.65C696,-283.2 534.32,-277.81 498.91,-239 473.83,-211.5 489.5,-164.01 500.99,-138.29"/>
<polygon fill="#63b8ff" stroke="#63b8ff" points="504.27,-139.55 505.38,-129.01 497.94,-136.55 504.27,-139.55"/>
</g>
<!-- Node14&#45;&gt;Node12 -->
<g id="edge22" class="edge">
<title>Node14&#45;&gt;Node12</title>
<path fill="none" stroke="#63b8ff" d="M767.18,-276.52C722.22,-267.21 642.42,-250.69 591.67,-240.18"/>
<polygon fill="#63b8ff" stroke="#63b8ff" points="592.12,-236.7 581.62,-238.1 590.7,-243.55 592.12,-236.7"/>
</g>
<!-- Node14&#45;&gt;Node13 -->
<g id="edge19" class="edge">
<title>Node14&#45;&gt;Node13</title>
<path fill="none" stroke="#63b8ff" d="M822.12,-274.87C840.91,-266.8 868.72,-253.79 890.91,-239 938.44,-207.32 987.27,-160.63 1011.43,-136.4"/>
<polygon fill="#63b8ff" stroke="#63b8ff" points="1014.11,-138.68 1018.64,-129.1 1009.13,-133.76 1014.11,-138.68"/>
</g>
<!-- Node15 -->
<g id="node15" class="node">
<title>Node15</title>
<g id="a_node15"><a xlink:title=" ">
<polygon fill="#e0e0e0" stroke="#999999" points="1142.91,-184 1092.91,-184 1092.91,-165 1142.91,-165 1142.91,-184"/>
<text text-anchor="middle" x="1117.91" y="-172" font-family="Helvetica,sans-Serif" font-size="10.00">stdio.h</text>
</a>
</g>
</g>
<!-- Node14&#45;&gt;Node15 -->
<g id="edge17" class="edge">
<title>Node14&#45;&gt;Node15</title>
<path fill="none" stroke="#63b8ff" d="M834.52,-281.54C915.86,-276.45 1118.07,-261.63 1137.91,-239 1149.29,-226.02 1140.59,-206.59 1131.37,-192.64"/>
<polygon fill="#63b8ff" stroke="#63b8ff" points="1134.12,-190.46 1125.44,-184.38 1128.43,-194.55 1134.12,-190.46"/>
</g>
<!-- Node16 -->
<g id="node16" class="node">
<title>Node16</title>
<g id="a_node16"><a xlink:title=" ">
<polygon fill="#e0e0e0" stroke="#999999" points="931.41,-129 884.41,-129 884.41,-110 931.41,-110 931.41,-129"/>
<text text-anchor="middle" x="907.91" y="-117" font-family="Helvetica,sans-Serif" font-size="10.00">vector</text>
</a>
</g>
</g>
<!-- Node14&#45;&gt;Node16 -->
<g id="edge18" class="edge">
<title>Node14&#45;&gt;Node16</title>
<path fill="none" stroke="#63b8ff" d="M820.47,-274.91C835.71,-267.35 856.46,-255.07 869.91,-239 894.33,-209.84 903.13,-164.75 906.25,-139.43"/>
<polygon fill="#63b8ff" stroke="#63b8ff" points="909.75,-139.62 907.32,-129.31 902.79,-138.89 909.75,-139.62"/>
</g>
<!-- Node17 -->
<g id="node17" class="node">
<title>Node17</title>
<g id="a_node17"><a xlink:title=" ">
<polygon fill="#e0e0e0" stroke="#999999" points="743.41,-239 692.41,-239 692.41,-220 743.41,-220 743.41,-239"/>
<text text-anchor="middle" x="717.91" y="-227" font-family="Helvetica,sans-Serif" font-size="10.00">variant</text>
</a>
</g>
</g>
<!-- Node14&#45;&gt;Node17 -->
<g id="edge20" class="edge">
<title>Node14&#45;&gt;Node17</title>
<path fill="none" stroke="#63b8ff" d="M787.58,-274.98C774.83,-266.84 755.36,-254.41 740.24,-244.76"/>
<polygon fill="#63b8ff" stroke="#63b8ff" points="741.8,-241.6 731.49,-239.17 738.04,-247.5 741.8,-241.6"/>
</g>
<!-- Node18 -->
<g id="node18" class="node">
<title>Node18</title>
<g id="a_node18"><a xlink:href="../../de/d9c/docparser_8h.html" target="_top" xlink:title=" ">
<polygon fill="white" stroke="#666666" points="1128.41,-239 1055.41,-239 1055.41,-220 1128.41,-220 1128.41,-239"/>
<text text-anchor="middle" x="1091.91" y="-227" font-family="Helvetica,sans-Serif" font-size="10.00">docparser.h</text>
</a>
</g>
</g>
<!-- Node14&#45;&gt;Node18 -->
<g id="edge23" class="edge">
<title>Node14&#45;&gt;Node18</title>
<path fill="none" stroke="#63b8ff" d="M834.58,-277.37C886.52,-267.91 986.33,-249.73 1045.22,-239"/>
<polygon fill="#63b8ff" stroke="#63b8ff" points="1046.15,-242.39 1055.36,-237.16 1044.9,-235.51 1046.15,-242.39"/>
</g>
<!-- Node19 -->
<g id="node19" class="node">
<title>Node19</title>
<g id="a_node19"><a xlink:href="../../d7/d50/growvector_8h.html" target="_top" xlink:title=" ">
<polygon fill="white" stroke="#666666" points="1240.91,-184 1160.91,-184 1160.91,-165 1240.91,-165 1240.91,-184"/>
<text text-anchor="middle" x="1200.91" y="-172" font-family="Helvetica,sans-Serif" font-size="10.00">growvector.h</text>
</a>
</g>
</g>
<!-- Node14&#45;&gt;Node19 -->
<g id="edge38" class="edge">
<title>Node14&#45;&gt;Node19</title>
<path fill="none" stroke="#63b8ff" d="M834.51,-282.59C911.88,-279.98 1100.14,-270.47 1153.91,-239 1171.8,-228.53 1184.95,-208.29 1192.72,-193.47"/>
<polygon fill="#63b8ff" stroke="#63b8ff" points="1195.98,-194.78 1197.23,-184.26 1189.69,-191.7 1195.98,-194.78"/>
</g>
<!-- Node21 -->
<g id="node21" class="node">
<title>Node21</title>
<g id="a_node21"><a xlink:href="../../d0/d73/htmlattrib_8h.html" target="_top" xlink:title=" ">
<polygon fill="white" stroke="#666666" points="750.91,-184 676.91,-184 676.91,-165 750.91,-165 750.91,-184"/>
<text text-anchor="middle" x="713.91" y="-172" font-family="Helvetica,sans-Serif" font-size="10.00">htmlattrib.h</text>
</a>
</g>
</g>
<!-- Node14&#45;&gt;Node21 -->
<g id="edge31" class="edge">
<title>Node14&#45;&gt;Node21</title>
<path fill="none" stroke="#63b8ff" d="M794.39,-274.77C785.12,-262.43 767.54,-239.24 751.91,-220 744.23,-210.54 735.4,-200.17 728.19,-191.82"/>
<polygon fill="#63b8ff" stroke="#63b8ff" points="730.82,-189.51 721.61,-184.26 725.53,-194.1 730.82,-189.51"/>
</g>
<!-- Node22 -->
<g id="node22" class="node">
<title>Node22</title>
<g id="a_node22"><a xlink:href="../../db/dc6/htmlentity_8h.html" target="_top" xlink:title=" ">
<polygon fill="white" stroke="#666666" points="658.41,-184 583.41,-184 583.41,-165 658.41,-165 658.41,-184"/>
<text text-anchor="middle" x="620.91" y="-172" font-family="Helvetica,sans-Serif" font-size="10.00">htmlentity.h</text>
</a>
</g>
</g>
<!-- Node14&#45;&gt;Node22 -->
<g id="edge34" class="edge">
<title>Node14&#45;&gt;Node22</title>
<path fill="none" stroke="#63b8ff" d="M767.3,-275.08C742.63,-267.93 709.03,-256.07 682.91,-239 663.26,-226.15 645.04,-206.1 633.51,-191.98"/>
<polygon fill="#63b8ff" stroke="#63b8ff" points="636.19,-189.73 627.24,-184.06 630.7,-194.07 636.19,-189.73"/>
</g>
<!-- Node24 -->
<g id="node24" class="node">
<title>Node24</title>
<g id="a_node24"><a xlink:href="../../d1/d2a/section_8h.html" target="_top" xlink:title=" ">
<polygon fill="white" stroke="#666666" points="861.41,-239 800.41,-239 800.41,-220 861.41,-220 861.41,-239"/>
<text text-anchor="middle" x="830.91" y="-227" font-family="Helvetica,sans-Serif" font-size="10.00">section.h</text>
</a>
</g>
</g>
<!-- Node14&#45;&gt;Node24 -->
<g id="edge39" class="edge">
<title>Node14&#45;&gt;Node24</title>
<path fill="none" stroke="#63b8ff" d="M805.87,-274.75C809.97,-267.49 815.94,-256.95 821.02,-247.98"/>
<polygon fill="#63b8ff" stroke="#63b8ff" points="824.17,-249.52 826.05,-239.09 818.08,-246.07 824.17,-249.52"/>
</g>
<!-- Node18&#45;&gt;Node2 -->
<g id="edge26" class="edge">
<title>Node18&#45;&gt;Node2</title>
<path fill="none" stroke="#63b8ff" d="M1055.11,-226.79C944.08,-221.43 617.33,-204.1 573.91,-184 552.04,-173.87 533.31,-152.94 521.87,-137.88"/>
<polygon fill="#63b8ff" stroke="#63b8ff" points="524.43,-135.44 515.73,-129.4 518.76,-139.55 524.43,-135.44"/>
</g>
<!-- Node18&#45;&gt;Node13 -->
<g id="edge25" class="edge">
<title>Node18&#45;&gt;Node13</title>
<path fill="none" stroke="#63b8ff" d="M1086.59,-219.66C1075.88,-201.85 1051.51,-161.37 1037.45,-138.01"/>
<polygon fill="#63b8ff" stroke="#63b8ff" points="1040.28,-135.92 1032.12,-129.16 1034.28,-139.53 1040.28,-135.92"/>
</g>
<!-- Node18&#45;&gt;Node15 -->
<g id="edge24" class="edge">
<title>Node18&#45;&gt;Node15</title>
<path fill="none" stroke="#63b8ff" d="M1096.21,-219.75C1099.73,-212.57 1104.83,-202.18 1109.2,-193.27"/>
<polygon fill="#63b8ff" stroke="#63b8ff" points="1112.44,-194.61 1113.7,-184.09 1106.15,-191.53 1112.44,-194.61"/>
</g>
<!-- Node18&#45;&gt;Node19 -->
<g id="edge27" class="edge">
<title>Node18&#45;&gt;Node19</title>
<path fill="none" stroke="#63b8ff" d="M1109.43,-219.98C1126.88,-211.5 1153.92,-198.35 1174.09,-188.54"/>
<polygon fill="#63b8ff" stroke="#63b8ff" points="1175.62,-191.69 1183.08,-184.17 1172.56,-185.4 1175.62,-191.69"/>
</g>
<!-- Node19&#45;&gt;Node13 -->
<g id="edge29" class="edge">
<title>Node19&#45;&gt;Node13</title>
<path fill="none" stroke="#63b8ff" d="M1172.96,-164.98C1143.62,-156.05 1097.32,-141.94 1064.73,-132.02"/>
<polygon fill="#63b8ff" stroke="#63b8ff" points="1065.67,-128.65 1055.09,-129.08 1063.63,-135.34 1065.67,-128.65"/>
</g>
<!-- Node19&#45;&gt;Node16 -->
<g id="edge28" class="edge">
<title>Node19&#45;&gt;Node16</title>
<path fill="none" stroke="#63b8ff" d="M1160.79,-166.24C1102.6,-155.72 995.84,-136.41 941.55,-126.58"/>
<polygon fill="#63b8ff" stroke="#63b8ff" points="941.88,-123.09 931.41,-124.75 940.63,-129.98 941.88,-123.09"/>
</g>
<!-- Node20 -->
<g id="node20" class="node">
<title>Node20</title>
<g id="a_node20"><a xlink:title=" ">
<polygon fill="#e0e0e0" stroke="#999999" points="1227.41,-129 1174.41,-129 1174.41,-110 1227.41,-110 1227.41,-129"/>
<text text-anchor="middle" x="1200.91" y="-117" font-family="Helvetica,sans-Serif" font-size="10.00">iterator</text>
</a>
</g>
</g>
<!-- Node19&#45;&gt;Node20 -->
<g id="edge30" class="edge">
<title>Node19&#45;&gt;Node20</title>
<path fill="none" stroke="#63b8ff" d="M1200.91,-164.75C1200.91,-157.8 1200.91,-147.85 1200.91,-139.13"/>
<polygon fill="#63b8ff" stroke="#63b8ff" points="1204.41,-139.09 1200.91,-129.09 1197.41,-139.09 1204.41,-139.09"/>
</g>
<!-- Node21&#45;&gt;Node2 -->
<g id="edge33" class="edge">
<title>Node21&#45;&gt;Node2</title>
<path fill="none" stroke="#63b8ff" d="M681.14,-164.98C646.19,-155.91 590.72,-141.49 552.43,-131.55"/>
<polygon fill="#63b8ff" stroke="#63b8ff" points="553.17,-128.12 542.61,-128.99 551.41,-134.9 553.17,-128.12"/>
</g>
<!-- Node21&#45;&gt;Node16 -->
<g id="edge32" class="edge">
<title>Node21&#45;&gt;Node16</title>
<path fill="none" stroke="#63b8ff" d="M745.08,-164.98C780.52,-155.3 838.16,-139.56 874.51,-129.63"/>
<polygon fill="#63b8ff" stroke="#63b8ff" points="875.43,-133 884.16,-126.99 873.59,-126.25 875.43,-133"/>
</g>
<!-- Node22&#45;&gt;Node2 -->
<g id="edge37" class="edge">
<title>Node22&#45;&gt;Node2</title>
<path fill="none" stroke="#63b8ff" d="M603.08,-164.98C585.3,-156.5 557.77,-143.35 537.23,-133.54"/>
<polygon fill="#63b8ff" stroke="#63b8ff" points="538.6,-130.32 528.07,-129.17 535.59,-136.64 538.6,-130.32"/>
</g>
<!-- Node22&#45;&gt;Node3 -->
<g id="edge36" class="edge">
<title>Node22&#45;&gt;Node3</title>
<path fill="none" stroke="#63b8ff" d="M622.59,-164.97C625.62,-151.61 633.22,-125.66 648.91,-110 677.08,-81.88 709.15,-107.32 730.91,-74 741.69,-57.5 725.71,-38.5 710.66,-25.62"/>
<polygon fill="#63b8ff" stroke="#63b8ff" points="712.56,-22.66 702.57,-19.15 708.19,-28.13 712.56,-22.66"/>
</g>
<!-- Node23 -->
<g id="node23" class="node">
<title>Node23</title>
<g id="a_node23"><a xlink:title=" ">
<polygon fill="#e0e0e0" stroke="#999999" points="751.41,-129 658.41,-129 658.41,-110 751.41,-110 751.41,-129"/>
<text text-anchor="middle" x="704.91" y="-117" font-family="Helvetica,sans-Serif" font-size="10.00">unordered_map</text>
</a>
</g>
</g>
<!-- Node22&#45;&gt;Node23 -->
<g id="edge35" class="edge">
<title>Node22&#45;&gt;Node23</title>
<path fill="none" stroke="#63b8ff" d="M634.41,-164.98C647.31,-156.84 667.02,-144.41 682.31,-134.76"/>
<polygon fill="#63b8ff" stroke="#63b8ff" points="684.58,-137.47 691.17,-129.17 680.85,-131.55 684.58,-137.47"/>
</g>
<!-- Node24&#45;&gt;Node2 -->
<g id="edge42" class="edge">
<title>Node24&#45;&gt;Node2</title>
<path fill="none" stroke="#63b8ff" d="M800.38,-224.59C728.01,-215.21 551.34,-191.67 540.91,-184 526.27,-173.22 518.19,-153.64 513.98,-139.06"/>
<polygon fill="#63b8ff" stroke="#63b8ff" points="517.32,-137.95 511.48,-129.11 510.53,-139.67 517.32,-137.95"/>
</g>
<!-- Node24&#45;&gt;Node3 -->
<g id="edge40" class="edge">
<title>Node24&#45;&gt;Node3</title>
<path fill="none" stroke="#63b8ff" d="M850.36,-219.97C888.23,-202.05 965.97,-158.2 939.91,-110 897.57,-31.66 779.66,-14.82 722.2,-11.33"/>
<polygon fill="#63b8ff" stroke="#63b8ff" points="722.38,-7.83 712.21,-10.82 722.02,-14.82 722.38,-7.83"/>
</g>
<!-- Node24&#45;&gt;Node23 -->
<g id="edge41" class="edge">
<title>Node24&#45;&gt;Node23</title>
<path fill="none" stroke="#63b8ff" d="M821.4,-219.72C807.9,-207.32 782.33,-184.08 759.91,-165 748.1,-154.95 734.57,-143.99 723.88,-135.46"/>
<polygon fill="#63b8ff" stroke="#63b8ff" points="726.01,-132.69 716,-129.21 721.65,-138.17 726.01,-132.69"/>
</g>
<!-- Node25 -->
<g id="node25" class="node">
<title>Node25</title>
<g id="a_node25"><a xlink:href="../../da/de1/linkedmap_8h.html" target="_top" xlink:title=" ">
<polygon fill="white" stroke="#666666" points="884.41,-184 807.41,-184 807.41,-165 884.41,-165 884.41,-184"/>
<text text-anchor="middle" x="845.91" y="-172" font-family="Helvetica,sans-Serif" font-size="10.00">linkedmap.h</text>
</a>
</g>
</g>
<!-- Node24&#45;&gt;Node25 -->
<g id="edge43" class="edge">
<title>Node24&#45;&gt;Node25</title>
<path fill="none" stroke="#63b8ff" d="M833.39,-219.75C835.38,-212.72 838.24,-202.62 840.72,-193.84"/>
<polygon fill="#63b8ff" stroke="#63b8ff" points="844.13,-194.66 843.48,-184.09 837.39,-192.76 844.13,-194.66"/>
</g>
<!-- Node25&#45;&gt;Node2 -->
<g id="edge50" class="edge">
<title>Node25&#45;&gt;Node2</title>
<path fill="none" stroke="#63b8ff" d="M807.37,-167.42C744.05,-157.43 618.47,-137.62 552.56,-127.23"/>
<polygon fill="#63b8ff" stroke="#63b8ff" points="552.94,-123.74 542.52,-125.64 551.85,-130.66 552.94,-123.74"/>
</g>
<!-- Node25&#45;&gt;Node3 -->
<g id="edge47" class="edge">
<title>Node25&#45;&gt;Node3</title>
<path fill="none" stroke="#63b8ff" d="M848.12,-164.87C853.02,-143.56 862.38,-87.76 835.91,-55 808.64,-21.24 756.51,-12.47 722.49,-10.52"/>
<polygon fill="#63b8ff" stroke="#63b8ff" points="722.26,-7.01 712.13,-10.11 721.98,-14 722.26,-7.01"/>
</g>
<!-- Node25&#45;&gt;Node4 -->
<g id="edge48" class="edge">
<title>Node25&#45;&gt;Node4</title>
<path fill="none" stroke="#63b8ff" d="M834.69,-164.82C818.44,-152.35 787.31,-128.79 759.91,-110 744.47,-99.41 726.66,-88.1 712.87,-79.53"/>
<polygon fill="#63b8ff" stroke="#63b8ff" points="714.39,-76.36 704.05,-74.08 710.72,-82.31 714.39,-76.36"/>
</g>
<!-- Node25&#45;&gt;Node5 -->
<g id="edge49" class="edge">
<title>Node25&#45;&gt;Node5</title>
<path fill="none" stroke="#63b8ff" d="M842.39,-164.66C835.37,-147.01 819.47,-107.09 810.13,-83.64"/>
<polygon fill="#63b8ff" stroke="#63b8ff" points="813.31,-82.15 806.36,-74.16 806.81,-84.74 813.31,-82.15"/>
</g>
<!-- Node25&#45;&gt;Node13 -->
<g id="edge46" class="edge">
<title>Node25&#45;&gt;Node13</title>
<path fill="none" stroke="#63b8ff" d="M874.99,-164.98C905.6,-156.02 953.96,-141.86 987.88,-131.93"/>
<polygon fill="#63b8ff" stroke="#63b8ff" points="989.29,-135.16 997.9,-128.99 987.32,-128.45 989.29,-135.16"/>
</g>
<!-- Node25&#45;&gt;Node16 -->
<g id="edge45" class="edge">
<title>Node25&#45;&gt;Node16</title>
<path fill="none" stroke="#63b8ff" d="M855.87,-164.98C865.04,-157.15 878.85,-145.34 889.94,-135.86"/>
<polygon fill="#63b8ff" stroke="#63b8ff" points="892.44,-138.33 897.77,-129.17 887.9,-133.01 892.44,-138.33"/>
</g>
<!-- Node25&#45;&gt;Node23 -->
<g id="edge44" class="edge">
<title>Node25&#45;&gt;Node23</title>
<path fill="none" stroke="#63b8ff" d="M823.26,-164.98C800.07,-156.27 763.79,-142.63 737.51,-132.75"/>
<polygon fill="#63b8ff" stroke="#63b8ff" points="738.57,-129.41 727.98,-129.17 736.11,-135.97 738.57,-129.41"/>
</g>
<!-- Node26&#45;&gt;Node2 -->
<g id="edge59" class="edge">
<title>Node26&#45;&gt;Node2</title>
<path fill="none" stroke="#63b8ff" d="M285.16,-165.45C334.33,-155.62 417.15,-139.05 467.35,-129.01"/>
<polygon fill="#63b8ff" stroke="#63b8ff" points="468.12,-132.43 477.24,-127.03 466.75,-125.56 468.12,-132.43"/>
</g>
<!-- Node26&#45;&gt;Node3 -->
<g id="edge52" class="edge">
<title>Node26&#45;&gt;Node3</title>
<path fill="none" stroke="#63b8ff" d="M284.99,-168.53C309.63,-163.17 339.37,-152.06 354.91,-129 373.89,-100.85 313.45,-80.46 335.91,-55 357.06,-31.03 574.33,-16.78 657.64,-12.16"/>
<polygon fill="#63b8ff" stroke="#63b8ff" points="658,-15.65 667.79,-11.61 657.62,-8.66 658,-15.65"/>
</g>
<!-- Node26&#45;&gt;Node7 -->
<g id="edge56" class="edge">
<title>Node26&#45;&gt;Node7</title>
<path fill="none" stroke="#63b8ff" d="M204.78,-169.39C178.73,-164.4 146.61,-153.37 129.91,-129 113.05,-104.39 151.55,-85.5 182.11,-74.95"/>
<polygon fill="#63b8ff" stroke="#63b8ff" points="183.26,-78.25 191.67,-71.82 181.08,-71.6 183.26,-78.25"/>
</g>
<!-- Node26&#45;&gt;Node9 -->
<g id="edge55" class="edge">
<title>Node26&#45;&gt;Node9</title>
<path fill="none" stroke="#63b8ff" d="M204.89,-172.09C143.12,-168.97 29.02,-159.17 3.91,-129 -1.49,-122.51 -0.94,-116.91 3.91,-110 58.93,-31.58 182.22,-14.71 243.27,-11.25"/>
<polygon fill="#63b8ff" stroke="#63b8ff" points="243.74,-14.74 253.57,-10.77 243.41,-7.74 243.74,-14.74"/>
</g>
<!-- Node27 -->
<g id="node27" class="node">
<title>Node27</title>
<g id="a_node27"><a xlink:title=" ">
<polygon fill="#e0e0e0" stroke="#999999" points="198.91,-129 138.91,-129 138.91,-110 198.91,-110 198.91,-129"/>
<text text-anchor="middle" x="168.91" y="-117" font-family="Helvetica,sans-Serif" font-size="10.00">iostream</text>
</a>
</g>
</g>
<!-- Node26&#45;&gt;Node27 -->
<g id="edge53" class="edge">
<title>Node26&#45;&gt;Node27</title>
<path fill="none" stroke="#63b8ff" d="M232.7,-164.98C221.14,-156.92 203.54,-144.65 189.75,-135.03"/>
<polygon fill="#63b8ff" stroke="#63b8ff" points="191.55,-132.02 181.35,-129.17 187.55,-137.76 191.55,-132.02"/>
</g>
<!-- Node28 -->
<g id="node28" class="node">
<title>Node28</title>
<g id="a_node28"><a xlink:title=" ">
<polygon fill="#e0e0e0" stroke="#999999" points="272.91,-129 216.91,-129 216.91,-110 272.91,-110 272.91,-129"/>
<text text-anchor="middle" x="244.91" y="-117" font-family="Helvetica,sans-Serif" font-size="10.00">sstream</text>
</a>
</g>
</g>
<!-- Node26&#45;&gt;Node28 -->
<g id="edge54" class="edge">
<title>Node26&#45;&gt;Node28</title>
<path fill="none" stroke="#63b8ff" d="M244.91,-164.75C244.91,-157.8 244.91,-147.85 244.91,-139.13"/>
<polygon fill="#63b8ff" stroke="#63b8ff" points="248.41,-139.09 244.91,-129.09 241.41,-139.09 248.41,-139.09"/>
</g>
<!-- Node29 -->
<g id="node29" class="node">
<title>Node29</title>
<g id="a_node29"><a xlink:title=" ">
<polygon fill="#e0e0e0" stroke="#999999" points="346.41,-129 291.41,-129 291.41,-110 346.41,-110 346.41,-129"/>
<text text-anchor="middle" x="318.91" y="-117" font-family="Helvetica,sans-Serif" font-size="10.00">fstream</text>
</a>
</g>
</g>
<!-- Node26&#45;&gt;Node29 -->
<g id="edge57" class="edge">
<title>Node26&#45;&gt;Node29</title>
<path fill="none" stroke="#63b8ff" d="M256.8,-164.98C268.06,-156.92 285.2,-144.65 298.62,-135.03"/>
<polygon fill="#63b8ff" stroke="#63b8ff" points="300.72,-137.84 306.81,-129.17 296.64,-132.15 300.72,-137.84"/>
</g>
<!-- Node30 -->
<g id="node30" class="node">
<title>Node30</title>
<g id="a_node30"><a xlink:title=" ">
<polygon fill="#e0e0e0" stroke="#999999" points="82.41,-129 13.41,-129 13.41,-110 82.41,-110 82.41,-129"/>
<text text-anchor="middle" x="47.91" y="-117" font-family="Helvetica,sans-Serif" font-size="10.00">type_traits</text>
</a>
</g>
</g>
<!-- Node26&#45;&gt;Node30 -->
<g id="edge58" class="edge">
<title>Node26&#45;&gt;Node30</title>
<path fill="none" stroke="#63b8ff" d="M213.26,-164.98C179.76,-155.97 126.72,-141.7 89.78,-131.76"/>
<polygon fill="#63b8ff" stroke="#63b8ff" points="90.38,-128.3 79.81,-129.08 88.56,-135.06 90.38,-128.3"/>
</g>
</g>
</svg>
        <g id="navigator" transform="translate(0 0)" fill="#404254">
                <rect fill="#f2f5e9" fill-opacity="0.5" stroke="#606060" stroke-width=".5" x="0" y="0" width="60" height="60"/>
                <use id="zoomplus" xlink:href="#zoomPlus" x="17" y="9" onmousedown="handleZoom(evt,'in')"/>
                <use id="zoomminus" xlink:href="#zoomMin" x="42" y="9" onmousedown="handleZoom(evt,'out')"/>
                <use id="reset" xlink:href="#resetDef" x="30" y="36" onmousedown="handleReset()"/>
                <g id="arrowUp" xlink:href="#dirArrow" transform="translate(30 24)" onmousedown="handlePan(0,-1)">
                  <use xlink:href="#rim" fill="#404040">
                        <set attributeName="fill" to="#808080" begin="arrowUp.mouseover" end="arrowUp.mouseout"/>
                  </use>
                  <path fill="none" stroke="white" stroke-width="1.5" d="M0,-3.0v7 M-2.5,-0.5L0,-3.0L2.5,-0.5"/>
                </g>
                <g id="arrowRight" xlink:href="#dirArrow" transform="rotate(90) translate(36 -43)" onmousedown="handlePan(1,0)">
                  <use xlink:href="#rim" fill="#404040">
                        <set attributeName="fill" to="#808080" begin="arrowRight.mouseover" end="arrowRight.mouseout"/>
                  </use>
                  <path fill="none" stroke="white" stroke-width="1.5" d="M0,-3.0v7 M-2.5,-0.5L0,-3.0L2.5,-0.5"/>
                </g>
                <g id="arrowDown" xlink:href="#dirArrow" transform="rotate(180) translate(-30 -48)" onmousedown="handlePan(0,1)">
                  <use xlink:href="#rim" fill="#404040">
                        <set attributeName="fill" to="#808080" begin="arrowDown.mouseover" end="arrowDown.mouseout"/>
                  </use>
                  <path fill="none" stroke="white" stroke-width="1.5" d="M0,-3.0v7 M-2.5,-0.5L0,-3.0L2.5,-0.5"/>
                </g>
                <g id="arrowLeft" xlink:href="#dirArrow" transform="rotate(270) translate(-36 17)" onmousedown="handlePan(-1,0)">
                  <use xlink:href="#rim" fill="#404040">
                        <set attributeName="fill" to="#808080" begin="arrowLeft.mouseover" end="arrowLeft.mouseout"/>
                  </use>
                  <path fill="none" stroke="white" stroke-width="1.5" d="M0,-3.0v7 M-2.5,-0.5L0,-3.0L2.5,-0.5"/>
                </g>
        </g>
        <svg viewBox="0 0 15 15" width="100%" height="30px" preserveAspectRatio="xMaxYMin meet">
         <g id="arrow_out" transform="scale(0.3 0.3)">
          <a xlink:href="textdocvisitor_8h__incl_org.svg" target="_base">
           <rect id="button" ry="5" rx="5" y="6" x="6" height="38" width="38"
                fill="#f2f5e9" fill-opacity="0.5" stroke="#606060" stroke-width="1.0"/>
           <path id="arrow"
             d="M 11.500037,31.436501 C 11.940474,20.09759 22.043105,11.32322 32.158766,21.979434 L 37.068811,17.246167 C 37.068811,17.246167 37.088388,32 37.088388,32 L 22.160133,31.978069 C 22.160133,31.978069 26.997745,27.140456 26.997745,27.140456 C 18.528582,18.264221 13.291696,25.230495 11.500037,31.436501 z"
             style="fill:#404040;"/>
          </a>
         </g>
        </svg>
</svg>
