<?xml version="1.0" encoding="UTF-8" standalone="no"?>
<!DOCTYPE svg PUBLIC "-//W3C//DTD SVG 1.1//EN"
 "http://www.w3.org/Graphics/SVG/1.1/DTD/svg11.dtd">
<!-- Generated by graphviz version 2.43.0 (0)
 -->
<!-- Title: InheritanceGraphContext::Private Pages: 1 -->
<svg width="847pt" height="219pt"
 viewBox="0.00 0.00 847.00 218.50" xmlns="http://www.w3.org/2000/svg" xmlns:xlink="http://www.w3.org/1999/xlink">
<g id="graph0" class="graph" transform="scale(1 1) rotate(0) translate(4 214.5)">
<title>InheritanceGraphContext::Private</title>
<!-- Node1 -->
<g id="node1" class="node">
<title>Node1</title>
<g id="a_node1"><a xlink:title=" ">
<polygon fill="#999999" stroke="#666666" points="839,-105.5 700,-105.5 700,-75.5 839,-75.5 839,-105.5"/>
<text text-anchor="start" x="708" y="-93.5" font-family="Helvetica,sans-Serif" font-size="10.00">InheritanceGraphContext</text>
<text text-anchor="middle" x="769.5" y="-82.5" font-family="Helvetica,sans-Serif" font-size="10.00">::Private</text>
</a>
</g>
</g>
<!-- Node2 -->
<g id="node2" class="node">
<title>Node2</title>
<g id="a_node2"><a xlink:href="../../dd/d7e/class_dot_node.html" target="_top" xlink:title="A node in a dot graph.">
<polygon fill="white" stroke="#666666" points="558,-157 499,-157 499,-138 558,-138 558,-157"/>
<text text-anchor="middle" x="528.5" y="-145" font-family="Helvetica,sans-Serif" font-size="10.00">DotNode</text>
</a>
</g>
</g>
<!-- Node2&#45;&gt;Node1 -->
<g id="edge1" class="edge">
<title>Node2&#45;&gt;Node1</title>
<path fill="none" stroke="#9a32cd" stroke-dasharray="5,2" d="M568.25,-138.26C605.34,-129.41 661.94,-115.91 705.52,-105.52"/>
<polygon fill="#9a32cd" stroke="#9a32cd" points="567.24,-134.9 558.33,-140.62 568.87,-141.71 567.24,-134.9"/>
<text text-anchor="middle" x="659" y="-123.5" font-family="Helvetica,sans-Serif" font-size="10.00" fill="grey"> m_node</text>
</g>
<!-- Node3 -->
<g id="node3" class="node">
<title>Node3</title>
<g id="a_node3"><a xlink:href="../../d9/d45/class_q_c_string.html" target="_top" xlink:title="This is an alternative implementation of QCString.">
<polygon fill="white" stroke="#666666" points="200,-194 141,-194 141,-175 200,-175 200,-194"/>
<text text-anchor="middle" x="170.5" y="-182" font-family="Helvetica,sans-Serif" font-size="10.00">QCString</text>
</a>
</g>
</g>
<!-- Node3&#45;&gt;Node2 -->
<g id="edge2" class="edge">
<title>Node3&#45;&gt;Node2</title>
<path fill="none" stroke="#9a32cd" stroke-dasharray="5,2" d="M210.55,-181.69C259.72,-178 346.74,-171 421,-162.5 447.34,-159.49 477.23,-155.2 498.62,-151.98"/>
<polygon fill="#9a32cd" stroke="#9a32cd" points="210.08,-178.21 200.36,-182.44 210.59,-185.19 210.08,-178.21"/>
<text text-anchor="middle" x="339.5" y="-202.5" font-family="Helvetica,sans-Serif" font-size="10.00" fill="grey"> m_label</text>
<text text-anchor="middle" x="339.5" y="-191.5" font-family="Helvetica,sans-Serif" font-size="10.00" fill="grey">m_tooltip</text>
<text text-anchor="middle" x="339.5" y="-180.5" font-family="Helvetica,sans-Serif" font-size="10.00" fill="grey">m_url</text>
</g>
<!-- Node4 -->
<g id="node4" class="node">
<title>Node4</title>
<g id="a_node4"><a xlink:href="../../d1/dcf/class_class_def.html" target="_top" xlink:title="A abstract class representing of a compound symbol.">
<polygon fill="white" stroke="#666666" points="200.5,-157 140.5,-157 140.5,-138 200.5,-138 200.5,-157"/>
<text text-anchor="middle" x="170.5" y="-145" font-family="Helvetica,sans-Serif" font-size="10.00">ClassDef</text>
</a>
</g>
</g>
<!-- Node4&#45;&gt;Node2 -->
<g id="edge3" class="edge">
<title>Node4&#45;&gt;Node2</title>
<path fill="none" stroke="#9a32cd" stroke-dasharray="5,2" d="M210.69,-147.5C282.95,-147.5 435.57,-147.5 498.96,-147.5"/>
<polygon fill="#9a32cd" stroke="#9a32cd" points="210.63,-144 200.63,-147.5 210.63,-151 210.63,-144"/>
<text text-anchor="middle" x="339.5" y="-150.5" font-family="Helvetica,sans-Serif" font-size="10.00" fill="grey"> m_classDef</text>
</g>
<!-- Node5 -->
<g id="node5" class="node">
<title>Node5</title>
<g id="a_node5"><a xlink:href="../../d5/dcc/class_definition.html" target="_top" xlink:title="The common base class of all entity definitions found in the sources.">
<polygon fill="white" stroke="#666666" points="64,-157 0,-157 0,-138 64,-138 64,-157"/>
<text text-anchor="middle" x="32" y="-145" font-family="Helvetica,sans-Serif" font-size="10.00">Definition</text>
</a>
</g>
</g>
<!-- Node5&#45;&gt;Node4 -->
<g id="edge4" class="edge">
<title>Node5&#45;&gt;Node4</title>
<path fill="none" stroke="#63b8ff" d="M74.37,-147.5C95.61,-147.5 121,-147.5 140.2,-147.5"/>
<polygon fill="#63b8ff" stroke="#63b8ff" points="74.32,-144 64.32,-147.5 74.32,-151 74.32,-144"/>
</g>
<!-- Node6 -->
<g id="node6" class="node">
<title>Node6</title>
<g id="a_node6"><a xlink:href="../../d7/dc1/class_cached_item.html" target="_top" xlink:title=" ">
<polygon fill="white" stroke="#666666" points="618,-111 439,-111 439,-70 618,-70 618,-111"/>
<text text-anchor="start" x="447" y="-99" font-family="Helvetica,sans-Serif" font-size="10.00">CachedItem&lt; TemplateVariant,</text>
<text text-anchor="start" x="447" y="-88" font-family="Helvetica,sans-Serif" font-size="10.00"> InheritanceGraphContext</text>
<text text-anchor="middle" x="528.5" y="-77" font-family="Helvetica,sans-Serif" font-size="10.00">::Private,&amp;Private::createGraph &gt;</text>
</a>
</g>
</g>
<!-- Node6&#45;&gt;Node1 -->
<g id="edge5" class="edge">
<title>Node6&#45;&gt;Node1</title>
<path fill="none" stroke="#9a32cd" stroke-dasharray="5,2" d="M628.36,-90.5C652.37,-90.5 677.52,-90.5 699.78,-90.5"/>
<polygon fill="#9a32cd" stroke="#9a32cd" points="628.16,-87 618.16,-90.5 628.16,-94 628.16,-87"/>
<text text-anchor="middle" x="659" y="-93.5" font-family="Helvetica,sans-Serif" font-size="10.00" fill="grey"> m_graph</text>
</g>
<!-- Node7 -->
<g id="node7" class="node">
<title>Node7</title>
<g id="a_node7"><a xlink:href="../../d1/dba/class_template_variant.html" target="_top" xlink:title="Variant type which can hold one value of a fixed set of types.">
<polygon fill="white" stroke="#666666" points="218.5,-120 122.5,-120 122.5,-101 218.5,-101 218.5,-120"/>
<text text-anchor="middle" x="170.5" y="-108" font-family="Helvetica,sans-Serif" font-size="10.00">TemplateVariant</text>
</a>
</g>
</g>
<!-- Node7&#45;&gt;Node6 -->
<g id="edge6" class="edge">
<title>Node7&#45;&gt;Node6</title>
<path fill="none" stroke="#9a32cd" stroke-dasharray="5,2" d="M229,-107.27C285.74,-104.08 373.28,-99.16 438.91,-95.48"/>
<polygon fill="#9a32cd" stroke="#9a32cd" points="228.56,-103.79 218.77,-107.84 228.95,-110.78 228.56,-103.79"/>
<text text-anchor="middle" x="339.5" y="-107.5" font-family="Helvetica,sans-Serif" font-size="10.00" fill="grey"> m_item</text>
</g>
<!-- Node8 -->
<g id="node8" class="node">
<title>Node8</title>
<g id="a_node8"><a xlink:href="../../d7/dc1/class_cached_item.html" target="_top" xlink:title="Wrapper for data that needs to be cached.">
<polygon fill="white" stroke="#666666" points="240,-69.5 101,-69.5 101,-39.5 240,-39.5 240,-69.5"/>
<text text-anchor="start" x="109" y="-57.5" font-family="Helvetica,sans-Serif" font-size="10.00">CachedItem&lt; T, TOwner,</text>
<text text-anchor="middle" x="170.5" y="-46.5" font-family="Helvetica,sans-Serif" font-size="10.00"> creator &gt;</text>
</a>
</g>
</g>
<!-- Node8&#45;&gt;Node6 -->
<g id="edge7" class="edge">
<title>Node8&#45;&gt;Node6</title>
<path fill="none" stroke="orange" stroke-dasharray="5,2" d="M250.5,-50.8C299.8,-49.8 364.42,-50.85 421,-59.5 436.23,-61.83 452.34,-65.73 467.29,-69.99"/>
<polygon fill="orange" stroke="orange" points="250.13,-47.31 240.22,-51.05 250.3,-54.31 250.13,-47.31"/>
<text text-anchor="start" x="258" y="-84.5" font-family="Helvetica,sans-Serif" font-size="10.00" fill="grey"> &lt; TemplateVariant,</text>
<text text-anchor="start" x="258" y="-73.5" font-family="Helvetica,sans-Serif" font-size="10.00" fill="grey"> InheritanceGraphContext</text>
<text text-anchor="middle" x="339.5" y="-62.5" font-family="Helvetica,sans-Serif" font-size="10.00" fill="grey">::Private,&amp;Private::createGraph &gt;</text>
</g>
<!-- Node9 -->
<g id="node9" class="node">
<title>Node9</title>
<g id="a_node9"><a xlink:href="../../d5/dbf/class_property_map.html" target="_top" xlink:title=" ">
<polygon fill="white" stroke="#666666" points="601,-33.5 456,-33.5 456,-3.5 601,-3.5 601,-33.5"/>
<text text-anchor="start" x="464" y="-21.5" font-family="Helvetica,sans-Serif" font-size="10.00">PropertyMap&lt; Inheritance</text>
<text text-anchor="middle" x="528.5" y="-10.5" font-family="Helvetica,sans-Serif" font-size="10.00">GraphContext::Private &gt;</text>
</a>
</g>
</g>
<!-- Node9&#45;&gt;Node1 -->
<g id="edge8" class="edge">
<title>Node9&#45;&gt;Node1</title>
<path fill="none" stroke="#9a32cd" stroke-dasharray="5,2" d="M588.9,-36.4C628.73,-48.39 680.59,-64.02 718.34,-75.39"/>
<polygon fill="#9a32cd" stroke="#9a32cd" points="589.9,-33.04 579.31,-33.51 587.88,-39.74 589.9,-33.04"/>
<text text-anchor="middle" x="659" y="-65.5" font-family="Helvetica,sans-Serif" font-size="10.00" fill="grey"> s_inst</text>
</g>
<!-- Node10 -->
<g id="node10" class="node">
<title>Node10</title>
<g id="a_node10"><a xlink:href="../../d5/dbf/class_property_map.html" target="_top" xlink:title="Class representing a mapping of properties and the corresponding getter function.">
<polygon fill="white" stroke="#666666" points="224,-19 117,-19 117,0 224,0 224,-19"/>
<text text-anchor="middle" x="170.5" y="-7" font-family="Helvetica,sans-Serif" font-size="10.00">PropertyMap&lt; T &gt;</text>
</a>
</g>
</g>
<!-- Node10&#45;&gt;Node9 -->
<g id="edge9" class="edge">
<title>Node10&#45;&gt;Node9</title>
<path fill="none" stroke="orange" stroke-dasharray="5,2" d="M234.2,-8.52C284.67,-8.03 357.43,-7.99 421,-10.5 432.3,-10.95 444.26,-11.63 455.93,-12.42"/>
<polygon fill="orange" stroke="orange" points="234.05,-5.02 224.09,-8.63 234.13,-12.02 234.05,-5.02"/>
<text text-anchor="start" x="271" y="-24.5" font-family="Helvetica,sans-Serif" font-size="10.00" fill="grey"> &lt; InheritanceGraphContext</text>
<text text-anchor="middle" x="339.5" y="-13.5" font-family="Helvetica,sans-Serif" font-size="10.00" fill="grey">::Private &gt;</text>
</g>
</g>
</svg>
