<?xml version="1.0" encoding="UTF-8" standalone="no"?>
<!DOCTYPE svg PUBLIC "-//W3C//DTD SVG 1.1//EN"
 "http://www.w3.org/Graphics/SVG/1.1/DTD/svg11.dtd">
<!-- Generated by graphviz version 2.43.0 (0)
 -->
<!-- Title: vhdlcodeYY_state Pages: 1 -->
<svg width="636pt" height="229pt"
 viewBox="0.00 0.00 635.50 229.00" xmlns="http://www.w3.org/2000/svg" xmlns:xlink="http://www.w3.org/1999/xlink">
<g id="graph0" class="graph" transform="scale(1 1) rotate(0) translate(4 225)">
<title>vhdlcodeYY_state</title>
<!-- Node1 -->
<g id="node1" class="node">
<title>Node1</title>
<g id="a_node1"><a xlink:title=" ">
<polygon fill="#999999" stroke="#666666" points="335,-19 232,-19 232,0 335,0 335,-19"/>
<text text-anchor="middle" x="283.5" y="-7" font-family="Helvetica,sans-Serif" font-size="10.00">vhdlcodeYY_state</text>
</a>
</g>
</g>
<!-- Node2 -->
<g id="node2" class="node">
<title>Node2</title>
<g id="a_node2"><a xlink:href="../../d9/d45/class_q_c_string.html" target="_top" xlink:title="This is an alternative implementation of QCString.">
<polygon fill="white" stroke="#666666" points="59,-163.5 0,-163.5 0,-144.5 59,-144.5 59,-163.5"/>
<text text-anchor="middle" x="29.5" y="-151.5" font-family="Helvetica,sans-Serif" font-size="10.00">QCString</text>
</a>
</g>
</g>
<!-- Node2&#45;&gt;Node1 -->
<g id="edge1" class="edge">
<title>Node2&#45;&gt;Node1</title>
<path fill="none" stroke="#9a32cd" stroke-dasharray="5,2" d="M22.97,-134.52C15.3,-109.1 6.43,-63.49 30.5,-37 43.77,-22.39 161.86,-15.26 231.92,-12.29"/>
<polygon fill="#9a32cd" stroke="#9a32cd" points="19.75,-135.93 26.19,-144.35 26.4,-133.76 19.75,-135.93"/>
<text text-anchor="middle" x="67" y="-117" font-family="Helvetica,sans-Serif" font-size="10.00" fill="grey"> PortMapComp</text>
<text text-anchor="middle" x="67" y="-106" font-family="Helvetica,sans-Serif" font-size="10.00" fill="grey">currClass</text>
<text text-anchor="middle" x="67" y="-95" font-family="Helvetica,sans-Serif" font-size="10.00" fill="grey">exampleFile</text>
<text text-anchor="middle" x="67" y="-84" font-family="Helvetica,sans-Serif" font-size="10.00" fill="grey">exampleName</text>
<text text-anchor="middle" x="67" y="-73" font-family="Helvetica,sans-Serif" font-size="10.00" fill="grey">fileName</text>
<text text-anchor="middle" x="67" y="-62" font-family="Helvetica,sans-Serif" font-size="10.00" fill="grey">funcProto</text>
<text text-anchor="middle" x="67" y="-51" font-family="Helvetica,sans-Serif" font-size="10.00" fill="grey">prevString</text>
<text text-anchor="middle" x="67" y="-40" font-family="Helvetica,sans-Serif" font-size="10.00" fill="grey">tempComp</text>
</g>
<!-- Node3 -->
<g id="node3" class="node">
<title>Node3</title>
<g id="a_node3"><a xlink:href="../../da/d09/class_member_def.html" target="_top" xlink:title="A model of a class/file/namespace member symbol.">
<polygon fill="white" stroke="#666666" points="294.5,-163.5 220.5,-163.5 220.5,-144.5 294.5,-144.5 294.5,-163.5"/>
<text text-anchor="middle" x="257.5" y="-151.5" font-family="Helvetica,sans-Serif" font-size="10.00">MemberDef</text>
</a>
</g>
</g>
<!-- Node3&#45;&gt;Node1 -->
<g id="edge2" class="edge">
<title>Node3&#45;&gt;Node1</title>
<path fill="none" stroke="#9a32cd" stroke-dasharray="5,2" d="M235.06,-137.89C231.18,-134.16 227.69,-129.83 225.5,-125 209.34,-89.38 204.36,-69.9 225.5,-37 230.83,-28.71 239.46,-22.98 248.46,-19.04"/>
<polygon fill="#9a32cd" stroke="#9a32cd" points="232.84,-140.59 242.77,-144.28 237.3,-135.2 232.84,-140.59"/>
<text text-anchor="middle" x="273.5" y="-84" font-family="Helvetica,sans-Serif" font-size="10.00" fill="grey"> currentMemberDef</text>
<text text-anchor="middle" x="273.5" y="-73" font-family="Helvetica,sans-Serif" font-size="10.00" fill="grey">vhdlMember</text>
</g>
<!-- Node4 -->
<g id="node4" class="node">
<title>Node4</title>
<g id="a_node4"><a xlink:href="../../d5/dcc/class_definition.html" target="_top" xlink:title="The common base class of all entity definitions found in the sources.">
<polygon fill="white" stroke="#666666" points="273.5,-221 209.5,-221 209.5,-202 273.5,-202 273.5,-221"/>
<text text-anchor="middle" x="241.5" y="-209" font-family="Helvetica,sans-Serif" font-size="10.00">Definition</text>
</a>
</g>
</g>
<!-- Node4&#45;&gt;Node1 -->
<g id="edge5" class="edge">
<title>Node4&#45;&gt;Node1</title>
<path fill="none" stroke="#9a32cd" stroke-dasharray="5,2" d="M199.42,-205.64C173.71,-200.25 142.75,-188.91 126.5,-165 121,-156.91 123.39,-152.27 126.5,-143 145.25,-87.03 158.73,-71.67 206.5,-37 217.71,-28.86 231.62,-23.07 244.53,-19.02"/>
<polygon fill="#9a32cd" stroke="#9a32cd" points="198.86,-209.09 209.33,-207.48 200.14,-202.21 198.86,-209.09"/>
<text text-anchor="middle" x="169" y="-157" font-family="Helvetica,sans-Serif" font-size="10.00" fill="grey"> currentDefinition</text>
<text text-anchor="middle" x="169" y="-146" font-family="Helvetica,sans-Serif" font-size="10.00" fill="grey">searchCtx</text>
</g>
<!-- Node4&#45;&gt;Node3 -->
<g id="edge3" class="edge">
<title>Node4&#45;&gt;Node3</title>
<path fill="none" stroke="#63b8ff" d="M246.82,-192.06C249.56,-182.54 252.78,-171.36 254.96,-163.79"/>
<polygon fill="#63b8ff" stroke="#63b8ff" points="243.41,-191.25 244,-201.83 250.13,-193.19 243.41,-191.25"/>
</g>
<!-- Node6 -->
<g id="node6" class="node">
<title>Node6</title>
<g id="a_node6"><a xlink:href="../../de/db0/class_file_def.html" target="_top" xlink:title="A model of a file symbol.">
<polygon fill="white" stroke="#666666" points="364,-163.5 313,-163.5 313,-144.5 364,-144.5 364,-163.5"/>
<text text-anchor="middle" x="338.5" y="-151.5" font-family="Helvetica,sans-Serif" font-size="10.00">FileDef</text>
</a>
</g>
</g>
<!-- Node4&#45;&gt;Node6 -->
<g id="edge8" class="edge">
<title>Node4&#45;&gt;Node6</title>
<path fill="none" stroke="#63b8ff" d="M265.5,-196.77C283.63,-186.39 307.97,-172.47 323.45,-163.61"/>
<polygon fill="#63b8ff" stroke="#63b8ff" points="263.6,-193.82 256.66,-201.83 267.07,-199.9 263.6,-193.82"/>
</g>
<!-- Node5 -->
<g id="node5" class="node">
<title>Node5</title>
<g id="a_node5"><a xlink:href="../../d5/d9c/class_code_output_interface.html" target="_top" xlink:title="Output interface for code parser.">
<polygon fill="white" stroke="#666666" points="500.5,-163.5 382.5,-163.5 382.5,-144.5 500.5,-144.5 500.5,-163.5"/>
<text text-anchor="middle" x="441.5" y="-151.5" font-family="Helvetica,sans-Serif" font-size="10.00">CodeOutputInterface</text>
</a>
</g>
</g>
<!-- Node5&#45;&gt;Node1 -->
<g id="edge4" class="edge">
<title>Node5&#45;&gt;Node1</title>
<path fill="none" stroke="#9a32cd" stroke-dasharray="5,2" d="M442.69,-133.91C443.17,-108.12 439.87,-62.45 413.5,-37 402.27,-26.16 366.51,-19.38 335.33,-15.38"/>
<polygon fill="#9a32cd" stroke="#9a32cd" points="439.18,-134.08 442.27,-144.22 446.17,-134.37 439.18,-134.08"/>
<text text-anchor="middle" x="456" y="-78.5" font-family="Helvetica,sans-Serif" font-size="10.00" fill="grey"> code</text>
</g>
<!-- Node6&#45;&gt;Node1 -->
<g id="edge6" class="edge">
<title>Node6&#45;&gt;Node1</title>
<path fill="none" stroke="#9a32cd" stroke-dasharray="5,2" d="M340.11,-134.35C341.29,-110.08 340.16,-67.19 321.5,-37 316.85,-29.47 309.18,-23.52 301.94,-19.18"/>
<polygon fill="#9a32cd" stroke="#9a32cd" points="336.61,-134.15 339.44,-144.36 343.6,-134.62 336.61,-134.15"/>
<text text-anchor="middle" x="374.5" y="-78.5" font-family="Helvetica,sans-Serif" font-size="10.00" fill="grey"> sourceFileDef</text>
</g>
<!-- Node7 -->
<g id="node7" class="node">
<title>Node7</title>
<g id="a_node7"><a xlink:href="../../d0/d46/class_definition_mutable.html" target="_top" xlink:title=" ">
<polygon fill="white" stroke="#666666" points="395.5,-221 291.5,-221 291.5,-202 395.5,-202 395.5,-221"/>
<text text-anchor="middle" x="343.5" y="-209" font-family="Helvetica,sans-Serif" font-size="10.00">DefinitionMutable</text>
</a>
</g>
</g>
<!-- Node7&#45;&gt;Node6 -->
<g id="edge7" class="edge">
<title>Node7&#45;&gt;Node6</title>
<path fill="none" stroke="#63b8ff" d="M341.81,-191.75C340.96,-182.3 339.97,-171.28 339.29,-163.79"/>
<polygon fill="#63b8ff" stroke="#63b8ff" points="338.34,-192.18 342.72,-201.83 345.31,-191.55 338.34,-192.18"/>
</g>
<!-- Node8 -->
<g id="node8" class="node">
<title>Node8</title>
<g id="a_node8"><a xlink:href="../../d5/dae/class_tooltip_manager.html" target="_top" xlink:title="Class that manages the tooltips for a source file.">
<polygon fill="white" stroke="#666666" points="610.5,-163.5 518.5,-163.5 518.5,-144.5 610.5,-144.5 610.5,-163.5"/>
<text text-anchor="middle" x="564.5" y="-151.5" font-family="Helvetica,sans-Serif" font-size="10.00">TooltipManager</text>
</a>
</g>
</g>
<!-- Node8&#45;&gt;Node1 -->
<g id="edge9" class="edge">
<title>Node8&#45;&gt;Node1</title>
<path fill="none" stroke="#9a32cd" stroke-dasharray="5,2" d="M556.18,-135.29C542.79,-108.99 513.85,-60.21 473.5,-37 450.62,-23.84 383.24,-16.82 335.23,-13.38"/>
<polygon fill="#9a32cd" stroke="#9a32cd" points="553.13,-137.02 560.67,-144.46 559.41,-133.94 553.13,-137.02"/>
<text text-anchor="middle" x="588.5" y="-78.5" font-family="Helvetica,sans-Serif" font-size="10.00" fill="grey"> tooltipManager</text>
</g>
</g>
</svg>
