<?xml version="1.0" encoding="UTF-8" standalone="no"?>
<!DOCTYPE svg PUBLIC "-//W3C//DTD SVG 1.1//EN"
 "http://www.w3.org/Graphics/SVG/1.1/DTD/svg11.dtd">
<!-- Generated by graphviz version 2.43.0 (0)
 -->
<!-- Title: LayoutDocEntrySection Pages: 1 -->
<svg width="214pt" height="149pt"
 viewBox="0.00 0.00 213.50 149.00" xmlns="http://www.w3.org/2000/svg" xmlns:xlink="http://www.w3.org/1999/xlink">
<g id="graph0" class="graph" transform="scale(1 1) rotate(0) translate(4 145)">
<title>LayoutDocEntrySection</title>
<!-- Node1 -->
<g id="node1" class="node">
<title>Node1</title>
<g id="a_node1"><a xlink:title=" ">
<polygon fill="#999999" stroke="#666666" points="185,-19 55,-19 55,0 185,0 185,-19"/>
<text text-anchor="middle" x="120" y="-7" font-family="Helvetica,sans-Serif" font-size="10.00">LayoutDocEntrySection</text>
</a>
</g>
</g>
<!-- Node2 -->
<g id="node2" class="node">
<title>Node2</title>
<g id="a_node2"><a xlink:href="../../d4/dc3/struct_layout_doc_entry_simple.html" target="_top" xlink:title="Represents of a piece of a documentation page without configurable parts.">
<polygon fill="white" stroke="#666666" points="128,-85 0,-85 0,-66 128,-66 128,-85"/>
<text text-anchor="middle" x="64" y="-73" font-family="Helvetica,sans-Serif" font-size="10.00">LayoutDocEntrySimple</text>
</a>
</g>
</g>
<!-- Node2&#45;&gt;Node1 -->
<g id="edge1" class="edge">
<title>Node2&#45;&gt;Node1</title>
<path fill="none" stroke="#63b8ff" d="M78.33,-58.12C89.11,-45.81 103.47,-29.39 112.21,-19.41"/>
<polygon fill="#63b8ff" stroke="#63b8ff" points="75.5,-56.04 71.55,-65.87 80.77,-60.65 75.5,-56.04"/>
</g>
<!-- Node3 -->
<g id="node3" class="node">
<title>Node3</title>
<g id="a_node3"><a xlink:href="../../d9/dba/struct_layout_doc_entry.html" target="_top" xlink:title="Base class representing a piece of a documentation page.">
<polygon fill="white" stroke="#666666" points="111,-141 17,-141 17,-122 111,-122 111,-141"/>
<text text-anchor="middle" x="64" y="-129" font-family="Helvetica,sans-Serif" font-size="10.00">LayoutDocEntry</text>
</a>
</g>
</g>
<!-- Node3&#45;&gt;Node2 -->
<g id="edge2" class="edge">
<title>Node3&#45;&gt;Node2</title>
<path fill="none" stroke="#63b8ff" d="M64,-111.3C64,-102.41 64,-92.28 64,-85.25"/>
<polygon fill="#63b8ff" stroke="#63b8ff" points="60.5,-111.58 64,-121.58 67.5,-111.58 60.5,-111.58"/>
</g>
<!-- Node4 -->
<g id="node4" class="node">
<title>Node4</title>
<g id="a_node4"><a xlink:href="../../d9/d45/class_q_c_string.html" target="_top" xlink:title="This is an alternative implementation of QCString.">
<polygon fill="white" stroke="#666666" points="205.5,-85 146.5,-85 146.5,-66 205.5,-66 205.5,-85"/>
<text text-anchor="middle" x="176" y="-73" font-family="Helvetica,sans-Serif" font-size="10.00">QCString</text>
</a>
</g>
</g>
<!-- Node4&#45;&gt;Node1 -->
<g id="edge3" class="edge">
<title>Node4&#45;&gt;Node1</title>
<path fill="none" stroke="#9a32cd" stroke-dasharray="5,2" d="M161.67,-58.12C150.89,-45.81 136.53,-29.39 127.79,-19.41"/>
<polygon fill="#9a32cd" stroke="#9a32cd" points="159.23,-60.65 168.45,-65.87 164.5,-56.04 159.23,-60.65"/>
<text text-anchor="middle" x="170" y="-40" font-family="Helvetica,sans-Serif" font-size="10.00" fill="grey"> m_title</text>
</g>
</g>
</svg>
