<?xml version="1.0" encoding="UTF-8" standalone="no"?>
<!DOCTYPE svg PUBLIC "-//W3C//DTD SVG 1.1//EN"
 "http://www.w3.org/Graphics/SVG/1.1/DTD/svg11.dtd">
<!-- Generated by graphviz version 2.43.0 (0)
 -->
<!-- Title: /home/runner/work/doxygen/doxygen/src/classdef.h Pages: 1 -->
<!--zoomable 368 -->
<svg id="main" version="1.1" xmlns="http://www.w3.org/2000/svg" xmlns:xlink="http://www.w3.org/1999/xlink" xml:space="preserve" onload="init(evt)">
<style type="text/css"><![CDATA[
.edge:hover path { stroke: red; }
.edge:hover polygon { stroke: red; fill: red; }
]]></style>
<script type="text/javascript"><![CDATA[
var edges = document.getElementsByTagName('g');
if (edges && edges.length) {
  for (var i=0;i<edges.length;i++) {
    if (edges[i].id.substr(0,4)=='edge') {
      edges[i].setAttribute('class','edge');
    }
  }
}
]]></script>
        <defs>
                <circle id="rim" cx="0" cy="0" r="7"/>
                <circle id="rim2" cx="0" cy="0" r="3.5"/>
                <g id="zoomPlus">
                        <use xlink:href="#rim" fill="#404040">
                                <set attributeName="fill" to="#808080" begin="zoomplus.mouseover" end="zoomplus.mouseout"/>
                        </use>
                        <path d="M-4,0h8M0,-4v8" fill="none" stroke="white" stroke-width="1.5" pointer-events="none"/>
                </g>
                <g id="zoomMin">
                        <use xlink:href="#rim" fill="#404040">
                                <set attributeName="fill" to="#808080" begin="zoomminus.mouseover" end="zoomminus.mouseout"/>
                        </use>
                        <path d="M-4,0h8" fill="none" stroke="white" stroke-width="1.5" pointer-events="none"/>
                </g>
                <g id="dirArrow">
                        <path fill="none" stroke="white" stroke-width="1.5" d="M0,-3.0v7 M-2.5,-0.5L0,-3.0L2.5,-0.5"/>
                </g>
               <g id="resetDef">
                       <use xlink:href="#rim2" fill="#404040">
                               <set attributeName="fill" to="#808080" begin="reset.mouseover" end="reset.mouseout"/>
                       </use>
               </g>
        </defs>

<script type="text/javascript">
var viewWidth = 956;
var viewHeight = 368;
var sectionId = 'dynsection-0';
</script>
<script xlink:href="../../svgpan.js"/>
<svg id="graph" class="graph">
<g id="viewport">
<title>/home/runner/work/doxygen/doxygen/src/classdef.h</title>
<!-- Node1 -->
<g id="node1" class="node">
<title>Node1</title>
<g id="a_node1"><a xlink:title=" ">
<polygon fill="#999999" stroke="#666666" points="617,-360 463,-360 463,-330 617,-330 617,-360"/>
<text text-anchor="start" x="471" y="-348" font-family="Helvetica,sans-Serif" font-size="10.00">/home/runner/work/doxygen</text>
<text text-anchor="middle" x="540" y="-337" font-family="Helvetica,sans-Serif" font-size="10.00">/doxygen/src/classdef.h</text>
</a>
</g>
</g>
<!-- Node2 -->
<g id="node2" class="node">
<title>Node2</title>
<g id="a_node2"><a xlink:title=" ">
<polygon fill="#e0e0e0" stroke="#999999" points="745.5,-129 698.5,-129 698.5,-110 745.5,-110 745.5,-129"/>
<text text-anchor="middle" x="722" y="-117" font-family="Helvetica,sans-Serif" font-size="10.00">vector</text>
</a>
</g>
</g>
<!-- Node1&#45;&gt;Node2 -->
<g id="edge1" class="edge">
<title>Node1&#45;&gt;Node2</title>
<path fill="none" stroke="#63b8ff" d="M617.13,-334.78C676.26,-323.22 754.12,-297.24 793,-239 799.85,-228.75 810.33,-197.67 792,-165 783.93,-150.61 769.06,-140.19 755.1,-133.07"/>
<polygon fill="#63b8ff" stroke="#63b8ff" points="756.21,-129.72 745.67,-128.65 753.24,-136.06 756.21,-129.72"/>
</g>
<!-- Node3 -->
<g id="node3" class="node">
<title>Node3</title>
<g id="a_node3"><a xlink:title=" ">
<polygon fill="#e0e0e0" stroke="#999999" points="32,-239 0,-239 0,-220 32,-220 32,-239"/>
<text text-anchor="middle" x="16" y="-227" font-family="Helvetica,sans-Serif" font-size="10.00">set</text>
</a>
</g>
</g>
<!-- Node1&#45;&gt;Node3 -->
<g id="edge2" class="edge">
<title>Node1&#45;&gt;Node3</title>
<path fill="none" stroke="#63b8ff" d="M462.67,-338.38C389.29,-331.84 276.35,-318.64 181,-294 130.32,-280.9 73.94,-257.07 41.94,-242.63"/>
<polygon fill="#63b8ff" stroke="#63b8ff" points="43,-239.26 32.45,-238.29 40.09,-245.63 43,-239.26"/>
</g>
<!-- Node4 -->
<g id="node4" class="node">
<title>Node4</title>
<g id="a_node4"><a xlink:href="../../d5/d75/containers_8h.html" target="_top" xlink:title=" ">
<polygon fill="white" stroke="#666666" points="267.5,-294 190.5,-294 190.5,-275 267.5,-275 267.5,-294"/>
<text text-anchor="middle" x="229" y="-282" font-family="Helvetica,sans-Serif" font-size="10.00">containers.h</text>
</a>
</g>
</g>
<!-- Node1&#45;&gt;Node4 -->
<g id="edge3" class="edge">
<title>Node1&#45;&gt;Node4</title>
<path fill="none" stroke="#63b8ff" d="M465.51,-329.99C407.34,-319.05 328.19,-304.16 277.84,-294.69"/>
<polygon fill="#63b8ff" stroke="#63b8ff" points="278.33,-291.22 267.86,-292.81 277.04,-298.1 278.33,-291.22"/>
</g>
<!-- Node10 -->
<g id="node10" class="node">
<title>Node10</title>
<g id="a_node10"><a xlink:href="../../df/da1/definition_8h.html" target="_top" xlink:title=" ">
<polygon fill="white" stroke="#666666" points="626.5,-294 555.5,-294 555.5,-275 626.5,-275 626.5,-294"/>
<text text-anchor="middle" x="591" y="-282" font-family="Helvetica,sans-Serif" font-size="10.00">definition.h</text>
</a>
</g>
</g>
<!-- Node1&#45;&gt;Node10 -->
<g id="edge11" class="edge">
<title>Node1&#45;&gt;Node10</title>
<path fill="none" stroke="#63b8ff" d="M552.35,-329.84C559.67,-321.43 569,-310.74 576.65,-301.96"/>
<polygon fill="#63b8ff" stroke="#63b8ff" points="579.42,-304.1 583.36,-294.27 574.15,-299.5 579.42,-304.1"/>
</g>
<!-- Node24 -->
<g id="node24" class="node">
<title>Node24</title>
<g id="a_node24"><a xlink:href="../../df/d9b/arguments_8h.html" target="_top" xlink:title=" ">
<polygon fill="white" stroke="#666666" points="694,-184 616,-184 616,-165 694,-165 694,-184"/>
<text text-anchor="middle" x="655" y="-172" font-family="Helvetica,sans-Serif" font-size="10.00">arguments.h</text>
</a>
</g>
</g>
<!-- Node1&#45;&gt;Node24 -->
<g id="edge39" class="edge">
<title>Node1&#45;&gt;Node24</title>
<path fill="none" stroke="#63b8ff" d="M585.72,-329.96C603.74,-322.17 622.98,-310.61 635,-294 656.54,-264.25 657.91,-219.38 656.67,-194.25"/>
<polygon fill="#63b8ff" stroke="#63b8ff" points="660.16,-193.96 655.98,-184.22 653.17,-194.44 660.16,-193.96"/>
</g>
<!-- Node25 -->
<g id="node25" class="node">
<title>Node25</title>
<g id="a_node25"><a xlink:href="../../d9/d11/membergroup_8h.html" target="_top" xlink:title=" ">
<polygon fill="white" stroke="#666666" points="537.5,-294 442.5,-294 442.5,-275 537.5,-275 537.5,-294"/>
<text text-anchor="middle" x="490" y="-282" font-family="Helvetica,sans-Serif" font-size="10.00">membergroup.h</text>
</a>
</g>
</g>
<!-- Node1&#45;&gt;Node25 -->
<g id="edge42" class="edge">
<title>Node1&#45;&gt;Node25</title>
<path fill="none" stroke="#63b8ff" d="M527.9,-329.84C520.71,-321.43 511.57,-310.74 504.07,-301.96"/>
<polygon fill="#63b8ff" stroke="#63b8ff" points="506.65,-299.59 497.49,-294.27 501.33,-304.14 506.65,-299.59"/>
</g>
<!-- Node4&#45;&gt;Node2 -->
<g id="edge4" class="edge">
<title>Node4&#45;&gt;Node2</title>
<path fill="none" stroke="#63b8ff" d="M267.68,-281.43C325.01,-277.54 435.43,-266.83 525,-239 543.41,-233.28 545.91,-226.67 564,-220 623.87,-197.92 657.04,-228.28 703,-184 715.03,-172.41 719.53,-153.54 721.17,-139.38"/>
<polygon fill="#63b8ff" stroke="#63b8ff" points="724.67,-139.5 721.96,-129.26 717.69,-138.95 724.67,-139.5"/>
</g>
<!-- Node4&#45;&gt;Node3 -->
<g id="edge6" class="edge">
<title>Node4&#45;&gt;Node3</title>
<path fill="none" stroke="#63b8ff" d="M192.09,-274.96C155.06,-266.28 96.43,-252.27 46,-239 44.73,-238.67 43.44,-238.32 42.13,-237.97"/>
<polygon fill="#63b8ff" stroke="#63b8ff" points="42.73,-234.5 32.16,-235.2 40.86,-241.25 42.73,-234.5"/>
</g>
<!-- Node5 -->
<g id="node5" class="node">
<title>Node5</title>
<g id="a_node5"><a xlink:title=" ">
<polygon fill="#e0e0e0" stroke="#999999" points="512,-19 468,-19 468,0 512,0 512,-19"/>
<text text-anchor="middle" x="490" y="-7" font-family="Helvetica,sans-Serif" font-size="10.00">string</text>
</a>
</g>
</g>
<!-- Node4&#45;&gt;Node5 -->
<g id="edge5" class="edge">
<title>Node4&#45;&gt;Node5</title>
<path fill="none" stroke="#63b8ff" d="M190.2,-276.34C151.2,-268.4 94.67,-254.64 79,-239 58.15,-218.19 60,-204.96 60,-175.5 60,-175.5 60,-175.5 60,-118.5 60,-36.53 357.65,-16.2 457.66,-11.68"/>
<polygon fill="#63b8ff" stroke="#63b8ff" points="457.95,-15.17 467.79,-11.25 457.65,-8.18 457.95,-15.17"/>
</g>
<!-- Node6 -->
<g id="node6" class="node">
<title>Node6</title>
<g id="a_node6"><a xlink:title=" ">
<polygon fill="#e0e0e0" stroke="#999999" points="330,-239 292,-239 292,-220 330,-220 330,-239"/>
<text text-anchor="middle" x="311" y="-227" font-family="Helvetica,sans-Serif" font-size="10.00">map</text>
</a>
</g>
</g>
<!-- Node4&#45;&gt;Node6 -->
<g id="edge7" class="edge">
<title>Node4&#45;&gt;Node6</title>
<path fill="none" stroke="#63b8ff" d="M242.17,-274.98C254.77,-266.84 274,-254.41 288.94,-244.76"/>
<polygon fill="#63b8ff" stroke="#63b8ff" points="291.09,-247.54 297.59,-239.17 287.29,-241.66 291.09,-247.54"/>
</g>
<!-- Node7 -->
<g id="node7" class="node">
<title>Node7</title>
<g id="a_node7"><a xlink:title=" ">
<polygon fill="#e0e0e0" stroke="#999999" points="236,-239 150,-239 150,-220 236,-220 236,-239"/>
<text text-anchor="middle" x="193" y="-227" font-family="Helvetica,sans-Serif" font-size="10.00">unordered_set</text>
</a>
</g>
</g>
<!-- Node4&#45;&gt;Node7 -->
<g id="edge8" class="edge">
<title>Node4&#45;&gt;Node7</title>
<path fill="none" stroke="#63b8ff" d="M223.06,-274.75C218.02,-267.34 210.66,-256.5 204.49,-247.41"/>
<polygon fill="#63b8ff" stroke="#63b8ff" points="207.35,-245.39 198.83,-239.09 201.56,-249.33 207.35,-245.39"/>
</g>
<!-- Node8 -->
<g id="node8" class="node">
<title>Node8</title>
<g id="a_node8"><a xlink:title=" ">
<polygon fill="#e0e0e0" stroke="#999999" points="306.5,-129 213.5,-129 213.5,-110 306.5,-110 306.5,-129"/>
<text text-anchor="middle" x="260" y="-117" font-family="Helvetica,sans-Serif" font-size="10.00">unordered_map</text>
</a>
</g>
</g>
<!-- Node4&#45;&gt;Node8 -->
<g id="edge9" class="edge">
<title>Node4&#45;&gt;Node8</title>
<path fill="none" stroke="#63b8ff" d="M232.77,-274.81C236.45,-265.96 241.93,-251.77 245,-239 253.32,-204.34 257.23,-162.81 258.9,-139.25"/>
<polygon fill="#63b8ff" stroke="#63b8ff" points="262.39,-139.45 259.55,-129.24 255.41,-138.99 262.39,-139.45"/>
</g>
<!-- Node9 -->
<g id="node9" class="node">
<title>Node9</title>
<g id="a_node9"><a xlink:title=" ">
<polygon fill="#e0e0e0" stroke="#999999" points="131.5,-239 88.5,-239 88.5,-220 131.5,-220 131.5,-239"/>
<text text-anchor="middle" x="110" y="-227" font-family="Helvetica,sans-Serif" font-size="10.00">stack</text>
</a>
</g>
</g>
<!-- Node4&#45;&gt;Node9 -->
<g id="edge10" class="edge">
<title>Node4&#45;&gt;Node9</title>
<path fill="none" stroke="#63b8ff" d="M209.88,-274.98C190.65,-266.42 160.77,-253.11 138.69,-243.28"/>
<polygon fill="#63b8ff" stroke="#63b8ff" points="140.03,-240.04 129.47,-239.17 137.18,-246.44 140.03,-240.04"/>
</g>
<!-- Node10&#45;&gt;Node2 -->
<g id="edge12" class="edge">
<title>Node10&#45;&gt;Node2</title>
<path fill="none" stroke="#63b8ff" d="M626.61,-280C674.57,-274.46 756.02,-261.88 774,-239 794.32,-213.14 787.75,-194.87 774,-165 768.25,-152.52 757.09,-142.24 746.58,-134.71"/>
<polygon fill="#63b8ff" stroke="#63b8ff" points="748.3,-131.65 738.03,-129.05 744.43,-137.49 748.3,-131.65"/>
</g>
<!-- Node11 -->
<g id="node11" class="node">
<title>Node11</title>
<g id="a_node11"><a xlink:href="../../d9/d49/types_8h.html" target="_top" xlink:title="This file contains a number of basic enums and types.">
<polygon fill="white" stroke="#666666" points="626.5,-239 573.5,-239 573.5,-220 626.5,-220 626.5,-239"/>
<text text-anchor="middle" x="600" y="-227" font-family="Helvetica,sans-Serif" font-size="10.00">types.h</text>
</a>
</g>
</g>
<!-- Node10&#45;&gt;Node11 -->
<g id="edge13" class="edge">
<title>Node10&#45;&gt;Node11</title>
<path fill="none" stroke="#63b8ff" d="M592.49,-274.75C593.67,-267.8 595.36,-257.85 596.84,-249.13"/>
<polygon fill="#63b8ff" stroke="#63b8ff" points="600.32,-249.53 598.54,-239.09 593.42,-248.36 600.32,-249.53"/>
</g>
<!-- Node21 -->
<g id="node21" class="node">
<title>Node21</title>
<g id="a_node21"><a xlink:href="../../d1/d02/reflist_8h.html" target="_top" xlink:title=" ">
<polygon fill="white" stroke="#666666" points="516.5,-239 463.5,-239 463.5,-220 516.5,-220 516.5,-239"/>
<text text-anchor="middle" x="490" y="-227" font-family="Helvetica,sans-Serif" font-size="10.00">reflist.h</text>
</a>
</g>
</g>
<!-- Node10&#45;&gt;Node21 -->
<g id="edge26" class="edge">
<title>Node10&#45;&gt;Node21</title>
<path fill="none" stroke="#63b8ff" d="M574.77,-274.98C558.82,-266.61 534.22,-253.7 515.62,-243.95"/>
<polygon fill="#63b8ff" stroke="#63b8ff" points="517,-240.72 506.52,-239.17 513.75,-246.92 517,-240.72"/>
</g>
<!-- Node12 -->
<g id="node12" class="node">
<title>Node12</title>
<g id="a_node12"><a xlink:href="../../d7/d5c/qcstring_8h.html" target="_top" xlink:title=" ">
<polygon fill="white" stroke="#666666" points="673.5,-129 608.5,-129 608.5,-110 673.5,-110 673.5,-129"/>
<text text-anchor="middle" x="641" y="-117" font-family="Helvetica,sans-Serif" font-size="10.00">qcstring.h</text>
</a>
</g>
</g>
<!-- Node11&#45;&gt;Node12 -->
<g id="edge14" class="edge">
<title>Node11&#45;&gt;Node12</title>
<path fill="none" stroke="#63b8ff" d="M599.52,-219.93C599.13,-207.4 599.57,-183.53 607,-165 611.19,-154.55 618.54,-144.45 625.34,-136.52"/>
<polygon fill="#63b8ff" stroke="#63b8ff" points="627.93,-138.87 632.07,-129.12 622.75,-134.16 627.93,-138.87"/>
</g>
<!-- Node12&#45;&gt;Node5 -->
<g id="edge15" class="edge">
<title>Node12&#45;&gt;Node5</title>
<path fill="none" stroke="#63b8ff" d="M631.56,-109.76C617.57,-97.01 590.26,-72.88 565,-55 549.08,-43.74 530.2,-32.54 515.36,-24.2"/>
<polygon fill="#63b8ff" stroke="#63b8ff" points="516.71,-20.95 506.27,-19.16 513.32,-27.07 516.71,-20.95"/>
</g>
<!-- Node13 -->
<g id="node13" class="node">
<title>Node13</title>
<g id="a_node13"><a xlink:title=" ">
<polygon fill="#e0e0e0" stroke="#999999" points="556,-74 492,-74 492,-55 556,-55 556,-74"/>
<text text-anchor="middle" x="524" y="-62" font-family="Helvetica,sans-Serif" font-size="10.00">algorithm</text>
</a>
</g>
</g>
<!-- Node12&#45;&gt;Node13 -->
<g id="edge16" class="edge">
<title>Node12&#45;&gt;Node13</title>
<path fill="none" stroke="#63b8ff" d="M622.2,-109.98C603.38,-101.46 574.18,-88.23 552.5,-78.41"/>
<polygon fill="#63b8ff" stroke="#63b8ff" points="553.69,-75.11 543.14,-74.17 550.8,-81.48 553.69,-75.11"/>
</g>
<!-- Node14 -->
<g id="node14" class="node">
<title>Node14</title>
<g id="a_node14"><a xlink:title=" ">
<polygon fill="#e0e0e0" stroke="#999999" points="473.5,-74 424.5,-74 424.5,-55 473.5,-55 473.5,-74"/>
<text text-anchor="middle" x="449" y="-62" font-family="Helvetica,sans-Serif" font-size="10.00">cctype</text>
</a>
</g>
</g>
<!-- Node12&#45;&gt;Node14 -->
<g id="edge17" class="edge">
<title>Node12&#45;&gt;Node14</title>
<path fill="none" stroke="#63b8ff" d="M610.15,-109.98C575.61,-100.45 519.77,-85.03 483.72,-75.09"/>
<polygon fill="#63b8ff" stroke="#63b8ff" points="484.24,-71.6 473.67,-72.31 482.38,-78.34 484.24,-71.6"/>
</g>
<!-- Node15 -->
<g id="node15" class="node">
<title>Node15</title>
<g id="a_node15"><a xlink:title=" ">
<polygon fill="#e0e0e0" stroke="#999999" points="801,-74 751,-74 751,-55 801,-55 801,-74"/>
<text text-anchor="middle" x="776" y="-62" font-family="Helvetica,sans-Serif" font-size="10.00">cstring</text>
</a>
</g>
</g>
<!-- Node12&#45;&gt;Node15 -->
<g id="edge18" class="edge">
<title>Node12&#45;&gt;Node15</title>
<path fill="none" stroke="#63b8ff" d="M662.69,-109.98C684.8,-101.3 719.32,-87.75 744.45,-77.88"/>
<polygon fill="#63b8ff" stroke="#63b8ff" points="745.89,-81.08 753.92,-74.17 743.33,-74.57 745.89,-81.08"/>
</g>
<!-- Node16 -->
<g id="node16" class="node">
<title>Node16</title>
<g id="a_node16"><a xlink:title=" ">
<polygon fill="#e0e0e0" stroke="#999999" points="865,-74 819,-74 819,-55 865,-55 865,-74"/>
<text text-anchor="middle" x="842" y="-62" font-family="Helvetica,sans-Serif" font-size="10.00">cstdio</text>
</a>
</g>
</g>
<!-- Node12&#45;&gt;Node16 -->
<g id="edge19" class="edge">
<title>Node12&#45;&gt;Node16</title>
<path fill="none" stroke="#63b8ff" d="M673.4,-109.99C705.43,-101.57 756.1,-88.25 809.03,-74.25"/>
<polygon fill="#63b8ff" stroke="#63b8ff" points="810.16,-77.57 818.93,-71.63 808.37,-70.81 810.16,-77.57"/>
</g>
<!-- Node17 -->
<g id="node17" class="node">
<title>Node17</title>
<g id="a_node17"><a xlink:title=" ">
<polygon fill="#e0e0e0" stroke="#999999" points="932.5,-74 883.5,-74 883.5,-55 932.5,-55 932.5,-74"/>
<text text-anchor="middle" x="908" y="-62" font-family="Helvetica,sans-Serif" font-size="10.00">cstdlib</text>
</a>
</g>
</g>
<!-- Node12&#45;&gt;Node17 -->
<g id="edge20" class="edge">
<title>Node12&#45;&gt;Node17</title>
<path fill="none" stroke="#63b8ff" d="M673.58,-112.51C724.73,-103.07 822.5,-84.88 873.35,-74.02"/>
<polygon fill="#63b8ff" stroke="#63b8ff" points="874.13,-77.43 883.16,-71.88 872.64,-70.59 874.13,-77.43"/>
</g>
<!-- Node18 -->
<g id="node18" class="node">
<title>Node18</title>
<g id="a_node18"><a xlink:title=" ">
<polygon fill="#e0e0e0" stroke="#999999" points="860,-19 810,-19 810,0 860,0 860,-19"/>
<text text-anchor="middle" x="835" y="-7" font-family="Helvetica,sans-Serif" font-size="10.00">cstdint</text>
</a>
</g>
</g>
<!-- Node12&#45;&gt;Node18 -->
<g id="edge21" class="edge">
<title>Node12&#45;&gt;Node18</title>
<path fill="none" stroke="#63b8ff" d="M673.51,-112.59C678.69,-111.69 683.99,-110.8 689,-110 745.08,-101.05 904.78,-116.89 942,-74 966.29,-46.01 909.96,-27.02 870.17,-17.53"/>
<polygon fill="#63b8ff" stroke="#63b8ff" points="870.74,-14.07 860.22,-15.27 869.19,-20.9 870.74,-14.07"/>
</g>
<!-- Node19 -->
<g id="node19" class="node">
<title>Node19</title>
<g id="a_node19"><a xlink:title=" ">
<polygon fill="#e0e0e0" stroke="#999999" points="669.5,-74 612.5,-74 612.5,-55 669.5,-55 669.5,-74"/>
<text text-anchor="middle" x="641" y="-62" font-family="Helvetica,sans-Serif" font-size="10.00">ostream</text>
</a>
</g>
</g>
<!-- Node12&#45;&gt;Node19 -->
<g id="edge22" class="edge">
<title>Node12&#45;&gt;Node19</title>
<path fill="none" stroke="#63b8ff" d="M641,-109.75C641,-102.8 641,-92.85 641,-84.13"/>
<polygon fill="#63b8ff" stroke="#63b8ff" points="644.5,-84.09 641,-74.09 637.5,-84.09 644.5,-84.09"/>
</g>
<!-- Node20 -->
<g id="node20" class="node">
<title>Node20</title>
<g id="a_node20"><a xlink:href="../../db/d7c/utf8_8h.html" target="_top" xlink:title="Various UTF8 related helper functions.">
<polygon fill="white" stroke="#666666" points="732.5,-74 687.5,-74 687.5,-55 732.5,-55 732.5,-74"/>
<text text-anchor="middle" x="710" y="-62" font-family="Helvetica,sans-Serif" font-size="10.00">utf8.h</text>
</a>
</g>
</g>
<!-- Node12&#45;&gt;Node20 -->
<g id="edge23" class="edge">
<title>Node12&#45;&gt;Node20</title>
<path fill="none" stroke="#63b8ff" d="M652.09,-109.98C662.49,-102 678.26,-89.88 690.72,-80.31"/>
<polygon fill="#63b8ff" stroke="#63b8ff" points="692.91,-83.04 698.71,-74.17 688.65,-77.49 692.91,-83.04"/>
</g>
<!-- Node20&#45;&gt;Node5 -->
<g id="edge25" class="edge">
<title>Node20&#45;&gt;Node5</title>
<path fill="none" stroke="#63b8ff" d="M687.29,-57.39C684.17,-56.57 681.01,-55.76 678,-55 623.29,-41.26 559.32,-26.37 521.87,-17.77"/>
<polygon fill="#63b8ff" stroke="#63b8ff" points="522.57,-14.34 512.04,-15.51 521.01,-21.16 522.57,-14.34"/>
</g>
<!-- Node20&#45;&gt;Node18 -->
<g id="edge24" class="edge">
<title>Node20&#45;&gt;Node18</title>
<path fill="none" stroke="#63b8ff" d="M730.08,-54.98C750.37,-46.38 781.96,-32.99 805.17,-23.15"/>
<polygon fill="#63b8ff" stroke="#63b8ff" points="806.71,-26.3 814.55,-19.17 803.98,-19.85 806.71,-26.3"/>
</g>
<!-- Node21&#45;&gt;Node2 -->
<g id="edge27" class="edge">
<title>Node21&#45;&gt;Node2</title>
<path fill="none" stroke="#63b8ff" d="M504.47,-219.86C526.27,-207.03 569.03,-182.56 607,-165 633.91,-152.55 665.37,-140.55 688.57,-132.15"/>
<polygon fill="#63b8ff" stroke="#63b8ff" points="690.05,-135.34 698.29,-128.67 687.69,-128.75 690.05,-135.34"/>
</g>
<!-- Node21&#45;&gt;Node8 -->
<g id="edge28" class="edge">
<title>Node21&#45;&gt;Node8</title>
<path fill="none" stroke="#63b8ff" d="M465.83,-219.96C442.71,-211.55 407,-197.99 377,-184 343.68,-168.47 306.59,-147.72 283.28,-134.23"/>
<polygon fill="#63b8ff" stroke="#63b8ff" points="284.88,-131.12 274.48,-129.11 281.36,-137.16 284.88,-131.12"/>
</g>
<!-- Node21&#45;&gt;Node12 -->
<g id="edge30" class="edge">
<title>Node21&#45;&gt;Node12</title>
<path fill="none" stroke="#63b8ff" d="M494.22,-219.96C501.21,-206.58 516.4,-180.6 536,-165 554.5,-150.27 578.6,-139.6 599.04,-132.4"/>
<polygon fill="#63b8ff" stroke="#63b8ff" points="600.38,-135.65 608.74,-129.15 598.15,-129.01 600.38,-135.65"/>
</g>
<!-- Node22 -->
<g id="node22" class="node">
<title>Node22</title>
<g id="a_node22"><a xlink:title=" ">
<polygon fill="#e0e0e0" stroke="#999999" points="383,-129 325,-129 325,-110 383,-110 383,-129"/>
<text text-anchor="middle" x="354" y="-117" font-family="Helvetica,sans-Serif" font-size="10.00">memory</text>
</a>
</g>
</g>
<!-- Node21&#45;&gt;Node22 -->
<g id="edge29" class="edge">
<title>Node21&#45;&gt;Node22</title>
<path fill="none" stroke="#63b8ff" d="M463.39,-220.06C443.52,-212.8 416.53,-200.82 397,-184 382.22,-171.28 370.28,-152.33 362.77,-138.44"/>
<polygon fill="#63b8ff" stroke="#63b8ff" points="365.79,-136.67 358.1,-129.39 359.57,-139.88 365.79,-136.67"/>
</g>
<!-- Node23 -->
<g id="node23" class="node">
<title>Node23</title>
<g id="a_node23"><a xlink:href="../../da/de1/linkedmap_8h.html" target="_top" xlink:title=" ">
<polygon fill="white" stroke="#666666" points="483.5,-184 406.5,-184 406.5,-165 483.5,-165 483.5,-184"/>
<text text-anchor="middle" x="445" y="-172" font-family="Helvetica,sans-Serif" font-size="10.00">linkedmap.h</text>
</a>
</g>
</g>
<!-- Node21&#45;&gt;Node23 -->
<g id="edge31" class="edge">
<title>Node21&#45;&gt;Node23</title>
<path fill="none" stroke="#63b8ff" d="M482.57,-219.75C476.15,-212.18 466.69,-201.05 458.88,-191.84"/>
<polygon fill="#63b8ff" stroke="#63b8ff" points="461.43,-189.45 452.29,-184.09 456.1,-193.98 461.43,-189.45"/>
</g>
<!-- Node23&#45;&gt;Node2 -->
<g id="edge33" class="edge">
<title>Node23&#45;&gt;Node2</title>
<path fill="none" stroke="#63b8ff" d="M483.64,-166.54C530.6,-158.01 612.21,-142.96 682,-129 684.07,-128.59 686.19,-128.15 688.33,-127.71"/>
<polygon fill="#63b8ff" stroke="#63b8ff" points="689.26,-131.1 698.33,-125.63 687.83,-124.24 689.26,-131.1"/>
</g>
<!-- Node23&#45;&gt;Node5 -->
<g id="edge35" class="edge">
<title>Node23&#45;&gt;Node5</title>
<path fill="none" stroke="#63b8ff" d="M438.73,-164.88C424.73,-144.5 393.79,-92.25 415,-55 424.31,-38.66 442.24,-27.7 458.24,-20.74"/>
<polygon fill="#63b8ff" stroke="#63b8ff" points="459.85,-23.87 467.85,-16.92 457.27,-17.36 459.85,-23.87"/>
</g>
<!-- Node23&#45;&gt;Node8 -->
<g id="edge32" class="edge">
<title>Node23&#45;&gt;Node8</title>
<path fill="none" stroke="#63b8ff" d="M415.28,-164.98C383.95,-156.01 334.43,-141.82 299.76,-131.89"/>
<polygon fill="#63b8ff" stroke="#63b8ff" points="300.53,-128.47 289.96,-129.08 298.61,-135.2 300.53,-128.47"/>
</g>
<!-- Node23&#45;&gt;Node12 -->
<g id="edge38" class="edge">
<title>Node23&#45;&gt;Node12</title>
<path fill="none" stroke="#63b8ff" d="M476.49,-164.98C509.82,-155.97 562.6,-141.7 599.35,-131.76"/>
<polygon fill="#63b8ff" stroke="#63b8ff" points="600.52,-135.07 609.26,-129.08 598.7,-128.31 600.52,-135.07"/>
</g>
<!-- Node23&#45;&gt;Node13 -->
<g id="edge36" class="edge">
<title>Node23&#45;&gt;Node13</title>
<path fill="none" stroke="#63b8ff" d="M451.46,-164.66C464.61,-146.69 494.64,-105.64 511.65,-82.38"/>
<polygon fill="#63b8ff" stroke="#63b8ff" points="514.59,-84.3 517.67,-74.16 508.94,-80.16 514.59,-84.3"/>
</g>
<!-- Node23&#45;&gt;Node14 -->
<g id="edge37" class="edge">
<title>Node23&#45;&gt;Node14</title>
<path fill="none" stroke="#63b8ff" d="M445.33,-164.66C445.98,-147.17 447.43,-107.8 448.3,-84.27"/>
<polygon fill="#63b8ff" stroke="#63b8ff" points="451.81,-84.28 448.68,-74.16 444.81,-84.02 451.81,-84.28"/>
</g>
<!-- Node23&#45;&gt;Node22 -->
<g id="edge34" class="edge">
<title>Node23&#45;&gt;Node22</title>
<path fill="none" stroke="#63b8ff" d="M430.38,-164.98C416.14,-156.69 394.25,-143.94 377.55,-134.22"/>
<polygon fill="#63b8ff" stroke="#63b8ff" points="379.29,-131.18 368.89,-129.17 375.77,-137.23 379.29,-131.18"/>
</g>
<!-- Node24&#45;&gt;Node2 -->
<g id="edge40" class="edge">
<title>Node24&#45;&gt;Node2</title>
<path fill="none" stroke="#63b8ff" d="M665.76,-164.98C675.77,-157.07 690.89,-145.11 702.93,-135.58"/>
<polygon fill="#63b8ff" stroke="#63b8ff" points="705.37,-138.12 711.04,-129.17 701.03,-132.63 705.37,-138.12"/>
</g>
<!-- Node24&#45;&gt;Node12 -->
<g id="edge41" class="edge">
<title>Node24&#45;&gt;Node12</title>
<path fill="none" stroke="#63b8ff" d="M652.69,-164.75C650.83,-157.72 648.16,-147.62 645.85,-138.84"/>
<polygon fill="#63b8ff" stroke="#63b8ff" points="649.21,-137.86 643.27,-129.09 642.44,-139.65 649.21,-137.86"/>
</g>
<!-- Node25&#45;&gt;Node2 -->
<g id="edge43" class="edge">
<title>Node25&#45;&gt;Node2</title>
<path fill="none" stroke="#63b8ff" d="M524.69,-274.96C586.99,-258.79 713.47,-221.92 736,-184 744.27,-170.08 738.88,-151.82 732.54,-138.46"/>
<polygon fill="#63b8ff" stroke="#63b8ff" points="735.49,-136.55 727.71,-129.35 729.3,-139.82 735.49,-136.55"/>
</g>
<!-- Node25&#45;&gt;Node6 -->
<g id="edge44" class="edge">
<title>Node25&#45;&gt;Node6</title>
<path fill="none" stroke="#63b8ff" d="M461.24,-274.98C427.83,-265.09 373.05,-248.87 339.68,-238.99"/>
<polygon fill="#63b8ff" stroke="#63b8ff" points="340.64,-235.63 330.06,-236.14 338.65,-242.34 340.64,-235.63"/>
</g>
<!-- Node25&#45;&gt;Node11 -->
<g id="edge46" class="edge">
<title>Node25&#45;&gt;Node11</title>
<path fill="none" stroke="#63b8ff" d="M507.67,-274.98C525.29,-266.5 552.58,-253.35 572.93,-243.54"/>
<polygon fill="#63b8ff" stroke="#63b8ff" points="574.52,-246.66 582.01,-239.17 571.48,-240.36 574.52,-246.66"/>
</g>
<!-- Node25&#45;&gt;Node21 -->
<g id="edge47" class="edge">
<title>Node25&#45;&gt;Node21</title>
<path fill="none" stroke="#63b8ff" d="M490,-274.75C490,-267.8 490,-257.85 490,-249.13"/>
<polygon fill="#63b8ff" stroke="#63b8ff" points="493.5,-249.09 490,-239.09 486.5,-249.09 493.5,-249.09"/>
</g>
<!-- Node25&#45;&gt;Node22 -->
<g id="edge45" class="edge">
<title>Node25&#45;&gt;Node22</title>
<path fill="none" stroke="#63b8ff" d="M476.17,-274.76C452.64,-259.23 404.67,-224.61 377,-184 367.71,-170.37 361.69,-152.56 358.15,-139.27"/>
<polygon fill="#63b8ff" stroke="#63b8ff" points="361.5,-138.24 355.74,-129.36 354.7,-139.9 361.5,-138.24"/>
</g>
</g>
</svg>
        <g id="navigator" transform="translate(0 0)" fill="#404254">
                <rect fill="#f2f5e9" fill-opacity="0.5" stroke="#606060" stroke-width=".5" x="0" y="0" width="60" height="60"/>
                <use id="zoomplus" xlink:href="#zoomPlus" x="17" y="9" onmousedown="handleZoom(evt,'in')"/>
                <use id="zoomminus" xlink:href="#zoomMin" x="42" y="9" onmousedown="handleZoom(evt,'out')"/>
                <use id="reset" xlink:href="#resetDef" x="30" y="36" onmousedown="handleReset()"/>
                <g id="arrowUp" xlink:href="#dirArrow" transform="translate(30 24)" onmousedown="handlePan(0,-1)">
                  <use xlink:href="#rim" fill="#404040">
                        <set attributeName="fill" to="#808080" begin="arrowUp.mouseover" end="arrowUp.mouseout"/>
                  </use>
                  <path fill="none" stroke="white" stroke-width="1.5" d="M0,-3.0v7 M-2.5,-0.5L0,-3.0L2.5,-0.5"/>
                </g>
                <g id="arrowRight" xlink:href="#dirArrow" transform="rotate(90) translate(36 -43)" onmousedown="handlePan(1,0)">
                  <use xlink:href="#rim" fill="#404040">
                        <set attributeName="fill" to="#808080" begin="arrowRight.mouseover" end="arrowRight.mouseout"/>
                  </use>
                  <path fill="none" stroke="white" stroke-width="1.5" d="M0,-3.0v7 M-2.5,-0.5L0,-3.0L2.5,-0.5"/>
                </g>
                <g id="arrowDown" xlink:href="#dirArrow" transform="rotate(180) translate(-30 -48)" onmousedown="handlePan(0,1)">
                  <use xlink:href="#rim" fill="#404040">
                        <set attributeName="fill" to="#808080" begin="arrowDown.mouseover" end="arrowDown.mouseout"/>
                  </use>
                  <path fill="none" stroke="white" stroke-width="1.5" d="M0,-3.0v7 M-2.5,-0.5L0,-3.0L2.5,-0.5"/>
                </g>
                <g id="arrowLeft" xlink:href="#dirArrow" transform="rotate(270) translate(-36 17)" onmousedown="handlePan(-1,0)">
                  <use xlink:href="#rim" fill="#404040">
                        <set attributeName="fill" to="#808080" begin="arrowLeft.mouseover" end="arrowLeft.mouseout"/>
                  </use>
                  <path fill="none" stroke="white" stroke-width="1.5" d="M0,-3.0v7 M-2.5,-0.5L0,-3.0L2.5,-0.5"/>
                </g>
        </g>
        <svg viewBox="0 0 15 15" width="100%" height="30px" preserveAspectRatio="xMaxYMin meet">
         <g id="arrow_out" transform="scale(0.3 0.3)">
          <a xlink:href="classdef_8h__incl_org.svg" target="_base">
           <rect id="button" ry="5" rx="5" y="6" x="6" height="38" width="38"
                fill="#f2f5e9" fill-opacity="0.5" stroke="#606060" stroke-width="1.0"/>
           <path id="arrow"
             d="M 11.500037,31.436501 C 11.940474,20.09759 22.043105,11.32322 32.158766,21.979434 L 37.068811,17.246167 C 37.068811,17.246167 37.088388,32 37.088388,32 L 22.160133,31.978069 C 22.160133,31.978069 26.997745,27.140456 26.997745,27.140456 C 18.528582,18.264221 13.291696,25.230495 11.500037,31.436501 z"
             style="fill:#404040;"/>
          </a>
         </g>
        </svg>
</svg>
