<?xml version="1.0" encoding="UTF-8" standalone="no"?>
<!DOCTYPE svg PUBLIC "-//W3C//DTD SVG 1.1//EN"
 "http://www.w3.org/Graphics/SVG/1.1/DTD/svg11.dtd">
<!-- Generated by graphviz version 2.43.0 (0)
 -->
<!-- Title: /home/runner/work/doxygen/doxygen/src/debug.h Pages: 1 -->
<svg width="3610pt" height="104pt"
 viewBox="0.00 0.00 3610.00 104.00" xmlns="http://www.w3.org/2000/svg" xmlns:xlink="http://www.w3.org/1999/xlink">
<g id="graph0" class="graph" transform="scale(1 1) rotate(0) translate(4 100)">
<title>/home/runner/work/doxygen/doxygen/src/debug.h</title>
<!-- Node1 -->
<g id="node1" class="node">
<title>Node1</title>
<g id="a_node1"><a xlink:title=" ">
<polygon fill="#999999" stroke="#666666" points="1882,-96 1728,-96 1728,-66 1882,-66 1882,-96"/>
<text text-anchor="start" x="1736" y="-84" font-family="Helvetica,sans-Serif" font-size="10.00">/home/runner/work/doxygen</text>
<text text-anchor="middle" x="1805" y="-73" font-family="Helvetica,sans-Serif" font-size="10.00">/doxygen/src/debug.h</text>
</a>
</g>
</g>
<!-- Node2 -->
<g id="node2" class="node">
<title>Node2</title>
<g id="a_node2"><a xlink:href="../../d5/d0b/cite_8cpp.html" target="_top" xlink:title=" ">
<polygon fill="white" stroke="#666666" points="154,-30 0,-30 0,0 154,0 154,-30"/>
<text text-anchor="start" x="8" y="-18" font-family="Helvetica,sans-Serif" font-size="10.00">/home/runner/work/doxygen</text>
<text text-anchor="middle" x="77" y="-7" font-family="Helvetica,sans-Serif" font-size="10.00">/doxygen/src/cite.cpp</text>
</a>
</g>
</g>
<!-- Node1&#45;&gt;Node2 -->
<g id="edge1" class="edge">
<title>Node1&#45;&gt;Node2</title>
<path fill="none" stroke="#63b8ff" d="M1717.46,-78.85C1422.86,-74.73 468.81,-59.42 163,-30 160.14,-29.72 157.23,-29.41 154.29,-29.07"/>
<polygon fill="#63b8ff" stroke="#63b8ff" points="1717.61,-82.35 1727.66,-78.99 1717.71,-75.35 1717.61,-82.35"/>
</g>
<!-- Node3 -->
<g id="node3" class="node">
<title>Node3</title>
<g id="a_node3"><a xlink:href="../../de/d89/classdef_8cpp.html" target="_top" xlink:title=" ">
<polygon fill="white" stroke="#666666" points="326,-30 172,-30 172,0 326,0 326,-30"/>
<text text-anchor="start" x="180" y="-18" font-family="Helvetica,sans-Serif" font-size="10.00">/home/runner/work/doxygen</text>
<text text-anchor="middle" x="249" y="-7" font-family="Helvetica,sans-Serif" font-size="10.00">/doxygen/src/classdef.cpp</text>
</a>
</g>
</g>
<!-- Node1&#45;&gt;Node3 -->
<g id="edge2" class="edge">
<title>Node1&#45;&gt;Node3</title>
<path fill="none" stroke="#63b8ff" d="M1717.46,-78.49C1443.66,-73.53 605.67,-56.53 335,-30 332.14,-29.72 329.23,-29.4 326.29,-29.06"/>
<polygon fill="#63b8ff" stroke="#63b8ff" points="1717.68,-81.99 1727.74,-78.67 1717.81,-74.99 1717.68,-81.99"/>
</g>
<!-- Node4 -->
<g id="node4" class="node">
<title>Node4</title>
<g id="a_node4"><a xlink:href="../../d0/d47/commentcnv_8l.html" target="_top" xlink:title=" ">
<polygon fill="white" stroke="#666666" points="498,-30 344,-30 344,0 498,0 498,-30"/>
<text text-anchor="start" x="352" y="-18" font-family="Helvetica,sans-Serif" font-size="10.00">/home/runner/work/doxygen</text>
<text text-anchor="middle" x="421" y="-7" font-family="Helvetica,sans-Serif" font-size="10.00">/doxygen/src/commentcnv.l</text>
</a>
</g>
</g>
<!-- Node1&#45;&gt;Node4 -->
<g id="edge3" class="edge">
<title>Node1&#45;&gt;Node4</title>
<path fill="none" stroke="#63b8ff" d="M1717.96,-80.33C1508.73,-80.33 961.24,-75.55 507,-30 504.14,-29.71 501.23,-29.39 498.3,-29.04"/>
<polygon fill="#63b8ff" stroke="#63b8ff" points="1717.97,-83.83 1727.96,-80.33 1717.96,-76.83 1717.97,-83.83"/>
</g>
<!-- Node5 -->
<g id="node5" class="node">
<title>Node5</title>
<g id="a_node5"><a xlink:href="../../d7/d5f/commentscan_8l.html" target="_top" xlink:title=" ">
<polygon fill="white" stroke="#666666" points="673.5,-30 516.5,-30 516.5,0 673.5,0 673.5,-30"/>
<text text-anchor="start" x="524.5" y="-18" font-family="Helvetica,sans-Serif" font-size="10.00">/home/runner/work/doxygen</text>
<text text-anchor="middle" x="595" y="-7" font-family="Helvetica,sans-Serif" font-size="10.00">/doxygen/src/commentscan.l</text>
</a>
</g>
</g>
<!-- Node1&#45;&gt;Node5 -->
<g id="edge4" class="edge">
<title>Node1&#45;&gt;Node5</title>
<path fill="none" stroke="#63b8ff" d="M1717.77,-79.47C1528.72,-77.58 1067.3,-69.01 683,-30 679.92,-29.69 676.79,-29.34 673.62,-28.96"/>
<polygon fill="#63b8ff" stroke="#63b8ff" points="1717.89,-82.97 1727.92,-79.57 1717.96,-75.97 1717.89,-82.97"/>
</g>
<!-- Node6 -->
<g id="node6" class="node">
<title>Node6</title>
<g id="a_node6"><a xlink:href="../../d1/d00/debug_8cpp.html" target="_top" xlink:title=" ">
<polygon fill="white" stroke="#666666" points="846,-30 692,-30 692,0 846,0 846,-30"/>
<text text-anchor="start" x="700" y="-18" font-family="Helvetica,sans-Serif" font-size="10.00">/home/runner/work/doxygen</text>
<text text-anchor="middle" x="769" y="-7" font-family="Helvetica,sans-Serif" font-size="10.00">/doxygen/src/debug.cpp</text>
</a>
</g>
</g>
<!-- Node1&#45;&gt;Node6 -->
<g id="edge5" class="edge">
<title>Node1&#45;&gt;Node6</title>
<path fill="none" stroke="#63b8ff" d="M1717.81,-78.58C1550.21,-75.15 1171.62,-64 855,-30 852.14,-29.69 849.24,-29.35 846.3,-28.99"/>
<polygon fill="#63b8ff" stroke="#63b8ff" points="1717.74,-82.08 1727.81,-78.78 1717.88,-75.08 1717.74,-82.08"/>
</g>
<!-- Node7 -->
<g id="node7" class="node">
<title>Node7</title>
<g id="a_node7"><a xlink:href="../../d3/dea/definition_8cpp.html" target="_top" xlink:title=" ">
<polygon fill="white" stroke="#666666" points="1018,-30 864,-30 864,0 1018,0 1018,-30"/>
<text text-anchor="start" x="872" y="-18" font-family="Helvetica,sans-Serif" font-size="10.00">/home/runner/work/doxygen</text>
<text text-anchor="middle" x="941" y="-7" font-family="Helvetica,sans-Serif" font-size="10.00">/doxygen/src/definition.cpp</text>
</a>
</g>
</g>
<!-- Node1&#45;&gt;Node7 -->
<g id="edge6" class="edge">
<title>Node1&#45;&gt;Node7</title>
<path fill="none" stroke="#63b8ff" d="M1717.64,-77.16C1573.44,-71.84 1276.7,-58.28 1027,-30 1024.14,-29.68 1021.24,-29.32 1018.31,-28.95"/>
<polygon fill="#63b8ff" stroke="#63b8ff" points="1717.64,-80.66 1727.76,-77.52 1717.89,-73.66 1717.64,-80.66"/>
</g>
<!-- Node8 -->
<g id="node8" class="node">
<title>Node8</title>
<g id="a_node8"><a xlink:href="../../da/d17/docparser_8cpp.html" target="_top" xlink:title=" ">
<polygon fill="white" stroke="#666666" points="1190,-30 1036,-30 1036,0 1190,0 1190,-30"/>
<text text-anchor="start" x="1044" y="-18" font-family="Helvetica,sans-Serif" font-size="10.00">/home/runner/work/doxygen</text>
<text text-anchor="middle" x="1113" y="-7" font-family="Helvetica,sans-Serif" font-size="10.00">/doxygen/src/docparser.cpp</text>
</a>
</g>
</g>
<!-- Node1&#45;&gt;Node8 -->
<g id="edge7" class="edge">
<title>Node1&#45;&gt;Node8</title>
<path fill="none" stroke="#63b8ff" d="M1717.74,-74.97C1599.78,-67.68 1383.03,-52.54 1199,-30 1196.15,-29.65 1193.24,-29.28 1190.31,-28.88"/>
<polygon fill="#63b8ff" stroke="#63b8ff" points="1717.6,-78.47 1727.79,-75.59 1718.03,-71.48 1717.6,-78.47"/>
</g>
<!-- Node9 -->
<g id="node9" class="node">
<title>Node9</title>
<g id="a_node9"><a xlink:href="../../dc/d98/doxygen_8cpp.html" target="_top" xlink:title=" ">
<polygon fill="white" stroke="#666666" points="1362,-30 1208,-30 1208,0 1362,0 1362,-30"/>
<text text-anchor="start" x="1216" y="-18" font-family="Helvetica,sans-Serif" font-size="10.00">/home/runner/work/doxygen</text>
<text text-anchor="middle" x="1285" y="-7" font-family="Helvetica,sans-Serif" font-size="10.00">/doxygen/src/doxygen.cpp</text>
</a>
</g>
</g>
<!-- Node1&#45;&gt;Node9 -->
<g id="edge8" class="edge">
<title>Node1&#45;&gt;Node9</title>
<path fill="none" stroke="#63b8ff" d="M1717.46,-71.13C1629.7,-61.95 1490.78,-46.64 1371,-30 1368.15,-29.6 1365.26,-29.19 1362.33,-28.76"/>
<polygon fill="#63b8ff" stroke="#63b8ff" points="1717.33,-74.63 1727.64,-72.19 1718.06,-67.67 1717.33,-74.63"/>
</g>
<!-- Node10 -->
<g id="node10" class="node">
<title>Node10</title>
<g id="a_node10"><a xlink:href="../../d6/ddc/filedef_8cpp.html" target="_top" xlink:title=" ">
<polygon fill="white" stroke="#666666" points="1534,-30 1380,-30 1380,0 1534,0 1534,-30"/>
<text text-anchor="start" x="1388" y="-18" font-family="Helvetica,sans-Serif" font-size="10.00">/home/runner/work/doxygen</text>
<text text-anchor="middle" x="1457" y="-7" font-family="Helvetica,sans-Serif" font-size="10.00">/doxygen/src/filedef.cpp</text>
</a>
</g>
</g>
<!-- Node1&#45;&gt;Node10 -->
<g id="edge9" class="edge">
<title>Node1&#45;&gt;Node10</title>
<path fill="none" stroke="#63b8ff" d="M1718.57,-64.11C1661.68,-53.64 1587.89,-40.07 1533.19,-30.01"/>
<polygon fill="#63b8ff" stroke="#63b8ff" points="1718.16,-67.59 1728.63,-65.95 1719.43,-60.7 1718.16,-67.59"/>
</g>
<!-- Node11 -->
<g id="node11" class="node">
<title>Node11</title>
<g id="a_node11"><a xlink:href="../../dd/d00/fortranscanner_8l.html" target="_top" xlink:title=" ">
<polygon fill="white" stroke="#666666" points="1710,-30 1552,-30 1552,0 1710,0 1710,-30"/>
<text text-anchor="start" x="1560" y="-18" font-family="Helvetica,sans-Serif" font-size="10.00">/home/runner/work/doxygen</text>
<text text-anchor="middle" x="1631" y="-7" font-family="Helvetica,sans-Serif" font-size="10.00">/doxygen/src/fortranscanner.l</text>
</a>
</g>
</g>
<!-- Node1&#45;&gt;Node11 -->
<g id="edge10" class="edge">
<title>Node1&#45;&gt;Node11</title>
<path fill="none" stroke="#63b8ff" d="M1757.3,-62.46C1729.54,-52.25 1695.03,-39.55 1669.1,-30.01"/>
<polygon fill="#63b8ff" stroke="#63b8ff" points="1756.22,-65.79 1766.81,-65.95 1758.64,-59.22 1756.22,-65.79"/>
</g>
<!-- Node12 -->
<g id="node12" class="node">
<title>Node12</title>
<g id="a_node12"><a xlink:href="../../d8/d6e/htmlgen_8cpp.html" target="_top" xlink:title=" ">
<polygon fill="white" stroke="#666666" points="1882,-30 1728,-30 1728,0 1882,0 1882,-30"/>
<text text-anchor="start" x="1736" y="-18" font-family="Helvetica,sans-Serif" font-size="10.00">/home/runner/work/doxygen</text>
<text text-anchor="middle" x="1805" y="-7" font-family="Helvetica,sans-Serif" font-size="10.00">/doxygen/src/htmlgen.cpp</text>
</a>
</g>
</g>
<!-- Node1&#45;&gt;Node12 -->
<g id="edge11" class="edge">
<title>Node1&#45;&gt;Node12</title>
<path fill="none" stroke="#63b8ff" d="M1805,-55.54C1805,-46.96 1805,-37.61 1805,-30.16"/>
<polygon fill="#63b8ff" stroke="#63b8ff" points="1801.5,-55.8 1805,-65.8 1808.5,-55.8 1801.5,-55.8"/>
</g>
<!-- Node13 -->
<g id="node13" class="node">
<title>Node13</title>
<g id="a_node13"><a xlink:href="../../db/d16/layout_8cpp.html" target="_top" xlink:title=" ">
<polygon fill="white" stroke="#666666" points="2054,-30 1900,-30 1900,0 2054,0 2054,-30"/>
<text text-anchor="start" x="1908" y="-18" font-family="Helvetica,sans-Serif" font-size="10.00">/home/runner/work/doxygen</text>
<text text-anchor="middle" x="1977" y="-7" font-family="Helvetica,sans-Serif" font-size="10.00">/doxygen/src/layout.cpp</text>
</a>
</g>
</g>
<!-- Node1&#45;&gt;Node13 -->
<g id="edge12" class="edge">
<title>Node1&#45;&gt;Node13</title>
<path fill="none" stroke="#63b8ff" d="M1852.15,-62.46C1879.59,-52.25 1913.71,-39.55 1939.34,-30.01"/>
<polygon fill="#63b8ff" stroke="#63b8ff" points="1850.9,-59.19 1842.75,-65.95 1853.34,-65.75 1850.9,-59.19"/>
</g>
<!-- Node14 -->
<g id="node14" class="node">
<title>Node14</title>
<g id="a_node14"><a xlink:href="../../de/d04/markdown_8cpp.html" target="_top" xlink:title=" ">
<polygon fill="white" stroke="#666666" points="2226,-30 2072,-30 2072,0 2226,0 2226,-30"/>
<text text-anchor="start" x="2080" y="-18" font-family="Helvetica,sans-Serif" font-size="10.00">/home/runner/work/doxygen</text>
<text text-anchor="middle" x="2149" y="-7" font-family="Helvetica,sans-Serif" font-size="10.00">/doxygen/src/markdown.cpp</text>
</a>
</g>
</g>
<!-- Node1&#45;&gt;Node14 -->
<g id="edge13" class="edge">
<title>Node1&#45;&gt;Node14</title>
<path fill="none" stroke="#63b8ff" d="M1890.43,-64.11C1946.67,-53.64 2019.62,-40.07 2073.68,-30.01"/>
<polygon fill="#63b8ff" stroke="#63b8ff" points="1889.68,-60.68 1880.49,-65.95 1890.96,-67.57 1889.68,-60.68"/>
</g>
<!-- Node15 -->
<g id="node15" class="node">
<title>Node15</title>
<g id="a_node15"><a xlink:href="../../d8/d6a/message_8cpp.html" target="_top" xlink:title=" ">
<polygon fill="white" stroke="#666666" points="2398,-30 2244,-30 2244,0 2398,0 2398,-30"/>
<text text-anchor="start" x="2252" y="-18" font-family="Helvetica,sans-Serif" font-size="10.00">/home/runner/work/doxygen</text>
<text text-anchor="middle" x="2321" y="-7" font-family="Helvetica,sans-Serif" font-size="10.00">/doxygen/src/message.cpp</text>
</a>
</g>
</g>
<!-- Node1&#45;&gt;Node15 -->
<g id="edge14" class="edge">
<title>Node1&#45;&gt;Node15</title>
<path fill="none" stroke="#63b8ff" d="M1892.12,-71.05C1979.1,-61.83 2116.5,-46.53 2235,-30 2237.85,-29.6 2240.74,-29.19 2243.67,-28.76"/>
<polygon fill="#63b8ff" stroke="#63b8ff" points="1891.61,-67.58 1882.03,-72.11 1892.35,-74.54 1891.61,-67.58"/>
</g>
<!-- Node16 -->
<g id="node16" class="node">
<title>Node16</title>
<g id="a_node16"><a xlink:href="../../d7/d5b/plantuml_8cpp.html" target="_top" xlink:title=" ">
<polygon fill="white" stroke="#666666" points="2570,-30 2416,-30 2416,0 2570,0 2570,-30"/>
<text text-anchor="start" x="2424" y="-18" font-family="Helvetica,sans-Serif" font-size="10.00">/home/runner/work/doxygen</text>
<text text-anchor="middle" x="2493" y="-7" font-family="Helvetica,sans-Serif" font-size="10.00">/doxygen/src/plantuml.cpp</text>
</a>
</g>
</g>
<!-- Node1&#45;&gt;Node16 -->
<g id="edge15" class="edge">
<title>Node1&#45;&gt;Node16</title>
<path fill="none" stroke="#63b8ff" d="M1892.18,-74.91C2009.46,-67.58 2224.43,-52.41 2407,-30 2409.85,-29.65 2412.76,-29.27 2415.69,-28.88"/>
<polygon fill="#63b8ff" stroke="#63b8ff" points="1891.94,-71.42 1882.17,-75.54 1892.37,-78.41 1891.94,-71.42"/>
</g>
<!-- Node17 -->
<g id="node17" class="node">
<title>Node17</title>
<g id="a_node17"><a xlink:href="../../d0/d1c/portable_8cpp.html" target="_top" xlink:title=" ">
<polygon fill="white" stroke="#666666" points="2742,-30 2588,-30 2588,0 2742,0 2742,-30"/>
<text text-anchor="start" x="2596" y="-18" font-family="Helvetica,sans-Serif" font-size="10.00">/home/runner/work/doxygen</text>
<text text-anchor="middle" x="2665" y="-7" font-family="Helvetica,sans-Serif" font-size="10.00">/doxygen/src/portable.cpp</text>
</a>
</g>
</g>
<!-- Node1&#45;&gt;Node17 -->
<g id="edge16" class="edge">
<title>Node1&#45;&gt;Node17</title>
<path fill="none" stroke="#63b8ff" d="M1892.19,-77.12C2035.76,-71.77 2330.74,-58.16 2579,-30 2581.86,-29.68 2584.76,-29.32 2587.69,-28.95"/>
<polygon fill="#63b8ff" stroke="#63b8ff" points="1891.98,-73.63 1882.12,-77.49 1892.24,-80.62 1891.98,-73.63"/>
</g>
<!-- Node18 -->
<g id="node18" class="node">
<title>Node18</title>
<g id="a_node18"><a xlink:href="../../d0/da7/pre_8l.html" target="_top" xlink:title=" ">
<polygon fill="white" stroke="#666666" points="2914,-30 2760,-30 2760,0 2914,0 2914,-30"/>
<text text-anchor="start" x="2768" y="-18" font-family="Helvetica,sans-Serif" font-size="10.00">/home/runner/work/doxygen</text>
<text text-anchor="middle" x="2837" y="-7" font-family="Helvetica,sans-Serif" font-size="10.00">/doxygen/src/pre.l</text>
</a>
</g>
</g>
<!-- Node1&#45;&gt;Node18 -->
<g id="edge17" class="edge">
<title>Node1&#45;&gt;Node18</title>
<path fill="none" stroke="#63b8ff" d="M1892.39,-78.55C2059.58,-75.07 2436.07,-63.86 2751,-30 2753.86,-29.69 2756.76,-29.35 2759.7,-28.99"/>
<polygon fill="#63b8ff" stroke="#63b8ff" points="1892.1,-75.05 1882.17,-78.76 1892.24,-82.05 1892.1,-75.05"/>
</g>
<!-- Node19 -->
<g id="node19" class="node">
<title>Node19</title>
<g id="a_node19"><a xlink:href="../../d9/d45/qhp_8cpp.html" target="_top" xlink:title=" ">
<polygon fill="white" stroke="#666666" points="3086,-30 2932,-30 2932,0 3086,0 3086,-30"/>
<text text-anchor="start" x="2940" y="-18" font-family="Helvetica,sans-Serif" font-size="10.00">/home/runner/work/doxygen</text>
<text text-anchor="middle" x="3009" y="-7" font-family="Helvetica,sans-Serif" font-size="10.00">/doxygen/src/qhp.cpp</text>
</a>
</g>
</g>
<!-- Node1&#45;&gt;Node19 -->
<g id="edge18" class="edge">
<title>Node1&#45;&gt;Node19</title>
<path fill="none" stroke="#63b8ff" d="M1892.28,-79.56C2080.9,-77.84 2540.38,-69.56 2923,-30 2925.86,-29.7 2928.77,-29.38 2931.7,-29.02"/>
<polygon fill="#63b8ff" stroke="#63b8ff" points="1892.12,-76.06 1882.15,-79.64 1892.18,-83.06 1892.12,-76.06"/>
</g>
<!-- Node20 -->
<g id="node20" class="node">
<title>Node20</title>
<g id="a_node20"><a xlink:href="../../d0/d9c/rtfgen_8cpp.html" target="_top" xlink:title=" ">
<polygon fill="white" stroke="#666666" points="3258,-30 3104,-30 3104,0 3258,0 3258,-30"/>
<text text-anchor="start" x="3112" y="-18" font-family="Helvetica,sans-Serif" font-size="10.00">/home/runner/work/doxygen</text>
<text text-anchor="middle" x="3181" y="-7" font-family="Helvetica,sans-Serif" font-size="10.00">/doxygen/src/rtfgen.cpp</text>
</a>
</g>
</g>
<!-- Node1&#45;&gt;Node20 -->
<g id="edge19" class="edge">
<title>Node1&#45;&gt;Node20</title>
<path fill="none" stroke="#63b8ff" d="M1892.57,-80.3C2101.3,-80.21 2644.33,-75.24 3095,-30 3097.86,-29.71 3100.77,-29.39 3103.7,-29.04"/>
<polygon fill="#63b8ff" stroke="#63b8ff" points="1892.29,-76.8 1882.29,-80.3 1892.29,-83.8 1892.29,-76.8"/>
</g>
<!-- Node21 -->
<g id="node21" class="node">
<title>Node21</title>
<g id="a_node21"><a xlink:href="../../d4/d7b/tagreader_8cpp.html" target="_top" xlink:title=" ">
<polygon fill="white" stroke="#666666" points="3430,-30 3276,-30 3276,0 3430,0 3430,-30"/>
<text text-anchor="start" x="3284" y="-18" font-family="Helvetica,sans-Serif" font-size="10.00">/home/runner/work/doxygen</text>
<text text-anchor="middle" x="3353" y="-7" font-family="Helvetica,sans-Serif" font-size="10.00">/doxygen/src/tagreader.cpp</text>
</a>
</g>
</g>
<!-- Node1&#45;&gt;Node21 -->
<g id="edge20" class="edge">
<title>Node1&#45;&gt;Node21</title>
<path fill="none" stroke="#63b8ff" d="M1892.54,-78.47C2165.34,-73.47 2997.96,-56.39 3267,-30 3269.86,-29.72 3272.77,-29.4 3275.71,-29.06"/>
<polygon fill="#63b8ff" stroke="#63b8ff" points="1892.23,-74.97 1882.29,-78.66 1892.35,-81.97 1892.23,-74.97"/>
</g>
<!-- Node22 -->
<g id="node22" class="node">
<title>Node22</title>
<g id="a_node22"><a xlink:href="../../df/d2d/util_8cpp.html" target="_top" xlink:title=" ">
<polygon fill="white" stroke="#666666" points="3602,-30 3448,-30 3448,0 3602,0 3602,-30"/>
<text text-anchor="start" x="3456" y="-18" font-family="Helvetica,sans-Serif" font-size="10.00">/home/runner/work/doxygen</text>
<text text-anchor="middle" x="3525" y="-7" font-family="Helvetica,sans-Serif" font-size="10.00">/doxygen/src/util.cpp</text>
</a>
</g>
</g>
<!-- Node1&#45;&gt;Node22 -->
<g id="edge21" class="edge">
<title>Node1&#45;&gt;Node22</title>
<path fill="none" stroke="#63b8ff" d="M1892.62,-78.83C2186.37,-74.68 3134.85,-59.28 3439,-30 3441.86,-29.72 3444.77,-29.41 3447.71,-29.07"/>
<polygon fill="#63b8ff" stroke="#63b8ff" points="1892.4,-75.33 1882.45,-78.97 1892.5,-82.33 1892.4,-75.33"/>
</g>
</g>
</svg>
