<?xml version="1.0" encoding="UTF-8" standalone="no"?>
<!DOCTYPE svg PUBLIC "-//W3C//DTD SVG 1.1//EN"
 "http://www.w3.org/Graphics/SVG/1.1/DTD/svg11.dtd">
<!-- Generated by graphviz version 2.43.0 (0)
 -->
<!-- Title: /home/runner/work/doxygen/doxygen/src/clangparser.cpp Pages: 1 -->
<svg width="1216pt" height="313pt"
 viewBox="0.00 0.00 1216.00 313.00" xmlns="http://www.w3.org/2000/svg" xmlns:xlink="http://www.w3.org/1999/xlink">
<g id="graph0" class="graph" transform="scale(1 1) rotate(0) translate(4 309)">
<title>/home/runner/work/doxygen/doxygen/src/clangparser.cpp</title>
<!-- Node1 -->
<g id="node1" class="node">
<title>Node1</title>
<g id="a_node1"><a xlink:title=" ">
<polygon fill="#999999" stroke="#666666" points="1158,-305 1000,-305 1000,-275 1158,-275 1158,-305"/>
<text text-anchor="start" x="1008" y="-293" font-family="Helvetica,sans-Serif" font-size="10.00">/home/runner/work/doxygen</text>
<text text-anchor="middle" x="1079" y="-282" font-family="Helvetica,sans-Serif" font-size="10.00">/doxygen/src/clangparser.cpp</text>
</a>
</g>
</g>
<!-- Node2 -->
<g id="node2" class="node">
<title>Node2</title>
<g id="a_node2"><a xlink:href="../../d5/df7/clangparser_8h.html" target="_top" xlink:title=" ">
<polygon fill="white" stroke="#666666" points="990,-239 908,-239 908,-220 990,-220 990,-239"/>
<text text-anchor="middle" x="949" y="-227" font-family="Helvetica,sans-Serif" font-size="10.00">clangparser.h</text>
</a>
</g>
</g>
<!-- Node1&#45;&gt;Node2 -->
<g id="edge1" class="edge">
<title>Node1&#45;&gt;Node2</title>
<path fill="none" stroke="#63b8ff" d="M1047.86,-274.99C1026.46,-265.36 998.27,-252.67 977.47,-243.31"/>
<polygon fill="#63b8ff" stroke="#63b8ff" points="978.75,-240.05 968.2,-239.14 975.88,-246.43 978.75,-240.05"/>
</g>
<!-- Node22 -->
<g id="node22" class="node">
<title>Node22</title>
<g id="a_node22"><a xlink:title=" ">
<polygon fill="#e0e0e0" stroke="#999999" points="1073.5,-239 1008.5,-239 1008.5,-220 1073.5,-220 1073.5,-239"/>
<text text-anchor="middle" x="1041" y="-227" font-family="Helvetica,sans-Serif" font-size="10.00">settings.h</text>
</a>
</g>
</g>
<!-- Node1&#45;&gt;Node22 -->
<g id="edge25" class="edge">
<title>Node1&#45;&gt;Node22</title>
<path fill="none" stroke="#63b8ff" d="M1069.8,-274.84C1064.51,-266.69 1057.82,-256.4 1052.22,-247.78"/>
<polygon fill="#63b8ff" stroke="#63b8ff" points="1055.08,-245.75 1046.69,-239.27 1049.21,-249.56 1055.08,-245.75"/>
</g>
<!-- Node23 -->
<g id="node23" class="node">
<title>Node23</title>
<g id="a_node23"><a xlink:title=" ">
<polygon fill="#e0e0e0" stroke="#999999" points="1142,-239 1092,-239 1092,-220 1142,-220 1142,-239"/>
<text text-anchor="middle" x="1117" y="-227" font-family="Helvetica,sans-Serif" font-size="10.00">stdio.h</text>
</a>
</g>
</g>
<!-- Node1&#45;&gt;Node23 -->
<g id="edge26" class="edge">
<title>Node1&#45;&gt;Node23</title>
<path fill="none" stroke="#63b8ff" d="M1088.2,-274.84C1093.49,-266.69 1100.18,-256.4 1105.78,-247.78"/>
<polygon fill="#63b8ff" stroke="#63b8ff" points="1108.79,-249.56 1111.31,-239.27 1102.92,-245.75 1108.79,-249.56"/>
</g>
<!-- Node24 -->
<g id="node24" class="node">
<title>Node24</title>
<g id="a_node24"><a xlink:title=" ">
<polygon fill="#e0e0e0" stroke="#999999" points="1208,-239 1160,-239 1160,-220 1208,-220 1208,-239"/>
<text text-anchor="middle" x="1184" y="-227" font-family="Helvetica,sans-Serif" font-size="10.00">mutex</text>
</a>
</g>
</g>
<!-- Node1&#45;&gt;Node24 -->
<g id="edge27" class="edge">
<title>Node1&#45;&gt;Node24</title>
<path fill="none" stroke="#63b8ff" d="M1104.15,-274.99C1120.89,-265.66 1142.77,-253.47 1159.39,-244.21"/>
<polygon fill="#63b8ff" stroke="#63b8ff" points="1161.46,-247.06 1168.49,-239.14 1158.05,-240.95 1161.46,-247.06"/>
</g>
<!-- Node3 -->
<g id="node3" class="node">
<title>Node3</title>
<g id="a_node3"><a xlink:href="../../d5/d75/containers_8h.html" target="_top" xlink:title=" ">
<polygon fill="white" stroke="#666666" points="833.5,-184 756.5,-184 756.5,-165 833.5,-165 833.5,-184"/>
<text text-anchor="middle" x="795" y="-172" font-family="Helvetica,sans-Serif" font-size="10.00">containers.h</text>
</a>
</g>
</g>
<!-- Node2&#45;&gt;Node3 -->
<g id="edge2" class="edge">
<title>Node2&#45;&gt;Node3</title>
<path fill="none" stroke="#63b8ff" d="M924.26,-219.98C898.63,-211.16 858.37,-197.31 829.59,-187.41"/>
<polygon fill="#63b8ff" stroke="#63b8ff" points="830.53,-184.03 819.94,-184.08 828.25,-190.65 830.53,-184.03"/>
</g>
<!-- Node5 -->
<g id="node5" class="node">
<title>Node5</title>
<g id="a_node5"><a xlink:title=" ">
<polygon fill="#e0e0e0" stroke="#999999" points="567,-19 523,-19 523,0 567,0 567,-19"/>
<text text-anchor="middle" x="545" y="-7" font-family="Helvetica,sans-Serif" font-size="10.00">string</text>
</a>
</g>
</g>
<!-- Node2&#45;&gt;Node5 -->
<g id="edge24" class="edge">
<title>Node2&#45;&gt;Node5</title>
<path fill="none" stroke="#63b8ff" d="M963.13,-219.84C994.11,-199.79 1062.79,-148.96 1031,-110 973.14,-39.1 676.45,-17.35 577.31,-12"/>
<polygon fill="#63b8ff" stroke="#63b8ff" points="577.45,-8.5 567.28,-11.48 577.08,-15.49 577.45,-8.5"/>
</g>
<!-- Node11 -->
<g id="node11" class="node">
<title>Node11</title>
<g id="a_node11"><a xlink:href="../../d9/d49/types_8h.html" target="_top" xlink:title="This file contains a number of basic enums and types.">
<polygon fill="white" stroke="#666666" points="575.5,-184 522.5,-184 522.5,-165 575.5,-165 575.5,-184"/>
<text text-anchor="middle" x="549" y="-172" font-family="Helvetica,sans-Serif" font-size="10.00">types.h</text>
</a>
</g>
</g>
<!-- Node2&#45;&gt;Node11 -->
<g id="edge10" class="edge">
<title>Node2&#45;&gt;Node11</title>
<path fill="none" stroke="#63b8ff" d="M907.7,-223.03C829.41,-212.65 660.58,-190.28 585.86,-180.38"/>
<polygon fill="#63b8ff" stroke="#63b8ff" points="585.91,-176.86 575.54,-179.02 585,-183.8 585.91,-176.86"/>
</g>
<!-- Node21 -->
<g id="node21" class="node">
<title>Node21</title>
<g id="a_node21"><a xlink:title=" ">
<polygon fill="#e0e0e0" stroke="#999999" points="1136,-184 1078,-184 1078,-165 1136,-165 1136,-184"/>
<text text-anchor="middle" x="1107" y="-172" font-family="Helvetica,sans-Serif" font-size="10.00">memory</text>
</a>
</g>
</g>
<!-- Node2&#45;&gt;Node21 -->
<g id="edge23" class="edge">
<title>Node2&#45;&gt;Node21</title>
<path fill="none" stroke="#63b8ff" d="M974.39,-219.98C1000.8,-211.13 1042.35,-197.19 1071.89,-187.28"/>
<polygon fill="#63b8ff" stroke="#63b8ff" points="1073.05,-190.58 1081.42,-184.08 1070.82,-183.94 1073.05,-190.58"/>
</g>
<!-- Node4 -->
<g id="node4" class="node">
<title>Node4</title>
<g id="a_node4"><a xlink:title=" ">
<polygon fill="#e0e0e0" stroke="#999999" points="1021.5,-129 974.5,-129 974.5,-110 1021.5,-110 1021.5,-129"/>
<text text-anchor="middle" x="998" y="-117" font-family="Helvetica,sans-Serif" font-size="10.00">vector</text>
</a>
</g>
</g>
<!-- Node3&#45;&gt;Node4 -->
<g id="edge3" class="edge">
<title>Node3&#45;&gt;Node4</title>
<path fill="none" stroke="#63b8ff" d="M828.11,-164.94C860.55,-156.53 911.65,-143.27 964.38,-129.42"/>
<polygon fill="#63b8ff" stroke="#63b8ff" points="965.46,-132.75 974.24,-126.83 963.68,-125.98 965.46,-132.75"/>
</g>
<!-- Node3&#45;&gt;Node5 -->
<g id="edge4" class="edge">
<title>Node3&#45;&gt;Node5</title>
<path fill="none" stroke="#63b8ff" d="M756.24,-170.01C702.21,-164.39 608.07,-151.6 583,-129 554.35,-103.17 547.18,-55.71 545.46,-29.37"/>
<polygon fill="#63b8ff" stroke="#63b8ff" points="548.95,-29.04 545.01,-19.2 541.96,-29.35 548.95,-29.04"/>
</g>
<!-- Node6 -->
<g id="node6" class="node">
<title>Node6</title>
<g id="a_node6"><a xlink:title=" ">
<polygon fill="#e0e0e0" stroke="#999999" points="624,-129 592,-129 592,-110 624,-110 624,-129"/>
<text text-anchor="middle" x="608" y="-117" font-family="Helvetica,sans-Serif" font-size="10.00">set</text>
</a>
</g>
</g>
<!-- Node3&#45;&gt;Node6 -->
<g id="edge5" class="edge">
<title>Node3&#45;&gt;Node6</title>
<path fill="none" stroke="#63b8ff" d="M761.63,-164.96C730.75,-156.91 683.37,-144.22 633.72,-129.09"/>
<polygon fill="#63b8ff" stroke="#63b8ff" points="634.68,-125.72 624.09,-126.13 632.62,-132.41 634.68,-125.72"/>
</g>
<!-- Node7 -->
<g id="node7" class="node">
<title>Node7</title>
<g id="a_node7"><a xlink:title=" ">
<polygon fill="#e0e0e0" stroke="#999999" points="680,-129 642,-129 642,-110 680,-110 680,-129"/>
<text text-anchor="middle" x="661" y="-117" font-family="Helvetica,sans-Serif" font-size="10.00">map</text>
</a>
</g>
</g>
<!-- Node3&#45;&gt;Node7 -->
<g id="edge6" class="edge">
<title>Node3&#45;&gt;Node7</title>
<path fill="none" stroke="#63b8ff" d="M773.47,-164.98C750.74,-155.99 714.8,-141.78 689.68,-131.84"/>
<polygon fill="#63b8ff" stroke="#63b8ff" points="690.89,-128.56 680.3,-128.13 688.31,-135.07 690.89,-128.56"/>
</g>
<!-- Node8 -->
<g id="node8" class="node">
<title>Node8</title>
<g id="a_node8"><a xlink:title=" ">
<polygon fill="#e0e0e0" stroke="#999999" points="784,-129 698,-129 698,-110 784,-110 784,-129"/>
<text text-anchor="middle" x="741" y="-117" font-family="Helvetica,sans-Serif" font-size="10.00">unordered_set</text>
</a>
</g>
</g>
<!-- Node3&#45;&gt;Node8 -->
<g id="edge7" class="edge">
<title>Node3&#45;&gt;Node8</title>
<path fill="none" stroke="#63b8ff" d="M786.08,-164.75C778.22,-157.03 766.57,-145.6 757.08,-136.28"/>
<polygon fill="#63b8ff" stroke="#63b8ff" points="759.34,-133.6 749.75,-129.09 754.44,-138.59 759.34,-133.6"/>
</g>
<!-- Node9 -->
<g id="node9" class="node">
<title>Node9</title>
<g id="a_node9"><a xlink:title=" ">
<polygon fill="#e0e0e0" stroke="#999999" points="895.5,-129 802.5,-129 802.5,-110 895.5,-110 895.5,-129"/>
<text text-anchor="middle" x="849" y="-117" font-family="Helvetica,sans-Serif" font-size="10.00">unordered_map</text>
</a>
</g>
</g>
<!-- Node3&#45;&gt;Node9 -->
<g id="edge8" class="edge">
<title>Node3&#45;&gt;Node9</title>
<path fill="none" stroke="#63b8ff" d="M803.92,-164.75C811.78,-157.03 823.43,-145.6 832.92,-136.28"/>
<polygon fill="#63b8ff" stroke="#63b8ff" points="835.56,-138.59 840.25,-129.09 830.66,-133.6 835.56,-138.59"/>
</g>
<!-- Node10 -->
<g id="node10" class="node">
<title>Node10</title>
<g id="a_node10"><a xlink:title=" ">
<polygon fill="#e0e0e0" stroke="#999999" points="956.5,-129 913.5,-129 913.5,-110 956.5,-110 956.5,-129"/>
<text text-anchor="middle" x="935" y="-117" font-family="Helvetica,sans-Serif" font-size="10.00">stack</text>
</a>
</g>
</g>
<!-- Node3&#45;&gt;Node10 -->
<g id="edge9" class="edge">
<title>Node3&#45;&gt;Node10</title>
<path fill="none" stroke="#63b8ff" d="M817.49,-164.98C840.93,-156.11 877.83,-142.14 904.02,-132.23"/>
<polygon fill="#63b8ff" stroke="#63b8ff" points="905.37,-135.46 913.48,-128.65 902.89,-128.91 905.37,-135.46"/>
</g>
<!-- Node12 -->
<g id="node12" class="node">
<title>Node12</title>
<g id="a_node12"><a xlink:href="../../d7/d5c/qcstring_8h.html" target="_top" xlink:title=" ">
<polygon fill="white" stroke="#666666" points="331.5,-129 266.5,-129 266.5,-110 331.5,-110 331.5,-129"/>
<text text-anchor="middle" x="299" y="-117" font-family="Helvetica,sans-Serif" font-size="10.00">qcstring.h</text>
</a>
</g>
</g>
<!-- Node11&#45;&gt;Node12 -->
<g id="edge11" class="edge">
<title>Node11&#45;&gt;Node12</title>
<path fill="none" stroke="#63b8ff" d="M522.25,-167.83C479.02,-158.67 393.47,-140.53 341.73,-129.56"/>
<polygon fill="#63b8ff" stroke="#63b8ff" points="342.37,-126.12 331.86,-127.47 340.92,-132.96 342.37,-126.12"/>
</g>
<!-- Node12&#45;&gt;Node5 -->
<g id="edge12" class="edge">
<title>Node12&#45;&gt;Node5</title>
<path fill="none" stroke="#63b8ff" d="M331.76,-119.26C375.65,-118.67 454.15,-111.82 507,-74 522.64,-62.81 532.98,-43 538.87,-28.47"/>
<polygon fill="#63b8ff" stroke="#63b8ff" points="542.18,-29.62 542.39,-19.03 535.62,-27.18 542.18,-29.62"/>
</g>
<!-- Node13 -->
<g id="node13" class="node">
<title>Node13</title>
<g id="a_node13"><a xlink:title=" ">
<polygon fill="#e0e0e0" stroke="#999999" points="155,-74 91,-74 91,-55 155,-55 155,-74"/>
<text text-anchor="middle" x="123" y="-62" font-family="Helvetica,sans-Serif" font-size="10.00">algorithm</text>
</a>
</g>
</g>
<!-- Node12&#45;&gt;Node13 -->
<g id="edge13" class="edge">
<title>Node12&#45;&gt;Node13</title>
<path fill="none" stroke="#63b8ff" d="M270.72,-109.98C241.05,-101.05 194.21,-86.94 161.25,-77.02"/>
<polygon fill="#63b8ff" stroke="#63b8ff" points="162.08,-73.61 151.5,-74.08 160.07,-80.32 162.08,-73.61"/>
</g>
<!-- Node14 -->
<g id="node14" class="node">
<title>Node14</title>
<g id="a_node14"><a xlink:title=" ">
<polygon fill="#e0e0e0" stroke="#999999" points="222.5,-74 173.5,-74 173.5,-55 222.5,-55 222.5,-74"/>
<text text-anchor="middle" x="198" y="-62" font-family="Helvetica,sans-Serif" font-size="10.00">cctype</text>
</a>
</g>
</g>
<!-- Node12&#45;&gt;Node14 -->
<g id="edge14" class="edge">
<title>Node12&#45;&gt;Node14</title>
<path fill="none" stroke="#63b8ff" d="M282.77,-109.98C266.82,-101.61 242.22,-88.7 223.62,-78.95"/>
<polygon fill="#63b8ff" stroke="#63b8ff" points="225,-75.72 214.52,-74.17 221.75,-81.92 225,-75.72"/>
</g>
<!-- Node15 -->
<g id="node15" class="node">
<title>Node15</title>
<g id="a_node15"><a xlink:title=" ">
<polygon fill="#e0e0e0" stroke="#999999" points="291,-74 241,-74 241,-55 291,-55 291,-74"/>
<text text-anchor="middle" x="266" y="-62" font-family="Helvetica,sans-Serif" font-size="10.00">cstring</text>
</a>
</g>
</g>
<!-- Node12&#45;&gt;Node15 -->
<g id="edge15" class="edge">
<title>Node12&#45;&gt;Node15</title>
<path fill="none" stroke="#63b8ff" d="M293.55,-109.75C288.99,-102.42 282.33,-91.73 276.71,-82.7"/>
<polygon fill="#63b8ff" stroke="#63b8ff" points="279.6,-80.73 271.35,-74.09 273.66,-84.43 279.6,-80.73"/>
</g>
<!-- Node16 -->
<g id="node16" class="node">
<title>Node16</title>
<g id="a_node16"><a xlink:title=" ">
<polygon fill="#e0e0e0" stroke="#999999" points="355,-74 309,-74 309,-55 355,-55 355,-74"/>
<text text-anchor="middle" x="332" y="-62" font-family="Helvetica,sans-Serif" font-size="10.00">cstdio</text>
</a>
</g>
</g>
<!-- Node12&#45;&gt;Node16 -->
<g id="edge16" class="edge">
<title>Node12&#45;&gt;Node16</title>
<path fill="none" stroke="#63b8ff" d="M304.45,-109.75C309.01,-102.42 315.67,-91.73 321.29,-82.7"/>
<polygon fill="#63b8ff" stroke="#63b8ff" points="324.34,-84.43 326.65,-74.09 318.4,-80.73 324.34,-84.43"/>
</g>
<!-- Node17 -->
<g id="node17" class="node">
<title>Node17</title>
<g id="a_node17"><a xlink:title=" ">
<polygon fill="#e0e0e0" stroke="#999999" points="422.5,-74 373.5,-74 373.5,-55 422.5,-55 422.5,-74"/>
<text text-anchor="middle" x="398" y="-62" font-family="Helvetica,sans-Serif" font-size="10.00">cstdlib</text>
</a>
</g>
</g>
<!-- Node12&#45;&gt;Node17 -->
<g id="edge17" class="edge">
<title>Node12&#45;&gt;Node17</title>
<path fill="none" stroke="#63b8ff" d="M314.91,-109.98C330.55,-101.61 354.66,-88.7 372.88,-78.95"/>
<polygon fill="#63b8ff" stroke="#63b8ff" points="374.64,-81.98 381.8,-74.17 371.34,-75.8 374.64,-81.98"/>
</g>
<!-- Node18 -->
<g id="node18" class="node">
<title>Node18</title>
<g id="a_node18"><a xlink:title=" ">
<polygon fill="#e0e0e0" stroke="#999999" points="50,-19 0,-19 0,0 50,0 50,-19"/>
<text text-anchor="middle" x="25" y="-7" font-family="Helvetica,sans-Serif" font-size="10.00">cstdint</text>
</a>
</g>
</g>
<!-- Node12&#45;&gt;Node18 -->
<g id="edge18" class="edge">
<title>Node12&#45;&gt;Node18</title>
<path fill="none" stroke="#63b8ff" d="M266.39,-118.4C199.35,-117.42 49.64,-111.04 18,-74 7.44,-61.63 11.27,-42.6 16.47,-28.6"/>
<polygon fill="#63b8ff" stroke="#63b8ff" points="19.84,-29.63 20.51,-19.06 13.39,-26.91 19.84,-29.63"/>
</g>
<!-- Node19 -->
<g id="node19" class="node">
<title>Node19</title>
<g id="a_node19"><a xlink:title=" ">
<polygon fill="#e0e0e0" stroke="#999999" points="497.5,-74 440.5,-74 440.5,-55 497.5,-55 497.5,-74"/>
<text text-anchor="middle" x="469" y="-62" font-family="Helvetica,sans-Serif" font-size="10.00">ostream</text>
</a>
</g>
</g>
<!-- Node12&#45;&gt;Node19 -->
<g id="edge19" class="edge">
<title>Node12&#45;&gt;Node19</title>
<path fill="none" stroke="#63b8ff" d="M326.31,-109.98C354.85,-101.09 399.83,-87.07 431.64,-77.15"/>
<polygon fill="#63b8ff" stroke="#63b8ff" points="432.97,-80.4 441.47,-74.08 430.88,-73.72 432.97,-80.4"/>
</g>
<!-- Node20 -->
<g id="node20" class="node">
<title>Node20</title>
<g id="a_node20"><a xlink:href="../../db/d7c/utf8_8h.html" target="_top" xlink:title="Various UTF8 related helper functions.">
<polygon fill="white" stroke="#666666" points="72.5,-74 27.5,-74 27.5,-55 72.5,-55 72.5,-74"/>
<text text-anchor="middle" x="50" y="-62" font-family="Helvetica,sans-Serif" font-size="10.00">utf8.h</text>
</a>
</g>
</g>
<!-- Node12&#45;&gt;Node20 -->
<g id="edge20" class="edge">
<title>Node12&#45;&gt;Node20</title>
<path fill="none" stroke="#63b8ff" d="M266.15,-112.37C225.45,-104.65 153.76,-90.61 82.7,-74.05"/>
<polygon fill="#63b8ff" stroke="#63b8ff" points="83.22,-70.58 72.69,-71.7 81.62,-77.39 83.22,-70.58"/>
</g>
<!-- Node20&#45;&gt;Node5 -->
<g id="edge22" class="edge">
<title>Node20&#45;&gt;Node5</title>
<path fill="none" stroke="#63b8ff" d="M72.62,-57C75.75,-56.24 78.94,-55.55 82,-55 241.84,-26.29 436.28,-15.23 512.32,-11.8"/>
<polygon fill="#63b8ff" stroke="#63b8ff" points="512.82,-15.28 522.66,-11.35 512.51,-8.29 512.82,-15.28"/>
</g>
<!-- Node20&#45;&gt;Node18 -->
<g id="edge21" class="edge">
<title>Node20&#45;&gt;Node18</title>
<path fill="none" stroke="#63b8ff" d="M45.87,-54.75C42.49,-47.57 37.58,-37.18 33.38,-28.27"/>
<polygon fill="#63b8ff" stroke="#63b8ff" points="36.48,-26.64 29.05,-19.09 30.15,-29.63 36.48,-26.64"/>
</g>
</g>
</svg>
