<?xml version="1.0" encoding="UTF-8" standalone="no"?>
<!DOCTYPE svg PUBLIC "-//W3C//DTD SVG 1.1//EN"
 "http://www.w3.org/Graphics/SVG/1.1/DTD/svg11.dtd">
<!-- Generated by graphviz version 2.43.0 (0)
 -->
<!-- Title: /home/runner/work/doxygen/doxygen/src/memberlist.h Pages: 1 -->
<svg width="1009pt" height="478pt"
 viewBox="0.00 0.00 1009.00 478.00" xmlns="http://www.w3.org/2000/svg" xmlns:xlink="http://www.w3.org/1999/xlink">
<g id="graph0" class="graph" transform="scale(1 1) rotate(0) translate(4 474)">
<title>/home/runner/work/doxygen/doxygen/src/memberlist.h</title>
<!-- Node1 -->
<g id="node1" class="node">
<title>Node1</title>
<g id="a_node1"><a xlink:title=" ">
<polygon fill="#999999" stroke="#666666" points="855,-470 701,-470 701,-440 855,-440 855,-470"/>
<text text-anchor="start" x="709" y="-458" font-family="Helvetica,sans-Serif" font-size="10.00">/home/runner/work/doxygen</text>
<text text-anchor="middle" x="778" y="-447" font-family="Helvetica,sans-Serif" font-size="10.00">/doxygen/src/memberlist.h</text>
</a>
</g>
</g>
<!-- Node2 -->
<g id="node2" class="node">
<title>Node2</title>
<g id="a_node2"><a xlink:title=" ">
<polygon fill="#e0e0e0" stroke="#999999" points="404.5,-129 357.5,-129 357.5,-110 404.5,-110 404.5,-129"/>
<text text-anchor="middle" x="381" y="-117" font-family="Helvetica,sans-Serif" font-size="10.00">vector</text>
</a>
</g>
</g>
<!-- Node1&#45;&gt;Node2 -->
<g id="edge1" class="edge">
<title>Node1&#45;&gt;Node2</title>
<path fill="none" stroke="#63b8ff" d="M700.92,-450.76C504.38,-441.49 0,-410.84 0,-340.5 0,-340.5 0,-340.5 0,-283.5 0,-133 254.4,-119.62 347.44,-119.76"/>
<polygon fill="#63b8ff" stroke="#63b8ff" points="347.43,-123.26 357.45,-119.83 347.48,-116.26 347.43,-123.26"/>
</g>
<!-- Node3 -->
<g id="node3" class="node">
<title>Node3</title>
<g id="a_node3"><a xlink:title=" ">
<polygon fill="#e0e0e0" stroke="#999999" points="1001,-74 937,-74 937,-55 1001,-55 1001,-74"/>
<text text-anchor="middle" x="969" y="-62" font-family="Helvetica,sans-Serif" font-size="10.00">algorithm</text>
</a>
</g>
</g>
<!-- Node1&#45;&gt;Node3 -->
<g id="edge2" class="edge">
<title>Node1&#45;&gt;Node3</title>
<path fill="none" stroke="#63b8ff" d="M855.08,-443.36C913.93,-430.38 985,-401.98 985,-340.5 985,-340.5 985,-340.5 985,-173.5 985,-141.85 978.19,-105.54 973.46,-84.11"/>
<polygon fill="#63b8ff" stroke="#63b8ff" points="976.81,-83.08 971.16,-74.12 969.99,-84.65 976.81,-83.08"/>
</g>
<!-- Node4 -->
<g id="node4" class="node">
<title>Node4</title>
<g id="a_node4"><a xlink:href="../../d4/d46/memberdef_8h.html" target="_top" xlink:title=" ">
<polygon fill="white" stroke="#666666" points="717,-404 635,-404 635,-385 717,-385 717,-404"/>
<text text-anchor="middle" x="676" y="-392" font-family="Helvetica,sans-Serif" font-size="10.00">memberdef.h</text>
</a>
</g>
</g>
<!-- Node1&#45;&gt;Node4 -->
<g id="edge3" class="edge">
<title>Node1&#45;&gt;Node4</title>
<path fill="none" stroke="#63b8ff" d="M753.57,-439.99C737.31,-430.66 716.05,-418.47 699.9,-409.21"/>
<polygon fill="#63b8ff" stroke="#63b8ff" points="701.48,-406.08 691.06,-404.14 698,-412.15 701.48,-406.08"/>
</g>
<!-- Node7 -->
<g id="node7" class="node">
<title>Node7</title>
<g id="a_node7"><a xlink:href="../../d9/d49/types_8h.html" target="_top" xlink:title="This file contains a number of basic enums and types.">
<polygon fill="white" stroke="#666666" points="843.5,-239 790.5,-239 790.5,-220 843.5,-220 843.5,-239"/>
<text text-anchor="middle" x="817" y="-227" font-family="Helvetica,sans-Serif" font-size="10.00">types.h</text>
</a>
</g>
</g>
<!-- Node1&#45;&gt;Node7 -->
<g id="edge59" class="edge">
<title>Node1&#45;&gt;Node7</title>
<path fill="none" stroke="#63b8ff" d="M784.05,-439.79C795.41,-412.27 819.53,-349.53 828,-294 830.32,-278.77 826.97,-261.56 823.37,-248.9"/>
<polygon fill="#63b8ff" stroke="#63b8ff" points="826.63,-247.59 820.28,-239.11 819.95,-249.7 826.63,-247.59"/>
</g>
<!-- Node20 -->
<g id="node20" class="node">
<title>Node20</title>
<g id="a_node20"><a xlink:href="../../da/de1/linkedmap_8h.html" target="_top" xlink:title=" ">
<polygon fill="white" stroke="#666666" points="924.5,-184 847.5,-184 847.5,-165 924.5,-165 924.5,-184"/>
<text text-anchor="middle" x="886" y="-172" font-family="Helvetica,sans-Serif" font-size="10.00">linkedmap.h</text>
</a>
</g>
</g>
<!-- Node1&#45;&gt;Node20 -->
<g id="edge58" class="edge">
<title>Node1&#45;&gt;Node20</title>
<path fill="none" stroke="#63b8ff" d="M806.09,-439.99C838.09,-421.82 886,-386.88 886,-340.5 886,-340.5 886,-340.5 886,-283.5 886,-252.19 886,-215.77 886,-194.23"/>
<polygon fill="#63b8ff" stroke="#63b8ff" points="889.5,-194.18 886,-184.18 882.5,-194.18 889.5,-194.18"/>
</g>
<!-- Node28 -->
<g id="node28" class="node">
<title>Node28</title>
<g id="a_node28"><a xlink:href="../../d9/d11/membergroup_8h.html" target="_top" xlink:title=" ">
<polygon fill="white" stroke="#666666" points="615.5,-294 520.5,-294 520.5,-275 615.5,-275 615.5,-294"/>
<text text-anchor="middle" x="568" y="-282" font-family="Helvetica,sans-Serif" font-size="10.00">membergroup.h</text>
</a>
</g>
</g>
<!-- Node1&#45;&gt;Node28 -->
<g id="edge60" class="edge">
<title>Node1&#45;&gt;Node28</title>
<path fill="none" stroke="#63b8ff" d="M701.38,-439.97C675.5,-432.47 647.71,-421.11 626,-404 593.73,-378.57 578.21,-330.6 571.81,-304.16"/>
<polygon fill="#63b8ff" stroke="#63b8ff" points="575.19,-303.27 569.6,-294.27 568.36,-304.8 575.19,-303.27"/>
</g>
<!-- Node4&#45;&gt;Node2 -->
<g id="edge4" class="edge">
<title>Node4&#45;&gt;Node2</title>
<path fill="none" stroke="#63b8ff" d="M634.76,-390.45C499.2,-379.9 76,-342.39 76,-285.5 76,-285.5 76,-285.5 76,-228.5 76,-189.98 101.2,-183.49 135,-165 203.64,-127.45 297.6,-120.72 347.18,-120.02"/>
<polygon fill="#63b8ff" stroke="#63b8ff" points="347.37,-123.52 357.35,-119.96 347.32,-116.52 347.37,-123.52"/>
</g>
<!-- Node5 -->
<g id="node5" class="node">
<title>Node5</title>
<g id="a_node5"><a xlink:title=" ">
<polygon fill="#e0e0e0" stroke="#999999" points="732,-129 674,-129 674,-110 732,-110 732,-129"/>
<text text-anchor="middle" x="703" y="-117" font-family="Helvetica,sans-Serif" font-size="10.00">memory</text>
</a>
</g>
</g>
<!-- Node4&#45;&gt;Node5 -->
<g id="edge5" class="edge">
<title>Node4&#45;&gt;Node5</title>
<path fill="none" stroke="#63b8ff" d="M705.14,-384.87C722.35,-378.1 742.74,-366.79 753,-349 793.79,-278.31 739.72,-177.79 714.59,-137.84"/>
<polygon fill="#63b8ff" stroke="#63b8ff" points="717.27,-135.54 708.9,-129.04 711.4,-139.34 717.27,-135.54"/>
</g>
<!-- Node6 -->
<g id="node6" class="node">
<title>Node6</title>
<g id="a_node6"><a xlink:title=" ">
<polygon fill="#e0e0e0" stroke="#999999" points="744,-349 672,-349 672,-330 744,-330 744,-349"/>
<text text-anchor="middle" x="708" y="-337" font-family="Helvetica,sans-Serif" font-size="10.00">sys/types.h</text>
</a>
</g>
</g>
<!-- Node4&#45;&gt;Node6 -->
<g id="edge6" class="edge">
<title>Node4&#45;&gt;Node6</title>
<path fill="none" stroke="#63b8ff" d="M681.28,-384.75C685.71,-377.42 692.16,-366.73 697.62,-357.7"/>
<polygon fill="#63b8ff" stroke="#63b8ff" points="700.64,-359.46 702.81,-349.09 694.65,-355.84 700.64,-359.46"/>
</g>
<!-- Node4&#45;&gt;Node7 -->
<g id="edge7" class="edge">
<title>Node4&#45;&gt;Node7</title>
<path fill="none" stroke="#63b8ff" d="M717.13,-386.32C740.44,-380.19 768.39,-369.04 786,-349 810.84,-320.75 816.15,-274.95 817.06,-249.35"/>
<polygon fill="#63b8ff" stroke="#63b8ff" points="820.57,-249.2 817.23,-239.15 813.57,-249.09 820.57,-249.2"/>
</g>
<!-- Node17 -->
<g id="node17" class="node">
<title>Node17</title>
<g id="a_node17"><a xlink:href="../../df/da1/definition_8h.html" target="_top" xlink:title=" ">
<polygon fill="white" stroke="#666666" points="743.5,-294 672.5,-294 672.5,-275 743.5,-275 743.5,-294"/>
<text text-anchor="middle" x="708" y="-282" font-family="Helvetica,sans-Serif" font-size="10.00">definition.h</text>
</a>
</g>
</g>
<!-- Node4&#45;&gt;Node17 -->
<g id="edge20" class="edge">
<title>Node4&#45;&gt;Node17</title>
<path fill="none" stroke="#63b8ff" d="M671.18,-384.98C664.79,-372.49 655.2,-348.69 663,-330 667.86,-318.36 677.42,-308.2 686.48,-300.55"/>
<polygon fill="#63b8ff" stroke="#63b8ff" points="688.8,-303.17 694.51,-294.25 684.48,-297.67 688.8,-303.17"/>
</g>
<!-- Node21 -->
<g id="node21" class="node">
<title>Node21</title>
<g id="a_node21"><a xlink:href="../../df/d9b/arguments_8h.html" target="_top" xlink:title=" ">
<polygon fill="white" stroke="#666666" points="563,-184 485,-184 485,-165 563,-165 563,-184"/>
<text text-anchor="middle" x="524" y="-172" font-family="Helvetica,sans-Serif" font-size="10.00">arguments.h</text>
</a>
</g>
</g>
<!-- Node4&#45;&gt;Node21 -->
<g id="edge36" class="edge">
<title>Node4&#45;&gt;Node21</title>
<path fill="none" stroke="#63b8ff" d="M672.22,-384.64C660.82,-357.95 627.37,-279.91 624,-275 600.66,-240.93 564.68,-208.58 542.84,-190.46"/>
<polygon fill="#63b8ff" stroke="#63b8ff" points="544.91,-187.63 534.95,-184.02 540.49,-193.06 544.91,-187.63"/>
</g>
<!-- Node22 -->
<g id="node22" class="node">
<title>Node22</title>
<g id="a_node22"><a xlink:href="../../d1/da6/classdef_8h.html" target="_top" xlink:title=" ">
<polygon fill="white" stroke="#666666" points="524.5,-349 459.5,-349 459.5,-330 524.5,-330 524.5,-349"/>
<text text-anchor="middle" x="492" y="-337" font-family="Helvetica,sans-Serif" font-size="10.00">classdef.h</text>
</a>
</g>
</g>
<!-- Node4&#45;&gt;Node22 -->
<g id="edge39" class="edge">
<title>Node4&#45;&gt;Node22</title>
<path fill="none" stroke="#63b8ff" d="M646.44,-384.98C615.28,-376.01 566.03,-361.82 531.54,-351.89"/>
<polygon fill="#63b8ff" stroke="#63b8ff" points="532.37,-348.49 521.79,-349.08 530.43,-355.21 532.37,-348.49"/>
</g>
<!-- Node8 -->
<g id="node8" class="node">
<title>Node8</title>
<g id="a_node8"><a xlink:href="../../d7/d5c/qcstring_8h.html" target="_top" xlink:title=" ">
<polygon fill="white" stroke="#666666" points="815.5,-129 750.5,-129 750.5,-110 815.5,-110 815.5,-129"/>
<text text-anchor="middle" x="783" y="-117" font-family="Helvetica,sans-Serif" font-size="10.00">qcstring.h</text>
</a>
</g>
</g>
<!-- Node7&#45;&gt;Node8 -->
<g id="edge8" class="edge">
<title>Node7&#45;&gt;Node8</title>
<path fill="none" stroke="#63b8ff" d="M814.22,-219.66C808.69,-202.09 796.21,-162.45 788.81,-138.95"/>
<polygon fill="#63b8ff" stroke="#63b8ff" points="792.07,-137.65 785.73,-129.16 785.39,-139.75 792.07,-137.65"/>
</g>
<!-- Node8&#45;&gt;Node3 -->
<g id="edge10" class="edge">
<title>Node8&#45;&gt;Node3</title>
<path fill="none" stroke="#63b8ff" d="M812.88,-109.98C844.38,-101.01 894.17,-86.82 929.03,-76.89"/>
<polygon fill="#63b8ff" stroke="#63b8ff" points="930.22,-80.19 938.88,-74.08 928.31,-73.46 930.22,-80.19"/>
</g>
<!-- Node9 -->
<g id="node9" class="node">
<title>Node9</title>
<g id="a_node9"><a xlink:title=" ">
<polygon fill="#e0e0e0" stroke="#999999" points="676,-19 632,-19 632,0 676,0 676,-19"/>
<text text-anchor="middle" x="654" y="-7" font-family="Helvetica,sans-Serif" font-size="10.00">string</text>
</a>
</g>
</g>
<!-- Node8&#45;&gt;Node9 -->
<g id="edge9" class="edge">
<title>Node8&#45;&gt;Node9</title>
<path fill="none" stroke="#63b8ff" d="M750.18,-111.51C695.52,-99.81 591.54,-77.18 589,-74 573.81,-54.94 600.63,-35.76 624.28,-23.54"/>
<polygon fill="#63b8ff" stroke="#63b8ff" points="625.99,-26.6 633.43,-19.06 622.91,-20.32 625.99,-26.6"/>
</g>
<!-- Node10 -->
<g id="node10" class="node">
<title>Node10</title>
<g id="a_node10"><a xlink:title=" ">
<polygon fill="#e0e0e0" stroke="#999999" points="880.5,-74 831.5,-74 831.5,-55 880.5,-55 880.5,-74"/>
<text text-anchor="middle" x="856" y="-62" font-family="Helvetica,sans-Serif" font-size="10.00">cctype</text>
</a>
</g>
</g>
<!-- Node8&#45;&gt;Node10 -->
<g id="edge11" class="edge">
<title>Node8&#45;&gt;Node10</title>
<path fill="none" stroke="#63b8ff" d="M794.73,-109.98C805.73,-102 822.42,-89.88 835.6,-80.31"/>
<polygon fill="#63b8ff" stroke="#63b8ff" points="838.02,-82.88 844.06,-74.17 833.91,-77.21 838.02,-82.88"/>
</g>
<!-- Node11 -->
<g id="node11" class="node">
<title>Node11</title>
<g id="a_node11"><a xlink:title=" ">
<polygon fill="#e0e0e0" stroke="#999999" points="542,-74 492,-74 492,-55 542,-55 542,-74"/>
<text text-anchor="middle" x="517" y="-62" font-family="Helvetica,sans-Serif" font-size="10.00">cstring</text>
</a>
</g>
</g>
<!-- Node8&#45;&gt;Node11 -->
<g id="edge12" class="edge">
<title>Node8&#45;&gt;Node11</title>
<path fill="none" stroke="#63b8ff" d="M750.45,-111.89C747.25,-111.25 744.06,-110.61 741,-110 658.84,-93.69 638.04,-90.92 556,-74 554.74,-73.74 553.46,-73.47 552.16,-73.2"/>
<polygon fill="#63b8ff" stroke="#63b8ff" points="552.67,-69.73 542.16,-71.07 551.21,-76.58 552.67,-69.73"/>
</g>
<!-- Node12 -->
<g id="node12" class="node">
<title>Node12</title>
<g id="a_node12"><a xlink:title=" ">
<polygon fill="#e0e0e0" stroke="#999999" points="644,-74 598,-74 598,-55 644,-55 644,-74"/>
<text text-anchor="middle" x="621" y="-62" font-family="Helvetica,sans-Serif" font-size="10.00">cstdio</text>
</a>
</g>
</g>
<!-- Node8&#45;&gt;Node12 -->
<g id="edge13" class="edge">
<title>Node8&#45;&gt;Node12</title>
<path fill="none" stroke="#63b8ff" d="M756.97,-109.98C728.93,-100.81 684.24,-86.19 653.81,-76.23"/>
<polygon fill="#63b8ff" stroke="#63b8ff" points="654.67,-72.83 644.08,-73.05 652.49,-79.49 654.67,-72.83"/>
</g>
<!-- Node13 -->
<g id="node13" class="node">
<title>Node13</title>
<g id="a_node13"><a xlink:title=" ">
<polygon fill="#e0e0e0" stroke="#999999" points="711.5,-74 662.5,-74 662.5,-55 711.5,-55 711.5,-74"/>
<text text-anchor="middle" x="687" y="-62" font-family="Helvetica,sans-Serif" font-size="10.00">cstdlib</text>
</a>
</g>
</g>
<!-- Node8&#45;&gt;Node13 -->
<g id="edge14" class="edge">
<title>Node8&#45;&gt;Node13</title>
<path fill="none" stroke="#63b8ff" d="M767.58,-109.98C752.55,-101.69 729.46,-88.94 711.84,-79.22"/>
<polygon fill="#63b8ff" stroke="#63b8ff" points="713.15,-75.94 702.7,-74.17 709.77,-82.07 713.15,-75.94"/>
</g>
<!-- Node14 -->
<g id="node14" class="node">
<title>Node14</title>
<g id="a_node14"><a xlink:title=" ">
<polygon fill="#e0e0e0" stroke="#999999" points="802,-19 752,-19 752,0 802,0 802,-19"/>
<text text-anchor="middle" x="777" y="-7" font-family="Helvetica,sans-Serif" font-size="10.00">cstdint</text>
</a>
</g>
</g>
<!-- Node8&#45;&gt;Node14 -->
<g id="edge15" class="edge">
<title>Node8&#45;&gt;Node14</title>
<path fill="none" stroke="#63b8ff" d="M783.37,-109.86C783.8,-97.63 784.31,-74.58 783,-55 782.43,-46.54 781.26,-37.24 780.11,-29.34"/>
<polygon fill="#63b8ff" stroke="#63b8ff" points="783.55,-28.67 778.55,-19.33 776.63,-29.75 783.55,-28.67"/>
</g>
<!-- Node15 -->
<g id="node15" class="node">
<title>Node15</title>
<g id="a_node15"><a xlink:title=" ">
<polygon fill="#e0e0e0" stroke="#999999" points="473.5,-74 416.5,-74 416.5,-55 473.5,-55 473.5,-74"/>
<text text-anchor="middle" x="445" y="-62" font-family="Helvetica,sans-Serif" font-size="10.00">ostream</text>
</a>
</g>
</g>
<!-- Node8&#45;&gt;Node15 -->
<g id="edge16" class="edge">
<title>Node8&#45;&gt;Node15</title>
<path fill="none" stroke="#63b8ff" d="M750.48,-111.71C747.28,-111.11 744.08,-110.53 741,-110 630,-91.04 598.62,-94.44 483.49,-73.94"/>
<polygon fill="#63b8ff" stroke="#63b8ff" points="484.05,-70.49 473.58,-72.16 482.8,-77.37 484.05,-70.49"/>
</g>
<!-- Node16 -->
<g id="node16" class="node">
<title>Node16</title>
<g id="a_node16"><a xlink:href="../../db/d7c/utf8_8h.html" target="_top" xlink:title="Various UTF8 related helper functions.">
<polygon fill="white" stroke="#666666" points="774.5,-74 729.5,-74 729.5,-55 774.5,-55 774.5,-74"/>
<text text-anchor="middle" x="752" y="-62" font-family="Helvetica,sans-Serif" font-size="10.00">utf8.h</text>
</a>
</g>
</g>
<!-- Node8&#45;&gt;Node16 -->
<g id="edge17" class="edge">
<title>Node8&#45;&gt;Node16</title>
<path fill="none" stroke="#63b8ff" d="M777.88,-109.75C773.64,-102.49 767.47,-91.95 762.22,-82.98"/>
<polygon fill="#63b8ff" stroke="#63b8ff" points="765.09,-80.95 757.02,-74.09 759.05,-84.49 765.09,-80.95"/>
</g>
<!-- Node16&#45;&gt;Node9 -->
<g id="edge19" class="edge">
<title>Node16&#45;&gt;Node9</title>
<path fill="none" stroke="#63b8ff" d="M736.25,-54.98C720.77,-46.61 696.91,-33.7 678.86,-23.95"/>
<polygon fill="#63b8ff" stroke="#63b8ff" points="680.49,-20.85 670.03,-19.17 677.16,-27.01 680.49,-20.85"/>
</g>
<!-- Node16&#45;&gt;Node14 -->
<g id="edge18" class="edge">
<title>Node16&#45;&gt;Node14</title>
<path fill="none" stroke="#63b8ff" d="M756.13,-54.75C759.51,-47.57 764.42,-37.18 768.62,-28.27"/>
<polygon fill="#63b8ff" stroke="#63b8ff" points="771.85,-29.63 772.95,-19.09 765.52,-26.64 771.85,-29.63"/>
</g>
<!-- Node17&#45;&gt;Node2 -->
<g id="edge21" class="edge">
<title>Node17&#45;&gt;Node2</title>
<path fill="none" stroke="#63b8ff" d="M684.28,-274.99C641.53,-259.29 549.19,-223.72 476,-184 448.73,-169.2 419.32,-148.78 400.56,-135.13"/>
<polygon fill="#63b8ff" stroke="#63b8ff" points="402.4,-132.14 392.27,-129.03 398.25,-137.78 402.4,-132.14"/>
</g>
<!-- Node17&#45;&gt;Node7 -->
<g id="edge22" class="edge">
<title>Node17&#45;&gt;Node7</title>
<path fill="none" stroke="#63b8ff" d="M725.51,-274.98C742.97,-266.5 770.01,-253.35 790.17,-243.54"/>
<polygon fill="#63b8ff" stroke="#63b8ff" points="791.71,-246.69 799.17,-239.17 788.64,-240.4 791.71,-246.69"/>
</g>
<!-- Node18 -->
<g id="node18" class="node">
<title>Node18</title>
<g id="a_node18"><a xlink:href="../../d1/d02/reflist_8h.html" target="_top" xlink:title=" ">
<polygon fill="white" stroke="#666666" points="733.5,-239 680.5,-239 680.5,-220 733.5,-220 733.5,-239"/>
<text text-anchor="middle" x="707" y="-227" font-family="Helvetica,sans-Serif" font-size="10.00">reflist.h</text>
</a>
</g>
</g>
<!-- Node17&#45;&gt;Node18 -->
<g id="edge23" class="edge">
<title>Node17&#45;&gt;Node18</title>
<path fill="none" stroke="#63b8ff" d="M707.83,-274.75C707.7,-267.8 707.52,-257.85 707.35,-249.13"/>
<polygon fill="#63b8ff" stroke="#63b8ff" points="710.85,-249.02 707.16,-239.09 703.85,-249.15 710.85,-249.02"/>
</g>
<!-- Node18&#45;&gt;Node2 -->
<g id="edge24" class="edge">
<title>Node18&#45;&gt;Node2</title>
<path fill="none" stroke="#63b8ff" d="M691.65,-219.97C667.06,-206.6 617.02,-180.64 572,-165 518.35,-146.37 453.52,-133.12 414.86,-126.15"/>
<polygon fill="#63b8ff" stroke="#63b8ff" points="415.13,-122.65 404.68,-124.36 413.92,-129.54 415.13,-122.65"/>
</g>
<!-- Node18&#45;&gt;Node5 -->
<g id="edge26" class="edge">
<title>Node18&#45;&gt;Node5</title>
<path fill="none" stroke="#63b8ff" d="M706.67,-219.66C706.02,-202.17 704.57,-162.8 703.7,-139.27"/>
<polygon fill="#63b8ff" stroke="#63b8ff" points="707.19,-139.02 703.32,-129.16 700.19,-139.28 707.19,-139.02"/>
</g>
<!-- Node18&#45;&gt;Node8 -->
<g id="edge27" class="edge">
<title>Node18&#45;&gt;Node8</title>
<path fill="none" stroke="#63b8ff" d="M713.22,-219.66C725.86,-201.69 754.75,-160.64 771.12,-137.38"/>
<polygon fill="#63b8ff" stroke="#63b8ff" points="774.01,-139.35 776.91,-129.16 768.29,-135.32 774.01,-139.35"/>
</g>
<!-- Node19 -->
<g id="node19" class="node">
<title>Node19</title>
<g id="a_node19"><a xlink:title=" ">
<polygon fill="#e0e0e0" stroke="#999999" points="655.5,-129 562.5,-129 562.5,-110 655.5,-110 655.5,-129"/>
<text text-anchor="middle" x="609" y="-117" font-family="Helvetica,sans-Serif" font-size="10.00">unordered_map</text>
</a>
</g>
</g>
<!-- Node18&#45;&gt;Node19 -->
<g id="edge25" class="edge">
<title>Node18&#45;&gt;Node19</title>
<path fill="none" stroke="#63b8ff" d="M698.98,-219.66C682.53,-201.54 644.76,-159.91 623.76,-136.77"/>
<polygon fill="#63b8ff" stroke="#63b8ff" points="626.17,-134.21 616.86,-129.16 620.98,-138.92 626.17,-134.21"/>
</g>
<!-- Node18&#45;&gt;Node20 -->
<g id="edge28" class="edge">
<title>Node18&#45;&gt;Node20</title>
<path fill="none" stroke="#63b8ff" d="M733.8,-220.57C763.98,-211.63 813.28,-197.03 847.56,-186.88"/>
<polygon fill="#63b8ff" stroke="#63b8ff" points="848.64,-190.21 857.24,-184.02 846.66,-183.5 848.64,-190.21"/>
</g>
<!-- Node20&#45;&gt;Node2 -->
<g id="edge30" class="edge">
<title>Node20&#45;&gt;Node2</title>
<path fill="none" stroke="#63b8ff" d="M847.21,-169.43C751.45,-159.38 505.02,-133.52 414.77,-124.04"/>
<polygon fill="#63b8ff" stroke="#63b8ff" points="414.87,-120.54 404.56,-122.97 414.14,-127.5 414.87,-120.54"/>
</g>
<!-- Node20&#45;&gt;Node3 -->
<g id="edge33" class="edge">
<title>Node20&#45;&gt;Node3</title>
<path fill="none" stroke="#63b8ff" d="M893.55,-164.78C901.15,-155.91 913.14,-141.7 923,-129 934.96,-113.6 947.94,-95.55 957.05,-82.64"/>
<polygon fill="#63b8ff" stroke="#63b8ff" points="960.05,-84.46 962.93,-74.26 954.32,-80.44 960.05,-84.46"/>
</g>
<!-- Node20&#45;&gt;Node5 -->
<g id="edge31" class="edge">
<title>Node20&#45;&gt;Node5</title>
<path fill="none" stroke="#63b8ff" d="M856.6,-164.98C825.42,-155.96 776.04,-141.65 741.72,-131.71"/>
<polygon fill="#63b8ff" stroke="#63b8ff" points="742.61,-128.33 732.03,-128.91 740.66,-135.05 742.61,-128.33"/>
</g>
<!-- Node20&#45;&gt;Node8 -->
<g id="edge35" class="edge">
<title>Node20&#45;&gt;Node8</title>
<path fill="none" stroke="#63b8ff" d="M869.45,-164.98C853.11,-156.57 827.87,-143.59 808.87,-133.81"/>
<polygon fill="#63b8ff" stroke="#63b8ff" points="810.34,-130.63 799.85,-129.17 807.14,-136.86 810.34,-130.63"/>
</g>
<!-- Node20&#45;&gt;Node9 -->
<g id="edge32" class="edge">
<title>Node20&#45;&gt;Node9</title>
<path fill="none" stroke="#63b8ff" d="M889.64,-164.82C897.98,-143.38 915.78,-87.33 889,-55 876.14,-39.47 747.47,-21.89 686.17,-14.31"/>
<polygon fill="#63b8ff" stroke="#63b8ff" points="686.59,-10.83 676.24,-13.09 685.74,-17.78 686.59,-10.83"/>
</g>
<!-- Node20&#45;&gt;Node10 -->
<g id="edge34" class="edge">
<title>Node20&#45;&gt;Node10</title>
<path fill="none" stroke="#63b8ff" d="M883.54,-164.66C878.66,-147.09 867.65,-107.45 861.13,-83.95"/>
<polygon fill="#63b8ff" stroke="#63b8ff" points="864.45,-82.86 858.41,-74.16 857.71,-84.73 864.45,-82.86"/>
</g>
<!-- Node20&#45;&gt;Node19 -->
<g id="edge29" class="edge">
<title>Node20&#45;&gt;Node19</title>
<path fill="none" stroke="#63b8ff" d="M847.48,-166.13C799.72,-156.99 717.99,-141.35 663.73,-130.97"/>
<polygon fill="#63b8ff" stroke="#63b8ff" points="664.08,-127.48 653.6,-129.03 662.77,-134.35 664.08,-127.48"/>
</g>
<!-- Node21&#45;&gt;Node2 -->
<g id="edge37" class="edge">
<title>Node21&#45;&gt;Node2</title>
<path fill="none" stroke="#63b8ff" d="M501.02,-164.98C477.5,-156.27 440.71,-142.63 414.06,-132.75"/>
<polygon fill="#63b8ff" stroke="#63b8ff" points="414.99,-129.36 404.39,-129.17 412.55,-135.93 414.99,-129.36"/>
</g>
<!-- Node21&#45;&gt;Node8 -->
<g id="edge38" class="edge">
<title>Node21&#45;&gt;Node8</title>
<path fill="none" stroke="#63b8ff" d="M563.06,-165.51C610.68,-155.76 690.91,-139.34 740.18,-129.26"/>
<polygon fill="#63b8ff" stroke="#63b8ff" points="741.11,-132.64 750.2,-127.21 739.71,-125.79 741.11,-132.64"/>
</g>
<!-- Node22&#45;&gt;Node2 -->
<g id="edge40" class="edge">
<title>Node22&#45;&gt;Node2</title>
<path fill="none" stroke="#63b8ff" d="M459.24,-337.5C406.67,-334.97 300.97,-325.96 218,-294 176.01,-277.83 154.5,-278.53 133,-239 86.83,-154.13 268.83,-129.38 346.96,-122.74"/>
<polygon fill="#63b8ff" stroke="#63b8ff" points="347.57,-126.21 357.26,-121.92 347.01,-119.23 347.57,-126.21"/>
</g>
<!-- Node22&#45;&gt;Node17 -->
<g id="edge50" class="edge">
<title>Node22&#45;&gt;Node17</title>
<path fill="none" stroke="#63b8ff" d="M524.81,-330.45C561.77,-321.38 622.05,-306.59 663.3,-296.47"/>
<polygon fill="#63b8ff" stroke="#63b8ff" points="664.21,-299.85 673.09,-294.07 662.55,-293.05 664.21,-299.85"/>
</g>
<!-- Node22&#45;&gt;Node21 -->
<g id="edge51" class="edge">
<title>Node22&#45;&gt;Node21</title>
<path fill="none" stroke="#63b8ff" d="M493.72,-329.74C498.73,-304.2 513.41,-229.43 520.32,-194.23"/>
<polygon fill="#63b8ff" stroke="#63b8ff" points="523.78,-194.79 522.27,-184.31 516.91,-193.45 523.78,-194.79"/>
</g>
<!-- Node23 -->
<g id="node23" class="node">
<title>Node23</title>
<g id="a_node23"><a xlink:title=" ">
<polygon fill="#e0e0e0" stroke="#999999" points="174,-239 142,-239 142,-220 174,-220 174,-239"/>
<text text-anchor="middle" x="158" y="-227" font-family="Helvetica,sans-Serif" font-size="10.00">set</text>
</a>
</g>
</g>
<!-- Node22&#45;&gt;Node23 -->
<g id="edge41" class="edge">
<title>Node22&#45;&gt;Node23</title>
<path fill="none" stroke="#63b8ff" d="M459.44,-336.04C413.59,-331.73 327.98,-320.61 260,-294 228.84,-281.8 196.68,-259.95 177,-245.34"/>
<polygon fill="#63b8ff" stroke="#63b8ff" points="178.98,-242.45 168.89,-239.2 174.75,-248.03 178.98,-242.45"/>
</g>
<!-- Node24 -->
<g id="node24" class="node">
<title>Node24</title>
<g id="a_node24"><a xlink:href="../../d5/d75/containers_8h.html" target="_top" xlink:title=" ">
<polygon fill="white" stroke="#666666" points="346.5,-294 269.5,-294 269.5,-275 346.5,-275 346.5,-294"/>
<text text-anchor="middle" x="308" y="-282" font-family="Helvetica,sans-Serif" font-size="10.00">containers.h</text>
</a>
</g>
</g>
<!-- Node22&#45;&gt;Node24 -->
<g id="edge42" class="edge">
<title>Node22&#45;&gt;Node24</title>
<path fill="none" stroke="#63b8ff" d="M462.44,-329.98C431.28,-321.01 382.03,-306.82 347.54,-296.89"/>
<polygon fill="#63b8ff" stroke="#63b8ff" points="348.37,-293.49 337.79,-294.08 346.43,-300.21 348.37,-293.49"/>
</g>
<!-- Node22&#45;&gt;Node28 -->
<g id="edge52" class="edge">
<title>Node22&#45;&gt;Node28</title>
<path fill="none" stroke="#63b8ff" d="M504.21,-329.98C515.78,-321.92 533.38,-309.65 547.16,-300.03"/>
<polygon fill="#63b8ff" stroke="#63b8ff" points="549.37,-302.76 555.57,-294.17 545.36,-297.02 549.37,-302.76"/>
</g>
<!-- Node24&#45;&gt;Node2 -->
<g id="edge43" class="edge">
<title>Node24&#45;&gt;Node2</title>
<path fill="none" stroke="#63b8ff" d="M276.04,-275C245.51,-265.1 206.19,-246.64 221,-220 247.91,-171.57 309.25,-143.67 347.68,-130.34"/>
<polygon fill="#63b8ff" stroke="#63b8ff" points="349.01,-133.58 357.39,-127.1 346.8,-126.94 349.01,-133.58"/>
</g>
<!-- Node24&#45;&gt;Node9 -->
<g id="edge44" class="edge">
<title>Node24&#45;&gt;Node9</title>
<path fill="none" stroke="#63b8ff" d="M269.27,-283.59C209.21,-282.14 103.42,-272.34 133,-220 234.59,-40.23 524.73,-14.52 621.87,-11"/>
<polygon fill="#63b8ff" stroke="#63b8ff" points="622.07,-14.5 631.96,-10.69 621.86,-7.5 622.07,-14.5"/>
</g>
<!-- Node24&#45;&gt;Node19 -->
<g id="edge48" class="edge">
<title>Node24&#45;&gt;Node19</title>
<path fill="none" stroke="#63b8ff" d="M325.18,-274.97C341.55,-266.58 366.65,-253.02 387,-239 429.36,-209.81 431.06,-190.03 476,-165 502.88,-150.03 535.62,-138.99 561.9,-131.66"/>
<polygon fill="#63b8ff" stroke="#63b8ff" points="562.89,-135.02 571.63,-129.03 561.06,-128.26 562.89,-135.02"/>
</g>
<!-- Node24&#45;&gt;Node23 -->
<g id="edge45" class="edge">
<title>Node24&#45;&gt;Node23</title>
<path fill="none" stroke="#63b8ff" d="M283.9,-274.98C256.46,-265.29 211.82,-249.51 183.72,-239.59"/>
<polygon fill="#63b8ff" stroke="#63b8ff" points="184.78,-236.25 174.18,-236.22 182.44,-242.85 184.78,-236.25"/>
</g>
<!-- Node25 -->
<g id="node25" class="node">
<title>Node25</title>
<g id="a_node25"><a xlink:title=" ">
<polygon fill="#e0e0e0" stroke="#999999" points="472,-239 434,-239 434,-220 472,-220 472,-239"/>
<text text-anchor="middle" x="453" y="-227" font-family="Helvetica,sans-Serif" font-size="10.00">map</text>
</a>
</g>
</g>
<!-- Node24&#45;&gt;Node25 -->
<g id="edge46" class="edge">
<title>Node24&#45;&gt;Node25</title>
<path fill="none" stroke="#63b8ff" d="M331.3,-274.98C356.57,-265.75 396.94,-250.99 424.19,-241.03"/>
<polygon fill="#63b8ff" stroke="#63b8ff" points="425.74,-244.19 433.93,-237.47 423.33,-237.62 425.74,-244.19"/>
</g>
<!-- Node26 -->
<g id="node26" class="node">
<title>Node26</title>
<g id="a_node26"><a xlink:title=" ">
<polygon fill="#e0e0e0" stroke="#999999" points="378,-239 292,-239 292,-220 378,-220 378,-239"/>
<text text-anchor="middle" x="335" y="-227" font-family="Helvetica,sans-Serif" font-size="10.00">unordered_set</text>
</a>
</g>
</g>
<!-- Node24&#45;&gt;Node26 -->
<g id="edge47" class="edge">
<title>Node24&#45;&gt;Node26</title>
<path fill="none" stroke="#63b8ff" d="M312.46,-274.75C316.12,-267.57 321.41,-257.18 325.95,-248.27"/>
<polygon fill="#63b8ff" stroke="#63b8ff" points="329.2,-249.59 330.62,-239.09 322.97,-246.41 329.2,-249.59"/>
</g>
<!-- Node27 -->
<g id="node27" class="node">
<title>Node27</title>
<g id="a_node27"><a xlink:title=" ">
<polygon fill="#e0e0e0" stroke="#999999" points="273.5,-239 230.5,-239 230.5,-220 273.5,-220 273.5,-239"/>
<text text-anchor="middle" x="252" y="-227" font-family="Helvetica,sans-Serif" font-size="10.00">stack</text>
</a>
</g>
</g>
<!-- Node24&#45;&gt;Node27 -->
<g id="edge49" class="edge">
<title>Node24&#45;&gt;Node27</title>
<path fill="none" stroke="#63b8ff" d="M299,-274.98C290.81,-267.23 278.49,-255.58 268.53,-246.14"/>
<polygon fill="#63b8ff" stroke="#63b8ff" points="270.83,-243.5 261.16,-239.17 266.02,-248.59 270.83,-243.5"/>
</g>
<!-- Node28&#45;&gt;Node2 -->
<g id="edge53" class="edge">
<title>Node28&#45;&gt;Node2</title>
<path fill="none" stroke="#63b8ff" d="M557.46,-274.8C541.54,-261.88 510.09,-237.3 481,-220 448.87,-200.9 430.34,-211.48 405,-184 393.53,-171.56 387.37,-153.09 384.18,-139.28"/>
<polygon fill="#63b8ff" stroke="#63b8ff" points="387.6,-138.52 382.21,-129.4 380.73,-139.89 387.6,-138.52"/>
</g>
<!-- Node28&#45;&gt;Node5 -->
<g id="edge55" class="edge">
<title>Node28&#45;&gt;Node5</title>
<path fill="none" stroke="#63b8ff" d="M575.26,-274.74C596.78,-248.76 660.49,-171.83 688.97,-137.44"/>
<polygon fill="#63b8ff" stroke="#63b8ff" points="692.02,-139.24 695.71,-129.31 686.63,-134.78 692.02,-139.24"/>
</g>
<!-- Node28&#45;&gt;Node7 -->
<g id="edge56" class="edge">
<title>Node28&#45;&gt;Node7</title>
<path fill="none" stroke="#63b8ff" d="M608.01,-274.98C655.68,-264.84 734.65,-248.03 780.65,-238.24"/>
<polygon fill="#63b8ff" stroke="#63b8ff" points="781.44,-241.65 790.49,-236.14 779.98,-234.8 781.44,-241.65"/>
</g>
<!-- Node28&#45;&gt;Node18 -->
<g id="edge57" class="edge">
<title>Node28&#45;&gt;Node18</title>
<path fill="none" stroke="#63b8ff" d="M590.33,-274.98C613.2,-266.27 648.96,-252.63 674.86,-242.75"/>
<polygon fill="#63b8ff" stroke="#63b8ff" points="676.16,-246 684.26,-239.17 673.67,-239.46 676.16,-246"/>
</g>
<!-- Node28&#45;&gt;Node25 -->
<g id="edge54" class="edge">
<title>Node28&#45;&gt;Node25</title>
<path fill="none" stroke="#63b8ff" d="M549.52,-274.98C531.02,-266.46 502.32,-253.23 481.02,-243.41"/>
<polygon fill="#63b8ff" stroke="#63b8ff" points="482.36,-240.18 471.81,-239.17 479.43,-246.53 482.36,-240.18"/>
</g>
</g>
</svg>
