<?xml version="1.0" encoding="UTF-8" standalone="no"?>
<!DOCTYPE svg PUBLIC "-//W3C//DTD SVG 1.1//EN"
 "http://www.w3.org/Graphics/SVG/1.1/DTD/svg11.dtd">
<!-- Generated by graphviz version 2.43.0 (0)
 -->
<!-- Title: /home/runner/work/doxygen/doxygen/src/rtfdocvisitor.h Pages: 1 -->
<svg width="835pt" height="368pt"
 viewBox="0.00 0.00 834.77 368.00" xmlns="http://www.w3.org/2000/svg" xmlns:xlink="http://www.w3.org/1999/xlink">
<g id="graph0" class="graph" transform="scale(1 1) rotate(0) translate(4 364)">
<title>/home/runner/work/doxygen/doxygen/src/rtfdocvisitor.h</title>
<!-- Node1 -->
<g id="node1" class="node">
<title>Node1</title>
<g id="a_node1"><a xlink:title=" ">
<polygon fill="#999999" stroke="#666666" points="240.5,-360 86.5,-360 86.5,-330 240.5,-330 240.5,-360"/>
<text text-anchor="start" x="94.5" y="-348" font-family="Helvetica,sans-Serif" font-size="10.00">/home/runner/work/doxygen</text>
<text text-anchor="middle" x="163.5" y="-337" font-family="Helvetica,sans-Serif" font-size="10.00">/doxygen/src/rtfdocvisitor.h</text>
</a>
</g>
</g>
<!-- Node2 -->
<g id="node2" class="node">
<title>Node2</title>
<g id="a_node2"><a xlink:title=" ">
<polygon fill="#e0e0e0" stroke="#999999" points="135.5,-294 75.5,-294 75.5,-275 135.5,-275 135.5,-294"/>
<text text-anchor="middle" x="105.5" y="-282" font-family="Helvetica,sans-Serif" font-size="10.00">iostream</text>
</a>
</g>
</g>
<!-- Node1&#45;&gt;Node2 -->
<g id="edge1" class="edge">
<title>Node1&#45;&gt;Node2</title>
<path fill="none" stroke="#63b8ff" d="M149.46,-329.84C140.95,-321.26 130.09,-310.3 121.28,-301.42"/>
<polygon fill="#63b8ff" stroke="#63b8ff" points="123.72,-298.9 114.19,-294.27 118.75,-303.83 123.72,-298.9"/>
</g>
<!-- Node3 -->
<g id="node3" class="node">
<title>Node3</title>
<g id="a_node3"><a xlink:href="../../d2/d3c/docvisitor_8h.html" target="_top" xlink:title=" ">
<polygon fill="white" stroke="#666666" points="73,-239 0,-239 0,-220 73,-220 73,-239"/>
<text text-anchor="middle" x="36.5" y="-227" font-family="Helvetica,sans-Serif" font-size="10.00">docvisitor.h</text>
</a>
</g>
</g>
<!-- Node1&#45;&gt;Node3 -->
<g id="edge2" class="edge">
<title>Node1&#45;&gt;Node3</title>
<path fill="none" stroke="#63b8ff" d="M163.15,-329.86C162.05,-314.58 158.08,-290.35 144.5,-275 128.59,-257.02 104.31,-246.16 82.79,-239.67"/>
<polygon fill="#63b8ff" stroke="#63b8ff" points="83.71,-236.29 73.14,-236.98 81.84,-243.03 83.71,-236.29"/>
</g>
<!-- Node15 -->
<g id="node15" class="node">
<title>Node15</title>
<g id="a_node15"><a xlink:href="../../de/d2b/docnode_8h.html" target="_top" xlink:title=" ">
<polygon fill="white" stroke="#666666" points="406,-294 339,-294 339,-275 406,-275 406,-294"/>
<text text-anchor="middle" x="372.5" y="-282" font-family="Helvetica,sans-Serif" font-size="10.00">docnode.h</text>
</a>
</g>
</g>
<!-- Node1&#45;&gt;Node15 -->
<g id="edge16" class="edge">
<title>Node1&#45;&gt;Node15</title>
<path fill="none" stroke="#63b8ff" d="M213.56,-329.99C249.79,-319.85 298.12,-306.32 331.94,-296.85"/>
<polygon fill="#63b8ff" stroke="#63b8ff" points="333.25,-300.12 341.94,-294.05 331.37,-293.38 333.25,-300.12"/>
</g>
<!-- Node4 -->
<g id="node4" class="node">
<title>Node4</title>
<g id="a_node4"><a xlink:title=" ">
<polygon fill="#e0e0e0" stroke="#999999" points="138.5,-129 80.5,-129 80.5,-110 138.5,-110 138.5,-129"/>
<text text-anchor="middle" x="109.5" y="-117" font-family="Helvetica,sans-Serif" font-size="10.00">memory</text>
</a>
</g>
</g>
<!-- Node3&#45;&gt;Node4 -->
<g id="edge3" class="edge">
<title>Node3&#45;&gt;Node4</title>
<path fill="none" stroke="#63b8ff" d="M38.43,-219.67C41.55,-206.81 48.57,-182.54 60.5,-165 68.2,-153.68 79.34,-143.26 89.06,-135.36"/>
<polygon fill="#63b8ff" stroke="#63b8ff" points="91.36,-138 97.1,-129.1 87.06,-132.47 91.36,-138"/>
</g>
<!-- Node5 -->
<g id="node5" class="node">
<title>Node5</title>
<g id="a_node5"><a xlink:href="../../d7/d5c/qcstring_8h.html" target="_top" xlink:title=" ">
<polygon fill="white" stroke="#666666" points="494,-129 429,-129 429,-110 494,-110 494,-129"/>
<text text-anchor="middle" x="461.5" y="-117" font-family="Helvetica,sans-Serif" font-size="10.00">qcstring.h</text>
</a>
</g>
</g>
<!-- Node3&#45;&gt;Node5 -->
<g id="edge4" class="edge">
<title>Node3&#45;&gt;Node5</title>
<path fill="none" stroke="#63b8ff" d="M73.35,-220.87C112.34,-212.59 175.56,-198.6 229.5,-184 256.91,-176.58 263.2,-172.8 290.5,-165 334.13,-152.54 384.42,-139.62 419.11,-130.94"/>
<polygon fill="#63b8ff" stroke="#63b8ff" points="420.06,-134.31 428.91,-128.49 418.36,-127.52 420.06,-134.31"/>
</g>
<!-- Node6 -->
<g id="node6" class="node">
<title>Node6</title>
<g id="a_node6"><a xlink:title=" ">
<polygon fill="#e0e0e0" stroke="#999999" points="746.5,-19 702.5,-19 702.5,0 746.5,0 746.5,-19"/>
<text text-anchor="middle" x="724.5" y="-7" font-family="Helvetica,sans-Serif" font-size="10.00">string</text>
</a>
</g>
</g>
<!-- Node5&#45;&gt;Node6 -->
<g id="edge5" class="edge">
<title>Node5&#45;&gt;Node6</title>
<path fill="none" stroke="#63b8ff" d="M428.7,-111.48C378.05,-100.49 286.09,-79.86 281.5,-74 276.29,-67.35 275.84,-61.26 281.5,-55 308.99,-24.61 594.89,-14.03 692.24,-11.3"/>
<polygon fill="#63b8ff" stroke="#63b8ff" points="692.47,-14.79 702.37,-11.02 692.28,-7.8 692.47,-14.79"/>
</g>
<!-- Node7 -->
<g id="node7" class="node">
<title>Node7</title>
<g id="a_node7"><a xlink:title=" ">
<polygon fill="#e0e0e0" stroke="#999999" points="696.5,-74 632.5,-74 632.5,-55 696.5,-55 696.5,-74"/>
<text text-anchor="middle" x="664.5" y="-62" font-family="Helvetica,sans-Serif" font-size="10.00">algorithm</text>
</a>
</g>
</g>
<!-- Node5&#45;&gt;Node7 -->
<g id="edge6" class="edge">
<title>Node5&#45;&gt;Node7</title>
<path fill="none" stroke="#63b8ff" d="M494.12,-109.98C528.99,-100.88 584.42,-86.41 622.53,-76.46"/>
<polygon fill="#63b8ff" stroke="#63b8ff" points="623.51,-79.82 632.3,-73.91 621.74,-73.05 623.51,-79.82"/>
</g>
<!-- Node8 -->
<g id="node8" class="node">
<title>Node8</title>
<g id="a_node8"><a xlink:title=" ">
<polygon fill="#e0e0e0" stroke="#999999" points="614,-74 565,-74 565,-55 614,-55 614,-74"/>
<text text-anchor="middle" x="589.5" y="-62" font-family="Helvetica,sans-Serif" font-size="10.00">cctype</text>
</a>
</g>
</g>
<!-- Node5&#45;&gt;Node8 -->
<g id="edge7" class="edge">
<title>Node5&#45;&gt;Node8</title>
<path fill="none" stroke="#63b8ff" d="M482.07,-109.98C502.93,-101.34 535.47,-87.87 559.27,-78.02"/>
<polygon fill="#63b8ff" stroke="#63b8ff" points="560.66,-81.23 568.56,-74.17 557.98,-74.76 560.66,-81.23"/>
</g>
<!-- Node9 -->
<g id="node9" class="node">
<title>Node9</title>
<g id="a_node9"><a xlink:title=" ">
<polygon fill="#e0e0e0" stroke="#999999" points="340.5,-74 290.5,-74 290.5,-55 340.5,-55 340.5,-74"/>
<text text-anchor="middle" x="315.5" y="-62" font-family="Helvetica,sans-Serif" font-size="10.00">cstring</text>
</a>
</g>
</g>
<!-- Node5&#45;&gt;Node9 -->
<g id="edge8" class="edge">
<title>Node5&#45;&gt;Node9</title>
<path fill="none" stroke="#63b8ff" d="M438.04,-109.98C413.92,-101.23 376.13,-87.51 348.9,-77.62"/>
<polygon fill="#63b8ff" stroke="#63b8ff" points="349.98,-74.29 339.38,-74.17 347.59,-80.87 349.98,-74.29"/>
</g>
<!-- Node10 -->
<g id="node10" class="node">
<title>Node10</title>
<g id="a_node10"><a xlink:title=" ">
<polygon fill="#e0e0e0" stroke="#999999" points="404.5,-74 358.5,-74 358.5,-55 404.5,-55 404.5,-74"/>
<text text-anchor="middle" x="381.5" y="-62" font-family="Helvetica,sans-Serif" font-size="10.00">cstdio</text>
</a>
</g>
</g>
<!-- Node5&#45;&gt;Node10 -->
<g id="edge9" class="edge">
<title>Node5&#45;&gt;Node10</title>
<path fill="none" stroke="#63b8ff" d="M448.65,-109.98C436.36,-101.84 417.59,-89.41 403.02,-79.76"/>
<polygon fill="#63b8ff" stroke="#63b8ff" points="404.86,-76.78 394.59,-74.17 400.99,-82.61 404.86,-76.78"/>
</g>
<!-- Node11 -->
<g id="node11" class="node">
<title>Node11</title>
<g id="a_node11"><a xlink:title=" ">
<polygon fill="#e0e0e0" stroke="#999999" points="472,-74 423,-74 423,-55 472,-55 472,-74"/>
<text text-anchor="middle" x="447.5" y="-62" font-family="Helvetica,sans-Serif" font-size="10.00">cstdlib</text>
</a>
</g>
</g>
<!-- Node5&#45;&gt;Node11 -->
<g id="edge10" class="edge">
<title>Node5&#45;&gt;Node11</title>
<path fill="none" stroke="#63b8ff" d="M459.19,-109.75C457.33,-102.72 454.66,-92.62 452.35,-83.84"/>
<polygon fill="#63b8ff" stroke="#63b8ff" points="455.71,-82.86 449.77,-74.09 448.94,-84.65 455.71,-82.86"/>
</g>
<!-- Node12 -->
<g id="node12" class="node">
<title>Node12</title>
<g id="a_node12"><a xlink:title=" ">
<polygon fill="#e0e0e0" stroke="#999999" points="211.5,-19 161.5,-19 161.5,0 211.5,0 211.5,-19"/>
<text text-anchor="middle" x="186.5" y="-7" font-family="Helvetica,sans-Serif" font-size="10.00">cstdint</text>
</a>
</g>
</g>
<!-- Node5&#45;&gt;Node12 -->
<g id="edge11" class="edge">
<title>Node5&#45;&gt;Node12</title>
<path fill="none" stroke="#63b8ff" d="M428.97,-111.75C425.78,-111.13 422.58,-110.54 419.5,-110 366.39,-100.65 214.69,-114.86 179.5,-74 168.89,-61.68 172.73,-42.64 177.95,-28.62"/>
<polygon fill="#63b8ff" stroke="#63b8ff" points="181.31,-29.65 181.99,-19.07 174.87,-26.92 181.31,-29.65"/>
</g>
<!-- Node13 -->
<g id="node13" class="node">
<title>Node13</title>
<g id="a_node13"><a xlink:title=" ">
<polygon fill="#e0e0e0" stroke="#999999" points="547,-74 490,-74 490,-55 547,-55 547,-74"/>
<text text-anchor="middle" x="518.5" y="-62" font-family="Helvetica,sans-Serif" font-size="10.00">ostream</text>
</a>
</g>
</g>
<!-- Node5&#45;&gt;Node13 -->
<g id="edge12" class="edge">
<title>Node5&#45;&gt;Node13</title>
<path fill="none" stroke="#63b8ff" d="M470.66,-109.98C479,-102.23 491.53,-90.58 501.68,-81.14"/>
<polygon fill="#63b8ff" stroke="#63b8ff" points="504.24,-83.54 509.18,-74.17 499.47,-78.42 504.24,-83.54"/>
</g>
<!-- Node14 -->
<g id="node14" class="node">
<title>Node14</title>
<g id="a_node14"><a xlink:href="../../db/d7c/utf8_8h.html" target="_top" xlink:title="Various UTF8 related helper functions.">
<polygon fill="white" stroke="#666666" points="234,-74 189,-74 189,-55 234,-55 234,-74"/>
<text text-anchor="middle" x="211.5" y="-62" font-family="Helvetica,sans-Serif" font-size="10.00">utf8.h</text>
</a>
</g>
</g>
<!-- Node5&#45;&gt;Node14 -->
<g id="edge13" class="edge">
<title>Node5&#45;&gt;Node14</title>
<path fill="none" stroke="#63b8ff" d="M428.98,-111.91C387.17,-103.4 312.34,-88 248.5,-74 247.05,-73.68 245.57,-73.35 244.08,-73.02"/>
<polygon fill="#63b8ff" stroke="#63b8ff" points="244.71,-69.58 234.18,-70.79 243.16,-76.4 244.71,-69.58"/>
</g>
<!-- Node14&#45;&gt;Node6 -->
<g id="edge15" class="edge">
<title>Node14&#45;&gt;Node6</title>
<path fill="none" stroke="#63b8ff" d="M234.1,-57.81C238.84,-56.76 243.81,-55.75 248.5,-55 414.03,-28.37 614.7,-16.06 691.99,-12.05"/>
<polygon fill="#63b8ff" stroke="#63b8ff" points="692.25,-15.54 702.06,-11.54 691.9,-8.55 692.25,-15.54"/>
</g>
<!-- Node14&#45;&gt;Node12 -->
<g id="edge14" class="edge">
<title>Node14&#45;&gt;Node12</title>
<path fill="none" stroke="#63b8ff" d="M207.37,-54.75C203.99,-47.57 199.08,-37.18 194.88,-28.27"/>
<polygon fill="#63b8ff" stroke="#63b8ff" points="197.98,-26.64 190.55,-19.09 191.65,-29.63 197.98,-26.64"/>
</g>
<!-- Node15&#45;&gt;Node3 -->
<g id="edge22" class="edge">
<title>Node15&#45;&gt;Node3</title>
<path fill="none" stroke="#63b8ff" d="M338.7,-278.34C285.32,-270.16 178.22,-253.64 87.5,-239 86.2,-238.79 84.89,-238.58 83.56,-238.36"/>
<polygon fill="#63b8ff" stroke="#63b8ff" points="83.7,-234.84 73.26,-236.67 82.57,-241.75 83.7,-234.84"/>
</g>
<!-- Node15&#45;&gt;Node4 -->
<g id="edge19" class="edge">
<title>Node15&#45;&gt;Node4</title>
<path fill="none" stroke="#63b8ff" d="M338.61,-282.14C280.86,-277.76 164.85,-259.49 115.5,-184 106.89,-170.82 105.99,-152.69 106.9,-139.18"/>
<polygon fill="#63b8ff" stroke="#63b8ff" points="110.39,-139.43 107.95,-129.12 103.43,-138.7 110.39,-139.43"/>
</g>
<!-- Node15&#45;&gt;Node5 -->
<g id="edge21" class="edge">
<title>Node15&#45;&gt;Node5</title>
<path fill="none" stroke="#63b8ff" d="M393.47,-274.92C424.24,-261.04 480.46,-230.43 503.5,-184 512.22,-166.42 496.69,-147.87 482.11,-135.39"/>
<polygon fill="#63b8ff" stroke="#63b8ff" points="484.27,-132.63 474.27,-129.12 479.9,-138.1 484.27,-132.63"/>
</g>
<!-- Node16 -->
<g id="node16" class="node">
<title>Node16</title>
<g id="a_node16"><a xlink:title=" ">
<polygon fill="#e0e0e0" stroke="#999999" points="364.5,-184 314.5,-184 314.5,-165 364.5,-165 364.5,-184"/>
<text text-anchor="middle" x="339.5" y="-172" font-family="Helvetica,sans-Serif" font-size="10.00">stdio.h</text>
</a>
</g>
</g>
<!-- Node15&#45;&gt;Node16 -->
<g id="edge17" class="edge">
<title>Node15&#45;&gt;Node16</title>
<path fill="none" stroke="#63b8ff" d="M369.8,-274.66C364.43,-257.09 352.32,-217.45 345.14,-193.95"/>
<polygon fill="#63b8ff" stroke="#63b8ff" points="348.42,-192.7 342.15,-184.16 341.72,-194.74 348.42,-192.7"/>
</g>
<!-- Node17 -->
<g id="node17" class="node">
<title>Node17</title>
<g id="a_node17"><a xlink:title=" ">
<polygon fill="#e0e0e0" stroke="#999999" points="411,-129 364,-129 364,-110 411,-110 411,-129"/>
<text text-anchor="middle" x="387.5" y="-117" font-family="Helvetica,sans-Serif" font-size="10.00">vector</text>
</a>
</g>
</g>
<!-- Node15&#45;&gt;Node17 -->
<g id="edge18" class="edge">
<title>Node15&#45;&gt;Node17</title>
<path fill="none" stroke="#63b8ff" d="M373.31,-274.74C375.65,-249.31 382.48,-175.08 385.73,-139.69"/>
<polygon fill="#63b8ff" stroke="#63b8ff" points="389.26,-139.59 386.69,-129.31 382.29,-138.94 389.26,-139.59"/>
</g>
<!-- Node18 -->
<g id="node18" class="node">
<title>Node18</title>
<g id="a_node18"><a xlink:title=" ">
<polygon fill="#e0e0e0" stroke="#999999" points="602,-239 551,-239 551,-220 602,-220 602,-239"/>
<text text-anchor="middle" x="576.5" y="-227" font-family="Helvetica,sans-Serif" font-size="10.00">variant</text>
</a>
</g>
</g>
<!-- Node15&#45;&gt;Node18 -->
<g id="edge20" class="edge">
<title>Node15&#45;&gt;Node18</title>
<path fill="none" stroke="#63b8ff" d="M405.28,-274.98C442.5,-265.31 503,-249.6 541.23,-239.66"/>
<polygon fill="#63b8ff" stroke="#63b8ff" points="542.11,-243.05 550.91,-237.15 540.35,-236.28 542.11,-243.05"/>
</g>
<!-- Node19 -->
<g id="node19" class="node">
<title>Node19</title>
<g id="a_node19"><a xlink:href="../../de/d9c/docparser_8h.html" target="_top" xlink:title=" ">
<polygon fill="white" stroke="#666666" points="323,-239 250,-239 250,-220 323,-220 323,-239"/>
<text text-anchor="middle" x="286.5" y="-227" font-family="Helvetica,sans-Serif" font-size="10.00">docparser.h</text>
</a>
</g>
</g>
<!-- Node15&#45;&gt;Node19 -->
<g id="edge23" class="edge">
<title>Node15&#45;&gt;Node19</title>
<path fill="none" stroke="#63b8ff" d="M358.68,-274.98C345.35,-266.77 324.92,-254.18 309.19,-244.49"/>
<polygon fill="#63b8ff" stroke="#63b8ff" points="310.92,-241.44 300.57,-239.17 307.25,-247.4 310.92,-241.44"/>
</g>
<!-- Node20 -->
<g id="node20" class="node">
<title>Node20</title>
<g id="a_node20"><a xlink:href="../../d7/d50/growvector_8h.html" target="_top" xlink:title=" ">
<polygon fill="white" stroke="#666666" points="220.5,-184 140.5,-184 140.5,-165 220.5,-165 220.5,-184"/>
<text text-anchor="middle" x="180.5" y="-172" font-family="Helvetica,sans-Serif" font-size="10.00">growvector.h</text>
</a>
</g>
</g>
<!-- Node15&#45;&gt;Node20 -->
<g id="edge38" class="edge">
<title>Node15&#45;&gt;Node20</title>
<path fill="none" stroke="#63b8ff" d="M338.78,-276.92C310.85,-270.4 270.95,-258.49 240.5,-239 221.22,-226.66 203.82,-206.79 192.78,-192.57"/>
<polygon fill="#63b8ff" stroke="#63b8ff" points="195.29,-190.08 186.49,-184.17 189.68,-194.27 195.29,-190.08"/>
</g>
<!-- Node22 -->
<g id="node22" class="node">
<title>Node22</title>
<g id="a_node22"><a xlink:href="../../d0/d73/htmlattrib_8h.html" target="_top" xlink:title=" ">
<polygon fill="white" stroke="#666666" points="494.5,-184 420.5,-184 420.5,-165 494.5,-165 494.5,-184"/>
<text text-anchor="middle" x="457.5" y="-172" font-family="Helvetica,sans-Serif" font-size="10.00">htmlattrib.h</text>
</a>
</g>
</g>
<!-- Node15&#45;&gt;Node22 -->
<g id="edge31" class="edge">
<title>Node15&#45;&gt;Node22</title>
<path fill="none" stroke="#63b8ff" d="M379.46,-274.66C393.66,-256.61 426.19,-215.28 444.45,-192.08"/>
<polygon fill="#63b8ff" stroke="#63b8ff" points="447.25,-194.18 450.69,-184.16 441.75,-189.85 447.25,-194.18"/>
</g>
<!-- Node23 -->
<g id="node23" class="node">
<title>Node23</title>
<g id="a_node23"><a xlink:href="../../db/dc6/htmlentity_8h.html" target="_top" xlink:title=" ">
<polygon fill="white" stroke="#666666" points="798,-184 723,-184 723,-165 798,-165 798,-184"/>
<text text-anchor="middle" x="760.5" y="-172" font-family="Helvetica,sans-Serif" font-size="10.00">htmlentity.h</text>
</a>
</g>
</g>
<!-- Node15&#45;&gt;Node23 -->
<g id="edge34" class="edge">
<title>Node15&#45;&gt;Node23</title>
<path fill="none" stroke="#63b8ff" d="M406.11,-281.31C477.21,-276.26 640.46,-262.43 690.5,-239 713.6,-228.18 734.47,-207.08 747.29,-192.18"/>
<polygon fill="#63b8ff" stroke="#63b8ff" points="750.17,-194.18 753.86,-184.24 744.78,-189.71 750.17,-194.18"/>
</g>
<!-- Node25 -->
<g id="node25" class="node">
<title>Node25</title>
<g id="a_node25"><a xlink:href="../../d1/d2a/section_8h.html" target="_top" xlink:title=" ">
<polygon fill="white" stroke="#666666" points="681,-239 620,-239 620,-220 681,-220 681,-239"/>
<text text-anchor="middle" x="650.5" y="-227" font-family="Helvetica,sans-Serif" font-size="10.00">section.h</text>
</a>
</g>
</g>
<!-- Node15&#45;&gt;Node25 -->
<g id="edge39" class="edge">
<title>Node15&#45;&gt;Node25</title>
<path fill="none" stroke="#63b8ff" d="M406.21,-277.56C450.64,-269.65 531.5,-255.02 609.83,-239.29"/>
<polygon fill="#63b8ff" stroke="#63b8ff" points="610.75,-242.68 619.86,-237.27 609.37,-235.82 610.75,-242.68"/>
</g>
<!-- Node19&#45;&gt;Node4 -->
<g id="edge25" class="edge">
<title>Node19&#45;&gt;Node4</title>
<path fill="none" stroke="#63b8ff" d="M249.86,-227.3C215.13,-224.24 163.61,-214.42 131.5,-184 119.2,-172.35 113.78,-153.49 111.39,-139.34"/>
<polygon fill="#63b8ff" stroke="#63b8ff" points="114.83,-138.69 110.04,-129.24 107.89,-139.61 114.83,-138.69"/>
</g>
<!-- Node19&#45;&gt;Node5 -->
<g id="edge26" class="edge">
<title>Node19&#45;&gt;Node5</title>
<path fill="none" stroke="#63b8ff" d="M286.59,-219.79C287.21,-206.17 290.43,-179.88 305.5,-165 313.75,-156.85 375.94,-140.78 419.25,-130.34"/>
<polygon fill="#63b8ff" stroke="#63b8ff" points="420.09,-133.74 429,-128.01 418.46,-126.93 420.09,-133.74"/>
</g>
<!-- Node19&#45;&gt;Node16 -->
<g id="edge24" class="edge">
<title>Node19&#45;&gt;Node16</title>
<path fill="none" stroke="#63b8ff" d="M295.25,-219.75C302.97,-212.03 314.4,-200.6 323.72,-191.28"/>
<polygon fill="#63b8ff" stroke="#63b8ff" points="326.31,-193.64 330.91,-184.09 321.36,-188.69 326.31,-193.64"/>
</g>
<!-- Node19&#45;&gt;Node20 -->
<g id="edge27" class="edge">
<title>Node19&#45;&gt;Node20</title>
<path fill="none" stroke="#63b8ff" d="M269.47,-219.98C252.57,-211.54 226.44,-198.47 206.86,-188.68"/>
<polygon fill="#63b8ff" stroke="#63b8ff" points="208.35,-185.51 197.84,-184.17 205.22,-191.77 208.35,-185.51"/>
</g>
<!-- Node20&#45;&gt;Node4 -->
<g id="edge29" class="edge">
<title>Node20&#45;&gt;Node4</title>
<path fill="none" stroke="#63b8ff" d="M169.09,-164.98C158.39,-157 142.16,-144.88 129.34,-135.31"/>
<polygon fill="#63b8ff" stroke="#63b8ff" points="131.22,-132.35 121.11,-129.17 127.03,-137.96 131.22,-132.35"/>
</g>
<!-- Node20&#45;&gt;Node17 -->
<g id="edge28" class="edge">
<title>Node20&#45;&gt;Node17</title>
<path fill="none" stroke="#63b8ff" d="M213.76,-164.98C252.37,-155.1 315.66,-138.89 354.26,-129.01"/>
<polygon fill="#63b8ff" stroke="#63b8ff" points="355.16,-132.39 363.98,-126.52 353.43,-125.61 355.16,-132.39"/>
</g>
<!-- Node21 -->
<g id="node21" class="node">
<title>Node21</title>
<g id="a_node21"><a xlink:title=" ">
<polygon fill="#e0e0e0" stroke="#999999" points="210,-129 157,-129 157,-110 210,-110 210,-129"/>
<text text-anchor="middle" x="183.5" y="-117" font-family="Helvetica,sans-Serif" font-size="10.00">iterator</text>
</a>
</g>
</g>
<!-- Node20&#45;&gt;Node21 -->
<g id="edge30" class="edge">
<title>Node20&#45;&gt;Node21</title>
<path fill="none" stroke="#63b8ff" d="M181,-164.75C181.39,-157.8 181.95,-147.85 182.45,-139.13"/>
<polygon fill="#63b8ff" stroke="#63b8ff" points="185.94,-139.27 183.01,-129.09 178.95,-138.88 185.94,-139.27"/>
</g>
<!-- Node22&#45;&gt;Node5 -->
<g id="edge33" class="edge">
<title>Node22&#45;&gt;Node5</title>
<path fill="none" stroke="#63b8ff" d="M458.16,-164.75C458.68,-157.8 459.44,-147.85 460.09,-139.13"/>
<polygon fill="#63b8ff" stroke="#63b8ff" points="463.59,-139.32 460.85,-129.09 456.61,-138.8 463.59,-139.32"/>
</g>
<!-- Node22&#45;&gt;Node17 -->
<g id="edge32" class="edge">
<title>Node22&#45;&gt;Node17</title>
<path fill="none" stroke="#63b8ff" d="M446.25,-164.98C435.7,-157 419.7,-144.88 407.06,-135.31"/>
<polygon fill="#63b8ff" stroke="#63b8ff" points="409.04,-132.42 398.95,-129.17 404.81,-138 409.04,-132.42"/>
</g>
<!-- Node23&#45;&gt;Node5 -->
<g id="edge37" class="edge">
<title>Node23&#45;&gt;Node5</title>
<path fill="none" stroke="#63b8ff" d="M722.93,-166.84C667.15,-156.95 562.72,-138.44 504.14,-128.06"/>
<polygon fill="#63b8ff" stroke="#63b8ff" points="504.57,-124.58 494.11,-126.28 503.34,-131.47 504.57,-124.58"/>
</g>
<!-- Node23&#45;&gt;Node6 -->
<g id="edge36" class="edge">
<title>Node23&#45;&gt;Node6</title>
<path fill="none" stroke="#63b8ff" d="M770.66,-164.81C779.4,-156.6 791.4,-143.43 796.5,-129 799.32,-121.04 799.1,-118.03 796.5,-110 785.68,-76.58 758.96,-44.96 741.29,-26.67"/>
<polygon fill="#63b8ff" stroke="#63b8ff" points="743.44,-23.86 733.9,-19.25 738.48,-28.8 743.44,-23.86"/>
</g>
<!-- Node24 -->
<g id="node24" class="node">
<title>Node24</title>
<g id="a_node24"><a xlink:title=" ">
<polygon fill="#e0e0e0" stroke="#999999" points="787,-129 694,-129 694,-110 787,-110 787,-129"/>
<text text-anchor="middle" x="740.5" y="-117" font-family="Helvetica,sans-Serif" font-size="10.00">unordered_map</text>
</a>
</g>
</g>
<!-- Node23&#45;&gt;Node24 -->
<g id="edge35" class="edge">
<title>Node23&#45;&gt;Node24</title>
<path fill="none" stroke="#63b8ff" d="M757.2,-164.75C754.52,-157.65 750.65,-147.4 747.31,-138.56"/>
<polygon fill="#63b8ff" stroke="#63b8ff" points="750.55,-137.21 743.74,-129.09 744,-139.68 750.55,-137.21"/>
</g>
<!-- Node25&#45;&gt;Node5 -->
<g id="edge42" class="edge">
<title>Node25&#45;&gt;Node5</title>
<path fill="none" stroke="#63b8ff" d="M635.35,-219.84C602.51,-201.08 524.54,-156.52 485.14,-134.01"/>
<polygon fill="#63b8ff" stroke="#63b8ff" points="486.88,-130.97 476.46,-129.05 483.4,-137.05 486.88,-130.97"/>
</g>
<!-- Node25&#45;&gt;Node6 -->
<g id="edge40" class="edge">
<title>Node25&#45;&gt;Node6</title>
<path fill="none" stroke="#63b8ff" d="M681.25,-224.01C722.28,-217.35 791.62,-203.49 807.5,-184 844.19,-138.96 823.36,-99.89 786.5,-55 776.38,-42.68 762.08,-32.11 749.76,-24.37"/>
<polygon fill="#63b8ff" stroke="#63b8ff" points="751.2,-21.15 740.83,-19.01 747.61,-27.16 751.2,-21.15"/>
</g>
<!-- Node25&#45;&gt;Node24 -->
<g id="edge41" class="edge">
<title>Node25&#45;&gt;Node24</title>
<path fill="none" stroke="#63b8ff" d="M657.87,-219.66C672.9,-201.61 707.35,-160.28 726.69,-137.08"/>
<polygon fill="#63b8ff" stroke="#63b8ff" points="729.57,-139.08 733.28,-129.16 724.19,-134.6 729.57,-139.08"/>
</g>
<!-- Node26 -->
<g id="node26" class="node">
<title>Node26</title>
<g id="a_node26"><a xlink:href="../../da/de1/linkedmap_8h.html" target="_top" xlink:title=" ">
<polygon fill="white" stroke="#666666" points="666,-184 589,-184 589,-165 666,-165 666,-184"/>
<text text-anchor="middle" x="627.5" y="-172" font-family="Helvetica,sans-Serif" font-size="10.00">linkedmap.h</text>
</a>
</g>
</g>
<!-- Node25&#45;&gt;Node26 -->
<g id="edge43" class="edge">
<title>Node25&#45;&gt;Node26</title>
<path fill="none" stroke="#63b8ff" d="M646.7,-219.75C643.59,-212.57 639.08,-202.18 635.21,-193.27"/>
<polygon fill="#63b8ff" stroke="#63b8ff" points="638.42,-191.87 631.23,-184.09 632,-194.66 638.42,-191.87"/>
</g>
<!-- Node26&#45;&gt;Node4 -->
<g id="edge46" class="edge">
<title>Node26&#45;&gt;Node4</title>
<path fill="none" stroke="#63b8ff" d="M588.75,-170.55C493.68,-163.21 249.89,-143.77 149.04,-129.01"/>
<polygon fill="#63b8ff" stroke="#63b8ff" points="149.3,-125.51 138.89,-127.46 148.25,-132.43 149.3,-125.51"/>
</g>
<!-- Node26&#45;&gt;Node5 -->
<g id="edge50" class="edge">
<title>Node26&#45;&gt;Node5</title>
<path fill="none" stroke="#63b8ff" d="M600.83,-164.98C572.96,-156.09 529.05,-142.07 497.98,-132.15"/>
<polygon fill="#63b8ff" stroke="#63b8ff" points="498.97,-128.79 488.38,-129.08 496.84,-135.46 498.97,-128.79"/>
</g>
<!-- Node26&#45;&gt;Node6 -->
<g id="edge47" class="edge">
<title>Node26&#45;&gt;Node6</title>
<path fill="none" stroke="#63b8ff" d="M636.05,-164.97C651.94,-148.68 686.12,-111.42 705.5,-74 712.87,-59.77 717.84,-42.24 720.84,-29.21"/>
<polygon fill="#63b8ff" stroke="#63b8ff" points="724.34,-29.61 722.99,-19.1 717.49,-28.16 724.34,-29.61"/>
</g>
<!-- Node26&#45;&gt;Node7 -->
<g id="edge48" class="edge">
<title>Node26&#45;&gt;Node7</title>
<path fill="none" stroke="#63b8ff" d="M630.53,-164.66C636.57,-147.01 650.25,-107.09 658.29,-83.64"/>
<polygon fill="#63b8ff" stroke="#63b8ff" points="661.6,-84.75 661.53,-74.16 654.98,-82.48 661.6,-84.75"/>
</g>
<!-- Node26&#45;&gt;Node8 -->
<g id="edge49" class="edge">
<title>Node26&#45;&gt;Node8</title>
<path fill="none" stroke="#63b8ff" d="M624.39,-164.66C618.18,-147.01 604.13,-107.09 595.88,-83.64"/>
<polygon fill="#63b8ff" stroke="#63b8ff" points="599.17,-82.43 592.55,-74.16 592.56,-84.75 599.17,-82.43"/>
</g>
<!-- Node26&#45;&gt;Node17 -->
<g id="edge45" class="edge">
<title>Node26&#45;&gt;Node17</title>
<path fill="none" stroke="#63b8ff" d="M588.65,-165.78C548.82,-157.73 484.85,-144.45 421.05,-129.29"/>
<polygon fill="#63b8ff" stroke="#63b8ff" points="421.77,-125.86 411.23,-126.94 420.14,-132.67 421.77,-125.86"/>
</g>
<!-- Node26&#45;&gt;Node24 -->
<g id="edge44" class="edge">
<title>Node26&#45;&gt;Node24</title>
<path fill="none" stroke="#63b8ff" d="M645.66,-164.98C663.75,-156.5 691.78,-143.35 712.69,-133.54"/>
<polygon fill="#63b8ff" stroke="#63b8ff" points="714.45,-136.59 722.01,-129.17 711.47,-130.25 714.45,-136.59"/>
</g>
</g>
</svg>
