<?xml version="1.0" encoding="UTF-8" standalone="no"?>
<!DOCTYPE svg PUBLIC "-//W3C//DTD SVG 1.1//EN"
 "http://www.w3.org/Graphics/SVG/1.1/DTD/svg11.dtd">
<!-- Generated by graphviz version 2.43.0 (0)
 -->
<!-- Title: MemberDefImpl Pages: 1 -->
<!--zoomable 1054 -->
<svg id="main" version="1.1" xmlns="http://www.w3.org/2000/svg" xmlns:xlink="http://www.w3.org/1999/xlink" xml:space="preserve" onload="init(evt)">
<style type="text/css"><![CDATA[
.edge:hover path { stroke: red; }
.edge:hover polygon { stroke: red; fill: red; }
]]></style>
<script type="text/javascript"><![CDATA[
var edges = document.getElementsByTagName('g');
if (edges && edges.length) {
  for (var i=0;i<edges.length;i++) {
    if (edges[i].id.substr(0,4)=='edge') {
      edges[i].setAttribute('class','edge');
    }
  }
}
]]></script>
        <defs>
                <circle id="rim" cx="0" cy="0" r="7"/>
                <circle id="rim2" cx="0" cy="0" r="3.5"/>
                <g id="zoomPlus">
                        <use xlink:href="#rim" fill="#404040">
                                <set attributeName="fill" to="#808080" begin="zoomplus.mouseover" end="zoomplus.mouseout"/>
                        </use>
                        <path d="M-4,0h8M0,-4v8" fill="none" stroke="white" stroke-width="1.5" pointer-events="none"/>
                </g>
                <g id="zoomMin">
                        <use xlink:href="#rim" fill="#404040">
                                <set attributeName="fill" to="#808080" begin="zoomminus.mouseover" end="zoomminus.mouseout"/>
                        </use>
                        <path d="M-4,0h8" fill="none" stroke="white" stroke-width="1.5" pointer-events="none"/>
                </g>
                <g id="dirArrow">
                        <path fill="none" stroke="white" stroke-width="1.5" d="M0,-3.0v7 M-2.5,-0.5L0,-3.0L2.5,-0.5"/>
                </g>
               <g id="resetDef">
                       <use xlink:href="#rim2" fill="#404040">
                               <set attributeName="fill" to="#808080" begin="reset.mouseover" end="reset.mouseout"/>
                       </use>
               </g>
        </defs>

<script type="text/javascript">
var viewWidth = 2241;
var viewHeight = 1054;
var sectionId = 'dynsection-1';
</script>
<script xlink:href="../../svgpan.js"/>
<svg id="graph" class="graph">
<g id="viewport">
<title>MemberDefImpl</title>
<!-- Node1 -->
<g id="node1" class="node">
<title>Node1</title>
<g id="a_node1"><a xlink:title=" ">
<polygon fill="#999999" stroke="#666666" points="2233,-464.26 2137,-464.26 2137,-445.26 2233,-445.26 2233,-464.26"/>
<text text-anchor="middle" x="2185" y="-452.26" font-family="Helvetica,sans-Serif" font-size="10.00">MemberDefImpl</text>
</a>
</g>
</g>
<!-- Node2 -->
<g id="node2" class="node">
<title>Node2</title>
<g id="a_node2"><a xlink:href="../../dd/d10/class_definition_mixin.html" target="_top" xlink:title=" ">
<polygon fill="white" stroke="#666666" points="2100,-498.76 1940,-498.76 1940,-468.76 2100,-468.76 2100,-498.76"/>
<text text-anchor="start" x="1948" y="-486.76" font-family="Helvetica,sans-Serif" font-size="10.00">DefinitionMixin&lt; MemberDef</text>
<text text-anchor="middle" x="2020" y="-475.76" font-family="Helvetica,sans-Serif" font-size="10.00">Mutable &gt;</text>
</a>
</g>
</g>
<!-- Node2&#45;&gt;Node1 -->
<g id="edge1" class="edge">
<title>Node2&#45;&gt;Node1</title>
<path fill="none" stroke="#63b8ff" d="M2110.06,-467.91C2119.2,-466.29 2128.22,-464.68 2136.64,-463.18"/>
<polygon fill="#63b8ff" stroke="#63b8ff" points="2109.34,-464.49 2100.11,-469.68 2110.57,-471.38 2109.34,-464.49"/>
</g>
<!-- Node3 -->
<g id="node3" class="node">
<title>Node3</title>
<g id="a_node3"><a xlink:href="../../dd/d4b/class_member_def_mutable.html" target="_top" xlink:title=" ">
<polygon fill="white" stroke="#666666" points="1179.5,-524.26 1065.5,-524.26 1065.5,-505.26 1179.5,-505.26 1179.5,-524.26"/>
<text text-anchor="middle" x="1122.5" y="-512.26" font-family="Helvetica,sans-Serif" font-size="10.00">MemberDefMutable</text>
</a>
</g>
</g>
<!-- Node3&#45;&gt;Node2 -->
<g id="edge2" class="edge">
<title>Node3&#45;&gt;Node2</title>
<path fill="none" stroke="#63b8ff" d="M1189.94,-514.76C1234.28,-514.76 1293.88,-514.76 1346.5,-514.76 1346.5,-514.76 1346.5,-514.76 1712.5,-514.76 1790.05,-514.76 1878.08,-504.81 1939.84,-496.19"/>
<polygon fill="#63b8ff" stroke="#63b8ff" points="1189.86,-511.26 1179.86,-514.76 1189.86,-518.26 1189.86,-511.26"/>
</g>
<!-- Node4 -->
<g id="node4" class="node">
<title>Node4</title>
<g id="a_node4"><a xlink:href="../../d0/d46/class_definition_mutable.html" target="_top" xlink:title=" ">
<polygon fill="white" stroke="#666666" points="604,-272.26 500,-272.26 500,-253.26 604,-253.26 604,-272.26"/>
<text text-anchor="middle" x="552" y="-260.26" font-family="Helvetica,sans-Serif" font-size="10.00">DefinitionMutable</text>
</a>
</g>
</g>
<!-- Node4&#45;&gt;Node3 -->
<g id="edge3" class="edge">
<title>Node4&#45;&gt;Node3</title>
<path fill="none" stroke="#63b8ff" d="M562.52,-281.49C576.5,-309.6 602.69,-364.67 619,-413.76 630.08,-447.11 610.01,-468.24 637,-490.76 669.21,-517.63 944.78,-517.21 1065.38,-515.7"/>
<polygon fill="#63b8ff" stroke="#63b8ff" points="565.57,-279.77 557.96,-272.41 559.32,-282.92 565.57,-279.77"/>
</g>
<!-- Node16 -->
<g id="node16" class="node">
<title>Node16</title>
<g id="a_node16"><a xlink:href="../../de/db0/class_file_def.html" target="_top" xlink:title="A model of a file symbol.">
<polygon fill="white" stroke="#666666" points="861.5,-266.26 810.5,-266.26 810.5,-247.26 861.5,-247.26 861.5,-266.26"/>
<text text-anchor="middle" x="836" y="-254.26" font-family="Helvetica,sans-Serif" font-size="10.00">FileDef</text>
</a>
</g>
</g>
<!-- Node4&#45;&gt;Node16 -->
<g id="edge18" class="edge">
<title>Node4&#45;&gt;Node16</title>
<path fill="none" stroke="#63b8ff" d="M614.4,-261.45C675.73,-260.15 766.95,-258.21 810.34,-257.28"/>
<polygon fill="#63b8ff" stroke="#63b8ff" points="613.99,-257.96 604.07,-261.67 614.14,-264.96 613.99,-257.96"/>
</g>
<!-- Node30 -->
<g id="node30" class="node">
<title>Node30</title>
<g id="a_node30"><a xlink:href="../../d8/d09/class_group_def.html" target="_top" xlink:title="A model of a group of symbols.">
<polygon fill="white" stroke="#666666" points="867.5,-229.26 804.5,-229.26 804.5,-210.26 867.5,-210.26 867.5,-229.26"/>
<text text-anchor="middle" x="836" y="-217.26" font-family="Helvetica,sans-Serif" font-size="10.00">GroupDef</text>
</a>
</g>
</g>
<!-- Node4&#45;&gt;Node30 -->
<g id="edge46" class="edge">
<title>Node4&#45;&gt;Node30</title>
<path fill="none" stroke="#63b8ff" d="M613.95,-253.46C672.59,-244.52 758.85,-231.37 804.33,-224.43"/>
<polygon fill="#63b8ff" stroke="#63b8ff" points="613.43,-250 604.07,-254.97 614.48,-256.92 613.43,-250"/>
</g>
<!-- Node5 -->
<g id="node5" class="node">
<title>Node5</title>
<g id="a_node5"><a xlink:href="../../da/d09/class_member_def.html" target="_top" xlink:title="A model of a class/file/namespace member symbol.">
<polygon fill="white" stroke="#666666" points="873,-303.26 799,-303.26 799,-284.26 873,-284.26 873,-303.26"/>
<text text-anchor="middle" x="836" y="-291.26" font-family="Helvetica,sans-Serif" font-size="10.00">MemberDef</text>
</a>
</g>
</g>
<!-- Node5&#45;&gt;Node3 -->
<g id="edge4" class="edge">
<title>Node5&#45;&gt;Node3</title>
<path fill="none" stroke="#63b8ff" d="M851.29,-311.34C867.54,-332.18 893.8,-368.55 909,-403.76 922.59,-435.23 902.13,-455.16 927,-478.76 937.04,-488.29 1011.6,-500.09 1065.42,-507.53"/>
<polygon fill="#63b8ff" stroke="#63b8ff" points="853.95,-309.06 844.99,-303.4 848.47,-313.41 853.95,-309.06"/>
</g>
<!-- Node20 -->
<g id="node20" class="node">
<title>Node20</title>
<g id="a_node20"><a xlink:href="../../d0/da8/class_member_def_impl_1_1_i_m_p_l.html" target="_top" xlink:title=" ">
<polygon fill="white" stroke="#666666" points="1185,-298.26 1060,-298.26 1060,-279.26 1185,-279.26 1185,-298.26"/>
<text text-anchor="middle" x="1122.5" y="-286.26" font-family="Helvetica,sans-Serif" font-size="10.00">MemberDefImpl::IMPL</text>
</a>
</g>
</g>
<!-- Node5&#45;&gt;Node20 -->
<g id="edge31" class="edge">
<title>Node5&#45;&gt;Node20</title>
<path fill="none" stroke="#9a32cd" stroke-dasharray="5,2" d="M883.68,-291.33C897.61,-290.71 912.92,-290.11 927,-289.76 971.39,-288.66 1021.5,-288.42 1059.74,-288.46"/>
<polygon fill="#9a32cd" stroke="#9a32cd" points="883.16,-287.85 873.34,-291.82 883.49,-294.85 883.16,-287.85"/>
<text text-anchor="middle" x="984.5" y="-402.76" font-family="Helvetica,sans-Serif" font-size="10.00" fill="grey"> annEnumType</text>
<text text-anchor="middle" x="984.5" y="-391.76" font-family="Helvetica,sans-Serif" font-size="10.00" fill="grey">annMemb</text>
<text text-anchor="middle" x="984.5" y="-380.76" font-family="Helvetica,sans-Serif" font-size="10.00" fill="grey">categoryRelation</text>
<text text-anchor="middle" x="984.5" y="-369.76" font-family="Helvetica,sans-Serif" font-size="10.00" fill="grey">docProvider</text>
<text text-anchor="middle" x="984.5" y="-358.76" font-family="Helvetica,sans-Serif" font-size="10.00" fill="grey">enumScope</text>
<text text-anchor="middle" x="984.5" y="-347.76" font-family="Helvetica,sans-Serif" font-size="10.00" fill="grey">groupAlias</text>
<text text-anchor="middle" x="984.5" y="-336.76" font-family="Helvetica,sans-Serif" font-size="10.00" fill="grey">groupMember</text>
<text text-anchor="middle" x="984.5" y="-325.76" font-family="Helvetica,sans-Serif" font-size="10.00" fill="grey">memDec</text>
<text text-anchor="middle" x="984.5" y="-314.76" font-family="Helvetica,sans-Serif" font-size="10.00" fill="grey">memDef</text>
<text text-anchor="middle" x="984.5" y="-303.76" font-family="Helvetica,sans-Serif" font-size="10.00" fill="grey">redefines</text>
<text text-anchor="middle" x="984.5" y="-292.76" font-family="Helvetica,sans-Serif" font-size="10.00" fill="grey">...</text>
</g>
<!-- Node6 -->
<g id="node6" class="node">
<title>Node6</title>
<g id="a_node6"><a xlink:href="../../d5/dcc/class_definition.html" target="_top" xlink:title="The common base class of all entity definitions found in the sources.">
<polygon fill="white" stroke="#666666" points="584,-197.26 520,-197.26 520,-178.26 584,-178.26 584,-197.26"/>
<text text-anchor="middle" x="552" y="-185.26" font-family="Helvetica,sans-Serif" font-size="10.00">Definition</text>
</a>
</g>
</g>
<!-- Node6&#45;&gt;Node5 -->
<g id="edge5" class="edge">
<title>Node6&#45;&gt;Node5</title>
<path fill="none" stroke="#63b8ff" d="M575.44,-202.81C591.94,-213.38 615.19,-227.26 637,-236.76 690.63,-260.1 706.71,-258.85 763,-274.76 774.57,-278.03 787.24,-281.43 798.67,-284.44"/>
<polygon fill="#63b8ff" stroke="#63b8ff" points="577.31,-199.85 567.02,-197.33 573.49,-205.72 577.31,-199.85"/>
</g>
<!-- Node8 -->
<g id="node8" class="node">
<title>Node8</title>
<g id="a_node8"><a xlink:href="../../dd/d50/class_definition_impl_1_1_i_m_p_l.html" target="_top" xlink:title="Private data associated with a Symbol DefinitionImpl object.">
<polygon fill="white" stroke="#666666" points="1405,-787.26 1290,-787.26 1290,-768.26 1405,-768.26 1405,-787.26"/>
<text text-anchor="middle" x="1347.5" y="-775.26" font-family="Helvetica,sans-Serif" font-size="10.00">DefinitionImpl::IMPL</text>
</a>
</g>
</g>
<!-- Node6&#45;&gt;Node8 -->
<g id="edge8" class="edge">
<title>Node6&#45;&gt;Node8</title>
<path fill="none" stroke="#9a32cd" stroke-dasharray="5,2" d="M571.23,-171.61C637.86,-114.61 873.11,68.61 1042,-27.76 1330.66,-192.48 1345.85,-692.95 1346.49,-768.23"/>
<polygon fill="#9a32cd" stroke="#9a32cd" points="568.89,-169 563.62,-178.19 573.47,-174.29 568.89,-169"/>
<text text-anchor="middle" x="984.5" y="-41.76" font-family="Helvetica,sans-Serif" font-size="10.00" fill="grey"> def</text>
<text text-anchor="middle" x="984.5" y="-30.76" font-family="Helvetica,sans-Serif" font-size="10.00" fill="grey">outerScope</text>
</g>
<!-- Node6&#45;&gt;Node16 -->
<g id="edge19" class="edge">
<title>Node6&#45;&gt;Node16</title>
<path fill="none" stroke="#63b8ff" d="M594.06,-197.8C653.47,-212.34 761.6,-238.8 810.19,-250.69"/>
<polygon fill="#63b8ff" stroke="#63b8ff" points="594.8,-194.38 584.26,-195.41 593.14,-201.18 594.8,-194.38"/>
</g>
<!-- Node21 -->
<g id="node21" class="node">
<title>Node21</title>
<g id="a_node21"><a xlink:href="../../d1/dcf/class_class_def.html" target="_top" xlink:title="A abstract class representing of a compound symbol.">
<polygon fill="white" stroke="#666666" points="866,-171.26 806,-171.26 806,-152.26 866,-152.26 866,-171.26"/>
<text text-anchor="middle" x="836" y="-159.26" font-family="Helvetica,sans-Serif" font-size="10.00">ClassDef</text>
</a>
</g>
</g>
<!-- Node6&#45;&gt;Node21 -->
<g id="edge27" class="edge">
<title>Node6&#45;&gt;Node21</title>
<path fill="none" stroke="#63b8ff" d="M594.1,-181.29C607.73,-179.3 622.99,-177.25 637,-175.76 696.8,-169.38 767.07,-165.19 805.76,-163.17"/>
<polygon fill="#63b8ff" stroke="#63b8ff" points="593.43,-177.85 584.05,-182.78 594.46,-184.78 593.43,-177.85"/>
</g>
<!-- Node22 -->
<g id="node22" class="node">
<title>Node22</title>
<g id="a_node22"><a xlink:href="../../d0/d07/class_namespace_def.html" target="_top" xlink:title="An abstract interface of a namespace symbol.">
<polygon fill="white" stroke="#666666" points="882,-126.26 790,-126.26 790,-107.26 882,-107.26 882,-126.26"/>
<text text-anchor="middle" x="836" y="-114.26" font-family="Helvetica,sans-Serif" font-size="10.00">NamespaceDef</text>
</a>
</g>
</g>
<!-- Node6&#45;&gt;Node22 -->
<g id="edge30" class="edge">
<title>Node6&#45;&gt;Node22</title>
<path fill="none" stroke="#63b8ff" d="M593.67,-175.74C607.4,-171.79 622.83,-167.46 637,-163.76 690.32,-149.82 752.18,-135.42 792.38,-126.29"/>
<polygon fill="#63b8ff" stroke="#63b8ff" points="592.65,-172.39 584.02,-178.53 594.6,-179.11 592.65,-172.39"/>
</g>
<!-- Node26 -->
<g id="node26" class="node">
<title>Node26</title>
<g id="a_node26"><a xlink:href="../../da/d32/class_member_group.html" target="_top" xlink:title="A class representing a group of members.">
<polygon fill="white" stroke="#666666" points="879,-431.26 793,-431.26 793,-412.26 879,-412.26 879,-431.26"/>
<text text-anchor="middle" x="836" y="-419.26" font-family="Helvetica,sans-Serif" font-size="10.00">MemberGroup</text>
</a>
</g>
</g>
<!-- Node6&#45;&gt;Node26 -->
<g id="edge39" class="edge">
<title>Node6&#45;&gt;Node26</title>
<path fill="none" stroke="#9a32cd" stroke-dasharray="5,2" d="M574.12,-203.68C587.62,-214.33 605.14,-229.04 619,-243.76 628.14,-253.47 627.65,-258.25 637,-267.76 698.35,-330.19 785.42,-389.52 820,-412.13"/>
<polygon fill="#9a32cd" stroke="#9a32cd" points="575.95,-200.67 565.9,-197.31 571.66,-206.2 575.95,-200.67"/>
<text text-anchor="middle" x="691" y="-358.76" font-family="Helvetica,sans-Serif" font-size="10.00" fill="grey"> m_container</text>
</g>
<!-- Node6&#45;&gt;Node30 -->
<g id="edge47" class="edge">
<title>Node6&#45;&gt;Node30</title>
<path fill="none" stroke="#63b8ff" d="M594.47,-189.29C633.46,-191.08 693.39,-194.74 745,-201.76 764.89,-204.46 787.01,-208.86 804.34,-212.64"/>
<polygon fill="#63b8ff" stroke="#63b8ff" points="594.19,-185.77 584.05,-188.83 593.89,-192.77 594.19,-185.77"/>
</g>
<!-- Node7 -->
<g id="node7" class="node">
<title>Node7</title>
<g id="a_node7"><a xlink:href="../../d3/ddf/class_definition_impl.html" target="_top" xlink:title=" ">
<polygon fill="white" stroke="#666666" points="1567,-583.26 1481,-583.26 1481,-564.26 1567,-564.26 1567,-583.26"/>
<text text-anchor="middle" x="1524" y="-571.26" font-family="Helvetica,sans-Serif" font-size="10.00">DefinitionImpl</text>
</a>
</g>
</g>
<!-- Node7&#45;&gt;Node2 -->
<g id="edge6" class="edge">
<title>Node7&#45;&gt;Node2</title>
<path fill="none" stroke="#9a32cd" stroke-dasharray="5,2" d="M1577.67,-573.13C1654.69,-571.02 1801.93,-562.46 1922,-528.76 1947.02,-521.74 1973.69,-508.94 1992.71,-498.78"/>
<polygon fill="#9a32cd" stroke="#9a32cd" points="1577.19,-569.64 1567.28,-573.38 1577.37,-576.64 1577.19,-569.64"/>
<text text-anchor="middle" x="1711.5" y="-572.76" font-family="Helvetica,sans-Serif" font-size="10.00" fill="grey"> m_impl</text>
</g>
<!-- Node18 -->
<g id="node18" class="node">
<title>Node18</title>
<g id="a_node18"><a xlink:href="../../dd/d10/class_definition_mixin.html" target="_top" xlink:title=" ">
<polygon fill="white" stroke="#666666" points="1780,-486.26 1643,-486.26 1643,-467.26 1780,-467.26 1780,-486.26"/>
<text text-anchor="middle" x="1711.5" y="-474.26" font-family="Helvetica,sans-Serif" font-size="10.00">DefinitionMixin&lt; Base &gt;</text>
</a>
</g>
</g>
<!-- Node7&#45;&gt;Node18 -->
<g id="edge24" class="edge">
<title>Node7&#45;&gt;Node18</title>
<path fill="none" stroke="#9a32cd" stroke-dasharray="5,2" d="M1552.53,-559.36C1590.89,-539.3 1659.39,-503.49 1692.11,-486.37"/>
<polygon fill="#9a32cd" stroke="#9a32cd" points="1550.7,-556.37 1543.46,-564.1 1553.95,-562.57 1550.7,-556.37"/>
<text text-anchor="middle" x="1605" y="-544.76" font-family="Helvetica,sans-Serif" font-size="10.00" fill="grey"> m_impl</text>
</g>
<!-- Node8&#45;&gt;Node7 -->
<g id="edge7" class="edge">
<title>Node8&#45;&gt;Node7</title>
<path fill="none" stroke="#9a32cd" stroke-dasharray="5,2" d="M1363.39,-760.35C1398.79,-718.97 1487.06,-615.78 1514.63,-583.54"/>
<polygon fill="#9a32cd" stroke="#9a32cd" points="1360.52,-758.32 1356.68,-768.19 1365.84,-762.87 1360.52,-758.32"/>
<text text-anchor="middle" x="1443" y="-690.76" font-family="Helvetica,sans-Serif" font-size="10.00" fill="grey"> m_impl</text>
</g>
<!-- Node9 -->
<g id="node9" class="node">
<title>Node9</title>
<g id="a_node9"><a xlink:href="../../d1/df9/class_section_refs.html" target="_top" xlink:title="class that represents a list of constant references to sections.">
<polygon fill="white" stroke="#666666" points="1159.5,-787.26 1085.5,-787.26 1085.5,-768.26 1159.5,-768.26 1159.5,-787.26"/>
<text text-anchor="middle" x="1122.5" y="-775.26" font-family="Helvetica,sans-Serif" font-size="10.00">SectionRefs</text>
</a>
</g>
</g>
<!-- Node9&#45;&gt;Node8 -->
<g id="edge9" class="edge">
<title>Node9&#45;&gt;Node8</title>
<path fill="none" stroke="#9a32cd" stroke-dasharray="5,2" d="M1170.18,-777.76C1204.98,-777.76 1252.68,-777.76 1289.7,-777.76"/>
<polygon fill="#9a32cd" stroke="#9a32cd" points="1169.83,-774.26 1159.83,-777.76 1169.83,-781.26 1169.83,-774.26"/>
<text text-anchor="middle" x="1237.5" y="-780.76" font-family="Helvetica,sans-Serif" font-size="10.00" fill="grey"> sectionRefs</text>
</g>
<!-- Node10 -->
<g id="node10" class="node">
<title>Node10</title>
<g id="a_node10"><a xlink:href="../../d3/d3b/class_group_list.html" target="_top" xlink:title=" ">
<polygon fill="white" stroke="#666666" points="1154,-750.26 1091,-750.26 1091,-731.26 1154,-731.26 1154,-750.26"/>
<text text-anchor="middle" x="1122.5" y="-738.26" font-family="Helvetica,sans-Serif" font-size="10.00">GroupList</text>
</a>
</g>
</g>
<!-- Node10&#45;&gt;Node8 -->
<g id="edge10" class="edge">
<title>Node10&#45;&gt;Node8</title>
<path fill="none" stroke="#9a32cd" stroke-dasharray="5,2" d="M1164.07,-746.19C1193.97,-750.34 1235.6,-756.4 1272,-762.76 1281.36,-764.39 1291.34,-766.29 1300.87,-768.18"/>
<polygon fill="#9a32cd" stroke="#9a32cd" points="1164.39,-742.7 1154.01,-744.81 1163.44,-749.64 1164.39,-742.7"/>
<text text-anchor="middle" x="1237.5" y="-765.76" font-family="Helvetica,sans-Serif" font-size="10.00" fill="grey"> partOfGroups</text>
</g>
<!-- Node11 -->
<g id="node11" class="node">
<title>Node11</title>
<g id="a_node11"><a xlink:title=" ">
<polygon fill="white" stroke="#666666" points="909,-796.26 763,-796.26 763,-777.26 909,-777.26 909,-796.26"/>
<text text-anchor="middle" x="836" y="-784.26" font-family="Helvetica,sans-Serif" font-size="10.00">std::vector&lt; GroupDef * &gt;</text>
</a>
</g>
</g>
<!-- Node11&#45;&gt;Node10 -->
<g id="edge11" class="edge">
<title>Node11&#45;&gt;Node10</title>
<path fill="none" stroke="#63b8ff" d="M905.92,-775.61C964.8,-766.09 1046.74,-752.85 1090.71,-745.74"/>
<polygon fill="#63b8ff" stroke="#63b8ff" points="905.26,-772.18 895.95,-777.23 906.38,-779.09 905.26,-772.18"/>
</g>
<!-- Node12 -->
<g id="node12" class="node">
<title>Node12</title>
<g id="a_node12"><a xlink:href="../../d7/dd5/struct_doc_info.html" target="_top" xlink:title="Data associated with a detailed description.">
<polygon fill="white" stroke="#666666" points="1011.5,-1008.26 957.5,-1008.26 957.5,-989.26 1011.5,-989.26 1011.5,-1008.26"/>
<text text-anchor="middle" x="984.5" y="-996.26" font-family="Helvetica,sans-Serif" font-size="10.00">DocInfo</text>
</a>
</g>
</g>
<!-- Node12&#45;&gt;Node8 -->
<g id="edge12" class="edge">
<title>Node12&#45;&gt;Node8</title>
<path fill="none" stroke="#9a32cd" stroke-dasharray="5,2" d="M1021.54,-991.7C1028.41,-990.01 1035.48,-988.02 1042,-985.76 1148.86,-948.64 1184.33,-948.25 1272,-876.76 1304.51,-850.25 1330.72,-806.68 1341.36,-787.43"/>
<polygon fill="#9a32cd" stroke="#9a32cd" points="1020.67,-988.3 1011.71,-993.96 1022.24,-995.13 1020.67,-988.3"/>
<text text-anchor="middle" x="1122.5" y="-991.76" font-family="Helvetica,sans-Serif" font-size="10.00" fill="grey"> details</text>
<text text-anchor="middle" x="1122.5" y="-980.76" font-family="Helvetica,sans-Serif" font-size="10.00" fill="grey">inbodyDocs</text>
</g>
<!-- Node13 -->
<g id="node13" class="node">
<title>Node13</title>
<g id="a_node13"><a xlink:href="../../d9/d45/class_q_c_string.html" target="_top" xlink:title="This is an alternative implementation of QCString.">
<polygon fill="white" stroke="#666666" points="581.5,-730.26 522.5,-730.26 522.5,-711.26 581.5,-711.26 581.5,-730.26"/>
<text text-anchor="middle" x="552" y="-718.26" font-family="Helvetica,sans-Serif" font-size="10.00">QCString</text>
</a>
</g>
</g>
<!-- Node13&#45;&gt;Node8 -->
<g id="edge20" class="edge">
<title>Node13&#45;&gt;Node8</title>
<path fill="none" stroke="#9a32cd" stroke-dasharray="5,2" d="M560.29,-739.86C571.86,-767.11 597.26,-816.12 637,-836.76 691.04,-864.82 1124.81,-841.96 1185,-832.76 1224.43,-826.73 1234.3,-823.77 1272,-810.76 1291.26,-804.11 1312.42,-794.5 1327.26,-787.36"/>
<polygon fill="#9a32cd" stroke="#9a32cd" points="563.41,-738.24 556.42,-730.28 556.92,-740.86 563.41,-738.24"/>
<text text-anchor="middle" x="984.5" y="-960.76" font-family="Helvetica,sans-Serif" font-size="10.00" fill="grey"> briefSignatures</text>
<text text-anchor="middle" x="984.5" y="-949.76" font-family="Helvetica,sans-Serif" font-size="10.00" fill="grey">defFileExt</text>
<text text-anchor="middle" x="984.5" y="-938.76" font-family="Helvetica,sans-Serif" font-size="10.00" fill="grey">defFileName</text>
<text text-anchor="middle" x="984.5" y="-927.76" font-family="Helvetica,sans-Serif" font-size="10.00" fill="grey">docSignatures</text>
<text text-anchor="middle" x="984.5" y="-916.76" font-family="Helvetica,sans-Serif" font-size="10.00" fill="grey">id</text>
<text text-anchor="middle" x="984.5" y="-905.76" font-family="Helvetica,sans-Serif" font-size="10.00" fill="grey">localName</text>
<text text-anchor="middle" x="984.5" y="-894.76" font-family="Helvetica,sans-Serif" font-size="10.00" fill="grey">name</text>
<text text-anchor="middle" x="984.5" y="-883.76" font-family="Helvetica,sans-Serif" font-size="10.00" fill="grey">qualifiedName</text>
<text text-anchor="middle" x="984.5" y="-872.76" font-family="Helvetica,sans-Serif" font-size="10.00" fill="grey">ref</text>
<text text-anchor="middle" x="984.5" y="-861.76" font-family="Helvetica,sans-Serif" font-size="10.00" fill="grey">symbolName</text>
<text text-anchor="middle" x="984.5" y="-850.76" font-family="Helvetica,sans-Serif" font-size="10.00" fill="grey">...</text>
</g>
<!-- Node13&#45;&gt;Node12 -->
<g id="edge13" class="edge">
<title>Node13&#45;&gt;Node12</title>
<path fill="none" stroke="#9a32cd" stroke-dasharray="5,2" d="M558.45,-739.99C568.62,-772.57 593.51,-838.75 637,-876.76 734.25,-961.74 894.45,-988.61 957.17,-996.13"/>
<polygon fill="#9a32cd" stroke="#9a32cd" points="561.78,-738.9 555.56,-730.32 555.07,-740.91 561.78,-738.9"/>
<text text-anchor="middle" x="691" y="-952.76" font-family="Helvetica,sans-Serif" font-size="10.00" fill="grey"> doc</text>
<text text-anchor="middle" x="691" y="-941.76" font-family="Helvetica,sans-Serif" font-size="10.00" fill="grey">file</text>
</g>
<!-- Node14 -->
<g id="node14" class="node">
<title>Node14</title>
<g id="a_node14"><a xlink:href="../../d0/da7/struct_brief_info.html" target="_top" xlink:title="Data associated with a brief description.">
<polygon fill="white" stroke="#666666" points="1014,-834.26 955,-834.26 955,-815.26 1014,-815.26 1014,-834.26"/>
<text text-anchor="middle" x="984.5" y="-822.26" font-family="Helvetica,sans-Serif" font-size="10.00">BriefInfo</text>
</a>
</g>
</g>
<!-- Node13&#45;&gt;Node14 -->
<g id="edge15" class="edge">
<title>Node13&#45;&gt;Node14</title>
<path fill="none" stroke="#9a32cd" stroke-dasharray="5,2" d="M580.39,-734.95C619.66,-754.57 694.77,-789.4 763,-805.76 830.44,-821.93 912.4,-824.74 954.87,-824.99"/>
<polygon fill="#9a32cd" stroke="#9a32cd" points="581.71,-731.69 571.21,-730.31 578.55,-737.94 581.71,-731.69"/>
<text text-anchor="middle" x="691" y="-824.76" font-family="Helvetica,sans-Serif" font-size="10.00" fill="grey"> doc</text>
<text text-anchor="middle" x="691" y="-813.76" font-family="Helvetica,sans-Serif" font-size="10.00" fill="grey">file</text>
<text text-anchor="middle" x="691" y="-802.76" font-family="Helvetica,sans-Serif" font-size="10.00" fill="grey">tooltip</text>
</g>
<!-- Node13&#45;&gt;Node20 -->
<g id="edge35" class="edge">
<title>Node13&#45;&gt;Node20</title>
<path fill="none" stroke="#9a32cd" stroke-dasharray="5,2" d="M580.35,-706.47C619.58,-686.77 694.63,-651.97 763,-636.76 793.31,-630.02 1019.53,-642.19 1042,-620.76 1069.65,-594.39 1051.11,-486.92 1060,-449.76 1074.28,-390.1 1105.12,-322.75 1116.85,-298.28"/>
<polygon fill="#9a32cd" stroke="#9a32cd" points="578.51,-703.48 571.18,-711.13 581.68,-709.72 578.51,-703.48"/>
<text text-anchor="middle" x="836" y="-760.76" font-family="Helvetica,sans-Serif" font-size="10.00" fill="grey"> accessorType</text>
<text text-anchor="middle" x="836" y="-749.76" font-family="Helvetica,sans-Serif" font-size="10.00" fill="grey">anc</text>
<text text-anchor="middle" x="836" y="-738.76" font-family="Helvetica,sans-Serif" font-size="10.00" fill="grey">args</text>
<text text-anchor="middle" x="836" y="-727.76" font-family="Helvetica,sans-Serif" font-size="10.00" fill="grey">bitfields</text>
<text text-anchor="middle" x="836" y="-716.76" font-family="Helvetica,sans-Serif" font-size="10.00" fill="grey">cachedResolvedType</text>
<text text-anchor="start" x="784.5" y="-705.76" font-family="Helvetica,sans-Serif" font-size="10.00" fill="grey">cachedTypedefTempl</text>
<text text-anchor="middle" x="836" y="-694.76" font-family="Helvetica,sans-Serif" font-size="10.00" fill="grey">Spec</text>
<text text-anchor="middle" x="836" y="-683.76" font-family="Helvetica,sans-Serif" font-size="10.00" fill="grey">decl</text>
<text text-anchor="middle" x="836" y="-672.76" font-family="Helvetica,sans-Serif" font-size="10.00" fill="grey">declFileName</text>
<text text-anchor="middle" x="836" y="-661.76" font-family="Helvetica,sans-Serif" font-size="10.00" fill="grey">def</text>
<text text-anchor="middle" x="836" y="-650.76" font-family="Helvetica,sans-Serif" font-size="10.00" fill="grey">enumBaseType</text>
<text text-anchor="middle" x="836" y="-639.76" font-family="Helvetica,sans-Serif" font-size="10.00" fill="grey">...</text>
</g>
<!-- Node25 -->
<g id="node25" class="node">
<title>Node25</title>
<g id="a_node25"><a xlink:href="../../d7/df8/class_argument_list.html" target="_top" xlink:title="This class represents an function or template argument list.">
<polygon fill="white" stroke="#666666" points="877,-590.26 795,-590.26 795,-571.26 877,-571.26 877,-590.26"/>
<text text-anchor="middle" x="836" y="-578.26" font-family="Helvetica,sans-Serif" font-size="10.00">ArgumentList</text>
</a>
</g>
</g>
<!-- Node13&#45;&gt;Node25 -->
<g id="edge37" class="edge">
<title>Node13&#45;&gt;Node25</title>
<path fill="none" stroke="#9a32cd" stroke-dasharray="5,2" d="M560.42,-701.66C572.14,-674.33 597.73,-624.82 637,-601.76 685.59,-573.23 752.57,-572.52 794.83,-575.76"/>
<polygon fill="#9a32cd" stroke="#9a32cd" points="557.04,-700.68 556.48,-711.26 563.51,-703.33 557.04,-700.68"/>
<text text-anchor="middle" x="691" y="-604.76" font-family="Helvetica,sans-Serif" font-size="10.00" fill="grey"> m_trailingReturnType</text>
</g>
<!-- Node13&#45;&gt;Node26 -->
<g id="edge44" class="edge">
<title>Node13&#45;&gt;Node26</title>
<path fill="none" stroke="#9a32cd" stroke-dasharray="5,2" d="M553.84,-700.97C556.91,-654.72 571.13,-538.75 637,-476.76 679.48,-436.78 748.46,-425.43 792.77,-422.45"/>
<polygon fill="#9a32cd" stroke="#9a32cd" points="550.34,-700.98 553.28,-711.15 557.33,-701.36 550.34,-700.98"/>
<text text-anchor="middle" x="691" y="-512.76" font-family="Helvetica,sans-Serif" font-size="10.00" fill="grey"> doc</text>
<text text-anchor="middle" x="691" y="-501.76" font-family="Helvetica,sans-Serif" font-size="10.00" fill="grey">fileName</text>
<text text-anchor="middle" x="691" y="-490.76" font-family="Helvetica,sans-Serif" font-size="10.00" fill="grey">grpHeader</text>
<text text-anchor="middle" x="691" y="-479.76" font-family="Helvetica,sans-Serif" font-size="10.00" fill="grey">m_docFile</text>
</g>
<!-- Node14&#45;&gt;Node8 -->
<g id="edge14" class="edge">
<title>Node14&#45;&gt;Node8</title>
<path fill="none" stroke="#9a32cd" stroke-dasharray="5,2" d="M1024.11,-821.53C1079.27,-816.66 1183.74,-806.55 1272,-792.76 1281.91,-791.21 1292.5,-789.26 1302.49,-787.28"/>
<polygon fill="#9a32cd" stroke="#9a32cd" points="1023.73,-818.05 1014.08,-822.4 1024.34,-825.02 1023.73,-818.05"/>
<text text-anchor="middle" x="1122.5" y="-820.76" font-family="Helvetica,sans-Serif" font-size="10.00" fill="grey"> brief</text>
</g>
<!-- Node15 -->
<g id="node15" class="node">
<title>Node15</title>
<g id="a_node15"><a xlink:href="../../db/dab/struct_body_info.html" target="_top" xlink:title="Data associated with description found in the body.">
<polygon fill="white" stroke="#666666" points="1152.5,-477.26 1092.5,-477.26 1092.5,-458.26 1152.5,-458.26 1152.5,-477.26"/>
<text text-anchor="middle" x="1122.5" y="-465.26" font-family="Helvetica,sans-Serif" font-size="10.00">BodyInfo</text>
</a>
</g>
</g>
<!-- Node15&#45;&gt;Node8 -->
<g id="edge16" class="edge">
<title>Node15&#45;&gt;Node8</title>
<path fill="none" stroke="#9a32cd" stroke-dasharray="5,2" d="M1161.85,-481.43C1170.09,-485.52 1178.32,-490.6 1185,-496.76 1276.42,-581.06 1330.36,-729.22 1343.4,-768.16"/>
<polygon fill="#9a32cd" stroke="#9a32cd" points="1163.18,-478.18 1152.63,-477.22 1160.27,-484.55 1163.18,-478.18"/>
<text text-anchor="middle" x="1237.5" y="-610.76" font-family="Helvetica,sans-Serif" font-size="10.00" fill="grey"> body</text>
</g>
<!-- Node16&#45;&gt;Node15 -->
<g id="edge17" class="edge">
<title>Node16&#45;&gt;Node15</title>
<path fill="none" stroke="#9a32cd" stroke-dasharray="5,2" d="M871.76,-257.27C885.3,-259.32 899.75,-264.16 909,-274.76 957.49,-330.35 875.74,-386.71 927,-439.76 949.28,-462.82 1043.73,-467.11 1092.34,-467.76"/>
<polygon fill="#9a32cd" stroke="#9a32cd" points="872,-253.77 861.69,-256.19 871.26,-260.73 872,-253.77"/>
<text text-anchor="middle" x="984.5" y="-468.76" font-family="Helvetica,sans-Serif" font-size="10.00" fill="grey"> fileDef</text>
</g>
<!-- Node16&#45;&gt;Node20 -->
<g id="edge28" class="edge">
<title>Node16&#45;&gt;Node20</title>
<path fill="none" stroke="#9a32cd" stroke-dasharray="5,2" d="M871.69,-258.53C912.55,-260.88 982.42,-265.69 1042,-273.76 1052.86,-275.23 1064.48,-277.2 1075.39,-279.22"/>
<polygon fill="#9a32cd" stroke="#9a32cd" points="871.88,-255.04 861.7,-257.98 871.49,-262.03 871.88,-255.04"/>
<text text-anchor="middle" x="984.5" y="-276.76" font-family="Helvetica,sans-Serif" font-size="10.00" fill="grey"> fileDef</text>
</g>
<!-- Node17 -->
<g id="node17" class="node">
<title>Node17</title>
<g id="a_node17"><a xlink:href="../../d1/d7d/class_member_vector.html" target="_top" xlink:title="A vector of MemberDef object.">
<polygon fill="white" stroke="#666666" points="310,-552.26 222,-552.26 222,-533.26 310,-533.26 310,-552.26"/>
<text text-anchor="middle" x="266" y="-540.26" font-family="Helvetica,sans-Serif" font-size="10.00">MemberVector</text>
</a>
</g>
</g>
<!-- Node17&#45;&gt;Node8 -->
<g id="edge21" class="edge">
<title>Node17&#45;&gt;Node8</title>
<path fill="none" stroke="#9a32cd" stroke-dasharray="5,2" d="M268.9,-562.35C278.83,-652.59 332.92,-1023.76 551,-1023.76 551,-1023.76 551,-1023.76 1123.5,-1023.76 1253.49,-1023.76 1327.5,-832.88 1343.29,-787.4"/>
<polygon fill="#9a32cd" stroke="#9a32cd" points="272.38,-561.95 267.86,-552.37 265.42,-562.68 272.38,-561.95"/>
<text text-anchor="middle" x="836" y="-1037.76" font-family="Helvetica,sans-Serif" font-size="10.00" fill="grey"> referencedByMembers</text>
<text text-anchor="middle" x="836" y="-1026.76" font-family="Helvetica,sans-Serif" font-size="10.00" fill="grey">referencesMembers</text>
</g>
<!-- Node17&#45;&gt;Node20 -->
<g id="edge32" class="edge">
<title>Node17&#45;&gt;Node20</title>
<path fill="none" stroke="#9a32cd" stroke-dasharray="5,2" d="M320.51,-541.75C486.42,-538.18 984.55,-523.93 1042,-480.76 1049.95,-474.78 1103.18,-336.66 1117.8,-298.47"/>
<polygon fill="#9a32cd" stroke="#9a32cd" points="319.99,-538.26 310.07,-541.97 320.14,-545.26 319.99,-538.26"/>
<text text-anchor="middle" x="691" y="-544.76" font-family="Helvetica,sans-Serif" font-size="10.00" fill="grey"> enumFields</text>
<text text-anchor="middle" x="691" y="-533.76" font-family="Helvetica,sans-Serif" font-size="10.00" fill="grey">redefinedBy</text>
</g>
<!-- Node27 -->
<g id="node27" class="node">
<title>Node27</title>
<g id="a_node27"><a xlink:href="../../dd/d13/class_member_list.html" target="_top" xlink:title="A list of MemberDef objects as shown in documentation sections.">
<polygon fill="white" stroke="#666666" points="589,-441.26 515,-441.26 515,-422.26 589,-422.26 589,-441.26"/>
<text text-anchor="middle" x="552" y="-429.26" font-family="Helvetica,sans-Serif" font-size="10.00">MemberList</text>
</a>
</g>
</g>
<!-- Node17&#45;&gt;Node27 -->
<g id="edge41" class="edge">
<title>Node17&#45;&gt;Node27</title>
<path fill="none" stroke="#63b8ff" d="M301.18,-529.4C359.27,-506.7 475.88,-461.12 526.55,-441.31"/>
<polygon fill="#63b8ff" stroke="#63b8ff" points="299.75,-526.2 291.71,-533.1 302.29,-532.72 299.75,-526.2"/>
</g>
<!-- Node18&#45;&gt;Node2 -->
<g id="edge22" class="edge">
<title>Node18&#45;&gt;Node2</title>
<path fill="none" stroke="orange" stroke-dasharray="5,2" d="M1790.32,-478.54C1836.1,-479.58 1893.86,-480.9 1939.88,-481.95"/>
<polygon fill="orange" stroke="orange" points="1790.22,-475.03 1780.14,-478.3 1790.06,-482.03 1790.22,-475.03"/>
<text text-anchor="middle" x="1860" y="-483.76" font-family="Helvetica,sans-Serif" font-size="10.00" fill="grey"> &lt; MemberDefMutable &gt;</text>
</g>
<!-- Node19 -->
<g id="node19" class="node">
<title>Node19</title>
<g id="a_node19"><a xlink:title=" ">
<polygon fill="white" stroke="#666666" points="1544.5,-486.26 1503.5,-486.26 1503.5,-467.26 1544.5,-467.26 1544.5,-486.26"/>
<text text-anchor="middle" x="1524" y="-474.26" font-family="Helvetica,sans-Serif" font-size="10.00">Base</text>
</a>
</g>
</g>
<!-- Node19&#45;&gt;Node18 -->
<g id="edge23" class="edge">
<title>Node19&#45;&gt;Node18</title>
<path fill="none" stroke="#63b8ff" d="M1554.61,-476.76C1578.32,-476.76 1612.52,-476.76 1642.85,-476.76"/>
<polygon fill="#63b8ff" stroke="#63b8ff" points="1554.5,-473.26 1544.5,-476.76 1554.5,-480.26 1554.5,-473.26"/>
</g>
<!-- Node20&#45;&gt;Node1 -->
<g id="edge25" class="edge">
<title>Node20&#45;&gt;Node1</title>
<path fill="none" stroke="#9a32cd" stroke-dasharray="5,2" d="M1137.11,-306.43C1169.05,-345.69 1253.19,-436.76 1346.5,-436.76 1346.5,-436.76 1346.5,-436.76 2021,-436.76 2060.15,-436.76 2104.26,-441.95 2136.72,-446.76"/>
<polygon fill="#9a32cd" stroke="#9a32cd" points="1139.75,-304.11 1130.78,-298.47 1134.27,-308.47 1139.75,-304.11"/>
<text text-anchor="middle" x="1605" y="-439.76" font-family="Helvetica,sans-Serif" font-size="10.00" fill="grey"> m_impl</text>
</g>
<!-- Node21&#45;&gt;Node20 -->
<g id="edge26" class="edge">
<title>Node21&#45;&gt;Node20</title>
<path fill="none" stroke="#9a32cd" stroke-dasharray="5,2" d="M875.98,-149.59C919.48,-138.44 990.49,-127.65 1042,-156.76 1090.21,-184 1112.43,-253.49 1119.18,-279.1"/>
<polygon fill="#9a32cd" stroke="#9a32cd" points="874.82,-146.28 866.07,-152.26 876.64,-153.04 874.82,-146.28"/>
<text text-anchor="middle" x="984.5" y="-214.76" font-family="Helvetica,sans-Serif" font-size="10.00" fill="grey"> accessorClass</text>
<text text-anchor="middle" x="984.5" y="-203.76" font-family="Helvetica,sans-Serif" font-size="10.00" fill="grey">cachedAnonymousType</text>
<text text-anchor="middle" x="984.5" y="-192.76" font-family="Helvetica,sans-Serif" font-size="10.00" fill="grey">cachedTypedefValue</text>
<text text-anchor="middle" x="984.5" y="-181.76" font-family="Helvetica,sans-Serif" font-size="10.00" fill="grey">category</text>
<text text-anchor="middle" x="984.5" y="-170.76" font-family="Helvetica,sans-Serif" font-size="10.00" fill="grey">classDef</text>
<text text-anchor="middle" x="984.5" y="-159.76" font-family="Helvetica,sans-Serif" font-size="10.00" fill="grey">relatedAlso</text>
</g>
<!-- Node22&#45;&gt;Node20 -->
<g id="edge29" class="edge">
<title>Node22&#45;&gt;Node20</title>
<path fill="none" stroke="#9a32cd" stroke-dasharray="5,2" d="M884.43,-105.35C928.86,-97.49 995.24,-93.26 1042,-123.76 1098.46,-160.59 1115.93,-249.57 1120.27,-279.07"/>
<polygon fill="#9a32cd" stroke="#9a32cd" points="883.64,-101.94 874.47,-107.24 884.95,-108.82 883.64,-101.94"/>
<text text-anchor="middle" x="984.5" y="-126.76" font-family="Helvetica,sans-Serif" font-size="10.00" fill="grey"> nspace</text>
</g>
<!-- Node23 -->
<g id="node23" class="node">
<title>Node23</title>
<g id="a_node23"><a xlink:href="../../d1/d48/class_example_list.html" target="_top" xlink:title=" ">
<polygon fill="white" stroke="#666666" points="874.5,-73.26 797.5,-73.26 797.5,-54.26 874.5,-54.26 874.5,-73.26"/>
<text text-anchor="middle" x="836" y="-61.26" font-family="Helvetica,sans-Serif" font-size="10.00">ExampleList</text>
</a>
</g>
</g>
<!-- Node23&#45;&gt;Node20 -->
<g id="edge33" class="edge">
<title>Node23&#45;&gt;Node20</title>
<path fill="none" stroke="#9a32cd" stroke-dasharray="5,2" d="M884.99,-55.51C930.11,-50.55 997.23,-50.68 1042,-84.76 1107.33,-134.49 1119.01,-245.53 1121.07,-279.02"/>
<polygon fill="#9a32cd" stroke="#9a32cd" points="884.37,-52.06 874.87,-56.75 885.22,-59.01 884.37,-52.06"/>
<text text-anchor="middle" x="984.5" y="-87.76" font-family="Helvetica,sans-Serif" font-size="10.00" fill="grey"> examples</text>
</g>
<!-- Node24 -->
<g id="node24" class="node">
<title>Node24</title>
<g id="a_node24"><a xlink:title=" ">
<polygon fill="white" stroke="#666666" points="619,-73.26 485,-73.26 485,-54.26 619,-54.26 619,-73.26"/>
<text text-anchor="middle" x="552" y="-61.26" font-family="Helvetica,sans-Serif" font-size="10.00">std::vector&lt; Example &gt;</text>
</a>
</g>
</g>
<!-- Node24&#45;&gt;Node23 -->
<g id="edge34" class="edge">
<title>Node24&#45;&gt;Node23</title>
<path fill="none" stroke="#63b8ff" d="M629.43,-63.76C683.88,-63.76 754.71,-63.76 797.42,-63.76"/>
<polygon fill="#63b8ff" stroke="#63b8ff" points="629.12,-60.26 619.12,-63.76 629.12,-67.26 629.12,-60.26"/>
</g>
<!-- Node25&#45;&gt;Node20 -->
<g id="edge36" class="edge">
<title>Node25&#45;&gt;Node20</title>
<path fill="none" stroke="#9a32cd" stroke-dasharray="5,2" d="M887.69,-577.2C944.76,-572.71 1031.03,-564.29 1042,-553.76 1075.83,-521.27 1047.57,-494.99 1060,-449.76 1076.25,-390.61 1105.91,-322.95 1117.08,-298.34"/>
<polygon fill="#9a32cd" stroke="#9a32cd" points="887.1,-573.73 877.39,-577.99 887.63,-580.71 887.1,-573.73"/>
<text text-anchor="middle" x="984.5" y="-609.76" font-family="Helvetica,sans-Serif" font-size="10.00" fill="grey"> declArgList</text>
<text text-anchor="middle" x="984.5" y="-598.76" font-family="Helvetica,sans-Serif" font-size="10.00" fill="grey">defArgList</text>
<text text-anchor="middle" x="984.5" y="-587.76" font-family="Helvetica,sans-Serif" font-size="10.00" fill="grey">tArgList</text>
<text text-anchor="middle" x="984.5" y="-576.76" font-family="Helvetica,sans-Serif" font-size="10.00" fill="grey">typeConstraints</text>
</g>
<!-- Node26&#45;&gt;Node20 -->
<g id="edge38" class="edge">
<title>Node26&#45;&gt;Node20</title>
<path fill="none" stroke="#9a32cd" stroke-dasharray="5,2" d="M889.33,-424.23C941.37,-425.76 1016.97,-425.21 1042,-410.76 1086.89,-384.85 1110.86,-322.2 1118.64,-298.27"/>
<polygon fill="#9a32cd" stroke="#9a32cd" points="889.36,-420.73 879.25,-423.9 889.13,-427.73 889.36,-420.73"/>
<text text-anchor="middle" x="984.5" y="-427.76" font-family="Helvetica,sans-Serif" font-size="10.00" fill="grey"> memberGroup</text>
</g>
<!-- Node27&#45;&gt;Node26 -->
<g id="edge40" class="edge">
<title>Node27&#45;&gt;Node26</title>
<path fill="none" stroke="#9a32cd" stroke-dasharray="5,2" d="M596.99,-419.87C609.79,-416.94 623.87,-414.22 637,-412.76 690.52,-406.78 752.6,-411.48 792.77,-416.03"/>
<polygon fill="#9a32cd" stroke="#9a32cd" points="595.95,-416.52 587.04,-422.25 597.58,-423.33 595.95,-416.52"/>
<text text-anchor="middle" x="691" y="-415.76" font-family="Helvetica,sans-Serif" font-size="10.00" fill="grey"> inDeclSection</text>
</g>
<!-- Node28 -->
<g id="node28" class="node">
<title>Node28</title>
<g id="a_node28"><a xlink:href="../../d4/d15/class_member_group_ref_list.html" target="_top" xlink:title=" ">
<polygon fill="white" stroke="#666666" points="326,-441.26 206,-441.26 206,-422.26 326,-422.26 326,-441.26"/>
<text text-anchor="middle" x="266" y="-429.26" font-family="Helvetica,sans-Serif" font-size="10.00">MemberGroupRefList</text>
</a>
</g>
</g>
<!-- Node28&#45;&gt;Node27 -->
<g id="edge42" class="edge">
<title>Node28&#45;&gt;Node27</title>
<path fill="none" stroke="#9a32cd" stroke-dasharray="5,2" d="M336.46,-431.76C392.82,-431.76 470.04,-431.76 514.81,-431.76"/>
<polygon fill="#9a32cd" stroke="#9a32cd" points="336.19,-428.26 326.19,-431.76 336.19,-435.26 336.19,-428.26"/>
<text text-anchor="middle" x="405.5" y="-434.76" font-family="Helvetica,sans-Serif" font-size="10.00" fill="grey"> m_memberGroupRefList</text>
</g>
<!-- Node29 -->
<g id="node29" class="node">
<title>Node29</title>
<g id="a_node29"><a xlink:title=" ">
<polygon fill="white" stroke="#666666" points="169,-441.26 0,-441.26 0,-422.26 169,-422.26 169,-441.26"/>
<text text-anchor="middle" x="84.5" y="-429.26" font-family="Helvetica,sans-Serif" font-size="10.00">std::vector&lt; MemberGroup * &gt;</text>
</a>
</g>
</g>
<!-- Node29&#45;&gt;Node28 -->
<g id="edge43" class="edge">
<title>Node29&#45;&gt;Node28</title>
<path fill="none" stroke="#63b8ff" d="M179.34,-431.76C188.32,-431.76 197.24,-431.76 205.74,-431.76"/>
<polygon fill="#63b8ff" stroke="#63b8ff" points="179.21,-428.26 169.21,-431.76 179.21,-435.26 179.21,-428.26"/>
</g>
<!-- Node30&#45;&gt;Node20 -->
<g id="edge45" class="edge">
<title>Node30&#45;&gt;Node20</title>
<path fill="none" stroke="#9a32cd" stroke-dasharray="5,2" d="M877.7,-221.25C919.72,-223.73 986.74,-230.3 1042,-247.76 1065.84,-255.29 1091.14,-269.56 1106.63,-279.12"/>
<polygon fill="#9a32cd" stroke="#9a32cd" points="877.75,-217.75 867.58,-220.71 877.38,-224.74 877.75,-217.75"/>
<text text-anchor="middle" x="984.5" y="-250.76" font-family="Helvetica,sans-Serif" font-size="10.00" fill="grey"> group</text>
</g>
</g>
</svg>
        <g id="navigator" transform="translate(0 0)" fill="#404254">
                <rect fill="#f2f5e9" fill-opacity="0.5" stroke="#606060" stroke-width=".5" x="0" y="0" width="60" height="60"/>
                <use id="zoomplus" xlink:href="#zoomPlus" x="17" y="9" onmousedown="handleZoom(evt,'in')"/>
                <use id="zoomminus" xlink:href="#zoomMin" x="42" y="9" onmousedown="handleZoom(evt,'out')"/>
                <use id="reset" xlink:href="#resetDef" x="30" y="36" onmousedown="handleReset()"/>
                <g id="arrowUp" xlink:href="#dirArrow" transform="translate(30 24)" onmousedown="handlePan(0,-1)">
                  <use xlink:href="#rim" fill="#404040">
                        <set attributeName="fill" to="#808080" begin="arrowUp.mouseover" end="arrowUp.mouseout"/>
                  </use>
                  <path fill="none" stroke="white" stroke-width="1.5" d="M0,-3.0v7 M-2.5,-0.5L0,-3.0L2.5,-0.5"/>
                </g>
                <g id="arrowRight" xlink:href="#dirArrow" transform="rotate(90) translate(36 -43)" onmousedown="handlePan(1,0)">
                  <use xlink:href="#rim" fill="#404040">
                        <set attributeName="fill" to="#808080" begin="arrowRight.mouseover" end="arrowRight.mouseout"/>
                  </use>
                  <path fill="none" stroke="white" stroke-width="1.5" d="M0,-3.0v7 M-2.5,-0.5L0,-3.0L2.5,-0.5"/>
                </g>
                <g id="arrowDown" xlink:href="#dirArrow" transform="rotate(180) translate(-30 -48)" onmousedown="handlePan(0,1)">
                  <use xlink:href="#rim" fill="#404040">
                        <set attributeName="fill" to="#808080" begin="arrowDown.mouseover" end="arrowDown.mouseout"/>
                  </use>
                  <path fill="none" stroke="white" stroke-width="1.5" d="M0,-3.0v7 M-2.5,-0.5L0,-3.0L2.5,-0.5"/>
                </g>
                <g id="arrowLeft" xlink:href="#dirArrow" transform="rotate(270) translate(-36 17)" onmousedown="handlePan(-1,0)">
                  <use xlink:href="#rim" fill="#404040">
                        <set attributeName="fill" to="#808080" begin="arrowLeft.mouseover" end="arrowLeft.mouseout"/>
                  </use>
                  <path fill="none" stroke="white" stroke-width="1.5" d="M0,-3.0v7 M-2.5,-0.5L0,-3.0L2.5,-0.5"/>
                </g>
        </g>
        <svg viewBox="0 0 15 15" width="100%" height="30px" preserveAspectRatio="xMaxYMin meet">
         <g id="arrow_out" transform="scale(0.3 0.3)">
          <a xlink:href="class_member_def_impl__coll__graph_org.svg" target="_base">
           <rect id="button" ry="5" rx="5" y="6" x="6" height="38" width="38"
                fill="#f2f5e9" fill-opacity="0.5" stroke="#606060" stroke-width="1.0"/>
           <path id="arrow"
             d="M 11.500037,31.436501 C 11.940474,20.09759 22.043105,11.32322 32.158766,21.979434 L 37.068811,17.246167 C 37.068811,17.246167 37.088388,32 37.088388,32 L 22.160133,31.978069 C 22.160133,31.978069 26.997745,27.140456 26.997745,27.140456 C 18.528582,18.264221 13.291696,25.230495 11.500037,31.436501 z"
             style="fill:#404040;"/>
          </a>
         </g>
        </svg>
</svg>
