<?xml version="1.0" encoding="UTF-8" standalone="no"?>
<!DOCTYPE svg PUBLIC "-//W3C//DTD SVG 1.1//EN"
 "http://www.w3.org/Graphics/SVG/1.1/DTD/svg11.dtd">
<!-- Generated by graphviz version 2.43.0 (0)
 -->
<!-- Title: DirDefImpl Pages: 1 -->
<svg width="322pt" height="205pt"
 viewBox="0.00 0.00 321.50 205.00" xmlns="http://www.w3.org/2000/svg" xmlns:xlink="http://www.w3.org/1999/xlink">
<g id="graph0" class="graph" transform="scale(1 1) rotate(0) translate(4 201)">
<title>DirDefImpl</title>
<!-- Node1 -->
<g id="node1" class="node">
<title>Node1</title>
<g id="a_node1"><a xlink:title=" ">
<polygon fill="#999999" stroke="#666666" points="224,-19 154,-19 154,0 224,0 224,-19"/>
<text text-anchor="middle" x="189" y="-7" font-family="Helvetica,sans-Serif" font-size="10.00">DirDefImpl</text>
</a>
</g>
</g>
<!-- Node2 -->
<g id="node2" class="node">
<title>Node2</title>
<g id="a_node2"><a xlink:href="../../dd/d10/class_definition_mixin.html" target="_top" xlink:title=" ">
<polygon fill="white" stroke="#666666" points="261.5,-75 116.5,-75 116.5,-56 261.5,-56 261.5,-75"/>
<text text-anchor="middle" x="189" y="-63" font-family="Helvetica,sans-Serif" font-size="10.00">DefinitionMixin&lt; DirDef &gt;</text>
</a>
</g>
</g>
<!-- Node2&#45;&gt;Node1 -->
<g id="edge1" class="edge">
<title>Node2&#45;&gt;Node1</title>
<path fill="none" stroke="#63b8ff" d="M189,-45.3C189,-36.41 189,-26.28 189,-19.25"/>
<polygon fill="#63b8ff" stroke="#63b8ff" points="185.5,-45.58 189,-55.58 192.5,-45.58 185.5,-45.58"/>
</g>
<!-- Node3 -->
<g id="node3" class="node">
<title>Node3</title>
<g id="a_node3"><a xlink:href="../../d4/dd4/class_dir_def.html" target="_top" xlink:title="A model of a directory symbol.">
<polygon fill="white" stroke="#666666" points="158,-141 110,-141 110,-122 158,-122 158,-141"/>
<text text-anchor="middle" x="134" y="-129" font-family="Helvetica,sans-Serif" font-size="10.00">DirDef</text>
</a>
</g>
</g>
<!-- Node3&#45;&gt;Node2 -->
<g id="edge2" class="edge">
<title>Node3&#45;&gt;Node2</title>
<path fill="none" stroke="#63b8ff" d="M148.07,-114.12C158.66,-101.81 172.76,-85.39 181.35,-75.41"/>
<polygon fill="#63b8ff" stroke="#63b8ff" points="145.28,-112 141.42,-121.87 150.59,-116.57 145.28,-112"/>
</g>
<!-- Node4 -->
<g id="node4" class="node">
<title>Node4</title>
<g id="a_node4"><a xlink:href="../../d0/d46/class_definition_mutable.html" target="_top" xlink:title=" ">
<polygon fill="white" stroke="#666666" points="104,-197 0,-197 0,-178 104,-178 104,-197"/>
<text text-anchor="middle" x="52" y="-185" font-family="Helvetica,sans-Serif" font-size="10.00">DefinitionMutable</text>
</a>
</g>
</g>
<!-- Node4&#45;&gt;Node3 -->
<g id="edge3" class="edge">
<title>Node4&#45;&gt;Node3</title>
<path fill="none" stroke="#63b8ff" d="M73.83,-172.12C88.81,-162.26 108.2,-149.49 120.86,-141.15"/>
<polygon fill="#63b8ff" stroke="#63b8ff" points="71.6,-169.4 65.17,-177.82 75.45,-175.25 71.6,-169.4"/>
</g>
<!-- Node5 -->
<g id="node5" class="node">
<title>Node5</title>
<g id="a_node5"><a xlink:href="../../d5/dcc/class_definition.html" target="_top" xlink:title="The common base class of all entity definitions found in the sources.">
<polygon fill="white" stroke="#666666" points="186,-197 122,-197 122,-178 186,-178 186,-197"/>
<text text-anchor="middle" x="154" y="-185" font-family="Helvetica,sans-Serif" font-size="10.00">Definition</text>
</a>
</g>
</g>
<!-- Node5&#45;&gt;Node3 -->
<g id="edge4" class="edge">
<title>Node5&#45;&gt;Node3</title>
<path fill="none" stroke="#63b8ff" d="M147.22,-168.19C143.85,-159.09 139.93,-148.51 137.24,-141.25"/>
<polygon fill="#63b8ff" stroke="#63b8ff" points="143.94,-169.42 150.7,-177.58 150.51,-166.99 143.94,-169.42"/>
</g>
<!-- Node6 -->
<g id="node6" class="node">
<title>Node6</title>
<g id="a_node6"><a xlink:href="../../dd/d10/class_definition_mixin.html" target="_top" xlink:title=" ">
<polygon fill="white" stroke="#666666" points="313.5,-141 176.5,-141 176.5,-122 313.5,-122 313.5,-141"/>
<text text-anchor="middle" x="245" y="-129" font-family="Helvetica,sans-Serif" font-size="10.00">DefinitionMixin&lt; Base &gt;</text>
</a>
</g>
</g>
<!-- Node6&#45;&gt;Node2 -->
<g id="edge5" class="edge">
<title>Node6&#45;&gt;Node2</title>
<path fill="none" stroke="orange" stroke-dasharray="5,2" d="M230.67,-114.12C219.89,-101.81 205.53,-85.39 196.79,-75.41"/>
<polygon fill="orange" stroke="orange" points="228.23,-116.65 237.45,-121.87 233.5,-112.04 228.23,-116.65"/>
<text text-anchor="middle" x="250" y="-96" font-family="Helvetica,sans-Serif" font-size="10.00" fill="grey"> &lt; DirDef &gt;</text>
</g>
<!-- Node7 -->
<g id="node7" class="node">
<title>Node7</title>
<g id="a_node7"><a xlink:title=" ">
<polygon fill="white" stroke="#666666" points="265.5,-197 224.5,-197 224.5,-178 265.5,-178 265.5,-197"/>
<text text-anchor="middle" x="245" y="-185" font-family="Helvetica,sans-Serif" font-size="10.00">Base</text>
</a>
</g>
</g>
<!-- Node7&#45;&gt;Node6 -->
<g id="edge6" class="edge">
<title>Node7&#45;&gt;Node6</title>
<path fill="none" stroke="#63b8ff" d="M245,-167.3C245,-158.41 245,-148.28 245,-141.25"/>
<polygon fill="#63b8ff" stroke="#63b8ff" points="241.5,-167.58 245,-177.58 248.5,-167.58 241.5,-167.58"/>
</g>
</g>
</svg>
