<?xml version="1.0" encoding="UTF-8" standalone="no"?>
<!DOCTYPE svg PUBLIC "-//W3C//DTD SVG 1.1//EN"
 "http://www.w3.org/Graphics/SVG/1.1/DTD/svg11.dtd">
<!-- Generated by graphviz version 2.43.0 (0)
 -->
<!-- Title: /home/runner/work/doxygen/doxygen/src/conceptdef.h Pages: 1 -->
<!--zoomable 588 -->
<svg id="main" version="1.1" xmlns="http://www.w3.org/2000/svg" xmlns:xlink="http://www.w3.org/1999/xlink" xml:space="preserve" onload="init(evt)">
<style type="text/css"><![CDATA[
.edge:hover path { stroke: red; }
.edge:hover polygon { stroke: red; fill: red; }
]]></style>
<script type="text/javascript"><![CDATA[
var edges = document.getElementsByTagName('g');
if (edges && edges.length) {
  for (var i=0;i<edges.length;i++) {
    if (edges[i].id.substr(0,4)=='edge') {
      edges[i].setAttribute('class','edge');
    }
  }
}
]]></script>
        <defs>
                <circle id="rim" cx="0" cy="0" r="7"/>
                <circle id="rim2" cx="0" cy="0" r="3.5"/>
                <g id="zoomPlus">
                        <use xlink:href="#rim" fill="#404040">
                                <set attributeName="fill" to="#808080" begin="zoomplus.mouseover" end="zoomplus.mouseout"/>
                        </use>
                        <path d="M-4,0h8M0,-4v8" fill="none" stroke="white" stroke-width="1.5" pointer-events="none"/>
                </g>
                <g id="zoomMin">
                        <use xlink:href="#rim" fill="#404040">
                                <set attributeName="fill" to="#808080" begin="zoomminus.mouseover" end="zoomminus.mouseout"/>
                        </use>
                        <path d="M-4,0h8" fill="none" stroke="white" stroke-width="1.5" pointer-events="none"/>
                </g>
                <g id="dirArrow">
                        <path fill="none" stroke="white" stroke-width="1.5" d="M0,-3.0v7 M-2.5,-0.5L0,-3.0L2.5,-0.5"/>
                </g>
               <g id="resetDef">
                       <use xlink:href="#rim2" fill="#404040">
                               <set attributeName="fill" to="#808080" begin="reset.mouseover" end="reset.mouseout"/>
                       </use>
               </g>
        </defs>

<script type="text/javascript">
var viewWidth = 971;
var viewHeight = 588;
var sectionId = 'dynsection-0';
</script>
<script xlink:href="../../svgpan.js"/>
<svg id="graph" class="graph">
<g id="viewport">
<title>/home/runner/work/doxygen/doxygen/src/conceptdef.h</title>
<!-- Node1 -->
<g id="node1" class="node">
<title>Node1</title>
<g id="a_node1"><a xlink:title=" ">
<polygon fill="#999999" stroke="#666666" points="297,-580 143,-580 143,-550 297,-550 297,-580"/>
<text text-anchor="start" x="151" y="-568" font-family="Helvetica,sans-Serif" font-size="10.00">/home/runner/work/doxygen</text>
<text text-anchor="middle" x="220" y="-557" font-family="Helvetica,sans-Serif" font-size="10.00">/doxygen/src/conceptdef.h</text>
</a>
</g>
</g>
<!-- Node2 -->
<g id="node2" class="node">
<title>Node2</title>
<g id="a_node2"><a xlink:href="../../df/da1/definition_8h.html" target="_top" xlink:title=" ">
<polygon fill="white" stroke="#666666" points="213.5,-294 142.5,-294 142.5,-275 213.5,-275 213.5,-294"/>
<text text-anchor="middle" x="178" y="-282" font-family="Helvetica,sans-Serif" font-size="10.00">definition.h</text>
</a>
</g>
</g>
<!-- Node1&#45;&gt;Node2 -->
<g id="edge1" class="edge">
<title>Node1&#45;&gt;Node2</title>
<path fill="none" stroke="#63b8ff" d="M142.75,-555.77C79.35,-544.23 0,-516.58 0,-450.5 0,-450.5 0,-450.5 0,-393.5 0,-331.53 79.84,-304.12 132.58,-292.78"/>
<polygon fill="#63b8ff" stroke="#63b8ff" points="133.3,-296.2 142.41,-290.78 131.91,-289.34 133.3,-296.2"/>
</g>
<!-- Node19 -->
<g id="node19" class="node">
<title>Node19</title>
<g id="a_node19"><a xlink:href="../../d4/d3a/filedef_8h.html" target="_top" xlink:title=" ">
<polygon fill="white" stroke="#666666" points="564,-514 508,-514 508,-495 564,-495 564,-514"/>
<text text-anchor="middle" x="536" y="-502" font-family="Helvetica,sans-Serif" font-size="10.00">filedef.h</text>
</a>
</g>
</g>
<!-- Node1&#45;&gt;Node19 -->
<g id="edge29" class="edge">
<title>Node1&#45;&gt;Node19</title>
<path fill="none" stroke="#63b8ff" d="M295.69,-549.99C359.44,-538.19 448,-521.79 497.89,-512.56"/>
<polygon fill="#63b8ff" stroke="#63b8ff" points="498.72,-515.96 507.92,-510.7 497.45,-509.08 498.72,-515.96"/>
</g>
<!-- Node3 -->
<g id="node3" class="node">
<title>Node3</title>
<g id="a_node3"><a xlink:title=" ">
<polygon fill="#e0e0e0" stroke="#999999" points="285.5,-129 238.5,-129 238.5,-110 285.5,-110 285.5,-129"/>
<text text-anchor="middle" x="262" y="-117" font-family="Helvetica,sans-Serif" font-size="10.00">vector</text>
</a>
</g>
</g>
<!-- Node2&#45;&gt;Node3 -->
<g id="edge2" class="edge">
<title>Node2&#45;&gt;Node3</title>
<path fill="none" stroke="#63b8ff" d="M175.54,-274.95C170.12,-254.29 159.28,-200.68 181,-165 191.46,-147.82 211.11,-136.79 228.43,-130.01"/>
<polygon fill="#63b8ff" stroke="#63b8ff" points="230.03,-133.16 238.28,-126.5 227.68,-126.56 230.03,-133.16"/>
</g>
<!-- Node4 -->
<g id="node4" class="node">
<title>Node4</title>
<g id="a_node4"><a xlink:href="../../d9/d49/types_8h.html" target="_top" xlink:title="This file contains a number of basic enums and types.">
<polygon fill="white" stroke="#666666" points="324.5,-239 271.5,-239 271.5,-220 324.5,-220 324.5,-239"/>
<text text-anchor="middle" x="298" y="-227" font-family="Helvetica,sans-Serif" font-size="10.00">types.h</text>
</a>
</g>
</g>
<!-- Node2&#45;&gt;Node4 -->
<g id="edge3" class="edge">
<title>Node2&#45;&gt;Node4</title>
<path fill="none" stroke="#63b8ff" d="M197.28,-274.98C216.67,-266.42 246.81,-253.11 269.07,-243.28"/>
<polygon fill="#63b8ff" stroke="#63b8ff" points="270.64,-246.41 278.37,-239.17 267.81,-240.01 270.64,-246.41"/>
</g>
<!-- Node15 -->
<g id="node15" class="node">
<title>Node15</title>
<g id="a_node15"><a xlink:href="../../d1/d02/reflist_8h.html" target="_top" xlink:title=" ">
<polygon fill="white" stroke="#666666" points="472.5,-239 419.5,-239 419.5,-220 472.5,-220 472.5,-239"/>
<text text-anchor="middle" x="446" y="-227" font-family="Helvetica,sans-Serif" font-size="10.00">reflist.h</text>
</a>
</g>
</g>
<!-- Node2&#45;&gt;Node15 -->
<g id="edge16" class="edge">
<title>Node2&#45;&gt;Node15</title>
<path fill="none" stroke="#63b8ff" d="M213.59,-276.46C264.47,-266.4 357.56,-247.99 409.14,-237.79"/>
<polygon fill="#63b8ff" stroke="#63b8ff" points="410.05,-241.18 419.18,-235.8 408.69,-234.31 410.05,-241.18"/>
</g>
<!-- Node5 -->
<g id="node5" class="node">
<title>Node5</title>
<g id="a_node5"><a xlink:href="../../d7/d5c/qcstring_8h.html" target="_top" xlink:title=" ">
<polygon fill="white" stroke="#666666" points="475.5,-129 410.5,-129 410.5,-110 475.5,-110 475.5,-129"/>
<text text-anchor="middle" x="443" y="-117" font-family="Helvetica,sans-Serif" font-size="10.00">qcstring.h</text>
</a>
</g>
</g>
<!-- Node4&#45;&gt;Node5 -->
<g id="edge4" class="edge">
<title>Node4&#45;&gt;Node5</title>
<path fill="none" stroke="#63b8ff" d="M309.87,-219.66C334.74,-201.14 392.55,-158.08 423.16,-135.28"/>
<polygon fill="#63b8ff" stroke="#63b8ff" points="425.45,-137.94 431.38,-129.16 421.26,-132.32 425.45,-137.94"/>
</g>
<!-- Node6 -->
<g id="node6" class="node">
<title>Node6</title>
<g id="a_node6"><a xlink:title=" ">
<polygon fill="#e0e0e0" stroke="#999999" points="620,-19 576,-19 576,0 620,0 620,-19"/>
<text text-anchor="middle" x="598" y="-7" font-family="Helvetica,sans-Serif" font-size="10.00">string</text>
</a>
</g>
</g>
<!-- Node5&#45;&gt;Node6 -->
<g id="edge5" class="edge">
<title>Node5&#45;&gt;Node6</title>
<path fill="none" stroke="#63b8ff" d="M461.59,-109.87C478.66,-101.61 504.37,-88.31 525,-74 545.77,-59.59 567.34,-40.18 581.6,-26.63"/>
<polygon fill="#63b8ff" stroke="#63b8ff" points="584.32,-28.87 589.09,-19.41 579.46,-23.83 584.32,-28.87"/>
</g>
<!-- Node7 -->
<g id="node7" class="node">
<title>Node7</title>
<g id="a_node7"><a xlink:title=" ">
<polygon fill="#e0e0e0" stroke="#999999" points="743,-74 679,-74 679,-55 743,-55 743,-74"/>
<text text-anchor="middle" x="711" y="-62" font-family="Helvetica,sans-Serif" font-size="10.00">algorithm</text>
</a>
</g>
</g>
<!-- Node5&#45;&gt;Node7 -->
<g id="edge6" class="edge">
<title>Node5&#45;&gt;Node7</title>
<path fill="none" stroke="#63b8ff" d="M475.59,-112.05C524.08,-102.46 615.23,-84.44 668.77,-73.85"/>
<polygon fill="#63b8ff" stroke="#63b8ff" points="669.5,-77.27 678.63,-71.9 668.14,-70.41 669.5,-77.27"/>
</g>
<!-- Node8 -->
<g id="node8" class="node">
<title>Node8</title>
<g id="a_node8"><a xlink:title=" ">
<polygon fill="#e0e0e0" stroke="#999999" points="622.5,-74 573.5,-74 573.5,-55 622.5,-55 622.5,-74"/>
<text text-anchor="middle" x="598" y="-62" font-family="Helvetica,sans-Serif" font-size="10.00">cctype</text>
</a>
</g>
</g>
<!-- Node5&#45;&gt;Node8 -->
<g id="edge7" class="edge">
<title>Node5&#45;&gt;Node8</title>
<path fill="none" stroke="#63b8ff" d="M467.9,-109.98C493.85,-101.11 534.7,-87.14 563.7,-77.23"/>
<polygon fill="#63b8ff" stroke="#63b8ff" points="565.08,-80.45 573.41,-73.91 562.82,-73.83 565.08,-80.45"/>
</g>
<!-- Node9 -->
<g id="node9" class="node">
<title>Node9</title>
<g id="a_node9"><a xlink:title=" ">
<polygon fill="#e0e0e0" stroke="#999999" points="247,-74 197,-74 197,-55 247,-55 247,-74"/>
<text text-anchor="middle" x="222" y="-62" font-family="Helvetica,sans-Serif" font-size="10.00">cstring</text>
</a>
</g>
</g>
<!-- Node5&#45;&gt;Node9 -->
<g id="edge8" class="edge">
<title>Node5&#45;&gt;Node9</title>
<path fill="none" stroke="#63b8ff" d="M410.21,-110.82C374.82,-102.5 316.54,-88.72 257.17,-74.26"/>
<polygon fill="#63b8ff" stroke="#63b8ff" points="257.79,-70.81 247.24,-71.84 256.13,-77.61 257.79,-70.81"/>
</g>
<!-- Node10 -->
<g id="node10" class="node">
<title>Node10</title>
<g id="a_node10"><a xlink:title=" ">
<polygon fill="#e0e0e0" stroke="#999999" points="311,-74 265,-74 265,-55 311,-55 311,-74"/>
<text text-anchor="middle" x="288" y="-62" font-family="Helvetica,sans-Serif" font-size="10.00">cstdio</text>
</a>
</g>
</g>
<!-- Node5&#45;&gt;Node10 -->
<g id="edge9" class="edge">
<title>Node5&#45;&gt;Node10</title>
<path fill="none" stroke="#63b8ff" d="M418.1,-109.98C391.76,-100.98 350.09,-86.73 321.03,-76.79"/>
<polygon fill="#63b8ff" stroke="#63b8ff" points="321.91,-73.4 311.32,-73.47 319.65,-80.02 321.91,-73.4"/>
</g>
<!-- Node11 -->
<g id="node11" class="node">
<title>Node11</title>
<g id="a_node11"><a xlink:title=" ">
<polygon fill="#e0e0e0" stroke="#999999" points="378.5,-74 329.5,-74 329.5,-55 378.5,-55 378.5,-74"/>
<text text-anchor="middle" x="354" y="-62" font-family="Helvetica,sans-Serif" font-size="10.00">cstdlib</text>
</a>
</g>
</g>
<!-- Node5&#45;&gt;Node11 -->
<g id="edge10" class="edge">
<title>Node5&#45;&gt;Node11</title>
<path fill="none" stroke="#63b8ff" d="M428.7,-109.98C414.9,-101.77 393.76,-89.18 377.49,-79.49"/>
<polygon fill="#63b8ff" stroke="#63b8ff" points="378.94,-76.28 368.56,-74.17 375.36,-82.29 378.94,-76.28"/>
</g>
<!-- Node12 -->
<g id="node12" class="node">
<title>Node12</title>
<g id="a_node12"><a xlink:title=" ">
<polygon fill="#e0e0e0" stroke="#999999" points="403,-19 353,-19 353,0 403,0 403,-19"/>
<text text-anchor="middle" x="378" y="-7" font-family="Helvetica,sans-Serif" font-size="10.00">cstdint</text>
</a>
</g>
</g>
<!-- Node5&#45;&gt;Node12 -->
<g id="edge11" class="edge">
<title>Node5&#45;&gt;Node12</title>
<path fill="none" stroke="#63b8ff" d="M410.31,-117.81C348.03,-115.72 216.05,-107.37 188,-74 144.54,-22.3 276.34,-12.5 342.52,-10.78"/>
<polygon fill="#63b8ff" stroke="#63b8ff" points="343,-14.27 352.92,-10.56 342.85,-7.27 343,-14.27"/>
</g>
<!-- Node13 -->
<g id="node13" class="node">
<title>Node13</title>
<g id="a_node13"><a xlink:title=" ">
<polygon fill="#e0e0e0" stroke="#999999" points="453.5,-74 396.5,-74 396.5,-55 453.5,-55 453.5,-74"/>
<text text-anchor="middle" x="425" y="-62" font-family="Helvetica,sans-Serif" font-size="10.00">ostream</text>
</a>
</g>
</g>
<!-- Node5&#45;&gt;Node13 -->
<g id="edge12" class="edge">
<title>Node5&#45;&gt;Node13</title>
<path fill="none" stroke="#63b8ff" d="M440.03,-109.75C437.64,-102.72 434.21,-92.62 431.23,-83.84"/>
<polygon fill="#63b8ff" stroke="#63b8ff" points="434.45,-82.43 427.92,-74.09 427.82,-84.68 434.45,-82.43"/>
</g>
<!-- Node14 -->
<g id="node14" class="node">
<title>Node14</title>
<g id="a_node14"><a xlink:href="../../db/d7c/utf8_8h.html" target="_top" xlink:title="Various UTF8 related helper functions.">
<polygon fill="white" stroke="#666666" points="516.5,-74 471.5,-74 471.5,-55 516.5,-55 516.5,-74"/>
<text text-anchor="middle" x="494" y="-62" font-family="Helvetica,sans-Serif" font-size="10.00">utf8.h</text>
</a>
</g>
</g>
<!-- Node5&#45;&gt;Node14 -->
<g id="edge13" class="edge">
<title>Node5&#45;&gt;Node14</title>
<path fill="none" stroke="#63b8ff" d="M451.42,-109.75C458.77,-102.11 469.63,-90.82 478.54,-81.56"/>
<polygon fill="#63b8ff" stroke="#63b8ff" points="481.32,-83.72 485.74,-74.09 476.28,-78.87 481.32,-83.72"/>
</g>
<!-- Node14&#45;&gt;Node6 -->
<g id="edge15" class="edge">
<title>Node14&#45;&gt;Node6</title>
<path fill="none" stroke="#63b8ff" d="M510.71,-54.98C527.21,-46.57 552.7,-33.59 571.88,-23.81"/>
<polygon fill="#63b8ff" stroke="#63b8ff" points="573.67,-26.83 580.99,-19.17 570.49,-20.59 573.67,-26.83"/>
</g>
<!-- Node14&#45;&gt;Node12 -->
<g id="edge14" class="edge">
<title>Node14&#45;&gt;Node12</title>
<path fill="none" stroke="#63b8ff" d="M475.36,-54.98C456.7,-46.46 427.75,-33.23 406.26,-23.41"/>
<polygon fill="#63b8ff" stroke="#63b8ff" points="407.53,-20.14 396.98,-19.17 404.62,-26.51 407.53,-20.14"/>
</g>
<!-- Node15&#45;&gt;Node3 -->
<g id="edge17" class="edge">
<title>Node15&#45;&gt;Node3</title>
<path fill="none" stroke="#63b8ff" d="M439.28,-219.95C428.36,-206.56 405.5,-180.56 381,-165 354.32,-148.06 320.24,-136.14 295.39,-128.93"/>
<polygon fill="#63b8ff" stroke="#63b8ff" points="296.26,-125.54 285.69,-126.22 294.38,-132.28 296.26,-125.54"/>
</g>
<!-- Node15&#45;&gt;Node5 -->
<g id="edge20" class="edge">
<title>Node15&#45;&gt;Node5</title>
<path fill="none" stroke="#63b8ff" d="M449.28,-219.89C453.52,-207.7 460.02,-184.68 457,-165 455.65,-156.19 452.87,-146.74 450.15,-138.82"/>
<polygon fill="#63b8ff" stroke="#63b8ff" points="453.34,-137.35 446.6,-129.18 446.77,-139.77 453.34,-137.35"/>
</g>
<!-- Node16 -->
<g id="node16" class="node">
<title>Node16</title>
<g id="a_node16"><a xlink:title=" ">
<polygon fill="#e0e0e0" stroke="#999999" points="810.5,-129 717.5,-129 717.5,-110 810.5,-110 810.5,-129"/>
<text text-anchor="middle" x="764" y="-117" font-family="Helvetica,sans-Serif" font-size="10.00">unordered_map</text>
</a>
</g>
</g>
<!-- Node15&#45;&gt;Node16 -->
<g id="edge18" class="edge">
<title>Node15&#45;&gt;Node16</title>
<path fill="none" stroke="#63b8ff" d="M472.52,-225.05C535.14,-216.75 688.52,-195.52 709,-184 728.4,-173.09 744.21,-152.63 753.82,-137.88"/>
<polygon fill="#63b8ff" stroke="#63b8ff" points="756.93,-139.51 759.22,-129.16 750.98,-135.82 756.93,-139.51"/>
</g>
<!-- Node17 -->
<g id="node17" class="node">
<title>Node17</title>
<g id="a_node17"><a xlink:title=" ">
<polygon fill="#e0e0e0" stroke="#999999" points="585,-129 527,-129 527,-110 585,-110 585,-129"/>
<text text-anchor="middle" x="556" y="-117" font-family="Helvetica,sans-Serif" font-size="10.00">memory</text>
</a>
</g>
</g>
<!-- Node15&#45;&gt;Node17 -->
<g id="edge19" class="edge">
<title>Node15&#45;&gt;Node17</title>
<path fill="none" stroke="#63b8ff" d="M455,-219.66C473.63,-201.38 516.6,-159.18 540.04,-136.17"/>
<polygon fill="#63b8ff" stroke="#63b8ff" points="542.5,-138.66 547.18,-129.16 537.59,-133.67 542.5,-138.66"/>
</g>
<!-- Node18 -->
<g id="node18" class="node">
<title>Node18</title>
<g id="a_node18"><a xlink:href="../../da/de1/linkedmap_8h.html" target="_top" xlink:title=" ">
<polygon fill="white" stroke="#666666" points="700.5,-184 623.5,-184 623.5,-165 700.5,-165 700.5,-184"/>
<text text-anchor="middle" x="662" y="-172" font-family="Helvetica,sans-Serif" font-size="10.00">linkedmap.h</text>
</a>
</g>
</g>
<!-- Node15&#45;&gt;Node18 -->
<g id="edge21" class="edge">
<title>Node15&#45;&gt;Node18</title>
<path fill="none" stroke="#63b8ff" d="M472.92,-221.89C509.12,-213.01 573.95,-197.11 617.47,-186.43"/>
<polygon fill="#63b8ff" stroke="#63b8ff" points="618.35,-189.81 627.23,-184.03 616.68,-183.02 618.35,-189.81"/>
</g>
<!-- Node18&#45;&gt;Node3 -->
<g id="edge23" class="edge">
<title>Node18&#45;&gt;Node3</title>
<path fill="none" stroke="#63b8ff" d="M623.28,-168.37C545.17,-158.02 369.87,-134.79 295.92,-124.99"/>
<polygon fill="#63b8ff" stroke="#63b8ff" points="296.15,-121.49 285.77,-123.65 295.23,-128.43 296.15,-121.49"/>
</g>
<!-- Node18&#45;&gt;Node5 -->
<g id="edge28" class="edge">
<title>Node18&#45;&gt;Node5</title>
<path fill="none" stroke="#63b8ff" d="M626.81,-164.98C588.28,-155.66 526.49,-140.71 485.33,-130.74"/>
<polygon fill="#63b8ff" stroke="#63b8ff" points="486.14,-127.34 475.6,-128.39 484.49,-134.14 486.14,-127.34"/>
</g>
<!-- Node18&#45;&gt;Node6 -->
<g id="edge25" class="edge">
<title>Node18&#45;&gt;Node6</title>
<path fill="none" stroke="#63b8ff" d="M660.88,-164.78C658.05,-144.61 649.48,-93.54 631,-55 626.18,-44.94 618.95,-34.85 612.48,-26.84"/>
<polygon fill="#63b8ff" stroke="#63b8ff" points="615.04,-24.44 605.92,-19.05 609.68,-28.95 615.04,-24.44"/>
</g>
<!-- Node18&#45;&gt;Node7 -->
<g id="edge26" class="edge">
<title>Node18&#45;&gt;Node7</title>
<path fill="none" stroke="#63b8ff" d="M666.01,-164.66C674.05,-146.93 692.3,-106.73 702.92,-83.32"/>
<polygon fill="#63b8ff" stroke="#63b8ff" points="706.13,-84.71 707.07,-74.16 699.75,-81.82 706.13,-84.71"/>
</g>
<!-- Node18&#45;&gt;Node8 -->
<g id="edge27" class="edge">
<title>Node18&#45;&gt;Node8</title>
<path fill="none" stroke="#63b8ff" d="M656.76,-164.66C646.21,-146.85 622.22,-106.37 608.37,-83.01"/>
<polygon fill="#63b8ff" stroke="#63b8ff" points="611.24,-80.98 603.13,-74.16 605.22,-84.55 611.24,-80.98"/>
</g>
<!-- Node18&#45;&gt;Node16 -->
<g id="edge22" class="edge">
<title>Node18&#45;&gt;Node16</title>
<path fill="none" stroke="#63b8ff" d="M678.39,-164.98C694.57,-156.57 719.57,-143.59 738.38,-133.81"/>
<polygon fill="#63b8ff" stroke="#63b8ff" points="740.05,-136.89 747.31,-129.17 736.83,-130.68 740.05,-136.89"/>
</g>
<!-- Node18&#45;&gt;Node17 -->
<g id="edge24" class="edge">
<title>Node18&#45;&gt;Node17</title>
<path fill="none" stroke="#63b8ff" d="M644.97,-164.98C628.07,-156.54 601.94,-143.47 582.36,-133.68"/>
<polygon fill="#63b8ff" stroke="#63b8ff" points="583.85,-130.51 573.34,-129.17 580.72,-136.77 583.85,-130.51"/>
</g>
<!-- Node19&#45;&gt;Node2 -->
<g id="edge31" class="edge">
<title>Node19&#45;&gt;Node2</title>
<path fill="none" stroke="#63b8ff" d="M507.98,-499.66C451.92,-490.87 323.82,-465.14 236,-404 210.31,-386.11 205.5,-377.24 192,-349 185.22,-334.82 181.68,-317.28 179.85,-304.23"/>
<polygon fill="#63b8ff" stroke="#63b8ff" points="183.3,-303.64 178.65,-294.12 176.35,-304.46 183.3,-303.64"/>
</g>
<!-- Node20 -->
<g id="node20" class="node">
<title>Node20</title>
<g id="a_node20"><a xlink:title=" ">
<polygon fill="#e0e0e0" stroke="#999999" points="897,-239 865,-239 865,-220 897,-220 897,-239"/>
<text text-anchor="middle" x="881" y="-227" font-family="Helvetica,sans-Serif" font-size="10.00">set</text>
</a>
</g>
</g>
<!-- Node19&#45;&gt;Node20 -->
<g id="edge30" class="edge">
<title>Node19&#45;&gt;Node20</title>
<path fill="none" stroke="#63b8ff" d="M564.13,-500.96C647.42,-492.66 887,-462.92 887,-395.5 887,-395.5 887,-395.5 887,-338.5 887,-307.14 884.45,-270.74 882.67,-249.22"/>
<polygon fill="#63b8ff" stroke="#63b8ff" points="886.15,-248.83 881.81,-239.17 879.18,-249.43 886.15,-248.83"/>
</g>
<!-- Node21 -->
<g id="node21" class="node">
<title>Node21</title>
<g id="a_node21"><a xlink:href="../../dd/d78/memberlist_8h.html" target="_top" xlink:title=" ">
<polygon fill="white" stroke="#666666" points="577,-459 495,-459 495,-440 577,-440 577,-459"/>
<text text-anchor="middle" x="536" y="-447" font-family="Helvetica,sans-Serif" font-size="10.00">memberlist.h</text>
</a>
</g>
</g>
<!-- Node19&#45;&gt;Node21 -->
<g id="edge32" class="edge">
<title>Node19&#45;&gt;Node21</title>
<path fill="none" stroke="#63b8ff" d="M536,-494.75C536,-487.8 536,-477.85 536,-469.13"/>
<polygon fill="#63b8ff" stroke="#63b8ff" points="539.5,-469.09 536,-459.09 532.5,-469.09 539.5,-469.09"/>
</g>
<!-- Node26 -->
<g id="node26" class="node">
<title>Node26</title>
<g id="a_node26"><a xlink:href="../../d5/d75/containers_8h.html" target="_top" xlink:title=" ">
<polygon fill="white" stroke="#666666" points="787.5,-294 710.5,-294 710.5,-275 787.5,-275 787.5,-294"/>
<text text-anchor="middle" x="749" y="-282" font-family="Helvetica,sans-Serif" font-size="10.00">containers.h</text>
</a>
</g>
</g>
<!-- Node19&#45;&gt;Node26 -->
<g id="edge66" class="edge">
<title>Node19&#45;&gt;Node26</title>
<path fill="none" stroke="#63b8ff" d="M546.2,-494.89C556.48,-486.11 572.68,-471.97 586,-459 643.12,-403.4 706.69,-333.1 734.57,-301.81"/>
<polygon fill="#63b8ff" stroke="#63b8ff" points="737.43,-303.86 741.45,-294.06 732.2,-299.21 737.43,-303.86"/>
</g>
<!-- Node21&#45;&gt;Node3 -->
<g id="edge33" class="edge">
<title>Node21&#45;&gt;Node3</title>
<path fill="none" stroke="#63b8ff" d="M494.69,-445.18C436.32,-439.85 326.72,-427.53 236,-404 168.88,-386.59 146.34,-389.43 90,-349 60.36,-327.73 38,-321.98 38,-285.5 38,-285.5 38,-285.5 38,-228.5 38,-145.04 165.73,-126.04 228.29,-121.74"/>
<polygon fill="#63b8ff" stroke="#63b8ff" points="228.68,-125.23 238.45,-121.13 228.26,-118.24 228.68,-125.23"/>
</g>
<!-- Node21&#45;&gt;Node4 -->
<g id="edge64" class="edge">
<title>Node21&#45;&gt;Node4</title>
<path fill="none" stroke="#63b8ff" d="M528.15,-439.84C509.87,-419.82 462.73,-369.02 420,-330 385.31,-298.32 342.2,-264.32 317.62,-245.4"/>
<polygon fill="#63b8ff" stroke="#63b8ff" points="319.52,-242.45 309.45,-239.15 315.26,-248.01 319.52,-242.45"/>
</g>
<!-- Node21&#45;&gt;Node7 -->
<g id="edge34" class="edge">
<title>Node21&#45;&gt;Node7</title>
<path fill="none" stroke="#63b8ff" d="M577.33,-441.83C684.49,-423.38 963,-367.53 963,-285.5 963,-285.5 963,-285.5 963,-173.5 963,-83.33 825.01,-67.47 753.25,-65.32"/>
<polygon fill="#63b8ff" stroke="#63b8ff" points="753.25,-61.82 743.17,-65.09 753.09,-68.82 753.25,-61.82"/>
</g>
<!-- Node21&#45;&gt;Node18 -->
<g id="edge63" class="edge">
<title>Node21&#45;&gt;Node18</title>
<path fill="none" stroke="#63b8ff" d="M577.03,-440.36C658.64,-421.64 839.19,-366.92 906,-239 909.91,-231.51 911.41,-226.48 906,-220 881.7,-190.87 775.27,-180.76 711.27,-177.28"/>
<polygon fill="#63b8ff" stroke="#63b8ff" points="711.16,-173.77 701,-176.76 710.81,-180.77 711.16,-173.77"/>
</g>
<!-- Node22 -->
<g id="node22" class="node">
<title>Node22</title>
<g id="a_node22"><a xlink:href="../../d4/d46/memberdef_8h.html" target="_top" xlink:title=" ">
<polygon fill="white" stroke="#666666" points="327,-404 245,-404 245,-385 327,-385 327,-404"/>
<text text-anchor="middle" x="286" y="-392" font-family="Helvetica,sans-Serif" font-size="10.00">memberdef.h</text>
</a>
</g>
</g>
<!-- Node21&#45;&gt;Node22 -->
<g id="edge35" class="edge">
<title>Node21&#45;&gt;Node22</title>
<path fill="none" stroke="#63b8ff" d="M495.83,-439.98C452.5,-430.8 383.41,-416.15 336.44,-406.19"/>
<polygon fill="#63b8ff" stroke="#63b8ff" points="336.99,-402.73 326.48,-404.08 335.54,-409.58 336.99,-402.73"/>
</g>
<!-- Node30 -->
<g id="node30" class="node">
<title>Node30</title>
<g id="a_node30"><a xlink:href="../../d9/d11/membergroup_8h.html" target="_top" xlink:title=" ">
<polygon fill="white" stroke="#666666" points="557.5,-294 462.5,-294 462.5,-275 557.5,-275 557.5,-294"/>
<text text-anchor="middle" x="510" y="-282" font-family="Helvetica,sans-Serif" font-size="10.00">membergroup.h</text>
</a>
</g>
</g>
<!-- Node21&#45;&gt;Node30 -->
<g id="edge65" class="edge">
<title>Node21&#45;&gt;Node30</title>
<path fill="none" stroke="#63b8ff" d="M534.6,-439.74C530.53,-414.2 518.6,-339.43 512.99,-304.23"/>
<polygon fill="#63b8ff" stroke="#63b8ff" points="516.44,-303.63 511.4,-294.31 509.52,-304.73 516.44,-303.63"/>
</g>
<!-- Node22&#45;&gt;Node2 -->
<g id="edge40" class="edge">
<title>Node22&#45;&gt;Node2</title>
<path fill="none" stroke="#63b8ff" d="M263.74,-384.89C246.94,-377.48 224.27,-365.37 209,-349 196.99,-336.11 188.69,-317.7 183.73,-304.02"/>
<polygon fill="#63b8ff" stroke="#63b8ff" points="186.95,-302.62 180.46,-294.26 180.32,-304.85 186.95,-302.62"/>
</g>
<!-- Node22&#45;&gt;Node3 -->
<g id="edge36" class="edge">
<title>Node22&#45;&gt;Node3</title>
<path fill="none" stroke="#63b8ff" d="M244.76,-390.49C183.6,-383.54 76,-360.63 76,-285.5 76,-285.5 76,-285.5 76,-228.5 76,-158.84 174.78,-133.35 228.37,-124.65"/>
<polygon fill="#63b8ff" stroke="#63b8ff" points="229.08,-128.08 238.44,-123.13 228.03,-121.16 229.08,-128.08"/>
</g>
<!-- Node22&#45;&gt;Node4 -->
<g id="edge39" class="edge">
<title>Node22&#45;&gt;Node4</title>
<path fill="none" stroke="#63b8ff" d="M289.34,-384.8C292.55,-375.94 297.18,-361.75 299,-349 303.99,-314.15 301.86,-272.96 299.9,-249.46"/>
<polygon fill="#63b8ff" stroke="#63b8ff" points="303.36,-248.82 298.96,-239.18 296.39,-249.46 303.36,-248.82"/>
</g>
<!-- Node22&#45;&gt;Node17 -->
<g id="edge37" class="edge">
<title>Node22&#45;&gt;Node17</title>
<path fill="none" stroke="#63b8ff" d="M327.03,-387.95C411.09,-375.43 595,-341.62 595,-285.5 595,-285.5 595,-285.5 595,-228.5 595,-194.92 578.12,-158.78 566.57,-137.98"/>
<polygon fill="#63b8ff" stroke="#63b8ff" points="569.46,-135.98 561.42,-129.08 563.4,-139.49 569.46,-135.98"/>
</g>
<!-- Node23 -->
<g id="node23" class="node">
<title>Node23</title>
<g id="a_node23"><a xlink:title=" ">
<polygon fill="#e0e0e0" stroke="#999999" points="290,-349 218,-349 218,-330 290,-330 290,-349"/>
<text text-anchor="middle" x="254" y="-337" font-family="Helvetica,sans-Serif" font-size="10.00">sys/types.h</text>
</a>
</g>
</g>
<!-- Node22&#45;&gt;Node23 -->
<g id="edge38" class="edge">
<title>Node22&#45;&gt;Node23</title>
<path fill="none" stroke="#63b8ff" d="M280.72,-384.75C276.29,-377.42 269.84,-366.73 264.38,-357.7"/>
<polygon fill="#63b8ff" stroke="#63b8ff" points="267.35,-355.84 259.19,-349.09 261.36,-359.46 267.35,-355.84"/>
</g>
<!-- Node24 -->
<g id="node24" class="node">
<title>Node24</title>
<g id="a_node24"><a xlink:href="../../df/d9b/arguments_8h.html" target="_top" xlink:title=" ">
<polygon fill="white" stroke="#666666" points="301,-184 223,-184 223,-165 301,-165 301,-184"/>
<text text-anchor="middle" x="262" y="-172" font-family="Helvetica,sans-Serif" font-size="10.00">arguments.h</text>
</a>
</g>
</g>
<!-- Node22&#45;&gt;Node24 -->
<g id="edge41" class="edge">
<title>Node22&#45;&gt;Node24</title>
<path fill="none" stroke="#63b8ff" d="M255.73,-384.98C217.77,-372.36 154.99,-344.56 133,-294 111.36,-244.25 182.54,-206.29 227.67,-187.85"/>
<polygon fill="#63b8ff" stroke="#63b8ff" points="229.12,-191.04 237.14,-184.11 226.55,-184.53 229.12,-191.04"/>
</g>
<!-- Node25 -->
<g id="node25" class="node">
<title>Node25</title>
<g id="a_node25"><a xlink:href="../../d1/da6/classdef_8h.html" target="_top" xlink:title=" ">
<polygon fill="white" stroke="#666666" points="411.5,-349 346.5,-349 346.5,-330 411.5,-330 411.5,-349"/>
<text text-anchor="middle" x="379" y="-337" font-family="Helvetica,sans-Serif" font-size="10.00">classdef.h</text>
</a>
</g>
</g>
<!-- Node22&#45;&gt;Node25 -->
<g id="edge44" class="edge">
<title>Node22&#45;&gt;Node25</title>
<path fill="none" stroke="#63b8ff" d="M300.94,-384.98C315.5,-376.69 337.87,-363.94 354.93,-354.22"/>
<polygon fill="#63b8ff" stroke="#63b8ff" points="356.83,-357.16 363.79,-349.17 353.36,-351.08 356.83,-357.16"/>
</g>
<!-- Node24&#45;&gt;Node3 -->
<g id="edge42" class="edge">
<title>Node24&#45;&gt;Node3</title>
<path fill="none" stroke="#63b8ff" d="M262,-164.75C262,-157.8 262,-147.85 262,-139.13"/>
<polygon fill="#63b8ff" stroke="#63b8ff" points="265.5,-139.09 262,-129.09 258.5,-139.09 265.5,-139.09"/>
</g>
<!-- Node24&#45;&gt;Node5 -->
<g id="edge43" class="edge">
<title>Node24&#45;&gt;Node5</title>
<path fill="none" stroke="#63b8ff" d="M291.08,-164.98C321.6,-156.05 369.76,-141.94 403.66,-132.02"/>
<polygon fill="#63b8ff" stroke="#63b8ff" points="405.08,-135.25 413.69,-129.08 403.11,-128.53 405.08,-135.25"/>
</g>
<!-- Node25&#45;&gt;Node2 -->
<g id="edge55" class="edge">
<title>Node25&#45;&gt;Node2</title>
<path fill="none" stroke="#63b8ff" d="M346.71,-329.98C312.38,-320.93 257.94,-306.58 220.23,-296.64"/>
<polygon fill="#63b8ff" stroke="#63b8ff" points="221.11,-293.25 210.55,-294.08 219.32,-300.02 221.11,-293.25"/>
</g>
<!-- Node25&#45;&gt;Node3 -->
<g id="edge45" class="edge">
<title>Node25&#45;&gt;Node3</title>
<path fill="none" stroke="#63b8ff" d="M350.39,-329.89C330.15,-322.73 303.29,-310.95 284,-294 240.47,-255.74 230.2,-239.64 214,-184 211.64,-175.89 210.62,-172.74 214,-165 219.27,-152.92 229.63,-142.65 239.37,-135.03"/>
<polygon fill="#63b8ff" stroke="#63b8ff" points="241.59,-137.74 247.63,-129.04 237.48,-132.07 241.59,-137.74"/>
</g>
<!-- Node25&#45;&gt;Node20 -->
<g id="edge46" class="edge">
<title>Node25&#45;&gt;Node20</title>
<path fill="none" stroke="#63b8ff" d="M411.58,-337.25C497.06,-333.6 725.94,-321.49 796,-294 823.16,-283.34 849.25,-261.56 865.2,-246.51"/>
<polygon fill="#63b8ff" stroke="#63b8ff" points="867.84,-248.82 872.56,-239.34 862.96,-243.8 867.84,-248.82"/>
</g>
<!-- Node25&#45;&gt;Node24 -->
<g id="edge56" class="edge">
<title>Node25&#45;&gt;Node24</title>
<path fill="none" stroke="#63b8ff" d="M361.33,-329.88C334.02,-315.45 282.59,-283.53 262,-239 255.56,-225.07 256.12,-207.51 257.98,-194.39"/>
<polygon fill="#63b8ff" stroke="#63b8ff" points="261.49,-194.66 259.8,-184.2 254.59,-193.43 261.49,-194.66"/>
</g>
<!-- Node25&#45;&gt;Node26 -->
<g id="edge47" class="edge">
<title>Node25&#45;&gt;Node26</title>
<path fill="none" stroke="#63b8ff" d="M411.51,-333.84C476.61,-324.52 623.26,-303.51 700.04,-292.51"/>
<polygon fill="#63b8ff" stroke="#63b8ff" points="700.99,-295.91 710.39,-291.03 700,-288.98 700.99,-295.91"/>
</g>
<!-- Node25&#45;&gt;Node30 -->
<g id="edge57" class="edge">
<title>Node25&#45;&gt;Node30</title>
<path fill="none" stroke="#63b8ff" d="M400.05,-329.98C421.41,-321.34 454.7,-307.87 479.06,-298.02"/>
<polygon fill="#63b8ff" stroke="#63b8ff" points="480.61,-301.17 488.57,-294.17 477.99,-294.68 480.61,-301.17"/>
</g>
<!-- Node26&#45;&gt;Node3 -->
<g id="edge48" class="edge">
<title>Node26&#45;&gt;Node3</title>
<path fill="none" stroke="#63b8ff" d="M710.21,-281.45C632.86,-276.86 462.36,-264.17 410,-239 367.22,-218.44 370.42,-194.2 333,-165 318.23,-153.47 300.35,-142.28 286.23,-134.01"/>
<polygon fill="#63b8ff" stroke="#63b8ff" points="287.98,-130.97 277.56,-129.01 284.48,-137.04 287.98,-130.97"/>
</g>
<!-- Node26&#45;&gt;Node6 -->
<g id="edge49" class="edge">
<title>Node26&#45;&gt;Node6</title>
<path fill="none" stroke="#63b8ff" d="M761.54,-274.74C772.1,-266.68 786.78,-253.75 795,-239 823.39,-188.06 843.93,-162.72 819,-110 785.43,-39 683.34,-18.64 630.48,-12.82"/>
<polygon fill="#63b8ff" stroke="#63b8ff" points="630.6,-9.31 620.3,-11.81 629.91,-16.28 630.6,-9.31"/>
</g>
<!-- Node26&#45;&gt;Node16 -->
<g id="edge53" class="edge">
<title>Node26&#45;&gt;Node16</title>
<path fill="none" stroke="#63b8ff" d="M757.21,-274.8C764.54,-266.38 774.75,-252.9 779,-239 789.52,-204.59 778.89,-162.38 770.94,-138.76"/>
<polygon fill="#63b8ff" stroke="#63b8ff" points="774.13,-137.28 767.47,-129.04 767.54,-139.63 774.13,-137.28"/>
</g>
<!-- Node26&#45;&gt;Node20 -->
<g id="edge50" class="edge">
<title>Node26&#45;&gt;Node20</title>
<path fill="none" stroke="#63b8ff" d="M770.21,-274.98C793.4,-265.67 830.55,-250.76 855.36,-240.8"/>
<polygon fill="#63b8ff" stroke="#63b8ff" points="856.86,-243.96 864.84,-236.99 854.25,-237.47 856.86,-243.96"/>
</g>
<!-- Node27 -->
<g id="node27" class="node">
<title>Node27</title>
<g id="a_node27"><a xlink:title=" ">
<polygon fill="#e0e0e0" stroke="#999999" points="567,-239 529,-239 529,-220 567,-220 567,-239"/>
<text text-anchor="middle" x="548" y="-227" font-family="Helvetica,sans-Serif" font-size="10.00">map</text>
</a>
</g>
</g>
<!-- Node26&#45;&gt;Node27 -->
<g id="edge51" class="edge">
<title>Node26&#45;&gt;Node27</title>
<path fill="none" stroke="#63b8ff" d="M716.71,-274.98C678.06,-264.79 613.93,-247.89 576.87,-238.11"/>
<polygon fill="#63b8ff" stroke="#63b8ff" points="577.74,-234.72 567.18,-235.56 575.95,-241.49 577.74,-234.72"/>
</g>
<!-- Node28 -->
<g id="node28" class="node">
<title>Node28</title>
<g id="a_node28"><a xlink:title=" ">
<polygon fill="#e0e0e0" stroke="#999999" points="709,-239 623,-239 623,-220 709,-220 709,-239"/>
<text text-anchor="middle" x="666" y="-227" font-family="Helvetica,sans-Serif" font-size="10.00">unordered_set</text>
</a>
</g>
</g>
<!-- Node26&#45;&gt;Node28 -->
<g id="edge52" class="edge">
<title>Node26&#45;&gt;Node28</title>
<path fill="none" stroke="#63b8ff" d="M735.66,-274.98C722.91,-266.84 703.45,-254.41 688.33,-244.76"/>
<polygon fill="#63b8ff" stroke="#63b8ff" points="689.89,-241.6 679.58,-239.17 686.12,-247.5 689.89,-241.6"/>
</g>
<!-- Node29 -->
<g id="node29" class="node">
<title>Node29</title>
<g id="a_node29"><a xlink:title=" ">
<polygon fill="#e0e0e0" stroke="#999999" points="770.5,-239 727.5,-239 727.5,-220 770.5,-220 770.5,-239"/>
<text text-anchor="middle" x="749" y="-227" font-family="Helvetica,sans-Serif" font-size="10.00">stack</text>
</a>
</g>
</g>
<!-- Node26&#45;&gt;Node29 -->
<g id="edge54" class="edge">
<title>Node26&#45;&gt;Node29</title>
<path fill="none" stroke="#63b8ff" d="M749,-274.75C749,-267.8 749,-257.85 749,-249.13"/>
<polygon fill="#63b8ff" stroke="#63b8ff" points="752.5,-249.09 749,-239.09 745.5,-249.09 752.5,-249.09"/>
</g>
<!-- Node30&#45;&gt;Node3 -->
<g id="edge58" class="edge">
<title>Node30&#45;&gt;Node3</title>
<path fill="none" stroke="#63b8ff" d="M466.78,-274.98C439.47,-268.21 404.31,-256.85 377,-239 339.86,-214.73 341.19,-196.56 310,-165 300.12,-155 288.57,-144.27 279.28,-135.85"/>
<polygon fill="#63b8ff" stroke="#63b8ff" points="281.57,-133.2 271.8,-129.12 276.89,-138.41 281.57,-133.2"/>
</g>
<!-- Node30&#45;&gt;Node4 -->
<g id="edge61" class="edge">
<title>Node30&#45;&gt;Node4</title>
<path fill="none" stroke="#63b8ff" d="M475.94,-274.98C437.18,-265.29 374.11,-249.53 334.4,-239.6"/>
<polygon fill="#63b8ff" stroke="#63b8ff" points="335.15,-236.18 324.6,-237.15 333.45,-242.97 335.15,-236.18"/>
</g>
<!-- Node30&#45;&gt;Node15 -->
<g id="edge62" class="edge">
<title>Node30&#45;&gt;Node15</title>
<path fill="none" stroke="#63b8ff" d="M499.72,-274.98C490.16,-267.07 475.72,-255.11 464.22,-245.58"/>
<polygon fill="#63b8ff" stroke="#63b8ff" points="466.4,-242.85 456.47,-239.17 461.94,-248.24 466.4,-242.85"/>
</g>
<!-- Node30&#45;&gt;Node17 -->
<g id="edge60" class="edge">
<title>Node30&#45;&gt;Node17</title>
<path fill="none" stroke="#63b8ff" d="M510.84,-274.77C512.15,-262.42 515.05,-239.24 520,-220 527.52,-190.74 540.24,-158.02 548.37,-138.35"/>
<polygon fill="#63b8ff" stroke="#63b8ff" points="551.6,-139.68 552.25,-129.11 545.15,-136.97 551.6,-139.68"/>
</g>
<!-- Node30&#45;&gt;Node27 -->
<g id="edge59" class="edge">
<title>Node30&#45;&gt;Node27</title>
<path fill="none" stroke="#63b8ff" d="M516.27,-274.75C521.59,-267.34 529.36,-256.5 535.88,-247.41"/>
<polygon fill="#63b8ff" stroke="#63b8ff" points="538.86,-249.26 541.84,-239.09 533.17,-245.18 538.86,-249.26"/>
</g>
</g>
</svg>
        <g id="navigator" transform="translate(0 0)" fill="#404254">
                <rect fill="#f2f5e9" fill-opacity="0.5" stroke="#606060" stroke-width=".5" x="0" y="0" width="60" height="60"/>
                <use id="zoomplus" xlink:href="#zoomPlus" x="17" y="9" onmousedown="handleZoom(evt,'in')"/>
                <use id="zoomminus" xlink:href="#zoomMin" x="42" y="9" onmousedown="handleZoom(evt,'out')"/>
                <use id="reset" xlink:href="#resetDef" x="30" y="36" onmousedown="handleReset()"/>
                <g id="arrowUp" xlink:href="#dirArrow" transform="translate(30 24)" onmousedown="handlePan(0,-1)">
                  <use xlink:href="#rim" fill="#404040">
                        <set attributeName="fill" to="#808080" begin="arrowUp.mouseover" end="arrowUp.mouseout"/>
                  </use>
                  <path fill="none" stroke="white" stroke-width="1.5" d="M0,-3.0v7 M-2.5,-0.5L0,-3.0L2.5,-0.5"/>
                </g>
                <g id="arrowRight" xlink:href="#dirArrow" transform="rotate(90) translate(36 -43)" onmousedown="handlePan(1,0)">
                  <use xlink:href="#rim" fill="#404040">
                        <set attributeName="fill" to="#808080" begin="arrowRight.mouseover" end="arrowRight.mouseout"/>
                  </use>
                  <path fill="none" stroke="white" stroke-width="1.5" d="M0,-3.0v7 M-2.5,-0.5L0,-3.0L2.5,-0.5"/>
                </g>
                <g id="arrowDown" xlink:href="#dirArrow" transform="rotate(180) translate(-30 -48)" onmousedown="handlePan(0,1)">
                  <use xlink:href="#rim" fill="#404040">
                        <set attributeName="fill" to="#808080" begin="arrowDown.mouseover" end="arrowDown.mouseout"/>
                  </use>
                  <path fill="none" stroke="white" stroke-width="1.5" d="M0,-3.0v7 M-2.5,-0.5L0,-3.0L2.5,-0.5"/>
                </g>
                <g id="arrowLeft" xlink:href="#dirArrow" transform="rotate(270) translate(-36 17)" onmousedown="handlePan(-1,0)">
                  <use xlink:href="#rim" fill="#404040">
                        <set attributeName="fill" to="#808080" begin="arrowLeft.mouseover" end="arrowLeft.mouseout"/>
                  </use>
                  <path fill="none" stroke="white" stroke-width="1.5" d="M0,-3.0v7 M-2.5,-0.5L0,-3.0L2.5,-0.5"/>
                </g>
        </g>
        <svg viewBox="0 0 15 15" width="100%" height="30px" preserveAspectRatio="xMaxYMin meet">
         <g id="arrow_out" transform="scale(0.3 0.3)">
          <a xlink:href="conceptdef_8h__incl_org.svg" target="_base">
           <rect id="button" ry="5" rx="5" y="6" x="6" height="38" width="38"
                fill="#f2f5e9" fill-opacity="0.5" stroke="#606060" stroke-width="1.0"/>
           <path id="arrow"
             d="M 11.500037,31.436501 C 11.940474,20.09759 22.043105,11.32322 32.158766,21.979434 L 37.068811,17.246167 C 37.068811,17.246167 37.088388,32 37.088388,32 L 22.160133,31.978069 C 22.160133,31.978069 26.997745,27.140456 26.997745,27.140456 C 18.528582,18.264221 13.291696,25.230495 11.500037,31.436501 z"
             style="fill:#404040;"/>
          </a>
         </g>
        </svg>
</svg>
