<?xml version="1.0" encoding="UTF-8" standalone="no"?>
<!DOCTYPE svg PUBLIC "-//W3C//DTD SVG 1.1//EN"
 "http://www.w3.org/Graphics/SVG/1.1/DTD/svg11.dtd">
<!-- Generated by graphviz version 2.43.0 (0)
 -->
<!-- Title: MemberDefImpl::IMPL Pages: 1 -->
<!--zoomable 535 -->
<svg id="main" version="1.1" xmlns="http://www.w3.org/2000/svg" xmlns:xlink="http://www.w3.org/1999/xlink" xml:space="preserve" onload="init(evt)">
<style type="text/css"><![CDATA[
.edge:hover path { stroke: red; }
.edge:hover polygon { stroke: red; fill: red; }
]]></style>
<script type="text/javascript"><![CDATA[
var edges = document.getElementsByTagName('g');
if (edges && edges.length) {
  for (var i=0;i<edges.length;i++) {
    if (edges[i].id.substr(0,4)=='edge') {
      edges[i].setAttribute('class','edge');
    }
  }
}
]]></script>
        <defs>
                <circle id="rim" cx="0" cy="0" r="7"/>
                <circle id="rim2" cx="0" cy="0" r="3.5"/>
                <g id="zoomPlus">
                        <use xlink:href="#rim" fill="#404040">
                                <set attributeName="fill" to="#808080" begin="zoomplus.mouseover" end="zoomplus.mouseout"/>
                        </use>
                        <path d="M-4,0h8M0,-4v8" fill="none" stroke="white" stroke-width="1.5" pointer-events="none"/>
                </g>
                <g id="zoomMin">
                        <use xlink:href="#rim" fill="#404040">
                                <set attributeName="fill" to="#808080" begin="zoomminus.mouseover" end="zoomminus.mouseout"/>
                        </use>
                        <path d="M-4,0h8" fill="none" stroke="white" stroke-width="1.5" pointer-events="none"/>
                </g>
                <g id="dirArrow">
                        <path fill="none" stroke="white" stroke-width="1.5" d="M0,-3.0v7 M-2.5,-0.5L0,-3.0L2.5,-0.5"/>
                </g>
               <g id="resetDef">
                       <use xlink:href="#rim2" fill="#404040">
                               <set attributeName="fill" to="#808080" begin="reset.mouseover" end="reset.mouseout"/>
                       </use>
               </g>
        </defs>

<script type="text/javascript">
var viewWidth = 1150;
var viewHeight = 535;
var sectionId = 'dynsection-0';
</script>
<script xlink:href="../../svgpan.js"/>
<svg id="graph" class="graph">
<g id="viewport">
<title>MemberDefImpl::IMPL</title>
<!-- Node1 -->
<g id="node1" class="node">
<title>Node1</title>
<g id="a_node1"><a xlink:title=" ">
<polygon fill="#999999" stroke="#666666" points="1142,-201.18 1017,-201.18 1017,-182.18 1142,-182.18 1142,-201.18"/>
<text text-anchor="middle" x="1079.5" y="-189.18" font-family="Helvetica,sans-Serif" font-size="10.00">MemberDefImpl::IMPL</text>
</a>
</g>
</g>
<!-- Node2 -->
<g id="node2" class="node">
<title>Node2</title>
<g id="a_node2"><a xlink:href="../../d1/dcf/class_class_def.html" target="_top" xlink:title="A abstract class representing of a compound symbol.">
<polygon fill="white" stroke="#666666" points="844.5,-380.18 784.5,-380.18 784.5,-361.18 844.5,-361.18 844.5,-380.18"/>
<text text-anchor="middle" x="814.5" y="-368.18" font-family="Helvetica,sans-Serif" font-size="10.00">ClassDef</text>
</a>
</g>
</g>
<!-- Node2&#45;&gt;Node1 -->
<g id="edge1" class="edge">
<title>Node2&#45;&gt;Node1</title>
<path fill="none" stroke="#9a32cd" stroke-dasharray="5,2" d="M854.18,-361.95C858.66,-359.57 862.78,-356.54 866,-352.68 897.48,-315 849.87,-278.98 884,-243.68 920.23,-206.21 948.82,-234.76 999,-220.68 1018.24,-215.28 1039.47,-207.43 1055.15,-201.26"/>
<polygon fill="#9a32cd" stroke="#9a32cd" points="852.48,-358.87 844.63,-365.99 855.2,-365.32 852.48,-358.87"/>
<text text-anchor="middle" x="941.5" y="-301.68" font-family="Helvetica,sans-Serif" font-size="10.00" fill="grey"> accessorClass</text>
<text text-anchor="middle" x="941.5" y="-290.68" font-family="Helvetica,sans-Serif" font-size="10.00" fill="grey">cachedAnonymousType</text>
<text text-anchor="middle" x="941.5" y="-279.68" font-family="Helvetica,sans-Serif" font-size="10.00" fill="grey">cachedTypedefValue</text>
<text text-anchor="middle" x="941.5" y="-268.68" font-family="Helvetica,sans-Serif" font-size="10.00" fill="grey">category</text>
<text text-anchor="middle" x="941.5" y="-257.68" font-family="Helvetica,sans-Serif" font-size="10.00" fill="grey">classDef</text>
<text text-anchor="middle" x="941.5" y="-246.68" font-family="Helvetica,sans-Serif" font-size="10.00" fill="grey">relatedAlso</text>
</g>
<!-- Node3 -->
<g id="node3" class="node">
<title>Node3</title>
<g id="a_node3"><a xlink:href="../../d5/dcc/class_definition.html" target="_top" xlink:title="The common base class of all entity definitions found in the sources.">
<polygon fill="white" stroke="#666666" points="584,-393.18 520,-393.18 520,-374.18 584,-374.18 584,-393.18"/>
<text text-anchor="middle" x="552" y="-381.18" font-family="Helvetica,sans-Serif" font-size="10.00">Definition</text>
</a>
</g>
</g>
<!-- Node3&#45;&gt;Node2 -->
<g id="edge2" class="edge">
<title>Node3&#45;&gt;Node2</title>
<path fill="none" stroke="#63b8ff" d="M594.24,-381.62C647.23,-378.98 737.91,-374.45 784.3,-372.14"/>
<polygon fill="#63b8ff" stroke="#63b8ff" points="593.98,-378.13 584.16,-382.13 594.33,-385.12 593.98,-378.13"/>
</g>
<!-- Node4 -->
<g id="node4" class="node">
<title>Node4</title>
<g id="a_node4"><a xlink:href="../../de/db0/class_file_def.html" target="_top" xlink:title="A model of a file symbol.">
<polygon fill="white" stroke="#666666" points="840,-478.18 789,-478.18 789,-459.18 840,-459.18 840,-478.18"/>
<text text-anchor="middle" x="814.5" y="-466.18" font-family="Helvetica,sans-Serif" font-size="10.00">FileDef</text>
</a>
</g>
</g>
<!-- Node3&#45;&gt;Node4 -->
<g id="edge5" class="edge">
<title>Node3&#45;&gt;Node4</title>
<path fill="none" stroke="#63b8ff" d="M593.72,-395.53C607.45,-399.47 622.87,-403.83 637,-407.68 684.84,-420.72 698.44,-418.62 745,-435.68 762.97,-442.27 782.56,-451.98 796.17,-459.16"/>
<polygon fill="#63b8ff" stroke="#63b8ff" points="594.64,-392.16 584.06,-392.75 592.71,-398.88 594.64,-392.16"/>
</g>
<!-- Node6 -->
<g id="node6" class="node">
<title>Node6</title>
<g id="a_node6"><a xlink:href="../../d0/d07/class_namespace_def.html" target="_top" xlink:title="An abstract interface of a namespace symbol.">
<polygon fill="white" stroke="#666666" points="860.5,-343.18 768.5,-343.18 768.5,-324.18 860.5,-324.18 860.5,-343.18"/>
<text text-anchor="middle" x="814.5" y="-331.18" font-family="Helvetica,sans-Serif" font-size="10.00">NamespaceDef</text>
</a>
</g>
</g>
<!-- Node3&#45;&gt;Node6 -->
<g id="edge7" class="edge">
<title>Node3&#45;&gt;Node6</title>
<path fill="none" stroke="#63b8ff" d="M594.09,-375.79C641.51,-366.69 719.24,-351.77 768.32,-342.35"/>
<polygon fill="#63b8ff" stroke="#63b8ff" points="593.32,-372.38 584.16,-377.7 594.64,-379.25 593.32,-372.38"/>
</g>
<!-- Node7 -->
<g id="node7" class="node">
<title>Node7</title>
<g id="a_node7"><a xlink:href="../../da/d09/class_member_def.html" target="_top" xlink:title="A model of a class/file/namespace member symbol.">
<polygon fill="white" stroke="#666666" points="851.5,-417.18 777.5,-417.18 777.5,-398.18 851.5,-398.18 851.5,-417.18"/>
<text text-anchor="middle" x="814.5" y="-405.18" font-family="Helvetica,sans-Serif" font-size="10.00">MemberDef</text>
</a>
</g>
</g>
<!-- Node3&#45;&gt;Node7 -->
<g id="edge9" class="edge">
<title>Node3&#45;&gt;Node7</title>
<path fill="none" stroke="#63b8ff" d="M594.39,-387.49C644.85,-392.14 729.3,-399.92 777.29,-404.34"/>
<polygon fill="#63b8ff" stroke="#63b8ff" points="594.44,-383.98 584.16,-386.55 593.8,-390.95 594.44,-383.98"/>
</g>
<!-- Node13 -->
<g id="node13" class="node">
<title>Node13</title>
<g id="a_node13"><a xlink:href="../../da/d32/class_member_group.html" target="_top" xlink:title="A class representing a group of members.">
<polygon fill="white" stroke="#666666" points="857.5,-306.18 771.5,-306.18 771.5,-287.18 857.5,-287.18 857.5,-306.18"/>
<text text-anchor="middle" x="814.5" y="-294.18" font-family="Helvetica,sans-Serif" font-size="10.00">MemberGroup</text>
</a>
</g>
</g>
<!-- Node3&#45;&gt;Node13 -->
<g id="edge17" class="edge">
<title>Node3&#45;&gt;Node13</title>
<path fill="none" stroke="#9a32cd" stroke-dasharray="5,2" d="M573.59,-368C589.94,-356.29 613.84,-340.8 637,-331.68 681.04,-314.34 734.77,-305.27 771.29,-300.75"/>
<polygon fill="#9a32cd" stroke="#9a32cd" points="571.33,-365.32 565.33,-374.05 575.47,-370.96 571.33,-365.32"/>
<text text-anchor="middle" x="691" y="-334.68" font-family="Helvetica,sans-Serif" font-size="10.00" fill="grey"> m_container</text>
</g>
<!-- Node17 -->
<g id="node17" class="node">
<title>Node17</title>
<g id="a_node17"><a xlink:href="../../d8/d09/class_group_def.html" target="_top" xlink:title="A model of a group of symbols.">
<polygon fill="white" stroke="#666666" points="846,-515.18 783,-515.18 783,-496.18 846,-496.18 846,-515.18"/>
<text text-anchor="middle" x="814.5" y="-503.18" font-family="Helvetica,sans-Serif" font-size="10.00">GroupDef</text>
</a>
</g>
</g>
<!-- Node3&#45;&gt;Node17 -->
<g id="edge25" class="edge">
<title>Node3&#45;&gt;Node17</title>
<path fill="none" stroke="#63b8ff" d="M576.71,-398.51C593.32,-408.64 616.17,-422.1 637,-432.68 691.48,-460.34 706.19,-465.19 763,-487.68 770.27,-490.56 778.21,-493.49 785.59,-496.12"/>
<polygon fill="#63b8ff" stroke="#63b8ff" points="578.53,-395.52 568.18,-393.26 574.86,-401.48 578.53,-395.52"/>
</g>
<!-- Node4&#45;&gt;Node1 -->
<g id="edge3" class="edge">
<title>Node4&#45;&gt;Node1</title>
<path fill="none" stroke="#9a32cd" stroke-dasharray="5,2" d="M850.33,-470.34C897.1,-471.82 976.9,-471.51 999,-453.68 1080.76,-387.72 1080.6,-240.39 1079.03,-201.33"/>
<polygon fill="#9a32cd" stroke="#9a32cd" points="850.16,-466.83 840.04,-469.96 849.91,-473.82 850.16,-466.83"/>
<text text-anchor="middle" x="941.5" y="-473.68" font-family="Helvetica,sans-Serif" font-size="10.00" fill="grey"> fileDef</text>
</g>
<!-- Node5 -->
<g id="node5" class="node">
<title>Node5</title>
<g id="a_node5"><a xlink:href="../../d0/d46/class_definition_mutable.html" target="_top" xlink:title=" ">
<polygon fill="white" stroke="#666666" points="604,-496.18 500,-496.18 500,-477.18 604,-477.18 604,-496.18"/>
<text text-anchor="middle" x="552" y="-484.18" font-family="Helvetica,sans-Serif" font-size="10.00">DefinitionMutable</text>
</a>
</g>
</g>
<!-- Node5&#45;&gt;Node4 -->
<g id="edge4" class="edge">
<title>Node5&#45;&gt;Node4</title>
<path fill="none" stroke="#63b8ff" d="M614.25,-482.45C669.89,-478.6 749.13,-473.13 788.83,-470.39"/>
<polygon fill="#63b8ff" stroke="#63b8ff" points="613.89,-478.96 604.16,-483.15 614.37,-485.95 613.89,-478.96"/>
</g>
<!-- Node5&#45;&gt;Node17 -->
<g id="edge24" class="edge">
<title>Node5&#45;&gt;Node17</title>
<path fill="none" stroke="#63b8ff" d="M614.45,-491.16C667.39,-495.02 741.62,-500.44 782.84,-503.44"/>
<polygon fill="#63b8ff" stroke="#63b8ff" points="614.38,-487.65 604.16,-490.41 613.87,-494.63 614.38,-487.65"/>
</g>
<!-- Node6&#45;&gt;Node1 -->
<g id="edge6" class="edge">
<title>Node6&#45;&gt;Node1</title>
<path fill="none" stroke="#9a32cd" stroke-dasharray="5,2" d="M863.72,-318.13C864.52,-317.35 865.28,-316.54 866,-315.68 896.72,-279.08 848.95,-242.16 884,-209.68 902.78,-192.28 967.07,-189.14 1016.66,-189.5"/>
<polygon fill="#9a32cd" stroke="#9a32cd" points="861.59,-315.35 855.65,-324.12 865.77,-320.97 861.59,-315.35"/>
<text text-anchor="middle" x="941.5" y="-212.68" font-family="Helvetica,sans-Serif" font-size="10.00" fill="grey"> nspace</text>
</g>
<!-- Node7&#45;&gt;Node1 -->
<g id="edge8" class="edge">
<title>Node7&#45;&gt;Node1</title>
<path fill="none" stroke="#9a32cd" stroke-dasharray="5,2" d="M860.66,-394.28C862.58,-392.9 864.37,-391.37 866,-389.68 884.44,-370.56 864.22,-350.42 884,-332.68 922.8,-297.88 955.62,-338.58 999,-309.68 1040.73,-281.88 1066.27,-223.97 1075.05,-201.18"/>
<polygon fill="#9a32cd" stroke="#9a32cd" points="858.55,-391.46 851.65,-399.49 862.06,-397.52 858.55,-391.46"/>
<text text-anchor="middle" x="941.5" y="-445.68" font-family="Helvetica,sans-Serif" font-size="10.00" fill="grey"> annEnumType</text>
<text text-anchor="middle" x="941.5" y="-434.68" font-family="Helvetica,sans-Serif" font-size="10.00" fill="grey">annMemb</text>
<text text-anchor="middle" x="941.5" y="-423.68" font-family="Helvetica,sans-Serif" font-size="10.00" fill="grey">categoryRelation</text>
<text text-anchor="middle" x="941.5" y="-412.68" font-family="Helvetica,sans-Serif" font-size="10.00" fill="grey">docProvider</text>
<text text-anchor="middle" x="941.5" y="-401.68" font-family="Helvetica,sans-Serif" font-size="10.00" fill="grey">enumScope</text>
<text text-anchor="middle" x="941.5" y="-390.68" font-family="Helvetica,sans-Serif" font-size="10.00" fill="grey">groupAlias</text>
<text text-anchor="middle" x="941.5" y="-379.68" font-family="Helvetica,sans-Serif" font-size="10.00" fill="grey">groupMember</text>
<text text-anchor="middle" x="941.5" y="-368.68" font-family="Helvetica,sans-Serif" font-size="10.00" fill="grey">memDec</text>
<text text-anchor="middle" x="941.5" y="-357.68" font-family="Helvetica,sans-Serif" font-size="10.00" fill="grey">memDef</text>
<text text-anchor="middle" x="941.5" y="-346.68" font-family="Helvetica,sans-Serif" font-size="10.00" fill="grey">redefines</text>
<text text-anchor="middle" x="941.5" y="-335.68" font-family="Helvetica,sans-Serif" font-size="10.00" fill="grey">...</text>
</g>
<!-- Node8 -->
<g id="node8" class="node">
<title>Node8</title>
<g id="a_node8"><a xlink:href="../../d1/d7d/class_member_vector.html" target="_top" xlink:title="A vector of MemberDef object.">
<polygon fill="white" stroke="#666666" points="310,-125.18 222,-125.18 222,-106.18 310,-106.18 310,-125.18"/>
<text text-anchor="middle" x="266" y="-113.18" font-family="Helvetica,sans-Serif" font-size="10.00">MemberVector</text>
</a>
</g>
</g>
<!-- Node8&#45;&gt;Node1 -->
<g id="edge10" class="edge">
<title>Node8&#45;&gt;Node1</title>
<path fill="none" stroke="#9a32cd" stroke-dasharray="5,2" d="M320.21,-104.74C468.37,-75.39 882.45,-1.41 999,-65.68 1045.66,-91.41 1068.7,-157.32 1075.93,-182.08"/>
<polygon fill="#9a32cd" stroke="#9a32cd" points="319.13,-101.38 310.01,-106.77 320.5,-108.25 319.13,-101.38"/>
<text text-anchor="middle" x="691" y="-67.68" font-family="Helvetica,sans-Serif" font-size="10.00" fill="grey"> enumFields</text>
<text text-anchor="middle" x="691" y="-56.68" font-family="Helvetica,sans-Serif" font-size="10.00" fill="grey">redefinedBy</text>
</g>
<!-- Node14 -->
<g id="node14" class="node">
<title>Node14</title>
<g id="a_node14"><a xlink:href="../../dd/d13/class_member_list.html" target="_top" xlink:title="A list of MemberDef objects as shown in documentation sections.">
<polygon fill="white" stroke="#666666" points="589,-227.18 515,-227.18 515,-208.18 589,-208.18 589,-227.18"/>
<text text-anchor="middle" x="552" y="-215.18" font-family="Helvetica,sans-Serif" font-size="10.00">MemberList</text>
</a>
</g>
</g>
<!-- Node8&#45;&gt;Node14 -->
<g id="edge19" class="edge">
<title>Node8&#45;&gt;Node14</title>
<path fill="none" stroke="#63b8ff" d="M302.94,-128.59C360.8,-149.37 473.31,-189.78 524.5,-208.16"/>
<polygon fill="#63b8ff" stroke="#63b8ff" points="304.06,-125.27 293.46,-125.18 301.69,-131.86 304.06,-125.27"/>
</g>
<!-- Node9 -->
<g id="node9" class="node">
<title>Node9</title>
<g id="a_node9"><a xlink:href="../../d1/d48/class_example_list.html" target="_top" xlink:title=" ">
<polygon fill="white" stroke="#666666" points="853,-21.18 776,-21.18 776,-2.18 853,-2.18 853,-21.18"/>
<text text-anchor="middle" x="814.5" y="-9.18" font-family="Helvetica,sans-Serif" font-size="10.00">ExampleList</text>
</a>
</g>
</g>
<!-- Node9&#45;&gt;Node1 -->
<g id="edge11" class="edge">
<title>Node9&#45;&gt;Node1</title>
<path fill="none" stroke="#9a32cd" stroke-dasharray="5,2" d="M863.15,-2.68C902.92,2.14 959.32,2.39 999,-24.68 1055.24,-63.04 1072.85,-152.39 1077.25,-181.98"/>
<polygon fill="#9a32cd" stroke="#9a32cd" points="862.61,0.78 853.16,-4.02 863.54,-6.15 862.61,0.78"/>
<text text-anchor="middle" x="941.5" y="-27.68" font-family="Helvetica,sans-Serif" font-size="10.00" fill="grey"> examples</text>
</g>
<!-- Node10 -->
<g id="node10" class="node">
<title>Node10</title>
<g id="a_node10"><a xlink:title=" ">
<polygon fill="white" stroke="#666666" points="619,-21.18 485,-21.18 485,-2.18 619,-2.18 619,-21.18"/>
<text text-anchor="middle" x="552" y="-9.18" font-family="Helvetica,sans-Serif" font-size="10.00">std::vector&lt; Example &gt;</text>
</a>
</g>
</g>
<!-- Node10&#45;&gt;Node9 -->
<g id="edge12" class="edge">
<title>Node10&#45;&gt;Node9</title>
<path fill="none" stroke="#63b8ff" d="M629.16,-11.68C677.34,-11.68 737.52,-11.68 775.75,-11.68"/>
<polygon fill="#63b8ff" stroke="#63b8ff" points="629.07,-8.18 619.07,-11.68 629.07,-15.18 629.07,-8.18"/>
</g>
<!-- Node11 -->
<g id="node11" class="node">
<title>Node11</title>
<g id="a_node11"><a xlink:href="../../d9/d45/class_q_c_string.html" target="_top" xlink:title="This is an alternative implementation of QCString.">
<polygon fill="white" stroke="#666666" points="581.5,-146.18 522.5,-146.18 522.5,-127.18 581.5,-127.18 581.5,-146.18"/>
<text text-anchor="middle" x="552" y="-134.18" font-family="Helvetica,sans-Serif" font-size="10.00">QCString</text>
</a>
</g>
</g>
<!-- Node11&#45;&gt;Node1 -->
<g id="edge13" class="edge">
<title>Node11&#45;&gt;Node1</title>
<path fill="none" stroke="#9a32cd" stroke-dasharray="5,2" d="M592.13,-133.11C670.68,-127.08 852.56,-118.85 999,-155.68 1021.92,-161.45 1046.43,-173.55 1062.08,-182.13"/>
<polygon fill="#9a32cd" stroke="#9a32cd" points="591.44,-129.65 581.75,-133.94 592,-136.63 591.44,-129.65"/>
<text text-anchor="middle" x="814.5" y="-257.68" font-family="Helvetica,sans-Serif" font-size="10.00" fill="grey"> accessorType</text>
<text text-anchor="middle" x="814.5" y="-246.68" font-family="Helvetica,sans-Serif" font-size="10.00" fill="grey">anc</text>
<text text-anchor="middle" x="814.5" y="-235.68" font-family="Helvetica,sans-Serif" font-size="10.00" fill="grey">args</text>
<text text-anchor="middle" x="814.5" y="-224.68" font-family="Helvetica,sans-Serif" font-size="10.00" fill="grey">bitfields</text>
<text text-anchor="middle" x="814.5" y="-213.68" font-family="Helvetica,sans-Serif" font-size="10.00" fill="grey">cachedResolvedType</text>
<text text-anchor="start" x="763" y="-202.68" font-family="Helvetica,sans-Serif" font-size="10.00" fill="grey">cachedTypedefTempl</text>
<text text-anchor="middle" x="814.5" y="-191.68" font-family="Helvetica,sans-Serif" font-size="10.00" fill="grey">Spec</text>
<text text-anchor="middle" x="814.5" y="-180.68" font-family="Helvetica,sans-Serif" font-size="10.00" fill="grey">decl</text>
<text text-anchor="middle" x="814.5" y="-169.68" font-family="Helvetica,sans-Serif" font-size="10.00" fill="grey">declFileName</text>
<text text-anchor="middle" x="814.5" y="-158.68" font-family="Helvetica,sans-Serif" font-size="10.00" fill="grey">def</text>
<text text-anchor="middle" x="814.5" y="-147.68" font-family="Helvetica,sans-Serif" font-size="10.00" fill="grey">enumBaseType</text>
<text text-anchor="middle" x="814.5" y="-136.68" font-family="Helvetica,sans-Serif" font-size="10.00" fill="grey">...</text>
</g>
<!-- Node12 -->
<g id="node12" class="node">
<title>Node12</title>
<g id="a_node12"><a xlink:href="../../d7/df8/class_argument_list.html" target="_top" xlink:title="This class represents an function or template argument list.">
<polygon fill="white" stroke="#666666" points="855.5,-99.18 773.5,-99.18 773.5,-80.18 855.5,-80.18 855.5,-99.18"/>
<text text-anchor="middle" x="814.5" y="-87.18" font-family="Helvetica,sans-Serif" font-size="10.00">ArgumentList</text>
</a>
</g>
</g>
<!-- Node11&#45;&gt;Node12 -->
<g id="edge15" class="edge">
<title>Node11&#45;&gt;Node12</title>
<path fill="none" stroke="#9a32cd" stroke-dasharray="5,2" d="M590.29,-124.14C604.75,-119.66 621.51,-114.93 637,-111.68 683.24,-101.99 737.25,-96.02 773.23,-92.79"/>
<polygon fill="#9a32cd" stroke="#9a32cd" points="589.18,-120.82 580.7,-127.18 591.29,-127.49 589.18,-120.82"/>
<text text-anchor="middle" x="691" y="-114.68" font-family="Helvetica,sans-Serif" font-size="10.00" fill="grey"> m_trailingReturnType</text>
</g>
<!-- Node11&#45;&gt;Node13 -->
<g id="edge22" class="edge">
<title>Node11&#45;&gt;Node13</title>
<path fill="none" stroke="#9a32cd" stroke-dasharray="5,2" d="M591.81,-143.22C641.63,-152.39 724.14,-170.47 745,-192.68 769.95,-219.24 740.25,-244.21 763,-272.68 767.97,-278.9 774.94,-283.6 782.11,-287.11"/>
<polygon fill="#9a32cd" stroke="#9a32cd" points="592.18,-139.73 581.71,-141.4 590.93,-146.62 592.18,-139.73"/>
<text text-anchor="middle" x="691" y="-228.68" font-family="Helvetica,sans-Serif" font-size="10.00" fill="grey"> doc</text>
<text text-anchor="middle" x="691" y="-217.68" font-family="Helvetica,sans-Serif" font-size="10.00" fill="grey">fileName</text>
<text text-anchor="middle" x="691" y="-206.68" font-family="Helvetica,sans-Serif" font-size="10.00" fill="grey">grpHeader</text>
<text text-anchor="middle" x="691" y="-195.68" font-family="Helvetica,sans-Serif" font-size="10.00" fill="grey">m_docFile</text>
</g>
<!-- Node12&#45;&gt;Node1 -->
<g id="edge14" class="edge">
<title>Node12&#45;&gt;Node1</title>
<path fill="none" stroke="#9a32cd" stroke-dasharray="5,2" d="M855.91,-77.71C894.77,-68.56 954.09,-60.97 999,-83.68 1040.97,-104.9 1066.2,-159.88 1074.98,-182.12"/>
<polygon fill="#9a32cd" stroke="#9a32cd" points="854.86,-74.36 846,-80.18 856.55,-81.15 854.86,-74.36"/>
<text text-anchor="middle" x="941.5" y="-119.68" font-family="Helvetica,sans-Serif" font-size="10.00" fill="grey"> declArgList</text>
<text text-anchor="middle" x="941.5" y="-108.68" font-family="Helvetica,sans-Serif" font-size="10.00" fill="grey">defArgList</text>
<text text-anchor="middle" x="941.5" y="-97.68" font-family="Helvetica,sans-Serif" font-size="10.00" fill="grey">tArgList</text>
<text text-anchor="middle" x="941.5" y="-86.68" font-family="Helvetica,sans-Serif" font-size="10.00" fill="grey">typeConstraints</text>
</g>
<!-- Node13&#45;&gt;Node1 -->
<g id="edge16" class="edge">
<title>Node13&#45;&gt;Node1</title>
<path fill="none" stroke="#9a32cd" stroke-dasharray="5,2" d="M856,-282.01C859.78,-279.37 863.23,-276.28 866,-272.68 892.72,-237.92 850.29,-203.71 884,-175.68 934.67,-133.55 1020.62,-164.67 1058.99,-182.06"/>
<polygon fill="#9a32cd" stroke="#9a32cd" points="854.17,-279.03 847.31,-287.11 857.71,-285.07 854.17,-279.03"/>
<text text-anchor="middle" x="941.5" y="-178.68" font-family="Helvetica,sans-Serif" font-size="10.00" fill="grey"> memberGroup</text>
</g>
<!-- Node14&#45;&gt;Node13 -->
<g id="edge18" class="edge">
<title>Node14&#45;&gt;Node13</title>
<path fill="none" stroke="#9a32cd" stroke-dasharray="5,2" d="M599.36,-229.66C638.43,-240.01 695.69,-255.77 745,-271.68 759.58,-276.38 775.68,-282.23 788.61,-287.08"/>
<polygon fill="#9a32cd" stroke="#9a32cd" points="599.9,-226.19 589.34,-227.02 598.12,-232.96 599.9,-226.19"/>
<text text-anchor="middle" x="691" y="-274.68" font-family="Helvetica,sans-Serif" font-size="10.00" fill="grey"> inDeclSection</text>
</g>
<!-- Node15 -->
<g id="node15" class="node">
<title>Node15</title>
<g id="a_node15"><a xlink:href="../../d4/d15/class_member_group_ref_list.html" target="_top" xlink:title=" ">
<polygon fill="white" stroke="#666666" points="326,-227.18 206,-227.18 206,-208.18 326,-208.18 326,-227.18"/>
<text text-anchor="middle" x="266" y="-215.18" font-family="Helvetica,sans-Serif" font-size="10.00">MemberGroupRefList</text>
</a>
</g>
</g>
<!-- Node15&#45;&gt;Node14 -->
<g id="edge20" class="edge">
<title>Node15&#45;&gt;Node14</title>
<path fill="none" stroke="#9a32cd" stroke-dasharray="5,2" d="M336.46,-217.68C392.82,-217.68 470.04,-217.68 514.81,-217.68"/>
<polygon fill="#9a32cd" stroke="#9a32cd" points="336.19,-214.18 326.19,-217.68 336.19,-221.18 336.19,-214.18"/>
<text text-anchor="middle" x="405.5" y="-220.68" font-family="Helvetica,sans-Serif" font-size="10.00" fill="grey"> m_memberGroupRefList</text>
</g>
<!-- Node16 -->
<g id="node16" class="node">
<title>Node16</title>
<g id="a_node16"><a xlink:title=" ">
<polygon fill="white" stroke="#666666" points="169,-227.18 0,-227.18 0,-208.18 169,-208.18 169,-227.18"/>
<text text-anchor="middle" x="84.5" y="-215.18" font-family="Helvetica,sans-Serif" font-size="10.00">std::vector&lt; MemberGroup * &gt;</text>
</a>
</g>
</g>
<!-- Node16&#45;&gt;Node15 -->
<g id="edge21" class="edge">
<title>Node16&#45;&gt;Node15</title>
<path fill="none" stroke="#63b8ff" d="M179.34,-217.68C188.32,-217.68 197.24,-217.68 205.74,-217.68"/>
<polygon fill="#63b8ff" stroke="#63b8ff" points="179.21,-214.18 169.21,-217.68 179.21,-221.18 179.21,-214.18"/>
</g>
<!-- Node17&#45;&gt;Node1 -->
<g id="edge23" class="edge">
<title>Node17&#45;&gt;Node1</title>
<path fill="none" stroke="#9a32cd" stroke-dasharray="5,2" d="M856.11,-513.29C897.07,-518.48 959.71,-519.29 999,-485.68 1044.4,-446.84 1071.6,-247.45 1077.35,-201.25"/>
<polygon fill="#9a32cd" stroke="#9a32cd" points="856.58,-509.82 846.19,-511.89 855.6,-516.75 856.58,-509.82"/>
<text text-anchor="middle" x="941.5" y="-518.68" font-family="Helvetica,sans-Serif" font-size="10.00" fill="grey"> group</text>
</g>
</g>
</svg>
        <g id="navigator" transform="translate(0 0)" fill="#404254">
                <rect fill="#f2f5e9" fill-opacity="0.5" stroke="#606060" stroke-width=".5" x="0" y="0" width="60" height="60"/>
                <use id="zoomplus" xlink:href="#zoomPlus" x="17" y="9" onmousedown="handleZoom(evt,'in')"/>
                <use id="zoomminus" xlink:href="#zoomMin" x="42" y="9" onmousedown="handleZoom(evt,'out')"/>
                <use id="reset" xlink:href="#resetDef" x="30" y="36" onmousedown="handleReset()"/>
                <g id="arrowUp" xlink:href="#dirArrow" transform="translate(30 24)" onmousedown="handlePan(0,-1)">
                  <use xlink:href="#rim" fill="#404040">
                        <set attributeName="fill" to="#808080" begin="arrowUp.mouseover" end="arrowUp.mouseout"/>
                  </use>
                  <path fill="none" stroke="white" stroke-width="1.5" d="M0,-3.0v7 M-2.5,-0.5L0,-3.0L2.5,-0.5"/>
                </g>
                <g id="arrowRight" xlink:href="#dirArrow" transform="rotate(90) translate(36 -43)" onmousedown="handlePan(1,0)">
                  <use xlink:href="#rim" fill="#404040">
                        <set attributeName="fill" to="#808080" begin="arrowRight.mouseover" end="arrowRight.mouseout"/>
                  </use>
                  <path fill="none" stroke="white" stroke-width="1.5" d="M0,-3.0v7 M-2.5,-0.5L0,-3.0L2.5,-0.5"/>
                </g>
                <g id="arrowDown" xlink:href="#dirArrow" transform="rotate(180) translate(-30 -48)" onmousedown="handlePan(0,1)">
                  <use xlink:href="#rim" fill="#404040">
                        <set attributeName="fill" to="#808080" begin="arrowDown.mouseover" end="arrowDown.mouseout"/>
                  </use>
                  <path fill="none" stroke="white" stroke-width="1.5" d="M0,-3.0v7 M-2.5,-0.5L0,-3.0L2.5,-0.5"/>
                </g>
                <g id="arrowLeft" xlink:href="#dirArrow" transform="rotate(270) translate(-36 17)" onmousedown="handlePan(-1,0)">
                  <use xlink:href="#rim" fill="#404040">
                        <set attributeName="fill" to="#808080" begin="arrowLeft.mouseover" end="arrowLeft.mouseout"/>
                  </use>
                  <path fill="none" stroke="white" stroke-width="1.5" d="M0,-3.0v7 M-2.5,-0.5L0,-3.0L2.5,-0.5"/>
                </g>
        </g>
        <svg viewBox="0 0 15 15" width="100%" height="30px" preserveAspectRatio="xMaxYMin meet">
         <g id="arrow_out" transform="scale(0.3 0.3)">
          <a xlink:href="class_member_def_impl_1_1_i_m_p_l__coll__graph_org.svg" target="_base">
           <rect id="button" ry="5" rx="5" y="6" x="6" height="38" width="38"
                fill="#f2f5e9" fill-opacity="0.5" stroke="#606060" stroke-width="1.0"/>
           <path id="arrow"
             d="M 11.500037,31.436501 C 11.940474,20.09759 22.043105,11.32322 32.158766,21.979434 L 37.068811,17.246167 C 37.068811,17.246167 37.088388,32 37.088388,32 L 22.160133,31.978069 C 22.160133,31.978069 26.997745,27.140456 26.997745,27.140456 C 18.528582,18.264221 13.291696,25.230495 11.500037,31.436501 z"
             style="fill:#404040;"/>
          </a>
         </g>
        </svg>
</svg>
