<?xml version="1.0" encoding="UTF-8" standalone="no"?>
<!DOCTYPE svg PUBLIC "-//W3C//DTD SVG 1.1//EN"
 "http://www.w3.org/Graphics/SVG/1.1/DTD/svg11.dtd">
<!-- Generated by graphviz version 2.43.0 (0)
 -->
<!-- Title: DotInclDepGraph Pages: 1 -->
<svg width="486pt" height="273pt"
 viewBox="0.00 0.00 485.50 273.00" xmlns="http://www.w3.org/2000/svg" xmlns:xlink="http://www.w3.org/1999/xlink">
<g id="graph0" class="graph" transform="scale(1 1) rotate(0) translate(4 269)">
<title>DotInclDepGraph</title>
<!-- Node1 -->
<g id="node1" class="node">
<title>Node1</title>
<g id="a_node1"><a xlink:title="Representation of an include dependency graph.">
<polygon fill="#999999" stroke="#666666" points="251.5,-19 151.5,-19 151.5,0 251.5,0 251.5,-19"/>
<text text-anchor="middle" x="201.5" y="-7" font-family="Helvetica,sans-Serif" font-size="10.00">DotInclDepGraph</text>
</a>
</g>
</g>
<!-- Node2 -->
<g id="node2" class="node">
<title>Node2</title>
<g id="a_node2"><a xlink:href="../../d0/d32/class_dot_graph.html" target="_top" xlink:title="A dot graph.">
<polygon fill="white" stroke="#666666" points="101,-86.5 38,-86.5 38,-67.5 101,-67.5 101,-86.5"/>
<text text-anchor="middle" x="69.5" y="-74.5" font-family="Helvetica,sans-Serif" font-size="10.00">DotGraph</text>
</a>
</g>
</g>
<!-- Node2&#45;&gt;Node1 -->
<g id="edge1" class="edge">
<title>Node2&#45;&gt;Node1</title>
<path fill="none" stroke="#63b8ff" d="M92.41,-62.16C105.67,-54.38 122.8,-44.71 138.5,-37 151.81,-30.46 167.15,-23.99 179.35,-19.08"/>
<polygon fill="#63b8ff" stroke="#63b8ff" points="90.33,-59.33 83.51,-67.44 93.9,-65.35 90.33,-59.33"/>
</g>
<!-- Node3 -->
<g id="node3" class="node">
<title>Node3</title>
<g id="a_node3"><a xlink:href="../../d2/dc2/class_dir.html" target="_top" xlink:title="Class representing a directory in the file system.">
<polygon fill="white" stroke="#666666" points="31,-203.5 0,-203.5 0,-184.5 31,-184.5 31,-203.5"/>
<text text-anchor="middle" x="15.5" y="-191.5" font-family="Helvetica,sans-Serif" font-size="10.00">Dir</text>
</a>
</g>
</g>
<!-- Node3&#45;&gt;Node2 -->
<g id="edge2" class="edge">
<title>Node3&#45;&gt;Node2</title>
<path fill="none" stroke="#9a32cd" stroke-dasharray="5,2" d="M10.55,-174.38C6.68,-155.66 3.86,-126.7 16.5,-106 21.92,-97.12 31.2,-90.9 40.48,-86.63"/>
<polygon fill="#9a32cd" stroke="#9a32cd" points="7.19,-175.38 12.89,-184.31 14,-173.77 7.19,-175.38"/>
<text text-anchor="middle" x="32" y="-131" font-family="Helvetica,sans-Serif" font-size="10.00" fill="grey"> m_dir</text>
</g>
<!-- Node4 -->
<g id="node4" class="node">
<title>Node4</title>
<g id="a_node4"><a xlink:href="../../d9/d45/class_q_c_string.html" target="_top" xlink:title="This is an alternative implementation of QCString.">
<polygon fill="white" stroke="#666666" points="182,-203.5 123,-203.5 123,-184.5 182,-184.5 182,-203.5"/>
<text text-anchor="middle" x="152.5" y="-191.5" font-family="Helvetica,sans-Serif" font-size="10.00">QCString</text>
</a>
</g>
</g>
<!-- Node4&#45;&gt;Node1 -->
<g id="edge10" class="edge">
<title>Node4&#45;&gt;Node1</title>
<path fill="none" stroke="#9a32cd" stroke-dasharray="5,2" d="M150.71,-174.28C148.96,-148.91 148.24,-102.58 161.5,-66 168.3,-47.24 183.4,-29.2 192.98,-19.02"/>
<polygon fill="#9a32cd" stroke="#9a32cd" points="147.23,-174.67 151.53,-184.35 154.2,-174.1 147.23,-174.67"/>
<text text-anchor="middle" x="219" y="-80" font-family="Helvetica,sans-Serif" font-size="10.00" fill="grey"> m_inclByDepFileName</text>
<text text-anchor="middle" x="219" y="-69" font-family="Helvetica,sans-Serif" font-size="10.00" fill="grey">m_inclDepFileName</text>
</g>
<!-- Node4&#45;&gt;Node2 -->
<g id="edge3" class="edge">
<title>Node4&#45;&gt;Node2</title>
<path fill="none" stroke="#9a32cd" stroke-dasharray="5,2" d="M112.56,-187.22C96.77,-182.78 80.13,-174.92 70.5,-161 54.75,-138.25 62.06,-102.94 66.7,-86.7"/>
<polygon fill="#9a32cd" stroke="#9a32cd" points="112.19,-190.73 122.73,-189.68 113.83,-183.93 112.19,-190.73"/>
<text text-anchor="middle" x="104.5" y="-153" font-family="Helvetica,sans-Serif" font-size="10.00" fill="grey"> m_absPath</text>
<text text-anchor="middle" x="104.5" y="-142" font-family="Helvetica,sans-Serif" font-size="10.00" fill="grey">m_baseName</text>
<text text-anchor="middle" x="104.5" y="-131" font-family="Helvetica,sans-Serif" font-size="10.00" fill="grey">m_fileName</text>
<text text-anchor="middle" x="104.5" y="-120" font-family="Helvetica,sans-Serif" font-size="10.00" fill="grey">m_relPath</text>
<text text-anchor="middle" x="104.5" y="-109" font-family="Helvetica,sans-Serif" font-size="10.00" fill="grey">m_theGraph</text>
</g>
<!-- Node5 -->
<g id="node5" class="node">
<title>Node5</title>
<g id="a_node5"><a xlink:href="../../dd/d7e/class_dot_node.html" target="_top" xlink:title="A node in a dot graph.">
<polygon fill="white" stroke="#666666" points="345,-86.5 286,-86.5 286,-67.5 345,-67.5 345,-86.5"/>
<text text-anchor="middle" x="315.5" y="-74.5" font-family="Helvetica,sans-Serif" font-size="10.00">DotNode</text>
</a>
</g>
</g>
<!-- Node4&#45;&gt;Node5 -->
<g id="edge5" class="edge">
<title>Node4&#45;&gt;Node5</title>
<path fill="none" stroke="#9a32cd" stroke-dasharray="5,2" d="M169.17,-177.49C189.5,-159.06 225.38,-128.02 259.5,-106 271.01,-98.57 284.75,-91.67 295.75,-86.58"/>
<polygon fill="#9a32cd" stroke="#9a32cd" points="166.71,-175 161.7,-184.34 171.43,-180.16 166.71,-175"/>
<text text-anchor="middle" x="283" y="-142" font-family="Helvetica,sans-Serif" font-size="10.00" fill="grey"> m_label</text>
<text text-anchor="middle" x="283" y="-131" font-family="Helvetica,sans-Serif" font-size="10.00" fill="grey">m_tooltip</text>
<text text-anchor="middle" x="283" y="-120" font-family="Helvetica,sans-Serif" font-size="10.00" fill="grey">m_url</text>
</g>
<!-- Node5&#45;&gt;Node1 -->
<g id="edge4" class="edge">
<title>Node5&#45;&gt;Node1</title>
<path fill="none" stroke="#9a32cd" stroke-dasharray="5,2" d="M291.91,-62.44C269.22,-49.41 235.61,-30.1 216.41,-19.07"/>
<polygon fill="#9a32cd" stroke="#9a32cd" points="290.18,-65.49 300.6,-67.44 293.67,-59.42 290.18,-65.49"/>
<text text-anchor="middle" x="299" y="-40" font-family="Helvetica,sans-Serif" font-size="10.00" fill="grey"> m_startNode</text>
</g>
<!-- Node6 -->
<g id="node6" class="node">
<title>Node6</title>
<g id="a_node6"><a xlink:href="../../d1/dcf/class_class_def.html" target="_top" xlink:title="A abstract class representing of a compound symbol.">
<polygon fill="white" stroke="#666666" points="337.5,-203.5 277.5,-203.5 277.5,-184.5 337.5,-184.5 337.5,-203.5"/>
<text text-anchor="middle" x="307.5" y="-191.5" font-family="Helvetica,sans-Serif" font-size="10.00">ClassDef</text>
</a>
</g>
</g>
<!-- Node6&#45;&gt;Node5 -->
<g id="edge6" class="edge">
<title>Node6&#45;&gt;Node5</title>
<path fill="none" stroke="#9a32cd" stroke-dasharray="5,2" d="M308.8,-174.25C310.56,-149.06 313.6,-105.32 314.89,-86.74"/>
<polygon fill="#9a32cd" stroke="#9a32cd" points="305.3,-174.14 308.1,-184.36 312.29,-174.62 305.3,-174.14"/>
<text text-anchor="middle" x="344" y="-131" font-family="Helvetica,sans-Serif" font-size="10.00" fill="grey"> m_classDef</text>
</g>
<!-- Node7 -->
<g id="node7" class="node">
<title>Node7</title>
<g id="a_node7"><a xlink:href="../../d5/dcc/class_definition.html" target="_top" xlink:title="The common base class of all entity definitions found in the sources.">
<polygon fill="white" stroke="#666666" points="339.5,-265 275.5,-265 275.5,-246 339.5,-246 339.5,-265"/>
<text text-anchor="middle" x="307.5" y="-253" font-family="Helvetica,sans-Serif" font-size="10.00">Definition</text>
</a>
</g>
</g>
<!-- Node7&#45;&gt;Node6 -->
<g id="edge7" class="edge">
<title>Node7&#45;&gt;Node6</title>
<path fill="none" stroke="#63b8ff" d="M307.5,-235.82C307.5,-225 307.5,-211.9 307.5,-203.51"/>
<polygon fill="#63b8ff" stroke="#63b8ff" points="304,-235.98 307.5,-245.98 311,-235.98 304,-235.98"/>
</g>
<!-- Node8 -->
<g id="node8" class="node">
<title>Node8</title>
<g id="a_node8"><a xlink:href="../../d6/dbb/class_dot_node_map.html" target="_top" xlink:title=" ">
<polygon fill="white" stroke="#666666" points="453.5,-86.5 373.5,-86.5 373.5,-67.5 453.5,-67.5 453.5,-86.5"/>
<text text-anchor="middle" x="413.5" y="-74.5" font-family="Helvetica,sans-Serif" font-size="10.00">DotNodeMap</text>
</a>
</g>
</g>
<!-- Node8&#45;&gt;Node1 -->
<g id="edge8" class="edge">
<title>Node8&#45;&gt;Node1</title>
<path fill="none" stroke="#9a32cd" stroke-dasharray="5,2" d="M390.55,-62.27C375.61,-53.87 355.45,-43.52 336.5,-37 309.17,-27.6 277.52,-21.16 251.73,-16.99"/>
<polygon fill="#9a32cd" stroke="#9a32cd" points="389.13,-65.49 399.54,-67.44 392.62,-59.42 389.13,-65.49"/>
<text text-anchor="middle" x="400" y="-40" font-family="Helvetica,sans-Serif" font-size="10.00" fill="grey"> m_usedNodes</text>
</g>
<!-- Node9 -->
<g id="node9" class="node">
<title>Node9</title>
<g id="a_node9"><a xlink:title=" ">
<polygon fill="white" stroke="#666666" points="477.5,-209 355.5,-209 355.5,-179 477.5,-179 477.5,-209"/>
<text text-anchor="start" x="363.5" y="-197" font-family="Helvetica,sans-Serif" font-size="10.00">std::map&lt; std::string,</text>
<text text-anchor="middle" x="416.5" y="-186" font-family="Helvetica,sans-Serif" font-size="10.00"> DotNode * &gt;</text>
</a>
</g>
</g>
<!-- Node9&#45;&gt;Node8 -->
<g id="edge9" class="edge">
<title>Node9&#45;&gt;Node8</title>
<path fill="none" stroke="#63b8ff" d="M415.87,-168.82C415.2,-143.12 414.17,-103.87 413.73,-86.63"/>
<polygon fill="#63b8ff" stroke="#63b8ff" points="412.37,-168.99 416.13,-178.9 419.37,-168.81 412.37,-168.99"/>
</g>
</g>
</svg>
