<?xml version="1.0" encoding="UTF-8" standalone="no"?>
<!DOCTYPE svg PUBLIC "-//W3C//DTD SVG 1.1//EN"
 "http://www.w3.org/Graphics/SVG/1.1/DTD/svg11.dtd">
<!-- Generated by graphviz version 2.43.0 (0)
 -->
<!-- Title: NamespaceDefImpl Pages: 1 -->
<!--zoomable 962 -->
<svg id="main" version="1.1" xmlns="http://www.w3.org/2000/svg" xmlns:xlink="http://www.w3.org/1999/xlink" xml:space="preserve" onload="init(evt)">
<style type="text/css"><![CDATA[
.edge:hover path { stroke: red; }
.edge:hover polygon { stroke: red; fill: red; }
]]></style>
<script type="text/javascript"><![CDATA[
var edges = document.getElementsByTagName('g');
if (edges && edges.length) {
  for (var i=0;i<edges.length;i++) {
    if (edges[i].id.substr(0,4)=='edge') {
      edges[i].setAttribute('class','edge');
    }
  }
}
]]></script>
        <defs>
                <circle id="rim" cx="0" cy="0" r="7"/>
                <circle id="rim2" cx="0" cy="0" r="3.5"/>
                <g id="zoomPlus">
                        <use xlink:href="#rim" fill="#404040">
                                <set attributeName="fill" to="#808080" begin="zoomplus.mouseover" end="zoomplus.mouseout"/>
                        </use>
                        <path d="M-4,0h8M0,-4v8" fill="none" stroke="white" stroke-width="1.5" pointer-events="none"/>
                </g>
                <g id="zoomMin">
                        <use xlink:href="#rim" fill="#404040">
                                <set attributeName="fill" to="#808080" begin="zoomminus.mouseover" end="zoomminus.mouseout"/>
                        </use>
                        <path d="M-4,0h8" fill="none" stroke="white" stroke-width="1.5" pointer-events="none"/>
                </g>
                <g id="dirArrow">
                        <path fill="none" stroke="white" stroke-width="1.5" d="M0,-3.0v7 M-2.5,-0.5L0,-3.0L2.5,-0.5"/>
                </g>
               <g id="resetDef">
                       <use xlink:href="#rim2" fill="#404040">
                               <set attributeName="fill" to="#808080" begin="reset.mouseover" end="reset.mouseout"/>
                       </use>
               </g>
        </defs>

<script type="text/javascript">
var viewWidth = 1949;
var viewHeight = 962;
var sectionId = 'dynsection-1';
</script>
<script xlink:href="../../svgpan.js"/>
<svg id="graph" class="graph">
<g id="viewport">
<title>NamespaceDefImpl</title>
<!-- Node1 -->
<g id="node1" class="node">
<title>Node1</title>
<g id="a_node1"><a xlink:title=" ">
<polygon fill="#999999" stroke="#666666" points="1941,-257.6 1828,-257.6 1828,-238.6 1941,-238.6 1941,-257.6"/>
<text text-anchor="middle" x="1884.5" y="-245.6" font-family="Helvetica,sans-Serif" font-size="10.00">NamespaceDefImpl</text>
</a>
</g>
</g>
<!-- Node2 -->
<g id="node2" class="node">
<title>Node2</title>
<g id="a_node2"><a xlink:href="../../dd/d10/class_definition_mixin.html" target="_top" xlink:title=" ">
<polygon fill="white" stroke="#666666" points="1698,-517.1 1538,-517.1 1538,-487.1 1698,-487.1 1698,-517.1"/>
<text text-anchor="start" x="1546" y="-505.1" font-family="Helvetica,sans-Serif" font-size="10.00">DefinitionMixin&lt; Namespace</text>
<text text-anchor="middle" x="1618" y="-494.1" font-family="Helvetica,sans-Serif" font-size="10.00">DefMutable &gt;</text>
</a>
</g>
</g>
<!-- Node2&#45;&gt;Node1 -->
<g id="edge1" class="edge">
<title>Node2&#45;&gt;Node1</title>
<path fill="none" stroke="#63b8ff" d="M1708.12,-490.19C1743.56,-481.46 1782.39,-466.32 1810,-440.1 1865.39,-387.51 1879.54,-288.68 1882.69,-257.66"/>
<polygon fill="#63b8ff" stroke="#63b8ff" points="1707.18,-486.82 1698.23,-492.49 1708.76,-493.63 1707.18,-486.82"/>
</g>
<!-- Node3 -->
<g id="node3" class="node">
<title>Node3</title>
<g id="a_node3"><a xlink:href="../../dd/dd5/class_namespace_def_mutable.html" target="_top" xlink:title=" ">
<polygon fill="white" stroke="#666666" points="509,-438.6 378,-438.6 378,-419.6 509,-419.6 509,-438.6"/>
<text text-anchor="middle" x="443.5" y="-426.6" font-family="Helvetica,sans-Serif" font-size="10.00">NamespaceDefMutable</text>
</a>
</g>
</g>
<!-- Node3&#45;&gt;Node2 -->
<g id="edge2" class="edge">
<title>Node3&#45;&gt;Node2</title>
<path fill="none" stroke="#63b8ff" d="M519.54,-431.62C624.43,-435.32 820.81,-442.9 988,-453.1 1185.89,-465.18 1418.38,-484.67 1537.62,-495.06"/>
<polygon fill="#63b8ff" stroke="#63b8ff" points="519.49,-428.11 509.37,-431.26 519.25,-435.11 519.49,-428.11"/>
</g>
<!-- Node4 -->
<g id="node4" class="node">
<title>Node4</title>
<g id="a_node4"><a xlink:href="../../d0/d46/class_definition_mutable.html" target="_top" xlink:title=" ">
<polygon fill="white" stroke="#666666" points="104,-631.6 0,-631.6 0,-612.6 104,-612.6 104,-631.6"/>
<text text-anchor="middle" x="52" y="-619.6" font-family="Helvetica,sans-Serif" font-size="10.00">DefinitionMutable</text>
</a>
</g>
</g>
<!-- Node4&#45;&gt;Node3 -->
<g id="edge3" class="edge">
<title>Node4&#45;&gt;Node3</title>
<path fill="none" stroke="#63b8ff" d="M58,-602.33C67.7,-568.4 92.52,-499.63 141,-467.1 211.54,-419.78 312.6,-416.95 377.9,-421.37"/>
<polygon fill="#63b8ff" stroke="#63b8ff" points="54.51,-601.83 55.28,-612.39 61.27,-603.65 54.51,-601.83"/>
</g>
<!-- Node16 -->
<g id="node16" class="node">
<title>Node16</title>
<g id="a_node16"><a xlink:href="../../de/db0/class_file_def.html" target="_top" xlink:title="A model of a file symbol.">
<polygon fill="white" stroke="#666666" points="239.5,-865.6 188.5,-865.6 188.5,-846.6 239.5,-846.6 239.5,-865.6"/>
<text text-anchor="middle" x="214" y="-853.6" font-family="Helvetica,sans-Serif" font-size="10.00">FileDef</text>
</a>
</g>
</g>
<!-- Node4&#45;&gt;Node16 -->
<g id="edge18" class="edge">
<title>Node4&#45;&gt;Node16</title>
<path fill="none" stroke="#63b8ff" d="M55.11,-641.75C60.76,-684.3 80.19,-785.37 141,-838.1 154.04,-849.41 173.16,-853.82 188.42,-855.44"/>
<polygon fill="#63b8ff" stroke="#63b8ff" points="58.56,-641.11 53.88,-631.61 51.61,-641.95 58.56,-641.11"/>
</g>
<!-- Node5 -->
<g id="node5" class="node">
<title>Node5</title>
<g id="a_node5"><a xlink:href="../../d0/d07/class_namespace_def.html" target="_top" xlink:title="An abstract interface of a namespace symbol.">
<polygon fill="white" stroke="#666666" points="260,-494.6 168,-494.6 168,-475.6 260,-475.6 260,-494.6"/>
<text text-anchor="middle" x="214" y="-482.6" font-family="Helvetica,sans-Serif" font-size="10.00">NamespaceDef</text>
</a>
</g>
</g>
<!-- Node5&#45;&gt;Node3 -->
<g id="edge4" class="edge">
<title>Node5&#45;&gt;Node3</title>
<path fill="none" stroke="#63b8ff" d="M263.82,-473.08C305.68,-462.78 365.18,-448.14 403.81,-438.63"/>
<polygon fill="#63b8ff" stroke="#63b8ff" points="262.72,-469.75 253.85,-475.54 264.4,-476.55 262.72,-469.75"/>
</g>
<!-- Node6 -->
<g id="node6" class="node">
<title>Node6</title>
<g id="a_node6"><a xlink:href="../../d5/dcc/class_definition.html" target="_top" xlink:title="The common base class of all entity definitions found in the sources.">
<polygon fill="white" stroke="#666666" points="84,-865.6 20,-865.6 20,-846.6 84,-846.6 84,-865.6"/>
<text text-anchor="middle" x="52" y="-853.6" font-family="Helvetica,sans-Serif" font-size="10.00">Definition</text>
</a>
</g>
</g>
<!-- Node6&#45;&gt;Node5 -->
<g id="edge5" class="edge">
<title>Node6&#45;&gt;Node5</title>
<path fill="none" stroke="#63b8ff" d="M57.21,-836.44C70.13,-777.08 110.25,-600.72 141,-551.1 155.92,-527.03 182.01,-506.28 198.35,-494.76"/>
<polygon fill="#63b8ff" stroke="#63b8ff" points="53.75,-835.88 55.06,-846.4 60.59,-837.36 53.75,-835.88"/>
</g>
<!-- Node8 -->
<g id="node8" class="node">
<title>Node8</title>
<g id="a_node8"><a xlink:href="../../dd/d50/class_definition_impl_1_1_i_m_p_l.html" target="_top" xlink:title="Private data associated with a Symbol DefinitionImpl object.">
<polygon fill="white" stroke="#666666" points="775,-636.6 660,-636.6 660,-617.6 775,-617.6 775,-636.6"/>
<text text-anchor="middle" x="717.5" y="-624.6" font-family="Helvetica,sans-Serif" font-size="10.00">DefinitionImpl::IMPL</text>
</a>
</g>
</g>
<!-- Node6&#45;&gt;Node8 -->
<g id="edge8" class="edge">
<title>Node6&#45;&gt;Node8</title>
<path fill="none" stroke="#9a32cd" stroke-dasharray="5,2" d="M85.95,-869.29C183.49,-905.94 474.47,-997.75 642,-862.1 714.85,-803.12 717.58,-673.07 716.85,-636.71"/>
<polygon fill="#9a32cd" stroke="#9a32cd" points="86.92,-865.92 76.33,-865.62 84.42,-872.45 86.92,-865.92"/>
<text text-anchor="middle" x="332.5" y="-946.1" font-family="Helvetica,sans-Serif" font-size="10.00" fill="grey"> def</text>
<text text-anchor="middle" x="332.5" y="-935.1" font-family="Helvetica,sans-Serif" font-size="10.00" fill="grey">outerScope</text>
</g>
<!-- Node6&#45;&gt;Node16 -->
<g id="edge19" class="edge">
<title>Node6&#45;&gt;Node16</title>
<path fill="none" stroke="#63b8ff" d="M94.34,-856.1C124.14,-856.1 163.37,-856.1 188.4,-856.1"/>
<polygon fill="#63b8ff" stroke="#63b8ff" points="94.23,-852.6 84.23,-856.1 94.23,-859.6 94.23,-852.6"/>
</g>
<!-- Node7 -->
<g id="node7" class="node">
<title>Node7</title>
<g id="a_node7"><a xlink:href="../../d3/ddf/class_definition_impl.html" target="_top" xlink:title=" ">
<polygon fill="white" stroke="#666666" points="962.5,-560.6 876.5,-560.6 876.5,-541.6 962.5,-541.6 962.5,-560.6"/>
<text text-anchor="middle" x="919.5" y="-548.6" font-family="Helvetica,sans-Serif" font-size="10.00">DefinitionImpl</text>
</a>
</g>
</g>
<!-- Node7&#45;&gt;Node2 -->
<g id="edge6" class="edge">
<title>Node7&#45;&gt;Node2</title>
<path fill="none" stroke="#9a32cd" stroke-dasharray="5,2" d="M972.67,-546.29C1019.97,-542.01 1091.63,-535.73 1154,-531.1 1288.74,-521.11 1445.7,-511.76 1537.91,-506.5"/>
<polygon fill="#9a32cd" stroke="#9a32cd" points="972.3,-542.81 962.66,-547.2 972.93,-549.78 972.3,-542.81"/>
<text text-anchor="middle" x="1236.5" y="-534.1" font-family="Helvetica,sans-Serif" font-size="10.00" fill="grey"> m_impl</text>
</g>
<!-- Node18 -->
<g id="node18" class="node">
<title>Node18</title>
<g id="a_node18"><a xlink:href="../../dd/d10/class_definition_mixin.html" target="_top" xlink:title=" ">
<polygon fill="white" stroke="#666666" points="1305,-569.6 1168,-569.6 1168,-550.6 1305,-550.6 1305,-569.6"/>
<text text-anchor="middle" x="1236.5" y="-557.6" font-family="Helvetica,sans-Serif" font-size="10.00">DefinitionMixin&lt; Base &gt;</text>
</a>
</g>
</g>
<!-- Node7&#45;&gt;Node18 -->
<g id="edge24" class="edge">
<title>Node7&#45;&gt;Node18</title>
<path fill="none" stroke="#9a32cd" stroke-dasharray="5,2" d="M972.94,-552.6C1026.41,-554.13 1109.59,-556.51 1167.97,-558.17"/>
<polygon fill="#9a32cd" stroke="#9a32cd" points="972.75,-549.09 962.66,-552.31 972.55,-556.09 972.75,-549.09"/>
<text text-anchor="middle" x="1071" y="-560.1" font-family="Helvetica,sans-Serif" font-size="10.00" fill="grey"> m_impl</text>
</g>
<!-- Node8&#45;&gt;Node7 -->
<g id="edge7" class="edge">
<title>Node8&#45;&gt;Node7</title>
<path fill="none" stroke="#9a32cd" stroke-dasharray="5,2" d="M747.49,-613.32C774.04,-601.01 814.63,-582.98 851,-570.1 860.64,-566.69 871.22,-563.47 881.09,-560.69"/>
<polygon fill="#9a32cd" stroke="#9a32cd" points="745.95,-610.17 738.37,-617.57 748.92,-616.51 745.95,-610.17"/>
<text text-anchor="middle" x="813" y="-594.1" font-family="Helvetica,sans-Serif" font-size="10.00" fill="grey"> m_impl</text>
</g>
<!-- Node9 -->
<g id="node9" class="node">
<title>Node9</title>
<g id="a_node9"><a xlink:href="../../d1/df9/class_section_refs.html" target="_top" xlink:title="class that represents a list of constant references to sections.">
<polygon fill="white" stroke="#666666" points="480.5,-522.6 406.5,-522.6 406.5,-503.6 480.5,-503.6 480.5,-522.6"/>
<text text-anchor="middle" x="443.5" y="-510.6" font-family="Helvetica,sans-Serif" font-size="10.00">SectionRefs</text>
</a>
</g>
</g>
<!-- Node9&#45;&gt;Node8 -->
<g id="edge9" class="edge">
<title>Node9&#45;&gt;Node8</title>
<path fill="none" stroke="#9a32cd" stroke-dasharray="5,2" d="M491.08,-507.64C533.12,-504.92 595.34,-506.56 642,-532.1 678.22,-551.93 702.81,-597.5 712.22,-617.45"/>
<polygon fill="#9a32cd" stroke="#9a32cd" points="490.55,-504.17 480.84,-508.41 491.08,-511.15 490.55,-504.17"/>
<text text-anchor="middle" x="584.5" y="-535.1" font-family="Helvetica,sans-Serif" font-size="10.00" fill="grey"> sectionRefs</text>
</g>
<!-- Node10 -->
<g id="node10" class="node">
<title>Node10</title>
<g id="a_node10"><a xlink:href="../../d3/d3b/class_group_list.html" target="_top" xlink:title=" ">
<polygon fill="white" stroke="#666666" points="475,-828.6 412,-828.6 412,-809.6 475,-809.6 475,-828.6"/>
<text text-anchor="middle" x="443.5" y="-816.6" font-family="Helvetica,sans-Serif" font-size="10.00">GroupList</text>
</a>
</g>
</g>
<!-- Node10&#45;&gt;Node8 -->
<g id="edge10" class="edge">
<title>Node10&#45;&gt;Node8</title>
<path fill="none" stroke="#9a32cd" stroke-dasharray="5,2" d="M484.78,-806.42C493.02,-803.19 501.47,-799.4 509,-795.1 593.55,-746.87 679.01,-664.72 707,-636.75"/>
<polygon fill="#9a32cd" stroke="#9a32cd" points="483.44,-803.18 475.27,-809.94 485.87,-809.74 483.44,-803.18"/>
<text text-anchor="middle" x="584.5" y="-786.1" font-family="Helvetica,sans-Serif" font-size="10.00" fill="grey"> partOfGroups</text>
</g>
<!-- Node11 -->
<g id="node11" class="node">
<title>Node11</title>
<g id="a_node11"><a xlink:title=" ">
<polygon fill="white" stroke="#666666" points="287,-828.6 141,-828.6 141,-809.6 287,-809.6 287,-828.6"/>
<text text-anchor="middle" x="214" y="-816.6" font-family="Helvetica,sans-Serif" font-size="10.00">std::vector&lt; GroupDef * &gt;</text>
</a>
</g>
</g>
<!-- Node11&#45;&gt;Node10 -->
<g id="edge11" class="edge">
<title>Node11&#45;&gt;Node10</title>
<path fill="none" stroke="#63b8ff" d="M297.54,-819.1C337.33,-819.1 382.63,-819.1 411.85,-819.1"/>
<polygon fill="#63b8ff" stroke="#63b8ff" points="297.3,-815.6 287.3,-819.1 297.29,-822.6 297.3,-815.6"/>
</g>
<!-- Node12 -->
<g id="node12" class="node">
<title>Node12</title>
<g id="a_node12"><a xlink:href="../../d7/dd5/struct_doc_info.html" target="_top" xlink:title="Data associated with a detailed description.">
<polygon fill="white" stroke="#666666" points="470.5,-559.6 416.5,-559.6 416.5,-540.6 470.5,-540.6 470.5,-559.6"/>
<text text-anchor="middle" x="443.5" y="-547.6" font-family="Helvetica,sans-Serif" font-size="10.00">DocInfo</text>
</a>
</g>
</g>
<!-- Node12&#45;&gt;Node8 -->
<g id="edge12" class="edge">
<title>Node12&#45;&gt;Node8</title>
<path fill="none" stroke="#9a32cd" stroke-dasharray="5,2" d="M480.52,-547.36C521.23,-545.61 588.77,-546.82 642,-568.1 669.58,-579.13 695.2,-603.82 707.99,-617.51"/>
<polygon fill="#9a32cd" stroke="#9a32cd" points="480.33,-543.87 470.52,-547.87 480.69,-550.86 480.33,-543.87"/>
<text text-anchor="middle" x="584.5" y="-582.1" font-family="Helvetica,sans-Serif" font-size="10.00" fill="grey"> details</text>
<text text-anchor="middle" x="584.5" y="-571.1" font-family="Helvetica,sans-Serif" font-size="10.00" fill="grey">inbodyDocs</text>
</g>
<!-- Node13 -->
<g id="node13" class="node">
<title>Node13</title>
<g id="a_node13"><a xlink:href="../../d9/d45/class_q_c_string.html" target="_top" xlink:title="This is an alternative implementation of QCString.">
<polygon fill="white" stroke="#666666" points="243.5,-578.6 184.5,-578.6 184.5,-559.6 243.5,-559.6 243.5,-578.6"/>
<text text-anchor="middle" x="214" y="-566.6" font-family="Helvetica,sans-Serif" font-size="10.00">QCString</text>
</a>
</g>
</g>
<!-- Node13&#45;&gt;Node1 -->
<g id="edge25" class="edge">
<title>Node13&#45;&gt;Node1</title>
<path fill="none" stroke="#9a32cd" stroke-dasharray="5,2" d="M236.51,-553.49C275.51,-526.76 361.39,-475.1 442.5,-475.1 442.5,-475.1 442.5,-475.1 1072,-475.1 1236.94,-475.1 1674.64,-490.35 1810,-396.1 1859.21,-361.84 1877.06,-284.88 1881.95,-257.77"/>
<polygon fill="#9a32cd" stroke="#9a32cd" points="234.25,-550.8 228.06,-559.4 238.26,-556.54 234.25,-550.8"/>
<text text-anchor="middle" x="919.5" y="-489.1" font-family="Helvetica,sans-Serif" font-size="10.00" fill="grey"> fileName</text>
<text text-anchor="middle" x="919.5" y="-478.1" font-family="Helvetica,sans-Serif" font-size="10.00" fill="grey">metaData</text>
</g>
<!-- Node13&#45;&gt;Node8 -->
<g id="edge20" class="edge">
<title>Node13&#45;&gt;Node8</title>
<path fill="none" stroke="#9a32cd" stroke-dasharray="5,2" d="M238.63,-583.98C269.34,-602.31 325.29,-632.35 378,-643.1 493.03,-666.57 526.13,-671.02 642,-652.1 660.04,-649.16 679.61,-642.44 694.16,-636.72"/>
<polygon fill="#9a32cd" stroke="#9a32cd" points="240.3,-580.9 229.94,-578.7 236.67,-586.88 240.3,-580.9"/>
<text text-anchor="middle" x="443.5" y="-776.1" font-family="Helvetica,sans-Serif" font-size="10.00" fill="grey"> briefSignatures</text>
<text text-anchor="middle" x="443.5" y="-765.1" font-family="Helvetica,sans-Serif" font-size="10.00" fill="grey">defFileExt</text>
<text text-anchor="middle" x="443.5" y="-754.1" font-family="Helvetica,sans-Serif" font-size="10.00" fill="grey">defFileName</text>
<text text-anchor="middle" x="443.5" y="-743.1" font-family="Helvetica,sans-Serif" font-size="10.00" fill="grey">docSignatures</text>
<text text-anchor="middle" x="443.5" y="-732.1" font-family="Helvetica,sans-Serif" font-size="10.00" fill="grey">id</text>
<text text-anchor="middle" x="443.5" y="-721.1" font-family="Helvetica,sans-Serif" font-size="10.00" fill="grey">localName</text>
<text text-anchor="middle" x="443.5" y="-710.1" font-family="Helvetica,sans-Serif" font-size="10.00" fill="grey">name</text>
<text text-anchor="middle" x="443.5" y="-699.1" font-family="Helvetica,sans-Serif" font-size="10.00" fill="grey">qualifiedName</text>
<text text-anchor="middle" x="443.5" y="-688.1" font-family="Helvetica,sans-Serif" font-size="10.00" fill="grey">ref</text>
<text text-anchor="middle" x="443.5" y="-677.1" font-family="Helvetica,sans-Serif" font-size="10.00" fill="grey">symbolName</text>
<text text-anchor="middle" x="443.5" y="-666.1" font-family="Helvetica,sans-Serif" font-size="10.00" fill="grey">...</text>
</g>
<!-- Node13&#45;&gt;Node12 -->
<g id="edge13" class="edge">
<title>Node13&#45;&gt;Node12</title>
<path fill="none" stroke="#9a32cd" stroke-dasharray="5,2" d="M253.5,-559.14C269.33,-555.52 287.93,-551.88 305,-550.1 343.58,-546.07 388.59,-547.16 416.31,-548.49"/>
<polygon fill="#9a32cd" stroke="#9a32cd" points="252.46,-555.78 243.54,-561.49 254.07,-562.6 252.46,-555.78"/>
<text text-anchor="middle" x="332.5" y="-564.1" font-family="Helvetica,sans-Serif" font-size="10.00" fill="grey"> doc</text>
<text text-anchor="middle" x="332.5" y="-553.1" font-family="Helvetica,sans-Serif" font-size="10.00" fill="grey">file</text>
</g>
<!-- Node14 -->
<g id="node14" class="node">
<title>Node14</title>
<g id="a_node14"><a xlink:href="../../d0/da7/struct_brief_info.html" target="_top" xlink:title="Data associated with a brief description.">
<polygon fill="white" stroke="#666666" points="473,-596.6 414,-596.6 414,-577.6 473,-577.6 473,-596.6"/>
<text text-anchor="middle" x="443.5" y="-584.6" font-family="Helvetica,sans-Serif" font-size="10.00">BriefInfo</text>
</a>
</g>
</g>
<!-- Node13&#45;&gt;Node14 -->
<g id="edge15" class="edge">
<title>Node13&#45;&gt;Node14</title>
<path fill="none" stroke="#9a32cd" stroke-dasharray="5,2" d="M253.88,-572.18C299.33,-575.77 373.45,-581.64 413.92,-584.84"/>
<polygon fill="#9a32cd" stroke="#9a32cd" points="254.06,-568.68 243.81,-571.38 253.51,-575.66 254.06,-568.68"/>
<text text-anchor="middle" x="332.5" y="-605.1" font-family="Helvetica,sans-Serif" font-size="10.00" fill="grey"> doc</text>
<text text-anchor="middle" x="332.5" y="-594.1" font-family="Helvetica,sans-Serif" font-size="10.00" fill="grey">file</text>
<text text-anchor="middle" x="332.5" y="-583.1" font-family="Helvetica,sans-Serif" font-size="10.00" fill="grey">tooltip</text>
</g>
<!-- Node14&#45;&gt;Node8 -->
<g id="edge14" class="edge">
<title>Node14&#45;&gt;Node8</title>
<path fill="none" stroke="#9a32cd" stroke-dasharray="5,2" d="M483.23,-589.96C523.2,-593.26 587.26,-599.48 642,-609.1 654.84,-611.36 668.77,-614.53 681.07,-617.58"/>
<polygon fill="#9a32cd" stroke="#9a32cd" points="483.36,-586.46 473.12,-589.15 482.8,-593.44 483.36,-586.46"/>
<text text-anchor="middle" x="584.5" y="-612.1" font-family="Helvetica,sans-Serif" font-size="10.00" fill="grey"> brief</text>
</g>
<!-- Node15 -->
<g id="node15" class="node">
<title>Node15</title>
<g id="a_node15"><a xlink:href="../../db/dab/struct_body_info.html" target="_top" xlink:title="Data associated with description found in the body.">
<polygon fill="white" stroke="#666666" points="473.5,-865.6 413.5,-865.6 413.5,-846.6 473.5,-846.6 473.5,-865.6"/>
<text text-anchor="middle" x="443.5" y="-853.6" font-family="Helvetica,sans-Serif" font-size="10.00">BodyInfo</text>
</a>
</g>
</g>
<!-- Node15&#45;&gt;Node8 -->
<g id="edge16" class="edge">
<title>Node15&#45;&gt;Node8</title>
<path fill="none" stroke="#9a32cd" stroke-dasharray="5,2" d="M483.89,-854.26C527.52,-850.23 597.56,-837.56 642,-798.1 693.1,-752.74 710.57,-665.99 715.14,-636.89"/>
<polygon fill="#9a32cd" stroke="#9a32cd" points="483.35,-850.79 473.67,-855.09 483.92,-857.77 483.35,-850.79"/>
<text text-anchor="middle" x="584.5" y="-850.1" font-family="Helvetica,sans-Serif" font-size="10.00" fill="grey"> body</text>
</g>
<!-- Node16&#45;&gt;Node15 -->
<g id="edge17" class="edge">
<title>Node16&#45;&gt;Node15</title>
<path fill="none" stroke="#9a32cd" stroke-dasharray="5,2" d="M249.9,-856.1C294.73,-856.1 371.69,-856.1 413.47,-856.1"/>
<polygon fill="#9a32cd" stroke="#9a32cd" points="249.78,-852.6 239.78,-856.1 249.78,-859.6 249.78,-852.6"/>
<text text-anchor="middle" x="332.5" y="-859.1" font-family="Helvetica,sans-Serif" font-size="10.00" fill="grey"> fileDef</text>
</g>
<!-- Node17 -->
<g id="node17" class="node">
<title>Node17</title>
<g id="a_node17"><a xlink:href="../../d1/d7d/class_member_vector.html" target="_top" xlink:title="A vector of MemberDef object.">
<polygon fill="white" stroke="#666666" points="487.5,-633.6 399.5,-633.6 399.5,-614.6 487.5,-614.6 487.5,-633.6"/>
<text text-anchor="middle" x="443.5" y="-621.6" font-family="Helvetica,sans-Serif" font-size="10.00">MemberVector</text>
</a>
</g>
</g>
<!-- Node17&#45;&gt;Node8 -->
<g id="edge21" class="edge">
<title>Node17&#45;&gt;Node8</title>
<path fill="none" stroke="#9a32cd" stroke-dasharray="5,2" d="M497.82,-624.69C544.54,-625.21 612.24,-625.95 659.91,-626.48"/>
<polygon fill="#9a32cd" stroke="#9a32cd" points="497.64,-621.19 487.6,-624.58 497.56,-628.19 497.64,-621.19"/>
<text text-anchor="middle" x="584.5" y="-640.1" font-family="Helvetica,sans-Serif" font-size="10.00" fill="grey"> referencedByMembers</text>
<text text-anchor="middle" x="584.5" y="-629.1" font-family="Helvetica,sans-Serif" font-size="10.00" fill="grey">referencesMembers</text>
</g>
<!-- Node18&#45;&gt;Node2 -->
<g id="edge22" class="edge">
<title>Node18&#45;&gt;Node2</title>
<path fill="none" stroke="orange" stroke-dasharray="5,2" d="M1315.29,-558.22C1372.45,-555.64 1451.72,-549.52 1520,-535.1 1540.02,-530.88 1561.62,-523.79 1579.35,-517.26"/>
<polygon fill="orange" stroke="orange" points="1315.08,-554.73 1305.24,-558.65 1315.38,-561.72 1315.08,-554.73"/>
<text text-anchor="middle" x="1428.5" y="-559.1" font-family="Helvetica,sans-Serif" font-size="10.00" fill="grey"> &lt; NamespaceDefMutable &gt;</text>
</g>
<!-- Node19 -->
<g id="node19" class="node">
<title>Node19</title>
<g id="a_node19"><a xlink:title=" ">
<polygon fill="white" stroke="#666666" points="940,-597.6 899,-597.6 899,-578.6 940,-578.6 940,-597.6"/>
<text text-anchor="middle" x="919.5" y="-585.6" font-family="Helvetica,sans-Serif" font-size="10.00">Base</text>
</a>
</g>
</g>
<!-- Node19&#45;&gt;Node18 -->
<g id="edge23" class="edge">
<title>Node19&#45;&gt;Node18</title>
<path fill="none" stroke="#63b8ff" d="M950.13,-586.33C991.71,-583.75 1069.71,-578.56 1136,-572.1 1146.3,-571.1 1157.19,-569.91 1167.84,-568.69"/>
<polygon fill="#63b8ff" stroke="#63b8ff" points="949.9,-582.84 940.14,-586.95 950.33,-589.83 949.9,-582.84"/>
</g>
<!-- Node20 -->
<g id="node20" class="node">
<title>Node20</title>
<g id="a_node20"><a xlink:href="../../d0/d18/class_file_list.html" target="_top" xlink:title=" ">
<polygon fill="white" stroke="#666666" points="1643.5,-396.6 1592.5,-396.6 1592.5,-377.6 1643.5,-377.6 1643.5,-396.6"/>
<text text-anchor="middle" x="1618" y="-384.6" font-family="Helvetica,sans-Serif" font-size="10.00">FileList</text>
</a>
</g>
</g>
<!-- Node20&#45;&gt;Node1 -->
<g id="edge26" class="edge">
<title>Node20&#45;&gt;Node1</title>
<path fill="none" stroke="#9a32cd" stroke-dasharray="5,2" d="M1653.89,-387.32C1694.46,-386 1761.98,-378.83 1810,-348.1 1845.94,-325.11 1870.25,-277.86 1879.42,-257.64"/>
<polygon fill="#9a32cd" stroke="#9a32cd" points="1653.61,-383.82 1643.69,-387.54 1653.77,-390.82 1653.61,-383.82"/>
<text text-anchor="middle" x="1763" y="-384.1" font-family="Helvetica,sans-Serif" font-size="10.00" fill="grey"> files</text>
</g>
<!-- Node21 -->
<g id="node21" class="node">
<title>Node21</title>
<g id="a_node21"><a xlink:title=" ">
<polygon fill="white" stroke="#666666" points="1289.5,-409.1 1183.5,-409.1 1183.5,-379.1 1289.5,-379.1 1289.5,-409.1"/>
<text text-anchor="start" x="1191.5" y="-397.1" font-family="Helvetica,sans-Serif" font-size="10.00">std::vector&lt; const</text>
<text text-anchor="middle" x="1236.5" y="-386.1" font-family="Helvetica,sans-Serif" font-size="10.00"> FileDef * &gt;</text>
</a>
</g>
</g>
<!-- Node21&#45;&gt;Node20 -->
<g id="edge27" class="edge">
<title>Node21&#45;&gt;Node20</title>
<path fill="none" stroke="#63b8ff" d="M1299.93,-392.95C1385.06,-391.38 1533.68,-388.64 1592.26,-387.56"/>
<polygon fill="#63b8ff" stroke="#63b8ff" points="1299.8,-389.45 1289.87,-393.14 1299.93,-396.45 1299.8,-389.45"/>
</g>
<!-- Node22 -->
<g id="node22" class="node">
<title>Node22</title>
<g id="a_node22"><a xlink:href="../../d2/db7/class_linked_ref_map.html" target="_top" xlink:title=" ">
<polygon fill="white" stroke="#666666" points="1520,-231.6 1337,-231.6 1337,-212.6 1520,-212.6 1520,-231.6"/>
<text text-anchor="middle" x="1428.5" y="-219.6" font-family="Helvetica,sans-Serif" font-size="10.00">LinkedRefMap&lt; NamespaceDef &gt;</text>
</a>
</g>
</g>
<!-- Node22&#45;&gt;Node1 -->
<g id="edge28" class="edge">
<title>Node22&#45;&gt;Node1</title>
<path fill="none" stroke="#9a32cd" stroke-dasharray="5,2" d="M1530.15,-227.87C1621.82,-233.12 1753.85,-240.68 1827.83,-244.91"/>
<polygon fill="#9a32cd" stroke="#9a32cd" points="1530.19,-224.36 1520.01,-227.29 1529.79,-231.35 1530.19,-224.36"/>
<text text-anchor="middle" x="1618" y="-240.1" font-family="Helvetica,sans-Serif" font-size="10.00" fill="grey"> m_usingDirList</text>
</g>
<!-- Node23 -->
<g id="node23" class="node">
<title>Node23</title>
<g id="a_node23"><a xlink:href="../../d2/db7/class_linked_ref_map.html" target="_top" xlink:title="Container class representing a vector of objects with keys.">
<polygon fill="white" stroke="#666666" points="988,-250.1 851,-250.1 851,-220.1 988,-220.1 988,-250.1"/>
<text text-anchor="start" x="859" y="-238.1" font-family="Helvetica,sans-Serif" font-size="10.00">LinkedRefMap&lt; T, Hash,</text>
<text text-anchor="middle" x="919.5" y="-227.1" font-family="Helvetica,sans-Serif" font-size="10.00"> KeyEqual, Map &gt;</text>
</a>
</g>
</g>
<!-- Node23&#45;&gt;Node22 -->
<g id="edge29" class="edge">
<title>Node23&#45;&gt;Node22</title>
<path fill="none" stroke="orange" stroke-dasharray="5,2" d="M998.27,-227.55C1000.88,-227.39 1003.46,-227.24 1006,-227.1 1120.01,-221.1 1251.59,-220.56 1336.99,-221.05"/>
<polygon fill="orange" stroke="orange" points="997.87,-224.07 988.14,-228.26 998.36,-231.06 997.87,-224.07"/>
<text text-anchor="middle" x="1071" y="-230.1" font-family="Helvetica,sans-Serif" font-size="10.00" fill="grey"> &lt; NamespaceDef &gt;</text>
</g>
<!-- Node24 -->
<g id="node24" class="node">
<title>Node24</title>
<g id="a_node24"><a xlink:href="../../d2/db7/class_linked_ref_map.html" target="_top" xlink:title=" ">
<polygon fill="white" stroke="#666666" points="1312.5,-92.6 1160.5,-92.6 1160.5,-73.6 1312.5,-73.6 1312.5,-92.6"/>
<text text-anchor="middle" x="1236.5" y="-80.6" font-family="Helvetica,sans-Serif" font-size="10.00">LinkedRefMap&lt; ClassDef &gt;</text>
</a>
</g>
</g>
<!-- Node23&#45;&gt;Node24 -->
<g id="edge31" class="edge">
<title>Node23&#45;&gt;Node24</title>
<path fill="none" stroke="orange" stroke-dasharray="5,2" d="M950.24,-214.23C993.25,-184.99 1076.2,-132.05 1154,-102.1 1163.76,-98.34 1174.48,-95.2 1184.84,-92.61"/>
<polygon fill="orange" stroke="orange" points="948.2,-211.39 941.93,-219.93 952.16,-217.16 948.2,-211.39"/>
<text text-anchor="middle" x="1071" y="-180.1" font-family="Helvetica,sans-Serif" font-size="10.00" fill="grey"> &lt; ClassDef &gt;</text>
</g>
<!-- Node25 -->
<g id="node25" class="node">
<title>Node25</title>
<g id="a_node25"><a xlink:href="../../d2/db7/class_linked_ref_map.html" target="_top" xlink:title=" ">
<polygon fill="white" stroke="#666666" points="1490,-46.1 1367,-46.1 1367,-16.1 1490,-16.1 1490,-46.1"/>
<text text-anchor="start" x="1375" y="-34.1" font-family="Helvetica,sans-Serif" font-size="10.00">LinkedRefMap&lt; const</text>
<text text-anchor="middle" x="1428.5" y="-23.1" font-family="Helvetica,sans-Serif" font-size="10.00"> Definition &gt;</text>
</a>
</g>
</g>
<!-- Node23&#45;&gt;Node25 -->
<g id="edge33" class="edge">
<title>Node23&#45;&gt;Node25</title>
<path fill="none" stroke="orange" stroke-dasharray="5,2" d="M928.78,-210.31C940.68,-178.66 965.73,-124.62 1006,-96.1 1114.77,-19.08 1278.96,-18.24 1366.87,-24.52"/>
<polygon fill="orange" stroke="orange" points="925.48,-209.14 925.38,-219.73 932.07,-211.52 925.48,-209.14"/>
<text text-anchor="middle" x="1071" y="-99.1" font-family="Helvetica,sans-Serif" font-size="10.00" fill="grey"> &lt; const Definition &gt;</text>
</g>
<!-- Node27 -->
<g id="node27" class="node">
<title>Node27</title>
<g id="a_node27"><a xlink:href="../../d2/db7/class_linked_ref_map.html" target="_top" xlink:title=" ">
<polygon fill="white" stroke="#666666" points="1298,-361.1 1175,-361.1 1175,-331.1 1298,-331.1 1298,-361.1"/>
<text text-anchor="start" x="1183" y="-349.1" font-family="Helvetica,sans-Serif" font-size="10.00">LinkedRefMap&lt; const</text>
<text text-anchor="middle" x="1236.5" y="-338.1" font-family="Helvetica,sans-Serif" font-size="10.00"> MemberDef &gt;</text>
</a>
</g>
</g>
<!-- Node23&#45;&gt;Node27 -->
<g id="edge36" class="edge">
<title>Node23&#45;&gt;Node27</title>
<path fill="none" stroke="orange" stroke-dasharray="5,2" d="M941.25,-257.74C957.32,-273.83 981.01,-294.56 1006,-306.1 1059.79,-330.95 1127.17,-340.46 1174.98,-344.05"/>
<polygon fill="orange" stroke="orange" points="943.47,-255.01 933.99,-250.28 938.45,-259.89 943.47,-255.01"/>
<text text-anchor="middle" x="1071" y="-342.1" font-family="Helvetica,sans-Serif" font-size="10.00" fill="grey"> &lt; const MemberDef &gt;</text>
</g>
<!-- Node34 -->
<g id="node34" class="node">
<title>Node34</title>
<g id="a_node34"><a xlink:href="../../d2/db7/class_linked_ref_map.html" target="_top" xlink:title=" ">
<polygon fill="white" stroke="#666666" points="1319,-312.6 1154,-312.6 1154,-293.6 1319,-293.6 1319,-312.6"/>
<text text-anchor="middle" x="1236.5" y="-300.6" font-family="Helvetica,sans-Serif" font-size="10.00">LinkedRefMap&lt; ConceptDef &gt;</text>
</a>
</g>
</g>
<!-- Node23&#45;&gt;Node34 -->
<g id="edge45" class="edge">
<title>Node23&#45;&gt;Node34</title>
<path fill="none" stroke="orange" stroke-dasharray="5,2" d="M967.2,-253.83C979.66,-258.33 993.22,-262.79 1006,-266.1 1054.34,-278.64 1109.58,-287.71 1153.74,-293.72"/>
<polygon fill="orange" stroke="orange" points="968.07,-250.42 957.48,-250.23 965.64,-256.98 968.07,-250.42"/>
<text text-anchor="middle" x="1071" y="-294.1" font-family="Helvetica,sans-Serif" font-size="10.00" fill="grey"> &lt; ConceptDef &gt;</text>
</g>
<!-- Node36 -->
<g id="node36" class="node">
<title>Node36</title>
<g id="a_node36"><a xlink:href="../../d2/db7/class_linked_ref_map.html" target="_top" xlink:title=" ">
<polygon fill="white" stroke="#666666" points="1298,-275.1 1175,-275.1 1175,-245.1 1298,-245.1 1298,-275.1"/>
<text text-anchor="start" x="1183" y="-263.1" font-family="Helvetica,sans-Serif" font-size="10.00">LinkedRefMap&lt; const</text>
<text text-anchor="middle" x="1236.5" y="-252.1" font-family="Helvetica,sans-Serif" font-size="10.00"> NamespaceDef &gt;</text>
</a>
</g>
</g>
<!-- Node23&#45;&gt;Node36 -->
<g id="edge48" class="edge">
<title>Node23&#45;&gt;Node36</title>
<path fill="none" stroke="orange" stroke-dasharray="5,2" d="M998.05,-241.26C1052.62,-245.59 1124.61,-251.3 1174.96,-255.3"/>
<polygon fill="orange" stroke="orange" points="998.32,-237.77 988.08,-240.47 997.77,-244.75 998.32,-237.77"/>
<text text-anchor="middle" x="1071" y="-254.1" font-family="Helvetica,sans-Serif" font-size="10.00" fill="grey"> &lt; const NamespaceDef &gt;</text>
</g>
<!-- Node24&#45;&gt;Node1 -->
<g id="edge30" class="edge">
<title>Node24&#45;&gt;Node1</title>
<path fill="none" stroke="#9a32cd" stroke-dasharray="5,2" d="M1322.79,-77.88C1472.59,-69.48 1770.86,-56.43 1810,-83.1 1864.94,-120.54 1879.29,-209.13 1882.6,-238.47"/>
<polygon fill="#9a32cd" stroke="#9a32cd" points="1322.49,-74.39 1312.71,-78.45 1322.89,-81.38 1322.49,-74.39"/>
<text text-anchor="middle" x="1618" y="-72.1" font-family="Helvetica,sans-Serif" font-size="10.00" fill="grey"> m_usingDeclList</text>
</g>
<!-- Node32 -->
<g id="node32" class="node">
<title>Node32</title>
<g id="a_node32"><a xlink:href="../../da/d08/class_class_linked_ref_map.html" target="_top" xlink:title=" ">
<polygon fill="white" stroke="#666666" points="1674,-117.6 1562,-117.6 1562,-98.6 1674,-98.6 1674,-117.6"/>
<text text-anchor="middle" x="1618" y="-105.6" font-family="Helvetica,sans-Serif" font-size="10.00">ClassLinkedRefMap</text>
</a>
</g>
</g>
<!-- Node24&#45;&gt;Node32 -->
<g id="edge42" class="edge">
<title>Node24&#45;&gt;Node32</title>
<path fill="none" stroke="#63b8ff" d="M1323.05,-88.74C1396.22,-93.56 1499.34,-100.35 1561.99,-104.48"/>
<polygon fill="#63b8ff" stroke="#63b8ff" points="1323.14,-85.24 1312.93,-88.07 1322.68,-92.22 1323.14,-85.24"/>
</g>
<!-- Node25&#45;&gt;Node1 -->
<g id="edge32" class="edge">
<title>Node25&#45;&gt;Node1</title>
<path fill="none" stroke="#9a32cd" stroke-dasharray="5,2" d="M1496.39,-13.97C1579.69,3.06 1721.76,17.35 1810,-55.1 1869.58,-104.02 1880.93,-206.9 1883.03,-238.6"/>
<polygon fill="#9a32cd" stroke="#9a32cd" points="1495.59,-10.56 1486.53,-16.05 1497.04,-17.41 1495.59,-10.56"/>
<text text-anchor="middle" x="1618" y="-10.1" font-family="Helvetica,sans-Serif" font-size="10.00" fill="grey"> m_innerCompounds</text>
</g>
<!-- Node26 -->
<g id="node26" class="node">
<title>Node26</title>
<g id="a_node26"><a xlink:href="../../dc/d77/class_member_linked_ref_map.html" target="_top" xlink:title=" ">
<polygon fill="white" stroke="#666666" points="1681,-351.6 1555,-351.6 1555,-332.6 1681,-332.6 1681,-351.6"/>
<text text-anchor="middle" x="1618" y="-339.6" font-family="Helvetica,sans-Serif" font-size="10.00">MemberLinkedRefMap</text>
</a>
</g>
</g>
<!-- Node26&#45;&gt;Node1 -->
<g id="edge34" class="edge">
<title>Node26&#45;&gt;Node1</title>
<path fill="none" stroke="#9a32cd" stroke-dasharray="5,2" d="M1691.27,-337.33C1728.12,-332.83 1772.87,-324.08 1810,-307.1 1836.49,-294.99 1861.68,-271.2 1874.57,-257.82"/>
<polygon fill="#9a32cd" stroke="#9a32cd" points="1690.64,-333.88 1681.1,-338.49 1691.44,-340.84 1690.64,-333.88"/>
<text text-anchor="middle" x="1763" y="-336.1" font-family="Helvetica,sans-Serif" font-size="10.00" fill="grey"> m_allMembers</text>
</g>
<!-- Node27&#45;&gt;Node26 -->
<g id="edge35" class="edge">
<title>Node27&#45;&gt;Node26</title>
<path fill="none" stroke="#63b8ff" d="M1308.23,-345.36C1379.09,-344.61 1487.08,-343.47 1554.77,-342.76"/>
<polygon fill="#63b8ff" stroke="#63b8ff" points="1308.02,-341.86 1298.05,-345.46 1308.09,-348.86 1308.02,-341.86"/>
</g>
<!-- Node28 -->
<g id="node28" class="node">
<title>Node28</title>
<g id="a_node28"><a xlink:href="../../dd/d5a/class_member_lists.html" target="_top" xlink:title=" ">
<polygon fill="white" stroke="#666666" points="1658,-191.6 1578,-191.6 1578,-172.6 1658,-172.6 1658,-191.6"/>
<text text-anchor="middle" x="1618" y="-179.6" font-family="Helvetica,sans-Serif" font-size="10.00">MemberLists</text>
</a>
</g>
</g>
<!-- Node28&#45;&gt;Node1 -->
<g id="edge37" class="edge">
<title>Node28&#45;&gt;Node1</title>
<path fill="none" stroke="#9a32cd" stroke-dasharray="5,2" d="M1668.22,-182.1C1707.55,-183.43 1763.57,-188.35 1810,-204.1 1833.38,-212.03 1857.34,-228.18 1871.3,-238.55"/>
<polygon fill="#9a32cd" stroke="#9a32cd" points="1668.19,-178.6 1658.1,-181.83 1668,-185.6 1668.19,-178.6"/>
<text text-anchor="middle" x="1763" y="-207.1" font-family="Helvetica,sans-Serif" font-size="10.00" fill="grey"> m_memberLists</text>
</g>
<!-- Node29 -->
<g id="node29" class="node">
<title>Node29</title>
<g id="a_node29"><a xlink:title=" ">
<polygon fill="white" stroke="#666666" points="1303.5,-189.1 1169.5,-189.1 1169.5,-159.1 1303.5,-159.1 1303.5,-189.1"/>
<text text-anchor="start" x="1177.5" y="-177.1" font-family="Helvetica,sans-Serif" font-size="10.00">std::vector&lt; std::unique</text>
<text text-anchor="middle" x="1236.5" y="-166.1" font-family="Helvetica,sans-Serif" font-size="10.00">_ptr&lt; MemberList &gt; &gt;</text>
</a>
</g>
</g>
<!-- Node29&#45;&gt;Node28 -->
<g id="edge38" class="edge">
<title>Node29&#45;&gt;Node28</title>
<path fill="none" stroke="#63b8ff" d="M1314.09,-175.72C1393.88,-177.4 1515.73,-179.97 1577.76,-181.28"/>
<polygon fill="#63b8ff" stroke="#63b8ff" points="1313.68,-172.21 1303.6,-175.5 1313.53,-179.21 1313.68,-172.21"/>
</g>
<!-- Node30 -->
<g id="node30" class="node">
<title>Node30</title>
<g id="a_node30"><a xlink:href="../../df/d11/class_member_group_list.html" target="_top" xlink:title=" ">
<polygon fill="white" stroke="#666666" points="1670,-154.6 1566,-154.6 1566,-135.6 1670,-135.6 1670,-154.6"/>
<text text-anchor="middle" x="1618" y="-142.6" font-family="Helvetica,sans-Serif" font-size="10.00">MemberGroupList</text>
</a>
</g>
</g>
<!-- Node30&#45;&gt;Node1 -->
<g id="edge39" class="edge">
<title>Node30&#45;&gt;Node1</title>
<path fill="none" stroke="#9a32cd" stroke-dasharray="5,2" d="M1680.41,-148.67C1727.46,-152.23 1787.95,-158.83 1810,-170.1 1841.48,-186.2 1866.72,-221.37 1877.64,-238.43"/>
<polygon fill="#9a32cd" stroke="#9a32cd" points="1680.52,-145.17 1670.29,-147.94 1680.01,-152.15 1680.52,-145.17"/>
<text text-anchor="middle" x="1763" y="-173.1" font-family="Helvetica,sans-Serif" font-size="10.00" fill="grey"> m_memberGroups</text>
</g>
<!-- Node31 -->
<g id="node31" class="node">
<title>Node31</title>
<g id="a_node31"><a xlink:title=" ">
<polygon fill="white" stroke="#666666" points="1306,-141.1 1167,-141.1 1167,-111.1 1306,-111.1 1306,-141.1"/>
<text text-anchor="start" x="1175" y="-129.1" font-family="Helvetica,sans-Serif" font-size="10.00">std::vector&lt; std::unique</text>
<text text-anchor="middle" x="1236.5" y="-118.1" font-family="Helvetica,sans-Serif" font-size="10.00">_ptr&lt; MemberGroup &gt; &gt;</text>
</a>
</g>
</g>
<!-- Node31&#45;&gt;Node30 -->
<g id="edge40" class="edge">
<title>Node31&#45;&gt;Node30</title>
<path fill="none" stroke="#63b8ff" d="M1316.55,-130.06C1391.46,-133.81 1501.77,-139.33 1565.8,-142.54"/>
<polygon fill="#63b8ff" stroke="#63b8ff" points="1316.39,-126.55 1306.22,-129.54 1316.04,-133.54 1316.39,-126.55"/>
</g>
<!-- Node32&#45;&gt;Node1 -->
<g id="edge41" class="edge">
<title>Node32&#45;&gt;Node1</title>
<path fill="none" stroke="#9a32cd" stroke-dasharray="5,2" d="M1657.58,-95.85C1698.56,-85.29 1763.72,-75.76 1810,-104.1 1860.03,-134.74 1877.36,-211.33 1882.04,-238.42"/>
<polygon fill="#9a32cd" stroke="#9a32cd" points="1656.43,-92.53 1647.7,-98.53 1658.27,-99.29 1656.43,-92.53"/>
<text text-anchor="middle" x="1763" y="-140.1" font-family="Helvetica,sans-Serif" font-size="10.00" fill="grey"> classes</text>
<text text-anchor="middle" x="1763" y="-129.1" font-family="Helvetica,sans-Serif" font-size="10.00" fill="grey">exceptions</text>
<text text-anchor="middle" x="1763" y="-118.1" font-family="Helvetica,sans-Serif" font-size="10.00" fill="grey">interfaces</text>
<text text-anchor="middle" x="1763" y="-107.1" font-family="Helvetica,sans-Serif" font-size="10.00" fill="grey">structs</text>
</g>
<!-- Node33 -->
<g id="node33" class="node">
<title>Node33</title>
<g id="a_node33"><a xlink:href="../../d4/daa/class_concept_linked_ref_map.html" target="_top" xlink:title=" ">
<polygon fill="white" stroke="#666666" points="1680.5,-313.6 1555.5,-313.6 1555.5,-294.6 1680.5,-294.6 1680.5,-313.6"/>
<text text-anchor="middle" x="1618" y="-301.6" font-family="Helvetica,sans-Serif" font-size="10.00">ConceptLinkedRefMap</text>
</a>
</g>
</g>
<!-- Node33&#45;&gt;Node1 -->
<g id="edge43" class="edge">
<title>Node33&#45;&gt;Node1</title>
<path fill="none" stroke="#9a32cd" stroke-dasharray="5,2" d="M1690.61,-296.03C1726.73,-291.16 1771.04,-283.96 1810,-274.1 1827.06,-269.79 1845.75,-263.15 1860.01,-257.66"/>
<polygon fill="#9a32cd" stroke="#9a32cd" points="1690.11,-292.57 1680.65,-297.35 1691.03,-299.51 1690.11,-292.57"/>
<text text-anchor="middle" x="1763" y="-295.1" font-family="Helvetica,sans-Serif" font-size="10.00" fill="grey"> m_concepts</text>
</g>
<!-- Node34&#45;&gt;Node33 -->
<g id="edge44" class="edge">
<title>Node34&#45;&gt;Node33</title>
<path fill="none" stroke="#63b8ff" d="M1329.53,-303.34C1399.57,-303.53 1494.04,-303.78 1555.24,-303.94"/>
<polygon fill="#63b8ff" stroke="#63b8ff" points="1329.39,-299.84 1319.38,-303.32 1329.37,-306.84 1329.39,-299.84"/>
</g>
<!-- Node35 -->
<g id="node35" class="node">
<title>Node35</title>
<g id="a_node35"><a xlink:href="../../da/df0/class_namespace_linked_ref_map.html" target="_top" xlink:title=" ">
<polygon fill="white" stroke="#666666" points="1689.5,-276.6 1546.5,-276.6 1546.5,-257.6 1689.5,-257.6 1689.5,-276.6"/>
<text text-anchor="middle" x="1618" y="-264.6" font-family="Helvetica,sans-Serif" font-size="10.00">NamespaceLinkedRefMap</text>
</a>
</g>
</g>
<!-- Node35&#45;&gt;Node1 -->
<g id="edge46" class="edge">
<title>Node35&#45;&gt;Node1</title>
<path fill="none" stroke="#9a32cd" stroke-dasharray="5,2" d="M1699.62,-261.31C1741.09,-258.33 1790.6,-254.78 1827.79,-252.1"/>
<polygon fill="#9a32cd" stroke="#9a32cd" points="1699.26,-257.83 1689.53,-262.04 1699.76,-264.81 1699.26,-257.83"/>
<text text-anchor="middle" x="1763" y="-262.1" font-family="Helvetica,sans-Serif" font-size="10.00" fill="grey"> namespaces</text>
</g>
<!-- Node36&#45;&gt;Node35 -->
<g id="edge47" class="edge">
<title>Node36&#45;&gt;Node35</title>
<path fill="none" stroke="#63b8ff" d="M1308.24,-261.41C1376.22,-262.66 1478.38,-264.55 1546.33,-265.8"/>
<polygon fill="#63b8ff" stroke="#63b8ff" points="1308.12,-257.9 1298.05,-261.22 1307.99,-264.9 1308.12,-257.9"/>
</g>
</g>
</svg>
        <g id="navigator" transform="translate(0 0)" fill="#404254">
                <rect fill="#f2f5e9" fill-opacity="0.5" stroke="#606060" stroke-width=".5" x="0" y="0" width="60" height="60"/>
                <use id="zoomplus" xlink:href="#zoomPlus" x="17" y="9" onmousedown="handleZoom(evt,'in')"/>
                <use id="zoomminus" xlink:href="#zoomMin" x="42" y="9" onmousedown="handleZoom(evt,'out')"/>
                <use id="reset" xlink:href="#resetDef" x="30" y="36" onmousedown="handleReset()"/>
                <g id="arrowUp" xlink:href="#dirArrow" transform="translate(30 24)" onmousedown="handlePan(0,-1)">
                  <use xlink:href="#rim" fill="#404040">
                        <set attributeName="fill" to="#808080" begin="arrowUp.mouseover" end="arrowUp.mouseout"/>
                  </use>
                  <path fill="none" stroke="white" stroke-width="1.5" d="M0,-3.0v7 M-2.5,-0.5L0,-3.0L2.5,-0.5"/>
                </g>
                <g id="arrowRight" xlink:href="#dirArrow" transform="rotate(90) translate(36 -43)" onmousedown="handlePan(1,0)">
                  <use xlink:href="#rim" fill="#404040">
                        <set attributeName="fill" to="#808080" begin="arrowRight.mouseover" end="arrowRight.mouseout"/>
                  </use>
                  <path fill="none" stroke="white" stroke-width="1.5" d="M0,-3.0v7 M-2.5,-0.5L0,-3.0L2.5,-0.5"/>
                </g>
                <g id="arrowDown" xlink:href="#dirArrow" transform="rotate(180) translate(-30 -48)" onmousedown="handlePan(0,1)">
                  <use xlink:href="#rim" fill="#404040">
                        <set attributeName="fill" to="#808080" begin="arrowDown.mouseover" end="arrowDown.mouseout"/>
                  </use>
                  <path fill="none" stroke="white" stroke-width="1.5" d="M0,-3.0v7 M-2.5,-0.5L0,-3.0L2.5,-0.5"/>
                </g>
                <g id="arrowLeft" xlink:href="#dirArrow" transform="rotate(270) translate(-36 17)" onmousedown="handlePan(-1,0)">
                  <use xlink:href="#rim" fill="#404040">
                        <set attributeName="fill" to="#808080" begin="arrowLeft.mouseover" end="arrowLeft.mouseout"/>
                  </use>
                  <path fill="none" stroke="white" stroke-width="1.5" d="M0,-3.0v7 M-2.5,-0.5L0,-3.0L2.5,-0.5"/>
                </g>
        </g>
        <svg viewBox="0 0 15 15" width="100%" height="30px" preserveAspectRatio="xMaxYMin meet">
         <g id="arrow_out" transform="scale(0.3 0.3)">
          <a xlink:href="class_namespace_def_impl__coll__graph_org.svg" target="_base">
           <rect id="button" ry="5" rx="5" y="6" x="6" height="38" width="38"
                fill="#f2f5e9" fill-opacity="0.5" stroke="#606060" stroke-width="1.0"/>
           <path id="arrow"
             d="M 11.500037,31.436501 C 11.940474,20.09759 22.043105,11.32322 32.158766,21.979434 L 37.068811,17.246167 C 37.068811,17.246167 37.088388,32 37.088388,32 L 22.160133,31.978069 C 22.160133,31.978069 26.997745,27.140456 26.997745,27.140456 C 18.528582,18.264221 13.291696,25.230495 11.500037,31.436501 z"
             style="fill:#404040;"/>
          </a>
         </g>
        </svg>
</svg>
