<?xml version="1.0" encoding="UTF-8" standalone="no"?>
<!DOCTYPE svg PUBLIC "-//W3C//DTD SVG 1.1//EN"
 "http://www.w3.org/Graphics/SVG/1.1/DTD/svg11.dtd">
<!-- Generated by graphviz version 2.43.0 (0)
 -->
<!-- Title: SymbolGroupContext::Private Pages: 1 -->
<svg width="741pt" height="149pt"
 viewBox="0.00 0.00 741.00 148.50" xmlns="http://www.w3.org/2000/svg" xmlns:xlink="http://www.w3.org/1999/xlink">
<g id="graph0" class="graph" transform="scale(1 1) rotate(0) translate(4 144.5)">
<title>SymbolGroupContext::Private</title>
<!-- Node1 -->
<g id="node1" class="node">
<title>Node1</title>
<g id="a_node1"><a xlink:title=" ">
<polygon fill="#999999" stroke="#666666" points="733,-57 612,-57 612,-27 733,-27 733,-57"/>
<text text-anchor="start" x="620" y="-45" font-family="Helvetica,sans-Serif" font-size="10.00">SymbolGroupContext</text>
<text text-anchor="middle" x="672.5" y="-34" font-family="Helvetica,sans-Serif" font-size="10.00">::Private</text>
</a>
</g>
</g>
<!-- Node2 -->
<g id="node2" class="node">
<title>Node2</title>
<g id="a_node2"><a xlink:href="../../d7/dc1/class_cached_item.html" target="_top" xlink:title=" ">
<polygon fill="white" stroke="#666666" points="504,-89.5 335,-89.5 335,-48.5 504,-48.5 504,-89.5"/>
<text text-anchor="start" x="343" y="-77.5" font-family="Helvetica,sans-Serif" font-size="10.00">CachedItem&lt; TemplateVariant,</text>
<text text-anchor="start" x="343" y="-66.5" font-family="Helvetica,sans-Serif" font-size="10.00"> SymbolGroupContext::Private,</text>
<text text-anchor="middle" x="419.5" y="-55.5" font-family="Helvetica,sans-Serif" font-size="10.00">&amp;Private::createSymbolList &gt;</text>
</a>
</g>
</g>
<!-- Node2&#45;&gt;Node1 -->
<g id="edge1" class="edge">
<title>Node2&#45;&gt;Node1</title>
<path fill="none" stroke="#9a32cd" stroke-dasharray="5,2" d="M514.11,-58.93C546.77,-55.42 582.52,-51.57 611.69,-48.43"/>
<polygon fill="#9a32cd" stroke="#9a32cd" points="513.65,-55.46 504.08,-60.01 514.4,-62.42 513.65,-55.46"/>
<text text-anchor="middle" x="558" y="-60" font-family="Helvetica,sans-Serif" font-size="10.00" fill="grey"> m_symbolList</text>
</g>
<!-- Node3 -->
<g id="node3" class="node">
<title>Node3</title>
<g id="a_node3"><a xlink:href="../../d1/dba/class_template_variant.html" target="_top" xlink:title="Variant type which can hold one value of a fixed set of types.">
<polygon fill="white" stroke="#666666" points="117.5,-140.5 21.5,-140.5 21.5,-121.5 117.5,-121.5 117.5,-140.5"/>
<text text-anchor="middle" x="69.5" y="-128.5" font-family="Helvetica,sans-Serif" font-size="10.00">TemplateVariant</text>
</a>
</g>
</g>
<!-- Node3&#45;&gt;Node2 -->
<g id="edge2" class="edge">
<title>Node3&#45;&gt;Node2</title>
<path fill="none" stroke="#9a32cd" stroke-dasharray="5,2" d="M128,-130.5C178.44,-128.97 253.43,-124.03 317,-109 336.35,-104.42 356.91,-96.87 374.42,-89.56"/>
<polygon fill="#9a32cd" stroke="#9a32cd" points="127.84,-127 117.94,-130.77 128.03,-134 127.84,-127"/>
<text text-anchor="middle" x="237" y="-132" font-family="Helvetica,sans-Serif" font-size="10.00" fill="grey"> m_item</text>
</g>
<!-- Node4 -->
<g id="node4" class="node">
<title>Node4</title>
<g id="a_node4"><a xlink:href="../../d7/dc1/class_cached_item.html" target="_top" xlink:title="Wrapper for data that needs to be cached.">
<polygon fill="white" stroke="#666666" points="139,-79 0,-79 0,-49 139,-49 139,-79"/>
<text text-anchor="start" x="8" y="-67" font-family="Helvetica,sans-Serif" font-size="10.00">CachedItem&lt; T, TOwner,</text>
<text text-anchor="middle" x="69.5" y="-56" font-family="Helvetica,sans-Serif" font-size="10.00"> creator &gt;</text>
</a>
</g>
</g>
<!-- Node4&#45;&gt;Node2 -->
<g id="edge3" class="edge">
<title>Node4&#45;&gt;Node2</title>
<path fill="none" stroke="orange" stroke-dasharray="5,2" d="M149.14,-63.61C197.55,-63.55 260.88,-63.78 317,-65 322.82,-65.13 328.82,-65.29 334.87,-65.47"/>
<polygon fill="orange" stroke="orange" points="149.04,-60.11 139.04,-63.63 149.05,-67.11 149.04,-60.11"/>
<text text-anchor="start" x="157" y="-101" font-family="Helvetica,sans-Serif" font-size="10.00" fill="grey"> &lt; TemplateVariant,</text>
<text text-anchor="start" x="157" y="-90" font-family="Helvetica,sans-Serif" font-size="10.00" fill="grey"> SymbolGroupContext</text>
<text text-anchor="start" x="157" y="-79" font-family="Helvetica,sans-Serif" font-size="10.00" fill="grey">::Private,&amp;Private::createSymbol</text>
<text text-anchor="middle" x="237" y="-68" font-family="Helvetica,sans-Serif" font-size="10.00" fill="grey">List &gt;</text>
</g>
<!-- Node5 -->
<g id="node5" class="node">
<title>Node5</title>
<g id="a_node5"><a xlink:href="../../d5/dbf/class_property_map.html" target="_top" xlink:title=" ">
<polygon fill="white" stroke="#666666" points="497.5,-30 341.5,-30 341.5,0 497.5,0 497.5,-30"/>
<text text-anchor="start" x="349.5" y="-18" font-family="Helvetica,sans-Serif" font-size="10.00">PropertyMap&lt; SymbolGroup</text>
<text text-anchor="middle" x="419.5" y="-7" font-family="Helvetica,sans-Serif" font-size="10.00">Context::Private &gt;</text>
</a>
</g>
</g>
<!-- Node5&#45;&gt;Node1 -->
<g id="edge4" class="edge">
<title>Node5&#45;&gt;Node1</title>
<path fill="none" stroke="#9a32cd" stroke-dasharray="5,2" d="M507.57,-24.37C541.97,-28.07 580.64,-32.23 611.77,-35.58"/>
<polygon fill="#9a32cd" stroke="#9a32cd" points="507.83,-20.87 497.51,-23.28 507.08,-27.83 507.83,-20.87"/>
<text text-anchor="middle" x="558" y="-37" font-family="Helvetica,sans-Serif" font-size="10.00" fill="grey"> s_inst</text>
</g>
<!-- Node6 -->
<g id="node6" class="node">
<title>Node6</title>
<g id="a_node6"><a xlink:href="../../d5/dbf/class_property_map.html" target="_top" xlink:title="Class representing a mapping of properties and the corresponding getter function.">
<polygon fill="white" stroke="#666666" points="123,-24.5 16,-24.5 16,-5.5 123,-5.5 123,-24.5"/>
<text text-anchor="middle" x="69.5" y="-12.5" font-family="Helvetica,sans-Serif" font-size="10.00">PropertyMap&lt; T &gt;</text>
</a>
</g>
</g>
<!-- Node6&#45;&gt;Node5 -->
<g id="edge5" class="edge">
<title>Node6&#45;&gt;Node5</title>
<path fill="none" stroke="orange" stroke-dasharray="5,2" d="M133.54,-15C191.87,-15 278.73,-15 341.22,-15"/>
<polygon fill="orange" stroke="orange" points="133.35,-11.5 123.35,-15 133.35,-18.5 133.35,-11.5"/>
<text text-anchor="start" x="177.5" y="-29" font-family="Helvetica,sans-Serif" font-size="10.00" fill="grey"> &lt; SymbolGroupContext</text>
<text text-anchor="middle" x="237" y="-18" font-family="Helvetica,sans-Serif" font-size="10.00" fill="grey">::Private &gt;</text>
</g>
</g>
</svg>
