<?xml version="1.0" encoding="UTF-8" standalone="no"?>
<!DOCTYPE svg PUBLIC "-//W3C//DTD SVG 1.1//EN"
 "http://www.w3.org/Graphics/SVG/1.1/DTD/svg11.dtd">
<!-- Generated by graphviz version 2.43.0 (0)
 -->
<!-- Title: MemberList Pages: 1 -->
<svg width="259pt" height="149pt"
 viewBox="0.00 0.00 258.50 149.00" xmlns="http://www.w3.org/2000/svg" xmlns:xlink="http://www.w3.org/1999/xlink">
<g id="graph0" class="graph" transform="scale(1 1) rotate(0) translate(4 145)">
<title>MemberList</title>
<!-- Node1 -->
<g id="node1" class="node">
<title>Node1</title>
<g id="a_node1"><a xlink:title="A list of MemberDef objects as shown in documentation sections.">
<polygon fill="#999999" stroke="#666666" points="97,-19 23,-19 23,0 97,0 97,-19"/>
<text text-anchor="middle" x="60" y="-7" font-family="Helvetica,sans-Serif" font-size="10.00">MemberList</text>
</a>
</g>
</g>
<!-- Node2 -->
<g id="node2" class="node">
<title>Node2</title>
<g id="a_node2"><a xlink:href="../../d1/d7d/class_member_vector.html" target="_top" xlink:title="A vector of MemberDef object.">
<polygon fill="white" stroke="#666666" points="88,-85 0,-85 0,-66 88,-66 88,-85"/>
<text text-anchor="middle" x="44" y="-73" font-family="Helvetica,sans-Serif" font-size="10.00">MemberVector</text>
</a>
</g>
</g>
<!-- Node2&#45;&gt;Node1 -->
<g id="edge1" class="edge">
<title>Node2&#45;&gt;Node1</title>
<path fill="none" stroke="#63b8ff" d="M48.64,-55.95C51.64,-43.93 55.42,-28.82 57.77,-19.41"/>
<polygon fill="#63b8ff" stroke="#63b8ff" points="45.19,-55.32 46.16,-65.87 51.98,-57.02 45.19,-55.32"/>
</g>
<!-- Node3 -->
<g id="node3" class="node">
<title>Node3</title>
<g id="a_node3"><a xlink:href="../../d4/d15/class_member_group_ref_list.html" target="_top" xlink:title=" ">
<polygon fill="white" stroke="#666666" points="226,-85 106,-85 106,-66 226,-66 226,-85"/>
<text text-anchor="middle" x="166" y="-73" font-family="Helvetica,sans-Serif" font-size="10.00">MemberGroupRefList</text>
</a>
</g>
</g>
<!-- Node3&#45;&gt;Node1 -->
<g id="edge2" class="edge">
<title>Node3&#45;&gt;Node1</title>
<path fill="none" stroke="#9a32cd" stroke-dasharray="5,2" d="M143.13,-60.69C122.27,-48.09 92.08,-29.87 74.41,-19.2"/>
<polygon fill="#9a32cd" stroke="#9a32cd" points="141.33,-63.7 151.7,-65.87 144.95,-57.7 141.33,-63.7"/>
<text text-anchor="middle" x="180.5" y="-40" font-family="Helvetica,sans-Serif" font-size="10.00" fill="grey"> m_memberGroupRefList</text>
</g>
<!-- Node4 -->
<g id="node4" class="node">
<title>Node4</title>
<g id="a_node4"><a xlink:title=" ">
<polygon fill="white" stroke="#666666" points="250.5,-141 81.5,-141 81.5,-122 250.5,-122 250.5,-141"/>
<text text-anchor="middle" x="166" y="-129" font-family="Helvetica,sans-Serif" font-size="10.00">std::vector&lt; MemberGroup * &gt;</text>
</a>
</g>
</g>
<!-- Node4&#45;&gt;Node3 -->
<g id="edge3" class="edge">
<title>Node4&#45;&gt;Node3</title>
<path fill="none" stroke="#63b8ff" d="M166,-111.3C166,-102.41 166,-92.28 166,-85.25"/>
<polygon fill="#63b8ff" stroke="#63b8ff" points="162.5,-111.58 166,-121.58 169.5,-111.58 162.5,-111.58"/>
</g>
</g>
</svg>
