<?xml version="1.0" encoding="UTF-8" standalone="no"?>
<!DOCTYPE svg PUBLIC "-//W3C//DTD SVG 1.1//EN"
 "http://www.w3.org/Graphics/SVG/1.1/DTD/svg11.dtd">
<!-- Generated by graphviz version 2.43.0 (0)
 -->
<!-- Title: /home/runner/work/doxygen/doxygen/src/definitionimpl.h Pages: 1 -->
<svg width="786pt" height="368pt"
 viewBox="0.00 0.00 786.00 368.00" xmlns="http://www.w3.org/2000/svg" xmlns:xlink="http://www.w3.org/1999/xlink">
<g id="graph0" class="graph" transform="scale(1 1) rotate(0) translate(4 364)">
<title>/home/runner/work/doxygen/doxygen/src/definitionimpl.h</title>
<!-- Node1 -->
<g id="node1" class="node">
<title>Node1</title>
<g id="a_node1"><a xlink:title=" ">
<polygon fill="#999999" stroke="#666666" points="778,-360 620,-360 620,-330 778,-330 778,-360"/>
<text text-anchor="start" x="628" y="-348" font-family="Helvetica,sans-Serif" font-size="10.00">/home/runner/work/doxygen</text>
<text text-anchor="middle" x="699" y="-337" font-family="Helvetica,sans-Serif" font-size="10.00">/doxygen/src/definitionimpl.h</text>
</a>
</g>
</g>
<!-- Node2 -->
<g id="node2" class="node">
<title>Node2</title>
<g id="a_node2"><a xlink:title=" ">
<polygon fill="#e0e0e0" stroke="#999999" points="745.5,-129 652.5,-129 652.5,-110 745.5,-110 745.5,-129"/>
<text text-anchor="middle" x="699" y="-117" font-family="Helvetica,sans-Serif" font-size="10.00">unordered_map</text>
</a>
</g>
</g>
<!-- Node1&#45;&gt;Node2 -->
<g id="edge1" class="edge">
<title>Node1&#45;&gt;Node2</title>
<path fill="none" stroke="#63b8ff" d="M699,-329.68C699,-290.76 699,-183.07 699,-139.33"/>
<polygon fill="#63b8ff" stroke="#63b8ff" points="702.5,-139.23 699,-129.23 695.5,-139.23 702.5,-139.23"/>
</g>
<!-- Node3 -->
<g id="node3" class="node">
<title>Node3</title>
<g id="a_node3"><a xlink:title=" ">
<polygon fill="#e0e0e0" stroke="#999999" points="492,-19 448,-19 448,0 492,0 492,-19"/>
<text text-anchor="middle" x="470" y="-7" font-family="Helvetica,sans-Serif" font-size="10.00">string</text>
</a>
</g>
</g>
<!-- Node1&#45;&gt;Node3 -->
<g id="edge2" class="edge">
<title>Node1&#45;&gt;Node3</title>
<path fill="none" stroke="#63b8ff" d="M716.4,-329.85C738.55,-310.13 774,-272.07 774,-230.5 774,-230.5 774,-230.5 774,-118.5 774,-61.4 581.13,-26.74 502.64,-15"/>
<polygon fill="#63b8ff" stroke="#63b8ff" points="502.76,-11.48 492.35,-13.5 501.74,-18.41 502.76,-11.48"/>
</g>
<!-- Node4 -->
<g id="node4" class="node">
<title>Node4</title>
<g id="a_node4"><a xlink:href="../../df/da1/definition_8h.html" target="_top" xlink:title=" ">
<polygon fill="white" stroke="#666666" points="465.5,-294 394.5,-294 394.5,-275 465.5,-275 465.5,-294"/>
<text text-anchor="middle" x="430" y="-282" font-family="Helvetica,sans-Serif" font-size="10.00">definition.h</text>
</a>
</g>
</g>
<!-- Node1&#45;&gt;Node4 -->
<g id="edge3" class="edge">
<title>Node1&#45;&gt;Node4</title>
<path fill="none" stroke="#63b8ff" d="M634.57,-329.99C585.64,-319.35 519.56,-304.98 475.9,-295.48"/>
<polygon fill="#63b8ff" stroke="#63b8ff" points="476.37,-292 465.86,-293.3 474.88,-298.84 476.37,-292"/>
</g>
<!-- Node5 -->
<g id="node5" class="node">
<title>Node5</title>
<g id="a_node5"><a xlink:title=" ">
<polygon fill="#e0e0e0" stroke="#999999" points="443.5,-129 396.5,-129 396.5,-110 443.5,-110 443.5,-129"/>
<text text-anchor="middle" x="420" y="-117" font-family="Helvetica,sans-Serif" font-size="10.00">vector</text>
</a>
</g>
</g>
<!-- Node4&#45;&gt;Node5 -->
<g id="edge4" class="edge">
<title>Node4&#45;&gt;Node5</title>
<path fill="none" stroke="#63b8ff" d="M429.46,-274.74C427.9,-249.31 423.35,-175.08 421.18,-139.69"/>
<polygon fill="#63b8ff" stroke="#63b8ff" points="424.65,-139.07 420.54,-129.31 417.66,-139.5 424.65,-139.07"/>
</g>
<!-- Node6 -->
<g id="node6" class="node">
<title>Node6</title>
<g id="a_node6"><a xlink:href="../../d9/d49/types_8h.html" target="_top" xlink:title="This file contains a number of basic enums and types.">
<polygon fill="white" stroke="#666666" points="357.5,-184 304.5,-184 304.5,-165 357.5,-165 357.5,-184"/>
<text text-anchor="middle" x="331" y="-172" font-family="Helvetica,sans-Serif" font-size="10.00">types.h</text>
</a>
</g>
</g>
<!-- Node4&#45;&gt;Node6 -->
<g id="edge5" class="edge">
<title>Node4&#45;&gt;Node6</title>
<path fill="none" stroke="#63b8ff" d="M417.9,-274.71C406.66,-266.24 389.77,-252.72 377,-239 363.56,-224.57 350.61,-206.14 341.89,-192.86"/>
<polygon fill="#63b8ff" stroke="#63b8ff" points="344.69,-190.75 336.34,-184.22 338.8,-194.53 344.69,-190.75"/>
</g>
<!-- Node16 -->
<g id="node16" class="node">
<title>Node16</title>
<g id="a_node16"><a xlink:href="../../d1/d02/reflist_8h.html" target="_top" xlink:title=" ">
<polygon fill="white" stroke="#666666" points="527.5,-239 474.5,-239 474.5,-220 527.5,-220 527.5,-239"/>
<text text-anchor="middle" x="501" y="-227" font-family="Helvetica,sans-Serif" font-size="10.00">reflist.h</text>
</a>
</g>
</g>
<!-- Node4&#45;&gt;Node16 -->
<g id="edge18" class="edge">
<title>Node4&#45;&gt;Node16</title>
<path fill="none" stroke="#63b8ff" d="M441.41,-274.98C452.11,-267 468.34,-254.88 481.16,-245.31"/>
<polygon fill="#63b8ff" stroke="#63b8ff" points="483.47,-247.96 489.39,-239.17 479.28,-242.35 483.47,-247.96"/>
</g>
<!-- Node7 -->
<g id="node7" class="node">
<title>Node7</title>
<g id="a_node7"><a xlink:href="../../d7/d5c/qcstring_8h.html" target="_top" xlink:title=" ">
<polygon fill="white" stroke="#666666" points="352.5,-129 287.5,-129 287.5,-110 352.5,-110 352.5,-129"/>
<text text-anchor="middle" x="320" y="-117" font-family="Helvetica,sans-Serif" font-size="10.00">qcstring.h</text>
</a>
</g>
</g>
<!-- Node6&#45;&gt;Node7 -->
<g id="edge6" class="edge">
<title>Node6&#45;&gt;Node7</title>
<path fill="none" stroke="#63b8ff" d="M329.18,-164.75C327.74,-157.8 325.68,-147.85 323.87,-139.13"/>
<polygon fill="#63b8ff" stroke="#63b8ff" points="327.24,-138.17 321.78,-129.09 320.39,-139.59 327.24,-138.17"/>
</g>
<!-- Node7&#45;&gt;Node3 -->
<g id="edge7" class="edge">
<title>Node7&#45;&gt;Node3</title>
<path fill="none" stroke="#63b8ff" d="M329.29,-109.74C343.07,-96.97 369.99,-72.82 395,-55 410.88,-43.69 429.76,-32.49 444.61,-24.16"/>
<polygon fill="#63b8ff" stroke="#63b8ff" points="446.65,-27.03 453.71,-19.13 443.27,-20.91 446.65,-27.03"/>
</g>
<!-- Node8 -->
<g id="node8" class="node">
<title>Node8</title>
<g id="a_node8"><a xlink:title=" ">
<polygon fill="#e0e0e0" stroke="#999999" points="468,-74 404,-74 404,-55 468,-55 468,-74"/>
<text text-anchor="middle" x="436" y="-62" font-family="Helvetica,sans-Serif" font-size="10.00">algorithm</text>
</a>
</g>
</g>
<!-- Node7&#45;&gt;Node8 -->
<g id="edge8" class="edge">
<title>Node7&#45;&gt;Node8</title>
<path fill="none" stroke="#63b8ff" d="M338.64,-109.98C357.3,-101.46 386.25,-88.23 407.74,-78.41"/>
<polygon fill="#63b8ff" stroke="#63b8ff" points="409.38,-81.51 417.02,-74.17 406.47,-75.14 409.38,-81.51"/>
</g>
<!-- Node9 -->
<g id="node9" class="node">
<title>Node9</title>
<g id="a_node9"><a xlink:title=" ">
<polygon fill="#e0e0e0" stroke="#999999" points="535.5,-74 486.5,-74 486.5,-55 535.5,-55 535.5,-74"/>
<text text-anchor="middle" x="511" y="-62" font-family="Helvetica,sans-Serif" font-size="10.00">cctype</text>
</a>
</g>
</g>
<!-- Node7&#45;&gt;Node9 -->
<g id="edge9" class="edge">
<title>Node7&#45;&gt;Node9</title>
<path fill="none" stroke="#63b8ff" d="M350.69,-109.98C385.05,-100.45 440.6,-85.03 476.46,-75.09"/>
<polygon fill="#63b8ff" stroke="#63b8ff" points="477.76,-78.36 486.46,-72.31 475.89,-71.61 477.76,-78.36"/>
</g>
<!-- Node10 -->
<g id="node10" class="node">
<title>Node10</title>
<g id="a_node10"><a xlink:title=" ">
<polygon fill="#e0e0e0" stroke="#999999" points="141,-74 91,-74 91,-55 141,-55 141,-74"/>
<text text-anchor="middle" x="116" y="-62" font-family="Helvetica,sans-Serif" font-size="10.00">cstring</text>
</a>
</g>
</g>
<!-- Node7&#45;&gt;Node10 -->
<g id="edge10" class="edge">
<title>Node7&#45;&gt;Node10</title>
<path fill="none" stroke="#63b8ff" d="M287.22,-109.98C250.06,-100.33 189.68,-84.64 151.44,-74.71"/>
<polygon fill="#63b8ff" stroke="#63b8ff" points="151.84,-71.2 141.28,-72.07 150.08,-77.97 151.84,-71.2"/>
</g>
<!-- Node11 -->
<g id="node11" class="node">
<title>Node11</title>
<g id="a_node11"><a xlink:title=" ">
<polygon fill="#e0e0e0" stroke="#999999" points="205,-74 159,-74 159,-55 205,-55 205,-74"/>
<text text-anchor="middle" x="182" y="-62" font-family="Helvetica,sans-Serif" font-size="10.00">cstdio</text>
</a>
</g>
</g>
<!-- Node7&#45;&gt;Node11 -->
<g id="edge11" class="edge">
<title>Node7&#45;&gt;Node11</title>
<path fill="none" stroke="#63b8ff" d="M297.83,-109.98C275.23,-101.3 239.94,-87.75 214.25,-77.88"/>
<polygon fill="#63b8ff" stroke="#63b8ff" points="215.17,-74.49 204.58,-74.17 212.66,-81.02 215.17,-74.49"/>
</g>
<!-- Node12 -->
<g id="node12" class="node">
<title>Node12</title>
<g id="a_node12"><a xlink:title=" ">
<polygon fill="#e0e0e0" stroke="#999999" points="272.5,-74 223.5,-74 223.5,-55 272.5,-55 272.5,-74"/>
<text text-anchor="middle" x="248" y="-62" font-family="Helvetica,sans-Serif" font-size="10.00">cstdlib</text>
</a>
</g>
</g>
<!-- Node7&#45;&gt;Node12 -->
<g id="edge12" class="edge">
<title>Node7&#45;&gt;Node12</title>
<path fill="none" stroke="#63b8ff" d="M308.43,-109.98C297.58,-102 281.12,-89.88 268.12,-80.31"/>
<polygon fill="#63b8ff" stroke="#63b8ff" points="269.91,-77.28 259.78,-74.17 265.76,-82.92 269.91,-77.28"/>
</g>
<!-- Node13 -->
<g id="node13" class="node">
<title>Node13</title>
<g id="a_node13"><a xlink:title=" ">
<polygon fill="#e0e0e0" stroke="#999999" points="50,-19 0,-19 0,0 50,0 50,-19"/>
<text text-anchor="middle" x="25" y="-7" font-family="Helvetica,sans-Serif" font-size="10.00">cstdint</text>
</a>
</g>
</g>
<!-- Node7&#45;&gt;Node13 -->
<g id="edge13" class="edge">
<title>Node7&#45;&gt;Node13</title>
<path fill="none" stroke="#63b8ff" d="M287.41,-118.8C216.66,-118.69 52.55,-114.01 18,-74 7.37,-61.69 11.21,-42.65 16.44,-28.63"/>
<polygon fill="#63b8ff" stroke="#63b8ff" points="19.81,-29.65 20.49,-19.08 13.36,-26.92 19.81,-29.65"/>
</g>
<!-- Node14 -->
<g id="node14" class="node">
<title>Node14</title>
<g id="a_node14"><a xlink:title=" ">
<polygon fill="#e0e0e0" stroke="#999999" points="347.5,-74 290.5,-74 290.5,-55 347.5,-55 347.5,-74"/>
<text text-anchor="middle" x="319" y="-62" font-family="Helvetica,sans-Serif" font-size="10.00">ostream</text>
</a>
</g>
</g>
<!-- Node7&#45;&gt;Node14 -->
<g id="edge14" class="edge">
<title>Node7&#45;&gt;Node14</title>
<path fill="none" stroke="#63b8ff" d="M319.83,-109.75C319.7,-102.8 319.52,-92.85 319.35,-84.13"/>
<polygon fill="#63b8ff" stroke="#63b8ff" points="322.85,-84.02 319.16,-74.09 315.85,-84.15 322.85,-84.02"/>
</g>
<!-- Node15 -->
<g id="node15" class="node">
<title>Node15</title>
<g id="a_node15"><a xlink:href="../../db/d7c/utf8_8h.html" target="_top" xlink:title="Various UTF8 related helper functions.">
<polygon fill="white" stroke="#666666" points="72.5,-74 27.5,-74 27.5,-55 72.5,-55 72.5,-74"/>
<text text-anchor="middle" x="50" y="-62" font-family="Helvetica,sans-Serif" font-size="10.00">utf8.h</text>
</a>
</g>
</g>
<!-- Node7&#45;&gt;Node15 -->
<g id="edge15" class="edge">
<title>Node7&#45;&gt;Node15</title>
<path fill="none" stroke="#63b8ff" d="M287.12,-113.15C242.94,-105.79 161.79,-91.67 82.79,-74.03"/>
<polygon fill="#63b8ff" stroke="#63b8ff" points="83.2,-70.53 72.67,-71.75 81.66,-77.36 83.2,-70.53"/>
</g>
<!-- Node15&#45;&gt;Node3 -->
<g id="edge17" class="edge">
<title>Node15&#45;&gt;Node3</title>
<path fill="none" stroke="#63b8ff" d="M72.63,-57.05C75.76,-56.29 78.95,-55.58 82,-55 212.63,-30.29 370.78,-17.33 437.65,-12.61"/>
<polygon fill="#63b8ff" stroke="#63b8ff" points="438.22,-16.08 447.95,-11.9 437.74,-9.1 438.22,-16.08"/>
</g>
<!-- Node15&#45;&gt;Node13 -->
<g id="edge16" class="edge">
<title>Node15&#45;&gt;Node13</title>
<path fill="none" stroke="#63b8ff" d="M45.87,-54.75C42.49,-47.57 37.58,-37.18 33.38,-28.27"/>
<polygon fill="#63b8ff" stroke="#63b8ff" points="36.48,-26.64 29.05,-19.09 30.15,-29.63 36.48,-26.64"/>
</g>
<!-- Node16&#45;&gt;Node2 -->
<g id="edge20" class="edge">
<title>Node16&#45;&gt;Node2</title>
<path fill="none" stroke="#63b8ff" d="M522.93,-219.9C543.51,-211.56 574.94,-198.13 601,-184 628.85,-168.9 659.21,-148.58 678.64,-135.03"/>
<polygon fill="#63b8ff" stroke="#63b8ff" points="680.83,-137.77 687,-129.15 676.81,-132.04 680.83,-137.77"/>
</g>
<!-- Node16&#45;&gt;Node5 -->
<g id="edge19" class="edge">
<title>Node16&#45;&gt;Node5</title>
<path fill="none" stroke="#63b8ff" d="M494.37,-219.66C480.9,-201.69 450.11,-160.64 432.66,-137.38"/>
<polygon fill="#63b8ff" stroke="#63b8ff" points="435.29,-135.06 426.49,-129.16 429.69,-139.26 435.29,-135.06"/>
</g>
<!-- Node16&#45;&gt;Node7 -->
<g id="edge22" class="edge">
<title>Node16&#45;&gt;Node7</title>
<path fill="none" stroke="#63b8ff" d="M486.49,-219.84C455.17,-201.16 381,-156.9 343.12,-134.3"/>
<polygon fill="#63b8ff" stroke="#63b8ff" points="344.7,-131.17 334.32,-129.05 341.12,-137.18 344.7,-131.17"/>
</g>
<!-- Node17 -->
<g id="node17" class="node">
<title>Node17</title>
<g id="a_node17"><a xlink:title=" ">
<polygon fill="#e0e0e0" stroke="#999999" points="634,-129 576,-129 576,-110 634,-110 634,-129"/>
<text text-anchor="middle" x="605" y="-117" font-family="Helvetica,sans-Serif" font-size="10.00">memory</text>
</a>
</g>
</g>
<!-- Node16&#45;&gt;Node17 -->
<g id="edge21" class="edge">
<title>Node16&#45;&gt;Node17</title>
<path fill="none" stroke="#63b8ff" d="M526.82,-219.88C544.54,-212.77 567.39,-201.06 582,-184 592.84,-171.33 598.74,-153.15 601.83,-139.48"/>
<polygon fill="#63b8ff" stroke="#63b8ff" points="605.34,-139.77 603.82,-129.29 598.47,-138.43 605.34,-139.77"/>
</g>
<!-- Node18 -->
<g id="node18" class="node">
<title>Node18</title>
<g id="a_node18"><a xlink:href="../../da/de1/linkedmap_8h.html" target="_top" xlink:title=" ">
<polygon fill="white" stroke="#666666" points="572.5,-184 495.5,-184 495.5,-165 572.5,-165 572.5,-184"/>
<text text-anchor="middle" x="534" y="-172" font-family="Helvetica,sans-Serif" font-size="10.00">linkedmap.h</text>
</a>
</g>
</g>
<!-- Node16&#45;&gt;Node18 -->
<g id="edge23" class="edge">
<title>Node16&#45;&gt;Node18</title>
<path fill="none" stroke="#63b8ff" d="M506.45,-219.75C511.01,-212.42 517.67,-201.73 523.29,-192.7"/>
<polygon fill="#63b8ff" stroke="#63b8ff" points="526.34,-194.43 528.65,-184.09 520.4,-190.73 526.34,-194.43"/>
</g>
<!-- Node18&#45;&gt;Node2 -->
<g id="edge24" class="edge">
<title>Node18&#45;&gt;Node2</title>
<path fill="none" stroke="#63b8ff" d="M560.51,-164.98C588.21,-156.09 631.86,-142.07 662.74,-132.15"/>
<polygon fill="#63b8ff" stroke="#63b8ff" points="663.83,-135.47 672.28,-129.08 661.69,-128.81 663.83,-135.47"/>
</g>
<!-- Node18&#45;&gt;Node3 -->
<g id="edge27" class="edge">
<title>Node18&#45;&gt;Node3</title>
<path fill="none" stroke="#63b8ff" d="M537.89,-164.75C546.43,-144.1 564.53,-91.3 544,-55 534.89,-38.9 517.37,-27.98 501.67,-20.99"/>
<polygon fill="#63b8ff" stroke="#63b8ff" points="502.79,-17.67 492.21,-17.13 500.15,-24.15 502.79,-17.67"/>
</g>
<!-- Node18&#45;&gt;Node5 -->
<g id="edge25" class="edge">
<title>Node18&#45;&gt;Node5</title>
<path fill="none" stroke="#63b8ff" d="M515.68,-164.98C497.34,-156.46 468.89,-143.23 447.77,-133.41"/>
<polygon fill="#63b8ff" stroke="#63b8ff" points="449.19,-130.21 438.65,-129.17 446.24,-136.56 449.19,-130.21"/>
</g>
<!-- Node18&#45;&gt;Node7 -->
<g id="edge30" class="edge">
<title>Node18&#45;&gt;Node7</title>
<path fill="none" stroke="#63b8ff" d="M499.62,-164.98C462.26,-155.73 402.54,-140.94 362.32,-130.98"/>
<polygon fill="#63b8ff" stroke="#63b8ff" points="363.09,-127.57 352.54,-128.56 361.41,-134.36 363.09,-127.57"/>
</g>
<!-- Node18&#45;&gt;Node8 -->
<g id="edge28" class="edge">
<title>Node18&#45;&gt;Node8</title>
<path fill="none" stroke="#63b8ff" d="M525.98,-164.66C509.53,-146.54 471.76,-104.91 450.76,-81.77"/>
<polygon fill="#63b8ff" stroke="#63b8ff" points="453.17,-79.21 443.86,-74.16 447.98,-83.92 453.17,-79.21"/>
</g>
<!-- Node18&#45;&gt;Node9 -->
<g id="edge29" class="edge">
<title>Node18&#45;&gt;Node9</title>
<path fill="none" stroke="#63b8ff" d="M532.12,-164.66C528.38,-147.09 519.93,-107.45 514.93,-83.95"/>
<polygon fill="#63b8ff" stroke="#63b8ff" points="518.35,-83.21 512.84,-74.16 511.5,-84.67 518.35,-83.21"/>
</g>
<!-- Node18&#45;&gt;Node17 -->
<g id="edge26" class="edge">
<title>Node18&#45;&gt;Node17</title>
<path fill="none" stroke="#63b8ff" d="M545.41,-164.98C556.11,-157 572.34,-144.88 585.16,-135.31"/>
<polygon fill="#63b8ff" stroke="#63b8ff" points="587.47,-137.96 593.39,-129.17 583.28,-132.35 587.47,-137.96"/>
</g>
</g>
</svg>
