<?xml version="1.0" encoding="UTF-8" standalone="no"?>
<!DOCTYPE svg PUBLIC "-//W3C//DTD SVG 1.1//EN"
 "http://www.w3.org/Graphics/SVG/1.1/DTD/svg11.dtd">
<!-- Generated by graphviz version 2.43.0 (0)
 -->
<!-- Title: /home/runner/work/doxygen/doxygen/src/resourcemgr.h Pages: 1 -->
<svg width="1741pt" height="104pt"
 viewBox="0.00 0.00 1741.00 104.00" xmlns="http://www.w3.org/2000/svg" xmlns:xlink="http://www.w3.org/1999/xlink">
<g id="graph0" class="graph" transform="scale(1 1) rotate(0) translate(4 100)">
<title>/home/runner/work/doxygen/doxygen/src/resourcemgr.h</title>
<!-- Node1 -->
<g id="node1" class="node">
<title>Node1</title>
<g id="a_node1"><a xlink:title=" ">
<polygon fill="#999999" stroke="#666666" points="928,-96 774,-96 774,-66 928,-66 928,-96"/>
<text text-anchor="start" x="782" y="-84" font-family="Helvetica,sans-Serif" font-size="10.00">/home/runner/work/doxygen</text>
<text text-anchor="middle" x="851" y="-73" font-family="Helvetica,sans-Serif" font-size="10.00">/doxygen/src/resourcemgr.h</text>
</a>
</g>
</g>
<!-- Node2 -->
<g id="node2" class="node">
<title>Node2</title>
<g id="a_node2"><a xlink:href="../../d5/d0b/cite_8cpp.html" target="_top" xlink:title=" ">
<polygon fill="white" stroke="#666666" points="154,-30 0,-30 0,0 154,0 154,-30"/>
<text text-anchor="start" x="8" y="-18" font-family="Helvetica,sans-Serif" font-size="10.00">/home/runner/work/doxygen</text>
<text text-anchor="middle" x="77" y="-7" font-family="Helvetica,sans-Serif" font-size="10.00">/doxygen/src/cite.cpp</text>
</a>
</g>
</g>
<!-- Node1&#45;&gt;Node2 -->
<g id="edge1" class="edge">
<title>Node1&#45;&gt;Node2</title>
<path fill="none" stroke="#63b8ff" d="M763.56,-76.14C632.65,-69.79 378.11,-55.27 163,-30 160.15,-29.66 157.24,-29.3 154.31,-28.92"/>
<polygon fill="#63b8ff" stroke="#63b8ff" points="763.76,-79.65 773.92,-76.64 764.1,-72.66 763.76,-79.65"/>
</g>
<!-- Node3 -->
<g id="node3" class="node">
<title>Node3</title>
<g id="a_node3"><a xlink:href="../../db/d12/context_8cpp.html" target="_top" xlink:title=" ">
<polygon fill="white" stroke="#666666" points="326,-30 172,-30 172,0 326,0 326,-30"/>
<text text-anchor="start" x="180" y="-18" font-family="Helvetica,sans-Serif" font-size="10.00">/home/runner/work/doxygen</text>
<text text-anchor="middle" x="249" y="-7" font-family="Helvetica,sans-Serif" font-size="10.00">/doxygen/src/context.cpp</text>
</a>
</g>
</g>
<!-- Node1&#45;&gt;Node3 -->
<g id="edge2" class="edge">
<title>Node1&#45;&gt;Node3</title>
<path fill="none" stroke="#63b8ff" d="M763.88,-73.29C661.13,-64.98 485.3,-49.49 335,-30 332.15,-29.63 329.25,-29.24 326.32,-28.83"/>
<polygon fill="#63b8ff" stroke="#63b8ff" points="763.64,-76.78 773.89,-74.1 764.21,-69.81 763.64,-76.78"/>
</g>
<!-- Node4 -->
<g id="node4" class="node">
<title>Node4</title>
<g id="a_node4"><a xlink:href="../../db/d41/ftvhelp_8cpp.html" target="_top" xlink:title=" ">
<polygon fill="white" stroke="#666666" points="498,-30 344,-30 344,0 498,0 498,-30"/>
<text text-anchor="start" x="352" y="-18" font-family="Helvetica,sans-Serif" font-size="10.00">/home/runner/work/doxygen</text>
<text text-anchor="middle" x="421" y="-7" font-family="Helvetica,sans-Serif" font-size="10.00">/doxygen/src/ftvhelp.cpp</text>
</a>
</g>
</g>
<!-- Node1&#45;&gt;Node4 -->
<g id="edge3" class="edge">
<title>Node1&#45;&gt;Node4</title>
<path fill="none" stroke="#63b8ff" d="M763.71,-67.73C694.14,-57.85 594.27,-43.44 507,-30 504.16,-29.56 501.27,-29.11 498.35,-28.65"/>
<polygon fill="#63b8ff" stroke="#63b8ff" points="763.36,-71.22 773.75,-69.16 764.34,-64.29 763.36,-71.22"/>
</g>
<!-- Node5 -->
<g id="node5" class="node">
<title>Node5</title>
<g id="a_node5"><a xlink:href="../../d8/d6e/htmlgen_8cpp.html" target="_top" xlink:title=" ">
<polygon fill="white" stroke="#666666" points="670,-30 516,-30 516,0 670,0 670,-30"/>
<text text-anchor="start" x="524" y="-18" font-family="Helvetica,sans-Serif" font-size="10.00">/home/runner/work/doxygen</text>
<text text-anchor="middle" x="593" y="-7" font-family="Helvetica,sans-Serif" font-size="10.00">/doxygen/src/htmlgen.cpp</text>
</a>
</g>
</g>
<!-- Node1&#45;&gt;Node5 -->
<g id="edge4" class="edge">
<title>Node1&#45;&gt;Node5</title>
<path fill="none" stroke="#63b8ff" d="M784.55,-63.52C742.71,-53.14 689.28,-39.88 649.49,-30.01"/>
<polygon fill="#63b8ff" stroke="#63b8ff" points="783.83,-66.94 794.38,-65.95 785.52,-60.15 783.83,-66.94"/>
</g>
<!-- Node6 -->
<g id="node6" class="node">
<title>Node6</title>
<g id="a_node6"><a xlink:href="../../d4/d42/latexgen_8cpp.html" target="_top" xlink:title=" ">
<polygon fill="white" stroke="#666666" points="842,-30 688,-30 688,0 842,0 842,-30"/>
<text text-anchor="start" x="696" y="-18" font-family="Helvetica,sans-Serif" font-size="10.00">/home/runner/work/doxygen</text>
<text text-anchor="middle" x="765" y="-7" font-family="Helvetica,sans-Serif" font-size="10.00">/doxygen/src/latexgen.cpp</text>
</a>
</g>
</g>
<!-- Node1&#45;&gt;Node6 -->
<g id="edge5" class="edge">
<title>Node1&#45;&gt;Node6</title>
<path fill="none" stroke="#63b8ff" d="M823.79,-59.75C810.86,-50.13 795.71,-38.86 784.03,-30.16"/>
<polygon fill="#63b8ff" stroke="#63b8ff" points="821.8,-62.63 831.91,-65.8 825.98,-57.02 821.8,-62.63"/>
</g>
<!-- Node7 -->
<g id="node7" class="node">
<title>Node7</title>
<g id="a_node7"><a xlink:href="../../db/d16/layout_8cpp.html" target="_top" xlink:title=" ">
<polygon fill="white" stroke="#666666" points="1014,-30 860,-30 860,0 1014,0 1014,-30"/>
<text text-anchor="start" x="868" y="-18" font-family="Helvetica,sans-Serif" font-size="10.00">/home/runner/work/doxygen</text>
<text text-anchor="middle" x="937" y="-7" font-family="Helvetica,sans-Serif" font-size="10.00">/doxygen/src/layout.cpp</text>
</a>
</g>
</g>
<!-- Node1&#45;&gt;Node7 -->
<g id="edge6" class="edge">
<title>Node1&#45;&gt;Node7</title>
<path fill="none" stroke="#63b8ff" d="M878.21,-59.75C891.14,-50.13 906.29,-38.86 917.97,-30.16"/>
<polygon fill="#63b8ff" stroke="#63b8ff" points="876.02,-57.02 870.09,-65.8 880.2,-62.63 876.02,-57.02"/>
</g>
<!-- Node8 -->
<g id="node8" class="node">
<title>Node8</title>
<g id="a_node8"><a xlink:href="../../d6/dde/resourcemgr_8cpp.html" target="_top" xlink:title=" ">
<polygon fill="white" stroke="#666666" points="1195.5,-30 1032.5,-30 1032.5,0 1195.5,0 1195.5,-30"/>
<text text-anchor="start" x="1040.5" y="-18" font-family="Helvetica,sans-Serif" font-size="10.00">/home/runner/work/doxygen</text>
<text text-anchor="middle" x="1114" y="-7" font-family="Helvetica,sans-Serif" font-size="10.00">/doxygen/src/resourcemgr.cpp</text>
</a>
</g>
</g>
<!-- Node1&#45;&gt;Node8 -->
<g id="edge7" class="edge">
<title>Node1&#45;&gt;Node8</title>
<path fill="none" stroke="#63b8ff" d="M918.46,-63.58C961.16,-53.19 1015.77,-39.9 1056.42,-30.01"/>
<polygon fill="#63b8ff" stroke="#63b8ff" points="917.61,-60.19 908.72,-65.95 919.26,-66.99 917.61,-60.19"/>
</g>
<!-- Node9 -->
<g id="node9" class="node">
<title>Node9</title>
<g id="a_node9"><a xlink:href="../../d9/d2f/searchindex__js_8cpp.html" target="_top" xlink:title=" ">
<polygon fill="white" stroke="#666666" points="1388.5,-30 1213.5,-30 1213.5,0 1388.5,0 1388.5,-30"/>
<text text-anchor="start" x="1221.5" y="-18" font-family="Helvetica,sans-Serif" font-size="10.00">/home/runner/work/doxygen</text>
<text text-anchor="middle" x="1301" y="-7" font-family="Helvetica,sans-Serif" font-size="10.00">/doxygen/src/searchindex_js.cpp</text>
</a>
</g>
</g>
<!-- Node1&#45;&gt;Node9 -->
<g id="edge8" class="edge">
<title>Node1&#45;&gt;Node9</title>
<path fill="none" stroke="#63b8ff" d="M938.34,-67.77C1010,-57.72 1114.09,-43.05 1205,-30 1207.75,-29.61 1210.55,-29.2 1213.37,-28.8"/>
<polygon fill="#63b8ff" stroke="#63b8ff" points="937.43,-64.37 928.01,-69.22 938.4,-71.3 937.43,-64.37"/>
</g>
<!-- Node10 -->
<g id="node10" class="node">
<title>Node10</title>
<g id="a_node10"><a xlink:href="../../df/d54/template_8cpp.html" target="_top" xlink:title=" ">
<polygon fill="white" stroke="#666666" points="1561,-30 1407,-30 1407,0 1561,0 1561,-30"/>
<text text-anchor="start" x="1415" y="-18" font-family="Helvetica,sans-Serif" font-size="10.00">/home/runner/work/doxygen</text>
<text text-anchor="middle" x="1484" y="-7" font-family="Helvetica,sans-Serif" font-size="10.00">/doxygen/src/template.cpp</text>
</a>
</g>
</g>
<!-- Node1&#45;&gt;Node10 -->
<g id="edge9" class="edge">
<title>Node1&#45;&gt;Node10</title>
<path fill="none" stroke="#63b8ff" d="M938.39,-73.91C1046.55,-65.94 1236.25,-50.53 1398,-30 1400.85,-29.64 1403.75,-29.25 1406.68,-28.85"/>
<polygon fill="#63b8ff" stroke="#63b8ff" points="937.9,-70.44 928.18,-74.66 938.41,-77.42 937.9,-70.44"/>
</g>
<!-- Node11 -->
<g id="node11" class="node">
<title>Node11</title>
<g id="a_node11"><a xlink:href="../../d0/dc3/xmlgen_8cpp.html" target="_top" xlink:title=" ">
<polygon fill="white" stroke="#666666" points="1733,-30 1579,-30 1579,0 1733,0 1733,-30"/>
<text text-anchor="start" x="1587" y="-18" font-family="Helvetica,sans-Serif" font-size="10.00">/home/runner/work/doxygen</text>
<text text-anchor="middle" x="1656" y="-7" font-family="Helvetica,sans-Serif" font-size="10.00">/doxygen/src/xmlgen.cpp</text>
</a>
</g>
</g>
<!-- Node1&#45;&gt;Node11 -->
<g id="edge10" class="edge">
<title>Node1&#45;&gt;Node11</title>
<path fill="none" stroke="#63b8ff" d="M938.41,-76.52C1073.99,-70.53 1343.01,-56.31 1570,-30 1572.86,-29.67 1575.76,-29.31 1578.69,-28.93"/>
<polygon fill="#63b8ff" stroke="#63b8ff" points="937.93,-73.03 928.09,-76.97 938.24,-80.03 937.93,-73.03"/>
</g>
</g>
</svg>
