<?xml version="1.0" encoding="UTF-8" standalone="no"?>
<!DOCTYPE svg PUBLIC "-//W3C//DTD SVG 1.1//EN"
 "http://www.w3.org/Graphics/SVG/1.1/DTD/svg11.dtd">
<!-- Generated by graphviz version 2.43.0 (0)
 -->
<!-- Title: /home/runner/work/doxygen/doxygen/src/classlist.h Pages: 1 -->
<svg width="793pt" height="423pt"
 viewBox="0.00 0.00 793.17 423.00" xmlns="http://www.w3.org/2000/svg" xmlns:xlink="http://www.w3.org/1999/xlink">
<g id="graph0" class="graph" transform="scale(1 1) rotate(0) translate(4 419)">
<title>/home/runner/work/doxygen/doxygen/src/classlist.h</title>
<!-- Node1 -->
<g id="node1" class="node">
<title>Node1</title>
<g id="a_node1"><a xlink:title=" ">
<polygon fill="#999999" stroke="#666666" points="291.67,-415 137.67,-415 137.67,-385 291.67,-385 291.67,-415"/>
<text text-anchor="start" x="145.67" y="-403" font-family="Helvetica,sans-Serif" font-size="10.00">/home/runner/work/doxygen</text>
<text text-anchor="middle" x="214.67" y="-392" font-family="Helvetica,sans-Serif" font-size="10.00">/doxygen/src/classlist.h</text>
</a>
</g>
</g>
<!-- Node2 -->
<g id="node2" class="node">
<title>Node2</title>
<g id="a_node2"><a xlink:href="../../da/de1/linkedmap_8h.html" target="_top" xlink:title=" ">
<polygon fill="white" stroke="#666666" points="309.17,-184 232.17,-184 232.17,-165 309.17,-165 309.17,-184"/>
<text text-anchor="middle" x="270.67" y="-172" font-family="Helvetica,sans-Serif" font-size="10.00">linkedmap.h</text>
</a>
</g>
</g>
<!-- Node1&#45;&gt;Node2 -->
<g id="edge1" class="edge">
<title>Node1&#45;&gt;Node2</title>
<path fill="none" stroke="#63b8ff" d="M175.03,-384.9C101.2,-356.56 -44.78,-289.44 13.67,-220 39.72,-189.05 154.62,-179.62 221.64,-176.76"/>
<polygon fill="#63b8ff" stroke="#63b8ff" points="222.11,-180.24 231.97,-176.35 221.84,-173.25 222.11,-180.24"/>
</g>
<!-- Node16 -->
<g id="node16" class="node">
<title>Node16</title>
<g id="a_node16"><a xlink:href="../../d1/da6/classdef_8h.html" target="_top" xlink:title=" ">
<polygon fill="white" stroke="#666666" points="468.17,-349 403.17,-349 403.17,-330 468.17,-330 468.17,-349"/>
<text text-anchor="middle" x="435.67" y="-337" font-family="Helvetica,sans-Serif" font-size="10.00">classdef.h</text>
</a>
</g>
</g>
<!-- Node1&#45;&gt;Node16 -->
<g id="edge20" class="edge">
<title>Node1&#45;&gt;Node16</title>
<path fill="none" stroke="#63b8ff" d="M267.61,-384.99C306.08,-374.8 357.46,-361.2 393.24,-351.73"/>
<polygon fill="#63b8ff" stroke="#63b8ff" points="394.59,-355 403.36,-349.05 392.8,-348.23 394.59,-355"/>
</g>
<!-- Node3 -->
<g id="node3" class="node">
<title>Node3</title>
<g id="a_node3"><a xlink:title=" ">
<polygon fill="#e0e0e0" stroke="#999999" points="204.17,-129 111.17,-129 111.17,-110 204.17,-110 204.17,-129"/>
<text text-anchor="middle" x="157.67" y="-117" font-family="Helvetica,sans-Serif" font-size="10.00">unordered_map</text>
</a>
</g>
</g>
<!-- Node2&#45;&gt;Node3 -->
<g id="edge2" class="edge">
<title>Node2&#45;&gt;Node3</title>
<path fill="none" stroke="#63b8ff" d="M252.52,-164.98C234.42,-156.5 206.39,-143.35 185.48,-133.54"/>
<polygon fill="#63b8ff" stroke="#63b8ff" points="186.7,-130.25 176.16,-129.17 183.72,-136.59 186.7,-130.25"/>
</g>
<!-- Node4 -->
<g id="node4" class="node">
<title>Node4</title>
<g id="a_node4"><a xlink:title=" ">
<polygon fill="#e0e0e0" stroke="#999999" points="647.17,-129 600.17,-129 600.17,-110 647.17,-110 647.17,-129"/>
<text text-anchor="middle" x="623.67" y="-117" font-family="Helvetica,sans-Serif" font-size="10.00">vector</text>
</a>
</g>
</g>
<!-- Node2&#45;&gt;Node4 -->
<g id="edge3" class="edge">
<title>Node2&#45;&gt;Node4</title>
<path fill="none" stroke="#63b8ff" d="M309.46,-167.68C379.02,-157.23 523.85,-135.49 589.73,-125.6"/>
<polygon fill="#63b8ff" stroke="#63b8ff" points="590.6,-129 599.97,-124.06 589.56,-122.08 590.6,-129"/>
</g>
<!-- Node5 -->
<g id="node5" class="node">
<title>Node5</title>
<g id="a_node5"><a xlink:title=" ">
<polygon fill="#e0e0e0" stroke="#999999" points="394.67,-129 336.67,-129 336.67,-110 394.67,-110 394.67,-129"/>
<text text-anchor="middle" x="365.67" y="-117" font-family="Helvetica,sans-Serif" font-size="10.00">memory</text>
</a>
</g>
</g>
<!-- Node2&#45;&gt;Node5 -->
<g id="edge4" class="edge">
<title>Node2&#45;&gt;Node5</title>
<path fill="none" stroke="#63b8ff" d="M285.93,-164.98C300.8,-156.69 323.65,-143.94 341.09,-134.22"/>
<polygon fill="#63b8ff" stroke="#63b8ff" points="343.1,-137.1 350.13,-129.17 339.69,-130.99 343.1,-137.1"/>
</g>
<!-- Node6 -->
<g id="node6" class="node">
<title>Node6</title>
<g id="a_node6"><a xlink:title=" ">
<polygon fill="#e0e0e0" stroke="#999999" points="326.67,-19 282.67,-19 282.67,0 326.67,0 326.67,-19"/>
<text text-anchor="middle" x="304.67" y="-7" font-family="Helvetica,sans-Serif" font-size="10.00">string</text>
</a>
</g>
</g>
<!-- Node2&#45;&gt;Node6 -->
<g id="edge5" class="edge">
<title>Node2&#45;&gt;Node6</title>
<path fill="none" stroke="#63b8ff" d="M262.81,-164.71C245.64,-144.39 208.02,-93.02 229.67,-55 238.98,-38.66 256.91,-27.7 272.91,-20.74"/>
<polygon fill="#63b8ff" stroke="#63b8ff" points="274.53,-23.87 282.52,-16.92 271.94,-17.36 274.53,-23.87"/>
</g>
<!-- Node7 -->
<g id="node7" class="node">
<title>Node7</title>
<g id="a_node7"><a xlink:title=" ">
<polygon fill="#e0e0e0" stroke="#999999" points="302.67,-74 238.67,-74 238.67,-55 302.67,-55 302.67,-74"/>
<text text-anchor="middle" x="270.67" y="-62" font-family="Helvetica,sans-Serif" font-size="10.00">algorithm</text>
</a>
</g>
</g>
<!-- Node2&#45;&gt;Node7 -->
<g id="edge6" class="edge">
<title>Node2&#45;&gt;Node7</title>
<path fill="none" stroke="#63b8ff" d="M270.67,-164.66C270.67,-147.17 270.67,-107.8 270.67,-84.27"/>
<polygon fill="#63b8ff" stroke="#63b8ff" points="274.17,-84.16 270.67,-74.16 267.17,-84.16 274.17,-84.16"/>
</g>
<!-- Node8 -->
<g id="node8" class="node">
<title>Node8</title>
<g id="a_node8"><a xlink:title=" ">
<polygon fill="#e0e0e0" stroke="#999999" points="370.17,-74 321.17,-74 321.17,-55 370.17,-55 370.17,-74"/>
<text text-anchor="middle" x="345.67" y="-62" font-family="Helvetica,sans-Serif" font-size="10.00">cctype</text>
</a>
</g>
</g>
<!-- Node2&#45;&gt;Node8 -->
<g id="edge7" class="edge">
<title>Node2&#45;&gt;Node8</title>
<path fill="none" stroke="#63b8ff" d="M276.81,-164.66C289.29,-146.69 317.8,-105.64 333.95,-82.38"/>
<polygon fill="#63b8ff" stroke="#63b8ff" points="336.83,-84.37 339.66,-74.16 331.08,-80.38 336.83,-84.37"/>
</g>
<!-- Node9 -->
<g id="node9" class="node">
<title>Node9</title>
<g id="a_node9"><a xlink:href="../../d7/d5c/qcstring_8h.html" target="_top" xlink:title=" ">
<polygon fill="white" stroke="#666666" points="488.17,-129 423.17,-129 423.17,-110 488.17,-110 488.17,-129"/>
<text text-anchor="middle" x="455.67" y="-117" font-family="Helvetica,sans-Serif" font-size="10.00">qcstring.h</text>
</a>
</g>
</g>
<!-- Node2&#45;&gt;Node9 -->
<g id="edge8" class="edge">
<title>Node2&#45;&gt;Node9</title>
<path fill="none" stroke="#63b8ff" d="M300.39,-164.98C331.72,-156.01 381.24,-141.82 415.91,-131.89"/>
<polygon fill="#63b8ff" stroke="#63b8ff" points="417.07,-135.2 425.72,-129.08 415.14,-128.47 417.07,-135.2"/>
</g>
<!-- Node9&#45;&gt;Node6 -->
<g id="edge9" class="edge">
<title>Node9&#45;&gt;Node6</title>
<path fill="none" stroke="#63b8ff" d="M446.07,-109.79C431.86,-97.09 404.14,-73.01 378.67,-55 362.81,-43.78 344.04,-32.52 329.37,-24.13"/>
<polygon fill="#63b8ff" stroke="#63b8ff" points="330.83,-20.93 320.4,-19.06 327.39,-27.02 330.83,-20.93"/>
</g>
<!-- Node9&#45;&gt;Node7 -->
<g id="edge10" class="edge">
<title>Node9&#45;&gt;Node7</title>
<path fill="none" stroke="#63b8ff" d="M425.95,-109.98C394.62,-101.01 345.1,-86.82 310.43,-76.89"/>
<polygon fill="#63b8ff" stroke="#63b8ff" points="311.21,-73.47 300.63,-74.08 309.28,-80.2 311.21,-73.47"/>
</g>
<!-- Node9&#45;&gt;Node8 -->
<g id="edge11" class="edge">
<title>Node9&#45;&gt;Node8</title>
<path fill="none" stroke="#63b8ff" d="M438,-109.98C420.38,-101.5 393.09,-88.35 372.75,-78.54"/>
<polygon fill="#63b8ff" stroke="#63b8ff" points="374.19,-75.36 363.67,-74.17 371.16,-81.66 374.19,-75.36"/>
</g>
<!-- Node10 -->
<g id="node10" class="node">
<title>Node10</title>
<g id="a_node10"><a xlink:title=" ">
<polygon fill="#e0e0e0" stroke="#999999" points="653.67,-74 603.67,-74 603.67,-55 653.67,-55 653.67,-74"/>
<text text-anchor="middle" x="628.67" y="-62" font-family="Helvetica,sans-Serif" font-size="10.00">cstring</text>
</a>
</g>
</g>
<!-- Node9&#45;&gt;Node10 -->
<g id="edge12" class="edge">
<title>Node9&#45;&gt;Node10</title>
<path fill="none" stroke="#63b8ff" d="M483.47,-109.98C513.37,-100.82 561.01,-86.23 593.5,-76.27"/>
<polygon fill="#63b8ff" stroke="#63b8ff" points="594.94,-79.49 603.48,-73.22 592.89,-72.8 594.94,-79.49"/>
</g>
<!-- Node11 -->
<g id="node11" class="node">
<title>Node11</title>
<g id="a_node11"><a xlink:title=" ">
<polygon fill="#e0e0e0" stroke="#999999" points="717.67,-74 671.67,-74 671.67,-55 717.67,-55 717.67,-74"/>
<text text-anchor="middle" x="694.67" y="-62" font-family="Helvetica,sans-Serif" font-size="10.00">cstdio</text>
</a>
</g>
</g>
<!-- Node9&#45;&gt;Node11 -->
<g id="edge13" class="edge">
<title>Node9&#45;&gt;Node11</title>
<path fill="none" stroke="#63b8ff" d="M488.41,-111.97C527.39,-104.08 594.69,-90.11 661.74,-74.13"/>
<polygon fill="#63b8ff" stroke="#63b8ff" points="662.72,-77.5 671.63,-71.76 661.09,-70.69 662.72,-77.5"/>
</g>
<!-- Node12 -->
<g id="node12" class="node">
<title>Node12</title>
<g id="a_node12"><a xlink:title=" ">
<polygon fill="#e0e0e0" stroke="#999999" points="785.17,-74 736.17,-74 736.17,-55 785.17,-55 785.17,-74"/>
<text text-anchor="middle" x="760.67" y="-62" font-family="Helvetica,sans-Serif" font-size="10.00">cstdlib</text>
</a>
</g>
</g>
<!-- Node9&#45;&gt;Node12 -->
<g id="edge14" class="edge">
<title>Node9&#45;&gt;Node12</title>
<path fill="none" stroke="#63b8ff" d="M488.37,-114.02C537.66,-107.07 634.13,-92.72 725.84,-74.02"/>
<polygon fill="#63b8ff" stroke="#63b8ff" points="726.76,-77.4 735.84,-71.96 725.34,-70.55 726.76,-77.4"/>
</g>
<!-- Node13 -->
<g id="node13" class="node">
<title>Node13</title>
<g id="a_node13"><a xlink:title=" ">
<polygon fill="#e0e0e0" stroke="#999999" points="574.67,-19 524.67,-19 524.67,0 574.67,0 574.67,-19"/>
<text text-anchor="middle" x="549.67" y="-7" font-family="Helvetica,sans-Serif" font-size="10.00">cstdint</text>
</a>
</g>
</g>
<!-- Node9&#45;&gt;Node13 -->
<g id="edge15" class="edge">
<title>Node9&#45;&gt;Node13</title>
<path fill="none" stroke="#63b8ff" d="M488.27,-113.46C511.4,-108 540.87,-96.79 555.67,-74 564.33,-60.66 561.39,-42.31 557.13,-28.76"/>
<polygon fill="#63b8ff" stroke="#63b8ff" points="560.34,-27.32 553.64,-19.11 553.76,-29.71 560.34,-27.32"/>
</g>
<!-- Node14 -->
<g id="node14" class="node">
<title>Node14</title>
<g id="a_node14"><a xlink:title=" ">
<polygon fill="#e0e0e0" stroke="#999999" points="484.17,-74 427.17,-74 427.17,-55 484.17,-55 484.17,-74"/>
<text text-anchor="middle" x="455.67" y="-62" font-family="Helvetica,sans-Serif" font-size="10.00">ostream</text>
</a>
</g>
</g>
<!-- Node9&#45;&gt;Node14 -->
<g id="edge16" class="edge">
<title>Node9&#45;&gt;Node14</title>
<path fill="none" stroke="#63b8ff" d="M455.67,-109.75C455.67,-102.8 455.67,-92.85 455.67,-84.13"/>
<polygon fill="#63b8ff" stroke="#63b8ff" points="459.17,-84.09 455.67,-74.09 452.17,-84.09 459.17,-84.09"/>
</g>
<!-- Node15 -->
<g id="node15" class="node">
<title>Node15</title>
<g id="a_node15"><a xlink:href="../../db/d7c/utf8_8h.html" target="_top" xlink:title="Various UTF8 related helper functions.">
<polygon fill="white" stroke="#666666" points="547.17,-74 502.17,-74 502.17,-55 547.17,-55 547.17,-74"/>
<text text-anchor="middle" x="524.67" y="-62" font-family="Helvetica,sans-Serif" font-size="10.00">utf8.h</text>
</a>
</g>
</g>
<!-- Node9&#45;&gt;Node15 -->
<g id="edge17" class="edge">
<title>Node9&#45;&gt;Node15</title>
<path fill="none" stroke="#63b8ff" d="M466.76,-109.98C477.16,-102 492.93,-89.88 505.39,-80.31"/>
<polygon fill="#63b8ff" stroke="#63b8ff" points="507.59,-83.04 513.38,-74.17 503.32,-77.49 507.59,-83.04"/>
</g>
<!-- Node15&#45;&gt;Node6 -->
<g id="edge19" class="edge">
<title>Node15&#45;&gt;Node6</title>
<path fill="none" stroke="#63b8ff" d="M501.97,-57.39C498.85,-56.57 495.68,-55.76 492.67,-55 437.96,-41.26 373.99,-26.37 336.54,-17.77"/>
<polygon fill="#63b8ff" stroke="#63b8ff" points="337.24,-14.34 326.72,-15.51 335.68,-21.16 337.24,-14.34"/>
</g>
<!-- Node15&#45;&gt;Node13 -->
<g id="edge18" class="edge">
<title>Node15&#45;&gt;Node13</title>
<path fill="none" stroke="#63b8ff" d="M528.8,-54.75C532.19,-47.57 537.09,-37.18 541.29,-28.27"/>
<polygon fill="#63b8ff" stroke="#63b8ff" points="544.52,-29.63 545.62,-19.09 538.19,-26.64 544.52,-29.63"/>
</g>
<!-- Node16&#45;&gt;Node4 -->
<g id="edge21" class="edge">
<title>Node16&#45;&gt;Node4</title>
<path fill="none" stroke="#63b8ff" d="M468.21,-337.84C507.84,-335.55 575.23,-326.67 621.67,-294 675.37,-256.22 725.28,-222.55 693.67,-165 685.73,-150.54 670.88,-140.11 656.89,-133"/>
<polygon fill="#63b8ff" stroke="#63b8ff" points="657.98,-129.65 647.44,-128.6 655.03,-135.99 657.98,-129.65"/>
</g>
<!-- Node17 -->
<g id="node17" class="node">
<title>Node17</title>
<g id="a_node17"><a xlink:title=" ">
<polygon fill="#e0e0e0" stroke="#999999" points="54.67,-239 22.67,-239 22.67,-220 54.67,-220 54.67,-239"/>
<text text-anchor="middle" x="38.67" y="-227" font-family="Helvetica,sans-Serif" font-size="10.00">set</text>
</a>
</g>
</g>
<!-- Node16&#45;&gt;Node17 -->
<g id="edge22" class="edge">
<title>Node16&#45;&gt;Node17</title>
<path fill="none" stroke="#63b8ff" d="M402.79,-336.33C351.03,-332.21 247.86,-321.09 164.67,-294 126.63,-281.61 85.84,-259.19 61.3,-244.57"/>
<polygon fill="#63b8ff" stroke="#63b8ff" points="62.8,-241.39 52.43,-239.21 59.17,-247.38 62.8,-241.39"/>
</g>
<!-- Node18 -->
<g id="node18" class="node">
<title>Node18</title>
<g id="a_node18"><a xlink:href="../../d5/d75/containers_8h.html" target="_top" xlink:title=" ">
<polygon fill="white" stroke="#666666" points="251.17,-294 174.17,-294 174.17,-275 251.17,-275 251.17,-294"/>
<text text-anchor="middle" x="212.67" y="-282" font-family="Helvetica,sans-Serif" font-size="10.00">containers.h</text>
</a>
</g>
</g>
<!-- Node16&#45;&gt;Node18 -->
<g id="edge23" class="edge">
<title>Node16&#45;&gt;Node18</title>
<path fill="none" stroke="#63b8ff" d="M402.77,-330.68C364.63,-321.62 301.54,-306.62 258.59,-296.41"/>
<polygon fill="#63b8ff" stroke="#63b8ff" points="259.21,-292.96 248.67,-294.06 257.59,-299.77 259.21,-292.96"/>
</g>
<!-- Node22 -->
<g id="node22" class="node">
<title>Node22</title>
<g id="a_node22"><a xlink:href="../../df/da1/definition_8h.html" target="_top" xlink:title=" ">
<polygon fill="white" stroke="#666666" points="590.17,-294 519.17,-294 519.17,-275 590.17,-275 590.17,-294"/>
<text text-anchor="middle" x="554.67" y="-282" font-family="Helvetica,sans-Serif" font-size="10.00">definition.h</text>
</a>
</g>
</g>
<!-- Node16&#45;&gt;Node22 -->
<g id="edge31" class="edge">
<title>Node16&#45;&gt;Node22</title>
<path fill="none" stroke="#63b8ff" d="M454.79,-329.98C474.02,-321.42 503.9,-308.11 525.98,-298.28"/>
<polygon fill="#63b8ff" stroke="#63b8ff" points="527.49,-301.44 535.2,-294.17 524.65,-295.04 527.49,-301.44"/>
</g>
<!-- Node25 -->
<g id="node25" class="node">
<title>Node25</title>
<g id="a_node25"><a xlink:href="../../df/d9b/arguments_8h.html" target="_top" xlink:title=" ">
<polygon fill="white" stroke="#666666" points="557.67,-184 479.67,-184 479.67,-165 557.67,-165 557.67,-184"/>
<text text-anchor="middle" x="518.67" y="-172" font-family="Helvetica,sans-Serif" font-size="10.00">arguments.h</text>
</a>
</g>
</g>
<!-- Node16&#45;&gt;Node25 -->
<g id="edge41" class="edge">
<title>Node16&#45;&gt;Node25</title>
<path fill="none" stroke="#63b8ff" d="M468.43,-337.44C504.25,-334.65 561.47,-325.2 598.67,-294 619.39,-276.63 618.75,-265.38 624.67,-239 626.52,-230.76 629.35,-227.03 624.67,-220 611.89,-200.77 589.02,-189.84 567.78,-183.62"/>
<polygon fill="#63b8ff" stroke="#63b8ff" points="568.42,-180.17 557.86,-181.01 566.64,-186.94 568.42,-180.17"/>
</g>
<!-- Node26 -->
<g id="node26" class="node">
<title>Node26</title>
<g id="a_node26"><a xlink:href="../../d9/d11/membergroup_8h.html" target="_top" xlink:title=" ">
<polygon fill="white" stroke="#666666" points="483.17,-294 388.17,-294 388.17,-275 483.17,-275 483.17,-294"/>
<text text-anchor="middle" x="435.67" y="-282" font-family="Helvetica,sans-Serif" font-size="10.00">membergroup.h</text>
</a>
</g>
</g>
<!-- Node16&#45;&gt;Node26 -->
<g id="edge44" class="edge">
<title>Node16&#45;&gt;Node26</title>
<path fill="none" stroke="#63b8ff" d="M435.67,-329.75C435.67,-322.8 435.67,-312.85 435.67,-304.13"/>
<polygon fill="#63b8ff" stroke="#63b8ff" points="439.17,-304.09 435.67,-294.09 432.17,-304.09 439.17,-304.09"/>
</g>
<!-- Node18&#45;&gt;Node3 -->
<g id="edge29" class="edge">
<title>Node18&#45;&gt;Node3</title>
<path fill="none" stroke="#63b8ff" d="M186.1,-274.94C169.54,-268.06 149.56,-256.6 139.67,-239 121.66,-206.93 137.1,-162.66 148.39,-138.32"/>
<polygon fill="#63b8ff" stroke="#63b8ff" points="151.6,-139.72 152.86,-129.2 145.31,-136.64 151.6,-139.72"/>
</g>
<!-- Node18&#45;&gt;Node4 -->
<g id="edge24" class="edge">
<title>Node18&#45;&gt;Node4</title>
<path fill="none" stroke="#63b8ff" d="M251.42,-279.94C302.53,-274.54 394.87,-262.34 470.67,-239 527.13,-221.62 549.07,-224.92 591.67,-184 604.6,-171.58 613.15,-152.83 618.14,-138.91"/>
<polygon fill="#63b8ff" stroke="#63b8ff" points="621.6,-139.6 621.39,-129.01 614.95,-137.42 621.6,-139.6"/>
</g>
<!-- Node18&#45;&gt;Node6 -->
<g id="edge25" class="edge">
<title>Node18&#45;&gt;Node6</title>
<path fill="none" stroke="#63b8ff" d="M186.05,-274.91C148.02,-260.78 82.67,-228.76 82.67,-175.5 82.67,-175.5 82.67,-175.5 82.67,-118.5 82.67,-35.21 210.6,-16.14 272.23,-11.78"/>
<polygon fill="#63b8ff" stroke="#63b8ff" points="272.81,-15.25 282.57,-11.15 272.38,-8.27 272.81,-15.25"/>
</g>
<!-- Node18&#45;&gt;Node17 -->
<g id="edge26" class="edge">
<title>Node18&#45;&gt;Node17</title>
<path fill="none" stroke="#63b8ff" d="M184.72,-274.98C151.6,-264.9 96.88,-248.23 64.66,-238.41"/>
<polygon fill="#63b8ff" stroke="#63b8ff" points="65.62,-235.05 55.04,-235.49 63.58,-241.75 65.62,-235.05"/>
</g>
<!-- Node19 -->
<g id="node19" class="node">
<title>Node19</title>
<g id="a_node19"><a xlink:title=" ">
<polygon fill="#e0e0e0" stroke="#999999" points="352.67,-239 314.67,-239 314.67,-220 352.67,-220 352.67,-239"/>
<text text-anchor="middle" x="333.67" y="-227" font-family="Helvetica,sans-Serif" font-size="10.00">map</text>
</a>
</g>
</g>
<!-- Node18&#45;&gt;Node19 -->
<g id="edge27" class="edge">
<title>Node18&#45;&gt;Node19</title>
<path fill="none" stroke="#63b8ff" d="M232.11,-274.98C251.78,-266.37 282.41,-252.95 304.9,-243.1"/>
<polygon fill="#63b8ff" stroke="#63b8ff" points="306.52,-246.21 314.28,-238.99 303.71,-239.8 306.52,-246.21"/>
</g>
<!-- Node20 -->
<g id="node20" class="node">
<title>Node20</title>
<g id="a_node20"><a xlink:title=" ">
<polygon fill="#e0e0e0" stroke="#999999" points="296.67,-239 210.67,-239 210.67,-220 296.67,-220 296.67,-239"/>
<text text-anchor="middle" x="253.67" y="-227" font-family="Helvetica,sans-Serif" font-size="10.00">unordered_set</text>
</a>
</g>
</g>
<!-- Node18&#45;&gt;Node20 -->
<g id="edge28" class="edge">
<title>Node18&#45;&gt;Node20</title>
<path fill="none" stroke="#63b8ff" d="M219.44,-274.75C225.23,-267.26 233.73,-256.28 240.81,-247.13"/>
<polygon fill="#63b8ff" stroke="#63b8ff" points="243.68,-249.14 247.03,-239.09 238.14,-244.86 243.68,-249.14"/>
</g>
<!-- Node21 -->
<g id="node21" class="node">
<title>Node21</title>
<g id="a_node21"><a xlink:title=" ">
<polygon fill="#e0e0e0" stroke="#999999" points="192.17,-239 149.17,-239 149.17,-220 192.17,-220 192.17,-239"/>
<text text-anchor="middle" x="170.67" y="-227" font-family="Helvetica,sans-Serif" font-size="10.00">stack</text>
</a>
</g>
</g>
<!-- Node18&#45;&gt;Node21 -->
<g id="edge30" class="edge">
<title>Node18&#45;&gt;Node21</title>
<path fill="none" stroke="#63b8ff" d="M205.74,-274.75C199.8,-267.26 191.1,-256.28 183.85,-247.13"/>
<polygon fill="#63b8ff" stroke="#63b8ff" points="186.43,-244.75 177.48,-239.09 180.95,-249.1 186.43,-244.75"/>
</g>
<!-- Node22&#45;&gt;Node4 -->
<g id="edge32" class="edge">
<title>Node22&#45;&gt;Node4</title>
<path fill="none" stroke="#63b8ff" d="M590.42,-281.01C618.73,-276.94 656.59,-266.35 675.67,-239 694.49,-212.03 689.43,-194.87 675.67,-165 669.93,-152.52 658.76,-142.24 648.25,-134.71"/>
<polygon fill="#63b8ff" stroke="#63b8ff" points="649.97,-131.65 639.7,-129.05 646.1,-137.49 649.97,-131.65"/>
</g>
<!-- Node23 -->
<g id="node23" class="node">
<title>Node23</title>
<g id="a_node23"><a xlink:href="../../d9/d49/types_8h.html" target="_top" xlink:title="This file contains a number of basic enums and types.">
<polygon fill="white" stroke="#666666" points="616.17,-239 563.17,-239 563.17,-220 616.17,-220 616.17,-239"/>
<text text-anchor="middle" x="589.67" y="-227" font-family="Helvetica,sans-Serif" font-size="10.00">types.h</text>
</a>
</g>
</g>
<!-- Node22&#45;&gt;Node23 -->
<g id="edge33" class="edge">
<title>Node22&#45;&gt;Node23</title>
<path fill="none" stroke="#63b8ff" d="M560.45,-274.75C565.29,-267.42 572.35,-256.73 578.32,-247.7"/>
<polygon fill="#63b8ff" stroke="#63b8ff" points="581.41,-249.36 584,-239.09 575.57,-245.5 581.41,-249.36"/>
</g>
<!-- Node24 -->
<g id="node24" class="node">
<title>Node24</title>
<g id="a_node24"><a xlink:href="../../d1/d02/reflist_8h.html" target="_top" xlink:title=" ">
<polygon fill="white" stroke="#666666" points="462.17,-239 409.17,-239 409.17,-220 462.17,-220 462.17,-239"/>
<text text-anchor="middle" x="435.67" y="-227" font-family="Helvetica,sans-Serif" font-size="10.00">reflist.h</text>
</a>
</g>
</g>
<!-- Node22&#45;&gt;Node24 -->
<g id="edge35" class="edge">
<title>Node22&#45;&gt;Node24</title>
<path fill="none" stroke="#63b8ff" d="M535.55,-274.98C516.32,-266.42 486.44,-253.11 464.37,-243.28"/>
<polygon fill="#63b8ff" stroke="#63b8ff" points="465.7,-240.04 455.14,-239.17 462.85,-246.44 465.7,-240.04"/>
</g>
<!-- Node23&#45;&gt;Node9 -->
<g id="edge34" class="edge">
<title>Node23&#45;&gt;Node9</title>
<path fill="none" stroke="#63b8ff" d="M563.13,-225.79C535.93,-221.57 494.37,-210.89 470.67,-184 459.9,-171.78 456.5,-153.27 455.58,-139.37"/>
<polygon fill="#63b8ff" stroke="#63b8ff" points="459.07,-138.93 455.29,-129.03 452.08,-139.13 459.07,-138.93"/>
</g>
<!-- Node24&#45;&gt;Node2 -->
<g id="edge40" class="edge">
<title>Node24&#45;&gt;Node2</title>
<path fill="none" stroke="#63b8ff" d="M409.16,-219.98C381.46,-211.09 337.81,-197.07 306.93,-187.15"/>
<polygon fill="#63b8ff" stroke="#63b8ff" points="307.98,-183.81 297.39,-184.08 305.84,-190.47 307.98,-183.81"/>
</g>
<!-- Node24&#45;&gt;Node3 -->
<g id="edge37" class="edge">
<title>Node24&#45;&gt;Node3</title>
<path fill="none" stroke="#63b8ff" d="M409.17,-224.86C359.57,-217.73 254.84,-201.15 222.67,-184 201.23,-172.57 182.06,-151.9 170.19,-137.26"/>
<polygon fill="#63b8ff" stroke="#63b8ff" points="172.7,-134.78 163.79,-129.05 167.18,-139.09 172.7,-134.78"/>
</g>
<!-- Node24&#45;&gt;Node4 -->
<g id="edge36" class="edge">
<title>Node24&#45;&gt;Node4</title>
<path fill="none" stroke="#63b8ff" d="M462.29,-223.63C490.09,-217.64 534.1,-205.5 566.67,-184 585.33,-171.68 601.8,-151.82 612.18,-137.58"/>
<polygon fill="#63b8ff" stroke="#63b8ff" points="615.2,-139.38 618.08,-129.18 609.47,-135.35 615.2,-139.38"/>
</g>
<!-- Node24&#45;&gt;Node5 -->
<g id="edge38" class="edge">
<title>Node24&#45;&gt;Node5</title>
<path fill="none" stroke="#63b8ff" d="M429.94,-219.66C418.35,-201.77 391.92,-161 376.82,-137.69"/>
<polygon fill="#63b8ff" stroke="#63b8ff" points="379.66,-135.65 371.28,-129.16 373.79,-139.45 379.66,-135.65"/>
</g>
<!-- Node24&#45;&gt;Node9 -->
<g id="edge39" class="edge">
<title>Node24&#45;&gt;Node9</title>
<path fill="none" stroke="#63b8ff" d="M434.99,-219.76C434.23,-207.41 433.62,-184.21 437.67,-165 439.61,-155.83 443.32,-146.12 446.87,-138.12"/>
<polygon fill="#63b8ff" stroke="#63b8ff" points="450.04,-139.61 451.14,-129.08 443.71,-136.63 450.04,-139.61"/>
</g>
<!-- Node25&#45;&gt;Node4 -->
<g id="edge42" class="edge">
<title>Node25&#45;&gt;Node4</title>
<path fill="none" stroke="#63b8ff" d="M535.54,-164.98C552.28,-156.54 578.17,-143.47 597.56,-133.68"/>
<polygon fill="#63b8ff" stroke="#63b8ff" points="599.14,-136.8 606.49,-129.17 595.99,-130.55 599.14,-136.8"/>
</g>
<!-- Node25&#45;&gt;Node9 -->
<g id="edge43" class="edge">
<title>Node25&#45;&gt;Node9</title>
<path fill="none" stroke="#63b8ff" d="M508.55,-164.98C499.24,-157.15 485.2,-145.34 473.93,-135.86"/>
<polygon fill="#63b8ff" stroke="#63b8ff" points="475.88,-132.93 465.98,-129.17 471.38,-138.29 475.88,-132.93"/>
</g>
<!-- Node26&#45;&gt;Node4 -->
<g id="edge45" class="edge">
<title>Node26&#45;&gt;Node4</title>
<path fill="none" stroke="#63b8ff" d="M483.33,-278.02C532.61,-271.38 605.06,-258.6 624.67,-239 650.89,-212.8 639.71,-164.78 630.78,-138.63"/>
<polygon fill="#63b8ff" stroke="#63b8ff" points="634.05,-137.37 627.33,-129.19 627.48,-139.78 634.05,-137.37"/>
</g>
<!-- Node26&#45;&gt;Node5 -->
<g id="edge47" class="edge">
<title>Node26&#45;&gt;Node5</title>
<path fill="none" stroke="#63b8ff" d="M426.76,-274.73C418.63,-266.27 406.83,-252.75 399.67,-239 382.53,-206.06 373,-163.33 368.65,-139.22"/>
<polygon fill="#63b8ff" stroke="#63b8ff" points="372.08,-138.55 366.96,-129.27 365.18,-139.72 372.08,-138.55"/>
</g>
<!-- Node26&#45;&gt;Node19 -->
<g id="edge46" class="edge">
<title>Node26&#45;&gt;Node19</title>
<path fill="none" stroke="#63b8ff" d="M419.28,-274.98C403.1,-266.57 378.1,-253.59 359.29,-243.81"/>
<polygon fill="#63b8ff" stroke="#63b8ff" points="360.85,-240.68 350.36,-239.17 357.62,-246.89 360.85,-240.68"/>
</g>
<!-- Node26&#45;&gt;Node23 -->
<g id="edge48" class="edge">
<title>Node26&#45;&gt;Node23</title>
<path fill="none" stroke="#63b8ff" d="M460.41,-274.98C486.05,-266.16 526.3,-252.31 555.08,-242.41"/>
<polygon fill="#63b8ff" stroke="#63b8ff" points="556.42,-245.65 564.73,-239.08 554.14,-239.03 556.42,-245.65"/>
</g>
<!-- Node26&#45;&gt;Node24 -->
<g id="edge49" class="edge">
<title>Node26&#45;&gt;Node24</title>
<path fill="none" stroke="#63b8ff" d="M435.67,-274.75C435.67,-267.8 435.67,-257.85 435.67,-249.13"/>
<polygon fill="#63b8ff" stroke="#63b8ff" points="439.17,-249.09 435.67,-239.09 432.17,-249.09 439.17,-249.09"/>
</g>
</g>
</svg>
