<?xml version="1.0" encoding="UTF-8" standalone="no"?>
<!DOCTYPE svg PUBLIC "-//W3C//DTD SVG 1.1//EN"
 "http://www.w3.org/Graphics/SVG/1.1/DTD/svg11.dtd">
<!-- Generated by graphviz version 2.43.0 (0)
 -->
<!-- Title: /home/runner/work/doxygen/doxygen/src/membername.h Pages: 1 -->
<svg width="910pt" height="478pt"
 viewBox="0.00 0.00 910.00 478.00" xmlns="http://www.w3.org/2000/svg" xmlns:xlink="http://www.w3.org/1999/xlink">
<g id="graph0" class="graph" transform="scale(1 1) rotate(0) translate(4 474)">
<title>/home/runner/work/doxygen/doxygen/src/membername.h</title>
<!-- Node1 -->
<g id="node1" class="node">
<title>Node1</title>
<g id="a_node1"><a xlink:title=" ">
<polygon fill="#999999" stroke="#666666" points="684,-470 524,-470 524,-440 684,-440 684,-470"/>
<text text-anchor="start" x="532" y="-458" font-family="Helvetica,sans-Serif" font-size="10.00">/home/runner/work/doxygen</text>
<text text-anchor="middle" x="604" y="-447" font-family="Helvetica,sans-Serif" font-size="10.00">/doxygen/src/membername.h</text>
</a>
</g>
</g>
<!-- Node2 -->
<g id="node2" class="node">
<title>Node2</title>
<g id="a_node2"><a xlink:href="../../d4/d46/memberdef_8h.html" target="_top" xlink:title=" ">
<polygon fill="white" stroke="#666666" points="586,-404 504,-404 504,-385 586,-385 586,-404"/>
<text text-anchor="middle" x="545" y="-392" font-family="Helvetica,sans-Serif" font-size="10.00">memberdef.h</text>
</a>
</g>
</g>
<!-- Node1&#45;&gt;Node2 -->
<g id="edge1" class="edge">
<title>Node1&#45;&gt;Node2</title>
<path fill="none" stroke="#63b8ff" d="M589.72,-439.84C581.07,-431.26 570.01,-420.3 561.06,-411.42"/>
<polygon fill="#63b8ff" stroke="#63b8ff" points="563.41,-408.82 553.84,-404.27 558.48,-413.79 563.41,-408.82"/>
</g>
<!-- Node20 -->
<g id="node20" class="node">
<title>Node20</title>
<g id="a_node20"><a xlink:href="../../da/de1/linkedmap_8h.html" target="_top" xlink:title=" ">
<polygon fill="white" stroke="#666666" points="797.5,-184 720.5,-184 720.5,-165 797.5,-165 797.5,-184"/>
<text text-anchor="middle" x="759" y="-172" font-family="Helvetica,sans-Serif" font-size="10.00">linkedmap.h</text>
</a>
</g>
</g>
<!-- Node1&#45;&gt;Node20 -->
<g id="edge56" class="edge">
<title>Node1&#45;&gt;Node20</title>
<path fill="none" stroke="#63b8ff" d="M681.82,-439.93C735.04,-425.3 796,-396.36 796,-340.5 796,-340.5 796,-340.5 796,-283.5 796,-250.12 779.98,-213.91 769.02,-193.04"/>
<polygon fill="#63b8ff" stroke="#63b8ff" points="772.01,-191.21 764.14,-184.12 765.87,-194.57 772.01,-191.21"/>
</g>
<!-- Node3 -->
<g id="node3" class="node">
<title>Node3</title>
<g id="a_node3"><a xlink:title=" ">
<polygon fill="#e0e0e0" stroke="#999999" points="457.5,-129 410.5,-129 410.5,-110 457.5,-110 457.5,-129"/>
<text text-anchor="middle" x="434" y="-117" font-family="Helvetica,sans-Serif" font-size="10.00">vector</text>
</a>
</g>
</g>
<!-- Node2&#45;&gt;Node3 -->
<g id="edge2" class="edge">
<title>Node2&#45;&gt;Node3</title>
<path fill="none" stroke="#63b8ff" d="M503.59,-394.08C376.41,-394.76 0,-388.11 0,-285.5 0,-285.5 0,-285.5 0,-228.5 0,-146.1 298.3,-126.1 400.29,-121.67"/>
<polygon fill="#63b8ff" stroke="#63b8ff" points="400.51,-125.16 410.36,-121.25 400.22,-118.17 400.51,-125.16"/>
</g>
<!-- Node4 -->
<g id="node4" class="node">
<title>Node4</title>
<g id="a_node4"><a xlink:title=" ">
<polygon fill="#e0e0e0" stroke="#999999" points="893,-129 835,-129 835,-110 893,-110 893,-129"/>
<text text-anchor="middle" x="864" y="-117" font-family="Helvetica,sans-Serif" font-size="10.00">memory</text>
</a>
</g>
</g>
<!-- Node2&#45;&gt;Node4 -->
<g id="edge3" class="edge">
<title>Node2&#45;&gt;Node4</title>
<path fill="none" stroke="#63b8ff" d="M586.3,-389.81C680.27,-380.26 902,-350.82 902,-285.5 902,-285.5 902,-285.5 902,-228.5 902,-195.02 885.55,-158.84 874.3,-138.01"/>
<polygon fill="#63b8ff" stroke="#63b8ff" points="877.24,-136.1 869.28,-129.1 871.13,-139.53 877.24,-136.1"/>
</g>
<!-- Node5 -->
<g id="node5" class="node">
<title>Node5</title>
<g id="a_node5"><a xlink:title=" ">
<polygon fill="#e0e0e0" stroke="#999999" points="372,-349 300,-349 300,-330 372,-330 372,-349"/>
<text text-anchor="middle" x="336" y="-337" font-family="Helvetica,sans-Serif" font-size="10.00">sys/types.h</text>
</a>
</g>
</g>
<!-- Node2&#45;&gt;Node5 -->
<g id="edge4" class="edge">
<title>Node2&#45;&gt;Node5</title>
<path fill="none" stroke="#63b8ff" d="M511.42,-384.98C475.65,-375.91 418.88,-361.52 379.66,-351.57"/>
<polygon fill="#63b8ff" stroke="#63b8ff" points="380.4,-348.15 369.84,-349.08 378.68,-354.93 380.4,-348.15"/>
</g>
<!-- Node6 -->
<g id="node6" class="node">
<title>Node6</title>
<g id="a_node6"><a xlink:href="../../d9/d49/types_8h.html" target="_top" xlink:title="This file contains a number of basic enums and types.">
<polygon fill="white" stroke="#666666" points="767.5,-239 714.5,-239 714.5,-220 767.5,-220 767.5,-239"/>
<text text-anchor="middle" x="741" y="-227" font-family="Helvetica,sans-Serif" font-size="10.00">types.h</text>
</a>
</g>
</g>
<!-- Node2&#45;&gt;Node6 -->
<g id="edge5" class="edge">
<title>Node2&#45;&gt;Node6</title>
<path fill="none" stroke="#63b8ff" d="M573.72,-384.97C612.99,-371.84 683,-342.93 722,-294 732.2,-281.2 736.93,-263.03 739.12,-249.41"/>
<polygon fill="#63b8ff" stroke="#63b8ff" points="742.62,-249.61 740.43,-239.24 735.68,-248.72 742.62,-249.61"/>
</g>
<!-- Node17 -->
<g id="node17" class="node">
<title>Node17</title>
<g id="a_node17"><a xlink:href="../../df/da1/definition_8h.html" target="_top" xlink:title=" ">
<polygon fill="white" stroke="#666666" points="712.5,-294 641.5,-294 641.5,-275 712.5,-275 712.5,-294"/>
<text text-anchor="middle" x="677" y="-282" font-family="Helvetica,sans-Serif" font-size="10.00">definition.h</text>
</a>
</g>
</g>
<!-- Node2&#45;&gt;Node17 -->
<g id="edge18" class="edge">
<title>Node2&#45;&gt;Node17</title>
<path fill="none" stroke="#63b8ff" d="M555.8,-384.66C578.35,-366.22 630.62,-323.45 658.58,-300.57"/>
<polygon fill="#63b8ff" stroke="#63b8ff" points="660.89,-303.2 666.42,-294.16 656.46,-297.78 660.89,-303.2"/>
</g>
<!-- Node21 -->
<g id="node21" class="node">
<title>Node21</title>
<g id="a_node21"><a xlink:href="../../df/d9b/arguments_8h.html" target="_top" xlink:title=" ">
<polygon fill="white" stroke="#666666" points="474,-184 396,-184 396,-165 474,-165 474,-184"/>
<text text-anchor="middle" x="435" y="-172" font-family="Helvetica,sans-Serif" font-size="10.00">arguments.h</text>
</a>
</g>
</g>
<!-- Node2&#45;&gt;Node21 -->
<g id="edge34" class="edge">
<title>Node2&#45;&gt;Node21</title>
<path fill="none" stroke="#63b8ff" d="M543.27,-384.94C537.67,-358.59 518.17,-277.02 481,-220 473.85,-209.02 463.52,-198.72 454.47,-190.8"/>
<polygon fill="#63b8ff" stroke="#63b8ff" points="456.55,-187.97 446.64,-184.24 452.06,-193.34 456.55,-187.97"/>
</g>
<!-- Node22 -->
<g id="node22" class="node">
<title>Node22</title>
<g id="a_node22"><a xlink:href="../../d1/da6/classdef_8h.html" target="_top" xlink:title=" ">
<polygon fill="white" stroke="#666666" points="455.5,-349 390.5,-349 390.5,-330 455.5,-330 455.5,-349"/>
<text text-anchor="middle" x="423" y="-337" font-family="Helvetica,sans-Serif" font-size="10.00">classdef.h</text>
</a>
</g>
</g>
<!-- Node2&#45;&gt;Node22 -->
<g id="edge37" class="edge">
<title>Node2&#45;&gt;Node22</title>
<path fill="none" stroke="#63b8ff" d="M525.4,-384.98C505.68,-376.42 475.05,-363.11 452.42,-353.28"/>
<polygon fill="#63b8ff" stroke="#63b8ff" points="453.52,-349.94 442.96,-349.17 450.74,-356.37 453.52,-349.94"/>
</g>
<!-- Node7 -->
<g id="node7" class="node">
<title>Node7</title>
<g id="a_node7"><a xlink:href="../../d7/d5c/qcstring_8h.html" target="_top" xlink:title=" ">
<polygon fill="white" stroke="#666666" points="651.5,-129 586.5,-129 586.5,-110 651.5,-110 651.5,-129"/>
<text text-anchor="middle" x="619" y="-117" font-family="Helvetica,sans-Serif" font-size="10.00">qcstring.h</text>
</a>
</g>
</g>
<!-- Node6&#45;&gt;Node7 -->
<g id="edge6" class="edge">
<title>Node6&#45;&gt;Node7</title>
<path fill="none" stroke="#63b8ff" d="M731.02,-219.66C710.27,-201.3 662.28,-158.81 636.36,-135.87"/>
<polygon fill="#63b8ff" stroke="#63b8ff" points="638.59,-133.17 628.78,-129.16 633.95,-138.41 638.59,-133.17"/>
</g>
<!-- Node8 -->
<g id="node8" class="node">
<title>Node8</title>
<g id="a_node8"><a xlink:title=" ">
<polygon fill="#e0e0e0" stroke="#999999" points="298,-19 254,-19 254,0 298,0 298,-19"/>
<text text-anchor="middle" x="276" y="-7" font-family="Helvetica,sans-Serif" font-size="10.00">string</text>
</a>
</g>
</g>
<!-- Node7&#45;&gt;Node8 -->
<g id="edge7" class="edge">
<title>Node7&#45;&gt;Node8</title>
<path fill="none" stroke="#63b8ff" d="M619.02,-109.96C618.54,-96.11 615.42,-68.87 599,-55 555.6,-18.35 381.73,-11.82 308.63,-10.7"/>
<polygon fill="#63b8ff" stroke="#63b8ff" points="308.25,-7.2 298.2,-10.57 308.16,-14.2 308.25,-7.2"/>
</g>
<!-- Node9 -->
<g id="node9" class="node">
<title>Node9</title>
<g id="a_node9"><a xlink:title=" ">
<polygon fill="#e0e0e0" stroke="#999999" points="711,-74 647,-74 647,-55 711,-55 711,-74"/>
<text text-anchor="middle" x="679" y="-62" font-family="Helvetica,sans-Serif" font-size="10.00">algorithm</text>
</a>
</g>
</g>
<!-- Node7&#45;&gt;Node9 -->
<g id="edge8" class="edge">
<title>Node7&#45;&gt;Node9</title>
<path fill="none" stroke="#63b8ff" d="M628.64,-109.98C637.51,-102.15 650.87,-90.34 661.61,-80.86"/>
<polygon fill="#63b8ff" stroke="#63b8ff" points="664.01,-83.41 669.18,-74.17 659.37,-78.17 664.01,-83.41"/>
</g>
<!-- Node10 -->
<g id="node10" class="node">
<title>Node10</title>
<g id="a_node10"><a xlink:title=" ">
<polygon fill="#e0e0e0" stroke="#999999" points="778.5,-74 729.5,-74 729.5,-55 778.5,-55 778.5,-74"/>
<text text-anchor="middle" x="754" y="-62" font-family="Helvetica,sans-Serif" font-size="10.00">cctype</text>
</a>
</g>
</g>
<!-- Node7&#45;&gt;Node10 -->
<g id="edge9" class="edge">
<title>Node7&#45;&gt;Node10</title>
<path fill="none" stroke="#63b8ff" d="M640.69,-109.98C662.8,-101.3 697.32,-87.75 722.45,-77.88"/>
<polygon fill="#63b8ff" stroke="#63b8ff" points="723.89,-81.08 731.92,-74.17 721.33,-74.57 723.89,-81.08"/>
</g>
<!-- Node11 -->
<g id="node11" class="node">
<title>Node11</title>
<g id="a_node11"><a xlink:title=" ">
<polygon fill="#e0e0e0" stroke="#999999" points="459,-74 409,-74 409,-55 459,-55 459,-74"/>
<text text-anchor="middle" x="434" y="-62" font-family="Helvetica,sans-Serif" font-size="10.00">cstring</text>
</a>
</g>
</g>
<!-- Node7&#45;&gt;Node11 -->
<g id="edge10" class="edge">
<title>Node7&#45;&gt;Node11</title>
<path fill="none" stroke="#63b8ff" d="M589.28,-109.98C556.46,-100.58 503.69,-85.46 468.92,-75.51"/>
<polygon fill="#63b8ff" stroke="#63b8ff" points="469.77,-72.11 459.19,-72.72 467.84,-78.84 469.77,-72.11"/>
</g>
<!-- Node12 -->
<g id="node12" class="node">
<title>Node12</title>
<g id="a_node12"><a xlink:title=" ">
<polygon fill="#e0e0e0" stroke="#999999" points="523,-74 477,-74 477,-55 523,-55 523,-74"/>
<text text-anchor="middle" x="500" y="-62" font-family="Helvetica,sans-Serif" font-size="10.00">cstdio</text>
</a>
</g>
</g>
<!-- Node7&#45;&gt;Node12 -->
<g id="edge11" class="edge">
<title>Node7&#45;&gt;Node12</title>
<path fill="none" stroke="#63b8ff" d="M599.88,-109.98C580.65,-101.42 550.77,-88.11 528.69,-78.28"/>
<polygon fill="#63b8ff" stroke="#63b8ff" points="530.03,-75.04 519.47,-74.17 527.18,-81.44 530.03,-75.04"/>
</g>
<!-- Node13 -->
<g id="node13" class="node">
<title>Node13</title>
<g id="a_node13"><a xlink:title=" ">
<polygon fill="#e0e0e0" stroke="#999999" points="590.5,-74 541.5,-74 541.5,-55 590.5,-55 590.5,-74"/>
<text text-anchor="middle" x="566" y="-62" font-family="Helvetica,sans-Serif" font-size="10.00">cstdlib</text>
</a>
</g>
</g>
<!-- Node7&#45;&gt;Node13 -->
<g id="edge12" class="edge">
<title>Node7&#45;&gt;Node13</title>
<path fill="none" stroke="#63b8ff" d="M610.25,-109.75C602.53,-102.03 591.1,-90.6 581.78,-81.28"/>
<polygon fill="#63b8ff" stroke="#63b8ff" points="584.14,-78.69 574.59,-74.09 579.19,-83.64 584.14,-78.69"/>
</g>
<!-- Node14 -->
<g id="node14" class="node">
<title>Node14</title>
<g id="a_node14"><a xlink:title=" ">
<polygon fill="#e0e0e0" stroke="#999999" points="218,-19 168,-19 168,0 218,0 218,-19"/>
<text text-anchor="middle" x="193" y="-7" font-family="Helvetica,sans-Serif" font-size="10.00">cstdint</text>
</a>
</g>
</g>
<!-- Node7&#45;&gt;Node14 -->
<g id="edge13" class="edge">
<title>Node7&#45;&gt;Node14</title>
<path fill="none" stroke="#63b8ff" d="M586.04,-111.47C582.99,-110.93 579.94,-110.43 577,-110 532.84,-103.56 207.11,-106.94 177,-74 165.53,-61.45 172.92,-41.91 181.04,-27.81"/>
<polygon fill="#63b8ff" stroke="#63b8ff" points="184.18,-29.4 186.57,-19.08 178.26,-25.66 184.18,-29.4"/>
</g>
<!-- Node15 -->
<g id="node15" class="node">
<title>Node15</title>
<g id="a_node15"><a xlink:title=" ">
<polygon fill="#e0e0e0" stroke="#999999" points="390.5,-74 333.5,-74 333.5,-55 390.5,-55 390.5,-74"/>
<text text-anchor="middle" x="362" y="-62" font-family="Helvetica,sans-Serif" font-size="10.00">ostream</text>
</a>
</g>
</g>
<!-- Node7&#45;&gt;Node15 -->
<g id="edge14" class="edge">
<title>Node7&#45;&gt;Node15</title>
<path fill="none" stroke="#63b8ff" d="M586.49,-111.91C534.4,-101.35 435.22,-81.24 400.53,-74.04"/>
<polygon fill="#63b8ff" stroke="#63b8ff" points="401.13,-70.59 390.62,-71.97 399.69,-77.44 401.13,-70.59"/>
</g>
<!-- Node16 -->
<g id="node16" class="node">
<title>Node16</title>
<g id="a_node16"><a xlink:href="../../db/d7c/utf8_8h.html" target="_top" xlink:title="Various UTF8 related helper functions.">
<polygon fill="white" stroke="#666666" points="231.5,-74 186.5,-74 186.5,-55 231.5,-55 231.5,-74"/>
<text text-anchor="middle" x="209" y="-62" font-family="Helvetica,sans-Serif" font-size="10.00">utf8.h</text>
</a>
</g>
</g>
<!-- Node7&#45;&gt;Node16 -->
<g id="edge15" class="edge">
<title>Node7&#45;&gt;Node16</title>
<path fill="none" stroke="#63b8ff" d="M586.49,-111.65C583.29,-111.06 580.08,-110.5 577,-110 453.93,-90.14 306.4,-74.85 241.89,-68.59"/>
<polygon fill="#63b8ff" stroke="#63b8ff" points="242.2,-65.11 231.91,-67.63 241.53,-72.07 242.2,-65.11"/>
</g>
<!-- Node16&#45;&gt;Node8 -->
<g id="edge17" class="edge">
<title>Node16&#45;&gt;Node8</title>
<path fill="none" stroke="#63b8ff" d="M219.76,-54.98C229.77,-47.07 244.89,-35.11 256.93,-25.58"/>
<polygon fill="#63b8ff" stroke="#63b8ff" points="259.37,-28.12 265.04,-19.17 255.03,-22.63 259.37,-28.12"/>
</g>
<!-- Node16&#45;&gt;Node14 -->
<g id="edge16" class="edge">
<title>Node16&#45;&gt;Node14</title>
<path fill="none" stroke="#63b8ff" d="M206.36,-54.75C204.24,-47.72 201.19,-37.62 198.54,-28.84"/>
<polygon fill="#63b8ff" stroke="#63b8ff" points="201.83,-27.65 195.59,-19.09 195.13,-29.67 201.83,-27.65"/>
</g>
<!-- Node17&#45;&gt;Node3 -->
<g id="edge19" class="edge">
<title>Node17&#45;&gt;Node3</title>
<path fill="none" stroke="#63b8ff" d="M658.83,-274.9C641.82,-266.55 615.96,-253.11 595,-239 552.05,-210.07 547.03,-195.26 505,-165 489.6,-153.91 471.46,-142.57 457.37,-134.11"/>
<polygon fill="#63b8ff" stroke="#63b8ff" points="459.16,-131.1 448.77,-129 455.58,-137.12 459.16,-131.1"/>
</g>
<!-- Node17&#45;&gt;Node6 -->
<g id="edge20" class="edge">
<title>Node17&#45;&gt;Node6</title>
<path fill="none" stroke="#63b8ff" d="M687.28,-274.98C696.84,-267.07 711.28,-255.11 722.78,-245.58"/>
<polygon fill="#63b8ff" stroke="#63b8ff" points="725.06,-248.24 730.53,-239.17 720.6,-242.85 725.06,-248.24"/>
</g>
<!-- Node18 -->
<g id="node18" class="node">
<title>Node18</title>
<g id="a_node18"><a xlink:href="../../d1/d02/reflist_8h.html" target="_top" xlink:title=" ">
<polygon fill="white" stroke="#666666" points="657.5,-239 604.5,-239 604.5,-220 657.5,-220 657.5,-239"/>
<text text-anchor="middle" x="631" y="-227" font-family="Helvetica,sans-Serif" font-size="10.00">reflist.h</text>
</a>
</g>
</g>
<!-- Node17&#45;&gt;Node18 -->
<g id="edge21" class="edge">
<title>Node17&#45;&gt;Node18</title>
<path fill="none" stroke="#63b8ff" d="M669.4,-274.75C662.84,-267.18 653.18,-256.05 645.19,-246.84"/>
<polygon fill="#63b8ff" stroke="#63b8ff" points="647.65,-244.35 638.45,-239.09 642.37,-248.94 647.65,-244.35"/>
</g>
<!-- Node18&#45;&gt;Node3 -->
<g id="edge22" class="edge">
<title>Node18&#45;&gt;Node3</title>
<path fill="none" stroke="#63b8ff" d="M622.27,-219.59C608.72,-206.19 581.33,-180.73 554,-165 526.41,-149.12 492.12,-137.08 467.27,-129.55"/>
<polygon fill="#63b8ff" stroke="#63b8ff" points="468.16,-126.16 457.58,-126.7 466.18,-132.88 468.16,-126.16"/>
</g>
<!-- Node18&#45;&gt;Node4 -->
<g id="edge24" class="edge">
<title>Node18&#45;&gt;Node4</title>
<path fill="none" stroke="#63b8ff" d="M657.51,-222.7C703.44,-212.5 794.19,-191.74 807,-184 826.14,-172.44 842.52,-152.43 852.75,-137.96"/>
<polygon fill="#63b8ff" stroke="#63b8ff" points="855.84,-139.64 858.55,-129.4 850.04,-135.72 855.84,-139.64"/>
</g>
<!-- Node18&#45;&gt;Node7 -->
<g id="edge25" class="edge">
<title>Node18&#45;&gt;Node7</title>
<path fill="none" stroke="#63b8ff" d="M631.48,-219.83C632.02,-207.56 632.53,-184.46 630,-165 628.87,-156.32 626.68,-146.88 624.55,-138.94"/>
<polygon fill="#63b8ff" stroke="#63b8ff" points="627.9,-137.91 621.79,-129.25 621.17,-139.83 627.9,-137.91"/>
</g>
<!-- Node19 -->
<g id="node19" class="node">
<title>Node19</title>
<g id="a_node19"><a xlink:title=" ">
<polygon fill="#e0e0e0" stroke="#999999" points="568.5,-129 475.5,-129 475.5,-110 568.5,-110 568.5,-129"/>
<text text-anchor="middle" x="522" y="-117" font-family="Helvetica,sans-Serif" font-size="10.00">unordered_map</text>
</a>
</g>
</g>
<!-- Node18&#45;&gt;Node19 -->
<g id="edge23" class="edge">
<title>Node18&#45;&gt;Node19</title>
<path fill="none" stroke="#63b8ff" d="M627.25,-219.86C621.26,-206.79 608.52,-181.78 592,-165 579.69,-152.49 563.23,-141.81 549.37,-134.05"/>
<polygon fill="#63b8ff" stroke="#63b8ff" points="550.74,-130.81 540.27,-129.15 547.42,-136.97 550.74,-130.81"/>
</g>
<!-- Node18&#45;&gt;Node20 -->
<g id="edge26" class="edge">
<title>Node18&#45;&gt;Node20</title>
<path fill="none" stroke="#63b8ff" d="M651.57,-219.98C672.43,-211.34 704.97,-197.87 728.77,-188.02"/>
<polygon fill="#63b8ff" stroke="#63b8ff" points="730.16,-191.23 738.06,-184.17 727.48,-184.76 730.16,-191.23"/>
</g>
<!-- Node20&#45;&gt;Node3 -->
<g id="edge28" class="edge">
<title>Node20&#45;&gt;Node3</title>
<path fill="none" stroke="#63b8ff" d="M720.37,-168.99C665.96,-162.35 563.51,-148.76 467.56,-129.14"/>
<polygon fill="#63b8ff" stroke="#63b8ff" points="468.2,-125.7 457.7,-127.1 466.78,-132.56 468.2,-125.7"/>
</g>
<!-- Node20&#45;&gt;Node4 -->
<g id="edge29" class="edge">
<title>Node20&#45;&gt;Node4</title>
<path fill="none" stroke="#63b8ff" d="M775.87,-164.98C792.61,-156.54 818.5,-143.47 837.89,-133.68"/>
<polygon fill="#63b8ff" stroke="#63b8ff" points="839.47,-136.8 846.82,-129.17 836.32,-130.55 839.47,-136.8"/>
</g>
<!-- Node20&#45;&gt;Node7 -->
<g id="edge33" class="edge">
<title>Node20&#45;&gt;Node7</title>
<path fill="none" stroke="#63b8ff" d="M736.51,-164.98C713.48,-156.27 677.46,-142.63 651.37,-132.75"/>
<polygon fill="#63b8ff" stroke="#63b8ff" points="652.49,-129.44 641.9,-129.17 650.02,-135.98 652.49,-129.44"/>
</g>
<!-- Node20&#45;&gt;Node8 -->
<g id="edge30" class="edge">
<title>Node20&#45;&gt;Node8</title>
<path fill="none" stroke="#63b8ff" d="M765.72,-164.76C781.45,-143.19 817.2,-86.85 788,-55 755.57,-19.63 416.13,-12.28 308.53,-10.84"/>
<polygon fill="#63b8ff" stroke="#63b8ff" points="308.33,-7.33 298.29,-10.71 308.24,-14.33 308.33,-7.33"/>
</g>
<!-- Node20&#45;&gt;Node9 -->
<g id="edge31" class="edge">
<title>Node20&#45;&gt;Node9</title>
<path fill="none" stroke="#63b8ff" d="M752.45,-164.66C739.14,-146.69 708.73,-105.64 691.51,-82.38"/>
<polygon fill="#63b8ff" stroke="#63b8ff" points="694.18,-80.11 685.41,-74.16 688.55,-84.28 694.18,-80.11"/>
</g>
<!-- Node20&#45;&gt;Node10 -->
<g id="edge32" class="edge">
<title>Node20&#45;&gt;Node10</title>
<path fill="none" stroke="#63b8ff" d="M758.59,-164.66C757.78,-147.17 755.96,-107.8 754.87,-84.27"/>
<polygon fill="#63b8ff" stroke="#63b8ff" points="758.36,-83.99 754.4,-74.16 751.37,-84.31 758.36,-83.99"/>
</g>
<!-- Node20&#45;&gt;Node19 -->
<g id="edge27" class="edge">
<title>Node20&#45;&gt;Node19</title>
<path fill="none" stroke="#63b8ff" d="M720.92,-164.98C680.01,-155.84 614.89,-141.27 570.38,-131.32"/>
<polygon fill="#63b8ff" stroke="#63b8ff" points="570.9,-127.85 560.38,-129.08 569.37,-134.68 570.9,-127.85"/>
</g>
<!-- Node21&#45;&gt;Node3 -->
<g id="edge35" class="edge">
<title>Node21&#45;&gt;Node3</title>
<path fill="none" stroke="#63b8ff" d="M434.83,-164.75C434.7,-157.8 434.52,-147.85 434.35,-139.13"/>
<polygon fill="#63b8ff" stroke="#63b8ff" points="437.85,-139.02 434.16,-129.09 430.85,-139.15 437.85,-139.02"/>
</g>
<!-- Node21&#45;&gt;Node7 -->
<g id="edge36" class="edge">
<title>Node21&#45;&gt;Node7</title>
<path fill="none" stroke="#63b8ff" d="M464.56,-164.98C495.72,-156.01 544.97,-141.82 579.46,-131.89"/>
<polygon fill="#63b8ff" stroke="#63b8ff" points="580.57,-135.21 589.21,-129.08 578.63,-128.49 580.57,-135.21"/>
</g>
<!-- Node22&#45;&gt;Node3 -->
<g id="edge38" class="edge">
<title>Node22&#45;&gt;Node3</title>
<path fill="none" stroke="#63b8ff" d="M390.46,-331.82C387.26,-331.2 384.07,-330.58 381,-330 231.56,-301.83 -31.1,-343.95 57,-220 97.24,-163.38 315.24,-133.6 400.14,-124.01"/>
<polygon fill="#63b8ff" stroke="#63b8ff" points="400.72,-127.47 410.28,-122.89 399.95,-120.51 400.72,-127.47"/>
</g>
<!-- Node22&#45;&gt;Node17 -->
<g id="edge48" class="edge">
<title>Node22&#45;&gt;Node17</title>
<path fill="none" stroke="#63b8ff" d="M455.69,-331.68C500.31,-322.37 580.53,-305.63 631.15,-295.07"/>
<polygon fill="#63b8ff" stroke="#63b8ff" points="632.09,-298.45 641.17,-292.98 630.66,-291.59 632.09,-298.45"/>
</g>
<!-- Node22&#45;&gt;Node21 -->
<g id="edge49" class="edge">
<title>Node22&#45;&gt;Node21</title>
<path fill="none" stroke="#63b8ff" d="M422.54,-329.84C421.64,-310.2 420.12,-260.86 425,-220 426.03,-211.35 428.03,-201.92 429.96,-193.97"/>
<polygon fill="#63b8ff" stroke="#63b8ff" points="433.35,-194.83 432.47,-184.27 426.58,-193.08 433.35,-194.83"/>
</g>
<!-- Node23 -->
<g id="node23" class="node">
<title>Node23</title>
<g id="a_node23"><a xlink:title=" ">
<polygon fill="#e0e0e0" stroke="#999999" points="98,-239 66,-239 66,-220 98,-220 98,-239"/>
<text text-anchor="middle" x="82" y="-227" font-family="Helvetica,sans-Serif" font-size="10.00">set</text>
</a>
</g>
</g>
<!-- Node22&#45;&gt;Node23 -->
<g id="edge39" class="edge">
<title>Node22&#45;&gt;Node23</title>
<path fill="none" stroke="#63b8ff" d="M390.28,-331.8C342.97,-321.99 257.86,-303.81 228,-294 184.54,-279.73 136.26,-257.37 107.55,-243.35"/>
<polygon fill="#63b8ff" stroke="#63b8ff" points="108.77,-240.05 98.25,-238.76 105.67,-246.32 108.77,-240.05"/>
</g>
<!-- Node24 -->
<g id="node24" class="node">
<title>Node24</title>
<g id="a_node24"><a xlink:href="../../d5/d75/containers_8h.html" target="_top" xlink:title=" ">
<polygon fill="white" stroke="#666666" points="314.5,-294 237.5,-294 237.5,-275 314.5,-275 314.5,-294"/>
<text text-anchor="middle" x="276" y="-282" font-family="Helvetica,sans-Serif" font-size="10.00">containers.h</text>
</a>
</g>
</g>
<!-- Node22&#45;&gt;Node24 -->
<g id="edge40" class="edge">
<title>Node22&#45;&gt;Node24</title>
<path fill="none" stroke="#63b8ff" d="M399.38,-329.98C375.1,-321.23 337.05,-307.51 309.63,-297.62"/>
<polygon fill="#63b8ff" stroke="#63b8ff" points="310.64,-294.27 300.05,-294.17 308.27,-300.85 310.64,-294.27"/>
</g>
<!-- Node28 -->
<g id="node28" class="node">
<title>Node28</title>
<g id="a_node28"><a xlink:href="../../d9/d11/membergroup_8h.html" target="_top" xlink:title=" ">
<polygon fill="white" stroke="#666666" points="623.5,-294 528.5,-294 528.5,-275 623.5,-275 623.5,-294"/>
<text text-anchor="middle" x="576" y="-282" font-family="Helvetica,sans-Serif" font-size="10.00">membergroup.h</text>
</a>
</g>
</g>
<!-- Node22&#45;&gt;Node28 -->
<g id="edge50" class="edge">
<title>Node22&#45;&gt;Node28</title>
<path fill="none" stroke="#63b8ff" d="M447.58,-329.98C473.05,-321.16 513.04,-307.31 541.63,-297.41"/>
<polygon fill="#63b8ff" stroke="#63b8ff" points="542.92,-300.66 551.23,-294.08 540.63,-294.05 542.92,-300.66"/>
</g>
<!-- Node24&#45;&gt;Node3 -->
<g id="edge41" class="edge">
<title>Node24&#45;&gt;Node3</title>
<path fill="none" stroke="#63b8ff" d="M241.31,-274.98C207.95,-265.01 165.04,-246.44 183,-220 232.37,-147.33 343.98,-127.73 400.24,-122.45"/>
<polygon fill="#63b8ff" stroke="#63b8ff" points="400.73,-125.92 410.4,-121.6 400.14,-118.95 400.73,-125.92"/>
</g>
<!-- Node24&#45;&gt;Node8 -->
<g id="edge42" class="edge">
<title>Node24&#45;&gt;Node8</title>
<path fill="none" stroke="#63b8ff" d="M237.34,-277.14C215.04,-271.27 188.76,-260.11 175,-239 170.39,-231.93 173.12,-228.23 175,-220 184.16,-179.91 242.67,-71.01 266.21,-28.16"/>
<polygon fill="#63b8ff" stroke="#63b8ff" points="269.39,-29.64 271.16,-19.19 263.26,-26.26 269.39,-29.64"/>
</g>
<!-- Node24&#45;&gt;Node19 -->
<g id="edge46" class="edge">
<title>Node24&#45;&gt;Node19</title>
<path fill="none" stroke="#63b8ff" d="M295.71,-274.91C311.41,-267.29 333.16,-254.9 348,-239 373.37,-211.83 358.62,-189.01 387,-165 400.75,-153.37 442.68,-140.54 476.2,-131.66"/>
<polygon fill="#63b8ff" stroke="#63b8ff" points="477.49,-134.94 486.29,-129.04 475.73,-128.17 477.49,-134.94"/>
</g>
<!-- Node24&#45;&gt;Node23 -->
<g id="edge43" class="edge">
<title>Node24&#45;&gt;Node23</title>
<path fill="none" stroke="#63b8ff" d="M244.23,-274.99C211.17,-266.11 157.91,-251.73 112,-239 110.74,-238.65 109.45,-238.29 108.14,-237.93"/>
<polygon fill="#63b8ff" stroke="#63b8ff" points="108.76,-234.46 98.18,-235.12 106.86,-241.2 108.76,-234.46"/>
</g>
<!-- Node25 -->
<g id="node25" class="node">
<title>Node25</title>
<g id="a_node25"><a xlink:title=" ">
<polygon fill="#e0e0e0" stroke="#999999" points="472,-239 434,-239 434,-220 472,-220 472,-239"/>
<text text-anchor="middle" x="453" y="-227" font-family="Helvetica,sans-Serif" font-size="10.00">map</text>
</a>
</g>
</g>
<!-- Node24&#45;&gt;Node25 -->
<g id="edge44" class="edge">
<title>Node24&#45;&gt;Node25</title>
<path fill="none" stroke="#63b8ff" d="M304.44,-274.98C337.24,-265.16 390.89,-249.1 423.95,-239.2"/>
<polygon fill="#63b8ff" stroke="#63b8ff" points="425.33,-242.44 433.91,-236.22 423.32,-235.73 425.33,-242.44"/>
</g>
<!-- Node26 -->
<g id="node26" class="node">
<title>Node26</title>
<g id="a_node26"><a xlink:title=" ">
<polygon fill="#e0e0e0" stroke="#999999" points="278,-239 192,-239 192,-220 278,-220 278,-239"/>
<text text-anchor="middle" x="235" y="-227" font-family="Helvetica,sans-Serif" font-size="10.00">unordered_set</text>
</a>
</g>
</g>
<!-- Node24&#45;&gt;Node26 -->
<g id="edge45" class="edge">
<title>Node24&#45;&gt;Node26</title>
<path fill="none" stroke="#63b8ff" d="M269.23,-274.75C263.44,-267.26 254.94,-256.28 247.86,-247.13"/>
<polygon fill="#63b8ff" stroke="#63b8ff" points="250.53,-244.86 241.64,-239.09 244.99,-249.14 250.53,-244.86"/>
</g>
<!-- Node27 -->
<g id="node27" class="node">
<title>Node27</title>
<g id="a_node27"><a xlink:title=" ">
<polygon fill="#e0e0e0" stroke="#999999" points="339.5,-239 296.5,-239 296.5,-220 339.5,-220 339.5,-239"/>
<text text-anchor="middle" x="318" y="-227" font-family="Helvetica,sans-Serif" font-size="10.00">stack</text>
</a>
</g>
</g>
<!-- Node24&#45;&gt;Node27 -->
<g id="edge47" class="edge">
<title>Node24&#45;&gt;Node27</title>
<path fill="none" stroke="#63b8ff" d="M282.94,-274.75C288.87,-267.26 297.57,-256.28 304.82,-247.13"/>
<polygon fill="#63b8ff" stroke="#63b8ff" points="307.73,-249.1 311.19,-239.09 302.24,-244.75 307.73,-249.1"/>
</g>
<!-- Node28&#45;&gt;Node3 -->
<g id="edge51" class="edge">
<title>Node28&#45;&gt;Node3</title>
<path fill="none" stroke="#63b8ff" d="M569.93,-274.77C555.72,-254.59 518.81,-203.48 483,-165 473.43,-154.72 461.83,-144.11 452.32,-135.84"/>
<polygon fill="#63b8ff" stroke="#63b8ff" points="454.48,-133.07 444.61,-129.23 449.93,-138.39 454.48,-133.07"/>
</g>
<!-- Node28&#45;&gt;Node4 -->
<g id="edge53" class="edge">
<title>Node28&#45;&gt;Node4</title>
<path fill="none" stroke="#63b8ff" d="M593.39,-274.91C627.48,-258.07 700.27,-222.2 706,-220 759.96,-199.23 786.26,-220.62 831,-184 845.1,-172.46 853.87,-153.31 858.8,-139.05"/>
<polygon fill="#63b8ff" stroke="#63b8ff" points="862.2,-139.9 861.84,-129.31 855.52,-137.81 862.2,-139.9"/>
</g>
<!-- Node28&#45;&gt;Node6 -->
<g id="edge54" class="edge">
<title>Node28&#45;&gt;Node6</title>
<path fill="none" stroke="#63b8ff" d="M602.51,-274.98C630.21,-266.09 673.86,-252.07 704.74,-242.15"/>
<polygon fill="#63b8ff" stroke="#63b8ff" points="705.83,-245.47 714.28,-239.08 703.69,-238.81 705.83,-245.47"/>
</g>
<!-- Node28&#45;&gt;Node18 -->
<g id="edge55" class="edge">
<title>Node28&#45;&gt;Node18</title>
<path fill="none" stroke="#63b8ff" d="M585.08,-274.75C593.09,-267.03 604.96,-255.6 614.62,-246.28"/>
<polygon fill="#63b8ff" stroke="#63b8ff" points="617.31,-248.55 622.09,-239.09 612.46,-243.51 617.31,-248.55"/>
</g>
<!-- Node28&#45;&gt;Node25 -->
<g id="edge52" class="edge">
<title>Node28&#45;&gt;Node25</title>
<path fill="none" stroke="#63b8ff" d="M556.24,-274.98C536.04,-266.28 504.45,-252.67 481.54,-242.8"/>
<polygon fill="#63b8ff" stroke="#63b8ff" points="482.88,-239.56 472.31,-238.82 480.11,-245.99 482.88,-239.56"/>
</g>
</g>
</svg>
