<?xml version="1.0" encoding="UTF-8" standalone="no"?>
<!DOCTYPE svg PUBLIC "-//W3C//DTD SVG 1.1//EN"
 "http://www.w3.org/Graphics/SVG/1.1/DTD/svg11.dtd">
<!-- Generated by graphviz version 2.43.0 (0)
 -->
<!-- Title: TranslatorAdapter_1_6_0 Pages: 1 -->
<svg width="1117pt" height="797pt"
 viewBox="0.00 0.00 1117.00 797.00" xmlns="http://www.w3.org/2000/svg" xmlns:xlink="http://www.w3.org/1999/xlink">
<g id="graph0" class="graph" transform="scale(1 1) rotate(0) translate(4 793)">
<title>TranslatorAdapter_1_6_0</title>
<!-- Node1 -->
<g id="node1" class="node">
<title>Node1</title>
<g id="a_node1"><a xlink:title="Adapter class for languages that only contain translations up to version 1.6.0.">
<polygon fill="#999999" stroke="#666666" points="702,-129 565,-129 565,-110 702,-110 702,-129"/>
<text text-anchor="middle" x="633.5" y="-117" font-family="Helvetica,sans-Serif" font-size="10.00">TranslatorAdapter_1_6_0</text>
</a>
</g>
</g>
<!-- Node14 -->
<g id="node14" class="node">
<title>Node14</title>
<g id="a_node14"><a xlink:href="../../d4/d2b/class_translator_adapter__1__4__6.html" target="_top" xlink:title="Adapter class for languages that only contain translations up to version 1.4.6.">
<polygon fill="white" stroke="#666666" points="307,-74 170,-74 170,-55 307,-55 307,-74"/>
<text text-anchor="middle" x="238.5" y="-62" font-family="Helvetica,sans-Serif" font-size="10.00">TranslatorAdapter_1_4_6</text>
</a>
</g>
</g>
<!-- Node1&#45;&gt;Node14 -->
<g id="edge13" class="edge">
<title>Node1&#45;&gt;Node14</title>
<path fill="none" stroke="#63b8ff" d="M559.84,-108.62C485.69,-98.67 372.5,-83.48 302.13,-74.04"/>
<polygon fill="#63b8ff" stroke="#63b8ff" points="559.66,-112.12 570.04,-109.98 560.59,-105.19 559.66,-112.12"/>
</g>
<!-- Node19 -->
<g id="node19" class="node">
<title>Node19</title>
<g id="a_node19"><a xlink:href="../../d3/d65/class_translator_afrikaans.html" target="_top" xlink:title=" ">
<polygon fill="white" stroke="#666666" points="435.5,-74 325.5,-74 325.5,-55 435.5,-55 435.5,-74"/>
<text text-anchor="middle" x="380.5" y="-62" font-family="Helvetica,sans-Serif" font-size="10.00">TranslatorAfrikaans</text>
</a>
</g>
</g>
<!-- Node1&#45;&gt;Node19 -->
<g id="edge18" class="edge">
<title>Node1&#45;&gt;Node19</title>
<path fill="none" stroke="#63b8ff" d="M582.8,-107.88C535.38,-97.94 465.45,-83.3 421.47,-74.08"/>
<polygon fill="#63b8ff" stroke="#63b8ff" points="582.35,-111.36 592.85,-109.98 583.78,-104.51 582.35,-111.36"/>
</g>
<!-- Node20 -->
<g id="node20" class="node">
<title>Node20</title>
<g id="a_node20"><a xlink:href="../../de/df7/class_translator_finnish.html" target="_top" xlink:title=" ">
<polygon fill="white" stroke="#666666" points="553,-74 454,-74 454,-55 553,-55 553,-74"/>
<text text-anchor="middle" x="503.5" y="-62" font-family="Helvetica,sans-Serif" font-size="10.00">TranslatorFinnish</text>
</a>
</g>
</g>
<!-- Node1&#45;&gt;Node20 -->
<g id="edge19" class="edge">
<title>Node1&#45;&gt;Node20</title>
<path fill="none" stroke="#63b8ff" d="M603.23,-106.16C579.16,-96.35 546.1,-82.87 524.77,-74.17"/>
<polygon fill="#63b8ff" stroke="#63b8ff" points="602.03,-109.45 612.61,-109.98 604.67,-102.97 602.03,-109.45"/>
</g>
<!-- Node21 -->
<g id="node21" class="node">
<title>Node21</title>
<g id="a_node21"><a xlink:href="../../d9/ddf/class_translator_macedonian.html" target="_top" xlink:title=" ">
<polygon fill="white" stroke="#666666" points="695.5,-74 571.5,-74 571.5,-55 695.5,-55 695.5,-74"/>
<text text-anchor="middle" x="633.5" y="-62" font-family="Helvetica,sans-Serif" font-size="10.00">TranslatorMacedonian</text>
</a>
</g>
</g>
<!-- Node1&#45;&gt;Node21 -->
<g id="edge20" class="edge">
<title>Node1&#45;&gt;Node21</title>
<path fill="none" stroke="#63b8ff" d="M633.5,-99.66C633.5,-90.93 633.5,-80.99 633.5,-74.09"/>
<polygon fill="#63b8ff" stroke="#63b8ff" points="630,-99.75 633.5,-109.75 637,-99.75 630,-99.75"/>
</g>
<!-- Node22 -->
<g id="node22" class="node">
<title>Node22</title>
<g id="a_node22"><a xlink:href="../../d5/d0a/class_translator_serbian.html" target="_top" xlink:title=" ">
<polygon fill="white" stroke="#666666" points="815,-74 714,-74 714,-55 815,-55 815,-74"/>
<text text-anchor="middle" x="764.5" y="-62" font-family="Helvetica,sans-Serif" font-size="10.00">TranslatorSerbian</text>
</a>
</g>
</g>
<!-- Node1&#45;&gt;Node22 -->
<g id="edge21" class="edge">
<title>Node1&#45;&gt;Node22</title>
<path fill="none" stroke="#63b8ff" d="M664,-106.16C688.25,-96.35 721.57,-82.87 743.07,-74.17"/>
<polygon fill="#63b8ff" stroke="#63b8ff" points="662.5,-102.99 654.55,-109.98 665.13,-109.48 662.5,-102.99"/>
</g>
<!-- Node23 -->
<g id="node23" class="node">
<title>Node23</title>
<g id="a_node23"><a xlink:href="../../dc/d03/class_translator_serbian_cyrillic.html" target="_top" xlink:title=" ">
<polygon fill="white" stroke="#666666" points="968,-74 833,-74 833,-55 968,-55 968,-74"/>
<text text-anchor="middle" x="900.5" y="-62" font-family="Helvetica,sans-Serif" font-size="10.00">TranslatorSerbianCyrillic</text>
</a>
</g>
</g>
<!-- Node1&#45;&gt;Node23 -->
<g id="edge22" class="edge">
<title>Node1&#45;&gt;Node23</title>
<path fill="none" stroke="#63b8ff" d="M686.38,-108C736.43,-98.07 810.66,-83.33 857.27,-74.08"/>
<polygon fill="#63b8ff" stroke="#63b8ff" points="685.53,-104.6 676.4,-109.98 686.89,-111.47 685.53,-104.6"/>
</g>
<!-- Node24 -->
<g id="node24" class="node">
<title>Node24</title>
<g id="a_node24"><a xlink:href="../../df/d20/class_translator_vietnamese.html" target="_top" xlink:title=" ">
<polygon fill="white" stroke="#666666" points="1109,-74 986,-74 986,-55 1109,-55 1109,-74"/>
<text text-anchor="middle" x="1047.5" y="-62" font-family="Helvetica,sans-Serif" font-size="10.00">TranslatorVietnamese</text>
</a>
</g>
</g>
<!-- Node1&#45;&gt;Node24 -->
<g id="edge23" class="edge">
<title>Node1&#45;&gt;Node24</title>
<path fill="none" stroke="#63b8ff" d="M709.97,-108.71C789.48,-98.53 912.37,-82.8 985.88,-73.39"/>
<polygon fill="#63b8ff" stroke="#63b8ff" points="709.49,-105.24 700.02,-109.98 710.38,-112.19 709.49,-105.24"/>
</g>
<!-- Node2 -->
<g id="node2" class="node">
<title>Node2</title>
<g id="a_node2"><a xlink:href="../../da/d24/class_translator_adapter__1__7__5.html" target="_top" xlink:title="Adapter class for languages that only contain translations up to version 1.7.5.">
<polygon fill="white" stroke="#666666" points="702,-184 565,-184 565,-165 702,-165 702,-184"/>
<text text-anchor="middle" x="633.5" y="-172" font-family="Helvetica,sans-Serif" font-size="10.00">TranslatorAdapter_1_7_5</text>
</a>
</g>
</g>
<!-- Node2&#45;&gt;Node1 -->
<g id="edge1" class="edge">
<title>Node2&#45;&gt;Node1</title>
<path fill="none" stroke="#63b8ff" d="M633.5,-154.66C633.5,-145.93 633.5,-135.99 633.5,-129.09"/>
<polygon fill="#63b8ff" stroke="#63b8ff" points="630,-154.75 633.5,-164.75 637,-154.75 630,-154.75"/>
</g>
<!-- Node3 -->
<g id="node3" class="node">
<title>Node3</title>
<g id="a_node3"><a xlink:href="../../de/d49/class_translator_adapter__1__8__0.html" target="_top" xlink:title="Adapter class for languages that only contain translations up to version 1.8.0.">
<polygon fill="white" stroke="#666666" points="702,-239 565,-239 565,-220 702,-220 702,-239"/>
<text text-anchor="middle" x="633.5" y="-227" font-family="Helvetica,sans-Serif" font-size="10.00">TranslatorAdapter_1_8_0</text>
</a>
</g>
</g>
<!-- Node3&#45;&gt;Node2 -->
<g id="edge2" class="edge">
<title>Node3&#45;&gt;Node2</title>
<path fill="none" stroke="#63b8ff" d="M633.5,-209.66C633.5,-200.93 633.5,-190.99 633.5,-184.09"/>
<polygon fill="#63b8ff" stroke="#63b8ff" points="630,-209.75 633.5,-219.75 637,-209.75 630,-209.75"/>
</g>
<!-- Node4 -->
<g id="node4" class="node">
<title>Node4</title>
<g id="a_node4"><a xlink:href="../../d2/d75/class_translator_adapter__1__8__2.html" target="_top" xlink:title=" ">
<polygon fill="white" stroke="#666666" points="702,-294 565,-294 565,-275 702,-275 702,-294"/>
<text text-anchor="middle" x="633.5" y="-282" font-family="Helvetica,sans-Serif" font-size="10.00">TranslatorAdapter_1_8_2</text>
</a>
</g>
</g>
<!-- Node4&#45;&gt;Node3 -->
<g id="edge3" class="edge">
<title>Node4&#45;&gt;Node3</title>
<path fill="none" stroke="#63b8ff" d="M633.5,-264.66C633.5,-255.93 633.5,-245.99 633.5,-239.09"/>
<polygon fill="#63b8ff" stroke="#63b8ff" points="630,-264.75 633.5,-274.75 637,-264.75 630,-264.75"/>
</g>
<!-- Node5 -->
<g id="node5" class="node">
<title>Node5</title>
<g id="a_node5"><a xlink:href="../../de/d2f/class_translator_adapter__1__8__4.html" target="_top" xlink:title=" ">
<polygon fill="white" stroke="#666666" points="702,-349 565,-349 565,-330 702,-330 702,-349"/>
<text text-anchor="middle" x="633.5" y="-337" font-family="Helvetica,sans-Serif" font-size="10.00">TranslatorAdapter_1_8_4</text>
</a>
</g>
</g>
<!-- Node5&#45;&gt;Node4 -->
<g id="edge4" class="edge">
<title>Node5&#45;&gt;Node4</title>
<path fill="none" stroke="#63b8ff" d="M633.5,-319.66C633.5,-310.93 633.5,-300.99 633.5,-294.09"/>
<polygon fill="#63b8ff" stroke="#63b8ff" points="630,-319.75 633.5,-329.75 637,-319.75 630,-319.75"/>
</g>
<!-- Node6 -->
<g id="node6" class="node">
<title>Node6</title>
<g id="a_node6"><a xlink:href="../../d4/d2e/class_translator_adapter__1__8__15.html" target="_top" xlink:title=" ">
<polygon fill="white" stroke="#666666" points="705,-404 562,-404 562,-385 705,-385 705,-404"/>
<text text-anchor="middle" x="633.5" y="-392" font-family="Helvetica,sans-Serif" font-size="10.00">TranslatorAdapter_1_8_15</text>
</a>
</g>
</g>
<!-- Node6&#45;&gt;Node5 -->
<g id="edge5" class="edge">
<title>Node6&#45;&gt;Node5</title>
<path fill="none" stroke="#63b8ff" d="M633.5,-374.66C633.5,-365.93 633.5,-355.99 633.5,-349.09"/>
<polygon fill="#63b8ff" stroke="#63b8ff" points="630,-374.75 633.5,-384.75 637,-374.75 630,-374.75"/>
</g>
<!-- Node7 -->
<g id="node7" class="node">
<title>Node7</title>
<g id="a_node7"><a xlink:href="../../de/dde/class_translator_adapter__1__8__19.html" target="_top" xlink:title=" ">
<polygon fill="white" stroke="#666666" points="705,-459 562,-459 562,-440 705,-440 705,-459"/>
<text text-anchor="middle" x="633.5" y="-447" font-family="Helvetica,sans-Serif" font-size="10.00">TranslatorAdapter_1_8_19</text>
</a>
</g>
</g>
<!-- Node7&#45;&gt;Node6 -->
<g id="edge6" class="edge">
<title>Node7&#45;&gt;Node6</title>
<path fill="none" stroke="#63b8ff" d="M633.5,-429.66C633.5,-420.93 633.5,-410.99 633.5,-404.09"/>
<polygon fill="#63b8ff" stroke="#63b8ff" points="630,-429.75 633.5,-439.75 637,-429.75 630,-429.75"/>
</g>
<!-- Node8 -->
<g id="node8" class="node">
<title>Node8</title>
<g id="a_node8"><a xlink:href="../../d3/d2e/class_translator_adapter__1__9__2.html" target="_top" xlink:title=" ">
<polygon fill="white" stroke="#666666" points="702,-514 565,-514 565,-495 702,-495 702,-514"/>
<text text-anchor="middle" x="633.5" y="-502" font-family="Helvetica,sans-Serif" font-size="10.00">TranslatorAdapter_1_9_2</text>
</a>
</g>
</g>
<!-- Node8&#45;&gt;Node7 -->
<g id="edge7" class="edge">
<title>Node8&#45;&gt;Node7</title>
<path fill="none" stroke="#63b8ff" d="M633.5,-484.66C633.5,-475.93 633.5,-465.99 633.5,-459.09"/>
<polygon fill="#63b8ff" stroke="#63b8ff" points="630,-484.75 633.5,-494.75 637,-484.75 630,-484.75"/>
</g>
<!-- Node9 -->
<g id="node9" class="node">
<title>Node9</title>
<g id="a_node9"><a xlink:href="../../d0/d33/class_translator_adapter__1__9__4.html" target="_top" xlink:title=" ">
<polygon fill="white" stroke="#666666" points="702,-569 565,-569 565,-550 702,-550 702,-569"/>
<text text-anchor="middle" x="633.5" y="-557" font-family="Helvetica,sans-Serif" font-size="10.00">TranslatorAdapter_1_9_4</text>
</a>
</g>
</g>
<!-- Node9&#45;&gt;Node8 -->
<g id="edge8" class="edge">
<title>Node9&#45;&gt;Node8</title>
<path fill="none" stroke="#63b8ff" d="M633.5,-539.66C633.5,-530.93 633.5,-520.99 633.5,-514.09"/>
<polygon fill="#63b8ff" stroke="#63b8ff" points="630,-539.75 633.5,-549.75 637,-539.75 630,-539.75"/>
</g>
<!-- Node10 -->
<g id="node10" class="node">
<title>Node10</title>
<g id="a_node10"><a xlink:href="../../dd/dba/class_translator_adapter__1__9__5.html" target="_top" xlink:title=" ">
<polygon fill="white" stroke="#666666" points="702,-624 565,-624 565,-605 702,-605 702,-624"/>
<text text-anchor="middle" x="633.5" y="-612" font-family="Helvetica,sans-Serif" font-size="10.00">TranslatorAdapter_1_9_5</text>
</a>
</g>
</g>
<!-- Node10&#45;&gt;Node9 -->
<g id="edge9" class="edge">
<title>Node10&#45;&gt;Node9</title>
<path fill="none" stroke="#63b8ff" d="M633.5,-594.66C633.5,-585.93 633.5,-575.99 633.5,-569.09"/>
<polygon fill="#63b8ff" stroke="#63b8ff" points="630,-594.75 633.5,-604.75 637,-594.75 630,-594.75"/>
</g>
<!-- Node11 -->
<g id="node11" class="node">
<title>Node11</title>
<g id="a_node11"><a xlink:href="../../db/d71/class_translator_adapter__1__9__6.html" target="_top" xlink:title=" ">
<polygon fill="white" stroke="#666666" points="702,-679 565,-679 565,-660 702,-660 702,-679"/>
<text text-anchor="middle" x="633.5" y="-667" font-family="Helvetica,sans-Serif" font-size="10.00">TranslatorAdapter_1_9_6</text>
</a>
</g>
</g>
<!-- Node11&#45;&gt;Node10 -->
<g id="edge10" class="edge">
<title>Node11&#45;&gt;Node10</title>
<path fill="none" stroke="#63b8ff" d="M633.5,-649.66C633.5,-640.93 633.5,-630.99 633.5,-624.09"/>
<polygon fill="#63b8ff" stroke="#63b8ff" points="630,-649.75 633.5,-659.75 637,-649.75 630,-649.75"/>
</g>
<!-- Node12 -->
<g id="node12" class="node">
<title>Node12</title>
<g id="a_node12"><a xlink:href="../../db/d6c/class_translator_adapter_base.html" target="_top" xlink:title="Base of the translator adapter tree.">
<polygon fill="white" stroke="#666666" points="697,-734 570,-734 570,-715 697,-715 697,-734"/>
<text text-anchor="middle" x="633.5" y="-722" font-family="Helvetica,sans-Serif" font-size="10.00">TranslatorAdapterBase</text>
</a>
</g>
</g>
<!-- Node12&#45;&gt;Node11 -->
<g id="edge11" class="edge">
<title>Node12&#45;&gt;Node11</title>
<path fill="none" stroke="#63b8ff" d="M633.5,-704.66C633.5,-695.93 633.5,-685.99 633.5,-679.09"/>
<polygon fill="#63b8ff" stroke="#63b8ff" points="630,-704.75 633.5,-714.75 637,-704.75 630,-704.75"/>
</g>
<!-- Node13 -->
<g id="node13" class="node">
<title>Node13</title>
<g id="a_node13"><a xlink:href="../../d8/dfb/class_translator.html" target="_top" xlink:title="Abstract base class for all translatable text fragments.">
<polygon fill="white" stroke="#666666" points="666,-789 601,-789 601,-770 666,-770 666,-789"/>
<text text-anchor="middle" x="633.5" y="-777" font-family="Helvetica,sans-Serif" font-size="10.00">Translator</text>
</a>
</g>
</g>
<!-- Node13&#45;&gt;Node12 -->
<g id="edge12" class="edge">
<title>Node13&#45;&gt;Node12</title>
<path fill="none" stroke="#63b8ff" d="M633.5,-759.66C633.5,-750.93 633.5,-740.99 633.5,-734.09"/>
<polygon fill="#63b8ff" stroke="#63b8ff" points="630,-759.75 633.5,-769.75 637,-759.75 630,-759.75"/>
</g>
<!-- Node15 -->
<g id="node15" class="node">
<title>Node15</title>
<g id="a_node15"><a xlink:href="../../d3/de9/class_translator_arabic.html" target="_top" xlink:title=" ">
<polygon fill="white" stroke="#666666" points="95,-19 0,-19 0,0 95,0 95,-19"/>
<text text-anchor="middle" x="47.5" y="-7" font-family="Helvetica,sans-Serif" font-size="10.00">TranslatorArabic</text>
</a>
</g>
</g>
<!-- Node14&#45;&gt;Node15 -->
<g id="edge14" class="edge">
<title>Node14&#45;&gt;Node15</title>
<path fill="none" stroke="#63b8ff" d="M197.72,-52.18C162,-42.27 110.87,-28.08 78.43,-19.08"/>
<polygon fill="#63b8ff" stroke="#63b8ff" points="197.24,-55.68 207.81,-54.98 199.11,-48.94 197.24,-55.68"/>
</g>
<!-- Node16 -->
<g id="node16" class="node">
<title>Node16</title>
<g id="a_node16"><a xlink:href="../../dc/d53/class_translator_lithuanian.html" target="_top" xlink:title=" ">
<polygon fill="white" stroke="#666666" points="229.5,-19 113.5,-19 113.5,0 229.5,0 229.5,-19"/>
<text text-anchor="middle" x="171.5" y="-7" font-family="Helvetica,sans-Serif" font-size="10.00">TranslatorLithuanian</text>
</a>
</g>
</g>
<!-- Node14&#45;&gt;Node16 -->
<g id="edge15" class="edge">
<title>Node14&#45;&gt;Node16</title>
<path fill="none" stroke="#63b8ff" d="M219.67,-48.6C207.66,-39.11 192.53,-27.13 182.46,-19.17"/>
<polygon fill="#63b8ff" stroke="#63b8ff" points="217.72,-51.53 227.74,-54.98 222.06,-46.04 217.72,-51.53"/>
</g>
<!-- Node17 -->
<g id="node17" class="node">
<title>Node17</title>
<g id="a_node17"><a xlink:href="../../dd/d38/class_translator_norwegian.html" target="_top" xlink:title=" ">
<polygon fill="white" stroke="#666666" points="365,-19 248,-19 248,0 365,0 365,-19"/>
<text text-anchor="middle" x="306.5" y="-7" font-family="Helvetica,sans-Serif" font-size="10.00">TranslatorNorwegian</text>
</a>
</g>
</g>
<!-- Node14&#45;&gt;Node17 -->
<g id="edge16" class="edge">
<title>Node14&#45;&gt;Node17</title>
<path fill="none" stroke="#63b8ff" d="M257.62,-48.6C269.8,-39.11 285.16,-27.13 295.38,-19.17"/>
<polygon fill="#63b8ff" stroke="#63b8ff" points="255.16,-46.08 249.43,-54.98 259.46,-51.6 255.16,-46.08"/>
</g>
<!-- Node18 -->
<g id="node18" class="node">
<title>Node18</title>
<g id="a_node18"><a xlink:href="../../dd/d0b/class_translator_slovene.html" target="_top" xlink:title=" ">
<polygon fill="white" stroke="#666666" points="487.5,-19 383.5,-19 383.5,0 487.5,0 487.5,-19"/>
<text text-anchor="middle" x="435.5" y="-7" font-family="Helvetica,sans-Serif" font-size="10.00">TranslatorSlovene</text>
</a>
</g>
</g>
<!-- Node14&#45;&gt;Node18 -->
<g id="edge17" class="edge">
<title>Node14&#45;&gt;Node18</title>
<path fill="none" stroke="#63b8ff" d="M280.09,-52.31C316.95,-42.39 370,-28.12 403.6,-19.08"/>
<polygon fill="#63b8ff" stroke="#63b8ff" points="278.9,-49.01 270.15,-54.98 280.72,-55.77 278.9,-49.01"/>
</g>
</g>
</svg>
