<?xml version="1.0" encoding="UTF-8" standalone="no"?>
<!DOCTYPE svg PUBLIC "-//W3C//DTD SVG 1.1//EN"
 "http://www.w3.org/Graphics/SVG/1.1/DTD/svg11.dtd">
<!-- Generated by graphviz version 2.43.0 (0)
 -->
<!-- Title: DotClassGraph Pages: 1 -->
<svg width="467pt" height="273pt"
 viewBox="0.00 0.00 466.50 273.00" xmlns="http://www.w3.org/2000/svg" xmlns:xlink="http://www.w3.org/1999/xlink">
<g id="graph0" class="graph" transform="scale(1 1) rotate(0) translate(4 269)">
<title>DotClassGraph</title>
<!-- Node1 -->
<g id="node1" class="node">
<title>Node1</title>
<g id="a_node1"><a xlink:title="Representation of a class inheritance or dependency graph.">
<polygon fill="#999999" stroke="#666666" points="240,-19 151,-19 151,0 240,0 240,-19"/>
<text text-anchor="middle" x="195.5" y="-7" font-family="Helvetica,sans-Serif" font-size="10.00">DotClassGraph</text>
</a>
</g>
</g>
<!-- Node2 -->
<g id="node2" class="node">
<title>Node2</title>
<g id="a_node2"><a xlink:href="../../d0/d32/class_dot_graph.html" target="_top" xlink:title="A dot graph.">
<polygon fill="white" stroke="#666666" points="101,-86.5 38,-86.5 38,-67.5 101,-67.5 101,-86.5"/>
<text text-anchor="middle" x="69.5" y="-74.5" font-family="Helvetica,sans-Serif" font-size="10.00">DotGraph</text>
</a>
</g>
</g>
<!-- Node2&#45;&gt;Node1 -->
<g id="edge1" class="edge">
<title>Node2&#45;&gt;Node1</title>
<path fill="none" stroke="#63b8ff" d="M92.77,-62.24C106.03,-54.55 123.04,-44.95 138.5,-37 150.83,-30.66 164.95,-24.09 176.06,-19.08"/>
<polygon fill="#63b8ff" stroke="#63b8ff" points="90.73,-59.38 83.86,-67.44 94.26,-65.42 90.73,-59.38"/>
</g>
<!-- Node3 -->
<g id="node3" class="node">
<title>Node3</title>
<g id="a_node3"><a xlink:href="../../d2/dc2/class_dir.html" target="_top" xlink:title="Class representing a directory in the file system.">
<polygon fill="white" stroke="#666666" points="31,-203.5 0,-203.5 0,-184.5 31,-184.5 31,-203.5"/>
<text text-anchor="middle" x="15.5" y="-191.5" font-family="Helvetica,sans-Serif" font-size="10.00">Dir</text>
</a>
</g>
</g>
<!-- Node3&#45;&gt;Node2 -->
<g id="edge2" class="edge">
<title>Node3&#45;&gt;Node2</title>
<path fill="none" stroke="#9a32cd" stroke-dasharray="5,2" d="M10.55,-174.38C6.68,-155.66 3.86,-126.7 16.5,-106 21.92,-97.12 31.2,-90.9 40.48,-86.63"/>
<polygon fill="#9a32cd" stroke="#9a32cd" points="7.19,-175.38 12.89,-184.31 14,-173.77 7.19,-175.38"/>
<text text-anchor="middle" x="32" y="-131" font-family="Helvetica,sans-Serif" font-size="10.00" fill="grey"> m_dir</text>
</g>
<!-- Node4 -->
<g id="node4" class="node">
<title>Node4</title>
<g id="a_node4"><a xlink:href="../../d9/d45/class_q_c_string.html" target="_top" xlink:title="This is an alternative implementation of QCString.">
<polygon fill="white" stroke="#666666" points="182,-203.5 123,-203.5 123,-184.5 182,-184.5 182,-203.5"/>
<text text-anchor="middle" x="152.5" y="-191.5" font-family="Helvetica,sans-Serif" font-size="10.00">QCString</text>
</a>
</g>
</g>
<!-- Node4&#45;&gt;Node1 -->
<g id="edge10" class="edge">
<title>Node4&#45;&gt;Node1</title>
<path fill="none" stroke="#9a32cd" stroke-dasharray="5,2" d="M151.11,-174.41C149.82,-149.2 149.62,-103.05 161.5,-66 167.29,-47.92 180.13,-29.67 188.26,-19.26"/>
<polygon fill="#9a32cd" stroke="#9a32cd" points="147.62,-174.66 151.74,-184.42 154.6,-174.22 147.62,-174.66"/>
<text text-anchor="middle" x="208.5" y="-80" font-family="Helvetica,sans-Serif" font-size="10.00" fill="grey"> m_collabFileName</text>
<text text-anchor="middle" x="208.5" y="-69" font-family="Helvetica,sans-Serif" font-size="10.00" fill="grey">m_inheritFileName</text>
</g>
<!-- Node4&#45;&gt;Node2 -->
<g id="edge3" class="edge">
<title>Node4&#45;&gt;Node2</title>
<path fill="none" stroke="#9a32cd" stroke-dasharray="5,2" d="M112.56,-187.22C96.77,-182.78 80.13,-174.92 70.5,-161 54.75,-138.25 62.06,-102.94 66.7,-86.7"/>
<polygon fill="#9a32cd" stroke="#9a32cd" points="112.19,-190.73 122.73,-189.68 113.83,-183.93 112.19,-190.73"/>
<text text-anchor="middle" x="104.5" y="-153" font-family="Helvetica,sans-Serif" font-size="10.00" fill="grey"> m_absPath</text>
<text text-anchor="middle" x="104.5" y="-142" font-family="Helvetica,sans-Serif" font-size="10.00" fill="grey">m_baseName</text>
<text text-anchor="middle" x="104.5" y="-131" font-family="Helvetica,sans-Serif" font-size="10.00" fill="grey">m_fileName</text>
<text text-anchor="middle" x="104.5" y="-120" font-family="Helvetica,sans-Serif" font-size="10.00" fill="grey">m_relPath</text>
<text text-anchor="middle" x="104.5" y="-109" font-family="Helvetica,sans-Serif" font-size="10.00" fill="grey">m_theGraph</text>
</g>
<!-- Node5 -->
<g id="node5" class="node">
<title>Node5</title>
<g id="a_node5"><a xlink:href="../../dd/d7e/class_dot_node.html" target="_top" xlink:title="A node in a dot graph.">
<polygon fill="white" stroke="#666666" points="324,-86.5 265,-86.5 265,-67.5 324,-67.5 324,-86.5"/>
<text text-anchor="middle" x="294.5" y="-74.5" font-family="Helvetica,sans-Serif" font-size="10.00">DotNode</text>
</a>
</g>
</g>
<!-- Node4&#45;&gt;Node5 -->
<g id="edge5" class="edge">
<title>Node4&#45;&gt;Node5</title>
<path fill="none" stroke="#9a32cd" stroke-dasharray="5,2" d="M165.91,-176.78C181.99,-158.05 210.42,-127.12 239.5,-106 250.16,-98.26 263.28,-91.49 274.02,-86.55"/>
<polygon fill="#9a32cd" stroke="#9a32cd" points="163.22,-174.55 159.44,-184.45 168.56,-179.07 163.22,-174.55"/>
<text text-anchor="middle" x="263" y="-142" font-family="Helvetica,sans-Serif" font-size="10.00" fill="grey"> m_label</text>
<text text-anchor="middle" x="263" y="-131" font-family="Helvetica,sans-Serif" font-size="10.00" fill="grey">m_tooltip</text>
<text text-anchor="middle" x="263" y="-120" font-family="Helvetica,sans-Serif" font-size="10.00" fill="grey">m_url</text>
</g>
<!-- Node5&#45;&gt;Node1 -->
<g id="edge4" class="edge">
<title>Node5&#45;&gt;Node1</title>
<path fill="none" stroke="#9a32cd" stroke-dasharray="5,2" d="M273.22,-61.92C253.53,-48.89 224.9,-29.95 208.45,-19.07"/>
<polygon fill="#9a32cd" stroke="#9a32cd" points="271.29,-64.84 281.56,-67.44 275.15,-59 271.29,-64.84"/>
<text text-anchor="middle" x="285" y="-40" font-family="Helvetica,sans-Serif" font-size="10.00" fill="grey"> m_startNode</text>
</g>
<!-- Node6 -->
<g id="node6" class="node">
<title>Node6</title>
<g id="a_node6"><a xlink:href="../../d1/dcf/class_class_def.html" target="_top" xlink:title="A abstract class representing of a compound symbol.">
<polygon fill="white" stroke="#666666" points="318.5,-203.5 258.5,-203.5 258.5,-184.5 318.5,-184.5 318.5,-203.5"/>
<text text-anchor="middle" x="288.5" y="-191.5" font-family="Helvetica,sans-Serif" font-size="10.00">ClassDef</text>
</a>
</g>
</g>
<!-- Node6&#45;&gt;Node5 -->
<g id="edge6" class="edge">
<title>Node6&#45;&gt;Node5</title>
<path fill="none" stroke="#9a32cd" stroke-dasharray="5,2" d="M289.48,-174.25C290.79,-149.06 293.07,-105.32 294.04,-86.74"/>
<polygon fill="#9a32cd" stroke="#9a32cd" points="285.98,-174.19 288.95,-184.36 292.97,-174.55 285.98,-174.19"/>
<text text-anchor="middle" x="324" y="-131" font-family="Helvetica,sans-Serif" font-size="10.00" fill="grey"> m_classDef</text>
</g>
<!-- Node7 -->
<g id="node7" class="node">
<title>Node7</title>
<g id="a_node7"><a xlink:href="../../d5/dcc/class_definition.html" target="_top" xlink:title="The common base class of all entity definitions found in the sources.">
<polygon fill="white" stroke="#666666" points="320.5,-265 256.5,-265 256.5,-246 320.5,-246 320.5,-265"/>
<text text-anchor="middle" x="288.5" y="-253" font-family="Helvetica,sans-Serif" font-size="10.00">Definition</text>
</a>
</g>
</g>
<!-- Node7&#45;&gt;Node6 -->
<g id="edge7" class="edge">
<title>Node7&#45;&gt;Node6</title>
<path fill="none" stroke="#63b8ff" d="M288.5,-235.82C288.5,-225 288.5,-211.9 288.5,-203.51"/>
<polygon fill="#63b8ff" stroke="#63b8ff" points="285,-235.98 288.5,-245.98 292,-235.98 285,-235.98"/>
</g>
<!-- Node8 -->
<g id="node8" class="node">
<title>Node8</title>
<g id="a_node8"><a xlink:href="../../d6/dbb/class_dot_node_map.html" target="_top" xlink:title=" ">
<polygon fill="white" stroke="#666666" points="427.5,-86.5 347.5,-86.5 347.5,-67.5 427.5,-67.5 427.5,-86.5"/>
<text text-anchor="middle" x="387.5" y="-74.5" font-family="Helvetica,sans-Serif" font-size="10.00">DotNodeMap</text>
</a>
</g>
</g>
<!-- Node8&#45;&gt;Node1 -->
<g id="edge8" class="edge">
<title>Node8&#45;&gt;Node1</title>
<path fill="none" stroke="#9a32cd" stroke-dasharray="5,2" d="M367.08,-61.31C354.71,-53.06 338.32,-43.19 322.5,-37 296.07,-26.66 264.89,-20.08 240.04,-16.06"/>
<polygon fill="#9a32cd" stroke="#9a32cd" points="365.45,-64.44 375.67,-67.23 369.42,-58.68 365.45,-64.44"/>
<text text-anchor="middle" x="382" y="-40" font-family="Helvetica,sans-Serif" font-size="10.00" fill="grey"> m_usedNodes</text>
</g>
<!-- Node9 -->
<g id="node9" class="node">
<title>Node9</title>
<g id="a_node9"><a xlink:title=" ">
<polygon fill="white" stroke="#666666" points="458.5,-209 336.5,-209 336.5,-179 458.5,-179 458.5,-209"/>
<text text-anchor="start" x="344.5" y="-197" font-family="Helvetica,sans-Serif" font-size="10.00">std::map&lt; std::string,</text>
<text text-anchor="middle" x="397.5" y="-186" font-family="Helvetica,sans-Serif" font-size="10.00"> DotNode * &gt;</text>
</a>
</g>
</g>
<!-- Node9&#45;&gt;Node8 -->
<g id="edge9" class="edge">
<title>Node9&#45;&gt;Node8</title>
<path fill="none" stroke="#63b8ff" d="M395.4,-168.82C393.16,-143.12 389.75,-103.87 388.25,-86.63"/>
<polygon fill="#63b8ff" stroke="#63b8ff" points="391.92,-169.24 396.27,-178.9 398.89,-168.63 391.92,-169.24"/>
</g>
</g>
</svg>
