<?xml version="1.0" encoding="UTF-8" standalone="no"?>
<!DOCTYPE svg PUBLIC "-//W3C//DTD SVG 1.1//EN"
 "http://www.w3.org/Graphics/SVG/1.1/DTD/svg11.dtd">
<!-- Generated by graphviz version 2.43.0 (0)
 -->
<!-- Title: MemberDefMutable Pages: 1 -->
<svg width="204pt" height="258pt"
 viewBox="0.00 0.00 204.00 258.00" xmlns="http://www.w3.org/2000/svg" xmlns:xlink="http://www.w3.org/1999/xlink">
<g id="graph0" class="graph" transform="scale(1 1) rotate(0) translate(4 254)">
<title>MemberDefMutable</title>
<!-- Node1 -->
<g id="node1" class="node">
<title>Node1</title>
<g id="a_node1"><a xlink:title=" ">
<polygon fill="#999999" stroke="#666666" points="162,-140 48,-140 48,-121 162,-121 162,-140"/>
<text text-anchor="middle" x="105" y="-128" font-family="Helvetica,sans-Serif" font-size="10.00">MemberDefMutable</text>
</a>
</g>
</g>
<!-- Node5 -->
<g id="node5" class="node">
<title>Node5</title>
<g id="a_node5"><a xlink:href="../../dd/d10/class_definition_mixin.html" target="_top" xlink:title=" ">
<polygon fill="white" stroke="#666666" points="185,-85 25,-85 25,-55 185,-55 185,-85"/>
<text text-anchor="start" x="33" y="-73" font-family="Helvetica,sans-Serif" font-size="10.00">DefinitionMixin&lt; MemberDef</text>
<text text-anchor="middle" x="105" y="-62" font-family="Helvetica,sans-Serif" font-size="10.00">Mutable &gt;</text>
</a>
</g>
</g>
<!-- Node1&#45;&gt;Node5 -->
<g id="edge4" class="edge">
<title>Node1&#45;&gt;Node5</title>
<path fill="none" stroke="#63b8ff" d="M105,-110.65C105,-102.36 105,-92.78 105,-85.11"/>
<polygon fill="#63b8ff" stroke="#63b8ff" points="101.5,-110.87 105,-120.87 108.5,-110.87 101.5,-110.87"/>
</g>
<!-- Node2 -->
<g id="node2" class="node">
<title>Node2</title>
<g id="a_node2"><a xlink:href="../../d0/d46/class_definition_mutable.html" target="_top" xlink:title=" ">
<polygon fill="white" stroke="#666666" points="104,-195 0,-195 0,-176 104,-176 104,-195"/>
<text text-anchor="middle" x="52" y="-183" font-family="Helvetica,sans-Serif" font-size="10.00">DefinitionMutable</text>
</a>
</g>
</g>
<!-- Node2&#45;&gt;Node1 -->
<g id="edge1" class="edge">
<title>Node2&#45;&gt;Node1</title>
<path fill="none" stroke="#63b8ff" d="M67.98,-168.52C77.32,-159.18 88.75,-147.75 96.41,-140.09"/>
<polygon fill="#63b8ff" stroke="#63b8ff" points="65.35,-166.2 60.75,-175.75 70.3,-171.15 65.35,-166.2"/>
</g>
<!-- Node3 -->
<g id="node3" class="node">
<title>Node3</title>
<g id="a_node3"><a xlink:href="../../da/d09/class_member_def.html" target="_top" xlink:title="A model of a class/file/namespace member symbol.">
<polygon fill="white" stroke="#666666" points="196,-195 122,-195 122,-176 196,-176 196,-195"/>
<text text-anchor="middle" x="159" y="-183" font-family="Helvetica,sans-Serif" font-size="10.00">MemberDef</text>
</a>
</g>
</g>
<!-- Node3&#45;&gt;Node1 -->
<g id="edge2" class="edge">
<title>Node3&#45;&gt;Node1</title>
<path fill="none" stroke="#63b8ff" d="M142.72,-168.52C133.2,-159.18 121.56,-147.75 113.75,-140.09"/>
<polygon fill="#63b8ff" stroke="#63b8ff" points="140.49,-171.24 150.08,-175.75 145.4,-166.25 140.49,-171.24"/>
</g>
<!-- Node4 -->
<g id="node4" class="node">
<title>Node4</title>
<g id="a_node4"><a xlink:href="../../d5/dcc/class_definition.html" target="_top" xlink:title="The common base class of all entity definitions found in the sources.">
<polygon fill="white" stroke="#666666" points="191,-250 127,-250 127,-231 191,-231 191,-250"/>
<text text-anchor="middle" x="159" y="-238" font-family="Helvetica,sans-Serif" font-size="10.00">Definition</text>
</a>
</g>
</g>
<!-- Node4&#45;&gt;Node3 -->
<g id="edge3" class="edge">
<title>Node4&#45;&gt;Node3</title>
<path fill="none" stroke="#63b8ff" d="M159,-220.66C159,-211.93 159,-201.99 159,-195.09"/>
<polygon fill="#63b8ff" stroke="#63b8ff" points="155.5,-220.75 159,-230.75 162.5,-220.75 155.5,-220.75"/>
</g>
<!-- Node6 -->
<g id="node6" class="node">
<title>Node6</title>
<g id="a_node6"><a xlink:href="../../d7/d7e/class_member_def_impl.html" target="_top" xlink:title=" ">
<polygon fill="white" stroke="#666666" points="153,-19 57,-19 57,0 153,0 153,-19"/>
<text text-anchor="middle" x="105" y="-7" font-family="Helvetica,sans-Serif" font-size="10.00">MemberDefImpl</text>
</a>
</g>
</g>
<!-- Node5&#45;&gt;Node6 -->
<g id="edge5" class="edge">
<title>Node5&#45;&gt;Node6</title>
<path fill="none" stroke="#63b8ff" d="M105,-44.75C105,-35.72 105,-26.03 105,-19.27"/>
<polygon fill="#63b8ff" stroke="#63b8ff" points="101.5,-44.84 105,-54.84 108.5,-44.84 101.5,-44.84"/>
</g>
</g>
</svg>
