<?xml version="1.0" encoding="UTF-8" standalone="no"?>
<!DOCTYPE svg PUBLIC "-//W3C//DTD SVG 1.1//EN"
 "http://www.w3.org/Graphics/SVG/1.1/DTD/svg11.dtd">
<!-- Generated by graphviz version 2.43.0 (0)
 -->
<!-- Title: LayoutDocEntry Pages: 1 -->
<svg width="481pt" height="137pt"
 viewBox="0.00 0.00 481.00 137.00" xmlns="http://www.w3.org/2000/svg" xmlns:xlink="http://www.w3.org/1999/xlink">
<g id="graph0" class="graph" transform="scale(1 1) rotate(0) translate(4 133)">
<title>LayoutDocEntry</title>
<!-- Node1 -->
<g id="node1" class="node">
<title>Node1</title>
<g id="a_node1"><a xlink:title="Base class representing a piece of a documentation page.">
<polygon fill="#999999" stroke="#666666" points="297,-129 203,-129 203,-110 297,-110 297,-129"/>
<text text-anchor="middle" x="250" y="-117" font-family="Helvetica,sans-Serif" font-size="10.00">LayoutDocEntry</text>
</a>
</g>
</g>
<!-- Node2 -->
<g id="node2" class="node">
<title>Node2</title>
<g id="a_node2"><a xlink:href="../../df/df4/struct_layout_doc_entry_member_decl.html" target="_top" xlink:title="Represents of a member declaration list with configurable title and subtitle.">
<polygon fill="white" stroke="#666666" points="156,-74 0,-74 0,-55 156,-55 156,-74"/>
<text text-anchor="middle" x="78" y="-62" font-family="Helvetica,sans-Serif" font-size="10.00">LayoutDocEntryMemberDecl</text>
</a>
</g>
</g>
<!-- Node1&#45;&gt;Node2 -->
<g id="edge1" class="edge">
<title>Node1&#45;&gt;Node2</title>
<path fill="none" stroke="#63b8ff" d="M212.44,-106.93C180.32,-97.03 134.81,-83.01 105.85,-74.08"/>
<polygon fill="#63b8ff" stroke="#63b8ff" points="211.78,-110.38 222.37,-109.98 213.84,-103.69 211.78,-110.38"/>
</g>
<!-- Node3 -->
<g id="node3" class="node">
<title>Node3</title>
<g id="a_node3"><a xlink:href="../../d2/def/struct_layout_doc_entry_member_def.html" target="_top" xlink:title="Represents of a member definition list with configurable title.">
<polygon fill="white" stroke="#666666" points="326,-74 174,-74 174,-55 326,-55 326,-74"/>
<text text-anchor="middle" x="250" y="-62" font-family="Helvetica,sans-Serif" font-size="10.00">LayoutDocEntryMemberDef</text>
</a>
</g>
</g>
<!-- Node1&#45;&gt;Node3 -->
<g id="edge2" class="edge">
<title>Node1&#45;&gt;Node3</title>
<path fill="none" stroke="#63b8ff" d="M250,-99.66C250,-90.93 250,-80.99 250,-74.09"/>
<polygon fill="#63b8ff" stroke="#63b8ff" points="246.5,-99.75 250,-109.75 253.5,-99.75 246.5,-99.75"/>
</g>
<!-- Node4 -->
<g id="node4" class="node">
<title>Node4</title>
<g id="a_node4"><a xlink:href="../../d4/dc3/struct_layout_doc_entry_simple.html" target="_top" xlink:title="Represents of a piece of a documentation page without configurable parts.">
<polygon fill="white" stroke="#666666" points="472,-74 344,-74 344,-55 472,-55 472,-74"/>
<text text-anchor="middle" x="408" y="-62" font-family="Helvetica,sans-Serif" font-size="10.00">LayoutDocEntrySimple</text>
</a>
</g>
</g>
<!-- Node1&#45;&gt;Node4 -->
<g id="edge3" class="edge">
<title>Node1&#45;&gt;Node4</title>
<path fill="none" stroke="#63b8ff" d="M284.88,-106.8C314.37,-96.91 355.93,-82.97 382.42,-74.08"/>
<polygon fill="#63b8ff" stroke="#63b8ff" points="283.75,-103.49 275.39,-109.98 285.98,-110.12 283.75,-103.49"/>
</g>
<!-- Node5 -->
<g id="node5" class="node">
<title>Node5</title>
<g id="a_node5"><a xlink:href="../../dd/da0/struct_layout_doc_entry_section.html" target="_top" xlink:title=" ">
<polygon fill="white" stroke="#666666" points="473,-19 343,-19 343,0 473,0 473,-19"/>
<text text-anchor="middle" x="408" y="-7" font-family="Helvetica,sans-Serif" font-size="10.00">LayoutDocEntrySection</text>
</a>
</g>
</g>
<!-- Node4&#45;&gt;Node5 -->
<g id="edge4" class="edge">
<title>Node4&#45;&gt;Node5</title>
<path fill="none" stroke="#63b8ff" d="M408,-44.66C408,-35.93 408,-25.99 408,-19.09"/>
<polygon fill="#63b8ff" stroke="#63b8ff" points="404.5,-44.75 408,-54.75 411.5,-44.75 404.5,-44.75"/>
</g>
</g>
</svg>
