<?xml version="1.0" encoding="UTF-8" standalone="no"?>
<!DOCTYPE svg PUBLIC "-//W3C//DTD SVG 1.1//EN"
 "http://www.w3.org/Graphics/SVG/1.1/DTD/svg11.dtd">
<!-- Generated by graphviz version 2.43.0 (0)
 -->
<!-- Title: /home/runner/work/doxygen/doxygen/src/language.h Pages: 1 -->
<!--zoomable 478 -->
<svg id="main" version="1.1" xmlns="http://www.w3.org/2000/svg" xmlns:xlink="http://www.w3.org/1999/xlink" xml:space="preserve" onload="init(evt)">
<style type="text/css"><![CDATA[
.edge:hover path { stroke: red; }
.edge:hover polygon { stroke: red; fill: red; }
]]></style>
<script type="text/javascript"><![CDATA[
var edges = document.getElementsByTagName('g');
if (edges && edges.length) {
  for (var i=0;i<edges.length;i++) {
    if (edges[i].id.substr(0,4)=='edge') {
      edges[i].setAttribute('class','edge');
    }
  }
}
]]></script>
        <defs>
                <circle id="rim" cx="0" cy="0" r="7"/>
                <circle id="rim2" cx="0" cy="0" r="3.5"/>
                <g id="zoomPlus">
                        <use xlink:href="#rim" fill="#404040">
                                <set attributeName="fill" to="#808080" begin="zoomplus.mouseover" end="zoomplus.mouseout"/>
                        </use>
                        <path d="M-4,0h8M0,-4v8" fill="none" stroke="white" stroke-width="1.5" pointer-events="none"/>
                </g>
                <g id="zoomMin">
                        <use xlink:href="#rim" fill="#404040">
                                <set attributeName="fill" to="#808080" begin="zoomminus.mouseover" end="zoomminus.mouseout"/>
                        </use>
                        <path d="M-4,0h8" fill="none" stroke="white" stroke-width="1.5" pointer-events="none"/>
                </g>
                <g id="dirArrow">
                        <path fill="none" stroke="white" stroke-width="1.5" d="M0,-3.0v7 M-2.5,-0.5L0,-3.0L2.5,-0.5"/>
                </g>
               <g id="resetDef">
                       <use xlink:href="#rim2" fill="#404040">
                               <set attributeName="fill" to="#808080" begin="reset.mouseover" end="reset.mouseout"/>
                       </use>
               </g>
        </defs>

<script type="text/javascript">
var viewWidth = 1056;
var viewHeight = 478;
var sectionId = 'dynsection-0';
</script>
<script xlink:href="../../svgpan.js"/>
<svg id="graph" class="graph">
<g id="viewport">
<title>/home/runner/work/doxygen/doxygen/src/language.h</title>
<!-- Node1 -->
<g id="node1" class="node">
<title>Node1</title>
<g id="a_node1"><a xlink:title=" ">
<polygon fill="#999999" stroke="#666666" points="851.01,-470 697.01,-470 697.01,-440 851.01,-440 851.01,-470"/>
<text text-anchor="start" x="705.01" y="-458" font-family="Helvetica,sans-Serif" font-size="10.00">/home/runner/work/doxygen</text>
<text text-anchor="middle" x="774.01" y="-447" font-family="Helvetica,sans-Serif" font-size="10.00">/doxygen/src/language.h</text>
</a>
</g>
</g>
<!-- Node2 -->
<g id="node2" class="node">
<title>Node2</title>
<g id="a_node2"><a xlink:href="../../d9/df1/translator_8h.html" target="_top" xlink:title=" ">
<polygon fill="white" stroke="#666666" points="743.01,-404 671.01,-404 671.01,-385 743.01,-385 743.01,-404"/>
<text text-anchor="middle" x="707.01" y="-392" font-family="Helvetica,sans-Serif" font-size="10.00">translator.h</text>
</a>
</g>
</g>
<!-- Node1&#45;&gt;Node2 -->
<g id="edge1" class="edge">
<title>Node1&#45;&gt;Node2</title>
<path fill="none" stroke="#63b8ff" d="M757.79,-439.84C747.77,-431.09 734.9,-419.85 724.63,-410.88"/>
<polygon fill="#63b8ff" stroke="#63b8ff" points="726.88,-408.21 717.05,-404.27 722.28,-413.48 726.88,-408.21"/>
</g>
<!-- Node29 -->
<g id="node29" class="node">
<title>Node29</title>
<g id="a_node29"><a xlink:title=" ">
<polygon fill="#e0e0e0" stroke="#999999" points="1047.51,-294 960.51,-294 960.51,-275 1047.51,-275 1047.51,-294"/>
<text text-anchor="middle" x="1004.01" y="-282" font-family="Helvetica,sans-Serif" font-size="10.00">configvalues.h</text>
</a>
</g>
</g>
<!-- Node1&#45;&gt;Node29 -->
<g id="edge60" class="edge">
<title>Node1&#45;&gt;Node29</title>
<path fill="none" stroke="#63b8ff" d="M793.22,-439.92C836.35,-408.33 940.5,-332.03 984.19,-300.02"/>
<polygon fill="#63b8ff" stroke="#63b8ff" points="986.32,-302.8 992.32,-294.06 982.19,-297.15 986.32,-302.8"/>
</g>
<!-- Node3 -->
<g id="node3" class="node">
<title>Node3</title>
<g id="a_node3"><a xlink:href="../../d1/da6/classdef_8h.html" target="_top" xlink:title=" ">
<polygon fill="white" stroke="#666666" points="739.51,-349 674.51,-349 674.51,-330 739.51,-330 739.51,-349"/>
<text text-anchor="middle" x="707.01" y="-337" font-family="Helvetica,sans-Serif" font-size="10.00">classdef.h</text>
</a>
</g>
</g>
<!-- Node2&#45;&gt;Node3 -->
<g id="edge2" class="edge">
<title>Node2&#45;&gt;Node3</title>
<path fill="none" stroke="#63b8ff" d="M707.01,-384.75C707.01,-377.8 707.01,-367.85 707.01,-359.13"/>
<polygon fill="#63b8ff" stroke="#63b8ff" points="710.51,-359.09 707.01,-349.09 703.51,-359.09 710.51,-359.09"/>
</g>
<!-- Node28 -->
<g id="node28" class="node">
<title>Node28</title>
<g id="a_node28"><a xlink:href="../../db/d16/config_8h.html" target="_top" xlink:title=" ">
<polygon fill="white" stroke="#666666" points="905.51,-349 850.51,-349 850.51,-330 905.51,-330 905.51,-349"/>
<text text-anchor="middle" x="878.01" y="-337" font-family="Helvetica,sans-Serif" font-size="10.00">config.h</text>
</a>
</g>
</g>
<!-- Node2&#45;&gt;Node28 -->
<g id="edge50" class="edge">
<title>Node2&#45;&gt;Node28</title>
<path fill="none" stroke="#63b8ff" d="M734.48,-384.98C763.19,-376.09 808.43,-362.07 840.43,-352.15"/>
<polygon fill="#63b8ff" stroke="#63b8ff" points="841.81,-355.39 850.32,-349.08 839.73,-348.7 841.81,-355.39"/>
</g>
<!-- Node30 -->
<g id="node30" class="node">
<title>Node30</title>
<g id="a_node30"><a xlink:href="../../de/d1b/datetime_8h.html" target="_top" xlink:title=" ">
<polygon fill="white" stroke="#666666" points="268.01,-349 198.01,-349 198.01,-330 268.01,-330 268.01,-349"/>
<text text-anchor="middle" x="233.01" y="-337" font-family="Helvetica,sans-Serif" font-size="10.00">datetime.h</text>
</a>
</g>
</g>
<!-- Node2&#45;&gt;Node30 -->
<g id="edge52" class="edge">
<title>Node2&#45;&gt;Node30</title>
<path fill="none" stroke="#63b8ff" d="M670.99,-389.47C585.82,-379.95 372.15,-356.06 278.36,-345.57"/>
<polygon fill="#63b8ff" stroke="#63b8ff" points="278.65,-342.08 268.33,-344.45 277.88,-349.04 278.65,-342.08"/>
</g>
<!-- Node32 -->
<g id="node32" class="node">
<title>Node32</title>
<g id="a_node32"><a xlink:href="../../d1/db5/index_8h.html" target="_top" xlink:title=" ">
<polygon fill="white" stroke="#666666" points="579.51,-184 526.51,-184 526.51,-165 579.51,-165 579.51,-184"/>
<text text-anchor="middle" x="553.01" y="-172" font-family="Helvetica,sans-Serif" font-size="10.00">index.h</text>
</a>
</g>
</g>
<!-- Node2&#45;&gt;Node32 -->
<g id="edge55" class="edge">
<title>Node2&#45;&gt;Node32</title>
<path fill="none" stroke="#63b8ff" d="M670.88,-388.86C600.49,-377.65 446.14,-341.94 381.01,-239 376.5,-231.86 375.84,-226.68 381.01,-220 383.12,-217.27 466.52,-196.57 516.39,-184.38"/>
<polygon fill="#63b8ff" stroke="#63b8ff" points="517.3,-187.76 526.19,-182 515.64,-180.96 517.3,-187.76"/>
</g>
<!-- Node4 -->
<g id="node4" class="node">
<title>Node4</title>
<g id="a_node4"><a xlink:title=" ">
<polygon fill="#e0e0e0" stroke="#999999" points="626.51,-129 579.51,-129 579.51,-110 626.51,-110 626.51,-129"/>
<text text-anchor="middle" x="603.01" y="-117" font-family="Helvetica,sans-Serif" font-size="10.00">vector</text>
</a>
</g>
</g>
<!-- Node3&#45;&gt;Node4 -->
<g id="edge3" class="edge">
<title>Node3&#45;&gt;Node4</title>
<path fill="none" stroke="#63b8ff" d="M716.77,-329.82C728.9,-317.92 747.19,-295.65 740.01,-275 718.27,-212.48 656.62,-159.77 623.94,-135.25"/>
<polygon fill="#63b8ff" stroke="#63b8ff" points="625.69,-132.18 615.55,-129.09 621.55,-137.83 625.69,-132.18"/>
</g>
<!-- Node5 -->
<g id="node5" class="node">
<title>Node5</title>
<g id="a_node5"><a xlink:title=" ">
<polygon fill="#e0e0e0" stroke="#999999" points="1048.01,-129 1016.01,-129 1016.01,-110 1048.01,-110 1048.01,-129"/>
<text text-anchor="middle" x="1032.01" y="-117" font-family="Helvetica,sans-Serif" font-size="10.00">set</text>
</a>
</g>
</g>
<!-- Node3&#45;&gt;Node5 -->
<g id="edge4" class="edge">
<title>Node3&#45;&gt;Node5</title>
<path fill="none" stroke="#63b8ff" d="M727.09,-329.96C745.91,-321.66 774.57,-308.26 798.01,-294 883.17,-242.2 975.9,-167.32 1014.07,-135.6"/>
<polygon fill="#63b8ff" stroke="#63b8ff" points="1016.34,-138.27 1021.77,-129.18 1011.85,-132.9 1016.34,-138.27"/>
</g>
<!-- Node6 -->
<g id="node6" class="node">
<title>Node6</title>
<g id="a_node6"><a xlink:href="../../d5/d75/containers_8h.html" target="_top" xlink:title=" ">
<polygon fill="white" stroke="#666666" points="903.51,-184 826.51,-184 826.51,-165 903.51,-165 903.51,-184"/>
<text text-anchor="middle" x="865.01" y="-172" font-family="Helvetica,sans-Serif" font-size="10.00">containers.h</text>
</a>
</g>
</g>
<!-- Node3&#45;&gt;Node6 -->
<g id="edge5" class="edge">
<title>Node3&#45;&gt;Node6</title>
<path fill="none" stroke="#63b8ff" d="M722.96,-329.93C737.24,-321.8 758.29,-308.68 774.01,-294 807.99,-262.28 838.99,-216.9 854.53,-192.53"/>
<polygon fill="#63b8ff" stroke="#63b8ff" points="857.52,-194.34 859.87,-184.01 851.59,-190.62 857.52,-194.34"/>
</g>
<!-- Node12 -->
<g id="node12" class="node">
<title>Node12</title>
<g id="a_node12"><a xlink:href="../../df/da1/definition_8h.html" target="_top" xlink:title=" ">
<polygon fill="white" stroke="#666666" points="618.51,-294 547.51,-294 547.51,-275 618.51,-275 618.51,-294"/>
<text text-anchor="middle" x="583.01" y="-282" font-family="Helvetica,sans-Serif" font-size="10.00">definition.h</text>
</a>
</g>
</g>
<!-- Node3&#45;&gt;Node12 -->
<g id="edge13" class="edge">
<title>Node3&#45;&gt;Node12</title>
<path fill="none" stroke="#63b8ff" d="M687.09,-329.98C666.96,-321.38 635.63,-307.99 612.6,-298.15"/>
<polygon fill="#63b8ff" stroke="#63b8ff" points="613.87,-294.88 603.3,-294.17 611.12,-301.32 613.87,-294.88"/>
</g>
<!-- Node26 -->
<g id="node26" class="node">
<title>Node26</title>
<g id="a_node26"><a xlink:href="../../df/d9b/arguments_8h.html" target="_top" xlink:title=" ">
<polygon fill="white" stroke="#666666" points="299.01,-184 221.01,-184 221.01,-165 299.01,-165 299.01,-184"/>
<text text-anchor="middle" x="260.01" y="-172" font-family="Helvetica,sans-Serif" font-size="10.00">arguments.h</text>
</a>
</g>
</g>
<!-- Node3&#45;&gt;Node26 -->
<g id="edge41" class="edge">
<title>Node3&#45;&gt;Node26</title>
<path fill="none" stroke="#63b8ff" d="M674.21,-331.12C614.43,-317.1 484.39,-283.95 381.01,-239 346.05,-223.8 307.31,-202.67 283.31,-189.04"/>
<polygon fill="#63b8ff" stroke="#63b8ff" points="284.99,-185.96 274.57,-184.03 281.51,-192.04 284.99,-185.96"/>
</g>
<!-- Node27 -->
<g id="node27" class="node">
<title>Node27</title>
<g id="a_node27"><a xlink:href="../../d9/d11/membergroup_8h.html" target="_top" xlink:title=" ">
<polygon fill="white" stroke="#666666" points="731.51,-294 636.51,-294 636.51,-275 731.51,-275 731.51,-294"/>
<text text-anchor="middle" x="684.01" y="-282" font-family="Helvetica,sans-Serif" font-size="10.00">membergroup.h</text>
</a>
</g>
</g>
<!-- Node3&#45;&gt;Node27 -->
<g id="edge44" class="edge">
<title>Node3&#45;&gt;Node27</title>
<path fill="none" stroke="#63b8ff" d="M703.21,-329.75C700.1,-322.57 695.59,-312.18 691.72,-303.27"/>
<polygon fill="#63b8ff" stroke="#63b8ff" points="694.93,-301.87 687.74,-294.09 688.51,-304.66 694.93,-301.87"/>
</g>
<!-- Node6&#45;&gt;Node4 -->
<g id="edge6" class="edge">
<title>Node6&#45;&gt;Node4</title>
<path fill="none" stroke="#63b8ff" d="M826.18,-166.83C782.38,-159.11 708.8,-145.6 636.87,-129.31"/>
<polygon fill="#63b8ff" stroke="#63b8ff" points="637.26,-125.81 626.73,-126.99 635.7,-132.63 637.26,-125.81"/>
</g>
<!-- Node6&#45;&gt;Node5 -->
<g id="edge8" class="edge">
<title>Node6&#45;&gt;Node5</title>
<path fill="none" stroke="#63b8ff" d="M892.33,-164.97C920.76,-156.07 966.54,-141.68 1006.01,-129 1006.11,-128.97 1006.21,-128.94 1006.31,-128.9"/>
<polygon fill="#63b8ff" stroke="#63b8ff" points="1007.36,-132.24 1015.79,-125.83 1005.2,-125.58 1007.36,-132.24"/>
</g>
<!-- Node7 -->
<g id="node7" class="node">
<title>Node7</title>
<g id="a_node7"><a xlink:title=" ">
<polygon fill="#e0e0e0" stroke="#999999" points="479.01,-19 435.01,-19 435.01,0 479.01,0 479.01,-19"/>
<text text-anchor="middle" x="457.01" y="-7" font-family="Helvetica,sans-Serif" font-size="10.00">string</text>
</a>
</g>
</g>
<!-- Node6&#45;&gt;Node7 -->
<g id="edge7" class="edge">
<title>Node6&#45;&gt;Node7</title>
<path fill="none" stroke="#63b8ff" d="M858.83,-164.71C848.73,-150.99 827.35,-124.54 803.01,-110 698.78,-47.71 553.5,-22.66 489.49,-14.2"/>
<polygon fill="#63b8ff" stroke="#63b8ff" points="489.58,-10.68 479.22,-12.9 488.7,-17.63 489.58,-10.68"/>
</g>
<!-- Node8 -->
<g id="node8" class="node">
<title>Node8</title>
<g id="a_node8"><a xlink:title=" ">
<polygon fill="#e0e0e0" stroke="#999999" points="794.01,-129 756.01,-129 756.01,-110 794.01,-110 794.01,-129"/>
<text text-anchor="middle" x="775.01" y="-117" font-family="Helvetica,sans-Serif" font-size="10.00">map</text>
</a>
</g>
</g>
<!-- Node6&#45;&gt;Node8 -->
<g id="edge9" class="edge">
<title>Node6&#45;&gt;Node8</title>
<path fill="none" stroke="#63b8ff" d="M850.55,-164.98C836.59,-156.77 815.22,-144.18 798.76,-134.49"/>
<polygon fill="#63b8ff" stroke="#63b8ff" points="800.13,-131.23 789.73,-129.17 796.57,-137.26 800.13,-131.23"/>
</g>
<!-- Node9 -->
<g id="node9" class="node">
<title>Node9</title>
<g id="a_node9"><a xlink:title=" ">
<polygon fill="#e0e0e0" stroke="#999999" points="936.01,-129 850.01,-129 850.01,-110 936.01,-110 936.01,-129"/>
<text text-anchor="middle" x="893.01" y="-117" font-family="Helvetica,sans-Serif" font-size="10.00">unordered_set</text>
</a>
</g>
</g>
<!-- Node6&#45;&gt;Node9 -->
<g id="edge10" class="edge">
<title>Node6&#45;&gt;Node9</title>
<path fill="none" stroke="#63b8ff" d="M869.63,-164.75C873.47,-157.49 879.03,-146.95 883.78,-137.98"/>
<polygon fill="#63b8ff" stroke="#63b8ff" points="886.9,-139.57 888.47,-129.09 880.71,-136.3 886.9,-139.57"/>
</g>
<!-- Node10 -->
<g id="node10" class="node">
<title>Node10</title>
<g id="a_node10"><a xlink:title=" ">
<polygon fill="#e0e0e0" stroke="#999999" points="737.51,-129 644.51,-129 644.51,-110 737.51,-110 737.51,-129"/>
<text text-anchor="middle" x="691.01" y="-117" font-family="Helvetica,sans-Serif" font-size="10.00">unordered_map</text>
</a>
</g>
</g>
<!-- Node6&#45;&gt;Node10 -->
<g id="edge11" class="edge">
<title>Node6&#45;&gt;Node10</title>
<path fill="none" stroke="#63b8ff" d="M837.05,-164.98C807.72,-156.05 761.41,-141.94 728.83,-132.02"/>
<polygon fill="#63b8ff" stroke="#63b8ff" points="729.77,-128.65 719.19,-129.08 727.73,-135.34 729.77,-128.65"/>
</g>
<!-- Node11 -->
<g id="node11" class="node">
<title>Node11</title>
<g id="a_node11"><a xlink:title=" ">
<polygon fill="#e0e0e0" stroke="#999999" points="997.51,-129 954.51,-129 954.51,-110 997.51,-110 997.51,-129"/>
<text text-anchor="middle" x="976.01" y="-117" font-family="Helvetica,sans-Serif" font-size="10.00">stack</text>
</a>
</g>
</g>
<!-- Node6&#45;&gt;Node11 -->
<g id="edge12" class="edge">
<title>Node6&#45;&gt;Node11</title>
<path fill="none" stroke="#63b8ff" d="M882.84,-164.98C900.62,-156.5 928.16,-143.35 948.69,-133.54"/>
<polygon fill="#63b8ff" stroke="#63b8ff" points="950.34,-136.64 957.85,-129.17 947.32,-130.32 950.34,-136.64"/>
</g>
<!-- Node12&#45;&gt;Node4 -->
<g id="edge14" class="edge">
<title>Node12&#45;&gt;Node4</title>
<path fill="none" stroke="#63b8ff" d="M592.89,-274.75C601.4,-266.5 613.06,-253.3 618.01,-239 629.83,-204.84 618.6,-162.26 610.23,-138.57"/>
<polygon fill="#63b8ff" stroke="#63b8ff" points="613.47,-137.24 606.68,-129.1 606.92,-139.7 613.47,-137.24"/>
</g>
<!-- Node13 -->
<g id="node13" class="node">
<title>Node13</title>
<g id="a_node13"><a xlink:href="../../d9/d49/types_8h.html" target="_top" xlink:title="This file contains a number of basic enums and types.">
<polygon fill="white" stroke="#666666" points="443.51,-239 390.51,-239 390.51,-220 443.51,-220 443.51,-239"/>
<text text-anchor="middle" x="417.01" y="-227" font-family="Helvetica,sans-Serif" font-size="10.00">types.h</text>
</a>
</g>
</g>
<!-- Node12&#45;&gt;Node13 -->
<g id="edge15" class="edge">
<title>Node12&#45;&gt;Node13</title>
<path fill="none" stroke="#63b8ff" d="M556.34,-274.98C528.39,-266.06 484.3,-251.98 453.21,-242.06"/>
<polygon fill="#63b8ff" stroke="#63b8ff" points="454.21,-238.7 443.62,-238.99 452.08,-245.37 454.21,-238.7"/>
</g>
<!-- Node23 -->
<g id="node23" class="node">
<title>Node23</title>
<g id="a_node23"><a xlink:href="../../d1/d02/reflist_8h.html" target="_top" xlink:title=" ">
<polygon fill="white" stroke="#666666" points="609.51,-239 556.51,-239 556.51,-220 609.51,-220 609.51,-239"/>
<text text-anchor="middle" x="583.01" y="-227" font-family="Helvetica,sans-Serif" font-size="10.00">reflist.h</text>
</a>
</g>
</g>
<!-- Node12&#45;&gt;Node23 -->
<g id="edge28" class="edge">
<title>Node12&#45;&gt;Node23</title>
<path fill="none" stroke="#63b8ff" d="M583.01,-274.75C583.01,-267.8 583.01,-257.85 583.01,-249.13"/>
<polygon fill="#63b8ff" stroke="#63b8ff" points="586.51,-249.09 583.01,-239.09 579.51,-249.09 586.51,-249.09"/>
</g>
<!-- Node14 -->
<g id="node14" class="node">
<title>Node14</title>
<g id="a_node14"><a xlink:href="../../d7/d5c/qcstring_8h.html" target="_top" xlink:title=" ">
<polygon fill="white" stroke="#666666" points="292.51,-129 227.51,-129 227.51,-110 292.51,-110 292.51,-129"/>
<text text-anchor="middle" x="260.01" y="-117" font-family="Helvetica,sans-Serif" font-size="10.00">qcstring.h</text>
</a>
</g>
</g>
<!-- Node13&#45;&gt;Node14 -->
<g id="edge16" class="edge">
<title>Node13&#45;&gt;Node14</title>
<path fill="none" stroke="#63b8ff" d="M390.27,-226.74C339.93,-222.82 234.13,-211.43 212.01,-184 198.67,-167.45 218.69,-147.86 236.8,-134.86"/>
<polygon fill="#63b8ff" stroke="#63b8ff" points="239.06,-137.56 245.38,-129.05 235.14,-131.76 239.06,-137.56"/>
</g>
<!-- Node14&#45;&gt;Node7 -->
<g id="edge17" class="edge">
<title>Node14&#45;&gt;Node7</title>
<path fill="none" stroke="#63b8ff" d="M276.27,-109.88C293.04,-100.97 319.91,-86.62 343.01,-74 374.29,-56.91 410.18,-36.84 433.2,-23.91"/>
<polygon fill="#63b8ff" stroke="#63b8ff" points="434.93,-26.95 441.93,-19 431.5,-20.85 434.93,-26.95"/>
</g>
<!-- Node15 -->
<g id="node15" class="node">
<title>Node15</title>
<g id="a_node15"><a xlink:title=" ">
<polygon fill="#e0e0e0" stroke="#999999" points="455.01,-74 391.01,-74 391.01,-55 455.01,-55 455.01,-74"/>
<text text-anchor="middle" x="423.01" y="-62" font-family="Helvetica,sans-Serif" font-size="10.00">algorithm</text>
</a>
</g>
</g>
<!-- Node14&#45;&gt;Node15 -->
<g id="edge18" class="edge">
<title>Node14&#45;&gt;Node15</title>
<path fill="none" stroke="#63b8ff" d="M286.2,-109.98C313.45,-101.13 356.31,-87.19 386.79,-77.28"/>
<polygon fill="#63b8ff" stroke="#63b8ff" points="388.19,-80.5 396.62,-74.08 386.02,-73.85 388.19,-80.5"/>
</g>
<!-- Node16 -->
<g id="node16" class="node">
<title>Node16</title>
<g id="a_node16"><a xlink:title=" ">
<polygon fill="#e0e0e0" stroke="#999999" points="522.51,-74 473.51,-74 473.51,-55 522.51,-55 522.51,-74"/>
<text text-anchor="middle" x="498.01" y="-62" font-family="Helvetica,sans-Serif" font-size="10.00">cctype</text>
</a>
</g>
</g>
<!-- Node14&#45;&gt;Node16 -->
<g id="edge19" class="edge">
<title>Node14&#45;&gt;Node16</title>
<path fill="none" stroke="#63b8ff" d="M292.58,-111.71C331.02,-103.63 397.09,-89.53 463.37,-74.09"/>
<polygon fill="#63b8ff" stroke="#63b8ff" points="464.21,-77.49 473.15,-71.81 462.61,-70.68 464.21,-77.49"/>
</g>
<!-- Node17 -->
<g id="node17" class="node">
<title>Node17</title>
<g id="a_node17"><a xlink:title=" ">
<polygon fill="#e0e0e0" stroke="#999999" points="65.01,-74 15.01,-74 15.01,-55 65.01,-55 65.01,-74"/>
<text text-anchor="middle" x="40.01" y="-62" font-family="Helvetica,sans-Serif" font-size="10.00">cstring</text>
</a>
</g>
</g>
<!-- Node14&#45;&gt;Node17 -->
<g id="edge20" class="edge">
<title>Node14&#45;&gt;Node17</title>
<path fill="none" stroke="#63b8ff" d="M227.39,-110.8C192.2,-102.47 134.23,-88.69 75.13,-74.26"/>
<polygon fill="#63b8ff" stroke="#63b8ff" points="75.8,-70.82 65.25,-71.84 74.14,-77.62 75.8,-70.82"/>
</g>
<!-- Node18 -->
<g id="node18" class="node">
<title>Node18</title>
<g id="a_node18"><a xlink:title=" ">
<polygon fill="#e0e0e0" stroke="#999999" points="129.01,-74 83.01,-74 83.01,-55 129.01,-55 129.01,-74"/>
<text text-anchor="middle" x="106.01" y="-62" font-family="Helvetica,sans-Serif" font-size="10.00">cstdio</text>
</a>
</g>
</g>
<!-- Node14&#45;&gt;Node18 -->
<g id="edge21" class="edge">
<title>Node14&#45;&gt;Node18</title>
<path fill="none" stroke="#63b8ff" d="M235.27,-109.98C209.1,-100.98 167.7,-86.73 138.83,-76.79"/>
<polygon fill="#63b8ff" stroke="#63b8ff" points="139.78,-73.42 129.18,-73.47 137.5,-80.04 139.78,-73.42"/>
</g>
<!-- Node19 -->
<g id="node19" class="node">
<title>Node19</title>
<g id="a_node19"><a xlink:title=" ">
<polygon fill="#e0e0e0" stroke="#999999" points="196.51,-74 147.51,-74 147.51,-55 196.51,-55 196.51,-74"/>
<text text-anchor="middle" x="172.01" y="-62" font-family="Helvetica,sans-Serif" font-size="10.00">cstdlib</text>
</a>
</g>
</g>
<!-- Node14&#45;&gt;Node19 -->
<g id="edge22" class="edge">
<title>Node14&#45;&gt;Node19</title>
<path fill="none" stroke="#63b8ff" d="M245.87,-109.98C232.23,-101.77 211.32,-89.18 195.23,-79.49"/>
<polygon fill="#63b8ff" stroke="#63b8ff" points="196.78,-76.33 186.41,-74.17 193.17,-82.33 196.78,-76.33"/>
</g>
<!-- Node20 -->
<g id="node20" class="node">
<title>Node20</title>
<g id="a_node20"><a xlink:title=" ">
<polygon fill="#e0e0e0" stroke="#999999" points="137.01,-19 87.01,-19 87.01,0 137.01,0 137.01,-19"/>
<text text-anchor="middle" x="112.01" y="-7" font-family="Helvetica,sans-Serif" font-size="10.00">cstdint</text>
</a>
</g>
</g>
<!-- Node14&#45;&gt;Node20 -->
<g id="edge23" class="edge">
<title>Node14&#45;&gt;Node20</title>
<path fill="none" stroke="#63b8ff" d="M227.45,-117.78C165.41,-115.66 33.94,-107.25 6.01,-74 -17.6,-45.89 37.71,-26.99 76.98,-17.55"/>
<polygon fill="#63b8ff" stroke="#63b8ff" points="77.85,-20.94 86.81,-15.29 76.28,-14.12 77.85,-20.94"/>
</g>
<!-- Node21 -->
<g id="node21" class="node">
<title>Node21</title>
<g id="a_node21"><a xlink:title=" ">
<polygon fill="#e0e0e0" stroke="#999999" points="334.51,-74 277.51,-74 277.51,-55 334.51,-55 334.51,-74"/>
<text text-anchor="middle" x="306.01" y="-62" font-family="Helvetica,sans-Serif" font-size="10.00">ostream</text>
</a>
</g>
</g>
<!-- Node14&#45;&gt;Node21 -->
<g id="edge24" class="edge">
<title>Node14&#45;&gt;Node21</title>
<path fill="none" stroke="#63b8ff" d="M267.61,-109.75C274.17,-102.18 283.83,-91.05 291.82,-81.84"/>
<polygon fill="#63b8ff" stroke="#63b8ff" points="294.64,-83.94 298.56,-74.09 289.36,-79.35 294.64,-83.94"/>
</g>
<!-- Node22 -->
<g id="node22" class="node">
<title>Node22</title>
<g id="a_node22"><a xlink:href="../../db/d7c/utf8_8h.html" target="_top" xlink:title="Various UTF8 related helper functions.">
<polygon fill="white" stroke="#666666" points="259.51,-74 214.51,-74 214.51,-55 259.51,-55 259.51,-74"/>
<text text-anchor="middle" x="237.01" y="-62" font-family="Helvetica,sans-Serif" font-size="10.00">utf8.h</text>
</a>
</g>
</g>
<!-- Node14&#45;&gt;Node22 -->
<g id="edge25" class="edge">
<title>Node14&#45;&gt;Node22</title>
<path fill="none" stroke="#63b8ff" d="M256.21,-109.75C253.1,-102.57 248.59,-92.18 244.72,-83.27"/>
<polygon fill="#63b8ff" stroke="#63b8ff" points="247.93,-81.87 240.74,-74.09 241.51,-84.66 247.93,-81.87"/>
</g>
<!-- Node22&#45;&gt;Node7 -->
<g id="edge27" class="edge">
<title>Node22&#45;&gt;Node7</title>
<path fill="none" stroke="#63b8ff" d="M259.67,-57.18C262.48,-56.43 265.31,-55.69 268.01,-55 322.95,-41 387.28,-26.19 424.95,-17.68"/>
<polygon fill="#63b8ff" stroke="#63b8ff" points="425.85,-21.06 434.83,-15.45 424.31,-14.23 425.85,-21.06"/>
</g>
<!-- Node22&#45;&gt;Node20 -->
<g id="edge26" class="edge">
<title>Node22&#45;&gt;Node20</title>
<path fill="none" stroke="#63b8ff" d="M216.93,-54.98C196.64,-46.38 165.06,-32.99 141.84,-23.15"/>
<polygon fill="#63b8ff" stroke="#63b8ff" points="143.03,-19.85 132.46,-19.17 140.3,-26.3 143.03,-19.85"/>
</g>
<!-- Node23&#45;&gt;Node4 -->
<g id="edge29" class="edge">
<title>Node23&#45;&gt;Node4</title>
<path fill="none" stroke="#63b8ff" d="M584.65,-219.66C587.89,-202.17 595.18,-162.8 599.53,-139.27"/>
<polygon fill="#63b8ff" stroke="#63b8ff" points="603.03,-139.63 601.41,-129.16 596.14,-138.35 603.03,-139.63"/>
</g>
<!-- Node23&#45;&gt;Node10 -->
<g id="edge30" class="edge">
<title>Node23&#45;&gt;Node10</title>
<path fill="none" stroke="#63b8ff" d="M591.85,-219.66C610.05,-201.46 651.96,-159.55 675.04,-136.47"/>
<polygon fill="#63b8ff" stroke="#63b8ff" points="677.76,-138.7 682.35,-129.16 672.81,-133.75 677.76,-138.7"/>
</g>
<!-- Node23&#45;&gt;Node14 -->
<g id="edge32" class="edge">
<title>Node23&#45;&gt;Node14</title>
<path fill="none" stroke="#63b8ff" d="M556.39,-223.16C521.58,-215.87 458.93,-201.65 407.01,-184 363.74,-169.29 315.41,-147.28 286.38,-133.42"/>
<polygon fill="#63b8ff" stroke="#63b8ff" points="287.83,-130.23 277.3,-129.05 284.8,-136.54 287.83,-130.23"/>
</g>
<!-- Node24 -->
<g id="node24" class="node">
<title>Node24</title>
<g id="a_node24"><a xlink:title=" ">
<polygon fill="#e0e0e0" stroke="#999999" points="432.01,-129 374.01,-129 374.01,-110 432.01,-110 432.01,-129"/>
<text text-anchor="middle" x="403.01" y="-117" font-family="Helvetica,sans-Serif" font-size="10.00">memory</text>
</a>
</g>
</g>
<!-- Node23&#45;&gt;Node24 -->
<g id="edge31" class="edge">
<title>Node23&#45;&gt;Node24</title>
<path fill="none" stroke="#63b8ff" d="M556.35,-228.64C520.9,-227.35 458.48,-219.71 422.01,-184 410.07,-172.31 405.56,-153.46 403.9,-139.32"/>
<polygon fill="#63b8ff" stroke="#63b8ff" points="407.38,-138.91 403.08,-129.23 400.4,-139.48 407.38,-138.91"/>
</g>
<!-- Node25 -->
<g id="node25" class="node">
<title>Node25</title>
<g id="a_node25"><a xlink:href="../../da/de1/linkedmap_8h.html" target="_top" xlink:title=" ">
<polygon fill="white" stroke="#666666" points="508.51,-184 431.51,-184 431.51,-165 508.51,-165 508.51,-184"/>
<text text-anchor="middle" x="470.01" y="-172" font-family="Helvetica,sans-Serif" font-size="10.00">linkedmap.h</text>
</a>
</g>
</g>
<!-- Node23&#45;&gt;Node25 -->
<g id="edge33" class="edge">
<title>Node23&#45;&gt;Node25</title>
<path fill="none" stroke="#63b8ff" d="M564.86,-219.98C546.76,-211.5 518.73,-198.35 497.82,-188.54"/>
<polygon fill="#63b8ff" stroke="#63b8ff" points="499.04,-185.25 488.5,-184.17 496.06,-191.59 499.04,-185.25"/>
</g>
<!-- Node25&#45;&gt;Node4 -->
<g id="edge35" class="edge">
<title>Node25&#45;&gt;Node4</title>
<path fill="none" stroke="#63b8ff" d="M491.38,-164.98C513.16,-156.3 547.17,-142.75 571.93,-132.88"/>
<polygon fill="#63b8ff" stroke="#63b8ff" points="573.26,-136.12 581.25,-129.17 570.67,-129.62 573.26,-136.12"/>
</g>
<!-- Node25&#45;&gt;Node7 -->
<g id="edge37" class="edge">
<title>Node25&#45;&gt;Node7</title>
<path fill="none" stroke="#63b8ff" d="M480.76,-164.75C503.75,-144.95 553.79,-95.28 531.01,-55 521.9,-38.9 504.39,-27.98 488.68,-20.99"/>
<polygon fill="#63b8ff" stroke="#63b8ff" points="489.81,-17.67 479.22,-17.13 487.16,-24.15 489.81,-17.67"/>
</g>
<!-- Node25&#45;&gt;Node10 -->
<g id="edge34" class="edge">
<title>Node25&#45;&gt;Node10</title>
<path fill="none" stroke="#63b8ff" d="M505.52,-164.98C543.5,-155.87 603.88,-141.4 645.37,-131.45"/>
<polygon fill="#63b8ff" stroke="#63b8ff" points="646.32,-134.82 655.22,-129.08 644.68,-128.01 646.32,-134.82"/>
</g>
<!-- Node25&#45;&gt;Node14 -->
<g id="edge40" class="edge">
<title>Node25&#45;&gt;Node14</title>
<path fill="none" stroke="#63b8ff" d="M436.27,-164.98C399.9,-155.81 341.93,-141.18 302.48,-131.22"/>
<polygon fill="#63b8ff" stroke="#63b8ff" points="303.18,-127.79 292.63,-128.73 301.47,-134.57 303.18,-127.79"/>
</g>
<!-- Node25&#45;&gt;Node15 -->
<g id="edge38" class="edge">
<title>Node25&#45;&gt;Node15</title>
<path fill="none" stroke="#63b8ff" d="M466.16,-164.66C458.48,-147.01 441.11,-107.09 430.9,-83.64"/>
<polygon fill="#63b8ff" stroke="#63b8ff" points="433.98,-81.93 426.78,-74.16 427.56,-84.72 433.98,-81.93"/>
</g>
<!-- Node25&#45;&gt;Node16 -->
<g id="edge39" class="edge">
<title>Node25&#45;&gt;Node16</title>
<path fill="none" stroke="#63b8ff" d="M472.3,-164.66C476.86,-147.09 487.14,-107.45 493.23,-83.95"/>
<polygon fill="#63b8ff" stroke="#63b8ff" points="496.64,-84.72 495.77,-74.16 489.87,-82.96 496.64,-84.72"/>
</g>
<!-- Node25&#45;&gt;Node24 -->
<g id="edge36" class="edge">
<title>Node25&#45;&gt;Node24</title>
<path fill="none" stroke="#63b8ff" d="M459.25,-164.98C449.24,-157.07 434.12,-145.11 422.08,-135.58"/>
<polygon fill="#63b8ff" stroke="#63b8ff" points="423.99,-132.63 413.97,-129.17 419.64,-138.12 423.99,-132.63"/>
</g>
<!-- Node26&#45;&gt;Node4 -->
<g id="edge42" class="edge">
<title>Node26&#45;&gt;Node4</title>
<path fill="none" stroke="#63b8ff" d="M299.02,-167.47C366.88,-156.99 505.51,-135.57 569.4,-125.69"/>
<polygon fill="#63b8ff" stroke="#63b8ff" points="570,-129.14 579.35,-124.16 568.93,-122.22 570,-129.14"/>
</g>
<!-- Node26&#45;&gt;Node14 -->
<g id="edge43" class="edge">
<title>Node26&#45;&gt;Node14</title>
<path fill="none" stroke="#63b8ff" d="M260.01,-164.75C260.01,-157.8 260.01,-147.85 260.01,-139.13"/>
<polygon fill="#63b8ff" stroke="#63b8ff" points="263.51,-139.09 260.01,-129.09 256.51,-139.09 263.51,-139.09"/>
</g>
<!-- Node27&#45;&gt;Node4 -->
<g id="edge45" class="edge">
<title>Node27&#45;&gt;Node4</title>
<path fill="none" stroke="#63b8ff" d="M681.08,-274.88C674.15,-254.94 655.68,-204.3 634.01,-165 628.73,-155.41 621.85,-145.36 615.91,-137.24"/>
<polygon fill="#63b8ff" stroke="#63b8ff" points="618.55,-134.92 609.75,-129.01 612.95,-139.12 618.55,-134.92"/>
</g>
<!-- Node27&#45;&gt;Node8 -->
<g id="edge46" class="edge">
<title>Node27&#45;&gt;Node8</title>
<path fill="none" stroke="#63b8ff" d="M688.9,-274.74C703.28,-248.98 745.63,-173.13 765.06,-138.33"/>
<polygon fill="#63b8ff" stroke="#63b8ff" points="768.28,-139.74 770.09,-129.31 762.16,-136.33 768.28,-139.74"/>
</g>
<!-- Node27&#45;&gt;Node13 -->
<g id="edge48" class="edge">
<title>Node27&#45;&gt;Node13</title>
<path fill="none" stroke="#63b8ff" d="M639.81,-274.93C594.24,-266.07 521.12,-251.75 458.01,-239 456.73,-238.74 455.42,-238.48 454.11,-238.21"/>
<polygon fill="#63b8ff" stroke="#63b8ff" points="454.41,-234.7 443.91,-236.12 453,-241.55 454.41,-234.7"/>
</g>
<!-- Node27&#45;&gt;Node23 -->
<g id="edge49" class="edge">
<title>Node27&#45;&gt;Node23</title>
<path fill="none" stroke="#63b8ff" d="M667.78,-274.98C651.83,-266.61 627.23,-253.7 608.63,-243.95"/>
<polygon fill="#63b8ff" stroke="#63b8ff" points="610.01,-240.72 599.53,-239.17 606.76,-246.92 610.01,-240.72"/>
</g>
<!-- Node27&#45;&gt;Node24 -->
<g id="edge47" class="edge">
<title>Node27&#45;&gt;Node24</title>
<path fill="none" stroke="#63b8ff" d="M644.24,-274.96C574.7,-259.13 435.64,-223.29 407.01,-184 397.76,-171.31 397.55,-153.12 399.19,-139.47"/>
<polygon fill="#63b8ff" stroke="#63b8ff" points="402.7,-139.71 400.85,-129.28 395.79,-138.59 402.7,-139.71"/>
</g>
<!-- Node28&#45;&gt;Node29 -->
<g id="edge51" class="edge">
<title>Node28&#45;&gt;Node29</title>
<path fill="none" stroke="#63b8ff" d="M898.25,-329.98C918.71,-321.38 950.54,-307.99 973.94,-298.15"/>
<polygon fill="#63b8ff" stroke="#63b8ff" points="975.54,-301.27 983.4,-294.17 972.82,-294.82 975.54,-301.27"/>
</g>
<!-- Node30&#45;&gt;Node14 -->
<g id="edge54" class="edge">
<title>Node30&#45;&gt;Node14</title>
<path fill="none" stroke="#63b8ff" d="M224.53,-329.85C216.96,-321.47 206.41,-308.01 202.01,-294 192.71,-264.39 153,-268.28 204.01,-165 210.35,-152.17 222.32,-141.88 233.57,-134.44"/>
<polygon fill="#63b8ff" stroke="#63b8ff" points="235.62,-137.29 242.32,-129.08 231.97,-131.32 235.62,-137.29"/>
</g>
<!-- Node31 -->
<g id="node31" class="node">
<title>Node31</title>
<g id="a_node31"><a xlink:title=" ">
<polygon fill="#e0e0e0" stroke="#999999" points="255.01,-294 211.01,-294 211.01,-275 255.01,-275 255.01,-294"/>
<text text-anchor="middle" x="233.01" y="-282" font-family="Helvetica,sans-Serif" font-size="10.00">ctime</text>
</a>
</g>
</g>
<!-- Node30&#45;&gt;Node31 -->
<g id="edge53" class="edge">
<title>Node30&#45;&gt;Node31</title>
<path fill="none" stroke="#63b8ff" d="M233.01,-329.75C233.01,-322.8 233.01,-312.85 233.01,-304.13"/>
<polygon fill="#63b8ff" stroke="#63b8ff" points="236.51,-304.09 233.01,-294.09 229.51,-304.09 236.51,-304.09"/>
</g>
<!-- Node32&#45;&gt;Node4 -->
<g id="edge57" class="edge">
<title>Node32&#45;&gt;Node4</title>
<path fill="none" stroke="#63b8ff" d="M561.27,-164.75C568.48,-157.11 579.12,-145.82 587.86,-136.56"/>
<polygon fill="#63b8ff" stroke="#63b8ff" points="590.59,-138.76 594.91,-129.09 585.5,-133.96 590.59,-138.76"/>
</g>
<!-- Node32&#45;&gt;Node8 -->
<g id="edge58" class="edge">
<title>Node32&#45;&gt;Node8</title>
<path fill="none" stroke="#63b8ff" d="M579.67,-167.87C617.01,-159.87 686.96,-144.45 746.01,-129 746.11,-128.97 746.21,-128.95 746.31,-128.92"/>
<polygon fill="#63b8ff" stroke="#63b8ff" points="747,-132.36 755.71,-126.33 745.14,-125.61 747,-132.36"/>
</g>
<!-- Node32&#45;&gt;Node14 -->
<g id="edge59" class="edge">
<title>Node32&#45;&gt;Node14</title>
<path fill="none" stroke="#63b8ff" d="M526.31,-167.01C523.18,-166.3 520.03,-165.62 517.01,-165 441.89,-149.64 353.7,-135.13 302.6,-127.07"/>
<polygon fill="#63b8ff" stroke="#63b8ff" points="303.01,-123.59 292.58,-125.49 301.92,-130.5 303.01,-123.59"/>
</g>
<!-- Node32&#45;&gt;Node24 -->
<g id="edge56" class="edge">
<title>Node32&#45;&gt;Node24</title>
<path fill="none" stroke="#63b8ff" d="M528.91,-164.98C504.13,-156.23 465.31,-142.51 437.32,-132.62"/>
<polygon fill="#63b8ff" stroke="#63b8ff" points="438.14,-129.2 427.55,-129.17 435.81,-135.8 438.14,-129.2"/>
</g>
</g>
</svg>
        <g id="navigator" transform="translate(0 0)" fill="#404254">
                <rect fill="#f2f5e9" fill-opacity="0.5" stroke="#606060" stroke-width=".5" x="0" y="0" width="60" height="60"/>
                <use id="zoomplus" xlink:href="#zoomPlus" x="17" y="9" onmousedown="handleZoom(evt,'in')"/>
                <use id="zoomminus" xlink:href="#zoomMin" x="42" y="9" onmousedown="handleZoom(evt,'out')"/>
                <use id="reset" xlink:href="#resetDef" x="30" y="36" onmousedown="handleReset()"/>
                <g id="arrowUp" xlink:href="#dirArrow" transform="translate(30 24)" onmousedown="handlePan(0,-1)">
                  <use xlink:href="#rim" fill="#404040">
                        <set attributeName="fill" to="#808080" begin="arrowUp.mouseover" end="arrowUp.mouseout"/>
                  </use>
                  <path fill="none" stroke="white" stroke-width="1.5" d="M0,-3.0v7 M-2.5,-0.5L0,-3.0L2.5,-0.5"/>
                </g>
                <g id="arrowRight" xlink:href="#dirArrow" transform="rotate(90) translate(36 -43)" onmousedown="handlePan(1,0)">
                  <use xlink:href="#rim" fill="#404040">
                        <set attributeName="fill" to="#808080" begin="arrowRight.mouseover" end="arrowRight.mouseout"/>
                  </use>
                  <path fill="none" stroke="white" stroke-width="1.5" d="M0,-3.0v7 M-2.5,-0.5L0,-3.0L2.5,-0.5"/>
                </g>
                <g id="arrowDown" xlink:href="#dirArrow" transform="rotate(180) translate(-30 -48)" onmousedown="handlePan(0,1)">
                  <use xlink:href="#rim" fill="#404040">
                        <set attributeName="fill" to="#808080" begin="arrowDown.mouseover" end="arrowDown.mouseout"/>
                  </use>
                  <path fill="none" stroke="white" stroke-width="1.5" d="M0,-3.0v7 M-2.5,-0.5L0,-3.0L2.5,-0.5"/>
                </g>
                <g id="arrowLeft" xlink:href="#dirArrow" transform="rotate(270) translate(-36 17)" onmousedown="handlePan(-1,0)">
                  <use xlink:href="#rim" fill="#404040">
                        <set attributeName="fill" to="#808080" begin="arrowLeft.mouseover" end="arrowLeft.mouseout"/>
                  </use>
                  <path fill="none" stroke="white" stroke-width="1.5" d="M0,-3.0v7 M-2.5,-0.5L0,-3.0L2.5,-0.5"/>
                </g>
        </g>
        <svg viewBox="0 0 15 15" width="100%" height="30px" preserveAspectRatio="xMaxYMin meet">
         <g id="arrow_out" transform="scale(0.3 0.3)">
          <a xlink:href="language_8h__incl_org.svg" target="_base">
           <rect id="button" ry="5" rx="5" y="6" x="6" height="38" width="38"
                fill="#f2f5e9" fill-opacity="0.5" stroke="#606060" stroke-width="1.0"/>
           <path id="arrow"
             d="M 11.500037,31.436501 C 11.940474,20.09759 22.043105,11.32322 32.158766,21.979434 L 37.068811,17.246167 C 37.068811,17.246167 37.088388,32 37.088388,32 L 22.160133,31.978069 C 22.160133,31.978069 26.997745,27.140456 26.997745,27.140456 C 18.528582,18.264221 13.291696,25.230495 11.500037,31.436501 z"
             style="fill:#404040;"/>
          </a>
         </g>
        </svg>
</svg>
