<?xml version="1.0" encoding="UTF-8" standalone="no"?>
<!DOCTYPE svg PUBLIC "-//W3C//DTD SVG 1.1//EN"
 "http://www.w3.org/Graphics/SVG/1.1/DTD/svg11.dtd">
<!-- Generated by graphviz version 2.43.0 (0)
 -->
<!-- Title: GroupDefImpl Pages: 1 -->
<svg width="325pt" height="205pt"
 viewBox="0.00 0.00 324.50 205.00" xmlns="http://www.w3.org/2000/svg" xmlns:xlink="http://www.w3.org/1999/xlink">
<g id="graph0" class="graph" transform="scale(1 1) rotate(0) translate(4 201)">
<title>GroupDefImpl</title>
<!-- Node1 -->
<g id="node1" class="node">
<title>Node1</title>
<g id="a_node1"><a xlink:title=" ">
<polygon fill="#999999" stroke="#666666" points="230.5,-19 145.5,-19 145.5,0 230.5,0 230.5,-19"/>
<text text-anchor="middle" x="188" y="-7" font-family="Helvetica,sans-Serif" font-size="10.00">GroupDefImpl</text>
</a>
</g>
</g>
<!-- Node2 -->
<g id="node2" class="node">
<title>Node2</title>
<g id="a_node2"><a xlink:href="../../dd/d10/class_definition_mixin.html" target="_top" xlink:title=" ">
<polygon fill="white" stroke="#666666" points="268,-75 108,-75 108,-56 268,-56 268,-75"/>
<text text-anchor="middle" x="188" y="-63" font-family="Helvetica,sans-Serif" font-size="10.00">DefinitionMixin&lt; GroupDef &gt;</text>
</a>
</g>
</g>
<!-- Node2&#45;&gt;Node1 -->
<g id="edge1" class="edge">
<title>Node2&#45;&gt;Node1</title>
<path fill="none" stroke="#63b8ff" d="M188,-45.3C188,-36.41 188,-26.28 188,-19.25"/>
<polygon fill="#63b8ff" stroke="#63b8ff" points="184.5,-45.58 188,-55.58 191.5,-45.58 184.5,-45.58"/>
</g>
<!-- Node3 -->
<g id="node3" class="node">
<title>Node3</title>
<g id="a_node3"><a xlink:href="../../d8/d09/class_group_def.html" target="_top" xlink:title="A model of a group of symbols.">
<polygon fill="white" stroke="#666666" points="161.5,-141 98.5,-141 98.5,-122 161.5,-122 161.5,-141"/>
<text text-anchor="middle" x="130" y="-129" font-family="Helvetica,sans-Serif" font-size="10.00">GroupDef</text>
</a>
</g>
</g>
<!-- Node3&#45;&gt;Node2 -->
<g id="edge2" class="edge">
<title>Node3&#45;&gt;Node2</title>
<path fill="none" stroke="#63b8ff" d="M144.84,-114.12C156,-101.81 170.88,-85.39 179.93,-75.41"/>
<polygon fill="#63b8ff" stroke="#63b8ff" points="141.94,-112.11 137.82,-121.87 147.13,-116.81 141.94,-112.11"/>
</g>
<!-- Node4 -->
<g id="node4" class="node">
<title>Node4</title>
<g id="a_node4"><a xlink:href="../../d0/d46/class_definition_mutable.html" target="_top" xlink:title=" ">
<polygon fill="white" stroke="#666666" points="104,-197 0,-197 0,-178 104,-178 104,-197"/>
<text text-anchor="middle" x="52" y="-185" font-family="Helvetica,sans-Serif" font-size="10.00">DefinitionMutable</text>
</a>
</g>
</g>
<!-- Node4&#45;&gt;Node3 -->
<g id="edge3" class="edge">
<title>Node4&#45;&gt;Node3</title>
<path fill="none" stroke="#63b8ff" d="M72.77,-172.12C87.02,-162.26 105.46,-149.49 117.5,-141.15"/>
<polygon fill="#63b8ff" stroke="#63b8ff" points="70.76,-169.25 64.53,-177.82 74.75,-175.01 70.76,-169.25"/>
</g>
<!-- Node5 -->
<g id="node5" class="node">
<title>Node5</title>
<g id="a_node5"><a xlink:href="../../d5/dcc/class_definition.html" target="_top" xlink:title="The common base class of all entity definitions found in the sources.">
<polygon fill="white" stroke="#666666" points="186,-197 122,-197 122,-178 186,-178 186,-197"/>
<text text-anchor="middle" x="154" y="-185" font-family="Helvetica,sans-Serif" font-size="10.00">Definition</text>
</a>
</g>
</g>
<!-- Node5&#45;&gt;Node3 -->
<g id="edge4" class="edge">
<title>Node5&#45;&gt;Node3</title>
<path fill="none" stroke="#63b8ff" d="M145.86,-168.19C141.82,-159.09 137.12,-148.51 133.89,-141.25"/>
<polygon fill="#63b8ff" stroke="#63b8ff" points="142.78,-169.87 150.04,-177.58 149.17,-167.02 142.78,-169.87"/>
</g>
<!-- Node6 -->
<g id="node6" class="node">
<title>Node6</title>
<g id="a_node6"><a xlink:href="../../dd/d10/class_definition_mixin.html" target="_top" xlink:title=" ">
<polygon fill="white" stroke="#666666" points="316.5,-141 179.5,-141 179.5,-122 316.5,-122 316.5,-141"/>
<text text-anchor="middle" x="248" y="-129" font-family="Helvetica,sans-Serif" font-size="10.00">DefinitionMixin&lt; Base &gt;</text>
</a>
</g>
</g>
<!-- Node6&#45;&gt;Node2 -->
<g id="edge5" class="edge">
<title>Node6&#45;&gt;Node2</title>
<path fill="none" stroke="orange" stroke-dasharray="5,2" d="M232.98,-114.48C221.4,-102.12 205.8,-85.49 196.35,-75.41"/>
<polygon fill="orange" stroke="orange" points="230.52,-116.97 239.91,-121.87 235.62,-112.18 230.52,-116.97"/>
<text text-anchor="middle" x="258.5" y="-96" font-family="Helvetica,sans-Serif" font-size="10.00" fill="grey"> &lt; GroupDef &gt;</text>
</g>
<!-- Node7 -->
<g id="node7" class="node">
<title>Node7</title>
<g id="a_node7"><a xlink:title=" ">
<polygon fill="white" stroke="#666666" points="268.5,-197 227.5,-197 227.5,-178 268.5,-178 268.5,-197"/>
<text text-anchor="middle" x="248" y="-185" font-family="Helvetica,sans-Serif" font-size="10.00">Base</text>
</a>
</g>
</g>
<!-- Node7&#45;&gt;Node6 -->
<g id="edge6" class="edge">
<title>Node7&#45;&gt;Node6</title>
<path fill="none" stroke="#63b8ff" d="M248,-167.3C248,-158.41 248,-148.28 248,-141.25"/>
<polygon fill="#63b8ff" stroke="#63b8ff" points="244.5,-167.58 248,-177.58 251.5,-167.58 244.5,-167.58"/>
</g>
</g>
</svg>
