<?xml version="1.0" encoding="UTF-8" standalone="no"?>
<!DOCTYPE svg PUBLIC "-//W3C//DTD SVG 1.1//EN"
 "http://www.w3.org/Graphics/SVG/1.1/DTD/svg11.dtd">
<!-- Generated by graphviz version 2.43.0 (0)
 -->
<!-- Title: /home/runner/work/doxygen/doxygen/src/sqlite3gen.cpp Pages: 1 -->
<svg width="622pt" height="258pt"
 viewBox="0.00 0.00 622.10 258.00" xmlns="http://www.w3.org/2000/svg" xmlns:xlink="http://www.w3.org/1999/xlink">
<g id="graph0" class="graph" transform="scale(1 1) rotate(0) translate(4 254)">
<title>/home/runner/work/doxygen/doxygen/src/sqlite3gen.cpp</title>
<!-- Node1 -->
<g id="node1" class="node">
<title>Node1</title>
<g id="a_node1"><a xlink:title=" ">
<polygon fill="#999999" stroke="#666666" points="244.5,-250 90.5,-250 90.5,-220 244.5,-220 244.5,-250"/>
<text text-anchor="start" x="98.5" y="-238" font-family="Helvetica,sans-Serif" font-size="10.00">/home/runner/work/doxygen</text>
<text text-anchor="middle" x="167.5" y="-227" font-family="Helvetica,sans-Serif" font-size="10.00">/doxygen/src/sqlite3gen.cpp</text>
</a>
</g>
</g>
<!-- Node2 -->
<g id="node2" class="node">
<title>Node2</title>
<g id="a_node2"><a xlink:title=" ">
<polygon fill="#e0e0e0" stroke="#999999" points="53,-184 0,-184 0,-165 53,-165 53,-184"/>
<text text-anchor="middle" x="26.5" y="-172" font-family="Helvetica,sans-Serif" font-size="10.00">stdlib.h</text>
</a>
</g>
</g>
<!-- Node1&#45;&gt;Node2 -->
<g id="edge1" class="edge">
<title>Node1&#45;&gt;Node2</title>
<path fill="none" stroke="#63b8ff" d="M133.73,-219.99C110.31,-210.27 79.38,-197.44 56.77,-188.06"/>
<polygon fill="#63b8ff" stroke="#63b8ff" points="57.9,-184.74 47.32,-184.14 55.22,-191.2 57.9,-184.74"/>
</g>
<!-- Node3 -->
<g id="node3" class="node">
<title>Node3</title>
<g id="a_node3"><a xlink:title=" ">
<polygon fill="#e0e0e0" stroke="#999999" points="121.5,-184 71.5,-184 71.5,-165 121.5,-165 121.5,-184"/>
<text text-anchor="middle" x="96.5" y="-172" font-family="Helvetica,sans-Serif" font-size="10.00">stdio.h</text>
</a>
</g>
</g>
<!-- Node1&#45;&gt;Node3 -->
<g id="edge2" class="edge">
<title>Node1&#45;&gt;Node3</title>
<path fill="none" stroke="#63b8ff" d="M150.31,-219.84C139.69,-211.09 126.06,-199.85 115.17,-190.88"/>
<polygon fill="#63b8ff" stroke="#63b8ff" points="117.08,-187.92 107.14,-184.27 112.63,-193.33 117.08,-187.92"/>
</g>
<!-- Node4 -->
<g id="node4" class="node">
<title>Node4</title>
<g id="a_node4"><a xlink:title=" ">
<polygon fill="#e0e0e0" stroke="#999999" points="195.5,-184 139.5,-184 139.5,-165 195.5,-165 195.5,-184"/>
<text text-anchor="middle" x="167.5" y="-172" font-family="Helvetica,sans-Serif" font-size="10.00">sstream</text>
</a>
</g>
</g>
<!-- Node1&#45;&gt;Node4 -->
<g id="edge3" class="edge">
<title>Node1&#45;&gt;Node4</title>
<path fill="none" stroke="#63b8ff" d="M167.5,-219.84C167.5,-212.21 167.5,-202.7 167.5,-194.45"/>
<polygon fill="#63b8ff" stroke="#63b8ff" points="171,-194.27 167.5,-184.27 164,-194.27 171,-194.27"/>
</g>
<!-- Node5 -->
<g id="node5" class="node">
<title>Node5</title>
<g id="a_node5"><a xlink:title=" ">
<polygon fill="#e0e0e0" stroke="#999999" points="279,-184 214,-184 214,-165 279,-165 279,-184"/>
<text text-anchor="middle" x="246.5" y="-172" font-family="Helvetica,sans-Serif" font-size="10.00">settings.h</text>
</a>
</g>
</g>
<!-- Node1&#45;&gt;Node5 -->
<g id="edge4" class="edge">
<title>Node1&#45;&gt;Node5</title>
<path fill="none" stroke="#63b8ff" d="M186.62,-219.84C198.68,-210.91 214.21,-199.41 226.44,-190.35"/>
<polygon fill="#63b8ff" stroke="#63b8ff" points="228.71,-193.03 234.66,-184.27 224.54,-187.4 228.71,-193.03"/>
</g>
<!-- Node6 -->
<g id="node6" class="node">
<title>Node6</title>
<g id="a_node6"><a xlink:href="../../d2/d0d/message_8h.html" target="_top" xlink:title=" ">
<polygon fill="white" stroke="#666666" points="367.5,-184 297.5,-184 297.5,-165 367.5,-165 367.5,-184"/>
<text text-anchor="middle" x="332.5" y="-172" font-family="Helvetica,sans-Serif" font-size="10.00">message.h</text>
</a>
</g>
</g>
<!-- Node1&#45;&gt;Node6 -->
<g id="edge5" class="edge">
<title>Node1&#45;&gt;Node6</title>
<path fill="none" stroke="#63b8ff" d="M207.02,-219.99C234.92,-210.1 271.91,-196.98 298.5,-187.56"/>
<polygon fill="#63b8ff" stroke="#63b8ff" points="299.88,-190.78 308.13,-184.14 297.54,-184.18 299.88,-190.78"/>
</g>
<!-- Node7 -->
<g id="node7" class="node">
<title>Node7</title>
<g id="a_node7"><a xlink:title=" ">
<polygon fill="#e0e0e0" stroke="#999999" points="321,-129 268,-129 268,-110 321,-110 321,-129"/>
<text text-anchor="middle" x="294.5" y="-117" font-family="Helvetica,sans-Serif" font-size="10.00">cstdarg</text>
</a>
</g>
</g>
<!-- Node6&#45;&gt;Node7 -->
<g id="edge6" class="edge">
<title>Node6&#45;&gt;Node7</title>
<path fill="none" stroke="#63b8ff" d="M326.23,-164.75C320.91,-157.34 313.14,-146.5 306.62,-137.41"/>
<polygon fill="#63b8ff" stroke="#63b8ff" points="309.33,-135.18 300.66,-129.09 303.64,-139.26 309.33,-135.18"/>
</g>
<!-- Node8 -->
<g id="node8" class="node">
<title>Node8</title>
<g id="a_node8"><a xlink:href="../../d7/d5c/qcstring_8h.html" target="_top" xlink:title=" ">
<polygon fill="white" stroke="#666666" points="404,-129 339,-129 339,-110 404,-110 404,-129"/>
<text text-anchor="middle" x="371.5" y="-117" font-family="Helvetica,sans-Serif" font-size="10.00">qcstring.h</text>
</a>
</g>
</g>
<!-- Node6&#45;&gt;Node8 -->
<g id="edge7" class="edge">
<title>Node6&#45;&gt;Node8</title>
<path fill="none" stroke="#63b8ff" d="M338.94,-164.75C344.39,-157.34 352.36,-146.5 359.06,-137.41"/>
<polygon fill="#63b8ff" stroke="#63b8ff" points="362.07,-139.22 365.18,-129.09 356.43,-135.07 362.07,-139.22"/>
</g>
<!-- Node9 -->
<g id="node9" class="node">
<title>Node9</title>
<g id="a_node9"><a xlink:title=" ">
<polygon fill="#e0e0e0" stroke="#999999" points="355.5,-19 311.5,-19 311.5,0 355.5,0 355.5,-19"/>
<text text-anchor="middle" x="333.5" y="-7" font-family="Helvetica,sans-Serif" font-size="10.00">string</text>
</a>
</g>
</g>
<!-- Node8&#45;&gt;Node9 -->
<g id="edge8" class="edge">
<title>Node8&#45;&gt;Node9</title>
<path fill="none" stroke="#63b8ff" d="M338.96,-111.82C335.76,-111.19 332.57,-110.58 329.5,-110 283.4,-101.35 151.71,-109.89 121.5,-74 71.84,-15.01 230.34,-9.48 301.14,-9.85"/>
<polygon fill="#63b8ff" stroke="#63b8ff" points="301.28,-13.35 311.31,-9.95 301.35,-6.35 301.28,-13.35"/>
</g>
<!-- Node10 -->
<g id="node10" class="node">
<title>Node10</title>
<g id="a_node10"><a xlink:title=" ">
<polygon fill="#e0e0e0" stroke="#999999" points="194.5,-74 130.5,-74 130.5,-55 194.5,-55 194.5,-74"/>
<text text-anchor="middle" x="162.5" y="-62" font-family="Helvetica,sans-Serif" font-size="10.00">algorithm</text>
</a>
</g>
</g>
<!-- Node8&#45;&gt;Node10 -->
<g id="edge9" class="edge">
<title>Node8&#45;&gt;Node10</title>
<path fill="none" stroke="#63b8ff" d="M338.84,-110.22C302.62,-101.03 244.07,-86.18 204.47,-76.14"/>
<polygon fill="#63b8ff" stroke="#63b8ff" points="205.14,-72.7 194.58,-73.64 203.42,-79.49 205.14,-72.7"/>
</g>
<!-- Node11 -->
<g id="node11" class="node">
<title>Node11</title>
<g id="a_node11"><a xlink:title=" ">
<polygon fill="#e0e0e0" stroke="#999999" points="262,-74 213,-74 213,-55 262,-55 262,-74"/>
<text text-anchor="middle" x="237.5" y="-62" font-family="Helvetica,sans-Serif" font-size="10.00">cctype</text>
</a>
</g>
</g>
<!-- Node8&#45;&gt;Node11 -->
<g id="edge10" class="edge">
<title>Node8&#45;&gt;Node11</title>
<path fill="none" stroke="#63b8ff" d="M349.97,-109.98C328.03,-101.3 293.76,-87.75 268.81,-77.88"/>
<polygon fill="#63b8ff" stroke="#63b8ff" points="270.01,-74.59 259.42,-74.17 267.43,-81.1 270.01,-74.59"/>
</g>
<!-- Node12 -->
<g id="node12" class="node">
<title>Node12</title>
<g id="a_node12"><a xlink:title=" ">
<polygon fill="#e0e0e0" stroke="#999999" points="330.5,-74 280.5,-74 280.5,-55 330.5,-55 330.5,-74"/>
<text text-anchor="middle" x="305.5" y="-62" font-family="Helvetica,sans-Serif" font-size="10.00">cstring</text>
</a>
</g>
</g>
<!-- Node8&#45;&gt;Node12 -->
<g id="edge11" class="edge">
<title>Node8&#45;&gt;Node12</title>
<path fill="none" stroke="#63b8ff" d="M360.9,-109.98C351.04,-102.07 336.15,-90.11 324.28,-80.58"/>
<polygon fill="#63b8ff" stroke="#63b8ff" points="326.29,-77.7 316.3,-74.17 321.9,-83.16 326.29,-77.7"/>
</g>
<!-- Node13 -->
<g id="node13" class="node">
<title>Node13</title>
<g id="a_node13"><a xlink:title=" ">
<polygon fill="#e0e0e0" stroke="#999999" points="394.5,-74 348.5,-74 348.5,-55 394.5,-55 394.5,-74"/>
<text text-anchor="middle" x="371.5" y="-62" font-family="Helvetica,sans-Serif" font-size="10.00">cstdio</text>
</a>
</g>
</g>
<!-- Node8&#45;&gt;Node13 -->
<g id="edge12" class="edge">
<title>Node8&#45;&gt;Node13</title>
<path fill="none" stroke="#63b8ff" d="M371.5,-109.75C371.5,-102.8 371.5,-92.85 371.5,-84.13"/>
<polygon fill="#63b8ff" stroke="#63b8ff" points="375,-84.09 371.5,-74.09 368,-84.09 375,-84.09"/>
</g>
<!-- Node14 -->
<g id="node14" class="node">
<title>Node14</title>
<g id="a_node14"><a xlink:title=" ">
<polygon fill="#e0e0e0" stroke="#999999" points="462,-74 413,-74 413,-55 462,-55 462,-74"/>
<text text-anchor="middle" x="437.5" y="-62" font-family="Helvetica,sans-Serif" font-size="10.00">cstdlib</text>
</a>
</g>
</g>
<!-- Node8&#45;&gt;Node14 -->
<g id="edge13" class="edge">
<title>Node8&#45;&gt;Node14</title>
<path fill="none" stroke="#63b8ff" d="M382.1,-109.98C391.96,-102.07 406.85,-90.11 418.72,-80.58"/>
<polygon fill="#63b8ff" stroke="#63b8ff" points="421.1,-83.16 426.7,-74.17 416.71,-77.7 421.1,-83.16"/>
</g>
<!-- Node15 -->
<g id="node15" class="node">
<title>Node15</title>
<g id="a_node15"><a xlink:title=" ">
<polygon fill="#e0e0e0" stroke="#999999" points="590.5,-19 540.5,-19 540.5,0 590.5,0 590.5,-19"/>
<text text-anchor="middle" x="565.5" y="-7" font-family="Helvetica,sans-Serif" font-size="10.00">cstdint</text>
</a>
</g>
</g>
<!-- Node8&#45;&gt;Node15 -->
<g id="edge14" class="edge">
<title>Node8&#45;&gt;Node15</title>
<path fill="none" stroke="#63b8ff" d="M404.32,-117.35C463.36,-114.5 583.79,-104.97 609.5,-74 622.63,-58.18 604.27,-38.54 587.41,-25.33"/>
<polygon fill="#63b8ff" stroke="#63b8ff" points="589.03,-22.18 578.91,-19.06 584.88,-27.81 589.03,-22.18"/>
</g>
<!-- Node16 -->
<g id="node16" class="node">
<title>Node16</title>
<g id="a_node16"><a xlink:title=" ">
<polygon fill="#e0e0e0" stroke="#999999" points="600,-74 543,-74 543,-55 600,-55 600,-74"/>
<text text-anchor="middle" x="571.5" y="-62" font-family="Helvetica,sans-Serif" font-size="10.00">ostream</text>
</a>
</g>
</g>
<!-- Node8&#45;&gt;Node16 -->
<g id="edge15" class="edge">
<title>Node8&#45;&gt;Node16</title>
<path fill="none" stroke="#63b8ff" d="M403.63,-109.98C438.76,-100.68 495.03,-85.76 532.62,-75.8"/>
<polygon fill="#63b8ff" stroke="#63b8ff" points="533.92,-79.08 542.69,-73.13 532.13,-72.31 533.92,-79.08"/>
</g>
<!-- Node17 -->
<g id="node17" class="node">
<title>Node17</title>
<g id="a_node17"><a xlink:href="../../db/d7c/utf8_8h.html" target="_top" xlink:title="Various UTF8 related helper functions.">
<polygon fill="white" stroke="#666666" points="525,-74 480,-74 480,-55 525,-55 525,-74"/>
<text text-anchor="middle" x="502.5" y="-62" font-family="Helvetica,sans-Serif" font-size="10.00">utf8.h</text>
</a>
</g>
</g>
<!-- Node8&#45;&gt;Node17 -->
<g id="edge16" class="edge">
<title>Node8&#45;&gt;Node17</title>
<path fill="none" stroke="#63b8ff" d="M392.55,-109.98C413.91,-101.34 447.2,-87.87 471.56,-78.02"/>
<polygon fill="#63b8ff" stroke="#63b8ff" points="473.11,-81.17 481.07,-74.17 470.49,-74.68 473.11,-81.17"/>
</g>
<!-- Node17&#45;&gt;Node9 -->
<g id="edge18" class="edge">
<title>Node17&#45;&gt;Node9</title>
<path fill="none" stroke="#63b8ff" d="M479.71,-56.35C450.23,-47.11 398.73,-30.96 365.38,-20.5"/>
<polygon fill="#63b8ff" stroke="#63b8ff" points="366.25,-17.1 355.66,-17.45 364.16,-23.78 366.25,-17.1"/>
</g>
<!-- Node17&#45;&gt;Node15 -->
<g id="edge17" class="edge">
<title>Node17&#45;&gt;Node15</title>
<path fill="none" stroke="#63b8ff" d="M512.62,-54.98C521.94,-47.15 535.97,-35.34 547.24,-25.86"/>
<polygon fill="#63b8ff" stroke="#63b8ff" points="549.79,-28.29 555.19,-19.17 545.29,-22.93 549.79,-28.29"/>
</g>
</g>
</svg>
