<?xml version="1.0" encoding="UTF-8" standalone="no"?>
<!DOCTYPE svg PUBLIC "-//W3C//DTD SVG 1.1//EN"
 "http://www.w3.org/Graphics/SVG/1.1/DTD/svg11.dtd">
<!-- Generated by graphviz version 2.43.0 (0)
 -->
<!-- Title: MemberNameInfoLinkedMap Pages: 1 -->
<svg width="213pt" height="160pt"
 viewBox="0.00 0.00 213.00 160.00" xmlns="http://www.w3.org/2000/svg" xmlns:xlink="http://www.w3.org/1999/xlink">
<g id="graph0" class="graph" transform="scale(1 1) rotate(0) translate(4 156)">
<title>MemberNameInfoLinkedMap</title>
<!-- Node1 -->
<g id="node1" class="node">
<title>Node1</title>
<g id="a_node1"><a xlink:title=" ">
<polygon fill="#999999" stroke="#666666" points="169,-19 11,-19 11,0 169,0 169,-19"/>
<text text-anchor="middle" x="90" y="-7" font-family="Helvetica,sans-Serif" font-size="10.00">MemberNameInfoLinkedMap</text>
</a>
</g>
</g>
<!-- Node2 -->
<g id="node2" class="node">
<title>Node2</title>
<g id="a_node2"><a xlink:href="../../d0/d2c/class_linked_map.html" target="_top" xlink:title=" ">
<polygon fill="white" stroke="#666666" points="180,-75 0,-75 0,-56 180,-56 180,-75"/>
<text text-anchor="middle" x="90" y="-63" font-family="Helvetica,sans-Serif" font-size="10.00">LinkedMap&lt; MemberNameInfo &gt;</text>
</a>
</g>
</g>
<!-- Node2&#45;&gt;Node1 -->
<g id="edge1" class="edge">
<title>Node2&#45;&gt;Node1</title>
<path fill="none" stroke="#63b8ff" d="M90,-45.3C90,-36.41 90,-26.28 90,-19.25"/>
<polygon fill="#63b8ff" stroke="#63b8ff" points="86.5,-45.58 90,-55.58 93.5,-45.58 86.5,-45.58"/>
</g>
<!-- Node3 -->
<g id="node3" class="node">
<title>Node3</title>
<g id="a_node3"><a xlink:href="../../d0/d2c/class_linked_map.html" target="_top" xlink:title="Container class representing a vector of objects with keys.">
<polygon fill="white" stroke="#666666" points="150,-152 30,-152 30,-122 150,-122 150,-152"/>
<text text-anchor="start" x="38" y="-140" font-family="Helvetica,sans-Serif" font-size="10.00">LinkedMap&lt; T, Hash,</text>
<text text-anchor="middle" x="90" y="-129" font-family="Helvetica,sans-Serif" font-size="10.00"> KeyEqual, Map &gt;</text>
</a>
</g>
</g>
<!-- Node3&#45;&gt;Node2 -->
<g id="edge2" class="edge">
<title>Node3&#45;&gt;Node2</title>
<path fill="none" stroke="orange" stroke-dasharray="5,2" d="M90,-111.56C90,-98.95 90,-84.35 90,-75.27"/>
<polygon fill="orange" stroke="orange" points="86.5,-111.94 90,-121.94 93.5,-111.94 86.5,-111.94"/>
<text text-anchor="middle" x="147.5" y="-96" font-family="Helvetica,sans-Serif" font-size="10.00" fill="grey"> &lt; MemberNameInfo &gt;</text>
</g>
</g>
</svg>
