<?xml version="1.0" encoding="UTF-8" standalone="no"?>
<!DOCTYPE svg PUBLIC "-//W3C//DTD SVG 1.1//EN"
 "http://www.w3.org/Graphics/SVG/1.1/DTD/svg11.dtd">
<!-- Generated by graphviz version 2.43.0 (0)
 -->
<!-- Title: /home/runner/work/doxygen/doxygen/src/htmlhelp.h Pages: 1 -->
<!--zoomable 170 -->
<svg id="main" version="1.1" xmlns="http://www.w3.org/2000/svg" xmlns:xlink="http://www.w3.org/1999/xlink" xml:space="preserve" onload="init(evt)">
<style type="text/css"><![CDATA[
.edge:hover path { stroke: red; }
.edge:hover polygon { stroke: red; fill: red; }
]]></style>
<script type="text/javascript"><![CDATA[
var edges = document.getElementsByTagName('g');
if (edges && edges.length) {
  for (var i=0;i<edges.length;i++) {
    if (edges[i].id.substr(0,4)=='edge') {
      edges[i].setAttribute('class','edge');
    }
  }
}
]]></script>
        <defs>
                <circle id="rim" cx="0" cy="0" r="7"/>
                <circle id="rim2" cx="0" cy="0" r="3.5"/>
                <g id="zoomPlus">
                        <use xlink:href="#rim" fill="#404040">
                                <set attributeName="fill" to="#808080" begin="zoomplus.mouseover" end="zoomplus.mouseout"/>
                        </use>
                        <path d="M-4,0h8M0,-4v8" fill="none" stroke="white" stroke-width="1.5" pointer-events="none"/>
                </g>
                <g id="zoomMin">
                        <use xlink:href="#rim" fill="#404040">
                                <set attributeName="fill" to="#808080" begin="zoomminus.mouseover" end="zoomminus.mouseout"/>
                        </use>
                        <path d="M-4,0h8" fill="none" stroke="white" stroke-width="1.5" pointer-events="none"/>
                </g>
                <g id="dirArrow">
                        <path fill="none" stroke="white" stroke-width="1.5" d="M0,-3.0v7 M-2.5,-0.5L0,-3.0L2.5,-0.5"/>
                </g>
               <g id="resetDef">
                       <use xlink:href="#rim2" fill="#404040">
                               <set attributeName="fill" to="#808080" begin="reset.mouseover" end="reset.mouseout"/>
                       </use>
               </g>
        </defs>

<script type="text/javascript">
var viewWidth = 2438;
var viewHeight = 170;
var sectionId = 'dynsection-1';
</script>
<script xlink:href="../../svgpan.js"/>
<svg id="graph" class="graph">
<g id="viewport">
<title>/home/runner/work/doxygen/doxygen/src/htmlhelp.h</title>
<!-- Node1 -->
<g id="node1" class="node">
<title>Node1</title>
<g id="a_node1"><a xlink:title=" ">
<polygon fill="#999999" stroke="#666666" points="995,-162 841,-162 841,-132 995,-132 995,-162"/>
<text text-anchor="start" x="849" y="-150" font-family="Helvetica,sans-Serif" font-size="10.00">/home/runner/work/doxygen</text>
<text text-anchor="middle" x="918" y="-139" font-family="Helvetica,sans-Serif" font-size="10.00">/doxygen/src/htmlhelp.h</text>
</a>
</g>
</g>
<!-- Node2 -->
<g id="node2" class="node">
<title>Node2</title>
<g id="a_node2"><a xlink:href="../../de/d89/classdef_8cpp.html" target="_top" xlink:title=" ">
<polygon fill="white" stroke="#666666" points="642,-96 488,-96 488,-66 642,-66 642,-96"/>
<text text-anchor="start" x="496" y="-84" font-family="Helvetica,sans-Serif" font-size="10.00">/home/runner/work/doxygen</text>
<text text-anchor="middle" x="565" y="-73" font-family="Helvetica,sans-Serif" font-size="10.00">/doxygen/src/classdef.cpp</text>
</a>
</g>
</g>
<!-- Node1&#45;&gt;Node2 -->
<g id="edge1" class="edge">
<title>Node1&#45;&gt;Node2</title>
<path fill="none" stroke="#63b8ff" d="M831.11,-130.25C773.25,-119.76 697.91,-106.1 642.17,-95.99"/>
<polygon fill="#63b8ff" stroke="#63b8ff" points="830.5,-133.69 840.97,-132.03 831.75,-126.81 830.5,-133.69"/>
</g>
<!-- Node3 -->
<g id="node3" class="node">
<title>Node3</title>
<g id="a_node3"><a xlink:href="../../db/d12/context_8cpp.html" target="_top" xlink:title=" ">
<polygon fill="white" stroke="#666666" points="814,-96 660,-96 660,-66 814,-66 814,-96"/>
<text text-anchor="start" x="668" y="-84" font-family="Helvetica,sans-Serif" font-size="10.00">/home/runner/work/doxygen</text>
<text text-anchor="middle" x="737" y="-73" font-family="Helvetica,sans-Serif" font-size="10.00">/doxygen/src/context.cpp</text>
</a>
</g>
</g>
<!-- Node1&#45;&gt;Node3 -->
<g id="edge2" class="edge">
<title>Node1&#45;&gt;Node3</title>
<path fill="none" stroke="#63b8ff" d="M868.76,-128.59C839.82,-118.36 803.72,-105.59 776.63,-96.01"/>
<polygon fill="#63b8ff" stroke="#63b8ff" points="867.68,-131.92 878.28,-131.95 870.02,-125.32 867.68,-131.92"/>
</g>
<!-- Node4 -->
<g id="node4" class="node">
<title>Node4</title>
<g id="a_node4"><a xlink:href="../../dc/d98/doxygen_8cpp.html" target="_top" xlink:title=" ">
<polygon fill="white" stroke="#666666" points="154,-30 0,-30 0,0 154,0 154,-30"/>
<text text-anchor="start" x="8" y="-18" font-family="Helvetica,sans-Serif" font-size="10.00">/home/runner/work/doxygen</text>
<text text-anchor="middle" x="77" y="-7" font-family="Helvetica,sans-Serif" font-size="10.00">/doxygen/src/doxygen.cpp</text>
</a>
</g>
</g>
<!-- Node1&#45;&gt;Node4 -->
<g id="edge3" class="edge">
<title>Node1&#45;&gt;Node4</title>
<path fill="none" stroke="#63b8ff" d="M891.77,-125.41C880.62,-116.51 867.55,-105.89 856,-96 840.95,-83.11 841.29,-73.65 823,-66 687.49,-9.32 309.03,-45.82 163,-30 160.14,-29.69 157.24,-29.35 154.3,-28.98"/>
<polygon fill="#63b8ff" stroke="#63b8ff" points="889.86,-128.36 899.86,-131.84 894.21,-122.88 889.86,-128.36"/>
</g>
<!-- Node5 -->
<g id="node5" class="node">
<title>Node5</title>
<g id="a_node5"><a xlink:href="../../d8/d6e/htmlgen_8cpp.html" target="_top" xlink:title=" ">
<polygon fill="white" stroke="#666666" points="326,-30 172,-30 172,0 326,0 326,-30"/>
<text text-anchor="start" x="180" y="-18" font-family="Helvetica,sans-Serif" font-size="10.00">/home/runner/work/doxygen</text>
<text text-anchor="middle" x="249" y="-7" font-family="Helvetica,sans-Serif" font-size="10.00">/doxygen/src/htmlgen.cpp</text>
</a>
</g>
</g>
<!-- Node1&#45;&gt;Node5 -->
<g id="edge4" class="edge">
<title>Node1&#45;&gt;Node5</title>
<path fill="none" stroke="#63b8ff" d="M906.99,-122.81C896.67,-103.93 879.34,-78.46 856,-66 753.61,-11.36 450.28,-43.34 335,-30 332.14,-29.67 329.24,-29.31 326.31,-28.93"/>
<polygon fill="#63b8ff" stroke="#63b8ff" points="903.9,-124.45 911.61,-131.71 910.11,-121.22 903.9,-124.45"/>
</g>
<!-- Node6 -->
<g id="node6" class="node">
<title>Node6</title>
<g id="a_node6"><a xlink:href="../../d3/d4b/htmlhelp_8cpp.html" target="_top" xlink:title=" ">
<polygon fill="white" stroke="#666666" points="1310,-96 1156,-96 1156,-66 1310,-66 1310,-96"/>
<text text-anchor="start" x="1164" y="-84" font-family="Helvetica,sans-Serif" font-size="10.00">/home/runner/work/doxygen</text>
<text text-anchor="middle" x="1233" y="-73" font-family="Helvetica,sans-Serif" font-size="10.00">/doxygen/src/htmlhelp.cpp</text>
</a>
</g>
</g>
<!-- Node1&#45;&gt;Node6 -->
<g id="edge5" class="edge">
<title>Node1&#45;&gt;Node6</title>
<path fill="none" stroke="#63b8ff" d="M997.19,-129.91C1048.56,-119.47 1114.83,-106.01 1164.03,-96.01"/>
<polygon fill="#63b8ff" stroke="#63b8ff" points="996.23,-126.53 987.13,-131.95 997.62,-133.39 996.23,-126.53"/>
</g>
<!-- Node7 -->
<g id="node7" class="node">
<title>Node7</title>
<g id="a_node7"><a xlink:href="../../db/d14/index_8cpp.html" target="_top" xlink:title="This file contains functions for the various index pages.">
<polygon fill="white" stroke="#666666" points="498,-30 344,-30 344,0 498,0 498,-30"/>
<text text-anchor="start" x="352" y="-18" font-family="Helvetica,sans-Serif" font-size="10.00">/home/runner/work/doxygen</text>
<text text-anchor="middle" x="421" y="-7" font-family="Helvetica,sans-Serif" font-size="10.00">/doxygen/src/index.cpp</text>
</a>
</g>
</g>
<!-- Node1&#45;&gt;Node7 -->
<g id="edge6" class="edge">
<title>Node1&#45;&gt;Node7</title>
<path fill="none" stroke="#63b8ff" d="M917.57,-121.66C915.85,-103.42 910.34,-79.38 894,-66 827.17,-11.29 592.67,-40.95 507,-30 504.15,-29.64 501.25,-29.25 498.32,-28.84"/>
<polygon fill="#63b8ff" stroke="#63b8ff" points="914.09,-122.11 918.21,-131.87 921.08,-121.67 914.09,-122.11"/>
</g>
<!-- Node8 -->
<g id="node8" class="node">
<title>Node8</title>
<g id="a_node8"><a xlink:href="../../d5/d61/indexlist_8h.html" target="_top" xlink:title=" ">
<polygon fill="white" stroke="#666666" points="1100,-96 946,-96 946,-66 1100,-66 1100,-96"/>
<text text-anchor="start" x="954" y="-84" font-family="Helvetica,sans-Serif" font-size="10.00">/home/runner/work/doxygen</text>
<text text-anchor="middle" x="1023" y="-73" font-family="Helvetica,sans-Serif" font-size="10.00">/doxygen/src/indexlist.h</text>
</a>
</g>
</g>
<!-- Node1&#45;&gt;Node8 -->
<g id="edge7" class="edge">
<title>Node1&#45;&gt;Node8</title>
<path fill="none" stroke="#63b8ff" d="M949.67,-126.69C965.88,-116.82 985.25,-105.01 1000.01,-96.01"/>
<polygon fill="#63b8ff" stroke="#63b8ff" points="947.76,-123.76 941.04,-131.95 951.4,-129.74 947.76,-123.76"/>
</g>
<!-- Node19 -->
<g id="node19" class="node">
<title>Node19</title>
<g id="a_node19"><a xlink:href="../../df/d2d/util_8cpp.html" target="_top" xlink:title=" ">
<polygon fill="white" stroke="#666666" points="2430,-30 2276,-30 2276,0 2430,0 2430,-30"/>
<text text-anchor="start" x="2284" y="-18" font-family="Helvetica,sans-Serif" font-size="10.00">/home/runner/work/doxygen</text>
<text text-anchor="middle" x="2353" y="-7" font-family="Helvetica,sans-Serif" font-size="10.00">/doxygen/src/util.cpp</text>
</a>
</g>
</g>
<!-- Node1&#45;&gt;Node19 -->
<g id="edge23" class="edge">
<title>Node1&#45;&gt;Node19</title>
<path fill="none" stroke="#63b8ff" d="M1005.22,-131.11C1038.78,-123.37 1076.75,-112.07 1109,-96 1128.26,-86.41 1126.79,-73.38 1147,-66 1263.95,-23.28 2143.07,-42.03 2267,-30 2269.86,-29.72 2272.77,-29.41 2275.71,-29.07"/>
<polygon fill="#63b8ff" stroke="#63b8ff" points="1004.42,-127.7 995.42,-133.3 1005.95,-134.54 1004.42,-127.7"/>
</g>
<!-- Node20 -->
<g id="node20" class="node">
<title>Node20</title>
<g id="a_node20"><a xlink:href="../../d0/d72/memberdef_8cpp.html" target="_top" xlink:title=" ">
<polygon fill="white" stroke="#666666" points="1486,-96 1328,-96 1328,-66 1486,-66 1486,-96"/>
<text text-anchor="start" x="1336" y="-84" font-family="Helvetica,sans-Serif" font-size="10.00">/home/runner/work/doxygen</text>
<text text-anchor="middle" x="1407" y="-73" font-family="Helvetica,sans-Serif" font-size="10.00">/doxygen/src/memberdef.cpp</text>
</a>
</g>
</g>
<!-- Node1&#45;&gt;Node20 -->
<g id="edge22" class="edge">
<title>Node1&#45;&gt;Node20</title>
<path fill="none" stroke="#63b8ff" d="M1005.54,-135.95C1086.86,-126.4 1211.25,-111.28 1319,-96 1321.91,-95.59 1324.87,-95.16 1327.86,-94.72"/>
<polygon fill="#63b8ff" stroke="#63b8ff" points="1004.88,-132.5 995.35,-137.14 1005.69,-139.45 1004.88,-132.5"/>
</g>
<!-- Node8&#45;&gt;Node4 -->
<g id="edge13" class="edge">
<title>Node8&#45;&gt;Node4</title>
<path fill="none" stroke="#63b8ff" d="M935.64,-72.15C909.99,-69.99 881.88,-67.76 856,-66 548.29,-45.11 469.66,-62.83 163,-30 160.14,-29.69 157.23,-29.36 154.3,-28.99"/>
<polygon fill="#63b8ff" stroke="#63b8ff" points="935.45,-75.65 945.72,-73.01 936.05,-68.67 935.45,-75.65"/>
</g>
<!-- Node8&#45;&gt;Node5 -->
<g id="edge16" class="edge">
<title>Node8&#45;&gt;Node5</title>
<path fill="none" stroke="#63b8ff" d="M935.86,-70.02C921.87,-68.57 907.55,-67.17 894,-66 645.97,-44.56 582.38,-58.03 335,-30 332.14,-29.68 329.24,-29.32 326.31,-28.95"/>
<polygon fill="#63b8ff" stroke="#63b8ff" points="935.66,-73.52 945.97,-71.08 936.39,-66.56 935.66,-73.52"/>
</g>
<!-- Node8&#45;&gt;Node7 -->
<g id="edge17" class="edge">
<title>Node8&#45;&gt;Node7</title>
<path fill="none" stroke="#63b8ff" d="M935.35,-66.41C934.23,-66.27 933.11,-66.13 932,-66 743.77,-43.57 695.13,-53.25 507,-30 504.15,-29.65 501.24,-29.27 498.31,-28.87"/>
<polygon fill="#63b8ff" stroke="#63b8ff" points="935.24,-69.92 945.6,-67.73 936.13,-62.98 935.24,-69.92"/>
</g>
<!-- Node9 -->
<g id="node9" class="node">
<title>Node9</title>
<g id="a_node9"><a xlink:href="../../d3/dea/definition_8cpp.html" target="_top" xlink:title=" ">
<polygon fill="white" stroke="#666666" points="2086,-30 1932,-30 1932,0 2086,0 2086,-30"/>
<text text-anchor="start" x="1940" y="-18" font-family="Helvetica,sans-Serif" font-size="10.00">/home/runner/work/doxygen</text>
<text text-anchor="middle" x="2009" y="-7" font-family="Helvetica,sans-Serif" font-size="10.00">/doxygen/src/definition.cpp</text>
</a>
</g>
</g>
<!-- Node8&#45;&gt;Node9 -->
<g id="edge8" class="edge">
<title>Node8&#45;&gt;Node9</title>
<path fill="none" stroke="#63b8ff" d="M1110.64,-66.34C1111.77,-66.22 1112.89,-66.11 1114,-66 1472.16,-30.58 1564.99,-66.98 1923,-30 1925.86,-29.7 1928.77,-29.38 1931.7,-29.02"/>
<polygon fill="#63b8ff" stroke="#63b8ff" points="1109.91,-62.9 1100.37,-67.51 1110.71,-69.86 1109.91,-62.9"/>
</g>
<!-- Node10 -->
<g id="node10" class="node">
<title>Node10</title>
<g id="a_node10"><a xlink:href="../../da/d0d/diagram_8cpp.html" target="_top" xlink:title=" ">
<polygon fill="white" stroke="#666666" points="2258,-30 2104,-30 2104,0 2258,0 2258,-30"/>
<text text-anchor="start" x="2112" y="-18" font-family="Helvetica,sans-Serif" font-size="10.00">/home/runner/work/doxygen</text>
<text text-anchor="middle" x="2181" y="-7" font-family="Helvetica,sans-Serif" font-size="10.00">/doxygen/src/diagram.cpp</text>
</a>
</g>
</g>
<!-- Node8&#45;&gt;Node10 -->
<g id="edge9" class="edge">
<title>Node8&#45;&gt;Node10</title>
<path fill="none" stroke="#63b8ff" d="M1110.64,-66.33C1111.77,-66.22 1112.89,-66.11 1114,-66 1548.34,-24.76 1660.84,-73.13 2095,-30 2097.86,-29.72 2100.77,-29.4 2103.7,-29.05"/>
<polygon fill="#63b8ff" stroke="#63b8ff" points="1109.92,-62.89 1100.37,-67.47 1110.7,-69.85 1109.92,-62.89"/>
</g>
<!-- Node11 -->
<g id="node11" class="node">
<title>Node11</title>
<g id="a_node11"><a xlink:href="../../da/d17/docparser_8cpp.html" target="_top" xlink:title=" ">
<polygon fill="white" stroke="#666666" points="670,-30 516,-30 516,0 670,0 670,-30"/>
<text text-anchor="start" x="524" y="-18" font-family="Helvetica,sans-Serif" font-size="10.00">/home/runner/work/doxygen</text>
<text text-anchor="middle" x="593" y="-7" font-family="Helvetica,sans-Serif" font-size="10.00">/doxygen/src/docparser.cpp</text>
</a>
</g>
</g>
<!-- Node8&#45;&gt;Node11 -->
<g id="edge10" class="edge">
<title>Node8&#45;&gt;Node11</title>
<path fill="none" stroke="#63b8ff" d="M935.34,-66.5C934.22,-66.33 933.11,-66.16 932,-66 819.65,-49.36 791.28,-47.13 679,-30 676.16,-29.57 673.27,-29.12 670.34,-28.67"/>
<polygon fill="#63b8ff" stroke="#63b8ff" points="935.16,-70.01 945.56,-68.03 936.19,-63.08 935.16,-70.01"/>
</g>
<!-- Node12 -->
<g id="node12" class="node">
<title>Node12</title>
<g id="a_node12"><a xlink:href="../../de/daa/dot_8cpp.html" target="_top" xlink:title=" ">
<polygon fill="white" stroke="#666666" points="842,-30 688,-30 688,0 842,0 842,-30"/>
<text text-anchor="start" x="696" y="-18" font-family="Helvetica,sans-Serif" font-size="10.00">/home/runner/work/doxygen</text>
<text text-anchor="middle" x="765" y="-7" font-family="Helvetica,sans-Serif" font-size="10.00">/doxygen/src/dot.cpp</text>
</a>
</g>
</g>
<!-- Node8&#45;&gt;Node12 -->
<g id="edge11" class="edge">
<title>Node8&#45;&gt;Node12</title>
<path fill="none" stroke="#63b8ff" d="M956.55,-63.52C914.71,-53.14 861.28,-39.88 821.49,-30.01"/>
<polygon fill="#63b8ff" stroke="#63b8ff" points="955.83,-66.94 966.38,-65.95 957.52,-60.15 955.83,-66.94"/>
</g>
<!-- Node13 -->
<g id="node13" class="node">
<title>Node13</title>
<g id="a_node13"><a xlink:href="../../de/d45/dotgraph_8cpp.html" target="_top" xlink:title=" ">
<polygon fill="white" stroke="#666666" points="1014,-30 860,-30 860,0 1014,0 1014,-30"/>
<text text-anchor="start" x="868" y="-18" font-family="Helvetica,sans-Serif" font-size="10.00">/home/runner/work/doxygen</text>
<text text-anchor="middle" x="937" y="-7" font-family="Helvetica,sans-Serif" font-size="10.00">/doxygen/src/dotgraph.cpp</text>
</a>
</g>
</g>
<!-- Node8&#45;&gt;Node13 -->
<g id="edge12" class="edge">
<title>Node8&#45;&gt;Node13</title>
<path fill="none" stroke="#63b8ff" d="M995.79,-59.75C982.86,-50.13 967.71,-38.86 956.03,-30.16"/>
<polygon fill="#63b8ff" stroke="#63b8ff" points="993.8,-62.63 1003.91,-65.8 997.98,-57.02 993.8,-62.63"/>
</g>
<!-- Node14 -->
<g id="node14" class="node">
<title>Node14</title>
<g id="a_node14"><a xlink:href="../../d7/d5b/formula_8cpp.html" target="_top" xlink:title=" ">
<polygon fill="white" stroke="#666666" points="1186,-30 1032,-30 1032,0 1186,0 1186,-30"/>
<text text-anchor="start" x="1040" y="-18" font-family="Helvetica,sans-Serif" font-size="10.00">/home/runner/work/doxygen</text>
<text text-anchor="middle" x="1109" y="-7" font-family="Helvetica,sans-Serif" font-size="10.00">/doxygen/src/formula.cpp</text>
</a>
</g>
</g>
<!-- Node8&#45;&gt;Node14 -->
<g id="edge14" class="edge">
<title>Node8&#45;&gt;Node14</title>
<path fill="none" stroke="#63b8ff" d="M1050.21,-59.75C1063.14,-50.13 1078.29,-38.86 1089.97,-30.16"/>
<polygon fill="#63b8ff" stroke="#63b8ff" points="1048.02,-57.02 1042.09,-65.8 1052.2,-62.63 1048.02,-57.02"/>
</g>
<!-- Node15 -->
<g id="node15" class="node">
<title>Node15</title>
<g id="a_node15"><a xlink:href="../../da/db0/htmldocvisitor_8cpp.html" target="_top" xlink:title=" ">
<polygon fill="white" stroke="#666666" points="1376,-30 1204,-30 1204,0 1376,0 1376,-30"/>
<text text-anchor="start" x="1212" y="-18" font-family="Helvetica,sans-Serif" font-size="10.00">/home/runner/work/doxygen</text>
<text text-anchor="middle" x="1290" y="-7" font-family="Helvetica,sans-Serif" font-size="10.00">/doxygen/src/htmldocvisitor.cpp</text>
</a>
</g>
</g>
<!-- Node8&#45;&gt;Node15 -->
<g id="edge15" class="edge">
<title>Node8&#45;&gt;Node15</title>
<path fill="none" stroke="#63b8ff" d="M1091.49,-63.58C1134.83,-53.19 1190.27,-39.9 1231.54,-30.01"/>
<polygon fill="#63b8ff" stroke="#63b8ff" points="1090.5,-60.22 1081.59,-65.95 1092.13,-67.03 1090.5,-60.22"/>
</g>
<!-- Node16 -->
<g id="node16" class="node">
<title>Node16</title>
<g id="a_node16"><a xlink:href="../../db/d33/msc_8cpp.html" target="_top" xlink:title=" ">
<polygon fill="white" stroke="#666666" points="1548,-30 1394,-30 1394,0 1548,0 1548,-30"/>
<text text-anchor="start" x="1402" y="-18" font-family="Helvetica,sans-Serif" font-size="10.00">/home/runner/work/doxygen</text>
<text text-anchor="middle" x="1471" y="-7" font-family="Helvetica,sans-Serif" font-size="10.00">/doxygen/src/msc.cpp</text>
</a>
</g>
</g>
<!-- Node8&#45;&gt;Node16 -->
<g id="edge18" class="edge">
<title>Node8&#45;&gt;Node16</title>
<path fill="none" stroke="#63b8ff" d="M1110.66,-66.48C1111.78,-66.32 1112.89,-66.16 1114,-66 1234.27,-48.76 1264.8,-47.76 1385,-30 1387.84,-29.58 1390.74,-29.14 1393.66,-28.7"/>
<polygon fill="#63b8ff" stroke="#63b8ff" points="1109.82,-63.07 1100.43,-67.98 1110.83,-69.99 1109.82,-63.07"/>
</g>
<!-- Node17 -->
<g id="node17" class="node">
<title>Node17</title>
<g id="a_node17"><a xlink:href="../../d7/d5b/plantuml_8cpp.html" target="_top" xlink:title=" ">
<polygon fill="white" stroke="#666666" points="1720,-30 1566,-30 1566,0 1720,0 1720,-30"/>
<text text-anchor="start" x="1574" y="-18" font-family="Helvetica,sans-Serif" font-size="10.00">/home/runner/work/doxygen</text>
<text text-anchor="middle" x="1643" y="-7" font-family="Helvetica,sans-Serif" font-size="10.00">/doxygen/src/plantuml.cpp</text>
</a>
</g>
</g>
<!-- Node8&#45;&gt;Node17 -->
<g id="edge19" class="edge">
<title>Node8&#45;&gt;Node17</title>
<path fill="none" stroke="#63b8ff" d="M1110.65,-66.4C1111.77,-66.26 1112.89,-66.13 1114,-66 1310.19,-42.97 1360.91,-53.89 1557,-30 1559.85,-29.65 1562.76,-29.28 1565.69,-28.89"/>
<polygon fill="#63b8ff" stroke="#63b8ff" points="1109.87,-62.97 1100.39,-67.71 1110.76,-69.92 1109.87,-62.97"/>
</g>
<!-- Node18 -->
<g id="node18" class="node">
<title>Node18</title>
<g id="a_node18"><a xlink:href="../../d9/d2f/searchindex__js_8cpp.html" target="_top" xlink:title=" ">
<polygon fill="white" stroke="#666666" points="1913.5,-30 1738.5,-30 1738.5,0 1913.5,0 1913.5,-30"/>
<text text-anchor="start" x="1746.5" y="-18" font-family="Helvetica,sans-Serif" font-size="10.00">/home/runner/work/doxygen</text>
<text text-anchor="middle" x="1826" y="-7" font-family="Helvetica,sans-Serif" font-size="10.00">/doxygen/src/searchindex_js.cpp</text>
</a>
</g>
</g>
<!-- Node8&#45;&gt;Node18 -->
<g id="edge20" class="edge">
<title>Node8&#45;&gt;Node18</title>
<path fill="none" stroke="#63b8ff" d="M1110.64,-66.37C1111.77,-66.24 1112.89,-66.12 1114,-66 1386.28,-37.15 1456.59,-57.58 1729,-30 1732.05,-29.69 1735.15,-29.36 1738.27,-29"/>
<polygon fill="#63b8ff" stroke="#63b8ff" points="1109.9,-62.93 1100.38,-67.59 1110.72,-69.88 1109.9,-62.93"/>
</g>
<!-- Node8&#45;&gt;Node19 -->
<g id="edge21" class="edge">
<title>Node8&#45;&gt;Node19</title>
<path fill="none" stroke="#63b8ff" d="M1110.64,-66.32C1111.76,-66.21 1112.89,-66.1 1114,-66 1624.53,-18.93 1756.68,-79.29 2267,-30 2269.86,-29.72 2272.77,-29.41 2275.71,-29.07"/>
<polygon fill="#63b8ff" stroke="#63b8ff" points="1109.93,-62.88 1100.37,-67.44 1110.69,-69.84 1109.93,-62.88"/>
</g>
</g>
</svg>
        <g id="navigator" transform="translate(0 0)" fill="#404254">
                <rect fill="#f2f5e9" fill-opacity="0.5" stroke="#606060" stroke-width=".5" x="0" y="0" width="60" height="60"/>
                <use id="zoomplus" xlink:href="#zoomPlus" x="17" y="9" onmousedown="handleZoom(evt,'in')"/>
                <use id="zoomminus" xlink:href="#zoomMin" x="42" y="9" onmousedown="handleZoom(evt,'out')"/>
                <use id="reset" xlink:href="#resetDef" x="30" y="36" onmousedown="handleReset()"/>
                <g id="arrowUp" xlink:href="#dirArrow" transform="translate(30 24)" onmousedown="handlePan(0,-1)">
                  <use xlink:href="#rim" fill="#404040">
                        <set attributeName="fill" to="#808080" begin="arrowUp.mouseover" end="arrowUp.mouseout"/>
                  </use>
                  <path fill="none" stroke="white" stroke-width="1.5" d="M0,-3.0v7 M-2.5,-0.5L0,-3.0L2.5,-0.5"/>
                </g>
                <g id="arrowRight" xlink:href="#dirArrow" transform="rotate(90) translate(36 -43)" onmousedown="handlePan(1,0)">
                  <use xlink:href="#rim" fill="#404040">
                        <set attributeName="fill" to="#808080" begin="arrowRight.mouseover" end="arrowRight.mouseout"/>
                  </use>
                  <path fill="none" stroke="white" stroke-width="1.5" d="M0,-3.0v7 M-2.5,-0.5L0,-3.0L2.5,-0.5"/>
                </g>
                <g id="arrowDown" xlink:href="#dirArrow" transform="rotate(180) translate(-30 -48)" onmousedown="handlePan(0,1)">
                  <use xlink:href="#rim" fill="#404040">
                        <set attributeName="fill" to="#808080" begin="arrowDown.mouseover" end="arrowDown.mouseout"/>
                  </use>
                  <path fill="none" stroke="white" stroke-width="1.5" d="M0,-3.0v7 M-2.5,-0.5L0,-3.0L2.5,-0.5"/>
                </g>
                <g id="arrowLeft" xlink:href="#dirArrow" transform="rotate(270) translate(-36 17)" onmousedown="handlePan(-1,0)">
                  <use xlink:href="#rim" fill="#404040">
                        <set attributeName="fill" to="#808080" begin="arrowLeft.mouseover" end="arrowLeft.mouseout"/>
                  </use>
                  <path fill="none" stroke="white" stroke-width="1.5" d="M0,-3.0v7 M-2.5,-0.5L0,-3.0L2.5,-0.5"/>
                </g>
        </g>
        <svg viewBox="0 0 15 15" width="100%" height="30px" preserveAspectRatio="xMaxYMin meet">
         <g id="arrow_out" transform="scale(0.3 0.3)">
          <a xlink:href="htmlhelp_8h__dep__incl_org.svg" target="_base">
           <rect id="button" ry="5" rx="5" y="6" x="6" height="38" width="38"
                fill="#f2f5e9" fill-opacity="0.5" stroke="#606060" stroke-width="1.0"/>
           <path id="arrow"
             d="M 11.500037,31.436501 C 11.940474,20.09759 22.043105,11.32322 32.158766,21.979434 L 37.068811,17.246167 C 37.068811,17.246167 37.088388,32 37.088388,32 L 22.160133,31.978069 C 22.160133,31.978069 26.997745,27.140456 26.997745,27.140456 C 18.528582,18.264221 13.291696,25.230495 11.500037,31.436501 z"
             style="fill:#404040;"/>
          </a>
         </g>
        </svg>
</svg>
