<?xml version="1.0" encoding="UTF-8" standalone="no"?>
<!DOCTYPE svg PUBLIC "-//W3C//DTD SVG 1.1//EN"
 "http://www.w3.org/Graphics/SVG/1.1/DTD/svg11.dtd">
<!-- Generated by graphviz version 2.43.0 (0)
 -->
<!-- Title: DotNode Pages: 1 -->
<svg width="167pt" height="171pt"
 viewBox="0.00 0.00 166.50 171.00" xmlns="http://www.w3.org/2000/svg" xmlns:xlink="http://www.w3.org/1999/xlink">
<g id="graph0" class="graph" transform="scale(1 1) rotate(0) translate(4 167)">
<title>DotNode</title>
<!-- Node1 -->
<g id="node1" class="node">
<title>Node1</title>
<g id="a_node1"><a xlink:title="A node in a dot graph.">
<polygon fill="#999999" stroke="#666666" points="94,-19 35,-19 35,0 94,0 94,-19"/>
<text text-anchor="middle" x="64.5" y="-7" font-family="Helvetica,sans-Serif" font-size="10.00">DotNode</text>
</a>
</g>
</g>
<!-- Node2 -->
<g id="node2" class="node">
<title>Node2</title>
<g id="a_node2"><a xlink:href="../../d9/d45/class_q_c_string.html" target="_top" xlink:title="This is an alternative implementation of QCString.">
<polygon fill="white" stroke="#666666" points="59,-107 0,-107 0,-88 59,-88 59,-107"/>
<text text-anchor="middle" x="29.5" y="-95" font-family="Helvetica,sans-Serif" font-size="10.00">QCString</text>
</a>
</g>
</g>
<!-- Node2&#45;&gt;Node1 -->
<g id="edge1" class="edge">
<title>Node2&#45;&gt;Node1</title>
<path fill="none" stroke="#9a32cd" stroke-dasharray="5,2" d="M27.58,-77.54C27.17,-65.34 28.22,-49.49 34.5,-37 38.12,-29.8 44.62,-23.68 50.64,-19.14"/>
<polygon fill="#9a32cd" stroke="#9a32cd" points="24.12,-78.15 28.3,-87.89 31.1,-77.67 24.12,-78.15"/>
<text text-anchor="middle" x="58" y="-62" font-family="Helvetica,sans-Serif" font-size="10.00" fill="grey"> m_label</text>
<text text-anchor="middle" x="58" y="-51" font-family="Helvetica,sans-Serif" font-size="10.00" fill="grey">m_tooltip</text>
<text text-anchor="middle" x="58" y="-40" font-family="Helvetica,sans-Serif" font-size="10.00" fill="grey">m_url</text>
</g>
<!-- Node3 -->
<g id="node3" class="node">
<title>Node3</title>
<g id="a_node3"><a xlink:href="../../d1/dcf/class_class_def.html" target="_top" xlink:title="A abstract class representing of a compound symbol.">
<polygon fill="white" stroke="#666666" points="137.5,-107 77.5,-107 77.5,-88 137.5,-88 137.5,-107"/>
<text text-anchor="middle" x="107.5" y="-95" font-family="Helvetica,sans-Serif" font-size="10.00">ClassDef</text>
</a>
</g>
</g>
<!-- Node3&#45;&gt;Node1 -->
<g id="edge2" class="edge">
<title>Node3&#45;&gt;Node1</title>
<path fill="none" stroke="#9a32cd" stroke-dasharray="5,2" d="M100.5,-78.48C95.63,-66.5 88.74,-50.53 81.5,-37 78.2,-30.83 73.95,-24.21 70.53,-19.12"/>
<polygon fill="#9a32cd" stroke="#9a32cd" points="97.27,-79.83 104.21,-87.83 103.77,-77.24 97.27,-79.83"/>
<text text-anchor="middle" x="128" y="-51" font-family="Helvetica,sans-Serif" font-size="10.00" fill="grey"> m_classDef</text>
</g>
<!-- Node4 -->
<g id="node4" class="node">
<title>Node4</title>
<g id="a_node4"><a xlink:href="../../d5/dcc/class_definition.html" target="_top" xlink:title="The common base class of all entity definitions found in the sources.">
<polygon fill="white" stroke="#666666" points="139.5,-163 75.5,-163 75.5,-144 139.5,-144 139.5,-163"/>
<text text-anchor="middle" x="107.5" y="-151" font-family="Helvetica,sans-Serif" font-size="10.00">Definition</text>
</a>
</g>
</g>
<!-- Node4&#45;&gt;Node3 -->
<g id="edge3" class="edge">
<title>Node4&#45;&gt;Node3</title>
<path fill="none" stroke="#63b8ff" d="M107.5,-133.3C107.5,-124.41 107.5,-114.28 107.5,-107.25"/>
<polygon fill="#63b8ff" stroke="#63b8ff" points="104,-133.58 107.5,-143.58 111,-133.58 104,-133.58"/>
</g>
</g>
</svg>
