<?xml version="1.0" encoding="UTF-8" standalone="no"?>
<!DOCTYPE svg PUBLIC "-//W3C//DTD SVG 1.1//EN"
 "http://www.w3.org/Graphics/SVG/1.1/DTD/svg11.dtd">
<!-- Generated by graphviz version 2.43.0 (0)
 -->
<!-- Title: NamespaceTreeContext::Private Pages: 1 -->
<!--zoomable 157 -->
<svg id="main" version="1.1" xmlns="http://www.w3.org/2000/svg" xmlns:xlink="http://www.w3.org/1999/xlink" xml:space="preserve" onload="init(evt)">
<style type="text/css"><![CDATA[
.edge:hover path { stroke: red; }
.edge:hover polygon { stroke: red; fill: red; }
]]></style>
<script type="text/javascript"><![CDATA[
var edges = document.getElementsByTagName('g');
if (edges && edges.length) {
  for (var i=0;i<edges.length;i++) {
    if (edges[i].id.substr(0,4)=='edge') {
      edges[i].setAttribute('class','edge');
    }
  }
}
]]></script>
        <defs>
                <circle id="rim" cx="0" cy="0" r="7"/>
                <circle id="rim2" cx="0" cy="0" r="3.5"/>
                <g id="zoomPlus">
                        <use xlink:href="#rim" fill="#404040">
                                <set attributeName="fill" to="#808080" begin="zoomplus.mouseover" end="zoomplus.mouseout"/>
                        </use>
                        <path d="M-4,0h8M0,-4v8" fill="none" stroke="white" stroke-width="1.5" pointer-events="none"/>
                </g>
                <g id="zoomMin">
                        <use xlink:href="#rim" fill="#404040">
                                <set attributeName="fill" to="#808080" begin="zoomminus.mouseover" end="zoomminus.mouseout"/>
                        </use>
                        <path d="M-4,0h8" fill="none" stroke="white" stroke-width="1.5" pointer-events="none"/>
                </g>
                <g id="dirArrow">
                        <path fill="none" stroke="white" stroke-width="1.5" d="M0,-3.0v7 M-2.5,-0.5L0,-3.0L2.5,-0.5"/>
                </g>
               <g id="resetDef">
                       <use xlink:href="#rim2" fill="#404040">
                               <set attributeName="fill" to="#808080" begin="reset.mouseover" end="reset.mouseout"/>
                       </use>
               </g>
        </defs>

<script type="text/javascript">
var viewWidth = 800;
var viewHeight = 157;
var sectionId = 'dynsection-0';
</script>
<script xlink:href="../../svgpan.js"/>
<svg id="graph" class="graph">
<g id="viewport">
<title>NamespaceTreeContext::Private</title>
<!-- Node1 -->
<g id="node1" class="node">
<title>Node1</title>
<g id="a_node1"><a xlink:title=" ">
<polygon fill="#999999" stroke="#666666" points="792,-84 659,-84 659,-54 792,-54 792,-84"/>
<text text-anchor="start" x="667" y="-72" font-family="Helvetica,sans-Serif" font-size="10.00">NamespaceTreeContext</text>
<text text-anchor="middle" x="725.5" y="-61" font-family="Helvetica,sans-Serif" font-size="10.00">::Private</text>
</a>
</g>
</g>
<!-- Node2 -->
<g id="node2" class="node">
<title>Node2</title>
<g id="a_node2"><a xlink:href="../../d7/dc1/class_cached_item.html" target="_top" xlink:title=" ">
<polygon fill="white" stroke="#666666" points="528,-148.5 364,-148.5 364,-107.5 528,-107.5 528,-148.5"/>
<text text-anchor="start" x="372" y="-136.5" font-family="Helvetica,sans-Serif" font-size="10.00">CachedItem&lt; int, Namespace</text>
<text text-anchor="start" x="372" y="-125.5" font-family="Helvetica,sans-Serif" font-size="10.00">TreeContext::Private, &amp;Private</text>
<text text-anchor="middle" x="446" y="-114.5" font-family="Helvetica,sans-Serif" font-size="10.00">::createMaxDepth &gt;</text>
</a>
</g>
</g>
<!-- Node2&#45;&gt;Node1 -->
<g id="edge1" class="edge">
<title>Node2&#45;&gt;Node1</title>
<path fill="none" stroke="#9a32cd" stroke-dasharray="5,2" d="M537.9,-108.67C577.35,-100.29 622.68,-90.65 658.79,-82.97"/>
<polygon fill="#9a32cd" stroke="#9a32cd" points="537.06,-105.27 528.01,-110.78 538.52,-112.12 537.06,-105.27"/>
<text text-anchor="middle" x="594.5" y="-108" font-family="Helvetica,sans-Serif" font-size="10.00" fill="grey"> m_maxDepth</text>
</g>
<!-- Node3 -->
<g id="node3" class="node">
<title>Node3</title>
<g id="a_node3"><a xlink:href="../../d7/dc1/class_cached_item.html" target="_top" xlink:title="Wrapper for data that needs to be cached.">
<polygon fill="white" stroke="#666666" points="139,-113 0,-113 0,-83 139,-83 139,-113"/>
<text text-anchor="start" x="8" y="-101" font-family="Helvetica,sans-Serif" font-size="10.00">CachedItem&lt; T, TOwner,</text>
<text text-anchor="middle" x="69.5" y="-90" font-family="Helvetica,sans-Serif" font-size="10.00"> creator &gt;</text>
</a>
</g>
</g>
<!-- Node3&#45;&gt;Node2 -->
<g id="edge2" class="edge">
<title>Node3&#45;&gt;Node2</title>
<path fill="none" stroke="orange" stroke-dasharray="5,2" d="M149.4,-104.39C151.97,-104.6 154.5,-104.8 157,-105 226.87,-110.62 306.28,-116.96 364,-121.55"/>
<polygon fill="orange" stroke="orange" points="149.68,-100.9 139.43,-103.58 149.12,-107.88 149.68,-100.9"/>
<text text-anchor="start" x="157" y="-133" font-family="Helvetica,sans-Serif" font-size="10.00" fill="grey"> &lt; int, NamespaceTreeContext</text>
<text text-anchor="middle" x="250.5" y="-122" font-family="Helvetica,sans-Serif" font-size="10.00" fill="grey">::Private, &amp;Private::createMaxDepth &gt;</text>
</g>
<!-- Node4 -->
<g id="node4" class="node">
<title>Node4</title>
<g id="a_node4"><a xlink:href="../../d7/dc1/class_cached_item.html" target="_top" xlink:title=" ">
<polygon fill="white" stroke="#666666" points="528,-89.5 364,-89.5 364,-48.5 528,-48.5 528,-89.5"/>
<text text-anchor="start" x="372" y="-77.5" font-family="Helvetica,sans-Serif" font-size="10.00">CachedItem&lt; int, Namespace</text>
<text text-anchor="start" x="372" y="-66.5" font-family="Helvetica,sans-Serif" font-size="10.00">TreeContext::Private, &amp;Private</text>
<text text-anchor="middle" x="446" y="-55.5" font-family="Helvetica,sans-Serif" font-size="10.00">::createPreferredDepth &gt;</text>
</a>
</g>
</g>
<!-- Node3&#45;&gt;Node4 -->
<g id="edge4" class="edge">
<title>Node3&#45;&gt;Node4</title>
<path fill="none" stroke="orange" stroke-dasharray="5,2" d="M121.99,-79.94C133.38,-76.68 145.49,-73.75 157,-72 226.21,-61.46 305.85,-61.55 363.82,-63.79"/>
<polygon fill="orange" stroke="orange" points="120.76,-76.66 112.19,-82.88 122.77,-83.36 120.76,-76.66"/>
<text text-anchor="start" x="165" y="-97" font-family="Helvetica,sans-Serif" font-size="10.00" fill="grey"> &lt; int, NamespaceTreeContext</text>
<text text-anchor="start" x="165" y="-86" font-family="Helvetica,sans-Serif" font-size="10.00" fill="grey">::Private, &amp;Private::createPreferred</text>
<text text-anchor="middle" x="250.5" y="-75" font-family="Helvetica,sans-Serif" font-size="10.00" fill="grey">Depth &gt;</text>
</g>
<!-- Node4&#45;&gt;Node1 -->
<g id="edge3" class="edge">
<title>Node4&#45;&gt;Node1</title>
<path fill="none" stroke="#9a32cd" stroke-dasharray="5,2" d="M538.15,-69C577.55,-69 622.76,-69 658.79,-69"/>
<polygon fill="#9a32cd" stroke="#9a32cd" points="538.01,-65.5 528.01,-69 538.01,-72.5 538.01,-65.5"/>
<text text-anchor="middle" x="594.5" y="-72" font-family="Helvetica,sans-Serif" font-size="10.00" fill="grey"> m_preferredDepth</text>
</g>
<!-- Node5 -->
<g id="node5" class="node">
<title>Node5</title>
<g id="a_node5"><a xlink:href="../../d5/dbf/class_property_map.html" target="_top" xlink:title=" ">
<polygon fill="white" stroke="#666666" points="530,-30 362,-30 362,0 530,0 530,-30"/>
<text text-anchor="start" x="370" y="-18" font-family="Helvetica,sans-Serif" font-size="10.00">PropertyMap&lt; NamespaceTree</text>
<text text-anchor="middle" x="446" y="-7" font-family="Helvetica,sans-Serif" font-size="10.00">Context::Private &gt;</text>
</a>
</g>
</g>
<!-- Node5&#45;&gt;Node1 -->
<g id="edge5" class="edge">
<title>Node5&#45;&gt;Node1</title>
<path fill="none" stroke="#9a32cd" stroke-dasharray="5,2" d="M534.13,-31.96C574.48,-39.81 621.61,-48.98 658.89,-56.23"/>
<polygon fill="#9a32cd" stroke="#9a32cd" points="534.78,-28.52 524.3,-30.04 533.45,-35.39 534.78,-28.52"/>
<text text-anchor="middle" x="594.5" y="-54" font-family="Helvetica,sans-Serif" font-size="10.00" fill="grey"> s_inst</text>
</g>
<!-- Node6 -->
<g id="node6" class="node">
<title>Node6</title>
<g id="a_node6"><a xlink:href="../../d5/dbf/class_property_map.html" target="_top" xlink:title="Class representing a mapping of properties and the corresponding getter function.">
<polygon fill="white" stroke="#666666" points="123,-24.5 16,-24.5 16,-5.5 123,-5.5 123,-24.5"/>
<text text-anchor="middle" x="69.5" y="-12.5" font-family="Helvetica,sans-Serif" font-size="10.00">PropertyMap&lt; T &gt;</text>
</a>
</g>
</g>
<!-- Node6&#45;&gt;Node5 -->
<g id="edge6" class="edge">
<title>Node6&#45;&gt;Node5</title>
<path fill="none" stroke="orange" stroke-dasharray="5,2" d="M133.51,-15C196.2,-15 292.75,-15 361.73,-15"/>
<polygon fill="orange" stroke="orange" points="133.36,-11.5 123.36,-15 133.36,-18.5 133.36,-11.5"/>
<text text-anchor="start" x="185" y="-29" font-family="Helvetica,sans-Serif" font-size="10.00" fill="grey"> &lt; NamespaceTreeContext</text>
<text text-anchor="middle" x="250.5" y="-18" font-family="Helvetica,sans-Serif" font-size="10.00" fill="grey">::Private &gt;</text>
</g>
</g>
</svg>
        <g id="navigator" transform="translate(0 0)" fill="#404254">
                <rect fill="#f2f5e9" fill-opacity="0.5" stroke="#606060" stroke-width=".5" x="0" y="0" width="60" height="60"/>
                <use id="zoomplus" xlink:href="#zoomPlus" x="17" y="9" onmousedown="handleZoom(evt,'in')"/>
                <use id="zoomminus" xlink:href="#zoomMin" x="42" y="9" onmousedown="handleZoom(evt,'out')"/>
                <use id="reset" xlink:href="#resetDef" x="30" y="36" onmousedown="handleReset()"/>
                <g id="arrowUp" xlink:href="#dirArrow" transform="translate(30 24)" onmousedown="handlePan(0,-1)">
                  <use xlink:href="#rim" fill="#404040">
                        <set attributeName="fill" to="#808080" begin="arrowUp.mouseover" end="arrowUp.mouseout"/>
                  </use>
                  <path fill="none" stroke="white" stroke-width="1.5" d="M0,-3.0v7 M-2.5,-0.5L0,-3.0L2.5,-0.5"/>
                </g>
                <g id="arrowRight" xlink:href="#dirArrow" transform="rotate(90) translate(36 -43)" onmousedown="handlePan(1,0)">
                  <use xlink:href="#rim" fill="#404040">
                        <set attributeName="fill" to="#808080" begin="arrowRight.mouseover" end="arrowRight.mouseout"/>
                  </use>
                  <path fill="none" stroke="white" stroke-width="1.5" d="M0,-3.0v7 M-2.5,-0.5L0,-3.0L2.5,-0.5"/>
                </g>
                <g id="arrowDown" xlink:href="#dirArrow" transform="rotate(180) translate(-30 -48)" onmousedown="handlePan(0,1)">
                  <use xlink:href="#rim" fill="#404040">
                        <set attributeName="fill" to="#808080" begin="arrowDown.mouseover" end="arrowDown.mouseout"/>
                  </use>
                  <path fill="none" stroke="white" stroke-width="1.5" d="M0,-3.0v7 M-2.5,-0.5L0,-3.0L2.5,-0.5"/>
                </g>
                <g id="arrowLeft" xlink:href="#dirArrow" transform="rotate(270) translate(-36 17)" onmousedown="handlePan(-1,0)">
                  <use xlink:href="#rim" fill="#404040">
                        <set attributeName="fill" to="#808080" begin="arrowLeft.mouseover" end="arrowLeft.mouseout"/>
                  </use>
                  <path fill="none" stroke="white" stroke-width="1.5" d="M0,-3.0v7 M-2.5,-0.5L0,-3.0L2.5,-0.5"/>
                </g>
        </g>
        <svg viewBox="0 0 15 15" width="100%" height="30px" preserveAspectRatio="xMaxYMin meet">
         <g id="arrow_out" transform="scale(0.3 0.3)">
          <a xlink:href="class_namespace_tree_context_1_1_private__coll__graph_org.svg" target="_base">
           <rect id="button" ry="5" rx="5" y="6" x="6" height="38" width="38"
                fill="#f2f5e9" fill-opacity="0.5" stroke="#606060" stroke-width="1.0"/>
           <path id="arrow"
             d="M 11.500037,31.436501 C 11.940474,20.09759 22.043105,11.32322 32.158766,21.979434 L 37.068811,17.246167 C 37.068811,17.246167 37.088388,32 37.088388,32 L 22.160133,31.978069 C 22.160133,31.978069 26.997745,27.140456 26.997745,27.140456 C 18.528582,18.264221 13.291696,25.230495 11.500037,31.436501 z"
             style="fill:#404040;"/>
          </a>
         </g>
        </svg>
</svg>
