<?xml version="1.0" encoding="UTF-8" standalone="no"?>
<!DOCTYPE svg PUBLIC "-//W3C//DTD SVG 1.1//EN"
 "http://www.w3.org/Graphics/SVG/1.1/DTD/svg11.dtd">
<!-- Generated by graphviz version 2.43.0 (0)
 -->
<!-- Title: /home/runner/work/doxygen/doxygen/src/dotincldepgraph.h Pages: 1 -->
<!--zoomable 588 -->
<svg id="main" version="1.1" xmlns="http://www.w3.org/2000/svg" xmlns:xlink="http://www.w3.org/1999/xlink" xml:space="preserve" onload="init(evt)">
<style type="text/css"><![CDATA[
.edge:hover path { stroke: red; }
.edge:hover polygon { stroke: red; fill: red; }
]]></style>
<script type="text/javascript"><![CDATA[
var edges = document.getElementsByTagName('g');
if (edges && edges.length) {
  for (var i=0;i<edges.length;i++) {
    if (edges[i].id.substr(0,4)=='edge') {
      edges[i].setAttribute('class','edge');
    }
  }
}
]]></script>
        <defs>
                <circle id="rim" cx="0" cy="0" r="7"/>
                <circle id="rim2" cx="0" cy="0" r="3.5"/>
                <g id="zoomPlus">
                        <use xlink:href="#rim" fill="#404040">
                                <set attributeName="fill" to="#808080" begin="zoomplus.mouseover" end="zoomplus.mouseout"/>
                        </use>
                        <path d="M-4,0h8M0,-4v8" fill="none" stroke="white" stroke-width="1.5" pointer-events="none"/>
                </g>
                <g id="zoomMin">
                        <use xlink:href="#rim" fill="#404040">
                                <set attributeName="fill" to="#808080" begin="zoomminus.mouseover" end="zoomminus.mouseout"/>
                        </use>
                        <path d="M-4,0h8" fill="none" stroke="white" stroke-width="1.5" pointer-events="none"/>
                </g>
                <g id="dirArrow">
                        <path fill="none" stroke="white" stroke-width="1.5" d="M0,-3.0v7 M-2.5,-0.5L0,-3.0L2.5,-0.5"/>
                </g>
               <g id="resetDef">
                       <use xlink:href="#rim2" fill="#404040">
                               <set attributeName="fill" to="#808080" begin="reset.mouseover" end="reset.mouseout"/>
                       </use>
               </g>
        </defs>

<script type="text/javascript">
var viewWidth = 1397;
var viewHeight = 588;
var sectionId = 'dynsection-0';
</script>
<script xlink:href="../../svgpan.js"/>
<svg id="graph" class="graph">
<g id="viewport">
<title>/home/runner/work/doxygen/doxygen/src/dotincldepgraph.h</title>
<!-- Node1 -->
<g id="node1" class="node">
<title>Node1</title>
<g id="a_node1"><a xlink:title=" ">
<polygon fill="#999999" stroke="#666666" points="409.5,-580 239.5,-580 239.5,-550 409.5,-550 409.5,-580"/>
<text text-anchor="start" x="247.5" y="-568" font-family="Helvetica,sans-Serif" font-size="10.00">/home/runner/work/doxygen</text>
<text text-anchor="middle" x="324.5" y="-557" font-family="Helvetica,sans-Serif" font-size="10.00">/doxygen/src/dotincldepgraph.h</text>
</a>
</g>
</g>
<!-- Node2 -->
<g id="node2" class="node">
<title>Node2</title>
<g id="a_node2"><a xlink:title=" ">
<polygon fill="#e0e0e0" stroke="#999999" points="498.5,-129 440.5,-129 440.5,-110 498.5,-110 498.5,-129"/>
<text text-anchor="middle" x="469.5" y="-117" font-family="Helvetica,sans-Serif" font-size="10.00">memory</text>
</a>
</g>
</g>
<!-- Node1&#45;&gt;Node2 -->
<g id="edge1" class="edge">
<title>Node1&#45;&gt;Node2</title>
<path fill="none" stroke="#63b8ff" d="M337.37,-549.78C354.46,-529.38 382.5,-489.89 382.5,-450.5 382.5,-450.5 382.5,-450.5 382.5,-283.5 382.5,-223.62 428.77,-164.39 453.82,-136.71"/>
<polygon fill="#63b8ff" stroke="#63b8ff" points="456.59,-138.87 460.84,-129.16 451.47,-134.1 456.59,-138.87"/>
</g>
<!-- Node3 -->
<g id="node3" class="node">
<title>Node3</title>
<g id="a_node3"><a xlink:href="../../d7/d5c/qcstring_8h.html" target="_top" xlink:title=" ">
<polygon fill="white" stroke="#666666" points="369,-129 304,-129 304,-110 369,-110 369,-129"/>
<text text-anchor="middle" x="336.5" y="-117" font-family="Helvetica,sans-Serif" font-size="10.00">qcstring.h</text>
</a>
</g>
</g>
<!-- Node1&#45;&gt;Node3 -->
<g id="edge2" class="edge">
<title>Node1&#45;&gt;Node3</title>
<path fill="none" stroke="#63b8ff" d="M324.5,-549.67C324.5,-528.14 324.5,-486.17 324.5,-450.5 324.5,-450.5 324.5,-450.5 324.5,-283.5 324.5,-230.65 302.47,-216.47 314.5,-165 316.7,-155.57 321.21,-145.85 325.57,-137.91"/>
<polygon fill="#63b8ff" stroke="#63b8ff" points="328.62,-139.64 330.66,-129.24 322.58,-136.09 328.62,-139.64"/>
</g>
<!-- Node13 -->
<g id="node13" class="node">
<title>Node13</title>
<g id="a_node13"><a xlink:href="../../d4/d3a/filedef_8h.html" target="_top" xlink:title=" ">
<polygon fill="white" stroke="#666666" points="970.5,-514 914.5,-514 914.5,-495 970.5,-495 970.5,-514"/>
<text text-anchor="middle" x="942.5" y="-502" font-family="Helvetica,sans-Serif" font-size="10.00">filedef.h</text>
</a>
</g>
</g>
<!-- Node1&#45;&gt;Node13 -->
<g id="edge14" class="edge">
<title>Node1&#45;&gt;Node13</title>
<path fill="none" stroke="#63b8ff" d="M409.78,-555.93C545.88,-543.04 806.78,-518.35 904.39,-509.11"/>
<polygon fill="#63b8ff" stroke="#63b8ff" points="904.77,-512.59 914.4,-508.16 904.11,-505.62 904.77,-512.59"/>
</g>
<!-- Node31 -->
<g id="node31" class="node">
<title>Node31</title>
<g id="a_node31"><a xlink:href="../../d8/d3b/dotnode_8h.html" target="_top" xlink:title=" ">
<polygon fill="white" stroke="#666666" points="296,-294 231,-294 231,-275 296,-275 296,-294"/>
<text text-anchor="middle" x="263.5" y="-282" font-family="Helvetica,sans-Serif" font-size="10.00">dotnode.h</text>
</a>
</g>
</g>
<!-- Node1&#45;&gt;Node31 -->
<g id="edge68" class="edge">
<title>Node1&#45;&gt;Node31</title>
<path fill="none" stroke="#63b8ff" d="M313.87,-549.8C299.46,-529.1 275.5,-488.92 275.5,-450.5 275.5,-450.5 275.5,-450.5 275.5,-393.5 275.5,-362 270.39,-325.64 266.84,-304.16"/>
<polygon fill="#63b8ff" stroke="#63b8ff" points="270.26,-303.4 265.12,-294.14 263.37,-304.59 270.26,-303.4"/>
</g>
<!-- Node34 -->
<g id="node34" class="node">
<title>Node34</title>
<g id="a_node34"><a xlink:href="../../d0/daa/dotgraph_8h.html" target="_top" xlink:title=" ">
<polygon fill="white" stroke="#666666" points="231,-239 162,-239 162,-220 231,-220 231,-239"/>
<text text-anchor="middle" x="196.5" y="-227" font-family="Helvetica,sans-Serif" font-size="10.00">dotgraph.h</text>
</a>
</g>
</g>
<!-- Node1&#45;&gt;Node34 -->
<g id="edge83" class="edge">
<title>Node1&#45;&gt;Node34</title>
<path fill="none" stroke="#63b8ff" d="M289.35,-549.98C252.38,-532.64 199.5,-499.31 199.5,-450.5 199.5,-450.5 199.5,-450.5 199.5,-338.5 199.5,-307.18 198.22,-270.77 197.34,-249.23"/>
<polygon fill="#63b8ff" stroke="#63b8ff" points="200.83,-249.02 196.9,-239.18 193.84,-249.32 200.83,-249.02"/>
</g>
<!-- Node4 -->
<g id="node4" class="node">
<title>Node4</title>
<g id="a_node4"><a xlink:title=" ">
<polygon fill="#e0e0e0" stroke="#999999" points="406.5,-19 362.5,-19 362.5,0 406.5,0 406.5,-19"/>
<text text-anchor="middle" x="384.5" y="-7" font-family="Helvetica,sans-Serif" font-size="10.00">string</text>
</a>
</g>
</g>
<!-- Node3&#45;&gt;Node4 -->
<g id="edge3" class="edge">
<title>Node3&#45;&gt;Node4</title>
<path fill="none" stroke="#63b8ff" d="M337.41,-109.92C338.98,-97.37 342.91,-73.49 351.5,-55 356.2,-44.88 363.42,-34.79 369.91,-26.79"/>
<polygon fill="#63b8ff" stroke="#63b8ff" points="372.71,-28.9 376.51,-19.01 367.37,-24.37 372.71,-28.9"/>
</g>
<!-- Node5 -->
<g id="node5" class="node">
<title>Node5</title>
<g id="a_node5"><a xlink:title=" ">
<polygon fill="#e0e0e0" stroke="#999999" points="700.5,-74 636.5,-74 636.5,-55 700.5,-55 700.5,-74"/>
<text text-anchor="middle" x="668.5" y="-62" font-family="Helvetica,sans-Serif" font-size="10.00">algorithm</text>
</a>
</g>
</g>
<!-- Node3&#45;&gt;Node5 -->
<g id="edge4" class="edge">
<title>Node3&#45;&gt;Node5</title>
<path fill="none" stroke="#63b8ff" d="M369.24,-113.27C429.8,-103.61 559.24,-82.94 626.29,-72.24"/>
<polygon fill="#63b8ff" stroke="#63b8ff" points="627.17,-75.64 636.49,-70.61 626.06,-68.73 627.17,-75.64"/>
</g>
<!-- Node6 -->
<g id="node6" class="node">
<title>Node6</title>
<g id="a_node6"><a xlink:title=" ">
<polygon fill="#e0e0e0" stroke="#999999" points="580,-74 531,-74 531,-55 580,-55 580,-74"/>
<text text-anchor="middle" x="555.5" y="-62" font-family="Helvetica,sans-Serif" font-size="10.00">cctype</text>
</a>
</g>
</g>
<!-- Node3&#45;&gt;Node6 -->
<g id="edge5" class="edge">
<title>Node3&#45;&gt;Node6</title>
<path fill="none" stroke="#63b8ff" d="M369.29,-110.57C410.1,-100.69 479.48,-83.9 521.05,-73.84"/>
<polygon fill="#63b8ff" stroke="#63b8ff" points="522.09,-77.19 530.98,-71.43 520.44,-70.38 522.09,-77.19"/>
</g>
<!-- Node7 -->
<g id="node7" class="node">
<title>Node7</title>
<g id="a_node7"><a xlink:title=" ">
<polygon fill="#e0e0e0" stroke="#999999" points="410.5,-74 360.5,-74 360.5,-55 410.5,-55 410.5,-74"/>
<text text-anchor="middle" x="385.5" y="-62" font-family="Helvetica,sans-Serif" font-size="10.00">cstring</text>
</a>
</g>
</g>
<!-- Node3&#45;&gt;Node7 -->
<g id="edge6" class="edge">
<title>Node3&#45;&gt;Node7</title>
<path fill="none" stroke="#63b8ff" d="M344.59,-109.75C351.66,-102.11 362.09,-90.82 370.65,-81.56"/>
<polygon fill="#63b8ff" stroke="#63b8ff" points="373.34,-83.81 377.56,-74.09 368.2,-79.06 373.34,-83.81"/>
</g>
<!-- Node8 -->
<g id="node8" class="node">
<title>Node8</title>
<g id="a_node8"><a xlink:title=" ">
<polygon fill="#e0e0e0" stroke="#999999" points="161.5,-74 115.5,-74 115.5,-55 161.5,-55 161.5,-74"/>
<text text-anchor="middle" x="138.5" y="-62" font-family="Helvetica,sans-Serif" font-size="10.00">cstdio</text>
</a>
</g>
</g>
<!-- Node3&#45;&gt;Node8 -->
<g id="edge7" class="edge">
<title>Node3&#45;&gt;Node8</title>
<path fill="none" stroke="#63b8ff" d="M304.69,-109.98C268.12,-100.2 208.38,-84.21 171.37,-74.3"/>
<polygon fill="#63b8ff" stroke="#63b8ff" points="172.14,-70.88 161.57,-71.68 170.33,-77.64 172.14,-70.88"/>
</g>
<!-- Node9 -->
<g id="node9" class="node">
<title>Node9</title>
<g id="a_node9"><a xlink:title=" ">
<polygon fill="#e0e0e0" stroke="#999999" points="229,-74 180,-74 180,-55 229,-55 229,-74"/>
<text text-anchor="middle" x="204.5" y="-62" font-family="Helvetica,sans-Serif" font-size="10.00">cstdlib</text>
</a>
</g>
</g>
<!-- Node3&#45;&gt;Node9 -->
<g id="edge8" class="edge">
<title>Node3&#45;&gt;Node9</title>
<path fill="none" stroke="#63b8ff" d="M315.29,-109.98C293.77,-101.34 260.22,-87.87 235.67,-78.02"/>
<polygon fill="#63b8ff" stroke="#63b8ff" points="236.68,-74.65 226.09,-74.17 234.07,-81.14 236.68,-74.65"/>
</g>
<!-- Node10 -->
<g id="node10" class="node">
<title>Node10</title>
<g id="a_node10"><a xlink:title=" ">
<polygon fill="#e0e0e0" stroke="#999999" points="501.5,-19 451.5,-19 451.5,0 501.5,0 501.5,-19"/>
<text text-anchor="middle" x="476.5" y="-7" font-family="Helvetica,sans-Serif" font-size="10.00">cstdint</text>
</a>
</g>
</g>
<!-- Node3&#45;&gt;Node10 -->
<g id="edge9" class="edge">
<title>Node3&#45;&gt;Node10</title>
<path fill="none" stroke="#63b8ff" d="M369.08,-119.02C403.79,-117.6 457.28,-109.33 483.5,-74 493.09,-61.08 489.56,-42.42 484.71,-28.67"/>
<polygon fill="#63b8ff" stroke="#63b8ff" points="487.91,-27.26 480.93,-19.29 481.42,-29.87 487.91,-27.26"/>
</g>
<!-- Node11 -->
<g id="node11" class="node">
<title>Node11</title>
<g id="a_node11"><a xlink:title=" ">
<polygon fill="#e0e0e0" stroke="#999999" points="304,-74 247,-74 247,-55 304,-55 304,-74"/>
<text text-anchor="middle" x="275.5" y="-62" font-family="Helvetica,sans-Serif" font-size="10.00">ostream</text>
</a>
</g>
</g>
<!-- Node3&#45;&gt;Node11 -->
<g id="edge10" class="edge">
<title>Node3&#45;&gt;Node11</title>
<path fill="none" stroke="#63b8ff" d="M326.7,-109.98C317.68,-102.15 304.09,-90.34 293.18,-80.86"/>
<polygon fill="#63b8ff" stroke="#63b8ff" points="295.32,-78.09 285.48,-74.17 290.73,-83.37 295.32,-78.09"/>
</g>
<!-- Node12 -->
<g id="node12" class="node">
<title>Node12</title>
<g id="a_node12"><a xlink:href="../../db/d7c/utf8_8h.html" target="_top" xlink:title="Various UTF8 related helper functions.">
<polygon fill="white" stroke="#666666" points="474,-74 429,-74 429,-55 474,-55 474,-74"/>
<text text-anchor="middle" x="451.5" y="-62" font-family="Helvetica,sans-Serif" font-size="10.00">utf8.h</text>
</a>
</g>
</g>
<!-- Node3&#45;&gt;Node12 -->
<g id="edge11" class="edge">
<title>Node3&#45;&gt;Node12</title>
<path fill="none" stroke="#63b8ff" d="M354.98,-109.98C373.48,-101.46 402.18,-88.23 423.48,-78.41"/>
<polygon fill="#63b8ff" stroke="#63b8ff" points="425.07,-81.53 432.69,-74.17 422.14,-75.18 425.07,-81.53"/>
</g>
<!-- Node12&#45;&gt;Node4 -->
<g id="edge13" class="edge">
<title>Node12&#45;&gt;Node4</title>
<path fill="none" stroke="#63b8ff" d="M440.74,-54.98C430.73,-47.07 415.61,-35.11 403.57,-25.58"/>
<polygon fill="#63b8ff" stroke="#63b8ff" points="405.47,-22.63 395.46,-19.17 401.13,-28.12 405.47,-22.63"/>
</g>
<!-- Node12&#45;&gt;Node10 -->
<g id="edge12" class="edge">
<title>Node12&#45;&gt;Node10</title>
<path fill="none" stroke="#63b8ff" d="M455.63,-54.75C459.01,-47.57 463.92,-37.18 468.12,-28.27"/>
<polygon fill="#63b8ff" stroke="#63b8ff" points="471.35,-29.63 472.45,-19.09 465.02,-26.64 471.35,-29.63"/>
</g>
<!-- Node14 -->
<g id="node14" class="node">
<title>Node14</title>
<g id="a_node14"><a xlink:title=" ">
<polygon fill="#e0e0e0" stroke="#999999" points="1284.5,-184 1252.5,-184 1252.5,-165 1284.5,-165 1284.5,-184"/>
<text text-anchor="middle" x="1268.5" y="-172" font-family="Helvetica,sans-Serif" font-size="10.00">set</text>
</a>
</g>
</g>
<!-- Node13&#45;&gt;Node14 -->
<g id="edge15" class="edge">
<title>Node13&#45;&gt;Node14</title>
<path fill="none" stroke="#63b8ff" d="M970.69,-501.32C1056.63,-493.9 1309.5,-466.07 1309.5,-395.5 1309.5,-395.5 1309.5,-395.5 1309.5,-283.5 1309.5,-249.57 1291.59,-213.31 1279.44,-192.62"/>
<polygon fill="#63b8ff" stroke="#63b8ff" points="1282.4,-190.75 1274.2,-184.04 1276.43,-194.4 1282.4,-190.75"/>
</g>
<!-- Node15 -->
<g id="node15" class="node">
<title>Node15</title>
<g id="a_node15"><a xlink:href="../../df/da1/definition_8h.html" target="_top" xlink:title=" ">
<polygon fill="white" stroke="#666666" points="706,-294 635,-294 635,-275 706,-275 706,-294"/>
<text text-anchor="middle" x="670.5" y="-282" font-family="Helvetica,sans-Serif" font-size="10.00">definition.h</text>
</a>
</g>
</g>
<!-- Node13&#45;&gt;Node15 -->
<g id="edge16" class="edge">
<title>Node13&#45;&gt;Node15</title>
<path fill="none" stroke="#63b8ff" d="M914.45,-497.69C868.62,-486.84 777.32,-459.44 722.5,-404 694.43,-375.61 680.27,-329.54 674.24,-304.01"/>
<polygon fill="#63b8ff" stroke="#63b8ff" points="677.64,-303.17 672.08,-294.15 670.8,-304.67 677.64,-303.17"/>
</g>
<!-- Node21 -->
<g id="node21" class="node">
<title>Node21</title>
<g id="a_node21"><a xlink:href="../../dd/d78/memberlist_8h.html" target="_top" xlink:title=" ">
<polygon fill="white" stroke="#666666" points="983.5,-459 901.5,-459 901.5,-440 983.5,-440 983.5,-459"/>
<text text-anchor="middle" x="942.5" y="-447" font-family="Helvetica,sans-Serif" font-size="10.00">memberlist.h</text>
</a>
</g>
</g>
<!-- Node13&#45;&gt;Node21 -->
<g id="edge33" class="edge">
<title>Node13&#45;&gt;Node21</title>
<path fill="none" stroke="#63b8ff" d="M942.5,-494.75C942.5,-487.8 942.5,-477.85 942.5,-469.13"/>
<polygon fill="#63b8ff" stroke="#63b8ff" points="946,-469.09 942.5,-459.09 939,-469.09 946,-469.09"/>
</g>
<!-- Node26 -->
<g id="node26" class="node">
<title>Node26</title>
<g id="a_node26"><a xlink:href="../../d5/d75/containers_8h.html" target="_top" xlink:title=" ">
<polygon fill="white" stroke="#666666" points="1097,-239 1020,-239 1020,-220 1097,-220 1097,-239"/>
<text text-anchor="middle" x="1058.5" y="-227" font-family="Helvetica,sans-Serif" font-size="10.00">containers.h</text>
</a>
</g>
</g>
<!-- Node13&#45;&gt;Node26 -->
<g id="edge67" class="edge">
<title>Node13&#45;&gt;Node26</title>
<path fill="none" stroke="#63b8ff" d="M970.61,-502.12C1028.89,-497.58 1157.5,-478.21 1157.5,-395.5 1157.5,-395.5 1157.5,-395.5 1157.5,-338.5 1157.5,-295.35 1114.03,-261.96 1084.7,-244.35"/>
<polygon fill="#63b8ff" stroke="#63b8ff" points="1086.16,-241.15 1075.74,-239.19 1082.66,-247.21 1086.16,-241.15"/>
</g>
<!-- Node16 -->
<g id="node16" class="node">
<title>Node16</title>
<g id="a_node16"><a xlink:title=" ">
<polygon fill="#e0e0e0" stroke="#999999" points="911,-129 864,-129 864,-110 911,-110 911,-129"/>
<text text-anchor="middle" x="887.5" y="-117" font-family="Helvetica,sans-Serif" font-size="10.00">vector</text>
</a>
</g>
</g>
<!-- Node15&#45;&gt;Node16 -->
<g id="edge17" class="edge">
<title>Node15&#45;&gt;Node16</title>
<path fill="none" stroke="#63b8ff" d="M681.86,-274.97C716.86,-248.68 823.35,-168.69 867.74,-135.34"/>
<polygon fill="#63b8ff" stroke="#63b8ff" points="870.1,-137.95 875.99,-129.15 865.89,-132.35 870.1,-137.95"/>
</g>
<!-- Node17 -->
<g id="node17" class="node">
<title>Node17</title>
<g id="a_node17"><a xlink:href="../../d9/d49/types_8h.html" target="_top" xlink:title="This file contains a number of basic enums and types.">
<polygon fill="white" stroke="#666666" points="464,-239 411,-239 411,-220 464,-220 464,-239"/>
<text text-anchor="middle" x="437.5" y="-227" font-family="Helvetica,sans-Serif" font-size="10.00">types.h</text>
</a>
</g>
</g>
<!-- Node15&#45;&gt;Node17 -->
<g id="edge18" class="edge">
<title>Node15&#45;&gt;Node17</title>
<path fill="none" stroke="#63b8ff" d="M634.86,-275.39C591.31,-265.49 518.01,-248.81 474.05,-238.81"/>
<polygon fill="#63b8ff" stroke="#63b8ff" points="474.61,-235.35 464.08,-236.55 473.05,-242.18 474.61,-235.35"/>
</g>
<!-- Node18 -->
<g id="node18" class="node">
<title>Node18</title>
<g id="a_node18"><a xlink:href="../../d1/d02/reflist_8h.html" target="_top" xlink:title=" ">
<polygon fill="white" stroke="#666666" points="650,-239 597,-239 597,-220 650,-220 650,-239"/>
<text text-anchor="middle" x="623.5" y="-227" font-family="Helvetica,sans-Serif" font-size="10.00">reflist.h</text>
</a>
</g>
</g>
<!-- Node15&#45;&gt;Node18 -->
<g id="edge20" class="edge">
<title>Node15&#45;&gt;Node18</title>
<path fill="none" stroke="#63b8ff" d="M662.74,-274.75C656.03,-267.18 646.16,-256.05 637.99,-246.84"/>
<polygon fill="#63b8ff" stroke="#63b8ff" points="640.37,-244.25 631.12,-239.09 635.13,-248.89 640.37,-244.25"/>
</g>
<!-- Node17&#45;&gt;Node3 -->
<g id="edge19" class="edge">
<title>Node17&#45;&gt;Node3</title>
<path fill="none" stroke="#63b8ff" d="M410.81,-226.54C383.45,-222.95 342.23,-212.78 322.5,-184 313.15,-170.36 319.08,-151.55 325.87,-137.94"/>
<polygon fill="#63b8ff" stroke="#63b8ff" points="328.98,-139.55 330.76,-129.1 322.85,-136.16 328.98,-139.55"/>
</g>
<!-- Node18&#45;&gt;Node2 -->
<g id="edge23" class="edge">
<title>Node18&#45;&gt;Node2</title>
<path fill="none" stroke="#63b8ff" d="M596.79,-223.33C571.73,-217.38 534.32,-205.51 508.5,-184 493.93,-171.86 483.25,-152.79 476.79,-138.72"/>
<polygon fill="#63b8ff" stroke="#63b8ff" points="479.84,-136.94 472.68,-129.13 473.4,-139.7 479.84,-136.94"/>
</g>
<!-- Node18&#45;&gt;Node3 -->
<g id="edge24" class="edge">
<title>Node18&#45;&gt;Node3</title>
<path fill="none" stroke="#63b8ff" d="M596.95,-220.52C569.38,-212.07 525.09,-198.03 487.5,-184 444.17,-167.83 394.96,-146.58 364.82,-133.23"/>
<polygon fill="#63b8ff" stroke="#63b8ff" points="365.93,-129.89 355.37,-129.02 363.08,-136.29 365.93,-129.89"/>
</g>
<!-- Node18&#45;&gt;Node16 -->
<g id="edge21" class="edge">
<title>Node18&#45;&gt;Node16</title>
<path fill="none" stroke="#63b8ff" d="M629.12,-219.97C638.73,-206.12 659.69,-178.9 684.5,-165 738.62,-134.68 811.61,-125.02 853.71,-121.94"/>
<polygon fill="#63b8ff" stroke="#63b8ff" points="853.97,-125.43 863.72,-121.29 853.51,-118.44 853.97,-125.43"/>
</g>
<!-- Node19 -->
<g id="node19" class="node">
<title>Node19</title>
<g id="a_node19"><a xlink:title=" ">
<polygon fill="#e0e0e0" stroke="#999999" points="768,-129 675,-129 675,-110 768,-110 768,-129"/>
<text text-anchor="middle" x="721.5" y="-117" font-family="Helvetica,sans-Serif" font-size="10.00">unordered_map</text>
</a>
</g>
</g>
<!-- Node18&#45;&gt;Node19 -->
<g id="edge22" class="edge">
<title>Node18&#45;&gt;Node19</title>
<path fill="none" stroke="#63b8ff" d="M624.74,-219.77C627.01,-206.6 632.89,-181.44 646.5,-165 657.82,-151.32 674.52,-140.83 689.28,-133.48"/>
<polygon fill="#63b8ff" stroke="#63b8ff" points="691.06,-136.52 698.63,-129.11 688.09,-130.18 691.06,-136.52"/>
</g>
<!-- Node20 -->
<g id="node20" class="node">
<title>Node20</title>
<g id="a_node20"><a xlink:href="../../da/de1/linkedmap_8h.html" target="_top" xlink:title=" ">
<polygon fill="white" stroke="#666666" points="594,-184 517,-184 517,-165 594,-165 594,-184"/>
<text text-anchor="middle" x="555.5" y="-172" font-family="Helvetica,sans-Serif" font-size="10.00">linkedmap.h</text>
</a>
</g>
</g>
<!-- Node18&#45;&gt;Node20 -->
<g id="edge25" class="edge">
<title>Node18&#45;&gt;Node20</title>
<path fill="none" stroke="#63b8ff" d="M612.57,-219.98C602.42,-212.07 587.08,-200.11 574.85,-190.58"/>
<polygon fill="#63b8ff" stroke="#63b8ff" points="576.66,-187.56 566.62,-184.17 572.36,-193.08 576.66,-187.56"/>
</g>
<!-- Node20&#45;&gt;Node2 -->
<g id="edge28" class="edge">
<title>Node20&#45;&gt;Node2</title>
<path fill="none" stroke="#63b8ff" d="M541.68,-164.98C528.35,-156.77 507.92,-144.18 492.19,-134.49"/>
<polygon fill="#63b8ff" stroke="#63b8ff" points="493.92,-131.44 483.57,-129.17 490.25,-137.4 493.92,-131.44"/>
</g>
<!-- Node20&#45;&gt;Node3 -->
<g id="edge32" class="edge">
<title>Node20&#45;&gt;Node3</title>
<path fill="none" stroke="#63b8ff" d="M520.31,-164.98C481.78,-155.66 419.99,-140.71 378.83,-130.74"/>
<polygon fill="#63b8ff" stroke="#63b8ff" points="379.64,-127.34 369.1,-128.39 377.99,-134.14 379.64,-127.34"/>
</g>
<!-- Node20&#45;&gt;Node4 -->
<g id="edge29" class="edge">
<title>Node20&#45;&gt;Node4</title>
<path fill="none" stroke="#63b8ff" d="M562.78,-164.72C579.41,-143.52 616.77,-88.82 589.5,-55 578.68,-41.58 471.77,-23.68 416.79,-15.26"/>
<polygon fill="#63b8ff" stroke="#63b8ff" points="417.26,-11.79 406.85,-13.75 416.21,-18.71 417.26,-11.79"/>
</g>
<!-- Node20&#45;&gt;Node5 -->
<g id="edge30" class="edge">
<title>Node20&#45;&gt;Node5</title>
<path fill="none" stroke="#63b8ff" d="M571.83,-164.87C586.17,-156.8 607.09,-143.8 622.5,-129 636.88,-115.19 649.86,-96.4 658.34,-82.85"/>
<polygon fill="#63b8ff" stroke="#63b8ff" points="661.48,-84.41 663.67,-74.05 655.49,-80.79 661.48,-84.41"/>
</g>
<!-- Node20&#45;&gt;Node6 -->
<g id="edge31" class="edge">
<title>Node20&#45;&gt;Node6</title>
<path fill="none" stroke="#63b8ff" d="M555.5,-164.66C555.5,-147.17 555.5,-107.8 555.5,-84.27"/>
<polygon fill="#63b8ff" stroke="#63b8ff" points="559,-84.16 555.5,-74.16 552,-84.16 559,-84.16"/>
</g>
<!-- Node20&#45;&gt;Node16 -->
<g id="edge27" class="edge">
<title>Node20&#45;&gt;Node16</title>
<path fill="none" stroke="#63b8ff" d="M594.23,-167.32C659.88,-156.84 791.9,-135.76 853.89,-125.86"/>
<polygon fill="#63b8ff" stroke="#63b8ff" points="854.6,-129.3 863.92,-124.26 853.5,-122.38 854.6,-129.3"/>
</g>
<!-- Node20&#45;&gt;Node19 -->
<g id="edge26" class="edge">
<title>Node20&#45;&gt;Node19</title>
<path fill="none" stroke="#63b8ff" d="M582.17,-164.98C610.04,-156.09 653.95,-142.07 685.02,-132.15"/>
<polygon fill="#63b8ff" stroke="#63b8ff" points="686.16,-135.46 694.62,-129.08 684.03,-128.79 686.16,-135.46"/>
</g>
<!-- Node21&#45;&gt;Node5 -->
<g id="edge35" class="edge">
<title>Node21&#45;&gt;Node5</title>
<path fill="none" stroke="#63b8ff" d="M983.66,-447.27C1094.07,-442.87 1388.5,-423.36 1388.5,-340.5 1388.5,-340.5 1388.5,-340.5 1388.5,-173.5 1388.5,-104.54 865.26,-74.67 710.88,-67.36"/>
<polygon fill="#63b8ff" stroke="#63b8ff" points="710.99,-63.86 700.84,-66.89 710.66,-70.85 710.99,-63.86"/>
</g>
<!-- Node21&#45;&gt;Node16 -->
<g id="edge34" class="edge">
<title>Node21&#45;&gt;Node16</title>
<path fill="none" stroke="#63b8ff" d="M973.15,-439.9C1080.27,-408.46 1425.3,-294.8 1308.5,-165 1282.73,-136.36 1016.77,-124.78 921.34,-121.53"/>
<polygon fill="#63b8ff" stroke="#63b8ff" points="921.21,-118.02 911.09,-121.19 920.97,-125.02 921.21,-118.02"/>
</g>
<!-- Node21&#45;&gt;Node17 -->
<g id="edge65" class="edge">
<title>Node21&#45;&gt;Node17</title>
<path fill="none" stroke="#63b8ff" d="M901.42,-449.25C806.88,-450.21 577.38,-447.82 516.5,-404 464.38,-366.49 445.89,-286.19 439.99,-249.5"/>
<polygon fill="#63b8ff" stroke="#63b8ff" points="443.39,-248.62 438.49,-239.23 436.47,-249.63 443.39,-248.62"/>
</g>
<!-- Node21&#45;&gt;Node20 -->
<g id="edge64" class="edge">
<title>Node21&#45;&gt;Node20</title>
<path fill="none" stroke="#63b8ff" d="M901.49,-446.47C797.28,-440.18 530.5,-416.66 530.5,-340.5 530.5,-340.5 530.5,-340.5 530.5,-283.5 530.5,-251.21 541.24,-214.86 548.64,-193.64"/>
<polygon fill="#63b8ff" stroke="#63b8ff" points="552.01,-194.62 552.13,-184.02 545.43,-192.23 552.01,-194.62"/>
</g>
<!-- Node22 -->
<g id="node22" class="node">
<title>Node22</title>
<g id="a_node22"><a xlink:href="../../d4/d46/memberdef_8h.html" target="_top" xlink:title=" ">
<polygon fill="white" stroke="#666666" points="813.5,-404 731.5,-404 731.5,-385 813.5,-385 813.5,-404"/>
<text text-anchor="middle" x="772.5" y="-392" font-family="Helvetica,sans-Serif" font-size="10.00">memberdef.h</text>
</a>
</g>
</g>
<!-- Node21&#45;&gt;Node22 -->
<g id="edge36" class="edge">
<title>Node21&#45;&gt;Node22</title>
<path fill="none" stroke="#63b8ff" d="M915.19,-439.98C886.65,-431.09 841.67,-417.07 809.86,-407.15"/>
<polygon fill="#63b8ff" stroke="#63b8ff" points="810.62,-403.72 800.03,-404.08 808.53,-410.4 810.62,-403.72"/>
</g>
<!-- Node30 -->
<g id="node30" class="node">
<title>Node30</title>
<g id="a_node30"><a xlink:href="../../d9/d11/membergroup_8h.html" target="_top" xlink:title=" ">
<polygon fill="white" stroke="#666666" points="916,-294 821,-294 821,-275 916,-275 916,-294"/>
<text text-anchor="middle" x="868.5" y="-282" font-family="Helvetica,sans-Serif" font-size="10.00">membergroup.h</text>
</a>
</g>
</g>
<!-- Node21&#45;&gt;Node30 -->
<g id="edge66" class="edge">
<title>Node21&#45;&gt;Node30</title>
<path fill="none" stroke="#63b8ff" d="M944.25,-439.73C947.89,-419.01 954.32,-366.1 933.5,-330 925.69,-316.46 911.91,-306.14 899.03,-298.87"/>
<polygon fill="#63b8ff" stroke="#63b8ff" points="900.4,-295.64 889.92,-294.11 897.16,-301.84 900.4,-295.64"/>
</g>
<!-- Node22&#45;&gt;Node2 -->
<g id="edge38" class="edge">
<title>Node22&#45;&gt;Node2</title>
<path fill="none" stroke="#63b8ff" d="M752.55,-384.86C700.17,-361.1 557.92,-289.46 487.5,-184 478.45,-170.45 473.9,-152.36 471.64,-138.96"/>
<polygon fill="#63b8ff" stroke="#63b8ff" points="475.1,-138.42 470.24,-129 468.17,-139.39 475.1,-138.42"/>
</g>
<!-- Node22&#45;&gt;Node15 -->
<g id="edge41" class="edge">
<title>Node22&#45;&gt;Node15</title>
<path fill="none" stroke="#63b8ff" d="M764.15,-384.66C746.96,-366.46 707.38,-324.55 685.58,-301.47"/>
<polygon fill="#63b8ff" stroke="#63b8ff" points="688.09,-299.03 678.68,-294.16 683,-303.83 688.09,-299.03"/>
</g>
<!-- Node22&#45;&gt;Node16 -->
<g id="edge37" class="edge">
<title>Node22&#45;&gt;Node16</title>
<path fill="none" stroke="#63b8ff" d="M807.71,-384.98C915.65,-358.07 1237.98,-271.45 1293.5,-184 1334.26,-119.8 1025.6,-118.49 921.2,-119.85"/>
<polygon fill="#63b8ff" stroke="#63b8ff" points="921.14,-116.35 911.19,-119.99 921.24,-123.35 921.14,-116.35"/>
</g>
<!-- Node22&#45;&gt;Node17 -->
<g id="edge40" class="edge">
<title>Node22&#45;&gt;Node17</title>
<path fill="none" stroke="#63b8ff" d="M731.19,-388.21C693.62,-382.28 637.34,-370.52 592.5,-349 535.77,-321.77 479.75,-271.65 453.28,-246.21"/>
<polygon fill="#63b8ff" stroke="#63b8ff" points="455.65,-243.63 446.05,-239.16 450.77,-248.64 455.65,-243.63"/>
</g>
<!-- Node23 -->
<g id="node23" class="node">
<title>Node23</title>
<g id="a_node23"><a xlink:title=" ">
<polygon fill="#e0e0e0" stroke="#999999" points="840.5,-349 768.5,-349 768.5,-330 840.5,-330 840.5,-349"/>
<text text-anchor="middle" x="804.5" y="-337" font-family="Helvetica,sans-Serif" font-size="10.00">sys/types.h</text>
</a>
</g>
</g>
<!-- Node22&#45;&gt;Node23 -->
<g id="edge39" class="edge">
<title>Node22&#45;&gt;Node23</title>
<path fill="none" stroke="#63b8ff" d="M777.78,-384.75C782.21,-377.42 788.66,-366.73 794.12,-357.7"/>
<polygon fill="#63b8ff" stroke="#63b8ff" points="797.14,-359.46 799.31,-349.09 791.15,-355.84 797.14,-359.46"/>
</g>
<!-- Node24 -->
<g id="node24" class="node">
<title>Node24</title>
<g id="a_node24"><a xlink:href="../../df/d9b/arguments_8h.html" target="_top" xlink:title=" ">
<polygon fill="white" stroke="#666666" points="802.5,-294 724.5,-294 724.5,-275 802.5,-275 802.5,-294"/>
<text text-anchor="middle" x="763.5" y="-282" font-family="Helvetica,sans-Serif" font-size="10.00">arguments.h</text>
</a>
</g>
</g>
<!-- Node22&#45;&gt;Node24 -->
<g id="edge42" class="edge">
<title>Node22&#45;&gt;Node24</title>
<path fill="none" stroke="#63b8ff" d="M769.16,-384.8C765.95,-375.94 761.32,-361.75 759.5,-349 757.37,-334.1 758.64,-317.07 760.29,-304.4"/>
<polygon fill="#63b8ff" stroke="#63b8ff" points="763.81,-304.58 761.84,-294.17 756.88,-303.54 763.81,-304.58"/>
</g>
<!-- Node25 -->
<g id="node25" class="node">
<title>Node25</title>
<g id="a_node25"><a xlink:href="../../d1/da6/classdef_8h.html" target="_top" xlink:title=" ">
<polygon fill="white" stroke="#666666" points="924,-349 859,-349 859,-330 924,-330 924,-349"/>
<text text-anchor="middle" x="891.5" y="-337" font-family="Helvetica,sans-Serif" font-size="10.00">classdef.h</text>
</a>
</g>
</g>
<!-- Node22&#45;&gt;Node25 -->
<g id="edge45" class="edge">
<title>Node22&#45;&gt;Node25</title>
<path fill="none" stroke="#63b8ff" d="M791.62,-384.98C810.85,-376.42 840.73,-363.11 862.81,-353.28"/>
<polygon fill="#63b8ff" stroke="#63b8ff" points="864.32,-356.44 872.03,-349.17 861.47,-350.04 864.32,-356.44"/>
</g>
<!-- Node24&#45;&gt;Node3 -->
<g id="edge44" class="edge">
<title>Node24&#45;&gt;Node3</title>
<path fill="none" stroke="#63b8ff" d="M724.48,-275.9C661.59,-262.72 534.91,-232.32 436.5,-184 407.37,-169.69 376.15,-148.89 356.49,-135.04"/>
<polygon fill="#63b8ff" stroke="#63b8ff" points="358.49,-132.17 348.31,-129.21 354.42,-137.87 358.49,-132.17"/>
</g>
<!-- Node24&#45;&gt;Node16 -->
<g id="edge43" class="edge">
<title>Node24&#45;&gt;Node16</title>
<path fill="none" stroke="#63b8ff" d="M789.32,-274.88C807.03,-267.77 829.89,-256.06 844.5,-239 869.56,-209.74 880.49,-164.69 884.87,-139.4"/>
<polygon fill="#63b8ff" stroke="#63b8ff" points="888.36,-139.72 886.45,-129.3 881.45,-138.63 888.36,-139.72"/>
</g>
<!-- Node25&#45;&gt;Node14 -->
<g id="edge47" class="edge">
<title>Node25&#45;&gt;Node14</title>
<path fill="none" stroke="#63b8ff" d="M919.49,-329.97C946.06,-321.63 986.95,-308.14 1021.5,-294 1104.54,-260.01 1199.33,-211.76 1243.45,-188.73"/>
<polygon fill="#63b8ff" stroke="#63b8ff" points="1245.09,-191.82 1252.32,-184.08 1241.84,-185.62 1245.09,-191.82"/>
</g>
<!-- Node25&#45;&gt;Node15 -->
<g id="edge56" class="edge">
<title>Node25&#45;&gt;Node15</title>
<path fill="none" stroke="#63b8ff" d="M858.89,-330.68C821.1,-321.62 758.57,-306.62 716.01,-296.41"/>
<polygon fill="#63b8ff" stroke="#63b8ff" points="716.72,-292.98 706.18,-294.06 715.08,-299.79 716.72,-292.98"/>
</g>
<!-- Node25&#45;&gt;Node16 -->
<g id="edge46" class="edge">
<title>Node25&#45;&gt;Node16</title>
<path fill="none" stroke="#63b8ff" d="M901.11,-329.69C909.37,-321.41 920.7,-308.18 925.5,-294 944.22,-238.65 914.41,-170.18 897.65,-138.34"/>
<polygon fill="#63b8ff" stroke="#63b8ff" points="900.61,-136.45 892.75,-129.35 894.47,-139.81 900.61,-136.45"/>
</g>
<!-- Node25&#45;&gt;Node24 -->
<g id="edge57" class="edge">
<title>Node25&#45;&gt;Node24</title>
<path fill="none" stroke="#63b8ff" d="M870.93,-329.98C850.07,-321.34 817.53,-307.87 793.73,-298.02"/>
<polygon fill="#63b8ff" stroke="#63b8ff" points="795.02,-294.76 784.44,-294.17 792.34,-301.23 795.02,-294.76"/>
</g>
<!-- Node25&#45;&gt;Node26 -->
<g id="edge48" class="edge">
<title>Node25&#45;&gt;Node26</title>
<path fill="none" stroke="#63b8ff" d="M919.78,-329.94C941.83,-322.48 972.63,-310.3 996.5,-294 1015.68,-280.9 1033.76,-261.22 1045.4,-247.24"/>
<polygon fill="#63b8ff" stroke="#63b8ff" points="1048.19,-249.36 1051.76,-239.39 1042.75,-244.96 1048.19,-249.36"/>
</g>
<!-- Node25&#45;&gt;Node30 -->
<g id="edge58" class="edge">
<title>Node25&#45;&gt;Node30</title>
<path fill="none" stroke="#63b8ff" d="M887.7,-329.75C884.59,-322.57 880.08,-312.18 876.21,-303.27"/>
<polygon fill="#63b8ff" stroke="#63b8ff" points="879.42,-301.87 872.23,-294.09 873,-304.66 879.42,-301.87"/>
</g>
<!-- Node26&#45;&gt;Node4 -->
<g id="edge50" class="edge">
<title>Node26&#45;&gt;Node4</title>
<path fill="none" stroke="#63b8ff" d="M1055.19,-219.71C1049.83,-206.45 1038.16,-181.18 1021.5,-165 984.84,-129.38 968.03,-128.81 920.5,-110 719.41,-30.42 656.65,-49.13 442.5,-19 434.05,-17.81 424.9,-16.49 416.43,-15.25"/>
<polygon fill="#63b8ff" stroke="#63b8ff" points="416.93,-11.78 406.52,-13.79 415.91,-18.71 416.93,-11.78"/>
</g>
<!-- Node26&#45;&gt;Node14 -->
<g id="edge51" class="edge">
<title>Node26&#45;&gt;Node14</title>
<path fill="none" stroke="#63b8ff" d="M1097.04,-220.31C1132.59,-212.52 1187.01,-199.99 1242.75,-184.01"/>
<polygon fill="#63b8ff" stroke="#63b8ff" points="1243.8,-187.35 1252.43,-181.21 1241.85,-180.63 1243.8,-187.35"/>
</g>
<!-- Node26&#45;&gt;Node16 -->
<g id="edge49" class="edge">
<title>Node26&#45;&gt;Node16</title>
<path fill="none" stroke="#63b8ff" d="M1051.78,-219.58C1041.29,-206.15 1019.76,-180.66 996.5,-165 973.27,-149.36 943.68,-137.72 921.2,-130.27"/>
<polygon fill="#63b8ff" stroke="#63b8ff" points="922,-126.85 911.41,-127.14 919.87,-133.52 922,-126.85"/>
</g>
<!-- Node26&#45;&gt;Node19 -->
<g id="edge54" class="edge">
<title>Node26&#45;&gt;Node19</title>
<path fill="none" stroke="#63b8ff" d="M1031.77,-219.94C971.8,-200.72 826.43,-154.13 758.12,-132.24"/>
<polygon fill="#63b8ff" stroke="#63b8ff" points="758.82,-128.78 748.23,-129.07 756.68,-135.45 758.82,-128.78"/>
</g>
<!-- Node27 -->
<g id="node27" class="node">
<title>Node27</title>
<g id="a_node27"><a xlink:title=" ">
<polygon fill="#e0e0e0" stroke="#999999" points="764.5,-184 726.5,-184 726.5,-165 764.5,-165 764.5,-184"/>
<text text-anchor="middle" x="745.5" y="-172" font-family="Helvetica,sans-Serif" font-size="10.00">map</text>
</a>
</g>
</g>
<!-- Node26&#45;&gt;Node27 -->
<g id="edge52" class="edge">
<title>Node26&#45;&gt;Node27</title>
<path fill="none" stroke="#63b8ff" d="M1019.81,-221.95C956.35,-211.2 831.54,-190.07 774.81,-180.46"/>
<polygon fill="#63b8ff" stroke="#63b8ff" points="775.17,-176.97 764.72,-178.76 774,-183.88 775.17,-176.97"/>
</g>
<!-- Node28 -->
<g id="node28" class="node">
<title>Node28</title>
<g id="a_node28"><a xlink:title=" ">
<polygon fill="#e0e0e0" stroke="#999999" points="1172.5,-184 1086.5,-184 1086.5,-165 1172.5,-165 1172.5,-184"/>
<text text-anchor="middle" x="1129.5" y="-172" font-family="Helvetica,sans-Serif" font-size="10.00">unordered_set</text>
</a>
</g>
</g>
<!-- Node26&#45;&gt;Node28 -->
<g id="edge53" class="edge">
<title>Node26&#45;&gt;Node28</title>
<path fill="none" stroke="#63b8ff" d="M1069.91,-219.98C1080.61,-212 1096.84,-199.88 1109.66,-190.31"/>
<polygon fill="#63b8ff" stroke="#63b8ff" points="1111.97,-192.96 1117.89,-184.17 1107.78,-187.35 1111.97,-192.96"/>
</g>
<!-- Node29 -->
<g id="node29" class="node">
<title>Node29</title>
<g id="a_node29"><a xlink:title=" ">
<polygon fill="#e0e0e0" stroke="#999999" points="1234,-184 1191,-184 1191,-165 1234,-165 1234,-184"/>
<text text-anchor="middle" x="1212.5" y="-172" font-family="Helvetica,sans-Serif" font-size="10.00">stack</text>
</a>
</g>
</g>
<!-- Node26&#45;&gt;Node29 -->
<g id="edge55" class="edge">
<title>Node26&#45;&gt;Node29</title>
<path fill="none" stroke="#63b8ff" d="M1083.24,-219.98C1109.86,-210.82 1152.26,-196.23 1181.18,-186.28"/>
<polygon fill="#63b8ff" stroke="#63b8ff" points="1182.49,-189.53 1190.81,-182.97 1180.21,-182.91 1182.49,-189.53"/>
</g>
<!-- Node30&#45;&gt;Node2 -->
<g id="edge61" class="edge">
<title>Node30&#45;&gt;Node2</title>
<path fill="none" stroke="#63b8ff" d="M864.44,-274.79C853.43,-252.28 820.63,-192 773.5,-165 729.15,-139.59 580.81,-127.29 509.05,-122.71"/>
<polygon fill="#63b8ff" stroke="#63b8ff" points="508.82,-119.18 498.63,-122.06 508.39,-126.17 508.82,-119.18"/>
</g>
<!-- Node30&#45;&gt;Node16 -->
<g id="edge59" class="edge">
<title>Node30&#45;&gt;Node16</title>
<path fill="none" stroke="#63b8ff" d="M871.99,-274.8C875.35,-265.96 880.26,-251.76 882.5,-239 888.58,-204.3 888.77,-163.05 888.22,-139.51"/>
<polygon fill="#63b8ff" stroke="#63b8ff" points="891.71,-139.1 887.91,-129.21 884.71,-139.31 891.71,-139.1"/>
</g>
<!-- Node30&#45;&gt;Node17 -->
<g id="edge62" class="edge">
<title>Node30&#45;&gt;Node17</title>
<path fill="none" stroke="#63b8ff" d="M820.93,-276.3C817.74,-275.85 814.57,-275.41 811.5,-275 688.16,-258.47 541.5,-241.92 474.37,-234.52"/>
<polygon fill="#63b8ff" stroke="#63b8ff" points="474.61,-231.03 464.29,-233.41 473.85,-237.98 474.61,-231.03"/>
</g>
<!-- Node30&#45;&gt;Node18 -->
<g id="edge63" class="edge">
<title>Node30&#45;&gt;Node18</title>
<path fill="none" stroke="#63b8ff" d="M829.14,-274.98C782.58,-264.91 705.69,-248.28 660.29,-238.46"/>
<polygon fill="#63b8ff" stroke="#63b8ff" points="660.79,-234.99 650.28,-236.29 659.31,-241.83 660.79,-234.99"/>
</g>
<!-- Node30&#45;&gt;Node27 -->
<g id="edge60" class="edge">
<title>Node30&#45;&gt;Node27</title>
<path fill="none" stroke="#63b8ff" d="M840.54,-274.89C821.21,-267.79 795.93,-256.08 778.5,-239 765.63,-226.39 756.75,-207.68 751.47,-193.84"/>
<polygon fill="#63b8ff" stroke="#63b8ff" points="754.76,-192.65 748.13,-184.38 748.16,-194.98 754.76,-192.65"/>
</g>
<!-- Node31&#45;&gt;Node16 -->
<g id="edge69" class="edge">
<title>Node31&#45;&gt;Node16</title>
<path fill="none" stroke="#63b8ff" d="M296.1,-283.04C379.3,-281.36 597.35,-273.68 659.5,-239 695.99,-218.64 682.57,-187.94 717.5,-165 759.4,-137.49 817.53,-126.96 853.81,-122.95"/>
<polygon fill="#63b8ff" stroke="#63b8ff" points="854.27,-126.42 863.87,-121.94 853.57,-119.46 854.27,-126.42"/>
</g>
<!-- Node31&#45;&gt;Node17 -->
<g id="edge73" class="edge">
<title>Node31&#45;&gt;Node17</title>
<path fill="none" stroke="#63b8ff" d="M291.46,-274.98C321.23,-265.92 368.47,-251.53 401.13,-241.58"/>
<polygon fill="#63b8ff" stroke="#63b8ff" points="402.21,-244.91 410.76,-238.65 400.17,-238.21 402.21,-244.91"/>
</g>
<!-- Node31&#45;&gt;Node27 -->
<g id="edge70" class="edge">
<title>Node31&#45;&gt;Node27</title>
<path fill="none" stroke="#63b8ff" d="M296.16,-283.25C384.09,-282.09 623.85,-275.56 692.5,-239 711.84,-228.7 726.95,-208.12 736.01,-193.18"/>
<polygon fill="#63b8ff" stroke="#63b8ff" points="739.14,-194.75 741.07,-184.33 733.06,-191.27 739.14,-194.75"/>
</g>
<!-- Node32 -->
<g id="node32" class="node">
<title>Node32</title>
<g id="a_node32"><a xlink:title=" ">
<polygon fill="#e0e0e0" stroke="#999999" points="296,-239 249,-239 249,-220 296,-220 296,-239"/>
<text text-anchor="middle" x="272.5" y="-227" font-family="Helvetica,sans-Serif" font-size="10.00">deque</text>
</a>
</g>
</g>
<!-- Node31&#45;&gt;Node32 -->
<g id="edge71" class="edge">
<title>Node31&#45;&gt;Node32</title>
<path fill="none" stroke="#63b8ff" d="M264.99,-274.75C266.17,-267.8 267.86,-257.85 269.34,-249.13"/>
<polygon fill="#63b8ff" stroke="#63b8ff" points="272.82,-249.53 271.04,-239.09 265.92,-248.36 272.82,-249.53"/>
</g>
<!-- Node33 -->
<g id="node33" class="node">
<title>Node33</title>
<g id="a_node33"><a xlink:title=" ">
<polygon fill="#e0e0e0" stroke="#999999" points="138.5,-184 78.5,-184 78.5,-165 138.5,-165 138.5,-184"/>
<text text-anchor="middle" x="108.5" y="-172" font-family="Helvetica,sans-Serif" font-size="10.00">iostream</text>
</a>
</g>
</g>
<!-- Node31&#45;&gt;Node33 -->
<g id="edge72" class="edge">
<title>Node31&#45;&gt;Node33</title>
<path fill="none" stroke="#63b8ff" d="M230.78,-275.82C207.18,-269.06 175.55,-257.38 152.5,-239 136.97,-226.62 124.69,-207.32 117.09,-193.24"/>
<polygon fill="#63b8ff" stroke="#63b8ff" points="120.08,-191.4 112.4,-184.09 113.85,-194.59 120.08,-191.4"/>
</g>
<!-- Node31&#45;&gt;Node34 -->
<g id="edge74" class="edge">
<title>Node31&#45;&gt;Node34</title>
<path fill="none" stroke="#63b8ff" d="M252.74,-274.98C242.73,-267.07 227.61,-255.11 215.57,-245.58"/>
<polygon fill="#63b8ff" stroke="#63b8ff" points="217.47,-242.63 207.46,-239.17 213.13,-248.12 217.47,-242.63"/>
</g>
<!-- Node34&#45;&gt;Node3 -->
<g id="edge77" class="edge">
<title>Node34&#45;&gt;Node3</title>
<path fill="none" stroke="#63b8ff" d="M201.65,-219.68C209.76,-206.4 226.67,-181.09 246.5,-165 263.29,-151.38 284.94,-140.51 302.79,-132.93"/>
<polygon fill="#63b8ff" stroke="#63b8ff" points="304.34,-136.08 312.27,-129.05 301.69,-129.6 304.34,-136.08"/>
</g>
<!-- Node34&#45;&gt;Node27 -->
<g id="edge76" class="edge">
<title>Node34&#45;&gt;Node27</title>
<path fill="none" stroke="#63b8ff" d="M231.18,-221.31C233.99,-220.83 236.79,-220.39 239.5,-220 332.82,-206.71 623.16,-184.58 716.37,-177.65"/>
<polygon fill="#63b8ff" stroke="#63b8ff" points="716.78,-181.13 726.49,-176.9 716.26,-174.15 716.78,-181.13"/>
</g>
<!-- Node34&#45;&gt;Node33 -->
<g id="edge75" class="edge">
<title>Node34&#45;&gt;Node33</title>
<path fill="none" stroke="#63b8ff" d="M182.36,-219.98C168.71,-211.77 147.81,-199.18 131.72,-189.49"/>
<polygon fill="#63b8ff" stroke="#63b8ff" points="133.27,-186.33 122.9,-184.17 129.66,-192.33 133.27,-186.33"/>
</g>
<!-- Node35 -->
<g id="node35" class="node">
<title>Node35</title>
<g id="a_node35"><a xlink:href="../../df/d9c/dir_8h.html" target="_top" xlink:title=" ">
<polygon fill="white" stroke="#666666" points="194.5,-184 156.5,-184 156.5,-165 194.5,-165 194.5,-184"/>
<text text-anchor="middle" x="175.5" y="-172" font-family="Helvetica,sans-Serif" font-size="10.00">dir.h</text>
</a>
</g>
</g>
<!-- Node34&#45;&gt;Node35 -->
<g id="edge78" class="edge">
<title>Node34&#45;&gt;Node35</title>
<path fill="none" stroke="#63b8ff" d="M193.03,-219.75C190.22,-212.65 186.16,-202.4 182.65,-193.56"/>
<polygon fill="#63b8ff" stroke="#63b8ff" points="185.84,-192.1 178.9,-184.09 179.33,-194.68 185.84,-192.1"/>
</g>
<!-- Node35&#45;&gt;Node2 -->
<g id="edge80" class="edge">
<title>Node35&#45;&gt;Node2</title>
<path fill="none" stroke="#63b8ff" d="M194.79,-170.02C242.47,-161.43 366.61,-139.05 430.4,-127.55"/>
<polygon fill="#63b8ff" stroke="#63b8ff" points="431.25,-130.95 440.47,-125.73 430.01,-124.06 431.25,-130.95"/>
</g>
<!-- Node35&#45;&gt;Node4 -->
<g id="edge79" class="edge">
<title>Node35&#45;&gt;Node4</title>
<path fill="none" stroke="#63b8ff" d="M163.42,-164.79C136.3,-144.22 75.3,-91.59 106.5,-55 137.74,-18.36 285.57,-11.76 352.02,-10.66"/>
<polygon fill="#63b8ff" stroke="#63b8ff" points="352.37,-14.16 362.32,-10.53 352.28,-7.16 352.37,-14.16"/>
</g>
<!-- Node36 -->
<g id="node36" class="node">
<title>Node36</title>
<g id="a_node36"><a xlink:href="../../df/d45/fileinfo_8h.html" target="_top" xlink:title=" ">
<polygon fill="white" stroke="#666666" points="59,-129 0,-129 0,-110 59,-110 59,-129"/>
<text text-anchor="middle" x="29.5" y="-117" font-family="Helvetica,sans-Serif" font-size="10.00">fileinfo.h</text>
</a>
</g>
</g>
<!-- Node35&#45;&gt;Node36 -->
<g id="edge81" class="edge">
<title>Node35&#45;&gt;Node36</title>
<path fill="none" stroke="#63b8ff" d="M156.41,-166.57C132.63,-157.94 91.59,-143.04 62.63,-132.53"/>
<polygon fill="#63b8ff" stroke="#63b8ff" points="63.53,-129.13 52.94,-129.01 61.14,-135.71 63.53,-129.13"/>
</g>
<!-- Node36&#45;&gt;Node4 -->
<g id="edge82" class="edge">
<title>Node36&#45;&gt;Node4</title>
<path fill="none" stroke="#63b8ff" d="M32.81,-109.79C38.67,-95.69 52.28,-68.11 73.5,-55 119.73,-26.43 282.43,-15.38 352.26,-11.88"/>
<polygon fill="#63b8ff" stroke="#63b8ff" points="352.44,-15.37 362.26,-11.4 352.1,-8.38 352.44,-15.37"/>
</g>
</g>
</svg>
        <g id="navigator" transform="translate(0 0)" fill="#404254">
                <rect fill="#f2f5e9" fill-opacity="0.5" stroke="#606060" stroke-width=".5" x="0" y="0" width="60" height="60"/>
                <use id="zoomplus" xlink:href="#zoomPlus" x="17" y="9" onmousedown="handleZoom(evt,'in')"/>
                <use id="zoomminus" xlink:href="#zoomMin" x="42" y="9" onmousedown="handleZoom(evt,'out')"/>
                <use id="reset" xlink:href="#resetDef" x="30" y="36" onmousedown="handleReset()"/>
                <g id="arrowUp" xlink:href="#dirArrow" transform="translate(30 24)" onmousedown="handlePan(0,-1)">
                  <use xlink:href="#rim" fill="#404040">
                        <set attributeName="fill" to="#808080" begin="arrowUp.mouseover" end="arrowUp.mouseout"/>
                  </use>
                  <path fill="none" stroke="white" stroke-width="1.5" d="M0,-3.0v7 M-2.5,-0.5L0,-3.0L2.5,-0.5"/>
                </g>
                <g id="arrowRight" xlink:href="#dirArrow" transform="rotate(90) translate(36 -43)" onmousedown="handlePan(1,0)">
                  <use xlink:href="#rim" fill="#404040">
                        <set attributeName="fill" to="#808080" begin="arrowRight.mouseover" end="arrowRight.mouseout"/>
                  </use>
                  <path fill="none" stroke="white" stroke-width="1.5" d="M0,-3.0v7 M-2.5,-0.5L0,-3.0L2.5,-0.5"/>
                </g>
                <g id="arrowDown" xlink:href="#dirArrow" transform="rotate(180) translate(-30 -48)" onmousedown="handlePan(0,1)">
                  <use xlink:href="#rim" fill="#404040">
                        <set attributeName="fill" to="#808080" begin="arrowDown.mouseover" end="arrowDown.mouseout"/>
                  </use>
                  <path fill="none" stroke="white" stroke-width="1.5" d="M0,-3.0v7 M-2.5,-0.5L0,-3.0L2.5,-0.5"/>
                </g>
                <g id="arrowLeft" xlink:href="#dirArrow" transform="rotate(270) translate(-36 17)" onmousedown="handlePan(-1,0)">
                  <use xlink:href="#rim" fill="#404040">
                        <set attributeName="fill" to="#808080" begin="arrowLeft.mouseover" end="arrowLeft.mouseout"/>
                  </use>
                  <path fill="none" stroke="white" stroke-width="1.5" d="M0,-3.0v7 M-2.5,-0.5L0,-3.0L2.5,-0.5"/>
                </g>
        </g>
        <svg viewBox="0 0 15 15" width="100%" height="30px" preserveAspectRatio="xMaxYMin meet">
         <g id="arrow_out" transform="scale(0.3 0.3)">
          <a xlink:href="dotincldepgraph_8h__incl_org.svg" target="_base">
           <rect id="button" ry="5" rx="5" y="6" x="6" height="38" width="38"
                fill="#f2f5e9" fill-opacity="0.5" stroke="#606060" stroke-width="1.0"/>
           <path id="arrow"
             d="M 11.500037,31.436501 C 11.940474,20.09759 22.043105,11.32322 32.158766,21.979434 L 37.068811,17.246167 C 37.068811,17.246167 37.088388,32 37.088388,32 L 22.160133,31.978069 C 22.160133,31.978069 26.997745,27.140456 26.997745,27.140456 C 18.528582,18.264221 13.291696,25.230495 11.500037,31.436501 z"
             style="fill:#404040;"/>
          </a>
         </g>
        </svg>
</svg>
