<?xml version="1.0" encoding="UTF-8" standalone="no"?>
<!DOCTYPE svg PUBLIC "-//W3C//DTD SVG 1.1//EN"
 "http://www.w3.org/Graphics/SVG/1.1/DTD/svg11.dtd">
<!-- Generated by graphviz version 2.43.0 (0)
 -->
<!-- Title: /home/runner/work/doxygen/doxygen/src/bufstr.h Pages: 1 -->
<svg width="541pt" height="203pt"
 viewBox="0.00 0.00 540.50 203.00" xmlns="http://www.w3.org/2000/svg" xmlns:xlink="http://www.w3.org/1999/xlink">
<g id="graph0" class="graph" transform="scale(1 1) rotate(0) translate(4 199)">
<title>/home/runner/work/doxygen/doxygen/src/bufstr.h</title>
<!-- Node1 -->
<g id="node1" class="node">
<title>Node1</title>
<g id="a_node1"><a xlink:title=" ">
<polygon fill="#999999" stroke="#666666" points="243.5,-195 89.5,-195 89.5,-165 243.5,-165 243.5,-195"/>
<text text-anchor="start" x="97.5" y="-183" font-family="Helvetica,sans-Serif" font-size="10.00">/home/runner/work/doxygen</text>
<text text-anchor="middle" x="166.5" y="-172" font-family="Helvetica,sans-Serif" font-size="10.00">/doxygen/src/bufstr.h</text>
</a>
</g>
</g>
<!-- Node2 -->
<g id="node2" class="node">
<title>Node2</title>
<g id="a_node2"><a xlink:title=" ">
<polygon fill="#e0e0e0" stroke="#999999" points="49,-74 0,-74 0,-55 49,-55 49,-74"/>
<text text-anchor="middle" x="24.5" y="-62" font-family="Helvetica,sans-Serif" font-size="10.00">cstdlib</text>
</a>
</g>
</g>
<!-- Node1&#45;&gt;Node2 -->
<g id="edge1" class="edge">
<title>Node1&#45;&gt;Node2</title>
<path fill="none" stroke="#63b8ff" d="M148.8,-164.85C121.97,-143.41 71.19,-102.82 43.57,-80.74"/>
<polygon fill="#63b8ff" stroke="#63b8ff" points="45.47,-77.78 35.47,-74.27 41.1,-83.25 45.47,-77.78"/>
</g>
<!-- Node3 -->
<g id="node3" class="node">
<title>Node3</title>
<g id="a_node3"><a xlink:href="../../d7/d5c/qcstring_8h.html" target="_top" xlink:title=" ">
<polygon fill="white" stroke="#666666" points="308,-129 243,-129 243,-110 308,-110 308,-129"/>
<text text-anchor="middle" x="275.5" y="-117" font-family="Helvetica,sans-Serif" font-size="10.00">qcstring.h</text>
</a>
</g>
</g>
<!-- Node1&#45;&gt;Node3 -->
<g id="edge2" class="edge">
<title>Node1&#45;&gt;Node3</title>
<path fill="none" stroke="#63b8ff" d="M192.61,-164.99C210.14,-155.58 233.12,-143.24 250.44,-133.95"/>
<polygon fill="#63b8ff" stroke="#63b8ff" points="252.25,-136.95 259.4,-129.14 248.94,-130.78 252.25,-136.95"/>
</g>
<!-- Node3&#45;&gt;Node2 -->
<g id="edge8" class="edge">
<title>Node3&#45;&gt;Node2</title>
<path fill="none" stroke="#63b8ff" d="M242.69,-112.22C202.02,-104.35 130.37,-90.15 59.36,-74.12"/>
<polygon fill="#63b8ff" stroke="#63b8ff" points="59.88,-70.64 49.35,-71.84 58.33,-77.47 59.88,-70.64"/>
</g>
<!-- Node4 -->
<g id="node4" class="node">
<title>Node4</title>
<g id="a_node4"><a xlink:title=" ">
<polygon fill="#e0e0e0" stroke="#999999" points="532.5,-19 488.5,-19 488.5,0 532.5,0 532.5,-19"/>
<text text-anchor="middle" x="510.5" y="-7" font-family="Helvetica,sans-Serif" font-size="10.00">string</text>
</a>
</g>
</g>
<!-- Node3&#45;&gt;Node4 -->
<g id="edge3" class="edge">
<title>Node3&#45;&gt;Node4</title>
<path fill="none" stroke="#63b8ff" d="M308.39,-117.46C368.25,-114.79 491.25,-105.51 517.5,-74 527.91,-61.5 524.1,-42.49 518.94,-28.53"/>
<polygon fill="#63b8ff" stroke="#63b8ff" points="522.05,-26.89 514.95,-19.02 515.59,-29.6 522.05,-26.89"/>
</g>
<!-- Node5 -->
<g id="node5" class="node">
<title>Node5</title>
<g id="a_node5"><a xlink:title=" ">
<polygon fill="#e0e0e0" stroke="#999999" points="131.5,-74 67.5,-74 67.5,-55 131.5,-55 131.5,-74"/>
<text text-anchor="middle" x="99.5" y="-62" font-family="Helvetica,sans-Serif" font-size="10.00">algorithm</text>
</a>
</g>
</g>
<!-- Node3&#45;&gt;Node5 -->
<g id="edge4" class="edge">
<title>Node3&#45;&gt;Node5</title>
<path fill="none" stroke="#63b8ff" d="M247.22,-109.98C217.55,-101.05 170.71,-86.94 137.75,-77.02"/>
<polygon fill="#63b8ff" stroke="#63b8ff" points="138.58,-73.61 128,-74.08 136.57,-80.32 138.58,-73.61"/>
</g>
<!-- Node6 -->
<g id="node6" class="node">
<title>Node6</title>
<g id="a_node6"><a xlink:title=" ">
<polygon fill="#e0e0e0" stroke="#999999" points="199,-74 150,-74 150,-55 199,-55 199,-74"/>
<text text-anchor="middle" x="174.5" y="-62" font-family="Helvetica,sans-Serif" font-size="10.00">cctype</text>
</a>
</g>
</g>
<!-- Node3&#45;&gt;Node6 -->
<g id="edge5" class="edge">
<title>Node3&#45;&gt;Node6</title>
<path fill="none" stroke="#63b8ff" d="M259.27,-109.98C243.32,-101.61 218.72,-88.7 200.12,-78.95"/>
<polygon fill="#63b8ff" stroke="#63b8ff" points="201.5,-75.72 191.02,-74.17 198.25,-81.92 201.5,-75.72"/>
</g>
<!-- Node7 -->
<g id="node7" class="node">
<title>Node7</title>
<g id="a_node7"><a xlink:title=" ">
<polygon fill="#e0e0e0" stroke="#999999" points="267.5,-74 217.5,-74 217.5,-55 267.5,-55 267.5,-74"/>
<text text-anchor="middle" x="242.5" y="-62" font-family="Helvetica,sans-Serif" font-size="10.00">cstring</text>
</a>
</g>
</g>
<!-- Node3&#45;&gt;Node7 -->
<g id="edge6" class="edge">
<title>Node3&#45;&gt;Node7</title>
<path fill="none" stroke="#63b8ff" d="M270.05,-109.75C265.49,-102.42 258.83,-91.73 253.21,-82.7"/>
<polygon fill="#63b8ff" stroke="#63b8ff" points="256.1,-80.73 247.85,-74.09 250.16,-84.43 256.1,-80.73"/>
</g>
<!-- Node8 -->
<g id="node8" class="node">
<title>Node8</title>
<g id="a_node8"><a xlink:title=" ">
<polygon fill="#e0e0e0" stroke="#999999" points="331.5,-74 285.5,-74 285.5,-55 331.5,-55 331.5,-74"/>
<text text-anchor="middle" x="308.5" y="-62" font-family="Helvetica,sans-Serif" font-size="10.00">cstdio</text>
</a>
</g>
</g>
<!-- Node3&#45;&gt;Node8 -->
<g id="edge7" class="edge">
<title>Node3&#45;&gt;Node8</title>
<path fill="none" stroke="#63b8ff" d="M280.95,-109.75C285.51,-102.42 292.17,-91.73 297.79,-82.7"/>
<polygon fill="#63b8ff" stroke="#63b8ff" points="300.84,-84.43 303.15,-74.09 294.9,-80.73 300.84,-84.43"/>
</g>
<!-- Node9 -->
<g id="node9" class="node">
<title>Node9</title>
<g id="a_node9"><a xlink:title=" ">
<polygon fill="#e0e0e0" stroke="#999999" points="440.5,-19 390.5,-19 390.5,0 440.5,0 440.5,-19"/>
<text text-anchor="middle" x="415.5" y="-7" font-family="Helvetica,sans-Serif" font-size="10.00">cstdint</text>
</a>
</g>
</g>
<!-- Node3&#45;&gt;Node9 -->
<g id="edge9" class="edge">
<title>Node3&#45;&gt;Node9</title>
<path fill="none" stroke="#63b8ff" d="M288.98,-109.85C302.32,-101.16 323.21,-87.18 340.5,-74 360.91,-58.43 383.24,-39.23 398.18,-26.04"/>
<polygon fill="#63b8ff" stroke="#63b8ff" points="400.9,-28.3 406.05,-19.04 396.25,-23.07 400.9,-28.3"/>
</g>
<!-- Node10 -->
<g id="node10" class="node">
<title>Node10</title>
<g id="a_node10"><a xlink:title=" ">
<polygon fill="#e0e0e0" stroke="#999999" points="445,-74 388,-74 388,-55 445,-55 445,-74"/>
<text text-anchor="middle" x="416.5" y="-62" font-family="Helvetica,sans-Serif" font-size="10.00">ostream</text>
</a>
</g>
</g>
<!-- Node3&#45;&gt;Node10 -->
<g id="edge10" class="edge">
<title>Node3&#45;&gt;Node10</title>
<path fill="none" stroke="#63b8ff" d="M298.15,-109.98C321.35,-101.27 357.62,-87.63 383.9,-77.75"/>
<polygon fill="#63b8ff" stroke="#63b8ff" points="385.3,-80.97 393.43,-74.17 382.84,-74.41 385.3,-80.97"/>
</g>
<!-- Node11 -->
<g id="node11" class="node">
<title>Node11</title>
<g id="a_node11"><a xlink:href="../../db/d7c/utf8_8h.html" target="_top" xlink:title="Various UTF8 related helper functions.">
<polygon fill="white" stroke="#666666" points="508,-74 463,-74 463,-55 508,-55 508,-74"/>
<text text-anchor="middle" x="485.5" y="-62" font-family="Helvetica,sans-Serif" font-size="10.00">utf8.h</text>
</a>
</g>
</g>
<!-- Node3&#45;&gt;Node11 -->
<g id="edge11" class="edge">
<title>Node3&#45;&gt;Node11</title>
<path fill="none" stroke="#63b8ff" d="M308.22,-110.61C342.19,-102.37 397.11,-88.9 453.1,-74.32"/>
<polygon fill="#63b8ff" stroke="#63b8ff" points="454.04,-77.7 462.83,-71.78 452.27,-70.92 454.04,-77.7"/>
</g>
<!-- Node11&#45;&gt;Node4 -->
<g id="edge13" class="edge">
<title>Node11&#45;&gt;Node4</title>
<path fill="none" stroke="#63b8ff" d="M489.63,-54.75C493.01,-47.57 497.92,-37.18 502.12,-28.27"/>
<polygon fill="#63b8ff" stroke="#63b8ff" points="505.35,-29.63 506.45,-19.09 499.02,-26.64 505.35,-29.63"/>
</g>
<!-- Node11&#45;&gt;Node9 -->
<g id="edge12" class="edge">
<title>Node11&#45;&gt;Node9</title>
<path fill="none" stroke="#63b8ff" d="M474.25,-54.98C463.7,-47 447.7,-34.88 435.06,-25.31"/>
<polygon fill="#63b8ff" stroke="#63b8ff" points="437.04,-22.42 426.95,-19.17 432.81,-28 437.04,-22.42"/>
</g>
</g>
</svg>
