<?xml version="1.0" encoding="UTF-8" standalone="no"?>
<!DOCTYPE svg PUBLIC "-//W3C//DTD SVG 1.1//EN"
 "http://www.w3.org/Graphics/SVG/1.1/DTD/svg11.dtd">
<!-- Generated by graphviz version 2.43.0 (0)
 -->
<!-- Title: /home/runner/work/doxygen/doxygen/src/dirdef.h Pages: 1 -->
<svg width="658pt" height="368pt"
 viewBox="0.00 0.00 658.00 368.00" xmlns="http://www.w3.org/2000/svg" xmlns:xlink="http://www.w3.org/1999/xlink">
<g id="graph0" class="graph" transform="scale(1 1) rotate(0) translate(4 364)">
<title>/home/runner/work/doxygen/doxygen/src/dirdef.h</title>
<!-- Node1 -->
<g id="node1" class="node">
<title>Node1</title>
<g id="a_node1"><a xlink:title=" ">
<polygon fill="#999999" stroke="#666666" points="236.5,-360 82.5,-360 82.5,-330 236.5,-330 236.5,-360"/>
<text text-anchor="start" x="90.5" y="-348" font-family="Helvetica,sans-Serif" font-size="10.00">/home/runner/work/doxygen</text>
<text text-anchor="middle" x="159.5" y="-337" font-family="Helvetica,sans-Serif" font-size="10.00">/doxygen/src/dirdef.h</text>
</a>
</g>
</g>
<!-- Node2 -->
<g id="node2" class="node">
<title>Node2</title>
<g id="a_node2"><a xlink:title=" ">
<polygon fill="#e0e0e0" stroke="#999999" points="47,-129 0,-129 0,-110 47,-110 47,-129"/>
<text text-anchor="middle" x="23.5" y="-117" font-family="Helvetica,sans-Serif" font-size="10.00">vector</text>
</a>
</g>
</g>
<!-- Node1&#45;&gt;Node2 -->
<g id="edge1" class="edge">
<title>Node1&#45;&gt;Node2</title>
<path fill="none" stroke="#63b8ff" d="M129.37,-329.84C114.08,-321.34 96.31,-309.2 84.5,-294 47.19,-245.97 31.63,-173.37 26.11,-139.35"/>
<polygon fill="#63b8ff" stroke="#63b8ff" points="29.56,-138.74 24.61,-129.38 22.64,-139.79 29.56,-138.74"/>
</g>
<!-- Node3 -->
<g id="node3" class="node">
<title>Node3</title>
<g id="a_node3"><a xlink:title=" ">
<polygon fill="#e0e0e0" stroke="#999999" points="131.5,-294 93.5,-294 93.5,-275 131.5,-275 131.5,-294"/>
<text text-anchor="middle" x="112.5" y="-282" font-family="Helvetica,sans-Serif" font-size="10.00">map</text>
</a>
</g>
</g>
<!-- Node1&#45;&gt;Node3 -->
<g id="edge2" class="edge">
<title>Node1&#45;&gt;Node3</title>
<path fill="none" stroke="#63b8ff" d="M148.12,-329.84C141.44,-321.52 132.95,-310.96 125.94,-302.23"/>
<polygon fill="#63b8ff" stroke="#63b8ff" points="128.53,-299.87 119.54,-294.27 123.08,-304.25 128.53,-299.87"/>
</g>
<!-- Node4 -->
<g id="node4" class="node">
<title>Node4</title>
<g id="a_node4"><a xlink:href="../../d7/d5c/qcstring_8h.html" target="_top" xlink:title=" ">
<polygon fill="white" stroke="#666666" points="433,-129 368,-129 368,-110 433,-110 433,-129"/>
<text text-anchor="middle" x="400.5" y="-117" font-family="Helvetica,sans-Serif" font-size="10.00">qcstring.h</text>
</a>
</g>
</g>
<!-- Node1&#45;&gt;Node4 -->
<g id="edge3" class="edge">
<title>Node1&#45;&gt;Node4</title>
<path fill="none" stroke="#63b8ff" d="M200.69,-329.98C256.39,-308.5 353.36,-261.58 393.5,-184 400.6,-170.29 402.04,-152.71 401.89,-139.53"/>
<polygon fill="#63b8ff" stroke="#63b8ff" points="405.37,-139.12 401.44,-129.28 398.38,-139.42 405.37,-139.12"/>
</g>
<!-- Node14 -->
<g id="node14" class="node">
<title>Node14</title>
<g id="a_node14"><a xlink:href="../../da/de1/linkedmap_8h.html" target="_top" xlink:title=" ">
<polygon fill="white" stroke="#666666" points="198,-184 121,-184 121,-165 198,-165 198,-184"/>
<text text-anchor="middle" x="159.5" y="-172" font-family="Helvetica,sans-Serif" font-size="10.00">linkedmap.h</text>
</a>
</g>
</g>
<!-- Node1&#45;&gt;Node14 -->
<g id="edge15" class="edge">
<title>Node1&#45;&gt;Node14</title>
<path fill="none" stroke="#63b8ff" d="M159.5,-329.92C159.5,-299.65 159.5,-228.35 159.5,-194.27"/>
<polygon fill="#63b8ff" stroke="#63b8ff" points="163,-194.25 159.5,-184.25 156,-194.25 163,-194.25"/>
</g>
<!-- Node17 -->
<g id="node17" class="node">
<title>Node17</title>
<g id="a_node17"><a xlink:href="../../df/da1/definition_8h.html" target="_top" xlink:title=" ">
<polygon fill="white" stroke="#666666" points="260,-294 189,-294 189,-275 260,-275 260,-294"/>
<text text-anchor="middle" x="224.5" y="-282" font-family="Helvetica,sans-Serif" font-size="10.00">definition.h</text>
</a>
</g>
</g>
<!-- Node1&#45;&gt;Node17 -->
<g id="edge23" class="edge">
<title>Node1&#45;&gt;Node17</title>
<path fill="none" stroke="#63b8ff" d="M175.23,-329.84C184.86,-321.17 197.19,-310.08 207.11,-301.15"/>
<polygon fill="#63b8ff" stroke="#63b8ff" points="209.67,-303.56 214.76,-294.27 204.99,-298.35 209.67,-303.56"/>
</g>
<!-- Node5 -->
<g id="node5" class="node">
<title>Node5</title>
<g id="a_node5"><a xlink:title=" ">
<polygon fill="#e0e0e0" stroke="#999999" points="285.5,-19 241.5,-19 241.5,0 285.5,0 285.5,-19"/>
<text text-anchor="middle" x="263.5" y="-7" font-family="Helvetica,sans-Serif" font-size="10.00">string</text>
</a>
</g>
</g>
<!-- Node4&#45;&gt;Node5 -->
<g id="edge4" class="edge">
<title>Node4&#45;&gt;Node5</title>
<path fill="none" stroke="#63b8ff" d="M369.08,-109.92C338.69,-101.05 295.5,-86.73 283.5,-74 271.99,-61.79 267.1,-43.01 265.03,-29.03"/>
<polygon fill="#63b8ff" stroke="#63b8ff" points="268.5,-28.61 263.89,-19.07 261.55,-29.4 268.5,-28.61"/>
</g>
<!-- Node6 -->
<g id="node6" class="node">
<title>Node6</title>
<g id="a_node6"><a xlink:title=" ">
<polygon fill="#e0e0e0" stroke="#999999" points="167.5,-74 103.5,-74 103.5,-55 167.5,-55 167.5,-74"/>
<text text-anchor="middle" x="135.5" y="-62" font-family="Helvetica,sans-Serif" font-size="10.00">algorithm</text>
</a>
</g>
</g>
<!-- Node4&#45;&gt;Node6 -->
<g id="edge5" class="edge">
<title>Node4&#45;&gt;Node6</title>
<path fill="none" stroke="#63b8ff" d="M367.94,-111.9C364.75,-111.26 361.56,-110.61 358.5,-110 278.08,-93.87 257.92,-90.13 177.5,-74 177.4,-73.98 177.3,-73.96 177.2,-73.94"/>
<polygon fill="#63b8ff" stroke="#63b8ff" points="178.1,-70.55 167.6,-72.01 176.71,-77.41 178.1,-70.55"/>
</g>
<!-- Node7 -->
<g id="node7" class="node">
<title>Node7</title>
<g id="a_node7"><a xlink:title=" ">
<polygon fill="#e0e0e0" stroke="#999999" points="235,-74 186,-74 186,-55 235,-55 235,-74"/>
<text text-anchor="middle" x="210.5" y="-62" font-family="Helvetica,sans-Serif" font-size="10.00">cctype</text>
</a>
</g>
</g>
<!-- Node4&#45;&gt;Node7 -->
<g id="edge6" class="edge">
<title>Node4&#45;&gt;Node7</title>
<path fill="none" stroke="#63b8ff" d="M369.97,-109.98C335.89,-100.48 280.84,-85.12 245.16,-75.17"/>
<polygon fill="#63b8ff" stroke="#63b8ff" points="245.77,-71.71 235.2,-72.39 243.89,-78.45 245.77,-71.71"/>
</g>
<!-- Node8 -->
<g id="node8" class="node">
<title>Node8</title>
<g id="a_node8"><a xlink:title=" ">
<polygon fill="#e0e0e0" stroke="#999999" points="480.5,-74 430.5,-74 430.5,-55 480.5,-55 480.5,-74"/>
<text text-anchor="middle" x="455.5" y="-62" font-family="Helvetica,sans-Serif" font-size="10.00">cstring</text>
</a>
</g>
</g>
<!-- Node4&#45;&gt;Node8 -->
<g id="edge7" class="edge">
<title>Node4&#45;&gt;Node8</title>
<path fill="none" stroke="#63b8ff" d="M409.58,-109.75C417.59,-102.03 429.46,-90.6 439.12,-81.28"/>
<polygon fill="#63b8ff" stroke="#63b8ff" points="441.81,-83.55 446.59,-74.09 436.96,-78.51 441.81,-83.55"/>
</g>
<!-- Node9 -->
<g id="node9" class="node">
<title>Node9</title>
<g id="a_node9"><a xlink:title=" ">
<polygon fill="#e0e0e0" stroke="#999999" points="544.5,-74 498.5,-74 498.5,-55 544.5,-55 544.5,-74"/>
<text text-anchor="middle" x="521.5" y="-62" font-family="Helvetica,sans-Serif" font-size="10.00">cstdio</text>
</a>
</g>
</g>
<!-- Node4&#45;&gt;Node9 -->
<g id="edge8" class="edge">
<title>Node4&#45;&gt;Node9</title>
<path fill="none" stroke="#63b8ff" d="M419.94,-109.98C439.49,-101.42 469.88,-88.11 492.32,-78.28"/>
<polygon fill="#63b8ff" stroke="#63b8ff" points="493.95,-81.39 501.71,-74.17 491.14,-74.98 493.95,-81.39"/>
</g>
<!-- Node10 -->
<g id="node10" class="node">
<title>Node10</title>
<g id="a_node10"><a xlink:title=" ">
<polygon fill="#e0e0e0" stroke="#999999" points="650,-74 601,-74 601,-55 650,-55 650,-74"/>
<text text-anchor="middle" x="625.5" y="-62" font-family="Helvetica,sans-Serif" font-size="10.00">cstdlib</text>
</a>
</g>
</g>
<!-- Node4&#45;&gt;Node10 -->
<g id="edge9" class="edge">
<title>Node4&#45;&gt;Node10</title>
<path fill="none" stroke="#63b8ff" d="M433.22,-110.79C475.22,-100.9 547.78,-83.81 590.74,-73.69"/>
<polygon fill="#63b8ff" stroke="#63b8ff" points="591.8,-77.03 600.73,-71.33 590.19,-70.22 591.8,-77.03"/>
</g>
<!-- Node11 -->
<g id="node11" class="node">
<title>Node11</title>
<g id="a_node11"><a xlink:title=" ">
<polygon fill="#e0e0e0" stroke="#999999" points="505.5,-19 455.5,-19 455.5,0 505.5,0 505.5,-19"/>
<text text-anchor="middle" x="480.5" y="-7" font-family="Helvetica,sans-Serif" font-size="10.00">cstdint</text>
</a>
</g>
</g>
<!-- Node4&#45;&gt;Node11 -->
<g id="edge10" class="edge">
<title>Node4&#45;&gt;Node11</title>
<path fill="none" stroke="#63b8ff" d="M433.09,-113.65C473.56,-106.89 539.05,-93.25 553.5,-74 568.95,-53.42 539.77,-34.73 513.84,-23.04"/>
<polygon fill="#63b8ff" stroke="#63b8ff" points="515.09,-19.77 504.52,-19.06 512.34,-26.21 515.09,-19.77"/>
</g>
<!-- Node12 -->
<g id="node12" class="node">
<title>Node12</title>
<g id="a_node12"><a xlink:title=" ">
<polygon fill="#e0e0e0" stroke="#999999" points="349,-74 292,-74 292,-55 349,-55 349,-74"/>
<text text-anchor="middle" x="320.5" y="-62" font-family="Helvetica,sans-Serif" font-size="10.00">ostream</text>
</a>
</g>
</g>
<!-- Node4&#45;&gt;Node12 -->
<g id="edge11" class="edge">
<title>Node4&#45;&gt;Node12</title>
<path fill="none" stroke="#63b8ff" d="M387.65,-109.98C375.36,-101.84 356.59,-89.41 342.02,-79.76"/>
<polygon fill="#63b8ff" stroke="#63b8ff" points="343.86,-76.78 333.59,-74.17 339.99,-82.61 343.86,-76.78"/>
</g>
<!-- Node13 -->
<g id="node13" class="node">
<title>Node13</title>
<g id="a_node13"><a xlink:href="../../db/d7c/utf8_8h.html" target="_top" xlink:title="Various UTF8 related helper functions.">
<polygon fill="white" stroke="#666666" points="412,-74 367,-74 367,-55 412,-55 412,-74"/>
<text text-anchor="middle" x="389.5" y="-62" font-family="Helvetica,sans-Serif" font-size="10.00">utf8.h</text>
</a>
</g>
</g>
<!-- Node4&#45;&gt;Node13 -->
<g id="edge12" class="edge">
<title>Node4&#45;&gt;Node13</title>
<path fill="none" stroke="#63b8ff" d="M398.68,-109.75C397.24,-102.8 395.18,-92.85 393.37,-84.13"/>
<polygon fill="#63b8ff" stroke="#63b8ff" points="396.74,-83.17 391.28,-74.09 389.89,-84.59 396.74,-83.17"/>
</g>
<!-- Node13&#45;&gt;Node5 -->
<g id="edge14" class="edge">
<title>Node13&#45;&gt;Node5</title>
<path fill="none" stroke="#63b8ff" d="M369.26,-54.98C348.8,-46.38 316.97,-32.99 293.57,-23.15"/>
<polygon fill="#63b8ff" stroke="#63b8ff" points="294.69,-19.82 284.11,-19.17 291.97,-26.27 294.69,-19.82"/>
</g>
<!-- Node13&#45;&gt;Node11 -->
<g id="edge13" class="edge">
<title>Node13&#45;&gt;Node11</title>
<path fill="none" stroke="#63b8ff" d="M404.12,-54.98C418.36,-46.69 440.25,-33.94 456.95,-24.22"/>
<polygon fill="#63b8ff" stroke="#63b8ff" points="458.73,-27.23 465.61,-19.17 455.21,-21.18 458.73,-27.23"/>
</g>
<!-- Node14&#45;&gt;Node2 -->
<g id="edge17" class="edge">
<title>Node14&#45;&gt;Node2</title>
<path fill="none" stroke="#63b8ff" d="M137.65,-164.98C115.38,-156.3 80.6,-142.75 55.28,-132.88"/>
<polygon fill="#63b8ff" stroke="#63b8ff" points="56.34,-129.54 45.75,-129.17 53.79,-136.06 56.34,-129.54"/>
</g>
<!-- Node14&#45;&gt;Node4 -->
<g id="edge22" class="edge">
<title>Node14&#45;&gt;Node4</title>
<path fill="none" stroke="#63b8ff" d="M198.22,-164.98C241.89,-155.38 312.68,-139.81 357.89,-129.87"/>
<polygon fill="#63b8ff" stroke="#63b8ff" points="358.67,-133.28 367.68,-127.72 357.16,-126.45 358.67,-133.28"/>
</g>
<!-- Node14&#45;&gt;Node5 -->
<g id="edge19" class="edge">
<title>Node14&#45;&gt;Node5</title>
<path fill="none" stroke="#63b8ff" d="M148.18,-164.92C122.76,-144.62 65.56,-92.54 94.5,-55 111.09,-33.48 187.22,-20.29 231.43,-14.3"/>
<polygon fill="#63b8ff" stroke="#63b8ff" points="231.94,-17.77 241.4,-13 231.03,-10.83 231.94,-17.77"/>
</g>
<!-- Node14&#45;&gt;Node6 -->
<g id="edge20" class="edge">
<title>Node14&#45;&gt;Node6</title>
<path fill="none" stroke="#63b8ff" d="M153.75,-164.74C148.41,-156.06 140.81,-142.21 137.5,-129 133.85,-114.42 133.52,-97.37 134.01,-84.61"/>
<polygon fill="#63b8ff" stroke="#63b8ff" points="137.52,-84.48 134.62,-74.29 130.53,-84.07 137.52,-84.48"/>
</g>
<!-- Node14&#45;&gt;Node7 -->
<g id="edge21" class="edge">
<title>Node14&#45;&gt;Node7</title>
<path fill="none" stroke="#63b8ff" d="M159.71,-164.83C160.32,-152.17 162.66,-128.16 171.5,-110 176.7,-99.33 185.14,-89.23 192.85,-81.36"/>
<polygon fill="#63b8ff" stroke="#63b8ff" points="195.4,-83.76 200.16,-74.29 190.54,-78.72 195.4,-83.76"/>
</g>
<!-- Node15 -->
<g id="node15" class="node">
<title>Node15</title>
<g id="a_node15"><a xlink:title=" ">
<polygon fill="#e0e0e0" stroke="#999999" points="273,-129 180,-129 180,-110 273,-110 273,-129"/>
<text text-anchor="middle" x="226.5" y="-117" font-family="Helvetica,sans-Serif" font-size="10.00">unordered_map</text>
</a>
</g>
</g>
<!-- Node14&#45;&gt;Node15 -->
<g id="edge16" class="edge">
<title>Node14&#45;&gt;Node15</title>
<path fill="none" stroke="#63b8ff" d="M170.26,-164.98C180.27,-157.07 195.39,-145.11 207.43,-135.58"/>
<polygon fill="#63b8ff" stroke="#63b8ff" points="209.87,-138.12 215.54,-129.17 205.53,-132.63 209.87,-138.12"/>
</g>
<!-- Node16 -->
<g id="node16" class="node">
<title>Node16</title>
<g id="a_node16"><a xlink:title=" ">
<polygon fill="#e0e0e0" stroke="#999999" points="349.5,-129 291.5,-129 291.5,-110 349.5,-110 349.5,-129"/>
<text text-anchor="middle" x="320.5" y="-117" font-family="Helvetica,sans-Serif" font-size="10.00">memory</text>
</a>
</g>
</g>
<!-- Node14&#45;&gt;Node16 -->
<g id="edge18" class="edge">
<title>Node14&#45;&gt;Node16</title>
<path fill="none" stroke="#63b8ff" d="M185.37,-164.98C212.28,-156.13 254.62,-142.19 284.73,-132.28"/>
<polygon fill="#63b8ff" stroke="#63b8ff" points="286.03,-135.53 294.43,-129.08 283.84,-128.88 286.03,-135.53"/>
</g>
<!-- Node17&#45;&gt;Node2 -->
<g id="edge24" class="edge">
<title>Node17&#45;&gt;Node2</title>
<path fill="none" stroke="#63b8ff" d="M208.92,-274.86C180.96,-258.96 121.11,-223.07 77.5,-184 61.74,-169.88 46.36,-151.17 36.07,-137.72"/>
<polygon fill="#63b8ff" stroke="#63b8ff" points="38.62,-135.28 29.82,-129.37 33.01,-139.47 38.62,-135.28"/>
</g>
<!-- Node18 -->
<g id="node18" class="node">
<title>Node18</title>
<g id="a_node18"><a xlink:href="../../d9/d49/types_8h.html" target="_top" xlink:title="This file contains a number of basic enums and types.">
<polygon fill="white" stroke="#666666" points="384,-184 331,-184 331,-165 384,-165 384,-184"/>
<text text-anchor="middle" x="357.5" y="-172" font-family="Helvetica,sans-Serif" font-size="10.00">types.h</text>
</a>
</g>
</g>
<!-- Node17&#45;&gt;Node18 -->
<g id="edge25" class="edge">
<title>Node17&#45;&gt;Node18</title>
<path fill="none" stroke="#63b8ff" d="M235.38,-274.66C258.1,-256.22 310.77,-213.45 338.94,-190.57"/>
<polygon fill="#63b8ff" stroke="#63b8ff" points="341.28,-193.18 346.84,-184.16 336.87,-187.75 341.28,-193.18"/>
</g>
<!-- Node19 -->
<g id="node19" class="node">
<title>Node19</title>
<g id="a_node19"><a xlink:href="../../d1/d02/reflist_8h.html" target="_top" xlink:title=" ">
<polygon fill="white" stroke="#666666" points="252,-239 199,-239 199,-220 252,-220 252,-239"/>
<text text-anchor="middle" x="225.5" y="-227" font-family="Helvetica,sans-Serif" font-size="10.00">reflist.h</text>
</a>
</g>
</g>
<!-- Node17&#45;&gt;Node19 -->
<g id="edge27" class="edge">
<title>Node17&#45;&gt;Node19</title>
<path fill="none" stroke="#63b8ff" d="M224.67,-274.75C224.8,-267.8 224.98,-257.85 225.15,-249.13"/>
<polygon fill="#63b8ff" stroke="#63b8ff" points="228.65,-249.15 225.34,-239.09 221.65,-249.02 228.65,-249.15"/>
</g>
<!-- Node18&#45;&gt;Node4 -->
<g id="edge26" class="edge">
<title>Node18&#45;&gt;Node4</title>
<path fill="none" stroke="#63b8ff" d="M364.6,-164.75C370.67,-157.26 379.59,-146.28 387.01,-137.13"/>
<polygon fill="#63b8ff" stroke="#63b8ff" points="389.95,-139.06 393.53,-129.09 384.51,-134.65 389.95,-139.06"/>
</g>
<!-- Node19&#45;&gt;Node2 -->
<g id="edge28" class="edge">
<title>Node19&#45;&gt;Node2</title>
<path fill="none" stroke="#63b8ff" d="M198.85,-220.23C175.19,-212.4 140.05,-199.54 111.5,-184 85.72,-169.96 58.71,-149.48 41.53,-135.61"/>
<polygon fill="#63b8ff" stroke="#63b8ff" points="43.45,-132.66 33.5,-129.02 39.01,-138.07 43.45,-132.66"/>
</g>
<!-- Node19&#45;&gt;Node4 -->
<g id="edge31" class="edge">
<title>Node19&#45;&gt;Node4</title>
<path fill="none" stroke="#63b8ff" d="M238.21,-219.82C256.59,-207.36 291.77,-183.8 322.5,-165 340.12,-154.22 360.4,-142.68 375.86,-134.05"/>
<polygon fill="#63b8ff" stroke="#63b8ff" points="377.75,-137 384.8,-129.09 374.36,-130.88 377.75,-137"/>
</g>
<!-- Node19&#45;&gt;Node14 -->
<g id="edge32" class="edge">
<title>Node19&#45;&gt;Node14</title>
<path fill="none" stroke="#63b8ff" d="M214.9,-219.98C205.04,-212.07 190.15,-200.11 178.28,-190.58"/>
<polygon fill="#63b8ff" stroke="#63b8ff" points="180.29,-187.7 170.3,-184.17 175.9,-193.16 180.29,-187.7"/>
</g>
<!-- Node19&#45;&gt;Node15 -->
<g id="edge29" class="edge">
<title>Node19&#45;&gt;Node15</title>
<path fill="none" stroke="#63b8ff" d="M225.58,-219.66C225.74,-202.17 226.11,-162.8 226.33,-139.27"/>
<polygon fill="#63b8ff" stroke="#63b8ff" points="229.83,-139.19 226.42,-129.16 222.83,-139.13 229.83,-139.19"/>
</g>
<!-- Node19&#45;&gt;Node16 -->
<g id="edge30" class="edge">
<title>Node19&#45;&gt;Node16</title>
<path fill="none" stroke="#63b8ff" d="M233.27,-219.66C249.22,-201.54 285.83,-159.91 306.19,-136.77"/>
<polygon fill="#63b8ff" stroke="#63b8ff" points="308.91,-138.98 312.88,-129.16 303.65,-134.36 308.91,-138.98"/>
</g>
</g>
</svg>
