<?xml version="1.0" encoding="UTF-8" standalone="no"?>
<!DOCTYPE svg PUBLIC "-//W3C//DTD SVG 1.1//EN"
 "http://www.w3.org/Graphics/SVG/1.1/DTD/svg11.dtd">
<!-- Generated by graphviz version 2.43.0 (0)
 -->
<!-- Title: ConceptDefAliasImpl Pages: 1 -->
<svg width="572pt" height="328pt"
 viewBox="0.00 0.00 571.50 328.00" xmlns="http://www.w3.org/2000/svg" xmlns:xlink="http://www.w3.org/1999/xlink">
<g id="graph0" class="graph" transform="scale(1 1) rotate(0) translate(4 324)">
<title>ConceptDefAliasImpl</title>
<!-- Node1 -->
<g id="node1" class="node">
<title>Node1</title>
<g id="a_node1"><a xlink:title=" ">
<polygon fill="#999999" stroke="#666666" points="221.5,-19 102.5,-19 102.5,0 221.5,0 221.5,-19"/>
<text text-anchor="middle" x="162" y="-7" font-family="Helvetica,sans-Serif" font-size="10.00">ConceptDefAliasImpl</text>
</a>
</g>
</g>
<!-- Node2 -->
<g id="node2" class="node">
<title>Node2</title>
<g id="a_node2"><a xlink:href="../../d8/d83/class_definition_alias_mixin.html" target="_top" xlink:title=" ">
<polygon fill="white" stroke="#666666" points="219.5,-86 104.5,-86 104.5,-56 219.5,-56 219.5,-86"/>
<text text-anchor="start" x="112.5" y="-74" font-family="Helvetica,sans-Serif" font-size="10.00">DefinitionAliasMixin</text>
<text text-anchor="middle" x="162" y="-63" font-family="Helvetica,sans-Serif" font-size="10.00">&lt; ConceptDef &gt;</text>
</a>
</g>
</g>
<!-- Node2&#45;&gt;Node1 -->
<g id="edge1" class="edge">
<title>Node2&#45;&gt;Node1</title>
<path fill="none" stroke="#63b8ff" d="M162,-45.79C162,-36.36 162,-26.15 162,-19.16"/>
<polygon fill="#63b8ff" stroke="#63b8ff" points="158.5,-45.9 162,-55.9 165.5,-45.9 158.5,-45.9"/>
</g>
<!-- Node3 -->
<g id="node3" class="node">
<title>Node3</title>
<g id="a_node3"><a xlink:href="../../d6/d8d/class_concept_def.html" target="_top" xlink:title=" ">
<polygon fill="white" stroke="#666666" points="74,-201.5 0,-201.5 0,-182.5 74,-182.5 74,-201.5"/>
<text text-anchor="middle" x="37" y="-189.5" font-family="Helvetica,sans-Serif" font-size="10.00">ConceptDef</text>
</a>
</g>
</g>
<!-- Node3&#45;&gt;Node2 -->
<g id="edge2" class="edge">
<title>Node3&#45;&gt;Node2</title>
<path fill="none" stroke="#63b8ff" d="M42.52,-172.56C49.21,-153.12 62.24,-122.76 83,-104 91.35,-96.46 101.7,-90.58 112.13,-86.03"/>
<polygon fill="#63b8ff" stroke="#63b8ff" points="39.11,-171.75 39.38,-182.34 45.77,-173.89 39.11,-171.75"/>
</g>
<!-- Node4 -->
<g id="node4" class="node">
<title>Node4</title>
<g id="a_node4"><a xlink:href="../../d5/dcc/class_definition.html" target="_top" xlink:title="The common base class of all entity definitions found in the sources.">
<polygon fill="white" stroke="#666666" points="146,-320 82,-320 82,-301 146,-301 146,-320"/>
<text text-anchor="middle" x="114" y="-308" font-family="Helvetica,sans-Serif" font-size="10.00">Definition</text>
</a>
</g>
</g>
<!-- Node4&#45;&gt;Node2 -->
<g id="edge7" class="edge">
<title>Node4&#45;&gt;Node2</title>
<path fill="none" stroke="#9a32cd" stroke-dasharray="5,2" d="M114.09,-290.73C114.31,-281.71 114.83,-270.77 116,-261 124,-194.27 147.36,-117.08 157.36,-86.01"/>
<polygon fill="#9a32cd" stroke="#9a32cd" points="110.59,-290.83 113.95,-300.88 117.59,-290.93 110.59,-290.83"/>
<text text-anchor="middle" x="153" y="-195" font-family="Helvetica,sans-Serif" font-size="10.00" fill="grey"> m_alias</text>
<text text-anchor="middle" x="153" y="-184" font-family="Helvetica,sans-Serif" font-size="10.00" fill="grey">m_scope</text>
</g>
<!-- Node4&#45;&gt;Node3 -->
<g id="edge3" class="edge">
<title>Node4&#45;&gt;Node3</title>
<path fill="none" stroke="#63b8ff" d="M93.94,-294.38C90.04,-290.9 86.18,-287.03 83,-283 61.91,-256.27 46.37,-218.37 40.08,-201.58"/>
<polygon fill="#63b8ff" stroke="#63b8ff" points="91.88,-297.21 101.81,-300.89 96.34,-291.82 91.88,-297.21"/>
</g>
<!-- Node5 -->
<g id="node5" class="node">
<title>Node5</title>
<g id="a_node5"><a xlink:href="../../d0/d58/class_definition_alias_impl.html" target="_top" xlink:title=" ">
<polygon fill="white" stroke="#666666" points="246,-241.5 136,-241.5 136,-222.5 246,-222.5 246,-241.5"/>
<text text-anchor="middle" x="191" y="-229.5" font-family="Helvetica,sans-Serif" font-size="10.00">DefinitionAliasImpl</text>
</a>
</g>
</g>
<!-- Node4&#45;&gt;Node5 -->
<g id="edge5" class="edge">
<title>Node4&#45;&gt;Node5</title>
<path fill="none" stroke="#9a32cd" stroke-dasharray="5,2" d="M116.92,-290.89C119.29,-281.02 123.52,-269.27 131,-261 139.02,-252.14 150.43,-245.85 161.15,-241.52"/>
<polygon fill="#9a32cd" stroke="#9a32cd" points="113.44,-290.45 114.96,-300.94 120.31,-291.79 113.44,-290.45"/>
<text text-anchor="middle" x="153" y="-275" font-family="Helvetica,sans-Serif" font-size="10.00" fill="grey"> m_def</text>
<text text-anchor="middle" x="153" y="-264" font-family="Helvetica,sans-Serif" font-size="10.00" fill="grey">m_scope</text>
</g>
<!-- Node7 -->
<g id="node7" class="node">
<title>Node7</title>
<g id="a_node7"><a xlink:href="../../d8/d83/class_definition_alias_mixin.html" target="_top" xlink:title=" ">
<polygon fill="white" stroke="#666666" points="414.5,-163 299.5,-163 299.5,-133 414.5,-133 414.5,-163"/>
<text text-anchor="start" x="307.5" y="-151" font-family="Helvetica,sans-Serif" font-size="10.00">DefinitionAliasMixin</text>
<text text-anchor="middle" x="357" y="-140" font-family="Helvetica,sans-Serif" font-size="10.00">&lt; Base &gt;</text>
</a>
</g>
</g>
<!-- Node4&#45;&gt;Node7 -->
<g id="edge12" class="edge">
<title>Node4&#45;&gt;Node7</title>
<path fill="none" stroke="#9a32cd" stroke-dasharray="5,2" d="M156.4,-306.9C200.7,-303.51 266.67,-296.37 288,-283 331.46,-255.76 348.82,-191.69 354.57,-163.14"/>
<polygon fill="#9a32cd" stroke="#9a32cd" points="155.92,-303.42 146.2,-307.64 156.43,-310.4 155.92,-303.42"/>
<text text-anchor="middle" x="358" y="-235" font-family="Helvetica,sans-Serif" font-size="10.00" fill="grey"> m_alias</text>
<text text-anchor="middle" x="358" y="-224" font-family="Helvetica,sans-Serif" font-size="10.00" fill="grey">m_scope</text>
</g>
<!-- Node5&#45;&gt;Node2 -->
<g id="edge4" class="edge">
<title>Node5&#45;&gt;Node2</title>
<path fill="none" stroke="#9a32cd" stroke-dasharray="5,2" d="M186.12,-212.35C185.37,-209.24 184.63,-206.04 184,-203 175.19,-160.78 167.51,-110.34 164.01,-86.22"/>
<polygon fill="#9a32cd" stroke="#9a32cd" points="182.77,-213.38 188.61,-222.21 189.56,-211.66 182.77,-213.38"/>
<text text-anchor="middle" x="197" y="-145.5" font-family="Helvetica,sans-Serif" font-size="10.00" fill="grey"> m_impl</text>
</g>
<!-- Node5&#45;&gt;Node7 -->
<g id="edge11" class="edge">
<title>Node5&#45;&gt;Node7</title>
<path fill="none" stroke="#9a32cd" stroke-dasharray="5,2" d="M187.87,-212.15C187.25,-201.72 188.51,-189.25 196,-181 209.79,-165.81 259.01,-157.58 299.43,-153.29"/>
<polygon fill="#9a32cd" stroke="#9a32cd" points="184.42,-212.83 189.07,-222.36 191.38,-212.01 184.42,-212.83"/>
<text text-anchor="middle" x="216" y="-189.5" font-family="Helvetica,sans-Serif" font-size="10.00" fill="grey"> m_impl</text>
</g>
<!-- Node6 -->
<g id="node6" class="node">
<title>Node6</title>
<g id="a_node6"><a xlink:href="../../d9/d45/class_q_c_string.html" target="_top" xlink:title="This is an alternative implementation of QCString.">
<polygon fill="white" stroke="#666666" points="403.5,-320 344.5,-320 344.5,-301 403.5,-301 403.5,-320"/>
<text text-anchor="middle" x="374" y="-308" font-family="Helvetica,sans-Serif" font-size="10.00">QCString</text>
</a>
</g>
</g>
<!-- Node6&#45;&gt;Node2 -->
<g id="edge8" class="edge">
<title>Node6&#45;&gt;Node2</title>
<path fill="none" stroke="#9a32cd" stroke-dasharray="5,2" d="M376.54,-290.93C378.16,-271.06 377.32,-239.86 360,-221 337.39,-196.39 315.86,-219.84 287,-203 250.07,-181.45 250.53,-163.92 221,-133 205.53,-116.8 187.63,-98.34 175.64,-86"/>
<polygon fill="#9a32cd" stroke="#9a32cd" points="373.06,-290.57 375.45,-300.89 380.02,-291.34 373.06,-290.57"/>
<text text-anchor="middle" x="329" y="-189.5" font-family="Helvetica,sans-Serif" font-size="10.00" fill="grey"> m_symbolName</text>
</g>
<!-- Node6&#45;&gt;Node5 -->
<g id="edge6" class="edge">
<title>Node6&#45;&gt;Node5</title>
<path fill="none" stroke="#9a32cd" stroke-dasharray="5,2" d="M334.13,-302.42C314.35,-298.14 290.4,-291.79 270,-283 244.06,-271.82 216.89,-252.74 202.14,-241.66"/>
<polygon fill="#9a32cd" stroke="#9a32cd" points="333.55,-305.87 344.05,-304.47 334.96,-299.02 333.55,-305.87"/>
<text text-anchor="middle" x="315" y="-275" font-family="Helvetica,sans-Serif" font-size="10.00" fill="grey"> m_qualifiedName</text>
<text text-anchor="middle" x="315" y="-264" font-family="Helvetica,sans-Serif" font-size="10.00" fill="grey">m_symbolName</text>
</g>
<!-- Node6&#45;&gt;Node7 -->
<g id="edge13" class="edge">
<title>Node6&#45;&gt;Node7</title>
<path fill="none" stroke="#9a32cd" stroke-dasharray="5,2" d="M384.86,-291.74C386.15,-288.9 387.27,-285.94 388,-283 394.63,-256.25 393.5,-248 388,-221 383.68,-199.8 372.77,-177.16 365.12,-163.04"/>
<polygon fill="#9a32cd" stroke="#9a32cd" points="381.73,-290.16 380.09,-300.62 387.9,-293.47 381.73,-290.16"/>
<text text-anchor="middle" x="434" y="-229.5" font-family="Helvetica,sans-Serif" font-size="10.00" fill="grey"> m_symbolName</text>
</g>
<!-- Node7&#45;&gt;Node2 -->
<g id="edge9" class="edge">
<title>Node7&#45;&gt;Node2</title>
<path fill="none" stroke="orange" stroke-dasharray="5,2" d="M323.18,-128.08C307.86,-119.98 289.33,-110.83 272,-104 254.7,-97.18 235.36,-91.07 217.79,-86.06"/>
<polygon fill="orange" stroke="orange" points="321.8,-131.31 332.27,-132.95 325.11,-125.14 321.8,-131.31"/>
<text text-anchor="middle" x="337.5" y="-107" font-family="Helvetica,sans-Serif" font-size="10.00" fill="grey"> &lt; ConceptDef &gt;</text>
</g>
<!-- Node8 -->
<g id="node8" class="node">
<title>Node8</title>
<g id="a_node8"><a xlink:title=" ">
<polygon fill="white" stroke="#666666" points="563.5,-241.5 522.5,-241.5 522.5,-222.5 563.5,-222.5 563.5,-241.5"/>
<text text-anchor="middle" x="543" y="-229.5" font-family="Helvetica,sans-Serif" font-size="10.00">Base</text>
</a>
</g>
</g>
<!-- Node8&#45;&gt;Node7 -->
<g id="edge10" class="edge">
<title>Node8&#45;&gt;Node7</title>
<path fill="none" stroke="#63b8ff" d="M515.89,-218.24C493.91,-207.96 462.09,-193.27 434,-181 420.2,-174.97 404.91,-168.56 391.61,-163.07"/>
<polygon fill="#63b8ff" stroke="#63b8ff" points="514.42,-221.41 524.96,-222.48 517.39,-215.07 514.42,-221.41"/>
</g>
</g>
</svg>
