<?xml version="1.0" encoding="UTF-8" standalone="no"?>
<!DOCTYPE svg PUBLIC "-//W3C//DTD SVG 1.1//EN"
 "http://www.w3.org/Graphics/SVG/1.1/DTD/svg11.dtd">
<!-- Generated by graphviz version 2.43.0 (0)
 -->
<!-- Title: LexCodeParser::Private Pages: 1 -->
<!--zoomable 284 -->
<svg id="main" version="1.1" xmlns="http://www.w3.org/2000/svg" xmlns:xlink="http://www.w3.org/1999/xlink" xml:space="preserve" onload="init(evt)">
<style type="text/css"><![CDATA[
.edge:hover path { stroke: red; }
.edge:hover polygon { stroke: red; fill: red; }
]]></style>
<script type="text/javascript"><![CDATA[
var edges = document.getElementsByTagName('g');
if (edges && edges.length) {
  for (var i=0;i<edges.length;i++) {
    if (edges[i].id.substr(0,4)=='edge') {
      edges[i].setAttribute('class','edge');
    }
  }
}
]]></script>
        <defs>
                <circle id="rim" cx="0" cy="0" r="7"/>
                <circle id="rim2" cx="0" cy="0" r="3.5"/>
                <g id="zoomPlus">
                        <use xlink:href="#rim" fill="#404040">
                                <set attributeName="fill" to="#808080" begin="zoomplus.mouseover" end="zoomplus.mouseout"/>
                        </use>
                        <path d="M-4,0h8M0,-4v8" fill="none" stroke="white" stroke-width="1.5" pointer-events="none"/>
                </g>
                <g id="zoomMin">
                        <use xlink:href="#rim" fill="#404040">
                                <set attributeName="fill" to="#808080" begin="zoomminus.mouseover" end="zoomminus.mouseout"/>
                        </use>
                        <path d="M-4,0h8" fill="none" stroke="white" stroke-width="1.5" pointer-events="none"/>
                </g>
                <g id="dirArrow">
                        <path fill="none" stroke="white" stroke-width="1.5" d="M0,-3.0v7 M-2.5,-0.5L0,-3.0L2.5,-0.5"/>
                </g>
               <g id="resetDef">
                       <use xlink:href="#rim2" fill="#404040">
                               <set attributeName="fill" to="#808080" begin="reset.mouseover" end="reset.mouseout"/>
                       </use>
               </g>
        </defs>

<script type="text/javascript">
var viewWidth = 672;
var viewHeight = 284;
var sectionId = 'dynsection-0';
</script>
<script xlink:href="../../svgpan.js"/>
<svg id="graph" class="graph">
<g id="viewport">
<title>LexCodeParser::Private</title>
<!-- Node1 -->
<g id="node1" class="node">
<title>Node1</title>
<g id="a_node1"><a xlink:title=" ">
<polygon fill="#999999" stroke="#666666" points="380.5,-19 251.5,-19 251.5,0 380.5,0 380.5,-19"/>
<text text-anchor="middle" x="316" y="-7" font-family="Helvetica,sans-Serif" font-size="10.00">LexCodeParser::Private</text>
</a>
</g>
</g>
<!-- Node2 -->
<g id="node2" class="node">
<title>Node2</title>
<g id="a_node2"><a xlink:href="../../d1/d06/structlexcode_y_y__state.html" target="_top" xlink:title=" ">
<polygon fill="white" stroke="#666666" points="364.5,-85 267.5,-85 267.5,-66 364.5,-66 364.5,-85"/>
<text text-anchor="middle" x="316" y="-73" font-family="Helvetica,sans-Serif" font-size="10.00">lexcodeYY_state</text>
</a>
</g>
</g>
<!-- Node2&#45;&gt;Node1 -->
<g id="edge1" class="edge">
<title>Node2&#45;&gt;Node1</title>
<path fill="none" stroke="#9a32cd" stroke-dasharray="5,2" d="M316,-55.58C316,-43.63 316,-28.72 316,-19.41"/>
<polygon fill="#9a32cd" stroke="#9a32cd" points="312.5,-55.87 316,-65.87 319.5,-55.87 312.5,-55.87"/>
<text text-anchor="middle" x="330" y="-40" font-family="Helvetica,sans-Serif" font-size="10.00" fill="grey"> state</text>
</g>
<!-- Node3 -->
<g id="node3" class="node">
<title>Node3</title>
<g id="a_node3"><a xlink:href="../../d5/d9c/class_code_output_interface.html" target="_top" xlink:title="Output interface for code parser.">
<polygon fill="white" stroke="#666666" points="118,-218.5 0,-218.5 0,-199.5 118,-199.5 118,-218.5"/>
<text text-anchor="middle" x="59" y="-206.5" font-family="Helvetica,sans-Serif" font-size="10.00">CodeOutputInterface</text>
</a>
</g>
</g>
<!-- Node3&#45;&gt;Node2 -->
<g id="edge2" class="edge">
<title>Node3&#45;&gt;Node2</title>
<path fill="none" stroke="#9a32cd" stroke-dasharray="5,2" d="M66.89,-190.33C78.65,-166.24 103.18,-123.72 138,-103 159.28,-90.34 222.44,-83.2 267.47,-79.59"/>
<polygon fill="#9a32cd" stroke="#9a32cd" points="63.71,-188.87 62.64,-199.41 70.05,-191.83 63.71,-188.87"/>
<text text-anchor="middle" x="151.5" y="-139" font-family="Helvetica,sans-Serif" font-size="10.00" fill="grey"> code</text>
</g>
<!-- Node4 -->
<g id="node4" class="node">
<title>Node4</title>
<g id="a_node4"><a xlink:href="../../d0/d53/class_c_code_parser.html" target="_top" xlink:title=" ">
<polygon fill="white" stroke="#666666" points="214,-218.5 136,-218.5 136,-199.5 214,-199.5 214,-218.5"/>
<text text-anchor="middle" x="175" y="-206.5" font-family="Helvetica,sans-Serif" font-size="10.00">CCodeParser</text>
</a>
</g>
</g>
<!-- Node4&#45;&gt;Node2 -->
<g id="edge3" class="edge">
<title>Node4&#45;&gt;Node2</title>
<path fill="none" stroke="#9a32cd" stroke-dasharray="5,2" d="M170.98,-189.34C167.15,-166.05 164.72,-126.44 186,-103 196.91,-90.98 235.24,-84.16 267.48,-80.46"/>
<polygon fill="#9a32cd" stroke="#9a32cd" points="167.57,-190.15 172.88,-199.32 174.45,-188.84 167.57,-190.15"/>
<text text-anchor="middle" x="217" y="-139" font-family="Helvetica,sans-Serif" font-size="10.00" fill="grey"> ccodeParser</text>
</g>
<!-- Node5 -->
<g id="node5" class="node">
<title>Node5</title>
<g id="a_node5"><a xlink:href="../../d4/d65/class_code_parser_interface.html" target="_top" xlink:title="Abstract interface for code parsers.">
<polygon fill="white" stroke="#666666" points="232.5,-276 117.5,-276 117.5,-257 232.5,-257 232.5,-276"/>
<text text-anchor="middle" x="175" y="-264" font-family="Helvetica,sans-Serif" font-size="10.00">CodeParserInterface</text>
</a>
</g>
</g>
<!-- Node5&#45;&gt;Node4 -->
<g id="edge4" class="edge">
<title>Node5&#45;&gt;Node4</title>
<path fill="none" stroke="#63b8ff" d="M175,-246.75C175,-237.3 175,-226.28 175,-218.79"/>
<polygon fill="#63b8ff" stroke="#63b8ff" points="171.5,-246.83 175,-256.83 178.5,-246.83 171.5,-246.83"/>
</g>
<!-- Node6 -->
<g id="node6" class="node">
<title>Node6</title>
<g id="a_node6"><a xlink:href="../../d9/d45/class_q_c_string.html" target="_top" xlink:title="This is an alternative implementation of QCString.">
<polygon fill="white" stroke="#666666" points="291.5,-218.5 232.5,-218.5 232.5,-199.5 291.5,-199.5 291.5,-218.5"/>
<text text-anchor="middle" x="262" y="-206.5" font-family="Helvetica,sans-Serif" font-size="10.00">QCString</text>
</a>
</g>
</g>
<!-- Node6&#45;&gt;Node2 -->
<g id="edge5" class="edge">
<title>Node6&#45;&gt;Node2</title>
<path fill="none" stroke="#9a32cd" stroke-dasharray="5,2" d="M256.47,-189.41C251,-167.08 245.59,-129.34 262,-103 267.14,-94.76 275.67,-89.01 284.45,-85.02"/>
<polygon fill="#9a32cd" stroke="#9a32cd" points="253.15,-190.54 259.15,-199.28 259.91,-188.71 253.15,-190.54"/>
<text text-anchor="middle" x="306" y="-172" font-family="Helvetica,sans-Serif" font-size="10.00" fill="grey"> CCodeBuffer</text>
<text text-anchor="middle" x="306" y="-161" font-family="Helvetica,sans-Serif" font-size="10.00" fill="grey">classScope</text>
<text text-anchor="middle" x="306" y="-150" font-family="Helvetica,sans-Serif" font-size="10.00" fill="grey">delimiter</text>
<text text-anchor="middle" x="306" y="-139" font-family="Helvetica,sans-Serif" font-size="10.00" fill="grey">docBlockName</text>
<text text-anchor="middle" x="306" y="-128" font-family="Helvetica,sans-Serif" font-size="10.00" fill="grey">exampleName</text>
<text text-anchor="middle" x="306" y="-117" font-family="Helvetica,sans-Serif" font-size="10.00" fill="grey">fileName</text>
<text text-anchor="middle" x="306" y="-106" font-family="Helvetica,sans-Serif" font-size="10.00" fill="grey">rulesPatternBuffer</text>
</g>
<!-- Node7 -->
<g id="node7" class="node">
<title>Node7</title>
<g id="a_node7"><a xlink:href="../../d5/dcc/class_definition.html" target="_top" xlink:title="The common base class of all entity definitions found in the sources.">
<polygon fill="white" stroke="#666666" points="515,-276 451,-276 451,-257 515,-257 515,-276"/>
<text text-anchor="middle" x="483" y="-264" font-family="Helvetica,sans-Serif" font-size="10.00">Definition</text>
</a>
</g>
</g>
<!-- Node7&#45;&gt;Node2 -->
<g id="edge6" class="edge">
<title>Node7&#45;&gt;Node2</title>
<path fill="none" stroke="#9a32cd" stroke-dasharray="5,2" d="M484.13,-246.66C485.99,-208.4 487.83,-123.51 469,-103 455.19,-87.96 404.14,-81.44 364.77,-78.62"/>
<polygon fill="#9a32cd" stroke="#9a32cd" points="480.62,-246.74 483.57,-256.91 487.61,-247.12 480.62,-246.74"/>
<text text-anchor="middle" x="528.5" y="-212" font-family="Helvetica,sans-Serif" font-size="10.00" fill="grey"> currentDefinition</text>
<text text-anchor="middle" x="528.5" y="-201" font-family="Helvetica,sans-Serif" font-size="10.00" fill="grey">searchCtx</text>
</g>
<!-- Node8 -->
<g id="node8" class="node">
<title>Node8</title>
<g id="a_node8"><a xlink:href="../../de/db0/class_file_def.html" target="_top" xlink:title="A model of a file symbol.">
<polygon fill="white" stroke="#666666" points="637.5,-218.5 586.5,-218.5 586.5,-199.5 637.5,-199.5 637.5,-218.5"/>
<text text-anchor="middle" x="612" y="-206.5" font-family="Helvetica,sans-Serif" font-size="10.00">FileDef</text>
</a>
</g>
</g>
<!-- Node7&#45;&gt;Node8 -->
<g id="edge9" class="edge">
<title>Node7&#45;&gt;Node8</title>
<path fill="none" stroke="#63b8ff" d="M512.32,-252.89C536.63,-242.43 570.55,-227.83 591.89,-218.65"/>
<polygon fill="#63b8ff" stroke="#63b8ff" points="510.68,-249.78 502.87,-256.95 513.44,-256.21 510.68,-249.78"/>
</g>
<!-- Node10 -->
<g id="node10" class="node">
<title>Node10</title>
<g id="a_node10"><a xlink:href="../../da/d09/class_member_def.html" target="_top" xlink:title="A model of a class/file/namespace member symbol.">
<polygon fill="white" stroke="#666666" points="428,-218.5 354,-218.5 354,-199.5 428,-199.5 428,-218.5"/>
<text text-anchor="middle" x="391" y="-206.5" font-family="Helvetica,sans-Serif" font-size="10.00">MemberDef</text>
</a>
</g>
</g>
<!-- Node7&#45;&gt;Node10 -->
<g id="edge11" class="edge">
<title>Node7&#45;&gt;Node10</title>
<path fill="none" stroke="#63b8ff" d="M459.77,-251.48C442.62,-241.14 419.82,-227.39 405.27,-218.61"/>
<polygon fill="#63b8ff" stroke="#63b8ff" points="458.25,-254.66 468.62,-256.83 461.87,-248.67 458.25,-254.66"/>
</g>
<!-- Node8&#45;&gt;Node2 -->
<g id="edge7" class="edge">
<title>Node8&#45;&gt;Node2</title>
<path fill="none" stroke="#9a32cd" stroke-dasharray="5,2" d="M599.24,-191.25C579.96,-167.29 540.97,-123.85 497,-103 455.25,-83.21 402.49,-77.35 364.72,-75.99"/>
<polygon fill="#9a32cd" stroke="#9a32cd" points="596.7,-193.68 605.63,-199.38 602.21,-189.36 596.7,-193.68"/>
<text text-anchor="middle" x="624" y="-139" font-family="Helvetica,sans-Serif" font-size="10.00" fill="grey"> sourceFileDef</text>
</g>
<!-- Node9 -->
<g id="node9" class="node">
<title>Node9</title>
<g id="a_node9"><a xlink:href="../../d0/d46/class_definition_mutable.html" target="_top" xlink:title=" ">
<polygon fill="white" stroke="#666666" points="664,-276 560,-276 560,-257 664,-257 664,-276"/>
<text text-anchor="middle" x="612" y="-264" font-family="Helvetica,sans-Serif" font-size="10.00">DefinitionMutable</text>
</a>
</g>
</g>
<!-- Node9&#45;&gt;Node8 -->
<g id="edge8" class="edge">
<title>Node9&#45;&gt;Node8</title>
<path fill="none" stroke="#63b8ff" d="M612,-246.75C612,-237.3 612,-226.28 612,-218.79"/>
<polygon fill="#63b8ff" stroke="#63b8ff" points="608.5,-246.83 612,-256.83 615.5,-246.83 608.5,-246.83"/>
</g>
<!-- Node10&#45;&gt;Node2 -->
<g id="edge10" class="edge">
<title>Node10&#45;&gt;Node2</title>
<path fill="none" stroke="#9a32cd" stroke-dasharray="5,2" d="M378.79,-190.65C376.68,-187.22 374.64,-183.57 373,-180 358.08,-147.55 370.15,-132.49 350,-103 345.1,-95.83 337.66,-89.72 330.99,-85.18"/>
<polygon fill="#9a32cd" stroke="#9a32cd" points="375.89,-192.62 384.32,-199.04 381.74,-188.76 375.89,-192.62"/>
<text text-anchor="middle" x="421" y="-139" font-family="Helvetica,sans-Serif" font-size="10.00" fill="grey"> currentMemberDef</text>
</g>
</g>
</svg>
        <g id="navigator" transform="translate(0 0)" fill="#404254">
                <rect fill="#f2f5e9" fill-opacity="0.5" stroke="#606060" stroke-width=".5" x="0" y="0" width="60" height="60"/>
                <use id="zoomplus" xlink:href="#zoomPlus" x="17" y="9" onmousedown="handleZoom(evt,'in')"/>
                <use id="zoomminus" xlink:href="#zoomMin" x="42" y="9" onmousedown="handleZoom(evt,'out')"/>
                <use id="reset" xlink:href="#resetDef" x="30" y="36" onmousedown="handleReset()"/>
                <g id="arrowUp" xlink:href="#dirArrow" transform="translate(30 24)" onmousedown="handlePan(0,-1)">
                  <use xlink:href="#rim" fill="#404040">
                        <set attributeName="fill" to="#808080" begin="arrowUp.mouseover" end="arrowUp.mouseout"/>
                  </use>
                  <path fill="none" stroke="white" stroke-width="1.5" d="M0,-3.0v7 M-2.5,-0.5L0,-3.0L2.5,-0.5"/>
                </g>
                <g id="arrowRight" xlink:href="#dirArrow" transform="rotate(90) translate(36 -43)" onmousedown="handlePan(1,0)">
                  <use xlink:href="#rim" fill="#404040">
                        <set attributeName="fill" to="#808080" begin="arrowRight.mouseover" end="arrowRight.mouseout"/>
                  </use>
                  <path fill="none" stroke="white" stroke-width="1.5" d="M0,-3.0v7 M-2.5,-0.5L0,-3.0L2.5,-0.5"/>
                </g>
                <g id="arrowDown" xlink:href="#dirArrow" transform="rotate(180) translate(-30 -48)" onmousedown="handlePan(0,1)">
                  <use xlink:href="#rim" fill="#404040">
                        <set attributeName="fill" to="#808080" begin="arrowDown.mouseover" end="arrowDown.mouseout"/>
                  </use>
                  <path fill="none" stroke="white" stroke-width="1.5" d="M0,-3.0v7 M-2.5,-0.5L0,-3.0L2.5,-0.5"/>
                </g>
                <g id="arrowLeft" xlink:href="#dirArrow" transform="rotate(270) translate(-36 17)" onmousedown="handlePan(-1,0)">
                  <use xlink:href="#rim" fill="#404040">
                        <set attributeName="fill" to="#808080" begin="arrowLeft.mouseover" end="arrowLeft.mouseout"/>
                  </use>
                  <path fill="none" stroke="white" stroke-width="1.5" d="M0,-3.0v7 M-2.5,-0.5L0,-3.0L2.5,-0.5"/>
                </g>
        </g>
        <svg viewBox="0 0 15 15" width="100%" height="30px" preserveAspectRatio="xMaxYMin meet">
         <g id="arrow_out" transform="scale(0.3 0.3)">
          <a xlink:href="struct_lex_code_parser_1_1_private__coll__graph_org.svg" target="_base">
           <rect id="button" ry="5" rx="5" y="6" x="6" height="38" width="38"
                fill="#f2f5e9" fill-opacity="0.5" stroke="#606060" stroke-width="1.0"/>
           <path id="arrow"
             d="M 11.500037,31.436501 C 11.940474,20.09759 22.043105,11.32322 32.158766,21.979434 L 37.068811,17.246167 C 37.068811,17.246167 37.088388,32 37.088388,32 L 22.160133,31.978069 C 22.160133,31.978069 26.997745,27.140456 26.997745,27.140456 C 18.528582,18.264221 13.291696,25.230495 11.500037,31.436501 z"
             style="fill:#404040;"/>
          </a>
         </g>
        </svg>
</svg>
