<?xml version="1.0" encoding="UTF-8" standalone="no"?>
<!DOCTYPE svg PUBLIC "-//W3C//DTD SVG 1.1//EN"
 "http://www.w3.org/Graphics/SVG/1.1/DTD/svg11.dtd">
<!-- Generated by graphviz version 2.43.0 (0)
 -->
<!-- Title: xmlcodeYY_state Pages: 1 -->
<svg width="534pt" height="262pt"
 viewBox="0.00 0.00 534.00 262.00" xmlns="http://www.w3.org/2000/svg" xmlns:xlink="http://www.w3.org/1999/xlink">
<g id="graph0" class="graph" transform="scale(1 1) rotate(0) translate(4 258)">
<title>xmlcodeYY_state</title>
<!-- Node1 -->
<g id="node1" class="node">
<title>Node1</title>
<g id="a_node1"><a xlink:title=" ">
<polygon fill="#999999" stroke="#666666" points="312.5,-19 211.5,-19 211.5,0 312.5,0 312.5,-19"/>
<text text-anchor="middle" x="262" y="-7" font-family="Helvetica,sans-Serif" font-size="10.00">xmlcodeYY_state</text>
</a>
</g>
</g>
<!-- Node2 -->
<g id="node2" class="node">
<title>Node2</title>
<g id="a_node2"><a xlink:href="../../d5/d9c/class_code_output_interface.html" target="_top" xlink:title="Output interface for code parser.">
<polygon fill="white" stroke="#666666" points="118,-196.5 0,-196.5 0,-177.5 118,-177.5 118,-196.5"/>
<text text-anchor="middle" x="59" y="-184.5" font-family="Helvetica,sans-Serif" font-size="10.00">CodeOutputInterface</text>
</a>
</g>
</g>
<!-- Node2&#45;&gt;Node1 -->
<g id="edge1" class="edge">
<title>Node2&#45;&gt;Node1</title>
<path fill="none" stroke="#9a32cd" stroke-dasharray="5,2" d="M62.25,-167.02C68.79,-134.9 86.71,-70.11 129,-37 141.79,-26.99 179.44,-20.07 211.43,-15.82"/>
<polygon fill="#9a32cd" stroke="#9a32cd" points="58.73,-166.78 60.33,-177.25 65.61,-168.07 58.73,-166.78"/>
<text text-anchor="middle" x="142.5" y="-95" font-family="Helvetica,sans-Serif" font-size="10.00" fill="grey"> code</text>
</g>
<!-- Node3 -->
<g id="node3" class="node">
<title>Node3</title>
<g id="a_node3"><a xlink:href="../../d9/d45/class_q_c_string.html" target="_top" xlink:title="This is an alternative implementation of QCString.">
<polygon fill="white" stroke="#666666" points="195.5,-196.5 136.5,-196.5 136.5,-177.5 195.5,-177.5 195.5,-196.5"/>
<text text-anchor="middle" x="166" y="-184.5" font-family="Helvetica,sans-Serif" font-size="10.00">QCString</text>
</a>
</g>
</g>
<!-- Node3&#45;&gt;Node1 -->
<g id="edge2" class="edge">
<title>Node3&#45;&gt;Node1</title>
<path fill="none" stroke="#9a32cd" stroke-dasharray="5,2" d="M162.63,-167.21C158.24,-136.37 154.35,-74.66 185,-37 191.78,-28.67 201.32,-22.95 211.39,-19.02"/>
<polygon fill="#9a32cd" stroke="#9a32cd" points="159.23,-168.09 164.27,-177.41 166.14,-166.98 159.23,-168.09"/>
<text text-anchor="middle" x="221.5" y="-150" font-family="Helvetica,sans-Serif" font-size="10.00" fill="grey"> CurrScope</text>
<text text-anchor="middle" x="221.5" y="-139" font-family="Helvetica,sans-Serif" font-size="10.00" fill="grey">args</text>
<text text-anchor="middle" x="221.5" y="-128" font-family="Helvetica,sans-Serif" font-size="10.00" fill="grey">classScope</text>
<text text-anchor="middle" x="221.5" y="-117" font-family="Helvetica,sans-Serif" font-size="10.00" fill="grey">curClassName</text>
<text text-anchor="middle" x="221.5" y="-106" font-family="Helvetica,sans-Serif" font-size="10.00" fill="grey">exampleFile</text>
<text text-anchor="middle" x="221.5" y="-95" font-family="Helvetica,sans-Serif" font-size="10.00" fill="grey">exampleName</text>
<text text-anchor="middle" x="221.5" y="-84" font-family="Helvetica,sans-Serif" font-size="10.00" fill="grey">fileName</text>
<text text-anchor="middle" x="221.5" y="-73" font-family="Helvetica,sans-Serif" font-size="10.00" fill="grey">name</text>
<text text-anchor="middle" x="221.5" y="-62" font-family="Helvetica,sans-Serif" font-size="10.00" fill="grey">parmName</text>
<text text-anchor="middle" x="221.5" y="-51" font-family="Helvetica,sans-Serif" font-size="10.00" fill="grey">parmType</text>
<text text-anchor="middle" x="221.5" y="-40" font-family="Helvetica,sans-Serif" font-size="10.00" fill="grey">...</text>
</g>
<!-- Node4 -->
<g id="node4" class="node">
<title>Node4</title>
<g id="a_node4"><a xlink:href="../../d5/dcc/class_definition.html" target="_top" xlink:title="The common base class of all entity definitions found in the sources.">
<polygon fill="white" stroke="#666666" points="392,-254 328,-254 328,-235 392,-235 392,-254"/>
<text text-anchor="middle" x="360" y="-242" font-family="Helvetica,sans-Serif" font-size="10.00">Definition</text>
</a>
</g>
</g>
<!-- Node4&#45;&gt;Node1 -->
<g id="edge3" class="edge">
<title>Node4&#45;&gt;Node1</title>
<path fill="none" stroke="#9a32cd" stroke-dasharray="5,2" d="M383.99,-229.45C406.34,-214.81 438.22,-189.62 452,-158 473.49,-108.7 487.3,-77.57 452,-37 434.29,-16.65 362.91,-11.44 312.88,-10.36"/>
<polygon fill="#9a32cd" stroke="#9a32cd" points="381.96,-226.59 375.36,-234.88 385.69,-232.51 381.96,-226.59"/>
<text text-anchor="middle" x="483.5" y="-190" font-family="Helvetica,sans-Serif" font-size="10.00" fill="grey"> currentDefinition</text>
<text text-anchor="middle" x="483.5" y="-179" font-family="Helvetica,sans-Serif" font-size="10.00" fill="grey">searchCtx</text>
</g>
<!-- Node5 -->
<g id="node5" class="node">
<title>Node5</title>
<g id="a_node5"><a xlink:href="../../de/db0/class_file_def.html" target="_top" xlink:title="A model of a file symbol.">
<polygon fill="white" stroke="#666666" points="287.5,-196.5 236.5,-196.5 236.5,-177.5 287.5,-177.5 287.5,-196.5"/>
<text text-anchor="middle" x="262" y="-184.5" font-family="Helvetica,sans-Serif" font-size="10.00">FileDef</text>
</a>
</g>
</g>
<!-- Node4&#45;&gt;Node5 -->
<g id="edge6" class="edge">
<title>Node4&#45;&gt;Node5</title>
<path fill="none" stroke="#63b8ff" d="M335.76,-229.77C317.43,-219.39 292.84,-205.47 277.2,-196.61"/>
<polygon fill="#63b8ff" stroke="#63b8ff" points="334.26,-232.95 344.69,-234.83 337.71,-226.85 334.26,-232.95"/>
</g>
<!-- Node7 -->
<g id="node7" class="node">
<title>Node7</title>
<g id="a_node7"><a xlink:href="../../da/d09/class_member_def.html" target="_top" xlink:title="A model of a class/file/namespace member symbol.">
<polygon fill="white" stroke="#666666" points="394,-196.5 320,-196.5 320,-177.5 394,-177.5 394,-196.5"/>
<text text-anchor="middle" x="357" y="-184.5" font-family="Helvetica,sans-Serif" font-size="10.00">MemberDef</text>
</a>
</g>
</g>
<!-- Node4&#45;&gt;Node7 -->
<g id="edge8" class="edge">
<title>Node4&#45;&gt;Node7</title>
<path fill="none" stroke="#63b8ff" d="M358.99,-224.75C358.48,-215.3 357.88,-204.28 357.48,-196.79"/>
<polygon fill="#63b8ff" stroke="#63b8ff" points="355.5,-225.03 359.53,-234.83 362.49,-224.65 355.5,-225.03"/>
</g>
<!-- Node5&#45;&gt;Node1 -->
<g id="edge4" class="edge">
<title>Node5&#45;&gt;Node1</title>
<path fill="none" stroke="#9a32cd" stroke-dasharray="5,2" d="M262,-166.9C262,-129.14 262,-46.26 262,-19.22"/>
<polygon fill="#9a32cd" stroke="#9a32cd" points="258.5,-167.06 262,-177.06 265.5,-167.06 258.5,-167.06"/>
<text text-anchor="middle" x="297" y="-95" font-family="Helvetica,sans-Serif" font-size="10.00" fill="grey"> sourceFileDef</text>
</g>
<!-- Node6 -->
<g id="node6" class="node">
<title>Node6</title>
<g id="a_node6"><a xlink:href="../../d0/d46/class_definition_mutable.html" target="_top" xlink:title=" ">
<polygon fill="white" stroke="#666666" points="310,-254 206,-254 206,-235 310,-235 310,-254"/>
<text text-anchor="middle" x="258" y="-242" font-family="Helvetica,sans-Serif" font-size="10.00">DefinitionMutable</text>
</a>
</g>
</g>
<!-- Node6&#45;&gt;Node5 -->
<g id="edge5" class="edge">
<title>Node6&#45;&gt;Node5</title>
<path fill="none" stroke="#63b8ff" d="M259.35,-224.75C260.03,-215.3 260.83,-204.28 261.37,-196.79"/>
<polygon fill="#63b8ff" stroke="#63b8ff" points="255.85,-224.6 258.62,-234.83 262.83,-225.11 255.85,-224.6"/>
</g>
<!-- Node7&#45;&gt;Node1 -->
<g id="edge7" class="edge">
<title>Node7&#45;&gt;Node1</title>
<path fill="none" stroke="#9a32cd" stroke-dasharray="5,2" d="M356.27,-167.01C354.54,-131.44 349.04,-56.57 333,-37 326.16,-28.66 316.42,-22.94 306.33,-19.02"/>
<polygon fill="#9a32cd" stroke="#9a32cd" points="352.79,-167.6 356.72,-177.43 359.79,-167.29 352.79,-167.6"/>
<text text-anchor="middle" x="404" y="-95" font-family="Helvetica,sans-Serif" font-size="10.00" fill="grey"> currentMemberDef</text>
</g>
</g>
</svg>
