<?xml version="1.0" encoding="UTF-8" standalone="no"?>
<!DOCTYPE svg PUBLIC "-//W3C//DTD SVG 1.1//EN"
 "http://www.w3.org/Graphics/SVG/1.1/DTD/svg11.dtd">
<!-- Generated by graphviz version 2.43.0 (0)
 -->
<!-- Title: /home/runner/work/doxygen/doxygen/src/qcstring.cpp Pages: 1 -->
<svg width="656pt" height="203pt"
 viewBox="0.00 0.00 656.03 203.00" xmlns="http://www.w3.org/2000/svg" xmlns:xlink="http://www.w3.org/1999/xlink">
<g id="graph0" class="graph" transform="scale(1 1) rotate(0) translate(4 199)">
<title>/home/runner/work/doxygen/doxygen/src/qcstring.cpp</title>
<!-- Node1 -->
<g id="node1" class="node">
<title>Node1</title>
<g id="a_node1"><a xlink:title=" ">
<polygon fill="#999999" stroke="#666666" points="519.53,-195 365.53,-195 365.53,-165 519.53,-165 519.53,-195"/>
<text text-anchor="start" x="373.53" y="-183" font-family="Helvetica,sans-Serif" font-size="10.00">/home/runner/work/doxygen</text>
<text text-anchor="middle" x="442.53" y="-172" font-family="Helvetica,sans-Serif" font-size="10.00">/doxygen/src/qcstring.cpp</text>
</a>
</g>
</g>
<!-- Node2 -->
<g id="node2" class="node">
<title>Node2</title>
<g id="a_node2"><a xlink:href="../../d7/d5c/qcstring_8h.html" target="_top" xlink:title=" ">
<polygon fill="white" stroke="#666666" points="292.03,-129 227.03,-129 227.03,-110 292.03,-110 292.03,-129"/>
<text text-anchor="middle" x="259.53" y="-117" font-family="Helvetica,sans-Serif" font-size="10.00">qcstring.h</text>
</a>
</g>
</g>
<!-- Node1&#45;&gt;Node2 -->
<g id="edge1" class="edge">
<title>Node1&#45;&gt;Node2</title>
<path fill="none" stroke="#63b8ff" d="M398.7,-164.99C367.39,-154.98 325.75,-141.67 296.2,-132.22"/>
<polygon fill="#63b8ff" stroke="#63b8ff" points="296.88,-128.76 286.29,-129.05 294.75,-135.43 296.88,-128.76"/>
</g>
<!-- Node12 -->
<g id="node12" class="node">
<title>Node12</title>
<g id="a_node12"><a xlink:title=" ">
<polygon fill="#e0e0e0" stroke="#999999" points="363.03,-129 310.03,-129 310.03,-110 363.03,-110 363.03,-129"/>
<text text-anchor="middle" x="336.53" y="-117" font-family="Helvetica,sans-Serif" font-size="10.00">limits.h</text>
</a>
</g>
</g>
<!-- Node1&#45;&gt;Node12 -->
<g id="edge13" class="edge">
<title>Node1&#45;&gt;Node12</title>
<path fill="none" stroke="#63b8ff" d="M417.14,-164.99C400.25,-155.66 378.16,-143.47 361.38,-134.21"/>
<polygon fill="#63b8ff" stroke="#63b8ff" points="362.63,-130.91 352.19,-129.14 359.25,-137.04 362.63,-130.91"/>
</g>
<!-- Node13 -->
<g id="node13" class="node">
<title>Node13</title>
<g id="a_node13"><a xlink:title=" ">
<polygon fill="#e0e0e0" stroke="#999999" points="434.03,-129 381.03,-129 381.03,-110 434.03,-110 434.03,-129"/>
<text text-anchor="middle" x="407.53" y="-117" font-family="Helvetica,sans-Serif" font-size="10.00">stdlib.h</text>
</a>
</g>
</g>
<!-- Node1&#45;&gt;Node13 -->
<g id="edge14" class="edge">
<title>Node1&#45;&gt;Node13</title>
<path fill="none" stroke="#63b8ff" d="M434.06,-164.84C429.24,-156.78 423.16,-146.62 418.04,-138.06"/>
<polygon fill="#63b8ff" stroke="#63b8ff" points="420.92,-136.05 412.78,-129.27 414.91,-139.64 420.92,-136.05"/>
</g>
<!-- Node14 -->
<g id="node14" class="node">
<title>Node14</title>
<g id="a_node14"><a xlink:title=" ">
<polygon fill="#e0e0e0" stroke="#999999" points="502.53,-129 452.53,-129 452.53,-110 502.53,-110 502.53,-129"/>
<text text-anchor="middle" x="477.53" y="-117" font-family="Helvetica,sans-Serif" font-size="10.00">stdio.h</text>
</a>
</g>
</g>
<!-- Node1&#45;&gt;Node14 -->
<g id="edge15" class="edge">
<title>Node1&#45;&gt;Node14</title>
<path fill="none" stroke="#63b8ff" d="M451.01,-164.84C455.83,-156.78 461.91,-146.62 467.03,-138.06"/>
<polygon fill="#63b8ff" stroke="#63b8ff" points="470.16,-139.64 472.29,-129.27 464.15,-136.05 470.16,-139.64"/>
</g>
<!-- Node15 -->
<g id="node15" class="node">
<title>Node15</title>
<g id="a_node15"><a xlink:title=" ">
<polygon fill="#e0e0e0" stroke="#999999" points="576.53,-129 520.53,-129 520.53,-110 576.53,-110 576.53,-129"/>
<text text-anchor="middle" x="548.53" y="-117" font-family="Helvetica,sans-Serif" font-size="10.00">stdarg.h</text>
</a>
</g>
</g>
<!-- Node1&#45;&gt;Node15 -->
<g id="edge16" class="edge">
<title>Node1&#45;&gt;Node15</title>
<path fill="none" stroke="#63b8ff" d="M467.92,-164.99C484.82,-155.66 506.91,-143.47 523.69,-134.21"/>
<polygon fill="#63b8ff" stroke="#63b8ff" points="525.82,-137.04 532.88,-129.14 522.43,-130.91 525.82,-137.04"/>
</g>
<!-- Node16 -->
<g id="node16" class="node">
<title>Node16</title>
<g id="a_node16"><a xlink:title=" ">
<polygon fill="#e0e0e0" stroke="#999999" points="648.03,-129 595.03,-129 595.03,-110 648.03,-110 648.03,-129"/>
<text text-anchor="middle" x="621.53" y="-117" font-family="Helvetica,sans-Serif" font-size="10.00">ctype.h</text>
</a>
</g>
</g>
<!-- Node1&#45;&gt;Node16 -->
<g id="edge17" class="edge">
<title>Node1&#45;&gt;Node16</title>
<path fill="none" stroke="#63b8ff" d="M485.41,-164.99C516.03,-154.98 556.76,-141.67 585.67,-132.22"/>
<polygon fill="#63b8ff" stroke="#63b8ff" points="586.94,-135.49 595.36,-129.05 584.77,-128.83 586.94,-135.49"/>
</g>
<!-- Node3 -->
<g id="node3" class="node">
<title>Node3</title>
<g id="a_node3"><a xlink:title=" ">
<polygon fill="#e0e0e0" stroke="#999999" points="243.53,-19 199.53,-19 199.53,0 243.53,0 243.53,-19"/>
<text text-anchor="middle" x="221.53" y="-7" font-family="Helvetica,sans-Serif" font-size="10.00">string</text>
</a>
</g>
</g>
<!-- Node2&#45;&gt;Node3 -->
<g id="edge2" class="edge">
<title>Node2&#45;&gt;Node3</title>
<path fill="none" stroke="#63b8ff" d="M227,-117.68C165.74,-115.39 36.92,-106.7 9.53,-74 -39.98,-14.89 118.44,-9.43 189.2,-9.83"/>
<polygon fill="#63b8ff" stroke="#63b8ff" points="189.32,-13.34 199.36,-9.94 189.39,-6.34 189.32,-13.34"/>
</g>
<!-- Node4 -->
<g id="node4" class="node">
<title>Node4</title>
<g id="a_node4"><a xlink:title=" ">
<polygon fill="#e0e0e0" stroke="#999999" points="82.53,-74 18.53,-74 18.53,-55 82.53,-55 82.53,-74"/>
<text text-anchor="middle" x="50.53" y="-62" font-family="Helvetica,sans-Serif" font-size="10.00">algorithm</text>
</a>
</g>
</g>
<!-- Node2&#45;&gt;Node4 -->
<g id="edge3" class="edge">
<title>Node2&#45;&gt;Node4</title>
<path fill="none" stroke="#63b8ff" d="M226.88,-110.22C190.65,-101.03 132.1,-86.18 92.5,-76.14"/>
<polygon fill="#63b8ff" stroke="#63b8ff" points="93.17,-72.7 82.62,-73.64 91.45,-79.49 93.17,-72.7"/>
</g>
<!-- Node5 -->
<g id="node5" class="node">
<title>Node5</title>
<g id="a_node5"><a xlink:title=" ">
<polygon fill="#e0e0e0" stroke="#999999" points="150.03,-74 101.03,-74 101.03,-55 150.03,-55 150.03,-74"/>
<text text-anchor="middle" x="125.53" y="-62" font-family="Helvetica,sans-Serif" font-size="10.00">cctype</text>
</a>
</g>
</g>
<!-- Node2&#45;&gt;Node5 -->
<g id="edge4" class="edge">
<title>Node2&#45;&gt;Node5</title>
<path fill="none" stroke="#63b8ff" d="M238,-109.98C216.06,-101.3 181.79,-87.75 156.85,-77.88"/>
<polygon fill="#63b8ff" stroke="#63b8ff" points="158.04,-74.59 147.45,-74.17 155.47,-81.1 158.04,-74.59"/>
</g>
<!-- Node6 -->
<g id="node6" class="node">
<title>Node6</title>
<g id="a_node6"><a xlink:title=" ">
<polygon fill="#e0e0e0" stroke="#999999" points="218.53,-74 168.53,-74 168.53,-55 218.53,-55 218.53,-74"/>
<text text-anchor="middle" x="193.53" y="-62" font-family="Helvetica,sans-Serif" font-size="10.00">cstring</text>
</a>
</g>
</g>
<!-- Node2&#45;&gt;Node6 -->
<g id="edge5" class="edge">
<title>Node2&#45;&gt;Node6</title>
<path fill="none" stroke="#63b8ff" d="M248.93,-109.98C239.08,-102.07 224.18,-90.11 212.32,-80.58"/>
<polygon fill="#63b8ff" stroke="#63b8ff" points="214.32,-77.7 204.33,-74.17 209.94,-83.16 214.32,-77.7"/>
</g>
<!-- Node7 -->
<g id="node7" class="node">
<title>Node7</title>
<g id="a_node7"><a xlink:title=" ">
<polygon fill="#e0e0e0" stroke="#999999" points="282.53,-74 236.53,-74 236.53,-55 282.53,-55 282.53,-74"/>
<text text-anchor="middle" x="259.53" y="-62" font-family="Helvetica,sans-Serif" font-size="10.00">cstdio</text>
</a>
</g>
</g>
<!-- Node2&#45;&gt;Node7 -->
<g id="edge6" class="edge">
<title>Node2&#45;&gt;Node7</title>
<path fill="none" stroke="#63b8ff" d="M259.53,-109.75C259.53,-102.8 259.53,-92.85 259.53,-84.13"/>
<polygon fill="#63b8ff" stroke="#63b8ff" points="263.03,-84.09 259.53,-74.09 256.03,-84.09 263.03,-84.09"/>
</g>
<!-- Node8 -->
<g id="node8" class="node">
<title>Node8</title>
<g id="a_node8"><a xlink:title=" ">
<polygon fill="#e0e0e0" stroke="#999999" points="350.03,-74 301.03,-74 301.03,-55 350.03,-55 350.03,-74"/>
<text text-anchor="middle" x="325.53" y="-62" font-family="Helvetica,sans-Serif" font-size="10.00">cstdlib</text>
</a>
</g>
</g>
<!-- Node2&#45;&gt;Node8 -->
<g id="edge7" class="edge">
<title>Node2&#45;&gt;Node8</title>
<path fill="none" stroke="#63b8ff" d="M270.14,-109.98C279.99,-102.07 294.88,-90.11 306.75,-80.58"/>
<polygon fill="#63b8ff" stroke="#63b8ff" points="309.13,-83.16 314.74,-74.17 304.75,-77.7 309.13,-83.16"/>
</g>
<!-- Node9 -->
<g id="node9" class="node">
<title>Node9</title>
<g id="a_node9"><a xlink:title=" ">
<polygon fill="#e0e0e0" stroke="#999999" points="478.53,-19 428.53,-19 428.53,0 478.53,0 478.53,-19"/>
<text text-anchor="middle" x="453.53" y="-7" font-family="Helvetica,sans-Serif" font-size="10.00">cstdint</text>
</a>
</g>
</g>
<!-- Node2&#45;&gt;Node9 -->
<g id="edge8" class="edge">
<title>Node2&#45;&gt;Node9</title>
<path fill="none" stroke="#63b8ff" d="M292.19,-111.66C295.01,-111.09 297.82,-110.53 300.53,-110 344.21,-101.48 469.03,-108.18 497.53,-74 510.7,-58.21 492.32,-38.56 475.46,-25.34"/>
<polygon fill="#63b8ff" stroke="#63b8ff" points="477.08,-22.18 466.95,-19.06 472.92,-27.82 477.08,-22.18"/>
</g>
<!-- Node10 -->
<g id="node10" class="node">
<title>Node10</title>
<g id="a_node10"><a xlink:title=" ">
<polygon fill="#e0e0e0" stroke="#999999" points="488.03,-74 431.03,-74 431.03,-55 488.03,-55 488.03,-74"/>
<text text-anchor="middle" x="459.53" y="-62" font-family="Helvetica,sans-Serif" font-size="10.00">ostream</text>
</a>
</g>
</g>
<!-- Node2&#45;&gt;Node10 -->
<g id="edge9" class="edge">
<title>Node2&#45;&gt;Node10</title>
<path fill="none" stroke="#63b8ff" d="M291.67,-109.98C326.79,-100.68 383.07,-85.76 420.65,-75.8"/>
<polygon fill="#63b8ff" stroke="#63b8ff" points="421.96,-79.08 430.73,-73.13 420.16,-72.31 421.96,-79.08"/>
</g>
<!-- Node11 -->
<g id="node11" class="node">
<title>Node11</title>
<g id="a_node11"><a xlink:href="../../db/d7c/utf8_8h.html" target="_top" xlink:title="Various UTF8 related helper functions.">
<polygon fill="white" stroke="#666666" points="413.03,-74 368.03,-74 368.03,-55 413.03,-55 413.03,-74"/>
<text text-anchor="middle" x="390.53" y="-62" font-family="Helvetica,sans-Serif" font-size="10.00">utf8.h</text>
</a>
</g>
</g>
<!-- Node2&#45;&gt;Node11 -->
<g id="edge10" class="edge">
<title>Node2&#45;&gt;Node11</title>
<path fill="none" stroke="#63b8ff" d="M280.58,-109.98C301.94,-101.34 335.24,-87.87 359.6,-78.02"/>
<polygon fill="#63b8ff" stroke="#63b8ff" points="361.15,-81.17 369.1,-74.17 358.52,-74.68 361.15,-81.17"/>
</g>
<!-- Node11&#45;&gt;Node3 -->
<g id="edge12" class="edge">
<title>Node11&#45;&gt;Node3</title>
<path fill="none" stroke="#63b8ff" d="M367.74,-56.35C338.27,-47.11 286.76,-30.96 253.42,-20.5"/>
<polygon fill="#63b8ff" stroke="#63b8ff" points="254.29,-17.1 243.7,-17.45 252.19,-23.78 254.29,-17.1"/>
</g>
<!-- Node11&#45;&gt;Node9 -->
<g id="edge11" class="edge">
<title>Node11&#45;&gt;Node9</title>
<path fill="none" stroke="#63b8ff" d="M400.66,-54.98C409.97,-47.15 424,-35.34 435.27,-25.86"/>
<polygon fill="#63b8ff" stroke="#63b8ff" points="437.83,-28.29 443.23,-19.17 433.32,-22.93 437.83,-28.29"/>
</g>
</g>
</svg>
