<?xml version="1.0" encoding="UTF-8" standalone="no"?>
<!DOCTYPE svg PUBLIC "-//W3C//DTD SVG 1.1//EN"
 "http://www.w3.org/Graphics/SVG/1.1/DTD/svg11.dtd">
<!-- Generated by graphviz version 2.43.0 (0)
 -->
<!-- Title: LayoutDocEntryMemberDecl Pages: 1 -->
<svg width="194pt" height="104pt"
 viewBox="0.00 0.00 194.00 104.00" xmlns="http://www.w3.org/2000/svg" xmlns:xlink="http://www.w3.org/1999/xlink">
<g id="graph0" class="graph" transform="scale(1 1) rotate(0) translate(4 100)">
<title>LayoutDocEntryMemberDecl</title>
<!-- Node1 -->
<g id="node1" class="node">
<title>Node1</title>
<g id="a_node1"><a xlink:title="Represents of a member declaration list with configurable title and subtitle.">
<polygon fill="#999999" stroke="#666666" points="172,-19 16,-19 16,0 172,0 172,-19"/>
<text text-anchor="middle" x="94" y="-7" font-family="Helvetica,sans-Serif" font-size="10.00">LayoutDocEntryMemberDecl</text>
</a>
</g>
</g>
<!-- Node2 -->
<g id="node2" class="node">
<title>Node2</title>
<g id="a_node2"><a xlink:href="../../d9/dba/struct_layout_doc_entry.html" target="_top" xlink:title="Base class representing a piece of a documentation page.">
<polygon fill="white" stroke="#666666" points="94,-96 0,-96 0,-77 94,-77 94,-96"/>
<text text-anchor="middle" x="47" y="-84" font-family="Helvetica,sans-Serif" font-size="10.00">LayoutDocEntry</text>
</a>
</g>
</g>
<!-- Node2&#45;&gt;Node1 -->
<g id="edge1" class="edge">
<title>Node2&#45;&gt;Node1</title>
<path fill="none" stroke="#63b8ff" d="M57.78,-68.29C67.44,-52.88 81.2,-30.93 88.67,-19"/>
<polygon fill="#63b8ff" stroke="#63b8ff" points="54.74,-66.56 52.39,-76.9 60.67,-70.28 54.74,-66.56"/>
</g>
<!-- Node3 -->
<g id="node3" class="node">
<title>Node3</title>
<g id="a_node3"><a xlink:href="../../d9/d45/class_q_c_string.html" target="_top" xlink:title="This is an alternative implementation of QCString.">
<polygon fill="white" stroke="#666666" points="171.5,-96 112.5,-96 112.5,-77 171.5,-77 171.5,-96"/>
<text text-anchor="middle" x="142" y="-84" font-family="Helvetica,sans-Serif" font-size="10.00">QCString</text>
</a>
</g>
</g>
<!-- Node3&#45;&gt;Node1 -->
<g id="edge2" class="edge">
<title>Node3&#45;&gt;Node1</title>
<path fill="none" stroke="#9a32cd" stroke-dasharray="5,2" d="M130.99,-68.29C121.13,-52.88 107.07,-30.93 99.44,-19"/>
<polygon fill="#9a32cd" stroke="#9a32cd" points="128.16,-70.36 136.49,-76.9 134.05,-66.59 128.16,-70.36"/>
<text text-anchor="middle" x="154.5" y="-51" font-family="Helvetica,sans-Serif" font-size="10.00" fill="grey"> m_subscript</text>
<text text-anchor="middle" x="154.5" y="-40" font-family="Helvetica,sans-Serif" font-size="10.00" fill="grey">m_title</text>
</g>
</g>
</svg>
