<?xml version="1.0" encoding="UTF-8" standalone="no"?>
<!DOCTYPE svg PUBLIC "-//W3C//DTD SVG 1.1//EN"
 "http://www.w3.org/Graphics/SVG/1.1/DTD/svg11.dtd">
<!-- Generated by graphviz version 2.43.0 (0)
 -->
<!-- Title: /home/runner/work/doxygen/doxygen/src/outputlist.h Pages: 1 -->
<svg width="4175pt" height="104pt"
 viewBox="0.00 0.00 4175.00 104.00" xmlns="http://www.w3.org/2000/svg" xmlns:xlink="http://www.w3.org/1999/xlink">
<g id="graph0" class="graph" transform="scale(1 1) rotate(0) translate(4 100)">
<title>/home/runner/work/doxygen/doxygen/src/outputlist.h</title>
<!-- Node1 -->
<g id="node1" class="node">
<title>Node1</title>
<g id="a_node1"><a xlink:title=" ">
<polygon fill="#999999" stroke="#666666" points="2141,-96 1987,-96 1987,-66 2141,-66 2141,-96"/>
<text text-anchor="start" x="1995" y="-84" font-family="Helvetica,sans-Serif" font-size="10.00">/home/runner/work/doxygen</text>
<text text-anchor="middle" x="2064" y="-73" font-family="Helvetica,sans-Serif" font-size="10.00">/doxygen/src/outputlist.h</text>
</a>
</g>
</g>
<!-- Node2 -->
<g id="node2" class="node">
<title>Node2</title>
<g id="a_node2"><a xlink:href="../../de/d89/classdef_8cpp.html" target="_top" xlink:title=" ">
<polygon fill="white" stroke="#666666" points="154,-30 0,-30 0,0 154,0 154,-30"/>
<text text-anchor="start" x="8" y="-18" font-family="Helvetica,sans-Serif" font-size="10.00">/home/runner/work/doxygen</text>
<text text-anchor="middle" x="77" y="-7" font-family="Helvetica,sans-Serif" font-size="10.00">/doxygen/src/classdef.cpp</text>
</a>
</g>
</g>
<!-- Node1&#45;&gt;Node2 -->
<g id="edge1" class="edge">
<title>Node1&#45;&gt;Node2</title>
<path fill="none" stroke="#63b8ff" d="M1976.7,-79.27C1653.09,-76.33 522.1,-63.8 163,-30 160.14,-29.73 157.23,-29.42 154.29,-29.09"/>
<polygon fill="#63b8ff" stroke="#63b8ff" points="1976.93,-82.77 1986.96,-79.36 1976.99,-75.77 1976.93,-82.77"/>
</g>
<!-- Node3 -->
<g id="node3" class="node">
<title>Node3</title>
<g id="a_node3"><a xlink:href="../../d6/d10/classlist_8cpp.html" target="_top" xlink:title=" ">
<polygon fill="white" stroke="#666666" points="326,-30 172,-30 172,0 326,0 326,-30"/>
<text text-anchor="start" x="180" y="-18" font-family="Helvetica,sans-Serif" font-size="10.00">/home/runner/work/doxygen</text>
<text text-anchor="middle" x="249" y="-7" font-family="Helvetica,sans-Serif" font-size="10.00">/doxygen/src/classlist.cpp</text>
</a>
</g>
</g>
<!-- Node1&#45;&gt;Node3 -->
<g id="edge2" class="edge">
<title>Node1&#45;&gt;Node3</title>
<path fill="none" stroke="#63b8ff" d="M1976.5,-79C1671.85,-75.3 658.66,-60.89 335,-30 332.14,-29.73 329.23,-29.42 326.29,-29.08"/>
<polygon fill="#63b8ff" stroke="#63b8ff" points="1976.56,-82.5 1986.6,-79.13 1976.64,-75.51 1976.56,-82.5"/>
</g>
<!-- Node4 -->
<g id="node4" class="node">
<title>Node4</title>
<g id="a_node4"><a xlink:href="../../da/d1f/code_8l.html" target="_top" xlink:title=" ">
<polygon fill="white" stroke="#666666" points="498,-30 344,-30 344,0 498,0 498,-30"/>
<text text-anchor="start" x="352" y="-18" font-family="Helvetica,sans-Serif" font-size="10.00">/home/runner/work/doxygen</text>
<text text-anchor="middle" x="421" y="-7" font-family="Helvetica,sans-Serif" font-size="10.00">/doxygen/src/code.l</text>
</a>
</g>
</g>
<!-- Node1&#45;&gt;Node4 -->
<g id="edge3" class="edge">
<title>Node1&#45;&gt;Node4</title>
<path fill="none" stroke="#63b8ff" d="M1976.68,-78.68C1692.46,-74.16 795.5,-58 507,-30 504.14,-29.72 501.23,-29.41 498.29,-29.07"/>
<polygon fill="#63b8ff" stroke="#63b8ff" points="1976.88,-82.19 1986.94,-78.85 1976.99,-75.19 1976.88,-82.19"/>
</g>
<!-- Node5 -->
<g id="node5" class="node">
<title>Node5</title>
<g id="a_node5"><a xlink:href="../../d8/d0a/conceptdef_8cpp.html" target="_top" xlink:title=" ">
<polygon fill="white" stroke="#666666" points="671.5,-30 516.5,-30 516.5,0 671.5,0 671.5,-30"/>
<text text-anchor="start" x="524.5" y="-18" font-family="Helvetica,sans-Serif" font-size="10.00">/home/runner/work/doxygen</text>
<text text-anchor="middle" x="594" y="-7" font-family="Helvetica,sans-Serif" font-size="10.00">/doxygen/src/conceptdef.cpp</text>
</a>
</g>
</g>
<!-- Node1&#45;&gt;Node5 -->
<g id="edge4" class="edge">
<title>Node1&#45;&gt;Node5</title>
<path fill="none" stroke="#63b8ff" d="M1976.81,-80.57C1758.16,-81.21 1169.11,-77.91 681,-30 677.95,-29.7 674.85,-29.36 671.73,-28.99"/>
<polygon fill="#63b8ff" stroke="#63b8ff" points="1976.95,-84.07 1986.94,-80.54 1976.92,-77.07 1976.95,-84.07"/>
</g>
<!-- Node6 -->
<g id="node6" class="node">
<title>Node6</title>
<g id="a_node6"><a xlink:href="../../d3/dea/definition_8cpp.html" target="_top" xlink:title=" ">
<polygon fill="white" stroke="#666666" points="844,-30 690,-30 690,0 844,0 844,-30"/>
<text text-anchor="start" x="698" y="-18" font-family="Helvetica,sans-Serif" font-size="10.00">/home/runner/work/doxygen</text>
<text text-anchor="middle" x="767" y="-7" font-family="Helvetica,sans-Serif" font-size="10.00">/doxygen/src/definition.cpp</text>
</a>
</g>
</g>
<!-- Node1&#45;&gt;Node6 -->
<g id="edge5" class="edge">
<title>Node1&#45;&gt;Node6</title>
<path fill="none" stroke="#63b8ff" d="M1976.78,-79.98C1777.28,-79.17 1272.5,-72.65 853,-30 850.14,-29.71 847.23,-29.38 844.3,-29.03"/>
<polygon fill="#63b8ff" stroke="#63b8ff" points="1976.9,-83.48 1986.91,-80.02 1976.92,-76.48 1976.9,-83.48"/>
</g>
<!-- Node7 -->
<g id="node7" class="node">
<title>Node7</title>
<g id="a_node7"><a xlink:href="../../d8/d52/dirdef_8cpp.html" target="_top" xlink:title=" ">
<polygon fill="white" stroke="#666666" points="1016,-30 862,-30 862,0 1016,0 1016,-30"/>
<text text-anchor="start" x="870" y="-18" font-family="Helvetica,sans-Serif" font-size="10.00">/home/runner/work/doxygen</text>
<text text-anchor="middle" x="939" y="-7" font-family="Helvetica,sans-Serif" font-size="10.00">/doxygen/src/dirdef.cpp</text>
</a>
</g>
</g>
<!-- Node1&#45;&gt;Node7 -->
<g id="edge6" class="edge">
<title>Node1&#45;&gt;Node7</title>
<path fill="none" stroke="#63b8ff" d="M1976.72,-79.13C1797.76,-76.62 1376.48,-66.95 1025,-30 1022.14,-29.7 1019.23,-29.37 1016.3,-29.01"/>
<polygon fill="#63b8ff" stroke="#63b8ff" points="1976.82,-82.64 1986.87,-79.27 1976.92,-75.64 1976.82,-82.64"/>
</g>
<!-- Node8 -->
<g id="node8" class="node">
<title>Node8</title>
<g id="a_node8"><a xlink:href="../../dc/d98/doxygen_8cpp.html" target="_top" xlink:title=" ">
<polygon fill="white" stroke="#666666" points="1188,-30 1034,-30 1034,0 1188,0 1188,-30"/>
<text text-anchor="start" x="1042" y="-18" font-family="Helvetica,sans-Serif" font-size="10.00">/home/runner/work/doxygen</text>
<text text-anchor="middle" x="1111" y="-7" font-family="Helvetica,sans-Serif" font-size="10.00">/doxygen/src/doxygen.cpp</text>
</a>
</g>
</g>
<!-- Node1&#45;&gt;Node8 -->
<g id="edge7" class="edge">
<title>Node1&#45;&gt;Node8</title>
<path fill="none" stroke="#63b8ff" d="M1976.89,-77.97C1820.37,-73.64 1481.31,-61.25 1197,-30 1194.14,-29.69 1191.24,-29.34 1188.3,-28.97"/>
<polygon fill="#63b8ff" stroke="#63b8ff" points="1976.85,-81.47 1986.94,-78.24 1977.04,-74.47 1976.85,-81.47"/>
</g>
<!-- Node9 -->
<g id="node9" class="node">
<title>Node9</title>
<g id="a_node9"><a xlink:href="../../d6/ddc/filedef_8cpp.html" target="_top" xlink:title=" ">
<polygon fill="white" stroke="#666666" points="1360,-30 1206,-30 1206,0 1360,0 1360,-30"/>
<text text-anchor="start" x="1214" y="-18" font-family="Helvetica,sans-Serif" font-size="10.00">/home/runner/work/doxygen</text>
<text text-anchor="middle" x="1283" y="-7" font-family="Helvetica,sans-Serif" font-size="10.00">/doxygen/src/filedef.cpp</text>
</a>
</g>
</g>
<!-- Node1&#45;&gt;Node9 -->
<g id="edge8" class="edge">
<title>Node1&#45;&gt;Node9</title>
<path fill="none" stroke="#63b8ff" d="M1976.87,-76.24C1844.99,-69.98 1586.95,-55.53 1369,-30 1366.15,-29.67 1363.24,-29.3 1360.31,-28.92"/>
<polygon fill="#63b8ff" stroke="#63b8ff" points="1976.76,-79.74 1986.91,-76.71 1977.09,-72.75 1976.76,-79.74"/>
</g>
<!-- Node10 -->
<g id="node10" class="node">
<title>Node10</title>
<g id="a_node10"><a xlink:href="../../d9/d5b/fortrancode_8l.html" target="_top" xlink:title=" ">
<polygon fill="white" stroke="#666666" points="1532,-30 1378,-30 1378,0 1532,0 1532,-30"/>
<text text-anchor="start" x="1386" y="-18" font-family="Helvetica,sans-Serif" font-size="10.00">/home/runner/work/doxygen</text>
<text text-anchor="middle" x="1455" y="-7" font-family="Helvetica,sans-Serif" font-size="10.00">/doxygen/src/fortrancode.l</text>
</a>
</g>
</g>
<!-- Node1&#45;&gt;Node10 -->
<g id="edge9" class="edge">
<title>Node1&#45;&gt;Node10</title>
<path fill="none" stroke="#63b8ff" d="M1976.59,-73.42C1872.58,-65.18 1693.77,-49.72 1541,-30 1538.15,-29.63 1535.25,-29.24 1532.32,-28.83"/>
<polygon fill="#63b8ff" stroke="#63b8ff" points="1976.48,-76.92 1986.73,-74.22 1977.03,-69.94 1976.48,-76.92"/>
</g>
<!-- Node11 -->
<g id="node11" class="node">
<title>Node11</title>
<g id="a_node11"><a xlink:href="../../d6/d42/groupdef_8cpp.html" target="_top" xlink:title=" ">
<polygon fill="white" stroke="#666666" points="1704,-30 1550,-30 1550,0 1704,0 1704,-30"/>
<text text-anchor="start" x="1558" y="-18" font-family="Helvetica,sans-Serif" font-size="10.00">/home/runner/work/doxygen</text>
<text text-anchor="middle" x="1627" y="-7" font-family="Helvetica,sans-Serif" font-size="10.00">/doxygen/src/groupdef.cpp</text>
</a>
</g>
</g>
<!-- Node1&#45;&gt;Node11 -->
<g id="edge10" class="edge">
<title>Node1&#45;&gt;Node11</title>
<path fill="none" stroke="#63b8ff" d="M1976.65,-68.05C1905.6,-58.21 1802.75,-43.7 1713,-30 1710.16,-29.57 1707.27,-29.12 1704.34,-28.67"/>
<polygon fill="#63b8ff" stroke="#63b8ff" points="1976.52,-71.56 1986.9,-69.47 1977.48,-64.63 1976.52,-71.56"/>
</g>
<!-- Node12 -->
<g id="node12" class="node">
<title>Node12</title>
<g id="a_node12"><a xlink:href="../../db/d14/index_8cpp.html" target="_top" xlink:title="This file contains functions for the various index pages.">
<polygon fill="white" stroke="#666666" points="1876,-30 1722,-30 1722,0 1876,0 1876,-30"/>
<text text-anchor="start" x="1730" y="-18" font-family="Helvetica,sans-Serif" font-size="10.00">/home/runner/work/doxygen</text>
<text text-anchor="middle" x="1799" y="-7" font-family="Helvetica,sans-Serif" font-size="10.00">/doxygen/src/index.cpp</text>
</a>
</g>
</g>
<!-- Node1&#45;&gt;Node12 -->
<g id="edge11" class="edge">
<title>Node1&#45;&gt;Node12</title>
<path fill="none" stroke="#63b8ff" d="M1996.02,-63.58C1953,-53.19 1897.98,-39.9 1857.02,-30.01"/>
<polygon fill="#63b8ff" stroke="#63b8ff" points="1995.3,-67.01 2005.84,-65.95 1996.95,-60.21 1995.3,-67.01"/>
</g>
<!-- Node13 -->
<g id="node13" class="node">
<title>Node13</title>
<g id="a_node13"><a xlink:href="../../d0/d72/memberdef_8cpp.html" target="_top" xlink:title=" ">
<polygon fill="white" stroke="#666666" points="2052,-30 1894,-30 1894,0 2052,0 2052,-30"/>
<text text-anchor="start" x="1902" y="-18" font-family="Helvetica,sans-Serif" font-size="10.00">/home/runner/work/doxygen</text>
<text text-anchor="middle" x="1973" y="-7" font-family="Helvetica,sans-Serif" font-size="10.00">/doxygen/src/memberdef.cpp</text>
</a>
</g>
</g>
<!-- Node1&#45;&gt;Node13 -->
<g id="edge12" class="edge">
<title>Node1&#45;&gt;Node13</title>
<path fill="none" stroke="#63b8ff" d="M2035.6,-60.03C2021.83,-50.34 2005.62,-38.94 1993.14,-30.16"/>
<polygon fill="#63b8ff" stroke="#63b8ff" points="2033.61,-62.91 2043.8,-65.8 2037.64,-57.18 2033.61,-62.91"/>
</g>
<!-- Node14 -->
<g id="node14" class="node">
<title>Node14</title>
<g id="a_node14"><a xlink:href="../../d6/d18/membergroup_8cpp.html" target="_top" xlink:title=" ">
<polygon fill="white" stroke="#666666" points="2241.5,-30 2070.5,-30 2070.5,0 2241.5,0 2241.5,-30"/>
<text text-anchor="start" x="2078.5" y="-18" font-family="Helvetica,sans-Serif" font-size="10.00">/home/runner/work/doxygen</text>
<text text-anchor="middle" x="2156" y="-7" font-family="Helvetica,sans-Serif" font-size="10.00">/doxygen/src/membergroup.cpp</text>
</a>
</g>
</g>
<!-- Node1&#45;&gt;Node14 -->
<g id="edge13" class="edge">
<title>Node1&#45;&gt;Node14</title>
<path fill="none" stroke="#63b8ff" d="M2092.71,-60.03C2106.63,-50.34 2123.03,-38.94 2135.64,-30.16"/>
<polygon fill="#63b8ff" stroke="#63b8ff" points="2090.63,-57.21 2084.42,-65.8 2094.63,-62.96 2090.63,-57.21"/>
</g>
<!-- Node15 -->
<g id="node15" class="node">
<title>Node15</title>
<g id="a_node15"><a xlink:href="../../d0/d14/memberlist_8cpp.html" target="_top" xlink:title=" ">
<polygon fill="white" stroke="#666666" points="2418,-30 2260,-30 2260,0 2418,0 2418,-30"/>
<text text-anchor="start" x="2268" y="-18" font-family="Helvetica,sans-Serif" font-size="10.00">/home/runner/work/doxygen</text>
<text text-anchor="middle" x="2339" y="-7" font-family="Helvetica,sans-Serif" font-size="10.00">/doxygen/src/memberlist.cpp</text>
</a>
</g>
</g>
<!-- Node1&#45;&gt;Node15 -->
<g id="edge14" class="edge">
<title>Node1&#45;&gt;Node15</title>
<path fill="none" stroke="#63b8ff" d="M2134.26,-63.65C2178.94,-53.25 2236.2,-39.93 2278.79,-30.01"/>
<polygon fill="#63b8ff" stroke="#63b8ff" points="2133.3,-60.28 2124.35,-65.95 2134.88,-67.1 2133.3,-60.28"/>
</g>
<!-- Node16 -->
<g id="node16" class="node">
<title>Node16</title>
<g id="a_node16"><a xlink:href="../../d7/d1c/namespacedef_8cpp.html" target="_top" xlink:title=" ">
<polygon fill="white" stroke="#666666" points="2609.5,-30 2436.5,-30 2436.5,0 2609.5,0 2609.5,-30"/>
<text text-anchor="start" x="2444.5" y="-18" font-family="Helvetica,sans-Serif" font-size="10.00">/home/runner/work/doxygen</text>
<text text-anchor="middle" x="2523" y="-7" font-family="Helvetica,sans-Serif" font-size="10.00">/doxygen/src/namespacedef.cpp</text>
</a>
</g>
</g>
<!-- Node1&#45;&gt;Node16 -->
<g id="edge15" class="edge">
<title>Node1&#45;&gt;Node16</title>
<path fill="none" stroke="#63b8ff" d="M2151.35,-68.17C2224.9,-58.15 2332.86,-43.35 2427,-30 2430.09,-29.56 2433.23,-29.12 2436.4,-28.66"/>
<polygon fill="#63b8ff" stroke="#63b8ff" points="2150.65,-64.73 2141.21,-69.55 2151.59,-71.67 2150.65,-64.73"/>
</g>
<!-- Node17 -->
<g id="node17" class="node">
<title>Node17</title>
<g id="a_node17"><a xlink:href="../../db/dd8/outputlist_8cpp.html" target="_top" xlink:title=" ">
<polygon fill="white" stroke="#666666" points="2782,-30 2628,-30 2628,0 2782,0 2782,-30"/>
<text text-anchor="start" x="2636" y="-18" font-family="Helvetica,sans-Serif" font-size="10.00">/home/runner/work/doxygen</text>
<text text-anchor="middle" x="2705" y="-7" font-family="Helvetica,sans-Serif" font-size="10.00">/doxygen/src/outputlist.cpp</text>
</a>
</g>
</g>
<!-- Node1&#45;&gt;Node17 -->
<g id="edge16" class="edge">
<title>Node1&#45;&gt;Node17</title>
<path fill="none" stroke="#63b8ff" d="M2151.41,-74.07C2260.93,-66.19 2454.25,-50.8 2619,-30 2621.85,-29.64 2624.75,-29.26 2627.68,-28.85"/>
<polygon fill="#63b8ff" stroke="#63b8ff" points="2151.13,-70.58 2141.4,-74.78 2151.63,-77.56 2151.13,-70.58"/>
</g>
<!-- Node18 -->
<g id="node18" class="node">
<title>Node18</title>
<g id="a_node18"><a xlink:href="../../d9/db4/pagedef_8cpp.html" target="_top" xlink:title=" ">
<polygon fill="white" stroke="#666666" points="2954,-30 2800,-30 2800,0 2954,0 2954,-30"/>
<text text-anchor="start" x="2808" y="-18" font-family="Helvetica,sans-Serif" font-size="10.00">/home/runner/work/doxygen</text>
<text text-anchor="middle" x="2877" y="-7" font-family="Helvetica,sans-Serif" font-size="10.00">/doxygen/src/pagedef.cpp</text>
</a>
</g>
</g>
<!-- Node1&#45;&gt;Node18 -->
<g id="edge17" class="edge">
<title>Node1&#45;&gt;Node18</title>
<path fill="none" stroke="#63b8ff" d="M2151.16,-76.62C2287.84,-70.73 2560.8,-56.6 2791,-30 2793.86,-29.67 2796.76,-29.31 2799.69,-28.93"/>
<polygon fill="#63b8ff" stroke="#63b8ff" points="2150.99,-73.12 2141.15,-77.05 2151.29,-80.12 2150.99,-73.12"/>
</g>
<!-- Node19 -->
<g id="node19" class="node">
<title>Node19</title>
<g id="a_node19"><a xlink:href="../../d3/ded/pycode_8l.html" target="_top" xlink:title=" ">
<polygon fill="white" stroke="#666666" points="3126,-30 2972,-30 2972,0 3126,0 3126,-30"/>
<text text-anchor="start" x="2980" y="-18" font-family="Helvetica,sans-Serif" font-size="10.00">/home/runner/work/doxygen</text>
<text text-anchor="middle" x="3049" y="-7" font-family="Helvetica,sans-Serif" font-size="10.00">/doxygen/src/pycode.l</text>
</a>
</g>
</g>
<!-- Node1&#45;&gt;Node19 -->
<g id="edge18" class="edge">
<title>Node1&#45;&gt;Node19</title>
<path fill="none" stroke="#63b8ff" d="M2151.51,-78.21C2312.54,-74.22 2666.48,-62.29 2963,-30 2965.86,-29.69 2968.76,-29.35 2971.7,-28.98"/>
<polygon fill="#63b8ff" stroke="#63b8ff" points="2151.1,-74.71 2141.19,-78.46 2151.27,-81.71 2151.1,-74.71"/>
</g>
<!-- Node20 -->
<g id="node20" class="node">
<title>Node20</title>
<g id="a_node20"><a xlink:href="../../d2/dda/sqlcode_8l.html" target="_top" xlink:title=" ">
<polygon fill="white" stroke="#666666" points="3298,-30 3144,-30 3144,0 3298,0 3298,-30"/>
<text text-anchor="start" x="3152" y="-18" font-family="Helvetica,sans-Serif" font-size="10.00">/home/runner/work/doxygen</text>
<text text-anchor="middle" x="3221" y="-7" font-family="Helvetica,sans-Serif" font-size="10.00">/doxygen/src/sqlcode.l</text>
</a>
</g>
</g>
<!-- Node1&#45;&gt;Node20 -->
<g id="edge19" class="edge">
<title>Node1&#45;&gt;Node20</title>
<path fill="none" stroke="#63b8ff" d="M2151.28,-79.31C2334.19,-77.13 2770.92,-68.01 3135,-30 3137.86,-29.7 3140.77,-29.37 3143.7,-29.01"/>
<polygon fill="#63b8ff" stroke="#63b8ff" points="2151.14,-75.81 2141.18,-79.43 2151.22,-82.81 2151.14,-75.81"/>
</g>
<!-- Node21 -->
<g id="node21" class="node">
<title>Node21</title>
<g id="a_node21"><a xlink:href="../../df/d2d/util_8cpp.html" target="_top" xlink:title=" ">
<polygon fill="white" stroke="#666666" points="3470,-30 3316,-30 3316,0 3470,0 3470,-30"/>
<text text-anchor="start" x="3324" y="-18" font-family="Helvetica,sans-Serif" font-size="10.00">/home/runner/work/doxygen</text>
<text text-anchor="middle" x="3393" y="-7" font-family="Helvetica,sans-Serif" font-size="10.00">/doxygen/src/util.cpp</text>
</a>
</g>
</g>
<!-- Node1&#45;&gt;Node21 -->
<g id="edge20" class="edge">
<title>Node1&#45;&gt;Node21</title>
<path fill="none" stroke="#63b8ff" d="M2151.34,-80.12C2354.6,-79.6 2874.87,-73.7 3307,-30 3309.86,-29.71 3312.77,-29.39 3315.7,-29.04"/>
<polygon fill="#63b8ff" stroke="#63b8ff" points="2151.32,-76.62 2141.32,-80.14 2151.33,-83.62 2151.32,-76.62"/>
</g>
<!-- Node22 -->
<g id="node22" class="node">
<title>Node22</title>
<g id="a_node22"><a xlink:href="../../d5/d6a/vhdlcode_8l.html" target="_top" xlink:title=" ">
<polygon fill="white" stroke="#666666" points="3642,-30 3488,-30 3488,0 3642,0 3642,-30"/>
<text text-anchor="start" x="3496" y="-18" font-family="Helvetica,sans-Serif" font-size="10.00">/home/runner/work/doxygen</text>
<text text-anchor="middle" x="3565" y="-7" font-family="Helvetica,sans-Serif" font-size="10.00">/doxygen/src/vhdlcode.l</text>
</a>
</g>
</g>
<!-- Node1&#45;&gt;Node22 -->
<g id="edge21" class="edge">
<title>Node1&#45;&gt;Node22</title>
<path fill="none" stroke="#63b8ff" d="M2151.6,-80.73C2374.03,-81.77 2978.43,-79.39 3479,-30 3481.86,-29.72 3484.77,-29.4 3487.71,-29.05"/>
<polygon fill="#63b8ff" stroke="#63b8ff" points="2151.32,-77.23 2141.3,-80.68 2151.29,-84.23 2151.32,-77.23"/>
</g>
<!-- Node23 -->
<g id="node23" class="node">
<title>Node23</title>
<g id="a_node23"><a xlink:href="../../de/dea/vhdldocgen_8cpp.html" target="_top" xlink:title=" ">
<polygon fill="white" stroke="#666666" points="3818,-30 3660,-30 3660,0 3818,0 3818,-30"/>
<text text-anchor="start" x="3668" y="-18" font-family="Helvetica,sans-Serif" font-size="10.00">/home/runner/work/doxygen</text>
<text text-anchor="middle" x="3739" y="-7" font-family="Helvetica,sans-Serif" font-size="10.00">/doxygen/src/vhdldocgen.cpp</text>
</a>
</g>
</g>
<!-- Node1&#45;&gt;Node23 -->
<g id="edge22" class="edge">
<title>Node1&#45;&gt;Node23</title>
<path fill="none" stroke="#63b8ff" d="M2151.5,-78.7C2439.51,-74.19 3356.38,-57.96 3651,-30 3653.93,-29.72 3656.9,-29.41 3659.91,-29.07"/>
<polygon fill="#63b8ff" stroke="#63b8ff" points="2151.05,-75.21 2141.11,-78.86 2151.16,-82.21 2151.05,-75.21"/>
</g>
<!-- Node24 -->
<g id="node24" class="node">
<title>Node24</title>
<g id="a_node24"><a xlink:href="../../d1/d86/vhdljjparser_8cpp.html" target="_top" xlink:title=" ">
<polygon fill="white" stroke="#666666" points="3994.5,-30 3835.5,-30 3835.5,0 3994.5,0 3994.5,-30"/>
<text text-anchor="start" x="3843.5" y="-18" font-family="Helvetica,sans-Serif" font-size="10.00">/home/runner/work/doxygen</text>
<text text-anchor="middle" x="3915" y="-7" font-family="Helvetica,sans-Serif" font-size="10.00">/doxygen/src/vhdljjparser.cpp</text>
</a>
</g>
</g>
<!-- Node1&#45;&gt;Node24 -->
<g id="edge23" class="edge">
<title>Node1&#45;&gt;Node24</title>
<path fill="none" stroke="#63b8ff" d="M2151.37,-79.02C2459.72,-75.33 3496.25,-60.87 3827,-30 3829.77,-29.74 3832.59,-29.45 3835.43,-29.13"/>
<polygon fill="#63b8ff" stroke="#63b8ff" points="2151.1,-75.52 2141.14,-79.14 2151.18,-82.52 2151.1,-75.52"/>
</g>
<!-- Node25 -->
<g id="node25" class="node">
<title>Node25</title>
<g id="a_node25"><a xlink:href="../../dc/dc1/xmlcode_8l.html" target="_top" xlink:title=" ">
<polygon fill="white" stroke="#666666" points="4167,-30 4013,-30 4013,0 4167,0 4167,-30"/>
<text text-anchor="start" x="4021" y="-18" font-family="Helvetica,sans-Serif" font-size="10.00">/home/runner/work/doxygen</text>
<text text-anchor="middle" x="4090" y="-7" font-family="Helvetica,sans-Serif" font-size="10.00">/doxygen/src/xmlcode.l</text>
</a>
</g>
</g>
<!-- Node1&#45;&gt;Node25 -->
<g id="edge24" class="edge">
<title>Node1&#45;&gt;Node25</title>
<path fill="none" stroke="#63b8ff" d="M2151.41,-79.32C2479.42,-76.54 3636.9,-64.45 4004,-30 4006.86,-29.73 4009.77,-29.43 4012.71,-29.09"/>
<polygon fill="#63b8ff" stroke="#63b8ff" points="2150.99,-75.83 2141.02,-79.41 2151.05,-82.83 2150.99,-75.83"/>
</g>
</g>
</svg>
