<?xml version="1.0" encoding="UTF-8" standalone="no"?>
<!DOCTYPE svg PUBLIC "-//W3C//DTD SVG 1.1//EN"
 "http://www.w3.org/Graphics/SVG/1.1/DTD/svg11.dtd">
<!-- Generated by graphviz version 2.43.0 (0)
 -->
<!-- Title: /home/runner/work/doxygen/doxygen/src/symbolresolver.h Pages: 1 -->
<svg width="776pt" height="423pt"
 viewBox="0.00 0.00 776.00 423.00" xmlns="http://www.w3.org/2000/svg" xmlns:xlink="http://www.w3.org/1999/xlink">
<g id="graph0" class="graph" transform="scale(1 1) rotate(0) translate(4 419)">
<title>/home/runner/work/doxygen/doxygen/src/symbolresolver.h</title>
<!-- Node1 -->
<g id="node1" class="node">
<title>Node1</title>
<g id="a_node1"><a xlink:title=" ">
<polygon fill="#999999" stroke="#666666" points="318,-415 152,-415 152,-385 318,-385 318,-415"/>
<text text-anchor="start" x="160" y="-403" font-family="Helvetica,sans-Serif" font-size="10.00">/home/runner/work/doxygen</text>
<text text-anchor="middle" x="235" y="-392" font-family="Helvetica,sans-Serif" font-size="10.00">/doxygen/src/symbolresolver.h</text>
</a>
</g>
</g>
<!-- Node2 -->
<g id="node2" class="node">
<title>Node2</title>
<g id="a_node2"><a xlink:title=" ">
<polygon fill="#e0e0e0" stroke="#999999" points="765,-129 707,-129 707,-110 765,-110 765,-129"/>
<text text-anchor="middle" x="736" y="-117" font-family="Helvetica,sans-Serif" font-size="10.00">memory</text>
</a>
</g>
</g>
<!-- Node1&#45;&gt;Node2 -->
<g id="edge1" class="edge">
<title>Node1&#45;&gt;Node2</title>
<path fill="none" stroke="#63b8ff" d="M318.28,-398.3C468.19,-394.76 768,-376.33 768,-285.5 768,-285.5 768,-285.5 768,-228.5 768,-195.71 754.27,-159.54 744.8,-138.49"/>
<polygon fill="#63b8ff" stroke="#63b8ff" points="747.86,-136.77 740.45,-129.2 741.52,-139.74 747.86,-136.77"/>
</g>
<!-- Node3 -->
<g id="node3" class="node">
<title>Node3</title>
<g id="a_node3"><a xlink:href="../../d7/d5c/qcstring_8h.html" target="_top" xlink:title=" ">
<polygon fill="white" stroke="#666666" points="341.5,-129 276.5,-129 276.5,-110 341.5,-110 341.5,-129"/>
<text text-anchor="middle" x="309" y="-117" font-family="Helvetica,sans-Serif" font-size="10.00">qcstring.h</text>
</a>
</g>
</g>
<!-- Node1&#45;&gt;Node3 -->
<g id="edge2" class="edge">
<title>Node1&#45;&gt;Node3</title>
<path fill="none" stroke="#63b8ff" d="M151.82,-392.38C84.21,-381.91 0,-354.93 0,-285.5 0,-285.5 0,-285.5 0,-228.5 0,-172.79 181.26,-139.06 266.13,-126.33"/>
<polygon fill="#63b8ff" stroke="#63b8ff" points="266.84,-129.76 276.22,-124.84 265.82,-122.83 266.84,-129.76"/>
</g>
<!-- Node13 -->
<g id="node13" class="node">
<title>Node13</title>
<g id="a_node13"><a xlink:href="../../d1/da6/classdef_8h.html" target="_top" xlink:title=" ">
<polygon fill="white" stroke="#666666" points="267.5,-349 202.5,-349 202.5,-330 267.5,-330 267.5,-349"/>
<text text-anchor="middle" x="235" y="-337" font-family="Helvetica,sans-Serif" font-size="10.00">classdef.h</text>
</a>
</g>
</g>
<!-- Node1&#45;&gt;Node13 -->
<g id="edge14" class="edge">
<title>Node1&#45;&gt;Node13</title>
<path fill="none" stroke="#63b8ff" d="M235,-384.84C235,-377.21 235,-367.7 235,-359.45"/>
<polygon fill="#63b8ff" stroke="#63b8ff" points="238.5,-359.27 235,-349.27 231.5,-359.27 238.5,-359.27"/>
</g>
<!-- Node4 -->
<g id="node4" class="node">
<title>Node4</title>
<g id="a_node4"><a xlink:title=" ">
<polygon fill="#e0e0e0" stroke="#999999" points="429,-19 385,-19 385,0 429,0 429,-19"/>
<text text-anchor="middle" x="407" y="-7" font-family="Helvetica,sans-Serif" font-size="10.00">string</text>
</a>
</g>
</g>
<!-- Node3&#45;&gt;Node4 -->
<g id="edge3" class="edge">
<title>Node3&#45;&gt;Node4</title>
<path fill="none" stroke="#63b8ff" d="M324.15,-109.92C337.4,-101.88 356.56,-88.89 370,-74 382.4,-60.26 392.62,-41.71 399.16,-28.21"/>
<polygon fill="#63b8ff" stroke="#63b8ff" points="402.38,-29.57 403.41,-19.03 396.03,-26.63 402.38,-29.57"/>
</g>
<!-- Node5 -->
<g id="node5" class="node">
<title>Node5</title>
<g id="a_node5"><a xlink:title=" ">
<polygon fill="#e0e0e0" stroke="#999999" points="651,-74 587,-74 587,-55 651,-55 651,-74"/>
<text text-anchor="middle" x="619" y="-62" font-family="Helvetica,sans-Serif" font-size="10.00">algorithm</text>
</a>
</g>
</g>
<!-- Node3&#45;&gt;Node5 -->
<g id="edge4" class="edge">
<title>Node3&#45;&gt;Node5</title>
<path fill="none" stroke="#63b8ff" d="M341.79,-113.51C390.74,-105.98 486.06,-90.93 576.89,-74.15"/>
<polygon fill="#63b8ff" stroke="#63b8ff" points="577.6,-77.57 586.8,-72.3 576.32,-70.69 577.6,-77.57"/>
</g>
<!-- Node6 -->
<g id="node6" class="node">
<title>Node6</title>
<g id="a_node6"><a xlink:title=" ">
<polygon fill="#e0e0e0" stroke="#999999" points="568.5,-74 519.5,-74 519.5,-55 568.5,-55 568.5,-74"/>
<text text-anchor="middle" x="544" y="-62" font-family="Helvetica,sans-Serif" font-size="10.00">cctype</text>
</a>
</g>
</g>
<!-- Node3&#45;&gt;Node6 -->
<g id="edge5" class="edge">
<title>Node3&#45;&gt;Node6</title>
<path fill="none" stroke="#63b8ff" d="M341.68,-111.13C385.9,-101.16 464.46,-83.44 509.57,-73.26"/>
<polygon fill="#63b8ff" stroke="#63b8ff" points="510.49,-76.65 519.47,-71.03 508.95,-69.82 510.49,-76.65"/>
</g>
<!-- Node7 -->
<g id="node7" class="node">
<title>Node7</title>
<g id="a_node7"><a xlink:title=" ">
<polygon fill="#e0e0e0" stroke="#999999" points="154,-74 104,-74 104,-55 154,-55 154,-74"/>
<text text-anchor="middle" x="129" y="-62" font-family="Helvetica,sans-Serif" font-size="10.00">cstring</text>
</a>
</g>
</g>
<!-- Node3&#45;&gt;Node7 -->
<g id="edge6" class="edge">
<title>Node3&#45;&gt;Node7</title>
<path fill="none" stroke="#63b8ff" d="M280.08,-109.98C248.47,-100.68 197.82,-85.76 163.99,-75.8"/>
<polygon fill="#63b8ff" stroke="#63b8ff" points="164.66,-72.35 154.07,-72.88 162.68,-79.07 164.66,-72.35"/>
</g>
<!-- Node8 -->
<g id="node8" class="node">
<title>Node8</title>
<g id="a_node8"><a xlink:title=" ">
<polygon fill="#e0e0e0" stroke="#999999" points="218,-74 172,-74 172,-55 218,-55 218,-74"/>
<text text-anchor="middle" x="195" y="-62" font-family="Helvetica,sans-Serif" font-size="10.00">cstdio</text>
</a>
</g>
</g>
<!-- Node3&#45;&gt;Node8 -->
<g id="edge7" class="edge">
<title>Node3&#45;&gt;Node8</title>
<path fill="none" stroke="#63b8ff" d="M290.68,-109.98C272.34,-101.46 243.89,-88.23 222.77,-78.41"/>
<polygon fill="#63b8ff" stroke="#63b8ff" points="224.19,-75.21 213.65,-74.17 221.24,-81.56 224.19,-75.21"/>
</g>
<!-- Node9 -->
<g id="node9" class="node">
<title>Node9</title>
<g id="a_node9"><a xlink:title=" ">
<polygon fill="#e0e0e0" stroke="#999999" points="285.5,-74 236.5,-74 236.5,-55 285.5,-55 285.5,-74"/>
<text text-anchor="middle" x="261" y="-62" font-family="Helvetica,sans-Serif" font-size="10.00">cstdlib</text>
</a>
</g>
</g>
<!-- Node3&#45;&gt;Node9 -->
<g id="edge8" class="edge">
<title>Node3&#45;&gt;Node9</title>
<path fill="none" stroke="#63b8ff" d="M301.07,-109.75C294.15,-102.11 283.93,-90.82 275.55,-81.56"/>
<polygon fill="#63b8ff" stroke="#63b8ff" points="278.09,-79.15 268.78,-74.09 272.9,-83.85 278.09,-79.15"/>
</g>
<!-- Node10 -->
<g id="node10" class="node">
<title>Node10</title>
<g id="a_node10"><a xlink:title=" ">
<polygon fill="#e0e0e0" stroke="#999999" points="506,-19 456,-19 456,0 506,0 506,-19"/>
<text text-anchor="middle" x="481" y="-7" font-family="Helvetica,sans-Serif" font-size="10.00">cstdint</text>
</a>
</g>
</g>
<!-- Node3&#45;&gt;Node10 -->
<g id="edge9" class="edge">
<title>Node3&#45;&gt;Node10</title>
<path fill="none" stroke="#63b8ff" d="M341.8,-113.85C384.29,-107.14 454.93,-93.36 472,-74 482.69,-61.87 484.15,-43.08 483.41,-29.08"/>
<polygon fill="#63b8ff" stroke="#63b8ff" points="486.89,-28.73 482.48,-19.1 479.92,-29.38 486.89,-28.73"/>
</g>
<!-- Node11 -->
<g id="node11" class="node">
<title>Node11</title>
<g id="a_node11"><a xlink:title=" ">
<polygon fill="#e0e0e0" stroke="#999999" points="360.5,-74 303.5,-74 303.5,-55 360.5,-55 360.5,-74"/>
<text text-anchor="middle" x="332" y="-62" font-family="Helvetica,sans-Serif" font-size="10.00">ostream</text>
</a>
</g>
</g>
<!-- Node3&#45;&gt;Node11 -->
<g id="edge10" class="edge">
<title>Node3&#45;&gt;Node11</title>
<path fill="none" stroke="#63b8ff" d="M312.8,-109.75C315.91,-102.57 320.42,-92.18 324.29,-83.27"/>
<polygon fill="#63b8ff" stroke="#63b8ff" points="327.5,-84.66 328.27,-74.09 321.08,-81.87 327.5,-84.66"/>
</g>
<!-- Node12 -->
<g id="node12" class="node">
<title>Node12</title>
<g id="a_node12"><a xlink:href="../../db/d7c/utf8_8h.html" target="_top" xlink:title="Various UTF8 related helper functions.">
<polygon fill="white" stroke="#666666" points="462.5,-74 417.5,-74 417.5,-55 462.5,-55 462.5,-74"/>
<text text-anchor="middle" x="440" y="-62" font-family="Helvetica,sans-Serif" font-size="10.00">utf8.h</text>
</a>
</g>
</g>
<!-- Node3&#45;&gt;Node12 -->
<g id="edge11" class="edge">
<title>Node3&#45;&gt;Node12</title>
<path fill="none" stroke="#63b8ff" d="M330.05,-109.98C351.41,-101.34 384.7,-87.87 409.06,-78.02"/>
<polygon fill="#63b8ff" stroke="#63b8ff" points="410.61,-81.17 418.57,-74.17 407.99,-74.68 410.61,-81.17"/>
</g>
<!-- Node12&#45;&gt;Node4 -->
<g id="edge13" class="edge">
<title>Node12&#45;&gt;Node4</title>
<path fill="none" stroke="#63b8ff" d="M434.55,-54.75C429.99,-47.42 423.33,-36.73 417.71,-27.7"/>
<polygon fill="#63b8ff" stroke="#63b8ff" points="420.6,-25.73 412.35,-19.09 414.66,-29.43 420.6,-25.73"/>
</g>
<!-- Node12&#45;&gt;Node10 -->
<g id="edge12" class="edge">
<title>Node12&#45;&gt;Node10</title>
<path fill="none" stroke="#63b8ff" d="M446.77,-54.75C452.56,-47.26 461.06,-36.28 468.14,-27.13"/>
<polygon fill="#63b8ff" stroke="#63b8ff" points="471.01,-29.14 474.36,-19.09 465.47,-24.86 471.01,-29.14"/>
</g>
<!-- Node14 -->
<g id="node14" class="node">
<title>Node14</title>
<g id="a_node14"><a xlink:title=" ">
<polygon fill="#e0e0e0" stroke="#999999" points="429.5,-129 382.5,-129 382.5,-110 429.5,-110 429.5,-129"/>
<text text-anchor="middle" x="406" y="-117" font-family="Helvetica,sans-Serif" font-size="10.00">vector</text>
</a>
</g>
</g>
<!-- Node13&#45;&gt;Node14 -->
<g id="edge15" class="edge">
<title>Node13&#45;&gt;Node14</title>
<path fill="none" stroke="#63b8ff" d="M209.02,-329.98C158.54,-312.11 55.48,-268.31 95,-220 146.1,-157.53 196.45,-209.58 273,-184 312.77,-170.71 356.12,-148.41 382.18,-134.09"/>
<polygon fill="#63b8ff" stroke="#63b8ff" points="383.92,-137.12 390.95,-129.2 380.51,-131.01 383.92,-137.12"/>
</g>
<!-- Node15 -->
<g id="node15" class="node">
<title>Node15</title>
<g id="a_node15"><a xlink:title=" ">
<polygon fill="#e0e0e0" stroke="#999999" points="136,-239 104,-239 104,-220 136,-220 136,-239"/>
<text text-anchor="middle" x="120" y="-227" font-family="Helvetica,sans-Serif" font-size="10.00">set</text>
</a>
</g>
</g>
<!-- Node13&#45;&gt;Node15 -->
<g id="edge16" class="edge">
<title>Node13&#45;&gt;Node15</title>
<path fill="none" stroke="#63b8ff" d="M225.59,-329.66C206.12,-311.38 161.19,-269.18 136.68,-246.17"/>
<polygon fill="#63b8ff" stroke="#63b8ff" points="138.91,-243.45 129.22,-239.16 134.11,-248.56 138.91,-243.45"/>
</g>
<!-- Node16 -->
<g id="node16" class="node">
<title>Node16</title>
<g id="a_node16"><a xlink:href="../../d5/d75/containers_8h.html" target="_top" xlink:title=" ">
<polygon fill="white" stroke="#666666" points="312.5,-294 235.5,-294 235.5,-275 312.5,-275 312.5,-294"/>
<text text-anchor="middle" x="274" y="-282" font-family="Helvetica,sans-Serif" font-size="10.00">containers.h</text>
</a>
</g>
</g>
<!-- Node13&#45;&gt;Node16 -->
<g id="edge17" class="edge">
<title>Node13&#45;&gt;Node16</title>
<path fill="none" stroke="#63b8ff" d="M241.44,-329.75C246.89,-322.34 254.86,-311.5 261.56,-302.41"/>
<polygon fill="#63b8ff" stroke="#63b8ff" points="264.57,-304.22 267.68,-294.09 258.93,-300.07 264.57,-304.22"/>
</g>
<!-- Node21 -->
<g id="node21" class="node">
<title>Node21</title>
<g id="a_node21"><a xlink:href="../../df/da1/definition_8h.html" target="_top" xlink:title=" ">
<polygon fill="white" stroke="#666666" points="465.5,-294 394.5,-294 394.5,-275 465.5,-275 465.5,-294"/>
<text text-anchor="middle" x="430" y="-282" font-family="Helvetica,sans-Serif" font-size="10.00">definition.h</text>
</a>
</g>
</g>
<!-- Node13&#45;&gt;Node21 -->
<g id="edge25" class="edge">
<title>Node13&#45;&gt;Node21</title>
<path fill="none" stroke="#63b8ff" d="M266.33,-329.98C299.49,-320.97 352,-306.7 388.56,-296.76"/>
<polygon fill="#63b8ff" stroke="#63b8ff" points="389.69,-300.08 398.42,-294.08 387.86,-293.33 389.69,-300.08"/>
</g>
<!-- Node25 -->
<g id="node25" class="node">
<title>Node25</title>
<g id="a_node25"><a xlink:href="../../df/d9b/arguments_8h.html" target="_top" xlink:title=" ">
<polygon fill="white" stroke="#666666" points="264,-184 186,-184 186,-165 264,-165 264,-184"/>
<text text-anchor="middle" x="225" y="-172" font-family="Helvetica,sans-Serif" font-size="10.00">arguments.h</text>
</a>
</g>
</g>
<!-- Node13&#45;&gt;Node25 -->
<g id="edge42" class="edge">
<title>Node13&#45;&gt;Node25</title>
<path fill="none" stroke="#63b8ff" d="M202.46,-334.85C157.25,-329.02 79.05,-316 62,-294 41.85,-268.01 42.04,-246.14 62,-220 75.84,-201.87 133.03,-189.34 175.79,-182.3"/>
<polygon fill="#63b8ff" stroke="#63b8ff" points="176.43,-185.75 185.76,-180.72 175.33,-178.83 176.43,-185.75"/>
</g>
<!-- Node26 -->
<g id="node26" class="node">
<title>Node26</title>
<g id="a_node26"><a xlink:href="../../d9/d11/membergroup_8h.html" target="_top" xlink:title=" ">
<polygon fill="white" stroke="#666666" points="629.5,-294 534.5,-294 534.5,-275 629.5,-275 629.5,-294"/>
<text text-anchor="middle" x="582" y="-282" font-family="Helvetica,sans-Serif" font-size="10.00">membergroup.h</text>
</a>
</g>
</g>
<!-- Node13&#45;&gt;Node26 -->
<g id="edge45" class="edge">
<title>Node13&#45;&gt;Node26</title>
<path fill="none" stroke="#63b8ff" d="M267.64,-333.51C326.46,-324.53 450.91,-305.52 524.36,-294.3"/>
<polygon fill="#63b8ff" stroke="#63b8ff" points="525.01,-297.74 534.37,-292.77 523.96,-290.83 525.01,-297.74"/>
</g>
<!-- Node16&#45;&gt;Node4 -->
<g id="edge19" class="edge">
<title>Node16&#45;&gt;Node4</title>
<path fill="none" stroke="#63b8ff" d="M245.79,-274.9C226.27,-267.81 200.71,-256.1 183,-239 117.79,-176.04 35.6,-123.47 95,-55 130.98,-13.53 302.3,-9.73 374.65,-10.03"/>
<polygon fill="#63b8ff" stroke="#63b8ff" points="374.95,-13.53 384.97,-10.1 375,-6.53 374.95,-13.53"/>
</g>
<!-- Node16&#45;&gt;Node14 -->
<g id="edge18" class="edge">
<title>Node16&#45;&gt;Node14</title>
<path fill="none" stroke="#63b8ff" d="M295.37,-274.94C311.77,-267.48 334.07,-255.3 349,-239 376.27,-209.24 393.07,-164.05 400.84,-138.95"/>
<polygon fill="#63b8ff" stroke="#63b8ff" points="404.23,-139.82 403.71,-129.24 397.52,-137.84 404.23,-139.82"/>
</g>
<!-- Node16&#45;&gt;Node15 -->
<g id="edge20" class="edge">
<title>Node16&#45;&gt;Node15</title>
<path fill="none" stroke="#63b8ff" d="M249.26,-274.98C220.94,-265.24 174.76,-249.35 145.94,-239.43"/>
<polygon fill="#63b8ff" stroke="#63b8ff" points="146.77,-236.01 136.18,-236.07 144.49,-242.63 146.77,-236.01"/>
</g>
<!-- Node17 -->
<g id="node17" class="node">
<title>Node17</title>
<g id="a_node17"><a xlink:title=" ">
<polygon fill="#e0e0e0" stroke="#999999" points="510,-239 472,-239 472,-220 510,-220 510,-239"/>
<text text-anchor="middle" x="491" y="-227" font-family="Helvetica,sans-Serif" font-size="10.00">map</text>
</a>
</g>
</g>
<!-- Node16&#45;&gt;Node17 -->
<g id="edge21" class="edge">
<title>Node16&#45;&gt;Node17</title>
<path fill="none" stroke="#63b8ff" d="M310,-274.96C347.12,-266.11 406.66,-251.82 458,-239 459.26,-238.69 460.54,-238.36 461.84,-238.03"/>
<polygon fill="#63b8ff" stroke="#63b8ff" points="462.99,-241.35 471.82,-235.49 461.26,-234.57 462.99,-241.35"/>
</g>
<!-- Node18 -->
<g id="node18" class="node">
<title>Node18</title>
<g id="a_node18"><a xlink:title=" ">
<polygon fill="#e0e0e0" stroke="#999999" points="278,-239 192,-239 192,-220 278,-220 278,-239"/>
<text text-anchor="middle" x="235" y="-227" font-family="Helvetica,sans-Serif" font-size="10.00">unordered_set</text>
</a>
</g>
</g>
<!-- Node16&#45;&gt;Node18 -->
<g id="edge22" class="edge">
<title>Node16&#45;&gt;Node18</title>
<path fill="none" stroke="#63b8ff" d="M267.56,-274.75C262.11,-267.34 254.14,-256.5 247.44,-247.41"/>
<polygon fill="#63b8ff" stroke="#63b8ff" points="250.07,-245.07 241.32,-239.09 244.43,-249.22 250.07,-245.07"/>
</g>
<!-- Node19 -->
<g id="node19" class="node">
<title>Node19</title>
<g id="a_node19"><a xlink:title=" ">
<polygon fill="#e0e0e0" stroke="#999999" points="558.5,-129 465.5,-129 465.5,-110 558.5,-110 558.5,-129"/>
<text text-anchor="middle" x="512" y="-117" font-family="Helvetica,sans-Serif" font-size="10.00">unordered_map</text>
</a>
</g>
</g>
<!-- Node16&#45;&gt;Node19 -->
<g id="edge23" class="edge">
<title>Node16&#45;&gt;Node19</title>
<path fill="none" stroke="#63b8ff" d="M296.59,-274.99C316.6,-267 346.26,-254.04 370,-239 419.68,-207.52 470.97,-160.42 496.13,-136.17"/>
<polygon fill="#63b8ff" stroke="#63b8ff" points="498.62,-138.63 503.34,-129.15 493.73,-133.61 498.62,-138.63"/>
</g>
<!-- Node20 -->
<g id="node20" class="node">
<title>Node20</title>
<g id="a_node20"><a xlink:title=" ">
<polygon fill="#e0e0e0" stroke="#999999" points="339.5,-239 296.5,-239 296.5,-220 339.5,-220 339.5,-239"/>
<text text-anchor="middle" x="318" y="-227" font-family="Helvetica,sans-Serif" font-size="10.00">stack</text>
</a>
</g>
</g>
<!-- Node16&#45;&gt;Node20 -->
<g id="edge24" class="edge">
<title>Node16&#45;&gt;Node20</title>
<path fill="none" stroke="#63b8ff" d="M281.27,-274.75C287.54,-267.18 296.79,-256.05 304.43,-246.84"/>
<polygon fill="#63b8ff" stroke="#63b8ff" points="307.17,-249.02 310.87,-239.09 301.79,-244.55 307.17,-249.02"/>
</g>
<!-- Node21&#45;&gt;Node14 -->
<g id="edge26" class="edge">
<title>Node21&#45;&gt;Node14</title>
<path fill="none" stroke="#63b8ff" d="M428.71,-274.74C424.95,-249.2 413.94,-174.43 408.76,-139.23"/>
<polygon fill="#63b8ff" stroke="#63b8ff" points="412.22,-138.69 407.3,-129.31 405.29,-139.71 412.22,-138.69"/>
</g>
<!-- Node22 -->
<g id="node22" class="node">
<title>Node22</title>
<g id="a_node22"><a xlink:href="../../d9/d49/types_8h.html" target="_top" xlink:title="This file contains a number of basic enums and types.">
<polygon fill="white" stroke="#666666" points="581.5,-239 528.5,-239 528.5,-220 581.5,-220 581.5,-239"/>
<text text-anchor="middle" x="555" y="-227" font-family="Helvetica,sans-Serif" font-size="10.00">types.h</text>
</a>
</g>
</g>
<!-- Node21&#45;&gt;Node22 -->
<g id="edge27" class="edge">
<title>Node21&#45;&gt;Node22</title>
<path fill="none" stroke="#63b8ff" d="M450.08,-274.98C470.37,-266.38 501.96,-252.99 525.17,-243.15"/>
<polygon fill="#63b8ff" stroke="#63b8ff" points="526.71,-246.3 534.55,-239.17 523.98,-239.85 526.71,-246.3"/>
</g>
<!-- Node23 -->
<g id="node23" class="node">
<title>Node23</title>
<g id="a_node23"><a xlink:href="../../d1/d02/reflist_8h.html" target="_top" xlink:title=" ">
<polygon fill="white" stroke="#666666" points="691.5,-239 638.5,-239 638.5,-220 691.5,-220 691.5,-239"/>
<text text-anchor="middle" x="665" y="-227" font-family="Helvetica,sans-Serif" font-size="10.00">reflist.h</text>
</a>
</g>
</g>
<!-- Node21&#45;&gt;Node23 -->
<g id="edge29" class="edge">
<title>Node21&#45;&gt;Node23</title>
<path fill="none" stroke="#63b8ff" d="M465.69,-275.45C509.77,-265.51 584.33,-248.69 628.69,-238.69"/>
<polygon fill="#63b8ff" stroke="#63b8ff" points="629.49,-242.1 638.47,-236.48 627.95,-235.27 629.49,-242.1"/>
</g>
<!-- Node22&#45;&gt;Node3 -->
<g id="edge28" class="edge">
<title>Node22&#45;&gt;Node3</title>
<path fill="none" stroke="#63b8ff" d="M528.34,-221.81C525.2,-221.14 522.04,-220.52 519,-220 443.66,-207.19 228.13,-240.8 177,-184 147.77,-151.53 217.2,-134.05 266.05,-126.05"/>
<polygon fill="#63b8ff" stroke="#63b8ff" points="266.78,-129.48 276.12,-124.49 265.7,-122.57 266.78,-129.48"/>
</g>
<!-- Node23&#45;&gt;Node2 -->
<g id="edge32" class="edge">
<title>Node23&#45;&gt;Node2</title>
<path fill="none" stroke="#63b8ff" d="M670.81,-219.66C682.57,-201.77 709.37,-161 724.7,-137.69"/>
<polygon fill="#63b8ff" stroke="#63b8ff" points="727.74,-139.44 730.31,-129.16 721.89,-135.59 727.74,-139.44"/>
</g>
<!-- Node23&#45;&gt;Node3 -->
<g id="edge33" class="edge">
<title>Node23&#45;&gt;Node3</title>
<path fill="none" stroke="#63b8ff" d="M638.23,-221.57C606.01,-213.13 550.34,-198.24 503,-184 446.77,-167.08 382.06,-145.46 343.4,-132.32"/>
<polygon fill="#63b8ff" stroke="#63b8ff" points="344.28,-128.92 333.68,-129 342.02,-135.54 344.28,-128.92"/>
</g>
<!-- Node23&#45;&gt;Node14 -->
<g id="edge30" class="edge">
<title>Node23&#45;&gt;Node14</title>
<path fill="none" stroke="#63b8ff" d="M642.39,-219.87C619.52,-211.07 583.17,-196.91 552,-184 510.93,-166.99 463.84,-146.29 434.51,-133.25"/>
<polygon fill="#63b8ff" stroke="#63b8ff" points="435.83,-130.01 425.27,-129.14 432.98,-136.4 435.83,-130.01"/>
</g>
<!-- Node23&#45;&gt;Node19 -->
<g id="edge31" class="edge">
<title>Node23&#45;&gt;Node19</title>
<path fill="none" stroke="#63b8ff" d="M643.99,-219.85C625.73,-211.85 599,-198.97 578,-184 558.49,-170.09 539.07,-150.55 526.41,-136.83"/>
<polygon fill="#63b8ff" stroke="#63b8ff" points="528.75,-134.21 519.45,-129.14 523.56,-138.9 528.75,-134.21"/>
</g>
<!-- Node24 -->
<g id="node24" class="node">
<title>Node24</title>
<g id="a_node24"><a xlink:href="../../da/de1/linkedmap_8h.html" target="_top" xlink:title=" ">
<polygon fill="white" stroke="#666666" points="663.5,-184 586.5,-184 586.5,-165 663.5,-165 663.5,-184"/>
<text text-anchor="middle" x="625" y="-172" font-family="Helvetica,sans-Serif" font-size="10.00">linkedmap.h</text>
</a>
</g>
</g>
<!-- Node23&#45;&gt;Node24 -->
<g id="edge34" class="edge">
<title>Node23&#45;&gt;Node24</title>
<path fill="none" stroke="#63b8ff" d="M658.39,-219.75C652.74,-212.26 644.46,-201.28 637.55,-192.13"/>
<polygon fill="#63b8ff" stroke="#63b8ff" points="640.3,-189.96 631.48,-184.09 634.71,-194.18 640.3,-189.96"/>
</g>
<!-- Node24&#45;&gt;Node2 -->
<g id="edge37" class="edge">
<title>Node24&#45;&gt;Node2</title>
<path fill="none" stroke="#63b8ff" d="M642.83,-164.98C660.61,-156.5 688.15,-143.35 708.68,-133.54"/>
<polygon fill="#63b8ff" stroke="#63b8ff" points="710.33,-136.64 717.84,-129.17 707.31,-130.32 710.33,-136.64"/>
</g>
<!-- Node24&#45;&gt;Node3 -->
<g id="edge41" class="edge">
<title>Node24&#45;&gt;Node3</title>
<path fill="none" stroke="#63b8ff" d="M586.25,-167C526.89,-157.05 413.85,-138.09 352.03,-127.72"/>
<polygon fill="#63b8ff" stroke="#63b8ff" points="352.27,-124.21 341.83,-126.01 351.11,-131.11 352.27,-124.21"/>
</g>
<!-- Node24&#45;&gt;Node4 -->
<g id="edge38" class="edge">
<title>Node24&#45;&gt;Node4</title>
<path fill="none" stroke="#63b8ff" d="M632.24,-164.96C649.25,-143.83 688.25,-88.42 660,-55 629.01,-18.34 494.16,-27.99 447,-19 444.5,-18.52 441.91,-18.01 439.31,-17.49"/>
<polygon fill="#63b8ff" stroke="#63b8ff" points="439.89,-14.03 429.39,-15.43 438.47,-20.89 439.89,-14.03"/>
</g>
<!-- Node24&#45;&gt;Node5 -->
<g id="edge39" class="edge">
<title>Node24&#45;&gt;Node5</title>
<path fill="none" stroke="#63b8ff" d="M624.51,-164.66C623.54,-147.17 621.35,-107.8 620.04,-84.27"/>
<polygon fill="#63b8ff" stroke="#63b8ff" points="623.53,-83.95 619.48,-74.16 616.54,-84.34 623.53,-83.95"/>
</g>
<!-- Node24&#45;&gt;Node6 -->
<g id="edge40" class="edge">
<title>Node24&#45;&gt;Node6</title>
<path fill="none" stroke="#63b8ff" d="M618.37,-164.66C604.9,-146.69 574.11,-105.64 556.66,-82.38"/>
<polygon fill="#63b8ff" stroke="#63b8ff" points="559.29,-80.06 550.49,-74.16 553.69,-84.26 559.29,-80.06"/>
</g>
<!-- Node24&#45;&gt;Node14 -->
<g id="edge36" class="edge">
<title>Node24&#45;&gt;Node14</title>
<path fill="none" stroke="#63b8ff" d="M589.81,-164.98C548.44,-154.97 480.26,-138.47 439.59,-128.63"/>
<polygon fill="#63b8ff" stroke="#63b8ff" points="440.17,-125.17 429.63,-126.22 438.52,-131.97 440.17,-125.17"/>
</g>
<!-- Node24&#45;&gt;Node19 -->
<g id="edge35" class="edge">
<title>Node24&#45;&gt;Node19</title>
<path fill="none" stroke="#63b8ff" d="M606.84,-164.98C588.75,-156.5 560.72,-143.35 539.81,-133.54"/>
<polygon fill="#63b8ff" stroke="#63b8ff" points="541.03,-130.25 530.49,-129.17 538.05,-136.59 541.03,-130.25"/>
</g>
<!-- Node25&#45;&gt;Node3 -->
<g id="edge44" class="edge">
<title>Node25&#45;&gt;Node3</title>
<path fill="none" stroke="#63b8ff" d="M238.5,-164.98C251.4,-156.84 271.1,-144.41 286.4,-134.76"/>
<polygon fill="#63b8ff" stroke="#63b8ff" points="288.67,-137.47 295.26,-129.17 284.93,-131.55 288.67,-137.47"/>
</g>
<!-- Node25&#45;&gt;Node14 -->
<g id="edge43" class="edge">
<title>Node25&#45;&gt;Node14</title>
<path fill="none" stroke="#63b8ff" d="M254.08,-164.98C286.41,-155.52 338.54,-140.25 372.54,-130.3"/>
<polygon fill="#63b8ff" stroke="#63b8ff" points="373.86,-133.56 382.47,-127.39 371.89,-126.84 373.86,-133.56"/>
</g>
<!-- Node26&#45;&gt;Node2 -->
<g id="edge48" class="edge">
<title>Node26&#45;&gt;Node2</title>
<path fill="none" stroke="#63b8ff" d="M629.71,-276.09C654.08,-269.99 682.43,-258.93 701,-239 726.87,-211.23 733.7,-165.26 735.45,-139.49"/>
<polygon fill="#63b8ff" stroke="#63b8ff" points="738.96,-139.38 735.95,-129.22 731.97,-139.04 738.96,-139.38"/>
</g>
<!-- Node26&#45;&gt;Node14 -->
<g id="edge46" class="edge">
<title>Node26&#45;&gt;Node14</title>
<path fill="none" stroke="#63b8ff" d="M586.65,-274.87C592.98,-261.82 602.3,-236.82 591,-220 567.45,-184.92 540.4,-203.66 503,-184 475.01,-169.29 444.84,-148.71 425.71,-135.02"/>
<polygon fill="#63b8ff" stroke="#63b8ff" points="427.65,-132.11 417.5,-129.08 423.55,-137.78 427.65,-132.11"/>
</g>
<!-- Node26&#45;&gt;Node17 -->
<g id="edge47" class="edge">
<title>Node26&#45;&gt;Node17</title>
<path fill="none" stroke="#63b8ff" d="M567.38,-274.98C553.14,-266.69 531.25,-253.94 514.55,-244.22"/>
<polygon fill="#63b8ff" stroke="#63b8ff" points="516.29,-241.18 505.89,-239.17 512.77,-247.23 516.29,-241.18"/>
</g>
<!-- Node26&#45;&gt;Node22 -->
<g id="edge49" class="edge">
<title>Node26&#45;&gt;Node22</title>
<path fill="none" stroke="#63b8ff" d="M577.54,-274.75C573.88,-267.57 568.59,-257.18 564.05,-248.27"/>
<polygon fill="#63b8ff" stroke="#63b8ff" points="567.03,-246.41 559.38,-239.09 560.8,-249.59 567.03,-246.41"/>
</g>
<!-- Node26&#45;&gt;Node23 -->
<g id="edge50" class="edge">
<title>Node26&#45;&gt;Node23</title>
<path fill="none" stroke="#63b8ff" d="M595.34,-274.98C608.09,-266.84 627.55,-254.41 642.67,-244.76"/>
<polygon fill="#63b8ff" stroke="#63b8ff" points="644.88,-247.5 651.42,-239.17 641.11,-241.6 644.88,-247.5"/>
</g>
</g>
</svg>
